<?xml version="1.0" encoding="utf-8" ?>
<svg baseProfile="tiny" height="1000px" version="1.2" width="490px" xmlns="http://www.w3.org/2000/svg" xmlns:ev="http://www.w3.org/2001/xml-events" xmlns:xlink="http://www.w3.org/1999/xlink"><defs /><g><g transform="rotate(-80.0,245.0,500.0)"><polygon fill="#4B7D43" opacity="100" points="-69.0,470.0 -69.0,440.0 381.0,440.0 381.0,470.0" stroke="#000" stroke-width="1" /><polygon fill="#4B7D43" opacity="100" points="-69.0,580.0 -69.0,550.0 381.0,550.0 381.0,580.0" stroke="#000" stroke-width="1" /><text fill="#4B7D43" font-family="Arial" font-size="20" font-weight="normal" opacity="100" transform="rotate(-0.0 -71.0,414.0) translate(0 20)" x="-71.0" y="414.0">&lt;&lt; Yunus Rajabiy</text><text fill="#4B7D43" font-family="Arial" font-size="20" font-weight="normal" opacity="100" transform="rotate(-0.0 308.0,580.0) translate(0 20)" x="308.0" y="580.0">Minor &gt;&gt;</text><text fill="#4B7D43" font-family="Arial" font-size="25" font-weight="bold" opacity="100" transform="rotate(-0.0 74.0,494.0) translate(0 25)" x="74.0" y="494.0">Abdulla Qodiriy</text><polyline fill="none" opacity="100" points="394.0,535.0 394.0,539.0 381.0,539.0 381.0,550.0" stroke="#000" stroke-width="1" /><polyline fill="none" opacity="100" points="381.0,470.0 381.0,480.0 394.0,480.0 394.0,492.0 447.0,492.0 447.0,446.0 513.0,446.0 513.0,453.0 527.0,453.0 527.0,335.0" stroke="#000" stroke-width="1" /><polyline fill="none" opacity="100" points="544.0,335.0 544.0,385.0 716.0,385.0" stroke="#000" stroke-width="1" /><polyline fill="none" opacity="100" points="716.0,402.0 550.0,402.0 550.0,612.0 716.0,612.0" stroke="#000" stroke-width="1" /><polyline fill="none" opacity="100" points="716.0,629.0 544.0,629.0 544.0,679.0" stroke="#000" stroke-width="1" /><polyline fill="none" opacity="100" points="527.0,679.0 527.0,565.0 513.0,565.0 513.0,572.0 447.0,572.0 447.0,535.0" stroke="#000" stroke-width="1" /><polyline fill="none" opacity="100" points="714.0,402.0 714.0,385.0" stroke="#000" stroke-width="1" /><polyline fill="none" opacity="100" points="710.0,402.0 710.0,385.0" stroke="#000" stroke-width="1" /><polyline fill="none" opacity="100" points="706.0,402.0 706.0,385.0" stroke="#000" stroke-width="1" /><polyline fill="none" opacity="100" points="702.0,402.0 702.0,385.0" stroke="#000" stroke-width="1" /><polyline fill="none" opacity="100" points="698.0,402.0 698.0,385.0" stroke="#000" stroke-width="1" /><polyline fill="none" opacity="100" points="694.0,402.0 694.0,385.0" stroke="#000" stroke-width="1" /><polyline fill="none" opacity="100" points="690.0,402.0 690.0,385.0" stroke="#000" stroke-width="1" /><polyline fill="none" opacity="100" points="686.0,402.0 686.0,385.0" stroke="#000" stroke-width="1" /><polyline fill="none" opacity="100" points="682.0,402.0 682.0,385.0" stroke="#000" stroke-width="1" /><polyline fill="none" opacity="100" points="678.0,402.0 678.0,385.0" stroke="#000" stroke-width="1" /><polyline fill="none" opacity="100" points="674.0,402.0 674.0,385.0" stroke="#000" stroke-width="1" /><polyline fill="none" opacity="100" points="670.0,402.0 670.0,385.0" stroke="#000" stroke-width="1" /><polyline fill="none" opacity="100" points="714.0,612.0 714.0,629.0" stroke="#000" stroke-width="1" /><polyline fill="none" opacity="100" points="710.0,612.0 710.0,629.0" stroke="#000" stroke-width="1" /><polyline fill="none" opacity="100" points="706.0,612.0 706.0,629.0" stroke="#000" stroke-width="1" /><polyline fill="none" opacity="100" points="702.0,612.0 702.0,629.0" stroke="#000" stroke-width="1" /><polyline fill="none" opacity="100" points="698.0,612.0 698.0,629.0" stroke="#000" stroke-width="1" /><polyline fill="none" opacity="100" points="694.0,612.0 694.0,629.0" stroke="#000" stroke-width="1" /><polyline fill="none" opacity="100" points="690.0,612.0 690.0,629.0" stroke="#000" stroke-width="1" /><polyline fill="none" opacity="100" points="686.0,612.0 686.0,629.0" stroke="#000" stroke-width="1" /><polyline fill="none" opacity="100" points="682.0,612.0 682.0,629.0" stroke="#000" stroke-width="1" /><polyline fill="none" opacity="100" points="678.0,612.0 678.0,629.0" stroke="#000" stroke-width="1" /><polyline fill="none" opacity="100" points="674.0,612.0 674.0,629.0" stroke="#000" stroke-width="1" /><polyline fill="none" opacity="100" points="670.0,612.0 670.0,629.0" stroke="#000" stroke-width="1" /><polyline fill="none" opacity="100" points="544.0,337.0 527.0,337.0" stroke="#000" stroke-width="1" /><polyline fill="none" opacity="100" points="544.0,341.0 527.0,341.0" stroke="#000" stroke-width="1" /><polyline fill="none" opacity="100" points="544.0,345.0 527.0,345.0" stroke="#000" stroke-width="1" /><polyline fill="none" opacity="100" points="544.0,349.0 527.0,349.0" stroke="#000" stroke-width="1" /><polyline fill="none" opacity="100" points="544.0,353.0 527.0,353.0" stroke="#000" stroke-width="1" /><polyline fill="none" opacity="100" points="544.0,357.0 527.0,357.0" stroke="#000" stroke-width="1" /><polyline fill="none" opacity="100" points="544.0,361.0 527.0,361.0" stroke="#000" stroke-width="1" /><polyline fill="none" opacity="100" points="544.0,365.0 527.0,365.0" stroke="#000" stroke-width="1" /><polyline fill="none" opacity="100" points="544.0,369.0 527.0,369.0" stroke="#000" stroke-width="1" /><polyline fill="none" opacity="100" points="544.0,373.0 527.0,373.0" stroke="#000" stroke-width="1" /><polyline fill="none" opacity="100" points="544.0,377.0 527.0,377.0" stroke="#000" stroke-width="1" /><polyline fill="none" opacity="100" points="544.0,381.0 527.0,381.0" stroke="#000" stroke-width="1" /><polyline fill="none" opacity="100" points="544.0,677.0 527.0,677.0" stroke="#000" stroke-width="1" /><polyline fill="none" opacity="100" points="544.0,673.0 527.0,673.0" stroke="#000" stroke-width="1" /><polyline fill="none" opacity="100" points="544.0,669.0 527.0,669.0" stroke="#000" stroke-width="1" /><polyline fill="none" opacity="100" points="544.0,665.0 527.0,665.0" stroke="#000" stroke-width="1" /><polyline fill="none" opacity="100" points="544.0,661.0 527.0,661.0" stroke="#000" stroke-width="1" /><polyline fill="none" opacity="100" points="544.0,657.0 527.0,657.0" stroke="#000" stroke-width="1" /><polyline fill="none" opacity="100" points="544.0,653.0 527.0,653.0" stroke="#000" stroke-width="1" /><polyline fill="none" opacity="100" points="544.0,649.0 527.0,649.0" stroke="#000" stroke-width="1" /><polyline fill="none" opacity="100" points="544.0,645.0 527.0,645.0" stroke="#000" stroke-width="1" /><polyline fill="none" opacity="100" points="544.0,641.0 527.0,641.0" stroke="#000" stroke-width="1" /><polyline fill="none" opacity="100" points="544.0,637.0 527.0,637.0" stroke="#000" stroke-width="1" /><polyline fill="none" opacity="100" points="544.0,633.0 527.0,633.0" stroke="#000" stroke-width="1" /><polyline fill="none" opacity="100" points="443.0,492.0 443.0,511.0" stroke="#000" stroke-width="1" /><polyline fill="none" opacity="100" points="439.0,492.0 439.0,511.0" stroke="#000" stroke-width="1" /><polyline fill="none" opacity="100" points="435.0,492.0 435.0,511.0" stroke="#000" stroke-width="1" /><polyline fill="none" opacity="100" points="431.0,492.0 431.0,511.0" stroke="#000" stroke-width="1" /><polyline fill="none" opacity="100" points="427.0,492.0 427.0,511.0" stroke="#000" stroke-width="1" /><polyline fill="none" opacity="100" points="423.0,492.0 423.0,511.0" stroke="#000" stroke-width="1" /><polyline fill="none" opacity="100" points="419.0,492.0 419.0,511.0" stroke="#000" stroke-width="1" /><polyline fill="none" opacity="100" points="415.0,492.0 415.0,511.0" stroke="#000" stroke-width="1" /><polyline fill="none" opacity="100" points="411.0,492.0 411.0,511.0" stroke="#000" stroke-width="1" /><polyline fill="none" opacity="100" points="407.0,492.0 407.0,511.0" stroke="#000" stroke-width="1" /><polyline fill="none" opacity="100" points="403.0,492.0 403.0,511.0" stroke="#000" stroke-width="1" /><polyline fill="none" opacity="100" points="399.0,492.0 399.0,511.0" stroke="#000" stroke-width="1" /><polygon fill="#D0D0D0" opacity="100" points="513.0,531.0 513.0,488.0 527.0,488.0 527.0,531.0" stroke="#000" stroke-width="1" /><polyline fill="none" opacity="100" points="449.0,532.0 449.0,514.0" stroke="#7F7F7F" stroke-width="1" /><polyline fill="none" opacity="100" points="445.0,532.0 445.0,514.0" stroke="#7F7F7F" stroke-width="1" /><polyline fill="none" opacity="100" points="441.0,532.0 441.0,514.0" stroke="#7F7F7F" stroke-width="1" /><polyline fill="none" opacity="100" points="437.0,532.0 437.0,514.0" stroke="#7F7F7F" stroke-width="1" /><polyline fill="none" opacity="100" points="433.0,532.0 433.0,514.0" stroke="#7F7F7F" stroke-width="1" /><polyline fill="none" opacity="100" points="429.0,532.0 429.0,514.0" stroke="#7F7F7F" stroke-width="1" /><polyline fill="none" opacity="100" points="425.0,532.0 425.0,514.0" stroke="#7F7F7F" stroke-width="1" /><polyline fill="none" opacity="100" points="421.0,532.0 421.0,514.0" stroke="#7F7F7F" stroke-width="1" /><polyline fill="none" opacity="100" points="417.0,532.0 417.0,514.0" stroke="#7F7F7F" stroke-width="1" /><polyline fill="none" opacity="100" points="413.0,532.0 413.0,514.0" stroke="#7F7F7F" stroke-width="1" /><polyline fill="none" opacity="100" points="409.0,532.0 409.0,514.0" stroke="#7F7F7F" stroke-width="1" /><polyline fill="none" opacity="100" points="405.0,532.0 405.0,514.0" stroke="#7F7F7F" stroke-width="1" /><polyline fill="none" opacity="100" points="401.0,532.0 401.0,514.0" stroke="#7F7F7F" stroke-width="1" /><polyline fill="none" opacity="100" points="397.0,532.0 397.0,514.0" stroke="#7F7F7F" stroke-width="1" /><polyline fill="none" opacity="100" points="393.0,532.0 393.0,514.0" stroke="#7F7F7F" stroke-width="1" /><polygon fill="#9B5509" opacity="100" points="456.0,511.0 456.0,514.0 387.0,514.0 387.0,511.0" stroke="#000" stroke-width="1" /><polygon fill="#9B5509" opacity="100" points="456.0,521.0 456.0,525.0 387.0,525.0 387.0,521.0" stroke="#000" stroke-width="1" /><polygon fill="#9B5509" opacity="100" points="456.0,532.0 387.0,532.0 387.0,535.0 456.0,535.0" stroke="#000" stroke-width="1" /><polyline fill="none" opacity="100" points="-69.0,550.0 -69.0,540.0 -121.0,540.0 -121.0,571.0 -188.0,571.0 -188.0,564.0 -201.0,564.0 -201.0,610.0 -151.0,610.0" stroke="#000" stroke-width="1" /><polyline fill="none" opacity="100" points="-151.0,627.0 -223.0,627.0 -223.0,406.0 -273.0,406.0" stroke="#000" stroke-width="1" /><polyline fill="none" opacity="100" points="-273.0,389.0 -151.0,389.0" stroke="#000" stroke-width="1" /><polyline fill="none" opacity="100" points="-151.0,406.0 -201.0,406.0 -201.0,452.0 -187.0,452.0 -187.0,445.0 -121.0,445.0 -121.0,480.0 -69.0,480.0 -69.0,470.0" stroke="#000" stroke-width="1" /><polyline fill="none" opacity="100" points="-73.0,480.0 -73.0,540.0" stroke="#000" stroke-width="1" /><polyline fill="none" opacity="100" points="-77.0,480.0 -77.0,540.0" stroke="#000" stroke-width="1" /><polyline fill="none" opacity="100" points="-81.0,480.0 -81.0,540.0" stroke="#000" stroke-width="1" /><polyline fill="none" opacity="100" points="-85.0,480.0 -85.0,540.0" stroke="#000" stroke-width="1" /><polyline fill="none" opacity="100" points="-89.0,480.0 -89.0,540.0" stroke="#000" stroke-width="1" /><polyline fill="none" opacity="100" points="-93.0,480.0 -93.0,540.0" stroke="#000" stroke-width="1" /><polyline fill="none" opacity="100" points="-97.0,480.0 -97.0,540.0" stroke="#000" stroke-width="1" /><polyline fill="none" opacity="100" points="-101.0,480.0 -101.0,540.0" stroke="#000" stroke-width="1" /><polyline fill="none" opacity="100" points="-105.0,480.0 -105.0,540.0" stroke="#000" stroke-width="1" /><polyline fill="none" opacity="100" points="-109.0,480.0 -109.0,540.0" stroke="#000" stroke-width="1" /><polyline fill="none" opacity="100" points="-113.0,480.0 -113.0,540.0" stroke="#000" stroke-width="1" /><polyline fill="none" opacity="100" points="-117.0,480.0 -117.0,540.0" stroke="#000" stroke-width="1" /><polyline fill="none" opacity="100" points="-153.0,610.0 -153.0,627.0" stroke="#000" stroke-width="1" /><polyline fill="none" opacity="100" points="-157.0,610.0 -157.0,627.0" stroke="#000" stroke-width="1" /><polyline fill="none" opacity="100" points="-161.0,610.0 -161.0,627.0" stroke="#000" stroke-width="1" /><polyline fill="none" opacity="100" points="-165.0,610.0 -165.0,627.0" stroke="#000" stroke-width="1" /><polyline fill="none" opacity="100" points="-169.0,610.0 -169.0,627.0" stroke="#000" stroke-width="1" /><polyline fill="none" opacity="100" points="-173.0,610.0 -173.0,627.0" stroke="#000" stroke-width="1" /><polyline fill="none" opacity="100" points="-177.0,610.0 -177.0,627.0" stroke="#000" stroke-width="1" /><polyline fill="none" opacity="100" points="-181.0,610.0 -181.0,627.0" stroke="#000" stroke-width="1" /><polyline fill="none" opacity="100" points="-185.0,610.0 -185.0,627.0" stroke="#000" stroke-width="1" /><polyline fill="none" opacity="100" points="-189.0,610.0 -189.0,627.0" stroke="#000" stroke-width="1" /><polyline fill="none" opacity="100" points="-193.0,610.0 -193.0,627.0" stroke="#000" stroke-width="1" /><polyline fill="none" opacity="100" points="-197.0,610.0 -197.0,627.0" stroke="#000" stroke-width="1" /><polyline fill="none" opacity="100" points="-271.0,406.0 -271.0,389.0" stroke="#000" stroke-width="1" /><polyline fill="none" opacity="100" points="-267.0,406.0 -267.0,389.0" stroke="#000" stroke-width="1" /><polyline fill="none" opacity="100" points="-263.0,406.0 -263.0,389.0" stroke="#000" stroke-width="1" /><polyline fill="none" opacity="100" points="-259.0,406.0 -259.0,389.0" stroke="#000" stroke-width="1" /><polyline fill="none" opacity="100" points="-255.0,406.0 -255.0,389.0" stroke="#000" stroke-width="1" /><polyline fill="none" opacity="100" points="-251.0,406.0 -251.0,389.0" stroke="#000" stroke-width="1" /><polyline fill="none" opacity="100" points="-247.0,406.0 -247.0,389.0" stroke="#000" stroke-width="1" /><polyline fill="none" opacity="100" points="-243.0,406.0 -243.0,389.0" stroke="#000" stroke-width="1" /><polyline fill="none" opacity="100" points="-239.0,406.0 -239.0,389.0" stroke="#000" stroke-width="1" /><polyline fill="none" opacity="100" points="-235.0,406.0 -235.0,389.0" stroke="#000" stroke-width="1" /><polyline fill="none" opacity="100" points="-231.0,406.0 -231.0,389.0" stroke="#000" stroke-width="1" /><polyline fill="none" opacity="100" points="-227.0,406.0 -227.0,389.0" stroke="#000" stroke-width="1" /><polyline fill="none" opacity="100" points="-153.0,406.0 -153.0,389.0" stroke="#000" stroke-width="1" /><polyline fill="none" opacity="100" points="-157.0,406.0 -157.0,389.0" stroke="#000" stroke-width="1" /><polyline fill="none" opacity="100" points="-161.0,406.0 -161.0,389.0" stroke="#000" stroke-width="1" /><polyline fill="none" opacity="100" points="-165.0,406.0 -165.0,389.0" stroke="#000" stroke-width="1" /><polyline fill="none" opacity="100" points="-169.0,406.0 -169.0,389.0" stroke="#000" stroke-width="1" /><polyline fill="none" opacity="100" points="-173.0,406.0 -173.0,389.0" stroke="#000" stroke-width="1" /><polyline fill="none" opacity="100" points="-177.0,406.0 -177.0,389.0" stroke="#000" stroke-width="1" /><polyline fill="none" opacity="100" points="-181.0,406.0 -181.0,389.0" stroke="#000" stroke-width="1" /><polyline fill="none" opacity="100" points="-185.0,406.0 -185.0,389.0" stroke="#000" stroke-width="1" /><polyline fill="none" opacity="100" points="-189.0,406.0 -189.0,389.0" stroke="#000" stroke-width="1" /><polyline fill="none" opacity="100" points="-193.0,406.0 -193.0,389.0" stroke="#000" stroke-width="1" /><polyline fill="none" opacity="100" points="-197.0,406.0 -197.0,389.0" stroke="#000" stroke-width="1" /><polygon fill="#D0D0D0" opacity="100" points="-201.0,530.0 -201.0,487.0 -187.0,487.0 -187.0,530.0" stroke="#000" stroke-width="1" /><text fill="#00AFAF" font-family="Arial" font-size="15" font-weight="normal" opacity="100" transform="rotate(-0.0 575.0,498.0) translate(0 15)" x="575.0" y="498.0">проспект Амира Тимура</text><text fill="#00AFAF" font-family="Arial" font-size="15" font-weight="normal" opacity="100" transform="rotate(90.0 628.0,195.0) translate(0 15)" x="628.0" y="195.0">улица Абдуллы Кадыри</text><text fill="#00AFAF" font-family="Arial" font-size="15" font-weight="normal" opacity="100" transform="rotate(90.0 -120.0,638.0) translate(0 15)" x="-120.0" y="638.0">Алайский базар</text><polyline fill="none" opacity="100" points="-142.0,639.0 -142.0,699.0" stroke="#00AFAF" stroke-width="1" /><polygon fill="#00AFAF" opacity="100" points="-146.6587,681.6133 -142.0,699.0 -137.3413,681.6133" stroke="#00AFAF" stroke-width="1" /></g></g></svg>