<?xml version="1.0" encoding="utf-8" ?>
<svg baseProfile="tiny" height="1070px" version="1.2" width="980px" xmlns="http://www.w3.org/2000/svg" xmlns:ev="http://www.w3.org/2001/xml-events" xmlns:xlink="http://www.w3.org/1999/xlink"><defs /><g><g transform="rotate(-30.0,490.0,535.0)"><polygon fill="#F52D35" opacity="100" points="113.0,674.0 113.0,644.0 563.0,644.0 563.0,674.0" stroke="#000" stroke-width="1" /><polygon fill="#F52D35" opacity="100" points="113.0,784.0 113.0,754.0 563.0,754.0 563.0,784.0" stroke="#000" stroke-width="1" /><text fill="#F52D35" font-family="Arial" font-size="20" font-weight="normal" opacity="100" transform="rotate(-0.0 113.0,619.0) translate(0 20)" x="113.0" y="619.0">&lt;&lt; Mustaqillik Maydoni</text><text fill="#F52D35" font-family="Arial" font-size="20" font-weight="normal" opacity="100" transform="rotate(-0.0 415.0,784.0) translate(0 20)" x="415.0" y="784.0">Hamid Olimjon &gt;&gt;</text><text fill="#F52D35" font-family="Arial" font-size="25" font-weight="bold" opacity="100" transform="rotate(-0.0 217.0,718.0) translate(0 25)" x="217.0" y="718.0">Amir Temur Xiyoboni</text><polyline fill="none" opacity="100" points="563.0,674.0 563.0,684.0 615.0,684.0 615.0,643.0 639.0,643.0" stroke="#000" stroke-width="1" /><polyline fill="none" opacity="100" points="674.0,643.0 713.0,643.0 713.0,658.0 727.0,658.0 727.0,590.0 800.0,590.0" stroke="#000" stroke-width="1" /><polyline fill="none" opacity="100" points="800.0,607.0 750.0,607.0 750.0,821.0 800.0,821.0" stroke="#000" stroke-width="1" /><polyline fill="none" opacity="100" points="800.0,838.0 727.0,838.0 727.0,770.0 713.0,770.0 713.0,786.0 615.0,786.0 615.0,743.0 563.0,743.0 563.0,754.0" stroke="#000" stroke-width="1" /><polyline fill="none" opacity="100" points="567.0,684.0 567.0,743.0" stroke="#000" stroke-width="1" /><polyline fill="none" opacity="100" points="571.0,684.0 571.0,743.0" stroke="#000" stroke-width="1" /><polyline fill="none" opacity="100" points="575.0,684.0 575.0,743.0" stroke="#000" stroke-width="1" /><polyline fill="none" opacity="100" points="579.0,684.0 579.0,743.0" stroke="#000" stroke-width="1" /><polyline fill="none" opacity="100" points="583.0,684.0 583.0,743.0" stroke="#000" stroke-width="1" /><polyline fill="none" opacity="100" points="587.0,684.0 587.0,743.0" stroke="#000" stroke-width="1" /><polyline fill="none" opacity="100" points="591.0,684.0 591.0,743.0" stroke="#000" stroke-width="1" /><polyline fill="none" opacity="100" points="595.0,684.0 595.0,743.0" stroke="#000" stroke-width="1" /><polyline fill="none" opacity="100" points="599.0,684.0 599.0,743.0" stroke="#000" stroke-width="1" /><polyline fill="none" opacity="100" points="603.0,684.0 603.0,743.0" stroke="#000" stroke-width="1" /><polyline fill="none" opacity="100" points="607.0,684.0 607.0,743.0" stroke="#000" stroke-width="1" /><polyline fill="none" opacity="100" points="611.0,684.0 611.0,743.0" stroke="#000" stroke-width="1" /><polyline fill="none" opacity="100" points="798.0,821.0 798.0,838.0" stroke="#000" stroke-width="1" /><polyline fill="none" opacity="100" points="794.0,821.0 794.0,838.0" stroke="#000" stroke-width="1" /><polyline fill="none" opacity="100" points="790.0,821.0 790.0,838.0" stroke="#000" stroke-width="1" /><polyline fill="none" opacity="100" points="786.0,821.0 786.0,838.0" stroke="#000" stroke-width="1" /><polyline fill="none" opacity="100" points="782.0,821.0 782.0,838.0" stroke="#000" stroke-width="1" /><polyline fill="none" opacity="100" points="778.0,821.0 778.0,838.0" stroke="#000" stroke-width="1" /><polyline fill="none" opacity="100" points="774.0,821.0 774.0,838.0" stroke="#000" stroke-width="1" /><polyline fill="none" opacity="100" points="770.0,821.0 770.0,838.0" stroke="#000" stroke-width="1" /><polyline fill="none" opacity="100" points="766.0,821.0 766.0,838.0" stroke="#000" stroke-width="1" /><polyline fill="none" opacity="100" points="762.0,821.0 762.0,838.0" stroke="#000" stroke-width="1" /><polyline fill="none" opacity="100" points="758.0,821.0 758.0,838.0" stroke="#000" stroke-width="1" /><polyline fill="none" opacity="100" points="754.0,821.0 754.0,838.0" stroke="#000" stroke-width="1" /><polyline fill="none" opacity="100" points="798.0,607.0 798.0,590.0" stroke="#000" stroke-width="1" /><polyline fill="none" opacity="100" points="794.0,607.0 794.0,590.0" stroke="#000" stroke-width="1" /><polyline fill="none" opacity="100" points="790.0,607.0 790.0,590.0" stroke="#000" stroke-width="1" /><polyline fill="none" opacity="100" points="786.0,607.0 786.0,590.0" stroke="#000" stroke-width="1" /><polyline fill="none" opacity="100" points="782.0,607.0 782.0,590.0" stroke="#000" stroke-width="1" /><polyline fill="none" opacity="100" points="778.0,607.0 778.0,590.0" stroke="#000" stroke-width="1" /><polyline fill="none" opacity="100" points="774.0,607.0 774.0,590.0" stroke="#000" stroke-width="1" /><polyline fill="none" opacity="100" points="770.0,607.0 770.0,590.0" stroke="#000" stroke-width="1" /><polyline fill="none" opacity="100" points="766.0,607.0 766.0,590.0" stroke="#000" stroke-width="1" /><polyline fill="none" opacity="100" points="762.0,607.0 762.0,590.0" stroke="#000" stroke-width="1" /><polyline fill="none" opacity="100" points="758.0,607.0 758.0,590.0" stroke="#000" stroke-width="1" /><polyline fill="none" opacity="100" points="754.0,607.0 754.0,590.0" stroke="#000" stroke-width="1" /><polygon fill="#D0D0D0" opacity="100" points="713.0,736.0 713.0,693.0 727.0,693.0 727.0,736.0" stroke="#000" stroke-width="1" /><polyline fill="none" opacity="100" points="113.0,754.0 113.0,744.0 61.0,744.0 61.0,775.0 -6.0,775.0 -6.0,768.0 -19.0,768.0 -19.0,803.0 31.0,803.0" stroke="#000" stroke-width="1" /><polyline fill="none" opacity="100" points="31.0,823.0 -39.0,823.0 -39.0,605.0 -89.0,605.0" stroke="#000" stroke-width="1" /><polyline fill="none" opacity="100" points="-89.0,588.0 -19.0,588.0 -19.0,656.0 -5.0,656.0 -5.0,649.0 61.0,649.0 61.0,684.0 113.0,684.0 113.0,674.0" stroke="#000" stroke-width="1" /><polyline fill="none" opacity="100" points="109.0,684.0 109.0,744.0" stroke="#000" stroke-width="1" /><polyline fill="none" opacity="100" points="105.0,684.0 105.0,744.0" stroke="#000" stroke-width="1" /><polyline fill="none" opacity="100" points="101.0,684.0 101.0,744.0" stroke="#000" stroke-width="1" /><polyline fill="none" opacity="100" points="97.0,684.0 97.0,744.0" stroke="#000" stroke-width="1" /><polyline fill="none" opacity="100" points="93.0,684.0 93.0,744.0" stroke="#000" stroke-width="1" /><polyline fill="none" opacity="100" points="89.0,684.0 89.0,744.0" stroke="#000" stroke-width="1" /><polyline fill="none" opacity="100" points="85.0,684.0 85.0,744.0" stroke="#000" stroke-width="1" /><polyline fill="none" opacity="100" points="81.0,684.0 81.0,744.0" stroke="#000" stroke-width="1" /><polyline fill="none" opacity="100" points="77.0,684.0 77.0,744.0" stroke="#000" stroke-width="1" /><polyline fill="none" opacity="100" points="73.0,684.0 73.0,744.0" stroke="#000" stroke-width="1" /><polyline fill="none" opacity="100" points="69.0,684.0 69.0,744.0" stroke="#000" stroke-width="1" /><polyline fill="none" opacity="100" points="65.0,684.0 65.0,744.0" stroke="#000" stroke-width="1" /><polyline fill="none" opacity="100" points="29.0,803.0 29.0,823.0" stroke="#000" stroke-width="1" /><polyline fill="none" opacity="100" points="25.0,803.0 25.0,823.0" stroke="#000" stroke-width="1" /><polyline fill="none" opacity="100" points="21.0,803.0 21.0,823.0" stroke="#000" stroke-width="1" /><polyline fill="none" opacity="100" points="17.0,803.0 17.0,823.0" stroke="#000" stroke-width="1" /><polyline fill="none" opacity="100" points="13.0,803.0 13.0,823.0" stroke="#000" stroke-width="1" /><polyline fill="none" opacity="100" points="9.0,803.0 9.0,823.0" stroke="#000" stroke-width="1" /><polyline fill="none" opacity="100" points="5.0,803.0 5.0,823.0" stroke="#000" stroke-width="1" /><polyline fill="none" opacity="100" points="1.0,803.0 1.0,823.0" stroke="#000" stroke-width="1" /><polyline fill="none" opacity="100" points="-3.0,803.0 -3.0,823.0" stroke="#000" stroke-width="1" /><polyline fill="none" opacity="100" points="-7.0,803.0 -7.0,823.0" stroke="#000" stroke-width="1" /><polyline fill="none" opacity="100" points="-11.0,803.0 -11.0,823.0" stroke="#000" stroke-width="1" /><polyline fill="none" opacity="100" points="-15.0,803.0 -15.0,823.0" stroke="#000" stroke-width="1" /><polyline fill="none" opacity="100" points="-87.0,605.0 -87.0,588.0" stroke="#000" stroke-width="1" /><polyline fill="none" opacity="100" points="-83.0,605.0 -83.0,588.0" stroke="#000" stroke-width="1" /><polyline fill="none" opacity="100" points="-79.0,605.0 -79.0,588.0" stroke="#000" stroke-width="1" /><polyline fill="none" opacity="100" points="-75.0,605.0 -75.0,588.0" stroke="#000" stroke-width="1" /><polyline fill="none" opacity="100" points="-71.0,605.0 -71.0,588.0" stroke="#000" stroke-width="1" /><polyline fill="none" opacity="100" points="-67.0,605.0 -67.0,588.0" stroke="#000" stroke-width="1" /><polyline fill="none" opacity="100" points="-63.0,605.0 -63.0,588.0" stroke="#000" stroke-width="1" /><polyline fill="none" opacity="100" points="-59.0,605.0 -59.0,588.0" stroke="#000" stroke-width="1" /><polyline fill="none" opacity="100" points="-55.0,605.0 -55.0,588.0" stroke="#000" stroke-width="1" /><polyline fill="none" opacity="100" points="-51.0,605.0 -51.0,588.0" stroke="#000" stroke-width="1" /><polyline fill="none" opacity="100" points="-47.0,605.0 -47.0,588.0" stroke="#000" stroke-width="1" /><polyline fill="none" opacity="100" points="-43.0,605.0 -43.0,588.0" stroke="#000" stroke-width="1" /><polygon fill="#D0D0D0" opacity="100" points="-19.0,734.0 -19.0,691.0 -5.0,691.0 -5.0,734.0" stroke="#000" stroke-width="1" /><polygon fill="#4B7D43" opacity="100" points="587.0,485.0 557.0,490.0 479.0,47.0 508.0,42.0" stroke="#000" stroke-width="1" /><polygon fill="#4B7D43" opacity="100" points="695.0,466.0 665.0,471.0 587.0,28.0 617.0,23.0" stroke="#000" stroke-width="1" /><text fill="#4B7D43" font-family="Arial" font-size="20" font-weight="normal" opacity="100" transform="rotate(80.0 537.0,381.0) translate(0 20)" x="537.0" y="381.0">Ming o'rik &gt;&gt;</text><text fill="#4B7D43" font-family="Arial" font-size="20" font-weight="normal" opacity="100" transform="rotate(80.0 644.0,19.0) translate(0 20)" x="644.0" y="19.0">&lt;&lt; Abdulla Qodiriy</text><text fill="#4B7D43" font-family="Arial" font-size="25" font-weight="bold" opacity="100" transform="rotate(80.0 580.0,113.0) translate(0 25)" x="580.0" y="113.0">Yunus Rajabiy</text><polyline fill="none" opacity="100" points="508.0,42.0 587.0,28.0" stroke="#000" stroke-width="1" /><polyline fill="none" opacity="100" points="665.0,471.0 655.0,473.0 663.0,520.0 653.0,522.0" stroke="#000" stroke-width="1" /><polyline fill="none" opacity="100" points="619.0,528.0 607.0,530.0 598.0,483.0 587.0,485.0" stroke="#000" stroke-width="1" /><polyline fill="none" opacity="100" points="644.0,652.0 672.0,647.0" stroke="#7F7F7F" stroke-width="1" /><polyline fill="none" opacity="100" points="643.2926,648.0631 671.2926,643.0631" stroke="#7F7F7F" stroke-width="1" /><polyline fill="none" opacity="100" points="642.5852,644.1261 670.5852,639.1261" stroke="#7F7F7F" stroke-width="1" /><polyline fill="none" opacity="100" points="641.8777,640.1892 669.8777,635.1892" stroke="#7F7F7F" stroke-width="1" /><polyline fill="none" opacity="100" points="641.1703,636.2522 669.1703,631.2522" stroke="#7F7F7F" stroke-width="1" /><polyline fill="none" opacity="100" points="640.4629,632.3153 668.4629,627.3153" stroke="#7F7F7F" stroke-width="1" /><polyline fill="none" opacity="100" points="639.7555,628.3783 667.7555,623.3783" stroke="#7F7F7F" stroke-width="1" /><polyline fill="none" opacity="100" points="639.0481,624.4414 667.0481,619.4414" stroke="#7F7F7F" stroke-width="1" /><polyline fill="none" opacity="100" points="638.3406,620.5044 666.3406,615.5044" stroke="#7F7F7F" stroke-width="1" /><polyline fill="none" opacity="100" points="637.6332,616.5675 665.6332,611.5675" stroke="#7F7F7F" stroke-width="1" /><polyline fill="none" opacity="100" points="636.9258,612.6305 664.9258,607.6305" stroke="#7F7F7F" stroke-width="1" /><polyline fill="none" opacity="100" points="636.2184,608.6936 664.2184,603.6936" stroke="#7F7F7F" stroke-width="1" /><polyline fill="none" opacity="100" points="635.511,604.7566 663.511,599.7566" stroke="#7F7F7F" stroke-width="1" /><polyline fill="none" opacity="100" points="634.8035,600.8197 662.8035,595.8197" stroke="#7F7F7F" stroke-width="1" /><polyline fill="none" opacity="100" points="634.0961,596.8827 662.0961,591.8827" stroke="#7F7F7F" stroke-width="1" /><polyline fill="none" opacity="100" points="633.3887,592.9458 661.3887,587.9458" stroke="#7F7F7F" stroke-width="1" /><polyline fill="none" opacity="100" points="632.6813,589.0088 660.6813,584.0088" stroke="#7F7F7F" stroke-width="1" /><polyline fill="none" opacity="100" points="631.9739,585.0719 659.9739,580.0719" stroke="#7F7F7F" stroke-width="1" /><polyline fill="none" opacity="100" points="631.2664,581.1349 659.2664,576.1349" stroke="#7F7F7F" stroke-width="1" /><polyline fill="none" opacity="100" points="630.559,577.198 658.559,572.198" stroke="#7F7F7F" stroke-width="1" /><polyline fill="none" opacity="100" points="629.8516,573.261 657.8516,568.261" stroke="#7F7F7F" stroke-width="1" /><polyline fill="none" opacity="100" points="629.1442,569.3241 657.1442,564.3241" stroke="#7F7F7F" stroke-width="1" /><polyline fill="none" opacity="100" points="628.4368,565.3872 656.4368,560.3872" stroke="#7F7F7F" stroke-width="1" /><polyline fill="none" opacity="100" points="627.7293,561.4502 655.7293,556.4502" stroke="#7F7F7F" stroke-width="1" /><polyline fill="none" opacity="100" points="627.0219,557.5133 655.0219,552.5133" stroke="#7F7F7F" stroke-width="1" /><polyline fill="none" opacity="100" points="626.3145,553.5763 654.3145,548.5763" stroke="#7F7F7F" stroke-width="1" /><polyline fill="none" opacity="100" points="625.6071,549.6394 653.6071,544.6394" stroke="#7F7F7F" stroke-width="1" /><polyline fill="none" opacity="100" points="624.8997,545.7024 652.8997,540.7024" stroke="#7F7F7F" stroke-width="1" /><polyline fill="none" opacity="100" points="624.1922,541.7655 652.1922,536.7655" stroke="#7F7F7F" stroke-width="1" /><polyline fill="none" opacity="100" points="623.4848,537.8285 651.4848,532.8285" stroke="#7F7F7F" stroke-width="1" /><polyline fill="none" opacity="100" points="622.7774,533.8916 650.7774,528.8916" stroke="#7F7F7F" stroke-width="1" /><polyline fill="none" opacity="100" points="622.07,529.9546 650.07,524.9546" stroke="#7F7F7F" stroke-width="1" /><polyline fill="none" opacity="100" points="621.3626,526.0177 649.3626,521.0177" stroke="#7F7F7F" stroke-width="1" /><polygon fill="#9B5509" opacity="100" points="642.0,659.0 617.0,521.0 620.0,520.0 645.0,658.0" stroke="#000" stroke-width="1" /><polygon fill="#9B5509" opacity="100" points="651.0,657.0 627.0,519.0 631.0,518.0 655.0,656.0" stroke="#000" stroke-width="1" /><polygon fill="#9B5509" opacity="100" points="662.0,655.0 638.0,517.0 642.0,516.0 666.0,654.0" stroke="#000" stroke-width="1" /><polygon fill="#9B5509" opacity="100" points="673.0,653.0 649.0,515.0 652.0,514.0 676.0,652.0" stroke="#000" stroke-width="1" /><polygon fill="#FFF" opacity="0.85" points="525.0,323.0 560.0,317.0 563.0,336.0 529.0,342.0" stroke="#FFF" stroke-width="1" /><polyline fill="none" opacity="1.0" points="602.0,283.0 614.0,354.0" stroke="#000" stroke-width="1" /><polyline fill="none" opacity="1.0" points="581.0,286.0 586.0,312.0 517.0,324.0" stroke="#000" stroke-width="1" /><polyline fill="none" opacity="1.0" points="517.0,324.0 514.7656,324.6875 512.5625,325.5 510.3906,326.4375 508.25,327.5 506.1406,328.6875 504.0625,330.0 502.0156,331.4375 500.0,333.0 498.0156,334.6875 496.0625,336.5 494.1406,338.4375 492.25,340.5 490.3906,342.6875 488.5625,345.0 486.7656,347.4375 485.0,350.0" stroke="#000" stroke-width="1" /><polyline fill="none" opacity="1.0" points="485.0,350.0 329.0,597.0" stroke="#000" stroke-width="1" /><polyline fill="none" opacity="1.0" points="329.0,597.0 327.9062,598.75 326.875,600.5 325.9062,602.25 325.0,604.0 324.1562,605.75 323.375,607.5 322.6562,609.25 322.0,611.0 321.4062,612.75 320.875,614.5 320.4062,616.25 320.0,618.0 319.6562,619.75 319.375,621.5 319.1562,623.25 319.0,625.0" stroke="#000" stroke-width="1" /><polyline fill="none" opacity="1.0" points="319.0,625.0 319.0,641.0" stroke="#000" stroke-width="1" /><polyline fill="none" opacity="1.0" points="595.0,357.0 590.0,332.0 520.0,344.0" stroke="#000" stroke-width="1" /><polyline fill="none" opacity="1.0" points="520.0,344.0 518.4609,344.7109 516.9688,345.4688 515.5234,346.2734 514.125,347.125 512.7734,348.0234 511.4688,348.9688 510.2109,349.9609 509.0,351.0 507.8359,352.0859 506.7188,353.2188 505.6484,354.3984 504.625,355.625 503.6484,356.8984 502.7188,358.2188 501.8359,359.5859 501.0,361.0" stroke="#000" stroke-width="1" /><polyline fill="none" opacity="1.0" points="501.0,361.0 345.0,607.0" stroke="#000" stroke-width="1" /><polyline fill="none" opacity="1.0" points="345.0,607.0 344.3906,608.3047 343.8125,609.5938 343.2656,610.8672 342.75,612.125 342.2656,613.3672 341.8125,614.5938 341.3906,615.8047 341.0,617.0 340.6406,618.1797 340.3125,619.3438 340.0156,620.4922 339.75,621.625 339.5156,622.7422 339.3125,623.8438 339.1406,624.9297 339.0,626.0" stroke="#000" stroke-width="1" /><polyline fill="none" opacity="1.0" points="339.0,626.0 339.0,641.0" stroke="#000" stroke-width="1" /><polyline fill="none" opacity="1.0" points="370.0,701.0 346.0,701.0 346.0,721.0 370.0,721.0" stroke="#000" stroke-width="1" /><polyline fill="none" opacity="1.0" points="288.0,701.0 312.0,701.0 312.0,721.0 288.0,721.0" stroke="#000" stroke-width="1" /><polyline fill="none" opacity="1.0" points="582.0,288.0 602.0,285.0" stroke="#000" stroke-width="1" /><polyline fill="none" opacity="1.0" points="582.7155,291.9355 602.7155,288.9355" stroke="#000" stroke-width="1" /><polyline fill="none" opacity="1.0" points="583.4311,295.871 603.4311,292.871" stroke="#000" stroke-width="1" /><polyline fill="none" opacity="1.0" points="584.1466,299.8064 604.1466,296.8064" stroke="#000" stroke-width="1" /><polyline fill="none" opacity="1.0" points="584.8622,303.7419 604.8622,300.7419" stroke="#000" stroke-width="1" /><polyline fill="none" opacity="1.0" points="585.5777,307.6774 605.5777,304.6774" stroke="#000" stroke-width="1" /><polyline fill="none" opacity="1.0" points="594.0,355.0 614.0,352.0" stroke="#000" stroke-width="1" /><polyline fill="none" opacity="1.0" points="593.2516,351.0706 613.2516,348.0706" stroke="#000" stroke-width="1" /><polyline fill="none" opacity="1.0" points="592.5031,347.1413 612.5031,344.1413" stroke="#000" stroke-width="1" /><polyline fill="none" opacity="1.0" points="591.7547,343.2119 611.7547,340.2119" stroke="#000" stroke-width="1" /><polyline fill="none" opacity="1.0" points="591.0062,339.2826 611.0062,336.2826" stroke="#000" stroke-width="1" /><polyline fill="none" opacity="1.0" points="590.2578,335.3532 610.2578,332.3532" stroke="#000" stroke-width="1" /><polyline fill="none" opacity="1.0" points="584.0,312.0 588.0,332.0" stroke="#000" stroke-width="1" /><polyline fill="none" opacity="1.0" points="580.0858,312.824 584.0858,332.824" stroke="#000" stroke-width="1" /><polyline fill="none" opacity="1.0" points="576.1716,313.6481 580.1716,333.6481" stroke="#000" stroke-width="1" /><polyline fill="none" opacity="1.0" points="572.2574,314.4721 576.2574,334.4721" stroke="#000" stroke-width="1" /><polyline fill="none" opacity="1.0" points="568.3432,315.2962 572.3432,335.2962" stroke="#000" stroke-width="1" /><polyline fill="none" opacity="1.0" points="368.0,701.0 368.0,721.0" stroke="#000" stroke-width="1" /><polyline fill="none" opacity="1.0" points="364.0,701.0 364.0,721.0" stroke="#000" stroke-width="1" /><polyline fill="none" opacity="1.0" points="360.0,701.0 360.0,721.0" stroke="#000" stroke-width="1" /><polyline fill="none" opacity="1.0" points="356.0,701.0 356.0,721.0" stroke="#000" stroke-width="1" /><polyline fill="none" opacity="1.0" points="352.0,701.0 352.0,721.0" stroke="#000" stroke-width="1" /><polyline fill="none" opacity="1.0" points="348.0,701.0 348.0,721.0" stroke="#000" stroke-width="1" /><polyline fill="none" opacity="1.0" points="290.0,701.0 290.0,721.0" stroke="#000" stroke-width="1" /><polyline fill="none" opacity="1.0" points="294.0,701.0 294.0,721.0" stroke="#000" stroke-width="1" /><polyline fill="none" opacity="1.0" points="298.0,701.0 298.0,721.0" stroke="#000" stroke-width="1" /><polyline fill="none" opacity="1.0" points="302.0,701.0 302.0,721.0" stroke="#000" stroke-width="1" /><polyline fill="none" opacity="1.0" points="306.0,701.0 306.0,721.0" stroke="#000" stroke-width="1" /><polyline fill="none" opacity="1.0" points="310.0,701.0 310.0,721.0" stroke="#000" stroke-width="1" /><polyline fill="none" opacity="1.0" points="339.0,645.0 339.0,673.0" stroke="#D0262D" stroke-width="1" /><polyline fill="none" opacity="1.0" points="319.0,645.0 319.0,673.0" stroke="#D0262D" stroke-width="1" /><polyline fill="none" opacity="1.0" points="339.0,677.0 339.0,701.0 344.0,701.0" stroke="#D0D0D0" stroke-width="1" /><polyline fill="none" opacity="1.0" points="319.0,677.0 319.0,701.0 314.0,701.0" stroke="#D0D0D0" stroke-width="1" /><polyline fill="none" opacity="1.0" points="314.0,721.0 344.0,721.0" stroke="#D0D0D0" stroke-width="1" /><text fill="#00AFAF" font-family="Arial" font-size="15" font-weight="normal" opacity="1.0" transform="rotate(80.0 694.0,821.0) translate(0 15)" x="694.0" y="821.0">Хорезмская улица</text><text fill="#00AFAF" font-family="Arial" font-size="15" font-weight="normal" opacity="1.0" transform="rotate(-0.0 788.0,702.0) translate(0 15)" x="788.0" y="702.0">проспект Мустакиллик</text></g></g></svg>