<?xml version="1.0" encoding="utf-8" ?>
<svg baseProfile="tiny" height="1000px" version="1.2" width="400px" xmlns="http://www.w3.org/2000/svg" xmlns:ev="http://www.w3.org/2001/xml-events" xmlns:xlink="http://www.w3.org/1999/xlink"><defs /><g><g transform="rotate(90.0,200.0,500.0)"><polygon fill="#2D3C9B" opacity="100" points="392.0,439.0 392.0,469.0 -58.0,469.0 -58.0,439.0" stroke="#000" stroke-width="1" /><polygon fill="#2D3C9B" opacity="100" points="392.0,329.0 392.0,359.0 -58.0,359.0 -58.0,329.0" stroke="#000" stroke-width="1" /><text fill="#2D3C9B" font-family="Arial" font-size="20" font-weight="normal" opacity="100" transform="rotate(-0.0 -57.0,305.0) translate(0 20)" x="-57.0" y="305.0">&lt;&lt; тупик</text><text fill="#2D3C9B" font-family="Arial" font-size="20" font-weight="normal" opacity="100" transform="rotate(-0.0 301.0,469.0) translate(0 20)" x="301.0" y="469.0">Tinchlik &gt;&gt;</text><text fill="#2D3C9B" font-family="Arial" font-size="25" font-weight="bold" opacity="100" transform="rotate(-0.0 118.0,383.0) translate(0 25)" x="118.0" y="383.0">Beruniy</text><polyline fill="none" opacity="100" points="-58.0,439.0 -58.0,429.0 -110.0,429.0 -110.0,462.0 -176.0,462.0 -176.0,455.0 -191.0,455.0 -210.0,508.0 -128.0,538.0 -152.0,605.0" stroke="#000" stroke-width="1" /><polyline fill="none" opacity="100" points="-286.0,500.0 -151.0,549.0 -169.0,599.0" stroke="#000" stroke-width="1" /><polyline fill="none" opacity="100" points="-280.0,483.0 -230.0,501.0 -213.0,454.0 -213.0,336.0 -190.0,336.0 -190.0,343.0 -176.0,343.0 -176.0,336.0 -110.0,336.0 -110.0,370.0 -58.0,370.0 -58.0,359.0" stroke="#000" stroke-width="1" /><polyline fill="none" opacity="100" points="-62.0,370.0 -62.0,429.0" stroke="#000" stroke-width="1" /><polyline fill="none" opacity="100" points="-66.0,370.0 -66.0,429.0" stroke="#000" stroke-width="1" /><polyline fill="none" opacity="100" points="-70.0,370.0 -70.0,429.0" stroke="#000" stroke-width="1" /><polyline fill="none" opacity="100" points="-74.0,370.0 -74.0,429.0" stroke="#000" stroke-width="1" /><polyline fill="none" opacity="100" points="-78.0,370.0 -78.0,429.0" stroke="#000" stroke-width="1" /><polyline fill="none" opacity="100" points="-82.0,370.0 -82.0,429.0" stroke="#000" stroke-width="1" /><polyline fill="none" opacity="100" points="-86.0,370.0 -86.0,429.0" stroke="#000" stroke-width="1" /><polyline fill="none" opacity="100" points="-90.0,370.0 -90.0,429.0" stroke="#000" stroke-width="1" /><polyline fill="none" opacity="100" points="-94.0,370.0 -94.0,429.0" stroke="#000" stroke-width="1" /><polyline fill="none" opacity="100" points="-98.0,370.0 -98.0,429.0" stroke="#000" stroke-width="1" /><polyline fill="none" opacity="100" points="-102.0,370.0 -102.0,429.0" stroke="#000" stroke-width="1" /><polyline fill="none" opacity="100" points="-106.0,370.0 -106.0,429.0" stroke="#000" stroke-width="1" /><polyline fill="none" opacity="100" points="-277.0,484.0 -283.0,501.0" stroke="#000" stroke-width="1" /><polyline fill="none" opacity="100" points="-273.2408,485.367 -279.2408,502.367" stroke="#000" stroke-width="1" /><polyline fill="none" opacity="100" points="-269.4817,486.7339 -275.4817,503.7339" stroke="#000" stroke-width="1" /><polyline fill="none" opacity="100" points="-265.7225,488.1009 -271.7225,505.1009" stroke="#000" stroke-width="1" /><polyline fill="none" opacity="100" points="-261.9633,489.4679 -267.9633,506.4679" stroke="#000" stroke-width="1" /><polyline fill="none" opacity="100" points="-258.2041,490.8349 -264.2041,507.8349" stroke="#000" stroke-width="1" /><polyline fill="none" opacity="100" points="-254.445,492.2018 -260.445,509.2018" stroke="#000" stroke-width="1" /><polyline fill="none" opacity="100" points="-250.6858,493.5688 -256.6858,510.5688" stroke="#000" stroke-width="1" /><polyline fill="none" opacity="100" points="-246.9266,494.9358 -252.9266,511.9358" stroke="#000" stroke-width="1" /><polyline fill="none" opacity="100" points="-243.1674,496.3028 -249.1674,513.3028" stroke="#000" stroke-width="1" /><polyline fill="none" opacity="100" points="-239.4083,497.6697 -245.4083,514.6697" stroke="#000" stroke-width="1" /><polyline fill="none" opacity="100" points="-235.6491,499.0367 -241.6491,516.0367" stroke="#000" stroke-width="1" /><polyline fill="none" opacity="100" points="-168.0,596.0 -151.0,602.0" stroke="#000" stroke-width="1" /><polyline fill="none" opacity="100" points="-166.633,592.2408 -149.633,598.2408" stroke="#000" stroke-width="1" /><polyline fill="none" opacity="100" points="-165.2661,588.4817 -148.2661,594.4817" stroke="#000" stroke-width="1" /><polyline fill="none" opacity="100" points="-163.8991,584.7225 -146.8991,590.7225" stroke="#000" stroke-width="1" /><polyline fill="none" opacity="100" points="-162.5321,580.9633 -145.5321,586.9633" stroke="#000" stroke-width="1" /><polyline fill="none" opacity="100" points="-161.1651,577.2041 -144.1651,583.2041" stroke="#000" stroke-width="1" /><polyline fill="none" opacity="100" points="-159.7982,573.445 -142.7982,579.445" stroke="#000" stroke-width="1" /><polyline fill="none" opacity="100" points="-158.4312,569.6858 -141.4312,575.6858" stroke="#000" stroke-width="1" /><polyline fill="none" opacity="100" points="-157.0642,565.9266 -140.0642,571.9266" stroke="#000" stroke-width="1" /><polyline fill="none" opacity="100" points="-155.6972,562.1674 -138.6972,568.1674" stroke="#000" stroke-width="1" /><polyline fill="none" opacity="100" points="-154.3303,558.4083 -137.3303,564.4083" stroke="#000" stroke-width="1" /><polyline fill="none" opacity="100" points="-152.9633,554.6491 -135.9633,560.6491" stroke="#000" stroke-width="1" /><polygon fill="#D0D0D0" opacity="100" points="-176.0,377.0 -176.0,420.0 -190.0,420.0 -190.0,377.0" stroke="#000" stroke-width="1" /><polyline fill="none" opacity="100" points="392.0,359.0 392.0,369.0 444.0,369.0 444.0,338.0 511.0,338.0 511.0,345.0 524.0,345.0 524.0,338.0 544.0,338.0 544.0,460.0 520.0,525.0 454.0,501.0" stroke="#000" stroke-width="1" /><polyline fill="none" opacity="100" points="460.0,484.0 508.0,501.0 524.0,457.0 510.0,457.0 510.0,464.0 444.0,464.0 444.0,429.0 392.0,429.0 392.0,439.0" stroke="#000" stroke-width="1" /><polyline fill="none" opacity="100" points="396.0,429.0 396.0,369.0" stroke="#000" stroke-width="1" /><polyline fill="none" opacity="100" points="400.0,429.0 400.0,369.0" stroke="#000" stroke-width="1" /><polyline fill="none" opacity="100" points="404.0,429.0 404.0,369.0" stroke="#000" stroke-width="1" /><polyline fill="none" opacity="100" points="408.0,429.0 408.0,369.0" stroke="#000" stroke-width="1" /><polyline fill="none" opacity="100" points="412.0,429.0 412.0,369.0" stroke="#000" stroke-width="1" /><polyline fill="none" opacity="100" points="416.0,429.0 416.0,369.0" stroke="#000" stroke-width="1" /><polyline fill="none" opacity="100" points="420.0,429.0 420.0,369.0" stroke="#000" stroke-width="1" /><polyline fill="none" opacity="100" points="424.0,429.0 424.0,369.0" stroke="#000" stroke-width="1" /><polyline fill="none" opacity="100" points="428.0,429.0 428.0,369.0" stroke="#000" stroke-width="1" /><polyline fill="none" opacity="100" points="432.0,429.0 432.0,369.0" stroke="#000" stroke-width="1" /><polyline fill="none" opacity="100" points="436.0,429.0 436.0,369.0" stroke="#000" stroke-width="1" /><polyline fill="none" opacity="100" points="440.0,429.0 440.0,369.0" stroke="#000" stroke-width="1" /><polyline fill="none" opacity="100" points="463.0,485.0 457.0,502.0" stroke="#000" stroke-width="1" /><polyline fill="none" opacity="100" points="466.767,486.3453 460.767,503.3453" stroke="#000" stroke-width="1" /><polyline fill="none" opacity="100" points="470.5339,487.6907 464.5339,504.6907" stroke="#000" stroke-width="1" /><polyline fill="none" opacity="100" points="474.3009,489.036 468.3009,506.036" stroke="#000" stroke-width="1" /><polyline fill="none" opacity="100" points="478.0679,490.3814 472.0679,507.3814" stroke="#000" stroke-width="1" /><polyline fill="none" opacity="100" points="481.8348,491.7267 475.8348,508.7267" stroke="#000" stroke-width="1" /><polyline fill="none" opacity="100" points="485.6018,493.0721 479.6018,510.0721" stroke="#000" stroke-width="1" /><polyline fill="none" opacity="100" points="489.3688,494.4174 483.3688,511.4174" stroke="#000" stroke-width="1" /><polyline fill="none" opacity="100" points="493.1357,495.7628 487.1357,512.7628" stroke="#000" stroke-width="1" /><polyline fill="none" opacity="100" points="496.9027,497.1081 490.9027,514.1081" stroke="#000" stroke-width="1" /><polyline fill="none" opacity="100" points="500.6697,498.4535 494.6697,515.4535" stroke="#000" stroke-width="1" /><polyline fill="none" opacity="100" points="504.4366,499.7988 498.4366,516.7988" stroke="#000" stroke-width="1" /><polygon fill="#D0D0D0" opacity="100" points="524.0,379.0 524.0,422.0 510.0,422.0 510.0,379.0" stroke="#000" stroke-width="1" /><text fill="#00AFAF" font-family="Arial" font-size="15" font-weight="normal" opacity="100" transform="rotate(-160.0 689.0,490.0) translate(0 15)" x="689.0" y="490.0">проспект Беруни</text><text fill="#00AFAF" font-family="Arial" font-size="15" font-weight="normal" opacity="100" transform="rotate(-70.0 -261.0,680.0) translate(0 15)" x="-261.0" y="680.0">улица Фараби</text></g></g></svg>