<?xml version="1.0" encoding="utf-8" ?>
<svg baseProfile="tiny" height="640px" version="1.2" width="940px" xmlns="http://www.w3.org/2000/svg" xmlns:ev="http://www.w3.org/2001/xml-events" xmlns:xlink="http://www.w3.org/1999/xlink"><defs /><g><polygon fill="#2D3C9B" opacity="100" points="626.0,261.0 176.0,261.0 176.0,231.0 626.0,231.0" stroke="#000" stroke-width="1" /><polygon fill="#2D3C9B" opacity="100" points="176.0,371.0 176.0,341.0 626.0,341.0 626.0,371.0" stroke="#000" stroke-width="1" /><text fill="#2D3C9B" font-family="Arial" font-size="20" font-weight="normal" opacity="100" transform="rotate(-0.0 176.0,207.0) translate(0 20)" x="176.0" y="207.0">&lt;&lt; Chorsu</text><text fill="#2D3C9B" font-family="Arial" font-size="20" font-weight="normal" opacity="100" transform="rotate(-0.0 482.0,371.0) translate(0 20)" x="482.0" y="371.0">Alisher Navoiy &gt;&gt;</text><text fill="#2D3C9B" font-family="Arial" font-size="25" font-weight="bold" opacity="100" transform="rotate(-0.0 320.0,286.0) translate(0 25)" x="320.0" y="286.0">G'afur G'ulom</text><polyline fill="none" opacity="100" points="925.0,440.0 885.0,480.0 432.0,480.0 398.0,514.0" stroke="#000" stroke-width="1" /><polyline fill="none" opacity="100" points="913.0,428.0 878.0,463.0 806.0,463.0 806.0,238.0 783.0,238.0 783.0,244.0 769.0,244.0 769.0,238.0 703.0,238.0 703.0,283.0" stroke="#000" stroke-width="1" /><polyline fill="none" opacity="100" points="639.0,283.0 639.0,271.0 626.0,271.0 626.0,261.0" stroke="#000" stroke-width="1" /><polyline fill="none" opacity="100" points="386.0,502.0 425.0,463.0 783.0,463.0 783.0,358.0 769.0,358.0 769.0,364.0 703.0,364.0 703.0,318.0" stroke="#000" stroke-width="1" /><polyline fill="none" opacity="100" points="639.0,318.0 639.0,330.0 626.0,330.0 626.0,341.0" stroke="#000" stroke-width="1" /><polyline fill="none" opacity="100" points="399.0,513.0 387.0,501.0" stroke="#000" stroke-width="1" /><polyline fill="none" opacity="100" points="401.8284,510.1716 389.8284,498.1716" stroke="#000" stroke-width="1" /><polyline fill="none" opacity="100" points="404.6569,507.3431 392.6569,495.3431" stroke="#000" stroke-width="1" /><polyline fill="none" opacity="100" points="407.4853,504.5147 395.4853,492.5147" stroke="#000" stroke-width="1" /><polyline fill="none" opacity="100" points="410.3137,501.6863 398.3137,489.6863" stroke="#000" stroke-width="1" /><polyline fill="none" opacity="100" points="413.1421,498.8579 401.1421,486.8579" stroke="#000" stroke-width="1" /><polyline fill="none" opacity="100" points="415.9706,496.0294 403.9706,484.0294" stroke="#000" stroke-width="1" /><polyline fill="none" opacity="100" points="418.799,493.201 406.799,481.201" stroke="#000" stroke-width="1" /><polyline fill="none" opacity="100" points="421.6274,490.3726 409.6274,478.3726" stroke="#000" stroke-width="1" /><polyline fill="none" opacity="100" points="424.4558,487.5442 412.4558,475.5442" stroke="#000" stroke-width="1" /><polyline fill="none" opacity="100" points="427.2843,484.7157 415.2843,472.7157" stroke="#000" stroke-width="1" /><polyline fill="none" opacity="100" points="430.1127,481.8873 418.1127,469.8873" stroke="#000" stroke-width="1" /><polyline fill="none" opacity="100" points="912.0,429.0 924.0,441.0" stroke="#000" stroke-width="1" /><polyline fill="none" opacity="100" points="909.1716,431.8284 921.1716,443.8284" stroke="#000" stroke-width="1" /><polyline fill="none" opacity="100" points="906.3431,434.6569 918.3431,446.6569" stroke="#000" stroke-width="1" /><polyline fill="none" opacity="100" points="903.5147,437.4853 915.5147,449.4853" stroke="#000" stroke-width="1" /><polyline fill="none" opacity="100" points="900.6863,440.3137 912.6863,452.3137" stroke="#000" stroke-width="1" /><polyline fill="none" opacity="100" points="897.8579,443.1421 909.8579,455.1421" stroke="#000" stroke-width="1" /><polyline fill="none" opacity="100" points="895.0294,445.9706 907.0294,457.9706" stroke="#000" stroke-width="1" /><polyline fill="none" opacity="100" points="892.201,448.799 904.201,460.799" stroke="#000" stroke-width="1" /><polyline fill="none" opacity="100" points="889.3726,451.6274 901.3726,463.6274" stroke="#000" stroke-width="1" /><polyline fill="none" opacity="100" points="886.5442,454.4558 898.5442,466.4558" stroke="#000" stroke-width="1" /><polyline fill="none" opacity="100" points="883.7157,457.2843 895.7157,469.2843" stroke="#000" stroke-width="1" /><polyline fill="none" opacity="100" points="880.8873,460.1127 892.8873,472.1127" stroke="#000" stroke-width="1" /><polygon fill="#D0D0D0" opacity="100" points="783.0,280.0 769.0,280.0 769.0,323.0 783.0,323.0" stroke="#000" stroke-width="1" /><polyline fill="none" opacity="100" points="705.0,315.0 705.0,286.0" stroke="#7F7F7F" stroke-width="1" /><polyline fill="none" opacity="100" points="701.0,315.0 701.0,286.0" stroke="#7F7F7F" stroke-width="1" /><polyline fill="none" opacity="100" points="697.0,315.0 697.0,286.0" stroke="#7F7F7F" stroke-width="1" /><polyline fill="none" opacity="100" points="693.0,315.0 693.0,286.0" stroke="#7F7F7F" stroke-width="1" /><polyline fill="none" opacity="100" points="689.0,315.0 689.0,286.0" stroke="#7F7F7F" stroke-width="1" /><polyline fill="none" opacity="100" points="685.0,315.0 685.0,286.0" stroke="#7F7F7F" stroke-width="1" /><polyline fill="none" opacity="100" points="681.0,315.0 681.0,286.0" stroke="#7F7F7F" stroke-width="1" /><polyline fill="none" opacity="100" points="677.0,315.0 677.0,286.0" stroke="#7F7F7F" stroke-width="1" /><polyline fill="none" opacity="100" points="673.0,315.0 673.0,286.0" stroke="#7F7F7F" stroke-width="1" /><polyline fill="none" opacity="100" points="669.0,315.0 669.0,286.0" stroke="#7F7F7F" stroke-width="1" /><polyline fill="none" opacity="100" points="665.0,315.0 665.0,286.0" stroke="#7F7F7F" stroke-width="1" /><polyline fill="none" opacity="100" points="661.0,315.0 661.0,286.0" stroke="#7F7F7F" stroke-width="1" /><polyline fill="none" opacity="100" points="657.0,315.0 657.0,286.0" stroke="#7F7F7F" stroke-width="1" /><polyline fill="none" opacity="100" points="653.0,315.0 653.0,286.0" stroke="#7F7F7F" stroke-width="1" /><polyline fill="none" opacity="100" points="649.0,315.0 649.0,286.0" stroke="#7F7F7F" stroke-width="1" /><polyline fill="none" opacity="100" points="645.0,315.0 645.0,286.0" stroke="#7F7F7F" stroke-width="1" /><polyline fill="none" opacity="100" points="641.0,315.0 641.0,286.0" stroke="#7F7F7F" stroke-width="1" /><polyline fill="none" opacity="100" points="637.0,315.0 637.0,286.0" stroke="#7F7F7F" stroke-width="1" /><polygon fill="#9B5509" opacity="100" points="712.0,286.0 632.0,286.0 632.0,283.0 712.0,283.0" stroke="#000" stroke-width="1" /><polygon fill="#9B5509" opacity="100" points="712.0,293.0 712.0,297.0 632.0,297.0 632.0,293.0" stroke="#000" stroke-width="1" /><polygon fill="#9B5509" opacity="100" points="712.0,304.0 712.0,308.0 632.0,308.0 632.0,304.0" stroke="#000" stroke-width="1" /><polygon fill="#9B5509" opacity="100" points="712.0,315.0 632.0,315.0 632.0,318.0 712.0,318.0" stroke="#000" stroke-width="1" /><polyline fill="none" opacity="100" points="176.0,341.0 176.0,331.0 124.0,331.0 124.0,362.0 57.0,362.0 57.0,355.0 44.0,355.0 44.0,361.0 24.0,361.0 24.0,192.0 11.0,179.0" stroke="#000" stroke-width="1" /><polyline fill="none" opacity="100" points="57.0,179.0 44.0,192.0 44.0,243.0 58.0,243.0 58.0,236.0 124.0,236.0 124.0,271.0 176.0,271.0 176.0,261.0" stroke="#000" stroke-width="1" /><polyline fill="none" opacity="100" points="172.0,271.0 172.0,331.0" stroke="#000" stroke-width="1" /><polyline fill="none" opacity="100" points="168.0,271.0 168.0,331.0" stroke="#000" stroke-width="1" /><polyline fill="none" opacity="100" points="164.0,271.0 164.0,331.0" stroke="#000" stroke-width="1" /><polyline fill="none" opacity="100" points="160.0,271.0 160.0,331.0" stroke="#000" stroke-width="1" /><polyline fill="none" opacity="100" points="156.0,271.0 156.0,331.0" stroke="#000" stroke-width="1" /><polyline fill="none" opacity="100" points="152.0,271.0 152.0,331.0" stroke="#000" stroke-width="1" /><polyline fill="none" opacity="100" points="148.0,271.0 148.0,331.0" stroke="#000" stroke-width="1" /><polyline fill="none" opacity="100" points="144.0,271.0 144.0,331.0" stroke="#000" stroke-width="1" /><polyline fill="none" opacity="100" points="140.0,271.0 140.0,331.0" stroke="#000" stroke-width="1" /><polyline fill="none" opacity="100" points="136.0,271.0 136.0,331.0" stroke="#000" stroke-width="1" /><polyline fill="none" opacity="100" points="132.0,271.0 132.0,331.0" stroke="#000" stroke-width="1" /><polyline fill="none" opacity="100" points="128.0,271.0 128.0,331.0" stroke="#000" stroke-width="1" /><polyline fill="none" opacity="100" points="44.0,200.0 24.0,200.0" stroke="#000" stroke-width="1" /><polyline fill="none" opacity="100" points="44.0,204.0 24.0,204.0" stroke="#000" stroke-width="1" /><polyline fill="none" opacity="100" points="44.0,208.0 24.0,208.0" stroke="#000" stroke-width="1" /><polyline fill="none" opacity="100" points="44.0,212.0 24.0,212.0" stroke="#000" stroke-width="1" /><polyline fill="none" opacity="100" points="44.0,216.0 24.0,216.0" stroke="#000" stroke-width="1" /><polyline fill="none" opacity="100" points="44.0,220.0 24.0,220.0" stroke="#000" stroke-width="1" /><polygon fill="#D0D0D0" opacity="100" points="44.0,321.0 44.0,278.0 58.0,278.0 58.0,321.0" stroke="#000" stroke-width="1" /><text fill="#00AFAF" font-family="Arial" font-size="15" font-weight="normal" opacity="100" transform="rotate(-45.0 551.0,614.0) translate(0 15)" x="551.0" y="614.0">улица Гафура Гуляма</text><text fill="#00AFAF" font-family="Arial" font-size="15" font-weight="normal" opacity="100" transform="rotate(45.0 756.0,9.0) translate(0 15)" x="756.0" y="9.0">улица Абдуллы Кадыри</text><polygon fill="#FFD0D0" opacity="0.7" points="8.0,176.0 169.0,176.0 169.0,365.0 8.0,365.0" stroke="#FFD0D0" stroke-width="1" /><text fill="#FF4040" font-family="Arial" font-size="15" font-weight="normal" opacity="1.0" transform="rotate(-0.0 67.0,290.0) translate(0 15)" x="67.0" y="290.0">закрыто</text><polyline fill="none" opacity="1.0" points="8.0,176.0 169.0,176.0 169.0,365.0 8.0,365.0 8.0,176.0" stroke="#FF4040" stroke-dasharray="5,5" stroke-width="1" /></g></svg>