<?xml version="1.0" encoding="utf-8" ?>
<svg baseProfile="tiny" height="520px" version="1.2" width="950px" xmlns="http://www.w3.org/2000/svg" xmlns:ev="http://www.w3.org/2001/xml-events" xmlns:xlink="http://www.w3.org/1999/xlink"><defs /><g><g transform="rotate(15.0,475.0,260.0)"><polygon fill="#2D3C9B" opacity="100" points="722.0,277.0 272.0,277.0 272.0,247.0 722.0,247.0" stroke="#000" stroke-width="1" /><polygon fill="#2D3C9B" opacity="100" points="272.0,387.0 272.0,357.0 722.0,357.0 722.0,387.0" stroke="#000" stroke-width="1" /><text fill="#2D3C9B" font-family="Arial" font-size="20" font-weight="normal" opacity="100" transform="rotate(-0.0 277.0,223.0) translate(0 20)" x="277.0" y="223.0">&lt;&lt; Toshkent</text><text fill="#2D3C9B" font-family="Arial" font-size="20" font-weight="normal" opacity="100" transform="rotate(-0.0 629.0,387.0) translate(0 20)" x="629.0" y="387.0">Do'stlik &gt;&gt;</text><text fill="#2D3C9B" font-family="Arial" font-size="25" font-weight="bold" opacity="100" transform="rotate(-0.0 412.0,303.0) translate(0 25)" x="412.0" y="303.0">Mashinasozlar</text><polyline fill="none" opacity="100" points="927.0,193.0 854.0,193.0 854.0,261.0 840.0,261.0 840.0,254.0 774.0,254.0 774.0,287.0 722.0,287.0 722.0,277.0" stroke="#000" stroke-width="1" /><polyline fill="none" opacity="100" points="927.0,210.0 877.0,210.0 877.0,380.0 854.0,380.0 854.0,373.0 840.0,373.0 840.0,380.0 774.0,380.0 774.0,346.0 722.0,346.0 722.0,357.0" stroke="#000" stroke-width="1" /><polyline fill="none" opacity="100" points="726.0,346.0 726.0,287.0" stroke="#000" stroke-width="1" /><polyline fill="none" opacity="100" points="730.0,346.0 730.0,287.0" stroke="#000" stroke-width="1" /><polyline fill="none" opacity="100" points="734.0,346.0 734.0,287.0" stroke="#000" stroke-width="1" /><polyline fill="none" opacity="100" points="738.0,346.0 738.0,287.0" stroke="#000" stroke-width="1" /><polyline fill="none" opacity="100" points="742.0,346.0 742.0,287.0" stroke="#000" stroke-width="1" /><polyline fill="none" opacity="100" points="746.0,346.0 746.0,287.0" stroke="#000" stroke-width="1" /><polyline fill="none" opacity="100" points="750.0,346.0 750.0,287.0" stroke="#000" stroke-width="1" /><polyline fill="none" opacity="100" points="754.0,346.0 754.0,287.0" stroke="#000" stroke-width="1" /><polyline fill="none" opacity="100" points="758.0,346.0 758.0,287.0" stroke="#000" stroke-width="1" /><polyline fill="none" opacity="100" points="762.0,346.0 762.0,287.0" stroke="#000" stroke-width="1" /><polyline fill="none" opacity="100" points="766.0,346.0 766.0,287.0" stroke="#000" stroke-width="1" /><polyline fill="none" opacity="100" points="770.0,346.0 770.0,287.0" stroke="#000" stroke-width="1" /><polyline fill="none" opacity="100" points="925.0,210.0 925.0,193.0" stroke="#000" stroke-width="1" /><polyline fill="none" opacity="100" points="921.0,210.0 921.0,193.0" stroke="#000" stroke-width="1" /><polyline fill="none" opacity="100" points="917.0,210.0 917.0,193.0" stroke="#000" stroke-width="1" /><polyline fill="none" opacity="100" points="913.0,210.0 913.0,193.0" stroke="#000" stroke-width="1" /><polyline fill="none" opacity="100" points="909.0,210.0 909.0,193.0" stroke="#000" stroke-width="1" /><polyline fill="none" opacity="100" points="905.0,210.0 905.0,193.0" stroke="#000" stroke-width="1" /><polyline fill="none" opacity="100" points="901.0,210.0 901.0,193.0" stroke="#000" stroke-width="1" /><polyline fill="none" opacity="100" points="897.0,210.0 897.0,193.0" stroke="#000" stroke-width="1" /><polyline fill="none" opacity="100" points="893.0,210.0 893.0,193.0" stroke="#000" stroke-width="1" /><polyline fill="none" opacity="100" points="889.0,210.0 889.0,193.0" stroke="#000" stroke-width="1" /><polyline fill="none" opacity="100" points="885.0,210.0 885.0,193.0" stroke="#000" stroke-width="1" /><polyline fill="none" opacity="100" points="881.0,210.0 881.0,193.0" stroke="#000" stroke-width="1" /><polygon fill="#D0D0D0" opacity="100" points="854.0,296.0 840.0,296.0 840.0,339.0 854.0,339.0" stroke="#000" stroke-width="1" /><polyline fill="none" opacity="100" points="190.0,208.0 140.0,208.0 140.0,259.0 154.0,259.0 154.0,252.0 220.0,252.0 220.0,287.0 272.0,287.0 272.0,277.0" stroke="#000" stroke-width="1" /><polyline fill="none" opacity="100" points="190.0,191.0 120.0,191.0 120.0,371.0 153.0,371.0 153.0,378.0 220.0,378.0 220.0,347.0 272.0,347.0 272.0,357.0" stroke="#000" stroke-width="1" /><polyline fill="none" opacity="100" points="268.0,287.0 268.0,347.0" stroke="#000" stroke-width="1" /><polyline fill="none" opacity="100" points="264.0,287.0 264.0,347.0" stroke="#000" stroke-width="1" /><polyline fill="none" opacity="100" points="260.0,287.0 260.0,347.0" stroke="#000" stroke-width="1" /><polyline fill="none" opacity="100" points="256.0,287.0 256.0,347.0" stroke="#000" stroke-width="1" /><polyline fill="none" opacity="100" points="252.0,287.0 252.0,347.0" stroke="#000" stroke-width="1" /><polyline fill="none" opacity="100" points="248.0,287.0 248.0,347.0" stroke="#000" stroke-width="1" /><polyline fill="none" opacity="100" points="244.0,287.0 244.0,347.0" stroke="#000" stroke-width="1" /><polyline fill="none" opacity="100" points="240.0,287.0 240.0,347.0" stroke="#000" stroke-width="1" /><polyline fill="none" opacity="100" points="236.0,287.0 236.0,347.0" stroke="#000" stroke-width="1" /><polyline fill="none" opacity="100" points="232.0,287.0 232.0,347.0" stroke="#000" stroke-width="1" /><polyline fill="none" opacity="100" points="228.0,287.0 228.0,347.0" stroke="#000" stroke-width="1" /><polyline fill="none" opacity="100" points="224.0,287.0 224.0,347.0" stroke="#000" stroke-width="1" /><polyline fill="none" opacity="100" points="188.0,208.0 188.0,191.0" stroke="#000" stroke-width="1" /><polyline fill="none" opacity="100" points="184.0,208.0 184.0,191.0" stroke="#000" stroke-width="1" /><polyline fill="none" opacity="100" points="180.0,208.0 180.0,191.0" stroke="#000" stroke-width="1" /><polyline fill="none" opacity="100" points="176.0,208.0 176.0,191.0" stroke="#000" stroke-width="1" /><polyline fill="none" opacity="100" points="172.0,208.0 172.0,191.0" stroke="#000" stroke-width="1" /><polyline fill="none" opacity="100" points="168.0,208.0 168.0,191.0" stroke="#000" stroke-width="1" /><polyline fill="none" opacity="100" points="164.0,208.0 164.0,191.0" stroke="#000" stroke-width="1" /><polyline fill="none" opacity="100" points="160.0,208.0 160.0,191.0" stroke="#000" stroke-width="1" /><polyline fill="none" opacity="100" points="156.0,208.0 156.0,191.0" stroke="#000" stroke-width="1" /><polyline fill="none" opacity="100" points="152.0,208.0 152.0,191.0" stroke="#000" stroke-width="1" /><polyline fill="none" opacity="100" points="148.0,208.0 148.0,191.0" stroke="#000" stroke-width="1" /><polyline fill="none" opacity="100" points="144.0,208.0 144.0,191.0" stroke="#000" stroke-width="1" /><polygon fill="#D0D0D0" opacity="100" points="140.0,294.0 154.0,294.0 154.0,337.0 140.0,337.0" stroke="#000" stroke-width="1" /><text fill="#00AFAF" font-family="Arial" font-size="15" font-weight="normal" opacity="100" transform="rotate(-90.0 237.0,193.0) translate(0 15)" x="237.0" y="193.0">2-й проезд</text><text fill="#00AFAF" font-family="Arial" font-size="15" font-weight="normal" opacity="100" transform="rotate(-90.0 252.0,193.0) translate(0 15)" x="252.0" y="193.0">Пахлавона Махмуда</text><text fill="#00AFAF" font-family="Arial" font-size="15" font-weight="normal" opacity="100" transform="rotate(-0.0 8.0,288.0) translate(0 15)" x="8.0" y="288.0">улица Элбек</text><polygon fill="#FFD0D0" opacity="0.7" points="725.0,190.0 930.0,190.0 930.0,382.0 725.0,382.0" stroke="#FFD0D0" stroke-width="1" /><text fill="#FF4040" font-family="Arial" font-size="15" font-weight="normal" opacity="1.0" transform="rotate(-0.0 817.0,270.0) translate(0 15)" x="817.0" y="270.0">закрыто</text><polyline fill="none" opacity="1.0" points="725.0,190.0 930.0,190.0 930.0,382.0 725.0,382.0 725.0,190.0" stroke="#FF4040" stroke-dasharray="5,5" stroke-width="1" /></g></g></svg>