<?xml version="1.0" encoding="utf-8" ?>
<svg baseProfile="tiny" height="750px" version="1.2" width="500px" xmlns="http://www.w3.org/2000/svg" xmlns:ev="http://www.w3.org/2001/xml-events" xmlns:xlink="http://www.w3.org/1999/xlink"><defs /><g><g transform="rotate(-55.0,250.0,375.0)"><polygon fill="#F52D35" opacity="100" points="342.0,378.0 -108.0,378.0 -108.0,348.0 342.0,348.0" stroke="#000" stroke-width="1" /><polygon fill="#F52D35" opacity="100" points="-108.0,488.0 -108.0,458.0 342.0,458.0 342.0,488.0" stroke="#000" stroke-width="1" /><text fill="#F52D35" font-family="Arial" font-size="20" font-weight="normal" opacity="100" transform="rotate(-0.0 -103.0,324.0) translate(0 20)" x="-103.0" y="324.0">&lt;&lt; Novza</text><text fill="#F52D35" font-family="Arial" font-size="20" font-weight="normal" opacity="100" transform="rotate(-0.0 224.0,488.0) translate(0 20)" x="224.0" y="488.0">Xalqlar do'stligi &gt;&gt;</text><text fill="#F52D35" font-family="Arial" font-size="25" font-weight="bold" opacity="100" transform="rotate(-0.0 100.0,401.0) translate(0 25)" x="100.0" y="401.0">Milliy bog</text><polyline fill="none" opacity="100" points="547.0,280.0 497.0,280.0 497.0,170.0 547.0,170.0" stroke="#000" stroke-width="1" /><polyline fill="none" opacity="100" points="424.0,297.0 474.0,297.0 474.0,362.0 460.0,362.0 460.0,355.0 394.0,355.0 394.0,388.0 342.0,388.0 342.0,378.0" stroke="#000" stroke-width="1" /><polyline fill="none" opacity="100" points="547.0,297.0 497.0,297.0 497.0,481.0 474.0,481.0 474.0,474.0 460.0,474.0 460.0,481.0 394.0,481.0 394.0,447.0 342.0,447.0 342.0,458.0" stroke="#000" stroke-width="1" /><polyline fill="none" opacity="100" points="424.0,280.0 474.0,280.0 474.0,170.0 424.0,170.0" stroke="#000" stroke-width="1" /><polyline fill="none" opacity="100" points="424.0,153.0 547.0,153.0" stroke="#000" stroke-width="1" /><polyline fill="none" opacity="100" points="346.0,447.0 346.0,388.0" stroke="#000" stroke-width="1" /><polyline fill="none" opacity="100" points="350.0,447.0 350.0,388.0" stroke="#000" stroke-width="1" /><polyline fill="none" opacity="100" points="354.0,447.0 354.0,388.0" stroke="#000" stroke-width="1" /><polyline fill="none" opacity="100" points="358.0,447.0 358.0,388.0" stroke="#000" stroke-width="1" /><polyline fill="none" opacity="100" points="362.0,447.0 362.0,388.0" stroke="#000" stroke-width="1" /><polyline fill="none" opacity="100" points="366.0,447.0 366.0,388.0" stroke="#000" stroke-width="1" /><polyline fill="none" opacity="100" points="370.0,447.0 370.0,388.0" stroke="#000" stroke-width="1" /><polyline fill="none" opacity="100" points="374.0,447.0 374.0,388.0" stroke="#000" stroke-width="1" /><polyline fill="none" opacity="100" points="378.0,447.0 378.0,388.0" stroke="#000" stroke-width="1" /><polyline fill="none" opacity="100" points="382.0,447.0 382.0,388.0" stroke="#000" stroke-width="1" /><polyline fill="none" opacity="100" points="386.0,447.0 386.0,388.0" stroke="#000" stroke-width="1" /><polyline fill="none" opacity="100" points="390.0,447.0 390.0,388.0" stroke="#000" stroke-width="1" /><polyline fill="none" opacity="100" points="545.0,170.0 545.0,153.0" stroke="#000" stroke-width="1" /><polyline fill="none" opacity="100" points="541.0,170.0 541.0,153.0" stroke="#000" stroke-width="1" /><polyline fill="none" opacity="100" points="537.0,170.0 537.0,153.0" stroke="#000" stroke-width="1" /><polyline fill="none" opacity="100" points="533.0,170.0 533.0,153.0" stroke="#000" stroke-width="1" /><polyline fill="none" opacity="100" points="529.0,170.0 529.0,153.0" stroke="#000" stroke-width="1" /><polyline fill="none" opacity="100" points="525.0,170.0 525.0,153.0" stroke="#000" stroke-width="1" /><polyline fill="none" opacity="100" points="521.0,170.0 521.0,153.0" stroke="#000" stroke-width="1" /><polyline fill="none" opacity="100" points="517.0,170.0 517.0,153.0" stroke="#000" stroke-width="1" /><polyline fill="none" opacity="100" points="513.0,170.0 513.0,153.0" stroke="#000" stroke-width="1" /><polyline fill="none" opacity="100" points="509.0,170.0 509.0,153.0" stroke="#000" stroke-width="1" /><polyline fill="none" opacity="100" points="505.0,170.0 505.0,153.0" stroke="#000" stroke-width="1" /><polyline fill="none" opacity="100" points="501.0,170.0 501.0,153.0" stroke="#000" stroke-width="1" /><polyline fill="none" opacity="100" points="545.0,280.0 545.0,297.0" stroke="#000" stroke-width="1" /><polyline fill="none" opacity="100" points="541.0,280.0 541.0,297.0" stroke="#000" stroke-width="1" /><polyline fill="none" opacity="100" points="537.0,280.0 537.0,297.0" stroke="#000" stroke-width="1" /><polyline fill="none" opacity="100" points="533.0,280.0 533.0,297.0" stroke="#000" stroke-width="1" /><polyline fill="none" opacity="100" points="529.0,280.0 529.0,297.0" stroke="#000" stroke-width="1" /><polyline fill="none" opacity="100" points="525.0,280.0 525.0,297.0" stroke="#000" stroke-width="1" /><polyline fill="none" opacity="100" points="521.0,280.0 521.0,297.0" stroke="#000" stroke-width="1" /><polyline fill="none" opacity="100" points="517.0,280.0 517.0,297.0" stroke="#000" stroke-width="1" /><polyline fill="none" opacity="100" points="513.0,280.0 513.0,297.0" stroke="#000" stroke-width="1" /><polyline fill="none" opacity="100" points="509.0,280.0 509.0,297.0" stroke="#000" stroke-width="1" /><polyline fill="none" opacity="100" points="505.0,280.0 505.0,297.0" stroke="#000" stroke-width="1" /><polyline fill="none" opacity="100" points="501.0,280.0 501.0,297.0" stroke="#000" stroke-width="1" /><polyline fill="none" opacity="100" points="426.0,280.0 426.0,297.0" stroke="#000" stroke-width="1" /><polyline fill="none" opacity="100" points="430.0,280.0 430.0,297.0" stroke="#000" stroke-width="1" /><polyline fill="none" opacity="100" points="434.0,280.0 434.0,297.0" stroke="#000" stroke-width="1" /><polyline fill="none" opacity="100" points="438.0,280.0 438.0,297.0" stroke="#000" stroke-width="1" /><polyline fill="none" opacity="100" points="442.0,280.0 442.0,297.0" stroke="#000" stroke-width="1" /><polyline fill="none" opacity="100" points="446.0,280.0 446.0,297.0" stroke="#000" stroke-width="1" /><polyline fill="none" opacity="100" points="450.0,280.0 450.0,297.0" stroke="#000" stroke-width="1" /><polyline fill="none" opacity="100" points="454.0,280.0 454.0,297.0" stroke="#000" stroke-width="1" /><polyline fill="none" opacity="100" points="458.0,280.0 458.0,297.0" stroke="#000" stroke-width="1" /><polyline fill="none" opacity="100" points="462.0,280.0 462.0,297.0" stroke="#000" stroke-width="1" /><polyline fill="none" opacity="100" points="466.0,280.0 466.0,297.0" stroke="#000" stroke-width="1" /><polyline fill="none" opacity="100" points="470.0,280.0 470.0,297.0" stroke="#000" stroke-width="1" /><polyline fill="none" opacity="100" points="426.0,170.0 426.0,153.0" stroke="#000" stroke-width="1" /><polyline fill="none" opacity="100" points="430.0,170.0 430.0,153.0" stroke="#000" stroke-width="1" /><polyline fill="none" opacity="100" points="434.0,170.0 434.0,153.0" stroke="#000" stroke-width="1" /><polyline fill="none" opacity="100" points="438.0,170.0 438.0,153.0" stroke="#000" stroke-width="1" /><polyline fill="none" opacity="100" points="442.0,170.0 442.0,153.0" stroke="#000" stroke-width="1" /><polyline fill="none" opacity="100" points="446.0,170.0 446.0,153.0" stroke="#000" stroke-width="1" /><polyline fill="none" opacity="100" points="450.0,170.0 450.0,153.0" stroke="#000" stroke-width="1" /><polyline fill="none" opacity="100" points="454.0,170.0 454.0,153.0" stroke="#000" stroke-width="1" /><polyline fill="none" opacity="100" points="458.0,170.0 458.0,153.0" stroke="#000" stroke-width="1" /><polyline fill="none" opacity="100" points="462.0,170.0 462.0,153.0" stroke="#000" stroke-width="1" /><polyline fill="none" opacity="100" points="466.0,170.0 466.0,153.0" stroke="#000" stroke-width="1" /><polyline fill="none" opacity="100" points="470.0,170.0 470.0,153.0" stroke="#000" stroke-width="1" /><polygon fill="#D0D0D0" opacity="100" points="474.0,397.0 460.0,397.0 460.0,440.0 474.0,440.0" stroke="#000" stroke-width="1" /><polyline fill="none" opacity="100" points="-108.0,378.0 -108.0,393.0 -3.0,393.0 -3.0,443.0 -108.0,443.0 -108.0,458.0" stroke="#000" stroke-width="1" /><text fill="#00AFAF" font-family="Arial" font-size="15" font-weight="normal" opacity="100" transform="rotate(-0.0 182.0,201.0) translate(0 15)" x="182.0" y="201.0">проспект Бунёдкор</text></g></g></svg>