<?xml version="1.0" encoding="utf-8" ?>
<svg baseProfile="tiny" height="890px" version="1.2" width="740px" xmlns="http://www.w3.org/2000/svg" xmlns:ev="http://www.w3.org/2001/xml-events" xmlns:xlink="http://www.w3.org/1999/xlink"><defs /><g><g transform="rotate(-55.0,370.0,445.0)"><polygon fill="#F52D35" opacity="100" points="597.0,403.0 147.0,403.0 147.0,373.0 597.0,373.0" stroke="#000" stroke-width="1" /><polygon fill="#F52D35" opacity="100" points="147.0,513.0 147.0,483.0 597.0,483.0 597.0,513.0" stroke="#000" stroke-width="1" /><text fill="#F52D35" font-family="Arial" font-size="20" font-weight="normal" opacity="100" transform="rotate(-0.0 152.0,349.0) translate(0 20)" x="152.0" y="349.0">&lt;&lt; Mirzo Ulug'bek</text><text fill="#F52D35" font-family="Arial" font-size="20" font-weight="normal" opacity="100" transform="rotate(-0.0 489.0,513.0) translate(0 20)" x="489.0" y="513.0">Milliy bog' &gt;&gt;</text><text fill="#F52D35" font-family="Arial" font-size="25" font-weight="bold" opacity="100" transform="rotate(-0.0 355.0,426.0) translate(0 25)" x="355.0" y="426.0">Novza</text><polyline fill="none" opacity="100" points="679.0,322.0 729.0,322.0 729.0,387.0 715.0,387.0 715.0,380.0 649.0,380.0 649.0,413.0 597.0,413.0 597.0,403.0" stroke="#000" stroke-width="1" /><polyline fill="none" opacity="100" points="802.0,322.0 752.0,322.0 752.0,564.0 802.0,564.0" stroke="#000" stroke-width="1" /><polyline fill="none" opacity="100" points="679.0,564.0 729.0,564.0 729.0,499.0 715.0,499.0 715.0,506.0 649.0,506.0 649.0,472.0 597.0,472.0 597.0,483.0" stroke="#000" stroke-width="1" /><polyline fill="none" opacity="100" points="679.0,305.0 802.0,305.0" stroke="#000" stroke-width="1" /><polyline fill="none" opacity="100" points="679.0,581.0 802.0,581.0" stroke="#000" stroke-width="1" /><polyline fill="none" opacity="100" points="601.0,472.0 601.0,413.0" stroke="#000" stroke-width="1" /><polyline fill="none" opacity="100" points="605.0,472.0 605.0,413.0" stroke="#000" stroke-width="1" /><polyline fill="none" opacity="100" points="609.0,472.0 609.0,413.0" stroke="#000" stroke-width="1" /><polyline fill="none" opacity="100" points="613.0,472.0 613.0,413.0" stroke="#000" stroke-width="1" /><polyline fill="none" opacity="100" points="617.0,472.0 617.0,413.0" stroke="#000" stroke-width="1" /><polyline fill="none" opacity="100" points="621.0,472.0 621.0,413.0" stroke="#000" stroke-width="1" /><polyline fill="none" opacity="100" points="625.0,472.0 625.0,413.0" stroke="#000" stroke-width="1" /><polyline fill="none" opacity="100" points="629.0,472.0 629.0,413.0" stroke="#000" stroke-width="1" /><polyline fill="none" opacity="100" points="633.0,472.0 633.0,413.0" stroke="#000" stroke-width="1" /><polyline fill="none" opacity="100" points="637.0,472.0 637.0,413.0" stroke="#000" stroke-width="1" /><polyline fill="none" opacity="100" points="641.0,472.0 641.0,413.0" stroke="#000" stroke-width="1" /><polyline fill="none" opacity="100" points="645.0,472.0 645.0,413.0" stroke="#000" stroke-width="1" /><polyline fill="none" opacity="100" points="800.0,322.0 800.0,305.0" stroke="#000" stroke-width="1" /><polyline fill="none" opacity="100" points="796.0,322.0 796.0,305.0" stroke="#000" stroke-width="1" /><polyline fill="none" opacity="100" points="792.0,322.0 792.0,305.0" stroke="#000" stroke-width="1" /><polyline fill="none" opacity="100" points="788.0,322.0 788.0,305.0" stroke="#000" stroke-width="1" /><polyline fill="none" opacity="100" points="784.0,322.0 784.0,305.0" stroke="#000" stroke-width="1" /><polyline fill="none" opacity="100" points="780.0,322.0 780.0,305.0" stroke="#000" stroke-width="1" /><polyline fill="none" opacity="100" points="776.0,322.0 776.0,305.0" stroke="#000" stroke-width="1" /><polyline fill="none" opacity="100" points="772.0,322.0 772.0,305.0" stroke="#000" stroke-width="1" /><polyline fill="none" opacity="100" points="768.0,322.0 768.0,305.0" stroke="#000" stroke-width="1" /><polyline fill="none" opacity="100" points="764.0,322.0 764.0,305.0" stroke="#000" stroke-width="1" /><polyline fill="none" opacity="100" points="760.0,322.0 760.0,305.0" stroke="#000" stroke-width="1" /><polyline fill="none" opacity="100" points="756.0,322.0 756.0,305.0" stroke="#000" stroke-width="1" /><polyline fill="none" opacity="100" points="800.0,564.0 800.0,581.0" stroke="#000" stroke-width="1" /><polyline fill="none" opacity="100" points="796.0,564.0 796.0,581.0" stroke="#000" stroke-width="1" /><polyline fill="none" opacity="100" points="792.0,564.0 792.0,581.0" stroke="#000" stroke-width="1" /><polyline fill="none" opacity="100" points="788.0,564.0 788.0,581.0" stroke="#000" stroke-width="1" /><polyline fill="none" opacity="100" points="784.0,564.0 784.0,581.0" stroke="#000" stroke-width="1" /><polyline fill="none" opacity="100" points="780.0,564.0 780.0,581.0" stroke="#000" stroke-width="1" /><polyline fill="none" opacity="100" points="776.0,564.0 776.0,581.0" stroke="#000" stroke-width="1" /><polyline fill="none" opacity="100" points="772.0,564.0 772.0,581.0" stroke="#000" stroke-width="1" /><polyline fill="none" opacity="100" points="768.0,564.0 768.0,581.0" stroke="#000" stroke-width="1" /><polyline fill="none" opacity="100" points="764.0,564.0 764.0,581.0" stroke="#000" stroke-width="1" /><polyline fill="none" opacity="100" points="760.0,564.0 760.0,581.0" stroke="#000" stroke-width="1" /><polyline fill="none" opacity="100" points="756.0,564.0 756.0,581.0" stroke="#000" stroke-width="1" /><polyline fill="none" opacity="100" points="681.0,564.0 681.0,581.0" stroke="#000" stroke-width="1" /><polyline fill="none" opacity="100" points="685.0,564.0 685.0,581.0" stroke="#000" stroke-width="1" /><polyline fill="none" opacity="100" points="689.0,564.0 689.0,581.0" stroke="#000" stroke-width="1" /><polyline fill="none" opacity="100" points="693.0,564.0 693.0,581.0" stroke="#000" stroke-width="1" /><polyline fill="none" opacity="100" points="697.0,564.0 697.0,581.0" stroke="#000" stroke-width="1" /><polyline fill="none" opacity="100" points="701.0,564.0 701.0,581.0" stroke="#000" stroke-width="1" /><polyline fill="none" opacity="100" points="705.0,564.0 705.0,581.0" stroke="#000" stroke-width="1" /><polyline fill="none" opacity="100" points="709.0,564.0 709.0,581.0" stroke="#000" stroke-width="1" /><polyline fill="none" opacity="100" points="713.0,564.0 713.0,581.0" stroke="#000" stroke-width="1" /><polyline fill="none" opacity="100" points="717.0,564.0 717.0,581.0" stroke="#000" stroke-width="1" /><polyline fill="none" opacity="100" points="721.0,564.0 721.0,581.0" stroke="#000" stroke-width="1" /><polyline fill="none" opacity="100" points="725.0,564.0 725.0,581.0" stroke="#000" stroke-width="1" /><polyline fill="none" opacity="100" points="681.0,322.0 681.0,305.0" stroke="#000" stroke-width="1" /><polyline fill="none" opacity="100" points="685.0,322.0 685.0,305.0" stroke="#000" stroke-width="1" /><polyline fill="none" opacity="100" points="689.0,322.0 689.0,305.0" stroke="#000" stroke-width="1" /><polyline fill="none" opacity="100" points="693.0,322.0 693.0,305.0" stroke="#000" stroke-width="1" /><polyline fill="none" opacity="100" points="697.0,322.0 697.0,305.0" stroke="#000" stroke-width="1" /><polyline fill="none" opacity="100" points="701.0,322.0 701.0,305.0" stroke="#000" stroke-width="1" /><polyline fill="none" opacity="100" points="705.0,322.0 705.0,305.0" stroke="#000" stroke-width="1" /><polyline fill="none" opacity="100" points="709.0,322.0 709.0,305.0" stroke="#000" stroke-width="1" /><polyline fill="none" opacity="100" points="713.0,322.0 713.0,305.0" stroke="#000" stroke-width="1" /><polyline fill="none" opacity="100" points="717.0,322.0 717.0,305.0" stroke="#000" stroke-width="1" /><polyline fill="none" opacity="100" points="721.0,322.0 721.0,305.0" stroke="#000" stroke-width="1" /><polyline fill="none" opacity="100" points="725.0,322.0 725.0,305.0" stroke="#000" stroke-width="1" /><polygon fill="#D0D0D0" opacity="100" points="729.0,422.0 715.0,422.0 715.0,465.0 729.0,465.0" stroke="#000" stroke-width="1" /><polyline fill="none" opacity="100" points="65.0,322.0 15.0,322.0 15.0,387.0 29.0,387.0 29.0,380.0 95.0,380.0 95.0,413.0 147.0,413.0 147.0,403.0" stroke="#000" stroke-width="1" /><polyline fill="none" opacity="100" points="-58.0,322.0 -8.0,322.0 -8.0,564.0 -58.0,564.0" stroke="#000" stroke-width="1" /><polyline fill="none" opacity="100" points="65.0,564.0 15.0,564.0 15.0,499.0 29.0,499.0 29.0,506.0 95.0,506.0 95.0,472.0 147.0,472.0 147.0,483.0" stroke="#000" stroke-width="1" /><polyline fill="none" opacity="100" points="65.0,305.0 -58.0,305.0" stroke="#000" stroke-width="1" /><polyline fill="none" opacity="100" points="65.0,581.0 -58.0,581.0" stroke="#000" stroke-width="1" /><polyline fill="none" opacity="100" points="143.0,472.0 143.0,413.0" stroke="#000" stroke-width="1" /><polyline fill="none" opacity="100" points="139.0,472.0 139.0,413.0" stroke="#000" stroke-width="1" /><polyline fill="none" opacity="100" points="135.0,472.0 135.0,413.0" stroke="#000" stroke-width="1" /><polyline fill="none" opacity="100" points="131.0,472.0 131.0,413.0" stroke="#000" stroke-width="1" /><polyline fill="none" opacity="100" points="127.0,472.0 127.0,413.0" stroke="#000" stroke-width="1" /><polyline fill="none" opacity="100" points="123.0,472.0 123.0,413.0" stroke="#000" stroke-width="1" /><polyline fill="none" opacity="100" points="119.0,472.0 119.0,413.0" stroke="#000" stroke-width="1" /><polyline fill="none" opacity="100" points="115.0,472.0 115.0,413.0" stroke="#000" stroke-width="1" /><polyline fill="none" opacity="100" points="111.0,472.0 111.0,413.0" stroke="#000" stroke-width="1" /><polyline fill="none" opacity="100" points="107.0,472.0 107.0,413.0" stroke="#000" stroke-width="1" /><polyline fill="none" opacity="100" points="103.0,472.0 103.0,413.0" stroke="#000" stroke-width="1" /><polyline fill="none" opacity="100" points="99.0,472.0 99.0,413.0" stroke="#000" stroke-width="1" /><polyline fill="none" opacity="100" points="-56.0,322.0 -56.0,305.0" stroke="#000" stroke-width="1" /><polyline fill="none" opacity="100" points="-52.0,322.0 -52.0,305.0" stroke="#000" stroke-width="1" /><polyline fill="none" opacity="100" points="-48.0,322.0 -48.0,305.0" stroke="#000" stroke-width="1" /><polyline fill="none" opacity="100" points="-44.0,322.0 -44.0,305.0" stroke="#000" stroke-width="1" /><polyline fill="none" opacity="100" points="-40.0,322.0 -40.0,305.0" stroke="#000" stroke-width="1" /><polyline fill="none" opacity="100" points="-36.0,322.0 -36.0,305.0" stroke="#000" stroke-width="1" /><polyline fill="none" opacity="100" points="-32.0,322.0 -32.0,305.0" stroke="#000" stroke-width="1" /><polyline fill="none" opacity="100" points="-28.0,322.0 -28.0,305.0" stroke="#000" stroke-width="1" /><polyline fill="none" opacity="100" points="-24.0,322.0 -24.0,305.0" stroke="#000" stroke-width="1" /><polyline fill="none" opacity="100" points="-20.0,322.0 -20.0,305.0" stroke="#000" stroke-width="1" /><polyline fill="none" opacity="100" points="-16.0,322.0 -16.0,305.0" stroke="#000" stroke-width="1" /><polyline fill="none" opacity="100" points="-12.0,322.0 -12.0,305.0" stroke="#000" stroke-width="1" /><polyline fill="none" opacity="100" points="-56.0,564.0 -56.0,581.0" stroke="#000" stroke-width="1" /><polyline fill="none" opacity="100" points="-52.0,564.0 -52.0,581.0" stroke="#000" stroke-width="1" /><polyline fill="none" opacity="100" points="-48.0,564.0 -48.0,581.0" stroke="#000" stroke-width="1" /><polyline fill="none" opacity="100" points="-44.0,564.0 -44.0,581.0" stroke="#000" stroke-width="1" /><polyline fill="none" opacity="100" points="-40.0,564.0 -40.0,581.0" stroke="#000" stroke-width="1" /><polyline fill="none" opacity="100" points="-36.0,564.0 -36.0,581.0" stroke="#000" stroke-width="1" /><polyline fill="none" opacity="100" points="-32.0,564.0 -32.0,581.0" stroke="#000" stroke-width="1" /><polyline fill="none" opacity="100" points="-28.0,564.0 -28.0,581.0" stroke="#000" stroke-width="1" /><polyline fill="none" opacity="100" points="-24.0,564.0 -24.0,581.0" stroke="#000" stroke-width="1" /><polyline fill="none" opacity="100" points="-20.0,564.0 -20.0,581.0" stroke="#000" stroke-width="1" /><polyline fill="none" opacity="100" points="-16.0,564.0 -16.0,581.0" stroke="#000" stroke-width="1" /><polyline fill="none" opacity="100" points="-12.0,564.0 -12.0,581.0" stroke="#000" stroke-width="1" /><polyline fill="none" opacity="100" points="63.0,564.0 63.0,581.0" stroke="#000" stroke-width="1" /><polyline fill="none" opacity="100" points="59.0,564.0 59.0,581.0" stroke="#000" stroke-width="1" /><polyline fill="none" opacity="100" points="55.0,564.0 55.0,581.0" stroke="#000" stroke-width="1" /><polyline fill="none" opacity="100" points="51.0,564.0 51.0,581.0" stroke="#000" stroke-width="1" /><polyline fill="none" opacity="100" points="47.0,564.0 47.0,581.0" stroke="#000" stroke-width="1" /><polyline fill="none" opacity="100" points="43.0,564.0 43.0,581.0" stroke="#000" stroke-width="1" /><polyline fill="none" opacity="100" points="39.0,564.0 39.0,581.0" stroke="#000" stroke-width="1" /><polyline fill="none" opacity="100" points="35.0,564.0 35.0,581.0" stroke="#000" stroke-width="1" /><polyline fill="none" opacity="100" points="31.0,564.0 31.0,581.0" stroke="#000" stroke-width="1" /><polyline fill="none" opacity="100" points="27.0,564.0 27.0,581.0" stroke="#000" stroke-width="1" /><polyline fill="none" opacity="100" points="23.0,564.0 23.0,581.0" stroke="#000" stroke-width="1" /><polyline fill="none" opacity="100" points="19.0,564.0 19.0,581.0" stroke="#000" stroke-width="1" /><polyline fill="none" opacity="100" points="63.0,322.0 63.0,305.0" stroke="#000" stroke-width="1" /><polyline fill="none" opacity="100" points="59.0,322.0 59.0,305.0" stroke="#000" stroke-width="1" /><polyline fill="none" opacity="100" points="55.0,322.0 55.0,305.0" stroke="#000" stroke-width="1" /><polyline fill="none" opacity="100" points="51.0,322.0 51.0,305.0" stroke="#000" stroke-width="1" /><polyline fill="none" opacity="100" points="47.0,322.0 47.0,305.0" stroke="#000" stroke-width="1" /><polyline fill="none" opacity="100" points="43.0,322.0 43.0,305.0" stroke="#000" stroke-width="1" /><polyline fill="none" opacity="100" points="39.0,322.0 39.0,305.0" stroke="#000" stroke-width="1" /><polyline fill="none" opacity="100" points="35.0,322.0 35.0,305.0" stroke="#000" stroke-width="1" /><polyline fill="none" opacity="100" points="31.0,322.0 31.0,305.0" stroke="#000" stroke-width="1" /><polyline fill="none" opacity="100" points="27.0,322.0 27.0,305.0" stroke="#000" stroke-width="1" /><polyline fill="none" opacity="100" points="23.0,322.0 23.0,305.0" stroke="#000" stroke-width="1" /><polyline fill="none" opacity="100" points="19.0,322.0 19.0,305.0" stroke="#000" stroke-width="1" /><polygon fill="#D0D0D0" opacity="100" points="15.0,422.0 29.0,422.0 29.0,465.0 15.0,465.0" stroke="#000" stroke-width="1" /><text fill="#00AFAF" font-family="Arial" font-size="15" font-weight="normal" opacity="100" transform="rotate(-0.0 775.0,432.0) translate(0 15)" x="775.0" y="432.0">проспект Бунёдкор</text><text fill="#00AFAF" font-family="Arial" font-size="15" font-weight="normal" opacity="100" transform="rotate(90.0 395.0,152.0) translate(0 15)" x="395.0" y="152.0">улица Мукими</text></g></g></svg>