<?xml version="1.0" encoding="utf-8" ?>
<svg baseProfile="tiny" height="530px" version="1.2" width="850px" xmlns="http://www.w3.org/2000/svg" xmlns:ev="http://www.w3.org/2001/xml-events" xmlns:xlink="http://www.w3.org/1999/xlink"><defs /><g><g transform="rotate(-25.0,425.0,265.0)"><polygon fill="#F52D35" opacity="100" points="629.0,176.0 179.0,176.0 179.0,146.0 629.0,146.0" stroke="#000" stroke-width="1" /><polygon fill="#F52D35" opacity="100" points="179.0,286.0 179.0,256.0 629.0,256.0 629.0,286.0" stroke="#000" stroke-width="1" /><text fill="#F52D35" font-family="Arial" font-size="20" font-weight="normal" opacity="100" transform="rotate(-0.0 184.0,122.0) translate(0 20)" x="184.0" y="122.0">&lt;&lt; Hamid Olimjon</text><text fill="#F52D35" font-family="Arial" font-size="20" font-weight="normal" opacity="100" transform="rotate(-0.0 474.0,286.0) translate(0 20)" x="474.0" y="286.0">Buyuk Ipak Yo'li &gt;&gt;</text><text fill="#F52D35" font-family="Arial" font-size="25" font-weight="bold" opacity="100" transform="rotate(-0.0 353.0,199.0) translate(0 25)" x="353.0" y="199.0">Pushkin</text><polyline fill="none" opacity="100" points="834.0,323.0 784.0,323.0 784.0,153.0 761.0,153.0 761.0,160.0 747.0,160.0 747.0,153.0 681.0,153.0 681.0,186.0 629.0,186.0 629.0,176.0" stroke="#000" stroke-width="1" /><polyline fill="none" opacity="100" points="834.0,340.0 761.0,340.0 761.0,272.0 747.0,272.0 747.0,279.0 681.0,279.0 681.0,245.0 629.0,245.0 629.0,256.0" stroke="#000" stroke-width="1" /><polyline fill="none" opacity="100" points="633.0,245.0 633.0,186.0" stroke="#000" stroke-width="1" /><polyline fill="none" opacity="100" points="637.0,245.0 637.0,186.0" stroke="#000" stroke-width="1" /><polyline fill="none" opacity="100" points="641.0,245.0 641.0,186.0" stroke="#000" stroke-width="1" /><polyline fill="none" opacity="100" points="645.0,245.0 645.0,186.0" stroke="#000" stroke-width="1" /><polyline fill="none" opacity="100" points="649.0,245.0 649.0,186.0" stroke="#000" stroke-width="1" /><polyline fill="none" opacity="100" points="653.0,245.0 653.0,186.0" stroke="#000" stroke-width="1" /><polyline fill="none" opacity="100" points="657.0,245.0 657.0,186.0" stroke="#000" stroke-width="1" /><polyline fill="none" opacity="100" points="661.0,245.0 661.0,186.0" stroke="#000" stroke-width="1" /><polyline fill="none" opacity="100" points="665.0,245.0 665.0,186.0" stroke="#000" stroke-width="1" /><polyline fill="none" opacity="100" points="669.0,245.0 669.0,186.0" stroke="#000" stroke-width="1" /><polyline fill="none" opacity="100" points="673.0,245.0 673.0,186.0" stroke="#000" stroke-width="1" /><polyline fill="none" opacity="100" points="677.0,245.0 677.0,186.0" stroke="#000" stroke-width="1" /><polyline fill="none" opacity="100" points="832.0,323.0 832.0,340.0" stroke="#000" stroke-width="1" /><polyline fill="none" opacity="100" points="828.0,323.0 828.0,340.0" stroke="#000" stroke-width="1" /><polyline fill="none" opacity="100" points="824.0,323.0 824.0,340.0" stroke="#000" stroke-width="1" /><polyline fill="none" opacity="100" points="820.0,323.0 820.0,340.0" stroke="#000" stroke-width="1" /><polyline fill="none" opacity="100" points="816.0,323.0 816.0,340.0" stroke="#000" stroke-width="1" /><polyline fill="none" opacity="100" points="812.0,323.0 812.0,340.0" stroke="#000" stroke-width="1" /><polyline fill="none" opacity="100" points="808.0,323.0 808.0,340.0" stroke="#000" stroke-width="1" /><polyline fill="none" opacity="100" points="804.0,323.0 804.0,340.0" stroke="#000" stroke-width="1" /><polyline fill="none" opacity="100" points="800.0,323.0 800.0,340.0" stroke="#000" stroke-width="1" /><polyline fill="none" opacity="100" points="796.0,323.0 796.0,340.0" stroke="#000" stroke-width="1" /><polyline fill="none" opacity="100" points="792.0,323.0 792.0,340.0" stroke="#000" stroke-width="1" /><polyline fill="none" opacity="100" points="788.0,323.0 788.0,340.0" stroke="#000" stroke-width="1" /><polygon fill="#D0D0D0" opacity="100" points="761.0,195.0 747.0,195.0 747.0,238.0 761.0,238.0" stroke="#000" stroke-width="1" /><polyline fill="none" opacity="100" points="-26.0,321.0 24.0,321.0 24.0,151.0 47.0,151.0 47.0,158.0 61.0,158.0 61.0,151.0 127.0,151.0 127.0,186.0 179.0,186.0 179.0,176.0" stroke="#000" stroke-width="1" /><polyline fill="none" opacity="100" points="-26.0,338.0 47.0,338.0 47.0,270.0 60.0,270.0 60.0,277.0 127.0,277.0 127.0,246.0 179.0,246.0 179.0,256.0" stroke="#000" stroke-width="1" /><polyline fill="none" opacity="100" points="175.0,186.0 175.0,246.0" stroke="#000" stroke-width="1" /><polyline fill="none" opacity="100" points="171.0,186.0 171.0,246.0" stroke="#000" stroke-width="1" /><polyline fill="none" opacity="100" points="167.0,186.0 167.0,246.0" stroke="#000" stroke-width="1" /><polyline fill="none" opacity="100" points="163.0,186.0 163.0,246.0" stroke="#000" stroke-width="1" /><polyline fill="none" opacity="100" points="159.0,186.0 159.0,246.0" stroke="#000" stroke-width="1" /><polyline fill="none" opacity="100" points="155.0,186.0 155.0,246.0" stroke="#000" stroke-width="1" /><polyline fill="none" opacity="100" points="151.0,186.0 151.0,246.0" stroke="#000" stroke-width="1" /><polyline fill="none" opacity="100" points="147.0,186.0 147.0,246.0" stroke="#000" stroke-width="1" /><polyline fill="none" opacity="100" points="143.0,186.0 143.0,246.0" stroke="#000" stroke-width="1" /><polyline fill="none" opacity="100" points="139.0,186.0 139.0,246.0" stroke="#000" stroke-width="1" /><polyline fill="none" opacity="100" points="135.0,186.0 135.0,246.0" stroke="#000" stroke-width="1" /><polyline fill="none" opacity="100" points="131.0,186.0 131.0,246.0" stroke="#000" stroke-width="1" /><polyline fill="none" opacity="100" points="-24.0,321.0 -24.0,338.0" stroke="#000" stroke-width="1" /><polyline fill="none" opacity="100" points="-20.0,321.0 -20.0,338.0" stroke="#000" stroke-width="1" /><polyline fill="none" opacity="100" points="-16.0,321.0 -16.0,338.0" stroke="#000" stroke-width="1" /><polyline fill="none" opacity="100" points="-12.0,321.0 -12.0,338.0" stroke="#000" stroke-width="1" /><polyline fill="none" opacity="100" points="-8.0,321.0 -8.0,338.0" stroke="#000" stroke-width="1" /><polyline fill="none" opacity="100" points="-4.0,321.0 -4.0,338.0" stroke="#000" stroke-width="1" /><polyline fill="none" opacity="100" points="0.0,321.0 0.0,338.0" stroke="#000" stroke-width="1" /><polyline fill="none" opacity="100" points="4.0,321.0 4.0,338.0" stroke="#000" stroke-width="1" /><polyline fill="none" opacity="100" points="8.0,321.0 8.0,338.0" stroke="#000" stroke-width="1" /><polyline fill="none" opacity="100" points="12.0,321.0 12.0,338.0" stroke="#000" stroke-width="1" /><polyline fill="none" opacity="100" points="16.0,321.0 16.0,338.0" stroke="#000" stroke-width="1" /><polyline fill="none" opacity="100" points="20.0,321.0 20.0,338.0" stroke="#000" stroke-width="1" /><polygon fill="#D0D0D0" opacity="100" points="47.0,193.0 61.0,193.0 61.0,236.0 47.0,236.0" stroke="#000" stroke-width="1" /><text fill="#00AFAF" font-family="Arial" font-size="15" font-weight="normal" opacity="100" transform="rotate(-0.0 316.0,392.0) translate(0 15)" x="316.0" y="392.0">проспект Мустакиллик</text><text fill="#00AFAF" font-family="Arial" font-size="15" font-weight="normal" opacity="100" transform="rotate(-0.0 712.0,360.0) translate(0 15)" x="712.0" y="360.0">ж/д станция "Салар"</text><polyline fill="none" opacity="100" points="783.0,352.0 833.0,352.0" stroke="#00AFAF" stroke-width="1" /><polygon fill="#00AFAF" opacity="100" points="818.5111,355.8823 833.0,352.0 818.5111,348.1177" stroke="#00AFAF" stroke-width="1" /></g></g></svg>