<?xml version="1.0" encoding="utf-8" ?>
<svg baseProfile="tiny" height="1000px" version="1.2" width="1000px" xmlns="http://www.w3.org/2000/svg" xmlns:ev="http://www.w3.org/2001/xml-events" xmlns:xlink="http://www.w3.org/1999/xlink"><defs /><g><g transform="rotate(-40.0,500.0,500.0)"><polygon fill="#2D3C9B" opacity="100" points="814.0,465.0 364.0,465.0 364.0,435.0 814.0,435.0" stroke="#000" stroke-width="1" /><polygon fill="#2D3C9B" opacity="100" points="364.0,575.0 364.0,545.0 814.0,545.0 814.0,575.0" stroke="#000" stroke-width="1" /><text fill="#2D3C9B" font-family="Arial" font-size="20" font-weight="normal" opacity="100" transform="rotate(-0.0 369.0,411.0) translate(0 20)" x="369.0" y="411.0">&lt;&lt; Oybek</text><text fill="#2D3C9B" font-family="Arial" font-size="20" font-weight="normal" opacity="100" transform="rotate(-0.0 667.0,575.0) translate(0 20)" x="667.0" y="575.0">Mashinasozlar &gt;&gt;</text><text fill="#2D3C9B" font-family="Arial" font-size="25" font-weight="bold" opacity="100" transform="rotate(-0.0 538.0,488.0) translate(0 25)" x="538.0" y="488.0">Toshkent</text><polyline fill="none" opacity="100" points="1019.0,612.0 969.0,612.0 969.0,398.0 1019.0,398.0" stroke="#000" stroke-width="1" /><polyline fill="none" opacity="100" points="1019.0,381.0 946.0,381.0 946.0,449.0 932.0,449.0 932.0,442.0 866.0,442.0 866.0,475.0 814.0,475.0 814.0,465.0" stroke="#000" stroke-width="1" /><polyline fill="none" opacity="100" points="1019.0,629.0 946.0,629.0 946.0,561.0 932.0,561.0 932.0,568.0 866.0,568.0 866.0,534.0 814.0,534.0 814.0,545.0" stroke="#000" stroke-width="1" /><polyline fill="none" opacity="100" points="818.0,534.0 818.0,475.0" stroke="#000" stroke-width="1" /><polyline fill="none" opacity="100" points="822.0,534.0 822.0,475.0" stroke="#000" stroke-width="1" /><polyline fill="none" opacity="100" points="826.0,534.0 826.0,475.0" stroke="#000" stroke-width="1" /><polyline fill="none" opacity="100" points="830.0,534.0 830.0,475.0" stroke="#000" stroke-width="1" /><polyline fill="none" opacity="100" points="834.0,534.0 834.0,475.0" stroke="#000" stroke-width="1" /><polyline fill="none" opacity="100" points="838.0,534.0 838.0,475.0" stroke="#000" stroke-width="1" /><polyline fill="none" opacity="100" points="842.0,534.0 842.0,475.0" stroke="#000" stroke-width="1" /><polyline fill="none" opacity="100" points="846.0,534.0 846.0,475.0" stroke="#000" stroke-width="1" /><polyline fill="none" opacity="100" points="850.0,534.0 850.0,475.0" stroke="#000" stroke-width="1" /><polyline fill="none" opacity="100" points="854.0,534.0 854.0,475.0" stroke="#000" stroke-width="1" /><polyline fill="none" opacity="100" points="858.0,534.0 858.0,475.0" stroke="#000" stroke-width="1" /><polyline fill="none" opacity="100" points="862.0,534.0 862.0,475.0" stroke="#000" stroke-width="1" /><polyline fill="none" opacity="100" points="1017.0,612.0 1017.0,629.0" stroke="#000" stroke-width="1" /><polyline fill="none" opacity="100" points="1013.0,612.0 1013.0,629.0" stroke="#000" stroke-width="1" /><polyline fill="none" opacity="100" points="1009.0,612.0 1009.0,629.0" stroke="#000" stroke-width="1" /><polyline fill="none" opacity="100" points="1005.0,612.0 1005.0,629.0" stroke="#000" stroke-width="1" /><polyline fill="none" opacity="100" points="1001.0,612.0 1001.0,629.0" stroke="#000" stroke-width="1" /><polyline fill="none" opacity="100" points="997.0,612.0 997.0,629.0" stroke="#000" stroke-width="1" /><polyline fill="none" opacity="100" points="993.0,612.0 993.0,629.0" stroke="#000" stroke-width="1" /><polyline fill="none" opacity="100" points="989.0,612.0 989.0,629.0" stroke="#000" stroke-width="1" /><polyline fill="none" opacity="100" points="985.0,612.0 985.0,629.0" stroke="#000" stroke-width="1" /><polyline fill="none" opacity="100" points="981.0,612.0 981.0,629.0" stroke="#000" stroke-width="1" /><polyline fill="none" opacity="100" points="977.0,612.0 977.0,629.0" stroke="#000" stroke-width="1" /><polyline fill="none" opacity="100" points="973.0,612.0 973.0,629.0" stroke="#000" stroke-width="1" /><polyline fill="none" opacity="100" points="1017.0,398.0 1017.0,381.0" stroke="#000" stroke-width="1" /><polyline fill="none" opacity="100" points="1013.0,398.0 1013.0,381.0" stroke="#000" stroke-width="1" /><polyline fill="none" opacity="100" points="1009.0,398.0 1009.0,381.0" stroke="#000" stroke-width="1" /><polyline fill="none" opacity="100" points="1005.0,398.0 1005.0,381.0" stroke="#000" stroke-width="1" /><polyline fill="none" opacity="100" points="1001.0,398.0 1001.0,381.0" stroke="#000" stroke-width="1" /><polyline fill="none" opacity="100" points="997.0,398.0 997.0,381.0" stroke="#000" stroke-width="1" /><polyline fill="none" opacity="100" points="993.0,398.0 993.0,381.0" stroke="#000" stroke-width="1" /><polyline fill="none" opacity="100" points="989.0,398.0 989.0,381.0" stroke="#000" stroke-width="1" /><polyline fill="none" opacity="100" points="985.0,398.0 985.0,381.0" stroke="#000" stroke-width="1" /><polyline fill="none" opacity="100" points="981.0,398.0 981.0,381.0" stroke="#000" stroke-width="1" /><polyline fill="none" opacity="100" points="977.0,398.0 977.0,381.0" stroke="#000" stroke-width="1" /><polyline fill="none" opacity="100" points="973.0,398.0 973.0,381.0" stroke="#000" stroke-width="1" /><polygon fill="#D0D0D0" opacity="100" points="946.0,484.0 932.0,484.0 932.0,527.0 946.0,527.0" stroke="#000" stroke-width="1" /><polyline fill="none" opacity="100" points="-27.0,560.0 -27.0,610.0 31.0,610.0 31.0,396.0 -19.0,396.0" stroke="#000" stroke-width="1" /><polyline fill="none" opacity="100" points="-44.0,560.0 -44.0,677.0" stroke="#000" stroke-width="1" /><polyline fill="none" opacity="100" points="162.0,379.0 232.0,379.0 232.0,447.0 246.0,447.0 246.0,440.0 312.0,440.0 312.0,475.0 364.0,475.0 364.0,465.0" stroke="#000" stroke-width="1" /><polyline fill="none" opacity="100" points="282.0,704.0 232.0,704.0 232.0,559.0 245.0,559.0 245.0,566.0 312.0,566.0 312.0,535.0 364.0,535.0 364.0,545.0" stroke="#000" stroke-width="1" /><polyline fill="none" opacity="100" points="162.0,396.0 212.0,396.0 212.0,525.0 48.0,525.0 48.0,379.0 -19.0,379.0" stroke="#000" stroke-width="1" /><polyline fill="none" opacity="100" points="282.0,721.0 162.0,721.0" stroke="#000" stroke-width="1" /><polyline fill="none" opacity="100" points="162.0,704.0 212.0,704.0 212.0,559.0 48.0,559.0 48.0,627.0 -27.0,627.0 -27.0,677.0" stroke="#000" stroke-width="1" /><polyline fill="none" opacity="100" points="360.0,475.0 360.0,535.0" stroke="#000" stroke-width="1" /><polyline fill="none" opacity="100" points="356.0,475.0 356.0,535.0" stroke="#000" stroke-width="1" /><polyline fill="none" opacity="100" points="352.0,475.0 352.0,535.0" stroke="#000" stroke-width="1" /><polyline fill="none" opacity="100" points="348.0,475.0 348.0,535.0" stroke="#000" stroke-width="1" /><polyline fill="none" opacity="100" points="344.0,475.0 344.0,535.0" stroke="#000" stroke-width="1" /><polyline fill="none" opacity="100" points="340.0,475.0 340.0,535.0" stroke="#000" stroke-width="1" /><polyline fill="none" opacity="100" points="336.0,475.0 336.0,535.0" stroke="#000" stroke-width="1" /><polyline fill="none" opacity="100" points="332.0,475.0 332.0,535.0" stroke="#000" stroke-width="1" /><polyline fill="none" opacity="100" points="328.0,475.0 328.0,535.0" stroke="#000" stroke-width="1" /><polyline fill="none" opacity="100" points="324.0,475.0 324.0,535.0" stroke="#000" stroke-width="1" /><polyline fill="none" opacity="100" points="320.0,475.0 320.0,535.0" stroke="#000" stroke-width="1" /><polyline fill="none" opacity="100" points="316.0,475.0 316.0,535.0" stroke="#000" stroke-width="1" /><polyline fill="none" opacity="100" points="-17.0,396.0 -17.0,379.0" stroke="#000" stroke-width="1" /><polyline fill="none" opacity="100" points="-13.0,396.0 -13.0,379.0" stroke="#000" stroke-width="1" /><polyline fill="none" opacity="100" points="-9.0,396.0 -9.0,379.0" stroke="#000" stroke-width="1" /><polyline fill="none" opacity="100" points="-5.0,396.0 -5.0,379.0" stroke="#000" stroke-width="1" /><polyline fill="none" opacity="100" points="-1.0,396.0 -1.0,379.0" stroke="#000" stroke-width="1" /><polyline fill="none" opacity="100" points="3.0,396.0 3.0,379.0" stroke="#000" stroke-width="1" /><polyline fill="none" opacity="100" points="7.0,396.0 7.0,379.0" stroke="#000" stroke-width="1" /><polyline fill="none" opacity="100" points="11.0,396.0 11.0,379.0" stroke="#000" stroke-width="1" /><polyline fill="none" opacity="100" points="15.0,396.0 15.0,379.0" stroke="#000" stroke-width="1" /><polyline fill="none" opacity="100" points="19.0,396.0 19.0,379.0" stroke="#000" stroke-width="1" /><polyline fill="none" opacity="100" points="23.0,396.0 23.0,379.0" stroke="#000" stroke-width="1" /><polyline fill="none" opacity="100" points="27.0,396.0 27.0,379.0" stroke="#000" stroke-width="1" /><polyline fill="none" opacity="100" points="-27.0,562.0 -44.0,562.0" stroke="#000" stroke-width="1" /><polyline fill="none" opacity="100" points="-27.0,566.0 -44.0,566.0" stroke="#000" stroke-width="1" /><polyline fill="none" opacity="100" points="-27.0,570.0 -44.0,570.0" stroke="#000" stroke-width="1" /><polyline fill="none" opacity="100" points="-27.0,574.0 -44.0,574.0" stroke="#000" stroke-width="1" /><polyline fill="none" opacity="100" points="-27.0,578.0 -44.0,578.0" stroke="#000" stroke-width="1" /><polyline fill="none" opacity="100" points="-27.0,582.0 -44.0,582.0" stroke="#000" stroke-width="1" /><polyline fill="none" opacity="100" points="-27.0,586.0 -44.0,586.0" stroke="#000" stroke-width="1" /><polyline fill="none" opacity="100" points="-27.0,590.0 -44.0,590.0" stroke="#000" stroke-width="1" /><polyline fill="none" opacity="100" points="-27.0,594.0 -44.0,594.0" stroke="#000" stroke-width="1" /><polyline fill="none" opacity="100" points="-27.0,598.0 -44.0,598.0" stroke="#000" stroke-width="1" /><polyline fill="none" opacity="100" points="-27.0,602.0 -44.0,602.0" stroke="#000" stroke-width="1" /><polyline fill="none" opacity="100" points="-27.0,606.0 -44.0,606.0" stroke="#000" stroke-width="1" /><polyline fill="none" opacity="100" points="-27.0,675.0 -44.0,675.0" stroke="#000" stroke-width="1" /><polyline fill="none" opacity="100" points="-27.0,671.0 -44.0,671.0" stroke="#000" stroke-width="1" /><polyline fill="none" opacity="100" points="-27.0,667.0 -44.0,667.0" stroke="#000" stroke-width="1" /><polyline fill="none" opacity="100" points="-27.0,663.0 -44.0,663.0" stroke="#000" stroke-width="1" /><polyline fill="none" opacity="100" points="-27.0,659.0 -44.0,659.0" stroke="#000" stroke-width="1" /><polyline fill="none" opacity="100" points="-27.0,655.0 -44.0,655.0" stroke="#000" stroke-width="1" /><polyline fill="none" opacity="100" points="-27.0,651.0 -44.0,651.0" stroke="#000" stroke-width="1" /><polyline fill="none" opacity="100" points="-27.0,647.0 -44.0,647.0" stroke="#000" stroke-width="1" /><polyline fill="none" opacity="100" points="-27.0,643.0 -44.0,643.0" stroke="#000" stroke-width="1" /><polyline fill="none" opacity="100" points="-27.0,639.0 -44.0,639.0" stroke="#000" stroke-width="1" /><polyline fill="none" opacity="100" points="-27.0,635.0 -44.0,635.0" stroke="#000" stroke-width="1" /><polyline fill="none" opacity="100" points="-27.0,631.0 -44.0,631.0" stroke="#000" stroke-width="1" /><polyline fill="none" opacity="100" points="164.0,396.0 164.0,379.0" stroke="#000" stroke-width="1" /><polyline fill="none" opacity="100" points="168.0,396.0 168.0,379.0" stroke="#000" stroke-width="1" /><polyline fill="none" opacity="100" points="172.0,396.0 172.0,379.0" stroke="#000" stroke-width="1" /><polyline fill="none" opacity="100" points="176.0,396.0 176.0,379.0" stroke="#000" stroke-width="1" /><polyline fill="none" opacity="100" points="180.0,396.0 180.0,379.0" stroke="#000" stroke-width="1" /><polyline fill="none" opacity="100" points="184.0,396.0 184.0,379.0" stroke="#000" stroke-width="1" /><polyline fill="none" opacity="100" points="188.0,396.0 188.0,379.0" stroke="#000" stroke-width="1" /><polyline fill="none" opacity="100" points="192.0,396.0 192.0,379.0" stroke="#000" stroke-width="1" /><polyline fill="none" opacity="100" points="196.0,396.0 196.0,379.0" stroke="#000" stroke-width="1" /><polyline fill="none" opacity="100" points="200.0,396.0 200.0,379.0" stroke="#000" stroke-width="1" /><polyline fill="none" opacity="100" points="204.0,396.0 204.0,379.0" stroke="#000" stroke-width="1" /><polyline fill="none" opacity="100" points="208.0,396.0 208.0,379.0" stroke="#000" stroke-width="1" /><polyline fill="none" opacity="100" points="280.0,704.0 280.0,721.0" stroke="#000" stroke-width="1" /><polyline fill="none" opacity="100" points="276.0,704.0 276.0,721.0" stroke="#000" stroke-width="1" /><polyline fill="none" opacity="100" points="272.0,704.0 272.0,721.0" stroke="#000" stroke-width="1" /><polyline fill="none" opacity="100" points="268.0,704.0 268.0,721.0" stroke="#000" stroke-width="1" /><polyline fill="none" opacity="100" points="264.0,704.0 264.0,721.0" stroke="#000" stroke-width="1" /><polyline fill="none" opacity="100" points="260.0,704.0 260.0,721.0" stroke="#000" stroke-width="1" /><polyline fill="none" opacity="100" points="256.0,704.0 256.0,721.0" stroke="#000" stroke-width="1" /><polyline fill="none" opacity="100" points="252.0,704.0 252.0,721.0" stroke="#000" stroke-width="1" /><polyline fill="none" opacity="100" points="248.0,704.0 248.0,721.0" stroke="#000" stroke-width="1" /><polyline fill="none" opacity="100" points="244.0,704.0 244.0,721.0" stroke="#000" stroke-width="1" /><polyline fill="none" opacity="100" points="240.0,704.0 240.0,721.0" stroke="#000" stroke-width="1" /><polyline fill="none" opacity="100" points="236.0,704.0 236.0,721.0" stroke="#000" stroke-width="1" /><polyline fill="none" opacity="100" points="164.0,704.0 164.0,721.0" stroke="#000" stroke-width="1" /><polyline fill="none" opacity="100" points="168.0,704.0 168.0,721.0" stroke="#000" stroke-width="1" /><polyline fill="none" opacity="100" points="172.0,704.0 172.0,721.0" stroke="#000" stroke-width="1" /><polyline fill="none" opacity="100" points="176.0,704.0 176.0,721.0" stroke="#000" stroke-width="1" /><polyline fill="none" opacity="100" points="180.0,704.0 180.0,721.0" stroke="#000" stroke-width="1" /><polyline fill="none" opacity="100" points="184.0,704.0 184.0,721.0" stroke="#000" stroke-width="1" /><polyline fill="none" opacity="100" points="188.0,704.0 188.0,721.0" stroke="#000" stroke-width="1" /><polyline fill="none" opacity="100" points="192.0,704.0 192.0,721.0" stroke="#000" stroke-width="1" /><polyline fill="none" opacity="100" points="196.0,704.0 196.0,721.0" stroke="#000" stroke-width="1" /><polyline fill="none" opacity="100" points="200.0,704.0 200.0,721.0" stroke="#000" stroke-width="1" /><polyline fill="none" opacity="100" points="204.0,704.0 204.0,721.0" stroke="#000" stroke-width="1" /><polyline fill="none" opacity="100" points="208.0,704.0 208.0,721.0" stroke="#000" stroke-width="1" /><polygon fill="#D0D0D0" opacity="100" points="232.0,482.0 246.0,482.0 246.0,525.0 232.0,525.0" stroke="#000" stroke-width="1" /><text fill="#00AFAF" font-family="Arial" font-size="15" font-weight="normal" opacity="100" transform="rotate(90.0 123.0,211.0) translate(0 15)" x="123.0" y="211.0">улица Тараса Шевченко</text><text fill="#00AFAF" font-family="Arial" font-size="15" font-weight="normal" opacity="100" transform="rotate(90.0 1092.0,353.0) translate(0 15)" x="1092.0" y="353.0">проспект</text><text fill="#00AFAF" font-family="Arial" font-size="15" font-weight="normal" opacity="100" transform="rotate(90.0 1077.0,350.0) translate(0 15)" x="1077.0" y="350.0">Амира тимура</text><text fill="#00AFAF" font-family="Arial" font-size="15" font-weight="normal" opacity="100" transform="rotate(-0.0 1014.0,492.0) translate(0 15)" x="1014.0" y="492.0">улица Туркистан</text></g></g></svg>