<?xml version="1.0" encoding="utf-8" ?>
<svg baseProfile="tiny" height="815px" version="1.2" width="1520px" xmlns="http://www.w3.org/2000/svg" xmlns:ev="http://www.w3.org/2001/xml-events" xmlns:xlink="http://www.w3.org/1999/xlink"><defs /><g><text fill="#0404A4" font-family="Arial" font-size="28" font-weight="normal" opacity="100" x="130.8" y="30.2">Metro de Barcelona</text><text fill="#0404A4" font-family="Arial" font-size="10" font-weight="normal" opacity="100" x="133.5" y="41.0">(Attention! All time intervals in this version are equal 2 minutes)</text><polygon fill="#F00" opacity="100" points="90.0,10.0 90.0,40.0 120.0,40.0 120.0,10.0" stroke="#F00" stroke-width="1" /><polygon fill="#FFF" opacity="100" points="93.0,25.0 105.0,16.0 117.0,25.0 105.0,34.0" stroke="#FFF" stroke-width="1" /><text fill="#F00" font-family="Arial" font-size="17" font-weight="bold" opacity="100" x="96.45" y="32.3">M</text><text fill="#FFF" font-family="Arial" font-size="12" font-weight="bold" opacity="100" x="178.2" y="71.8">L1</text><text fill="#FFF" font-family="Arial" font-size="12" font-weight="bold" opacity="100" x="178.2" y="91.8">L2</text><text fill="#FFF" font-family="Arial" font-size="12" font-weight="bold" opacity="100" x="178.2" y="111.8">L3</text><text fill="#FFF" font-family="Arial" font-size="12" font-weight="bold" opacity="100" x="178.2" y="131.8">L4</text><text fill="#FFF" font-family="Arial" font-size="12" font-weight="bold" opacity="100" x="178.2" y="151.8">L5</text><text fill="#FFF" font-family="Arial" font-size="12" font-weight="bold" opacity="100" x="178.2" y="171.8">L9</text><text fill="#FFF" font-family="Arial" font-size="12" font-weight="bold" opacity="100" x="178.2" y="191.8">L10</text><text fill="#FFF" font-family="Arial" font-size="12" font-weight="bold" opacity="100" x="178.2" y="211.8">L11</text><polyline fill="none" opacity="100" points="48.0,0.0 48.0,415.0 51.0,423.0 57.0,431.0 64.0,437.0 232.0,604.0 240.0,614.0 245.0,627.0 245.0,641.0 240.0,657.0 229.0,667.0 214.0,677.0 201.0,684.0 184.0,694.0 168.0,705.0 164.0,713.0 164.0,748.0" stroke="#B4E3EB" stroke-width="10" /><polyline fill="none" opacity="100" points="0.0,750.0 604.0,750.0 612.0,742.0 637.0,742.0 626.0,753.0 497.0,753.0 497.0,772.0 717.0,772.0 731.0,757.0 770.0,757.0 781.0,745.0 1520.0,745.0" stroke="#B4E3EB" stroke-width="10" /><polygon fill="#B4E3EB" opacity="100" points="0.0,751.0 0.0,815.0 1520.0,815.0 1520.0,743.0 781.0,746.0 770.0,757.0 734.0,759.0 704.0,771.0 499.0,768.0 497.0,753.0" stroke="#B4E3EB" stroke-width="1" /><polygon fill="#B4E3EB" opacity="100" points="608.0,748.0 615.0,743.0 629.0,745.0 623.0,751.0" stroke="#B4E3EB" stroke-width="1" /><polyline fill="none" opacity="100" points="1203.0,750.0 1203.0,540.0 1198.0,532.0 1190.0,524.0 1180.0,516.0 1174.0,509.0 1171.0,502.0 1171.0,393.0 1172.0,385.0 1175.0,378.0 1295.0,257.0 1299.0,251.0 1301.0,243.0 1301.0,111.0 1305.0,101.0 1313.0,90.0 1426.0,-22.0" stroke="#B4E3EB" stroke-width="10" /><polyline fill="none" opacity="100" points="501.0,754.0 497.0,758.0 497.0,767.0 501.0,771.0" stroke="#B4E3EB" stroke-width="10" /><polygon fill="#F80" opacity="100" points="310.0,61.0 310.0,76.0 325.0,76.0 325.0,61.0" stroke="#F80" stroke-width="1" /><polygon fill="#F80" opacity="100" points="310.0,81.0 310.0,96.0 325.0,96.0 325.0,81.0" stroke="#F80" stroke-width="1" /><polygon fill="#088C2F" opacity="100" points="310.0,101.0 310.0,116.0 325.0,116.0 325.0,101.0" stroke="#088C2F" stroke-width="1" /><polyline fill="none" opacity="100" points="323.0,73.0 325.0,71.0" stroke="#FFF" stroke-width="2" /><polyline fill="none" opacity="100" points="326.0,66.0 322.0,66.0 319.0,69.0" stroke="#FFF" stroke-width="2" /><polyline fill="none" opacity="100" points="318.0,66.0 316.0,68.0 316.0,72.0 320.0,72.0 323.0,69.0" stroke="#FFF" stroke-width="2" /><polyline fill="none" opacity="100" points="310.0,116.0 321.0,105.0" stroke="#FFF" stroke-width="4" /><polyline fill="none" opacity="100" points="317.0,99.0 327.0,109.0" stroke="#FFF" stroke-width="3" /><text fill="#FFF" font-family="Arial" font-size="16" font-weight="bold" opacity="100" x="313.6" y="94.4">R</text><text fill="#000" font-family="Arial" font-size="12" font-weight="normal" opacity="100" x="330.2" y="73.8">Схема линий пригородных электропоездов FGC</text><text fill="#000" font-family="Arial" font-size="12" font-weight="normal" opacity="100" x="330.2" y="93.8">Схема линий пригородных электропоездов RENFE (Rodalies)</text><text fill="#000" font-family="Arial" font-size="12" font-weight="normal" opacity="100" x="330.2" y="113.8">Схема трамвайных линий</text></g></svg>