<?xml version="1.0" encoding="utf-8" ?>
<svg baseProfile="tiny" height="670px" version="1.2" width="530px" xmlns="http://www.w3.org/2000/svg" xmlns:ev="http://www.w3.org/2001/xml-events" xmlns:xlink="http://www.w3.org/1999/xlink"><defs /><g><text fill="#0404A4" font-family="Arial" font-size="34" font-weight="bold" opacity="100" x="8.9" y="33.6">Rouen</text><text fill="#0404A4" font-family="Arial" font-size="26" font-weight="bold" opacity="100" x="31.1" y="59.400000000000006">Metro</text><polyline fill="none" opacity="100" points="2.0,116.0 16.0859,109.0 29.2188,102.5 41.3811,96.5066 52.625,91.0 63.0544,85.9407 72.4961,81.3945 80.8979,77.3813 88.0,74.0 93.3169,71.4351 97.4727,69.4492 100.8855,67.8833 103.6875,66.6875 106.0735,65.7886 108.2734,65.0977 110.4326,64.5591 113.0,64.0 116.6611,63.1558 120.8516,62.2461 125.2593,61.3936 129.8125,60.625 134.3071,60.0166 138.8281,59.543 143.4121,59.1929 148.0,59.0 152.5332,59.0063 157.0469,59.1758 161.5332,59.4814 166.0625,59.9375 170.7871,60.5693 175.4531,61.3164 179.9785,62.1606 184.0,63.0 186.8418,63.6479 189.3594,64.3398 192.1638,65.2473 195.3125,66.375 198.8303,67.7078 203.4258,69.4766 209.4126,71.7783 218.0,75.0 231.2397,79.8076 246.918,85.4609 263.6277,91.4819 281.0,97.75 298.3782,104.061 315.2188,110.1875 331.1953,116.0 345.0,121.0 354.6172,124.4062 361.8438,126.9375 367.7151,129.0144 372.5,130.75 376.8455,132.4016 380.6523,133.957 383.9097,135.4282 387.0,137.0 390.4146,138.9194 393.8164,141.0117 397.04,143.189 400.0625,145.4375 402.7607,147.6938 405.2695,150.0195 407.6626,152.4478 410.0,155.0 412.396,157.7202 414.7617,160.5742 417.0496,163.5437 419.25,166.625 421.3313,169.8059 423.3125,173.0938 425.2031,176.4922 427.0,180.0" stroke="#6CF" stroke-width="12" /><text fill="#00F" font-family="Arial" font-size="10" font-weight="bold" opacity="100" x="133.5" y="63.0">La Seine</text></g></svg>