<?xml version="1.0" encoding="utf-8" ?>
<svg baseProfile="tiny" height="650px" version="1.2" width="700px" xmlns="http://www.w3.org/2000/svg" xmlns:ev="http://www.w3.org/2001/xml-events" xmlns:xlink="http://www.w3.org/1999/xlink"><defs /><g><text fill="#0404A4" font-family="Arial" font-size="35" font-weight="bold" opacity="100" x="386.75" y="43.5">Bilbao</text><polygon fill="#2EB457" opacity="100" points="614.0,634.0 560.0,580.0 590.0,550.0 644.0,604.0" stroke="#FFF" stroke-width="1" /><polygon fill="#2EB457" opacity="100" points="325.0,375.0 295.0,375.0 99.0,179.0 119.0,159.0 305.0,345.0 345.0,345.0 110.0,110.0 130.0,90.0 370.0,330.0" stroke="#FFF" stroke-width="1" /><text fill="#FFF" font-family="Arial" font-size="14" font-weight="bold" opacity="100" x="640.9" y="631.6">Zone B0</text><text fill="#FFF" font-family="Arial" font-size="14" font-weight="bold" opacity="100" x="73.9" y="145.6">Zone B1</text><text fill="#FFF" font-family="Arial" font-size="14" font-weight="bold" opacity="100" x="260.9" y="397.6">Zone B2</text><polygon fill="#FEBD10" opacity="100" points="560.0,580.0 355.0,375.0 325.0,375.0 370.0,330.0 590.0,550.0" stroke="#FFF" stroke-width="1" /><text fill="#FFF" font-family="Arial" font-size="14" font-weight="bold" opacity="100" x="415.9" y="505.6">Zone A</text><polygon fill="#007CC2" opacity="100" points="110.0,110.0 30.0,30.0 50.0,10.0 130.0,90.0" stroke="#FFF" stroke-width="1" /><text fill="#FFF" font-family="Arial" font-size="14" font-weight="bold" opacity="100" x="5.9" y="68.6">Zone C</text><text fill="#FF4105" font-family="Arial" font-size="12" font-weight="bold" opacity="100" x="126.2" y="510.8">1</text><text fill="#000" font-family="Arial" font-size="12" font-weight="bold" opacity="100" x="126.2" y="524.8">2</text></g></svg>