<?xml version="1.0" encoding="utf-8" ?>
<svg baseProfile="tiny" height="920px" version="1.2" width="900px" xmlns="http://www.w3.org/2000/svg" xmlns:ev="http://www.w3.org/2001/xml-events" xmlns:xlink="http://www.w3.org/1999/xlink"><defs /><g><g transform="rotate(-89.0,450.0,460.0)"><polygon fill="#C33" opacity="100" points="676.0,420.0 676.0,451.0 229.0,451.0 229.0,420.0" stroke="#000" stroke-width="1" /><polygon fill="#C33" opacity="100" points="676.0,341.0 676.0,311.0 229.0,311.0 229.0,341.0" stroke="#000" stroke-width="1" /><text fill="#C33" font-family="Arial" font-size="20" font-weight="normal" opacity="100" transform="rotate(-0.0 541.0,451.0) translate(0 20)" x="541.0" y="451.0">посадки нет &gt;&gt;</text><text fill="#C33" font-family="Arial" font-size="20" font-weight="normal" opacity="100" transform="rotate(-0.0 231.0,285.0) translate(0 20)" x="231.0" y="285.0">&lt;&lt; Житомирская</text><text fill="#C33" font-family="Arial" font-size="25" font-weight="bold" opacity="100" transform="rotate(-0.0 381.0,260.0) translate(0 25)" x="381.0" y="260.0">Академгородок</text><polyline fill="none" opacity="100" points="676.0,341.0 676.0,360.0 652.0,360.0" stroke="#000" stroke-width="1" /><polyline fill="none" opacity="100" points="676.0,420.0 676.0,402.0 652.0,402.0" stroke="#000" stroke-width="1" /><polyline fill="none" opacity="100" points="229.0,341.0 229.0,360.0 253.0,360.0" stroke="#000" stroke-width="1" /><polyline fill="none" opacity="100" points="229.0,420.0 229.0,402.0 253.0,402.0" stroke="#000" stroke-width="1" /><polygon fill="#FFF" opacity="0.75" points="678.0,309.0 678.0,362.0 226.0,362.0 228.0,309.0" stroke="#FFF" stroke-width="1" /><polygon fill="#FFF" opacity="0.75" points="678.0,456.0 678.0,401.0 226.0,401.0 226.0,456.0" stroke="#FFF" stroke-width="1" /><polygon fill="#D0D0D0" opacity="1.0" points="652.0,357.0 652.0,363.0 646.0,363.0 646.0,357.0" stroke="#000" stroke-width="1" /><polygon fill="#D0D0D0" opacity="1.0" points="624.0,357.0 624.0,363.0 618.0,363.0 618.0,357.0" stroke="#000" stroke-width="1" /><polygon fill="#D0D0D0" opacity="1.0" points="596.0,357.0 596.0,363.0 590.0,363.0 590.0,357.0" stroke="#000" stroke-width="1" /><polygon fill="#D0D0D0" opacity="1.0" points="568.0,357.0 568.0,363.0 562.0,363.0 562.0,357.0" stroke="#000" stroke-width="1" /><polygon fill="#D0D0D0" opacity="1.0" points="540.0,357.0 540.0,363.0 534.0,363.0 534.0,357.0" stroke="#000" stroke-width="1" /><polygon fill="#D0D0D0" opacity="1.0" points="512.0,357.0 512.0,363.0 506.0,363.0 506.0,357.0" stroke="#000" stroke-width="1" /><polygon fill="#D0D0D0" opacity="1.0" points="484.0,357.0 484.0,363.0 478.0,363.0 478.0,357.0" stroke="#000" stroke-width="1" /><polygon fill="#D0D0D0" opacity="1.0" points="456.0,357.0 456.0,363.0 450.0,363.0 450.0,357.0" stroke="#000" stroke-width="1" /><polygon fill="#D0D0D0" opacity="1.0" points="427.0,357.0 427.0,363.0 421.0,363.0 421.0,357.0" stroke="#000" stroke-width="1" /><polygon fill="#D0D0D0" opacity="1.0" points="399.0,357.0 399.0,363.0 393.0,363.0 393.0,357.0" stroke="#000" stroke-width="1" /><polygon fill="#D0D0D0" opacity="1.0" points="371.0,357.0 371.0,363.0 365.0,363.0 365.0,357.0" stroke="#000" stroke-width="1" /><polygon fill="#D0D0D0" opacity="1.0" points="343.0,357.0 343.0,363.0 337.0,363.0 337.0,357.0" stroke="#000" stroke-width="1" /><polygon fill="#D0D0D0" opacity="1.0" points="315.0,357.0 315.0,363.0 309.0,363.0 309.0,357.0" stroke="#000" stroke-width="1" /><polygon fill="#D0D0D0" opacity="1.0" points="287.0,357.0 287.0,363.0 281.0,363.0 281.0,357.0" stroke="#000" stroke-width="1" /><polygon fill="#D0D0D0" opacity="1.0" points="259.0,357.0 259.0,363.0 253.0,363.0 253.0,357.0" stroke="#000" stroke-width="1" /><polygon fill="#D0D0D0" opacity="1.0" points="652.0,399.0 652.0,405.0 646.0,405.0 646.0,399.0" stroke="#000" stroke-width="1" /><polygon fill="#D0D0D0" opacity="1.0" points="624.0,399.0 624.0,405.0 618.0,405.0 618.0,399.0" stroke="#000" stroke-width="1" /><polygon fill="#D0D0D0" opacity="1.0" points="596.0,399.0 596.0,405.0 590.0,405.0 590.0,399.0" stroke="#000" stroke-width="1" /><polygon fill="#D0D0D0" opacity="1.0" points="568.0,399.0 568.0,405.0 562.0,405.0 562.0,399.0" stroke="#000" stroke-width="1" /><polygon fill="#D0D0D0" opacity="1.0" points="540.0,399.0 540.0,405.0 534.0,405.0 534.0,399.0" stroke="#000" stroke-width="1" /><polygon fill="#D0D0D0" opacity="1.0" points="512.0,399.0 512.0,405.0 506.0,405.0 506.0,399.0" stroke="#000" stroke-width="1" /><polygon fill="#D0D0D0" opacity="1.0" points="484.0,399.0 484.0,405.0 478.0,405.0 478.0,399.0" stroke="#000" stroke-width="1" /><polygon fill="#D0D0D0" opacity="1.0" points="456.0,399.0 456.0,405.0 450.0,405.0 450.0,399.0" stroke="#000" stroke-width="1" /><polygon fill="#D0D0D0" opacity="1.0" points="427.0,399.0 427.0,405.0 421.0,405.0 421.0,399.0" stroke="#000" stroke-width="1" /><polygon fill="#D0D0D0" opacity="1.0" points="399.0,399.0 399.0,405.0 393.0,405.0 393.0,399.0" stroke="#000" stroke-width="1" /><polygon fill="#D0D0D0" opacity="1.0" points="371.0,399.0 371.0,405.0 365.0,405.0 365.0,399.0" stroke="#000" stroke-width="1" /><polygon fill="#D0D0D0" opacity="1.0" points="343.0,399.0 343.0,405.0 337.0,405.0 337.0,399.0" stroke="#000" stroke-width="1" /><polygon fill="#D0D0D0" opacity="1.0" points="315.0,399.0 315.0,405.0 309.0,405.0 309.0,399.0" stroke="#000" stroke-width="1" /><polygon fill="#D0D0D0" opacity="1.0" points="287.0,399.0 287.0,405.0 281.0,405.0 281.0,399.0" stroke="#000" stroke-width="1" /><polygon fill="#D0D0D0" opacity="1.0" points="259.0,399.0 259.0,405.0 253.0,405.0 253.0,399.0" stroke="#000" stroke-width="1" /><polyline fill="none" opacity="1.0" points="624.0,363.0 625.375,362.2969 626.75,361.6875 628.125,361.1719 629.5,360.75 630.875,360.4219 632.25,360.1875 633.625,360.0469 635.0,360.0 636.375,360.0469 637.75,360.1875 639.125,360.4219 640.5,360.75 641.875,361.1719 643.25,361.6875 644.625,362.2969 646.0,363.0" stroke="#000" stroke-width="1" /><polyline fill="none" opacity="1.0" points="596.0,363.0 597.375,362.2969 598.75,361.6875 600.125,361.1719 601.5,360.75 602.875,360.4219 604.25,360.1875 605.625,360.0469 607.0,360.0 608.375,360.0469 609.75,360.1875 611.125,360.4219 612.5,360.75 613.875,361.1719 615.25,361.6875 616.625,362.2969 618.0,363.0" stroke="#000" stroke-width="1" /><polyline fill="none" opacity="1.0" points="590.0,363.0 588.625,362.2969 587.25,361.6875 585.875,361.1719 584.5,360.75 583.125,360.4219 581.75,360.1875 580.375,360.0469 579.0,360.0 577.625,360.0469 576.25,360.1875 574.875,360.4219 573.5,360.75 572.125,361.1719 570.75,361.6875 569.375,362.2969 568.0,363.0" stroke="#000" stroke-width="1" /><polyline fill="none" opacity="1.0" points="540.0,363.0 541.375,362.2969 542.75,361.6875 544.125,361.1719 545.5,360.75 546.875,360.4219 548.25,360.1875 549.625,360.0469 551.0,360.0 552.375,360.0469 553.75,360.1875 555.125,360.4219 556.5,360.75 557.875,361.1719 559.25,361.6875 560.625,362.2969 562.0,363.0" stroke="#000" stroke-width="1" /><polyline fill="none" opacity="1.0" points="512.0,363.0 513.375,362.2969 514.75,361.6875 516.125,361.1719 517.5,360.75 518.875,360.4219 520.25,360.1875 521.625,360.0469 523.0,360.0 524.375,360.0469 525.75,360.1875 527.125,360.4219 528.5,360.75 529.875,361.1719 531.25,361.6875 532.625,362.2969 534.0,363.0" stroke="#000" stroke-width="1" /><polyline fill="none" opacity="1.0" points="484.0,363.0 485.375,362.2969 486.75,361.6875 488.125,361.1719 489.5,360.75 490.875,360.4219 492.25,360.1875 493.625,360.0469 495.0,360.0 496.375,360.0469 497.75,360.1875 499.125,360.4219 500.5,360.75 501.875,361.1719 503.25,361.6875 504.625,362.2969 506.0,363.0" stroke="#000" stroke-width="1" /><polyline fill="none" opacity="1.0" points="456.0,363.0 457.375,362.2969 458.75,361.6875 460.125,361.1719 461.5,360.75 462.875,360.4219 464.25,360.1875 465.625,360.0469 467.0,360.0 468.375,360.0469 469.75,360.1875 471.125,360.4219 472.5,360.75 473.875,361.1719 475.25,361.6875 476.625,362.2969 478.0,363.0" stroke="#000" stroke-width="1" /><polyline fill="none" opacity="1.0" points="456.0,363.0 455.5703,363.3203 455.1562,363.6562 454.7578,364.0078 454.375,364.375 454.0078,364.7578 453.6562,365.1562 453.3203,365.5703 453.0,366.0 452.6953,366.4453 452.4062,366.9062 452.1328,367.3828 451.875,367.875 451.6328,368.3828 451.4062,368.9062 451.1953,369.4453 451.0,370.0" stroke="#000" stroke-width="1" /><polyline fill="none" opacity="1.0" points="451.0,370.0 496.0,370.0" stroke="#000" stroke-width="1" /><polyline fill="none" opacity="1.0" points="427.0,370.0 381.0,370.0" stroke="#000" stroke-width="1" /><polyline fill="none" opacity="1.0" points="421.0,363.0 421.6094,363.3203 422.1875,363.6562 422.7344,364.0078 423.25,364.375 423.7344,364.7578 424.1875,365.1562 424.6094,365.5703 425.0,366.0 425.3594,366.4453 425.6875,366.9062 425.9844,367.3828 426.25,367.875 426.4844,368.3828 426.6875,368.9062 426.8594,369.4453 427.0,370.0" stroke="#000" stroke-width="1" /><polyline fill="none" opacity="1.0" points="421.0,363.0 419.625,362.2969 418.25,361.6875 416.875,361.1719 415.5,360.75 414.125,360.4219 412.75,360.1875 411.375,360.0469 410.0,360.0 408.625,360.0469 407.25,360.1875 405.875,360.4219 404.5,360.75 403.125,361.1719 401.75,361.6875 400.375,362.2969 399.0,363.0" stroke="#000" stroke-width="1" /><polyline fill="none" opacity="1.0" points="393.0,363.0 391.625,362.2969 390.25,361.6875 388.875,361.1719 387.5,360.75 386.125,360.4219 384.75,360.1875 383.375,360.0469 382.0,360.0 380.625,360.0469 379.25,360.1875 377.875,360.4219 376.5,360.75 375.125,361.1719 373.75,361.6875 372.375,362.2969 371.0,363.0" stroke="#000" stroke-width="1" /><polyline fill="none" opacity="1.0" points="365.0,363.0 363.625,362.2969 362.25,361.6875 360.875,361.1719 359.5,360.75 358.125,360.4219 356.75,360.1875 355.375,360.0469 354.0,360.0 352.625,360.0469 351.25,360.1875 349.875,360.4219 348.5,360.75 347.125,361.1719 345.75,361.6875 344.375,362.2969 343.0,363.0" stroke="#000" stroke-width="1" /><polyline fill="none" opacity="1.0" points="337.0,363.0 335.625,362.2969 334.25,361.6875 332.875,361.1719 331.5,360.75 330.125,360.4219 328.75,360.1875 327.375,360.0469 326.0,360.0 324.625,360.0469 323.25,360.1875 321.875,360.4219 320.5,360.75 319.125,361.1719 317.75,361.6875 316.375,362.2969 315.0,363.0" stroke="#000" stroke-width="1" /><polyline fill="none" opacity="1.0" points="309.0,363.0 307.625,362.2969 306.25,361.6875 304.875,361.1719 303.5,360.75 302.125,360.4219 300.75,360.1875 299.375,360.0469 298.0,360.0 296.625,360.0469 295.25,360.1875 293.875,360.4219 292.5,360.75 291.125,361.1719 289.75,361.6875 288.375,362.2969 287.0,363.0" stroke="#000" stroke-width="1" /><polyline fill="none" opacity="1.0" points="281.0,363.0 279.625,362.2969 278.25,361.6875 276.875,361.1719 275.5,360.75 274.125,360.4219 272.75,360.1875 271.375,360.0469 270.0,360.0 268.625,360.0469 267.25,360.1875 265.875,360.4219 264.5,360.75 263.125,361.1719 261.75,361.6875 260.375,362.2969 259.0,363.0" stroke="#000" stroke-width="1" /><polyline fill="none" opacity="1.0" points="624.0,399.0 625.375,399.7031 626.75,400.3125 628.125,400.8281 629.5,401.25 630.875,401.5781 632.25,401.8125 633.625,401.9531 635.0,402.0 636.375,401.9531 637.75,401.8125 639.125,401.5781 640.5,401.25 641.875,400.8281 643.25,400.3125 644.625,399.7031 646.0,399.0" stroke="#000" stroke-width="1" /><polyline fill="none" opacity="1.0" points="596.0,399.0 597.375,399.7031 598.75,400.3125 600.125,400.8281 601.5,401.25 602.875,401.5781 604.25,401.8125 605.625,401.9531 607.0,402.0 608.375,401.9531 609.75,401.8125 611.125,401.5781 612.5,401.25 613.875,400.8281 615.25,400.3125 616.625,399.7031 618.0,399.0" stroke="#000" stroke-width="1" /><polyline fill="none" opacity="1.0" points="590.0,399.0 588.625,399.7031 587.25,400.3125 585.875,400.8281 584.5,401.25 583.125,401.5781 581.75,401.8125 580.375,401.9531 579.0,402.0 577.625,401.9531 576.25,401.8125 574.875,401.5781 573.5,401.25 572.125,400.8281 570.75,400.3125 569.375,399.7031 568.0,399.0" stroke="#000" stroke-width="1" /><polyline fill="none" opacity="1.0" points="540.0,399.0 541.375,399.7031 542.75,400.3125 544.125,400.8281 545.5,401.25 546.875,401.5781 548.25,401.8125 549.625,401.9531 551.0,402.0 552.375,401.9531 553.75,401.8125 555.125,401.5781 556.5,401.25 557.875,400.8281 559.25,400.3125 560.625,399.7031 562.0,399.0" stroke="#000" stroke-width="1" /><polyline fill="none" opacity="1.0" points="512.0,399.0 513.375,399.7031 514.75,400.3125 516.125,400.8281 517.5,401.25 518.875,401.5781 520.25,401.8125 521.625,401.9531 523.0,402.0 524.375,401.9531 525.75,401.8125 527.125,401.5781 528.5,401.25 529.875,400.8281 531.25,400.3125 532.625,399.7031 534.0,399.0" stroke="#000" stroke-width="1" /><polyline fill="none" opacity="1.0" points="484.0,399.0 485.375,399.7031 486.75,400.3125 488.125,400.8281 489.5,401.25 490.875,401.5781 492.25,401.8125 493.625,401.9531 495.0,402.0 496.375,401.9531 497.75,401.8125 499.125,401.5781 500.5,401.25 501.875,400.8281 503.25,400.3125 504.625,399.7031 506.0,399.0" stroke="#000" stroke-width="1" /><polyline fill="none" opacity="1.0" points="456.0,399.0 457.375,399.7031 458.75,400.3125 460.125,400.8281 461.5,401.25 462.875,401.5781 464.25,401.8125 465.625,401.9531 467.0,402.0 468.375,401.9531 469.75,401.8125 471.125,401.5781 472.5,401.25 473.875,400.8281 475.25,400.3125 476.625,399.7031 478.0,399.0" stroke="#000" stroke-width="1" /><polyline fill="none" opacity="1.0" points="456.0,399.0 455.5703,398.6797 455.1562,398.3438 454.7578,397.9922 454.375,397.625 454.0078,397.2422 453.6562,396.8438 453.3203,396.4297 453.0,396.0 452.6953,395.5547 452.4062,395.0938 452.1328,394.6172 451.875,394.125 451.6328,393.6172 451.4062,393.0938 451.1953,392.5547 451.0,392.0" stroke="#000" stroke-width="1" /><polyline fill="none" opacity="1.0" points="451.0,392.0 496.0,392.0" stroke="#000" stroke-width="1" /><polyline fill="none" opacity="1.0" points="427.0,392.0 381.0,392.0" stroke="#000" stroke-width="1" /><polyline fill="none" opacity="1.0" points="421.0,399.0 421.6094,398.6797 422.1875,398.3438 422.7344,397.9922 423.25,397.625 423.7344,397.2422 424.1875,396.8438 424.6094,396.4297 425.0,396.0 425.3594,395.5547 425.6875,395.0938 425.9844,394.6172 426.25,394.125 426.4844,393.6172 426.6875,393.0938 426.8594,392.5547 427.0,392.0" stroke="#000" stroke-width="1" /><polyline fill="none" opacity="1.0" points="421.0,399.0 419.625,399.7031 418.25,400.3125 416.875,400.8281 415.5,401.25 414.125,401.5781 412.75,401.8125 411.375,401.9531 410.0,402.0 408.625,401.9531 407.25,401.8125 405.875,401.5781 404.5,401.25 403.125,400.8281 401.75,400.3125 400.375,399.7031 399.0,399.0" stroke="#000" stroke-width="1" /><polyline fill="none" opacity="1.0" points="393.0,399.0 391.625,399.7031 390.25,400.3125 388.875,400.8281 387.5,401.25 386.125,401.5781 384.75,401.8125 383.375,401.9531 382.0,402.0 380.625,401.9531 379.25,401.8125 377.875,401.5781 376.5,401.25 375.125,400.8281 373.75,400.3125 372.375,399.7031 371.0,399.0" stroke="#000" stroke-width="1" /><polyline fill="none" opacity="1.0" points="365.0,399.0 363.625,399.7031 362.25,400.3125 360.875,400.8281 359.5,401.25 358.125,401.5781 356.75,401.8125 355.375,401.9531 354.0,402.0 352.625,401.9531 351.25,401.8125 349.875,401.5781 348.5,401.25 347.125,400.8281 345.75,400.3125 344.375,399.7031 343.0,399.0" stroke="#000" stroke-width="1" /><polyline fill="none" opacity="1.0" points="337.0,399.0 335.625,399.7031 334.25,400.3125 332.875,400.8281 331.5,401.25 330.125,401.5781 328.75,401.8125 327.375,401.9531 326.0,402.0 324.625,401.9531 323.25,401.8125 321.875,401.5781 320.5,401.25 319.125,400.8281 317.75,400.3125 316.375,399.7031 315.0,399.0" stroke="#000" stroke-width="1" /><polyline fill="none" opacity="1.0" points="309.0,399.0 307.625,399.7031 306.25,400.3125 304.875,400.8281 303.5,401.25 302.125,401.5781 300.75,401.8125 299.375,401.9531 298.0,402.0 296.625,401.9531 295.25,401.8125 293.875,401.5781 292.5,401.25 291.125,400.8281 289.75,400.3125 288.375,399.7031 287.0,399.0" stroke="#000" stroke-width="1" /><polyline fill="none" opacity="1.0" points="281.0,399.0 279.625,399.7031 278.25,400.3125 276.875,400.8281 275.5,401.25 274.125,401.5781 272.75,401.8125 271.375,401.9531 270.0,402.0 268.625,401.9531 267.25,401.8125 265.875,401.5781 264.5,401.25 263.125,400.8281 261.75,400.3125 260.375,399.7031 259.0,399.0" stroke="#000" stroke-width="1" /><polyline fill="none" opacity="1.0" points="453.0,370.0 453.0,392.0" stroke="#000" stroke-width="1" /><polyline fill="none" opacity="1.0" points="457.0,370.0 457.0,392.0" stroke="#000" stroke-width="1" /><polyline fill="none" opacity="1.0" points="461.0,370.0 461.0,392.0" stroke="#000" stroke-width="1" /><polyline fill="none" opacity="1.0" points="465.0,370.0 465.0,392.0" stroke="#000" stroke-width="1" /><polyline fill="none" opacity="1.0" points="469.0,370.0 469.0,392.0" stroke="#000" stroke-width="1" /><polyline fill="none" opacity="1.0" points="473.0,370.0 473.0,392.0" stroke="#000" stroke-width="1" /><polyline fill="none" opacity="1.0" points="477.0,370.0 477.0,392.0" stroke="#000" stroke-width="1" /><polyline fill="none" opacity="1.0" points="481.0,370.0 481.0,392.0" stroke="#000" stroke-width="1" /><polyline fill="none" opacity="1.0" points="485.0,370.0 485.0,392.0" stroke="#000" stroke-width="1" /><polyline fill="none" opacity="1.0" points="489.0,370.0 489.0,392.0" stroke="#000" stroke-width="1" /><polyline fill="none" opacity="1.0" points="493.0,370.0 493.0,392.0" stroke="#000" stroke-width="1" /><polyline fill="none" opacity="1.0" points="497.0,370.0 497.0,392.0" stroke="#000" stroke-width="1" /><polyline fill="none" opacity="1.0" points="425.0,370.0 425.0,392.0" stroke="#000" stroke-width="1" /><polyline fill="none" opacity="1.0" points="421.0,370.0 421.0,392.0" stroke="#000" stroke-width="1" /><polyline fill="none" opacity="1.0" points="417.0,370.0 417.0,392.0" stroke="#000" stroke-width="1" /><polyline fill="none" opacity="1.0" points="413.0,370.0 413.0,392.0" stroke="#000" stroke-width="1" /><polyline fill="none" opacity="1.0" points="409.0,370.0 409.0,392.0" stroke="#000" stroke-width="1" /><polyline fill="none" opacity="1.0" points="405.0,370.0 405.0,392.0" stroke="#000" stroke-width="1" /><polyline fill="none" opacity="1.0" points="401.0,370.0 401.0,392.0" stroke="#000" stroke-width="1" /><polyline fill="none" opacity="1.0" points="397.0,370.0 397.0,392.0" stroke="#000" stroke-width="1" /><polyline fill="none" opacity="1.0" points="393.0,370.0 393.0,392.0" stroke="#000" stroke-width="1" /><polyline fill="none" opacity="1.0" points="389.0,370.0 389.0,392.0" stroke="#000" stroke-width="1" /><polyline fill="none" opacity="1.0" points="385.0,370.0 385.0,392.0" stroke="#000" stroke-width="1" /><polyline fill="none" opacity="1.0" points="381.0,370.0 381.0,392.0" stroke="#000" stroke-width="1" /><polyline fill="none" opacity="1.0" points="676.0,311.0 229.0,311.0" stroke="#000" stroke-width="1" /><polyline fill="none" opacity="1.0" points="676.0,451.0 229.0,451.0" stroke="#000" stroke-width="1" /><polyline fill="none" opacity="1.0" points="253.0,363.0 210.0,363.0" stroke="#000" stroke-width="1" /><polyline fill="none" opacity="1.0" points="253.0,399.0 210.0,399.0" stroke="#000" stroke-width="1" /><polyline fill="none" opacity="1.0" points="256.0,363.0 256.0,399.0" stroke="#000" stroke-width="1" /><polyline fill="none" opacity="1.0" points="252.0,363.0 252.0,399.0" stroke="#000" stroke-width="1" /><polyline fill="none" opacity="1.0" points="248.0,363.0 248.0,399.0" stroke="#000" stroke-width="1" /><polyline fill="none" opacity="1.0" points="244.0,363.0 244.0,399.0" stroke="#000" stroke-width="1" /><polyline fill="none" opacity="1.0" points="240.0,363.0 240.0,399.0" stroke="#000" stroke-width="1" /><polyline fill="none" opacity="1.0" points="236.0,363.0 236.0,399.0" stroke="#000" stroke-width="1" /><polyline fill="none" opacity="1.0" points="232.0,363.0 232.0,399.0" stroke="#000" stroke-width="1" /><polyline fill="none" opacity="1.0" points="228.0,363.0 228.0,399.0" stroke="#000" stroke-width="1" /><polyline fill="none" opacity="1.0" points="224.0,363.0 224.0,399.0" stroke="#000" stroke-width="1" /><polyline fill="none" opacity="1.0" points="220.0,363.0 220.0,399.0" stroke="#000" stroke-width="1" /><polyline fill="none" opacity="1.0" points="216.0,363.0 216.0,399.0" stroke="#000" stroke-width="1" /><polyline fill="none" opacity="1.0" points="212.0,363.0 212.0,399.0" stroke="#000" stroke-width="1" /><polyline fill="none" opacity="1.0" points="229.0,311.0 100.0,311.0 100.0,290.0 170.0,289.0" stroke="#000" stroke-width="1" /><polyline fill="none" opacity="1.0" points="229.0,451.0 158.0,451.0 158.0,402.0 100.0,402.0 100.0,454.0 101.0,466.0 161.0,464.0" stroke="#000" stroke-width="1" /><polygon fill="#D0D0D0" opacity="1.0" points="158.0,351.0 151.0,351.0 151.0,368.0 158.0,368.0" stroke="#000" stroke-width="1" /><polyline fill="none" opacity="1.0" points="163.0,485.0 101.0,488.0 106.0,639.0 300.0,632.0" stroke="#000" stroke-width="1" /><polyline fill="none" opacity="1.0" points="19.0,287.0 72.0,286.0 72.0,457.0 78.0,640.0 19.0,643.0" stroke="#000" stroke-width="1" /><polyline fill="none" opacity="1.0" points="18.0,262.0 72.0,261.0 72.0,254.0 170.0,252.0" stroke="#000" stroke-width="1" /><polyline fill="none" opacity="1.0" points="160.0,268.0 105.0,269.0" stroke="#000" stroke-width="1" /><polyline fill="none" opacity="1.0" points="301.0,656.0 20.0,667.0" stroke="#000" stroke-width="1" /><polyline fill="none" opacity="1.0" points="160.0,464.0 161.0,485.0" stroke="#000" stroke-width="1" /><polyline fill="none" opacity="1.0" points="156.0031,464.1567 157.0031,485.1567" stroke="#000" stroke-width="1" /><polyline fill="none" opacity="1.0" points="152.0061,464.3135 153.0061,485.3135" stroke="#000" stroke-width="1" /><polyline fill="none" opacity="1.0" points="148.0092,464.4702 149.0092,485.4702" stroke="#000" stroke-width="1" /><polyline fill="none" opacity="1.0" points="144.0123,464.627 145.0123,485.627" stroke="#000" stroke-width="1" /><polyline fill="none" opacity="1.0" points="140.0154,464.7837 141.0154,485.7837" stroke="#000" stroke-width="1" /><polyline fill="none" opacity="1.0" points="136.0184,464.9405 137.0184,485.9405" stroke="#000" stroke-width="1" /><polyline fill="none" opacity="1.0" points="132.0215,465.0972 133.0215,486.0972" stroke="#000" stroke-width="1" /><polyline fill="none" opacity="1.0" points="128.0246,465.2539 129.0246,486.2539" stroke="#000" stroke-width="1" /><polyline fill="none" opacity="1.0" points="124.0276,465.4107 125.0276,486.4107" stroke="#000" stroke-width="1" /><polyline fill="none" opacity="1.0" points="120.0307,465.5674 121.0307,486.5674" stroke="#000" stroke-width="1" /><polyline fill="none" opacity="1.0" points="116.0338,465.7242 117.0338,486.7242" stroke="#000" stroke-width="1" /><polyline fill="none" opacity="1.0" points="112.0369,465.8809 113.0369,486.8809" stroke="#000" stroke-width="1" /><polyline fill="none" opacity="1.0" points="21.0,643.0 22.0,667.0" stroke="#000" stroke-width="1" /><polyline fill="none" opacity="1.0" points="24.9962,642.8263 25.9962,666.8263" stroke="#000" stroke-width="1" /><polyline fill="none" opacity="1.0" points="28.9924,642.6525 29.9924,666.6525" stroke="#000" stroke-width="1" /><polyline fill="none" opacity="1.0" points="32.9887,642.4788 33.9887,666.4788" stroke="#000" stroke-width="1" /><polyline fill="none" opacity="1.0" points="36.9849,642.305 37.9849,666.305" stroke="#000" stroke-width="1" /><polyline fill="none" opacity="1.0" points="40.9811,642.1313 41.9811,666.1313" stroke="#000" stroke-width="1" /><polyline fill="none" opacity="1.0" points="44.9773,641.9575 45.9773,665.9575" stroke="#000" stroke-width="1" /><polyline fill="none" opacity="1.0" points="48.9736,641.7838 49.9736,665.7838" stroke="#000" stroke-width="1" /><polyline fill="none" opacity="1.0" points="52.9698,641.61 53.9698,665.61" stroke="#000" stroke-width="1" /><polyline fill="none" opacity="1.0" points="56.966,641.4363 57.966,665.4363" stroke="#000" stroke-width="1" /><polyline fill="none" opacity="1.0" points="60.9622,641.2625 61.9622,665.2625" stroke="#000" stroke-width="1" /><polyline fill="none" opacity="1.0" points="64.9585,641.0888 65.9585,665.0888" stroke="#000" stroke-width="1" /><polyline fill="none" opacity="1.0" points="20.0,287.0 20.0,262.0" stroke="#000" stroke-width="1" /><polyline fill="none" opacity="1.0" points="23.9991,286.9131 23.9991,261.9131" stroke="#000" stroke-width="1" /><polyline fill="none" opacity="1.0" points="27.9981,286.8261 27.9981,261.8261" stroke="#000" stroke-width="1" /><polyline fill="none" opacity="1.0" points="31.9972,286.7392 31.9972,261.7392" stroke="#000" stroke-width="1" /><polyline fill="none" opacity="1.0" points="35.9962,286.6523 35.9962,261.6523" stroke="#000" stroke-width="1" /><polyline fill="none" opacity="1.0" points="39.9953,286.5653 39.9953,261.5653" stroke="#000" stroke-width="1" /><polyline fill="none" opacity="1.0" points="43.9943,286.4784 43.9943,261.4784" stroke="#000" stroke-width="1" /><polyline fill="none" opacity="1.0" points="47.9934,286.3914 47.9934,261.3914" stroke="#000" stroke-width="1" /><polyline fill="none" opacity="1.0" points="51.9924,286.3045 51.9924,261.3045" stroke="#000" stroke-width="1" /><polyline fill="none" opacity="1.0" points="55.9915,286.2176 55.9915,261.2176" stroke="#000" stroke-width="1" /><polyline fill="none" opacity="1.0" points="59.9906,286.1306 59.9906,261.1306" stroke="#000" stroke-width="1" /><polyline fill="none" opacity="1.0" points="63.9896,286.0437 63.9896,261.0437" stroke="#000" stroke-width="1" /><polyline fill="none" opacity="1.0" points="159.0,252.0 159.0,268.0" stroke="#000" stroke-width="1" /><polyline fill="none" opacity="1.0" points="155.0041,252.1816 155.0041,268.1816" stroke="#000" stroke-width="1" /><polyline fill="none" opacity="1.0" points="151.0083,252.3633 151.0083,268.3633" stroke="#000" stroke-width="1" /><polyline fill="none" opacity="1.0" points="147.0124,252.5449 147.0124,268.5449" stroke="#000" stroke-width="1" /><polyline fill="none" opacity="1.0" points="143.0165,252.7265 143.0165,268.7265" stroke="#000" stroke-width="1" /><polyline fill="none" opacity="1.0" points="139.0206,252.9082 139.0206,268.9082" stroke="#000" stroke-width="1" /><polyline fill="none" opacity="1.0" points="128.0,253.0 128.0,269.0" stroke="#000" stroke-width="1" /><polyline fill="none" opacity="1.0" points="124.0,253.0 124.0,269.0" stroke="#000" stroke-width="1" /><polyline fill="none" opacity="1.0" points="120.0,253.0 120.0,269.0" stroke="#000" stroke-width="1" /><polyline fill="none" opacity="1.0" points="116.0,253.0 116.0,269.0" stroke="#000" stroke-width="1" /><polyline fill="none" opacity="1.0" points="112.0,253.0 112.0,269.0" stroke="#000" stroke-width="1" /><polyline fill="none" opacity="1.0" points="108.0,253.0 108.0,269.0" stroke="#000" stroke-width="1" /><polyline fill="none" opacity="1.0" points="106.0,637.0 78.0,638.0" stroke="#000" stroke-width="1" /><polyline fill="none" opacity="1.0" points="106.0,633.0 78.0,634.0" stroke="#000" stroke-width="1" /><polyline fill="none" opacity="1.0" points="106.0,629.0 78.0,630.0" stroke="#000" stroke-width="1" /><polyline fill="none" opacity="1.0" points="101.0,502.0 74.0,503.0" stroke="#000" stroke-width="1" /><polyline fill="none" opacity="1.0" points="101.0,506.0 74.0,507.0" stroke="#000" stroke-width="1" /><polyline fill="none" opacity="1.0" points="101.0,510.0 74.0,511.0" stroke="#000" stroke-width="1" /><polyline fill="none" opacity="1.0" points="153.0,270.0 153.0,287.0" stroke="#7F7F7F" stroke-width="1" /><polyline fill="none" opacity="1.0" points="149.0015,270.1081 149.0015,287.1081" stroke="#7F7F7F" stroke-width="1" /><polyline fill="none" opacity="1.0" points="145.0029,270.2161 145.0029,287.2161" stroke="#7F7F7F" stroke-width="1" /><polyline fill="none" opacity="1.0" points="141.0044,270.3242 141.0044,287.3242" stroke="#7F7F7F" stroke-width="1" /><polyline fill="none" opacity="1.0" points="137.0058,270.4323 137.0058,287.4323" stroke="#7F7F7F" stroke-width="1" /><polyline fill="none" opacity="1.0" points="133.0073,270.5403 133.0073,287.5403" stroke="#7F7F7F" stroke-width="1" /><polyline fill="none" opacity="1.0" points="129.0088,270.6484 129.0088,287.6484" stroke="#7F7F7F" stroke-width="1" /><polyline fill="none" opacity="1.0" points="125.0102,270.7565 125.0102,287.7565" stroke="#7F7F7F" stroke-width="1" /><polyline fill="none" opacity="1.0" points="121.0117,270.8645 121.0117,287.8645" stroke="#7F7F7F" stroke-width="1" /><polyline fill="none" opacity="1.0" points="117.0131,270.9726 117.0131,287.9726" stroke="#7F7F7F" stroke-width="1" /><polygon fill="#9B5509" opacity="1.0" points="113.0,288.0 113.0,290.0 156.0,289.0 156.0,287.0" stroke="#000" stroke-width="1" /><polygon fill="#9B5509" opacity="1.0" points="113.0,278.0 113.0,281.0 156.0,280.0 156.0,277.0" stroke="#000" stroke-width="1" /><polygon fill="#9B5509" opacity="1.0" points="113.0,269.0 113.0,271.0 156.0,270.0 156.0,268.0" stroke="#000" stroke-width="1" /><polyline fill="none" opacity="1.0" points="162.0,286.0 159.0,271.0" stroke="#F00" stroke-width="1" /><polyline fill="none" opacity="1.0" points="162.0,271.0 159.0,286.0" stroke="#F00" stroke-width="1" /><polyline fill="none" opacity="1.0" points="109.0,287.0 106.0,272.0" stroke="#F00" stroke-width="1" /><polyline fill="none" opacity="1.0" points="109.0,272.0 106.0,287.0" stroke="#F00" stroke-width="1" /><polyline fill="none" opacity="1.0" points="158.0,408.0 147.0,408.0 147.0,439.0 158.0,439.0" stroke="#000" stroke-width="1" /><polyline fill="none" opacity="1.0" points="158.0,359.0 180.0,359.0" stroke="#000" stroke-width="0.5" /><polyline fill="none" opacity="1.0" points="200.0,450.0 189.0,409.0" stroke="#000" stroke-width="0.5" /><text fill="#000" font-family="Arial" font-size="10" font-weight="normal" opacity="1.0" transform="rotate(90.0 159.0,410.0) translate(0 10)" x="159.0" y="410.0">кассы</text><polygon fill="none" opacity="1.0" points="173.0,361.0 180.0,359.0 182.0,366.0 175.0,368.0" stroke="#000" stroke-width="1" /><polyline fill="none" opacity="1.0" points="178.0,371.0 182.0,370.0" stroke="#090" stroke-width="1" /><polyline fill="none" opacity="1.0" points="178.8994,374.8976 182.8994,373.8976" stroke="#090" stroke-width="1" /><polyline fill="none" opacity="1.0" points="179.7989,378.7951 183.7989,377.7951" stroke="#090" stroke-width="1" /><polyline fill="none" opacity="1.0" points="180.6983,382.6927 184.6983,381.6927" stroke="#090" stroke-width="1" /><polyline fill="none" opacity="1.0" points="181.5978,386.5903 185.5978,385.5903" stroke="#090" stroke-width="1" /><polyline fill="none" opacity="1.0" points="182.4972,390.4878 186.4972,389.4878" stroke="#090" stroke-width="1" /><polyline fill="none" opacity="1.0" points="183.3966,394.3854 187.3966,393.3854" stroke="#090" stroke-width="1" /><polyline fill="none" opacity="1.0" points="184.2961,398.283 188.2961,397.283" stroke="#090" stroke-width="1" /><polyline fill="none" opacity="1.0" points="185.1955,402.1805 189.1955,401.1805" stroke="#090" stroke-width="1" /><polyline fill="none" opacity="1.0" points="186.0949,406.0781 190.0949,405.0781" stroke="#090" stroke-width="1" /><polyline fill="none" opacity="1.0" points="186.9944,409.9756 190.9944,408.9756" stroke="#090" stroke-width="1" /><polyline fill="none" opacity="1.0" points="176.0,355.0 181.0,355.0" stroke="#F00" stroke-width="1" /><polyline fill="none" opacity="1.0" points="175.9,351.0012 180.9,351.0012" stroke="#F00" stroke-width="1" /><polyline fill="none" opacity="1.0" points="175.8001,347.0025 180.8001,347.0025" stroke="#F00" stroke-width="1" /><polyline fill="none" opacity="1.0" points="175.7001,343.0037 180.7001,343.0037" stroke="#F00" stroke-width="1" /><polyline fill="none" opacity="1.0" points="175.6001,339.005 180.6001,339.005" stroke="#F00" stroke-width="1" /><polyline fill="none" opacity="1.0" points="175.5002,335.0062 180.5002,335.0062" stroke="#F00" stroke-width="1" /><polyline fill="none" opacity="1.0" points="175.4002,331.0075 180.4002,331.0075" stroke="#F00" stroke-width="1" /><polyline fill="none" opacity="1.0" points="175.3002,327.0087 180.3002,327.0087" stroke="#F00" stroke-width="1" /><polyline fill="none" opacity="1.0" points="175.2002,323.01 180.2002,323.01" stroke="#F00" stroke-width="1" /><polyline fill="none" opacity="1.0" points="175.1003,319.0112 180.1003,319.0112" stroke="#F00" stroke-width="1" /><polyline fill="none" opacity="1.0" points="175.0003,315.0125 180.0003,315.0125" stroke="#F00" stroke-width="1" /><polyline fill="none" opacity="1.0" points="652.0,363.0 695.0,363.0" stroke="#000" stroke-width="1" /><polyline fill="none" opacity="1.0" points="652.0,399.0 695.0,399.0" stroke="#000" stroke-width="1" /><polyline fill="none" opacity="1.0" points="650.0,363.0 650.0,399.0" stroke="#000" stroke-width="1" /><polyline fill="none" opacity="1.0" points="654.0,363.0 654.0,399.0" stroke="#000" stroke-width="1" /><polyline fill="none" opacity="1.0" points="658.0,363.0 658.0,399.0" stroke="#000" stroke-width="1" /><polyline fill="none" opacity="1.0" points="662.0,363.0 662.0,399.0" stroke="#000" stroke-width="1" /><polyline fill="none" opacity="1.0" points="666.0,363.0 666.0,399.0" stroke="#000" stroke-width="1" /><polyline fill="none" opacity="1.0" points="670.0,363.0 670.0,399.0" stroke="#000" stroke-width="1" /><polyline fill="none" opacity="1.0" points="674.0,363.0 674.0,399.0" stroke="#000" stroke-width="1" /><polyline fill="none" opacity="1.0" points="678.0,363.0 678.0,399.0" stroke="#000" stroke-width="1" /><polyline fill="none" opacity="1.0" points="682.0,363.0 682.0,399.0" stroke="#000" stroke-width="1" /><polyline fill="none" opacity="1.0" points="686.0,363.0 686.0,399.0" stroke="#000" stroke-width="1" /><polyline fill="none" opacity="1.0" points="690.0,363.0 690.0,399.0" stroke="#000" stroke-width="1" /><polyline fill="none" opacity="1.0" points="694.0,363.0 694.0,399.0" stroke="#000" stroke-width="1" /><polyline fill="none" opacity="1.0" points="676.0,451.0 805.0,451.0 805.0,633.0 731.0,633.0" stroke="#000" stroke-width="1" /><polyline fill="none" opacity="1.0" points="676.0,311.0 745.0,311.0 745.0,366.0 805.0,366.0 805.0,301.0 647.0,301.0" stroke="#000" stroke-width="1" /><polygon fill="#D0D0D0" opacity="1.0" points="745.0,397.0 753.0,397.0 753.0,412.0 745.0,412.0" stroke="#000" stroke-width="1" /><polyline fill="none" opacity="1.0" points="890.0,633.0 833.0,633.0 833.0,301.0 901.0,301.0" stroke="#000" stroke-width="1" /><polyline fill="none" opacity="1.0" points="890.0,656.0 731.0,656.0" stroke="#000" stroke-width="1" /><polyline fill="none" opacity="1.0" points="901.0,266.0 647.0,266.0" stroke="#000" stroke-width="1" /><polyline fill="none" opacity="1.0" points="893.0,281.0 840.0,281.0" stroke="#000" stroke-width="1" /><polyline fill="none" opacity="1.0" points="891.0,266.0 891.0,281.0" stroke="#000" stroke-width="1" /><polyline fill="none" opacity="1.0" points="887.0,266.0 887.0,281.0" stroke="#000" stroke-width="1" /><polyline fill="none" opacity="1.0" points="883.0,266.0 883.0,281.0" stroke="#000" stroke-width="1" /><polyline fill="none" opacity="1.0" points="879.0,266.0 879.0,281.0" stroke="#000" stroke-width="1" /><polyline fill="none" opacity="1.0" points="875.0,266.0 875.0,281.0" stroke="#000" stroke-width="1" /><polyline fill="none" opacity="1.0" points="871.0,266.0 871.0,281.0" stroke="#000" stroke-width="1" /><polyline fill="none" opacity="1.0" points="862.0,266.0 862.0,281.0" stroke="#000" stroke-width="1" /><polyline fill="none" opacity="1.0" points="858.0,266.0 858.0,281.0" stroke="#000" stroke-width="1" /><polyline fill="none" opacity="1.0" points="854.0,266.0 854.0,281.0" stroke="#000" stroke-width="1" /><polyline fill="none" opacity="1.0" points="850.0,266.0 850.0,281.0" stroke="#000" stroke-width="1" /><polyline fill="none" opacity="1.0" points="846.0,266.0 846.0,281.0" stroke="#000" stroke-width="1" /><polyline fill="none" opacity="1.0" points="842.0,266.0 842.0,281.0" stroke="#000" stroke-width="1" /><polyline fill="none" opacity="1.0" points="888.0,633.0 888.0,656.0" stroke="#000" stroke-width="1" /><polyline fill="none" opacity="1.0" points="884.0,633.0 884.0,656.0" stroke="#000" stroke-width="1" /><polyline fill="none" opacity="1.0" points="880.0,633.0 880.0,656.0" stroke="#000" stroke-width="1" /><polyline fill="none" opacity="1.0" points="876.0,633.0 876.0,656.0" stroke="#000" stroke-width="1" /><polyline fill="none" opacity="1.0" points="872.0,633.0 872.0,656.0" stroke="#000" stroke-width="1" /><polyline fill="none" opacity="1.0" points="868.0,633.0 868.0,656.0" stroke="#000" stroke-width="1" /><polyline fill="none" opacity="1.0" points="864.0,633.0 864.0,656.0" stroke="#000" stroke-width="1" /><polyline fill="none" opacity="1.0" points="860.0,633.0 860.0,656.0" stroke="#000" stroke-width="1" /><polyline fill="none" opacity="1.0" points="856.0,633.0 856.0,656.0" stroke="#000" stroke-width="1" /><polyline fill="none" opacity="1.0" points="852.0,633.0 852.0,656.0" stroke="#000" stroke-width="1" /><polyline fill="none" opacity="1.0" points="848.0,633.0 848.0,656.0" stroke="#000" stroke-width="1" /><polyline fill="none" opacity="1.0" points="844.0,633.0 844.0,656.0" stroke="#000" stroke-width="1" /><polyline fill="none" opacity="1.0" points="840.0,633.0 840.0,656.0" stroke="#000" stroke-width="1" /><polyline fill="none" opacity="1.0" points="833.0,631.0 805.0,631.0" stroke="#000" stroke-width="1" /><polyline fill="none" opacity="1.0" points="833.0,627.0 805.0,627.0" stroke="#000" stroke-width="1" /><polyline fill="none" opacity="1.0" points="833.0,623.0 805.0,623.0" stroke="#000" stroke-width="1" /><polyline fill="none" opacity="1.0" points="833.0,489.0 805.0,489.0" stroke="#000" stroke-width="1" /><polyline fill="none" opacity="1.0" points="833.0,493.0 805.0,493.0" stroke="#000" stroke-width="1" /><polyline fill="none" opacity="1.0" points="833.0,497.0 805.0,497.0" stroke="#000" stroke-width="1" /><polyline fill="none" opacity="1.0" points="884.0,283.0 884.0,299.0" stroke="#7F7F7F" stroke-width="1" /><polyline fill="none" opacity="1.0" points="880.0,283.0 880.0,299.0" stroke="#7F7F7F" stroke-width="1" /><polyline fill="none" opacity="1.0" points="876.0,283.0 876.0,299.0" stroke="#7F7F7F" stroke-width="1" /><polyline fill="none" opacity="1.0" points="872.0,283.0 872.0,299.0" stroke="#7F7F7F" stroke-width="1" /><polyline fill="none" opacity="1.0" points="868.0,283.0 868.0,299.0" stroke="#7F7F7F" stroke-width="1" /><polyline fill="none" opacity="1.0" points="864.0,283.0 864.0,299.0" stroke="#7F7F7F" stroke-width="1" /><polyline fill="none" opacity="1.0" points="860.0,283.0 860.0,299.0" stroke="#7F7F7F" stroke-width="1" /><polyline fill="none" opacity="1.0" points="856.0,283.0 856.0,299.0" stroke="#7F7F7F" stroke-width="1" /><polyline fill="none" opacity="1.0" points="852.0,283.0 852.0,299.0" stroke="#7F7F7F" stroke-width="1" /><polygon fill="#9B5509" opacity="1.0" points="887.0,299.0 887.0,301.0 848.0,301.0 848.0,299.0" stroke="#000" stroke-width="1" /><polygon fill="#9B5509" opacity="1.0" points="887.0,289.0 887.0,292.0 848.0,292.0 848.0,289.0" stroke="#000" stroke-width="1" /><polygon fill="#9B5509" opacity="1.0" points="887.0,281.0 887.0,283.0 848.0,283.0 848.0,281.0" stroke="#000" stroke-width="1" /><polyline fill="none" opacity="1.0" points="893.0,298.0 890.0,284.0" stroke="#F00" stroke-width="1" /><polyline fill="none" opacity="1.0" points="893.0,284.0 890.0,298.0" stroke="#F00" stroke-width="1" /><polyline fill="none" opacity="1.0" points="845.0,298.0 842.0,284.0" stroke="#F00" stroke-width="1" /><polyline fill="none" opacity="1.0" points="845.0,284.0 842.0,298.0" stroke="#F00" stroke-width="1" /><polyline fill="none" opacity="1.0" points="745.0,317.0 756.0,317.0 756.0,348.0 745.0,348.0" stroke="#000" stroke-width="1" /><polyline fill="none" opacity="1.0" points="745.0,402.0 729.0,402.0" stroke="#000" stroke-width="0.5" /><polyline fill="none" opacity="1.0" points="712.0,352.0 703.0,312.0" stroke="#000" stroke-width="0.5" /><text fill="#000" font-family="Arial" font-size="10" font-weight="normal" opacity="1.0" transform="rotate(90.0 757.0,320.0) translate(0 10)" x="757.0" y="320.0">кассы</text><polygon fill="none" opacity="1.0" points="720.0,397.0 727.0,395.0 729.0,402.0 722.0,404.0" stroke="#000" stroke-width="1" /><polyline fill="none" opacity="1.0" points="710.0,354.0 715.0,353.0" stroke="#090" stroke-width="1" /><polyline fill="none" opacity="1.0" points="710.9701,357.8806 715.9701,356.8806" stroke="#090" stroke-width="1" /><polyline fill="none" opacity="1.0" points="711.9403,361.7611 716.9403,360.7611" stroke="#090" stroke-width="1" /><polyline fill="none" opacity="1.0" points="712.9104,365.6417 717.9104,364.6417" stroke="#090" stroke-width="1" /><polyline fill="none" opacity="1.0" points="713.8806,369.5223 718.8806,368.5223" stroke="#090" stroke-width="1" /><polyline fill="none" opacity="1.0" points="714.8507,373.4029 719.8507,372.4029" stroke="#090" stroke-width="1" /><polyline fill="none" opacity="1.0" points="715.8209,377.2834 720.8209,376.2834" stroke="#090" stroke-width="1" /><polyline fill="none" opacity="1.0" points="716.791,381.164 721.791,380.164" stroke="#090" stroke-width="1" /><polyline fill="none" opacity="1.0" points="717.7611,385.0446 722.7611,384.0446" stroke="#090" stroke-width="1" /><polyline fill="none" opacity="1.0" points="718.7313,388.9251 723.7313,387.9251" stroke="#090" stroke-width="1" /><polyline fill="none" opacity="1.0" points="719.7014,392.8057 724.7014,391.8057" stroke="#090" stroke-width="1" /><polyline fill="none" opacity="1.0" points="723.0,407.0 728.0,407.0" stroke="#F00" stroke-width="1" /><polyline fill="none" opacity="1.0" points="723.0,411.0 728.0,411.0" stroke="#F00" stroke-width="1" /><polyline fill="none" opacity="1.0" points="723.0,415.0 728.0,415.0" stroke="#F00" stroke-width="1" /><polyline fill="none" opacity="1.0" points="723.0,419.0 728.0,419.0" stroke="#F00" stroke-width="1" /><polyline fill="none" opacity="1.0" points="723.0,423.0 728.0,423.0" stroke="#F00" stroke-width="1" /><polyline fill="none" opacity="1.0" points="723.0,427.0 728.0,427.0" stroke="#F00" stroke-width="1" /><polyline fill="none" opacity="1.0" points="723.0,431.0 728.0,431.0" stroke="#F00" stroke-width="1" /><polyline fill="none" opacity="1.0" points="723.0,435.0 728.0,435.0" stroke="#F00" stroke-width="1" /><polyline fill="none" opacity="1.0" points="723.0,439.0 728.0,439.0" stroke="#F00" stroke-width="1" /><polyline fill="none" opacity="1.0" points="723.0,443.0 728.0,443.0" stroke="#F00" stroke-width="1" /><polyline fill="none" opacity="1.0" points="723.0,447.0 728.0,447.0" stroke="#F00" stroke-width="1" /><polyline fill="none" opacity="1.0" points="142.0,385.0 162.0,385.0" stroke="#090" stroke-width="1" /><polygon fill="#090" opacity="1.0" points="156.2044,386.5529 162.0,385.0 156.2044,383.4471" stroke="#090" stroke-width="1" /><polyline fill="none" opacity="1.0" points="761.0,382.0 742.0,382.0" stroke="#090" stroke-width="1" /><polygon fill="#090" opacity="1.0" points="747.5058,380.5247 742.0,382.0 747.5058,383.4753" stroke="#090" stroke-width="1" /><polyline fill="none" opacity="1.0" points="162.0,333.0 142.0,333.0" stroke="#F00" stroke-width="1" /><polygon fill="#F00" opacity="1.0" points="147.7956,331.4471 142.0,333.0 147.7956,334.5529" stroke="#F00" stroke-width="1" /><polyline fill="none" opacity="1.0" points="742.0,432.0 761.0,432.0" stroke="#F00" stroke-width="1" /><polygon fill="#F00" opacity="1.0" points="755.4942,433.4753 761.0,432.0 755.4942,430.5247" stroke="#F00" stroke-width="1" /><text fill="#00AFAF" font-family="Arial" font-size="15" font-weight="normal" opacity="1.0" transform="rotate(-0.0 554.0,543.0) translate(0 15)" x="554.0" y="543.0">проспект Академика Палладина</text><text fill="#00AFAF" font-family="Arial" font-size="15" font-weight="normal" opacity="1.0" transform="rotate(-2.0 119.0,553.0) translate(0 15)" x="119.0" y="553.0">проспект Академика Палладина</text><text fill="#00AFAF" font-family="Arial" font-size="15" font-weight="normal" opacity="1.0" transform="rotate(85.0 545.0,640.0) translate(0 15)" x="545.0" y="640.0">&lt;&lt; бульвар Академика Вернадского</text><text fill="#00AFAF" font-family="Arial" font-size="15" font-weight="normal" opacity="1.0" transform="rotate(85.0 399.0,655.0) translate(0 15)" x="399.0" y="655.0">бульвар Академика Вернадского &gt;&gt;</text><text fill="#00AFAF" font-family="Arial" font-size="15" font-weight="normal" opacity="1.0" transform="rotate(83.0 481.0,27.0) translate(0 15)" x="481.0" y="27.0">&lt;&lt; улица Командарма Уборевича</text><text fill="#00AFAF" font-family="Arial" font-size="15" font-weight="normal" opacity="1.0" transform="rotate(89.0 388.0,23.0) translate(0 15)" x="388.0" y="23.0">улица Командарма Уборевича &gt;&gt;</text></g></g></svg>