<?xml version="1.0" encoding="utf-8" ?>
<svg baseProfile="tiny" height="870px" version="1.2" width="1130px" xmlns="http://www.w3.org/2000/svg" xmlns:ev="http://www.w3.org/2001/xml-events" xmlns:xlink="http://www.w3.org/1999/xlink"><defs /><g><g transform="rotate(-35.0,565.0,435.0)"><polygon fill="#393" opacity="100" points="391.0,552.0 391.0,582.0 841.0,582.0 841.0,552.0" stroke="#000" stroke-width="1" /><polygon fill="#393" opacity="100" points="391.0,472.0 391.0,442.0 841.0,442.0 841.0,472.0" stroke="#000" stroke-width="1" /><text fill="#393" font-family="Arial" font-size="20" font-weight="normal" opacity="100" transform="rotate(-0.0 393.0,418.0) translate(0 20)" x="393.0" y="418.0">&lt;&lt; Вырлица</text><text fill="#393" font-family="Arial" font-size="20" font-weight="normal" opacity="100" transform="rotate(-0.0 687.0,582.0) translate(0 20)" x="687.0" y="582.0">Красный хутор &gt;&gt;</text><text fill="#393" font-family="Arial" font-size="25" font-weight="bold" opacity="100" transform="rotate(-0.0 534.0,493.0) translate(0 25)" x="534.0" y="493.0">Бориспольская</text><polyline fill="none" opacity="100" points="237.0,256.0 198.0,217.0 198.0,445.0 278.0,445.0 278.0,493.0 332.0,493.0 332.0,487.0 391.0,487.0 391.0,472.0" stroke="#000" stroke-width="1" /><polyline fill="none" opacity="100" points="150.0,139.0 252.0,241.0" stroke="#000" stroke-width="1" /><polyline fill="none" opacity="100" points="391.0,552.0 391.0,537.0 333.0,537.0 333.0,531.0 278.0,531.0 278.0,580.0 176.0,580.0 176.0,195.0 135.0,154.0" stroke="#000" stroke-width="1" /><polyline fill="none" opacity="100" points="340.0,505.0 391.0,505.0" stroke="#000" stroke-width="1" /><polyline fill="none" opacity="100" points="340.0,520.0 391.0,520.0" stroke="#000" stroke-width="1" /><polyline fill="none" opacity="100" points="343.0,487.0 343.0,505.0" stroke="#000" stroke-width="1" /><polyline fill="none" opacity="100" points="347.0,487.0 347.0,505.0" stroke="#000" stroke-width="1" /><polyline fill="none" opacity="100" points="351.0,487.0 351.0,505.0" stroke="#000" stroke-width="1" /><polyline fill="none" opacity="100" points="355.0,487.0 355.0,505.0" stroke="#000" stroke-width="1" /><polyline fill="none" opacity="100" points="359.0,487.0 359.0,505.0" stroke="#000" stroke-width="1" /><polyline fill="none" opacity="100" points="363.0,487.0 363.0,505.0" stroke="#000" stroke-width="1" /><polyline fill="none" opacity="100" points="367.0,487.0 367.0,505.0" stroke="#000" stroke-width="1" /><polyline fill="none" opacity="100" points="371.0,487.0 371.0,505.0" stroke="#000" stroke-width="1" /><polyline fill="none" opacity="100" points="375.0,487.0 375.0,505.0" stroke="#000" stroke-width="1" /><polyline fill="none" opacity="100" points="379.0,487.0 379.0,505.0" stroke="#000" stroke-width="1" /><polyline fill="none" opacity="100" points="383.0,487.0 383.0,505.0" stroke="#000" stroke-width="1" /><polyline fill="none" opacity="100" points="387.0,487.0 387.0,505.0" stroke="#000" stroke-width="1" /><polyline fill="none" opacity="100" points="343.0,537.0 343.0,520.0" stroke="#000" stroke-width="1" /><polyline fill="none" opacity="100" points="347.0,537.0 347.0,520.0" stroke="#000" stroke-width="1" /><polyline fill="none" opacity="100" points="351.0,537.0 351.0,520.0" stroke="#000" stroke-width="1" /><polyline fill="none" opacity="100" points="355.0,537.0 355.0,520.0" stroke="#000" stroke-width="1" /><polyline fill="none" opacity="100" points="359.0,537.0 359.0,520.0" stroke="#000" stroke-width="1" /><polyline fill="none" opacity="100" points="363.0,537.0 363.0,520.0" stroke="#000" stroke-width="1" /><polyline fill="none" opacity="100" points="367.0,537.0 367.0,520.0" stroke="#000" stroke-width="1" /><polyline fill="none" opacity="100" points="371.0,537.0 371.0,520.0" stroke="#000" stroke-width="1" /><polyline fill="none" opacity="100" points="375.0,537.0 375.0,520.0" stroke="#000" stroke-width="1" /><polyline fill="none" opacity="100" points="379.0,537.0 379.0,520.0" stroke="#000" stroke-width="1" /><polyline fill="none" opacity="100" points="383.0,537.0 383.0,520.0" stroke="#000" stroke-width="1" /><polyline fill="none" opacity="100" points="387.0,537.0 387.0,520.0" stroke="#000" stroke-width="1" /><polyline fill="none" opacity="100" points="251.0,240.0 236.0,255.0" stroke="#000" stroke-width="1" /><polyline fill="none" opacity="100" points="248.1716,237.1716 233.1716,252.1716" stroke="#000" stroke-width="1" /><polyline fill="none" opacity="100" points="245.3431,234.3431 230.3431,249.3431" stroke="#000" stroke-width="1" /><polyline fill="none" opacity="100" points="242.5147,231.5147 227.5147,246.5147" stroke="#000" stroke-width="1" /><polyline fill="none" opacity="100" points="239.6863,228.6863 224.6863,243.6863" stroke="#000" stroke-width="1" /><polyline fill="none" opacity="100" points="236.8579,225.8579 221.8579,240.8579" stroke="#000" stroke-width="1" /><polyline fill="none" opacity="100" points="234.0294,223.0294 219.0294,238.0294" stroke="#000" stroke-width="1" /><polyline fill="none" opacity="100" points="231.201,220.201 216.201,235.201" stroke="#000" stroke-width="1" /><polyline fill="none" opacity="100" points="228.3726,217.3726 213.3726,232.3726" stroke="#000" stroke-width="1" /><polyline fill="none" opacity="100" points="225.5442,214.5442 210.5442,229.5442" stroke="#000" stroke-width="1" /><polyline fill="none" opacity="100" points="222.7157,211.7157 207.7157,226.7157" stroke="#000" stroke-width="1" /><polyline fill="none" opacity="100" points="219.8873,208.8873 204.8873,223.8873" stroke="#000" stroke-width="1" /><polyline fill="none" opacity="100" points="151.0,140.0 136.0,155.0" stroke="#000" stroke-width="1" /><polyline fill="none" opacity="100" points="153.8284,142.8284 138.8284,157.8284" stroke="#000" stroke-width="1" /><polyline fill="none" opacity="100" points="156.6569,145.6569 141.6569,160.6569" stroke="#000" stroke-width="1" /><polyline fill="none" opacity="100" points="159.4853,148.4853 144.4853,163.4853" stroke="#000" stroke-width="1" /><polyline fill="none" opacity="100" points="162.3137,151.3137 147.3137,166.3137" stroke="#000" stroke-width="1" /><polyline fill="none" opacity="100" points="165.1421,154.1421 150.1421,169.1421" stroke="#000" stroke-width="1" /><polyline fill="none" opacity="100" points="167.9706,156.9706 152.9706,171.9706" stroke="#000" stroke-width="1" /><polyline fill="none" opacity="100" points="170.799,159.799 155.799,174.799" stroke="#000" stroke-width="1" /><polyline fill="none" opacity="100" points="173.6274,162.6274 158.6274,177.6274" stroke="#000" stroke-width="1" /><polyline fill="none" opacity="100" points="176.4558,165.4558 161.4558,180.4558" stroke="#000" stroke-width="1" /><polyline fill="none" opacity="100" points="179.2843,168.2843 164.2843,183.2843" stroke="#000" stroke-width="1" /><polyline fill="none" opacity="100" points="182.1127,171.1127 167.1127,186.1127" stroke="#000" stroke-width="1" /><polygon fill="#D0D0D0" opacity="100" points="205.0,498.0 198.0,498.0 198.0,526.0 205.0,526.0" stroke="#000" stroke-width="1" /><polygon fill="#D0EFFF" opacity="100" points="358.0,505.0 373.0,505.0 373.0,520.0 358.0,520.0" stroke="#000" stroke-width="1" /><text fill="#000" font-family="Arial" font-size="6" font-weight="normal" opacity="100" transform="rotate(-270.0 370.0,506.0) translate(0 6)" x="370.0" y="506.0">лифт</text><polyline fill="none" opacity="100" points="278.0,448.0 286.0,448.0 286.0,474.0 278.0,474.0" stroke="#000" stroke-width="1" /><text fill="#FFF" font-family="Arial" font-size="10" font-weight="normal" opacity="100" transform="rotate(90.0 289.0,449.0) translate(0 10)" x="289.0" y="449.0">кассы</text><polygon fill="none" opacity="100" points="236.0,510.0 232.0,508.0 230.0,512.0 234.0,514.0" stroke="#000" stroke-width="1" /><polyline fill="none" opacity="100" points="231.0,513.0 229.0,516.0 229.0,530.0" stroke="#000" stroke-width="0.5" /><polyline fill="none" opacity="100" points="266.0,476.0 276.0,476.0" stroke="#000" stroke-width="0.5" /><polyline fill="none" opacity="100" points="238.0,507.0 235.0,505.0" stroke="#090" stroke-width="1" /><polyline fill="none" opacity="100" points="240.6861,504.0361 237.6861,502.0361" stroke="#090" stroke-width="1" /><polyline fill="none" opacity="100" points="243.3722,501.0721 240.3722,499.0721" stroke="#090" stroke-width="1" /><polyline fill="none" opacity="100" points="246.0582,498.1082 243.0582,496.1082" stroke="#090" stroke-width="1" /><polyline fill="none" opacity="100" points="248.7443,495.1442 245.7443,493.1442" stroke="#090" stroke-width="1" /><polyline fill="none" opacity="100" points="251.4304,492.1803 248.4304,490.1803" stroke="#090" stroke-width="1" /><polyline fill="none" opacity="100" points="254.1165,489.2163 251.1165,487.2163" stroke="#090" stroke-width="1" /><polyline fill="none" opacity="100" points="256.8025,486.2524 253.8025,484.2524" stroke="#090" stroke-width="1" /><polyline fill="none" opacity="100" points="259.4886,483.2884 256.4886,481.2884" stroke="#090" stroke-width="1" /><polyline fill="none" opacity="100" points="262.1747,480.3245 259.1747,478.3245" stroke="#090" stroke-width="1" /><polyline fill="none" opacity="100" points="264.8608,477.3605 261.8608,475.3605" stroke="#090" stroke-width="1" /><polyline fill="none" opacity="100" points="227.0,576.0 231.0,576.0" stroke="#F00" stroke-width="1" /><polyline fill="none" opacity="100" points="227.0,572.0 231.0,572.0" stroke="#F00" stroke-width="1" /><polyline fill="none" opacity="100" points="227.0,568.0 231.0,568.0" stroke="#F00" stroke-width="1" /><polyline fill="none" opacity="100" points="227.0,564.0 231.0,564.0" stroke="#F00" stroke-width="1" /><polyline fill="none" opacity="100" points="227.0,560.0 231.0,560.0" stroke="#F00" stroke-width="1" /><polyline fill="none" opacity="100" points="227.0,556.0 231.0,556.0" stroke="#F00" stroke-width="1" /><polyline fill="none" opacity="100" points="227.0,552.0 231.0,552.0" stroke="#F00" stroke-width="1" /><polyline fill="none" opacity="100" points="227.0,548.0 231.0,548.0" stroke="#F00" stroke-width="1" /><polyline fill="none" opacity="100" points="227.0,544.0 231.0,544.0" stroke="#F00" stroke-width="1" /><polyline fill="none" opacity="100" points="227.0,540.0 231.0,540.0" stroke="#F00" stroke-width="1" /><polyline fill="none" opacity="100" points="227.0,536.0 231.0,536.0" stroke="#F00" stroke-width="1" /><polyline fill="none" opacity="100" points="227.0,532.0 231.0,532.0" stroke="#F00" stroke-width="1" /><polyline fill="none" opacity="100" points="209.0,551.0 195.0,551.0" stroke="#F00" stroke-width="1" /><polygon fill="#F00" opacity="100" points="199.0569,549.913 195.0,551.0 199.0569,552.087" stroke="#F00" stroke-width="1" /><polyline fill="none" opacity="100" points="197.0,471.0 211.0,471.0" stroke="#090" stroke-width="1" /><polygon fill="#090" opacity="100" points="206.9431,472.087 211.0,471.0 206.9431,469.913" stroke="#090" stroke-width="1" /><polyline fill="none" opacity="100" points="889.0,487.0 889.0,505.0" stroke="#000" stroke-width="1" /><polyline fill="none" opacity="100" points="885.0,487.0 885.0,505.0" stroke="#000" stroke-width="1" /><polyline fill="none" opacity="100" points="881.0,487.0 881.0,505.0" stroke="#000" stroke-width="1" /><polyline fill="none" opacity="100" points="877.0,487.0 877.0,505.0" stroke="#000" stroke-width="1" /><polyline fill="none" opacity="100" points="873.0,487.0 873.0,505.0" stroke="#000" stroke-width="1" /><polyline fill="none" opacity="100" points="869.0,487.0 869.0,505.0" stroke="#000" stroke-width="1" /><polyline fill="none" opacity="100" points="865.0,487.0 865.0,505.0" stroke="#000" stroke-width="1" /><polyline fill="none" opacity="100" points="861.0,487.0 861.0,505.0" stroke="#000" stroke-width="1" /><polyline fill="none" opacity="100" points="857.0,487.0 857.0,505.0" stroke="#000" stroke-width="1" /><polyline fill="none" opacity="100" points="853.0,487.0 853.0,505.0" stroke="#000" stroke-width="1" /><polyline fill="none" opacity="100" points="849.0,487.0 849.0,505.0" stroke="#000" stroke-width="1" /><polyline fill="none" opacity="100" points="845.0,487.0 845.0,505.0" stroke="#000" stroke-width="1" /><polyline fill="none" opacity="100" points="889.0,537.0 889.0,520.0" stroke="#000" stroke-width="1" /><polyline fill="none" opacity="100" points="885.0,537.0 885.0,520.0" stroke="#000" stroke-width="1" /><polyline fill="none" opacity="100" points="881.0,537.0 881.0,520.0" stroke="#000" stroke-width="1" /><polyline fill="none" opacity="100" points="877.0,537.0 877.0,520.0" stroke="#000" stroke-width="1" /><polyline fill="none" opacity="100" points="873.0,537.0 873.0,520.0" stroke="#000" stroke-width="1" /><polyline fill="none" opacity="100" points="869.0,537.0 869.0,520.0" stroke="#000" stroke-width="1" /><polyline fill="none" opacity="100" points="865.0,537.0 865.0,520.0" stroke="#000" stroke-width="1" /><polyline fill="none" opacity="100" points="861.0,537.0 861.0,520.0" stroke="#000" stroke-width="1" /><polyline fill="none" opacity="100" points="857.0,537.0 857.0,520.0" stroke="#000" stroke-width="1" /><polyline fill="none" opacity="100" points="853.0,537.0 853.0,520.0" stroke="#000" stroke-width="1" /><polyline fill="none" opacity="100" points="849.0,537.0 849.0,520.0" stroke="#000" stroke-width="1" /><polyline fill="none" opacity="100" points="845.0,537.0 845.0,520.0" stroke="#000" stroke-width="1" /><polyline fill="none" opacity="100" points="841.0,505.0 891.0,505.0" stroke="#000" stroke-width="1" /><polyline fill="none" opacity="100" points="841.0,520.0 891.0,520.0" stroke="#000" stroke-width="1" /><polyline fill="none" opacity="100" points="1010.0,314.0 1010.0,365.0 971.0,365.0 971.0,445.0 891.0,445.0 891.0,487.0 841.0,487.0 841.0,472.0" stroke="#000" stroke-width="1" /><polyline fill="none" opacity="100" points="841.0,552.0 841.0,537.0 891.0,537.0 891.0,579.0 971.0,579.0 971.0,595.0 856.0,595.0" stroke="#000" stroke-width="1" /><polyline fill="none" opacity="100" points="856.0,616.0 998.0,616.0 998.0,386.0 1153.0,386.0" stroke="#000" stroke-width="1" /><polyline fill="none" opacity="100" points="1153.0,365.0 1031.0,365.0 1031.0,314.0" stroke="#000" stroke-width="1" /><polyline fill="none" opacity="100" points="1031.0,316.0 1010.0,316.0" stroke="#000" stroke-width="1" /><polyline fill="none" opacity="100" points="1031.0,320.0 1010.0,320.0" stroke="#000" stroke-width="1" /><polyline fill="none" opacity="100" points="1031.0,324.0 1010.0,324.0" stroke="#000" stroke-width="1" /><polyline fill="none" opacity="100" points="1031.0,328.0 1010.0,328.0" stroke="#000" stroke-width="1" /><polyline fill="none" opacity="100" points="1031.0,332.0 1010.0,332.0" stroke="#000" stroke-width="1" /><polyline fill="none" opacity="100" points="1031.0,336.0 1010.0,336.0" stroke="#000" stroke-width="1" /><polyline fill="none" opacity="100" points="1031.0,340.0 1010.0,340.0" stroke="#000" stroke-width="1" /><polyline fill="none" opacity="100" points="1031.0,344.0 1010.0,344.0" stroke="#000" stroke-width="1" /><polyline fill="none" opacity="100" points="1031.0,348.0 1010.0,348.0" stroke="#000" stroke-width="1" /><polyline fill="none" opacity="100" points="1031.0,352.0 1010.0,352.0" stroke="#000" stroke-width="1" /><polyline fill="none" opacity="100" points="1031.0,356.0 1010.0,356.0" stroke="#000" stroke-width="1" /><polyline fill="none" opacity="100" points="1031.0,360.0 1010.0,360.0" stroke="#000" stroke-width="1" /><polyline fill="none" opacity="100" points="1151.0,386.0 1151.0,365.0" stroke="#000" stroke-width="1" /><polyline fill="none" opacity="100" points="1147.0,386.0 1147.0,365.0" stroke="#000" stroke-width="1" /><polyline fill="none" opacity="100" points="1143.0,386.0 1143.0,365.0" stroke="#000" stroke-width="1" /><polyline fill="none" opacity="100" points="1139.0,386.0 1139.0,365.0" stroke="#000" stroke-width="1" /><polyline fill="none" opacity="100" points="1135.0,386.0 1135.0,365.0" stroke="#000" stroke-width="1" /><polyline fill="none" opacity="100" points="1131.0,386.0 1131.0,365.0" stroke="#000" stroke-width="1" /><polyline fill="none" opacity="100" points="1127.0,386.0 1127.0,365.0" stroke="#000" stroke-width="1" /><polyline fill="none" opacity="100" points="1123.0,386.0 1123.0,365.0" stroke="#000" stroke-width="1" /><polyline fill="none" opacity="100" points="1119.0,386.0 1119.0,365.0" stroke="#000" stroke-width="1" /><polyline fill="none" opacity="100" points="1115.0,386.0 1115.0,365.0" stroke="#000" stroke-width="1" /><polyline fill="none" opacity="100" points="1111.0,386.0 1111.0,365.0" stroke="#000" stroke-width="1" /><polyline fill="none" opacity="100" points="1107.0,386.0 1107.0,365.0" stroke="#000" stroke-width="1" /><polyline fill="none" opacity="100" points="858.0,595.0 858.0,616.0" stroke="#000" stroke-width="1" /><polyline fill="none" opacity="100" points="862.0,595.0 862.0,616.0" stroke="#000" stroke-width="1" /><polyline fill="none" opacity="100" points="866.0,595.0 866.0,616.0" stroke="#000" stroke-width="1" /><polyline fill="none" opacity="100" points="870.0,595.0 870.0,616.0" stroke="#000" stroke-width="1" /><polyline fill="none" opacity="100" points="874.0,595.0 874.0,616.0" stroke="#000" stroke-width="1" /><polyline fill="none" opacity="100" points="878.0,595.0 878.0,616.0" stroke="#000" stroke-width="1" /><polyline fill="none" opacity="100" points="882.0,595.0 882.0,616.0" stroke="#000" stroke-width="1" /><polyline fill="none" opacity="100" points="886.0,595.0 886.0,616.0" stroke="#000" stroke-width="1" /><polyline fill="none" opacity="100" points="890.0,595.0 890.0,616.0" stroke="#000" stroke-width="1" /><polyline fill="none" opacity="100" points="894.0,595.0 894.0,616.0" stroke="#000" stroke-width="1" /><polyline fill="none" opacity="100" points="898.0,595.0 898.0,616.0" stroke="#000" stroke-width="1" /><polyline fill="none" opacity="100" points="902.0,595.0 902.0,616.0" stroke="#000" stroke-width="1" /><polygon fill="#D0D0D0" opacity="100" points="964.0,498.0 971.0,498.0 971.0,526.0 964.0,526.0" stroke="#000" stroke-width="1" /><polygon fill="#D0EFFF" opacity="100" points="859.0,505.0 874.0,505.0 874.0,520.0 859.0,520.0" stroke="#000" stroke-width="1" /><text fill="#000" font-family="Arial" font-size="6" font-weight="normal" opacity="100" transform="rotate(-270.0 871.0,506.0) translate(0 6)" x="871.0" y="506.0">лифт</text><polyline fill="none" opacity="100" points="891.0,448.0 883.0,448.0 883.0,474.0 891.0,474.0" stroke="#000" stroke-width="1" /><text fill="#FFF" font-family="Arial" font-size="10" font-weight="normal" opacity="100" transform="rotate(90.0 894.0,449.0) translate(0 10)" x="894.0" y="449.0">кассы</text><polygon fill="none" opacity="100" points="933.0,509.0 937.0,507.0 939.0,511.0 935.0,513.0" stroke="#000" stroke-width="1" /><polyline fill="none" opacity="100" points="938.0,513.0 940.0,516.0 940.0,529.0" stroke="#000" stroke-width="0.5" /><polyline fill="none" opacity="100" points="903.0,476.0 893.0,476.0" stroke="#000" stroke-width="0.5" /><polyline fill="none" opacity="100" points="931.0,506.0 934.0,504.0" stroke="#090" stroke-width="1" /><polyline fill="none" opacity="100" points="928.366,502.9897 931.366,500.9897" stroke="#090" stroke-width="1" /><polyline fill="none" opacity="100" points="925.732,499.9794 928.732,497.9794" stroke="#090" stroke-width="1" /><polyline fill="none" opacity="100" points="923.0979,496.9691 926.0979,494.9691" stroke="#090" stroke-width="1" /><polyline fill="none" opacity="100" points="920.4639,493.9588 923.4639,491.9588" stroke="#090" stroke-width="1" /><polyline fill="none" opacity="100" points="917.8299,490.9485 920.8299,488.9485" stroke="#090" stroke-width="1" /><polyline fill="none" opacity="100" points="915.1959,487.9382 918.1959,485.9382" stroke="#090" stroke-width="1" /><polyline fill="none" opacity="100" points="912.5619,484.9279 915.5619,482.9279" stroke="#090" stroke-width="1" /><polyline fill="none" opacity="100" points="909.9279,481.9175 912.9279,479.9175" stroke="#090" stroke-width="1" /><polyline fill="none" opacity="100" points="907.2938,478.9072 910.2938,476.9072" stroke="#090" stroke-width="1" /><polyline fill="none" opacity="100" points="904.6598,475.8969 907.6598,473.8969" stroke="#090" stroke-width="1" /><polyline fill="none" opacity="100" points="942.0,575.0 938.0,575.0" stroke="#F00" stroke-width="1" /><polyline fill="none" opacity="100" points="942.0,571.0 938.0,571.0" stroke="#F00" stroke-width="1" /><polyline fill="none" opacity="100" points="942.0,567.0 938.0,567.0" stroke="#F00" stroke-width="1" /><polyline fill="none" opacity="100" points="942.0,563.0 938.0,563.0" stroke="#F00" stroke-width="1" /><polyline fill="none" opacity="100" points="942.0,559.0 938.0,559.0" stroke="#F00" stroke-width="1" /><polyline fill="none" opacity="100" points="942.0,555.0 938.0,555.0" stroke="#F00" stroke-width="1" /><polyline fill="none" opacity="100" points="942.0,551.0 938.0,551.0" stroke="#F00" stroke-width="1" /><polyline fill="none" opacity="100" points="942.0,547.0 938.0,547.0" stroke="#F00" stroke-width="1" /><polyline fill="none" opacity="100" points="942.0,543.0 938.0,543.0" stroke="#F00" stroke-width="1" /><polyline fill="none" opacity="100" points="942.0,539.0 938.0,539.0" stroke="#F00" stroke-width="1" /><polyline fill="none" opacity="100" points="942.0,535.0 938.0,535.0" stroke="#F00" stroke-width="1" /><polyline fill="none" opacity="100" points="942.0,531.0 938.0,531.0" stroke="#F00" stroke-width="1" /><polyline fill="none" opacity="100" points="960.0,551.0 974.0,551.0" stroke="#F00" stroke-width="1" /><polygon fill="#F00" opacity="100" points="969.9431,552.087 974.0,551.0 969.9431,549.913" stroke="#F00" stroke-width="1" /><polyline fill="none" opacity="100" points="972.0,471.0 958.0,471.0" stroke="#090" stroke-width="1" /><polygon fill="#090" opacity="100" points="962.0569,469.913 958.0,471.0 962.0569,472.087" stroke="#090" stroke-width="1" /><text fill="#00AFAF" font-family="Arial" font-size="15" font-weight="normal" opacity="100" transform="rotate(40.0 98.0,591.0) translate(0 15)" x="98.0" y="591.0">проспект Николая Бажана</text><text fill="#00AFAF" font-family="Arial" font-size="15" font-weight="normal" opacity="100" transform="rotate(75.0 95.0,137.0) translate(0 15)" x="95.0" y="137.0">Харьковское шоссе</text><text fill="#00AFAF" font-family="Arial" font-size="15" font-weight="normal" opacity="100" transform="rotate(90.0 959.0,186.0) translate(0 15)" x="959.0" y="186.0">Ташкентская улица</text><text fill="#00AFAF" font-family="Arial" font-size="15" font-weight="normal" opacity="100" transform="rotate(-0.0 1029.0,458.0) translate(0 15)" x="1029.0" y="458.0">Старобориспольская улица</text></g></g></svg>