<?xml version="1.0" encoding="utf-8" ?>
<svg baseProfile="tiny" height="730px" version="1.2" width="920px" xmlns="http://www.w3.org/2000/svg" xmlns:ev="http://www.w3.org/2001/xml-events" xmlns:xlink="http://www.w3.org/1999/xlink"><defs /><g><g transform="rotate(-20.0,460.0,365.0)"><polygon fill="#F5F5F5" opacity="100" points="34.0,192.0 14.0,246.0 993.0,246.0 1013.0,192.0" stroke="#F5F5F5" stroke-width="1" /><polygon fill="#C33" opacity="100" points="194.0,314.0 194.0,284.0 644.0,284.0 644.0,314.0" stroke="#000" stroke-width="1" /><polygon fill="#C33" opacity="100" points="194.0,394.0 194.0,424.0 644.0,424.0 644.0,394.0" stroke="#000" stroke-width="1" /><text fill="#C33" font-family="Arial" font-size="20" font-weight="normal" opacity="100" transform="rotate(-0.0 194.0,261.0) translate(0 20)" x="194.0" y="261.0">&lt;&lt; Левобережная</text><text fill="#C33" font-family="Arial" font-size="20" font-weight="normal" opacity="100" transform="rotate(-0.0 501.0,424.0) translate(0 20)" x="501.0" y="424.0">Черниговская &gt;&gt;</text><text fill="#C33" font-family="Arial" font-size="25" font-weight="bold" opacity="100" transform="rotate(-0.0 378.0,335.0) translate(0 25)" x="378.0" y="335.0">Дарница</text><polyline fill="none" opacity="100" points="194.0,314.0 194.0,324.0 189.0,324.0 189.0,284.0 22.0,284.0 22.0,574.0 26.0,574.0" stroke="#000" stroke-width="1" /><polyline fill="none" opacity="100" points="75.0,574.0 79.0,574.0 79.0,424.0 189.0,424.0 189.0,385.0 194.0,385.0 194.0,394.0" stroke="#000" stroke-width="1" /><polyline fill="none" opacity="100" points="22.0,487.0 55.0,487.0" stroke="#000" stroke-width="1" /><polyline fill="none" opacity="100" points="22.0,491.0 55.0,491.0" stroke="#000" stroke-width="1" /><polyline fill="none" opacity="100" points="22.0,495.0 55.0,495.0" stroke="#000" stroke-width="1" /><polyline fill="none" opacity="100" points="22.0,499.0 55.0,499.0" stroke="#000" stroke-width="1" /><polyline fill="none" opacity="100" points="22.0,503.0 55.0,503.0" stroke="#000" stroke-width="1" /><polyline fill="none" opacity="100" points="22.0,507.0 55.0,507.0" stroke="#000" stroke-width="1" /><polyline fill="none" opacity="100" points="22.0,511.0 55.0,511.0" stroke="#000" stroke-width="1" /><polyline fill="none" opacity="100" points="22.0,515.0 55.0,515.0" stroke="#000" stroke-width="1" /><polyline fill="none" opacity="100" points="22.0,519.0 55.0,519.0" stroke="#000" stroke-width="1" /><polyline fill="none" opacity="100" points="22.0,523.0 55.0,523.0" stroke="#000" stroke-width="1" /><polygon fill="#D0D0D0" opacity="100" points="48.0,555.0 53.0,555.0 53.0,574.0 48.0,574.0" stroke="#000" stroke-width="1" /><polyline fill="none" opacity="100" points="74.0,489.0 58.0,489.0" stroke="#7F7F7F" stroke-width="1" /><polyline fill="none" opacity="100" points="74.0,493.0 58.0,493.0" stroke="#7F7F7F" stroke-width="1" /><polyline fill="none" opacity="100" points="74.0,497.0 58.0,497.0" stroke="#7F7F7F" stroke-width="1" /><polyline fill="none" opacity="100" points="74.0,501.0 58.0,501.0" stroke="#7F7F7F" stroke-width="1" /><polyline fill="none" opacity="100" points="74.0,505.0 58.0,505.0" stroke="#7F7F7F" stroke-width="1" /><polyline fill="none" opacity="100" points="74.0,509.0 58.0,509.0" stroke="#7F7F7F" stroke-width="1" /><polyline fill="none" opacity="100" points="74.0,513.0 58.0,513.0" stroke="#7F7F7F" stroke-width="1" /><polyline fill="none" opacity="100" points="74.0,517.0 58.0,517.0" stroke="#7F7F7F" stroke-width="1" /><polyline fill="none" opacity="100" points="74.0,521.0 58.0,521.0" stroke="#7F7F7F" stroke-width="1" /><polygon fill="#9B5509" opacity="100" points="58.0,482.0 58.0,527.0 55.0,527.0 55.0,482.0" stroke="#000" stroke-width="1" /><polygon fill="#9B5509" opacity="100" points="64.0,482.0 68.0,482.0 68.0,527.0 64.0,527.0" stroke="#000" stroke-width="1" /><polygon fill="#9B5509" opacity="100" points="74.0,482.0 74.0,527.0 77.0,527.0 77.0,482.0" stroke="#000" stroke-width="1" /><polygon fill="#FFF" opacity="100" points="88.0,424.0 88.0,432.0 114.0,432.0 114.0,424.0" stroke="#000" stroke-width="1" /><text fill="#000" font-family="Arial" font-size="10" font-weight="normal" opacity="100" transform="rotate(-0.0 89.0,421.0) translate(0 10)" x="89.0" y="421.0">кассы</text><polygon fill="#FFF" opacity="100" points="126.0,369.0 132.0,369.0 132.0,375.0 126.0,375.0" stroke="#000" stroke-width="1" /><polyline fill="none" opacity="100" points="22.0,315.0 189.0,315.0" stroke="#000" stroke-width="1" /><polyline fill="none" opacity="100" points="127.0,379.0 131.0,379.0" stroke="#090" stroke-width="1" /><polyline fill="none" opacity="100" points="126.9111,382.999 130.9111,382.999" stroke="#090" stroke-width="1" /><polyline fill="none" opacity="100" points="126.8223,386.998 130.8223,386.998" stroke="#090" stroke-width="1" /><polyline fill="none" opacity="100" points="126.7334,390.997 130.7334,390.997" stroke="#090" stroke-width="1" /><polyline fill="none" opacity="100" points="126.6445,394.9961 130.6445,394.9961" stroke="#090" stroke-width="1" /><polyline fill="none" opacity="100" points="126.5557,398.9951 130.5557,398.9951" stroke="#090" stroke-width="1" /><polyline fill="none" opacity="100" points="126.4668,402.9941 130.4668,402.9941" stroke="#090" stroke-width="1" /><polyline fill="none" opacity="100" points="126.3779,406.9931 130.3779,406.9931" stroke="#090" stroke-width="1" /><polyline fill="none" opacity="100" points="126.2891,410.9921 130.2891,410.9921" stroke="#090" stroke-width="1" /><polyline fill="none" opacity="100" points="126.2002,414.9911 130.2002,414.9911" stroke="#090" stroke-width="1" /><polyline fill="none" opacity="100" points="126.1113,418.9901 130.1113,418.9901" stroke="#090" stroke-width="1" /><polyline fill="none" opacity="100" points="126.0225,422.9891 130.0225,422.9891" stroke="#090" stroke-width="1" /><polyline fill="none" opacity="100" points="127.0,317.0 131.0,317.0" stroke="#F00" stroke-width="1" /><polyline fill="none" opacity="100" points="127.0,321.0 131.0,321.0" stroke="#F00" stroke-width="1" /><polyline fill="none" opacity="100" points="127.0,325.0 131.0,325.0" stroke="#F00" stroke-width="1" /><polyline fill="none" opacity="100" points="127.0,329.0 131.0,329.0" stroke="#F00" stroke-width="1" /><polyline fill="none" opacity="100" points="127.0,333.0 131.0,333.0" stroke="#F00" stroke-width="1" /><polyline fill="none" opacity="100" points="127.0,337.0 131.0,337.0" stroke="#F00" stroke-width="1" /><polyline fill="none" opacity="100" points="127.0,341.0 131.0,341.0" stroke="#F00" stroke-width="1" /><polyline fill="none" opacity="100" points="127.0,345.0 131.0,345.0" stroke="#F00" stroke-width="1" /><polyline fill="none" opacity="100" points="127.0,349.0 131.0,349.0" stroke="#F00" stroke-width="1" /><polyline fill="none" opacity="100" points="127.0,353.0 131.0,353.0" stroke="#F00" stroke-width="1" /><polyline fill="none" opacity="100" points="127.0,357.0 131.0,357.0" stroke="#F00" stroke-width="1" /><polyline fill="none" opacity="100" points="127.0,361.0 131.0,361.0" stroke="#F00" stroke-width="1" /><polyline fill="none" opacity="100" points="127.0,365.0 131.0,365.0" stroke="#F00" stroke-width="1" /><polyline fill="none" opacity="100" points="38.0,455.0 38.0,468.0" stroke="#F00" stroke-width="1" /><polygon fill="#F00" opacity="100" points="36.9906,464.2329 38.0,468.0 39.0094,464.2329" stroke="#F00" stroke-width="1" /><polyline fill="none" opacity="100" points="66.0,554.0 66.0,541.0" stroke="#090" stroke-width="1" /><polygon fill="#090" opacity="100" points="67.0094,544.7671 66.0,541.0 64.9906,544.7671" stroke="#090" stroke-width="1" /><polyline fill="none" opacity="100" points="644.0,314.0 644.0,324.0 693.0,324.0 693.0,314.0 770.0,314.0 770.0,161.0 719.0,161.0" stroke="#000" stroke-width="1" /><polyline fill="none" opacity="100" points="719.0,141.0 847.0,141.0" stroke="#000" stroke-width="1" /><polyline fill="none" opacity="100" points="847.0,161.0 796.0,161.0 796.0,532.0 847.0,532.0" stroke="#000" stroke-width="1" /><polyline fill="none" opacity="100" points="719.0,552.0 847.0,552.0" stroke="#000" stroke-width="1" /><polyline fill="none" opacity="100" points="719.0,532.0 770.0,532.0 770.0,394.0 693.0,394.0 693.0,385.0 644.0,385.0 644.0,394.0" stroke="#000" stroke-width="1" /><polyline fill="none" opacity="100" points="691.0,324.0 691.0,385.0" stroke="#000" stroke-width="1" /><polyline fill="none" opacity="100" points="687.0,324.0 687.0,385.0" stroke="#000" stroke-width="1" /><polyline fill="none" opacity="100" points="683.0,324.0 683.0,385.0" stroke="#000" stroke-width="1" /><polyline fill="none" opacity="100" points="679.0,324.0 679.0,385.0" stroke="#000" stroke-width="1" /><polyline fill="none" opacity="100" points="675.0,324.0 675.0,385.0" stroke="#000" stroke-width="1" /><polyline fill="none" opacity="100" points="671.0,324.0 671.0,385.0" stroke="#000" stroke-width="1" /><polyline fill="none" opacity="100" points="667.0,324.0 667.0,385.0" stroke="#000" stroke-width="1" /><polyline fill="none" opacity="100" points="663.0,324.0 663.0,385.0" stroke="#000" stroke-width="1" /><polyline fill="none" opacity="100" points="659.0,324.0 659.0,385.0" stroke="#000" stroke-width="1" /><polyline fill="none" opacity="100" points="655.0,324.0 655.0,385.0" stroke="#000" stroke-width="1" /><polyline fill="none" opacity="100" points="651.0,324.0 651.0,385.0" stroke="#000" stroke-width="1" /><polyline fill="none" opacity="100" points="647.0,324.0 647.0,385.0" stroke="#000" stroke-width="1" /><polyline fill="none" opacity="100" points="722.0,161.0 722.0,141.0" stroke="#000" stroke-width="1" /><polyline fill="none" opacity="100" points="726.0,161.0 726.0,141.0" stroke="#000" stroke-width="1" /><polyline fill="none" opacity="100" points="730.0,161.0 730.0,141.0" stroke="#000" stroke-width="1" /><polyline fill="none" opacity="100" points="734.0,161.0 734.0,141.0" stroke="#000" stroke-width="1" /><polyline fill="none" opacity="100" points="738.0,161.0 738.0,141.0" stroke="#000" stroke-width="1" /><polyline fill="none" opacity="100" points="742.0,161.0 742.0,141.0" stroke="#000" stroke-width="1" /><polyline fill="none" opacity="100" points="746.0,161.0 746.0,141.0" stroke="#000" stroke-width="1" /><polyline fill="none" opacity="100" points="750.0,161.0 750.0,141.0" stroke="#000" stroke-width="1" /><polyline fill="none" opacity="100" points="754.0,161.0 754.0,141.0" stroke="#000" stroke-width="1" /><polyline fill="none" opacity="100" points="758.0,161.0 758.0,141.0" stroke="#000" stroke-width="1" /><polyline fill="none" opacity="100" points="762.0,161.0 762.0,141.0" stroke="#000" stroke-width="1" /><polyline fill="none" opacity="100" points="766.0,161.0 766.0,141.0" stroke="#000" stroke-width="1" /><polyline fill="none" opacity="100" points="844.0,161.0 844.0,141.0" stroke="#000" stroke-width="1" /><polyline fill="none" opacity="100" points="840.0,161.0 840.0,141.0" stroke="#000" stroke-width="1" /><polyline fill="none" opacity="100" points="836.0,161.0 836.0,141.0" stroke="#000" stroke-width="1" /><polyline fill="none" opacity="100" points="832.0,161.0 832.0,141.0" stroke="#000" stroke-width="1" /><polyline fill="none" opacity="100" points="828.0,161.0 828.0,141.0" stroke="#000" stroke-width="1" /><polyline fill="none" opacity="100" points="824.0,161.0 824.0,141.0" stroke="#000" stroke-width="1" /><polyline fill="none" opacity="100" points="820.0,161.0 820.0,141.0" stroke="#000" stroke-width="1" /><polyline fill="none" opacity="100" points="816.0,161.0 816.0,141.0" stroke="#000" stroke-width="1" /><polyline fill="none" opacity="100" points="812.0,161.0 812.0,141.0" stroke="#000" stroke-width="1" /><polyline fill="none" opacity="100" points="808.0,161.0 808.0,141.0" stroke="#000" stroke-width="1" /><polyline fill="none" opacity="100" points="804.0,161.0 804.0,141.0" stroke="#000" stroke-width="1" /><polyline fill="none" opacity="100" points="800.0,161.0 800.0,141.0" stroke="#000" stroke-width="1" /><polyline fill="none" opacity="100" points="722.0,532.0 722.0,552.0" stroke="#000" stroke-width="1" /><polyline fill="none" opacity="100" points="726.0,532.0 726.0,552.0" stroke="#000" stroke-width="1" /><polyline fill="none" opacity="100" points="730.0,532.0 730.0,552.0" stroke="#000" stroke-width="1" /><polyline fill="none" opacity="100" points="734.0,532.0 734.0,552.0" stroke="#000" stroke-width="1" /><polyline fill="none" opacity="100" points="738.0,532.0 738.0,552.0" stroke="#000" stroke-width="1" /><polyline fill="none" opacity="100" points="742.0,532.0 742.0,552.0" stroke="#000" stroke-width="1" /><polyline fill="none" opacity="100" points="746.0,532.0 746.0,552.0" stroke="#000" stroke-width="1" /><polyline fill="none" opacity="100" points="750.0,532.0 750.0,552.0" stroke="#000" stroke-width="1" /><polyline fill="none" opacity="100" points="754.0,532.0 754.0,552.0" stroke="#000" stroke-width="1" /><polyline fill="none" opacity="100" points="758.0,532.0 758.0,552.0" stroke="#000" stroke-width="1" /><polyline fill="none" opacity="100" points="762.0,532.0 762.0,552.0" stroke="#000" stroke-width="1" /><polyline fill="none" opacity="100" points="766.0,532.0 766.0,552.0" stroke="#000" stroke-width="1" /><polyline fill="none" opacity="100" points="844.0,532.0 844.0,552.0" stroke="#000" stroke-width="1" /><polyline fill="none" opacity="100" points="840.0,532.0 840.0,552.0" stroke="#000" stroke-width="1" /><polyline fill="none" opacity="100" points="836.0,532.0 836.0,552.0" stroke="#000" stroke-width="1" /><polyline fill="none" opacity="100" points="832.0,532.0 832.0,552.0" stroke="#000" stroke-width="1" /><polyline fill="none" opacity="100" points="828.0,532.0 828.0,552.0" stroke="#000" stroke-width="1" /><polyline fill="none" opacity="100" points="824.0,532.0 824.0,552.0" stroke="#000" stroke-width="1" /><polyline fill="none" opacity="100" points="820.0,532.0 820.0,552.0" stroke="#000" stroke-width="1" /><polyline fill="none" opacity="100" points="816.0,532.0 816.0,552.0" stroke="#000" stroke-width="1" /><polyline fill="none" opacity="100" points="812.0,532.0 812.0,552.0" stroke="#000" stroke-width="1" /><polyline fill="none" opacity="100" points="808.0,532.0 808.0,552.0" stroke="#000" stroke-width="1" /><polyline fill="none" opacity="100" points="804.0,532.0 804.0,552.0" stroke="#000" stroke-width="1" /><polyline fill="none" opacity="100" points="800.0,532.0 800.0,552.0" stroke="#000" stroke-width="1" /><polygon fill="#D0D0D0" opacity="100" points="754.0,351.0 754.0,357.0 770.0,357.0 770.0,351.0" stroke="#000" stroke-width="1" /><polygon fill="#FFF" opacity="100" points="720.0,314.0 720.0,322.0 746.0,322.0 746.0,314.0" stroke="#000" stroke-width="1" /><text fill="#000" font-family="Arial" font-size="10" font-weight="normal" opacity="100" transform="rotate(-0.0 721.0,311.0) translate(0 10)" x="721.0" y="311.0">кассы</text><polygon fill="#FFF" opacity="100" points="712.0,316.0 712.0,321.0 717.0,321.0 717.0,316.0" stroke="#000" stroke-width="1" /><polyline fill="none" opacity="100" points="705.0,320.0 709.0,320.0" stroke="#090" stroke-width="1" /><polyline fill="none" opacity="100" points="705.0,324.0 709.0,324.0" stroke="#090" stroke-width="1" /><polyline fill="none" opacity="100" points="705.0,328.0 709.0,328.0" stroke="#090" stroke-width="1" /><polyline fill="none" opacity="100" points="705.0,332.0 709.0,332.0" stroke="#090" stroke-width="1" /><polyline fill="none" opacity="100" points="705.0,336.0 709.0,336.0" stroke="#090" stroke-width="1" /><polyline fill="none" opacity="100" points="705.0,340.0 709.0,340.0" stroke="#090" stroke-width="1" /><polyline fill="none" opacity="100" points="705.0,344.0 709.0,344.0" stroke="#090" stroke-width="1" /><polyline fill="none" opacity="100" points="705.0,348.0 709.0,348.0" stroke="#090" stroke-width="1" /><polyline fill="none" opacity="100" points="705.0,352.0 709.0,352.0" stroke="#090" stroke-width="1" /><polyline fill="none" opacity="100" points="705.0,356.0 709.0,356.0" stroke="#F00" stroke-width="1" /><polyline fill="none" opacity="100" points="705.0,360.0 709.0,360.0" stroke="#F00" stroke-width="1" /><polyline fill="none" opacity="100" points="705.0,364.0 709.0,364.0" stroke="#F00" stroke-width="1" /><polyline fill="none" opacity="100" points="705.0,368.0 709.0,368.0" stroke="#F00" stroke-width="1" /><polyline fill="none" opacity="100" points="705.0,372.0 709.0,372.0" stroke="#F00" stroke-width="1" /><polyline fill="none" opacity="100" points="705.0,376.0 709.0,376.0" stroke="#F00" stroke-width="1" /><polyline fill="none" opacity="100" points="705.0,380.0 709.0,380.0" stroke="#F00" stroke-width="1" /><polyline fill="none" opacity="100" points="705.0,384.0 709.0,384.0" stroke="#F00" stroke-width="1" /><polyline fill="none" opacity="100" points="705.0,388.0 709.0,388.0" stroke="#F00" stroke-width="1" /><polyline fill="none" opacity="100" points="705.0,392.0 709.0,392.0" stroke="#F00" stroke-width="1" /><text fill="#00AFAF" font-family="Arial" font-size="15" font-weight="normal" opacity="100" transform="rotate(-0.0 394.0,206.0) translate(0 15)" x="394.0" y="206.0">Броварский проспект</text></g></g></svg>