<?xml version="1.0" encoding="utf-8" ?>
<svg baseProfile="tiny" height="900px" version="1.2" width="940px" xmlns="http://www.w3.org/2000/svg" xmlns:ev="http://www.w3.org/2001/xml-events" xmlns:xlink="http://www.w3.org/1999/xlink"><defs /><g><g transform="rotate(55.0,470.0,450.0)"><polygon fill="#393" opacity="100" points="570.0,379.0 570.0,409.0 1020.0,409.0 1020.0,379.0" stroke="#000" stroke-width="1" /><polygon fill="#393" opacity="100" points="570.0,309.0 570.0,279.0 1020.0,279.0 1020.0,309.0" stroke="#000" stroke-width="1" /><text fill="#393" font-family="Arial" font-size="25" font-weight="bold" opacity="100" transform="rotate(-0.0 661.0,326.0) translate(0 25)" x="661.0" y="326.0">Дружбы народов</text><text fill="#393" font-family="Arial" font-size="20" font-weight="normal" opacity="100" transform="rotate(-0.0 909.0,409.0) translate(0 20)" x="909.0" y="409.0">Выдубичи &gt;&gt;</text><text fill="#393" font-family="Arial" font-size="20" font-weight="normal" opacity="100" transform="rotate(-0.0 571.0,255.0) translate(0 20)" x="571.0" y="255.0">&lt;&lt; Печерская</text><polygon fill="#D0D0D0" opacity="100" points="594.0,369.0 594.0,358.0 601.0,358.0 601.0,369.0" stroke="#000" stroke-width="1" /><polygon fill="#D0D0D0" opacity="100" points="613.0,369.0 613.0,358.0 620.0,358.0 620.0,369.0" stroke="#000" stroke-width="1" /><polygon fill="#D0D0D0" opacity="100" points="632.0,369.0 632.0,358.0 639.0,358.0 639.0,369.0" stroke="#000" stroke-width="1" /><polygon fill="#D0D0D0" opacity="100" points="651.0,369.0 651.0,358.0 658.0,358.0 658.0,369.0" stroke="#000" stroke-width="1" /><polygon fill="#D0D0D0" opacity="100" points="670.0,369.0 670.0,358.0 677.0,358.0 677.0,369.0" stroke="#000" stroke-width="1" /><polygon fill="#D0D0D0" opacity="100" points="689.0,369.0 689.0,358.0 696.0,358.0 696.0,369.0" stroke="#000" stroke-width="1" /><polygon fill="#D0D0D0" opacity="100" points="708.0,369.0 708.0,358.0 715.0,358.0 715.0,369.0" stroke="#000" stroke-width="1" /><polygon fill="#D0D0D0" opacity="100" points="727.0,369.0 727.0,358.0 734.0,358.0 734.0,369.0" stroke="#000" stroke-width="1" /><polygon fill="#D0D0D0" opacity="100" points="746.0,369.0 746.0,358.0 753.0,358.0 753.0,369.0" stroke="#000" stroke-width="1" /><polygon fill="#D0D0D0" opacity="100" points="765.0,369.0 765.0,358.0 772.0,358.0 772.0,369.0" stroke="#000" stroke-width="1" /><polygon fill="#D0D0D0" opacity="100" points="784.0,369.0 784.0,358.0 791.0,358.0 791.0,369.0" stroke="#000" stroke-width="1" /><polygon fill="#D0D0D0" opacity="100" points="803.0,369.0 803.0,358.0 810.0,358.0 810.0,369.0" stroke="#000" stroke-width="1" /><polygon fill="#D0D0D0" opacity="100" points="822.0,369.0 822.0,358.0 829.0,358.0 829.0,369.0" stroke="#000" stroke-width="1" /><polygon fill="#D0D0D0" opacity="100" points="841.0,369.0 841.0,358.0 848.0,358.0 848.0,369.0" stroke="#000" stroke-width="1" /><polygon fill="#D0D0D0" opacity="100" points="860.0,369.0 860.0,358.0 867.0,358.0 867.0,369.0" stroke="#000" stroke-width="1" /><polygon fill="#D0D0D0" opacity="100" points="879.0,369.0 879.0,358.0 886.0,358.0 886.0,369.0" stroke="#000" stroke-width="1" /><polygon fill="#D0D0D0" opacity="100" points="594.0,330.0 594.0,319.0 601.0,319.0 601.0,330.0" stroke="#000" stroke-width="1" /><polygon fill="#D0D0D0" opacity="100" points="613.0,330.0 613.0,319.0 620.0,319.0 620.0,330.0" stroke="#000" stroke-width="1" /><polygon fill="#D0D0D0" opacity="100" points="632.0,330.0 632.0,319.0 639.0,319.0 639.0,330.0" stroke="#000" stroke-width="1" /><polygon fill="#D0D0D0" opacity="100" points="651.0,330.0 651.0,319.0 658.0,319.0 658.0,330.0" stroke="#000" stroke-width="1" /><polygon fill="#D0D0D0" opacity="100" points="670.0,330.0 670.0,319.0 677.0,319.0 677.0,330.0" stroke="#000" stroke-width="1" /><polygon fill="#D0D0D0" opacity="100" points="689.0,330.0 689.0,319.0 696.0,319.0 696.0,330.0" stroke="#000" stroke-width="1" /><polygon fill="#D0D0D0" opacity="100" points="708.0,330.0 708.0,319.0 715.0,319.0 715.0,330.0" stroke="#000" stroke-width="1" /><polygon fill="#D0D0D0" opacity="100" points="727.0,330.0 727.0,319.0 734.0,319.0 734.0,330.0" stroke="#000" stroke-width="1" /><polygon fill="#D0D0D0" opacity="100" points="746.0,330.0 746.0,319.0 753.0,319.0 753.0,330.0" stroke="#000" stroke-width="1" /><polygon fill="#D0D0D0" opacity="100" points="765.0,330.0 765.0,319.0 772.0,319.0 772.0,330.0" stroke="#000" stroke-width="1" /><polygon fill="#D0D0D0" opacity="100" points="784.0,330.0 784.0,319.0 791.0,319.0 791.0,330.0" stroke="#000" stroke-width="1" /><polygon fill="#D0D0D0" opacity="100" points="803.0,330.0 803.0,319.0 810.0,319.0 810.0,330.0" stroke="#000" stroke-width="1" /><polygon fill="#D0D0D0" opacity="100" points="822.0,330.0 822.0,319.0 829.0,319.0 829.0,330.0" stroke="#000" stroke-width="1" /><polygon fill="#D0D0D0" opacity="100" points="841.0,330.0 841.0,319.0 848.0,319.0 848.0,330.0" stroke="#000" stroke-width="1" /><polygon fill="#D0D0D0" opacity="100" points="860.0,330.0 860.0,319.0 867.0,319.0 867.0,330.0" stroke="#000" stroke-width="1" /><polygon fill="#D0D0D0" opacity="100" points="879.0,330.0 879.0,319.0 886.0,319.0 886.0,330.0" stroke="#000" stroke-width="1" /><polyline fill="none" opacity="100" points="547.0,364.0 569.0,364.0 569.0,359.0 572.0,359.0 572.0,364.0 582.0,364.0 582.0,369.0 570.0,369.0 570.0,379.0 1020.0,379.0 1020.0,369.0 898.0,369.0 898.0,358.0 905.0,358.0 905.0,330.0 898.0,330.0 898.0,319.0 1020.0,319.0 1020.0,309.0 570.0,309.0 570.0,319.0 582.0,319.0 582.0,324.0 573.0,324.0 573.0,329.0 570.0,329.0 570.0,324.0 547.0,324.0" stroke="#000" stroke-width="1" /><polyline fill="none" opacity="100" points="299.0,361.0 299.0,327.0" stroke="#7F7F7F" stroke-width="1" /><polyline fill="none" opacity="100" points="303.0,361.0 303.0,327.0" stroke="#7F7F7F" stroke-width="1" /><polyline fill="none" opacity="100" points="307.0,361.0 307.0,327.0" stroke="#7F7F7F" stroke-width="1" /><polyline fill="none" opacity="100" points="311.0,361.0 311.0,327.0" stroke="#7F7F7F" stroke-width="1" /><polyline fill="none" opacity="100" points="315.0,361.0 315.0,327.0" stroke="#7F7F7F" stroke-width="1" /><polyline fill="none" opacity="100" points="319.0,361.0 319.0,327.0" stroke="#7F7F7F" stroke-width="1" /><polyline fill="none" opacity="100" points="323.0,361.0 323.0,327.0" stroke="#7F7F7F" stroke-width="1" /><polyline fill="none" opacity="100" points="327.0,361.0 327.0,327.0" stroke="#7F7F7F" stroke-width="1" /><polyline fill="none" opacity="100" points="331.0,361.0 331.0,327.0" stroke="#7F7F7F" stroke-width="1" /><polyline fill="none" opacity="100" points="335.0,361.0 335.0,327.0" stroke="#7F7F7F" stroke-width="1" /><polyline fill="none" opacity="100" points="339.0,361.0 339.0,327.0" stroke="#7F7F7F" stroke-width="1" /><polyline fill="none" opacity="100" points="343.0,361.0 343.0,327.0" stroke="#7F7F7F" stroke-width="1" /><polyline fill="none" opacity="100" points="347.0,361.0 347.0,327.0" stroke="#7F7F7F" stroke-width="1" /><polyline fill="none" opacity="100" points="351.0,361.0 351.0,327.0" stroke="#7F7F7F" stroke-width="1" /><polyline fill="none" opacity="100" points="355.0,361.0 355.0,327.0" stroke="#7F7F7F" stroke-width="1" /><polyline fill="none" opacity="100" points="359.0,361.0 359.0,327.0" stroke="#7F7F7F" stroke-width="1" /><polyline fill="none" opacity="100" points="363.0,361.0 363.0,327.0" stroke="#7F7F7F" stroke-width="1" /><polyline fill="none" opacity="100" points="367.0,361.0 367.0,327.0" stroke="#7F7F7F" stroke-width="1" /><polyline fill="none" opacity="100" points="371.0,361.0 371.0,327.0" stroke="#7F7F7F" stroke-width="1" /><polyline fill="none" opacity="100" points="375.0,361.0 375.0,327.0" stroke="#7F7F7F" stroke-width="1" /><polyline fill="none" opacity="100" points="379.0,361.0 379.0,327.0" stroke="#7F7F7F" stroke-width="1" /><polyline fill="none" opacity="100" points="383.0,361.0 383.0,327.0" stroke="#7F7F7F" stroke-width="1" /><polyline fill="none" opacity="100" points="387.0,361.0 387.0,327.0" stroke="#7F7F7F" stroke-width="1" /><polyline fill="none" opacity="100" points="391.0,361.0 391.0,327.0" stroke="#7F7F7F" stroke-width="1" /><polyline fill="none" opacity="100" points="395.0,361.0 395.0,327.0" stroke="#7F7F7F" stroke-width="1" /><polyline fill="none" opacity="100" points="399.0,361.0 399.0,327.0" stroke="#7F7F7F" stroke-width="1" /><polyline fill="none" opacity="100" points="403.0,361.0 403.0,327.0" stroke="#7F7F7F" stroke-width="1" /><polyline fill="none" opacity="100" points="407.0,361.0 407.0,327.0" stroke="#7F7F7F" stroke-width="1" /><polyline fill="none" opacity="100" points="411.0,361.0 411.0,327.0" stroke="#7F7F7F" stroke-width="1" /><polyline fill="none" opacity="100" points="415.0,361.0 415.0,327.0" stroke="#7F7F7F" stroke-width="1" /><polyline fill="none" opacity="100" points="419.0,361.0 419.0,327.0" stroke="#7F7F7F" stroke-width="1" /><polyline fill="none" opacity="100" points="423.0,361.0 423.0,327.0" stroke="#7F7F7F" stroke-width="1" /><polyline fill="none" opacity="100" points="427.0,361.0 427.0,327.0" stroke="#7F7F7F" stroke-width="1" /><polyline fill="none" opacity="100" points="431.0,361.0 431.0,327.0" stroke="#7F7F7F" stroke-width="1" /><polyline fill="none" opacity="100" points="435.0,361.0 435.0,327.0" stroke="#7F7F7F" stroke-width="1" /><polyline fill="none" opacity="100" points="439.0,361.0 439.0,327.0" stroke="#7F7F7F" stroke-width="1" /><polyline fill="none" opacity="100" points="443.0,361.0 443.0,327.0" stroke="#7F7F7F" stroke-width="1" /><polyline fill="none" opacity="100" points="447.0,361.0 447.0,327.0" stroke="#7F7F7F" stroke-width="1" /><polyline fill="none" opacity="100" points="451.0,361.0 451.0,327.0" stroke="#7F7F7F" stroke-width="1" /><polyline fill="none" opacity="100" points="455.0,361.0 455.0,327.0" stroke="#7F7F7F" stroke-width="1" /><polyline fill="none" opacity="100" points="459.0,361.0 459.0,327.0" stroke="#7F7F7F" stroke-width="1" /><polyline fill="none" opacity="100" points="463.0,361.0 463.0,327.0" stroke="#7F7F7F" stroke-width="1" /><polyline fill="none" opacity="100" points="467.0,361.0 467.0,327.0" stroke="#7F7F7F" stroke-width="1" /><polyline fill="none" opacity="100" points="471.0,361.0 471.0,327.0" stroke="#7F7F7F" stroke-width="1" /><polyline fill="none" opacity="100" points="475.0,361.0 475.0,327.0" stroke="#7F7F7F" stroke-width="1" /><polyline fill="none" opacity="100" points="479.0,361.0 479.0,327.0" stroke="#7F7F7F" stroke-width="1" /><polyline fill="none" opacity="100" points="483.0,361.0 483.0,327.0" stroke="#7F7F7F" stroke-width="1" /><polyline fill="none" opacity="100" points="487.0,361.0 487.0,327.0" stroke="#7F7F7F" stroke-width="1" /><polyline fill="none" opacity="100" points="491.0,361.0 491.0,327.0" stroke="#7F7F7F" stroke-width="1" /><polyline fill="none" opacity="100" points="495.0,361.0 495.0,327.0" stroke="#7F7F7F" stroke-width="1" /><polyline fill="none" opacity="100" points="499.0,361.0 499.0,327.0" stroke="#7F7F7F" stroke-width="1" /><polyline fill="none" opacity="100" points="503.0,361.0 503.0,327.0" stroke="#7F7F7F" stroke-width="1" /><polyline fill="none" opacity="100" points="507.0,361.0 507.0,327.0" stroke="#7F7F7F" stroke-width="1" /><polyline fill="none" opacity="100" points="511.0,361.0 511.0,327.0" stroke="#7F7F7F" stroke-width="1" /><polyline fill="none" opacity="100" points="515.0,361.0 515.0,327.0" stroke="#7F7F7F" stroke-width="1" /><polyline fill="none" opacity="100" points="519.0,361.0 519.0,327.0" stroke="#7F7F7F" stroke-width="1" /><polyline fill="none" opacity="100" points="523.0,361.0 523.0,327.0" stroke="#7F7F7F" stroke-width="1" /><polyline fill="none" opacity="100" points="527.0,361.0 527.0,327.0" stroke="#7F7F7F" stroke-width="1" /><polyline fill="none" opacity="100" points="531.0,361.0 531.0,327.0" stroke="#7F7F7F" stroke-width="1" /><polyline fill="none" opacity="100" points="535.0,361.0 535.0,327.0" stroke="#7F7F7F" stroke-width="1" /><polyline fill="none" opacity="100" points="539.0,361.0 539.0,327.0" stroke="#7F7F7F" stroke-width="1" /><polygon fill="#9B5509" opacity="100" points="292.0,364.0 292.0,361.0 547.0,361.0 547.0,364.0" stroke="#000" stroke-width="1" /><polygon fill="#9B5509" opacity="100" points="292.0,324.0 292.0,327.0 547.0,327.0 547.0,324.0" stroke="#000" stroke-width="1" /><polygon fill="#9B5509" opacity="100" points="292.0,353.0 292.0,348.0 547.0,348.0 547.0,353.0" stroke="#000" stroke-width="1" /><polygon fill="#9B5509" opacity="100" points="292.0,340.0 292.0,335.0 547.0,335.0 547.0,340.0" stroke="#000" stroke-width="1" /><polyline fill="none" opacity="100" points="37.0,579.0 37.0,441.0" stroke="#000" stroke-width="0" /><polyline fill="none" opacity="100" points="55.0,441.0 55.0,499.0 130.0,499.0 130.0,366.0 204.0,296.0 272.0,296.0 272.0,316.0 319.0,316.0 319.0,324.0" stroke="#000" stroke-width="1" /><polyline fill="none" opacity="100" points="319.0,364.0 319.0,372.0 272.0,372.0 272.0,392.0 208.0,392.0 201.0,399.0 201.0,499.0 214.0,499.0 214.0,441.0" stroke="#000" stroke-width="1" /><polyline fill="none" opacity="100" points="232.0,441.0 232.0,579.0" stroke="#000" stroke-width="1" /><polyline fill="none" opacity="100" points="214.0,579.0 214.0,521.0 55.0,521.0 55.0,579.0" stroke="#000" stroke-width="1" /><polyline fill="none" opacity="100" points="37.0,577.0 55.0,577.0" stroke="#000" stroke-width="1" /><polyline fill="none" opacity="100" points="37.0,573.0 55.0,573.0" stroke="#000" stroke-width="1" /><polyline fill="none" opacity="100" points="37.0,569.0 55.0,569.0" stroke="#000" stroke-width="1" /><polyline fill="none" opacity="100" points="37.0,565.0 55.0,565.0" stroke="#000" stroke-width="1" /><polyline fill="none" opacity="100" points="37.0,561.0 55.0,561.0" stroke="#000" stroke-width="1" /><polyline fill="none" opacity="100" points="37.0,557.0 55.0,557.0" stroke="#000" stroke-width="1" /><polyline fill="none" opacity="100" points="37.0,544.0 55.0,544.0" stroke="#000" stroke-width="1" /><polyline fill="none" opacity="100" points="37.0,540.0 55.0,540.0" stroke="#000" stroke-width="1" /><polyline fill="none" opacity="100" points="37.0,536.0 55.0,536.0" stroke="#000" stroke-width="1" /><polyline fill="none" opacity="100" points="37.0,532.0 55.0,532.0" stroke="#000" stroke-width="1" /><polyline fill="none" opacity="100" points="37.0,528.0 55.0,528.0" stroke="#000" stroke-width="1" /><polyline fill="none" opacity="100" points="37.0,524.0 55.0,524.0" stroke="#000" stroke-width="1" /><polyline fill="none" opacity="100" points="37.0,443.0 55.0,443.0" stroke="#000" stroke-width="1" /><polyline fill="none" opacity="100" points="37.0,447.0 55.0,447.0" stroke="#000" stroke-width="1" /><polyline fill="none" opacity="100" points="37.0,451.0 55.0,451.0" stroke="#000" stroke-width="1" /><polyline fill="none" opacity="100" points="37.0,455.0 55.0,455.0" stroke="#000" stroke-width="1" /><polyline fill="none" opacity="100" points="37.0,459.0 55.0,459.0" stroke="#000" stroke-width="1" /><polyline fill="none" opacity="100" points="37.0,463.0 55.0,463.0" stroke="#000" stroke-width="1" /><polyline fill="none" opacity="100" points="37.0,476.0 55.0,476.0" stroke="#000" stroke-width="1" /><polyline fill="none" opacity="100" points="37.0,480.0 55.0,480.0" stroke="#000" stroke-width="1" /><polyline fill="none" opacity="100" points="37.0,484.0 55.0,484.0" stroke="#000" stroke-width="1" /><polyline fill="none" opacity="100" points="37.0,488.0 55.0,488.0" stroke="#000" stroke-width="1" /><polyline fill="none" opacity="100" points="37.0,492.0 55.0,492.0" stroke="#000" stroke-width="1" /><polyline fill="none" opacity="100" points="37.0,496.0 55.0,496.0" stroke="#000" stroke-width="1" /><polyline fill="none" opacity="100" points="214.0,577.0 232.0,577.0" stroke="#000" stroke-width="1" /><polyline fill="none" opacity="100" points="214.0,573.0 232.0,573.0" stroke="#000" stroke-width="1" /><polyline fill="none" opacity="100" points="214.0,569.0 232.0,569.0" stroke="#000" stroke-width="1" /><polyline fill="none" opacity="100" points="214.0,565.0 232.0,565.0" stroke="#000" stroke-width="1" /><polyline fill="none" opacity="100" points="214.0,561.0 232.0,561.0" stroke="#000" stroke-width="1" /><polyline fill="none" opacity="100" points="214.0,557.0 232.0,557.0" stroke="#000" stroke-width="1" /><polyline fill="none" opacity="100" points="214.0,544.0 232.0,544.0" stroke="#000" stroke-width="1" /><polyline fill="none" opacity="100" points="214.0,540.0 232.0,540.0" stroke="#000" stroke-width="1" /><polyline fill="none" opacity="100" points="214.0,536.0 232.0,536.0" stroke="#000" stroke-width="1" /><polyline fill="none" opacity="100" points="214.0,532.0 232.0,532.0" stroke="#000" stroke-width="1" /><polyline fill="none" opacity="100" points="214.0,528.0 232.0,528.0" stroke="#000" stroke-width="1" /><polyline fill="none" opacity="100" points="214.0,524.0 232.0,524.0" stroke="#000" stroke-width="1" /><polyline fill="none" opacity="100" points="214.0,443.0 232.0,443.0" stroke="#000" stroke-width="1" /><polyline fill="none" opacity="100" points="214.0,447.0 232.0,447.0" stroke="#000" stroke-width="1" /><polyline fill="none" opacity="100" points="214.0,451.0 232.0,451.0" stroke="#000" stroke-width="1" /><polyline fill="none" opacity="100" points="214.0,455.0 232.0,455.0" stroke="#000" stroke-width="1" /><polyline fill="none" opacity="100" points="214.0,459.0 232.0,459.0" stroke="#000" stroke-width="1" /><polyline fill="none" opacity="100" points="214.0,463.0 232.0,463.0" stroke="#000" stroke-width="1" /><polyline fill="none" opacity="100" points="214.0,476.0 232.0,476.0" stroke="#000" stroke-width="1" /><polyline fill="none" opacity="100" points="214.0,480.0 232.0,480.0" stroke="#000" stroke-width="1" /><polyline fill="none" opacity="100" points="214.0,484.0 232.0,484.0" stroke="#000" stroke-width="1" /><polyline fill="none" opacity="100" points="214.0,488.0 232.0,488.0" stroke="#000" stroke-width="1" /><polyline fill="none" opacity="100" points="214.0,492.0 232.0,492.0" stroke="#000" stroke-width="1" /><polyline fill="none" opacity="100" points="214.0,496.0 232.0,496.0" stroke="#000" stroke-width="1" /><polygon fill="none" opacity="100" points="242.0,327.0 237.0,329.0 239.0,334.0 244.0,332.0" stroke="#000" stroke-width="1" /><polyline fill="none" opacity="100" points="220.0,325.0 240.0,325.0" stroke="#000" stroke-width="0.5" /><polyline fill="none" opacity="100" points="271.0,378.0 261.0,367.0" stroke="#000" stroke-width="0.5" /><polyline fill="none" opacity="100" points="241.0,338.0 246.0,336.0" stroke="#090" stroke-width="1" /><polyline fill="none" opacity="100" points="242.9846,341.473 247.9846,339.473" stroke="#090" stroke-width="1" /><polyline fill="none" opacity="100" points="244.9691,344.9459 249.9691,342.9459" stroke="#090" stroke-width="1" /><polyline fill="none" opacity="100" points="246.9537,348.4189 251.9537,346.4189" stroke="#090" stroke-width="1" /><polyline fill="none" opacity="100" points="248.9382,351.8919 253.9382,349.8919" stroke="#090" stroke-width="1" /><polyline fill="none" opacity="100" points="250.9228,355.3649 255.9228,353.3649" stroke="#090" stroke-width="1" /><polyline fill="none" opacity="100" points="252.9073,358.8378 257.9073,356.8378" stroke="#090" stroke-width="1" /><polyline fill="none" opacity="100" points="254.8919,362.3108 259.8919,360.3108" stroke="#090" stroke-width="1" /><polyline fill="none" opacity="100" points="256.8764,365.7838 261.8764,363.7838" stroke="#090" stroke-width="1" /><polyline fill="none" opacity="100" points="237.0,299.0 242.0,299.0" stroke="#F00" stroke-width="1" /><polyline fill="none" opacity="100" points="237.0,303.0 242.0,303.0" stroke="#F00" stroke-width="1" /><polyline fill="none" opacity="100" points="237.0,307.0 242.0,307.0" stroke="#F00" stroke-width="1" /><polyline fill="none" opacity="100" points="237.0,311.0 242.0,311.0" stroke="#F00" stroke-width="1" /><polyline fill="none" opacity="100" points="237.0,315.0 242.0,315.0" stroke="#F00" stroke-width="1" /><polyline fill="none" opacity="100" points="237.0,319.0 242.0,319.0" stroke="#F00" stroke-width="1" /><polyline fill="none" opacity="100" points="237.0,323.0 242.0,323.0" stroke="#F00" stroke-width="1" /><polygon fill="#D0D0D0" opacity="100" points="209.0,366.0 209.0,322.0 220.0,322.0 220.0,328.0 211.0,328.0 211.0,360.0 220.0,360.0 220.0,366.0" stroke="#000" stroke-width="1" /><polyline fill="none" opacity="100" points="211.0,360.0 220.0,360.0 220.0,328.0 211.0,328.0" stroke="#000" stroke-width="1" /><text fill="#000" font-family="Arial" font-size="10" font-weight="normal" opacity="100" transform="rotate(-90.0 209.0,357.0) translate(0 10)" x="209.0" y="357.0">кассы</text><polyline fill="none" opacity="100" points="223.0,309.0 206.0,309.0" stroke="#F00" stroke-width="1" /><polygon fill="#F00" opacity="100" points="210.9262,307.68 206.0,309.0 210.9262,310.32" stroke="#F00" stroke-width="1" /><polyline fill="none" opacity="100" points="564.0,331.0 550.0,331.0" stroke="#F00" stroke-width="1" /><polygon fill="#F00" opacity="100" points="554.0569,329.913 550.0,331.0 554.0569,332.087" stroke="#F00" stroke-width="1" /><polyline fill="none" opacity="100" points="206.0,379.0 223.0,379.0" stroke="#090" stroke-width="1" /><polygon fill="#090" opacity="100" points="218.0738,380.32 223.0,379.0 218.0738,377.68" stroke="#090" stroke-width="1" /><polyline fill="none" opacity="100" points="550.0,357.0 564.0,357.0" stroke="#090" stroke-width="1" /><polygon fill="#090" opacity="100" points="559.9431,358.087 564.0,357.0 559.9431,355.913" stroke="#090" stroke-width="1" /><text fill="#00AFAF" font-family="Arial" font-size="15" font-weight="normal" opacity="100" transform="rotate(-90.0 160.0,288.0) translate(0 15)" x="160.0" y="288.0">бульвар Дружбы народов</text><text fill="#00AFAF" font-family="Arial" font-size="15" font-weight="normal" opacity="100" transform="rotate(-90.0 160.0,786.0) translate(0 15)" x="160.0" y="786.0">бульвар Дружбы народов</text><text fill="#00AFAF" font-family="Arial" font-size="15" font-weight="normal" opacity="100" transform="rotate(-0.0 211.0,613.0) translate(0 15)" x="211.0" y="613.0">Неманская улица</text></g></g></svg>