<?xml version="1.0" encoding="utf-8" ?>
<svg baseProfile="tiny" height="1160px" version="1.2" width="1220px" xmlns="http://www.w3.org/2000/svg" xmlns:ev="http://www.w3.org/2001/xml-events" xmlns:xlink="http://www.w3.org/1999/xlink"><defs /><g><g transform="rotate(-89.5,610.0,580.0)"><polygon fill="#34349C" opacity="100" points="826.0,619.0 826.0,649.0 376.0,649.0 376.0,619.0" stroke="#000" stroke-width="1" /><polygon fill="#34349C" opacity="100" points="826.0,539.0 826.0,509.0 376.0,509.0 376.0,539.0" stroke="#000" stroke-width="1" /><text fill="#34349C" font-family="Arial" font-size="20" font-weight="normal" opacity="100" transform="rotate(-0.0 701.0,649.0) translate(0 20)" x="701.0" y="649.0">посадки нет &gt;&gt;</text><text fill="#34349C" font-family="Arial" font-size="20" font-weight="normal" opacity="100" transform="rotate(-0.0 376.0,488.0) translate(0 20)" x="376.0" y="488.0">&lt;&lt; Минская</text><text fill="#34349C" font-family="Arial" font-size="25" font-weight="bold" opacity="100" transform="rotate(-0.0 505.0,563.0) translate(0 25)" x="505.0" y="563.0">Героев Днепра</text><polyline fill="none" opacity="100" points="780.0,353.0 787.2812,361.375 794.125,370.0 800.5312,378.875 806.5,388.0 812.0312,397.375 817.125,407.0 821.7812,416.875 826.0,427.0 829.7812,437.375 833.125,448.0 836.0312,458.875 838.5,470.0 840.5312,481.375 842.125,493.0 843.2812,504.875 844.0,517.0" stroke="#000" stroke-width="1" /><polyline fill="none" opacity="100" points="844.0,641.0 843.0469,653.5781 841.6875,665.8125 839.9219,677.7031 837.75,689.25 835.1719,700.4531 832.1875,711.3125 828.7969,721.8281 825.0,732.0 820.7969,741.8281 816.1875,751.3125 811.1719,760.4531 805.75,769.25 799.9219,777.7031 793.6875,785.8125 787.0469,793.5781 780.0,801.0" stroke="#000" stroke-width="1" /><polyline fill="none" opacity="100" points="746.0,832.0 737.2109,839.1328 727.9688,845.6562 718.2615,851.5708 708.125,856.875 697.6311,861.5659 686.6602,865.6484 675.1763,869.124 663.0,872.0 649.7964,874.29 635.9961,875.9766 621.8862,877.0479 607.5625,877.5 593.1685,877.3271 578.8477,876.5234 564.6958,875.085 551.0,873.0 538.1909,870.251 525.9336,866.8516 514.0486,862.8091 502.5,858.125 491.1682,852.8042 480.125,846.8438 469.4062,840.2422 459.0,833.0" stroke="#000" stroke-width="1" /><polyline fill="none" opacity="100" points="746.0,322.0 736.7969,314.7578 727.1875,308.1562 717.1606,302.196 706.75,296.875 696.0229,292.1887 684.8672,288.1445 673.249,284.7446 661.0,282.0 647.8057,279.9312 634.0703,278.5117 620.0635,277.7241 605.875,277.5625 591.6396,278.0181 577.4922,279.082 563.5225,280.7485 550.0,283.0 537.3291,285.8101 525.1953,289.1992 513.4302,293.1785 502.0,297.75 490.7925,302.9211 479.875,308.6875 469.2812,315.0469 459.0,322.0" stroke="#000" stroke-width="1" /><polyline fill="none" opacity="100" points="428.0,346.0 419.4062,355.1641 411.375,364.5312 403.9062,374.1016 397.0,383.875 390.6562,393.8516 384.875,404.0312 379.6562,414.4141 375.0,425.0 370.9062,435.7891 367.375,446.7812 364.4062,457.9766 362.0,469.375 360.1562,480.9766 358.875,492.7812 358.1562,504.7891 358.0,517.0" stroke="#000" stroke-width="1" /><polyline fill="none" opacity="100" points="359.0,642.0 359.375,654.4531 360.25,666.5625 361.625,678.3281 363.5,689.75 365.875,700.8281 368.75,711.5625 372.125,721.9531 376.0,732.0 380.375,741.7031 385.25,751.0625 390.625,760.0781 396.5,768.75 402.875,777.0781 409.75,785.0625 417.125,792.7031 425.0,800.0" stroke="#000" stroke-width="1" /><polyline fill="none" opacity="100" points="780.0,801.0 830.0,859.0 839.0,856.0" stroke="#000" stroke-width="1" /><polyline fill="none" opacity="100" points="746.0,832.0 795.0,888.0 790.0,897.0" stroke="#000" stroke-width="1" /><polyline fill="none" opacity="100" points="780.0,353.0 833.0,300.0 842.0,302.0" stroke="#000" stroke-width="1" /><polyline fill="none" opacity="100" points="746.0,322.0 802.0,267.0 802.0,258.0" stroke="#000" stroke-width="1" /><polyline fill="none" opacity="100" points="459.0,322.0 410.0,263.0 412.0,254.0" stroke="#000" stroke-width="1" /><polyline fill="none" opacity="100" points="428.0,346.0 380.0,288.0 371.0,288.0" stroke="#000" stroke-width="1" /><polyline fill="none" opacity="100" points="459.0,833.0 390.0,897.0 390.0,907.0" stroke="#000" stroke-width="1" /><polyline fill="none" opacity="100" points="425.0,800.0 356.0,859.0 347.0,857.0" stroke="#000" stroke-width="1" /><polyline fill="none" opacity="100" points="358.0,517.0 260.0,517.0 254.0,521.0 254.0,638.0 260.0,642.0 359.0,642.0" stroke="#000" stroke-width="1" /><polyline fill="none" opacity="100" points="844.0,517.0 943.0,517.0 949.0,521.0 949.0,637.0 943.0,641.0 844.0,641.0" stroke="#000" stroke-width="1" /><polyline fill="none" opacity="100" points="826.0,619.0 826.0,609.0 821.0,609.0 821.0,602.0 846.0,602.0" stroke="#000" stroke-width="1" /><polyline fill="none" opacity="100" points="846.0,556.0 821.0,556.0 821.0,552.0 826.0,552.0 826.0,539.0" stroke="#000" stroke-width="1" /><polyline fill="none" opacity="100" points="376.0,539.0 376.0,549.0 381.0,549.0 381.0,556.0 356.0,556.0" stroke="#000" stroke-width="1" /><polyline fill="none" opacity="100" points="356.0,602.0 381.0,602.0 381.0,609.0 376.0,609.0 376.0,619.0" stroke="#000" stroke-width="1" /><polyline fill="none" opacity="100" points="888.0,556.0 888.0,602.0" stroke="#000" stroke-width="1" /><polyline fill="none" opacity="100" points="884.0,556.0 884.0,602.0" stroke="#000" stroke-width="1" /><polyline fill="none" opacity="100" points="880.0,556.0 880.0,602.0" stroke="#000" stroke-width="1" /><polyline fill="none" opacity="100" points="876.0,556.0 876.0,602.0" stroke="#000" stroke-width="1" /><polyline fill="none" opacity="100" points="872.0,556.0 872.0,602.0" stroke="#000" stroke-width="1" /><polyline fill="none" opacity="100" points="868.0,556.0 868.0,602.0" stroke="#000" stroke-width="1" /><polyline fill="none" opacity="100" points="853.0,556.0 853.0,602.0" stroke="#000" stroke-width="1" /><polyline fill="none" opacity="100" points="849.0,556.0 849.0,602.0" stroke="#000" stroke-width="1" /><polyline fill="none" opacity="100" points="845.0,556.0 845.0,602.0" stroke="#000" stroke-width="1" /><polyline fill="none" opacity="100" points="841.0,556.0 841.0,602.0" stroke="#000" stroke-width="1" /><polyline fill="none" opacity="100" points="837.0,556.0 837.0,602.0" stroke="#000" stroke-width="1" /><polyline fill="none" opacity="100" points="833.0,556.0 833.0,602.0" stroke="#000" stroke-width="1" /><polyline fill="none" opacity="100" points="894.0,517.0 894.0,546.0" stroke="#000" stroke-width="1" /><polyline fill="none" opacity="100" points="890.0,517.0 890.0,546.0" stroke="#000" stroke-width="1" /><polyline fill="none" opacity="100" points="886.0,517.0 886.0,546.0" stroke="#000" stroke-width="1" /><polyline fill="none" opacity="100" points="882.0,517.0 882.0,546.0" stroke="#000" stroke-width="1" /><polyline fill="none" opacity="100" points="878.0,517.0 878.0,546.0" stroke="#000" stroke-width="1" /><polyline fill="none" opacity="100" points="874.0,517.0 874.0,546.0" stroke="#000" stroke-width="1" /><polyline fill="none" opacity="100" points="870.0,517.0 870.0,546.0" stroke="#000" stroke-width="1" /><polyline fill="none" opacity="100" points="866.0,517.0 866.0,546.0" stroke="#000" stroke-width="1" /><polyline fill="none" opacity="100" points="862.0,517.0 862.0,546.0" stroke="#000" stroke-width="1" /><polyline fill="none" opacity="100" points="858.0,517.0 858.0,546.0" stroke="#000" stroke-width="1" /><polyline fill="none" opacity="100" points="894.0,612.0 894.0,641.0" stroke="#000" stroke-width="1" /><polyline fill="none" opacity="100" points="890.0,612.0 890.0,641.0" stroke="#000" stroke-width="1" /><polyline fill="none" opacity="100" points="886.0,612.0 886.0,641.0" stroke="#000" stroke-width="1" /><polyline fill="none" opacity="100" points="882.0,612.0 882.0,641.0" stroke="#000" stroke-width="1" /><polyline fill="none" opacity="100" points="878.0,612.0 878.0,641.0" stroke="#000" stroke-width="1" /><polyline fill="none" opacity="100" points="874.0,612.0 874.0,641.0" stroke="#000" stroke-width="1" /><polyline fill="none" opacity="100" points="870.0,612.0 870.0,641.0" stroke="#000" stroke-width="1" /><polyline fill="none" opacity="100" points="866.0,612.0 866.0,641.0" stroke="#000" stroke-width="1" /><polyline fill="none" opacity="100" points="862.0,612.0 862.0,641.0" stroke="#000" stroke-width="1" /><polyline fill="none" opacity="100" points="858.0,612.0 858.0,641.0" stroke="#000" stroke-width="1" /><polyline fill="none" opacity="100" points="368.0,556.0 368.0,602.0" stroke="#000" stroke-width="1" /><polyline fill="none" opacity="100" points="364.0,556.0 364.0,602.0" stroke="#000" stroke-width="1" /><polyline fill="none" opacity="100" points="360.0,556.0 360.0,602.0" stroke="#000" stroke-width="1" /><polyline fill="none" opacity="100" points="356.0,556.0 356.0,602.0" stroke="#000" stroke-width="1" /><polyline fill="none" opacity="100" points="352.0,556.0 352.0,602.0" stroke="#000" stroke-width="1" /><polyline fill="none" opacity="100" points="348.0,556.0 348.0,602.0" stroke="#000" stroke-width="1" /><polyline fill="none" opacity="100" points="335.0,556.0 335.0,602.0" stroke="#000" stroke-width="1" /><polyline fill="none" opacity="100" points="331.0,556.0 331.0,602.0" stroke="#000" stroke-width="1" /><polyline fill="none" opacity="100" points="327.0,556.0 327.0,602.0" stroke="#000" stroke-width="1" /><polyline fill="none" opacity="100" points="323.0,556.0 323.0,602.0" stroke="#000" stroke-width="1" /><polyline fill="none" opacity="100" points="319.0,556.0 319.0,602.0" stroke="#000" stroke-width="1" /><polyline fill="none" opacity="100" points="315.0,556.0 315.0,602.0" stroke="#000" stroke-width="1" /><polyline fill="none" opacity="100" points="350.0,517.0 350.0,546.0" stroke="#000" stroke-width="1" /><polyline fill="none" opacity="100" points="346.0,517.0 346.0,546.0" stroke="#000" stroke-width="1" /><polyline fill="none" opacity="100" points="342.0,517.0 342.0,546.0" stroke="#000" stroke-width="1" /><polyline fill="none" opacity="100" points="338.0,517.0 338.0,546.0" stroke="#000" stroke-width="1" /><polyline fill="none" opacity="100" points="334.0,517.0 334.0,546.0" stroke="#000" stroke-width="1" /><polyline fill="none" opacity="100" points="330.0,517.0 330.0,546.0" stroke="#000" stroke-width="1" /><polyline fill="none" opacity="100" points="326.0,517.0 326.0,546.0" stroke="#000" stroke-width="1" /><polyline fill="none" opacity="100" points="322.0,517.0 322.0,546.0" stroke="#000" stroke-width="1" /><polyline fill="none" opacity="100" points="318.0,517.0 318.0,546.0" stroke="#000" stroke-width="1" /><polyline fill="none" opacity="100" points="314.0,517.0 314.0,546.0" stroke="#000" stroke-width="1" /><polyline fill="none" opacity="100" points="310.0,517.0 310.0,546.0" stroke="#000" stroke-width="1" /><polyline fill="none" opacity="100" points="350.0,612.0 350.0,642.0" stroke="#000" stroke-width="1" /><polyline fill="none" opacity="100" points="346.0,612.0 346.0,642.0" stroke="#000" stroke-width="1" /><polyline fill="none" opacity="100" points="342.0,612.0 342.0,642.0" stroke="#000" stroke-width="1" /><polyline fill="none" opacity="100" points="338.0,612.0 338.0,642.0" stroke="#000" stroke-width="1" /><polyline fill="none" opacity="100" points="334.0,612.0 334.0,642.0" stroke="#000" stroke-width="1" /><polyline fill="none" opacity="100" points="330.0,612.0 330.0,642.0" stroke="#000" stroke-width="1" /><polyline fill="none" opacity="100" points="326.0,612.0 326.0,642.0" stroke="#000" stroke-width="1" /><polyline fill="none" opacity="100" points="322.0,612.0 322.0,642.0" stroke="#000" stroke-width="1" /><polyline fill="none" opacity="100" points="318.0,612.0 318.0,642.0" stroke="#000" stroke-width="1" /><polyline fill="none" opacity="100" points="314.0,612.0 314.0,642.0" stroke="#000" stroke-width="1" /><polyline fill="none" opacity="100" points="310.0,612.0 310.0,642.0" stroke="#000" stroke-width="1" /><polyline fill="none" opacity="100" points="307.0,548.0 308.0,553.0 303.0,554.0 302.0,549.0 307.0,548.0" stroke="#000" stroke-width="1" /><polyline fill="none" opacity="100" points="254.0,525.0 245.0,525.0 245.0,552.0 254.0,552.0" stroke="#000" stroke-width="1" /><polyline fill="none" opacity="100" points="900.0,605.0 902.0,610.0 897.0,612.0 895.0,607.0 900.0,605.0" stroke="#000" stroke-width="1" /><polyline fill="none" opacity="100" points="949.0,605.0 958.0,605.0 958.0,634.0 949.0,634.0" stroke="#000" stroke-width="1" /><text fill="#000" font-family="Arial" font-size="9" font-weight="normal" opacity="100" transform="rotate(90.0 255.0,528.0) translate(0 9)" x="255.0" y="528.0">кассы</text><text fill="#000" font-family="Arial" font-size="9" font-weight="normal" opacity="100" transform="rotate(90.0 959.0,608.0) translate(0 9)" x="959.0" y="608.0">кассы</text><polyline fill="none" opacity="100" points="935.0,593.0 949.0,593.0" stroke="#000" stroke-width="0.5" /><polyline fill="none" opacity="100" points="270.0,556.0 254.0,559.0" stroke="#000" stroke-width="0.5" /><polyline fill="none" opacity="100" points="895.0,542.0 899.0,546.0" stroke="#F00" stroke-width="1" /><polyline fill="none" opacity="100" points="897.8284,539.1716 901.8284,543.1716" stroke="#F00" stroke-width="1" /><polyline fill="none" opacity="100" points="900.6569,536.3431 904.6569,540.3431" stroke="#F00" stroke-width="1" /><polyline fill="none" opacity="100" points="903.4853,533.5147 907.4853,537.5147" stroke="#F00" stroke-width="1" /><polyline fill="none" opacity="100" points="906.3137,530.6863 910.3137,534.6863" stroke="#F00" stroke-width="1" /><polyline fill="none" opacity="100" points="909.1421,527.8579 913.1421,531.8579" stroke="#F00" stroke-width="1" /><polyline fill="none" opacity="100" points="911.9706,525.0294 915.9706,529.0294" stroke="#F00" stroke-width="1" /><polyline fill="none" opacity="100" points="914.799,522.201 918.799,526.201" stroke="#F00" stroke-width="1" /><polyline fill="none" opacity="100" points="917.6274,519.3726 921.6274,523.3726" stroke="#F00" stroke-width="1" /><polyline fill="none" opacity="100" points="307.0,612.0 302.0,608.0" stroke="#F00" stroke-width="1" /><polyline fill="none" opacity="100" points="304.6345,615.2256 299.6345,611.2256" stroke="#F00" stroke-width="1" /><polyline fill="none" opacity="100" points="302.2691,618.4512 297.2691,614.4512" stroke="#F00" stroke-width="1" /><polyline fill="none" opacity="100" points="299.9036,621.6769 294.9036,617.6769" stroke="#F00" stroke-width="1" /><polyline fill="none" opacity="100" points="297.5382,624.9025 292.5382,620.9025" stroke="#F00" stroke-width="1" /><polyline fill="none" opacity="100" points="295.1727,628.1281 290.1727,624.1281" stroke="#F00" stroke-width="1" /><polyline fill="none" opacity="100" points="292.8073,631.3537 287.8073,627.3537" stroke="#F00" stroke-width="1" /><polyline fill="none" opacity="100" points="290.4418,634.5793 285.4418,630.5793" stroke="#F00" stroke-width="1" /><polyline fill="none" opacity="100" points="288.0764,637.805 283.0764,633.805" stroke="#F00" stroke-width="1" /><polyline fill="none" opacity="100" points="285.7109,641.0306 280.7109,637.0306" stroke="#F00" stroke-width="1" /><polyline fill="none" opacity="100" points="904.0,603.0 906.0,608.0" stroke="#090" stroke-width="1" /><polyline fill="none" opacity="100" points="907.6702,601.4096 909.6702,606.4096" stroke="#090" stroke-width="1" /><polyline fill="none" opacity="100" points="911.3404,599.8191 913.3404,604.8191" stroke="#090" stroke-width="1" /><polyline fill="none" opacity="100" points="915.0107,598.2287 917.0107,603.2287" stroke="#090" stroke-width="1" /><polyline fill="none" opacity="100" points="918.6809,596.6383 920.6809,601.6383" stroke="#090" stroke-width="1" /><polyline fill="none" opacity="100" points="922.3511,595.0479 924.3511,600.0479" stroke="#090" stroke-width="1" /><polyline fill="none" opacity="100" points="926.0213,593.4574 928.0213,598.4574" stroke="#090" stroke-width="1" /><polyline fill="none" opacity="100" points="929.6916,591.867 931.6916,596.867" stroke="#090" stroke-width="1" /><polyline fill="none" opacity="100" points="933.3618,590.2766 935.3618,595.2766" stroke="#090" stroke-width="1" /><polyline fill="none" opacity="100" points="298.0,549.0 299.0,555.0" stroke="#090" stroke-width="1" /><polyline fill="none" opacity="100" points="294.0582,549.6796 295.0582,555.6796" stroke="#090" stroke-width="1" /><polyline fill="none" opacity="100" points="290.1163,550.3593 291.1163,556.3593" stroke="#090" stroke-width="1" /><polyline fill="none" opacity="100" points="286.1745,551.0389 287.1745,557.0389" stroke="#090" stroke-width="1" /><polyline fill="none" opacity="100" points="282.2326,551.7185 283.2326,557.7185" stroke="#090" stroke-width="1" /><polyline fill="none" opacity="100" points="278.2908,552.3981 279.2908,558.3981" stroke="#090" stroke-width="1" /><polyline fill="none" opacity="100" points="274.349,553.0778 275.349,559.0778" stroke="#090" stroke-width="1" /><polyline fill="none" opacity="100" points="270.4071,553.7574 271.4071,559.7574" stroke="#090" stroke-width="1" /><polygon fill="#D0D0D0" opacity="100" points="807.0,549.0 807.0,556.0 800.0,556.0 800.0,549.0" stroke="#000" stroke-width="1" /><polygon fill="#D0D0D0" opacity="100" points="780.0,549.0 780.0,556.0 773.0,556.0 773.0,549.0" stroke="#000" stroke-width="1" /><polygon fill="#D0D0D0" opacity="100" points="753.0,549.0 753.0,556.0 746.0,556.0 746.0,549.0" stroke="#000" stroke-width="1" /><polygon fill="#D0D0D0" opacity="100" points="726.0,549.0 726.0,556.0 719.0,556.0 719.0,549.0" stroke="#000" stroke-width="1" /><polygon fill="#D0D0D0" opacity="100" points="699.0,549.0 699.0,556.0 692.0,556.0 692.0,549.0" stroke="#000" stroke-width="1" /><polygon fill="#D0D0D0" opacity="100" points="672.0,549.0 672.0,556.0 665.0,556.0 665.0,549.0" stroke="#000" stroke-width="1" /><polygon fill="#D0D0D0" opacity="100" points="645.0,549.0 645.0,556.0 638.0,556.0 638.0,549.0" stroke="#000" stroke-width="1" /><polygon fill="#D0D0D0" opacity="100" points="618.0,549.0 618.0,556.0 611.0,556.0 611.0,549.0" stroke="#000" stroke-width="1" /><polygon fill="#D0D0D0" opacity="100" points="591.0,549.0 591.0,556.0 584.0,556.0 584.0,549.0" stroke="#000" stroke-width="1" /><polygon fill="#D0D0D0" opacity="100" points="564.0,549.0 564.0,556.0 557.0,556.0 557.0,549.0" stroke="#000" stroke-width="1" /><polygon fill="#D0D0D0" opacity="100" points="537.0,549.0 537.0,556.0 530.0,556.0 530.0,549.0" stroke="#000" stroke-width="1" /><polygon fill="#D0D0D0" opacity="100" points="510.0,549.0 510.0,556.0 503.0,556.0 503.0,549.0" stroke="#000" stroke-width="1" /><polygon fill="#D0D0D0" opacity="100" points="483.0,549.0 483.0,556.0 476.0,556.0 476.0,549.0" stroke="#000" stroke-width="1" /><polygon fill="#D0D0D0" opacity="100" points="456.0,549.0 456.0,556.0 449.0,556.0 449.0,549.0" stroke="#000" stroke-width="1" /><polygon fill="#D0D0D0" opacity="100" points="429.0,549.0 429.0,556.0 422.0,556.0 422.0,549.0" stroke="#000" stroke-width="1" /><polygon fill="#D0D0D0" opacity="100" points="402.0,549.0 402.0,556.0 395.0,556.0 395.0,549.0" stroke="#000" stroke-width="1" /><polygon fill="#D0D0D0" opacity="100" points="807.0,602.0 807.0,609.0 800.0,609.0 800.0,602.0" stroke="#000" stroke-width="1" /><polygon fill="#D0D0D0" opacity="100" points="780.0,602.0 780.0,609.0 773.0,609.0 773.0,602.0" stroke="#000" stroke-width="1" /><polygon fill="#D0D0D0" opacity="100" points="753.0,602.0 753.0,609.0 746.0,609.0 746.0,602.0" stroke="#000" stroke-width="1" /><polygon fill="#D0D0D0" opacity="100" points="726.0,602.0 726.0,609.0 719.0,609.0 719.0,602.0" stroke="#000" stroke-width="1" /><polygon fill="#D0D0D0" opacity="100" points="699.0,602.0 699.0,609.0 692.0,609.0 692.0,602.0" stroke="#000" stroke-width="1" /><polygon fill="#D0D0D0" opacity="100" points="672.0,602.0 672.0,609.0 665.0,609.0 665.0,602.0" stroke="#000" stroke-width="1" /><polygon fill="#D0D0D0" opacity="100" points="645.0,602.0 645.0,609.0 638.0,609.0 638.0,602.0" stroke="#000" stroke-width="1" /><polygon fill="#D0D0D0" opacity="100" points="618.0,602.0 618.0,609.0 611.0,609.0 611.0,602.0" stroke="#000" stroke-width="1" /><polygon fill="#D0D0D0" opacity="100" points="591.0,602.0 591.0,609.0 584.0,609.0 584.0,602.0" stroke="#000" stroke-width="1" /><polygon fill="#D0D0D0" opacity="100" points="564.0,602.0 564.0,609.0 557.0,609.0 557.0,602.0" stroke="#000" stroke-width="1" /><polygon fill="#D0D0D0" opacity="100" points="537.0,602.0 537.0,609.0 530.0,609.0 530.0,602.0" stroke="#000" stroke-width="1" /><polygon fill="#D0D0D0" opacity="100" points="510.0,602.0 510.0,609.0 503.0,609.0 503.0,602.0" stroke="#000" stroke-width="1" /><polygon fill="#D0D0D0" opacity="100" points="483.0,602.0 483.0,609.0 476.0,609.0 476.0,602.0" stroke="#000" stroke-width="1" /><polygon fill="#D0D0D0" opacity="100" points="456.0,602.0 456.0,609.0 449.0,609.0 449.0,602.0" stroke="#000" stroke-width="1" /><polygon fill="#D0D0D0" opacity="100" points="429.0,602.0 429.0,609.0 422.0,609.0 422.0,602.0" stroke="#000" stroke-width="1" /><polygon fill="#D0D0D0" opacity="100" points="402.0,602.0 402.0,609.0 395.0,609.0 395.0,602.0" stroke="#000" stroke-width="1" /><polygon fill="#D0D0D0" opacity="100" points="894.0,602.0 894.0,612.0 846.0,612.0 846.0,602.0" stroke="#000" stroke-width="1" /><polygon fill="#D0D0D0" opacity="100" points="894.0,556.0 894.0,546.0 846.0,546.0 846.0,556.0" stroke="#000" stroke-width="1" /><polygon fill="#D0D0D0" opacity="100" points="356.0,602.0 356.0,612.0 309.0,612.0 309.0,602.0" stroke="#000" stroke-width="1" /><polygon fill="#D0D0D0" opacity="100" points="356.0,556.0 356.0,546.0 309.0,546.0 309.0,556.0" stroke="#000" stroke-width="1" /><polyline fill="none" opacity="100" points="364.0,532.0 323.0,532.0" stroke="#090" stroke-width="1" /><polygon fill="#090" opacity="100" points="334.8809,528.8165 323.0,532.0 334.8809,535.1835" stroke="#090" stroke-width="1" /><polyline fill="none" opacity="100" points="838.0,627.0 878.0,627.0" stroke="#090" stroke-width="1" /><polygon fill="#090" opacity="100" points="866.4089,630.1058 878.0,627.0 866.4089,623.8942" stroke="#090" stroke-width="1" /><polyline fill="none" opacity="100" points="879.0,532.0 840.0,532.0" stroke="#F00" stroke-width="1" /><polygon fill="#F00" opacity="100" points="851.3013,528.9718 840.0,532.0 851.3013,535.0282" stroke="#F00" stroke-width="1" /><polyline fill="none" opacity="100" points="322.0,628.0 364.0,628.0" stroke="#F00" stroke-width="1" /><polygon fill="#F00" opacity="100" points="351.8293,631.2611 364.0,628.0 351.8293,624.7389" stroke="#F00" stroke-width="1" /><text fill="#00AFAF" font-family="Arial" font-size="15" font-weight="normal" opacity="100" transform="rotate(90.0 635.0,1027.0) translate(0 15)" x="635.0" y="1027.0">&lt;&lt; улица Героев Днепра</text><text fill="#00AFAF" font-family="Arial" font-size="15" font-weight="normal" opacity="100" transform="rotate(90.0 585.0,1028.0) translate(0 15)" x="585.0" y="1028.0">улица Героев Днепра &gt;&gt;</text><text fill="#00AFAF" font-family="Arial" font-size="15" font-weight="normal" opacity="100" transform="rotate(90.0 586.0,-33.0) translate(0 15)" x="586.0" y="-33.0">улица Героев Днепра &gt;&gt;</text><text fill="#00AFAF" font-family="Arial" font-size="15" font-weight="normal" opacity="100" transform="rotate(90.0 636.0,-33.0) translate(0 15)" x="636.0" y="-33.0">&lt;&lt; улица Героев Днепра</text><text fill="#00AFAF" font-family="Arial" font-size="15" font-weight="normal" opacity="100" transform="rotate(-0.0 1007.0,489.0) translate(0 15)" x="1007.0" y="489.0">&lt;&lt; Оболонский проспект</text><text fill="#00AFAF" font-family="Arial" font-size="15" font-weight="normal" opacity="100" transform="rotate(-0.0 1006.0,666.0) translate(0 15)" x="1006.0" y="666.0">Оболонский проспект &gt;&gt;</text><text fill="#00AFAF" font-family="Arial" font-size="15" font-weight="normal" opacity="100" transform="rotate(-0.0 41.0,686.0) translate(0 15)" x="41.0" y="686.0">Оболонский проспект &gt;&gt;</text><text fill="#00AFAF" font-family="Arial" font-size="15" font-weight="normal" opacity="100" transform="rotate(-0.0 42.0,467.0) translate(0 15)" x="42.0" y="467.0">&lt;&lt; Оболонский проспект</text><text fill="#FFF" font-family="Arial" font-size="15" font-weight="normal" opacity="100" transform="rotate(90.0 869.0,1010.0) translate(0 15)" x="869.0" y="1010.0">Рынок "Оболонь"</text><polyline fill="none" opacity="100" points="322.0,512.0 323.9609,490.5781 326.7188,470.0625 330.2688,450.4558 334.625,431.75 339.8152,413.929 345.793,397.0195 352.5444,381.0298 360.0,366.0 368.0298,352.0054 376.8008,338.9492 386.4426,326.7585 396.9375,315.4375 408.2312,305.0051 420.5625,295.3438 434.0234,286.4062 449.0,278.0 466.1719,269.7891 484.75,262.1562 504.2397,255.3496 524.4375,249.4375 544.9907,244.5332 565.8516,240.75 586.9307,238.1562 608.0,237.0 628.8037,237.6641 649.3359,239.8125 669.5247,243.2673 689.3125,247.9375 708.7156,253.6174 727.4414,260.4727 745.3169,268.5513 762.0,278.0 776.9448,289.1323 790.5898,301.4961 803.1746,314.78 814.75,328.875 825.4719,343.6321 835.2656,358.8594 844.0957,374.4316 852.0,390.0 859.0137,405.0371 865.1094,419.9531 870.2725,434.9678 874.5,450.125 877.7822,465.5713 880.125,481.2188 881.5312,497.0234 882.0,513.0" stroke="#000" stroke-width="2" /><polyline fill="none" opacity="100" points="321.0,648.0 321.9141,666.8438 323.7812,685.125 326.6008,702.8484 330.375,720.0 335.1082,736.552 340.793,752.5508 347.4272,768.0103 355.0,783.0 363.4907,797.6499 372.9258,811.793 383.3408,825.3259 394.6875,838.1875 406.8662,850.2737 420.0664,861.6094 434.3481,872.1816 450.0,882.0 467.5542,891.123 486.3398,899.3906 505.9238,906.6719 526.125,912.9375 546.6504,918.1797 567.4023,922.2031 588.2729,924.9082 609.0,926.0 629.2544,924.9902 649.1289,922.3594 668.6194,918.3914 687.6875,913.1875 706.3748,906.9543 724.4375,899.6602 741.7305,891.3169 758.0,882.0 772.8398,871.7729 786.5625,860.6836 799.3342,848.7898 811.1875,836.125 822.2341,822.7004 832.4023,808.6406 841.6558,794.0215 850.0,779.0 857.4263,763.8223 863.9414,748.2969 869.5491,732.3213 874.25,715.875 878.0466,698.8896 880.9375,681.4062 882.9219,663.4453 884.0,645.0" stroke="#000" stroke-width="2" /><polyline fill="none" opacity="100" points="627.0,1017.0 628.1172,1007.1172 629.8438,997.5938 632.1797,988.4297 635.125,979.625 638.6797,971.1797 642.8438,963.0938 647.6172,955.3672 653.0,948.0 658.9922,940.9922 665.5938,934.3438 672.8047,928.0547 680.625,922.125 689.0547,916.5547 698.0938,911.3438 707.7422,906.4922 718.0,902.0" stroke="#000" stroke-width="2" /><polyline fill="none" opacity="100" points="483.0,898.0 494.5703,904.4375 505.4062,911.0 515.5078,917.6875 524.875,924.5 533.5078,931.4375 541.4062,938.5 548.5703,945.6875 555.0,953.0 560.6953,960.4375 565.6562,968.0 569.8828,975.6875 573.375,983.5 576.1328,991.4375 578.1562,999.5 579.4453,1007.6875 580.0,1016.0" stroke="#000" stroke-width="2" /><polyline fill="none" opacity="100" points="578.0,142.0 577.5938,152.0391 576.375,161.7812 574.3438,171.2266 571.5,180.375 567.8438,189.2266 563.375,197.7812 558.0938,206.0391 552.0,214.0 545.0938,221.6641 537.375,229.0312 528.8438,236.1016 519.5,242.875 509.3438,249.3516 498.375,255.5312 486.5938,261.4141 474.0,267.0" stroke="#000" stroke-width="2" /><polyline fill="none" opacity="100" points="734.0,264.0 721.3906,257.9609 709.5625,251.7188 698.5156,245.2734 688.25,238.625 678.7656,231.7734 670.0625,224.7188 662.1406,217.4609 655.0,210.0 648.6406,202.3359 643.0625,194.4688 638.2656,186.3984 634.25,178.125 631.0156,169.6484 628.5625,160.9688 626.8906,152.0859 626.0,143.0" stroke="#000" stroke-width="2" /><polyline fill="none" opacity="100" points="861.0,755.0 866.2891,744.6641 872.0312,735.0312 878.2266,726.1016 884.875,717.875 891.9766,710.3516 899.5312,703.5312 907.5391,697.4141 916.0,692.0 924.9141,687.2891 934.2812,683.2812 944.1016,679.9766 954.375,677.375 965.1016,675.4766 976.2812,674.2812 987.9141,673.7891 1000.0,674.0" stroke="#000" stroke-width="2" /><polyline fill="none" opacity="100" points="862.0,413.0 867.5234,423.1172 873.4688,432.5938 879.8359,441.4297 886.625,449.625 893.8359,457.1797 901.4688,464.0938 909.5234,470.3672 918.0,476.0 926.8984,480.9922 936.2188,485.3438 945.9609,489.0547 956.125,492.125 966.7109,494.5547 977.7188,496.3438 989.1484,497.4922 1001.0,498.0" stroke="#000" stroke-width="2" /><polyline fill="none" opacity="100" points="350.0,387.0 344.1172,397.0078 337.8438,406.4062 331.1797,415.1953 324.125,423.375 316.6797,430.9453 308.8438,437.9062 300.6172,444.2578 292.0,450.0 282.9922,455.1328 273.5938,459.6562 263.8047,463.5703 253.625,466.875 243.0547,469.5703 232.0938,471.6562 220.7422,473.1328 209.0,474.0" stroke="#000" stroke-width="2" /><polyline fill="none" opacity="100" points="346.0,766.0 341.1797,756.6875 335.8438,748.0 329.9922,739.9375 323.625,732.5 316.7422,725.6875 309.3438,719.5 301.4297,713.9375 293.0,709.0 284.0547,704.6875 274.5938,701.0 264.6172,697.9375 254.125,695.5 243.1172,693.6875 231.5938,692.5 219.5547,691.9375 207.0,692.0" stroke="#000" stroke-width="2" /><polyline fill="none" opacity="100" points="606.0,919.0 616.0,926.0 607.0,933.0" stroke="#000" stroke-width="2" /><polyline fill="none" opacity="100" points="611.0,229.0 602.0,237.0 611.0,244.0" stroke="#000" stroke-width="2" /><text fill="#FFF" font-family="Arial" font-size="24" font-weight="bold" opacity="100" transform="rotate(90.0 744.0,22.0) translate(0 24)" x="744.0" y="22.0">Тр</text></g></g></svg>