<?xml version="1.0" encoding="utf-8" ?>
<svg baseProfile="tiny" height="700px" version="1.2" width="754px" xmlns="http://www.w3.org/2000/svg" xmlns:ev="http://www.w3.org/2001/xml-events" xmlns:xlink="http://www.w3.org/1999/xlink"><defs /><g><g transform="rotate(-20.0,377.0,350.0)"><polygon fill="#F5F5F5" opacity="100" points="305.0,326.0 305.0,-48.0 271.0,-61.0 271.0,326.0 -16.0,326.0 -36.0,380.0 767.0,380.0 787.0,326.0" stroke="#F5F5F5" stroke-width="1" /><polyline fill="none" opacity="100" points="638.0,577.0 641.0,577.0 641.0,381.0" stroke="#000" stroke-width="1" /><polyline fill="none" opacity="100" points="617.0,381.0 617.0,577.0 620.0,577.0" stroke="#000" stroke-width="1" /><polyline fill="none" opacity="100" points="638.0,272.0 641.0,272.0 641.0,325.0" stroke="#000" stroke-width="1" /><polyline fill="none" opacity="100" points="617.0,325.0 617.0,272.0 620.0,272.0" stroke="#000" stroke-width="1" /><polyline fill="none" opacity="100" points="617.0,327.0 617.0,379.0" stroke="#D0D0D0" stroke-width="1" /><polyline fill="none" opacity="100" points="641.0,327.0 641.0,379.0" stroke="#D0D0D0" stroke-width="1" /><polygon fill="#C33" opacity="100" points="63.0,439.0 63.0,409.0 513.0,409.0 513.0,439.0" stroke="#000" stroke-width="1" /><polygon fill="#C33" opacity="100" points="63.0,519.0 63.0,549.0 513.0,549.0 513.0,519.0" stroke="#000" stroke-width="1" /><text fill="#C33" font-family="Arial" font-size="20" font-weight="normal" opacity="100" transform="rotate(-0.0 63.0,385.0) translate(0 20)" x="63.0" y="385.0">&lt;&lt; Днепр</text><text fill="#C33" font-family="Arial" font-size="20" font-weight="normal" opacity="100" transform="rotate(-0.0 354.0,549.0) translate(0 20)" x="354.0" y="549.0">Левобережная &gt;&gt;</text><text fill="#C33" font-family="Arial" font-size="25" font-weight="bold" opacity="100" transform="rotate(-0.0 247.0,460.0) translate(0 25)" x="247.0" y="460.0">Гидропарк</text><polyline fill="none" opacity="100" points="63.0,439.0 63.0,452.0 156.0,452.0 156.0,457.0 43.0,457.0 43.0,381.0" stroke="#000" stroke-width="1" /><polyline fill="none" opacity="100" points="1.0,315.0 -3.0,315.0 -3.0,325.0" stroke="#000" stroke-width="1" /><polyline fill="none" opacity="100" points="-3.0,381.0 -3.0,577.0 1.0,577.0" stroke="#000" stroke-width="1" /><polyline fill="none" opacity="100" points="43.0,325.0 43.0,315.0 39.0,315.0" stroke="#000" stroke-width="1" /><polyline fill="none" opacity="100" points="39.0,577.0 43.0,577.0 43.0,501.0 156.0,501.0 156.0,506.0 63.0,506.0 63.0,519.0" stroke="#000" stroke-width="1" /><polyline fill="none" opacity="100" points="77.0,501.0 77.0,457.0" stroke="#000" stroke-width="1" /><polyline fill="none" opacity="100" points="73.0,501.0 73.0,457.0" stroke="#000" stroke-width="1" /><polyline fill="none" opacity="100" points="69.0,501.0 69.0,457.0" stroke="#000" stroke-width="1" /><polyline fill="none" opacity="100" points="65.0,501.0 65.0,457.0" stroke="#000" stroke-width="1" /><polyline fill="none" opacity="100" points="61.0,501.0 61.0,457.0" stroke="#000" stroke-width="1" /><polyline fill="none" opacity="100" points="57.0,501.0 57.0,457.0" stroke="#000" stroke-width="1" /><polyline fill="none" opacity="100" points="149.0,457.0 149.0,501.0" stroke="#000" stroke-width="1" /><polyline fill="none" opacity="100" points="145.0,457.0 145.0,501.0" stroke="#000" stroke-width="1" /><polyline fill="none" opacity="100" points="141.0,457.0 141.0,501.0" stroke="#000" stroke-width="1" /><polyline fill="none" opacity="100" points="137.0,457.0 137.0,501.0" stroke="#000" stroke-width="1" /><polyline fill="none" opacity="100" points="133.0,457.0 133.0,501.0" stroke="#000" stroke-width="1" /><polyline fill="none" opacity="100" points="129.0,457.0 129.0,501.0" stroke="#000" stroke-width="1" /><polygon fill="#D0D0D0" opacity="100" points="43.0,477.0 52.0,477.0 52.0,481.0 43.0,481.0" stroke="#000" stroke-width="1" /><polygon fill="#D0D0D0" opacity="100" points="81.0,457.0 81.0,468.0 113.0,468.0 113.0,457.0" stroke="#000" stroke-width="1" /><polyline fill="none" opacity="100" points="-3.0,327.0 -3.0,379.0" stroke="#D0D0D0" stroke-width="1" /><polyline fill="none" opacity="100" points="43.0,327.0 43.0,379.0" stroke="#D0D0D0" stroke-width="1" /><polygon fill="#FFF" opacity="100" points="84.0,460.0 84.0,468.0 110.0,468.0 110.0,460.0" stroke="#000" stroke-width="1" /><text fill="#000" font-family="Arial" font-size="10" font-weight="normal" opacity="100" transform="rotate(-0.0 85.0,457.0) translate(0 10)" x="85.0" y="457.0">кассы</text><polyline fill="none" opacity="100" points="118.0,481.0 122.0,481.0" stroke="#090" stroke-width="1" /><polyline fill="none" opacity="100" points="118.0,485.0 122.0,485.0" stroke="#090" stroke-width="1" /><polyline fill="none" opacity="100" points="118.0,489.0 122.0,489.0" stroke="#090" stroke-width="1" /><polyline fill="none" opacity="100" points="118.0,493.0 122.0,493.0" stroke="#090" stroke-width="1" /><polyline fill="none" opacity="100" points="118.0,497.0 122.0,497.0" stroke="#090" stroke-width="1" /><polyline fill="none" opacity="100" points="118.0,461.0 122.0,461.0" stroke="#F00" stroke-width="1" /><polyline fill="none" opacity="100" points="118.0,465.0 122.0,465.0" stroke="#F00" stroke-width="1" /><polyline fill="none" opacity="100" points="118.0,469.0 122.0,469.0" stroke="#F00" stroke-width="1" /><polyline fill="none" opacity="100" points="118.0,473.0 122.0,473.0" stroke="#F00" stroke-width="1" /><polyline fill="none" opacity="100" points="118.0,477.0 122.0,477.0" stroke="#F00" stroke-width="1" /><polyline fill="none" opacity="100" points="513.0,439.0 513.0,452.0 421.0,452.0 421.0,457.0 529.0,457.0 529.0,447.0 580.0,447.0 580.0,272.0 460.0,272.0 460.0,174.0 538.0,174.0 566.0,202.0 612.0,202.0 612.0,648.0 587.0,648.0 587.0,645.0" stroke="#000" stroke-width="1" /><polyline fill="none" opacity="100" points="569.0,645.0 569.0,648.0 566.0,648.0 538.0,676.0 525.0,676.0 525.0,673.0" stroke="#000" stroke-width="1" /><polyline fill="none" opacity="100" points="507.0,673.0 507.0,676.0 504.0,676.0 484.0,696.0 460.0,696.0 460.0,615.0 394.0,615.0 394.0,577.0 580.0,577.0 580.0,513.0 529.0,513.0 529.0,501.0 421.0,501.0 421.0,506.0 513.0,506.0 513.0,519.0" stroke="#000" stroke-width="1" /><polyline fill="none" opacity="100" points="428.0,501.0 428.0,457.0" stroke="#000" stroke-width="1" /><polyline fill="none" opacity="100" points="432.0,501.0 432.0,457.0" stroke="#000" stroke-width="1" /><polyline fill="none" opacity="100" points="436.0,501.0 436.0,457.0" stroke="#000" stroke-width="1" /><polyline fill="none" opacity="100" points="440.0,501.0 440.0,457.0" stroke="#000" stroke-width="1" /><polyline fill="none" opacity="100" points="444.0,501.0 444.0,457.0" stroke="#000" stroke-width="1" /><polyline fill="none" opacity="100" points="448.0,501.0 448.0,457.0" stroke="#000" stroke-width="1" /><polyline fill="none" opacity="100" points="470.0,457.0 470.0,501.0" stroke="#000" stroke-width="1" /><polyline fill="none" opacity="100" points="474.0,457.0 474.0,501.0" stroke="#000" stroke-width="1" /><polyline fill="none" opacity="100" points="478.0,457.0 478.0,501.0" stroke="#000" stroke-width="1" /><polyline fill="none" opacity="100" points="482.0,457.0 482.0,501.0" stroke="#000" stroke-width="1" /><polyline fill="none" opacity="100" points="486.0,457.0 486.0,501.0" stroke="#000" stroke-width="1" /><polyline fill="none" opacity="100" points="490.0,457.0 490.0,501.0" stroke="#000" stroke-width="1" /><polygon fill="#FFF" opacity="100" points="551.0,513.0 551.0,521.0 577.0,521.0 577.0,513.0" stroke="#000" stroke-width="1" /><text fill="#000" font-family="Arial" font-size="10" font-weight="normal" opacity="100" transform="rotate(-0.0 552.0,510.0) translate(0 10)" x="552.0" y="510.0">кассы</text><polyline fill="none" opacity="100" points="536.0,475.0 536.0,484.0" stroke="#000" stroke-width="0.5" /><polyline fill="none" opacity="100" points="534.0,485.0 537.0,484.0" stroke="#090" stroke-width="1" /><polyline fill="none" opacity="100" points="535.3453,488.767 538.3453,487.767" stroke="#090" stroke-width="1" /><polyline fill="none" opacity="100" points="536.6907,492.5339 539.6907,491.5339" stroke="#090" stroke-width="1" /><polyline fill="none" opacity="100" points="538.036,496.3009 541.036,495.3009" stroke="#090" stroke-width="1" /><polyline fill="none" opacity="100" points="539.3814,500.0679 542.3814,499.0679" stroke="#090" stroke-width="1" /><polyline fill="none" opacity="100" points="540.7267,503.8348 543.7267,502.8348" stroke="#090" stroke-width="1" /><polyline fill="none" opacity="100" points="542.0721,507.6018 545.0721,506.6018" stroke="#090" stroke-width="1" /><polyline fill="none" opacity="100" points="543.4174,511.3688 546.4174,510.3688" stroke="#090" stroke-width="1" /><polyline fill="none" opacity="100" points="544.0,448.0 547.0,449.0" stroke="#F00" stroke-width="1" /><polyline fill="none" opacity="100" points="542.6107,451.751 545.6107,452.751" stroke="#F00" stroke-width="1" /><polyline fill="none" opacity="100" points="541.2215,455.502 544.2215,456.502" stroke="#F00" stroke-width="1" /><polyline fill="none" opacity="100" points="539.8322,459.253 542.8322,460.253" stroke="#F00" stroke-width="1" /><polyline fill="none" opacity="100" points="538.443,463.004 541.443,464.004" stroke="#F00" stroke-width="1" /><polyline fill="none" opacity="100" points="537.0537,466.755 540.0537,467.755" stroke="#F00" stroke-width="1" /><polyline fill="none" opacity="100" points="535.6645,470.506 538.6645,471.506" stroke="#F00" stroke-width="1" /><polyline fill="none" opacity="100" points="534.2752,474.257 537.2752,475.257" stroke="#F00" stroke-width="1" /><polyline fill="none" opacity="100" points="579.0,635.0 579.0,654.0" stroke="#F00" stroke-width="1" /><polygon fill="#F00" opacity="100" points="577.5247,648.4942 579.0,654.0 580.4753,648.4942" stroke="#F00" stroke-width="1" /><polyline fill="none" opacity="100" points="516.0,679.0 516.0,660.0" stroke="#090" stroke-width="1" /><polygon fill="#090" opacity="100" points="517.4753,665.5058 516.0,660.0 514.5247,665.5058" stroke="#090" stroke-width="1" /><text fill="#00AFAF" font-family="Arial" font-size="15" font-weight="normal" opacity="100" transform="rotate(-0.0 451.0,72.0) translate(0 15)" x="451.0" y="72.0">Парк "Киев в миниатюре" &gt;&gt;</text><polygon fill="#FFD0D0" opacity="0.7" points="458.0,172.0 614.0,172.0 614.0,445.0 578.0,445.0 578.0,274.0 458.0,274.0" stroke="#FFD0D0" stroke-width="1" /><text fill="#FF4040" font-family="Arial" font-size="15" font-weight="normal" opacity="1.0" transform="rotate(-0.0 507.0,224.0) translate(0 15)" x="507.0" y="224.0">закрыто</text><polyline fill="none" opacity="1.0" points="458.0,172.0 614.0,172.0 614.0,445.0 578.0,445.0 578.0,274.0 458.0,274.0 458.0,172.0" stroke="#000" stroke-dasharray="5,5" stroke-width="1" /></g></g></svg>