<?xml version="1.0" encoding="utf-8" ?>
<svg baseProfile="tiny" height="730px" version="1.2" width="710px" xmlns="http://www.w3.org/2000/svg" xmlns:ev="http://www.w3.org/2001/xml-events" xmlns:xlink="http://www.w3.org/1999/xlink"><defs /><g><g transform="rotate(50.0,355.0,365.0)"><polyline fill="none" opacity="100" points="-398.0,548.0 19.0,353.0 70.0,265.0 196.0,-206.0" stroke="#F5F5F5" stroke-width="40" /><polyline fill="none" opacity="100" points="670.0,610.0 167.0,320.0 70.0,265.0" stroke="#F5F5F5" stroke-width="30" /><polygon fill="#393" opacity="100" points="314.0,384.0 314.0,414.0 764.0,414.0 764.0,384.0" stroke="#000" stroke-width="1" /><polygon fill="#393" opacity="100" points="314.0,304.0 314.0,274.0 764.0,274.0 764.0,304.0" stroke="#000" stroke-width="1" /><text fill="#393" font-family="Arial" font-size="25" font-weight="bold" opacity="100" transform="rotate(-0.0 455.0,329.0) translate(0 25)" x="455.0" y="329.0">Кловская</text><text fill="#393" font-family="Arial" font-size="20" font-weight="normal" opacity="100" transform="rotate(-0.0 645.0,414.0) translate(0 20)" x="645.0" y="414.0">Печерская &gt;&gt;</text><text fill="#393" font-family="Arial" font-size="20" font-weight="normal" opacity="100" transform="rotate(-0.0 314.0,249.0) translate(0 20)" x="314.0" y="249.0">&lt;&lt; Дворец спорта</text><polyline fill="none" opacity="100" points="764.0,384.0 764.0,374.0 629.0,374.0 629.0,365.0 655.0,365.0 655.0,323.0 629.0,323.0 629.0,315.0 764.0,315.0 764.0,304.0" stroke="#000" stroke-width="1" /><polyline fill="none" opacity="100" points="318.0,363.0 331.0,363.0 331.0,360.0 348.0,360.0 348.0,363.0 352.0,363.0 352.0,373.0 314.0,373.0 314.0,384.0" stroke="#000" stroke-width="1" /><polyline fill="none" opacity="100" points="314.0,304.0 314.0,315.0 352.0,315.0 352.0,325.0 348.0,325.0 348.0,328.0 331.0,328.0 331.0,325.0 318.0,325.0" stroke="#000" stroke-width="1" /><polyline fill="none" opacity="100" points="124.0,294.0 116.0,308.0 109.0,304.0 113.0,297.0 126.0,248.0" stroke="#000" stroke-width="1" /><polyline fill="none" opacity="100" points="111.0,244.0 98.0,291.0 94.0,298.0 23.0,257.0 -13.0,321.0" stroke="#000" stroke-width="1" /><polyline fill="none" opacity="100" points="1.0,329.0 27.0,284.0 83.0,316.0 55.0,366.0 2.0,391.0" stroke="#000" stroke-width="1" /><polyline fill="none" opacity="100" points="9.0,406.0 65.0,380.0 75.0,362.0 82.0,366.0 75.0,378.0" stroke="#000" stroke-width="1" /><polyline fill="none" opacity="100" points="124.0,294.0 127.1328,294.8828 130.1562,295.9062 133.0703,297.0703 135.875,298.375 138.5703,299.8203 141.1562,301.4062 143.6328,303.1328 146.0,305.0 148.2578,307.0078 150.4062,309.1562 152.4453,311.4453 154.375,313.875 156.1953,316.4453 157.9062,319.1562 159.5078,322.0078 161.0,325.0" stroke="#000" stroke-width="1" /><polyline fill="none" opacity="100" points="75.0,378.0 78.5859,381.2031 82.2188,384.0625 85.9016,386.5774 89.625,388.75 93.3699,390.5847 97.168,392.0742 101.0288,393.2163 105.0,394.0 109.1704,394.4048 113.4258,394.457 117.6899,394.1743 121.9375,393.5625 126.1304,392.6304 130.2305,391.3867 134.2124,389.8374 138.0,388.0 141.479,385.9009 144.7383,383.5195 147.8254,380.845 150.75,377.875 153.5437,374.6023 156.1875,371.0312 158.6719,367.1641 161.0,363.0" stroke="#000" stroke-width="1" /><polyline fill="none" opacity="100" points="111.0,244.0 126.0,248.0" stroke="#000" stroke-width="1" /><polyline fill="none" opacity="100" points="109.9693,247.8649 124.9693,251.8649" stroke="#000" stroke-width="1" /><polyline fill="none" opacity="100" points="108.9387,251.7299 123.9387,255.7299" stroke="#000" stroke-width="1" /><polyline fill="none" opacity="100" points="107.908,255.5948 122.908,259.5948" stroke="#000" stroke-width="1" /><polyline fill="none" opacity="100" points="106.8774,259.4598 121.8774,263.4598" stroke="#000" stroke-width="1" /><polyline fill="none" opacity="100" points="105.8467,263.3247 120.8467,267.3247" stroke="#000" stroke-width="1" /><polyline fill="none" opacity="100" points="104.8161,267.1896 119.8161,271.1896" stroke="#000" stroke-width="1" /><polyline fill="none" opacity="100" points="103.7854,271.0546 118.7854,275.0546" stroke="#000" stroke-width="1" /><polyline fill="none" opacity="100" points="102.7548,274.9195 117.7548,278.9195" stroke="#000" stroke-width="1" /><polyline fill="none" opacity="100" points="101.7241,278.7845 116.7241,282.7845" stroke="#000" stroke-width="1" /><polyline fill="none" opacity="100" points="100.6935,282.6494 115.6935,286.6494" stroke="#000" stroke-width="1" /><polyline fill="none" opacity="100" points="99.6628,286.5143 114.6628,290.5143" stroke="#000" stroke-width="1" /><polyline fill="none" opacity="100" points="2.0,391.0 9.0,406.0" stroke="#000" stroke-width="1" /><polyline fill="none" opacity="100" points="5.6269,389.3131 12.6269,404.3131" stroke="#000" stroke-width="1" /><polyline fill="none" opacity="100" points="9.2538,387.6262 16.2538,402.6262" stroke="#000" stroke-width="1" /><polyline fill="none" opacity="100" points="12.8807,385.9392 19.8807,400.9392" stroke="#000" stroke-width="1" /><polyline fill="none" opacity="100" points="16.5075,384.2523 23.5075,399.2523" stroke="#000" stroke-width="1" /><polyline fill="none" opacity="100" points="20.1344,382.5654 27.1344,397.5654" stroke="#000" stroke-width="1" /><polyline fill="none" opacity="100" points="23.7613,380.8785 30.7613,395.8785" stroke="#000" stroke-width="1" /><polyline fill="none" opacity="100" points="27.3882,379.1915 34.3882,394.1915" stroke="#000" stroke-width="1" /><polyline fill="none" opacity="100" points="31.0151,377.5046 38.0151,392.5046" stroke="#000" stroke-width="1" /><polyline fill="none" opacity="100" points="34.642,375.8177 41.642,390.8177" stroke="#000" stroke-width="1" /><polyline fill="none" opacity="100" points="38.2688,374.1308 45.2688,389.1308" stroke="#000" stroke-width="1" /><polyline fill="none" opacity="100" points="41.8957,372.4438 48.8957,387.4438" stroke="#000" stroke-width="1" /><polyline fill="none" opacity="100" points="2.0,327.0 -12.0,319.0" stroke="#000" stroke-width="1" /><polyline fill="none" opacity="100" points="3.9939,323.5324 -10.0061,315.5324" stroke="#000" stroke-width="1" /><polyline fill="none" opacity="100" points="5.9878,320.0647 -8.0122,312.0647" stroke="#000" stroke-width="1" /><polyline fill="none" opacity="100" points="7.9817,316.5971 -6.0183,308.5971" stroke="#000" stroke-width="1" /><polyline fill="none" opacity="100" points="9.9755,313.1295 -4.0245,305.1295" stroke="#000" stroke-width="1" /><polyline fill="none" opacity="100" points="11.9694,309.6619 -2.0306,301.6619" stroke="#000" stroke-width="1" /><polyline fill="none" opacity="100" points="13.9633,306.1942 -0.0367,298.1942" stroke="#000" stroke-width="1" /><polyline fill="none" opacity="100" points="15.9572,302.7266 1.9572,294.7266" stroke="#000" stroke-width="1" /><polyline fill="none" opacity="100" points="17.9511,299.259 3.9511,291.259" stroke="#000" stroke-width="1" /><polyline fill="none" opacity="100" points="19.945,295.7914 5.945,287.7914" stroke="#000" stroke-width="1" /><polyline fill="none" opacity="100" points="21.9388,292.3237 7.9388,284.3237" stroke="#000" stroke-width="1" /><polyline fill="none" opacity="100" points="23.9327,288.8561 9.9327,280.8561" stroke="#000" stroke-width="1" /><polygon fill="#D0D0D0" opacity="100" points="87.0,342.0 94.0,346.0 105.0,327.0 98.0,323.0" stroke="#000" stroke-width="1" /><polyline fill="none" opacity="100" points="152.0,360.0 152.0,328.0" stroke="#7F7F7F" stroke-width="1" /><polyline fill="none" opacity="100" points="156.0,360.0 156.0,328.0" stroke="#7F7F7F" stroke-width="1" /><polyline fill="none" opacity="100" points="160.0,360.0 160.0,328.0" stroke="#7F7F7F" stroke-width="1" /><polyline fill="none" opacity="100" points="164.0,360.0 164.0,328.0" stroke="#7F7F7F" stroke-width="1" /><polyline fill="none" opacity="100" points="168.0,360.0 168.0,328.0" stroke="#7F7F7F" stroke-width="1" /><polyline fill="none" opacity="100" points="172.0,360.0 172.0,328.0" stroke="#7F7F7F" stroke-width="1" /><polyline fill="none" opacity="100" points="176.0,360.0 176.0,328.0" stroke="#7F7F7F" stroke-width="1" /><polyline fill="none" opacity="100" points="180.0,360.0 180.0,328.0" stroke="#7F7F7F" stroke-width="1" /><polyline fill="none" opacity="100" points="184.0,360.0 184.0,328.0" stroke="#7F7F7F" stroke-width="1" /><polyline fill="none" opacity="100" points="188.0,360.0 188.0,328.0" stroke="#7F7F7F" stroke-width="1" /><polyline fill="none" opacity="100" points="192.0,360.0 192.0,328.0" stroke="#7F7F7F" stroke-width="1" /><polyline fill="none" opacity="100" points="196.0,360.0 196.0,328.0" stroke="#7F7F7F" stroke-width="1" /><polyline fill="none" opacity="100" points="200.0,360.0 200.0,328.0" stroke="#7F7F7F" stroke-width="1" /><polyline fill="none" opacity="100" points="204.0,360.0 204.0,328.0" stroke="#7F7F7F" stroke-width="1" /><polyline fill="none" opacity="100" points="208.0,360.0 208.0,328.0" stroke="#7F7F7F" stroke-width="1" /><polyline fill="none" opacity="100" points="212.0,360.0 212.0,328.0" stroke="#7F7F7F" stroke-width="1" /><polyline fill="none" opacity="100" points="216.0,360.0 216.0,328.0" stroke="#7F7F7F" stroke-width="1" /><polyline fill="none" opacity="100" points="220.0,360.0 220.0,328.0" stroke="#7F7F7F" stroke-width="1" /><polyline fill="none" opacity="100" points="224.0,360.0 224.0,328.0" stroke="#7F7F7F" stroke-width="1" /><polyline fill="none" opacity="100" points="228.0,360.0 228.0,328.0" stroke="#7F7F7F" stroke-width="1" /><polyline fill="none" opacity="100" points="232.0,360.0 232.0,328.0" stroke="#7F7F7F" stroke-width="1" /><polyline fill="none" opacity="100" points="236.0,360.0 236.0,328.0" stroke="#7F7F7F" stroke-width="1" /><polyline fill="none" opacity="100" points="240.0,360.0 240.0,328.0" stroke="#7F7F7F" stroke-width="1" /><polyline fill="none" opacity="100" points="244.0,360.0 244.0,328.0" stroke="#7F7F7F" stroke-width="1" /><polyline fill="none" opacity="100" points="248.0,360.0 248.0,328.0" stroke="#7F7F7F" stroke-width="1" /><polyline fill="none" opacity="100" points="252.0,360.0 252.0,328.0" stroke="#7F7F7F" stroke-width="1" /><polyline fill="none" opacity="100" points="256.0,360.0 256.0,328.0" stroke="#7F7F7F" stroke-width="1" /><polyline fill="none" opacity="100" points="260.0,360.0 260.0,328.0" stroke="#7F7F7F" stroke-width="1" /><polyline fill="none" opacity="100" points="264.0,360.0 264.0,328.0" stroke="#7F7F7F" stroke-width="1" /><polyline fill="none" opacity="100" points="268.0,360.0 268.0,328.0" stroke="#7F7F7F" stroke-width="1" /><polyline fill="none" opacity="100" points="272.0,360.0 272.0,328.0" stroke="#7F7F7F" stroke-width="1" /><polyline fill="none" opacity="100" points="276.0,360.0 276.0,328.0" stroke="#7F7F7F" stroke-width="1" /><polyline fill="none" opacity="100" points="280.0,360.0 280.0,328.0" stroke="#7F7F7F" stroke-width="1" /><polyline fill="none" opacity="100" points="284.0,360.0 284.0,328.0" stroke="#7F7F7F" stroke-width="1" /><polyline fill="none" opacity="100" points="288.0,360.0 288.0,328.0" stroke="#7F7F7F" stroke-width="1" /><polyline fill="none" opacity="100" points="292.0,360.0 292.0,328.0" stroke="#7F7F7F" stroke-width="1" /><polyline fill="none" opacity="100" points="296.0,360.0 296.0,328.0" stroke="#7F7F7F" stroke-width="1" /><polyline fill="none" opacity="100" points="300.0,360.0 300.0,328.0" stroke="#7F7F7F" stroke-width="1" /><polyline fill="none" opacity="100" points="304.0,360.0 304.0,328.0" stroke="#7F7F7F" stroke-width="1" /><polyline fill="none" opacity="100" points="308.0,360.0 308.0,328.0" stroke="#7F7F7F" stroke-width="1" /><polyline fill="none" opacity="100" points="312.0,360.0 312.0,328.0" stroke="#7F7F7F" stroke-width="1" /><polygon fill="#9B5509" opacity="100" points="318.0,363.0 318.0,360.0 148.0,360.0 148.0,363.0" stroke="#000" stroke-width="1" /><polygon fill="#9B5509" opacity="100" points="318.0,325.0 318.0,328.0 148.0,328.0 148.0,325.0" stroke="#000" stroke-width="1" /><polygon fill="#9B5509" opacity="100" points="318.0,352.0 318.0,348.0 148.0,348.0 148.0,352.0" stroke="#000" stroke-width="1" /><polygon fill="#9B5509" opacity="100" points="318.0,336.0 318.0,340.0 148.0,340.0 148.0,336.0" stroke="#000" stroke-width="1" /><polygon fill="none" opacity="100" points="127.0,343.0 133.0,343.0 133.0,349.0 127.0,349.0" stroke="#000" stroke-width="1" /><polyline fill="none" opacity="100" points="127.0,353.0 132.0,353.0" stroke="#090" stroke-width="1" /><polyline fill="none" opacity="100" points="127.0,357.0 132.0,357.0" stroke="#090" stroke-width="1" /><polyline fill="none" opacity="100" points="127.0,361.0 132.0,361.0" stroke="#090" stroke-width="1" /><polyline fill="none" opacity="100" points="127.0,365.0 132.0,365.0" stroke="#090" stroke-width="1" /><polyline fill="none" opacity="100" points="127.0,369.0 132.0,369.0" stroke="#090" stroke-width="1" /><polyline fill="none" opacity="100" points="127.0,373.0 132.0,373.0" stroke="#090" stroke-width="1" /><polyline fill="none" opacity="100" points="127.0,377.0 132.0,377.0" stroke="#090" stroke-width="1" /><polyline fill="none" opacity="100" points="127.0,381.0 132.0,381.0" stroke="#090" stroke-width="1" /><polyline fill="none" opacity="100" points="127.0,385.0 132.0,385.0" stroke="#090" stroke-width="1" /><polyline fill="none" opacity="100" points="127.0,389.0 132.0,389.0" stroke="#090" stroke-width="1" /><polyline fill="none" opacity="100" points="127.0,339.0 132.0,339.0" stroke="#F00" stroke-width="1" /><polyline fill="none" opacity="100" points="127.0,335.0 132.0,335.0" stroke="#F00" stroke-width="1" /><polyline fill="none" opacity="100" points="127.0,331.0 132.0,331.0" stroke="#F00" stroke-width="1" /><polyline fill="none" opacity="100" points="127.0,327.0 132.0,327.0" stroke="#F00" stroke-width="1" /><polyline fill="none" opacity="100" points="127.0,323.0 132.0,323.0" stroke="#F00" stroke-width="1" /><polyline fill="none" opacity="100" points="127.0,319.0 132.0,319.0" stroke="#F00" stroke-width="1" /><polyline fill="none" opacity="100" points="127.0,315.0 132.0,315.0" stroke="#F00" stroke-width="1" /><polyline fill="none" opacity="100" points="127.0,311.0 132.0,311.0" stroke="#F00" stroke-width="1" /><polyline fill="none" opacity="100" points="127.0,307.0 132.0,307.0" stroke="#F00" stroke-width="1" /><polyline fill="none" opacity="100" points="127.0,303.0 132.0,303.0" stroke="#F00" stroke-width="1" /><polyline fill="none" opacity="100" points="127.0,299.0 132.0,299.0" stroke="#F00" stroke-width="1" /><polyline fill="none" opacity="100" points="89.0,389.0 87.0,397.0 109.0,403.0 111.0,395.0" stroke="#000" stroke-width="1" /><text fill="#000" font-family="Arial" font-size="8" font-weight="normal" opacity="100" transform="rotate(15.0 91.0,389.0) translate(0 8)" x="91.0" y="389.0">кассы</text><polyline fill="none" opacity="100" points="349.0,336.0 331.0,336.0" stroke="#F00" stroke-width="1" /><polygon fill="#F00" opacity="100" points="336.216,334.6024 331.0,336.0 336.216,337.3976" stroke="#F00" stroke-width="1" /><polyline fill="none" opacity="100" points="113.0,318.0 101.0,311.0" stroke="#F00" stroke-width="1" /><polygon fill="#F00" opacity="100" points="105.0209,312.0967 101.0,311.0 103.9338,313.9602" stroke="#F00" stroke-width="1" /><polyline fill="none" opacity="100" points="331.0,352.0 349.0,352.0" stroke="#090" stroke-width="1" /><polygon fill="#090" opacity="100" points="343.784,353.3976 349.0,352.0 343.784,350.6024" stroke="#090" stroke-width="1" /><polyline fill="none" opacity="100" points="80.0,351.0 92.0,358.0" stroke="#090" stroke-width="1" /><polygon fill="#090" opacity="100" points="87.9791,356.9033 92.0,358.0 89.0662,355.0398" stroke="#090" stroke-width="1" /><text fill="#00AFAF" font-family="Arial" font-size="15" font-weight="normal" opacity="100" transform="rotate(-25.0 -118.0,404.0) translate(0 15)" x="-118.0" y="404.0">улица Мечникова</text><text fill="#00AFAF" font-family="Arial" font-size="15" font-weight="normal" opacity="100" transform="rotate(-75.0 72.0,224.0) translate(0 15)" x="72.0" y="224.0">улица Мечникова</text><text fill="#00AFAF" font-family="Arial" font-size="15" font-weight="normal" opacity="100" transform="rotate(30.0 417.0,451.0) translate(0 15)" x="417.0" y="451.0">улица Леонида Первомайского</text></g></g></svg>