<?xml version="1.0" encoding="utf-8" ?>
<svg baseProfile="tiny" height="670px" version="1.2" width="1100px" xmlns="http://www.w3.org/2000/svg" xmlns:ev="http://www.w3.org/2001/xml-events" xmlns:xlink="http://www.w3.org/1999/xlink"><defs /><g><g transform="rotate(-30.0,550.0,335.0)"><polygon fill="#393" opacity="100" points="356.0,346.0 356.0,316.0 806.0,316.0 806.0,346.0" stroke="#000" stroke-width="1" /><polygon fill="#393" opacity="100" points="356.0,349.0 356.0,379.0 806.0,379.0 806.0,349.0" stroke="#000" stroke-width="1" /><polyline fill="none" opacity="100" points="476.0,282.0 688.0,282.0" stroke="#000" stroke-width="1" /><polyline fill="none" opacity="100" points="476.0,413.0 688.0,413.0" stroke="#000" stroke-width="1" /><polyline fill="none" opacity="100" points="458.0,282.0 458.0,264.0" stroke="#000" stroke-width="1" /><polyline fill="none" opacity="100" points="454.0,282.0 454.0,264.0" stroke="#000" stroke-width="1" /><polyline fill="none" opacity="100" points="450.0,282.0 450.0,264.0" stroke="#000" stroke-width="1" /><polyline fill="none" opacity="100" points="446.0,282.0 446.0,264.0" stroke="#000" stroke-width="1" /><polyline fill="none" opacity="100" points="442.0,282.0 442.0,264.0" stroke="#000" stroke-width="1" /><polyline fill="none" opacity="100" points="438.0,282.0 438.0,264.0" stroke="#000" stroke-width="1" /><polyline fill="none" opacity="100" points="434.0,282.0 434.0,264.0" stroke="#000" stroke-width="1" /><polyline fill="none" opacity="100" points="430.0,282.0 430.0,264.0" stroke="#000" stroke-width="1" /><polyline fill="none" opacity="100" points="426.0,282.0 426.0,264.0" stroke="#000" stroke-width="1" /><polyline fill="none" opacity="100" points="422.0,282.0 422.0,264.0" stroke="#000" stroke-width="1" /><polyline fill="none" opacity="100" points="418.0,282.0 418.0,264.0" stroke="#000" stroke-width="1" /><polyline fill="none" opacity="100" points="414.0,282.0 414.0,264.0" stroke="#000" stroke-width="1" /><polyline fill="none" opacity="100" points="458.0,413.0 458.0,431.0" stroke="#000" stroke-width="1" /><polyline fill="none" opacity="100" points="454.0,413.0 454.0,431.0" stroke="#000" stroke-width="1" /><polyline fill="none" opacity="100" points="450.0,413.0 450.0,431.0" stroke="#000" stroke-width="1" /><polyline fill="none" opacity="100" points="446.0,413.0 446.0,431.0" stroke="#000" stroke-width="1" /><polyline fill="none" opacity="100" points="442.0,413.0 442.0,431.0" stroke="#000" stroke-width="1" /><polyline fill="none" opacity="100" points="438.0,413.0 438.0,431.0" stroke="#000" stroke-width="1" /><polyline fill="none" opacity="100" points="434.0,413.0 434.0,431.0" stroke="#000" stroke-width="1" /><polyline fill="none" opacity="100" points="430.0,413.0 430.0,431.0" stroke="#000" stroke-width="1" /><polyline fill="none" opacity="100" points="426.0,413.0 426.0,431.0" stroke="#000" stroke-width="1" /><polyline fill="none" opacity="100" points="422.0,413.0 422.0,431.0" stroke="#000" stroke-width="1" /><polyline fill="none" opacity="100" points="418.0,413.0 418.0,431.0" stroke="#000" stroke-width="1" /><polyline fill="none" opacity="100" points="414.0,413.0 414.0,431.0" stroke="#000" stroke-width="1" /><polyline fill="none" opacity="100" points="706.0,282.0 706.0,260.0" stroke="#000" stroke-width="1" /><polyline fill="none" opacity="100" points="710.0,282.0 710.0,260.0" stroke="#000" stroke-width="1" /><polyline fill="none" opacity="100" points="714.0,282.0 714.0,260.0" stroke="#000" stroke-width="1" /><polyline fill="none" opacity="100" points="718.0,282.0 718.0,260.0" stroke="#000" stroke-width="1" /><polyline fill="none" opacity="100" points="722.0,282.0 722.0,260.0" stroke="#000" stroke-width="1" /><polyline fill="none" opacity="100" points="726.0,282.0 726.0,260.0" stroke="#000" stroke-width="1" /><polyline fill="none" opacity="100" points="730.0,282.0 730.0,260.0" stroke="#000" stroke-width="1" /><polyline fill="none" opacity="100" points="734.0,282.0 734.0,260.0" stroke="#000" stroke-width="1" /><polyline fill="none" opacity="100" points="738.0,282.0 738.0,260.0" stroke="#000" stroke-width="1" /><polyline fill="none" opacity="100" points="742.0,282.0 742.0,260.0" stroke="#000" stroke-width="1" /><polyline fill="none" opacity="100" points="746.0,282.0 746.0,260.0" stroke="#000" stroke-width="1" /><polyline fill="none" opacity="100" points="750.0,282.0 750.0,260.0" stroke="#000" stroke-width="1" /><polyline fill="none" opacity="100" points="706.0,417.0 706.0,435.0" stroke="#000" stroke-width="1" /><polyline fill="none" opacity="100" points="710.0,417.0 710.0,435.0" stroke="#000" stroke-width="1" /><polyline fill="none" opacity="100" points="714.0,417.0 714.0,435.0" stroke="#000" stroke-width="1" /><polyline fill="none" opacity="100" points="718.0,417.0 718.0,435.0" stroke="#000" stroke-width="1" /><polyline fill="none" opacity="100" points="722.0,417.0 722.0,435.0" stroke="#000" stroke-width="1" /><polyline fill="none" opacity="100" points="726.0,417.0 726.0,435.0" stroke="#000" stroke-width="1" /><polyline fill="none" opacity="100" points="730.0,417.0 730.0,435.0" stroke="#000" stroke-width="1" /><polyline fill="none" opacity="100" points="734.0,417.0 734.0,435.0" stroke="#000" stroke-width="1" /><polyline fill="none" opacity="100" points="738.0,417.0 738.0,435.0" stroke="#000" stroke-width="1" /><polyline fill="none" opacity="100" points="742.0,417.0 742.0,435.0" stroke="#000" stroke-width="1" /><polyline fill="none" opacity="100" points="746.0,417.0 746.0,435.0" stroke="#000" stroke-width="1" /><polyline fill="none" opacity="100" points="750.0,417.0 750.0,435.0" stroke="#000" stroke-width="1" /><text fill="#000" font-family="Arial" font-size="20" font-weight="normal" opacity="100" transform="rotate(-0.0 357.0,312.0) translate(0 20)" x="357.0" y="312.0">&lt;&lt; Бориспольская</text><text fill="#000" font-family="Arial" font-size="20" font-weight="normal" opacity="100" transform="rotate(-0.0 732.0,359.0) translate(0 20)" x="732.0" y="359.0">тупик &gt;&gt;</text><text fill="#000" font-family="Arial" font-size="25" font-weight="bold" opacity="100" transform="rotate(-0.0 498.0,332.0) translate(0 25)" x="498.0" y="332.0">Красный хутор</text><text fill="#FFF" font-family="Arial" font-size="20" font-weight="normal" opacity="100" transform="rotate(-0.0 356.0,311.0) translate(0 20)" x="356.0" y="311.0">&lt;&lt; Бориспольская</text><text fill="#FFF" font-family="Arial" font-size="20" font-weight="normal" opacity="100" transform="rotate(-0.0 731.0,358.0) translate(0 20)" x="731.0" y="358.0">тупик &gt;&gt;</text><text fill="#FFF" font-family="Arial" font-size="25" font-weight="bold" opacity="100" transform="rotate(-0.0 497.0,331.0) translate(0 25)" x="497.0" y="331.0">Красный хутор</text><polyline fill="none" opacity="100" points="247.0,499.0 247.0,501.0 324.0,501.0" stroke="#000" stroke-width="1" /><polyline fill="none" opacity="100" points="264.0,49.0 282.0,99.0 164.0,142.0 146.0,93.0" stroke="#000" stroke-width="1" /><polyline fill="none" opacity="100" points="129.0,99.0 147.0,149.0 128.0,156.0 136.0,178.0 247.0,137.0 247.0,484.0" stroke="#000" stroke-width="1" /><polyline fill="none" opacity="100" points="281.0,43.0 312.0,128.0 274.0,142.0 274.0,281.0 338.0,281.0 338.0,264.0 476.0,264.0 476.0,282.0" stroke="#000" stroke-width="1" /><polyline fill="none" opacity="100" points="476.0,413.0 476.0,431.0 338.0,431.0 338.0,415.0 274.0,415.0 274.0,483.0 324.0,483.0" stroke="#000" stroke-width="1" /><polyline fill="none" opacity="100" points="322.0,483.0 322.0,501.0" stroke="#000" stroke-width="1" /><polyline fill="none" opacity="100" points="318.0,483.0 318.0,501.0" stroke="#000" stroke-width="1" /><polyline fill="none" opacity="100" points="314.0,483.0 314.0,501.0" stroke="#000" stroke-width="1" /><polyline fill="none" opacity="100" points="310.0,483.0 310.0,501.0" stroke="#000" stroke-width="1" /><polyline fill="none" opacity="100" points="306.0,483.0 306.0,501.0" stroke="#000" stroke-width="1" /><polyline fill="none" opacity="100" points="302.0,483.0 302.0,501.0" stroke="#000" stroke-width="1" /><polyline fill="none" opacity="100" points="298.0,483.0 298.0,501.0" stroke="#000" stroke-width="1" /><polyline fill="none" opacity="100" points="294.0,483.0 294.0,501.0" stroke="#000" stroke-width="1" /><polyline fill="none" opacity="100" points="290.0,483.0 290.0,501.0" stroke="#000" stroke-width="1" /><polyline fill="none" opacity="100" points="286.0,483.0 286.0,501.0" stroke="#000" stroke-width="1" /><polyline fill="none" opacity="100" points="282.0,483.0 282.0,501.0" stroke="#000" stroke-width="1" /><polyline fill="none" opacity="100" points="278.0,483.0 278.0,501.0" stroke="#000" stroke-width="1" /><polyline fill="none" opacity="100" points="265.0,51.0 282.0,45.0" stroke="#000" stroke-width="1" /><polyline fill="none" opacity="100" points="266.34,54.7689 283.34,48.7689" stroke="#000" stroke-width="1" /><polyline fill="none" opacity="100" points="267.6801,58.5377 284.6801,52.5377" stroke="#000" stroke-width="1" /><polyline fill="none" opacity="100" points="269.0201,62.3066 286.0201,56.3066" stroke="#000" stroke-width="1" /><polyline fill="none" opacity="100" points="270.3602,66.0754 287.3602,60.0754" stroke="#000" stroke-width="1" /><polyline fill="none" opacity="100" points="271.7002,69.8443 288.7002,63.8443" stroke="#000" stroke-width="1" /><polyline fill="none" opacity="100" points="273.0402,73.6132 290.0402,67.6132" stroke="#000" stroke-width="1" /><polyline fill="none" opacity="100" points="274.3803,77.382 291.3803,71.382" stroke="#000" stroke-width="1" /><polyline fill="none" opacity="100" points="275.7203,81.1509 292.7203,75.1509" stroke="#000" stroke-width="1" /><polyline fill="none" opacity="100" points="277.0603,84.9197 294.0603,78.9197" stroke="#000" stroke-width="1" /><polyline fill="none" opacity="100" points="278.4004,88.6886 295.4004,82.6886" stroke="#000" stroke-width="1" /><polyline fill="none" opacity="100" points="279.7404,92.4574 296.7404,86.4574" stroke="#000" stroke-width="1" /><polyline fill="none" opacity="100" points="147.0,95.0 130.0,101.0" stroke="#000" stroke-width="1" /><polyline fill="none" opacity="100" points="148.367,98.7592 131.367,104.7592" stroke="#000" stroke-width="1" /><polyline fill="none" opacity="100" points="149.7339,102.5183 132.7339,108.5183" stroke="#000" stroke-width="1" /><polyline fill="none" opacity="100" points="151.1009,106.2775 134.1009,112.2775" stroke="#000" stroke-width="1" /><polyline fill="none" opacity="100" points="152.4679,110.0367 135.4679,116.0367" stroke="#000" stroke-width="1" /><polyline fill="none" opacity="100" points="153.8349,113.7959 136.8349,119.7959" stroke="#000" stroke-width="1" /><polyline fill="none" opacity="100" points="155.2018,117.555 138.2018,123.555" stroke="#000" stroke-width="1" /><polyline fill="none" opacity="100" points="156.5688,121.3142 139.5688,127.3142" stroke="#000" stroke-width="1" /><polyline fill="none" opacity="100" points="157.9358,125.0734 140.9358,131.0734" stroke="#000" stroke-width="1" /><polyline fill="none" opacity="100" points="159.3028,128.8326 142.3028,134.8326" stroke="#000" stroke-width="1" /><polyline fill="none" opacity="100" points="160.6697,132.5917 143.6697,138.5917" stroke="#000" stroke-width="1" /><polyline fill="none" opacity="100" points="162.0367,136.3509 145.0367,142.3509" stroke="#000" stroke-width="1" /><polygon fill="#D0D0D0" opacity="100" points="281.0,334.0 274.0,334.0 274.0,362.0 281.0,362.0" stroke="#000" stroke-width="1" /><polygon fill="#D0D0D0" opacity="100" points="460.0,278.0 460.0,282.0 356.0,282.0 356.0,413.0 460.0,413.0 460.0,417.0 352.0,417.0 352.0,278.0" stroke="#000" stroke-width="1" /><polygon fill="#D0EFFF" opacity="100" points="232.0,484.0 247.0,484.0 247.0,499.0 232.0,499.0" stroke="#000" stroke-width="1" /><text fill="#000" font-family="Arial" font-size="6" font-weight="normal" opacity="100" transform="rotate(-270.0 244.0,485.0) translate(0 6)" x="244.0" y="485.0">лифт</text><polygon fill="#D0EFFF" opacity="100" points="296.0,134.0 310.0,129.0 315.0,143.0 301.0,148.0" stroke="#000" stroke-width="1" /><text fill="#000" font-family="Arial" font-size="6" font-weight="normal" opacity="100" transform="rotate(-20.0 298.0,137.0) translate(0 6)" x="298.0" y="137.0">лифт</text><polygon fill="#D0EFFF" opacity="100" points="144.0,175.0 158.0,170.0 163.0,184.0 149.0,189.0" stroke="#000" stroke-width="1" /><text fill="#000" font-family="Arial" font-size="6" font-weight="normal" opacity="100" transform="rotate(-20.0 146.0,178.0) translate(0 6)" x="146.0" y="178.0">лифт</text><polyline fill="none" opacity="100" points="286.0,281.0 286.0,274.0 313.0,274.0 313.0,281.0" stroke="#000" stroke-width="1" /><text fill="#FFF" font-family="Arial" font-size="10" font-weight="normal" opacity="100" transform="rotate(-0.0 287.0,271.0) translate(0 10)" x="287.0" y="271.0">кассы</text><polygon fill="none" opacity="100" points="321.0,341.0 315.0,341.0 315.0,347.0 321.0,347.0" stroke="#000" stroke-width="1" /><polyline fill="none" opacity="100" points="318.0,347.0 318.0,367.0" stroke="#000" stroke-width="0.5" /><polyline fill="none" opacity="100" points="320.0,337.0 316.0,337.0" stroke="#090" stroke-width="1" /><polyline fill="none" opacity="100" points="320.0,333.0 316.0,333.0" stroke="#090" stroke-width="1" /><polyline fill="none" opacity="100" points="320.0,329.0 316.0,329.0" stroke="#090" stroke-width="1" /><polyline fill="none" opacity="100" points="320.0,325.0 316.0,325.0" stroke="#090" stroke-width="1" /><polyline fill="none" opacity="100" points="320.0,321.0 316.0,321.0" stroke="#090" stroke-width="1" /><polyline fill="none" opacity="100" points="320.0,317.0 316.0,317.0" stroke="#090" stroke-width="1" /><polyline fill="none" opacity="100" points="320.0,313.0 316.0,313.0" stroke="#090" stroke-width="1" /><polyline fill="none" opacity="100" points="320.0,309.0 316.0,309.0" stroke="#090" stroke-width="1" /><polyline fill="none" opacity="100" points="320.0,305.0 316.0,305.0" stroke="#090" stroke-width="1" /><polyline fill="none" opacity="100" points="320.0,301.0 316.0,301.0" stroke="#090" stroke-width="1" /><polyline fill="none" opacity="100" points="320.0,297.0 316.0,297.0" stroke="#090" stroke-width="1" /><polyline fill="none" opacity="100" points="320.0,293.0 316.0,293.0" stroke="#090" stroke-width="1" /><polyline fill="none" opacity="100" points="320.0,289.0 316.0,289.0" stroke="#090" stroke-width="1" /><polyline fill="none" opacity="100" points="320.0,285.0 316.0,285.0" stroke="#090" stroke-width="1" /><polyline fill="none" opacity="100" points="316.0,411.0 320.0,411.0" stroke="#F00" stroke-width="1" /><polyline fill="none" opacity="100" points="316.0,407.0 320.0,407.0" stroke="#F00" stroke-width="1" /><polyline fill="none" opacity="100" points="316.0,403.0 320.0,403.0" stroke="#F00" stroke-width="1" /><polyline fill="none" opacity="100" points="316.0,399.0 320.0,399.0" stroke="#F00" stroke-width="1" /><polyline fill="none" opacity="100" points="316.0,395.0 320.0,395.0" stroke="#F00" stroke-width="1" /><polyline fill="none" opacity="100" points="316.0,391.0 320.0,391.0" stroke="#F00" stroke-width="1" /><polyline fill="none" opacity="100" points="316.0,387.0 320.0,387.0" stroke="#F00" stroke-width="1" /><polyline fill="none" opacity="100" points="316.0,383.0 320.0,383.0" stroke="#F00" stroke-width="1" /><polyline fill="none" opacity="100" points="316.0,379.0 320.0,379.0" stroke="#F00" stroke-width="1" /><polyline fill="none" opacity="100" points="316.0,375.0 320.0,375.0" stroke="#F00" stroke-width="1" /><polyline fill="none" opacity="100" points="316.0,371.0 320.0,371.0" stroke="#F00" stroke-width="1" /><polyline fill="none" opacity="100" points="316.0,367.0 320.0,367.0" stroke="#F00" stroke-width="1" /><polyline fill="none" opacity="100" points="285.0,387.0 271.0,387.0" stroke="#F00" stroke-width="1" /><polygon fill="#F00" opacity="100" points="275.0569,385.913 271.0,387.0 275.0569,388.087" stroke="#F00" stroke-width="1" /><polyline fill="none" opacity="100" points="273.0,307.0 287.0,307.0" stroke="#090" stroke-width="1" /><polygon fill="#090" opacity="100" points="282.9431,308.087 287.0,307.0 282.9431,305.913" stroke="#090" stroke-width="1" /><polyline fill="none" opacity="100" points="688.0,282.0 688.0,260.0 828.0,260.0 828.0,282.0 899.0,282.0 899.0,215.0 849.0,215.0" stroke="#000" stroke-width="1" /><polyline fill="none" opacity="100" points="688.0,413.0 688.0,435.0 828.0,435.0 828.0,413.0 899.0,413.0 899.0,483.0 849.0,483.0" stroke="#000" stroke-width="1" /><polyline fill="none" opacity="100" points="849.0,501.0 929.0,501.0 929.0,499.0" stroke="#000" stroke-width="1" /><polyline fill="none" opacity="100" points="929.0,484.0 929.0,214.0" stroke="#000" stroke-width="1" /><polyline fill="none" opacity="100" points="929.0,199.0 929.0,197.0 849.0,197.0" stroke="#000" stroke-width="1" /><polyline fill="none" opacity="100" points="851.0,215.0 851.0,197.0" stroke="#000" stroke-width="1" /><polyline fill="none" opacity="100" points="855.0,215.0 855.0,197.0" stroke="#000" stroke-width="1" /><polyline fill="none" opacity="100" points="859.0,215.0 859.0,197.0" stroke="#000" stroke-width="1" /><polyline fill="none" opacity="100" points="863.0,215.0 863.0,197.0" stroke="#000" stroke-width="1" /><polyline fill="none" opacity="100" points="867.0,215.0 867.0,197.0" stroke="#000" stroke-width="1" /><polyline fill="none" opacity="100" points="871.0,215.0 871.0,197.0" stroke="#000" stroke-width="1" /><polyline fill="none" opacity="100" points="875.0,215.0 875.0,197.0" stroke="#000" stroke-width="1" /><polyline fill="none" opacity="100" points="879.0,215.0 879.0,197.0" stroke="#000" stroke-width="1" /><polyline fill="none" opacity="100" points="883.0,215.0 883.0,197.0" stroke="#000" stroke-width="1" /><polyline fill="none" opacity="100" points="887.0,215.0 887.0,197.0" stroke="#000" stroke-width="1" /><polyline fill="none" opacity="100" points="891.0,215.0 891.0,197.0" stroke="#000" stroke-width="1" /><polyline fill="none" opacity="100" points="895.0,215.0 895.0,197.0" stroke="#000" stroke-width="1" /><polyline fill="none" opacity="100" points="851.0,483.0 851.0,501.0" stroke="#000" stroke-width="1" /><polyline fill="none" opacity="100" points="855.0,483.0 855.0,501.0" stroke="#000" stroke-width="1" /><polyline fill="none" opacity="100" points="859.0,483.0 859.0,501.0" stroke="#000" stroke-width="1" /><polyline fill="none" opacity="100" points="863.0,483.0 863.0,501.0" stroke="#000" stroke-width="1" /><polyline fill="none" opacity="100" points="867.0,483.0 867.0,501.0" stroke="#000" stroke-width="1" /><polyline fill="none" opacity="100" points="871.0,483.0 871.0,501.0" stroke="#000" stroke-width="1" /><polyline fill="none" opacity="100" points="875.0,483.0 875.0,501.0" stroke="#000" stroke-width="1" /><polyline fill="none" opacity="100" points="879.0,483.0 879.0,501.0" stroke="#000" stroke-width="1" /><polyline fill="none" opacity="100" points="883.0,483.0 883.0,501.0" stroke="#000" stroke-width="1" /><polyline fill="none" opacity="100" points="887.0,483.0 887.0,501.0" stroke="#000" stroke-width="1" /><polyline fill="none" opacity="100" points="891.0,483.0 891.0,501.0" stroke="#000" stroke-width="1" /><polyline fill="none" opacity="100" points="895.0,483.0 895.0,501.0" stroke="#000" stroke-width="1" /><polygon fill="#D0D0D0" opacity="100" points="892.0,333.0 899.0,333.0 899.0,361.0 892.0,361.0" stroke="#000" stroke-width="1" /><polygon fill="#D0D0D0" opacity="100" points="704.0,282.0 704.0,278.0 810.0,278.0 810.0,417.0 704.0,417.0 704.0,413.0 806.0,413.0 806.0,282.0" stroke="#000" stroke-width="1" /><polyline fill="none" opacity="100" points="887.0,282.0 887.0,275.0 860.0,275.0 860.0,282.0" stroke="#000" stroke-width="1" /><text fill="#FFF" font-family="Arial" font-size="10" font-weight="normal" opacity="100" transform="rotate(-0.0 862.0,272.0) translate(0 10)" x="862.0" y="272.0">кассы</text><polygon fill="none" opacity="100" points="852.0,342.0 858.0,342.0 858.0,348.0 852.0,348.0" stroke="#000" stroke-width="1" /><polyline fill="none" opacity="100" points="855.0,348.0 855.0,365.0" stroke="#000" stroke-width="0.5" /><polyline fill="none" opacity="100" points="853.0,338.0 857.0,338.0" stroke="#090" stroke-width="1" /><polyline fill="none" opacity="100" points="853.0,334.0 857.0,334.0" stroke="#090" stroke-width="1" /><polyline fill="none" opacity="100" points="853.0,330.0 857.0,330.0" stroke="#090" stroke-width="1" /><polyline fill="none" opacity="100" points="853.0,326.0 857.0,326.0" stroke="#090" stroke-width="1" /><polyline fill="none" opacity="100" points="853.0,322.0 857.0,322.0" stroke="#090" stroke-width="1" /><polyline fill="none" opacity="100" points="853.0,318.0 857.0,318.0" stroke="#090" stroke-width="1" /><polyline fill="none" opacity="100" points="853.0,314.0 857.0,314.0" stroke="#090" stroke-width="1" /><polyline fill="none" opacity="100" points="853.0,310.0 857.0,310.0" stroke="#090" stroke-width="1" /><polyline fill="none" opacity="100" points="853.0,306.0 857.0,306.0" stroke="#090" stroke-width="1" /><polyline fill="none" opacity="100" points="853.0,302.0 857.0,302.0" stroke="#090" stroke-width="1" /><polyline fill="none" opacity="100" points="853.0,298.0 857.0,298.0" stroke="#090" stroke-width="1" /><polyline fill="none" opacity="100" points="853.0,294.0 857.0,294.0" stroke="#090" stroke-width="1" /><polyline fill="none" opacity="100" points="853.0,290.0 857.0,290.0" stroke="#090" stroke-width="1" /><polyline fill="none" opacity="100" points="853.0,286.0 857.0,286.0" stroke="#090" stroke-width="1" /><polyline fill="none" opacity="100" points="857.0,409.0 853.0,409.0" stroke="#F00" stroke-width="1" /><polyline fill="none" opacity="100" points="857.0,405.0 853.0,405.0" stroke="#F00" stroke-width="1" /><polyline fill="none" opacity="100" points="857.0,401.0 853.0,401.0" stroke="#F00" stroke-width="1" /><polyline fill="none" opacity="100" points="857.0,397.0 853.0,397.0" stroke="#F00" stroke-width="1" /><polyline fill="none" opacity="100" points="857.0,393.0 853.0,393.0" stroke="#F00" stroke-width="1" /><polyline fill="none" opacity="100" points="857.0,389.0 853.0,389.0" stroke="#F00" stroke-width="1" /><polyline fill="none" opacity="100" points="857.0,385.0 853.0,385.0" stroke="#F00" stroke-width="1" /><polyline fill="none" opacity="100" points="857.0,381.0 853.0,381.0" stroke="#F00" stroke-width="1" /><polyline fill="none" opacity="100" points="857.0,377.0 853.0,377.0" stroke="#F00" stroke-width="1" /><polyline fill="none" opacity="100" points="857.0,373.0 853.0,373.0" stroke="#F00" stroke-width="1" /><polyline fill="none" opacity="100" points="857.0,369.0 853.0,369.0" stroke="#F00" stroke-width="1" /><polyline fill="none" opacity="100" points="857.0,365.0 853.0,365.0" stroke="#F00" stroke-width="1" /><polyline fill="none" opacity="100" points="888.0,387.0 902.0,387.0" stroke="#F00" stroke-width="1" /><polygon fill="#F00" opacity="100" points="897.9431,388.087 902.0,387.0 897.9431,385.913" stroke="#F00" stroke-width="1" /><polyline fill="none" opacity="100" points="900.0,308.0 886.0,308.0" stroke="#090" stroke-width="1" /><polygon fill="#090" opacity="100" points="890.0569,306.913 886.0,308.0 890.0569,309.087" stroke="#090" stroke-width="1" /><polygon fill="#D0EFFF" opacity="100" points="929.0,484.0 944.0,484.0 944.0,499.0 929.0,499.0" stroke="#000" stroke-width="1" /><text fill="#000" font-family="Arial" font-size="6" font-weight="normal" opacity="100" transform="rotate(-270.0 941.0,485.0) translate(0 6)" x="941.0" y="485.0">лифт</text><polygon fill="#D0EFFF" opacity="100" points="929.0,199.0 944.0,199.0 944.0,214.0 929.0,214.0" stroke="#000" stroke-width="1" /><text fill="#000" font-family="Arial" font-size="6" font-weight="normal" opacity="100" transform="rotate(-270.0 941.0,200.0) translate(0 6)" x="941.0" y="200.0">лифт</text><text fill="#00AFAF" font-family="Arial" font-size="15" font-weight="normal" opacity="100" transform="rotate(70.0 164.0,-64.0) translate(0 15)" x="164.0" y="-64.0">Полесская улица</text><text fill="#00AFAF" font-family="Arial" font-size="15" font-weight="normal" opacity="100" transform="rotate(-0.0 46.0,327.0) translate(0 15)" x="46.0" y="327.0">Старобориспольская улица</text><text fill="#00AFAF" font-family="Arial" font-size="15" font-weight="normal" opacity="100" transform="rotate(-0.0 993.0,312.0) translate(0 15)" x="993.0" y="312.0">Старобориспольская улица</text></g></g></svg>