<?xml version="1.0" encoding="utf-8" ?>
<svg baseProfile="tiny" height="700px" version="1.2" width="800px" xmlns="http://www.w3.org/2000/svg" xmlns:ev="http://www.w3.org/2001/xml-events" xmlns:xlink="http://www.w3.org/1999/xlink"><defs /><g><g transform="rotate(50.0,400.0,350.0)"><polygon fill="#339" opacity="100" points="427.0,385.0 427.0,355.0 -23.0,355.0 -23.0,385.0" stroke="#000" stroke-width="1" /><polygon fill="#339" opacity="100" points="427.0,465.0 427.0,495.0 -23.0,495.0 -23.0,465.0" stroke="#000" stroke-width="1" /><text fill="#339" font-family="Arial" font-size="15" font-weight="normal" opacity="100" transform="rotate(-360.0 249.0,495.0) translate(0 15)" x="249.0" y="495.0">Площадь независимости &gt;&gt;</text><text fill="#339" font-family="Arial" font-size="15" font-weight="normal" opacity="100" transform="rotate(-360.0 -22.0,337.0) translate(0 15)" x="-22.0" y="337.0">&lt;&lt; Контрактовая площадь</text><text fill="#339" font-family="Arial" font-size="20" font-weight="bold" opacity="100" transform="rotate(-360.0 102.0,411.0) translate(0 20)" x="102.0" y="411.0">Почтовая площадь</text><polyline fill="none" opacity="100" points="-23.0,385.0 -23.0,400.0 -17.0,400.0 -17.0,450.0 -23.0,450.0 -23.0,465.0" stroke="#000" stroke-width="1" /><polyline fill="none" opacity="100" points="427.0,465.0 427.0,450.0 417.0,450.0 417.0,445.0 462.0,445.0 462.0,474.0 524.0,474.0 524.0,449.0 537.0,449.0 537.0,481.0 551.0,495.0 551.0,530.0 493.0,530.0" stroke="#000" stroke-width="1" /><polyline fill="none" opacity="100" points="493.0,547.0 573.0,547.0 573.0,495.0 580.0,488.0 580.0,361.0 573.0,354.0 573.0,195.0 494.0,195.0" stroke="#000" stroke-width="1" /><polyline fill="none" opacity="100" points="494.0,213.0 551.0,213.0 551.0,354.0 537.0,368.0 537.0,400.0 524.0,400.0 524.0,375.0 462.0,375.0 462.0,405.0 417.0,405.0 417.0,400.0 427.0,400.0 427.0,385.0" stroke="#000" stroke-width="1" /><polyline fill="none" opacity="100" points="555.0,471.0 555.0,376.0" stroke="#000" stroke-width="1" /><polyline fill="none" opacity="100" points="537.0,434.0 537.0,416.0" stroke="#000" stroke-width="1" /><polyline fill="none" opacity="100" points="418.0,445.0 418.0,405.0" stroke="#000" stroke-width="1" /><polyline fill="none" opacity="100" points="422.0,445.0 422.0,405.0" stroke="#000" stroke-width="1" /><polyline fill="none" opacity="100" points="426.0,445.0 426.0,405.0" stroke="#000" stroke-width="1" /><polyline fill="none" opacity="100" points="430.0,445.0 430.0,405.0" stroke="#000" stroke-width="1" /><polyline fill="none" opacity="100" points="434.0,445.0 434.0,405.0" stroke="#000" stroke-width="1" /><polyline fill="none" opacity="100" points="444.0,445.0 444.0,405.0" stroke="#000" stroke-width="1" /><polyline fill="none" opacity="100" points="448.0,445.0 448.0,405.0" stroke="#000" stroke-width="1" /><polyline fill="none" opacity="100" points="452.0,445.0 452.0,405.0" stroke="#000" stroke-width="1" /><polyline fill="none" opacity="100" points="456.0,445.0 456.0,405.0" stroke="#000" stroke-width="1" /><polyline fill="none" opacity="100" points="460.0,445.0 460.0,405.0" stroke="#000" stroke-width="1" /><polyline fill="none" opacity="100" points="495.0,547.0 495.0,530.0" stroke="#000" stroke-width="1" /><polyline fill="none" opacity="100" points="499.0,547.0 499.0,530.0" stroke="#000" stroke-width="1" /><polyline fill="none" opacity="100" points="503.0,547.0 503.0,530.0" stroke="#000" stroke-width="1" /><polyline fill="none" opacity="100" points="507.0,547.0 507.0,530.0" stroke="#000" stroke-width="1" /><polyline fill="none" opacity="100" points="511.0,547.0 511.0,530.0" stroke="#000" stroke-width="1" /><polyline fill="none" opacity="100" points="515.0,547.0 515.0,530.0" stroke="#000" stroke-width="1" /><polyline fill="none" opacity="100" points="529.0,547.0 529.0,530.0" stroke="#000" stroke-width="1" /><polyline fill="none" opacity="100" points="533.0,547.0 533.0,530.0" stroke="#000" stroke-width="1" /><polyline fill="none" opacity="100" points="537.0,547.0 537.0,530.0" stroke="#000" stroke-width="1" /><polyline fill="none" opacity="100" points="541.0,547.0 541.0,530.0" stroke="#000" stroke-width="1" /><polyline fill="none" opacity="100" points="545.0,547.0 545.0,530.0" stroke="#000" stroke-width="1" /><polyline fill="none" opacity="100" points="549.0,547.0 549.0,530.0" stroke="#000" stroke-width="1" /><polyline fill="none" opacity="100" points="573.0,528.0 551.0,528.0" stroke="#000" stroke-width="1" /><polyline fill="none" opacity="100" points="573.0,524.0 551.0,524.0" stroke="#000" stroke-width="1" /><polyline fill="none" opacity="100" points="573.0,520.0 551.0,520.0" stroke="#000" stroke-width="1" /><polyline fill="none" opacity="100" points="496.0,213.0 496.0,195.0" stroke="#000" stroke-width="1" /><polyline fill="none" opacity="100" points="500.0,213.0 500.0,195.0" stroke="#000" stroke-width="1" /><polyline fill="none" opacity="100" points="504.0,213.0 504.0,195.0" stroke="#000" stroke-width="1" /><polyline fill="none" opacity="100" points="508.0,213.0 508.0,195.0" stroke="#000" stroke-width="1" /><polyline fill="none" opacity="100" points="512.0,213.0 512.0,195.0" stroke="#000" stroke-width="1" /><polyline fill="none" opacity="100" points="516.0,213.0 516.0,195.0" stroke="#000" stroke-width="1" /><polyline fill="none" opacity="100" points="529.0,213.0 529.0,195.0" stroke="#000" stroke-width="1" /><polyline fill="none" opacity="100" points="533.0,213.0 533.0,195.0" stroke="#000" stroke-width="1" /><polyline fill="none" opacity="100" points="537.0,213.0 537.0,195.0" stroke="#000" stroke-width="1" /><polyline fill="none" opacity="100" points="541.0,213.0 541.0,195.0" stroke="#000" stroke-width="1" /><polyline fill="none" opacity="100" points="545.0,213.0 545.0,195.0" stroke="#000" stroke-width="1" /><polyline fill="none" opacity="100" points="549.0,213.0 549.0,195.0" stroke="#000" stroke-width="1" /><polyline fill="none" opacity="100" points="555.0,470.0 537.0,470.0" stroke="#000" stroke-width="1" /><polyline fill="none" opacity="100" points="555.0,466.0 537.0,466.0" stroke="#000" stroke-width="1" /><polyline fill="none" opacity="100" points="555.0,462.0 537.0,462.0" stroke="#000" stroke-width="1" /><polyline fill="none" opacity="100" points="555.0,458.0 537.0,458.0" stroke="#000" stroke-width="1" /><polyline fill="none" opacity="100" points="555.0,454.0 537.0,454.0" stroke="#000" stroke-width="1" /><polyline fill="none" opacity="100" points="555.0,450.0 537.0,450.0" stroke="#000" stroke-width="1" /><polyline fill="none" opacity="100" points="555.0,378.0 537.0,378.0" stroke="#000" stroke-width="1" /><polyline fill="none" opacity="100" points="555.0,382.0 537.0,382.0" stroke="#000" stroke-width="1" /><polyline fill="none" opacity="100" points="555.0,386.0 537.0,386.0" stroke="#000" stroke-width="1" /><polyline fill="none" opacity="100" points="555.0,390.0 537.0,390.0" stroke="#000" stroke-width="1" /><polyline fill="none" opacity="100" points="555.0,394.0 537.0,394.0" stroke="#000" stroke-width="1" /><polyline fill="none" opacity="100" points="555.0,398.0 537.0,398.0" stroke="#000" stroke-width="1" /><polyline fill="none" opacity="100" points="524.0,473.0 533.0,473.0 533.0,452.0 524.0,452.0" stroke="#000" stroke-width="1" /><text fill="#FFF" font-family="Arial" font-size="7" font-weight="normal" opacity="100" transform="rotate(-90.0 524.0,471.0) translate(0 7)" x="524.0" y="471.0">касса</text><polyline fill="none" opacity="100" points="488.0,437.0 484.0,435.0 486.0,431.0 490.0,433.0 488.0,437.0" stroke="#000" stroke-width="1" /><polyline fill="none" opacity="100" points="474.0,457.0 463.0,454.0" stroke="#000" stroke-width="0.5" /><polyline fill="none" opacity="100" points="480.0,392.0 463.0,387.0" stroke="#000" stroke-width="0.5" /><polyline fill="none" opacity="100" points="483.0,438.0 487.0,440.0" stroke="#090" stroke-width="1" /><polyline fill="none" opacity="100" points="481.137,441.5397 485.137,443.5397" stroke="#090" stroke-width="1" /><polyline fill="none" opacity="100" points="479.274,445.0793 483.274,447.0793" stroke="#090" stroke-width="1" /><polyline fill="none" opacity="100" points="477.411,448.619 481.411,450.619" stroke="#090" stroke-width="1" /><polyline fill="none" opacity="100" points="475.5481,452.1587 479.5481,454.1587" stroke="#090" stroke-width="1" /><polyline fill="none" opacity="100" points="473.6851,455.6984 477.6851,457.6984" stroke="#090" stroke-width="1" /><polyline fill="none" opacity="100" points="479.0,393.0 483.0,392.0" stroke="#F00" stroke-width="1" /><polyline fill="none" opacity="100" points="479.9701,396.8806 483.9701,395.8806" stroke="#F00" stroke-width="1" /><polyline fill="none" opacity="100" points="480.9403,400.7611 484.9403,399.7611" stroke="#F00" stroke-width="1" /><polyline fill="none" opacity="100" points="481.9104,404.6417 485.9104,403.6417" stroke="#F00" stroke-width="1" /><polyline fill="none" opacity="100" points="482.8806,408.5223 486.8806,407.5223" stroke="#F00" stroke-width="1" /><polyline fill="none" opacity="100" points="483.8507,412.4029 487.8507,411.4029" stroke="#F00" stroke-width="1" /><polyline fill="none" opacity="100" points="484.8209,416.2834 488.8209,415.2834" stroke="#F00" stroke-width="1" /><polygon fill="#D0D0D0" opacity="100" points="497.0,430.0 497.0,418.0 487.0,418.0 487.0,430.0" stroke="#000" stroke-width="1" /><polygon fill="#D0D0D0" opacity="100" points="405.0,450.0 405.0,445.0 400.0,445.0 400.0,450.0" stroke="#000" stroke-width="1" /><polygon fill="#D0D0D0" opacity="100" points="383.0,450.0 383.0,445.0 388.0,445.0 388.0,450.0" stroke="#000" stroke-width="1" /><polygon fill="#D0D0D0" opacity="100" points="366.0,450.0 366.0,445.0 371.0,445.0 371.0,450.0" stroke="#000" stroke-width="1" /><polygon fill="#D0D0D0" opacity="100" points="349.0,450.0 349.0,445.0 354.0,445.0 354.0,450.0" stroke="#000" stroke-width="1" /><polygon fill="#D0D0D0" opacity="100" points="332.0,450.0 337.0,450.0 337.0,445.0 332.0,445.0" stroke="#000" stroke-width="1" /><polygon fill="#D0D0D0" opacity="100" points="315.0,450.0 315.0,445.0 320.0,445.0 320.0,450.0" stroke="#000" stroke-width="1" /><polygon fill="#D0D0D0" opacity="100" points="298.0,450.0 298.0,445.0 303.0,445.0 303.0,450.0" stroke="#000" stroke-width="1" /><polygon fill="#D0D0D0" opacity="100" points="281.0,450.0 281.0,445.0 286.0,445.0 286.0,450.0" stroke="#000" stroke-width="1" /><polygon fill="#D0D0D0" opacity="100" points="264.0,450.0 264.0,445.0 269.0,445.0 269.0,450.0" stroke="#000" stroke-width="1" /><polygon fill="#D0D0D0" opacity="100" points="247.0,450.0 247.0,445.0 252.0,445.0 252.0,450.0" stroke="#000" stroke-width="1" /><polygon fill="#D0D0D0" opacity="100" points="230.0,450.0 230.0,445.0 235.0,445.0 235.0,450.0" stroke="#000" stroke-width="1" /><polygon fill="#D0D0D0" opacity="100" points="213.0,450.0 213.0,445.0 218.0,445.0 218.0,450.0" stroke="#000" stroke-width="1" /><polygon fill="#D0D0D0" opacity="100" points="196.0,450.0 196.0,445.0 201.0,445.0 201.0,450.0" stroke="#000" stroke-width="1" /><polygon fill="#D0D0D0" opacity="100" points="179.0,450.0 179.0,445.0 184.0,445.0 184.0,450.0" stroke="#000" stroke-width="1" /><polygon fill="#D0D0D0" opacity="100" points="162.0,450.0 162.0,445.0 167.0,445.0 167.0,450.0" stroke="#000" stroke-width="1" /><polygon fill="#D0D0D0" opacity="100" points="145.0,450.0 145.0,445.0 150.0,445.0 150.0,450.0" stroke="#000" stroke-width="1" /><polygon fill="#D0D0D0" opacity="100" points="128.0,450.0 128.0,445.0 133.0,445.0 133.0,450.0" stroke="#000" stroke-width="1" /><polygon fill="#D0D0D0" opacity="100" points="111.0,450.0 111.0,445.0 116.0,445.0 116.0,450.0" stroke="#000" stroke-width="1" /><polygon fill="#D0D0D0" opacity="100" points="94.0,450.0 94.0,445.0 99.0,445.0 99.0,450.0" stroke="#000" stroke-width="1" /><polygon fill="#D0D0D0" opacity="100" points="77.0,450.0 77.0,445.0 82.0,445.0 82.0,450.0" stroke="#000" stroke-width="1" /><polygon fill="#D0D0D0" opacity="100" points="60.0,450.0 60.0,445.0 65.0,445.0 65.0,450.0" stroke="#000" stroke-width="1" /><polygon fill="#D0D0D0" opacity="100" points="43.0,450.0 43.0,445.0 48.0,445.0 48.0,450.0" stroke="#000" stroke-width="1" /><polygon fill="#D0D0D0" opacity="100" points="26.0,450.0 26.0,445.0 31.0,445.0 31.0,450.0" stroke="#000" stroke-width="1" /><polygon fill="#D0D0D0" opacity="100" points="9.0,450.0 9.0,445.0 14.0,445.0 14.0,450.0" stroke="#000" stroke-width="1" /><polygon fill="#D0D0D0" opacity="100" points="-8.0,450.0 -8.0,445.0 -3.0,445.0 -3.0,450.0" stroke="#000" stroke-width="1" /><polygon fill="#D0D0D0" opacity="100" points="400.0,405.0 400.0,400.0 405.0,400.0 405.0,405.0" stroke="#000" stroke-width="1" /><polygon fill="#D0D0D0" opacity="100" points="383.0,405.0 383.0,400.0 388.0,400.0 388.0,405.0" stroke="#000" stroke-width="1" /><polygon fill="#D0D0D0" opacity="100" points="366.0,405.0 366.0,400.0 371.0,400.0 371.0,405.0" stroke="#000" stroke-width="1" /><polygon fill="#D0D0D0" opacity="100" points="349.0,405.0 349.0,400.0 354.0,400.0 354.0,405.0" stroke="#000" stroke-width="1" /><polygon fill="#D0D0D0" opacity="100" points="332.0,405.0 332.0,400.0 337.0,400.0 337.0,405.0" stroke="#000" stroke-width="1" /><polygon fill="#D0D0D0" opacity="100" points="315.0,405.0 315.0,400.0 320.0,400.0 320.0,405.0" stroke="#000" stroke-width="1" /><polygon fill="#D0D0D0" opacity="100" points="298.0,405.0 298.0,400.0 303.0,400.0 303.0,405.0" stroke="#000" stroke-width="1" /><polygon fill="#D0D0D0" opacity="100" points="281.0,405.0 281.0,400.0 286.0,400.0 286.0,405.0" stroke="#000" stroke-width="1" /><polygon fill="#D0D0D0" opacity="100" points="264.0,405.0 264.0,400.0 269.0,400.0 269.0,405.0" stroke="#000" stroke-width="1" /><polygon fill="#D0D0D0" opacity="100" points="247.0,405.0 247.0,400.0 252.0,400.0 252.0,405.0" stroke="#000" stroke-width="1" /><polygon fill="#D0D0D0" opacity="100" points="230.0,405.0 230.0,400.0 235.0,400.0 235.0,405.0" stroke="#000" stroke-width="1" /><polygon fill="#D0D0D0" opacity="100" points="213.0,405.0 213.0,400.0 218.0,400.0 218.0,405.0" stroke="#000" stroke-width="1" /><polygon fill="#D0D0D0" opacity="100" points="196.0,405.0 196.0,400.0 201.0,400.0 201.0,405.0" stroke="#000" stroke-width="1" /><polygon fill="#D0D0D0" opacity="100" points="179.0,405.0 179.0,400.0 184.0,400.0 184.0,405.0" stroke="#000" stroke-width="1" /><polygon fill="#D0D0D0" opacity="100" points="162.0,405.0 162.0,400.0 167.0,400.0 167.0,405.0" stroke="#000" stroke-width="1" /><polygon fill="#D0D0D0" opacity="100" points="145.0,405.0 145.0,400.0 150.0,400.0 150.0,405.0" stroke="#000" stroke-width="1" /><polygon fill="#D0D0D0" opacity="100" points="128.0,405.0 128.0,400.0 133.0,400.0 133.0,405.0" stroke="#000" stroke-width="1" /><polygon fill="#D0D0D0" opacity="100" points="111.0,405.0 111.0,400.0 116.0,400.0 116.0,405.0" stroke="#000" stroke-width="1" /><polygon fill="#D0D0D0" opacity="100" points="94.0,405.0 94.0,400.0 99.0,400.0 99.0,405.0" stroke="#000" stroke-width="1" /><polygon fill="#D0D0D0" opacity="100" points="77.0,405.0 77.0,400.0 82.0,400.0 82.0,405.0" stroke="#000" stroke-width="1" /><polygon fill="#D0D0D0" opacity="100" points="60.0,405.0 60.0,400.0 65.0,400.0 65.0,405.0" stroke="#000" stroke-width="1" /><polygon fill="#D0D0D0" opacity="100" points="43.0,405.0 43.0,400.0 48.0,400.0 48.0,405.0" stroke="#000" stroke-width="1" /><polygon fill="#D0D0D0" opacity="100" points="26.0,405.0 26.0,400.0 31.0,400.0 31.0,405.0" stroke="#000" stroke-width="1" /><polygon fill="#D0D0D0" opacity="100" points="9.0,405.0 9.0,400.0 14.0,400.0 14.0,405.0" stroke="#000" stroke-width="1" /><polygon fill="#D0D0D0" opacity="100" points="-8.0,405.0 -8.0,400.0 -3.0,400.0 -3.0,405.0" stroke="#000" stroke-width="1" /><polyline fill="none" opacity="100" points="558.0,487.0 547.0,476.0" stroke="#090" stroke-width="1" /><polygon fill="#090" opacity="100" points="551.0417,478.3335 547.0,476.0 549.3335,480.0417" stroke="#090" stroke-width="1" /><polyline fill="none" opacity="100" points="547.0,446.0 547.0,441.0 535.0,441.0" stroke="#090" stroke-width="1" /><polygon fill="#090" opacity="100" points="538.4773,440.0683 535.0,441.0 538.4773,441.9317" stroke="#090" stroke-width="1" /><polyline fill="none" opacity="100" points="546.0,373.0 557.0,362.0" stroke="#F00" stroke-width="1" /><polygon fill="#F00" opacity="100" points="554.6665,366.0417 557.0,362.0 552.9583,364.3335" stroke="#F00" stroke-width="1" /><polyline fill="none" opacity="100" points="535.0,409.0 547.0,409.0 547.0,400.0" stroke="#F00" stroke-width="1" /><polygon fill="#F00" opacity="100" points="547.6988,402.608 547.0,400.0 546.3012,402.608" stroke="#F00" stroke-width="1" /><text fill="#00AFAF" font-family="Arial" font-size="15" font-weight="normal" opacity="100" transform="rotate(-360.0 594.0,410.0) translate(0 15)" x="594.0" y="410.0">Владимирский спуск</text><text fill="#00AFAF" font-family="Arial" font-size="15" font-weight="normal" opacity="100" transform="rotate(-90.0 462.0,247.0) translate(0 15)" x="462.0" y="247.0">Почтовая площадь</text><text fill="#00AFAF" font-family="Arial" font-size="15" font-weight="normal" opacity="100" transform="rotate(-90.0 390.0,241.0) translate(0 15)" x="390.0" y="241.0">Боричев спуск</text><text fill="#00AFAF" font-family="Arial" font-size="15" font-weight="normal" opacity="100" transform="rotate(-325.0 421.0,-56.0) translate(0 15)" x="421.0" y="-56.0">Набережно-Крещатикская улица</text><text fill="#00AFAF" font-family="Arial" font-size="15" font-weight="normal" opacity="100" transform="rotate(-325.0 580.0,-13.0) translate(0 15)" x="580.0" y="-13.0">Речной вокзал</text><text fill="#00AFAF" font-family="Arial" font-size="15" font-weight="normal" opacity="100" transform="rotate(-90.0 435.0,770.0) translate(0 15)" x="435.0" y="770.0">Фуникулер</text><text fill="#00AFAF" font-family="Arial" font-size="15" font-weight="normal" opacity="100" transform="rotate(-90.0 446.0,789.0) translate(0 15)" x="446.0" y="789.0">(нижняя станция)</text></g></g></svg>