<?xml version="1.0" encoding="utf-8" ?>
<svg baseProfile="tiny" height="280px" version="1.2" width="760px" xmlns="http://www.w3.org/2000/svg" xmlns:ev="http://www.w3.org/2001/xml-events" xmlns:xlink="http://www.w3.org/1999/xlink"><defs /><g><g transform="rotate(5.0,380.0,140.0)"><polygon fill="#393" opacity="100" points="739.0,194.0 739.0,224.0 289.0,224.0 289.0,194.0" stroke="#000" stroke-width="1" /><polygon fill="#393" opacity="100" points="739.0,114.0 739.0,84.0 289.0,84.0 289.0,114.0" stroke="#000" stroke-width="1" /><text fill="#393" font-family="Arial" font-size="20" font-weight="normal" opacity="100" transform="rotate(-0.0 290.0,60.0) translate(0 20)" x="290.0" y="60.0">&lt;&lt; Выдубичи</text><text fill="#393" font-family="Arial" font-size="20" font-weight="normal" opacity="100" transform="rotate(-0.0 632.0,224.0) translate(0 20)" x="632.0" y="224.0">Осокорки &gt;&gt;</text><text fill="#393" font-family="Arial" font-size="25" font-weight="bold" opacity="100" transform="rotate(-0.0 444.0,138.0) translate(0 25)" x="444.0" y="138.0">Славутич</text><polyline fill="none" opacity="100" points="739.0,194.0 739.0,179.0 730.0,179.0 730.0,129.0 739.0,129.0 739.0,114.0 289.0,114.0 289.0,129.0 234.0,129.0" stroke="#000" stroke-width="1" /><polyline fill="none" opacity="100" points="209.0,178.0 289.0,178.0 289.0,194.0 739.0,194.0" stroke="#000" stroke-width="1" /><polyline fill="none" opacity="100" points="234.0,129.0 234.0,97.0 153.0,97.0 153.0,32.0 159.0,30.0" stroke="#000" stroke-width="1" /><polyline fill="none" opacity="100" points="209.0,178.0 209.0,210.0 159.0,210.0 159.0,180.0 153.0,180.0 153.0,275.0 159.0,277.0" stroke="#000" stroke-width="1" /><polygon fill="#D0D0D0" opacity="100" points="159.0,127.0 159.0,150.0 153.0,150.0 153.0,127.0" stroke="#000" stroke-width="1" /><polyline fill="none" opacity="100" points="123.0,30.0 129.0,32.0 129.0,275.0 123.0,277.0" stroke="#000" stroke-width="1" /><polyline fill="none" opacity="100" points="286.0,129.0 286.0,178.0" stroke="#000" stroke-width="1" /><polyline fill="none" opacity="100" points="282.0,129.0 282.0,178.0" stroke="#000" stroke-width="1" /><polyline fill="none" opacity="100" points="278.0,129.0 278.0,178.0" stroke="#000" stroke-width="1" /><polyline fill="none" opacity="100" points="274.0,129.0 274.0,178.0" stroke="#000" stroke-width="1" /><polyline fill="none" opacity="100" points="270.0,129.0 270.0,178.0" stroke="#000" stroke-width="1" /><polyline fill="none" opacity="100" points="266.0,129.0 266.0,178.0" stroke="#000" stroke-width="1" /><polyline fill="none" opacity="100" points="262.0,129.0 262.0,178.0" stroke="#000" stroke-width="1" /><polyline fill="none" opacity="100" points="258.0,129.0 258.0,178.0" stroke="#000" stroke-width="1" /><polyline fill="none" opacity="100" points="254.0,129.0 254.0,178.0" stroke="#000" stroke-width="1" /><polyline fill="none" opacity="100" points="250.0,129.0 250.0,178.0" stroke="#000" stroke-width="1" /><polyline fill="none" opacity="100" points="246.0,129.0 246.0,178.0" stroke="#000" stroke-width="1" /><polyline fill="none" opacity="100" points="242.0,129.0 242.0,178.0" stroke="#000" stroke-width="1" /><polyline fill="none" opacity="100" points="238.0,129.0 238.0,178.0" stroke="#000" stroke-width="1" /><polyline fill="none" opacity="100" points="191.0,130.0 160.0,130.0" stroke="#000" stroke-width="0.5" /><polygon fill="none" opacity="100" points="213.0,175.0 211.0,171.0 207.0,173.0 209.0,177.0" stroke="#000" stroke-width="1" /><polyline fill="none" opacity="100" points="187.0,135.0 192.0,132.0" stroke="#090" stroke-width="1" /><polyline fill="none" opacity="100" points="188.7889,138.5777 193.7889,135.5777" stroke="#090" stroke-width="1" /><polyline fill="none" opacity="100" points="190.5777,142.1554 195.5777,139.1554" stroke="#090" stroke-width="1" /><polyline fill="none" opacity="100" points="192.3666,145.7331 197.3666,142.7331" stroke="#090" stroke-width="1" /><polyline fill="none" opacity="100" points="194.1554,149.3108 199.1554,146.3108" stroke="#090" stroke-width="1" /><polyline fill="none" opacity="100" points="195.9443,152.8885 200.9443,149.8885" stroke="#090" stroke-width="1" /><polyline fill="none" opacity="100" points="197.7331,156.4663 202.7331,153.4663" stroke="#090" stroke-width="1" /><polyline fill="none" opacity="100" points="199.522,160.044 204.522,157.044" stroke="#090" stroke-width="1" /><polyline fill="none" opacity="100" points="201.3108,163.6217 206.3108,160.6217" stroke="#090" stroke-width="1" /><polyline fill="none" opacity="100" points="203.0997,167.1994 208.0997,164.1994" stroke="#090" stroke-width="1" /><polyline fill="none" opacity="100" points="204.8885,170.7771 209.8885,167.7771" stroke="#090" stroke-width="1" /><polyline fill="none" opacity="100" points="184.0,101.0 190.0,101.0" stroke="#F00" stroke-width="1" /><polyline fill="none" opacity="100" points="184.0,105.0 190.0,105.0" stroke="#F00" stroke-width="1" /><polyline fill="none" opacity="100" points="184.0,109.0 190.0,109.0" stroke="#F00" stroke-width="1" /><polyline fill="none" opacity="100" points="184.0,113.0 190.0,113.0" stroke="#F00" stroke-width="1" /><polyline fill="none" opacity="100" points="184.0,117.0 190.0,117.0" stroke="#F00" stroke-width="1" /><polyline fill="none" opacity="100" points="184.0,121.0 190.0,121.0" stroke="#F00" stroke-width="1" /><polyline fill="none" opacity="100" points="184.0,125.0 190.0,125.0" stroke="#F00" stroke-width="1" /><polyline fill="none" opacity="100" points="209.0,180.0 219.0,180.0 219.0,209.0 209.0,209.0" stroke="#000" stroke-width="1" /><text fill="#000" font-family="Arial" font-size="10" font-weight="normal" opacity="100" transform="rotate(-90.0 207.0,207.0) translate(0 10)" x="207.0" y="207.0">кассы</text><polygon fill="#D0D0D0" opacity="100" points="715.0,129.0 715.0,136.0 708.0,136.0 708.0,129.0" stroke="#000" stroke-width="1" /><polygon fill="#D0D0D0" opacity="100" points="688.0,129.0 688.0,136.0 681.0,136.0 681.0,129.0" stroke="#000" stroke-width="1" /><polygon fill="#D0D0D0" opacity="100" points="661.0,129.0 661.0,136.0 654.0,136.0 654.0,129.0" stroke="#000" stroke-width="1" /><polygon fill="#D0D0D0" opacity="100" points="634.0,129.0 634.0,136.0 627.0,136.0 627.0,129.0" stroke="#000" stroke-width="1" /><polygon fill="#D0D0D0" opacity="100" points="607.0,129.0 607.0,136.0 600.0,136.0 600.0,129.0" stroke="#000" stroke-width="1" /><polygon fill="#D0D0D0" opacity="100" points="580.0,129.0 580.0,136.0 573.0,136.0 573.0,129.0" stroke="#000" stroke-width="1" /><polygon fill="#D0D0D0" opacity="100" points="553.0,129.0 553.0,136.0 546.0,136.0 546.0,129.0" stroke="#000" stroke-width="1" /><polygon fill="#D0D0D0" opacity="100" points="526.0,129.0 526.0,136.0 519.0,136.0 519.0,129.0" stroke="#000" stroke-width="1" /><polygon fill="#D0D0D0" opacity="100" points="499.0,129.0 499.0,136.0 492.0,136.0 492.0,129.0" stroke="#000" stroke-width="1" /><polygon fill="#D0D0D0" opacity="100" points="472.0,129.0 472.0,136.0 465.0,136.0 465.0,129.0" stroke="#000" stroke-width="1" /><polygon fill="#D0D0D0" opacity="100" points="445.0,129.0 445.0,136.0 438.0,136.0 438.0,129.0" stroke="#000" stroke-width="1" /><polygon fill="#D0D0D0" opacity="100" points="418.0,129.0 418.0,136.0 411.0,136.0 411.0,129.0" stroke="#000" stroke-width="1" /><polygon fill="#D0D0D0" opacity="100" points="391.0,129.0 391.0,136.0 384.0,136.0 384.0,129.0" stroke="#000" stroke-width="1" /><polygon fill="#D0D0D0" opacity="100" points="364.0,129.0 364.0,136.0 357.0,136.0 357.0,129.0" stroke="#000" stroke-width="1" /><polygon fill="#D0D0D0" opacity="100" points="337.0,129.0 337.0,136.0 330.0,136.0 330.0,129.0" stroke="#000" stroke-width="1" /><polygon fill="#D0D0D0" opacity="100" points="310.0,129.0 310.0,136.0 303.0,136.0 303.0,129.0" stroke="#000" stroke-width="1" /><polygon fill="#D0D0D0" opacity="100" points="715.0,172.0 715.0,179.0 708.0,179.0 708.0,172.0" stroke="#000" stroke-width="1" /><polygon fill="#D0D0D0" opacity="100" points="688.0,172.0 688.0,179.0 681.0,179.0 681.0,172.0" stroke="#000" stroke-width="1" /><polygon fill="#D0D0D0" opacity="100" points="661.0,172.0 661.0,179.0 654.0,179.0 654.0,172.0" stroke="#000" stroke-width="1" /><polygon fill="#D0D0D0" opacity="100" points="634.0,172.0 634.0,179.0 627.0,179.0 627.0,172.0" stroke="#000" stroke-width="1" /><polygon fill="#D0D0D0" opacity="100" points="607.0,172.0 607.0,179.0 600.0,179.0 600.0,172.0" stroke="#000" stroke-width="1" /><polygon fill="#D0D0D0" opacity="100" points="580.0,172.0 580.0,179.0 573.0,179.0 573.0,172.0" stroke="#000" stroke-width="1" /><polygon fill="#D0D0D0" opacity="100" points="553.0,172.0 553.0,179.0 546.0,179.0 546.0,172.0" stroke="#000" stroke-width="1" /><polygon fill="#D0D0D0" opacity="100" points="526.0,172.0 526.0,179.0 519.0,179.0 519.0,172.0" stroke="#000" stroke-width="1" /><polygon fill="#D0D0D0" opacity="100" points="499.0,172.0 499.0,179.0 492.0,179.0 492.0,172.0" stroke="#000" stroke-width="1" /><polygon fill="#D0D0D0" opacity="100" points="472.0,172.0 472.0,179.0 465.0,179.0 465.0,172.0" stroke="#000" stroke-width="1" /><polygon fill="#D0D0D0" opacity="100" points="445.0,172.0 445.0,179.0 438.0,179.0 438.0,172.0" stroke="#000" stroke-width="1" /><polygon fill="#D0D0D0" opacity="100" points="418.0,172.0 418.0,179.0 411.0,179.0 411.0,172.0" stroke="#000" stroke-width="1" /><polygon fill="#D0D0D0" opacity="100" points="391.0,172.0 391.0,179.0 384.0,179.0 384.0,172.0" stroke="#000" stroke-width="1" /><polygon fill="#D0D0D0" opacity="100" points="364.0,172.0 364.0,179.0 357.0,179.0 357.0,172.0" stroke="#000" stroke-width="1" /><polygon fill="#D0D0D0" opacity="100" points="337.0,172.0 337.0,179.0 330.0,179.0 330.0,172.0" stroke="#000" stroke-width="1" /><polygon fill="#D0D0D0" opacity="100" points="310.0,172.0 310.0,179.0 303.0,179.0 303.0,172.0" stroke="#000" stroke-width="1" /><polyline fill="none" opacity="100" points="152.0,165.0 170.0,165.0" stroke="#090" stroke-width="1" /><polygon fill="#090" opacity="100" points="164.784,166.3976 170.0,165.0 164.784,163.6024" stroke="#090" stroke-width="1" /><polyline fill="none" opacity="100" points="170.0,112.0 152.0,112.0" stroke="#F00" stroke-width="1" /><polygon fill="#F00" opacity="100" points="157.216,110.6024 152.0,112.0 157.216,113.3976" stroke="#F00" stroke-width="1" /><text fill="#00AFAF" font-family="Arial" font-size="15" font-weight="normal" opacity="100" transform="rotate(-5.0 31.0,143.0) translate(0 15)" x="31.0" y="143.0">проспект</text><text fill="#00AFAF" font-family="Arial" font-size="15" font-weight="normal" opacity="100" transform="rotate(-5.0 9.0,157.0) translate(0 15)" x="9.0" y="157.0">Миколы Бажана</text></g></g></svg>