<?xml version="1.0" encoding="utf-8" ?>
<svg baseProfile="tiny" height="400px" version="1.2" width="1100px" xmlns="http://www.w3.org/2000/svg" xmlns:ev="http://www.w3.org/2001/xml-events" xmlns:xlink="http://www.w3.org/1999/xlink"><defs /><g><polygon fill="#393" opacity="100" points="631.0,210.0 631.0,180.0 1081.0,180.0 1081.0,210.0" stroke="#000" stroke-width="1" /><polygon fill="#393" opacity="100" points="631.0,290.0 631.0,320.0 1081.0,320.0 1081.0,290.0" stroke="#000" stroke-width="1" /><text fill="#393" font-family="Arial" font-size="20" font-weight="normal" opacity="100" transform="rotate(-0.0 631.0,156.0) translate(0 20)" x="631.0" y="156.0">&lt;&lt; тупик</text><text fill="#393" font-family="Arial" font-size="20" font-weight="normal" opacity="100" transform="rotate(-0.0 955.0,320.0) translate(0 20)" x="955.0" y="320.0">Дорогожичи &gt;&gt;</text><text fill="#393" font-family="Arial" font-size="25" font-weight="bold" opacity="100" transform="rotate(-0.0 786.0,236.0) translate(0 25)" x="786.0" y="236.0">Сырец</text><polygon fill="#D0D0D0" opacity="100" points="715.0,221.0 729.0,221.0 729.0,236.0 715.0,236.0" stroke="#000" stroke-width="1" /><polygon fill="#D0D0D0" opacity="100" points="750.0,221.0 765.0,221.0 765.0,236.0 750.0,236.0" stroke="#000" stroke-width="1" /><polygon fill="#D0D0D0" opacity="100" points="786.0,221.0 801.0,221.0 801.0,236.0 786.0,236.0" stroke="#000" stroke-width="1" /><polygon fill="#D0D0D0" opacity="100" points="822.0,221.0 837.0,221.0 837.0,236.0 822.0,236.0" stroke="#000" stroke-width="1" /><polygon fill="#D0D0D0" opacity="100" points="858.0,221.0 873.0,221.0 873.0,236.0 858.0,236.0" stroke="#000" stroke-width="1" /><polygon fill="#D0D0D0" opacity="100" points="894.0,221.0 909.0,221.0 909.0,236.0 894.0,236.0" stroke="#000" stroke-width="1" /><polygon fill="#D0D0D0" opacity="100" points="930.0,221.0 945.0,221.0 945.0,236.0 930.0,236.0" stroke="#000" stroke-width="1" /><polygon fill="#D0D0D0" opacity="100" points="715.0,264.0 729.0,264.0 729.0,279.0 715.0,279.0" stroke="#000" stroke-width="1" /><polygon fill="#D0D0D0" opacity="100" points="750.0,264.0 765.0,264.0 765.0,279.0 750.0,279.0" stroke="#000" stroke-width="1" /><polygon fill="#D0D0D0" opacity="100" points="786.0,264.0 801.0,264.0 801.0,279.0 786.0,279.0" stroke="#000" stroke-width="1" /><polygon fill="#D0D0D0" opacity="100" points="822.0,264.0 837.0,264.0 837.0,279.0 822.0,279.0" stroke="#000" stroke-width="1" /><polygon fill="#D0D0D0" opacity="100" points="858.0,264.0 873.0,264.0 873.0,279.0 858.0,279.0" stroke="#000" stroke-width="1" /><polygon fill="#D0D0D0" opacity="100" points="894.0,264.0 909.0,264.0 909.0,279.0 894.0,279.0" stroke="#000" stroke-width="1" /><polygon fill="#D0D0D0" opacity="100" points="930.0,264.0 945.0,264.0 945.0,279.0 930.0,279.0" stroke="#000" stroke-width="1" /><polyline fill="none" opacity="100" points="1081.0,210.0 1081.0,221.0 966.0,221.0 966.0,236.0 978.0,236.0 978.0,264.0 966.0,264.0 966.0,279.0 1081.0,279.0 1081.0,290.0" stroke="#000" stroke-width="1" /><polyline fill="none" opacity="100" points="529.0,224.0 529.0,220.0 596.0,220.0 596.0,236.0 694.0,236.0 694.0,221.0 631.0,221.0 631.0,210.0" stroke="#000" stroke-width="1" /><polyline fill="none" opacity="100" points="631.0,290.0 631.0,279.0 694.0,279.0 694.0,264.0 596.0,264.0 596.0,281.0 529.0,281.0 529.0,277.0" stroke="#000" stroke-width="1" /><polyline fill="none" opacity="100" points="58.0,251.0 60.0547,245.4297 62.3438,240.0938 64.8689,234.9907 67.625,230.125 70.6018,225.5054 73.8164,221.1172 77.2739,216.9561 81.0,213.0 85.0425,209.208 89.3398,205.6328 93.8511,202.3096 98.5625,199.25 103.4536,196.4717 108.5039,193.9922 113.6997,191.8232 119.0,190.0 124.3433,188.5752 129.7773,187.5078 135.3279,186.7759 141.0,186.375 146.8108,186.2905 152.75,186.5312 158.8125,187.1016 165.0,188.0" stroke="#000" stroke-width="1" /><polyline fill="none" opacity="100" points="213.0,215.0 213.5,215.4453 214.0,215.9062 214.5,216.3828 215.0,216.875 215.5,217.3828 216.0,217.9062 216.5,218.4453 217.0,219.0 217.5,219.5703 218.0,220.1562 218.5,220.7578 219.0,221.375 219.5,222.0078 220.0,222.6562 220.5,223.3203 221.0,224.0" stroke="#000" stroke-width="1" /><polyline fill="none" opacity="100" points="238.0,277.0 237.9609,281.4688 237.7188,285.875 237.2734,290.2188 236.625,294.5 235.7734,298.7188 234.7188,302.875 233.4609,306.9688 232.0,311.0 230.3359,314.9688 228.4688,318.875 226.3984,322.7188 224.125,326.5 221.6484,330.2188 218.9688,333.875 216.0859,337.4688 213.0,341.0" stroke="#000" stroke-width="1" /><polyline fill="none" opacity="100" points="168.0,367.0 161.7422,368.3125 155.5938,369.25 149.5522,369.8101 143.625,370.0 137.8267,369.8345 132.1328,369.2891 126.5361,368.3564 121.0,367.0 115.4561,365.1514 109.9922,362.8984 104.667,360.2998 99.5,357.375 94.5205,354.1533 89.7578,350.6641 85.2314,346.9268 81.0,343.0 77.1514,338.9717 73.6172,334.7734 70.3608,330.3687 67.375,325.75 64.6353,320.8931 62.1562,315.8125 59.9453,310.5156 58.0,305.0" stroke="#000" stroke-width="1" /><polyline fill="none" opacity="100" points="165.0,188.0 179.0,180.0 213.0,198.0 213.0,215.0" stroke="#000" stroke-width="1" /><polyline fill="none" opacity="100" points="213.0,341.0 213.0,358.0 182.0,376.0 168.0,367.0" stroke="#000" stroke-width="1" /><polyline fill="none" opacity="100" points="58.0,251.0 44.0,259.0 44.0,296.0 58.0,305.0" stroke="#000" stroke-width="1" /><polyline fill="none" opacity="100" points="531.0,274.0 531.0,227.0" stroke="#7F7F7F" stroke-width="1" /><polyline fill="none" opacity="100" points="527.0,274.0 527.0,227.0" stroke="#7F7F7F" stroke-width="1" /><polyline fill="none" opacity="100" points="523.0,274.0 523.0,227.0" stroke="#7F7F7F" stroke-width="1" /><polyline fill="none" opacity="100" points="519.0,274.0 519.0,227.0" stroke="#7F7F7F" stroke-width="1" /><polyline fill="none" opacity="100" points="515.0,274.0 515.0,227.0" stroke="#7F7F7F" stroke-width="1" /><polyline fill="none" opacity="100" points="511.0,274.0 511.0,227.0" stroke="#7F7F7F" stroke-width="1" /><polyline fill="none" opacity="100" points="507.0,274.0 507.0,227.0" stroke="#7F7F7F" stroke-width="1" /><polyline fill="none" opacity="100" points="503.0,274.0 503.0,227.0" stroke="#7F7F7F" stroke-width="1" /><polyline fill="none" opacity="100" points="499.0,274.0 499.0,227.0" stroke="#7F7F7F" stroke-width="1" /><polyline fill="none" opacity="100" points="495.0,274.0 495.0,227.0" stroke="#7F7F7F" stroke-width="1" /><polyline fill="none" opacity="100" points="491.0,274.0 491.0,227.0" stroke="#7F7F7F" stroke-width="1" /><polyline fill="none" opacity="100" points="487.0,274.0 487.0,227.0" stroke="#7F7F7F" stroke-width="1" /><polyline fill="none" opacity="100" points="483.0,274.0 483.0,227.0" stroke="#7F7F7F" stroke-width="1" /><polyline fill="none" opacity="100" points="479.0,274.0 479.0,227.0" stroke="#7F7F7F" stroke-width="1" /><polyline fill="none" opacity="100" points="475.0,274.0 475.0,227.0" stroke="#7F7F7F" stroke-width="1" /><polyline fill="none" opacity="100" points="471.0,274.0 471.0,227.0" stroke="#7F7F7F" stroke-width="1" /><polyline fill="none" opacity="100" points="467.0,274.0 467.0,227.0" stroke="#7F7F7F" stroke-width="1" /><polyline fill="none" opacity="100" points="463.0,274.0 463.0,227.0" stroke="#7F7F7F" stroke-width="1" /><polyline fill="none" opacity="100" points="459.0,274.0 459.0,227.0" stroke="#7F7F7F" stroke-width="1" /><polyline fill="none" opacity="100" points="455.0,274.0 455.0,227.0" stroke="#7F7F7F" stroke-width="1" /><polyline fill="none" opacity="100" points="451.0,274.0 451.0,227.0" stroke="#7F7F7F" stroke-width="1" /><polyline fill="none" opacity="100" points="447.0,274.0 447.0,227.0" stroke="#7F7F7F" stroke-width="1" /><polyline fill="none" opacity="100" points="443.0,274.0 443.0,227.0" stroke="#7F7F7F" stroke-width="1" /><polyline fill="none" opacity="100" points="439.0,274.0 439.0,227.0" stroke="#7F7F7F" stroke-width="1" /><polyline fill="none" opacity="100" points="435.0,274.0 435.0,227.0" stroke="#7F7F7F" stroke-width="1" /><polyline fill="none" opacity="100" points="431.0,274.0 431.0,227.0" stroke="#7F7F7F" stroke-width="1" /><polyline fill="none" opacity="100" points="427.0,274.0 427.0,227.0" stroke="#7F7F7F" stroke-width="1" /><polyline fill="none" opacity="100" points="423.0,274.0 423.0,227.0" stroke="#7F7F7F" stroke-width="1" /><polyline fill="none" opacity="100" points="419.0,274.0 419.0,227.0" stroke="#7F7F7F" stroke-width="1" /><polyline fill="none" opacity="100" points="415.0,274.0 415.0,227.0" stroke="#7F7F7F" stroke-width="1" /><polyline fill="none" opacity="100" points="411.0,274.0 411.0,227.0" stroke="#7F7F7F" stroke-width="1" /><polyline fill="none" opacity="100" points="407.0,274.0 407.0,227.0" stroke="#7F7F7F" stroke-width="1" /><polyline fill="none" opacity="100" points="403.0,274.0 403.0,227.0" stroke="#7F7F7F" stroke-width="1" /><polyline fill="none" opacity="100" points="399.0,274.0 399.0,227.0" stroke="#7F7F7F" stroke-width="1" /><polyline fill="none" opacity="100" points="395.0,274.0 395.0,227.0" stroke="#7F7F7F" stroke-width="1" /><polyline fill="none" opacity="100" points="391.0,274.0 391.0,227.0" stroke="#7F7F7F" stroke-width="1" /><polyline fill="none" opacity="100" points="387.0,274.0 387.0,227.0" stroke="#7F7F7F" stroke-width="1" /><polyline fill="none" opacity="100" points="383.0,274.0 383.0,227.0" stroke="#7F7F7F" stroke-width="1" /><polyline fill="none" opacity="100" points="379.0,274.0 379.0,227.0" stroke="#7F7F7F" stroke-width="1" /><polyline fill="none" opacity="100" points="375.0,274.0 375.0,227.0" stroke="#7F7F7F" stroke-width="1" /><polyline fill="none" opacity="100" points="371.0,274.0 371.0,227.0" stroke="#7F7F7F" stroke-width="1" /><polyline fill="none" opacity="100" points="367.0,274.0 367.0,227.0" stroke="#7F7F7F" stroke-width="1" /><polyline fill="none" opacity="100" points="363.0,274.0 363.0,227.0" stroke="#7F7F7F" stroke-width="1" /><polyline fill="none" opacity="100" points="359.0,274.0 359.0,227.0" stroke="#7F7F7F" stroke-width="1" /><polyline fill="none" opacity="100" points="355.0,274.0 355.0,227.0" stroke="#7F7F7F" stroke-width="1" /><polyline fill="none" opacity="100" points="351.0,274.0 351.0,227.0" stroke="#7F7F7F" stroke-width="1" /><polyline fill="none" opacity="100" points="347.0,274.0 347.0,227.0" stroke="#7F7F7F" stroke-width="1" /><polyline fill="none" opacity="100" points="343.0,274.0 343.0,227.0" stroke="#7F7F7F" stroke-width="1" /><polyline fill="none" opacity="100" points="339.0,274.0 339.0,227.0" stroke="#7F7F7F" stroke-width="1" /><polyline fill="none" opacity="100" points="335.0,274.0 335.0,227.0" stroke="#7F7F7F" stroke-width="1" /><polyline fill="none" opacity="100" points="331.0,274.0 331.0,227.0" stroke="#7F7F7F" stroke-width="1" /><polyline fill="none" opacity="100" points="327.0,274.0 327.0,227.0" stroke="#7F7F7F" stroke-width="1" /><polyline fill="none" opacity="100" points="323.0,274.0 323.0,227.0" stroke="#7F7F7F" stroke-width="1" /><polyline fill="none" opacity="100" points="319.0,274.0 319.0,227.0" stroke="#7F7F7F" stroke-width="1" /><polyline fill="none" opacity="100" points="315.0,274.0 315.0,227.0" stroke="#7F7F7F" stroke-width="1" /><polyline fill="none" opacity="100" points="311.0,274.0 311.0,227.0" stroke="#7F7F7F" stroke-width="1" /><polyline fill="none" opacity="100" points="307.0,274.0 307.0,227.0" stroke="#7F7F7F" stroke-width="1" /><polyline fill="none" opacity="100" points="303.0,274.0 303.0,227.0" stroke="#7F7F7F" stroke-width="1" /><polyline fill="none" opacity="100" points="299.0,274.0 299.0,227.0" stroke="#7F7F7F" stroke-width="1" /><polyline fill="none" opacity="100" points="295.0,274.0 295.0,227.0" stroke="#7F7F7F" stroke-width="1" /><polyline fill="none" opacity="100" points="291.0,274.0 291.0,227.0" stroke="#7F7F7F" stroke-width="1" /><polyline fill="none" opacity="100" points="287.0,274.0 287.0,227.0" stroke="#7F7F7F" stroke-width="1" /><polyline fill="none" opacity="100" points="283.0,274.0 283.0,227.0" stroke="#7F7F7F" stroke-width="1" /><polyline fill="none" opacity="100" points="279.0,274.0 279.0,227.0" stroke="#7F7F7F" stroke-width="1" /><polyline fill="none" opacity="100" points="275.0,274.0 275.0,227.0" stroke="#7F7F7F" stroke-width="1" /><polyline fill="none" opacity="100" points="271.0,274.0 271.0,227.0" stroke="#7F7F7F" stroke-width="1" /><polyline fill="none" opacity="100" points="267.0,274.0 267.0,227.0" stroke="#7F7F7F" stroke-width="1" /><polyline fill="none" opacity="100" points="263.0,274.0 263.0,227.0" stroke="#7F7F7F" stroke-width="1" /><polyline fill="none" opacity="100" points="259.0,274.0 259.0,227.0" stroke="#7F7F7F" stroke-width="1" /><polyline fill="none" opacity="100" points="255.0,274.0 255.0,227.0" stroke="#7F7F7F" stroke-width="1" /><polyline fill="none" opacity="100" points="251.0,274.0 251.0,227.0" stroke="#7F7F7F" stroke-width="1" /><polyline fill="none" opacity="100" points="247.0,274.0 247.0,227.0" stroke="#7F7F7F" stroke-width="1" /><polyline fill="none" opacity="100" points="243.0,274.0 243.0,227.0" stroke="#7F7F7F" stroke-width="1" /><polyline fill="none" opacity="100" points="239.0,274.0 239.0,227.0" stroke="#7F7F7F" stroke-width="1" /><polyline fill="none" opacity="100" points="235.0,274.0 235.0,227.0" stroke="#7F7F7F" stroke-width="1" /><polyline fill="none" opacity="100" points="231.0,274.0 231.0,227.0" stroke="#7F7F7F" stroke-width="1" /><polyline fill="none" opacity="100" points="227.0,274.0 227.0,227.0" stroke="#7F7F7F" stroke-width="1" /><polyline fill="none" opacity="100" points="223.0,274.0 223.0,227.0" stroke="#7F7F7F" stroke-width="1" /><polyline fill="none" opacity="100" points="219.0,274.0 219.0,227.0" stroke="#7F7F7F" stroke-width="1" /><polyline fill="none" opacity="100" points="215.0,274.0 215.0,227.0" stroke="#7F7F7F" stroke-width="1" /><polyline fill="none" opacity="100" points="211.0,274.0 211.0,227.0" stroke="#7F7F7F" stroke-width="1" /><polygon fill="#9B5509" opacity="100" points="538.0,227.0 205.0,227.0 205.0,224.0 538.0,224.0" stroke="#000" stroke-width="1" /><polygon fill="#9B5509" opacity="100" points="538.0,235.0 538.0,240.0 205.0,240.0 205.0,235.0" stroke="#000" stroke-width="1" /><polygon fill="#9B5509" opacity="100" points="538.0,248.0 538.0,253.0 205.0,253.0 205.0,248.0" stroke="#000" stroke-width="1" /><polygon fill="#9B5509" opacity="100" points="538.0,261.0 538.0,266.0 205.0,266.0 205.0,261.0" stroke="#000" stroke-width="1" /><polygon fill="#9B5509" opacity="100" points="538.0,274.0 205.0,274.0 205.0,277.0 538.0,277.0" stroke="#000" stroke-width="1" /><text fill="#00AFAF" font-family="Arial" font-size="15" font-weight="normal" opacity="100" transform="rotate(-10.0 11.0,25.0) translate(0 15)" x="11.0" y="25.0">ул. Щусева</text><text fill="#00AFAF" font-family="Arial" font-size="15" font-weight="normal" opacity="100" transform="rotate(-10.0 8.0,59.0) translate(0 15)" x="8.0" y="59.0">&lt;&lt; ж/д пл. "Сырец"</text><text fill="#FFD0D0" font-family="Arial" font-size="100" font-weight="bold" opacity="100" transform="rotate(-0.0 116.0,225.0) translate(0 100)" x="116.0" y="225.0">?</text></g></svg>