<?xml version="1.0" encoding="utf-8" ?>
<svg baseProfile="tiny" height="830px" version="1.2" width="600px" xmlns="http://www.w3.org/2000/svg" xmlns:ev="http://www.w3.org/2001/xml-events" xmlns:xlink="http://www.w3.org/1999/xlink"><defs /><g><g transform="rotate(50.0,300.0,415.0)"><polygon fill="#339" opacity="100" points="-105.0,337.0 -105.0,307.0 345.0,307.0 345.0,337.0" stroke="#000" stroke-width="1" /><polygon fill="#339" opacity="100" points="-105.0,417.0 -105.0,447.0 345.0,447.0 345.0,417.0" stroke="#000" stroke-width="1" /><text fill="#339" font-family="Arial" font-size="20" font-weight="normal" opacity="100" transform="rotate(-360.0 -105.0,283.0) translate(0 20)" x="-105.0" y="283.0">&lt;&lt; Почайна</text><text fill="#339" font-family="Arial" font-size="20" font-weight="normal" opacity="100" transform="rotate(-0.0 122.0,447.0) translate(0 20)" x="122.0" y="447.0">Контрактовая площадь &gt;&gt;</text><text fill="#339" font-family="Arial" font-size="25" font-weight="bold" opacity="100" transform="rotate(-360.0 1.0,358.0) translate(0 25)" x="1.0" y="358.0">Тараса Шевченко</text><polyline fill="none" opacity="100" points="-105.0,337.0 -105.0,347.0 -86.0,347.0 -86.0,354.0 -89.0,354.0 -89.0,400.0 -86.0,400.0 -86.0,407.0 -105.0,407.0 -105.0,417.0 345.0,417.0 345.0,407.0 343.0,407.0 343.0,400.0 393.0,400.0" stroke="#000" stroke-width="1" /><polyline fill="none" opacity="100" points="425.0,354.0 343.0,354.0 343.0,347.0 345.0,347.0 345.0,337.0 -105.0,337.0" stroke="#000" stroke-width="1" /><polyline fill="none" opacity="100" points="393.0,400.0 393.0,435.0 473.0,435.0 473.0,480.0 425.0,480.0" stroke="#000" stroke-width="1" /><polyline fill="none" opacity="100" points="425.0,354.0 425.0,320.0 462.0,320.0 462.0,353.0 467.0,353.0 467.0,320.0 473.0,320.0 473.0,275.0 425.0,275.0" stroke="#000" stroke-width="1" /><polygon fill="#D0D0D0" opacity="100" points="462.0,404.0 462.0,384.0 467.0,384.0 467.0,404.0" stroke="#000" stroke-width="1" /><polyline fill="none" opacity="100" points="425.0,497.0 545.0,497.0" stroke="#000" stroke-width="1" /><polyline fill="none" opacity="100" points="545.0,480.0 497.0,480.0 497.0,275.0 545.0,275.0" stroke="#000" stroke-width="1" /><polyline fill="none" opacity="100" points="545.0,257.0 425.0,257.0" stroke="#000" stroke-width="1" /><polyline fill="none" opacity="100" points="427.0,497.0 427.0,480.0" stroke="#000" stroke-width="1" /><polyline fill="none" opacity="100" points="431.0,497.0 431.0,480.0" stroke="#000" stroke-width="1" /><polyline fill="none" opacity="100" points="435.0,497.0 435.0,480.0" stroke="#000" stroke-width="1" /><polyline fill="none" opacity="100" points="439.0,497.0 439.0,480.0" stroke="#000" stroke-width="1" /><polyline fill="none" opacity="100" points="443.0,497.0 443.0,480.0" stroke="#000" stroke-width="1" /><polyline fill="none" opacity="100" points="447.0,497.0 447.0,480.0" stroke="#000" stroke-width="1" /><polyline fill="none" opacity="100" points="451.0,497.0 451.0,480.0" stroke="#000" stroke-width="1" /><polyline fill="none" opacity="100" points="455.0,497.0 455.0,480.0" stroke="#000" stroke-width="1" /><polyline fill="none" opacity="100" points="459.0,497.0 459.0,480.0" stroke="#000" stroke-width="1" /><polyline fill="none" opacity="100" points="463.0,497.0 463.0,480.0" stroke="#000" stroke-width="1" /><polyline fill="none" opacity="100" points="467.0,497.0 467.0,480.0" stroke="#000" stroke-width="1" /><polyline fill="none" opacity="100" points="471.0,497.0 471.0,480.0" stroke="#000" stroke-width="1" /><polyline fill="none" opacity="100" points="543.0,497.0 543.0,480.0" stroke="#000" stroke-width="1" /><polyline fill="none" opacity="100" points="539.0,497.0 539.0,480.0" stroke="#000" stroke-width="1" /><polyline fill="none" opacity="100" points="535.0,497.0 535.0,480.0" stroke="#000" stroke-width="1" /><polyline fill="none" opacity="100" points="531.0,497.0 531.0,480.0" stroke="#000" stroke-width="1" /><polyline fill="none" opacity="100" points="527.0,497.0 527.0,480.0" stroke="#000" stroke-width="1" /><polyline fill="none" opacity="100" points="523.0,497.0 523.0,480.0" stroke="#000" stroke-width="1" /><polyline fill="none" opacity="100" points="519.0,497.0 519.0,480.0" stroke="#000" stroke-width="1" /><polyline fill="none" opacity="100" points="515.0,497.0 515.0,480.0" stroke="#000" stroke-width="1" /><polyline fill="none" opacity="100" points="511.0,497.0 511.0,480.0" stroke="#000" stroke-width="1" /><polyline fill="none" opacity="100" points="507.0,497.0 507.0,480.0" stroke="#000" stroke-width="1" /><polyline fill="none" opacity="100" points="503.0,497.0 503.0,480.0" stroke="#000" stroke-width="1" /><polyline fill="none" opacity="100" points="499.0,497.0 499.0,480.0" stroke="#000" stroke-width="1" /><polyline fill="none" opacity="100" points="427.0,257.0 427.0,275.0" stroke="#000" stroke-width="1" /><polyline fill="none" opacity="100" points="431.0,257.0 431.0,275.0" stroke="#000" stroke-width="1" /><polyline fill="none" opacity="100" points="435.0,257.0 435.0,275.0" stroke="#000" stroke-width="1" /><polyline fill="none" opacity="100" points="439.0,257.0 439.0,275.0" stroke="#000" stroke-width="1" /><polyline fill="none" opacity="100" points="443.0,257.0 443.0,275.0" stroke="#000" stroke-width="1" /><polyline fill="none" opacity="100" points="447.0,257.0 447.0,275.0" stroke="#000" stroke-width="1" /><polyline fill="none" opacity="100" points="451.0,257.0 451.0,275.0" stroke="#000" stroke-width="1" /><polyline fill="none" opacity="100" points="455.0,257.0 455.0,275.0" stroke="#000" stroke-width="1" /><polyline fill="none" opacity="100" points="459.0,257.0 459.0,275.0" stroke="#000" stroke-width="1" /><polyline fill="none" opacity="100" points="463.0,257.0 463.0,275.0" stroke="#000" stroke-width="1" /><polyline fill="none" opacity="100" points="467.0,257.0 467.0,275.0" stroke="#000" stroke-width="1" /><polyline fill="none" opacity="100" points="471.0,257.0 471.0,275.0" stroke="#000" stroke-width="1" /><polyline fill="none" opacity="100" points="543.0,257.0 543.0,275.0" stroke="#000" stroke-width="1" /><polyline fill="none" opacity="100" points="539.0,257.0 539.0,275.0" stroke="#000" stroke-width="1" /><polyline fill="none" opacity="100" points="535.0,257.0 535.0,275.0" stroke="#000" stroke-width="1" /><polyline fill="none" opacity="100" points="531.0,257.0 531.0,275.0" stroke="#000" stroke-width="1" /><polyline fill="none" opacity="100" points="527.0,257.0 527.0,275.0" stroke="#000" stroke-width="1" /><polyline fill="none" opacity="100" points="523.0,257.0 523.0,275.0" stroke="#000" stroke-width="1" /><polyline fill="none" opacity="100" points="519.0,257.0 519.0,275.0" stroke="#000" stroke-width="1" /><polyline fill="none" opacity="100" points="515.0,257.0 515.0,275.0" stroke="#000" stroke-width="1" /><polyline fill="none" opacity="100" points="511.0,257.0 511.0,275.0" stroke="#000" stroke-width="1" /><polyline fill="none" opacity="100" points="507.0,257.0 507.0,275.0" stroke="#000" stroke-width="1" /><polyline fill="none" opacity="100" points="503.0,257.0 503.0,275.0" stroke="#000" stroke-width="1" /><polyline fill="none" opacity="100" points="499.0,257.0 499.0,275.0" stroke="#000" stroke-width="1" /><polyline fill="none" opacity="100" points="347.0,400.0 347.0,354.0" stroke="#000" stroke-width="1" /><polyline fill="none" opacity="100" points="351.0,400.0 351.0,354.0" stroke="#000" stroke-width="1" /><polyline fill="none" opacity="100" points="355.0,400.0 355.0,354.0" stroke="#000" stroke-width="1" /><polyline fill="none" opacity="100" points="359.0,400.0 359.0,354.0" stroke="#000" stroke-width="1" /><polyline fill="none" opacity="100" points="363.0,400.0 363.0,354.0" stroke="#000" stroke-width="1" /><polyline fill="none" opacity="100" points="367.0,400.0 367.0,354.0" stroke="#000" stroke-width="1" /><polyline fill="none" opacity="100" points="371.0,400.0 371.0,354.0" stroke="#000" stroke-width="1" /><polyline fill="none" opacity="100" points="375.0,400.0 375.0,354.0" stroke="#000" stroke-width="1" /><polyline fill="none" opacity="100" points="379.0,400.0 379.0,354.0" stroke="#000" stroke-width="1" /><polyline fill="none" opacity="100" points="383.0,400.0 383.0,354.0" stroke="#000" stroke-width="1" /><polyline fill="none" opacity="100" points="387.0,400.0 387.0,354.0" stroke="#000" stroke-width="1" /><polyline fill="none" opacity="100" points="391.0,400.0 391.0,354.0" stroke="#000" stroke-width="1" /><polyline fill="none" opacity="100" points="430.0,396.0 461.0,396.0" stroke="#000" stroke-width="0.5" /><polygon fill="none" opacity="100" points="408.0,349.0 408.0,354.0 413.0,354.0 413.0,349.0" stroke="#000" stroke-width="1" /><polyline fill="none" opacity="100" points="408.0,359.0 413.0,356.0" stroke="#090" stroke-width="1" /><polyline fill="none" opacity="100" points="410.0155,362.4551 415.0155,359.4551" stroke="#090" stroke-width="1" /><polyline fill="none" opacity="100" points="412.031,365.9102 417.031,362.9102" stroke="#090" stroke-width="1" /><polyline fill="none" opacity="100" points="414.0465,369.3653 419.0465,366.3653" stroke="#090" stroke-width="1" /><polyline fill="none" opacity="100" points="416.0619,372.8205 421.0619,369.8205" stroke="#090" stroke-width="1" /><polyline fill="none" opacity="100" points="418.0774,376.2756 423.0774,373.2756" stroke="#090" stroke-width="1" /><polyline fill="none" opacity="100" points="420.0929,379.7307 425.0929,376.7307" stroke="#090" stroke-width="1" /><polyline fill="none" opacity="100" points="422.1084,383.1858 427.1084,380.1858" stroke="#090" stroke-width="1" /><polyline fill="none" opacity="100" points="424.1239,386.6409 429.1239,383.6409" stroke="#090" stroke-width="1" /><polyline fill="none" opacity="100" points="426.1394,390.096 431.1394,387.096" stroke="#090" stroke-width="1" /><polyline fill="none" opacity="100" points="428.1548,393.5512 433.1548,390.5512" stroke="#090" stroke-width="1" /><polyline fill="none" opacity="100" points="425.0,351.0 416.0,351.0 416.0,322.0 425.0,322.0" stroke="#000" stroke-width="1" /><text fill="#000" font-family="Arial" font-size="10" font-weight="normal" opacity="100" transform="rotate(-90.0 414.0,349.0) translate(0 10)" x="414.0" y="349.0">кассы</text><polygon fill="#D0D0D0" opacity="100" points="-71.0,407.0 -71.0,400.0 -64.0,400.0 -64.0,407.0" stroke="#000" stroke-width="1" /><polygon fill="#D0D0D0" opacity="100" points="-43.0,407.0 -43.0,400.0 -36.0,400.0 -36.0,407.0" stroke="#000" stroke-width="1" /><polygon fill="#D0D0D0" opacity="100" points="-15.0,407.0 -15.0,400.0 -8.0,400.0 -8.0,407.0" stroke="#000" stroke-width="1" /><polygon fill="#D0D0D0" opacity="100" points="13.0,407.0 13.0,400.0 20.0,400.0 20.0,407.0" stroke="#000" stroke-width="1" /><polygon fill="#D0D0D0" opacity="100" points="41.0,407.0 41.0,400.0 48.0,400.0 48.0,407.0" stroke="#000" stroke-width="1" /><polygon fill="#D0D0D0" opacity="100" points="69.0,407.0 69.0,400.0 76.0,400.0 76.0,407.0" stroke="#000" stroke-width="1" /><polygon fill="#D0D0D0" opacity="100" points="97.0,407.0 97.0,400.0 104.0,400.0 104.0,407.0" stroke="#000" stroke-width="1" /><polygon fill="#D0D0D0" opacity="100" points="125.0,407.0 125.0,400.0 132.0,400.0 132.0,407.0" stroke="#000" stroke-width="1" /><polygon fill="#D0D0D0" opacity="100" points="153.0,407.0 153.0,400.0 160.0,400.0 160.0,407.0" stroke="#000" stroke-width="1" /><polygon fill="#D0D0D0" opacity="100" points="181.0,407.0 181.0,400.0 188.0,400.0 188.0,407.0" stroke="#000" stroke-width="1" /><polygon fill="#D0D0D0" opacity="100" points="209.0,407.0 209.0,400.0 216.0,400.0 216.0,407.0" stroke="#000" stroke-width="1" /><polygon fill="#D0D0D0" opacity="100" points="237.0,407.0 237.0,400.0 244.0,400.0 244.0,407.0" stroke="#000" stroke-width="1" /><polygon fill="#D0D0D0" opacity="100" points="265.0,407.0 265.0,400.0 272.0,400.0 272.0,407.0" stroke="#000" stroke-width="1" /><polygon fill="#D0D0D0" opacity="100" points="293.0,407.0 293.0,400.0 300.0,400.0 300.0,407.0" stroke="#000" stroke-width="1" /><polygon fill="#D0D0D0" opacity="100" points="321.0,407.0 321.0,400.0 328.0,400.0 328.0,407.0" stroke="#000" stroke-width="1" /><polygon fill="#D0D0D0" opacity="100" points="-71.0,354.0 -71.0,347.0 -64.0,347.0 -64.0,354.0" stroke="#000" stroke-width="1" /><polygon fill="#D0D0D0" opacity="100" points="-43.0,354.0 -43.0,347.0 -36.0,347.0 -36.0,354.0" stroke="#000" stroke-width="1" /><polygon fill="#D0D0D0" opacity="100" points="-15.0,354.0 -15.0,347.0 -8.0,347.0 -8.0,354.0" stroke="#000" stroke-width="1" /><polygon fill="#D0D0D0" opacity="100" points="13.0,354.0 13.0,347.0 20.0,347.0 20.0,354.0" stroke="#000" stroke-width="1" /><polygon fill="#D0D0D0" opacity="100" points="41.0,354.0 41.0,347.0 48.0,347.0 48.0,354.0" stroke="#000" stroke-width="1" /><polygon fill="#D0D0D0" opacity="100" points="69.0,354.0 69.0,347.0 76.0,347.0 76.0,354.0" stroke="#000" stroke-width="1" /><polygon fill="#D0D0D0" opacity="100" points="97.0,354.0 97.0,347.0 104.0,347.0 104.0,354.0" stroke="#000" stroke-width="1" /><polygon fill="#D0D0D0" opacity="100" points="125.0,354.0 125.0,347.0 132.0,347.0 132.0,354.0" stroke="#000" stroke-width="1" /><polygon fill="#D0D0D0" opacity="100" points="153.0,354.0 153.0,347.0 160.0,347.0 160.0,354.0" stroke="#000" stroke-width="1" /><polygon fill="#D0D0D0" opacity="100" points="181.0,354.0 181.0,347.0 188.0,347.0 188.0,354.0" stroke="#000" stroke-width="1" /><polygon fill="#D0D0D0" opacity="100" points="209.0,354.0 209.0,347.0 216.0,347.0 216.0,354.0" stroke="#000" stroke-width="1" /><polygon fill="#D0D0D0" opacity="100" points="237.0,354.0 237.0,347.0 244.0,347.0 244.0,354.0" stroke="#000" stroke-width="1" /><polygon fill="#D0D0D0" opacity="100" points="265.0,354.0 265.0,347.0 272.0,347.0 272.0,354.0" stroke="#000" stroke-width="1" /><polygon fill="#D0D0D0" opacity="100" points="293.0,354.0 293.0,347.0 300.0,347.0 300.0,354.0" stroke="#000" stroke-width="1" /><polygon fill="#D0D0D0" opacity="100" points="321.0,354.0 321.0,347.0 328.0,347.0 328.0,354.0" stroke="#000" stroke-width="1" /><polyline fill="none" opacity="100" points="472.0,369.0 456.0,369.0" stroke="#090" stroke-width="1" /><polygon fill="#090" opacity="100" points="460.6364,367.7577 456.0,369.0 460.6364,370.2423" stroke="#090" stroke-width="1" /><polyline fill="none" opacity="100" points="456.0,419.0 472.0,419.0" stroke="#F00" stroke-width="1" /><polygon fill="#F00" opacity="100" points="467.3636,420.2423 472.0,419.0 467.3636,417.7577" stroke="#F00" stroke-width="1" /><text fill="#00AFAF" font-family="Arial" font-size="15" font-weight="normal" opacity="100" transform="rotate(-360.0 545.0,370.0) translate(0 15)" x="545.0" y="370.0">Межигорская улица</text><text fill="#00AFAF" font-family="Arial" font-size="15" font-weight="normal" opacity="100" transform="rotate(-90.0 688.0,554.0) translate(0 15)" x="688.0" y="554.0">Еленовская улица</text></g></g></svg>