<?xml version="1.0" encoding="utf-8" ?>
<svg baseProfile="tiny" height="440px" version="1.2" width="740px" xmlns="http://www.w3.org/2000/svg" xmlns:ev="http://www.w3.org/2001/xml-events" xmlns:xlink="http://www.w3.org/1999/xlink"><defs /><g><g transform="rotate(-5.0,370.0,220.0)"><polygon fill="#D0D0D0" opacity="100" points="249.0,290.0 245.0,266.0 238.0,242.0 318.0,242.0 321.0,244.0 322.0,250.0 289.0,248.0 254.0,249.0 254.0,380.0 285.0,380.0 322.0,381.0 321.0,386.0 318.0,388.0 238.0,388.0 245.0,366.0 250.0,336.0 251.0,315.0" stroke="#D0D0D0" stroke-width="1" /><polygon fill="#393" opacity="100" points="703.0,319.0 700.0,349.0 477.0,325.0 420.0,319.0 367.0,316.0 315.0,313.0 254.0,313.0 254.0,283.0 315.0,284.0 369.0,286.0 422.0,290.0 480.0,295.0" stroke="#393" stroke-width="1" /><polygon fill="#393" opacity="100" points="697.0,382.0 474.0,358.0 417.0,352.0 366.0,349.0 313.0,346.0 254.0,346.0 254.0,316.0 315.0,317.0 367.0,319.0 420.0,323.0 477.0,328.0 700.0,352.0" stroke="#393" stroke-width="1" /><polyline fill="none" opacity="100" points="254.0,346.0 268.2188,346.0469 282.375,346.1875 296.4688,346.4219 310.5,346.75 324.4688,347.1719 338.375,347.6875 352.2188,348.2969 366.0,349.0 379.7188,349.7969 393.375,350.6875 406.9688,351.6719 420.5,352.75 433.9688,353.9219 447.375,355.1875 460.7188,356.5469 474.0,358.0" stroke="#000" stroke-width="1" /><polyline fill="none" opacity="100" points="254.0,316.0 268.2891,316.0469 282.5312,316.1875 296.7266,316.4219 310.875,316.75 324.9766,317.1719 339.0312,317.6875 353.0391,318.2969 367.0,319.0 380.9141,319.7969 394.7812,320.6875 408.6016,321.6719 422.375,322.75 436.1016,323.9219 449.7812,325.1875 463.4141,326.5469 477.0,328.0" stroke="#000" stroke-width="1" /><polyline fill="none" opacity="100" points="254.0,313.0 268.2891,313.0469 282.5312,313.1875 296.7266,313.4219 310.875,313.75 324.9766,314.1719 339.0312,314.6875 353.0391,315.2969 367.0,316.0 380.9141,316.7969 394.7812,317.6875 408.6016,318.6719 422.375,319.75 436.1016,320.9219 449.7812,322.1875 463.4141,323.5469 477.0,325.0" stroke="#000" stroke-width="1" /><polyline fill="none" opacity="100" points="254.0,283.0 268.5938,283.0469 283.125,283.1875 297.5938,283.4219 312.0,283.75 326.3438,284.1719 340.625,284.6875 354.8438,285.2969 369.0,286.0 383.0938,286.7969 397.125,287.6875 411.0938,288.6719 425.0,289.75 438.8438,290.9219 452.625,292.1875 466.3438,293.5469 480.0,295.0" stroke="#000" stroke-width="1" /><polyline fill="none" opacity="100" points="254.0,283.0 254.0,313.0" stroke="#000" stroke-width="1" /><polyline fill="none" opacity="100" points="254.0,316.0 254.0,346.0" stroke="#000" stroke-width="1" /><polyline fill="none" opacity="100" points="480.0,295.0 703.0,319.0 700.0,349.0 477.0,325.0" stroke="#000" stroke-width="1" /><polyline fill="none" opacity="100" points="477.0,328.0 700.0,352.0 697.0,382.0 474.0,358.0" stroke="#000" stroke-width="1" /><polyline fill="none" opacity="100" points="703.0,319.0 707.0,286.0 484.0,262.0" stroke="#000" stroke-width="1" /><polyline fill="none" opacity="100" points="484.0,262.0 477.4141,261.1953 470.5312,260.4062 463.3516,259.6328 455.875,258.875 448.1016,258.1328 440.0312,257.4062 431.6641,256.6953 423.0,256.0 414.0391,255.3203 404.7812,254.6562 395.2266,254.0078 385.375,253.375 375.2266,252.7578 364.7812,252.1562 354.0391,251.5703 343.0,251.0" stroke="#000" stroke-width="1" /><polyline fill="none" opacity="100" points="322.0,250.0 317.9844,249.8203 313.9375,249.6562 309.8594,249.5078 305.75,249.375 301.6094,249.2578 297.4375,249.1562 293.2344,249.0703 289.0,249.0 284.7344,248.9453 280.4375,248.9062 276.1094,248.8828 271.75,248.875 267.3594,248.8828 262.9375,248.9062 258.4844,248.9453 254.0,249.0" stroke="#000" stroke-width="1" /><polyline fill="none" opacity="100" points="254.0,249.0 254.0,283.0" stroke="#000" stroke-width="1" /><polyline fill="none" opacity="100" points="697.0,382.0 693.0,416.0 470.0,392.0" stroke="#000" stroke-width="1" /><polyline fill="none" opacity="100" points="470.0,392.0 464.9922,391.375 459.5938,390.75 453.8047,390.125 447.625,389.5 441.0547,388.875 434.0938,388.25 426.7422,387.625 419.0,387.0 410.8672,386.375 402.3438,385.75 393.4297,385.125 384.125,384.5 374.4297,383.875 364.3438,383.25 353.8672,382.625 343.0,382.0" stroke="#000" stroke-width="1" /><polyline fill="none" opacity="100" points="322.0,381.0 316.1094,380.8203 310.4375,380.6562 304.9844,380.5078 299.75,380.375 294.7344,380.2578 289.9375,380.1562 285.3594,380.0703 281.0,380.0 276.8594,379.9453 272.9375,379.9062 269.2344,379.8828 265.75,379.875 262.4844,379.8828 259.4375,379.9062 256.6094,379.9453 254.0,380.0" stroke="#000" stroke-width="1" /><text fill="#000" font-family="Arial" font-size="20" font-weight="normal" opacity="100" transform="rotate(2.0 257.0,279.0) translate(0 20)" x="257.0" y="279.0">&lt;&lt; Харьковская</text><text fill="#000" font-family="Arial" font-size="20" font-weight="normal" opacity="100" transform="rotate(6.0 543.0,342.0) translate(0 20)" x="543.0" y="342.0">Бориспольская &gt;&gt;</text><text fill="#000" font-family="Arial" font-size="25" font-weight="bold" opacity="100" transform="rotate(6.0 422.0,304.0) translate(0 25)" x="422.0" y="304.0">Вырлица</text><text fill="#FFF" font-family="Arial" font-size="20" font-weight="normal" opacity="100" transform="rotate(2.0 256.0,278.0) translate(0 20)" x="256.0" y="278.0">&lt;&lt; Харьковская</text><text fill="#FFF" font-family="Arial" font-size="20" font-weight="normal" opacity="100" transform="rotate(6.0 542.0,341.0) translate(0 20)" x="542.0" y="341.0">Бориспольская &gt;&gt;</text><text fill="#FFF" font-family="Arial" font-size="25" font-weight="bold" opacity="100" transform="rotate(6.0 421.0,303.0) translate(0 25)" x="421.0" y="303.0">Вырлица</text><polyline fill="none" opacity="100" points="254.0,346.0 254.0,380.0" stroke="#000" stroke-width="1" /><polyline fill="none" opacity="100" points="343.0,382.0 343.0,396.0" stroke="#000" stroke-width="1" /><polyline fill="none" opacity="100" points="322.0,381.0 322.0,384.0" stroke="#000" stroke-width="1" /><polyline fill="none" opacity="100" points="255.0,388.0 255.0,413.0" stroke="#000" stroke-width="1" /><polyline fill="none" opacity="100" points="259.0,388.0 259.0,413.0" stroke="#000" stroke-width="1" /><polyline fill="none" opacity="100" points="263.0,388.0 263.0,413.0" stroke="#000" stroke-width="1" /><polyline fill="none" opacity="100" points="267.0,388.0 267.0,413.0" stroke="#000" stroke-width="1" /><polyline fill="none" opacity="100" points="271.0,388.0 271.0,413.0" stroke="#000" stroke-width="1" /><polyline fill="none" opacity="100" points="275.0,388.0 275.0,413.0" stroke="#000" stroke-width="1" /><polyline fill="none" opacity="100" points="279.0,388.0 279.0,413.0" stroke="#000" stroke-width="1" /><polyline fill="none" opacity="100" points="283.0,388.0 283.0,413.0" stroke="#000" stroke-width="1" /><polyline fill="none" opacity="100" points="287.0,388.0 287.0,413.0" stroke="#000" stroke-width="1" /><polyline fill="none" opacity="100" points="291.0,388.0 291.0,413.0" stroke="#000" stroke-width="1" /><polyline fill="none" opacity="100" points="295.0,388.0 295.0,413.0" stroke="#000" stroke-width="1" /><polyline fill="none" opacity="100" points="299.0,388.0 299.0,413.0" stroke="#000" stroke-width="1" /><polyline fill="none" opacity="100" points="343.0,396.0 342.5625,397.8828 342.0,399.6562 341.3125,401.3203 340.5,402.875 339.5625,404.3203 338.5,405.6562 337.3125,406.8828 336.0,408.0 334.5625,409.0078 333.0,409.9062 331.3125,410.6953 329.5,411.375 327.5625,411.9453 325.5,412.4062 323.3125,412.7578 321.0,413.0" stroke="#000" stroke-width="1" /><polyline fill="none" opacity="100" points="322.0,384.0 321.9844,384.4844 321.9375,384.9375 321.8594,385.3594 321.75,385.75 321.6094,386.1094 321.4375,386.4375 321.2344,386.7344 321.0,387.0 320.7344,387.2344 320.4375,387.4375 320.1094,387.6094 319.75,387.75 319.3594,387.8594 318.9375,387.9375 318.4844,387.9844 318.0,388.0" stroke="#000" stroke-width="1" /><polyline fill="none" opacity="100" points="324.0,218.0 326.2422,218.4922 328.3438,219.0938 330.3047,219.8047 332.125,220.625 333.8047,221.5547 335.3438,222.5938 336.7422,223.7422 338.0,225.0 339.1172,226.3672 340.0938,227.8438 340.9297,229.4297 341.625,231.125 342.1797,232.9297 342.5938,234.8438 342.8672,236.8672 343.0,239.0" stroke="#000" stroke-width="1" /><polyline fill="none" opacity="100" points="318.0,242.0 318.4844,242.0156 318.9375,242.0625 319.3594,242.1406 319.75,242.25 320.1094,242.3906 320.4375,242.5625 320.7344,242.7656 321.0,243.0 321.2344,243.2656 321.4375,243.5625 321.6094,243.8906 321.75,244.25 321.8594,244.6406 321.9375,245.0625 321.9844,245.5156 322.0,246.0" stroke="#000" stroke-width="1" /><polyline fill="none" opacity="100" points="322.0,250.0 322.0,246.0" stroke="#000" stroke-width="1" /><polyline fill="none" opacity="100" points="318.0,242.0 238.0,242.0" stroke="#000" stroke-width="1" /><polyline fill="none" opacity="100" points="238.0,388.0 240.8125,378.875 243.25,369.75 245.3125,360.625 247.0,351.5 248.3125,342.375 249.25,333.25 249.8125,324.125 250.0,315.0 249.8125,305.875 249.25,296.75 248.3125,287.625 247.0,278.5 245.3125,269.375 243.25,260.25 240.8125,251.125 238.0,242.0" stroke="#000" stroke-width="1" /><polyline fill="none" opacity="100" points="238.0,388.0 318.0,388.0" stroke="#000" stroke-width="1" /><polyline fill="none" opacity="100" points="343.0,251.0 343.0,239.0" stroke="#000" stroke-width="1" /><polyline fill="none" opacity="100" points="255.0,218.0 255.0,242.0" stroke="#000" stroke-width="1" /><polyline fill="none" opacity="100" points="259.0,218.0 259.0,242.0" stroke="#000" stroke-width="1" /><polyline fill="none" opacity="100" points="263.0,218.0 263.0,242.0" stroke="#000" stroke-width="1" /><polyline fill="none" opacity="100" points="267.0,218.0 267.0,242.0" stroke="#000" stroke-width="1" /><polyline fill="none" opacity="100" points="271.0,218.0 271.0,242.0" stroke="#000" stroke-width="1" /><polyline fill="none" opacity="100" points="275.0,218.0 275.0,242.0" stroke="#000" stroke-width="1" /><polyline fill="none" opacity="100" points="279.0,218.0 279.0,242.0" stroke="#000" stroke-width="1" /><polyline fill="none" opacity="100" points="283.0,218.0 283.0,242.0" stroke="#000" stroke-width="1" /><polyline fill="none" opacity="100" points="287.0,218.0 287.0,242.0" stroke="#000" stroke-width="1" /><polyline fill="none" opacity="100" points="291.0,218.0 291.0,242.0" stroke="#000" stroke-width="1" /><polyline fill="none" opacity="100" points="295.0,218.0 295.0,242.0" stroke="#000" stroke-width="1" /><polyline fill="none" opacity="100" points="299.0,218.0 299.0,242.0" stroke="#000" stroke-width="1" /><polyline fill="none" opacity="100" points="35.0,1.0 198.0,1.0" stroke="#000" stroke-width="1" /><polyline fill="none" opacity="100" points="198.0,189.0 130.0,189.0 130.0,248.0 210.0,248.0 210.0,218.0 324.0,218.0" stroke="#000" stroke-width="1" /><polyline fill="none" opacity="100" points="321.0,413.0 210.0,413.0 210.0,382.0 103.0,382.0 103.0,189.0 35.0,189.0" stroke="#000" stroke-width="1" /><polyline fill="none" opacity="100" points="35.0,168.0 103.0,168.0 103.0,22.0 35.0,22.0" stroke="#000" stroke-width="1" /><polyline fill="none" opacity="100" points="198.0,22.0 130.0,22.0 130.0,168.0 198.0,168.0" stroke="#000" stroke-width="1" /><polyline fill="none" opacity="100" points="37.0,22.0 37.0,1.0" stroke="#000" stroke-width="1" /><polyline fill="none" opacity="100" points="41.0,22.0 41.0,1.0" stroke="#000" stroke-width="1" /><polyline fill="none" opacity="100" points="45.0,22.0 45.0,1.0" stroke="#000" stroke-width="1" /><polyline fill="none" opacity="100" points="49.0,22.0 49.0,1.0" stroke="#000" stroke-width="1" /><polyline fill="none" opacity="100" points="53.0,22.0 53.0,1.0" stroke="#000" stroke-width="1" /><polyline fill="none" opacity="100" points="57.0,22.0 57.0,1.0" stroke="#000" stroke-width="1" /><polyline fill="none" opacity="100" points="61.0,22.0 61.0,1.0" stroke="#000" stroke-width="1" /><polyline fill="none" opacity="100" points="65.0,22.0 65.0,1.0" stroke="#000" stroke-width="1" /><polyline fill="none" opacity="100" points="69.0,22.0 69.0,1.0" stroke="#000" stroke-width="1" /><polyline fill="none" opacity="100" points="73.0,22.0 73.0,1.0" stroke="#000" stroke-width="1" /><polyline fill="none" opacity="100" points="77.0,22.0 77.0,1.0" stroke="#000" stroke-width="1" /><polyline fill="none" opacity="100" points="81.0,22.0 81.0,1.0" stroke="#000" stroke-width="1" /><polyline fill="none" opacity="100" points="196.0,22.0 196.0,1.0" stroke="#000" stroke-width="1" /><polyline fill="none" opacity="100" points="192.0,22.0 192.0,1.0" stroke="#000" stroke-width="1" /><polyline fill="none" opacity="100" points="188.0,22.0 188.0,1.0" stroke="#000" stroke-width="1" /><polyline fill="none" opacity="100" points="184.0,22.0 184.0,1.0" stroke="#000" stroke-width="1" /><polyline fill="none" opacity="100" points="180.0,22.0 180.0,1.0" stroke="#000" stroke-width="1" /><polyline fill="none" opacity="100" points="176.0,22.0 176.0,1.0" stroke="#000" stroke-width="1" /><polyline fill="none" opacity="100" points="172.0,22.0 172.0,1.0" stroke="#000" stroke-width="1" /><polyline fill="none" opacity="100" points="168.0,22.0 168.0,1.0" stroke="#000" stroke-width="1" /><polyline fill="none" opacity="100" points="164.0,22.0 164.0,1.0" stroke="#000" stroke-width="1" /><polyline fill="none" opacity="100" points="160.0,22.0 160.0,1.0" stroke="#000" stroke-width="1" /><polyline fill="none" opacity="100" points="156.0,22.0 156.0,1.0" stroke="#000" stroke-width="1" /><polyline fill="none" opacity="100" points="152.0,22.0 152.0,1.0" stroke="#000" stroke-width="1" /><polyline fill="none" opacity="100" points="196.0,189.0 196.0,168.0" stroke="#000" stroke-width="1" /><polyline fill="none" opacity="100" points="192.0,189.0 192.0,168.0" stroke="#000" stroke-width="1" /><polyline fill="none" opacity="100" points="188.0,189.0 188.0,168.0" stroke="#000" stroke-width="1" /><polyline fill="none" opacity="100" points="184.0,189.0 184.0,168.0" stroke="#000" stroke-width="1" /><polyline fill="none" opacity="100" points="180.0,189.0 180.0,168.0" stroke="#000" stroke-width="1" /><polyline fill="none" opacity="100" points="176.0,189.0 176.0,168.0" stroke="#000" stroke-width="1" /><polyline fill="none" opacity="100" points="172.0,189.0 172.0,168.0" stroke="#000" stroke-width="1" /><polyline fill="none" opacity="100" points="168.0,189.0 168.0,168.0" stroke="#000" stroke-width="1" /><polyline fill="none" opacity="100" points="164.0,189.0 164.0,168.0" stroke="#000" stroke-width="1" /><polyline fill="none" opacity="100" points="160.0,189.0 160.0,168.0" stroke="#000" stroke-width="1" /><polyline fill="none" opacity="100" points="156.0,189.0 156.0,168.0" stroke="#000" stroke-width="1" /><polyline fill="none" opacity="100" points="152.0,189.0 152.0,168.0" stroke="#000" stroke-width="1" /><polyline fill="none" opacity="100" points="37.0,189.0 37.0,168.0" stroke="#000" stroke-width="1" /><polyline fill="none" opacity="100" points="41.0,189.0 41.0,168.0" stroke="#000" stroke-width="1" /><polyline fill="none" opacity="100" points="45.0,189.0 45.0,168.0" stroke="#000" stroke-width="1" /><polyline fill="none" opacity="100" points="49.0,189.0 49.0,168.0" stroke="#000" stroke-width="1" /><polyline fill="none" opacity="100" points="53.0,189.0 53.0,168.0" stroke="#000" stroke-width="1" /><polyline fill="none" opacity="100" points="57.0,189.0 57.0,168.0" stroke="#000" stroke-width="1" /><polyline fill="none" opacity="100" points="61.0,189.0 61.0,168.0" stroke="#000" stroke-width="1" /><polyline fill="none" opacity="100" points="65.0,189.0 65.0,168.0" stroke="#000" stroke-width="1" /><polyline fill="none" opacity="100" points="69.0,189.0 69.0,168.0" stroke="#000" stroke-width="1" /><polyline fill="none" opacity="100" points="73.0,189.0 73.0,168.0" stroke="#000" stroke-width="1" /><polyline fill="none" opacity="100" points="77.0,189.0 77.0,168.0" stroke="#000" stroke-width="1" /><polyline fill="none" opacity="100" points="81.0,189.0 81.0,168.0" stroke="#000" stroke-width="1" /><polygon fill="#D0D0D0" opacity="100" points="137.0,301.0 130.0,301.0 130.0,329.0 137.0,329.0" stroke="#000" stroke-width="1" /><polyline fill="none" opacity="100" points="142.0,248.0 142.0,241.0 169.0,241.0 169.0,248.0" stroke="#000" stroke-width="1" /><text fill="#FFF" font-family="Arial" font-size="10" font-weight="normal" opacity="100" transform="rotate(-0.0 143.0,238.0) translate(0 10)" x="143.0" y="238.0">кассы</text><polygon fill="none" opacity="100" points="177.0,308.0 171.0,308.0 171.0,314.0 177.0,314.0" stroke="#000" stroke-width="1" /><polyline fill="none" opacity="100" points="174.0,314.0 174.0,334.0" stroke="#000" stroke-width="0.5" /><polyline fill="none" opacity="100" points="176.0,304.0 172.0,304.0" stroke="#090" stroke-width="1" /><polyline fill="none" opacity="100" points="176.0,300.0 172.0,300.0" stroke="#090" stroke-width="1" /><polyline fill="none" opacity="100" points="176.0,296.0 172.0,296.0" stroke="#090" stroke-width="1" /><polyline fill="none" opacity="100" points="176.0,292.0 172.0,292.0" stroke="#090" stroke-width="1" /><polyline fill="none" opacity="100" points="176.0,288.0 172.0,288.0" stroke="#090" stroke-width="1" /><polyline fill="none" opacity="100" points="176.0,284.0 172.0,284.0" stroke="#090" stroke-width="1" /><polyline fill="none" opacity="100" points="176.0,280.0 172.0,280.0" stroke="#090" stroke-width="1" /><polyline fill="none" opacity="100" points="176.0,276.0 172.0,276.0" stroke="#090" stroke-width="1" /><polyline fill="none" opacity="100" points="176.0,272.0 172.0,272.0" stroke="#090" stroke-width="1" /><polyline fill="none" opacity="100" points="176.0,268.0 172.0,268.0" stroke="#090" stroke-width="1" /><polyline fill="none" opacity="100" points="176.0,264.0 172.0,264.0" stroke="#090" stroke-width="1" /><polyline fill="none" opacity="100" points="176.0,260.0 172.0,260.0" stroke="#090" stroke-width="1" /><polyline fill="none" opacity="100" points="176.0,256.0 172.0,256.0" stroke="#090" stroke-width="1" /><polyline fill="none" opacity="100" points="176.0,252.0 172.0,252.0" stroke="#090" stroke-width="1" /><polyline fill="none" opacity="100" points="172.0,378.0 176.0,378.0" stroke="#F00" stroke-width="1" /><polyline fill="none" opacity="100" points="172.0,374.0 176.0,374.0" stroke="#F00" stroke-width="1" /><polyline fill="none" opacity="100" points="172.0,370.0 176.0,370.0" stroke="#F00" stroke-width="1" /><polyline fill="none" opacity="100" points="172.0,366.0 176.0,366.0" stroke="#F00" stroke-width="1" /><polyline fill="none" opacity="100" points="172.0,362.0 176.0,362.0" stroke="#F00" stroke-width="1" /><polyline fill="none" opacity="100" points="172.0,358.0 176.0,358.0" stroke="#F00" stroke-width="1" /><polyline fill="none" opacity="100" points="172.0,354.0 176.0,354.0" stroke="#F00" stroke-width="1" /><polyline fill="none" opacity="100" points="172.0,350.0 176.0,350.0" stroke="#F00" stroke-width="1" /><polyline fill="none" opacity="100" points="172.0,346.0 176.0,346.0" stroke="#F00" stroke-width="1" /><polyline fill="none" opacity="100" points="172.0,342.0 176.0,342.0" stroke="#F00" stroke-width="1" /><polyline fill="none" opacity="100" points="172.0,338.0 176.0,338.0" stroke="#F00" stroke-width="1" /><polyline fill="none" opacity="100" points="172.0,334.0 176.0,334.0" stroke="#F00" stroke-width="1" /><polyline fill="none" opacity="100" points="141.0,354.0 127.0,354.0" stroke="#F00" stroke-width="1" /><polygon fill="#F00" opacity="100" points="131.0569,352.913 127.0,354.0 131.0569,355.087" stroke="#F00" stroke-width="1" /><polyline fill="none" opacity="100" points="129.0,274.0 143.0,274.0" stroke="#090" stroke-width="1" /><polygon fill="#090" opacity="100" points="138.9431,275.087 143.0,274.0 138.9431,272.913" stroke="#090" stroke-width="1" /><text fill="#00AFAF" font-family="Arial" font-size="15" font-weight="normal" opacity="100" transform="rotate(-0.0 249.0,77.0) translate(0 15)" x="249.0" y="77.0">проспект Николая Бажана</text></g></g></svg>