<?xml version="1.0" encoding="utf-8" ?>
<svg baseProfile="tiny" height="800px" version="1.2" width="920px" xmlns="http://www.w3.org/2000/svg" xmlns:ev="http://www.w3.org/2001/xml-events" xmlns:xlink="http://www.w3.org/1999/xlink"><defs /><g><g transform="rotate(-5.0,460.0,400.0)"><polygon fill="#F5F5F5" opacity="100" points="195.0,425.0 195.0,-25.0 176.0,-27.0 176.0,425.0 -4.0,425.0 -12.0,513.0 79.0,513.0 79.0,768.0 104.0,770.0 104.0,513.0 911.0,513.0 919.0,425.0" stroke="#000" stroke-width="1" /><polygon fill="#C33" opacity="100" points="288.0,245.0 288.0,215.0 738.0,215.0 738.0,245.0" stroke="#000" stroke-width="1" /><polygon fill="#C33" opacity="100" points="288.0,325.0 288.0,355.0 738.0,355.0 738.0,325.0" stroke="#000" stroke-width="1" /><text fill="#C33" font-family="Arial" font-size="20" font-weight="normal" opacity="100" transform="rotate(-0.0 288.0,192.0) translate(0 20)" x="288.0" y="192.0">&lt;&lt; Академгородок</text><text fill="#C33" font-family="Arial" font-size="20" font-weight="normal" opacity="100" transform="rotate(-0.0 622.0,355.0) translate(0 20)" x="622.0" y="355.0">Святошин &gt;&gt;</text><text fill="#C33" font-family="Arial" font-size="25" font-weight="bold" opacity="100" transform="rotate(-0.0 428.0,266.0) translate(0 25)" x="428.0" y="266.0">Житомирская</text><polyline fill="none" opacity="100" points="288.0,245.0 288.0,255.0 238.0,255.0 238.0,215.0 136.0,215.0 136.0,202.0 238.0,202.0 238.0,99.0" stroke="#000" stroke-width="1" /><polyline fill="none" opacity="100" points="218.0,99.0 218.0,149.0 161.0,92.0 80.0,173.0 109.0,202.0 109.0,378.0 59.0,378.0" stroke="#000" stroke-width="1" /><polyline fill="none" opacity="100" points="59.0,398.0 109.0,398.0 109.0,536.0 7.0,536.0" stroke="#000" stroke-width="1" /><polyline fill="none" opacity="100" points="7.0,557.0 186.0,557.0" stroke="#000" stroke-width="1" /><polyline fill="none" opacity="100" points="234.0,398.0 136.0,398.0 136.0,536.0 186.0,536.0" stroke="#000" stroke-width="1" /><polyline fill="none" opacity="100" points="234.0,377.0 136.0,377.0 136.0,355.0 238.0,355.0 238.0,316.0 288.0,316.0 288.0,325.0" stroke="#000" stroke-width="1" /><polyline fill="none" opacity="100" points="240.0,316.0 240.0,255.0" stroke="#000" stroke-width="1" /><polyline fill="none" opacity="100" points="244.0,316.0 244.0,255.0" stroke="#000" stroke-width="1" /><polyline fill="none" opacity="100" points="248.0,316.0 248.0,255.0" stroke="#000" stroke-width="1" /><polyline fill="none" opacity="100" points="252.0,316.0 252.0,255.0" stroke="#000" stroke-width="1" /><polyline fill="none" opacity="100" points="256.0,316.0 256.0,255.0" stroke="#000" stroke-width="1" /><polyline fill="none" opacity="100" points="260.0,316.0 260.0,255.0" stroke="#000" stroke-width="1" /><polyline fill="none" opacity="100" points="264.0,316.0 264.0,255.0" stroke="#000" stroke-width="1" /><polyline fill="none" opacity="100" points="268.0,316.0 268.0,255.0" stroke="#000" stroke-width="1" /><polyline fill="none" opacity="100" points="272.0,316.0 272.0,255.0" stroke="#000" stroke-width="1" /><polyline fill="none" opacity="100" points="276.0,316.0 276.0,255.0" stroke="#000" stroke-width="1" /><polyline fill="none" opacity="100" points="280.0,316.0 280.0,255.0" stroke="#000" stroke-width="1" /><polyline fill="none" opacity="100" points="284.0,316.0 284.0,255.0" stroke="#000" stroke-width="1" /><polyline fill="none" opacity="100" points="61.0,398.0 61.0,378.0" stroke="#000" stroke-width="1" /><polyline fill="none" opacity="100" points="65.0,398.0 65.0,378.0" stroke="#000" stroke-width="1" /><polyline fill="none" opacity="100" points="69.0,398.0 69.0,378.0" stroke="#000" stroke-width="1" /><polyline fill="none" opacity="100" points="73.0,398.0 73.0,378.0" stroke="#000" stroke-width="1" /><polyline fill="none" opacity="100" points="77.0,398.0 77.0,378.0" stroke="#000" stroke-width="1" /><polyline fill="none" opacity="100" points="81.0,398.0 81.0,378.0" stroke="#000" stroke-width="1" /><polyline fill="none" opacity="100" points="85.0,398.0 85.0,378.0" stroke="#000" stroke-width="1" /><polyline fill="none" opacity="100" points="89.0,398.0 89.0,378.0" stroke="#000" stroke-width="1" /><polyline fill="none" opacity="100" points="93.0,398.0 93.0,378.0" stroke="#000" stroke-width="1" /><polyline fill="none" opacity="100" points="97.0,398.0 97.0,378.0" stroke="#000" stroke-width="1" /><polyline fill="none" opacity="100" points="101.0,398.0 101.0,378.0" stroke="#000" stroke-width="1" /><polyline fill="none" opacity="100" points="105.0,398.0 105.0,378.0" stroke="#000" stroke-width="1" /><polyline fill="none" opacity="100" points="232.0,377.0 232.0,398.0" stroke="#000" stroke-width="1" /><polyline fill="none" opacity="100" points="228.0,377.0 228.0,398.0" stroke="#000" stroke-width="1" /><polyline fill="none" opacity="100" points="224.0,377.0 224.0,398.0" stroke="#000" stroke-width="1" /><polyline fill="none" opacity="100" points="220.0,377.0 220.0,398.0" stroke="#000" stroke-width="1" /><polyline fill="none" opacity="100" points="216.0,377.0 216.0,398.0" stroke="#000" stroke-width="1" /><polyline fill="none" opacity="100" points="212.0,377.0 212.0,398.0" stroke="#000" stroke-width="1" /><polyline fill="none" opacity="100" points="208.0,377.0 208.0,398.0" stroke="#000" stroke-width="1" /><polyline fill="none" opacity="100" points="204.0,377.0 204.0,398.0" stroke="#000" stroke-width="1" /><polyline fill="none" opacity="100" points="200.0,377.0 200.0,398.0" stroke="#000" stroke-width="1" /><polyline fill="none" opacity="100" points="196.0,377.0 196.0,398.0" stroke="#000" stroke-width="1" /><polyline fill="none" opacity="100" points="192.0,377.0 192.0,398.0" stroke="#000" stroke-width="1" /><polyline fill="none" opacity="100" points="188.0,377.0 188.0,398.0" stroke="#000" stroke-width="1" /><polyline fill="none" opacity="100" points="9.0,536.0 9.0,557.0" stroke="#000" stroke-width="1" /><polyline fill="none" opacity="100" points="13.0,536.0 13.0,557.0" stroke="#000" stroke-width="1" /><polyline fill="none" opacity="100" points="17.0,536.0 17.0,557.0" stroke="#000" stroke-width="1" /><polyline fill="none" opacity="100" points="21.0,536.0 21.0,557.0" stroke="#000" stroke-width="1" /><polyline fill="none" opacity="100" points="25.0,536.0 25.0,557.0" stroke="#000" stroke-width="1" /><polyline fill="none" opacity="100" points="29.0,536.0 29.0,557.0" stroke="#000" stroke-width="1" /><polyline fill="none" opacity="100" points="33.0,536.0 33.0,557.0" stroke="#000" stroke-width="1" /><polyline fill="none" opacity="100" points="37.0,536.0 37.0,557.0" stroke="#000" stroke-width="1" /><polyline fill="none" opacity="100" points="41.0,536.0 41.0,557.0" stroke="#000" stroke-width="1" /><polyline fill="none" opacity="100" points="45.0,536.0 45.0,557.0" stroke="#000" stroke-width="1" /><polyline fill="none" opacity="100" points="49.0,536.0 49.0,557.0" stroke="#000" stroke-width="1" /><polyline fill="none" opacity="100" points="53.0,536.0 53.0,557.0" stroke="#000" stroke-width="1" /><polyline fill="none" opacity="100" points="184.0,536.0 184.0,557.0" stroke="#000" stroke-width="1" /><polyline fill="none" opacity="100" points="180.0,536.0 180.0,557.0" stroke="#000" stroke-width="1" /><polyline fill="none" opacity="100" points="176.0,536.0 176.0,557.0" stroke="#000" stroke-width="1" /><polyline fill="none" opacity="100" points="172.0,536.0 172.0,557.0" stroke="#000" stroke-width="1" /><polyline fill="none" opacity="100" points="168.0,536.0 168.0,557.0" stroke="#000" stroke-width="1" /><polyline fill="none" opacity="100" points="164.0,536.0 164.0,557.0" stroke="#000" stroke-width="1" /><polyline fill="none" opacity="100" points="160.0,536.0 160.0,557.0" stroke="#000" stroke-width="1" /><polyline fill="none" opacity="100" points="156.0,536.0 156.0,557.0" stroke="#000" stroke-width="1" /><polyline fill="none" opacity="100" points="152.0,536.0 152.0,557.0" stroke="#000" stroke-width="1" /><polyline fill="none" opacity="100" points="148.0,536.0 148.0,557.0" stroke="#000" stroke-width="1" /><polyline fill="none" opacity="100" points="144.0,536.0 144.0,557.0" stroke="#000" stroke-width="1" /><polyline fill="none" opacity="100" points="140.0,536.0 140.0,557.0" stroke="#000" stroke-width="1" /><polyline fill="none" opacity="100" points="218.0,101.0 238.0,101.0" stroke="#000" stroke-width="1" /><polyline fill="none" opacity="100" points="218.0,105.0 238.0,105.0" stroke="#000" stroke-width="1" /><polyline fill="none" opacity="100" points="218.0,109.0 238.0,109.0" stroke="#000" stroke-width="1" /><polyline fill="none" opacity="100" points="218.0,113.0 238.0,113.0" stroke="#000" stroke-width="1" /><polyline fill="none" opacity="100" points="218.0,117.0 238.0,117.0" stroke="#000" stroke-width="1" /><polyline fill="none" opacity="100" points="218.0,121.0 238.0,121.0" stroke="#000" stroke-width="1" /><polyline fill="none" opacity="100" points="218.0,125.0 238.0,125.0" stroke="#000" stroke-width="1" /><polyline fill="none" opacity="100" points="218.0,129.0 238.0,129.0" stroke="#000" stroke-width="1" /><polyline fill="none" opacity="100" points="218.0,133.0 238.0,133.0" stroke="#000" stroke-width="1" /><polyline fill="none" opacity="100" points="218.0,137.0 238.0,137.0" stroke="#000" stroke-width="1" /><polyline fill="none" opacity="100" points="218.0,141.0 238.0,141.0" stroke="#000" stroke-width="1" /><polyline fill="none" opacity="100" points="218.0,145.0 238.0,145.0" stroke="#000" stroke-width="1" /><polygon fill="#D0D0D0" opacity="100" points="136.0,259.0 136.0,311.0 150.0,311.0 150.0,259.0" stroke="#000" stroke-width="1" /><polygon fill="#FFF" opacity="100" points="142.0,272.0 142.0,298.0 150.0,298.0 150.0,272.0" stroke="#000" stroke-width="1" /><text fill="#000" font-family="Arial" font-size="10" font-weight="normal" opacity="100" transform="rotate(-270.0 153.0,273.0) translate(0 10)" x="153.0" y="273.0">кассы</text><polygon fill="#FFF" opacity="100" points="170.0,305.0 176.0,305.0 176.0,311.0 170.0,311.0" stroke="#000" stroke-width="1" /><polyline fill="none" opacity="100" points="175.0,315.0 194.0,315.0 234.0,355.0" stroke="#000" stroke-width="0.5" /><polyline fill="none" opacity="100" points="174.0,259.0 161.0,259.0" stroke="#000" stroke-width="0.5" /><polyline fill="none" opacity="100" points="171.0,301.0 175.0,301.0" stroke="#090" stroke-width="1" /><polyline fill="none" opacity="100" points="171.0,297.0 175.0,297.0" stroke="#090" stroke-width="1" /><polyline fill="none" opacity="100" points="171.0,293.0 175.0,293.0" stroke="#090" stroke-width="1" /><polyline fill="none" opacity="100" points="171.0,289.0 175.0,289.0" stroke="#090" stroke-width="1" /><polyline fill="none" opacity="100" points="171.0,285.0 175.0,285.0" stroke="#090" stroke-width="1" /><polyline fill="none" opacity="100" points="171.0,281.0 175.0,281.0" stroke="#090" stroke-width="1" /><polyline fill="none" opacity="100" points="171.0,277.0 175.0,277.0" stroke="#090" stroke-width="1" /><polyline fill="none" opacity="100" points="171.0,273.0 175.0,273.0" stroke="#090" stroke-width="1" /><polyline fill="none" opacity="100" points="171.0,269.0 175.0,269.0" stroke="#090" stroke-width="1" /><polyline fill="none" opacity="100" points="171.0,265.0 175.0,265.0" stroke="#090" stroke-width="1" /><polyline fill="none" opacity="100" points="171.0,261.0 175.0,261.0" stroke="#090" stroke-width="1" /><polyline fill="none" opacity="100" points="161.0,255.0 165.0,255.0" stroke="#F00" stroke-width="1" /><polyline fill="none" opacity="100" points="161.0,251.0 165.0,251.0" stroke="#F00" stroke-width="1" /><polyline fill="none" opacity="100" points="161.0,247.0 165.0,247.0" stroke="#F00" stroke-width="1" /><polyline fill="none" opacity="100" points="161.0,243.0 165.0,243.0" stroke="#F00" stroke-width="1" /><polyline fill="none" opacity="100" points="161.0,239.0 165.0,239.0" stroke="#F00" stroke-width="1" /><polyline fill="none" opacity="100" points="161.0,235.0 165.0,235.0" stroke="#F00" stroke-width="1" /><polyline fill="none" opacity="100" points="161.0,231.0 165.0,231.0" stroke="#F00" stroke-width="1" /><polyline fill="none" opacity="100" points="161.0,227.0 165.0,227.0" stroke="#F00" stroke-width="1" /><polyline fill="none" opacity="100" points="161.0,223.0 165.0,223.0" stroke="#F00" stroke-width="1" /><polyline fill="none" opacity="100" points="161.0,219.0 165.0,219.0" stroke="#F00" stroke-width="1" /><polyline fill="none" opacity="100" points="149.0,237.0 134.0,237.0" stroke="#F00" stroke-width="1" /><polygon fill="#F00" opacity="100" points="138.3467,235.8353 134.0,237.0 138.3467,238.1647" stroke="#F00" stroke-width="1" /><polyline fill="none" opacity="100" points="134.0,332.0 149.0,332.0" stroke="#090" stroke-width="1" /><polygon fill="#090" opacity="100" points="144.6533,333.1647 149.0,332.0 144.6533,330.8353" stroke="#090" stroke-width="1" /><polyline fill="none" opacity="100" points="738.0,245.0 738.0,255.0 787.0,255.0 787.0,215.0 855.0,215.0 855.0,193.0 805.0,193.0" stroke="#000" stroke-width="1" /><polyline fill="none" opacity="100" points="805.0,174.0 931.0,174.0" stroke="#000" stroke-width="1" /><polyline fill="none" opacity="100" points="931.0,193.0 881.0,193.0 881.0,215.0 900.0,215.0 900.0,355.0 787.0,355.0 787.0,316.0 738.0,316.0 738.0,325.0" stroke="#000" stroke-width="1" /><polyline fill="none" opacity="100" points="785.0,255.0 785.0,316.0" stroke="#000" stroke-width="1" /><polyline fill="none" opacity="100" points="781.0,255.0 781.0,316.0" stroke="#000" stroke-width="1" /><polyline fill="none" opacity="100" points="777.0,255.0 777.0,316.0" stroke="#000" stroke-width="1" /><polyline fill="none" opacity="100" points="773.0,255.0 773.0,316.0" stroke="#000" stroke-width="1" /><polyline fill="none" opacity="100" points="769.0,255.0 769.0,316.0" stroke="#000" stroke-width="1" /><polyline fill="none" opacity="100" points="765.0,255.0 765.0,316.0" stroke="#000" stroke-width="1" /><polyline fill="none" opacity="100" points="761.0,255.0 761.0,316.0" stroke="#000" stroke-width="1" /><polyline fill="none" opacity="100" points="757.0,255.0 757.0,316.0" stroke="#000" stroke-width="1" /><polyline fill="none" opacity="100" points="753.0,255.0 753.0,316.0" stroke="#000" stroke-width="1" /><polyline fill="none" opacity="100" points="749.0,255.0 749.0,316.0" stroke="#000" stroke-width="1" /><polyline fill="none" opacity="100" points="745.0,255.0 745.0,316.0" stroke="#000" stroke-width="1" /><polyline fill="none" opacity="100" points="741.0,255.0 741.0,316.0" stroke="#000" stroke-width="1" /><polyline fill="none" opacity="100" points="929.0,193.0 929.0,174.0" stroke="#000" stroke-width="1" /><polyline fill="none" opacity="100" points="925.0,193.0 925.0,174.0" stroke="#000" stroke-width="1" /><polyline fill="none" opacity="100" points="921.0,193.0 921.0,174.0" stroke="#000" stroke-width="1" /><polyline fill="none" opacity="100" points="917.0,193.0 917.0,174.0" stroke="#000" stroke-width="1" /><polyline fill="none" opacity="100" points="913.0,193.0 913.0,174.0" stroke="#000" stroke-width="1" /><polyline fill="none" opacity="100" points="909.0,193.0 909.0,174.0" stroke="#000" stroke-width="1" /><polyline fill="none" opacity="100" points="905.0,193.0 905.0,174.0" stroke="#000" stroke-width="1" /><polyline fill="none" opacity="100" points="901.0,193.0 901.0,174.0" stroke="#000" stroke-width="1" /><polyline fill="none" opacity="100" points="897.0,193.0 897.0,174.0" stroke="#000" stroke-width="1" /><polyline fill="none" opacity="100" points="893.0,193.0 893.0,174.0" stroke="#000" stroke-width="1" /><polyline fill="none" opacity="100" points="889.0,193.0 889.0,174.0" stroke="#000" stroke-width="1" /><polyline fill="none" opacity="100" points="885.0,193.0 885.0,174.0" stroke="#000" stroke-width="1" /><polyline fill="none" opacity="100" points="807.0,193.0 807.0,174.0" stroke="#000" stroke-width="1" /><polyline fill="none" opacity="100" points="811.0,193.0 811.0,174.0" stroke="#000" stroke-width="1" /><polyline fill="none" opacity="100" points="815.0,193.0 815.0,174.0" stroke="#000" stroke-width="1" /><polyline fill="none" opacity="100" points="819.0,193.0 819.0,174.0" stroke="#000" stroke-width="1" /><polyline fill="none" opacity="100" points="823.0,193.0 823.0,174.0" stroke="#000" stroke-width="1" /><polyline fill="none" opacity="100" points="827.0,193.0 827.0,174.0" stroke="#000" stroke-width="1" /><polyline fill="none" opacity="100" points="831.0,193.0 831.0,174.0" stroke="#000" stroke-width="1" /><polyline fill="none" opacity="100" points="835.0,193.0 835.0,174.0" stroke="#000" stroke-width="1" /><polyline fill="none" opacity="100" points="839.0,193.0 839.0,174.0" stroke="#000" stroke-width="1" /><polyline fill="none" opacity="100" points="843.0,193.0 843.0,174.0" stroke="#000" stroke-width="1" /><polyline fill="none" opacity="100" points="847.0,193.0 847.0,174.0" stroke="#000" stroke-width="1" /><polyline fill="none" opacity="100" points="851.0,193.0 851.0,174.0" stroke="#000" stroke-width="1" /><polygon fill="#D0D0D0" opacity="100" points="855.0,311.0 855.0,259.0 841.0,259.0 841.0,311.0" stroke="#000" stroke-width="1" /><polygon fill="#FFF" opacity="100" points="849.0,298.0 849.0,272.0 841.0,272.0 841.0,298.0" stroke="#000" stroke-width="1" /><text fill="#000" font-family="Arial" font-size="10" font-weight="normal" opacity="100" transform="rotate(-90.0 838.0,297.0) translate(0 10)" x="838.0" y="297.0">кассы</text><polygon fill="#FFF" opacity="100" points="821.0,264.0 815.0,264.0 815.0,258.0 821.0,258.0" stroke="#000" stroke-width="1" /><polyline fill="none" opacity="100" points="817.0,255.0 787.0,255.0" stroke="#000" stroke-width="0.5" /><polyline fill="none" opacity="100" points="817.0,311.0 830.0,311.0" stroke="#000" stroke-width="0.5" /><polyline fill="none" opacity="100" points="820.0,269.0 816.0,269.0" stroke="#090" stroke-width="1" /><polyline fill="none" opacity="100" points="820.0,273.0 816.0,273.0" stroke="#090" stroke-width="1" /><polyline fill="none" opacity="100" points="820.0,277.0 816.0,277.0" stroke="#090" stroke-width="1" /><polyline fill="none" opacity="100" points="820.0,281.0 816.0,281.0" stroke="#090" stroke-width="1" /><polyline fill="none" opacity="100" points="820.0,285.0 816.0,285.0" stroke="#090" stroke-width="1" /><polyline fill="none" opacity="100" points="820.0,289.0 816.0,289.0" stroke="#090" stroke-width="1" /><polyline fill="none" opacity="100" points="820.0,293.0 816.0,293.0" stroke="#090" stroke-width="1" /><polyline fill="none" opacity="100" points="820.0,297.0 816.0,297.0" stroke="#090" stroke-width="1" /><polyline fill="none" opacity="100" points="820.0,301.0 816.0,301.0" stroke="#090" stroke-width="1" /><polyline fill="none" opacity="100" points="820.0,305.0 816.0,305.0" stroke="#090" stroke-width="1" /><polyline fill="none" opacity="100" points="820.0,309.0 816.0,309.0" stroke="#090" stroke-width="1" /><polyline fill="none" opacity="100" points="830.0,315.0 826.0,315.0" stroke="#F00" stroke-width="1" /><polyline fill="none" opacity="100" points="830.0,319.0 826.0,319.0" stroke="#F00" stroke-width="1" /><polyline fill="none" opacity="100" points="830.0,323.0 826.0,323.0" stroke="#F00" stroke-width="1" /><polyline fill="none" opacity="100" points="830.0,327.0 826.0,327.0" stroke="#F00" stroke-width="1" /><polyline fill="none" opacity="100" points="830.0,331.0 826.0,331.0" stroke="#F00" stroke-width="1" /><polyline fill="none" opacity="100" points="830.0,335.0 826.0,335.0" stroke="#F00" stroke-width="1" /><polyline fill="none" opacity="100" points="830.0,339.0 826.0,339.0" stroke="#F00" stroke-width="1" /><polyline fill="none" opacity="100" points="830.0,343.0 826.0,343.0" stroke="#F00" stroke-width="1" /><polyline fill="none" opacity="100" points="830.0,347.0 826.0,347.0" stroke="#F00" stroke-width="1" /><polyline fill="none" opacity="100" points="830.0,351.0 826.0,351.0" stroke="#F00" stroke-width="1" /><polyline fill="none" opacity="100" points="842.0,333.0 857.0,333.0" stroke="#F00" stroke-width="1" /><polygon fill="#F00" opacity="100" points="852.6533,334.1647 857.0,333.0 852.6533,331.8353" stroke="#F00" stroke-width="1" /><polyline fill="none" opacity="100" points="857.0,238.0 842.0,238.0" stroke="#090" stroke-width="1" /><polygon fill="#090" opacity="100" points="846.3467,236.8353 842.0,238.0 846.3467,239.1647" stroke="#090" stroke-width="1" /><text fill="#00AFAF" font-family="Arial" font-size="15" font-weight="normal" opacity="100" transform="rotate(-0.0 396.0,459.0) translate(0 15)" x="396.0" y="459.0">проспект Победы</text><text fill="#00AFAF" font-family="Arial" font-size="15" font-weight="normal" opacity="100" transform="rotate(90.0 98.0,565.0) translate(0 15)" x="98.0" y="565.0">улица Фёдора Кричевского</text><text fill="#00AFAF" font-family="Arial" font-size="15" font-weight="normal" opacity="100" transform="rotate(90.0 196.0,-8.0) translate(0 15)" x="196.0" y="-8.0">улица Семашко</text></g></g></svg>