<?xml version="1.0" encoding="utf-8" ?>
<svg baseProfile="tiny" height="950px" version="1.2" width="1600px" xmlns="http://www.w3.org/2000/svg" xmlns:ev="http://www.w3.org/2001/xml-events" xmlns:xlink="http://www.w3.org/1999/xlink"><defs /><g><polygon fill="#D9F5FF" opacity="100" points="1600.0,1200.0 0.0,1200.0 0.0,0.0 1037.0,0.0 1037.0,139.0 779.0,398.0 512.0,398.0 169.0,741.0 78.0,742.0 18.0,802.0 18.0,992.0 101.0,1075.0 263.0,1075.0 353.0,985.0 402.0,985.0 611.0,776.0 873.0,776.0 932.0,835.0 1103.0,835.0 1201.0,737.0 1201.0,594.0 1097.0,490.0 889.0,490.0 875.0,476.0 875.0,420.0 997.0,378.0 997.0,365.0 972.0,340.0 972.0,328.0 1016.0,284.0 1043.0,284.0 1057.0,323.0 1077.0,323.0 1098.0,315.0 1106.0,294.0 1106.0,286.0 1087.0,279.0 1094.0,260.0 1162.0,260.0 1210.0,396.0 1253.0,396.0 1258.0,407.0 1230.0,407.0 1243.0,445.0 1262.0,445.0 1265.0,437.0 1332.0,437.0 1351.0,388.0 1351.0,349.0 1285.0,325.0 1258.0,251.0 1258.0,239.0 1325.0,239.0 1347.0,301.0 1405.0,301.0 1386.0,249.0 1352.0,237.0 1352.0,202.0 1386.0,214.0 1386.0,237.0 1461.0,264.0 1479.0,264.0 1507.0,189.0 1600.0,189.0" stroke="#000" stroke-width="1" /><polygon fill="#D9F5FF" opacity="100" points="1600.0,154.0 1585.0,115.0 1585.0,89.0 1600.0,50.0" stroke="#000" stroke-width="1" /><text fill="#0404A4" font-family="Arial" font-size="35" font-weight="bold" opacity="100" x="1280.75" y="529.5">Dalian</text><text fill="#0404A4" font-family="Arial" font-size="10" font-weight="normal" opacity="100" x="1284.5" y="535.0">(Attention! All time intervals in this version equal 2 minutes)</text><text fill="#008542" font-family="Arial" font-size="20" font-weight="bold" opacity="100" x="1363.0" y="563.0">1</text><text fill="#0066A1" font-family="Arial" font-size="20" font-weight="bold" opacity="100" x="1363.0" y="583.0">2</text><text fill="#E91A38" font-family="Arial" font-size="20" font-weight="bold" opacity="100" x="1363.0" y="603.0">3</text><text fill="#FF8000" font-family="Arial" font-size="20" font-weight="bold" opacity="100" x="1363.0" y="623.0">7</text><text fill="#4F2D8C" font-family="Arial" font-size="20" font-weight="bold" opacity="100" x="1363.0" y="643.0">8</text></g></svg>