<?xml version="1.0" encoding="utf-8" ?>
<svg baseProfile="tiny" height="780px" version="1.2" width="890px" xmlns="http://www.w3.org/2000/svg" xmlns:ev="http://www.w3.org/2001/xml-events" xmlns:xlink="http://www.w3.org/1999/xlink"><defs /><g><g transform="rotate(-35.0,445.0,390.0)"><polygon fill="#E1361E" opacity="100" points="204.0,297.0 654.0,297.0 654.0,327.0 204.0,327.0" stroke="#000" stroke-width="1" /><polygon fill="#E1361E" opacity="100" points="204.0,437.0 204.0,407.0 654.0,407.0 654.0,437.0" stroke="#000" stroke-width="1" /><text fill="#E1361E" font-family="Arial" font-size="20" font-weight="normal" opacity="100" transform="rotate(-0.0 204.0,274.0) translate(0 20)" x="204.0" y="274.0">&lt;&lt; Победа</text><text fill="#E1361E" font-family="Arial" font-size="20" font-weight="normal" opacity="100" transform="rotate(-0.0 537.0,437.0) translate(0 20)" x="537.0" y="437.0">Кировская &gt;&gt;</text><text fill="#E1361E" font-family="Arial" font-size="25" font-weight="bold" opacity="100" transform="rotate(-0.0 361.0,350.0) translate(0 25)" x="361.0" y="350.0">Безымянка</text><polyline fill="none" opacity="100" points="204.0,327.0 204.0,337.0 153.0,337.0 153.0,301.0 77.0,301.0 77.0,306.0 65.0,306.0 65.0,242.0 115.0,242.0" stroke="#000" stroke-width="1" /><polyline fill="none" opacity="100" points="115.0,224.0 41.0,224.0 41.0,517.0 -9.0,517.0" stroke="#000" stroke-width="1" /><polyline fill="none" opacity="100" points="-9.0,535.0 115.0,535.0" stroke="#000" stroke-width="1" /><polyline fill="none" opacity="100" points="115.0,517.0 65.0,517.0 65.0,428.0 77.0,428.0 77.0,433.0 153.0,433.0 153.0,397.0 204.0,397.0 204.0,407.0" stroke="#000" stroke-width="1" /><polyline fill="none" opacity="100" points="155.0,337.0 155.0,397.0" stroke="#000" stroke-width="1" /><polyline fill="none" opacity="100" points="159.0,337.0 159.0,397.0" stroke="#000" stroke-width="1" /><polyline fill="none" opacity="100" points="163.0,337.0 163.0,397.0" stroke="#000" stroke-width="1" /><polyline fill="none" opacity="100" points="167.0,337.0 167.0,397.0" stroke="#000" stroke-width="1" /><polyline fill="none" opacity="100" points="171.0,337.0 171.0,397.0" stroke="#000" stroke-width="1" /><polyline fill="none" opacity="100" points="175.0,337.0 175.0,397.0" stroke="#000" stroke-width="1" /><polyline fill="none" opacity="100" points="179.0,337.0 179.0,397.0" stroke="#000" stroke-width="1" /><polyline fill="none" opacity="100" points="183.0,337.0 183.0,397.0" stroke="#000" stroke-width="1" /><polyline fill="none" opacity="100" points="187.0,337.0 187.0,397.0" stroke="#000" stroke-width="1" /><polyline fill="none" opacity="100" points="191.0,337.0 191.0,397.0" stroke="#000" stroke-width="1" /><polyline fill="none" opacity="100" points="195.0,337.0 195.0,397.0" stroke="#000" stroke-width="1" /><polyline fill="none" opacity="100" points="199.0,337.0 199.0,397.0" stroke="#000" stroke-width="1" /><polyline fill="none" opacity="100" points="113.0,242.0 113.0,224.0" stroke="#000" stroke-width="1" /><polyline fill="none" opacity="100" points="109.0,242.0 109.0,224.0" stroke="#000" stroke-width="1" /><polyline fill="none" opacity="100" points="105.0,242.0 105.0,224.0" stroke="#000" stroke-width="1" /><polyline fill="none" opacity="100" points="101.0,242.0 101.0,224.0" stroke="#000" stroke-width="1" /><polyline fill="none" opacity="100" points="97.0,242.0 97.0,224.0" stroke="#000" stroke-width="1" /><polyline fill="none" opacity="100" points="93.0,242.0 93.0,224.0" stroke="#000" stroke-width="1" /><polyline fill="none" opacity="100" points="89.0,242.0 89.0,224.0" stroke="#000" stroke-width="1" /><polyline fill="none" opacity="100" points="85.0,242.0 85.0,224.0" stroke="#000" stroke-width="1" /><polyline fill="none" opacity="100" points="81.0,242.0 81.0,224.0" stroke="#000" stroke-width="1" /><polyline fill="none" opacity="100" points="77.0,242.0 77.0,224.0" stroke="#000" stroke-width="1" /><polyline fill="none" opacity="100" points="73.0,242.0 73.0,224.0" stroke="#000" stroke-width="1" /><polyline fill="none" opacity="100" points="69.0,242.0 69.0,224.0" stroke="#000" stroke-width="1" /><polyline fill="none" opacity="100" points="113.0,517.0 113.0,535.0" stroke="#000" stroke-width="1" /><polyline fill="none" opacity="100" points="109.0,517.0 109.0,535.0" stroke="#000" stroke-width="1" /><polyline fill="none" opacity="100" points="105.0,517.0 105.0,535.0" stroke="#000" stroke-width="1" /><polyline fill="none" opacity="100" points="101.0,517.0 101.0,535.0" stroke="#000" stroke-width="1" /><polyline fill="none" opacity="100" points="97.0,517.0 97.0,535.0" stroke="#000" stroke-width="1" /><polyline fill="none" opacity="100" points="93.0,517.0 93.0,535.0" stroke="#000" stroke-width="1" /><polyline fill="none" opacity="100" points="89.0,517.0 89.0,535.0" stroke="#000" stroke-width="1" /><polyline fill="none" opacity="100" points="85.0,517.0 85.0,535.0" stroke="#000" stroke-width="1" /><polyline fill="none" opacity="100" points="81.0,517.0 81.0,535.0" stroke="#000" stroke-width="1" /><polyline fill="none" opacity="100" points="77.0,517.0 77.0,535.0" stroke="#000" stroke-width="1" /><polyline fill="none" opacity="100" points="73.0,517.0 73.0,535.0" stroke="#000" stroke-width="1" /><polyline fill="none" opacity="100" points="69.0,517.0 69.0,535.0" stroke="#000" stroke-width="1" /><polyline fill="none" opacity="100" points="-7.0,517.0 -7.0,535.0" stroke="#000" stroke-width="1" /><polyline fill="none" opacity="100" points="-3.0,517.0 -3.0,535.0" stroke="#000" stroke-width="1" /><polyline fill="none" opacity="100" points="1.0,517.0 1.0,535.0" stroke="#000" stroke-width="1" /><polyline fill="none" opacity="100" points="5.0,517.0 5.0,535.0" stroke="#000" stroke-width="1" /><polyline fill="none" opacity="100" points="9.0,517.0 9.0,535.0" stroke="#000" stroke-width="1" /><polyline fill="none" opacity="100" points="13.0,517.0 13.0,535.0" stroke="#000" stroke-width="1" /><polyline fill="none" opacity="100" points="17.0,517.0 17.0,535.0" stroke="#000" stroke-width="1" /><polyline fill="none" opacity="100" points="21.0,517.0 21.0,535.0" stroke="#000" stroke-width="1" /><polyline fill="none" opacity="100" points="25.0,517.0 25.0,535.0" stroke="#000" stroke-width="1" /><polyline fill="none" opacity="100" points="29.0,517.0 29.0,535.0" stroke="#000" stroke-width="1" /><polyline fill="none" opacity="100" points="33.0,517.0 33.0,535.0" stroke="#000" stroke-width="1" /><polyline fill="none" opacity="100" points="37.0,517.0 37.0,535.0" stroke="#000" stroke-width="1" /><polygon fill="#D0D0D0" opacity="100" points="65.0,407.0 77.0,407.0 77.0,326.0 65.0,326.0" stroke="#000" stroke-width="1" /><polyline fill="none" opacity="100" points="143.0,433.0 143.0,404.0 153.0,404.0" stroke="#000" stroke-width="1" /><text fill="#FFF" font-family="Arial" font-size="10" font-weight="normal" opacity="100" transform="rotate(90.0 155.0,406.0) translate(0 10)" x="155.0" y="406.0">кассы</text><polyline fill="none" opacity="100" points="143.0,404.0 133.0,404.0" stroke="#000" stroke-width="0.5" /><polygon fill="none" opacity="100" points="99.0,374.0 103.0,370.0 99.0,366.0 95.0,370.0" stroke="#000" stroke-width="1" /><polyline fill="none" opacity="100" points="99.0,314.0 99.0,301.0" stroke="#000" stroke-width="0.5" /><polyline fill="none" opacity="100" points="131.0,405.0 134.0,402.0" stroke="#090" stroke-width="1" /><polyline fill="none" opacity="100" points="128.1716,402.1716 131.1716,399.1716" stroke="#090" stroke-width="1" /><polyline fill="none" opacity="100" points="125.3431,399.3431 128.3431,396.3431" stroke="#090" stroke-width="1" /><polyline fill="none" opacity="100" points="122.5147,396.5147 125.5147,393.5147" stroke="#090" stroke-width="1" /><polyline fill="none" opacity="100" points="119.6863,393.6863 122.6863,390.6863" stroke="#090" stroke-width="1" /><polyline fill="none" opacity="100" points="116.8579,390.8579 119.8579,387.8579" stroke="#090" stroke-width="1" /><polyline fill="none" opacity="100" points="114.0294,388.0294 117.0294,385.0294" stroke="#090" stroke-width="1" /><polyline fill="none" opacity="100" points="111.201,385.201 114.201,382.201" stroke="#090" stroke-width="1" /><polyline fill="none" opacity="100" points="108.3726,382.3726 111.3726,379.3726" stroke="#090" stroke-width="1" /><polyline fill="none" opacity="100" points="105.5442,379.5442 108.5442,376.5442" stroke="#090" stroke-width="1" /><polyline fill="none" opacity="100" points="102.7157,376.7157 105.7157,373.7157" stroke="#090" stroke-width="1" /><polyline fill="none" opacity="100" points="97.0,362.0 101.0,362.0" stroke="#F00" stroke-width="1" /><polyline fill="none" opacity="100" points="97.0,358.0 101.0,358.0" stroke="#F00" stroke-width="1" /><polyline fill="none" opacity="100" points="97.0,354.0 101.0,354.0" stroke="#F00" stroke-width="1" /><polyline fill="none" opacity="100" points="97.0,350.0 101.0,350.0" stroke="#F00" stroke-width="1" /><polyline fill="none" opacity="100" points="97.0,346.0 101.0,346.0" stroke="#F00" stroke-width="1" /><polyline fill="none" opacity="100" points="97.0,342.0 101.0,342.0" stroke="#F00" stroke-width="1" /><polyline fill="none" opacity="100" points="97.0,338.0 101.0,338.0" stroke="#F00" stroke-width="1" /><polyline fill="none" opacity="100" points="97.0,334.0 101.0,334.0" stroke="#F00" stroke-width="1" /><polyline fill="none" opacity="100" points="97.0,330.0 101.0,330.0" stroke="#F00" stroke-width="1" /><polyline fill="none" opacity="100" points="97.0,326.0 101.0,326.0" stroke="#F00" stroke-width="1" /><polyline fill="none" opacity="100" points="97.0,322.0 101.0,322.0" stroke="#F00" stroke-width="1" /><polyline fill="none" opacity="100" points="97.0,318.0 101.0,318.0" stroke="#F00" stroke-width="1" /><polyline fill="none" opacity="100" points="97.0,314.0 101.0,314.0" stroke="#F00" stroke-width="1" /><polyline fill="none" opacity="100" points="654.0,327.0 654.0,337.0 705.0,337.0 705.0,301.0 787.0,301.0 787.0,306.0 797.0,306.0 797.0,242.0 747.0,242.0" stroke="#000" stroke-width="1" /><polyline fill="none" opacity="100" points="747.0,224.0 871.0,224.0" stroke="#000" stroke-width="1" /><polyline fill="none" opacity="100" points="871.0,242.0 821.0,242.0 821.0,516.0 871.0,516.0" stroke="#000" stroke-width="1" /><polyline fill="none" opacity="100" points="871.0,534.0 747.0,534.0" stroke="#000" stroke-width="1" /><polyline fill="none" opacity="100" points="747.0,516.0 797.0,516.0 797.0,428.0 787.0,428.0 787.0,433.0 705.0,433.0 705.0,397.0 654.0,397.0 654.0,407.0" stroke="#000" stroke-width="1" /><polyline fill="none" opacity="100" points="703.0,337.0 703.0,397.0" stroke="#000" stroke-width="1" /><polyline fill="none" opacity="100" points="699.0,337.0 699.0,397.0" stroke="#000" stroke-width="1" /><polyline fill="none" opacity="100" points="695.0,337.0 695.0,397.0" stroke="#000" stroke-width="1" /><polyline fill="none" opacity="100" points="691.0,337.0 691.0,397.0" stroke="#000" stroke-width="1" /><polyline fill="none" opacity="100" points="687.0,337.0 687.0,397.0" stroke="#000" stroke-width="1" /><polyline fill="none" opacity="100" points="683.0,337.0 683.0,397.0" stroke="#000" stroke-width="1" /><polyline fill="none" opacity="100" points="679.0,337.0 679.0,397.0" stroke="#000" stroke-width="1" /><polyline fill="none" opacity="100" points="675.0,337.0 675.0,397.0" stroke="#000" stroke-width="1" /><polyline fill="none" opacity="100" points="671.0,337.0 671.0,397.0" stroke="#000" stroke-width="1" /><polyline fill="none" opacity="100" points="667.0,337.0 667.0,397.0" stroke="#000" stroke-width="1" /><polyline fill="none" opacity="100" points="663.0,337.0 663.0,397.0" stroke="#000" stroke-width="1" /><polyline fill="none" opacity="100" points="659.0,337.0 659.0,397.0" stroke="#000" stroke-width="1" /><polyline fill="none" opacity="100" points="869.0,242.0 869.0,224.0" stroke="#000" stroke-width="1" /><polyline fill="none" opacity="100" points="865.0,242.0 865.0,224.0" stroke="#000" stroke-width="1" /><polyline fill="none" opacity="100" points="861.0,242.0 861.0,224.0" stroke="#000" stroke-width="1" /><polyline fill="none" opacity="100" points="857.0,242.0 857.0,224.0" stroke="#000" stroke-width="1" /><polyline fill="none" opacity="100" points="853.0,242.0 853.0,224.0" stroke="#000" stroke-width="1" /><polyline fill="none" opacity="100" points="849.0,242.0 849.0,224.0" stroke="#000" stroke-width="1" /><polyline fill="none" opacity="100" points="845.0,242.0 845.0,224.0" stroke="#000" stroke-width="1" /><polyline fill="none" opacity="100" points="841.0,242.0 841.0,224.0" stroke="#000" stroke-width="1" /><polyline fill="none" opacity="100" points="837.0,242.0 837.0,224.0" stroke="#000" stroke-width="1" /><polyline fill="none" opacity="100" points="833.0,242.0 833.0,224.0" stroke="#000" stroke-width="1" /><polyline fill="none" opacity="100" points="829.0,242.0 829.0,224.0" stroke="#000" stroke-width="1" /><polyline fill="none" opacity="100" points="825.0,242.0 825.0,224.0" stroke="#000" stroke-width="1" /><polyline fill="none" opacity="100" points="749.0,242.0 749.0,224.0" stroke="#000" stroke-width="1" /><polyline fill="none" opacity="100" points="753.0,242.0 753.0,224.0" stroke="#000" stroke-width="1" /><polyline fill="none" opacity="100" points="757.0,242.0 757.0,224.0" stroke="#000" stroke-width="1" /><polyline fill="none" opacity="100" points="761.0,242.0 761.0,224.0" stroke="#000" stroke-width="1" /><polyline fill="none" opacity="100" points="765.0,242.0 765.0,224.0" stroke="#000" stroke-width="1" /><polyline fill="none" opacity="100" points="769.0,242.0 769.0,224.0" stroke="#000" stroke-width="1" /><polyline fill="none" opacity="100" points="773.0,242.0 773.0,224.0" stroke="#000" stroke-width="1" /><polyline fill="none" opacity="100" points="777.0,242.0 777.0,224.0" stroke="#000" stroke-width="1" /><polyline fill="none" opacity="100" points="781.0,242.0 781.0,224.0" stroke="#000" stroke-width="1" /><polyline fill="none" opacity="100" points="785.0,242.0 785.0,224.0" stroke="#000" stroke-width="1" /><polyline fill="none" opacity="100" points="789.0,242.0 789.0,224.0" stroke="#000" stroke-width="1" /><polyline fill="none" opacity="100" points="793.0,242.0 793.0,224.0" stroke="#000" stroke-width="1" /><polyline fill="none" opacity="100" points="869.0,516.0 869.0,534.0" stroke="#000" stroke-width="1" /><polyline fill="none" opacity="100" points="865.0,516.0 865.0,534.0" stroke="#000" stroke-width="1" /><polyline fill="none" opacity="100" points="861.0,516.0 861.0,534.0" stroke="#000" stroke-width="1" /><polyline fill="none" opacity="100" points="857.0,516.0 857.0,534.0" stroke="#000" stroke-width="1" /><polyline fill="none" opacity="100" points="853.0,516.0 853.0,534.0" stroke="#000" stroke-width="1" /><polyline fill="none" opacity="100" points="849.0,516.0 849.0,534.0" stroke="#000" stroke-width="1" /><polyline fill="none" opacity="100" points="845.0,516.0 845.0,534.0" stroke="#000" stroke-width="1" /><polyline fill="none" opacity="100" points="841.0,516.0 841.0,534.0" stroke="#000" stroke-width="1" /><polyline fill="none" opacity="100" points="837.0,516.0 837.0,534.0" stroke="#000" stroke-width="1" /><polyline fill="none" opacity="100" points="833.0,516.0 833.0,534.0" stroke="#000" stroke-width="1" /><polyline fill="none" opacity="100" points="829.0,516.0 829.0,534.0" stroke="#000" stroke-width="1" /><polyline fill="none" opacity="100" points="825.0,516.0 825.0,534.0" stroke="#000" stroke-width="1" /><polyline fill="none" opacity="100" points="749.0,516.0 749.0,534.0" stroke="#000" stroke-width="1" /><polyline fill="none" opacity="100" points="753.0,516.0 753.0,534.0" stroke="#000" stroke-width="1" /><polyline fill="none" opacity="100" points="757.0,516.0 757.0,534.0" stroke="#000" stroke-width="1" /><polyline fill="none" opacity="100" points="761.0,516.0 761.0,534.0" stroke="#000" stroke-width="1" /><polyline fill="none" opacity="100" points="765.0,516.0 765.0,534.0" stroke="#000" stroke-width="1" /><polyline fill="none" opacity="100" points="769.0,516.0 769.0,534.0" stroke="#000" stroke-width="1" /><polyline fill="none" opacity="100" points="773.0,516.0 773.0,534.0" stroke="#000" stroke-width="1" /><polyline fill="none" opacity="100" points="777.0,516.0 777.0,534.0" stroke="#000" stroke-width="1" /><polyline fill="none" opacity="100" points="781.0,516.0 781.0,534.0" stroke="#000" stroke-width="1" /><polyline fill="none" opacity="100" points="785.0,516.0 785.0,534.0" stroke="#000" stroke-width="1" /><polyline fill="none" opacity="100" points="789.0,516.0 789.0,534.0" stroke="#000" stroke-width="1" /><polyline fill="none" opacity="100" points="793.0,516.0 793.0,534.0" stroke="#000" stroke-width="1" /><polygon fill="#D0D0D0" opacity="100" points="787.0,329.0 797.0,329.0 797.0,407.0 787.0,407.0" stroke="#000" stroke-width="1" /><polyline fill="none" opacity="100" points="715.0,301.0 715.0,330.0 705.0,330.0" stroke="#000" stroke-width="1" /><text fill="#FFF" font-family="Arial" font-size="10" font-weight="normal" opacity="100" transform="rotate(90.0 716.0,303.0) translate(0 10)" x="716.0" y="303.0">кассы</text><polyline fill="none" opacity="100" points="715.0,330.0 725.0,330.0" stroke="#000" stroke-width="0.5" /><polygon fill="none" opacity="100" points="759.0,360.0 755.0,364.0 759.0,368.0 763.0,364.0" stroke="#000" stroke-width="1" /><polyline fill="none" opacity="100" points="759.0,420.0 759.0,433.0" stroke="#000" stroke-width="0.5" /><polyline fill="none" opacity="100" points="727.0,329.0 724.0,332.0" stroke="#090" stroke-width="1" /><polyline fill="none" opacity="100" points="729.8284,331.8284 726.8284,334.8284" stroke="#090" stroke-width="1" /><polyline fill="none" opacity="100" points="732.6569,334.6569 729.6569,337.6569" stroke="#090" stroke-width="1" /><polyline fill="none" opacity="100" points="735.4853,337.4853 732.4853,340.4853" stroke="#090" stroke-width="1" /><polyline fill="none" opacity="100" points="738.3137,340.3137 735.3137,343.3137" stroke="#090" stroke-width="1" /><polyline fill="none" opacity="100" points="741.1421,343.1421 738.1421,346.1421" stroke="#090" stroke-width="1" /><polyline fill="none" opacity="100" points="743.9706,345.9706 740.9706,348.9706" stroke="#090" stroke-width="1" /><polyline fill="none" opacity="100" points="746.799,348.799 743.799,351.799" stroke="#090" stroke-width="1" /><polyline fill="none" opacity="100" points="749.6274,351.6274 746.6274,354.6274" stroke="#090" stroke-width="1" /><polyline fill="none" opacity="100" points="752.4558,354.4558 749.4558,357.4558" stroke="#090" stroke-width="1" /><polyline fill="none" opacity="100" points="755.2843,357.2843 752.2843,360.2843" stroke="#090" stroke-width="1" /><polyline fill="none" opacity="100" points="761.0,371.0 757.0,371.0" stroke="#F00" stroke-width="1" /><polyline fill="none" opacity="100" points="761.0,375.0 757.0,375.0" stroke="#F00" stroke-width="1" /><polyline fill="none" opacity="100" points="761.0,379.0 757.0,379.0" stroke="#F00" stroke-width="1" /><polyline fill="none" opacity="100" points="761.0,383.0 757.0,383.0" stroke="#F00" stroke-width="1" /><polyline fill="none" opacity="100" points="761.0,387.0 757.0,387.0" stroke="#F00" stroke-width="1" /><polyline fill="none" opacity="100" points="761.0,391.0 757.0,391.0" stroke="#F00" stroke-width="1" /><polyline fill="none" opacity="100" points="761.0,395.0 757.0,395.0" stroke="#F00" stroke-width="1" /><polyline fill="none" opacity="100" points="761.0,399.0 757.0,399.0" stroke="#F00" stroke-width="1" /><polyline fill="none" opacity="100" points="761.0,403.0 757.0,403.0" stroke="#F00" stroke-width="1" /><polyline fill="none" opacity="100" points="761.0,407.0 757.0,407.0" stroke="#F00" stroke-width="1" /><polyline fill="none" opacity="100" points="761.0,411.0 757.0,411.0" stroke="#F00" stroke-width="1" /><polyline fill="none" opacity="100" points="761.0,415.0 757.0,415.0" stroke="#F00" stroke-width="1" /><polyline fill="none" opacity="100" points="761.0,419.0 757.0,419.0" stroke="#F00" stroke-width="1" /><polyline fill="none" opacity="100" points="129.0,324.0 113.0,324.0" stroke="#F00" stroke-width="1" /><polygon fill="#F00" opacity="100" points="117.6364,322.7577 113.0,324.0 117.6364,325.2423" stroke="#F00" stroke-width="1" /><polyline fill="none" opacity="100" points="723.0,409.0 740.0,409.0" stroke="#F00" stroke-width="1" /><polygon fill="#F00" opacity="100" points="735.0738,410.32 740.0,409.0 735.0738,407.68" stroke="#F00" stroke-width="1" /><polyline fill="none" opacity="100" points="94.0,413.0 107.0,400.0" stroke="#090" stroke-width="1" /><polygon fill="#090" opacity="100" points="104.2423,404.7765 107.0,400.0 102.2235,402.7577" stroke="#090" stroke-width="1" /><polyline fill="none" opacity="100" points="766.0,323.0 753.0,336.0" stroke="#090" stroke-width="1" /><polygon fill="#090" opacity="100" points="755.7577,331.2235 753.0,336.0 757.7765,333.2423" stroke="#090" stroke-width="1" /><text fill="#00AFAF" font-family="Arial" font-size="15" font-weight="normal" opacity="100" transform="rotate(-0.0 -64.0,361.0) translate(0 15)" x="-64.0" y="361.0">улица Победы</text><text fill="#00AFAF" font-family="Arial" font-size="15" font-weight="normal" opacity="100" transform="rotate(-0.0 851.0,353.0) translate(0 15)" x="851.0" y="353.0">улица Победы</text><text fill="#00AFAF" font-family="Arial" font-size="15" font-weight="normal" opacity="100" transform="rotate(90.0 368.0,114.0) translate(0 15)" x="368.0" y="114.0">улица Ново-Вокзальная</text><text fill="#00AFAF" font-family="Arial" font-size="15" font-weight="normal" opacity="100" transform="rotate(90.0 285.0,545.0) translate(0 15)" x="285.0" y="545.0">к ж/д станции "Безымянка"</text><polyline fill="none" opacity="100" points="261.0,544.0 261.0,709.0" stroke="#00AFAF" stroke-width="1" /><polygon fill="#00AFAF" opacity="100" points="248.1885,661.1867 261.0,709.0 273.8115,661.1867" stroke="#00AFAF" stroke-width="1" /></g></g></svg>