<?xml version="1.0" encoding="utf-8" ?>
<svg baseProfile="tiny" height="540px" version="1.2" width="1090px" xmlns="http://www.w3.org/2000/svg" xmlns:ev="http://www.w3.org/2001/xml-events" xmlns:xlink="http://www.w3.org/1999/xlink"><defs /><g><g transform="rotate(25.0,545.0,270.0)"><polygon fill="#E1361E" opacity="100" points="328.0,163.0 778.0,163.0 778.0,193.0 328.0,193.0" stroke="#000" stroke-width="1" /><polygon fill="#E1361E" opacity="100" points="328.0,303.0 328.0,273.0 778.0,273.0 778.0,303.0" stroke="#000" stroke-width="1" /><text fill="#E1361E" font-family="Arial" font-size="20" font-weight="normal" opacity="100" transform="rotate(-0.0 328.0,141.0) translate(0 20)" x="328.0" y="141.0">&lt;&lt; Безымянка</text><text fill="#E1361E" font-family="Arial" font-size="20" font-weight="normal" opacity="100" transform="rotate(-0.0 660.0,303.0) translate(0 20)" x="660.0" y="303.0">Юнгородок &gt;&gt;</text><text fill="#E1361E" font-family="Arial" font-size="25" font-weight="bold" opacity="100" transform="rotate(-0.0 489.0,220.0) translate(0 25)" x="489.0" y="220.0">Кировская</text><polyline fill="none" opacity="100" points="243.0,202.0 243.0,168.0 170.0,168.0 170.0,172.0 163.0,172.0 163.0,168.0 139.0,168.0 139.0,376.0 194.0,408.0" stroke="#000" stroke-width="1" /><polyline fill="none" opacity="100" points="206.0,389.0 163.0,364.0 163.0,296.0 170.0,296.0 170.0,300.0 242.0,300.0 242.0,262.0" stroke="#000" stroke-width="1" /><polyline fill="none" opacity="100" points="328.0,193.0 328.0,202.0 319.0,202.0" stroke="#000" stroke-width="1" /><polyline fill="none" opacity="100" points="328.0,273.0 328.0,262.0 319.0,262.0" stroke="#000" stroke-width="1" /><polyline fill="none" opacity="100" points="204.0,388.0 193.0,407.0" stroke="#000" stroke-width="1" /><polyline fill="none" opacity="100" points="200.5324,386.0061 189.5324,405.0061" stroke="#000" stroke-width="1" /><polyline fill="none" opacity="100" points="197.0647,384.0122 186.0647,403.0122" stroke="#000" stroke-width="1" /><polyline fill="none" opacity="100" points="193.5971,382.0183 182.5971,401.0183" stroke="#000" stroke-width="1" /><polyline fill="none" opacity="100" points="190.1295,380.0245 179.1295,399.0245" stroke="#000" stroke-width="1" /><polyline fill="none" opacity="100" points="186.6619,378.0306 175.6619,397.0306" stroke="#000" stroke-width="1" /><polyline fill="none" opacity="100" points="183.1942,376.0367 172.1942,395.0367" stroke="#000" stroke-width="1" /><polyline fill="none" opacity="100" points="179.7266,374.0428 168.7266,393.0428" stroke="#000" stroke-width="1" /><polyline fill="none" opacity="100" points="176.259,372.0489 165.259,391.0489" stroke="#000" stroke-width="1" /><polyline fill="none" opacity="100" points="172.7914,370.055 161.7914,389.055" stroke="#000" stroke-width="1" /><polyline fill="none" opacity="100" points="169.3237,368.0612 158.3237,387.0612" stroke="#000" stroke-width="1" /><polyline fill="none" opacity="100" points="165.8561,366.0673 154.8561,385.0673" stroke="#000" stroke-width="1" /><polygon fill="#D0D0D0" opacity="100" points="163.0,194.0 170.0,194.0 170.0,274.0 163.0,274.0" stroke="#000" stroke-width="1" /><polyline fill="none" opacity="100" points="312.0,258.0 312.0,206.0" stroke="#7F7F7F" stroke-width="1" /><polyline fill="none" opacity="100" points="308.0,258.0 308.0,206.0" stroke="#7F7F7F" stroke-width="1" /><polyline fill="none" opacity="100" points="304.0,258.0 304.0,206.0" stroke="#7F7F7F" stroke-width="1" /><polyline fill="none" opacity="100" points="300.0,258.0 300.0,206.0" stroke="#7F7F7F" stroke-width="1" /><polyline fill="none" opacity="100" points="296.0,258.0 296.0,206.0" stroke="#7F7F7F" stroke-width="1" /><polyline fill="none" opacity="100" points="292.0,258.0 292.0,206.0" stroke="#7F7F7F" stroke-width="1" /><polyline fill="none" opacity="100" points="288.0,258.0 288.0,206.0" stroke="#7F7F7F" stroke-width="1" /><polyline fill="none" opacity="100" points="284.0,258.0 284.0,206.0" stroke="#7F7F7F" stroke-width="1" /><polyline fill="none" opacity="100" points="280.0,258.0 280.0,206.0" stroke="#7F7F7F" stroke-width="1" /><polyline fill="none" opacity="100" points="276.0,258.0 276.0,206.0" stroke="#7F7F7F" stroke-width="1" /><polyline fill="none" opacity="100" points="272.0,258.0 272.0,206.0" stroke="#7F7F7F" stroke-width="1" /><polyline fill="none" opacity="100" points="268.0,258.0 268.0,206.0" stroke="#7F7F7F" stroke-width="1" /><polyline fill="none" opacity="100" points="264.0,258.0 264.0,206.0" stroke="#7F7F7F" stroke-width="1" /><polyline fill="none" opacity="100" points="260.0,258.0 260.0,206.0" stroke="#7F7F7F" stroke-width="1" /><polyline fill="none" opacity="100" points="256.0,258.0 256.0,206.0" stroke="#7F7F7F" stroke-width="1" /><polyline fill="none" opacity="100" points="252.0,258.0 252.0,206.0" stroke="#7F7F7F" stroke-width="1" /><polyline fill="none" opacity="100" points="248.0,258.0 248.0,206.0" stroke="#7F7F7F" stroke-width="1" /><polyline fill="none" opacity="100" points="244.0,258.0 244.0,206.0" stroke="#7F7F7F" stroke-width="1" /><polyline fill="none" opacity="100" points="240.0,258.0 240.0,206.0" stroke="#7F7F7F" stroke-width="1" /><polygon fill="#9B5509" opacity="100" points="319.0,206.0 233.0,206.0 233.0,202.0 319.0,202.0" stroke="#000" stroke-width="1" /><polygon fill="#9B5509" opacity="100" points="319.0,218.0 319.0,226.0 233.0,226.0 233.0,218.0" stroke="#000" stroke-width="1" /><polygon fill="#9B5509" opacity="100" points="319.0,238.0 319.0,246.0 233.0,246.0 233.0,238.0" stroke="#000" stroke-width="1" /><polygon fill="#9B5509" opacity="100" points="319.0,258.0 233.0,258.0 233.0,262.0 319.0,262.0" stroke="#000" stroke-width="1" /><polyline fill="none" opacity="100" points="243.0,195.0 234.0,195.0 234.0,168.0" stroke="#000" stroke-width="1" /><text fill="#FFF" font-family="Arial" font-size="10" font-weight="normal" opacity="100" transform="rotate(-90.0 232.0,194.0) translate(0 10)" x="232.0" y="194.0">кассы</text><polyline fill="none" opacity="100" points="234.0,195.0 203.0,195.0" stroke="#000" stroke-width="0.5" /><polygon fill="none" opacity="100" points="186.0,246.0 192.0,246.0 192.0,240.0 186.0,240.0" stroke="#000" stroke-width="1" /><polyline fill="none" opacity="100" points="189.0,300.0 189.0,295.0" stroke="#000" stroke-width="0.5" /><polyline fill="none" opacity="100" points="193.0,245.0 228.0,222.0 233.0,222.0" stroke="#000" stroke-width="0.5" /><polyline fill="none" opacity="100" points="184.0,243.0 170.0,243.0" stroke="#000" stroke-width="0.5" /><polyline fill="none" opacity="100" points="190.0,235.0 194.0,236.0" stroke="#090" stroke-width="1" /><polyline fill="none" opacity="100" points="191.0365,231.1366 195.0365,232.1366" stroke="#090" stroke-width="1" /><polyline fill="none" opacity="100" points="192.073,227.2733 196.073,228.2733" stroke="#090" stroke-width="1" /><polyline fill="none" opacity="100" points="193.1095,223.4099 197.1095,224.4099" stroke="#090" stroke-width="1" /><polyline fill="none" opacity="100" points="194.1461,219.5465 198.1461,220.5465" stroke="#090" stroke-width="1" /><polyline fill="none" opacity="100" points="195.1826,215.6831 199.1826,216.6831" stroke="#090" stroke-width="1" /><polyline fill="none" opacity="100" points="196.2191,211.8198 200.2191,212.8198" stroke="#090" stroke-width="1" /><polyline fill="none" opacity="100" points="197.2556,207.9564 201.2556,208.9564" stroke="#090" stroke-width="1" /><polyline fill="none" opacity="100" points="198.2921,204.093 202.2921,205.093" stroke="#090" stroke-width="1" /><polyline fill="none" opacity="100" points="199.3286,200.2297 203.3286,201.2297" stroke="#090" stroke-width="1" /><polyline fill="none" opacity="100" points="200.3651,196.3663 204.3651,197.3663" stroke="#090" stroke-width="1" /><polyline fill="none" opacity="100" points="187.0,294.0 191.0,294.0" stroke="#F00" stroke-width="1" /><polyline fill="none" opacity="100" points="187.0,290.0 191.0,290.0" stroke="#F00" stroke-width="1" /><polyline fill="none" opacity="100" points="187.0,286.0 191.0,286.0" stroke="#F00" stroke-width="1" /><polyline fill="none" opacity="100" points="187.0,282.0 191.0,282.0" stroke="#F00" stroke-width="1" /><polyline fill="none" opacity="100" points="187.0,278.0 191.0,278.0" stroke="#F00" stroke-width="1" /><polyline fill="none" opacity="100" points="187.0,274.0 191.0,274.0" stroke="#F00" stroke-width="1" /><polyline fill="none" opacity="100" points="187.0,270.0 191.0,270.0" stroke="#F00" stroke-width="1" /><polyline fill="none" opacity="100" points="187.0,266.0 191.0,266.0" stroke="#F00" stroke-width="1" /><polyline fill="none" opacity="100" points="187.0,262.0 191.0,262.0" stroke="#F00" stroke-width="1" /><polyline fill="none" opacity="100" points="187.0,258.0 191.0,258.0" stroke="#F00" stroke-width="1" /><polyline fill="none" opacity="100" points="187.0,254.0 191.0,254.0" stroke="#F00" stroke-width="1" /><polyline fill="none" opacity="100" points="187.0,250.0 191.0,250.0" stroke="#F00" stroke-width="1" /><polyline fill="none" opacity="100" points="778.0,193.0 778.0,202.0 784.0,202.0 788.0,206.0 792.0,206.0 792.0,202.0 797.0,202.0" stroke="#000" stroke-width="1" /><polyline fill="none" opacity="100" points="778.0,273.0 778.0,262.0 784.0,262.0 788.0,258.0 792.0,258.0 792.0,262.0 797.0,262.0" stroke="#000" stroke-width="1" /><polyline fill="none" opacity="100" points="924.0,258.0 924.0,206.0" stroke="#7F7F7F" stroke-width="1" /><polyline fill="none" opacity="100" points="920.0,258.0 920.0,206.0" stroke="#7F7F7F" stroke-width="1" /><polyline fill="none" opacity="100" points="916.0,258.0 916.0,206.0" stroke="#7F7F7F" stroke-width="1" /><polyline fill="none" opacity="100" points="912.0,258.0 912.0,206.0" stroke="#7F7F7F" stroke-width="1" /><polyline fill="none" opacity="100" points="908.0,258.0 908.0,206.0" stroke="#7F7F7F" stroke-width="1" /><polyline fill="none" opacity="100" points="904.0,258.0 904.0,206.0" stroke="#7F7F7F" stroke-width="1" /><polyline fill="none" opacity="100" points="900.0,258.0 900.0,206.0" stroke="#7F7F7F" stroke-width="1" /><polyline fill="none" opacity="100" points="896.0,258.0 896.0,206.0" stroke="#7F7F7F" stroke-width="1" /><polyline fill="none" opacity="100" points="892.0,258.0 892.0,206.0" stroke="#7F7F7F" stroke-width="1" /><polyline fill="none" opacity="100" points="888.0,258.0 888.0,206.0" stroke="#7F7F7F" stroke-width="1" /><polyline fill="none" opacity="100" points="884.0,258.0 884.0,206.0" stroke="#7F7F7F" stroke-width="1" /><polyline fill="none" opacity="100" points="880.0,258.0 880.0,206.0" stroke="#7F7F7F" stroke-width="1" /><polyline fill="none" opacity="100" points="876.0,258.0 876.0,206.0" stroke="#7F7F7F" stroke-width="1" /><polyline fill="none" opacity="100" points="872.0,258.0 872.0,206.0" stroke="#7F7F7F" stroke-width="1" /><polyline fill="none" opacity="100" points="868.0,258.0 868.0,206.0" stroke="#7F7F7F" stroke-width="1" /><polyline fill="none" opacity="100" points="864.0,258.0 864.0,206.0" stroke="#7F7F7F" stroke-width="1" /><polyline fill="none" opacity="100" points="860.0,258.0 860.0,206.0" stroke="#7F7F7F" stroke-width="1" /><polyline fill="none" opacity="100" points="856.0,258.0 856.0,206.0" stroke="#7F7F7F" stroke-width="1" /><polyline fill="none" opacity="100" points="852.0,258.0 852.0,206.0" stroke="#7F7F7F" stroke-width="1" /><polyline fill="none" opacity="100" points="848.0,258.0 848.0,206.0" stroke="#7F7F7F" stroke-width="1" /><polyline fill="none" opacity="100" points="844.0,258.0 844.0,206.0" stroke="#7F7F7F" stroke-width="1" /><polyline fill="none" opacity="100" points="840.0,258.0 840.0,206.0" stroke="#7F7F7F" stroke-width="1" /><polyline fill="none" opacity="100" points="836.0,258.0 836.0,206.0" stroke="#7F7F7F" stroke-width="1" /><polyline fill="none" opacity="100" points="832.0,258.0 832.0,206.0" stroke="#7F7F7F" stroke-width="1" /><polyline fill="none" opacity="100" points="828.0,258.0 828.0,206.0" stroke="#7F7F7F" stroke-width="1" /><polyline fill="none" opacity="100" points="824.0,258.0 824.0,206.0" stroke="#7F7F7F" stroke-width="1" /><polyline fill="none" opacity="100" points="820.0,258.0 820.0,206.0" stroke="#7F7F7F" stroke-width="1" /><polyline fill="none" opacity="100" points="816.0,258.0 816.0,206.0" stroke="#7F7F7F" stroke-width="1" /><polyline fill="none" opacity="100" points="812.0,258.0 812.0,206.0" stroke="#7F7F7F" stroke-width="1" /><polyline fill="none" opacity="100" points="808.0,258.0 808.0,206.0" stroke="#7F7F7F" stroke-width="1" /><polyline fill="none" opacity="100" points="804.0,258.0 804.0,206.0" stroke="#7F7F7F" stroke-width="1" /><polygon fill="#9B5509" opacity="100" points="931.0,206.0 797.0,206.0 797.0,202.0 931.0,202.0" stroke="#000" stroke-width="1" /><polygon fill="#9B5509" opacity="100" points="931.0,218.0 931.0,226.0 797.0,226.0 797.0,218.0" stroke="#000" stroke-width="1" /><polygon fill="#9B5509" opacity="100" points="931.0,238.0 931.0,246.0 797.0,246.0 797.0,238.0" stroke="#000" stroke-width="1" /><polygon fill="#9B5509" opacity="100" points="931.0,258.0 797.0,258.0 797.0,262.0 931.0,262.0" stroke="#000" stroke-width="1" /><polyline fill="none" opacity="100" points="919.0,202.0 920.7891,196.8438 922.7812,191.875 924.9778,187.093 927.375,182.5 929.9656,178.1003 932.7617,173.8867 935.7671,169.8569 939.0,166.0 942.4946,162.2954 946.207,158.7695 950.1082,155.4382 954.1875,152.3125 958.429,149.4114 962.8203,146.7266 967.3525,144.2588 972.0,142.0 976.7256,139.9287 981.5547,138.0859 986.5044,136.5017 991.5625,135.1875 996.7104,134.1565 1001.9844,133.4336 1007.3926,133.0347 1013.0,133.0 1018.9277,133.3911 1025.0156,134.1602 1031.1584,135.2832 1037.3125,136.75 1043.4099,138.5332 1049.418,140.6602 1055.3062,143.1411 1061.0,146.0 1066.4009,149.2847 1071.5508,152.9336 1076.4624,156.9087 1081.125,161.1875 1085.5454,165.7319 1089.6836,170.5508 1093.5112,175.6392 1097.0,181.0 1100.1099,186.6538 1102.8477,192.543 1105.2068,198.6284 1107.1875,204.875 1108.8069,211.231 1110.0078,217.707 1110.7627,224.2915 1111.0,231.0 1110.5967,237.8843 1109.6797,244.8242 1108.3257,251.729 1106.5625,258.5625 1104.4438,265.2866 1101.9688,271.8164 1099.1445,278.0981 1096.0,284.0 1092.5664,289.3198 1088.8438,294.2148 1084.8364,298.7703 1080.5625,303.0 1076.0425,306.9543 1071.2734,310.6094 1066.2646,313.9512 1061.0,317.0 1055.4385,319.7832 1049.6641,322.2656 1043.7361,324.4219 1037.6875,326.25 1031.5627,327.75 1025.3867,328.8906 1019.1851,329.6582 1013.0,330.0 1006.8813,329.8262 1000.832,329.2344 994.8669,328.283 989.0,327.0 983.2327,325.4377 977.6172,323.582 972.1865,321.436 967.0,319.0 962.1494,316.2554 957.5703,313.2617 953.2305,310.0659 949.125,306.6875 945.2305,303.145 941.5703,299.4883 938.1572,295.7485 935.0,292.0 932.1162,288.3569 929.4922,284.7305 927.1206,281.073 925.0,277.375 923.1255,273.6047 921.5,269.7812 920.125,265.9141 919.0,262.0" stroke="#000" stroke-width="1" /><text fill="#00AFAF" font-family="Arial" font-size="15" font-weight="normal" opacity="100" transform="rotate(-25.0 855.0,8.0) translate(0 15)" x="855.0" y="8.0">Кировский рынок</text><text fill="#00AFAF" font-family="Arial" font-size="15" font-weight="normal" opacity="100" transform="rotate(-25.0 468.0,47.0) translate(0 15)" x="468.0" y="47.0">ТЦ "Золотой Дракон"</text><text fill="#00AFAF" font-family="Arial" font-size="15" font-weight="normal" opacity="100" transform="rotate(-60.0 32.0,440.0) translate(0 15)" x="32.0" y="440.0">ж/д станция "Пятилетка"</text><polyline fill="none" opacity="100" points="120.0,328.0 54.0,443.0" stroke="#00AFAF" stroke-width="1" /><polygon fill="#00AFAF" opacity="100" points="64.1961,404.5509 54.0,443.0 82.0546,414.8002" stroke="#00AFAF" stroke-width="1" /><polyline fill="none" opacity="100" points="227.0,253.0 212.0,261.0" stroke="#F00" stroke-width="1" /><polygon fill="#F00" opacity="100" points="215.7255,257.5171 212.0,261.0 216.9678,259.8465" stroke="#F00" stroke-width="1" /><polyline fill="none" opacity="100" points="173.0,182.0 184.0,188.0" stroke="#090" stroke-width="1" /><polygon fill="#090" opacity="100" points="180.3466,187.1154 184.0,188.0 181.2783,185.4072" stroke="#090" stroke-width="1" /><polygon fill="#FFD0D0" opacity="0.7" points="775.0,200.0 933.0,200.0 933.0,264.0 775.0,264.0" stroke="#FFD0D0" stroke-width="1" /><text fill="#FF4040" font-family="Arial" font-size="20" font-weight="normal" opacity="1.0" transform="rotate(-0.0 830.0,217.0) translate(0 20)" x="830.0" y="217.0">Закрыто</text><polyline fill="none" opacity="1.0" points="775.0,200.0 933.0,200.0 933.0,264.0 775.0,264.0 775.0,200.0" stroke="#FF4040" stroke-dasharray="5,5" stroke-width="1" /></g></g></svg>