<?xml version="1.0" encoding="utf-8" ?>
<svg baseProfile="tiny" height="640px" version="1.2" width="580px" xmlns="http://www.w3.org/2000/svg" xmlns:ev="http://www.w3.org/2001/xml-events" xmlns:xlink="http://www.w3.org/1999/xlink"><defs /><g><g transform="rotate(50.0,290.0,320.0)"><polygon fill="none" opacity="100" points="-8.0,247.0 442.0,247.0 442.0,277.0 -8.0,277.0" stroke="none" stroke-width="1" /><polygon fill="none" opacity="100" points="-8.0,387.0 -8.0,357.0 442.0,357.0 442.0,387.0" stroke="none" stroke-width="1" /><polygon fill="#E1361E" opacity="100" points="-8.0,247.0 442.0,247.0 442.0,277.0 -8.0,277.0" stroke="#000" stroke-width="1" /><polygon fill="#E1361E" opacity="100" points="-8.0,387.0 -8.0,357.0 442.0,357.0 442.0,387.0" stroke="#000" stroke-width="1" /><text fill="#E1361E" font-family="Arial" font-size="20" font-weight="normal" opacity="100" transform="rotate(-0.0 -8.0,225.0) translate(0 20)" x="-8.0" y="225.0">&lt;&lt; Российская</text><text fill="#E1361E" font-family="Arial" font-size="20" font-weight="normal" opacity="100" transform="rotate(-0.0 309.0,387.0) translate(0 20)" x="309.0" y="387.0">Гагаринская &gt;&gt;</text><text fill="#E1361E" font-family="Arial" font-size="25" font-weight="bold" opacity="100" transform="rotate(-0.0 287.0,301.0) translate(0 25)" x="287.0" y="301.0">Московская</text><polyline fill="none" opacity="100" points="442.0,277.0 442.0,291.0 447.0,291.0 447.0,286.0 452.0,286.0" stroke="#000" stroke-width="1" /><polyline fill="none" opacity="100" points="442.0,357.0 442.0,341.0 447.0,341.0 447.0,346.0 452.0,346.0" stroke="#000" stroke-width="1" /><polyline fill="none" opacity="100" points="558.0,342.0 558.0,290.0" stroke="#7F7F7F" stroke-width="1" /><polyline fill="none" opacity="100" points="554.0,342.0 554.0,290.0" stroke="#7F7F7F" stroke-width="1" /><polyline fill="none" opacity="100" points="550.0,342.0 550.0,290.0" stroke="#7F7F7F" stroke-width="1" /><polyline fill="none" opacity="100" points="546.0,342.0 546.0,290.0" stroke="#7F7F7F" stroke-width="1" /><polyline fill="none" opacity="100" points="542.0,342.0 542.0,290.0" stroke="#7F7F7F" stroke-width="1" /><polyline fill="none" opacity="100" points="538.0,342.0 538.0,290.0" stroke="#7F7F7F" stroke-width="1" /><polyline fill="none" opacity="100" points="534.0,342.0 534.0,290.0" stroke="#7F7F7F" stroke-width="1" /><polyline fill="none" opacity="100" points="530.0,342.0 530.0,290.0" stroke="#7F7F7F" stroke-width="1" /><polyline fill="none" opacity="100" points="526.0,342.0 526.0,290.0" stroke="#7F7F7F" stroke-width="1" /><polyline fill="none" opacity="100" points="522.0,342.0 522.0,290.0" stroke="#7F7F7F" stroke-width="1" /><polyline fill="none" opacity="100" points="518.0,342.0 518.0,290.0" stroke="#7F7F7F" stroke-width="1" /><polyline fill="none" opacity="100" points="514.0,342.0 514.0,290.0" stroke="#7F7F7F" stroke-width="1" /><polyline fill="none" opacity="100" points="510.0,342.0 510.0,290.0" stroke="#7F7F7F" stroke-width="1" /><polyline fill="none" opacity="100" points="506.0,342.0 506.0,290.0" stroke="#7F7F7F" stroke-width="1" /><polyline fill="none" opacity="100" points="502.0,342.0 502.0,290.0" stroke="#7F7F7F" stroke-width="1" /><polyline fill="none" opacity="100" points="498.0,342.0 498.0,290.0" stroke="#7F7F7F" stroke-width="1" /><polyline fill="none" opacity="100" points="494.0,342.0 494.0,290.0" stroke="#7F7F7F" stroke-width="1" /><polyline fill="none" opacity="100" points="490.0,342.0 490.0,290.0" stroke="#7F7F7F" stroke-width="1" /><polyline fill="none" opacity="100" points="486.0,342.0 486.0,290.0" stroke="#7F7F7F" stroke-width="1" /><polyline fill="none" opacity="100" points="482.0,342.0 482.0,290.0" stroke="#7F7F7F" stroke-width="1" /><polyline fill="none" opacity="100" points="478.0,342.0 478.0,290.0" stroke="#7F7F7F" stroke-width="1" /><polyline fill="none" opacity="100" points="474.0,342.0 474.0,290.0" stroke="#7F7F7F" stroke-width="1" /><polyline fill="none" opacity="100" points="470.0,342.0 470.0,290.0" stroke="#7F7F7F" stroke-width="1" /><polyline fill="none" opacity="100" points="466.0,342.0 466.0,290.0" stroke="#7F7F7F" stroke-width="1" /><polyline fill="none" opacity="100" points="462.0,342.0 462.0,290.0" stroke="#7F7F7F" stroke-width="1" /><polyline fill="none" opacity="100" points="458.0,342.0 458.0,290.0" stroke="#7F7F7F" stroke-width="1" /><polygon fill="#9B5509" opacity="100" points="565.0,290.0 452.0,290.0 452.0,286.0 565.0,286.0" stroke="#000" stroke-width="1" /><polygon fill="#9B5509" opacity="100" points="565.0,302.0 565.0,310.0 452.0,310.0 452.0,302.0" stroke="#000" stroke-width="1" /><polygon fill="#9B5509" opacity="100" points="565.0,322.0 565.0,330.0 452.0,330.0 452.0,322.0" stroke="#000" stroke-width="1" /><polygon fill="#9B5509" opacity="100" points="565.0,342.0 452.0,342.0 452.0,346.0 565.0,346.0" stroke="#000" stroke-width="1" /><polygon fill="#FFF" opacity="0.85" points="469.0,348.0 469.0,284.0 493.0,284.0 493.0,348.0" stroke="#FFF" stroke-width="1" /><polygon fill="#D0D0D0" opacity="1.0" points="497.0,286.0 497.0,346.0 553.0,346.0 553.0,350.0 516.0,350.0 516.0,353.0 493.0,353.0 493.0,279.0 515.0,279.0 515.0,282.0 553.0,282.0 553.0,286.0" stroke="#000" stroke-width="1" /><polyline fill="none" opacity="1.0" points="419.0,162.0 493.0,162.0 493.0,254.0 515.0,254.0 515.0,251.0 624.0,251.0 624.0,383.0 516.0,383.0 516.0,380.0 493.0,380.0 493.0,472.0 419.0,472.0" stroke="#000" stroke-width="1" /><polyline fill="none" opacity="1.0" points="419.0,454.0 469.0,454.0 469.0,180.0 419.0,180.0" stroke="#000" stroke-width="1" /><polyline fill="none" opacity="1.0" points="421.0,180.0 421.0,162.0" stroke="#000" stroke-width="1" /><polyline fill="none" opacity="1.0" points="425.0,180.0 425.0,162.0" stroke="#000" stroke-width="1" /><polyline fill="none" opacity="1.0" points="429.0,180.0 429.0,162.0" stroke="#000" stroke-width="1" /><polyline fill="none" opacity="1.0" points="433.0,180.0 433.0,162.0" stroke="#000" stroke-width="1" /><polyline fill="none" opacity="1.0" points="437.0,180.0 437.0,162.0" stroke="#000" stroke-width="1" /><polyline fill="none" opacity="1.0" points="441.0,180.0 441.0,162.0" stroke="#000" stroke-width="1" /><polyline fill="none" opacity="1.0" points="445.0,180.0 445.0,162.0" stroke="#000" stroke-width="1" /><polyline fill="none" opacity="1.0" points="449.0,180.0 449.0,162.0" stroke="#000" stroke-width="1" /><polyline fill="none" opacity="1.0" points="453.0,180.0 453.0,162.0" stroke="#000" stroke-width="1" /><polyline fill="none" opacity="1.0" points="457.0,180.0 457.0,162.0" stroke="#000" stroke-width="1" /><polyline fill="none" opacity="1.0" points="461.0,180.0 461.0,162.0" stroke="#000" stroke-width="1" /><polyline fill="none" opacity="1.0" points="465.0,180.0 465.0,162.0" stroke="#000" stroke-width="1" /><polyline fill="none" opacity="1.0" points="421.0,454.0 421.0,472.0" stroke="#000" stroke-width="1" /><polyline fill="none" opacity="1.0" points="425.0,454.0 425.0,472.0" stroke="#000" stroke-width="1" /><polyline fill="none" opacity="1.0" points="429.0,454.0 429.0,472.0" stroke="#000" stroke-width="1" /><polyline fill="none" opacity="1.0" points="433.0,454.0 433.0,472.0" stroke="#000" stroke-width="1" /><polyline fill="none" opacity="1.0" points="437.0,454.0 437.0,472.0" stroke="#000" stroke-width="1" /><polyline fill="none" opacity="1.0" points="441.0,454.0 441.0,472.0" stroke="#000" stroke-width="1" /><polyline fill="none" opacity="1.0" points="445.0,454.0 445.0,472.0" stroke="#000" stroke-width="1" /><polyline fill="none" opacity="1.0" points="449.0,454.0 449.0,472.0" stroke="#000" stroke-width="1" /><polyline fill="none" opacity="1.0" points="453.0,454.0 453.0,472.0" stroke="#000" stroke-width="1" /><polyline fill="none" opacity="1.0" points="457.0,454.0 457.0,472.0" stroke="#000" stroke-width="1" /><polyline fill="none" opacity="1.0" points="461.0,454.0 461.0,472.0" stroke="#000" stroke-width="1" /><polyline fill="none" opacity="1.0" points="465.0,454.0 465.0,472.0" stroke="#000" stroke-width="1" /><polyline fill="none" opacity="1.0" points="-8.0,277.0 -8.0,291.0 -13.0,291.0 -13.0,286.0 -40.0,286.0" stroke="#000" stroke-width="1" /><polyline fill="none" opacity="1.0" points="-8.0,357.0 -8.0,342.0 -13.0,342.0 -13.0,347.0 -40.0,347.0" stroke="#000" stroke-width="1" /><polyline fill="none" opacity="1.0" points="-40.0,286.0 -40.0,347.0" stroke="#000" stroke-width="1" /><polyline fill="none" opacity="1.0" points="-36.0,286.0 -36.0,347.0" stroke="#000" stroke-width="1" /><polyline fill="none" opacity="1.0" points="-32.0,286.0 -32.0,347.0" stroke="#000" stroke-width="1" /><polyline fill="none" opacity="1.0" points="-28.0,286.0 -28.0,347.0" stroke="#000" stroke-width="1" /><polyline fill="none" opacity="1.0" points="-24.0,286.0 -24.0,347.0" stroke="#000" stroke-width="1" /><polyline fill="none" opacity="1.0" points="-20.0,286.0 -20.0,347.0" stroke="#000" stroke-width="1" /><polyline fill="none" opacity="1.0" points="-16.0,286.0 -16.0,347.0" stroke="#000" stroke-width="1" /><polygon fill="#FFF" opacity="0.8" points="201.0,247.0 232.0,247.0 232.0,282.0 201.0,282.0" stroke="#FFF" stroke-width="1" /><polygon fill="#FFF" opacity="0.8" points="201.0,356.0 201.0,355.0 232.0,355.0 232.0,356.0" stroke="#FFF" stroke-width="1" /><polyline fill="none" opacity="1.0" points="151.0,299.0 201.0,299.0 201.0,247.0 232.0,247.0 232.0,299.0 282.0,299.0" stroke="#000" stroke-width="1" /><polyline fill="none" opacity="1.0" points="151.0,335.0 201.0,335.0 201.0,356.0 232.0,356.0 232.0,335.0 282.0,335.0" stroke="#000" stroke-width="1" /><polyline fill="none" opacity="1.0" points="280.0,299.0 280.0,335.0" stroke="#000" stroke-width="1" /><polyline fill="none" opacity="1.0" points="276.0,299.0 276.0,335.0" stroke="#000" stroke-width="1" /><polyline fill="none" opacity="1.0" points="272.0,299.0 272.0,335.0" stroke="#000" stroke-width="1" /><polyline fill="none" opacity="1.0" points="268.0,299.0 268.0,335.0" stroke="#000" stroke-width="1" /><polyline fill="none" opacity="1.0" points="264.0,299.0 264.0,335.0" stroke="#000" stroke-width="1" /><polyline fill="none" opacity="1.0" points="260.0,299.0 260.0,335.0" stroke="#000" stroke-width="1" /><polyline fill="none" opacity="1.0" points="256.0,299.0 256.0,335.0" stroke="#000" stroke-width="1" /><polyline fill="none" opacity="1.0" points="252.0,299.0 252.0,335.0" stroke="#000" stroke-width="1" /><polyline fill="none" opacity="1.0" points="248.0,299.0 248.0,335.0" stroke="#000" stroke-width="1" /><polyline fill="none" opacity="1.0" points="244.0,299.0 244.0,335.0" stroke="#000" stroke-width="1" /><polyline fill="none" opacity="1.0" points="240.0,299.0 240.0,335.0" stroke="#000" stroke-width="1" /><polyline fill="none" opacity="1.0" points="236.0,299.0 236.0,335.0" stroke="#000" stroke-width="1" /><polyline fill="none" opacity="1.0" points="153.0,299.0 153.0,335.0" stroke="#000" stroke-width="1" /><polyline fill="none" opacity="1.0" points="157.0,299.0 157.0,335.0" stroke="#000" stroke-width="1" /><polyline fill="none" opacity="1.0" points="161.0,299.0 161.0,335.0" stroke="#000" stroke-width="1" /><polyline fill="none" opacity="1.0" points="165.0,299.0 165.0,335.0" stroke="#000" stroke-width="1" /><polyline fill="none" opacity="1.0" points="169.0,299.0 169.0,335.0" stroke="#000" stroke-width="1" /><polyline fill="none" opacity="1.0" points="173.0,299.0 173.0,335.0" stroke="#000" stroke-width="1" /><polyline fill="none" opacity="1.0" points="177.0,299.0 177.0,335.0" stroke="#000" stroke-width="1" /><polyline fill="none" opacity="1.0" points="181.0,299.0 181.0,335.0" stroke="#000" stroke-width="1" /><polyline fill="none" opacity="1.0" points="185.0,299.0 185.0,335.0" stroke="#000" stroke-width="1" /><polyline fill="none" opacity="1.0" points="189.0,299.0 189.0,335.0" stroke="#000" stroke-width="1" /><polyline fill="none" opacity="1.0" points="193.0,299.0 193.0,335.0" stroke="#000" stroke-width="1" /><polyline fill="none" opacity="1.0" points="197.0,299.0 197.0,335.0" stroke="#000" stroke-width="1" /><polygon fill="#FFF" opacity="1.0" points="634.0,255.0 634.0,300.0 624.0,300.0 624.0,255.0" stroke="#000" stroke-width="1" /><polyline fill="none" opacity="1.0" points="624.0,300.0 634.0,300.0 634.0,255.0" stroke="#000" stroke-width="1" /><text fill="#FFF" font-family="Arial" font-size="10" font-weight="normal" opacity="1.0" transform="rotate(-90.0 622.0,291.0) translate(0 10)" x="622.0" y="291.0">кассы</text><polyline fill="none" opacity="1.0" points="565.0,286.0 573.0,278.0" stroke="#000" stroke-width="0.5" /><polyline fill="none" opacity="1.0" points="589.0,278.0 595.0,278.0 595.0,283.0" stroke="#000" stroke-width="0.5" /><polygon fill="none" opacity="1.0" points="598.0,340.0 592.0,340.0 592.0,346.0 598.0,346.0" stroke="#000" stroke-width="1" /><polyline fill="none" opacity="1.0" points="565.0,326.0 592.0,348.0 592.0,383.0" stroke="#000" stroke-width="0.5" /><polyline fill="none" opacity="1.0" points="597.0,283.0 593.0,283.0" stroke="#090" stroke-width="1" /><polyline fill="none" opacity="1.0" points="597.0,287.0 593.0,287.0" stroke="#090" stroke-width="1" /><polyline fill="none" opacity="1.0" points="597.0,291.0 593.0,291.0" stroke="#090" stroke-width="1" /><polyline fill="none" opacity="1.0" points="597.0,295.0 593.0,295.0" stroke="#090" stroke-width="1" /><polyline fill="none" opacity="1.0" points="597.0,299.0 593.0,299.0" stroke="#090" stroke-width="1" /><polyline fill="none" opacity="1.0" points="597.0,303.0 593.0,303.0" stroke="#090" stroke-width="1" /><polyline fill="none" opacity="1.0" points="597.0,307.0 593.0,307.0" stroke="#090" stroke-width="1" /><polyline fill="none" opacity="1.0" points="597.0,311.0 593.0,311.0" stroke="#090" stroke-width="1" /><polyline fill="none" opacity="1.0" points="597.0,315.0 593.0,315.0" stroke="#090" stroke-width="1" /><polyline fill="none" opacity="1.0" points="597.0,319.0 593.0,319.0" stroke="#090" stroke-width="1" /><polyline fill="none" opacity="1.0" points="597.0,323.0 593.0,323.0" stroke="#090" stroke-width="1" /><polyline fill="none" opacity="1.0" points="597.0,327.0 593.0,327.0" stroke="#090" stroke-width="1" /><polyline fill="none" opacity="1.0" points="597.0,331.0 593.0,331.0" stroke="#090" stroke-width="1" /><polyline fill="none" opacity="1.0" points="597.0,335.0 593.0,335.0" stroke="#090" stroke-width="1" /><polyline fill="none" opacity="1.0" points="573.0,276.0 573.0,280.0" stroke="#090" stroke-width="1" /><polyline fill="none" opacity="1.0" points="577.0,276.0 577.0,280.0" stroke="#090" stroke-width="1" /><polyline fill="none" opacity="1.0" points="581.0,276.0 581.0,280.0" stroke="#090" stroke-width="1" /><polyline fill="none" opacity="1.0" points="585.0,276.0 585.0,280.0" stroke="#090" stroke-width="1" /><polyline fill="none" opacity="1.0" points="589.0,276.0 589.0,280.0" stroke="#090" stroke-width="1" /><polyline fill="none" opacity="1.0" points="555.0,352.0 550.0,352.0" stroke="#F00" stroke-width="1" /><polyline fill="none" opacity="1.0" points="555.0,356.0 550.0,356.0" stroke="#F00" stroke-width="1" /><polyline fill="none" opacity="1.0" points="555.0,360.0 550.0,360.0" stroke="#F00" stroke-width="1" /><polyline fill="none" opacity="1.0" points="555.0,364.0 550.0,364.0" stroke="#F00" stroke-width="1" /><polyline fill="none" opacity="1.0" points="555.0,368.0 550.0,368.0" stroke="#F00" stroke-width="1" /><polyline fill="none" opacity="1.0" points="555.0,372.0 550.0,372.0" stroke="#F00" stroke-width="1" /><polyline fill="none" opacity="1.0" points="555.0,376.0 550.0,376.0" stroke="#F00" stroke-width="1" /><polyline fill="none" opacity="1.0" points="555.0,380.0 550.0,380.0" stroke="#F00" stroke-width="1" /><text fill="#00AFAF" font-family="Arial" font-size="15" font-weight="normal" opacity="1.0" transform="rotate(-0.0 -48.0,395.0) translate(0 15)" x="-48.0" y="395.0">улица Луначарского</text><text fill="#00AFAF" font-family="Arial" font-size="15" font-weight="normal" opacity="1.0" transform="rotate(-0.0 523.0,389.0) translate(0 15)" x="523.0" y="389.0">улица Гагарина</text><text fill="#00AFAF" font-family="Arial" font-size="15" font-weight="normal" opacity="1.0" transform="rotate(-90.0 204.0,219.0) translate(0 15)" x="204.0" y="219.0">Московское</text><text fill="#00AFAF" font-family="Arial" font-size="15" font-weight="normal" opacity="1.0" transform="rotate(-90.0 221.0,213.0) translate(0 15)" x="221.0" y="213.0">шоссе</text><text fill="#00AFAF" font-family="Arial" font-size="15" font-weight="normal" opacity="1.0" transform="rotate(-90.0 203.0,476.0) translate(0 15)" x="203.0" y="476.0">Московское</text><text fill="#00AFAF" font-family="Arial" font-size="15" font-weight="normal" opacity="1.0" transform="rotate(-90.0 220.0,470.0) translate(0 15)" x="220.0" y="470.0">шоссе</text><polyline fill="none" opacity="1.0" points="449.0,336.0 460.0,336.0" stroke="#F00" stroke-width="1" /><polygon fill="#F00" opacity="1.0" points="456.8124,336.8541 460.0,336.0 456.8124,335.1459" stroke="#F00" stroke-width="1" /><polyline fill="none" opacity="1.0" points="514.0,367.0 496.0,367.0" stroke="#F00" stroke-width="1" /><polygon fill="#F00" opacity="1.0" points="501.216,365.6024 496.0,367.0 501.216,368.3976" stroke="#F00" stroke-width="1" /><polyline fill="none" opacity="1.0" points="573.0,296.0 559.0,296.0" stroke="#090" stroke-width="1" /><polygon fill="#090" opacity="1.0" points="563.0569,294.913 559.0,296.0 563.0569,297.087" stroke="#090" stroke-width="1" /><polyline fill="none" opacity="1.0" points="495.0,266.0 514.0,266.0" stroke="#090" stroke-width="1" /><polygon fill="#090" opacity="1.0" points="508.4942,267.4753 514.0,266.0 508.4942,264.5247" stroke="#090" stroke-width="1" /><polygon fill="#FFD0D0" opacity="0.7" points="-82.0,284.0 -11.0,283.0 -11.0,349.0 -82.0,350.0" stroke="#FFD0D0" stroke-width="1" /><polygon fill="#FFD0D0" opacity="0.7" points="149.0,297.0 199.0,297.0 199.0,245.0 234.0,245.0 234.0,297.0 284.0,297.0 284.0,337.0 234.0,337.0 234.0,356.0 199.0,356.0 199.0,337.0 149.0,337.0" stroke="#FFD0D0" stroke-width="1" /><text fill="#FF4040" font-family="Arial" font-size="20" font-weight="normal" opacity="1.0" transform="rotate(-0.0 -81.0,304.0) translate(0 20)" x="-81.0" y="304.0">Закрыто</text><text fill="#FF4040" font-family="Arial" font-size="20" font-weight="normal" opacity="1.0" transform="rotate(-0.0 179.0,305.0) translate(0 20)" x="179.0" y="305.0">Закрыто</text><polyline fill="none" opacity="1.0" points="-82.0,284.0 -11.0,283.0 -11.0,349.0 -82.0,350.0 -82.0,284.0" stroke="#FF4040" stroke-dasharray="5,5" stroke-width="1" /><polyline fill="none" opacity="1.0" points="149.0,297.0 199.0,297.0 199.0,245.0 234.0,245.0 234.0,297.0 284.0,297.0 284.0,337.0 234.0,337.0 234.0,356.0 199.0,356.0 199.0,337.0 149.0,337.0 149.0,297.0" stroke="#FF4040" stroke-dasharray="5,5" stroke-width="1" /></g></g></svg>