<?xml version="1.0" encoding="utf-8" ?>
<svg baseProfile="tiny" height="440px" version="1.2" width="1020px" xmlns="http://www.w3.org/2000/svg" xmlns:ev="http://www.w3.org/2001/xml-events" xmlns:xlink="http://www.w3.org/1999/xlink"><defs /><g><polygon fill="#E1361E" opacity="100" points="281.0,144.0 731.0,144.0 731.0,174.0 281.0,174.0" stroke="#000" stroke-width="1" /><polygon fill="#E1361E" opacity="100" points="281.0,284.0 281.0,254.0 731.0,254.0 731.0,284.0" stroke="#000" stroke-width="1" /><text fill="#E1361E" font-family="Arial" font-size="20" font-weight="normal" opacity="100" transform="rotate(-0.0 281.0,121.0) translate(0 20)" x="281.0" y="121.0">&lt;&lt; Спортивная</text><text fill="#E1361E" font-family="Arial" font-size="20" font-weight="normal" opacity="100" transform="rotate(-0.0 642.0,284.0) translate(0 20)" x="642.0" y="284.0">Победа &gt;&gt;</text><text fill="#E1361E" font-family="Arial" font-size="25" font-weight="bold" opacity="100" transform="rotate(-0.0 452.0,201.0) translate(0 25)" x="452.0" y="201.0">Советская</text><polyline fill="none" opacity="100" points="281.0,174.0 281.0,184.0 231.0,184.0 231.0,148.0 147.0,148.0 147.0,152.0 142.0,152.0 142.0,89.0 192.0,89.0" stroke="#000" stroke-width="1" /><polyline fill="none" opacity="100" points="192.0,71.0 118.0,71.0 118.0,431.0 170.0,431.0 170.0,381.0" stroke="#000" stroke-width="1" /><polyline fill="none" opacity="100" points="146.0,381.0 146.0,407.0 142.0,407.0 142.0,276.0 147.0,276.0 147.0,280.0 231.0,280.0 231.0,244.0 281.0,244.0 281.0,254.0" stroke="#000" stroke-width="1" /><polyline fill="none" opacity="100" points="233.0,184.0 233.0,244.0" stroke="#000" stroke-width="1" /><polyline fill="none" opacity="100" points="237.0,184.0 237.0,244.0" stroke="#000" stroke-width="1" /><polyline fill="none" opacity="100" points="241.0,184.0 241.0,244.0" stroke="#000" stroke-width="1" /><polyline fill="none" opacity="100" points="245.0,184.0 245.0,244.0" stroke="#000" stroke-width="1" /><polyline fill="none" opacity="100" points="249.0,184.0 249.0,244.0" stroke="#000" stroke-width="1" /><polyline fill="none" opacity="100" points="253.0,184.0 253.0,244.0" stroke="#000" stroke-width="1" /><polyline fill="none" opacity="100" points="257.0,184.0 257.0,244.0" stroke="#000" stroke-width="1" /><polyline fill="none" opacity="100" points="261.0,184.0 261.0,244.0" stroke="#000" stroke-width="1" /><polyline fill="none" opacity="100" points="265.0,184.0 265.0,244.0" stroke="#000" stroke-width="1" /><polyline fill="none" opacity="100" points="269.0,184.0 269.0,244.0" stroke="#000" stroke-width="1" /><polyline fill="none" opacity="100" points="273.0,184.0 273.0,244.0" stroke="#000" stroke-width="1" /><polyline fill="none" opacity="100" points="277.0,184.0 277.0,244.0" stroke="#000" stroke-width="1" /><polyline fill="none" opacity="100" points="190.0,89.0 190.0,71.0" stroke="#000" stroke-width="1" /><polyline fill="none" opacity="100" points="186.0,89.0 186.0,71.0" stroke="#000" stroke-width="1" /><polyline fill="none" opacity="100" points="182.0,89.0 182.0,71.0" stroke="#000" stroke-width="1" /><polyline fill="none" opacity="100" points="178.0,89.0 178.0,71.0" stroke="#000" stroke-width="1" /><polyline fill="none" opacity="100" points="174.0,89.0 174.0,71.0" stroke="#000" stroke-width="1" /><polyline fill="none" opacity="100" points="170.0,89.0 170.0,71.0" stroke="#000" stroke-width="1" /><polyline fill="none" opacity="100" points="166.0,89.0 166.0,71.0" stroke="#000" stroke-width="1" /><polyline fill="none" opacity="100" points="162.0,89.0 162.0,71.0" stroke="#000" stroke-width="1" /><polyline fill="none" opacity="100" points="158.0,89.0 158.0,71.0" stroke="#000" stroke-width="1" /><polyline fill="none" opacity="100" points="154.0,89.0 154.0,71.0" stroke="#000" stroke-width="1" /><polyline fill="none" opacity="100" points="150.0,89.0 150.0,71.0" stroke="#000" stroke-width="1" /><polyline fill="none" opacity="100" points="146.0,89.0 146.0,71.0" stroke="#000" stroke-width="1" /><polyline fill="none" opacity="100" points="142.0,405.0 118.0,405.0" stroke="#000" stroke-width="1" /><polyline fill="none" opacity="100" points="142.0,401.0 118.0,401.0" stroke="#000" stroke-width="1" /><polyline fill="none" opacity="100" points="142.0,397.0 118.0,397.0" stroke="#000" stroke-width="1" /><polyline fill="none" opacity="100" points="142.0,393.0 118.0,393.0" stroke="#000" stroke-width="1" /><polyline fill="none" opacity="100" points="142.0,389.0 118.0,389.0" stroke="#000" stroke-width="1" /><polyline fill="none" opacity="100" points="142.0,385.0 118.0,385.0" stroke="#000" stroke-width="1" /><polyline fill="none" opacity="100" points="146.0,383.0 170.0,383.0" stroke="#000" stroke-width="1" /><polyline fill="none" opacity="100" points="146.0,387.0 170.0,387.0" stroke="#000" stroke-width="1" /><polyline fill="none" opacity="100" points="146.0,391.0 170.0,391.0" stroke="#000" stroke-width="1" /><polyline fill="none" opacity="100" points="146.0,395.0 170.0,395.0" stroke="#000" stroke-width="1" /><polyline fill="none" opacity="100" points="146.0,399.0 170.0,399.0" stroke="#000" stroke-width="1" /><polyline fill="none" opacity="100" points="146.0,403.0 170.0,403.0" stroke="#000" stroke-width="1" /><polygon fill="#D0D0D0" opacity="100" points="142.0,256.0 147.0,256.0 147.0,172.0 142.0,172.0" stroke="#000" stroke-width="1" /><polyline fill="none" opacity="100" points="731.0,174.0 731.0,184.0 781.0,184.0 781.0,148.0 865.0,148.0 865.0,155.0 873.0,155.0 873.0,89.0 823.0,89.0" stroke="#000" stroke-width="1" /><polyline fill="none" opacity="100" points="823.0,71.0 947.0,71.0" stroke="#000" stroke-width="1" /><polyline fill="none" opacity="100" points="947.0,89.0 897.0,89.0 897.0,363.0 947.0,363.0" stroke="#000" stroke-width="1" /><polyline fill="none" opacity="100" points="947.0,381.0 823.0,381.0" stroke="#000" stroke-width="1" /><polyline fill="none" opacity="100" points="823.0,363.0 873.0,363.0 873.0,273.0 865.0,273.0 865.0,280.0 781.0,280.0 781.0,244.0 731.0,244.0 731.0,254.0" stroke="#000" stroke-width="1" /><polyline fill="none" opacity="100" points="779.0,184.0 779.0,244.0" stroke="#000" stroke-width="1" /><polyline fill="none" opacity="100" points="775.0,184.0 775.0,244.0" stroke="#000" stroke-width="1" /><polyline fill="none" opacity="100" points="771.0,184.0 771.0,244.0" stroke="#000" stroke-width="1" /><polyline fill="none" opacity="100" points="767.0,184.0 767.0,244.0" stroke="#000" stroke-width="1" /><polyline fill="none" opacity="100" points="763.0,184.0 763.0,244.0" stroke="#000" stroke-width="1" /><polyline fill="none" opacity="100" points="759.0,184.0 759.0,244.0" stroke="#000" stroke-width="1" /><polyline fill="none" opacity="100" points="755.0,184.0 755.0,244.0" stroke="#000" stroke-width="1" /><polyline fill="none" opacity="100" points="751.0,184.0 751.0,244.0" stroke="#000" stroke-width="1" /><polyline fill="none" opacity="100" points="747.0,184.0 747.0,244.0" stroke="#000" stroke-width="1" /><polyline fill="none" opacity="100" points="743.0,184.0 743.0,244.0" stroke="#000" stroke-width="1" /><polyline fill="none" opacity="100" points="739.0,184.0 739.0,244.0" stroke="#000" stroke-width="1" /><polyline fill="none" opacity="100" points="735.0,184.0 735.0,244.0" stroke="#000" stroke-width="1" /><polyline fill="none" opacity="100" points="945.0,89.0 945.0,71.0" stroke="#000" stroke-width="1" /><polyline fill="none" opacity="100" points="941.0,89.0 941.0,71.0" stroke="#000" stroke-width="1" /><polyline fill="none" opacity="100" points="937.0,89.0 937.0,71.0" stroke="#000" stroke-width="1" /><polyline fill="none" opacity="100" points="933.0,89.0 933.0,71.0" stroke="#000" stroke-width="1" /><polyline fill="none" opacity="100" points="929.0,89.0 929.0,71.0" stroke="#000" stroke-width="1" /><polyline fill="none" opacity="100" points="925.0,89.0 925.0,71.0" stroke="#000" stroke-width="1" /><polyline fill="none" opacity="100" points="921.0,89.0 921.0,71.0" stroke="#000" stroke-width="1" /><polyline fill="none" opacity="100" points="917.0,89.0 917.0,71.0" stroke="#000" stroke-width="1" /><polyline fill="none" opacity="100" points="913.0,89.0 913.0,71.0" stroke="#000" stroke-width="1" /><polyline fill="none" opacity="100" points="909.0,89.0 909.0,71.0" stroke="#000" stroke-width="1" /><polyline fill="none" opacity="100" points="905.0,89.0 905.0,71.0" stroke="#000" stroke-width="1" /><polyline fill="none" opacity="100" points="901.0,89.0 901.0,71.0" stroke="#000" stroke-width="1" /><polyline fill="none" opacity="100" points="825.0,89.0 825.0,71.0" stroke="#000" stroke-width="1" /><polyline fill="none" opacity="100" points="829.0,89.0 829.0,71.0" stroke="#000" stroke-width="1" /><polyline fill="none" opacity="100" points="833.0,89.0 833.0,71.0" stroke="#000" stroke-width="1" /><polyline fill="none" opacity="100" points="837.0,89.0 837.0,71.0" stroke="#000" stroke-width="1" /><polyline fill="none" opacity="100" points="841.0,89.0 841.0,71.0" stroke="#000" stroke-width="1" /><polyline fill="none" opacity="100" points="845.0,89.0 845.0,71.0" stroke="#000" stroke-width="1" /><polyline fill="none" opacity="100" points="849.0,89.0 849.0,71.0" stroke="#000" stroke-width="1" /><polyline fill="none" opacity="100" points="853.0,89.0 853.0,71.0" stroke="#000" stroke-width="1" /><polyline fill="none" opacity="100" points="857.0,89.0 857.0,71.0" stroke="#000" stroke-width="1" /><polyline fill="none" opacity="100" points="861.0,89.0 861.0,71.0" stroke="#000" stroke-width="1" /><polyline fill="none" opacity="100" points="865.0,89.0 865.0,71.0" stroke="#000" stroke-width="1" /><polyline fill="none" opacity="100" points="869.0,89.0 869.0,71.0" stroke="#000" stroke-width="1" /><polyline fill="none" opacity="100" points="945.0,363.0 945.0,381.0" stroke="#000" stroke-width="1" /><polyline fill="none" opacity="100" points="941.0,363.0 941.0,381.0" stroke="#000" stroke-width="1" /><polyline fill="none" opacity="100" points="937.0,363.0 937.0,381.0" stroke="#000" stroke-width="1" /><polyline fill="none" opacity="100" points="933.0,363.0 933.0,381.0" stroke="#000" stroke-width="1" /><polyline fill="none" opacity="100" points="929.0,363.0 929.0,381.0" stroke="#000" stroke-width="1" /><polyline fill="none" opacity="100" points="925.0,363.0 925.0,381.0" stroke="#000" stroke-width="1" /><polyline fill="none" opacity="100" points="921.0,363.0 921.0,381.0" stroke="#000" stroke-width="1" /><polyline fill="none" opacity="100" points="917.0,363.0 917.0,381.0" stroke="#000" stroke-width="1" /><polyline fill="none" opacity="100" points="913.0,363.0 913.0,381.0" stroke="#000" stroke-width="1" /><polyline fill="none" opacity="100" points="909.0,363.0 909.0,381.0" stroke="#000" stroke-width="1" /><polyline fill="none" opacity="100" points="905.0,363.0 905.0,381.0" stroke="#000" stroke-width="1" /><polyline fill="none" opacity="100" points="901.0,363.0 901.0,381.0" stroke="#000" stroke-width="1" /><polyline fill="none" opacity="100" points="825.0,363.0 825.0,381.0" stroke="#000" stroke-width="1" /><polyline fill="none" opacity="100" points="829.0,363.0 829.0,381.0" stroke="#000" stroke-width="1" /><polyline fill="none" opacity="100" points="833.0,363.0 833.0,381.0" stroke="#000" stroke-width="1" /><polyline fill="none" opacity="100" points="837.0,363.0 837.0,381.0" stroke="#000" stroke-width="1" /><polyline fill="none" opacity="100" points="841.0,363.0 841.0,381.0" stroke="#000" stroke-width="1" /><polyline fill="none" opacity="100" points="845.0,363.0 845.0,381.0" stroke="#000" stroke-width="1" /><polyline fill="none" opacity="100" points="849.0,363.0 849.0,381.0" stroke="#000" stroke-width="1" /><polyline fill="none" opacity="100" points="853.0,363.0 853.0,381.0" stroke="#000" stroke-width="1" /><polyline fill="none" opacity="100" points="857.0,363.0 857.0,381.0" stroke="#000" stroke-width="1" /><polyline fill="none" opacity="100" points="861.0,363.0 861.0,381.0" stroke="#000" stroke-width="1" /><polyline fill="none" opacity="100" points="865.0,363.0 865.0,381.0" stroke="#000" stroke-width="1" /><polyline fill="none" opacity="100" points="869.0,363.0 869.0,381.0" stroke="#000" stroke-width="1" /><polygon fill="#D0D0D0" opacity="100" points="865.0,175.0 873.0,175.0 873.0,253.0 865.0,253.0" stroke="#000" stroke-width="1" /><polyline fill="none" opacity="100" points="791.0,148.0 791.0,177.0 781.0,177.0" stroke="#000" stroke-width="1" /><text fill="#FFF" font-family="Arial" font-size="10" font-weight="normal" opacity="100" transform="rotate(-90.0 780.0,175.0) translate(0 10)" x="780.0" y="175.0">кассы</text><polyline fill="none" opacity="100" points="791.0,177.0 800.0,177.0" stroke="#000" stroke-width="0.5" /><polygon fill="none" opacity="100" points="843.0,233.0 838.0,236.0 841.0,241.0 846.0,238.0" stroke="#000" stroke-width="1" /><polyline fill="none" opacity="100" points="802.0,176.0 799.0,178.0" stroke="#090" stroke-width="1" /><polyline fill="none" opacity="100" points="804.302,179.2712 801.302,181.2712" stroke="#090" stroke-width="1" /><polyline fill="none" opacity="100" points="806.6039,182.5425 803.6039,184.5425" stroke="#090" stroke-width="1" /><polyline fill="none" opacity="100" points="808.9059,185.8137 805.9059,187.8137" stroke="#090" stroke-width="1" /><polyline fill="none" opacity="100" points="811.2079,189.0849 808.2079,191.0849" stroke="#090" stroke-width="1" /><polyline fill="none" opacity="100" points="813.5099,192.3561 810.5099,194.3561" stroke="#090" stroke-width="1" /><polyline fill="none" opacity="100" points="815.8118,195.6274 812.8118,197.6274" stroke="#090" stroke-width="1" /><polyline fill="none" opacity="100" points="818.1138,198.8986 815.1138,200.8986" stroke="#090" stroke-width="1" /><polyline fill="none" opacity="100" points="820.4158,202.1698 817.4158,204.1698" stroke="#090" stroke-width="1" /><polyline fill="none" opacity="100" points="822.7178,205.441 819.7178,207.441" stroke="#090" stroke-width="1" /><polyline fill="none" opacity="100" points="825.0197,208.7123 822.0197,210.7123" stroke="#090" stroke-width="1" /><polyline fill="none" opacity="100" points="827.3217,211.9835 824.3217,213.9835" stroke="#090" stroke-width="1" /><polyline fill="none" opacity="100" points="829.6237,215.2547 826.6237,217.2547" stroke="#090" stroke-width="1" /><polyline fill="none" opacity="100" points="831.9257,218.5259 828.9257,220.5259" stroke="#090" stroke-width="1" /><polyline fill="none" opacity="100" points="834.2276,221.7972 831.2276,223.7972" stroke="#090" stroke-width="1" /><polyline fill="none" opacity="100" points="836.5296,225.0684 833.5296,227.0684" stroke="#090" stroke-width="1" /><polyline fill="none" opacity="100" points="838.8316,228.3396 835.8316,230.3396" stroke="#090" stroke-width="1" /><polyline fill="none" opacity="100" points="846.0,245.0 842.0,245.0" stroke="#F00" stroke-width="1" /><polyline fill="none" opacity="100" points="846.0,249.0 842.0,249.0" stroke="#F00" stroke-width="1" /><polyline fill="none" opacity="100" points="846.0,253.0 842.0,253.0" stroke="#F00" stroke-width="1" /><polyline fill="none" opacity="100" points="846.0,257.0 842.0,257.0" stroke="#F00" stroke-width="1" /><polyline fill="none" opacity="100" points="846.0,261.0 842.0,261.0" stroke="#F00" stroke-width="1" /><polyline fill="none" opacity="100" points="846.0,265.0 842.0,265.0" stroke="#F00" stroke-width="1" /><polyline fill="none" opacity="100" points="846.0,269.0 842.0,269.0" stroke="#F00" stroke-width="1" /><polyline fill="none" opacity="100" points="846.0,273.0 842.0,273.0" stroke="#F00" stroke-width="1" /><polyline fill="none" opacity="100" points="846.0,277.0 842.0,277.0" stroke="#F00" stroke-width="1" /><polyline fill="none" opacity="100" points="804.0,258.0 814.0,258.0" stroke="#F00" stroke-width="1" /><polygon fill="#F00" opacity="100" points="811.1022,258.7765 814.0,258.0 811.1022,257.2235" stroke="#F00" stroke-width="1" /><polyline fill="none" opacity="100" points="847.0,169.0 837.0,176.0" stroke="#090" stroke-width="1" /><polygon fill="#090" opacity="100" points="839.3543,173.1951 837.0,176.0 840.4413,174.748" stroke="#090" stroke-width="1" /><text fill="#00AFAF" font-family="Arial" font-size="15" font-weight="normal" opacity="100" transform="rotate(-90.0 710.0,136.0) translate(0 15)" x="710.0" y="136.0">улица Запорожская</text><text fill="#00AFAF" font-family="Arial" font-size="15" font-weight="normal" opacity="100" transform="rotate(-0.0 12.0,209.0) translate(0 15)" x="12.0" y="209.0">улица Гагарина</text><text fill="#00AFAF" font-family="Arial" font-size="15" font-weight="normal" opacity="100" transform="rotate(-0.0 905.0,208.0) translate(0 15)" x="905.0" y="208.0">улица Гагарина</text><polygon fill="#FFD0D0" opacity="0.7" points="116.0,69.0 233.0,69.0 233.0,182.0 283.0,182.0 283.0,246.0 233.0,246.0 233.0,433.0 116.0,433.0" stroke="#FFD0D0" stroke-width="1" /><text fill="#FF4040" font-family="Arial" font-size="17" font-weight="normal" opacity="1.0" transform="rotate(-0.0 161.0,205.0) translate(0 17)" x="161.0" y="205.0">Закрыто</text><polyline fill="none" opacity="1.0" points="116.0,69.0 233.0,69.0 233.0,182.0 283.0,182.0 283.0,246.0 233.0,246.0 233.0,433.0 116.0,433.0 116.0,69.0" stroke="#FF4040" stroke-dasharray="5,5" stroke-width="1" /></g></svg>