<?xml version="1.0" encoding="utf-8" ?>
<svg baseProfile="tiny" height="560px" version="1.2" width="480px" xmlns="http://www.w3.org/2000/svg" xmlns:ev="http://www.w3.org/2001/xml-events" xmlns:xlink="http://www.w3.org/1999/xlink"><defs /><g><polygon fill="#CBECF4" opacity="100" points="0.0,0.0 480.0,0.0 480.0,560.0 0.0,560.0" stroke="#CBECF4" stroke-width="1" /><polyline fill="none" opacity="100" points="362.0,129.0 480.0,109.0" stroke="#FFF" stroke-width="3" /><text fill="#1FB5E9" font-family="10" font-size="30" font-weight="normal" opacity="100" transform="rotate(-35.0 198.0,478.0) translate(0 30)" x="198.0" y="478.0">Lower New York Bay</text><text fill="#3A29DD" font-family="10" font-size="8" font-weight="normal" opacity="100" transform="rotate(-9.0 373.0,115.0) translate(0 8)" x="373.0" y="115.0">Verrazano-Narrows Bridge 3</text><polygon fill="#FFFAEA" opacity="100" points="74.0,99.0 76.0,95.0 81.0,98.0 85.0,99.0 89.0,100.0 93.0,101.0 98.0,101.0 105.0,102.0 112.0,102.0 118.0,102.0 123.0,101.0 126.0,99.0 130.0,97.0 134.0,94.0 138.0,91.0 143.0,88.0 147.0,84.0 151.0,81.0 155.0,78.0 158.0,76.0 162.0,77.0 165.0,78.0 168.0,77.0 171.0,74.0 173.0,73.0 185.0,72.0 188.0,71.0 192.0,68.0 197.0,64.0 202.0,60.0 204.0,56.0 209.0,54.0 213.0,50.0 217.0,49.0 223.0,46.0 228.0,44.0 234.0,42.0 239.0,39.0 243.0,36.0 247.0,32.0 251.0,28.0 255.0,25.0 260.0,22.0 264.0,21.0 269.0,19.0 273.0,19.0 278.0,20.0 282.0,21.0 284.0,24.0 284.0,30.0 285.0,34.0 286.0,39.0 288.0,43.0 291.0,45.0 294.0,46.0 297.0,46.0 301.0,49.0 303.0,56.0 307.0,62.0 310.0,68.0 314.0,73.0 317.0,77.0 321.0,82.0 325.0,85.0 329.0,88.0 333.0,90.0 337.0,93.0 340.0,96.0 341.0,101.0 345.0,104.0 350.0,107.0 354.0,111.0 357.0,114.0 360.0,118.0 362.0,122.0 363.0,128.0 361.0,135.0 359.0,140.0 358.0,145.0 356.0,150.0 353.0,156.0 350.0,160.0 348.0,165.0 345.0,171.0 344.0,176.0 341.0,181.0 339.0,187.0 337.0,192.0 334.0,199.0 331.0,209.0 328.0,216.0 324.0,223.0 322.0,230.0 319.0,236.0 317.0,241.0 315.0,247.0 313.0,252.0 312.0,258.0 311.0,263.0 310.0,270.0 307.0,275.0 304.0,280.0 302.0,286.0 299.0,292.0 293.0,293.0 291.0,301.0 286.0,308.0 285.0,312.0 238.0,326.0 233.0,339.0 232.0,343.0 231.0,348.0 232.0,353.0 231.0,361.0 229.0,367.0 226.0,373.0 224.0,378.0 221.0,382.0 217.0,387.0 215.0,391.0 211.0,396.0 207.0,400.0 203.0,404.0 199.0,408.0 195.0,412.0 192.0,417.0 189.0,421.0 187.0,424.0 186.0,426.0 185.0,429.0 182.0,431.0 179.0,433.0 174.0,434.0 171.0,436.0 166.0,439.0 163.0,444.0 161.0,448.0 160.0,452.0 159.0,457.0 157.0,463.0 154.0,467.0 151.0,470.0 146.0,472.0 141.0,473.0 137.0,473.0 132.0,474.0 127.0,477.0 123.0,481.0 122.0,486.0 120.0,491.0 118.0,494.0 115.0,498.0 112.0,502.0 108.0,506.0 105.0,508.0 102.0,511.0 97.0,512.0 94.0,512.0 91.0,516.0 88.0,520.0 85.0,523.0 83.0,527.0 80.0,530.0 77.0,532.0 74.0,537.0 67.0,541.0 63.0,544.0 58.0,547.0 52.0,547.0 45.0,544.0 38.0,540.0 33.0,535.0 30.0,530.0 28.0,526.0 28.0,515.0 31.0,508.0 33.0,502.0 36.0,495.0 38.0,486.0 43.0,483.0 45.0,480.0 44.0,475.0 41.0,473.0 37.0,468.0 35.0,463.0 33.0,454.0 33.0,447.0 32.0,439.0 29.0,434.0 23.0,431.0 19.0,428.0 16.0,423.0 15.0,416.0 16.0,412.0 18.0,408.0 24.0,408.0 24.0,406.0 25.0,401.0 27.0,395.0 28.0,392.0 30.0,387.0 33.0,382.0 36.0,378.0 40.0,376.0 44.0,373.0 50.0,372.0 55.0,371.0 60.0,369.0 64.0,366.0 68.0,364.0 71.0,362.0 74.0,360.0 73.0,355.0 71.0,350.0 70.0,344.0 69.0,338.0 69.0,333.0 69.0,328.0 69.0,323.0 70.0,319.0 72.0,314.0 75.0,312.0 80.0,311.0 83.0,308.0 86.0,305.0 87.0,301.0 87.0,297.0 91.0,295.0 97.0,291.0 93.0,285.0 89.0,286.0 83.0,287.0 78.0,288.0 73.0,290.0 69.0,291.0 66.0,287.0 65.0,281.0 64.0,274.0 63.0,268.0 62.0,263.0 62.0,257.0 62.0,251.0 64.0,246.0 67.0,244.0 67.0,239.0 68.0,234.0 68.0,229.0 67.0,224.0 64.0,218.0 61.0,214.0 58.0,209.0 57.0,205.0 58.0,201.0 58.0,196.0 58.0,192.0 53.0,189.0 48.0,188.0 44.0,185.0 41.0,181.0 40.0,175.0 40.0,169.0 38.0,165.0 36.0,161.0 33.0,157.0 32.0,153.0 33.0,149.0 35.0,142.0 38.0,136.0 40.0,131.0 41.0,125.0 41.0,120.0 42.0,117.0 45.0,115.0 50.0,115.0 51.0,111.0 51.0,107.0 53.0,104.0 56.0,102.0 59.0,101.0 64.0,103.0 68.0,104.0 72.0,105.0 73.0,102.0" stroke="#FFFAEA" stroke-width="1" /><polygon fill="#D5FFC8" opacity="100" points="197.0,106.0 201.0,110.0 204.0,114.0 208.0,115.0 213.0,117.0 218.0,117.0 221.0,117.0 226.0,119.0 230.0,120.0 234.0,121.0 237.0,118.0 241.0,114.0 243.0,110.0 244.0,106.0 246.0,102.0 244.0,98.0 243.0,94.0 241.0,89.0 241.0,85.0 244.0,81.0 248.0,78.0 253.0,76.0 257.0,75.0 263.0,75.0 265.0,76.0 265.0,80.0 264.0,84.0 262.0,89.0 261.0,92.0 259.0,96.0 258.0,100.0 257.0,102.0 264.0,103.0 263.0,107.0 261.0,112.0 260.0,116.0 258.0,120.0 256.0,122.0 254.0,124.0 252.0,122.0 250.0,120.0 247.0,120.0 245.0,121.0 243.0,123.0 243.0,125.0 244.0,130.0 228.0,140.0 224.0,140.0 222.0,138.0 221.0,135.0 218.0,133.0 215.0,133.0 211.0,134.0 207.0,129.0 204.0,125.0 201.0,121.0 192.0,109.0" stroke="#D5FFC8" stroke-width="1" /><polygon fill="#D5FFC8" opacity="100" points="242.0,294.0 285.0,310.0 254.0,376.0 243.0,369.0 243.0,366.0 247.0,363.0 250.0,361.0 253.0,357.0 256.0,354.0 259.0,350.0 261.0,345.0 262.0,340.0 262.0,335.0 259.0,331.0 254.0,329.0 247.0,328.0 243.0,328.0 239.0,329.0 236.0,332.0 234.0,335.0 233.0,337.0 225.0,333.0" stroke="#D5FFC8" stroke-width="1" /><polygon fill="#D5FFC8" opacity="100" points="188.0,293.0 197.0,277.0 233.0,288.0 223.0,316.0 217.0,316.0 212.0,327.0 207.0,323.0 209.0,313.0" stroke="#D5FFC8" stroke-width="1" /><polygon fill="#D5FFC8" opacity="100" points="95.0,286.0 98.0,285.0 101.0,283.0 104.0,281.0 105.0,277.0 106.0,271.0 105.0,265.0 104.0,261.0 102.0,257.0 101.0,253.0 100.0,248.0 103.0,243.0 105.0,237.0 106.0,232.0 107.0,226.0 107.0,222.0 111.0,217.0 113.0,212.0 115.0,208.0 116.0,206.0 130.0,206.0 133.0,207.0 135.0,211.0 134.0,215.0 133.0,220.0 134.0,224.0 135.0,226.0 137.0,227.0 139.0,228.0 141.0,230.0 142.0,232.0 142.0,236.0 142.0,240.0 139.0,242.0 135.0,243.0 132.0,244.0 129.0,246.0 125.0,248.0 124.0,252.0 125.0,255.0 126.0,261.0 127.0,268.0 128.0,274.0 129.0,280.0 131.0,285.0 132.0,289.0 135.0,293.0 139.0,292.0 143.0,290.0 147.0,287.0 151.0,285.0 155.0,281.0 159.0,277.0 163.0,273.0 166.0,269.0 170.0,265.0 173.0,260.0 175.0,255.0 176.0,250.0 180.0,245.0 182.0,239.0 183.0,235.0 184.0,229.0 183.0,225.0 178.0,223.0 172.0,221.0 167.0,219.0 162.0,218.0 159.0,216.0 153.0,217.0 147.0,219.0 138.0,199.0 146.0,197.0 146.0,194.0 145.0,192.0 145.0,188.0 147.0,185.0 150.0,183.0 152.0,184.0 154.0,187.0 155.0,190.0 155.0,194.0 156.0,199.0 158.0,203.0 160.0,207.0 162.0,211.0 164.0,212.0 167.0,213.0 171.0,215.0 176.0,217.0 180.0,218.0 184.0,220.0 187.0,221.0 198.0,222.0 202.0,223.0 206.0,225.0 209.0,227.0 213.0,229.0 217.0,231.0 219.0,233.0 220.0,238.0 219.0,242.0 217.0,245.0 215.0,248.0 213.0,251.0 208.0,253.0 205.0,255.0 202.0,257.0 200.0,259.0 199.0,262.0 199.0,266.0 198.0,270.0 196.0,274.0 192.0,277.0 188.0,280.0 185.0,283.0 181.0,287.0 178.0,290.0 175.0,293.0 172.0,295.0 169.0,297.0 168.0,300.0 170.0,302.0 169.0,306.0 167.0,309.0 164.0,312.0 161.0,316.0 156.0,318.0 151.0,319.0 146.0,319.0 141.0,318.0 137.0,316.0 134.0,313.0 135.0,310.0 132.0,308.0 128.0,305.0 122.0,302.0 117.0,300.0 110.0,299.0 104.0,296.0 99.0,295.0 93.0,292.0" stroke="#D5FFC8" stroke-width="1" /><text fill="#FFF" font-family="10" font-size="17" font-weight="bold" opacity="100" x="159.45" y="168.3">STATEN</text><text fill="#FFF" font-family="10" font-size="17" font-weight="bold" opacity="100" x="161.45" y="181.3">ISLAND</text><text fill="#FFF" font-family="10" font-size="9" font-weight="bold" opacity="100" x="145.65" y="231.1">STATEN</text><text fill="#FFF" font-family="10" font-size="9" font-weight="bold" opacity="100" x="146.65" y="239.1">ISLAND</text><text fill="#FFF" font-family="10" font-size="9" font-weight="bold" opacity="100" x="149.65" y="247.1">MALL</text><text fill="#FFF" font-family="10" font-size="9" font-weight="bold" opacity="100" x="108.65" y="300.1">LA TOURETTE</text><text fill="#FFF" font-family="10" font-size="9" font-weight="bold" opacity="100" x="130.65" y="309.1">PARK</text><text fill="#FFF" font-family="10" font-size="9" font-weight="bold" opacity="100" x="239.65" y="311.1">GREAT</text><text fill="#FFF" font-family="10" font-size="9" font-weight="bold" opacity="100" x="242.65" y="319.1">KILLS</text><text fill="#FFF" font-family="10" font-size="9" font-weight="bold" opacity="100" x="242.65" y="327.1">PARK</text><text fill="#FFF" font-family="10" font-size="9" font-weight="bold" opacity="100" x="198.65" y="121.1">CLOVE</text><text fill="#FFF" font-family="10" font-size="9" font-weight="bold" opacity="100" x="199.65" y="129.1">LAKES</text><text fill="#FFF" font-family="10" font-size="9" font-weight="bold" opacity="100" x="201.65" y="137.1">PARK</text><text fill="#FFF" font-family="10" font-size="9" font-weight="bold" opacity="100" x="236.65" y="90.1">SILVER</text><text fill="#FFF" font-family="10" font-size="9" font-weight="bold" opacity="100" x="239.65" y="97.1">LAKE</text><text fill="#FFF" font-family="10" font-size="9" font-weight="bold" opacity="100" x="239.65" y="104.1">PARK</text></g></svg>