<?xml version="1.0" encoding="utf-8" ?>
<svg baseProfile="tiny" height="580px" version="1.2" width="770px" xmlns="http://www.w3.org/2000/svg" xmlns:ev="http://www.w3.org/2001/xml-events" xmlns:xlink="http://www.w3.org/1999/xlink"><defs /><g><g transform="rotate(20.0,385.0,290.0)"><polygon fill="#702785" opacity="100" points="519.0,494.0 519.0,524.0 69.0,524.0 69.0,494.0" stroke="#000" stroke-width="1" /><polygon fill="#702785" opacity="100" points="519.0,414.0 519.0,384.0 69.0,384.0 69.0,414.0" stroke="#000" stroke-width="1" /><text fill="#702785" font-family="Arial" font-size="20" font-weight="normal" opacity="100" transform="rotate(-0.0 424.0,524.0) translate(0 20)" x="424.0" y="524.0">Садовая &gt;&gt;</text><text fill="#702785" font-family="Arial" font-size="20" font-weight="normal" opacity="100" transform="rotate(-0.0 74.0,360.0) translate(0 20)" x="74.0" y="360.0">&lt;&lt; Спортивная</text><text fill="#702785" font-family="Arial" font-size="25" font-weight="bold" opacity="100" transform="rotate(-0.0 201.0,435.0) translate(0 25)" x="201.0" y="435.0">Адмиралтейская</text><polyline fill="none" opacity="100" points="69.0,414.0 69.0,427.0 149.0,427.0 149.0,480.0 69.0,480.0 69.0,494.0" stroke="#000" stroke-width="1" /><polyline fill="none" opacity="100" points="519.0,494.0 519.0,485.0 539.0,485.0 539.0,480.0" stroke="#000" stroke-width="1" /><polyline fill="none" opacity="100" points="539.0,427.0 539.0,422.0 519.0,422.0 519.0,414.0" stroke="#000" stroke-width="1" /><polygon fill="#FEFBF1" opacity="100" points="459.0,434.0 450.0,425.0 484.0,391.0 493.0,400.0 538.0,355.0 364.0,181.0 260.0,181.0 194.0,247.0 420.0,473.0" stroke="#DDD" stroke-width="1" /><polygon fill="#CCC" opacity="100" points="194.0,247.0 260.0,181.0 364.0,181.0 385.0,202.0 372.0,215.0 366.0,209.0 307.0,268.0 300.0,282.0 297.0,295.0 296.0,309.0 298.0,321.0 301.0,333.0 308.0,345.0 300.0,353.0" stroke="#CCC" stroke-width="1" /><polygon fill="#CCC" opacity="100" points="327.0,364.0 337.0,370.0 349.0,374.0 361.0,376.0 373.0,376.0 386.0,374.0 398.0,369.0 460.0,351.0 497.0,314.0 537.0,355.0 493.0,400.0 484.0,391.0 450.0,425.0 459.0,434.0 420.0,473.0 319.0,372.0" stroke="#CCC" stroke-width="1" /><polygon fill="#CCC" opacity="100" points="371.0,263.0 365.0,257.0 378.0,249.0 389.0,244.0 403.0,243.0 415.0,244.0 421.0,238.0 458.0,275.0 452.0,281.0 453.0,295.0 452.0,307.0 447.0,319.0 439.0,331.0 433.0,325.0 441.0,314.0 446.0,299.0 446.0,279.0 431.0,260.0 422.0,255.0 412.0,251.0 402.0,250.0 392.0,251.0 382.0,255.0" stroke="#CCC" stroke-width="1" /><polyline fill="none" opacity="100" points="579.0,427.0 579.0,422.0 638.0,422.0 690.0,403.0 727.0,288.0 699.0,210.0" stroke="#000" stroke-width="1" /><polyline fill="none" opacity="100" points="580.0,480.0 580.0,485.0 649.0,485.0 721.0,459.0 779.0,279.0 729.0,141.0 680.0,159.0 682.0,165.0" stroke="#000" stroke-width="1" /><polyline fill="none" opacity="100" points="581.0,477.0 581.0,430.0" stroke="#7F7F7F" stroke-width="1" /><polyline fill="none" opacity="100" points="577.0,477.0 577.0,430.0" stroke="#7F7F7F" stroke-width="1" /><polyline fill="none" opacity="100" points="573.0,477.0 573.0,430.0" stroke="#7F7F7F" stroke-width="1" /><polyline fill="none" opacity="100" points="569.0,477.0 569.0,430.0" stroke="#7F7F7F" stroke-width="1" /><polyline fill="none" opacity="100" points="565.0,477.0 565.0,430.0" stroke="#7F7F7F" stroke-width="1" /><polyline fill="none" opacity="100" points="561.0,477.0 561.0,430.0" stroke="#7F7F7F" stroke-width="1" /><polyline fill="none" opacity="100" points="557.0,477.0 557.0,430.0" stroke="#7F7F7F" stroke-width="1" /><polyline fill="none" opacity="100" points="553.0,477.0 553.0,430.0" stroke="#7F7F7F" stroke-width="1" /><polyline fill="none" opacity="100" points="549.0,477.0 549.0,430.0" stroke="#7F7F7F" stroke-width="1" /><polyline fill="none" opacity="100" points="545.0,477.0 545.0,430.0" stroke="#7F7F7F" stroke-width="1" /><polyline fill="none" opacity="100" points="541.0,477.0 541.0,430.0" stroke="#7F7F7F" stroke-width="1" /><polyline fill="none" opacity="100" points="537.0,477.0 537.0,430.0" stroke="#7F7F7F" stroke-width="1" /><polygon fill="#9B5509" opacity="100" points="588.0,430.0 531.0,430.0 531.0,427.0 588.0,427.0" stroke="#000" stroke-width="1" /><polygon fill="#9B5509" opacity="100" points="588.0,438.0 588.0,443.0 531.0,443.0 531.0,438.0" stroke="#000" stroke-width="1" /><polygon fill="#9B5509" opacity="100" points="588.0,451.0 588.0,456.0 531.0,456.0 531.0,451.0" stroke="#000" stroke-width="1" /><polygon fill="#9B5509" opacity="100" points="588.0,464.0 588.0,469.0 531.0,469.0 531.0,464.0" stroke="#000" stroke-width="1" /><polygon fill="#9B5509" opacity="100" points="588.0,477.0 531.0,477.0 531.0,480.0 588.0,480.0" stroke="#000" stroke-width="1" /><polyline fill="none" opacity="100" points="700.0,207.0 685.0,166.0" stroke="#7F7F7F" stroke-width="1" /><polyline fill="none" opacity="100" points="696.2419,208.3698 681.2419,167.3698" stroke="#7F7F7F" stroke-width="1" /><polyline fill="none" opacity="100" points="692.4837,209.7396 677.4837,168.7396" stroke="#7F7F7F" stroke-width="1" /><polyline fill="none" opacity="100" points="688.7256,211.1094 673.7256,170.1094" stroke="#7F7F7F" stroke-width="1" /><polyline fill="none" opacity="100" points="684.9674,212.4792 669.9674,171.4792" stroke="#7F7F7F" stroke-width="1" /><polyline fill="none" opacity="100" points="681.2093,213.849 666.2093,172.849" stroke="#7F7F7F" stroke-width="1" /><polyline fill="none" opacity="100" points="677.4511,215.2188 662.4511,174.2188" stroke="#7F7F7F" stroke-width="1" /><polyline fill="none" opacity="100" points="673.693,216.5885 658.693,175.5885" stroke="#7F7F7F" stroke-width="1" /><polyline fill="none" opacity="100" points="669.9348,217.9583 654.9348,176.9583" stroke="#7F7F7F" stroke-width="1" /><polyline fill="none" opacity="100" points="666.1767,219.3281 651.1767,178.3281" stroke="#7F7F7F" stroke-width="1" /><polyline fill="none" opacity="100" points="662.4185,220.6979 647.4185,179.6979" stroke="#7F7F7F" stroke-width="1" /><polyline fill="none" opacity="100" points="658.6604,222.0677 643.6604,181.0677" stroke="#7F7F7F" stroke-width="1" /><polyline fill="none" opacity="100" points="654.9022,223.4375 639.9022,182.4375" stroke="#7F7F7F" stroke-width="1" /><polyline fill="none" opacity="100" points="651.1441,224.8073 636.1441,183.8073" stroke="#7F7F7F" stroke-width="1" /><polyline fill="none" opacity="100" points="647.3859,226.1771 632.3859,185.1771" stroke="#7F7F7F" stroke-width="1" /><polyline fill="none" opacity="100" points="643.6278,227.5469 628.6278,186.5469" stroke="#7F7F7F" stroke-width="1" /><polyline fill="none" opacity="100" points="639.8696,228.9167 624.8696,187.9167" stroke="#7F7F7F" stroke-width="1" /><polyline fill="none" opacity="100" points="636.1115,230.2865 621.1115,189.2865" stroke="#7F7F7F" stroke-width="1" /><polyline fill="none" opacity="100" points="632.3534,231.6563 617.3534,190.6563" stroke="#7F7F7F" stroke-width="1" /><polyline fill="none" opacity="100" points="628.5952,233.026 613.5952,192.026" stroke="#7F7F7F" stroke-width="1" /><polyline fill="none" opacity="100" points="624.8371,234.3958 609.8371,193.3958" stroke="#7F7F7F" stroke-width="1" /><polyline fill="none" opacity="100" points="621.0789,235.7656 606.0789,194.7656" stroke="#7F7F7F" stroke-width="1" /><polyline fill="none" opacity="100" points="617.3208,237.1354 602.3208,196.1354" stroke="#7F7F7F" stroke-width="1" /><polyline fill="none" opacity="100" points="613.5626,238.5052 598.5626,197.5052" stroke="#7F7F7F" stroke-width="1" /><polyline fill="none" opacity="100" points="609.8045,239.875 594.8045,198.875" stroke="#7F7F7F" stroke-width="1" /><polyline fill="none" opacity="100" points="606.0463,241.2448 591.0463,200.2448" stroke="#7F7F7F" stroke-width="1" /><polyline fill="none" opacity="100" points="602.2882,242.6146 587.2882,201.6146" stroke="#7F7F7F" stroke-width="1" /><polyline fill="none" opacity="100" points="598.53,243.9844 583.53,202.9844" stroke="#7F7F7F" stroke-width="1" /><polyline fill="none" opacity="100" points="594.7719,245.3542 579.7719,204.3542" stroke="#7F7F7F" stroke-width="1" /><polyline fill="none" opacity="100" points="591.0137,246.724 576.0137,205.724" stroke="#7F7F7F" stroke-width="1" /><polyline fill="none" opacity="100" points="587.2556,248.0938 572.2556,207.0938" stroke="#7F7F7F" stroke-width="1" /><polyline fill="none" opacity="100" points="583.4974,249.4636 568.4974,208.4636" stroke="#7F7F7F" stroke-width="1" /><polyline fill="none" opacity="100" points="579.7393,250.8333 564.7393,209.8333" stroke="#7F7F7F" stroke-width="1" /><polyline fill="none" opacity="100" points="575.9811,252.2031 560.9811,211.2031" stroke="#7F7F7F" stroke-width="1" /><polyline fill="none" opacity="100" points="572.223,253.5729 557.223,212.5729" stroke="#7F7F7F" stroke-width="1" /><polyline fill="none" opacity="100" points="568.4648,254.9427 553.4648,213.9427" stroke="#7F7F7F" stroke-width="1" /><polyline fill="none" opacity="100" points="564.7067,256.3125 549.7067,215.3125" stroke="#7F7F7F" stroke-width="1" /><polyline fill="none" opacity="100" points="560.9486,257.6823 545.9486,216.6823" stroke="#7F7F7F" stroke-width="1" /><polyline fill="none" opacity="100" points="557.1904,259.0521 542.1904,218.0521" stroke="#7F7F7F" stroke-width="1" /><polyline fill="none" opacity="100" points="553.4323,260.4219 538.4323,219.4219" stroke="#7F7F7F" stroke-width="1" /><polyline fill="none" opacity="100" points="549.6741,261.7917 534.6741,220.7917" stroke="#7F7F7F" stroke-width="1" /><polyline fill="none" opacity="100" points="545.916,263.1615 530.916,222.1615" stroke="#7F7F7F" stroke-width="1" /><polyline fill="none" opacity="100" points="542.1578,264.5313 527.1578,223.5313" stroke="#7F7F7F" stroke-width="1" /><polyline fill="none" opacity="100" points="538.3997,265.9011 523.3997,224.9011" stroke="#7F7F7F" stroke-width="1" /><polyline fill="none" opacity="100" points="534.6415,267.2708 519.6415,226.2708" stroke="#7F7F7F" stroke-width="1" /><polyline fill="none" opacity="100" points="530.8834,268.6406 515.8834,227.6406" stroke="#7F7F7F" stroke-width="1" /><polyline fill="none" opacity="100" points="527.1252,270.0104 512.1252,229.0104" stroke="#7F7F7F" stroke-width="1" /><polyline fill="none" opacity="100" points="523.3671,271.3802 508.3671,230.3802" stroke="#7F7F7F" stroke-width="1" /><polyline fill="none" opacity="100" points="519.6089,272.75 504.6089,231.75" stroke="#7F7F7F" stroke-width="1" /><polyline fill="none" opacity="100" points="515.8508,274.1198 500.8508,233.1198" stroke="#7F7F7F" stroke-width="1" /><polyline fill="none" opacity="100" points="512.0926,275.4896 497.0926,234.4896" stroke="#7F7F7F" stroke-width="1" /><polyline fill="none" opacity="100" points="508.3345,276.8594 493.3345,235.8594" stroke="#7F7F7F" stroke-width="1" /><polyline fill="none" opacity="100" points="504.5763,278.2292 489.5763,237.2292" stroke="#7F7F7F" stroke-width="1" /><polyline fill="none" opacity="100" points="500.8182,279.599 485.8182,238.599" stroke="#7F7F7F" stroke-width="1" /><polyline fill="none" opacity="100" points="497.0601,280.9688 482.0601,239.9688" stroke="#7F7F7F" stroke-width="1" /><polyline fill="none" opacity="100" points="493.3019,282.3386 478.3019,241.3386" stroke="#7F7F7F" stroke-width="1" /><polyline fill="none" opacity="100" points="489.5438,283.7083 474.5438,242.7083" stroke="#7F7F7F" stroke-width="1" /><polyline fill="none" opacity="100" points="485.7856,285.0781 470.7856,244.0781" stroke="#7F7F7F" stroke-width="1" /><polyline fill="none" opacity="100" points="482.0275,286.4479 467.0275,245.4479" stroke="#7F7F7F" stroke-width="1" /><polyline fill="none" opacity="100" points="478.2693,287.8177 463.2693,246.8177" stroke="#7F7F7F" stroke-width="1" /><polyline fill="none" opacity="100" points="474.5112,289.1875 459.5112,248.1875" stroke="#7F7F7F" stroke-width="1" /><polyline fill="none" opacity="100" points="470.753,290.5573 455.753,249.5573" stroke="#7F7F7F" stroke-width="1" /><polyline fill="none" opacity="100" points="466.9949,291.9271 451.9949,250.9271" stroke="#7F7F7F" stroke-width="1" /><polyline fill="none" opacity="100" points="463.2367,293.2969 448.2367,252.2969" stroke="#7F7F7F" stroke-width="1" /><polyline fill="none" opacity="100" points="459.4786,294.6667 444.4786,253.6667" stroke="#7F7F7F" stroke-width="1" /><polyline fill="none" opacity="100" points="455.7204,296.0365 440.7204,255.0365" stroke="#7F7F7F" stroke-width="1" /><polyline fill="none" opacity="100" points="451.9623,297.4063 436.9623,256.4063" stroke="#7F7F7F" stroke-width="1" /><polyline fill="none" opacity="100" points="448.2041,298.7761 433.2041,257.7761" stroke="#7F7F7F" stroke-width="1" /><polyline fill="none" opacity="100" points="444.446,300.1459 429.446,259.1459" stroke="#7F7F7F" stroke-width="1" /><polyline fill="none" opacity="100" points="440.6878,301.5156 425.6878,260.5156" stroke="#7F7F7F" stroke-width="1" /><polyline fill="none" opacity="100" points="436.9297,302.8854 421.9297,261.8854" stroke="#7F7F7F" stroke-width="1" /><polyline fill="none" opacity="100" points="433.1716,304.2552 418.1716,263.2552" stroke="#7F7F7F" stroke-width="1" /><polyline fill="none" opacity="100" points="429.4134,305.625 414.4134,264.625" stroke="#7F7F7F" stroke-width="1" /><polyline fill="none" opacity="100" points="425.6553,306.9948 410.6553,265.9948" stroke="#7F7F7F" stroke-width="1" /><polyline fill="none" opacity="100" points="421.8971,308.3646 406.8971,267.3646" stroke="#7F7F7F" stroke-width="1" /><polyline fill="none" opacity="100" points="418.139,309.7344 403.139,268.7344" stroke="#7F7F7F" stroke-width="1" /><polyline fill="none" opacity="100" points="414.3808,311.1042 399.3808,270.1042" stroke="#7F7F7F" stroke-width="1" /><polyline fill="none" opacity="100" points="410.6227,312.474 395.6227,271.474" stroke="#7F7F7F" stroke-width="1" /><polyline fill="none" opacity="100" points="406.8645,313.8438 391.8645,272.8438" stroke="#7F7F7F" stroke-width="1" /><polyline fill="none" opacity="100" points="403.1064,315.2136 388.1064,274.2136" stroke="#7F7F7F" stroke-width="1" /><polyline fill="none" opacity="100" points="399.3482,316.5834 384.3482,275.5834" stroke="#7F7F7F" stroke-width="1" /><polyline fill="none" opacity="100" points="395.5901,317.9531 380.5901,276.9531" stroke="#7F7F7F" stroke-width="1" /><polyline fill="none" opacity="100" points="391.8319,319.3229 376.8319,278.3229" stroke="#7F7F7F" stroke-width="1" /><polyline fill="none" opacity="100" points="388.0738,320.6927 373.0738,279.6927" stroke="#7F7F7F" stroke-width="1" /><polyline fill="none" opacity="100" points="384.3156,322.0625 369.3156,281.0625" stroke="#7F7F7F" stroke-width="1" /><polyline fill="none" opacity="100" points="380.5575,323.4323 365.5575,282.4323" stroke="#7F7F7F" stroke-width="1" /><polygon fill="#9B5509" opacity="100" points="693.0,164.0 358.0,286.0 357.0,283.0 692.0,161.0" stroke="#000" stroke-width="1" /><polygon fill="#9B5509" opacity="100" points="695.0,170.0 697.0,175.0 362.0,297.0 360.0,292.0" stroke="#000" stroke-width="1" /><polygon fill="#9B5509" opacity="100" points="699.0,182.0 701.0,187.0 366.0,309.0 364.0,304.0" stroke="#000" stroke-width="1" /><polygon fill="#9B5509" opacity="100" points="703.0,193.0 705.0,198.0 370.0,320.0 368.0,315.0" stroke="#000" stroke-width="1" /><polygon fill="#9B5509" opacity="100" points="707.0,204.0 372.0,326.0 373.0,329.0 708.0,207.0" stroke="#000" stroke-width="1" /><ellipse cx="355.5" cy="347.5" fill="#FFF" opacity="100" rx="2.5" ry="-1.5" stroke="#000" stroke-width="1" /><polyline fill="none" opacity="100" points="330.0,315.0 343.0,310.0 356.0,310.0 365.0,307.0" stroke="#000" stroke-width="0.5" /><polyline fill="none" opacity="100" points="343.0,310.0 331.0,247.0" stroke="#000" stroke-width="0.5" /><polyline fill="none" opacity="100" points="357.0,340.0 360.0,337.0 443.0,307.0" stroke="#000" stroke-width="0.5" /><polyline fill="none" opacity="100" points="351.0,346.0 355.0,342.0" stroke="#090" stroke-width="1" /><polyline fill="none" opacity="100" points="348.1716,343.1716 352.1716,339.1716" stroke="#090" stroke-width="1" /><polyline fill="none" opacity="100" points="345.3431,340.3431 349.3431,336.3431" stroke="#090" stroke-width="1" /><polyline fill="none" opacity="100" points="342.5147,337.5147 346.5147,333.5147" stroke="#090" stroke-width="1" /><polyline fill="none" opacity="100" points="339.6863,334.6863 343.6863,330.6863" stroke="#090" stroke-width="1" /><polyline fill="none" opacity="100" points="336.8579,331.8579 340.8579,327.8579" stroke="#090" stroke-width="1" /><polyline fill="none" opacity="100" points="334.0294,329.0294 338.0294,325.0294" stroke="#090" stroke-width="1" /><polyline fill="none" opacity="100" points="331.201,326.201 335.201,322.201" stroke="#090" stroke-width="1" /><polyline fill="none" opacity="100" points="328.3726,323.3726 332.3726,319.3726" stroke="#090" stroke-width="1" /><polyline fill="none" opacity="100" points="325.5442,320.5442 329.5442,316.5442" stroke="#090" stroke-width="1" /><polyline fill="none" opacity="100" points="356.0,267.0 360.0,263.0" stroke="#F00" stroke-width="1" /><polyline fill="none" opacity="100" points="353.1716,264.1716 357.1716,260.1716" stroke="#F00" stroke-width="1" /><polyline fill="none" opacity="100" points="350.3431,261.3431 354.3431,257.3431" stroke="#F00" stroke-width="1" /><polyline fill="none" opacity="100" points="347.5147,258.5147 351.5147,254.5147" stroke="#F00" stroke-width="1" /><polyline fill="none" opacity="100" points="344.6863,255.6863 348.6863,251.6863" stroke="#F00" stroke-width="1" /><polyline fill="none" opacity="100" points="341.8579,252.8579 345.8579,248.8579" stroke="#F00" stroke-width="1" /><polyline fill="none" opacity="100" points="339.0294,250.0294 343.0294,246.0294" stroke="#F00" stroke-width="1" /><polyline fill="none" opacity="100" points="336.201,247.201 340.201,243.201" stroke="#F00" stroke-width="1" /><polyline fill="none" opacity="100" points="333.3726,244.3726 337.3726,240.3726" stroke="#F00" stroke-width="1" /><polygon fill="#FFF" opacity="100" points="382.0,375.0 382.0,383.0 351.0,383.0 351.0,375.0 366.0,376.0" stroke="#FFF" stroke-width="1" /><polyline fill="none" opacity="100" points="382.0,375.0 382.0,383.0 351.0,383.0 351.0,375.0" stroke="#000" stroke-width="1" /><text fill="#000" font-family="Arial" font-size="8" font-weight="normal" opacity="100" transform="rotate(-0.0 357.0,375.0) translate(0 8)" x="357.0" y="375.0">кассы</text><polyline fill="none" opacity="100" points="360.0,243.0 374.0,229.0" stroke="#F00" stroke-width="1" /><polygon fill="#F00" opacity="100" points="371.0302,234.1439 374.0,229.0 368.8561,231.9698" stroke="#F00" stroke-width="1" /><polyline fill="none" opacity="100" points="471.0,313.0 455.0,328.0" stroke="#090" stroke-width="1" /><polygon fill="#090" opacity="100" points="458.4718,322.411 455.0,328.0 460.8011,324.8957" stroke="#090" stroke-width="1" /><polygon fill="#CCC" opacity="0.8" points="427.0,257.0 436.0,254.0 475.0,292.0 445.0,303.0 446.0,296.0 446.0,291.0 445.0,285.0 443.0,277.0 440.0,272.0 437.0,267.0 433.0,262.0" stroke="#CCC" stroke-width="1" /><polyline fill="none" opacity="1.0" points="307.0,268.0 366.0,209.0 372.0,215.0 385.0,202.0 364.0,181.0 260.0,181.0 194.0,247.0 300.0,353.0 308.0,345.0" stroke="#000" stroke-width="1" /><polyline fill="none" opacity="1.0" points="327.0,364.0 319.0,372.0 420.0,473.0 459.0,434.0 450.0,425.0 484.0,391.0 493.0,400.0 538.0,355.0 497.0,314.0 460.0,351.0 398.0,369.0" stroke="#000" stroke-width="1" /><polyline fill="none" opacity="1.0" points="307.0,268.0 305.1484,271.4297 303.4688,274.8438 301.9614,278.2424 300.625,281.625 299.4565,284.99 298.4609,288.3398 297.6396,291.6753 297.0,295.0 296.5557,298.3208 296.2891,301.6289 296.1885,304.9185 296.25,308.1875 296.4678,311.4331 296.8359,314.6523 297.3506,317.8433 298.0,321.0 298.7666,324.1138 299.6641,327.1914 300.6997,330.2366 301.875,333.25 303.1948,336.2341 304.6562,339.1875 306.2578,342.1094 308.0,345.0" stroke="#000" stroke-width="1" /><polyline fill="none" opacity="1.0" points="327.0,364.0 329.6406,365.6875 332.3125,367.25 335.0159,368.6877 337.75,370.0 340.5134,371.1853 343.3086,372.2461 346.1362,373.1831 349.0,374.0 351.9067,374.7036 354.8477,375.2852 357.8169,375.7388 360.8125,376.0625 363.8315,376.2534 366.8711,376.3086 369.9292,376.2261 373.0,376.0 376.0747,375.6216 379.1602,375.0977 382.26,374.4319 385.375,373.625 388.5076,372.6794 391.6562,371.5938 394.8203,370.3672 398.0,369.0" stroke="#000" stroke-width="1" /><polyline fill="none" opacity="1.0" points="371.0,263.0 374.875,259.9531 378.75,257.3125 382.6294,255.0801 386.5,253.25 390.3354,251.8105 394.1797,250.7812 398.0459,250.168 402.0,250.0 406.165,250.332 410.3828,251.0938 414.5498,252.2427 418.625,253.75 422.5439,255.5659 426.2734,257.7109 429.7842,260.1826 433.0,263.0 435.8174,266.2158 438.2891,269.7266 440.4341,273.4561 442.25,277.375 443.7573,281.4502 444.9062,285.6172 445.668,289.835 446.0,294.0 445.832,297.9541 445.2188,301.8203 444.1895,305.6646 442.75,309.5 440.9199,313.3706 438.6875,317.25 436.0469,321.125 433.0,325.0" stroke="#000" stroke-width="1" /><polyline fill="none" opacity="1.0" points="433.0,325.0 439.0,331.0" stroke="#000" stroke-width="1" /><polyline fill="none" opacity="1.0" points="439.0,331.0 441.3359,328.1094 443.4688,325.1875 445.3984,322.2344 447.125,319.25 448.6484,316.2344 449.9688,313.1875 451.0859,310.1094 452.0,307.0 452.7109,303.8594 453.2188,300.6875 453.5234,297.4844 453.625,294.25 453.5234,290.9844 453.2188,287.6875 452.7109,284.3594 452.0,281.0" stroke="#000" stroke-width="1" /><polyline fill="none" opacity="1.0" points="452.0,281.0 458.0,275.0 421.0,238.0 415.0,244.0" stroke="#000" stroke-width="1" /><polyline fill="none" opacity="1.0" points="415.0,244.0 411.6406,243.2891 408.3125,242.7812 405.0156,242.4766 401.75,242.375 398.5156,242.4766 395.3125,242.7812 392.1406,243.2891 389.0,244.0 385.8906,244.9141 382.8125,246.0312 379.7656,247.3516 376.75,248.875 373.7656,250.6016 370.8125,252.5312 367.8906,254.6641 365.0,257.0" stroke="#000" stroke-width="1" /><polyline fill="none" opacity="1.0" points="371.0,263.0 365.0,257.0" stroke="#000" stroke-width="1" /><polyline fill="none" opacity="1.0" points="414.0,245.0 378.0,209.0" stroke="#000" stroke-width="1" /><polyline fill="none" opacity="1.0" points="416.8284,242.1716 380.8284,206.1716" stroke="#000" stroke-width="1" /><polyline fill="none" opacity="1.0" points="419.6569,239.3431 383.6569,203.3431" stroke="#000" stroke-width="1" /><polyline fill="none" opacity="1.0" points="490.0,321.0 451.0,282.0" stroke="#000" stroke-width="1" /><polyline fill="none" opacity="1.0" points="492.8284,318.1716 453.8284,279.1716" stroke="#000" stroke-width="1" /><polyline fill="none" opacity="1.0" points="495.6569,315.3431 456.6569,276.3431" stroke="#000" stroke-width="1" /><text fill="#00AFAF" font-family="Arial" font-size="15" font-weight="normal" opacity="1.0" transform="rotate(-45.0 154.0,250.0) translate(0 15)" x="154.0" y="250.0">Малая Морская улица</text><text fill="#00AFAF" font-family="Arial" font-size="15" font-weight="normal" opacity="1.0" transform="rotate(45.0 359.0,135.0) translate(0 15)" x="359.0" y="135.0">Кирпичный переулок</text><text fill="#00AFAF" font-family="Arial" font-size="15" font-weight="normal" opacity="1.0" transform="rotate(-0.0 284.0,27.0) translate(0 15)" x="284.0" y="27.0">Невский проспект</text></g></g></svg>