<?xml version="1.0" encoding="utf-8" ?>
<svg baseProfile="tiny" height="530px" version="1.2" width="790px" xmlns="http://www.w3.org/2000/svg" xmlns:ev="http://www.w3.org/2001/xml-events" xmlns:xlink="http://www.w3.org/1999/xlink"><defs /><g><g transform="rotate(-25.0,395.0,265.0)"><polygon fill="#D6083B" opacity="100" points="453.0,358.0 453.0,328.0 3.0,328.0 3.0,358.0" stroke="#000" stroke-width="1" /><polygon fill="#D6083B" opacity="100" points="3.0,248.0 3.0,218.0 453.0,218.0 453.0,248.0" stroke="#000" stroke-width="1" /><text fill="#D6083B" font-family="Arial" font-size="20" font-weight="normal" opacity="100" transform="rotate(-0.0 236.0,357.0) translate(0 20)" x="236.0" y="357.0">Гражданский проспект &gt;&gt;</text><text fill="#D6083B" font-family="Arial" font-size="20" font-weight="normal" opacity="100" transform="rotate(-0.0 11.0,192.0) translate(0 20)" x="11.0" y="192.0">&lt;&lt; Политехническая</text><text fill="#D6083B" font-family="Arial" font-size="25" font-weight="bold" opacity="100" transform="rotate(-0.0 127.0,270.0) translate(0 25)" x="127.0" y="270.0">Академическая</text><polyline fill="none" opacity="100" points="3.0,248.0 3.0,262.0 9.0,262.0 9.0,314.0 3.0,314.0 3.0,328.0" stroke="#000" stroke-width="1" /><polyline fill="none" opacity="100" points="453.0,248.0 453.0,254.0 359.0,254.0 359.0,259.0 407.0,259.0 407.0,262.0" stroke="#000" stroke-width="1" /><polyline fill="none" opacity="100" points="453.0,328.0 453.0,323.0 359.0,323.0 359.0,318.0 407.0,318.0 407.0,315.0" stroke="#000" stroke-width="1" /><polyline fill="none" opacity="100" points="561.0,262.0 572.0,226.0 638.0,160.0 704.0,226.0 704.0,240.0 699.0,240.0" stroke="#000" stroke-width="1" /><polyline fill="none" opacity="100" points="699.0,336.0 704.0,336.0 704.0,350.0 638.0,416.0 572.0,350.0 561.0,315.0" stroke="#000" stroke-width="1" /><polyline fill="none" opacity="100" points="699.0,273.0 704.0,273.0 704.0,301.0 699.0,301.0" stroke="#000" stroke-width="1" /><polyline fill="none" opacity="100" points="704.0,288.0 580.0,288.0" stroke="#000" stroke-width="1" /><polyline fill="none" opacity="100" points="573.0,312.0 573.0,265.0" stroke="#7F7F7F" stroke-width="1" /><polyline fill="none" opacity="100" points="569.0,312.0 569.0,265.0" stroke="#7F7F7F" stroke-width="1" /><polyline fill="none" opacity="100" points="565.0,312.0 565.0,265.0" stroke="#7F7F7F" stroke-width="1" /><polyline fill="none" opacity="100" points="561.0,312.0 561.0,265.0" stroke="#7F7F7F" stroke-width="1" /><polyline fill="none" opacity="100" points="557.0,312.0 557.0,265.0" stroke="#7F7F7F" stroke-width="1" /><polyline fill="none" opacity="100" points="553.0,312.0 553.0,265.0" stroke="#7F7F7F" stroke-width="1" /><polyline fill="none" opacity="100" points="549.0,312.0 549.0,265.0" stroke="#7F7F7F" stroke-width="1" /><polyline fill="none" opacity="100" points="545.0,312.0 545.0,265.0" stroke="#7F7F7F" stroke-width="1" /><polyline fill="none" opacity="100" points="541.0,312.0 541.0,265.0" stroke="#7F7F7F" stroke-width="1" /><polyline fill="none" opacity="100" points="537.0,312.0 537.0,265.0" stroke="#7F7F7F" stroke-width="1" /><polyline fill="none" opacity="100" points="533.0,312.0 533.0,265.0" stroke="#7F7F7F" stroke-width="1" /><polyline fill="none" opacity="100" points="529.0,312.0 529.0,265.0" stroke="#7F7F7F" stroke-width="1" /><polyline fill="none" opacity="100" points="525.0,312.0 525.0,265.0" stroke="#7F7F7F" stroke-width="1" /><polyline fill="none" opacity="100" points="521.0,312.0 521.0,265.0" stroke="#7F7F7F" stroke-width="1" /><polyline fill="none" opacity="100" points="517.0,312.0 517.0,265.0" stroke="#7F7F7F" stroke-width="1" /><polyline fill="none" opacity="100" points="513.0,312.0 513.0,265.0" stroke="#7F7F7F" stroke-width="1" /><polyline fill="none" opacity="100" points="509.0,312.0 509.0,265.0" stroke="#7F7F7F" stroke-width="1" /><polyline fill="none" opacity="100" points="505.0,312.0 505.0,265.0" stroke="#7F7F7F" stroke-width="1" /><polyline fill="none" opacity="100" points="501.0,312.0 501.0,265.0" stroke="#7F7F7F" stroke-width="1" /><polyline fill="none" opacity="100" points="497.0,312.0 497.0,265.0" stroke="#7F7F7F" stroke-width="1" /><polyline fill="none" opacity="100" points="493.0,312.0 493.0,265.0" stroke="#7F7F7F" stroke-width="1" /><polyline fill="none" opacity="100" points="489.0,312.0 489.0,265.0" stroke="#7F7F7F" stroke-width="1" /><polyline fill="none" opacity="100" points="485.0,312.0 485.0,265.0" stroke="#7F7F7F" stroke-width="1" /><polyline fill="none" opacity="100" points="481.0,312.0 481.0,265.0" stroke="#7F7F7F" stroke-width="1" /><polyline fill="none" opacity="100" points="477.0,312.0 477.0,265.0" stroke="#7F7F7F" stroke-width="1" /><polyline fill="none" opacity="100" points="473.0,312.0 473.0,265.0" stroke="#7F7F7F" stroke-width="1" /><polyline fill="none" opacity="100" points="469.0,312.0 469.0,265.0" stroke="#7F7F7F" stroke-width="1" /><polyline fill="none" opacity="100" points="465.0,312.0 465.0,265.0" stroke="#7F7F7F" stroke-width="1" /><polyline fill="none" opacity="100" points="461.0,312.0 461.0,265.0" stroke="#7F7F7F" stroke-width="1" /><polyline fill="none" opacity="100" points="457.0,312.0 457.0,265.0" stroke="#7F7F7F" stroke-width="1" /><polyline fill="none" opacity="100" points="453.0,312.0 453.0,265.0" stroke="#7F7F7F" stroke-width="1" /><polyline fill="none" opacity="100" points="449.0,312.0 449.0,265.0" stroke="#7F7F7F" stroke-width="1" /><polyline fill="none" opacity="100" points="445.0,312.0 445.0,265.0" stroke="#7F7F7F" stroke-width="1" /><polyline fill="none" opacity="100" points="441.0,312.0 441.0,265.0" stroke="#7F7F7F" stroke-width="1" /><polyline fill="none" opacity="100" points="437.0,312.0 437.0,265.0" stroke="#7F7F7F" stroke-width="1" /><polyline fill="none" opacity="100" points="433.0,312.0 433.0,265.0" stroke="#7F7F7F" stroke-width="1" /><polyline fill="none" opacity="100" points="429.0,312.0 429.0,265.0" stroke="#7F7F7F" stroke-width="1" /><polyline fill="none" opacity="100" points="425.0,312.0 425.0,265.0" stroke="#7F7F7F" stroke-width="1" /><polyline fill="none" opacity="100" points="421.0,312.0 421.0,265.0" stroke="#7F7F7F" stroke-width="1" /><polyline fill="none" opacity="100" points="417.0,312.0 417.0,265.0" stroke="#7F7F7F" stroke-width="1" /><polyline fill="none" opacity="100" points="413.0,312.0 413.0,265.0" stroke="#7F7F7F" stroke-width="1" /><polyline fill="none" opacity="100" points="409.0,312.0 409.0,265.0" stroke="#7F7F7F" stroke-width="1" /><polyline fill="none" opacity="100" points="405.0,312.0 405.0,265.0" stroke="#7F7F7F" stroke-width="1" /><polygon fill="#9B5509" opacity="100" points="580.0,265.0 400.0,265.0 400.0,262.0 580.0,262.0" stroke="#000" stroke-width="1" /><polygon fill="#9B5509" opacity="100" points="580.0,273.0 580.0,278.0 400.0,278.0 400.0,273.0" stroke="#000" stroke-width="1" /><polygon fill="#9B5509" opacity="100" points="580.0,286.0 580.0,291.0 400.0,291.0 400.0,286.0" stroke="#000" stroke-width="1" /><polygon fill="#9B5509" opacity="100" points="580.0,299.0 580.0,304.0 400.0,304.0 400.0,299.0" stroke="#000" stroke-width="1" /><polygon fill="#9B5509" opacity="100" points="580.0,312.0 400.0,312.0 400.0,315.0 580.0,315.0" stroke="#000" stroke-width="1" /><polyline fill="none" opacity="100" points="598.0,200.0 602.0,211.0" stroke="#000" stroke-width="0.5" /><polyline fill="none" opacity="100" points="626.0,277.0 630.0,288.0" stroke="#000" stroke-width="0.5" /><polyline fill="none" opacity="100" points="622.0,278.0 630.0,275.0" stroke="#090" stroke-width="1" /><polyline fill="none" opacity="100" points="620.6511,274.2343 628.6511,271.2343" stroke="#090" stroke-width="1" /><polyline fill="none" opacity="100" points="619.3022,270.4686 627.3022,267.4686" stroke="#090" stroke-width="1" /><polyline fill="none" opacity="100" points="617.9533,266.7029 625.9533,263.7029" stroke="#090" stroke-width="1" /><polyline fill="none" opacity="100" points="616.6044,262.9372 624.6044,259.9372" stroke="#090" stroke-width="1" /><polyline fill="none" opacity="100" points="615.2555,259.1715 623.2555,256.1715" stroke="#090" stroke-width="1" /><polyline fill="none" opacity="100" points="613.9066,255.4058 621.9066,252.4058" stroke="#090" stroke-width="1" /><polyline fill="none" opacity="100" points="612.5577,251.6401 620.5577,248.6401" stroke="#090" stroke-width="1" /><polyline fill="none" opacity="100" points="611.2088,247.8744 619.2088,244.8744" stroke="#090" stroke-width="1" /><polyline fill="none" opacity="100" points="609.8599,244.1088 617.8599,241.1088" stroke="#090" stroke-width="1" /><polyline fill="none" opacity="100" points="608.5109,240.3431 616.5109,237.3431" stroke="#090" stroke-width="1" /><polyline fill="none" opacity="100" points="607.162,236.5774 615.162,233.5774" stroke="#090" stroke-width="1" /><polyline fill="none" opacity="100" points="605.8131,232.8117 613.8131,229.8117" stroke="#090" stroke-width="1" /><polyline fill="none" opacity="100" points="604.4642,229.046 612.4642,226.046" stroke="#090" stroke-width="1" /><polyline fill="none" opacity="100" points="603.1153,225.2803 611.1153,222.2803" stroke="#090" stroke-width="1" /><polyline fill="none" opacity="100" points="601.7664,221.5146 609.7664,218.5146" stroke="#090" stroke-width="1" /><polyline fill="none" opacity="100" points="600.4175,217.7489 608.4175,214.7489" stroke="#090" stroke-width="1" /><polyline fill="none" opacity="100" points="599.0686,213.9832 607.0686,210.9832" stroke="#090" stroke-width="1" /><polyline fill="none" opacity="100" points="688.0,318.0 714.0,318.0" stroke="#F00" stroke-width="1" /><polygon fill="#F00" opacity="100" points="706.4658,320.0188 714.0,318.0 706.4658,315.9812" stroke="#F00" stroke-width="1" /><polyline fill="none" opacity="100" points="714.0,256.0 686.0,256.0" stroke="#090" stroke-width="1" /><polygon fill="#090" opacity="100" points="694.1138,253.8259 686.0,256.0 694.1138,258.1741" stroke="#090" stroke-width="1" /><text fill="#00AFAF" font-family="Arial" font-size="15" font-weight="normal" opacity="100" transform="rotate(-45.0 644.0,479.0) translate(0 15)" x="644.0" y="479.0">Гражданский проспект</text><text fill="#00AFAF" font-family="Arial" font-size="15" font-weight="normal" opacity="100" transform="rotate(45.0 685.0,118.0) translate(0 15)" x="685.0" y="118.0">проспект Науки</text></g></g></svg>