<?xml version="1.0" encoding="utf-8" ?>
<svg baseProfile="tiny" height="720px" version="1.2" width="440px" xmlns="http://www.w3.org/2000/svg" xmlns:ev="http://www.w3.org/2001/xml-events" xmlns:xlink="http://www.w3.org/1999/xlink"><defs /><g><g transform="rotate(77.0,220.0,360.0)"><polygon fill="#702785" opacity="100" points="121.0,264.0 121.0,234.0 571.0,234.0 571.0,264.0" stroke="#000" stroke-width="1" /><polygon fill="#702785" opacity="100" points="121.0,344.0 121.0,374.0 571.0,374.0 571.0,344.0" stroke="#000" stroke-width="1" /><text fill="#702785" font-family="Arial" font-size="20" font-weight="normal" opacity="100" transform="rotate(-0.0 122.0,210.0) translate(0 20)" x="122.0" y="210.0">&lt;&lt; Волковская</text><text fill="#702785" font-family="Arial" font-size="20" font-weight="normal" opacity="100" transform="rotate(-0.0 406.0,374.0) translate(0 20)" x="406.0" y="374.0">Международная &gt;&gt;</text><text fill="#702785" font-family="Arial" font-size="25" font-weight="bold" opacity="100" transform="rotate(-0.0 249.0,286.0) translate(0 25)" x="249.0" y="286.0">Бухарестская</text><polyline fill="none" opacity="100" points="571.0,264.0 571.0,278.0 418.0,278.0 418.0,286.0 421.0,286.0 421.0,322.0 418.0,322.0 418.0,330.0 571.0,330.0 571.0,344.0" stroke="#000" stroke-width="1" /><polygon fill="#CCC" opacity="100" points="407.0,278.0 384.0,278.0 384.0,286.0 407.0,286.0" stroke="#000" stroke-width="1" /><polygon fill="#CCC" opacity="100" points="373.0,278.0 350.0,278.0 350.0,286.0 373.0,286.0" stroke="#000" stroke-width="1" /><polygon fill="#CCC" opacity="100" points="339.0,278.0 316.0,278.0 316.0,286.0 339.0,286.0" stroke="#000" stroke-width="1" /><polygon fill="#CCC" opacity="100" points="306.0,278.0 283.0,278.0 283.0,286.0 306.0,286.0" stroke="#000" stroke-width="1" /><polygon fill="#CCC" opacity="100" points="272.0,278.0 249.0,278.0 249.0,286.0 272.0,286.0" stroke="#000" stroke-width="1" /><polygon fill="#CCC" opacity="100" points="407.0,322.0 384.0,322.0 384.0,330.0 407.0,330.0" stroke="#000" stroke-width="1" /><polygon fill="#CCC" opacity="100" points="373.0,322.0 350.0,322.0 350.0,330.0 373.0,330.0" stroke="#000" stroke-width="1" /><polygon fill="#CCC" opacity="100" points="339.0,322.0 316.0,322.0 316.0,330.0 339.0,330.0" stroke="#000" stroke-width="1" /><polygon fill="#CCC" opacity="100" points="306.0,322.0 283.0,322.0 283.0,330.0 306.0,330.0" stroke="#000" stroke-width="1" /><polygon fill="#CCC" opacity="100" points="272.0,322.0 249.0,322.0 249.0,330.0 272.0,330.0" stroke="#000" stroke-width="1" /><polygon fill="#D0D0D0" opacity="100" points="-34.0,324.0 -34.0,280.0 -20.0,280.0 -22.0,285.0 -24.0,290.0 -25.0,296.0 -25.0,302.0 -25.0,307.0 -24.0,313.0 -22.0,319.0 -20.0,324.0" stroke="#D0D0D0" stroke-width="1" /><polygon fill="#FFF" opacity="100" points="-23.0,288.0 -32.0,288.0 -32.0,316.0 -23.0,316.0" stroke="#FFF" stroke-width="1" /><polyline fill="none" opacity="100" points="-23.0,288.0 -32.0,288.0 -32.0,316.0 -23.0,316.0" stroke="#000" stroke-width="1" /><polyline fill="none" opacity="100" points="121.0,264.0 121.0,278.0 236.0,278.0 236.0,286.0 221.0,286.0" stroke="#000" stroke-width="1" /><polyline fill="none" opacity="100" points="121.0,344.0 121.0,330.0 236.0,330.0 236.0,322.0 221.0,322.0" stroke="#000" stroke-width="1" /><polyline fill="none" opacity="100" points="213.0,320.0 213.0,288.0" stroke="#7F7F7F" stroke-width="1" /><polyline fill="none" opacity="100" points="209.0,320.0 209.0,288.0" stroke="#7F7F7F" stroke-width="1" /><polyline fill="none" opacity="100" points="205.0,320.0 205.0,288.0" stroke="#7F7F7F" stroke-width="1" /><polyline fill="none" opacity="100" points="201.0,320.0 201.0,288.0" stroke="#7F7F7F" stroke-width="1" /><polyline fill="none" opacity="100" points="197.0,320.0 197.0,288.0" stroke="#7F7F7F" stroke-width="1" /><polyline fill="none" opacity="100" points="193.0,320.0 193.0,288.0" stroke="#7F7F7F" stroke-width="1" /><polyline fill="none" opacity="100" points="189.0,320.0 189.0,288.0" stroke="#7F7F7F" stroke-width="1" /><polyline fill="none" opacity="100" points="185.0,320.0 185.0,288.0" stroke="#7F7F7F" stroke-width="1" /><polyline fill="none" opacity="100" points="181.0,320.0 181.0,288.0" stroke="#7F7F7F" stroke-width="1" /><polyline fill="none" opacity="100" points="177.0,320.0 177.0,288.0" stroke="#7F7F7F" stroke-width="1" /><polyline fill="none" opacity="100" points="173.0,320.0 173.0,288.0" stroke="#7F7F7F" stroke-width="1" /><polyline fill="none" opacity="100" points="169.0,320.0 169.0,288.0" stroke="#7F7F7F" stroke-width="1" /><polyline fill="none" opacity="100" points="165.0,320.0 165.0,288.0" stroke="#7F7F7F" stroke-width="1" /><polyline fill="none" opacity="100" points="161.0,320.0 161.0,288.0" stroke="#7F7F7F" stroke-width="1" /><polyline fill="none" opacity="100" points="157.0,320.0 157.0,288.0" stroke="#7F7F7F" stroke-width="1" /><polyline fill="none" opacity="100" points="153.0,320.0 153.0,288.0" stroke="#7F7F7F" stroke-width="1" /><polyline fill="none" opacity="100" points="149.0,320.0 149.0,288.0" stroke="#7F7F7F" stroke-width="1" /><polyline fill="none" opacity="100" points="145.0,320.0 145.0,288.0" stroke="#7F7F7F" stroke-width="1" /><polyline fill="none" opacity="100" points="141.0,320.0 141.0,288.0" stroke="#7F7F7F" stroke-width="1" /><polyline fill="none" opacity="100" points="137.0,320.0 137.0,288.0" stroke="#7F7F7F" stroke-width="1" /><polyline fill="none" opacity="100" points="133.0,320.0 133.0,288.0" stroke="#7F7F7F" stroke-width="1" /><polyline fill="none" opacity="100" points="129.0,320.0 129.0,288.0" stroke="#7F7F7F" stroke-width="1" /><polyline fill="none" opacity="100" points="125.0,320.0 125.0,288.0" stroke="#7F7F7F" stroke-width="1" /><polyline fill="none" opacity="100" points="121.0,320.0 121.0,288.0" stroke="#7F7F7F" stroke-width="1" /><polyline fill="none" opacity="100" points="117.0,320.0 117.0,288.0" stroke="#7F7F7F" stroke-width="1" /><polyline fill="none" opacity="100" points="113.0,320.0 113.0,288.0" stroke="#7F7F7F" stroke-width="1" /><polyline fill="none" opacity="100" points="109.0,320.0 109.0,288.0" stroke="#7F7F7F" stroke-width="1" /><polyline fill="none" opacity="100" points="105.0,320.0 105.0,288.0" stroke="#7F7F7F" stroke-width="1" /><polyline fill="none" opacity="100" points="101.0,320.0 101.0,288.0" stroke="#7F7F7F" stroke-width="1" /><polyline fill="none" opacity="100" points="97.0,320.0 97.0,288.0" stroke="#7F7F7F" stroke-width="1" /><polyline fill="none" opacity="100" points="93.0,320.0 93.0,288.0" stroke="#7F7F7F" stroke-width="1" /><polyline fill="none" opacity="100" points="89.0,320.0 89.0,288.0" stroke="#7F7F7F" stroke-width="1" /><polyline fill="none" opacity="100" points="85.0,320.0 85.0,288.0" stroke="#7F7F7F" stroke-width="1" /><polyline fill="none" opacity="100" points="81.0,320.0 81.0,288.0" stroke="#7F7F7F" stroke-width="1" /><polyline fill="none" opacity="100" points="77.0,320.0 77.0,288.0" stroke="#7F7F7F" stroke-width="1" /><polyline fill="none" opacity="100" points="73.0,320.0 73.0,288.0" stroke="#7F7F7F" stroke-width="1" /><polyline fill="none" opacity="100" points="69.0,320.0 69.0,288.0" stroke="#7F7F7F" stroke-width="1" /><polyline fill="none" opacity="100" points="65.0,320.0 65.0,288.0" stroke="#7F7F7F" stroke-width="1" /><polyline fill="none" opacity="100" points="61.0,320.0 61.0,288.0" stroke="#7F7F7F" stroke-width="1" /><polyline fill="none" opacity="100" points="57.0,320.0 57.0,288.0" stroke="#7F7F7F" stroke-width="1" /><polyline fill="none" opacity="100" points="53.0,320.0 53.0,288.0" stroke="#7F7F7F" stroke-width="1" /><polyline fill="none" opacity="100" points="49.0,320.0 49.0,288.0" stroke="#7F7F7F" stroke-width="1" /><polyline fill="none" opacity="100" points="45.0,320.0 45.0,288.0" stroke="#7F7F7F" stroke-width="1" /><polygon fill="#9B5509" opacity="100" points="221.0,289.0 38.0,289.0 38.0,286.0 221.0,286.0" stroke="#000" stroke-width="1" /><polygon fill="#9B5509" opacity="100" points="221.0,294.0 221.0,297.0 38.0,297.0 38.0,294.0" stroke="#000" stroke-width="1" /><polygon fill="#9B5509" opacity="100" points="221.0,302.0 221.0,306.0 38.0,306.0 38.0,302.0" stroke="#000" stroke-width="1" /><polygon fill="#9B5509" opacity="100" points="221.0,311.0 221.0,314.0 38.0,314.0 38.0,311.0" stroke="#000" stroke-width="1" /><polygon fill="#9B5509" opacity="100" points="221.0,319.0 38.0,319.0 38.0,322.0 221.0,322.0" stroke="#000" stroke-width="1" /><polyline fill="none" opacity="100" points="-65.0,258.0 -65.0,253.0 48.0,253.0 48.0,286.0" stroke="#000" stroke-width="1" /><polyline fill="none" opacity="100" points="48.0,322.0 48.0,354.0 9.0,354.0 9.0,389.0" stroke="#000" stroke-width="1" /><polyline fill="none" opacity="100" points="-13.0,389.0 -13.0,354.0 -48.0,354.0 -48.0,349.0" stroke="#000" stroke-width="1" /><polyline fill="none" opacity="100" points="-48.0,329.0 -48.0,324.0 -20.0,324.0" stroke="#000" stroke-width="1" /><polyline fill="none" opacity="100" points="-65.0,275.0 -65.0,280.0 -20.0,280.0" stroke="#000" stroke-width="1" /><polyline fill="none" opacity="100" points="-20.0,324.0 -21.1719,321.25 -22.1875,318.5 -23.0469,315.75 -23.75,313.0 -24.2969,310.25 -24.6875,307.5 -24.9219,304.75 -25.0,302.0 -24.9219,299.25 -24.6875,296.5 -24.2969,293.75 -23.75,291.0 -23.0469,288.25 -22.1875,285.5 -21.1719,282.75 -20.0,280.0" stroke="#000" stroke-width="1" /><polyline fill="none" opacity="100" points="-34.0,324.0 -34.0,280.0" stroke="#000" stroke-width="1" /><text fill="#FFF" font-family="Arial" font-size="10" font-weight="normal" opacity="100" transform="rotate(-90.0 -35.0,314.0) translate(0 10)" x="-35.0" y="314.0">кассы</text><text fill="#FFF" font-family="Arial" font-size="8" font-weight="normal" opacity="100" transform="rotate(-90.0 8.0,384.0) translate(0 8)" x="8.0" y="384.0">полиция</text><polyline fill="none" opacity="100" points="9.0,385.0 18.0,385.0 18.0,354.0" stroke="#000" stroke-width="1" /><polyline fill="none" opacity="100" points="38.0,304.0 15.0,304.0 -9.0,280.0 -20.0,280.0" stroke="#000" stroke-width="0.5" /><polyline fill="none" opacity="100" points="15.0,351.0 21.0,351.0" stroke="#090" stroke-width="1" /><polyline fill="none" opacity="100" points="15.0,347.0 21.0,347.0" stroke="#090" stroke-width="1" /><polyline fill="none" opacity="100" points="15.0,343.0 21.0,343.0" stroke="#090" stroke-width="1" /><polyline fill="none" opacity="100" points="15.0,339.0 21.0,339.0" stroke="#090" stroke-width="1" /><polyline fill="none" opacity="100" points="15.0,335.0 21.0,335.0" stroke="#090" stroke-width="1" /><polyline fill="none" opacity="100" points="15.0,331.0 21.0,331.0" stroke="#090" stroke-width="1" /><polyline fill="none" opacity="100" points="15.0,327.0 21.0,327.0" stroke="#090" stroke-width="1" /><polyline fill="none" opacity="100" points="15.0,323.0 21.0,323.0" stroke="#090" stroke-width="1" /><polyline fill="none" opacity="100" points="15.0,319.0 21.0,319.0" stroke="#090" stroke-width="1" /><polyline fill="none" opacity="100" points="15.0,315.0 21.0,315.0" stroke="#090" stroke-width="1" /><polyline fill="none" opacity="100" points="15.0,311.0 21.0,311.0" stroke="#090" stroke-width="1" /><polyline fill="none" opacity="100" points="15.0,307.0 21.0,307.0" stroke="#090" stroke-width="1" /><polyline fill="none" opacity="100" points="16.0,257.0 22.0,257.0" stroke="#F00" stroke-width="1" /><polyline fill="none" opacity="100" points="15.9131,260.9991 21.9131,260.9991" stroke="#F00" stroke-width="1" /><polyline fill="none" opacity="100" points="15.8261,264.9981 21.8261,264.9981" stroke="#F00" stroke-width="1" /><polyline fill="none" opacity="100" points="15.7392,268.9972 21.7392,268.9972" stroke="#F00" stroke-width="1" /><polyline fill="none" opacity="100" points="15.6523,272.9962 21.6523,272.9962" stroke="#F00" stroke-width="1" /><polyline fill="none" opacity="100" points="15.5653,276.9953 21.5653,276.9953" stroke="#F00" stroke-width="1" /><polyline fill="none" opacity="100" points="15.4784,280.9943 21.4784,280.9943" stroke="#F00" stroke-width="1" /><polyline fill="none" opacity="100" points="15.3914,284.9934 21.3914,284.9934" stroke="#F00" stroke-width="1" /><polyline fill="none" opacity="100" points="15.3045,288.9924 21.3045,288.9924" stroke="#F00" stroke-width="1" /><polyline fill="none" opacity="100" points="15.2176,292.9915 21.2176,292.9915" stroke="#F00" stroke-width="1" /><polyline fill="none" opacity="100" points="15.1306,296.9906 21.1306,296.9906" stroke="#F00" stroke-width="1" /><polyline fill="none" opacity="100" points="15.0437,300.9896 21.0437,300.9896" stroke="#F00" stroke-width="1" /><text fill="#00AFAF" font-family="Arial" font-size="15" font-weight="normal" opacity="100" transform="rotate(-115.0 -91.0,372.0) translate(0 15)" x="-91.0" y="372.0">улица Салова</text><text fill="#00AFAF" font-family="Arial" font-size="15" font-weight="normal" opacity="100" transform="rotate(-10.0 377.0,597.0) translate(0 15)" x="377.0" y="597.0">Бухарестская улица</text><text fill="#000" font-family="Arial" font-size="15" font-weight="normal" opacity="100" transform="rotate(-90.0 -10.0,497.0) translate(0 15)" x="-10.0" y="497.0">ТРК "Континент"</text></g></g></svg>