<?xml version="1.0" encoding="utf-8" ?>
<svg baseProfile="tiny" height="880px" version="1.2" width="470px" xmlns="http://www.w3.org/2000/svg" xmlns:ev="http://www.w3.org/2001/xml-events" xmlns:xlink="http://www.w3.org/1999/xlink"><defs /><g><g transform="rotate(-75.0,235.0,440.0)"><polygon fill="#0078c9" opacity="100" points="670.0,497.0 670.0,527.0 220.0,527.0 220.0,497.0" stroke="#000" stroke-width="1" /><polygon fill="#0078c9" opacity="100" points="670.0,417.0 670.0,387.0 220.0,387.0 220.0,417.0" stroke="#000" stroke-width="1" /><text fill="#0078c9" font-family="Arial" font-size="20" font-weight="normal" opacity="100" transform="rotate(-0.0 542.0,527.0) translate(0 20)" x="542.0" y="527.0">Пионерская &gt;&gt;</text><text fill="#0078c9" font-family="Arial" font-size="20" font-weight="normal" opacity="100" transform="rotate(-0.0 217.0,361.0) translate(0 20)" x="217.0" y="361.0">&lt;&lt; Петроградская</text><text fill="#0078c9" font-family="Arial" font-size="25" font-weight="bold" opacity="100" transform="rotate(-0.0 363.0,440.0) translate(0 25)" x="363.0" y="440.0">Чёрная речка</text><polyline fill="none" opacity="100" points="670.0,417.0 670.0,433.0 603.0,433.0 603.0,443.0 618.0,451.0 635.0,453.0 635.0,460.0 618.0,462.0 603.0,470.0 603.0,480.0 670.0,480.0 670.0,497.0" stroke="#000" stroke-width="1" /><polyline fill="none" opacity="100" points="603.0,475.0 581.0,475.0 570.0,464.0 570.0,449.0 581.0,438.0 603.0,438.0" stroke="#000" stroke-width="0.5" /><polyline fill="none" opacity="100" points="220.0,497.0 220.0,479.0 135.0,479.0 135.0,476.0" stroke="#000" stroke-width="1" /><polyline fill="none" opacity="100" points="220.0,417.0 220.0,433.0 135.0,433.0 135.0,436.0" stroke="#000" stroke-width="1" /><polyline fill="none" opacity="100" points="218.0,479.0 218.0,433.0" stroke="#000" stroke-width="1" /><polyline fill="none" opacity="100" points="214.0,479.0 214.0,433.0" stroke="#000" stroke-width="1" /><polyline fill="none" opacity="100" points="210.0,479.0 210.0,433.0" stroke="#000" stroke-width="1" /><polyline fill="none" opacity="100" points="206.0,479.0 206.0,433.0" stroke="#000" stroke-width="1" /><polyline fill="none" opacity="100" points="202.0,479.0 202.0,433.0" stroke="#000" stroke-width="1" /><polyline fill="none" opacity="100" points="198.0,479.0 198.0,433.0" stroke="#000" stroke-width="1" /><polyline fill="none" opacity="100" points="194.0,479.0 194.0,433.0" stroke="#000" stroke-width="1" /><polyline fill="none" opacity="100" points="190.0,479.0 190.0,433.0" stroke="#000" stroke-width="1" /><polyline fill="none" opacity="100" points="186.0,479.0 186.0,433.0" stroke="#000" stroke-width="1" /><polyline fill="none" opacity="100" points="182.0,479.0 182.0,433.0" stroke="#000" stroke-width="1" /><polyline fill="none" opacity="100" points="178.0,479.0 178.0,433.0" stroke="#000" stroke-width="1" /><polyline fill="none" opacity="100" points="174.0,479.0 174.0,433.0" stroke="#000" stroke-width="1" /><polyline fill="none" opacity="100" points="-31.0,439.0 -31.0,473.0" stroke="#7F7F7F" stroke-width="1" /><polyline fill="none" opacity="100" points="-27.0,439.0 -27.0,473.0" stroke="#7F7F7F" stroke-width="1" /><polyline fill="none" opacity="100" points="-23.0,439.0 -23.0,473.0" stroke="#7F7F7F" stroke-width="1" /><polyline fill="none" opacity="100" points="-19.0,439.0 -19.0,473.0" stroke="#7F7F7F" stroke-width="1" /><polyline fill="none" opacity="100" points="-15.0,439.0 -15.0,473.0" stroke="#7F7F7F" stroke-width="1" /><polyline fill="none" opacity="100" points="-11.0,439.0 -11.0,473.0" stroke="#7F7F7F" stroke-width="1" /><polyline fill="none" opacity="100" points="-7.0,439.0 -7.0,473.0" stroke="#7F7F7F" stroke-width="1" /><polyline fill="none" opacity="100" points="-3.0,439.0 -3.0,473.0" stroke="#7F7F7F" stroke-width="1" /><polyline fill="none" opacity="100" points="1.0,439.0 1.0,473.0" stroke="#7F7F7F" stroke-width="1" /><polyline fill="none" opacity="100" points="5.0,439.0 5.0,473.0" stroke="#7F7F7F" stroke-width="1" /><polyline fill="none" opacity="100" points="9.0,439.0 9.0,473.0" stroke="#7F7F7F" stroke-width="1" /><polyline fill="none" opacity="100" points="13.0,439.0 13.0,473.0" stroke="#7F7F7F" stroke-width="1" /><polyline fill="none" opacity="100" points="17.0,439.0 17.0,473.0" stroke="#7F7F7F" stroke-width="1" /><polyline fill="none" opacity="100" points="21.0,439.0 21.0,473.0" stroke="#7F7F7F" stroke-width="1" /><polyline fill="none" opacity="100" points="25.0,439.0 25.0,473.0" stroke="#7F7F7F" stroke-width="1" /><polyline fill="none" opacity="100" points="29.0,439.0 29.0,473.0" stroke="#7F7F7F" stroke-width="1" /><polyline fill="none" opacity="100" points="33.0,439.0 33.0,473.0" stroke="#7F7F7F" stroke-width="1" /><polyline fill="none" opacity="100" points="37.0,439.0 37.0,473.0" stroke="#7F7F7F" stroke-width="1" /><polyline fill="none" opacity="100" points="41.0,439.0 41.0,473.0" stroke="#7F7F7F" stroke-width="1" /><polyline fill="none" opacity="100" points="45.0,439.0 45.0,473.0" stroke="#7F7F7F" stroke-width="1" /><polyline fill="none" opacity="100" points="49.0,439.0 49.0,473.0" stroke="#7F7F7F" stroke-width="1" /><polyline fill="none" opacity="100" points="53.0,439.0 53.0,473.0" stroke="#7F7F7F" stroke-width="1" /><polyline fill="none" opacity="100" points="57.0,439.0 57.0,473.0" stroke="#7F7F7F" stroke-width="1" /><polyline fill="none" opacity="100" points="61.0,439.0 61.0,473.0" stroke="#7F7F7F" stroke-width="1" /><polyline fill="none" opacity="100" points="65.0,439.0 65.0,473.0" stroke="#7F7F7F" stroke-width="1" /><polyline fill="none" opacity="100" points="69.0,439.0 69.0,473.0" stroke="#7F7F7F" stroke-width="1" /><polyline fill="none" opacity="100" points="73.0,439.0 73.0,473.0" stroke="#7F7F7F" stroke-width="1" /><polyline fill="none" opacity="100" points="77.0,439.0 77.0,473.0" stroke="#7F7F7F" stroke-width="1" /><polyline fill="none" opacity="100" points="81.0,439.0 81.0,473.0" stroke="#7F7F7F" stroke-width="1" /><polyline fill="none" opacity="100" points="85.0,439.0 85.0,473.0" stroke="#7F7F7F" stroke-width="1" /><polyline fill="none" opacity="100" points="89.0,439.0 89.0,473.0" stroke="#7F7F7F" stroke-width="1" /><polyline fill="none" opacity="100" points="93.0,439.0 93.0,473.0" stroke="#7F7F7F" stroke-width="1" /><polyline fill="none" opacity="100" points="97.0,439.0 97.0,473.0" stroke="#7F7F7F" stroke-width="1" /><polyline fill="none" opacity="100" points="101.0,439.0 101.0,473.0" stroke="#7F7F7F" stroke-width="1" /><polyline fill="none" opacity="100" points="105.0,439.0 105.0,473.0" stroke="#7F7F7F" stroke-width="1" /><polyline fill="none" opacity="100" points="109.0,439.0 109.0,473.0" stroke="#7F7F7F" stroke-width="1" /><polyline fill="none" opacity="100" points="113.0,439.0 113.0,473.0" stroke="#7F7F7F" stroke-width="1" /><polyline fill="none" opacity="100" points="117.0,439.0 117.0,473.0" stroke="#7F7F7F" stroke-width="1" /><polyline fill="none" opacity="100" points="121.0,439.0 121.0,473.0" stroke="#7F7F7F" stroke-width="1" /><polyline fill="none" opacity="100" points="125.0,439.0 125.0,473.0" stroke="#7F7F7F" stroke-width="1" /><polyline fill="none" opacity="100" points="129.0,439.0 129.0,473.0" stroke="#7F7F7F" stroke-width="1" /><polyline fill="none" opacity="100" points="133.0,439.0 133.0,473.0" stroke="#7F7F7F" stroke-width="1" /><polyline fill="none" opacity="100" points="137.0,439.0 137.0,473.0" stroke="#7F7F7F" stroke-width="1" /><polygon fill="#9B5509" opacity="100" points="-38.0,473.0 142.0,473.0 142.0,476.0 -38.0,476.0" stroke="#000" stroke-width="1" /><polygon fill="#9B5509" opacity="100" points="-38.0,465.0 -38.0,460.0 142.0,460.0 142.0,465.0" stroke="#000" stroke-width="1" /><polygon fill="#9B5509" opacity="100" points="-38.0,452.0 -38.0,447.0 142.0,447.0 142.0,452.0" stroke="#000" stroke-width="1" /><polygon fill="#9B5509" opacity="100" points="-38.0,439.0 142.0,439.0 142.0,436.0 -38.0,436.0" stroke="#000" stroke-width="1" /><polygon fill="#FFF" opacity="0.8" points="90.0,477.0 90.0,435.0 43.0,435.0 43.0,477.0" stroke="#FFF" stroke-width="1" /><polyline fill="none" opacity="1.0" points="-1.0,380.0 -5.0,380.0 -5.0,404.0 12.0,404.0 43.0,435.0 43.0,477.0 12.0,508.0 -74.0,508.0 -74.0,514.0" stroke="#000" stroke-width="1" /><polyline fill="none" opacity="1.0" points="-101.0,514.0 -101.0,508.0 -109.0,508.0 -112.0,505.0 -119.0,512.0" stroke="#000" stroke-width="1" /><polyline fill="none" opacity="1.0" points="8.0,584.0 -7.0,569.0 -179.0,569.0" stroke="#000" stroke-width="1" /><polyline fill="none" opacity="1.0" points="-179.0,469.0 -144.0,469.0 -144.0,487.0 -136.0,495.0 -129.0,488.0 -132.0,485.0 -132.0,357.0 -106.0,331.0 -5.0,331.0 -5.0,348.0 5.0,348.0 29.0,324.0 29.0,306.0" stroke="#000" stroke-width="1" /><polyline fill="none" opacity="1.0" points="29.0,306.0 27.5938,305.125 26.375,304.25 25.3438,303.375 24.5,302.5 23.8438,301.625 23.375,300.75 23.0938,299.875 23.0,299.0 23.0938,298.125 23.375,297.25 23.8438,296.375 24.5,295.5 25.3438,294.625 26.375,293.75 27.5938,292.875 29.0,292.0" stroke="#000" stroke-width="1" /><polyline fill="none" opacity="1.0" points="29.0,292.0 29.0,270.0" stroke="#000" stroke-width="1" /><polyline fill="none" opacity="1.0" points="63.0,270.0 63.0,292.0" stroke="#000" stroke-width="1" /><polyline fill="none" opacity="1.0" points="63.0,292.0 64.4062,292.875 65.625,293.75 66.6562,294.625 67.5,295.5 68.1562,296.375 68.625,297.25 68.9062,298.125 69.0,299.0 68.9062,299.875 68.625,300.75 68.1562,301.625 67.5,302.5 66.6562,303.375 65.625,304.25 64.4062,305.125 63.0,306.0" stroke="#000" stroke-width="1" /><polyline fill="none" opacity="1.0" points="63.0,306.0 63.0,324.0 91.0,324.0" stroke="#000" stroke-width="1" /><polyline fill="none" opacity="1.0" points="-177.0,569.0 -177.0,469.0" stroke="#000" stroke-width="1" /><polyline fill="none" opacity="1.0" points="-173.0,569.0 -173.0,469.0" stroke="#000" stroke-width="1" /><polyline fill="none" opacity="1.0" points="-169.0,569.0 -169.0,469.0" stroke="#000" stroke-width="1" /><polyline fill="none" opacity="1.0" points="-165.0,569.0 -165.0,469.0" stroke="#000" stroke-width="1" /><polyline fill="none" opacity="1.0" points="29.0,274.0 63.0,274.0" stroke="#000" stroke-width="1" /><polyline fill="none" opacity="1.0" points="29.0,278.0 63.0,278.0" stroke="#000" stroke-width="1" /><polyline fill="none" opacity="1.0" points="29.0,282.0 63.0,282.0" stroke="#000" stroke-width="1" /><polyline fill="none" opacity="1.0" points="29.0,286.0 63.0,286.0" stroke="#000" stroke-width="1" /><polyline fill="none" opacity="1.0" points="6.0,582.0 88.0,500.0 88.0,324.0" stroke="#000" stroke-width="1" /><polyline fill="none" opacity="1.0" points="3.0,579.0 84.0,498.0 84.0,324.0" stroke="#000" stroke-width="1" /><polyline fill="none" opacity="1.0" points="0.0,576.0 80.0,496.0 80.0,324.0" stroke="#000" stroke-width="1" /><polyline fill="none" opacity="1.0" points="-3.0,573.0 76.0,494.0 76.0,324.0" stroke="#000" stroke-width="1" /><polyline fill="none" opacity="1.0" points="-6.0,570.0 72.0,492.0 72.0,324.0" stroke="#000" stroke-width="1" /><polyline fill="none" opacity="1.0" points="-5.0,397.0 -54.0,397.0" stroke="#000" stroke-width="0.5" /><polyline fill="none" opacity="1.0" points="-110.0,397.0 -120.0,397.0 -120.0,414.0 -92.0,460.0 -38.0,460.0" stroke="#000" stroke-width="0.5" /><polyline fill="none" opacity="1.0" points="-110.0,400.0 -110.0,394.0" stroke="#090" stroke-width="1" /><polyline fill="none" opacity="1.0" points="-106.0,400.0 -106.0,394.0" stroke="#090" stroke-width="1" /><polyline fill="none" opacity="1.0" points="-102.0,400.0 -102.0,394.0" stroke="#090" stroke-width="1" /><polyline fill="none" opacity="1.0" points="-98.0,400.0 -98.0,394.0" stroke="#090" stroke-width="1" /><polyline fill="none" opacity="1.0" points="-94.0,400.0 -94.0,394.0" stroke="#090" stroke-width="1" /><polyline fill="none" opacity="1.0" points="-90.0,400.0 -90.0,394.0" stroke="#090" stroke-width="1" /><polyline fill="none" opacity="1.0" points="-86.0,400.0 -86.0,394.0" stroke="#090" stroke-width="1" /><polyline fill="none" opacity="1.0" points="-82.0,400.0 -82.0,394.0" stroke="#090" stroke-width="1" /><polyline fill="none" opacity="1.0" points="-78.0,400.0 -78.0,394.0" stroke="#090" stroke-width="1" /><polyline fill="none" opacity="1.0" points="-74.0,400.0 -74.0,394.0" stroke="#090" stroke-width="1" /><polyline fill="none" opacity="1.0" points="-70.0,400.0 -70.0,394.0" stroke="#090" stroke-width="1" /><polyline fill="none" opacity="1.0" points="-66.0,400.0 -66.0,394.0" stroke="#090" stroke-width="1" /><polyline fill="none" opacity="1.0" points="-62.0,400.0 -62.0,394.0" stroke="#090" stroke-width="1" /><polyline fill="none" opacity="1.0" points="-58.0,400.0 -58.0,394.0" stroke="#090" stroke-width="1" /><polyline fill="none" opacity="1.0" points="-54.0,400.0 -54.0,394.0" stroke="#090" stroke-width="1" /><polyline fill="none" opacity="1.0" points="-117.0,494.0 -130.0,507.0" stroke="#F00" stroke-width="1" /><polygon fill="#F00" opacity="1.0" points="-127.2423,502.2235 -130.0,507.0 -125.2235,504.2423" stroke="#F00" stroke-width="1" /><polyline fill="none" opacity="1.0" points="-87.0,503.0 -87.0,523.0" stroke="#F00" stroke-width="1" /><polygon fill="#F00" opacity="1.0" points="-88.5529,517.2044 -87.0,523.0 -85.4471,517.2044" stroke="#F00" stroke-width="1" /><polyline fill="none" opacity="1.0" points="12.0,364.0 -17.0,364.0" stroke="#090" stroke-width="1" /><polygon fill="#090" opacity="1.0" points="-8.5964,361.7483 -17.0,364.0 -8.5964,366.2517" stroke="#090" stroke-width="1" /><text fill="#00AFAF" font-family="Arial" font-size="15" font-weight="normal" opacity="1.0" transform="rotate(-360.0 -128.0,652.0) translate(0 15)" x="-128.0" y="652.0">улица Академика Крылова</text></g></g></svg>