<?xml version="1.0" encoding="utf-8" ?>
<svg baseProfile="tiny" height="750px" version="1.2" width="470px" xmlns="http://www.w3.org/2000/svg" xmlns:ev="http://www.w3.org/2001/xml-events" xmlns:xlink="http://www.w3.org/1999/xlink"><defs /><g><g transform="rotate(-90.0,235.0,375.0)"><polygon fill="#702785" opacity="100" points="327.0,414.0 327.0,444.0 -123.0,444.0 -123.0,414.0" stroke="#000" stroke-width="1" /><polygon fill="#702785" opacity="100" points="327.0,334.0 327.0,304.0 -123.0,304.0 -123.0,334.0" stroke="#000" stroke-width="1" /><text fill="#702785" font-family="Arial" font-size="20" font-weight="normal" opacity="100" transform="rotate(-0.0 -122.0,279.0) translate(0 20)" x="-122.0" y="279.0">&lt;&lt; Спортивная</text><text fill="#702785" font-family="Arial" font-size="20" font-weight="normal" opacity="100" transform="rotate(-0.0 133.0,444.0) translate(0 20)" x="133.0" y="444.0">Крестовский остров &gt;&gt;</text><text fill="#702785" font-family="Arial" font-size="25" font-weight="bold" opacity="100" transform="rotate(-0.0 62.0,358.0) translate(0 25)" x="62.0" y="358.0">Чкаловская</text><polyline fill="none" opacity="100" points="-123.0,414.0 -123.0,401.0 -60.0,401.0 -60.0,349.0 -123.0,349.0 -123.0,334.0" stroke="#000" stroke-width="1" /><polyline fill="none" opacity="100" points="327.0,414.0 327.0,397.0 361.0,397.0 361.0,394.0" stroke="#000" stroke-width="1" /><polyline fill="none" opacity="100" points="327.0,334.0 327.0,351.0 361.0,351.0 361.0,354.0" stroke="#000" stroke-width="1" /><polyline fill="none" opacity="100" points="467.0,391.0 467.0,357.0" stroke="#7F7F7F" stroke-width="1" /><polyline fill="none" opacity="100" points="463.0,391.0 463.0,357.0" stroke="#7F7F7F" stroke-width="1" /><polyline fill="none" opacity="100" points="459.0,391.0 459.0,357.0" stroke="#7F7F7F" stroke-width="1" /><polyline fill="none" opacity="100" points="455.0,391.0 455.0,357.0" stroke="#7F7F7F" stroke-width="1" /><polyline fill="none" opacity="100" points="451.0,391.0 451.0,357.0" stroke="#7F7F7F" stroke-width="1" /><polyline fill="none" opacity="100" points="447.0,391.0 447.0,357.0" stroke="#7F7F7F" stroke-width="1" /><polyline fill="none" opacity="100" points="443.0,391.0 443.0,357.0" stroke="#7F7F7F" stroke-width="1" /><polyline fill="none" opacity="100" points="439.0,391.0 439.0,357.0" stroke="#7F7F7F" stroke-width="1" /><polyline fill="none" opacity="100" points="435.0,391.0 435.0,357.0" stroke="#7F7F7F" stroke-width="1" /><polyline fill="none" opacity="100" points="431.0,391.0 431.0,357.0" stroke="#7F7F7F" stroke-width="1" /><polyline fill="none" opacity="100" points="427.0,391.0 427.0,357.0" stroke="#7F7F7F" stroke-width="1" /><polyline fill="none" opacity="100" points="423.0,391.0 423.0,357.0" stroke="#7F7F7F" stroke-width="1" /><polyline fill="none" opacity="100" points="419.0,391.0 419.0,357.0" stroke="#7F7F7F" stroke-width="1" /><polyline fill="none" opacity="100" points="415.0,391.0 415.0,357.0" stroke="#7F7F7F" stroke-width="1" /><polyline fill="none" opacity="100" points="411.0,391.0 411.0,357.0" stroke="#7F7F7F" stroke-width="1" /><polyline fill="none" opacity="100" points="407.0,391.0 407.0,357.0" stroke="#7F7F7F" stroke-width="1" /><polyline fill="none" opacity="100" points="403.0,391.0 403.0,357.0" stroke="#7F7F7F" stroke-width="1" /><polyline fill="none" opacity="100" points="399.0,391.0 399.0,357.0" stroke="#7F7F7F" stroke-width="1" /><polyline fill="none" opacity="100" points="395.0,391.0 395.0,357.0" stroke="#7F7F7F" stroke-width="1" /><polyline fill="none" opacity="100" points="391.0,391.0 391.0,357.0" stroke="#7F7F7F" stroke-width="1" /><polyline fill="none" opacity="100" points="387.0,391.0 387.0,357.0" stroke="#7F7F7F" stroke-width="1" /><polyline fill="none" opacity="100" points="383.0,391.0 383.0,357.0" stroke="#7F7F7F" stroke-width="1" /><polyline fill="none" opacity="100" points="379.0,391.0 379.0,357.0" stroke="#7F7F7F" stroke-width="1" /><polyline fill="none" opacity="100" points="375.0,391.0 375.0,357.0" stroke="#7F7F7F" stroke-width="1" /><polyline fill="none" opacity="100" points="371.0,391.0 371.0,357.0" stroke="#7F7F7F" stroke-width="1" /><polyline fill="none" opacity="100" points="367.0,391.0 367.0,357.0" stroke="#7F7F7F" stroke-width="1" /><polyline fill="none" opacity="100" points="363.0,391.0 363.0,357.0" stroke="#7F7F7F" stroke-width="1" /><polyline fill="none" opacity="100" points="359.0,391.0 359.0,357.0" stroke="#7F7F7F" stroke-width="1" /><polygon fill="#9B5509" opacity="100" points="474.0,357.0 353.0,357.0 353.0,354.0 474.0,354.0" stroke="#000" stroke-width="1" /><polygon fill="#9B5509" opacity="100" points="474.0,365.0 474.0,370.0 353.0,370.0 353.0,365.0" stroke="#000" stroke-width="1" /><polygon fill="#9B5509" opacity="100" points="474.0,378.0 474.0,383.0 353.0,383.0 353.0,378.0" stroke="#000" stroke-width="1" /><polygon fill="#9B5509" opacity="100" points="474.0,391.0 353.0,391.0 353.0,394.0 474.0,394.0" stroke="#000" stroke-width="1" /><polygon fill="#CCC" opacity="100" points="399.0,351.0 481.0,269.0 510.0,298.0 457.0,351.0" stroke="#000" stroke-width="1" /><polygon fill="#CCC" opacity="100" points="399.0,397.0 457.0,397.0 510.0,450.0 481.0,479.0" stroke="#000" stroke-width="1" /><polyline fill="none" opacity="100" points="520.0,312.0 522.0,310.0 510.0,298.0" stroke="#000" stroke-width="1" /><polyline fill="none" opacity="100" points="399.0,351.0 399.0,397.0" stroke="#000" stroke-width="1" /><polyline fill="none" opacity="100" points="510.0,450.0 523.0,437.0 521.0,435.0" stroke="#000" stroke-width="1" /><polyline fill="none" opacity="100" points="537.0,329.0 539.0,327.0 552.0,340.0 552.0,407.0 538.0,421.0 536.0,419.0" stroke="#000" stroke-width="1" /><polyline fill="none" opacity="100" points="493.0,490.0 521.0,462.0 533.0,474.0" stroke="#000" stroke-width="1" /><polyline fill="none" opacity="100" points="481.0,269.0 505.0,245.0 534.0,274.0 515.0,293.0" stroke="#000" stroke-width="1" /><polyline fill="none" opacity="100" points="514.0,278.0 502.0,290.0" stroke="#000" stroke-width="1" /><polyline fill="none" opacity="100" points="508.0,438.0 493.0,423.0" stroke="#000" stroke-width="1" /><polyline fill="none" opacity="100" points="520.0,440.0 501.0,421.0" stroke="#000" stroke-width="1" /><polyline fill="none" opacity="100" points="517.0,389.0 522.0,384.0 522.0,363.0 517.0,358.0" stroke="#000" stroke-width="1" /><polyline fill="none" opacity="100" points="494.0,412.0 483.0,423.0" stroke="#000" stroke-width="1" /><polyline fill="none" opacity="100" points="522.0,380.0 474.0,380.0" stroke="#000" stroke-width="1" /><polyline fill="none" opacity="100" points="494.0,335.0 489.0,330.0 474.0,345.0" stroke="#000" stroke-width="1" /><polyline fill="none" opacity="100" points="520.0,288.0 512.0,280.0" stroke="#000" stroke-width="1" /><polyline fill="none" opacity="100" points="517.1716,290.8284 509.1716,282.8284" stroke="#000" stroke-width="1" /><polyline fill="none" opacity="100" points="502.0,422.0 497.0,427.0" stroke="#000" stroke-width="1" /><polyline fill="none" opacity="100" points="504.8284,424.8284 499.8284,429.8284" stroke="#000" stroke-width="1" /><polyline fill="none" opacity="100" points="507.6569,427.6569 502.6569,432.6569" stroke="#000" stroke-width="1" /><polyline fill="none" opacity="100" points="510.4853,430.4853 505.4853,435.4853" stroke="#000" stroke-width="1" /><polyline fill="none" opacity="100" points="497.0,427.0 492.0,432.0" stroke="#000" stroke-width="1" /><polyline fill="none" opacity="100" points="499.8284,429.8284 494.8284,434.8284" stroke="#000" stroke-width="1" /><polyline fill="none" opacity="100" points="502.6569,432.6569 497.6569,437.6569" stroke="#000" stroke-width="1" /><polyline fill="none" opacity="100" points="505.4853,435.4853 500.4853,440.4853" stroke="#000" stroke-width="1" /><polyline fill="none" opacity="100" points="521.0,287.0 568.0,334.0 568.0,415.0 521.0,462.0" stroke="#000" stroke-width="1" /><polyline fill="none" opacity="100" points="523.0,285.0 571.0,333.0 571.0,416.0 523.0,464.0" stroke="#000" stroke-width="1" /><polyline fill="none" opacity="100" points="525.0,283.0 574.0,332.0 574.0,417.0 525.0,466.0" stroke="#000" stroke-width="1" /><polyline fill="none" opacity="100" points="527.0,281.0 577.0,331.0 577.0,418.0 527.0,468.0" stroke="#000" stroke-width="1" /><polyline fill="none" opacity="100" points="529.0,279.0 580.0,330.0 580.0,419.0 529.0,470.0" stroke="#000" stroke-width="1" /><polyline fill="none" opacity="100" points="531.0,277.0 583.0,329.0 583.0,420.0 531.0,472.0" stroke="#000" stroke-width="1" /><polyline fill="none" opacity="100" points="519.0,356.0 515.0,360.0" stroke="#090" stroke-width="1" /><polyline fill="none" opacity="100" points="516.1716,353.1716 512.1716,357.1716" stroke="#090" stroke-width="1" /><polyline fill="none" opacity="100" points="513.3431,350.3431 509.3431,354.3431" stroke="#090" stroke-width="1" /><polyline fill="none" opacity="100" points="510.5147,347.5147 506.5147,351.5147" stroke="#090" stroke-width="1" /><polyline fill="none" opacity="100" points="507.6863,344.6863 503.6863,348.6863" stroke="#090" stroke-width="1" /><polyline fill="none" opacity="100" points="504.8579,341.8579 500.8579,345.8579" stroke="#090" stroke-width="1" /><polyline fill="none" opacity="100" points="502.0294,339.0294 498.0294,343.0294" stroke="#090" stroke-width="1" /><polyline fill="none" opacity="100" points="499.201,336.201 495.201,340.201" stroke="#090" stroke-width="1" /><polyline fill="none" opacity="100" points="496.3726,333.3726 492.3726,337.3726" stroke="#090" stroke-width="1" /><polyline fill="none" opacity="100" points="519.0,391.0 515.0,387.0" stroke="#F00" stroke-width="1" /><polyline fill="none" opacity="100" points="516.1716,393.8284 512.1716,389.8284" stroke="#F00" stroke-width="1" /><polyline fill="none" opacity="100" points="513.3431,396.6569 509.3431,392.6569" stroke="#F00" stroke-width="1" /><polyline fill="none" opacity="100" points="510.5147,399.4853 506.5147,395.4853" stroke="#F00" stroke-width="1" /><polyline fill="none" opacity="100" points="507.6863,402.3137 503.6863,398.3137" stroke="#F00" stroke-width="1" /><polyline fill="none" opacity="100" points="504.8579,405.1421 500.8579,401.1421" stroke="#F00" stroke-width="1" /><polyline fill="none" opacity="100" points="502.0294,407.9706 498.0294,403.9706" stroke="#F00" stroke-width="1" /><polyline fill="none" opacity="100" points="499.201,410.799 495.201,406.799" stroke="#F00" stroke-width="1" /><polyline fill="none" opacity="100" points="496.3726,413.6274 492.3726,409.6274" stroke="#F00" stroke-width="1" /><polyline fill="none" opacity="100" points="517.0,415.0 526.0,424.0" stroke="#F00" stroke-width="1" /><polygon fill="#F00" opacity="100" points="522.6932,422.0908 526.0,424.0 524.0908,420.6932" stroke="#F00" stroke-width="1" /><polyline fill="none" opacity="100" points="526.0,323.0 517.0,332.0" stroke="#090" stroke-width="1" /><polygon fill="#090" opacity="100" points="518.9092,328.6932 517.0,332.0 520.3068,330.0908" stroke="#090" stroke-width="1" /><text fill="#00AFAF" font-family="Arial" font-size="15" font-weight="normal" opacity="100" transform="rotate(45.0 500.0,148.0) translate(0 15)" x="500.0" y="148.0">Чкаловский проспект</text><text fill="#00AFAF" font-family="Arial" font-size="15" font-weight="normal" opacity="100" transform="rotate(135.0 599.0,488.0) translate(0 15)" x="599.0" y="488.0">улица Большая Зеленина</text></g></g></svg>