<?xml version="1.0" encoding="utf-8" ?>
<svg baseProfile="tiny" height="650px" version="1.2" width="250px" xmlns="http://www.w3.org/2000/svg" xmlns:ev="http://www.w3.org/2001/xml-events" xmlns:xlink="http://www.w3.org/1999/xlink"><defs /><g><g transform="rotate(-90.0,125.0,325.0)"><polygon fill="none" opacity="100" points="435.0,282.0 435.0,252.0 -15.0,252.0 -15.0,282.0" stroke="#000" stroke-width="1" /><polygon fill="none" opacity="100" points="435.0,392.0 435.0,362.0 -15.0,362.0 -15.0,392.0" stroke="#000" stroke-width="1" /><polygon fill="#0078c9" opacity="100" points="435.0,282.0 435.0,252.0 -15.0,252.0 -15.0,282.0" stroke="#000" stroke-width="1" /><polygon fill="#0078c9" opacity="100" points="435.0,392.0 435.0,362.0 -15.0,362.0 -15.0,392.0" stroke="#000" stroke-width="1" /><text fill="#0078c9" font-family="Arial" font-size="14" font-weight="normal" opacity="100" transform="rotate(-0.0 303.0,392.0) translate(0 14)" x="303.0" y="392.0">Московские ворота &gt;&gt;</text><text fill="#0078c9" font-family="Arial" font-size="14" font-weight="normal" opacity="100" transform="rotate(-0.0 -14.0,235.0) translate(0 14)" x="-14.0" y="235.0">&lt;&lt; Парк Победы</text><text fill="#0078c9" font-family="Arial" font-size="25" font-weight="bold" opacity="100" transform="rotate(-0.0 103.0,308.0) translate(0 25)" x="103.0" y="308.0">Электросила</text><polygon fill="#d0d0d0" opacity="100" points="250.0,292.0 243.0,292.0 243.0,299.0 250.0,299.0" stroke="#000" stroke-width="1" /><polygon fill="#d0d0d0" opacity="100" points="231.0,292.0 224.0,292.0 224.0,299.0 231.0,299.0" stroke="#000" stroke-width="1" /><polygon fill="#d0d0d0" opacity="100" points="212.0,292.0 205.0,292.0 205.0,299.0 212.0,299.0" stroke="#000" stroke-width="1" /><polygon fill="#d0d0d0" opacity="100" points="193.0,292.0 186.0,292.0 186.0,299.0 193.0,299.0" stroke="#000" stroke-width="1" /><polygon fill="#d0d0d0" opacity="100" points="250.0,345.0 243.0,345.0 243.0,352.0 250.0,352.0" stroke="#000" stroke-width="1" /><polygon fill="#d0d0d0" opacity="100" points="231.0,345.0 224.0,345.0 224.0,352.0 231.0,352.0" stroke="#000" stroke-width="1" /><polygon fill="#d0d0d0" opacity="100" points="212.0,345.0 205.0,345.0 205.0,352.0 212.0,352.0" stroke="#000" stroke-width="1" /><polygon fill="#d0d0d0" opacity="100" points="193.0,345.0 186.0,345.0 186.0,352.0 193.0,352.0" stroke="#000" stroke-width="1" /><polyline fill="none" opacity="100" points="435.0,282.0 435.0,290.0 270.0,290.0 270.0,292.0 262.0,292.0 262.0,299.0 268.0,299.0 268.0,345.0 262.0,345.0 262.0,352.0 270.0,352.0 270.0,354.0 435.0,354.0 435.0,362.0" stroke="#000" stroke-width="1" /><polyline fill="none" opacity="100" points="-15.0,362.0 -15.0,354.0 163.0,354.0 163.0,352.0 174.0,352.0 174.0,345.0 163.0,345.0 163.0,340.0 157.0,340.0 157.0,345.0 75.0,345.0 75.0,342.0" stroke="#000" stroke-width="1" /><polyline fill="none" opacity="100" points="-15.0,282.0 -15.0,290.0 163.0,290.0 163.0,292.0 174.0,292.0 174.0,299.0 163.0,299.0 163.0,304.0 157.0,304.0 157.0,299.0 76.0,299.0 76.0,302.0" stroke="#000" stroke-width="1" /><polyline fill="none" opacity="100" points="78.0,339.0 78.0,305.0" stroke="#7F7F7F" stroke-width="1" /><polyline fill="none" opacity="100" points="74.0,339.0 74.0,305.0" stroke="#7F7F7F" stroke-width="1" /><polyline fill="none" opacity="100" points="70.0,339.0 70.0,305.0" stroke="#7F7F7F" stroke-width="1" /><polyline fill="none" opacity="100" points="66.0,339.0 66.0,305.0" stroke="#7F7F7F" stroke-width="1" /><polyline fill="none" opacity="100" points="62.0,339.0 62.0,305.0" stroke="#7F7F7F" stroke-width="1" /><polyline fill="none" opacity="100" points="58.0,339.0 58.0,305.0" stroke="#7F7F7F" stroke-width="1" /><polyline fill="none" opacity="100" points="54.0,339.0 54.0,305.0" stroke="#7F7F7F" stroke-width="1" /><polyline fill="none" opacity="100" points="50.0,339.0 50.0,305.0" stroke="#7F7F7F" stroke-width="1" /><polyline fill="none" opacity="100" points="46.0,339.0 46.0,305.0" stroke="#7F7F7F" stroke-width="1" /><polyline fill="none" opacity="100" points="42.0,339.0 42.0,305.0" stroke="#7F7F7F" stroke-width="1" /><polyline fill="none" opacity="100" points="38.0,339.0 38.0,305.0" stroke="#7F7F7F" stroke-width="1" /><polyline fill="none" opacity="100" points="34.0,339.0 34.0,305.0" stroke="#7F7F7F" stroke-width="1" /><polyline fill="none" opacity="100" points="30.0,339.0 30.0,305.0" stroke="#7F7F7F" stroke-width="1" /><polyline fill="none" opacity="100" points="26.0,339.0 26.0,305.0" stroke="#7F7F7F" stroke-width="1" /><polyline fill="none" opacity="100" points="22.0,339.0 22.0,305.0" stroke="#7F7F7F" stroke-width="1" /><polyline fill="none" opacity="100" points="18.0,339.0 18.0,305.0" stroke="#7F7F7F" stroke-width="1" /><polyline fill="none" opacity="100" points="14.0,339.0 14.0,305.0" stroke="#7F7F7F" stroke-width="1" /><polyline fill="none" opacity="100" points="10.0,339.0 10.0,305.0" stroke="#7F7F7F" stroke-width="1" /><polyline fill="none" opacity="100" points="6.0,339.0 6.0,305.0" stroke="#7F7F7F" stroke-width="1" /><polyline fill="none" opacity="100" points="2.0,339.0 2.0,305.0" stroke="#7F7F7F" stroke-width="1" /><polyline fill="none" opacity="100" points="-2.0,339.0 -2.0,305.0" stroke="#7F7F7F" stroke-width="1" /><polyline fill="none" opacity="100" points="-6.0,339.0 -6.0,305.0" stroke="#7F7F7F" stroke-width="1" /><polyline fill="none" opacity="100" points="-10.0,339.0 -10.0,305.0" stroke="#7F7F7F" stroke-width="1" /><polyline fill="none" opacity="100" points="-14.0,339.0 -14.0,305.0" stroke="#7F7F7F" stroke-width="1" /><polyline fill="none" opacity="100" points="-18.0,339.0 -18.0,305.0" stroke="#7F7F7F" stroke-width="1" /><polyline fill="none" opacity="100" points="-22.0,339.0 -22.0,305.0" stroke="#7F7F7F" stroke-width="1" /><polyline fill="none" opacity="100" points="-26.0,339.0 -26.0,305.0" stroke="#7F7F7F" stroke-width="1" /><polyline fill="none" opacity="100" points="-30.0,339.0 -30.0,305.0" stroke="#7F7F7F" stroke-width="1" /><polyline fill="none" opacity="100" points="-34.0,339.0 -34.0,305.0" stroke="#7F7F7F" stroke-width="1" /><polyline fill="none" opacity="100" points="-38.0,339.0 -38.0,305.0" stroke="#7F7F7F" stroke-width="1" /><polyline fill="none" opacity="100" points="-42.0,339.0 -42.0,305.0" stroke="#7F7F7F" stroke-width="1" /><polyline fill="none" opacity="100" points="-46.0,339.0 -46.0,305.0" stroke="#7F7F7F" stroke-width="1" /><polyline fill="none" opacity="100" points="-50.0,339.0 -50.0,305.0" stroke="#7F7F7F" stroke-width="1" /><polyline fill="none" opacity="100" points="-54.0,339.0 -54.0,305.0" stroke="#7F7F7F" stroke-width="1" /><polyline fill="none" opacity="100" points="-58.0,339.0 -58.0,305.0" stroke="#7F7F7F" stroke-width="1" /><polyline fill="none" opacity="100" points="-62.0,339.0 -62.0,305.0" stroke="#7F7F7F" stroke-width="1" /><polyline fill="none" opacity="100" points="-66.0,339.0 -66.0,305.0" stroke="#7F7F7F" stroke-width="1" /><polyline fill="none" opacity="100" points="-70.0,339.0 -70.0,305.0" stroke="#7F7F7F" stroke-width="1" /><polyline fill="none" opacity="100" points="-74.0,339.0 -74.0,305.0" stroke="#7F7F7F" stroke-width="1" /><polygon fill="#9B5509" opacity="100" points="85.0,305.0 -80.0,305.0 -80.0,302.0 85.0,302.0" stroke="#000" stroke-width="1" /><polygon fill="#9B5509" opacity="100" points="85.0,313.0 85.0,318.0 -80.0,318.0 -80.0,313.0" stroke="#000" stroke-width="1" /><polygon fill="#9B5509" opacity="100" points="85.0,326.0 85.0,331.0 -80.0,331.0 -80.0,326.0" stroke="#000" stroke-width="1" /><polygon fill="#9B5509" opacity="100" points="85.0,339.0 -80.0,339.0 -80.0,342.0 85.0,342.0" stroke="#000" stroke-width="1" /><polygon fill="#CCC" opacity="100" points="-111.0,380.0 -107.0,387.0 -110.0,391.0 -108.0,397.0 -111.0,403.0 -121.0,403.0 -125.0,397.0 -123.0,391.0 -127.0,387.0 -123.0,381.0 -123.0,381.0 -123.0,381.0" stroke="#000" stroke-width="1" /><polyline fill="none" opacity="100" points="-67.0,342.0 -68.0156,344.2734 -69.0625,346.4688 -70.1411,348.5859 -71.25,350.625 -72.3862,352.5859 -73.5547,354.4688 -74.7568,356.2734 -76.0,358.0 -77.2979,359.6484 -78.6328,361.2188 -79.9932,362.7109 -81.375,364.125 -82.7725,365.4609 -84.1797,366.7188 -85.5928,367.8984 -87.0,369.0 -88.3838,370.0234 -89.7578,370.9688 -91.1294,371.8359 -92.5,372.625 -93.8745,373.3359 -95.25,373.9688 -96.625,374.5234 -98.0,375.0" stroke="#000" stroke-width="1" /><polyline fill="none" opacity="100" points="-106.0,378.0 -107.2656,378.5391 -108.5625,379.0312 -109.8906,379.4766 -111.25,379.875 -112.6406,380.2266 -114.0625,380.5312 -115.5156,380.7891 -117.0,381.0 -118.5156,381.1641 -120.0625,381.2812 -121.6406,381.3516 -123.25,381.375 -124.8906,381.3516 -126.5625,381.2812 -128.2656,381.1641 -130.0,381.0" stroke="#000" stroke-width="1" /><polyline fill="none" opacity="100" points="-142.0,378.0 -144.5938,377.0625 -147.125,376.0 -149.595,374.8113 -152.0,373.5 -154.3328,372.0735 -156.6055,370.5195 -158.8218,368.8345 -161.0,367.0 -163.1743,364.9819 -165.3008,362.8242 -167.3501,360.5557 -169.3125,358.1875 -171.1733,355.7373 -172.918,353.2148 -174.5366,350.6284 -176.0,348.0 -177.2642,345.3599 -178.3633,342.6914 -179.3154,339.9868 -180.125,337.25 -180.8057,334.4819 -181.3477,331.6836 -181.7466,328.8589 -182.0,326.0 -182.1011,323.0903 -182.0586,320.1602 -181.8777,317.231 -181.5625,314.3125 -181.1204,311.4175 -180.5469,308.5586 -179.8418,305.7456 -179.0,303.0 -178.0098,300.3521 -176.8906,297.7852 -175.656,295.2927 -174.3125,292.875 -172.8694,290.5256 -171.332,288.2578 -169.7056,286.0791 -168.0,284.0 -166.228,282.0381 -164.3867,280.1797 -162.4766,278.4172 -160.5,276.75 -158.457,275.1746 -156.3555,273.6914 -154.2007,272.3013 -152.0,271.0 -149.7642,269.7808 -147.4883,268.6523 -145.1694,267.6208 -142.8125,266.6875 -140.4243,265.8538 -137.9961,265.125 -135.5269,264.5039 -133.0,264.0 -130.3833,263.6289 -127.7227,263.375 -125.0503,263.2285 -122.375,263.1875 -119.7075,263.248 -117.0742,263.4062 -114.4897,263.6602 -112.0,264.0 -109.6782,264.4102 -107.457,264.9062 -105.2961,265.498 -103.1875,266.1875 -101.1121,266.9785 -99.0625,267.875 -97.0352,268.8789 -95.0,270.0 -92.9102,271.2539 -90.8125,272.625 -88.7356,274.1038 -86.6875,275.6875 -84.6843,277.3708 -82.7305,279.1523 -80.8296,281.0308 -79.0,283.0 -77.2681,285.0513 -75.6133,287.1914 -74.0247,289.4241 -72.5,291.75 -71.032,294.1716 -69.625,296.6875 -68.2812,299.2969 -67.0,302.0" stroke="#000" stroke-width="1" /><polyline fill="none" opacity="100" points="-94.0,373.0 -94.0,381.0 -88.0,381.0 -88.0,385.0 -82.0,385.0 -77.0,390.0 -77.0,403.0 -88.0,403.0" stroke="#000" stroke-width="1" /><polyline fill="none" opacity="100" points="-106.0,403.0 -126.0,403.0" stroke="#000" stroke-width="1" /><polyline fill="none" opacity="100" points="-142.0,403.0 -158.0,403.0 -158.0,388.0 -148.0,388.0 -145.0,377.0" stroke="#000" stroke-width="1" /><polyline fill="none" opacity="100" points="-97.0,379.0 -98.0,375.0" stroke="#000" stroke-width="1" /><polyline fill="none" opacity="100" points="-105.0,382.0 -106.0,378.0" stroke="#000" stroke-width="1" /><polyline fill="none" opacity="100" points="-131.0,385.0 -130.0,381.0" stroke="#000" stroke-width="1" /><polyline fill="none" opacity="100" points="-143.0,382.0 -142.0,378.0" stroke="#000" stroke-width="1" /><polyline fill="none" opacity="100" points="-80.0,313.0 -100.0,313.0 -100.0,323.0 -120.0,323.0 -120.0,312.0" stroke="#000" stroke-width="0.5" /><polyline fill="none" opacity="100" points="-120.0,268.0 -120.0,263.0" stroke="#000" stroke-width="0.5" /><polyline fill="none" opacity="100" points="-117.0,312.0 -123.0,312.0" stroke="#090" stroke-width="1" /><polyline fill="none" opacity="100" points="-117.0,308.0 -123.0,308.0" stroke="#090" stroke-width="1" /><polyline fill="none" opacity="100" points="-117.0,304.0 -123.0,304.0" stroke="#090" stroke-width="1" /><polyline fill="none" opacity="100" points="-117.0,300.0 -123.0,300.0" stroke="#090" stroke-width="1" /><polyline fill="none" opacity="100" points="-117.0,296.0 -123.0,296.0" stroke="#090" stroke-width="1" /><polyline fill="none" opacity="100" points="-117.0,292.0 -123.0,292.0" stroke="#090" stroke-width="1" /><polyline fill="none" opacity="100" points="-117.0,288.0 -123.0,288.0" stroke="#090" stroke-width="1" /><polyline fill="none" opacity="100" points="-117.0,284.0 -123.0,284.0" stroke="#090" stroke-width="1" /><polyline fill="none" opacity="100" points="-117.0,280.0 -123.0,280.0" stroke="#090" stroke-width="1" /><polyline fill="none" opacity="100" points="-117.0,276.0 -123.0,276.0" stroke="#090" stroke-width="1" /><polyline fill="none" opacity="100" points="-117.0,272.0 -123.0,272.0" stroke="#090" stroke-width="1" /><polyline fill="none" opacity="100" points="-117.0,268.0 -123.0,268.0" stroke="#090" stroke-width="1" /><polyline fill="none" opacity="100" points="-178.0,300.0 -185.0,293.0" stroke="#000" stroke-width="1" /><polyline fill="none" opacity="100" points="-153.0,260.0 -155.7031,261.2422 -158.3125,262.5938 -160.8281,264.0547 -163.25,265.625 -165.5781,267.3047 -167.8125,269.0938 -169.9531,270.9922 -172.0,273.0 -173.9531,275.1172 -175.8125,277.3438 -177.5781,279.6797 -179.25,282.125 -180.8281,284.6797 -182.3125,287.3438 -183.7031,290.1172 -185.0,293.0" stroke="#000" stroke-width="1" /><polyline fill="none" opacity="100" points="-153.0,260.0 -145.0,268.0" stroke="#000" stroke-width="1" /><text fill="#000" font-family="Arial" font-size="10" font-weight="normal" opacity="100" transform="rotate(135.0 -154.0,273.0) translate(0 10)" x="-154.0" y="273.0">кассы</text><polyline fill="none" opacity="100" points="-137.0,414.0 -137.0,395.0" stroke="#090" stroke-width="1" /><polygon fill="#090" opacity="100" points="-135.5247,400.5058 -137.0,395.0 -138.4753,400.5058" stroke="#090" stroke-width="1" /><polyline fill="none" opacity="100" points="-98.0,394.0 -98.0,414.0" stroke="#F00" stroke-width="1" /><polygon fill="#F00" opacity="100" points="-99.5529,408.2044 -98.0,414.0 -96.4471,408.2044" stroke="#F00" stroke-width="1" /><text fill="#00AFAF" font-family="Arial" font-size="15" font-weight="normal" opacity="100" transform="rotate(-0.0 -164.0,423.0) translate(0 15)" x="-164.0" y="423.0">Московский пр.</text></g></g></svg>