<?xml version="1.0" encoding="utf-8" ?>
<svg baseProfile="tiny" height="720px" version="1.2" width="680px" xmlns="http://www.w3.org/2000/svg" xmlns:ev="http://www.w3.org/2001/xml-events" xmlns:xlink="http://www.w3.org/1999/xlink"><defs /><g><g transform="rotate(50.0,340.0,360.0)"><polygon fill="#009A49" opacity="100" points="-65.0,335.0 -65.0,305.0 385.0,305.0 385.0,335.0" stroke="#000" stroke-width="1" /><polygon fill="#009A49" opacity="100" points="-65.0,415.0 -65.0,445.0 385.0,445.0 385.0,415.0" stroke="#000" stroke-width="1" /><polyline fill="none" opacity="100" points="438.0,356.0 438.0,353.0 385.0,353.0 385.0,338.0 373.0,338.0 373.0,339.0 360.0,339.0 360.0,337.0 355.0,337.0 355.0,339.0 343.0,339.0 343.0,337.0 338.0,337.0 338.0,339.0 326.0,339.0 326.0,337.0 321.0,337.0 321.0,339.0 309.0,339.0 309.0,337.0 304.0,337.0 304.0,339.0 292.0,339.0 292.0,337.0 287.0,337.0 287.0,339.0 275.0,339.0 275.0,337.0 270.0,337.0 270.0,339.0 258.0,339.0 258.0,337.0 253.0,337.0 253.0,339.0 241.0,339.0 241.0,337.0 236.0,337.0 236.0,339.0 224.0,339.0 224.0,337.0 219.0,337.0 219.0,339.0 207.0,339.0 207.0,337.0 202.0,337.0 202.0,339.0 190.0,339.0 190.0,337.0 185.0,337.0 185.0,339.0 173.0,339.0 173.0,337.0 168.0,337.0 168.0,339.0 156.0,339.0 156.0,337.0 151.0,337.0 151.0,339.0 139.0,339.0 139.0,337.0 134.0,337.0 134.0,339.0 122.0,339.0 122.0,337.0 117.0,337.0 117.0,339.0 105.0,339.0 105.0,337.0 100.0,337.0 100.0,339.0 88.0,339.0 88.0,337.0 83.0,337.0 83.0,339.0 71.0,339.0 71.0,337.0 66.0,337.0 66.0,339.0 54.0,339.0 54.0,337.0 49.0,337.0 49.0,339.0 37.0,339.0 37.0,337.0 32.0,337.0 32.0,339.0 20.0,339.0 20.0,337.0 15.0,337.0 15.0,339.0 3.0,339.0 3.0,337.0 -2.0,337.0 -2.0,339.0 -14.0,339.0 -14.0,337.0 -19.0,337.0 -19.0,339.0 -31.0,339.0 -31.0,337.0 -36.0,337.0 -36.0,339.0 -49.0,339.0 -49.0,338.0 -65.0,338.0" stroke="#000" stroke-width="1" /><polyline fill="none" opacity="100" points="438.0,396.0 438.0,399.0 385.0,399.0 385.0,412.0 373.0,412.0 373.0,411.0 360.0,411.0 360.0,413.0 355.0,413.0 355.0,411.0 343.0,411.0 343.0,413.0 338.0,413.0 338.0,411.0 326.0,411.0 326.0,413.0 321.0,413.0 321.0,411.0 309.0,411.0 309.0,413.0 304.0,413.0 304.0,411.0 292.0,411.0 292.0,413.0 287.0,413.0 287.0,411.0 275.0,411.0 275.0,413.0 270.0,413.0 270.0,411.0 258.0,411.0 258.0,413.0 253.0,413.0 253.0,411.0 241.0,411.0 241.0,413.0 236.0,413.0 236.0,411.0 224.0,411.0 224.0,413.0 219.0,413.0 219.0,411.0 207.0,411.0 207.0,413.0 202.0,413.0 202.0,411.0 190.0,411.0 190.0,413.0 185.0,413.0 185.0,411.0 173.0,411.0 173.0,413.0 168.0,413.0 168.0,411.0 156.0,411.0 156.0,413.0 151.0,413.0 151.0,411.0 139.0,411.0 139.0,413.0 134.0,413.0 134.0,411.0 122.0,411.0 122.0,413.0 117.0,413.0 117.0,411.0 105.0,411.0 105.0,413.0 100.0,413.0 100.0,411.0 88.0,411.0 88.0,413.0 83.0,413.0 83.0,411.0 71.0,411.0 71.0,413.0 66.0,413.0 66.0,411.0 54.0,411.0 54.0,413.0 49.0,413.0 49.0,411.0 37.0,411.0 37.0,413.0 32.0,413.0 32.0,411.0 20.0,411.0 20.0,413.0 15.0,413.0 15.0,411.0 3.0,411.0 3.0,413.0 -2.0,413.0 -2.0,411.0 -14.0,411.0 -14.0,413.0 -19.0,413.0 -19.0,411.0 -31.0,411.0 -31.0,413.0 -36.0,413.0 -36.0,411.0 -49.0,411.0 -49.0,412.0 -65.0,412.0 -65.0,338.0" stroke="#000" stroke-width="1" /><polyline fill="none" opacity="100" points="540.0,393.0 540.0,359.0" stroke="#7F7F7F" stroke-width="1" /><polyline fill="none" opacity="100" points="536.0,393.0 536.0,359.0" stroke="#7F7F7F" stroke-width="1" /><polyline fill="none" opacity="100" points="532.0,393.0 532.0,359.0" stroke="#7F7F7F" stroke-width="1" /><polyline fill="none" opacity="100" points="528.0,393.0 528.0,359.0" stroke="#7F7F7F" stroke-width="1" /><polyline fill="none" opacity="100" points="524.0,393.0 524.0,359.0" stroke="#7F7F7F" stroke-width="1" /><polyline fill="none" opacity="100" points="520.0,393.0 520.0,359.0" stroke="#7F7F7F" stroke-width="1" /><polyline fill="none" opacity="100" points="516.0,393.0 516.0,359.0" stroke="#7F7F7F" stroke-width="1" /><polyline fill="none" opacity="100" points="512.0,393.0 512.0,359.0" stroke="#7F7F7F" stroke-width="1" /><polyline fill="none" opacity="100" points="508.0,393.0 508.0,359.0" stroke="#7F7F7F" stroke-width="1" /><polyline fill="none" opacity="100" points="504.0,393.0 504.0,359.0" stroke="#7F7F7F" stroke-width="1" /><polyline fill="none" opacity="100" points="500.0,393.0 500.0,359.0" stroke="#7F7F7F" stroke-width="1" /><polyline fill="none" opacity="100" points="496.0,393.0 496.0,359.0" stroke="#7F7F7F" stroke-width="1" /><polyline fill="none" opacity="100" points="492.0,393.0 492.0,359.0" stroke="#7F7F7F" stroke-width="1" /><polyline fill="none" opacity="100" points="488.0,393.0 488.0,359.0" stroke="#7F7F7F" stroke-width="1" /><polyline fill="none" opacity="100" points="484.0,393.0 484.0,359.0" stroke="#7F7F7F" stroke-width="1" /><polyline fill="none" opacity="100" points="480.0,393.0 480.0,359.0" stroke="#7F7F7F" stroke-width="1" /><polyline fill="none" opacity="100" points="476.0,393.0 476.0,359.0" stroke="#7F7F7F" stroke-width="1" /><polyline fill="none" opacity="100" points="472.0,393.0 472.0,359.0" stroke="#7F7F7F" stroke-width="1" /><polyline fill="none" opacity="100" points="468.0,393.0 468.0,359.0" stroke="#7F7F7F" stroke-width="1" /><polyline fill="none" opacity="100" points="464.0,393.0 464.0,359.0" stroke="#7F7F7F" stroke-width="1" /><polyline fill="none" opacity="100" points="460.0,393.0 460.0,359.0" stroke="#7F7F7F" stroke-width="1" /><polyline fill="none" opacity="100" points="456.0,393.0 456.0,359.0" stroke="#7F7F7F" stroke-width="1" /><polyline fill="none" opacity="100" points="452.0,393.0 452.0,359.0" stroke="#7F7F7F" stroke-width="1" /><polyline fill="none" opacity="100" points="448.0,393.0 448.0,359.0" stroke="#7F7F7F" stroke-width="1" /><polyline fill="none" opacity="100" points="444.0,393.0 444.0,359.0" stroke="#7F7F7F" stroke-width="1" /><polyline fill="none" opacity="100" points="440.0,393.0 440.0,359.0" stroke="#7F7F7F" stroke-width="1" /><polyline fill="none" opacity="100" points="436.0,393.0 436.0,359.0" stroke="#7F7F7F" stroke-width="1" /><polygon fill="#9B5509" opacity="100" points="547.0,359.0 431.0,359.0 431.0,356.0 547.0,356.0" stroke="#000" stroke-width="1" /><polygon fill="#9B5509" opacity="100" points="547.0,367.0 547.0,372.0 431.0,372.0 431.0,367.0" stroke="#000" stroke-width="1" /><polygon fill="#9B5509" opacity="100" points="547.0,380.0 547.0,385.0 431.0,385.0 431.0,380.0" stroke="#000" stroke-width="1" /><polygon fill="#9B5509" opacity="100" points="547.0,393.0 431.0,393.0 431.0,396.0 547.0,396.0" stroke="#000" stroke-width="1" /><polygon fill="#FFF" opacity="0.8" points="536.0,355.0 510.0,355.0 510.0,397.0 536.0,397.0 532.0,393.0 529.0,389.0 527.0,385.0 525.0,380.0 525.0,376.0 525.0,372.0 527.0,367.0 529.0,363.0 532.0,359.0" stroke="#FFF" stroke-width="1" /><polyline fill="none" opacity="1.0" points="536.0,356.0 533.4219,358.5 531.1875,361.0 529.2969,363.5 527.75,366.0 526.5469,368.5 525.6875,371.0 525.1719,373.5 525.0,376.0 525.1719,378.5 525.6875,381.0 526.5469,383.5 527.75,386.0 529.2969,388.5 531.1875,391.0 533.4219,393.5 536.0,396.0" stroke="#000" stroke-width="1" /><polyline fill="none" opacity="1.0" points="699.0,302.0 699.0,293.0 510.0,293.0 510.0,456.0 699.0,456.0 699.0,447.0" stroke="#000" stroke-width="1" /><polygon fill="#CCC" opacity="1.0" points="699.0,412.0 658.0,412.0 658.0,404.0 677.0,404.0 677.0,346.0 659.0,346.0 659.0,338.0 699.0,338.0" stroke="#000" stroke-width="1" /><polyline fill="none" opacity="1.0" points="547.0,356.0 612.0,356.0 616.0,366.0" stroke="#000" stroke-width="1" /><polyline fill="none" opacity="1.0" points="547.0,396.0 601.0,416.0 608.0,412.0" stroke="#000" stroke-width="1" /><polyline fill="none" opacity="1.0" points="626.0,388.0 631.0,399.0 624.0,403.0" stroke="#000" stroke-width="1" /><polyline fill="none" opacity="1.0" points="614.0,367.0 618.0,365.0" stroke="#090" stroke-width="1" /><polyline fill="none" opacity="1.0" points="615.6666,370.6363 619.6666,368.6363" stroke="#090" stroke-width="1" /><polyline fill="none" opacity="1.0" points="617.3332,374.2725 621.3332,372.2725" stroke="#090" stroke-width="1" /><polyline fill="none" opacity="1.0" points="618.9999,377.9088 622.9999,375.9088" stroke="#090" stroke-width="1" /><polyline fill="none" opacity="1.0" points="620.6665,381.545 624.6665,379.545" stroke="#090" stroke-width="1" /><polyline fill="none" opacity="1.0" points="622.3331,385.1813 626.3331,383.1813" stroke="#090" stroke-width="1" /><polyline fill="none" opacity="1.0" points="623.9997,388.8176 627.9997,386.8176" stroke="#090" stroke-width="1" /><polyline fill="none" opacity="1.0" points="623.0,401.0 625.0,405.0" stroke="#F00" stroke-width="1" /><polyline fill="none" opacity="1.0" points="619.5137,402.961 621.5137,406.961" stroke="#F00" stroke-width="1" /><polyline fill="none" opacity="1.0" points="616.0274,404.9221 618.0274,408.9221" stroke="#F00" stroke-width="1" /><polyline fill="none" opacity="1.0" points="612.5411,406.8831 614.5411,410.8831" stroke="#F00" stroke-width="1" /><polyline fill="none" opacity="1.0" points="609.0548,408.8442 611.0548,412.8442" stroke="#F00" stroke-width="1" /><polyline fill="none" opacity="1.0" points="675.0,430.0 692.0,430.0" stroke="#F00" stroke-width="1" /><polygon fill="#F00" opacity="1.0" points="687.0738,431.32 692.0,430.0 687.0738,428.68" stroke="#F00" stroke-width="1" /><polyline fill="none" opacity="1.0" points="692.0,320.0 675.0,320.0" stroke="#090" stroke-width="1" /><polygon fill="#090" opacity="1.0" points="679.9262,318.68 675.0,320.0 679.9262,321.32" stroke="#090" stroke-width="1" /><text fill="#009A49" font-family="Arial" font-size="20" font-weight="normal" opacity="1.0" transform="rotate(-0.0 -62.0,279.0) translate(0 20)" x="-62.0" y="279.0">&lt;&lt; Площадь Александра Невского-I</text><text fill="#009A49" font-family="Arial" font-size="20" font-weight="normal" opacity="1.0" transform="rotate(-0.0 230.0,445.0) translate(0 20)" x="230.0" y="445.0">Ломоносовская &gt;&gt;</text><text fill="#009A49" font-family="Arial" font-size="25" font-weight="bold" opacity="1.0" transform="rotate(-0.0 84.0,358.0) translate(0 25)" x="84.0" y="358.0">Елизаровская</text><text fill="#00AFAF" font-family="Arial" font-size="15" font-weight="normal" opacity="1.0" transform="rotate(-0.0 525.0,504.0) translate(0 15)" x="525.0" y="504.0">улица Бабушкина</text><text fill="#00AFAF" font-family="Arial" font-size="15" font-weight="normal" opacity="1.0" transform="rotate(-90.0 733.0,418.0) translate(0 15)" x="733.0" y="418.0">проспект Елизарова</text></g></g></svg>