<?xml version="1.0" encoding="utf-8" ?>
<svg baseProfile="tiny" height="900px" version="1.2" width="570px" xmlns="http://www.w3.org/2000/svg" xmlns:ev="http://www.w3.org/2001/xml-events" xmlns:xlink="http://www.w3.org/1999/xlink"><defs /><g><g transform="rotate(-65.0,285.0,450.0)"><polygon fill="#D6083B" opacity="100" points="279.0,503.0 279.0,473.0 -171.0,473.0 -171.0,503.0" stroke="#000" stroke-width="1" /><polygon fill="#D6083B" opacity="100" points="-171.0,393.0 -171.0,363.0 279.0,363.0 279.0,393.0" stroke="#000" stroke-width="1" /><text fill="#D6083B" font-family="Arial" font-size="20" font-weight="normal" opacity="100" transform="rotate(-0.0 159.0,502.0) translate(0 20)" x="159.0" y="502.0">Девяткино &gt;&gt;</text><text fill="#D6083B" font-family="Arial" font-size="20" font-weight="normal" opacity="100" transform="rotate(-0.0 -167.0,340.0) translate(0 20)" x="-167.0" y="340.0">&lt;&lt; Академическая</text><text fill="#D6083B" font-family="Arial" font-size="25" font-weight="bold" opacity="100" transform="rotate(-0.0 -89.0,415.0) translate(0 25)" x="-89.0" y="415.0">Гражданский проспект</text><polyline fill="none" opacity="100" points="-171.0,393.0 -171.0,407.0 -153.0,407.0 -153.0,458.0 -171.0,458.0 -171.0,472.0" stroke="#000" stroke-width="1" /><polyline fill="none" opacity="100" points="279.0,393.0 279.0,398.0 258.0,398.0 258.0,403.0 306.0,403.0 306.0,406.0" stroke="#000" stroke-width="1" /><polyline fill="none" opacity="100" points="279.0,473.0 279.0,468.0 258.0,468.0 258.0,462.0 306.0,462.0 306.0,459.0" stroke="#000" stroke-width="1" /><polyline fill="none" opacity="100" points="514.0,488.0 514.0,499.0 499.0,499.0 499.0,510.0 509.0,510.0 509.0,524.0" stroke="#000" stroke-width="1" /><polyline fill="none" opacity="100" points="542.0,488.0 542.0,499.0 556.0,499.0 556.0,510.0 546.0,510.0 546.0,524.0" stroke="#000" stroke-width="1" /><polyline fill="none" opacity="100" points="582.0,448.0 595.0,448.0 595.0,471.0 605.0,471.0 605.0,453.0 616.0,453.0 616.0,461.0 628.0,473.0 628.0,480.0 673.0,480.0 680.0,473.0 680.0,453.0 687.0,453.0" stroke="#000" stroke-width="1" /><polyline fill="none" opacity="100" points="583.0,422.0 595.0,422.0 595.0,399.0 605.0,399.0 605.0,415.0 616.0,415.0 616.0,410.0 620.0,406.0 637.0,406.0 637.0,391.0 672.0,391.0 680.0,399.0 680.0,417.0 687.0,417.0" stroke="#000" stroke-width="1" /><polyline fill="none" opacity="100" points="477.0,459.0 478.1406,461.0234 479.3125,462.9688 480.5154,464.8354 481.75,466.625 483.0178,468.3403 484.3164,469.9766 485.645,471.5322 487.0,473.0 488.3745,474.3662 489.7773,475.6484 491.2144,476.8584 492.6875,478.0 494.1997,479.0791 495.7539,480.1016 497.3521,481.0713 499.0,482.0 500.7065,482.9053 502.4648,483.7734 504.2712,484.5972 506.125,485.375 508.0237,486.1021 509.9688,486.7812 511.9609,487.4141 514.0,488.0" stroke="#000" stroke-width="1" /><polyline fill="none" opacity="100" points="542.0,488.0 545.6719,486.9062 549.1875,485.625 552.5469,484.1562 555.75,482.5 558.7969,480.6562 561.6875,478.625 564.4219,476.4062 567.0,474.0 569.4219,471.4062 571.6875,468.625 573.7969,465.6562 575.75,462.5 577.5469,459.1562 579.1875,455.625 580.6719,451.9062 582.0,448.0" stroke="#000" stroke-width="1" /><polyline fill="none" opacity="100" points="583.0,422.0 581.7266,417.7891 580.2812,413.7812 578.6616,409.9763 576.875,406.375 574.936,402.9788 572.8203,399.7852 570.5205,396.7935 568.0,394.0 565.1904,391.3979 562.1797,388.9961 559.0249,386.8008 555.75,384.8125 552.3931,383.0312 548.9688,381.4648 545.4922,380.1167 542.0,379.0 538.5391,378.1372 535.0938,377.5039 531.6621,377.0862 528.25,376.875 524.8535,376.8533 521.5,377.0312 518.207,377.4102 515.0,378.0 511.918,378.8242 508.9375,379.8438 506.0483,381.0308 503.25,382.375 500.5337,383.8638 497.9141,385.4766 495.3994,387.2002 493.0,389.0 490.7334,390.8232 488.5859,392.7109 486.5503,394.6851 484.625,396.75 482.8052,398.9204 481.0938,401.1875 479.4922,403.5469 478.0,406.0" stroke="#000" stroke-width="1" /><polyline fill="none" opacity="100" points="492.0,456.0 492.0,409.0" stroke="#7F7F7F" stroke-width="1" /><polyline fill="none" opacity="100" points="488.0,456.0 488.0,409.0" stroke="#7F7F7F" stroke-width="1" /><polyline fill="none" opacity="100" points="484.0,456.0 484.0,409.0" stroke="#7F7F7F" stroke-width="1" /><polyline fill="none" opacity="100" points="480.0,456.0 480.0,409.0" stroke="#7F7F7F" stroke-width="1" /><polyline fill="none" opacity="100" points="476.0,456.0 476.0,409.0" stroke="#7F7F7F" stroke-width="1" /><polyline fill="none" opacity="100" points="472.0,456.0 472.0,409.0" stroke="#7F7F7F" stroke-width="1" /><polyline fill="none" opacity="100" points="468.0,456.0 468.0,409.0" stroke="#7F7F7F" stroke-width="1" /><polyline fill="none" opacity="100" points="464.0,456.0 464.0,409.0" stroke="#7F7F7F" stroke-width="1" /><polyline fill="none" opacity="100" points="460.0,456.0 460.0,409.0" stroke="#7F7F7F" stroke-width="1" /><polyline fill="none" opacity="100" points="456.0,456.0 456.0,409.0" stroke="#7F7F7F" stroke-width="1" /><polyline fill="none" opacity="100" points="452.0,456.0 452.0,409.0" stroke="#7F7F7F" stroke-width="1" /><polyline fill="none" opacity="100" points="448.0,456.0 448.0,409.0" stroke="#7F7F7F" stroke-width="1" /><polyline fill="none" opacity="100" points="444.0,456.0 444.0,409.0" stroke="#7F7F7F" stroke-width="1" /><polyline fill="none" opacity="100" points="440.0,456.0 440.0,409.0" stroke="#7F7F7F" stroke-width="1" /><polyline fill="none" opacity="100" points="436.0,456.0 436.0,409.0" stroke="#7F7F7F" stroke-width="1" /><polyline fill="none" opacity="100" points="432.0,456.0 432.0,409.0" stroke="#7F7F7F" stroke-width="1" /><polyline fill="none" opacity="100" points="428.0,456.0 428.0,409.0" stroke="#7F7F7F" stroke-width="1" /><polyline fill="none" opacity="100" points="424.0,456.0 424.0,409.0" stroke="#7F7F7F" stroke-width="1" /><polyline fill="none" opacity="100" points="420.0,456.0 420.0,409.0" stroke="#7F7F7F" stroke-width="1" /><polyline fill="none" opacity="100" points="416.0,456.0 416.0,409.0" stroke="#7F7F7F" stroke-width="1" /><polyline fill="none" opacity="100" points="412.0,456.0 412.0,409.0" stroke="#7F7F7F" stroke-width="1" /><polyline fill="none" opacity="100" points="408.0,456.0 408.0,409.0" stroke="#7F7F7F" stroke-width="1" /><polyline fill="none" opacity="100" points="404.0,456.0 404.0,409.0" stroke="#7F7F7F" stroke-width="1" /><polyline fill="none" opacity="100" points="400.0,456.0 400.0,409.0" stroke="#7F7F7F" stroke-width="1" /><polyline fill="none" opacity="100" points="396.0,456.0 396.0,409.0" stroke="#7F7F7F" stroke-width="1" /><polyline fill="none" opacity="100" points="392.0,456.0 392.0,409.0" stroke="#7F7F7F" stroke-width="1" /><polyline fill="none" opacity="100" points="388.0,456.0 388.0,409.0" stroke="#7F7F7F" stroke-width="1" /><polyline fill="none" opacity="100" points="384.0,456.0 384.0,409.0" stroke="#7F7F7F" stroke-width="1" /><polyline fill="none" opacity="100" points="380.0,456.0 380.0,409.0" stroke="#7F7F7F" stroke-width="1" /><polyline fill="none" opacity="100" points="376.0,456.0 376.0,409.0" stroke="#7F7F7F" stroke-width="1" /><polyline fill="none" opacity="100" points="372.0,456.0 372.0,409.0" stroke="#7F7F7F" stroke-width="1" /><polyline fill="none" opacity="100" points="368.0,456.0 368.0,409.0" stroke="#7F7F7F" stroke-width="1" /><polyline fill="none" opacity="100" points="364.0,456.0 364.0,409.0" stroke="#7F7F7F" stroke-width="1" /><polyline fill="none" opacity="100" points="360.0,456.0 360.0,409.0" stroke="#7F7F7F" stroke-width="1" /><polyline fill="none" opacity="100" points="356.0,456.0 356.0,409.0" stroke="#7F7F7F" stroke-width="1" /><polyline fill="none" opacity="100" points="352.0,456.0 352.0,409.0" stroke="#7F7F7F" stroke-width="1" /><polyline fill="none" opacity="100" points="348.0,456.0 348.0,409.0" stroke="#7F7F7F" stroke-width="1" /><polyline fill="none" opacity="100" points="344.0,456.0 344.0,409.0" stroke="#7F7F7F" stroke-width="1" /><polyline fill="none" opacity="100" points="340.0,456.0 340.0,409.0" stroke="#7F7F7F" stroke-width="1" /><polyline fill="none" opacity="100" points="336.0,456.0 336.0,409.0" stroke="#7F7F7F" stroke-width="1" /><polyline fill="none" opacity="100" points="332.0,456.0 332.0,409.0" stroke="#7F7F7F" stroke-width="1" /><polyline fill="none" opacity="100" points="328.0,456.0 328.0,409.0" stroke="#7F7F7F" stroke-width="1" /><polyline fill="none" opacity="100" points="324.0,456.0 324.0,409.0" stroke="#7F7F7F" stroke-width="1" /><polyline fill="none" opacity="100" points="320.0,456.0 320.0,409.0" stroke="#7F7F7F" stroke-width="1" /><polyline fill="none" opacity="100" points="316.0,456.0 316.0,409.0" stroke="#7F7F7F" stroke-width="1" /><polyline fill="none" opacity="100" points="312.0,456.0 312.0,409.0" stroke="#7F7F7F" stroke-width="1" /><polyline fill="none" opacity="100" points="308.0,456.0 308.0,409.0" stroke="#7F7F7F" stroke-width="1" /><polyline fill="none" opacity="100" points="304.0,456.0 304.0,409.0" stroke="#7F7F7F" stroke-width="1" /><polygon fill="#9B5509" opacity="100" points="499.0,409.0 298.0,409.0 298.0,406.0 499.0,406.0" stroke="#000" stroke-width="1" /><polygon fill="#9B5509" opacity="100" points="499.0,417.0 499.0,422.0 298.0,422.0 298.0,417.0" stroke="#000" stroke-width="1" /><polygon fill="#9B5509" opacity="100" points="499.0,430.0 499.0,435.0 298.0,435.0 298.0,430.0" stroke="#000" stroke-width="1" /><polygon fill="#9B5509" opacity="100" points="499.0,443.0 499.0,448.0 298.0,448.0 298.0,443.0" stroke="#000" stroke-width="1" /><polygon fill="#9B5509" opacity="100" points="499.0,456.0 298.0,456.0 298.0,459.0 499.0,459.0" stroke="#000" stroke-width="1" /><polyline fill="none" opacity="100" points="541.0,379.0 541.0,386.0" stroke="#000" stroke-width="0.5" /><polyline fill="none" opacity="100" points="541.0,446.0 541.0,458.0" stroke="#000" stroke-width="0.5" /><polyline fill="none" opacity="100" points="499.0,433.0 545.0,461.0 545.0,487.0" stroke="#000" stroke-width="0.5" /><polyline fill="none" opacity="100" points="538.0,386.0 544.0,386.0" stroke="#090" stroke-width="1" /><polyline fill="none" opacity="100" points="538.0,390.0 544.0,390.0" stroke="#090" stroke-width="1" /><polyline fill="none" opacity="100" points="538.0,394.0 544.0,394.0" stroke="#090" stroke-width="1" /><polyline fill="none" opacity="100" points="538.0,398.0 544.0,398.0" stroke="#090" stroke-width="1" /><polyline fill="none" opacity="100" points="538.0,402.0 544.0,402.0" stroke="#090" stroke-width="1" /><polyline fill="none" opacity="100" points="538.0,406.0 544.0,406.0" stroke="#090" stroke-width="1" /><polyline fill="none" opacity="100" points="538.0,410.0 544.0,410.0" stroke="#090" stroke-width="1" /><polyline fill="none" opacity="100" points="538.0,414.0 544.0,414.0" stroke="#090" stroke-width="1" /><polyline fill="none" opacity="100" points="538.0,418.0 544.0,418.0" stroke="#090" stroke-width="1" /><polyline fill="none" opacity="100" points="538.0,422.0 544.0,422.0" stroke="#090" stroke-width="1" /><polyline fill="none" opacity="100" points="538.0,426.0 544.0,426.0" stroke="#090" stroke-width="1" /><polyline fill="none" opacity="100" points="538.0,430.0 544.0,430.0" stroke="#090" stroke-width="1" /><polyline fill="none" opacity="100" points="538.0,434.0 544.0,434.0" stroke="#090" stroke-width="1" /><polyline fill="none" opacity="100" points="538.0,438.0 544.0,438.0" stroke="#090" stroke-width="1" /><polyline fill="none" opacity="100" points="538.0,442.0 544.0,442.0" stroke="#090" stroke-width="1" /><polyline fill="none" opacity="100" points="538.0,446.0 544.0,446.0" stroke="#090" stroke-width="1" /><polyline fill="none" opacity="100" points="530.0,504.0 530.0,520.0" stroke="#F00" stroke-width="1" /><polygon fill="#F00" opacity="100" points="528.7577,515.3636 530.0,520.0 531.2423,515.3636" stroke="#F00" stroke-width="1" /><polyline fill="none" opacity="100" points="687.0,436.0 668.0,436.0" stroke="#090" stroke-width="1" /><polygon fill="#090" opacity="100" points="673.5058,434.5247 668.0,436.0 673.5058,437.4753" stroke="#090" stroke-width="1" /><text fill="#00AFAF" font-family="Arial" font-size="15" font-weight="normal" opacity="100" transform="rotate(-0.0 486.0,561.0) translate(0 15)" x="486.0" y="561.0">Гражданский проспект</text><text fill="#00AFAF" font-family="Arial" font-size="15" font-weight="normal" opacity="100" transform="rotate(90.0 745.0,392.0) translate(0 15)" x="745.0" y="392.0">проспект Просвещения</text></g></g></svg>