<?xml version="1.0" encoding="utf-8" ?>
<svg baseProfile="tiny" height="1030px" version="1.2" width="910px" xmlns="http://www.w3.org/2000/svg" xmlns:ev="http://www.w3.org/2001/xml-events" xmlns:xlink="http://www.w3.org/1999/xlink"><defs /><g><g transform="rotate(60.0,455.0,515.0)"><polygon fill="#702785" opacity="100" points="323.0,642.0 323.0,672.0 -127.0,672.0 -127.0,642.0" stroke="#000" stroke-width="1" /><polygon fill="#702785" opacity="100" points="-127.0,562.0 -127.0,532.0 323.0,532.0 323.0,562.0" stroke="#000" stroke-width="1" /><text fill="#702785" font-family="Arial" font-size="20" font-weight="normal" opacity="100" transform="rotate(-0.0 6.0,507.0) translate(0 20)" x="6.0" y="507.0">&lt;&lt; посадки нет</text><text fill="#702785" font-family="Arial" font-size="20" font-weight="normal" opacity="100" transform="rotate(-0.0 155.0,672.0) translate(0 20)" x="155.0" y="672.0">Старая Деревня &gt;&gt;</text><text fill="#702785" font-family="Arial" font-size="25" font-weight="bold" opacity="100" transform="rotate(-0.0 34.0,587.0) translate(0 25)" x="34.0" y="587.0">Комендантский проспект</text><polyline fill="none" opacity="100" points="-127.0,642.0 -127.0,630.0 -71.0,630.0 -71.0,573.0 -127.0,573.0 -127.0,562.0" stroke="#000" stroke-width="1" /><polygon fill="#FFF" opacity="0.8" points="-37.0,531.0 2.0,531.0 2.0,563.0 -37.0,563.0" stroke="#FFF" stroke-width="1" /><polyline fill="none" opacity="1.0" points="-37.0,532.0 -37.0,578.0 32.0,578.0" stroke="#000" stroke-width="1" /><polyline fill="none" opacity="1.0" points="-40.0,624.0 32.0,624.0" stroke="#000" stroke-width="1" /><polyline fill="none" opacity="1.0" points="2.0,578.0 2.0,532.0" stroke="#000" stroke-width="1" /><polyline fill="none" opacity="1.0" points="2.0,530.0 2.0,425.0" stroke="#C0C0C0" stroke-width="1" /><polyline fill="none" opacity="1.0" points="-37.0,530.0 -37.0,425.0" stroke="#C0C0C0" stroke-width="1" /><text fill="#000" font-family="Arial" font-size="9" font-weight="normal" opacity="1.0" transform="rotate(-90.0 -37.0,621.0) translate(0 9)" x="-37.0" y="621.0">мозаичное</text><text fill="#000" font-family="Arial" font-size="9" font-weight="normal" opacity="1.0" transform="rotate(-90.0 -30.0,613.0) translate(0 9)" x="-30.0" y="613.0">панно</text><polygon fill="#CCC" opacity="1.0" points="-37.0,624.0 -40.0,624.0 -40.0,578.0 -37.0,578.0" stroke="#000" stroke-width="1" /><polyline fill="none" opacity="1.0" points="323.0,642.0 323.0,637.0 296.0,637.0 296.0,632.0 347.0,632.0 347.0,629.0" stroke="#000" stroke-width="1" /><polyline fill="none" opacity="1.0" points="323.0,562.0 323.0,567.0 296.0,567.0 296.0,573.0 346.0,573.0 346.0,576.0" stroke="#000" stroke-width="1" /><polyline fill="none" opacity="1.0" points="481.0,626.0 481.0,579.0" stroke="#7F7F7F" stroke-width="1" /><polyline fill="none" opacity="1.0" points="477.0,626.0 477.0,579.0" stroke="#7F7F7F" stroke-width="1" /><polyline fill="none" opacity="1.0" points="473.0,626.0 473.0,579.0" stroke="#7F7F7F" stroke-width="1" /><polyline fill="none" opacity="1.0" points="469.0,626.0 469.0,579.0" stroke="#7F7F7F" stroke-width="1" /><polyline fill="none" opacity="1.0" points="465.0,626.0 465.0,579.0" stroke="#7F7F7F" stroke-width="1" /><polyline fill="none" opacity="1.0" points="461.0,626.0 461.0,579.0" stroke="#7F7F7F" stroke-width="1" /><polyline fill="none" opacity="1.0" points="457.0,626.0 457.0,579.0" stroke="#7F7F7F" stroke-width="1" /><polyline fill="none" opacity="1.0" points="453.0,626.0 453.0,579.0" stroke="#7F7F7F" stroke-width="1" /><polyline fill="none" opacity="1.0" points="449.0,626.0 449.0,579.0" stroke="#7F7F7F" stroke-width="1" /><polyline fill="none" opacity="1.0" points="445.0,626.0 445.0,579.0" stroke="#7F7F7F" stroke-width="1" /><polyline fill="none" opacity="1.0" points="441.0,626.0 441.0,579.0" stroke="#7F7F7F" stroke-width="1" /><polyline fill="none" opacity="1.0" points="437.0,626.0 437.0,579.0" stroke="#7F7F7F" stroke-width="1" /><polyline fill="none" opacity="1.0" points="433.0,626.0 433.0,579.0" stroke="#7F7F7F" stroke-width="1" /><polyline fill="none" opacity="1.0" points="429.0,626.0 429.0,579.0" stroke="#7F7F7F" stroke-width="1" /><polyline fill="none" opacity="1.0" points="425.0,626.0 425.0,579.0" stroke="#7F7F7F" stroke-width="1" /><polyline fill="none" opacity="1.0" points="421.0,626.0 421.0,579.0" stroke="#7F7F7F" stroke-width="1" /><polyline fill="none" opacity="1.0" points="417.0,626.0 417.0,579.0" stroke="#7F7F7F" stroke-width="1" /><polyline fill="none" opacity="1.0" points="413.0,626.0 413.0,579.0" stroke="#7F7F7F" stroke-width="1" /><polyline fill="none" opacity="1.0" points="409.0,626.0 409.0,579.0" stroke="#7F7F7F" stroke-width="1" /><polyline fill="none" opacity="1.0" points="405.0,626.0 405.0,579.0" stroke="#7F7F7F" stroke-width="1" /><polyline fill="none" opacity="1.0" points="401.0,626.0 401.0,579.0" stroke="#7F7F7F" stroke-width="1" /><polyline fill="none" opacity="1.0" points="397.0,626.0 397.0,579.0" stroke="#7F7F7F" stroke-width="1" /><polyline fill="none" opacity="1.0" points="393.0,626.0 393.0,579.0" stroke="#7F7F7F" stroke-width="1" /><polyline fill="none" opacity="1.0" points="389.0,626.0 389.0,579.0" stroke="#7F7F7F" stroke-width="1" /><polyline fill="none" opacity="1.0" points="385.0,626.0 385.0,579.0" stroke="#7F7F7F" stroke-width="1" /><polyline fill="none" opacity="1.0" points="381.0,626.0 381.0,579.0" stroke="#7F7F7F" stroke-width="1" /><polyline fill="none" opacity="1.0" points="377.0,626.0 377.0,579.0" stroke="#7F7F7F" stroke-width="1" /><polyline fill="none" opacity="1.0" points="373.0,626.0 373.0,579.0" stroke="#7F7F7F" stroke-width="1" /><polyline fill="none" opacity="1.0" points="369.0,626.0 369.0,579.0" stroke="#7F7F7F" stroke-width="1" /><polyline fill="none" opacity="1.0" points="365.0,626.0 365.0,579.0" stroke="#7F7F7F" stroke-width="1" /><polyline fill="none" opacity="1.0" points="361.0,626.0 361.0,579.0" stroke="#7F7F7F" stroke-width="1" /><polyline fill="none" opacity="1.0" points="357.0,626.0 357.0,579.0" stroke="#7F7F7F" stroke-width="1" /><polyline fill="none" opacity="1.0" points="353.0,626.0 353.0,579.0" stroke="#7F7F7F" stroke-width="1" /><polyline fill="none" opacity="1.0" points="349.0,626.0 349.0,579.0" stroke="#7F7F7F" stroke-width="1" /><polyline fill="none" opacity="1.0" points="345.0,626.0 345.0,579.0" stroke="#7F7F7F" stroke-width="1" /><polygon fill="#9B5509" opacity="1.0" points="488.0,579.0 338.0,579.0 338.0,576.0 488.0,576.0" stroke="#000" stroke-width="1" /><polygon fill="#9B5509" opacity="1.0" points="488.0,587.0 488.0,592.0 338.0,592.0 338.0,587.0" stroke="#000" stroke-width="1" /><polygon fill="#9B5509" opacity="1.0" points="488.0,600.0 488.0,605.0 338.0,605.0 338.0,600.0" stroke="#000" stroke-width="1" /><polygon fill="#9B5509" opacity="1.0" points="488.0,613.0 488.0,618.0 338.0,618.0 338.0,613.0" stroke="#000" stroke-width="1" /><polygon fill="#9B5509" opacity="1.0" points="488.0,626.0 338.0,626.0 338.0,629.0 488.0,629.0" stroke="#000" stroke-width="1" /><polygon fill="#FFF" opacity="0.8" points="426.0,575.0 465.0,575.0 460.0,579.0 457.0,583.0 453.0,587.0 451.0,592.0 449.0,596.0 449.0,602.0 449.0,609.0 451.0,613.0 454.0,618.0 457.0,622.0 460.0,626.0 464.0,630.0 426.0,630.0" stroke="#FFF" stroke-width="1" /><polyline fill="none" opacity="1.0" points="464.0,576.0 460.4844,579.1953 457.4375,582.4062 454.8594,585.6328 452.75,588.875 451.1094,592.1328 449.9375,595.4062 449.2344,598.6953 449.0,602.0 449.2344,605.3203 449.9375,608.6562 451.1094,612.0078 452.75,615.375 454.8594,618.7578 457.4375,622.1562 460.4844,625.5703 464.0,629.0" stroke="#000" stroke-width="1" /><polyline fill="none" opacity="1.0" points="576.0,739.0 618.0,739.0 618.0,697.0 606.0,697.0 606.0,655.0 594.0,655.0 594.0,643.0 554.0,643.0 554.0,653.0 426.0,653.0 426.0,549.0 554.0,549.0 554.0,560.0 618.0,560.0 618.0,465.0 576.0,465.0" stroke="#000" stroke-width="1" /><polyline fill="none" opacity="1.0" points="575.0,428.0 696.0,428.0 696.0,432.0 618.0,432.0 618.0,444.0 575.0,444.0" stroke="#000" stroke-width="1" /><polyline fill="none" opacity="1.0" points="575.0,415.0 709.0,415.0 709.0,444.0 668.0,444.0" stroke="#000" stroke-width="1" /><polyline fill="none" opacity="1.0" points="709.0,465.0 667.0,465.0 667.0,584.0 785.0,584.0" stroke="#000" stroke-width="1" /><polyline fill="none" opacity="1.0" points="785.0,621.0 667.0,621.0 667.0,739.0 709.0,739.0" stroke="#000" stroke-width="1" /><polyline fill="none" opacity="1.0" points="667.0,760.0 709.0,760.0 709.0,791.0 576.0,791.0" stroke="#000" stroke-width="1" /><polyline fill="none" opacity="1.0" points="576.0,760.0 618.0,760.0 618.0,773.0 696.0,773.0 696.0,777.0 576.0,777.0" stroke="#000" stroke-width="1" /><polyline fill="none" opacity="1.0" points="635.0,644.0 629.0,650.0 618.0,650.0 618.0,685.0" stroke="#000" stroke-width="1" /><polyline fill="none" opacity="1.0" points="645.0,633.0 651.0,627.0 651.0,617.0" stroke="#000" stroke-width="1" /><polyline fill="none" opacity="1.0" points="651.0,607.0 651.0,597.0" stroke="#000" stroke-width="1" /><polyline fill="none" opacity="1.0" points="651.0,588.0 651.0,576.0 645.0,570.0" stroke="#000" stroke-width="1" /><polyline fill="none" opacity="1.0" points="635.0,560.0 628.0,553.0 618.0,553.0" stroke="#000" stroke-width="1" /><polyline fill="none" opacity="1.0" points="516.0,653.0 516.0,642.0" stroke="#000" stroke-width="1" /><polyline fill="none" opacity="1.0" points="516.0,549.0 516.0,558.0" stroke="#000" stroke-width="1" /><polyline fill="none" opacity="1.0" points="516.0,598.0 516.0,606.0" stroke="#000" stroke-width="1" /><polyline fill="none" opacity="1.0" points="516.0,602.0 488.0,602.0" stroke="#000" stroke-width="1" /><polyline fill="none" opacity="1.0" points="618.0,650.0 618.0,643.0 605.0,643.0" stroke="#000" stroke-width="1" /><polyline fill="none" opacity="1.0" points="578.0,760.0 578.0,739.0" stroke="#000" stroke-width="1" /><polyline fill="none" opacity="1.0" points="582.0,760.0 582.0,739.0" stroke="#000" stroke-width="1" /><polyline fill="none" opacity="1.0" points="586.0,760.0 586.0,739.0" stroke="#000" stroke-width="1" /><polyline fill="none" opacity="1.0" points="590.0,760.0 590.0,739.0" stroke="#000" stroke-width="1" /><polyline fill="none" opacity="1.0" points="594.0,760.0 594.0,739.0" stroke="#000" stroke-width="1" /><polyline fill="none" opacity="1.0" points="598.0,760.0 598.0,739.0" stroke="#000" stroke-width="1" /><polyline fill="none" opacity="1.0" points="602.0,760.0 602.0,739.0" stroke="#000" stroke-width="1" /><polyline fill="none" opacity="1.0" points="606.0,760.0 606.0,739.0" stroke="#000" stroke-width="1" /><polyline fill="none" opacity="1.0" points="610.0,760.0 610.0,739.0" stroke="#000" stroke-width="1" /><polyline fill="none" opacity="1.0" points="614.0,760.0 614.0,739.0" stroke="#000" stroke-width="1" /><polyline fill="none" opacity="1.0" points="707.0,739.0 707.0,760.0" stroke="#000" stroke-width="1" /><polyline fill="none" opacity="1.0" points="703.0,739.0 703.0,760.0" stroke="#000" stroke-width="1" /><polyline fill="none" opacity="1.0" points="699.0,739.0 699.0,760.0" stroke="#000" stroke-width="1" /><polyline fill="none" opacity="1.0" points="695.0,739.0 695.0,760.0" stroke="#000" stroke-width="1" /><polyline fill="none" opacity="1.0" points="691.0,739.0 691.0,760.0" stroke="#000" stroke-width="1" /><polyline fill="none" opacity="1.0" points="687.0,739.0 687.0,760.0" stroke="#000" stroke-width="1" /><polyline fill="none" opacity="1.0" points="683.0,739.0 683.0,760.0" stroke="#000" stroke-width="1" /><polyline fill="none" opacity="1.0" points="679.0,739.0 679.0,760.0" stroke="#000" stroke-width="1" /><polyline fill="none" opacity="1.0" points="675.0,739.0 675.0,760.0" stroke="#000" stroke-width="1" /><polyline fill="none" opacity="1.0" points="671.0,739.0 671.0,760.0" stroke="#000" stroke-width="1" /><polyline fill="none" opacity="1.0" points="578.0,465.0 578.0,444.0" stroke="#000" stroke-width="1" /><polyline fill="none" opacity="1.0" points="582.0,465.0 582.0,444.0" stroke="#000" stroke-width="1" /><polyline fill="none" opacity="1.0" points="586.0,465.0 586.0,444.0" stroke="#000" stroke-width="1" /><polyline fill="none" opacity="1.0" points="590.0,465.0 590.0,444.0" stroke="#000" stroke-width="1" /><polyline fill="none" opacity="1.0" points="594.0,465.0 594.0,444.0" stroke="#000" stroke-width="1" /><polyline fill="none" opacity="1.0" points="598.0,465.0 598.0,444.0" stroke="#000" stroke-width="1" /><polyline fill="none" opacity="1.0" points="602.0,465.0 602.0,444.0" stroke="#000" stroke-width="1" /><polyline fill="none" opacity="1.0" points="606.0,465.0 606.0,444.0" stroke="#000" stroke-width="1" /><polyline fill="none" opacity="1.0" points="610.0,465.0 610.0,444.0" stroke="#000" stroke-width="1" /><polyline fill="none" opacity="1.0" points="614.0,465.0 614.0,444.0" stroke="#000" stroke-width="1" /><polyline fill="none" opacity="1.0" points="707.0,465.0 707.0,444.0" stroke="#000" stroke-width="1" /><polyline fill="none" opacity="1.0" points="703.0,465.0 703.0,444.0" stroke="#000" stroke-width="1" /><polyline fill="none" opacity="1.0" points="699.0,465.0 699.0,444.0" stroke="#000" stroke-width="1" /><polyline fill="none" opacity="1.0" points="695.0,465.0 695.0,444.0" stroke="#000" stroke-width="1" /><polyline fill="none" opacity="1.0" points="691.0,465.0 691.0,444.0" stroke="#000" stroke-width="1" /><polyline fill="none" opacity="1.0" points="687.0,465.0 687.0,444.0" stroke="#000" stroke-width="1" /><polyline fill="none" opacity="1.0" points="683.0,465.0 683.0,444.0" stroke="#000" stroke-width="1" /><polyline fill="none" opacity="1.0" points="679.0,465.0 679.0,444.0" stroke="#000" stroke-width="1" /><polyline fill="none" opacity="1.0" points="675.0,465.0 675.0,444.0" stroke="#000" stroke-width="1" /><polyline fill="none" opacity="1.0" points="671.0,465.0 671.0,444.0" stroke="#000" stroke-width="1" /><polyline fill="none" opacity="1.0" points="614.0,643.0 614.0,611.0" stroke="#000" stroke-width="1" /><polyline fill="none" opacity="1.0" points="610.0,643.0 610.0,611.0" stroke="#000" stroke-width="1" /><polyline fill="none" opacity="1.0" points="606.0,643.0 606.0,611.0" stroke="#000" stroke-width="1" /><polyline fill="none" opacity="1.0" points="615.0,592.0 615.0,560.0" stroke="#000" stroke-width="1" /><polyline fill="none" opacity="1.0" points="611.0,592.0 611.0,560.0" stroke="#000" stroke-width="1" /><polyline fill="none" opacity="1.0" points="607.0,592.0 607.0,560.0" stroke="#000" stroke-width="1" /><polyline fill="none" opacity="1.0" points="592.0,643.0 592.0,611.0" stroke="#000" stroke-width="1" /><polyline fill="none" opacity="1.0" points="588.0,643.0 588.0,611.0" stroke="#000" stroke-width="1" /><polyline fill="none" opacity="1.0" points="584.0,643.0 584.0,611.0" stroke="#000" stroke-width="1" /><polyline fill="none" opacity="1.0" points="580.0,643.0 580.0,611.0" stroke="#000" stroke-width="1" /><polyline fill="none" opacity="1.0" points="592.0,592.0 592.0,560.0" stroke="#000" stroke-width="1" /><polyline fill="none" opacity="1.0" points="588.0,592.0 588.0,560.0" stroke="#000" stroke-width="1" /><polyline fill="none" opacity="1.0" points="584.0,592.0 584.0,560.0" stroke="#000" stroke-width="1" /><polyline fill="none" opacity="1.0" points="580.0,592.0 580.0,560.0" stroke="#000" stroke-width="1" /><polyline fill="none" opacity="1.0" points="30.0,624.0 30.0,578.0" stroke="#000" stroke-width="1" /><polyline fill="none" opacity="1.0" points="26.0,624.0 26.0,578.0" stroke="#000" stroke-width="1" /><polyline fill="none" opacity="1.0" points="22.0,624.0 22.0,578.0" stroke="#000" stroke-width="1" /><polyline fill="none" opacity="1.0" points="18.0,624.0 18.0,578.0" stroke="#000" stroke-width="1" /><polyline fill="none" opacity="1.0" points="14.0,624.0 14.0,578.0" stroke="#000" stroke-width="1" /><polyline fill="none" opacity="1.0" points="10.0,624.0 10.0,578.0" stroke="#000" stroke-width="1" /><polyline fill="none" opacity="1.0" points="6.0,624.0 6.0,578.0" stroke="#000" stroke-width="1" /><polygon fill="#CCC" opacity="1.0" points="618.0,611.0 563.0,611.0 563.0,592.0 618.0,592.0" stroke="#000" stroke-width="1" /><polyline fill="none" opacity="1.0" points="522.0,653.0 522.0,661.0 552.0,661.0 552.0,653.0" stroke="#000" stroke-width="1" /><text fill="#FFF" font-family="Arial" font-size="10" font-weight="normal" opacity="1.0" transform="rotate(-0.0 524.0,650.0) translate(0 10)" x="524.0" y="650.0">кассы</text><polyline fill="none" opacity="1.0" points="519.0,642.0 513.0,642.0" stroke="#090" stroke-width="1" /><polyline fill="none" opacity="1.0" points="519.0,638.0 513.0,638.0" stroke="#090" stroke-width="1" /><polyline fill="none" opacity="1.0" points="519.0,634.0 513.0,634.0" stroke="#090" stroke-width="1" /><polyline fill="none" opacity="1.0" points="519.0,630.0 513.0,630.0" stroke="#090" stroke-width="1" /><polyline fill="none" opacity="1.0" points="519.0,626.0 513.0,626.0" stroke="#090" stroke-width="1" /><polyline fill="none" opacity="1.0" points="519.0,622.0 513.0,622.0" stroke="#090" stroke-width="1" /><polyline fill="none" opacity="1.0" points="519.0,618.0 513.0,618.0" stroke="#090" stroke-width="1" /><polyline fill="none" opacity="1.0" points="519.0,614.0 513.0,614.0" stroke="#090" stroke-width="1" /><polyline fill="none" opacity="1.0" points="519.0,610.0 513.0,610.0" stroke="#090" stroke-width="1" /><polyline fill="none" opacity="1.0" points="519.0,606.0 513.0,606.0" stroke="#090" stroke-width="1" /><polyline fill="none" opacity="1.0" points="519.0,558.0 513.0,558.0" stroke="#F00" stroke-width="1" /><polyline fill="none" opacity="1.0" points="519.0,562.0 513.0,562.0" stroke="#F00" stroke-width="1" /><polyline fill="none" opacity="1.0" points="519.0,566.0 513.0,566.0" stroke="#F00" stroke-width="1" /><polyline fill="none" opacity="1.0" points="519.0,570.0 513.0,570.0" stroke="#F00" stroke-width="1" /><polyline fill="none" opacity="1.0" points="519.0,574.0 513.0,574.0" stroke="#F00" stroke-width="1" /><polyline fill="none" opacity="1.0" points="519.0,578.0 513.0,578.0" stroke="#F00" stroke-width="1" /><polyline fill="none" opacity="1.0" points="519.0,582.0 513.0,582.0" stroke="#F00" stroke-width="1" /><polyline fill="none" opacity="1.0" points="519.0,586.0 513.0,586.0" stroke="#F00" stroke-width="1" /><polyline fill="none" opacity="1.0" points="519.0,590.0 513.0,590.0" stroke="#F00" stroke-width="1" /><polyline fill="none" opacity="1.0" points="519.0,594.0 513.0,594.0" stroke="#F00" stroke-width="1" /><polyline fill="none" opacity="1.0" points="519.0,598.0 513.0,598.0" stroke="#F00" stroke-width="1" /><polyline fill="none" opacity="1.0" points="634.0,592.0 648.0,592.0" stroke="#F00" stroke-width="1" /><polygon fill="#F00" opacity="1.0" points="643.9431,593.087 648.0,592.0 643.9431,590.913" stroke="#F00" stroke-width="1" /><polyline fill="none" opacity="1.0" points="629.0,577.0 639.0,567.0" stroke="#F00" stroke-width="1" /><polygon fill="#F00" opacity="1.0" points="636.8787,570.6742 639.0,567.0 635.3258,569.1213" stroke="#F00" stroke-width="1" /><polyline fill="none" opacity="1.0" points="634.0,691.0 621.0,691.0" stroke="#090" stroke-width="1" /><polygon fill="#090" opacity="1.0" points="624.7671,689.9906 621.0,691.0 624.7671,692.0094" stroke="#090" stroke-width="1" /><polyline fill="none" opacity="1.0" points="652.0,650.0 643.0,641.0" stroke="#090" stroke-width="1" /><polygon fill="#090" opacity="1.0" points="646.3068,642.9092 643.0,641.0 644.9092,644.3068" stroke="#090" stroke-width="1" /><polyline fill="none" opacity="1.0" points="666.0,613.0 653.0,613.0" stroke="#090" stroke-width="1" /><polygon fill="#090" opacity="1.0" points="656.7671,611.9906 653.0,613.0 656.7671,614.0094" stroke="#090" stroke-width="1" /><text fill="#00AFAF" font-family="Arial" font-size="15" font-weight="normal" opacity="1.0" transform="rotate(-0.0 815.0,586.0) translate(0 15)" x="815.0" y="586.0">Комендантский проспект</text><text fill="#00AFAF" font-family="Arial" font-size="15" font-weight="normal" opacity="1.0" transform="rotate(-45.0 534.0,1063.0) translate(0 15)" x="534.0" y="1063.0">улица Ильюшина</text><text fill="#00AFAF" font-family="Arial" font-size="15" font-weight="normal" opacity="1.0" transform="rotate(-135.0 750.0,229.0) translate(0 15)" x="750.0" y="229.0">улица Уточкина</text><text fill="#00AFAF" font-family="Arial" font-size="15" font-weight="normal" opacity="1.0" transform="rotate(-135.0 757.0,992.0) translate(0 15)" x="757.0" y="992.0">улица Гаккелевская</text><text fill="#00AFAF" font-family="Arial" font-size="12" font-weight="normal" opacity="1.0" transform="rotate(-0.0 670.0,588.0) translate(0 12)" x="670.0" y="588.0">переход в</text><text fill="#00AFAF" font-family="Arial" font-size="12" font-weight="normal" opacity="1.0" transform="rotate(-0.0 670.0,601.0) translate(0 12)" x="670.0" y="601.0">ТРК "Атмосфера"</text><text fill="#F00" font-family="Arial" font-size="10" font-weight="normal" opacity="1.0" transform="rotate(-90.0 -27.0,523.0) translate(0 10)" x="-27.0" y="523.0">Выход проектируется</text></g></g></svg>