<?xml version="1.0" encoding="utf-8" ?>
<svg baseProfile="tiny" height="800px" version="1.2" width="920px" xmlns="http://www.w3.org/2000/svg" xmlns:ev="http://www.w3.org/2001/xml-events" xmlns:xlink="http://www.w3.org/1999/xlink"><defs /><g><g transform="rotate(40.0,460.0,400.0)"><polygon fill="#ea7125" opacity="100" points="389.0,378.0 389.0,348.0 839.0,348.0 839.0,378.0" stroke="#000" stroke-width="1" /><polygon fill="#ea7125" opacity="100" points="389.0,458.0 389.0,488.0 839.0,488.0 839.0,458.0" stroke="#000" stroke-width="1" /><text fill="#ea7125" font-family="Arial" font-size="20" font-weight="normal" opacity="100" transform="rotate(-0.0 390.0,323.0) translate(0 20)" x="390.0" y="323.0">&lt;&lt; Новочеркасская</text><text fill="#ea7125" font-family="Arial" font-size="20" font-weight="normal" opacity="100" transform="rotate(-0.0 618.0,488.0) translate(0 20)" x="618.0" y="488.0">Проспект Большевиков &gt;&gt;</text><text fill="#ea7125" font-family="Arial" font-size="25" font-weight="bold" opacity="100" transform="rotate(-0.0 539.0,402.0) translate(0 25)" x="539.0" y="402.0">Ладожская</text><polyline fill="none" opacity="100" points="839.0,378.0 839.0,388.0 803.0,388.0 803.0,446.0 839.0,446.0 839.0,458.0" stroke="#000" stroke-width="1" /><polygon fill="#FEFBF1" opacity="100" points="54.0,307.0 207.0,307.0 207.0,324.0 224.0,324.0 224.0,510.0 207.0,510.0 207.0,527.0 54.0,527.0 54.0,510.0 38.0,510.0 38.0,324.0 54.0,324.0" stroke="#DDD" stroke-width="1" /><polygon fill="#CCC" opacity="100" points="54.0,320.0 54.0,307.0 207.0,307.0 207.0,320.0" stroke="#000" stroke-width="1" /><polyline fill="none" opacity="100" points="389.0,378.0 389.0,389.0 340.0,389.0 340.0,392.0" stroke="#000" stroke-width="1" /><polyline fill="none" opacity="100" points="389.0,458.0 389.0,448.0 340.0,448.0 340.0,445.0" stroke="#000" stroke-width="1" /><polyline fill="none" opacity="100" points="342.0,442.0 342.0,395.0" stroke="#7F7F7F" stroke-width="1" /><polyline fill="none" opacity="100" points="338.0,442.0 338.0,395.0" stroke="#7F7F7F" stroke-width="1" /><polyline fill="none" opacity="100" points="334.0,442.0 334.0,395.0" stroke="#7F7F7F" stroke-width="1" /><polyline fill="none" opacity="100" points="330.0,442.0 330.0,395.0" stroke="#7F7F7F" stroke-width="1" /><polyline fill="none" opacity="100" points="326.0,442.0 326.0,395.0" stroke="#7F7F7F" stroke-width="1" /><polyline fill="none" opacity="100" points="322.0,442.0 322.0,395.0" stroke="#7F7F7F" stroke-width="1" /><polyline fill="none" opacity="100" points="318.0,442.0 318.0,395.0" stroke="#7F7F7F" stroke-width="1" /><polyline fill="none" opacity="100" points="314.0,442.0 314.0,395.0" stroke="#7F7F7F" stroke-width="1" /><polyline fill="none" opacity="100" points="310.0,442.0 310.0,395.0" stroke="#7F7F7F" stroke-width="1" /><polyline fill="none" opacity="100" points="306.0,442.0 306.0,395.0" stroke="#7F7F7F" stroke-width="1" /><polyline fill="none" opacity="100" points="302.0,442.0 302.0,395.0" stroke="#7F7F7F" stroke-width="1" /><polyline fill="none" opacity="100" points="298.0,442.0 298.0,395.0" stroke="#7F7F7F" stroke-width="1" /><polyline fill="none" opacity="100" points="294.0,442.0 294.0,395.0" stroke="#7F7F7F" stroke-width="1" /><polyline fill="none" opacity="100" points="290.0,442.0 290.0,395.0" stroke="#7F7F7F" stroke-width="1" /><polyline fill="none" opacity="100" points="286.0,442.0 286.0,395.0" stroke="#7F7F7F" stroke-width="1" /><polyline fill="none" opacity="100" points="282.0,442.0 282.0,395.0" stroke="#7F7F7F" stroke-width="1" /><polyline fill="none" opacity="100" points="278.0,442.0 278.0,395.0" stroke="#7F7F7F" stroke-width="1" /><polyline fill="none" opacity="100" points="274.0,442.0 274.0,395.0" stroke="#7F7F7F" stroke-width="1" /><polyline fill="none" opacity="100" points="270.0,442.0 270.0,395.0" stroke="#7F7F7F" stroke-width="1" /><polyline fill="none" opacity="100" points="266.0,442.0 266.0,395.0" stroke="#7F7F7F" stroke-width="1" /><polyline fill="none" opacity="100" points="262.0,442.0 262.0,395.0" stroke="#7F7F7F" stroke-width="1" /><polyline fill="none" opacity="100" points="258.0,442.0 258.0,395.0" stroke="#7F7F7F" stroke-width="1" /><polyline fill="none" opacity="100" points="254.0,442.0 254.0,395.0" stroke="#7F7F7F" stroke-width="1" /><polyline fill="none" opacity="100" points="250.0,442.0 250.0,395.0" stroke="#7F7F7F" stroke-width="1" /><polyline fill="none" opacity="100" points="246.0,442.0 246.0,395.0" stroke="#7F7F7F" stroke-width="1" /><polyline fill="none" opacity="100" points="242.0,442.0 242.0,395.0" stroke="#7F7F7F" stroke-width="1" /><polyline fill="none" opacity="100" points="238.0,442.0 238.0,395.0" stroke="#7F7F7F" stroke-width="1" /><polyline fill="none" opacity="100" points="234.0,442.0 234.0,395.0" stroke="#7F7F7F" stroke-width="1" /><polyline fill="none" opacity="100" points="230.0,442.0 230.0,395.0" stroke="#7F7F7F" stroke-width="1" /><polyline fill="none" opacity="100" points="226.0,442.0 226.0,395.0" stroke="#7F7F7F" stroke-width="1" /><polyline fill="none" opacity="100" points="222.0,442.0 222.0,395.0" stroke="#7F7F7F" stroke-width="1" /><polyline fill="none" opacity="100" points="218.0,442.0 218.0,395.0" stroke="#7F7F7F" stroke-width="1" /><polyline fill="none" opacity="100" points="214.0,442.0 214.0,395.0" stroke="#7F7F7F" stroke-width="1" /><polyline fill="none" opacity="100" points="210.0,442.0 210.0,395.0" stroke="#7F7F7F" stroke-width="1" /><polyline fill="none" opacity="100" points="206.0,442.0 206.0,395.0" stroke="#7F7F7F" stroke-width="1" /><polyline fill="none" opacity="100" points="202.0,442.0 202.0,395.0" stroke="#7F7F7F" stroke-width="1" /><polyline fill="none" opacity="100" points="198.0,442.0 198.0,395.0" stroke="#7F7F7F" stroke-width="1" /><polyline fill="none" opacity="100" points="194.0,442.0 194.0,395.0" stroke="#7F7F7F" stroke-width="1" /><polyline fill="none" opacity="100" points="190.0,442.0 190.0,395.0" stroke="#7F7F7F" stroke-width="1" /><polyline fill="none" opacity="100" points="186.0,442.0 186.0,395.0" stroke="#7F7F7F" stroke-width="1" /><polyline fill="none" opacity="100" points="182.0,442.0 182.0,395.0" stroke="#7F7F7F" stroke-width="1" /><polyline fill="none" opacity="100" points="178.0,442.0 178.0,395.0" stroke="#7F7F7F" stroke-width="1" /><polyline fill="none" opacity="100" points="174.0,442.0 174.0,395.0" stroke="#7F7F7F" stroke-width="1" /><polyline fill="none" opacity="100" points="170.0,442.0 170.0,395.0" stroke="#7F7F7F" stroke-width="1" /><polyline fill="none" opacity="100" points="166.0,442.0 166.0,395.0" stroke="#7F7F7F" stroke-width="1" /><polyline fill="none" opacity="100" points="162.0,442.0 162.0,395.0" stroke="#7F7F7F" stroke-width="1" /><polyline fill="none" opacity="100" points="158.0,442.0 158.0,395.0" stroke="#7F7F7F" stroke-width="1" /><polygon fill="#9B5509" opacity="100" points="349.0,395.0 151.0,395.0 151.0,392.0 349.0,392.0" stroke="#000" stroke-width="1" /><polygon fill="#9B5509" opacity="100" points="349.0,403.0 349.0,408.0 151.0,408.0 151.0,403.0" stroke="#000" stroke-width="1" /><polygon fill="#9B5509" opacity="100" points="349.0,416.0 349.0,421.0 151.0,421.0 151.0,416.0" stroke="#000" stroke-width="1" /><polygon fill="#9B5509" opacity="100" points="349.0,429.0 349.0,434.0 151.0,434.0 151.0,429.0" stroke="#000" stroke-width="1" /><polygon fill="#9B5509" opacity="100" points="349.0,442.0 151.0,442.0 151.0,445.0 349.0,445.0" stroke="#000" stroke-width="1" /><polygon fill="#FFF" opacity="0.8" points="188.0,391.0 224.0,391.0 224.0,446.0 188.0,446.0 195.0,439.0 200.0,434.0 205.0,427.0 205.0,419.0 205.0,411.0 199.0,403.0 195.0,398.0" stroke="#FFF" stroke-width="1" /><polyline fill="none" opacity="1.0" points="188.0,392.0 191.9844,395.4297 195.4375,398.8438 198.3594,402.2422 200.75,405.625 202.6094,408.9922 203.9375,412.3438 204.7344,415.6797 205.0,419.0 204.7344,422.3047 203.9375,425.5938 202.6094,428.8672 200.75,432.125 198.3594,435.3672 195.4375,438.5938 191.9844,441.8047 188.0,445.0" stroke="#000" stroke-width="1" /><polyline fill="none" opacity="1.0" points="44.0,342.0 38.0,342.0 38.0,324.0 54.0,324.0 54.0,307.0 207.0,307.0 207.0,324.0 224.0,324.0 224.0,342.0 218.0,342.0" stroke="#000" stroke-width="1" /><polyline fill="none" opacity="1.0" points="218.0,376.0 224.0,376.0 224.0,459.0 218.0,459.0" stroke="#000" stroke-width="1" /><polyline fill="none" opacity="1.0" points="218.0,494.0 224.0,494.0 224.0,510.0 207.0,510.0 207.0,527.0 54.0,527.0 54.0,510.0 38.0,510.0 38.0,494.0 43.0,494.0" stroke="#000" stroke-width="1" /><polyline fill="none" opacity="1.0" points="44.0,459.0 39.0,459.0 39.0,376.0 44.0,376.0" stroke="#000" stroke-width="1" /><polyline fill="none" opacity="1.0" points="163.0,392.0 146.0,375.0" stroke="#000" stroke-width="0.5" /><polyline fill="none" opacity="1.0" points="114.0,375.0 101.0,375.0 99.0,381.0" stroke="#000" stroke-width="0.5" /><polyline fill="none" opacity="1.0" points="89.0,410.0 86.0,418.0 151.0,418.0" stroke="#000" stroke-width="0.5" /><polyline fill="none" opacity="1.0" points="146.0,372.0 146.0,378.0" stroke="#090" stroke-width="1" /><polyline fill="none" opacity="1.0" points="142.0,372.0 142.0,378.0" stroke="#090" stroke-width="1" /><polyline fill="none" opacity="1.0" points="138.0,372.0 138.0,378.0" stroke="#090" stroke-width="1" /><polyline fill="none" opacity="1.0" points="134.0,372.0 134.0,378.0" stroke="#090" stroke-width="1" /><polyline fill="none" opacity="1.0" points="130.0,372.0 130.0,378.0" stroke="#090" stroke-width="1" /><polyline fill="none" opacity="1.0" points="126.0,372.0 126.0,378.0" stroke="#090" stroke-width="1" /><polyline fill="none" opacity="1.0" points="122.0,372.0 122.0,378.0" stroke="#090" stroke-width="1" /><polyline fill="none" opacity="1.0" points="118.0,372.0 118.0,378.0" stroke="#090" stroke-width="1" /><polyline fill="none" opacity="1.0" points="114.0,372.0 114.0,378.0" stroke="#090" stroke-width="1" /><polyline fill="none" opacity="1.0" points="96.0,380.0 102.0,382.0" stroke="#090" stroke-width="1" /><polyline fill="none" opacity="1.0" points="94.7351,383.7947 100.7351,385.7947" stroke="#090" stroke-width="1" /><polyline fill="none" opacity="1.0" points="93.4702,387.5895 99.4702,389.5895" stroke="#090" stroke-width="1" /><polyline fill="none" opacity="1.0" points="92.2053,391.3842 98.2053,393.3842" stroke="#090" stroke-width="1" /><polyline fill="none" opacity="1.0" points="90.9404,395.1789 96.9404,397.1789" stroke="#090" stroke-width="1" /><polyline fill="none" opacity="1.0" points="89.6754,398.9737 95.6754,400.9737" stroke="#090" stroke-width="1" /><polyline fill="none" opacity="1.0" points="88.4105,402.7684 94.4105,404.7684" stroke="#090" stroke-width="1" /><polyline fill="none" opacity="1.0" points="87.1456,406.5631 93.1456,408.5631" stroke="#090" stroke-width="1" /><polygon fill="#FFF" opacity="1.0" points="85.0,320.0 85.0,311.0 171.0,311.0 171.0,320.0" stroke="#000" stroke-width="1" /><text fill="#000" font-family="Arial" font-size="10" font-weight="normal" opacity="1.0" transform="rotate(-0.0 114.0,308.0) translate(0 10)" x="114.0" y="308.0">кассы</text><polyline fill="none" opacity="1.0" points="875.0,572.0 875.0,185.0" stroke="#000" stroke-width="1" /><polyline fill="none" opacity="1.0" points="865.0,572.0 865.0,185.0" stroke="#000" stroke-width="1" /><polyline fill="none" opacity="1.0" points="877.0,189.0 863.0,189.0" stroke="#000" stroke-width="1" /><polyline fill="none" opacity="1.0" points="877.0,193.0 863.0,193.0" stroke="#000" stroke-width="1" /><polyline fill="none" opacity="1.0" points="877.0,197.0 863.0,197.0" stroke="#000" stroke-width="1" /><polyline fill="none" opacity="1.0" points="877.0,201.0 863.0,201.0" stroke="#000" stroke-width="1" /><polyline fill="none" opacity="1.0" points="877.0,205.0 863.0,205.0" stroke="#000" stroke-width="1" /><polyline fill="none" opacity="1.0" points="877.0,209.0 863.0,209.0" stroke="#000" stroke-width="1" /><polyline fill="none" opacity="1.0" points="877.0,213.0 863.0,213.0" stroke="#000" stroke-width="1" /><polyline fill="none" opacity="1.0" points="877.0,217.0 863.0,217.0" stroke="#000" stroke-width="1" /><polyline fill="none" opacity="1.0" points="877.0,221.0 863.0,221.0" stroke="#000" stroke-width="1" /><polyline fill="none" opacity="1.0" points="877.0,225.0 863.0,225.0" stroke="#000" stroke-width="1" /><polyline fill="none" opacity="1.0" points="877.0,229.0 863.0,229.0" stroke="#000" stroke-width="1" /><polyline fill="none" opacity="1.0" points="877.0,233.0 863.0,233.0" stroke="#000" stroke-width="1" /><polyline fill="none" opacity="1.0" points="877.0,237.0 863.0,237.0" stroke="#000" stroke-width="1" /><polyline fill="none" opacity="1.0" points="877.0,241.0 863.0,241.0" stroke="#000" stroke-width="1" /><polyline fill="none" opacity="1.0" points="877.0,245.0 863.0,245.0" stroke="#000" stroke-width="1" /><polyline fill="none" opacity="1.0" points="877.0,249.0 863.0,249.0" stroke="#000" stroke-width="1" /><polyline fill="none" opacity="1.0" points="877.0,253.0 863.0,253.0" stroke="#000" stroke-width="1" /><polyline fill="none" opacity="1.0" points="877.0,257.0 863.0,257.0" stroke="#000" stroke-width="1" /><polyline fill="none" opacity="1.0" points="877.0,261.0 863.0,261.0" stroke="#000" stroke-width="1" /><polyline fill="none" opacity="1.0" points="877.0,265.0 863.0,265.0" stroke="#000" stroke-width="1" /><polyline fill="none" opacity="1.0" points="877.0,269.0 863.0,269.0" stroke="#000" stroke-width="1" /><polyline fill="none" opacity="1.0" points="877.0,273.0 863.0,273.0" stroke="#000" stroke-width="1" /><polyline fill="none" opacity="1.0" points="877.0,277.0 863.0,277.0" stroke="#000" stroke-width="1" /><polyline fill="none" opacity="1.0" points="877.0,281.0 863.0,281.0" stroke="#000" stroke-width="1" /><polyline fill="none" opacity="1.0" points="877.0,285.0 863.0,285.0" stroke="#000" stroke-width="1" /><polyline fill="none" opacity="1.0" points="877.0,289.0 863.0,289.0" stroke="#000" stroke-width="1" /><polyline fill="none" opacity="1.0" points="877.0,293.0 863.0,293.0" stroke="#000" stroke-width="1" /><polyline fill="none" opacity="1.0" points="877.0,297.0 863.0,297.0" stroke="#000" stroke-width="1" /><polyline fill="none" opacity="1.0" points="877.0,301.0 863.0,301.0" stroke="#000" stroke-width="1" /><polyline fill="none" opacity="1.0" points="877.0,305.0 863.0,305.0" stroke="#000" stroke-width="1" /><polyline fill="none" opacity="1.0" points="877.0,309.0 863.0,309.0" stroke="#000" stroke-width="1" /><polyline fill="none" opacity="1.0" points="877.0,313.0 863.0,313.0" stroke="#000" stroke-width="1" /><polyline fill="none" opacity="1.0" points="877.0,317.0 863.0,317.0" stroke="#000" stroke-width="1" /><polyline fill="none" opacity="1.0" points="877.0,321.0 863.0,321.0" stroke="#000" stroke-width="1" /><polyline fill="none" opacity="1.0" points="877.0,325.0 863.0,325.0" stroke="#000" stroke-width="1" /><polyline fill="none" opacity="1.0" points="877.0,329.0 863.0,329.0" stroke="#000" stroke-width="1" /><polyline fill="none" opacity="1.0" points="877.0,333.0 863.0,333.0" stroke="#000" stroke-width="1" /><polyline fill="none" opacity="1.0" points="877.0,337.0 863.0,337.0" stroke="#000" stroke-width="1" /><polyline fill="none" opacity="1.0" points="877.0,341.0 863.0,341.0" stroke="#000" stroke-width="1" /><polyline fill="none" opacity="1.0" points="877.0,345.0 863.0,345.0" stroke="#000" stroke-width="1" /><polyline fill="none" opacity="1.0" points="877.0,349.0 863.0,349.0" stroke="#000" stroke-width="1" /><polyline fill="none" opacity="1.0" points="877.0,353.0 863.0,353.0" stroke="#000" stroke-width="1" /><polyline fill="none" opacity="1.0" points="877.0,357.0 863.0,357.0" stroke="#000" stroke-width="1" /><polyline fill="none" opacity="1.0" points="877.0,361.0 863.0,361.0" stroke="#000" stroke-width="1" /><polyline fill="none" opacity="1.0" points="877.0,365.0 863.0,365.0" stroke="#000" stroke-width="1" /><polyline fill="none" opacity="1.0" points="877.0,369.0 863.0,369.0" stroke="#000" stroke-width="1" /><polyline fill="none" opacity="1.0" points="877.0,373.0 863.0,373.0" stroke="#000" stroke-width="1" /><polyline fill="none" opacity="1.0" points="877.0,377.0 863.0,377.0" stroke="#000" stroke-width="1" /><polyline fill="none" opacity="1.0" points="877.0,381.0 863.0,381.0" stroke="#000" stroke-width="1" /><polyline fill="none" opacity="1.0" points="877.0,385.0 863.0,385.0" stroke="#000" stroke-width="1" /><polyline fill="none" opacity="1.0" points="877.0,389.0 863.0,389.0" stroke="#000" stroke-width="1" /><polyline fill="none" opacity="1.0" points="877.0,393.0 863.0,393.0" stroke="#000" stroke-width="1" /><polyline fill="none" opacity="1.0" points="877.0,397.0 863.0,397.0" stroke="#000" stroke-width="1" /><polyline fill="none" opacity="1.0" points="877.0,401.0 863.0,401.0" stroke="#000" stroke-width="1" /><polyline fill="none" opacity="1.0" points="877.0,405.0 863.0,405.0" stroke="#000" stroke-width="1" /><polyline fill="none" opacity="1.0" points="877.0,409.0 863.0,409.0" stroke="#000" stroke-width="1" /><polyline fill="none" opacity="1.0" points="877.0,413.0 863.0,413.0" stroke="#000" stroke-width="1" /><polyline fill="none" opacity="1.0" points="877.0,417.0 863.0,417.0" stroke="#000" stroke-width="1" /><polyline fill="none" opacity="1.0" points="877.0,421.0 863.0,421.0" stroke="#000" stroke-width="1" /><polyline fill="none" opacity="1.0" points="877.0,425.0 863.0,425.0" stroke="#000" stroke-width="1" /><polyline fill="none" opacity="1.0" points="877.0,429.0 863.0,429.0" stroke="#000" stroke-width="1" /><polyline fill="none" opacity="1.0" points="877.0,433.0 863.0,433.0" stroke="#000" stroke-width="1" /><polyline fill="none" opacity="1.0" points="877.0,437.0 863.0,437.0" stroke="#000" stroke-width="1" /><polyline fill="none" opacity="1.0" points="877.0,441.0 863.0,441.0" stroke="#000" stroke-width="1" /><polyline fill="none" opacity="1.0" points="877.0,445.0 863.0,445.0" stroke="#000" stroke-width="1" /><polyline fill="none" opacity="1.0" points="877.0,449.0 863.0,449.0" stroke="#000" stroke-width="1" /><polyline fill="none" opacity="1.0" points="877.0,453.0 863.0,453.0" stroke="#000" stroke-width="1" /><polyline fill="none" opacity="1.0" points="877.0,457.0 863.0,457.0" stroke="#000" stroke-width="1" /><polyline fill="none" opacity="1.0" points="877.0,461.0 863.0,461.0" stroke="#000" stroke-width="1" /><polyline fill="none" opacity="1.0" points="877.0,465.0 863.0,465.0" stroke="#000" stroke-width="1" /><polyline fill="none" opacity="1.0" points="877.0,469.0 863.0,469.0" stroke="#000" stroke-width="1" /><polyline fill="none" opacity="1.0" points="877.0,473.0 863.0,473.0" stroke="#000" stroke-width="1" /><polyline fill="none" opacity="1.0" points="877.0,477.0 863.0,477.0" stroke="#000" stroke-width="1" /><polyline fill="none" opacity="1.0" points="877.0,481.0 863.0,481.0" stroke="#000" stroke-width="1" /><polyline fill="none" opacity="1.0" points="877.0,485.0 863.0,485.0" stroke="#000" stroke-width="1" /><polyline fill="none" opacity="1.0" points="877.0,489.0 863.0,489.0" stroke="#000" stroke-width="1" /><polyline fill="none" opacity="1.0" points="877.0,493.0 863.0,493.0" stroke="#000" stroke-width="1" /><polyline fill="none" opacity="1.0" points="877.0,497.0 863.0,497.0" stroke="#000" stroke-width="1" /><polyline fill="none" opacity="1.0" points="877.0,501.0 863.0,501.0" stroke="#000" stroke-width="1" /><polyline fill="none" opacity="1.0" points="877.0,505.0 863.0,505.0" stroke="#000" stroke-width="1" /><polyline fill="none" opacity="1.0" points="877.0,509.0 863.0,509.0" stroke="#000" stroke-width="1" /><polyline fill="none" opacity="1.0" points="877.0,513.0 863.0,513.0" stroke="#000" stroke-width="1" /><polyline fill="none" opacity="1.0" points="877.0,517.0 863.0,517.0" stroke="#000" stroke-width="1" /><polyline fill="none" opacity="1.0" points="877.0,521.0 863.0,521.0" stroke="#000" stroke-width="1" /><polyline fill="none" opacity="1.0" points="877.0,525.0 863.0,525.0" stroke="#000" stroke-width="1" /><polyline fill="none" opacity="1.0" points="877.0,529.0 863.0,529.0" stroke="#000" stroke-width="1" /><polyline fill="none" opacity="1.0" points="877.0,533.0 863.0,533.0" stroke="#000" stroke-width="1" /><polyline fill="none" opacity="1.0" points="877.0,537.0 863.0,537.0" stroke="#000" stroke-width="1" /><polyline fill="none" opacity="1.0" points="877.0,541.0 863.0,541.0" stroke="#000" stroke-width="1" /><polyline fill="none" opacity="1.0" points="877.0,545.0 863.0,545.0" stroke="#000" stroke-width="1" /><polyline fill="none" opacity="1.0" points="877.0,549.0 863.0,549.0" stroke="#000" stroke-width="1" /><polyline fill="none" opacity="1.0" points="877.0,553.0 863.0,553.0" stroke="#000" stroke-width="1" /><polyline fill="none" opacity="1.0" points="877.0,557.0 863.0,557.0" stroke="#000" stroke-width="1" /><polyline fill="none" opacity="1.0" points="877.0,561.0 863.0,561.0" stroke="#000" stroke-width="1" /><polyline fill="none" opacity="1.0" points="877.0,565.0 863.0,565.0" stroke="#000" stroke-width="1" /><polyline fill="none" opacity="1.0" points="877.0,569.0 863.0,569.0" stroke="#000" stroke-width="1" /><polyline fill="none" opacity="1.0" points="905.0,546.0 905.0,212.0" stroke="#000" stroke-width="1" /><polyline fill="none" opacity="1.0" points="895.0,546.0 895.0,212.0" stroke="#000" stroke-width="1" /><polyline fill="none" opacity="1.0" points="907.0,216.0 893.0,216.0" stroke="#000" stroke-width="1" /><polyline fill="none" opacity="1.0" points="907.0,220.0 893.0,220.0" stroke="#000" stroke-width="1" /><polyline fill="none" opacity="1.0" points="907.0,224.0 893.0,224.0" stroke="#000" stroke-width="1" /><polyline fill="none" opacity="1.0" points="907.0,228.0 893.0,228.0" stroke="#000" stroke-width="1" /><polyline fill="none" opacity="1.0" points="907.0,232.0 893.0,232.0" stroke="#000" stroke-width="1" /><polyline fill="none" opacity="1.0" points="907.0,236.0 893.0,236.0" stroke="#000" stroke-width="1" /><polyline fill="none" opacity="1.0" points="907.0,240.0 893.0,240.0" stroke="#000" stroke-width="1" /><polyline fill="none" opacity="1.0" points="907.0,244.0 893.0,244.0" stroke="#000" stroke-width="1" /><polyline fill="none" opacity="1.0" points="907.0,248.0 893.0,248.0" stroke="#000" stroke-width="1" /><polyline fill="none" opacity="1.0" points="907.0,252.0 893.0,252.0" stroke="#000" stroke-width="1" /><polyline fill="none" opacity="1.0" points="907.0,256.0 893.0,256.0" stroke="#000" stroke-width="1" /><polyline fill="none" opacity="1.0" points="907.0,260.0 893.0,260.0" stroke="#000" stroke-width="1" /><polyline fill="none" opacity="1.0" points="907.0,264.0 893.0,264.0" stroke="#000" stroke-width="1" /><polyline fill="none" opacity="1.0" points="907.0,268.0 893.0,268.0" stroke="#000" stroke-width="1" /><polyline fill="none" opacity="1.0" points="907.0,272.0 893.0,272.0" stroke="#000" stroke-width="1" /><polyline fill="none" opacity="1.0" points="907.0,276.0 893.0,276.0" stroke="#000" stroke-width="1" /><polyline fill="none" opacity="1.0" points="907.0,280.0 893.0,280.0" stroke="#000" stroke-width="1" /><polyline fill="none" opacity="1.0" points="907.0,284.0 893.0,284.0" stroke="#000" stroke-width="1" /><polyline fill="none" opacity="1.0" points="907.0,288.0 893.0,288.0" stroke="#000" stroke-width="1" /><polyline fill="none" opacity="1.0" points="907.0,292.0 893.0,292.0" stroke="#000" stroke-width="1" /><polyline fill="none" opacity="1.0" points="907.0,296.0 893.0,296.0" stroke="#000" stroke-width="1" /><polyline fill="none" opacity="1.0" points="907.0,300.0 893.0,300.0" stroke="#000" stroke-width="1" /><polyline fill="none" opacity="1.0" points="907.0,304.0 893.0,304.0" stroke="#000" stroke-width="1" /><polyline fill="none" opacity="1.0" points="907.0,308.0 893.0,308.0" stroke="#000" stroke-width="1" /><polyline fill="none" opacity="1.0" points="907.0,312.0 893.0,312.0" stroke="#000" stroke-width="1" /><polyline fill="none" opacity="1.0" points="907.0,316.0 893.0,316.0" stroke="#000" stroke-width="1" /><polyline fill="none" opacity="1.0" points="907.0,320.0 893.0,320.0" stroke="#000" stroke-width="1" /><polyline fill="none" opacity="1.0" points="907.0,324.0 893.0,324.0" stroke="#000" stroke-width="1" /><polyline fill="none" opacity="1.0" points="907.0,328.0 893.0,328.0" stroke="#000" stroke-width="1" /><polyline fill="none" opacity="1.0" points="907.0,332.0 893.0,332.0" stroke="#000" stroke-width="1" /><polyline fill="none" opacity="1.0" points="907.0,336.0 893.0,336.0" stroke="#000" stroke-width="1" /><polyline fill="none" opacity="1.0" points="907.0,340.0 893.0,340.0" stroke="#000" stroke-width="1" /><polyline fill="none" opacity="1.0" points="907.0,344.0 893.0,344.0" stroke="#000" stroke-width="1" /><polyline fill="none" opacity="1.0" points="907.0,348.0 893.0,348.0" stroke="#000" stroke-width="1" /><polyline fill="none" opacity="1.0" points="907.0,352.0 893.0,352.0" stroke="#000" stroke-width="1" /><polyline fill="none" opacity="1.0" points="907.0,356.0 893.0,356.0" stroke="#000" stroke-width="1" /><polyline fill="none" opacity="1.0" points="907.0,360.0 893.0,360.0" stroke="#000" stroke-width="1" /><polyline fill="none" opacity="1.0" points="907.0,364.0 893.0,364.0" stroke="#000" stroke-width="1" /><polyline fill="none" opacity="1.0" points="907.0,368.0 893.0,368.0" stroke="#000" stroke-width="1" /><polyline fill="none" opacity="1.0" points="907.0,372.0 893.0,372.0" stroke="#000" stroke-width="1" /><polyline fill="none" opacity="1.0" points="907.0,376.0 893.0,376.0" stroke="#000" stroke-width="1" /><polyline fill="none" opacity="1.0" points="907.0,380.0 893.0,380.0" stroke="#000" stroke-width="1" /><polyline fill="none" opacity="1.0" points="907.0,384.0 893.0,384.0" stroke="#000" stroke-width="1" /><polyline fill="none" opacity="1.0" points="907.0,388.0 893.0,388.0" stroke="#000" stroke-width="1" /><polyline fill="none" opacity="1.0" points="907.0,392.0 893.0,392.0" stroke="#000" stroke-width="1" /><polyline fill="none" opacity="1.0" points="907.0,396.0 893.0,396.0" stroke="#000" stroke-width="1" /><polyline fill="none" opacity="1.0" points="907.0,400.0 893.0,400.0" stroke="#000" stroke-width="1" /><polyline fill="none" opacity="1.0" points="907.0,404.0 893.0,404.0" stroke="#000" stroke-width="1" /><polyline fill="none" opacity="1.0" points="907.0,408.0 893.0,408.0" stroke="#000" stroke-width="1" /><polyline fill="none" opacity="1.0" points="907.0,412.0 893.0,412.0" stroke="#000" stroke-width="1" /><polyline fill="none" opacity="1.0" points="907.0,416.0 893.0,416.0" stroke="#000" stroke-width="1" /><polyline fill="none" opacity="1.0" points="907.0,420.0 893.0,420.0" stroke="#000" stroke-width="1" /><polyline fill="none" opacity="1.0" points="907.0,424.0 893.0,424.0" stroke="#000" stroke-width="1" /><polyline fill="none" opacity="1.0" points="907.0,428.0 893.0,428.0" stroke="#000" stroke-width="1" /><polyline fill="none" opacity="1.0" points="907.0,432.0 893.0,432.0" stroke="#000" stroke-width="1" /><polyline fill="none" opacity="1.0" points="907.0,436.0 893.0,436.0" stroke="#000" stroke-width="1" /><polyline fill="none" opacity="1.0" points="907.0,440.0 893.0,440.0" stroke="#000" stroke-width="1" /><polyline fill="none" opacity="1.0" points="907.0,444.0 893.0,444.0" stroke="#000" stroke-width="1" /><polyline fill="none" opacity="1.0" points="907.0,448.0 893.0,448.0" stroke="#000" stroke-width="1" /><polyline fill="none" opacity="1.0" points="907.0,452.0 893.0,452.0" stroke="#000" stroke-width="1" /><polyline fill="none" opacity="1.0" points="907.0,456.0 893.0,456.0" stroke="#000" stroke-width="1" /><polyline fill="none" opacity="1.0" points="907.0,460.0 893.0,460.0" stroke="#000" stroke-width="1" /><polyline fill="none" opacity="1.0" points="907.0,464.0 893.0,464.0" stroke="#000" stroke-width="1" /><polyline fill="none" opacity="1.0" points="907.0,468.0 893.0,468.0" stroke="#000" stroke-width="1" /><polyline fill="none" opacity="1.0" points="907.0,472.0 893.0,472.0" stroke="#000" stroke-width="1" /><polyline fill="none" opacity="1.0" points="907.0,476.0 893.0,476.0" stroke="#000" stroke-width="1" /><polyline fill="none" opacity="1.0" points="907.0,480.0 893.0,480.0" stroke="#000" stroke-width="1" /><polyline fill="none" opacity="1.0" points="907.0,484.0 893.0,484.0" stroke="#000" stroke-width="1" /><polyline fill="none" opacity="1.0" points="907.0,488.0 893.0,488.0" stroke="#000" stroke-width="1" /><polyline fill="none" opacity="1.0" points="907.0,492.0 893.0,492.0" stroke="#000" stroke-width="1" /><polyline fill="none" opacity="1.0" points="907.0,496.0 893.0,496.0" stroke="#000" stroke-width="1" /><polyline fill="none" opacity="1.0" points="907.0,500.0 893.0,500.0" stroke="#000" stroke-width="1" /><polyline fill="none" opacity="1.0" points="907.0,504.0 893.0,504.0" stroke="#000" stroke-width="1" /><polyline fill="none" opacity="1.0" points="907.0,508.0 893.0,508.0" stroke="#000" stroke-width="1" /><polyline fill="none" opacity="1.0" points="907.0,512.0 893.0,512.0" stroke="#000" stroke-width="1" /><polyline fill="none" opacity="1.0" points="907.0,516.0 893.0,516.0" stroke="#000" stroke-width="1" /><polyline fill="none" opacity="1.0" points="907.0,520.0 893.0,520.0" stroke="#000" stroke-width="1" /><polyline fill="none" opacity="1.0" points="907.0,524.0 893.0,524.0" stroke="#000" stroke-width="1" /><polyline fill="none" opacity="1.0" points="907.0,528.0 893.0,528.0" stroke="#000" stroke-width="1" /><polyline fill="none" opacity="1.0" points="907.0,532.0 893.0,532.0" stroke="#000" stroke-width="1" /><polyline fill="none" opacity="1.0" points="907.0,536.0 893.0,536.0" stroke="#000" stroke-width="1" /><polyline fill="none" opacity="1.0" points="907.0,540.0 893.0,540.0" stroke="#000" stroke-width="1" /><polyline fill="none" opacity="1.0" points="907.0,544.0 893.0,544.0" stroke="#000" stroke-width="1" /><polyline fill="none" opacity="1.0" points="41.0,476.0 28.0,476.0" stroke="#F00" stroke-width="1" /><polygon fill="#F00" opacity="1.0" points="31.7671,474.9906 28.0,476.0 31.7671,477.0094" stroke="#F00" stroke-width="1" /><polyline fill="none" opacity="1.0" points="220.0,476.0 233.0,476.0" stroke="#F00" stroke-width="1" /><polygon fill="#F00" opacity="1.0" points="229.2329,477.0094 233.0,476.0 229.2329,474.9906" stroke="#F00" stroke-width="1" /><polyline fill="none" opacity="1.0" points="29.0,358.0 42.0,358.0" stroke="#090" stroke-width="1" /><polygon fill="#090" opacity="1.0" points="38.2329,359.0094 42.0,358.0 38.2329,356.9906" stroke="#090" stroke-width="1" /><polyline fill="none" opacity="1.0" points="233.0,358.0 220.0,358.0" stroke="#090" stroke-width="1" /><polygon fill="#090" opacity="1.0" points="223.7671,356.9906 220.0,358.0 223.7671,359.0094" stroke="#090" stroke-width="1" /><text fill="#00AFAF" font-family="Arial" font-size="15" font-weight="normal" opacity="1.0" transform="rotate(-60.0 -92.0,405.0) translate(0 15)" x="-92.0" y="405.0">Заневский проспект</text><text fill="#00AFAF" font-family="Arial" font-size="15" font-weight="normal" opacity="1.0" transform="rotate(-130.0 27.0,593.0) translate(0 15)" x="27.0" y="593.0">проспект Энергетиков</text><text fill="#00AFAF" font-family="Arial" font-size="15" font-weight="normal" opacity="1.0" transform="rotate(-0.0 241.0,468.0) translate(0 15)" x="241.0" y="468.0">Ладожский вокзал &gt;&gt;</text></g></g></svg>