<?xml version="1.0" encoding="utf-8" ?>
<svg baseProfile="tiny" height="900px" version="1.2" width="1200px" xmlns="http://www.w3.org/2000/svg" xmlns:ev="http://www.w3.org/2001/xml-events" xmlns:xlink="http://www.w3.org/1999/xlink"><defs /><g><g transform="rotate(-20.0,600.0,450.0)"><polygon fill="#ea7125" opacity="100" points="808.0,261.0 808.0,231.0 1258.0,231.0 1258.0,261.0" stroke="#000" stroke-width="1" /><polygon fill="#ea7125" opacity="100" points="808.0,341.0 808.0,371.0 1258.0,371.0 1258.0,341.0" stroke="#000" stroke-width="1" /><text fill="#ea7125" font-family="Arial" font-size="20" font-weight="normal" opacity="100" transform="rotate(-0.0 811.0,207.0) translate(0 20)" x="811.0" y="207.0">&lt;&lt; Площадь Александра Невского-II</text><text fill="#ea7125" font-family="Arial" font-size="20" font-weight="normal" opacity="100" transform="rotate(-0.0 1141.0,371.0) translate(0 20)" x="1141.0" y="371.0">Ладожская &gt;&gt;</text><text fill="#ea7125" font-family="Arial" font-size="25" font-weight="bold" opacity="100" transform="rotate(-0.0 920.0,282.0) translate(0 25)" x="920.0" y="282.0">Новочеркасская</text><polyline fill="none" opacity="100" points="1258.0,341.0 1258.0,331.0 1221.0,331.0 1221.0,271.0 1258.0,271.0 1258.0,261.0" stroke="#000" stroke-width="1" /><polyline fill="none" opacity="100" points="808.0,261.0 808.0,279.0 752.0,279.0 752.0,283.0" stroke="#000" stroke-width="1" /><polyline fill="none" opacity="100" points="808.0,341.0 808.0,327.0 752.0,327.0 752.0,323.0" stroke="#000" stroke-width="1" /><polyline fill="none" opacity="100" points="754.0,320.0 754.0,286.0" stroke="#7F7F7F" stroke-width="1" /><polyline fill="none" opacity="100" points="750.0,320.0 750.0,286.0" stroke="#7F7F7F" stroke-width="1" /><polyline fill="none" opacity="100" points="746.0,320.0 746.0,286.0" stroke="#7F7F7F" stroke-width="1" /><polyline fill="none" opacity="100" points="742.0,320.0 742.0,286.0" stroke="#7F7F7F" stroke-width="1" /><polyline fill="none" opacity="100" points="738.0,320.0 738.0,286.0" stroke="#7F7F7F" stroke-width="1" /><polyline fill="none" opacity="100" points="734.0,320.0 734.0,286.0" stroke="#7F7F7F" stroke-width="1" /><polyline fill="none" opacity="100" points="730.0,320.0 730.0,286.0" stroke="#7F7F7F" stroke-width="1" /><polyline fill="none" opacity="100" points="726.0,320.0 726.0,286.0" stroke="#7F7F7F" stroke-width="1" /><polyline fill="none" opacity="100" points="722.0,320.0 722.0,286.0" stroke="#7F7F7F" stroke-width="1" /><polyline fill="none" opacity="100" points="718.0,320.0 718.0,286.0" stroke="#7F7F7F" stroke-width="1" /><polyline fill="none" opacity="100" points="714.0,320.0 714.0,286.0" stroke="#7F7F7F" stroke-width="1" /><polyline fill="none" opacity="100" points="710.0,320.0 710.0,286.0" stroke="#7F7F7F" stroke-width="1" /><polyline fill="none" opacity="100" points="706.0,320.0 706.0,286.0" stroke="#7F7F7F" stroke-width="1" /><polyline fill="none" opacity="100" points="702.0,320.0 702.0,286.0" stroke="#7F7F7F" stroke-width="1" /><polyline fill="none" opacity="100" points="698.0,320.0 698.0,286.0" stroke="#7F7F7F" stroke-width="1" /><polyline fill="none" opacity="100" points="694.0,320.0 694.0,286.0" stroke="#7F7F7F" stroke-width="1" /><polyline fill="none" opacity="100" points="690.0,320.0 690.0,286.0" stroke="#7F7F7F" stroke-width="1" /><polyline fill="none" opacity="100" points="686.0,320.0 686.0,286.0" stroke="#7F7F7F" stroke-width="1" /><polyline fill="none" opacity="100" points="682.0,320.0 682.0,286.0" stroke="#7F7F7F" stroke-width="1" /><polyline fill="none" opacity="100" points="678.0,320.0 678.0,286.0" stroke="#7F7F7F" stroke-width="1" /><polyline fill="none" opacity="100" points="674.0,320.0 674.0,286.0" stroke="#7F7F7F" stroke-width="1" /><polyline fill="none" opacity="100" points="670.0,320.0 670.0,286.0" stroke="#7F7F7F" stroke-width="1" /><polyline fill="none" opacity="100" points="666.0,320.0 666.0,286.0" stroke="#7F7F7F" stroke-width="1" /><polyline fill="none" opacity="100" points="662.0,320.0 662.0,286.0" stroke="#7F7F7F" stroke-width="1" /><polyline fill="none" opacity="100" points="658.0,320.0 658.0,286.0" stroke="#7F7F7F" stroke-width="1" /><polyline fill="none" opacity="100" points="654.0,320.0 654.0,286.0" stroke="#7F7F7F" stroke-width="1" /><polyline fill="none" opacity="100" points="650.0,320.0 650.0,286.0" stroke="#7F7F7F" stroke-width="1" /><polyline fill="none" opacity="100" points="646.0,320.0 646.0,286.0" stroke="#7F7F7F" stroke-width="1" /><polyline fill="none" opacity="100" points="642.0,320.0 642.0,286.0" stroke="#7F7F7F" stroke-width="1" /><polyline fill="none" opacity="100" points="638.0,320.0 638.0,286.0" stroke="#7F7F7F" stroke-width="1" /><polyline fill="none" opacity="100" points="634.0,320.0 634.0,286.0" stroke="#7F7F7F" stroke-width="1" /><polyline fill="none" opacity="100" points="630.0,320.0 630.0,286.0" stroke="#7F7F7F" stroke-width="1" /><polyline fill="none" opacity="100" points="626.0,320.0 626.0,286.0" stroke="#7F7F7F" stroke-width="1" /><polyline fill="none" opacity="100" points="622.0,320.0 622.0,286.0" stroke="#7F7F7F" stroke-width="1" /><polyline fill="none" opacity="100" points="618.0,320.0 618.0,286.0" stroke="#7F7F7F" stroke-width="1" /><polyline fill="none" opacity="100" points="614.0,320.0 614.0,286.0" stroke="#7F7F7F" stroke-width="1" /><polyline fill="none" opacity="100" points="610.0,320.0 610.0,286.0" stroke="#7F7F7F" stroke-width="1" /><polyline fill="none" opacity="100" points="606.0,320.0 606.0,286.0" stroke="#7F7F7F" stroke-width="1" /><polyline fill="none" opacity="100" points="602.0,320.0 602.0,286.0" stroke="#7F7F7F" stroke-width="1" /><polyline fill="none" opacity="100" points="598.0,320.0 598.0,286.0" stroke="#7F7F7F" stroke-width="1" /><polyline fill="none" opacity="100" points="594.0,320.0 594.0,286.0" stroke="#7F7F7F" stroke-width="1" /><polyline fill="none" opacity="100" points="590.0,320.0 590.0,286.0" stroke="#7F7F7F" stroke-width="1" /><polyline fill="none" opacity="100" points="586.0,320.0 586.0,286.0" stroke="#7F7F7F" stroke-width="1" /><polyline fill="none" opacity="100" points="582.0,320.0 582.0,286.0" stroke="#7F7F7F" stroke-width="1" /><polyline fill="none" opacity="100" points="578.0,320.0 578.0,286.0" stroke="#7F7F7F" stroke-width="1" /><polyline fill="none" opacity="100" points="574.0,320.0 574.0,286.0" stroke="#7F7F7F" stroke-width="1" /><polyline fill="none" opacity="100" points="570.0,320.0 570.0,286.0" stroke="#7F7F7F" stroke-width="1" /><polyline fill="none" opacity="100" points="566.0,320.0 566.0,286.0" stroke="#7F7F7F" stroke-width="1" /><polyline fill="none" opacity="100" points="562.0,320.0 562.0,286.0" stroke="#7F7F7F" stroke-width="1" /><polyline fill="none" opacity="100" points="558.0,320.0 558.0,286.0" stroke="#7F7F7F" stroke-width="1" /><polyline fill="none" opacity="100" points="554.0,320.0 554.0,286.0" stroke="#7F7F7F" stroke-width="1" /><polyline fill="none" opacity="100" points="550.0,320.0 550.0,286.0" stroke="#7F7F7F" stroke-width="1" /><polyline fill="none" opacity="100" points="546.0,320.0 546.0,286.0" stroke="#7F7F7F" stroke-width="1" /><polyline fill="none" opacity="100" points="542.0,320.0 542.0,286.0" stroke="#7F7F7F" stroke-width="1" /><polyline fill="none" opacity="100" points="538.0,320.0 538.0,286.0" stroke="#7F7F7F" stroke-width="1" /><polyline fill="none" opacity="100" points="534.0,320.0 534.0,286.0" stroke="#7F7F7F" stroke-width="1" /><polyline fill="none" opacity="100" points="530.0,320.0 530.0,286.0" stroke="#7F7F7F" stroke-width="1" /><polyline fill="none" opacity="100" points="526.0,320.0 526.0,286.0" stroke="#7F7F7F" stroke-width="1" /><polyline fill="none" opacity="100" points="522.0,320.0 522.0,286.0" stroke="#7F7F7F" stroke-width="1" /><polyline fill="none" opacity="100" points="518.0,320.0 518.0,286.0" stroke="#7F7F7F" stroke-width="1" /><polyline fill="none" opacity="100" points="514.0,320.0 514.0,286.0" stroke="#7F7F7F" stroke-width="1" /><polyline fill="none" opacity="100" points="510.0,320.0 510.0,286.0" stroke="#7F7F7F" stroke-width="1" /><polyline fill="none" opacity="100" points="506.0,320.0 506.0,286.0" stroke="#7F7F7F" stroke-width="1" /><polyline fill="none" opacity="100" points="502.0,320.0 502.0,286.0" stroke="#7F7F7F" stroke-width="1" /><polyline fill="none" opacity="100" points="498.0,320.0 498.0,286.0" stroke="#7F7F7F" stroke-width="1" /><polyline fill="none" opacity="100" points="494.0,320.0 494.0,286.0" stroke="#7F7F7F" stroke-width="1" /><polyline fill="none" opacity="100" points="490.0,320.0 490.0,286.0" stroke="#7F7F7F" stroke-width="1" /><polyline fill="none" opacity="100" points="486.0,320.0 486.0,286.0" stroke="#7F7F7F" stroke-width="1" /><polyline fill="none" opacity="100" points="482.0,320.0 482.0,286.0" stroke="#7F7F7F" stroke-width="1" /><polyline fill="none" opacity="100" points="478.0,320.0 478.0,286.0" stroke="#7F7F7F" stroke-width="1" /><polyline fill="none" opacity="100" points="474.0,320.0 474.0,286.0" stroke="#7F7F7F" stroke-width="1" /><polyline fill="none" opacity="100" points="470.0,320.0 470.0,286.0" stroke="#7F7F7F" stroke-width="1" /><polyline fill="none" opacity="100" points="466.0,320.0 466.0,286.0" stroke="#7F7F7F" stroke-width="1" /><polyline fill="none" opacity="100" points="462.0,320.0 462.0,286.0" stroke="#7F7F7F" stroke-width="1" /><polyline fill="none" opacity="100" points="458.0,320.0 458.0,286.0" stroke="#7F7F7F" stroke-width="1" /><polyline fill="none" opacity="100" points="454.0,320.0 454.0,286.0" stroke="#7F7F7F" stroke-width="1" /><polyline fill="none" opacity="100" points="450.0,320.0 450.0,286.0" stroke="#7F7F7F" stroke-width="1" /><polyline fill="none" opacity="100" points="446.0,320.0 446.0,286.0" stroke="#7F7F7F" stroke-width="1" /><polyline fill="none" opacity="100" points="442.0,320.0 442.0,286.0" stroke="#7F7F7F" stroke-width="1" /><polygon fill="#9B5509" opacity="100" points="761.0,286.0 435.0,286.0 435.0,283.0 761.0,283.0" stroke="#000" stroke-width="1" /><polygon fill="#9B5509" opacity="100" points="761.0,294.0 761.0,299.0 435.0,299.0 435.0,294.0" stroke="#000" stroke-width="1" /><polygon fill="#9B5509" opacity="100" points="761.0,307.0 761.0,312.0 435.0,312.0 435.0,307.0" stroke="#000" stroke-width="1" /><polygon fill="#9B5509" opacity="100" points="761.0,320.0 435.0,320.0 435.0,323.0 761.0,323.0" stroke="#000" stroke-width="1" /><polygon fill="#FFF" opacity="0.8" points="625.0,282.0 677.0,282.0 677.0,324.0 625.0,324.0" stroke="#FFF" stroke-width="1" /><polygon fill="#CCC" opacity="0.8" points="254.0,348.0 254.0,421.0 340.0,507.0 490.0,507.0 490.0,471.0 531.0,471.0 625.0,377.0 625.0,223.0 495.0,93.0 344.0,93.0 254.0,183.0 254.0,258.0 443.0,258.0 452.0,267.0 505.0,267.0 505.0,339.0 451.0,339.0 442.0,348.0" stroke="#CCC" stroke-width="1" /><polyline fill="none" opacity="1.0" points="505.0,267.0 505.0,339.0 451.0,339.0 442.0,348.0 254.0,348.0 254.0,421.0 340.0,507.0 490.0,507.0 490.0,471.0 531.0,471.0 625.0,377.0 625.0,223.0 495.0,93.0 344.0,93.0 254.0,183.0 254.0,258.0 443.0,258.0 452.0,267.0 505.0,267.0" stroke="#000" stroke-width="1" /><polyline fill="none" opacity="1.0" points="308.0,258.0 308.0,348.0" stroke="#000" stroke-width="1" /><polyline fill="none" opacity="1.0" points="304.0,258.0 304.0,348.0" stroke="#000" stroke-width="1" /><polyline fill="none" opacity="1.0" points="300.0,258.0 300.0,348.0" stroke="#000" stroke-width="1" /><polyline fill="none" opacity="1.0" points="296.0,258.0 296.0,348.0" stroke="#000" stroke-width="1" /><polyline fill="none" opacity="1.0" points="292.0,258.0 292.0,348.0" stroke="#000" stroke-width="1" /><polyline fill="none" opacity="1.0" points="162.0,374.0 204.0,374.0 204.0,231.0 162.0,231.0" stroke="#000" stroke-width="1" /><polyline fill="none" opacity="1.0" points="162.0,180.0 203.0,180.0 340.0,43.0 340.0,1.0" stroke="#000" stroke-width="1" /><polyline fill="none" opacity="1.0" points="369.0,1.0 369.0,43.0 394.0,43.0 394.0,1.0" stroke="#000" stroke-width="1" /><polyline fill="none" opacity="1.0" points="414.0,1.0 414.0,43.0 443.0,43.0 443.0,1.0" stroke="#000" stroke-width="1" /><polyline fill="none" opacity="1.0" points="463.0,1.0 463.0,43.0 488.0,43.0 488.0,1.0" stroke="#000" stroke-width="1" /><polyline fill="none" opacity="1.0" points="517.0,1.0 517.0,43.0 677.0,203.0 719.0,203.0" stroke="#000" stroke-width="1" /><polyline fill="none" opacity="1.0" points="719.0,228.0 677.0,228.0 677.0,377.0 719.0,377.0" stroke="#000" stroke-width="1" /><polyline fill="none" opacity="1.0" points="719.0,402.0 677.0,402.0 517.0,562.0 517.0,605.0" stroke="#000" stroke-width="1" /><polyline fill="none" opacity="1.0" points="488.0,605.0 488.0,563.0 463.0,563.0 463.0,605.0" stroke="#000" stroke-width="1" /><polyline fill="none" opacity="1.0" points="443.0,605.0 443.0,563.0 414.0,563.0 414.0,605.0" stroke="#000" stroke-width="1" /><polyline fill="none" opacity="1.0" points="394.0,605.0 394.0,563.0 369.0,563.0 369.0,605.0" stroke="#000" stroke-width="1" /><polyline fill="none" opacity="1.0" points="340.0,605.0 340.0,561.0 204.0,424.0 161.0,424.0" stroke="#000" stroke-width="1" /><polyline fill="none" opacity="1.0" points="164.0,231.0 164.0,180.0" stroke="#000" stroke-width="1" /><polyline fill="none" opacity="1.0" points="168.0,231.0 168.0,180.0" stroke="#000" stroke-width="1" /><polyline fill="none" opacity="1.0" points="172.0,231.0 172.0,180.0" stroke="#000" stroke-width="1" /><polyline fill="none" opacity="1.0" points="176.0,231.0 176.0,180.0" stroke="#000" stroke-width="1" /><polyline fill="none" opacity="1.0" points="180.0,231.0 180.0,180.0" stroke="#000" stroke-width="1" /><polyline fill="none" opacity="1.0" points="184.0,231.0 184.0,180.0" stroke="#000" stroke-width="1" /><polyline fill="none" opacity="1.0" points="188.0,231.0 188.0,180.0" stroke="#000" stroke-width="1" /><polyline fill="none" opacity="1.0" points="192.0,231.0 192.0,180.0" stroke="#000" stroke-width="1" /><polyline fill="none" opacity="1.0" points="196.0,231.0 196.0,180.0" stroke="#000" stroke-width="1" /><polyline fill="none" opacity="1.0" points="200.0,231.0 200.0,180.0" stroke="#000" stroke-width="1" /><polyline fill="none" opacity="1.0" points="164.0,374.0 164.0,424.0" stroke="#000" stroke-width="1" /><polyline fill="none" opacity="1.0" points="168.0,374.0 168.0,424.0" stroke="#000" stroke-width="1" /><polyline fill="none" opacity="1.0" points="172.0,374.0 172.0,424.0" stroke="#000" stroke-width="1" /><polyline fill="none" opacity="1.0" points="176.0,374.0 176.0,424.0" stroke="#000" stroke-width="1" /><polyline fill="none" opacity="1.0" points="180.0,374.0 180.0,424.0" stroke="#000" stroke-width="1" /><polyline fill="none" opacity="1.0" points="184.0,374.0 184.0,424.0" stroke="#000" stroke-width="1" /><polyline fill="none" opacity="1.0" points="188.0,374.0 188.0,424.0" stroke="#000" stroke-width="1" /><polyline fill="none" opacity="1.0" points="192.0,374.0 192.0,424.0" stroke="#000" stroke-width="1" /><polyline fill="none" opacity="1.0" points="196.0,374.0 196.0,424.0" stroke="#000" stroke-width="1" /><polyline fill="none" opacity="1.0" points="200.0,374.0 200.0,424.0" stroke="#000" stroke-width="1" /><polyline fill="none" opacity="1.0" points="340.0,603.0 369.0,603.0" stroke="#000" stroke-width="1" /><polyline fill="none" opacity="1.0" points="340.0,599.0 369.0,599.0" stroke="#000" stroke-width="1" /><polyline fill="none" opacity="1.0" points="340.0,595.0 369.0,595.0" stroke="#000" stroke-width="1" /><polyline fill="none" opacity="1.0" points="340.0,591.0 369.0,591.0" stroke="#000" stroke-width="1" /><polyline fill="none" opacity="1.0" points="340.0,587.0 369.0,587.0" stroke="#000" stroke-width="1" /><polyline fill="none" opacity="1.0" points="340.0,583.0 369.0,583.0" stroke="#000" stroke-width="1" /><polyline fill="none" opacity="1.0" points="340.0,579.0 369.0,579.0" stroke="#000" stroke-width="1" /><polyline fill="none" opacity="1.0" points="340.0,575.0 369.0,575.0" stroke="#000" stroke-width="1" /><polyline fill="none" opacity="1.0" points="340.0,571.0 369.0,571.0" stroke="#000" stroke-width="1" /><polyline fill="none" opacity="1.0" points="340.0,567.0 369.0,567.0" stroke="#000" stroke-width="1" /><polyline fill="none" opacity="1.0" points="394.0,603.0 414.0,603.0" stroke="#000" stroke-width="1" /><polyline fill="none" opacity="1.0" points="394.0,599.0 414.0,599.0" stroke="#000" stroke-width="1" /><polyline fill="none" opacity="1.0" points="394.0,595.0 414.0,595.0" stroke="#000" stroke-width="1" /><polyline fill="none" opacity="1.0" points="394.0,591.0 414.0,591.0" stroke="#000" stroke-width="1" /><polyline fill="none" opacity="1.0" points="394.0,587.0 414.0,587.0" stroke="#000" stroke-width="1" /><polyline fill="none" opacity="1.0" points="394.0,583.0 414.0,583.0" stroke="#000" stroke-width="1" /><polyline fill="none" opacity="1.0" points="394.0,579.0 414.0,579.0" stroke="#000" stroke-width="1" /><polyline fill="none" opacity="1.0" points="394.0,575.0 414.0,575.0" stroke="#000" stroke-width="1" /><polyline fill="none" opacity="1.0" points="394.0,571.0 414.0,571.0" stroke="#000" stroke-width="1" /><polyline fill="none" opacity="1.0" points="394.0,567.0 414.0,567.0" stroke="#000" stroke-width="1" /><polyline fill="none" opacity="1.0" points="443.0,603.0 463.0,603.0" stroke="#000" stroke-width="1" /><polyline fill="none" opacity="1.0" points="443.0,599.0 463.0,599.0" stroke="#000" stroke-width="1" /><polyline fill="none" opacity="1.0" points="443.0,595.0 463.0,595.0" stroke="#000" stroke-width="1" /><polyline fill="none" opacity="1.0" points="443.0,591.0 463.0,591.0" stroke="#000" stroke-width="1" /><polyline fill="none" opacity="1.0" points="443.0,587.0 463.0,587.0" stroke="#000" stroke-width="1" /><polyline fill="none" opacity="1.0" points="443.0,583.0 463.0,583.0" stroke="#000" stroke-width="1" /><polyline fill="none" opacity="1.0" points="443.0,579.0 463.0,579.0" stroke="#000" stroke-width="1" /><polyline fill="none" opacity="1.0" points="443.0,575.0 463.0,575.0" stroke="#000" stroke-width="1" /><polyline fill="none" opacity="1.0" points="443.0,571.0 463.0,571.0" stroke="#000" stroke-width="1" /><polyline fill="none" opacity="1.0" points="443.0,567.0 463.0,567.0" stroke="#000" stroke-width="1" /><polyline fill="none" opacity="1.0" points="488.0,603.0 517.0,603.0" stroke="#000" stroke-width="1" /><polyline fill="none" opacity="1.0" points="488.0,599.0 517.0,599.0" stroke="#000" stroke-width="1" /><polyline fill="none" opacity="1.0" points="488.0,595.0 517.0,595.0" stroke="#000" stroke-width="1" /><polyline fill="none" opacity="1.0" points="488.0,591.0 517.0,591.0" stroke="#000" stroke-width="1" /><polyline fill="none" opacity="1.0" points="488.0,587.0 517.0,587.0" stroke="#000" stroke-width="1" /><polyline fill="none" opacity="1.0" points="488.0,583.0 517.0,583.0" stroke="#000" stroke-width="1" /><polyline fill="none" opacity="1.0" points="488.0,579.0 517.0,579.0" stroke="#000" stroke-width="1" /><polyline fill="none" opacity="1.0" points="488.0,575.0 517.0,575.0" stroke="#000" stroke-width="1" /><polyline fill="none" opacity="1.0" points="488.0,571.0 517.0,571.0" stroke="#000" stroke-width="1" /><polyline fill="none" opacity="1.0" points="488.0,567.0 517.0,567.0" stroke="#000" stroke-width="1" /><polyline fill="none" opacity="1.0" points="717.0,402.0 717.0,377.0" stroke="#000" stroke-width="1" /><polyline fill="none" opacity="1.0" points="713.0,402.0 713.0,377.0" stroke="#000" stroke-width="1" /><polyline fill="none" opacity="1.0" points="709.0,402.0 709.0,377.0" stroke="#000" stroke-width="1" /><polyline fill="none" opacity="1.0" points="705.0,402.0 705.0,377.0" stroke="#000" stroke-width="1" /><polyline fill="none" opacity="1.0" points="701.0,402.0 701.0,377.0" stroke="#000" stroke-width="1" /><polyline fill="none" opacity="1.0" points="697.0,402.0 697.0,377.0" stroke="#000" stroke-width="1" /><polyline fill="none" opacity="1.0" points="693.0,402.0 693.0,377.0" stroke="#000" stroke-width="1" /><polyline fill="none" opacity="1.0" points="689.0,402.0 689.0,377.0" stroke="#000" stroke-width="1" /><polyline fill="none" opacity="1.0" points="685.0,402.0 685.0,377.0" stroke="#000" stroke-width="1" /><polyline fill="none" opacity="1.0" points="681.0,402.0 681.0,377.0" stroke="#000" stroke-width="1" /><polyline fill="none" opacity="1.0" points="717.0,228.0 717.0,203.0" stroke="#000" stroke-width="1" /><polyline fill="none" opacity="1.0" points="713.0,228.0 713.0,203.0" stroke="#000" stroke-width="1" /><polyline fill="none" opacity="1.0" points="709.0,228.0 709.0,203.0" stroke="#000" stroke-width="1" /><polyline fill="none" opacity="1.0" points="705.0,228.0 705.0,203.0" stroke="#000" stroke-width="1" /><polyline fill="none" opacity="1.0" points="701.0,228.0 701.0,203.0" stroke="#000" stroke-width="1" /><polyline fill="none" opacity="1.0" points="697.0,228.0 697.0,203.0" stroke="#000" stroke-width="1" /><polyline fill="none" opacity="1.0" points="693.0,228.0 693.0,203.0" stroke="#000" stroke-width="1" /><polyline fill="none" opacity="1.0" points="689.0,228.0 689.0,203.0" stroke="#000" stroke-width="1" /><polyline fill="none" opacity="1.0" points="685.0,228.0 685.0,203.0" stroke="#000" stroke-width="1" /><polyline fill="none" opacity="1.0" points="681.0,228.0 681.0,203.0" stroke="#000" stroke-width="1" /><polyline fill="none" opacity="1.0" points="488.0,3.0 517.0,3.0" stroke="#000" stroke-width="1" /><polyline fill="none" opacity="1.0" points="488.0,7.0 517.0,7.0" stroke="#000" stroke-width="1" /><polyline fill="none" opacity="1.0" points="488.0,11.0 517.0,11.0" stroke="#000" stroke-width="1" /><polyline fill="none" opacity="1.0" points="488.0,15.0 517.0,15.0" stroke="#000" stroke-width="1" /><polyline fill="none" opacity="1.0" points="488.0,19.0 517.0,19.0" stroke="#000" stroke-width="1" /><polyline fill="none" opacity="1.0" points="488.0,23.0 517.0,23.0" stroke="#000" stroke-width="1" /><polyline fill="none" opacity="1.0" points="488.0,27.0 517.0,27.0" stroke="#000" stroke-width="1" /><polyline fill="none" opacity="1.0" points="488.0,31.0 517.0,31.0" stroke="#000" stroke-width="1" /><polyline fill="none" opacity="1.0" points="488.0,35.0 517.0,35.0" stroke="#000" stroke-width="1" /><polyline fill="none" opacity="1.0" points="488.0,39.0 517.0,39.0" stroke="#000" stroke-width="1" /><polyline fill="none" opacity="1.0" points="443.0,3.0 463.0,3.0" stroke="#000" stroke-width="1" /><polyline fill="none" opacity="1.0" points="443.0,7.0 463.0,7.0" stroke="#000" stroke-width="1" /><polyline fill="none" opacity="1.0" points="443.0,11.0 463.0,11.0" stroke="#000" stroke-width="1" /><polyline fill="none" opacity="1.0" points="443.0,15.0 463.0,15.0" stroke="#000" stroke-width="1" /><polyline fill="none" opacity="1.0" points="443.0,19.0 463.0,19.0" stroke="#000" stroke-width="1" /><polyline fill="none" opacity="1.0" points="443.0,23.0 463.0,23.0" stroke="#000" stroke-width="1" /><polyline fill="none" opacity="1.0" points="443.0,27.0 463.0,27.0" stroke="#000" stroke-width="1" /><polyline fill="none" opacity="1.0" points="443.0,31.0 463.0,31.0" stroke="#000" stroke-width="1" /><polyline fill="none" opacity="1.0" points="443.0,35.0 463.0,35.0" stroke="#000" stroke-width="1" /><polyline fill="none" opacity="1.0" points="443.0,39.0 463.0,39.0" stroke="#000" stroke-width="1" /><polyline fill="none" opacity="1.0" points="394.0,3.0 414.0,3.0" stroke="#000" stroke-width="1" /><polyline fill="none" opacity="1.0" points="394.0,7.0 414.0,7.0" stroke="#000" stroke-width="1" /><polyline fill="none" opacity="1.0" points="394.0,11.0 414.0,11.0" stroke="#000" stroke-width="1" /><polyline fill="none" opacity="1.0" points="394.0,15.0 414.0,15.0" stroke="#000" stroke-width="1" /><polyline fill="none" opacity="1.0" points="394.0,19.0 414.0,19.0" stroke="#000" stroke-width="1" /><polyline fill="none" opacity="1.0" points="394.0,23.0 414.0,23.0" stroke="#000" stroke-width="1" /><polyline fill="none" opacity="1.0" points="394.0,27.0 414.0,27.0" stroke="#000" stroke-width="1" /><polyline fill="none" opacity="1.0" points="394.0,31.0 414.0,31.0" stroke="#000" stroke-width="1" /><polyline fill="none" opacity="1.0" points="394.0,35.0 414.0,35.0" stroke="#000" stroke-width="1" /><polyline fill="none" opacity="1.0" points="394.0,39.0 414.0,39.0" stroke="#000" stroke-width="1" /><polyline fill="none" opacity="1.0" points="340.0,3.0 369.0,3.0" stroke="#000" stroke-width="1" /><polyline fill="none" opacity="1.0" points="340.0,7.0 369.0,7.0" stroke="#000" stroke-width="1" /><polyline fill="none" opacity="1.0" points="340.0,11.0 369.0,11.0" stroke="#000" stroke-width="1" /><polyline fill="none" opacity="1.0" points="340.0,15.0 369.0,15.0" stroke="#000" stroke-width="1" /><polyline fill="none" opacity="1.0" points="340.0,19.0 369.0,19.0" stroke="#000" stroke-width="1" /><polyline fill="none" opacity="1.0" points="340.0,23.0 369.0,23.0" stroke="#000" stroke-width="1" /><polyline fill="none" opacity="1.0" points="340.0,27.0 369.0,27.0" stroke="#000" stroke-width="1" /><polyline fill="none" opacity="1.0" points="340.0,31.0 369.0,31.0" stroke="#000" stroke-width="1" /><polyline fill="none" opacity="1.0" points="340.0,35.0 369.0,35.0" stroke="#000" stroke-width="1" /><polyline fill="none" opacity="1.0" points="340.0,39.0 369.0,39.0" stroke="#000" stroke-width="1" /><polyline fill="none" opacity="1.0" points="362.0,348.0 362.0,356.0 328.0,356.0 328.0,348.0" stroke="#000" stroke-width="1" /><text fill="#FFF" font-family="Arial" font-size="10" font-weight="normal" opacity="1.0" transform="rotate(-0.0 333.0,345.0) translate(0 10)" x="333.0" y="345.0">кассы</text><polyline fill="none" opacity="1.0" points="435.0,294.0 393.0,294.0 393.0,304.0" stroke="#000" stroke-width="0.5" /><polyline fill="none" opacity="1.0" points="393.0,340.0 393.0,348.0" stroke="#000" stroke-width="0.5" /><polyline fill="none" opacity="1.0" points="390.0,304.0 396.0,304.0" stroke="#090" stroke-width="1" /><polyline fill="none" opacity="1.0" points="390.0,308.0 396.0,308.0" stroke="#090" stroke-width="1" /><polyline fill="none" opacity="1.0" points="390.0,312.0 396.0,312.0" stroke="#090" stroke-width="1" /><polyline fill="none" opacity="1.0" points="390.0,316.0 396.0,316.0" stroke="#090" stroke-width="1" /><polyline fill="none" opacity="1.0" points="390.0,320.0 396.0,320.0" stroke="#090" stroke-width="1" /><polyline fill="none" opacity="1.0" points="390.0,324.0 396.0,324.0" stroke="#090" stroke-width="1" /><polyline fill="none" opacity="1.0" points="390.0,328.0 396.0,328.0" stroke="#090" stroke-width="1" /><polyline fill="none" opacity="1.0" points="390.0,332.0 396.0,332.0" stroke="#090" stroke-width="1" /><polyline fill="none" opacity="1.0" points="390.0,336.0 396.0,336.0" stroke="#090" stroke-width="1" /><polyline fill="none" opacity="1.0" points="390.0,340.0 396.0,340.0" stroke="#090" stroke-width="1" /><polyline fill="none" opacity="1.0" points="344.0,276.0 329.0,276.0" stroke="#F00" stroke-width="1" /><polygon fill="#F00" opacity="1.0" points="333.3467,274.8353 329.0,276.0 333.3467,277.1647" stroke="#F00" stroke-width="1" /><polyline fill="none" opacity="1.0" points="328.0,330.0 345.0,330.0" stroke="#090" stroke-width="1" /><polygon fill="#090" opacity="1.0" points="340.0738,331.32 345.0,330.0 340.0738,328.68" stroke="#090" stroke-width="1" /><text fill="#00AFAF" font-family="Arial" font-size="15" font-weight="normal" opacity="1.0" transform="rotate(-0.0 26.0,286.0) translate(0 15)" x="26.0" y="286.0">Заневский проспект</text><text fill="#00AFAF" font-family="Arial" font-size="15" font-weight="normal" opacity="1.0" transform="rotate(90.0 435.0,666.0) translate(0 15)" x="435.0" y="666.0">Новочеркасский проспект</text></g></g></svg>