<?xml version="1.0" encoding="utf-8" ?>
<svg baseProfile="tiny" height="680px" version="1.2" width="580px" xmlns="http://www.w3.org/2000/svg" xmlns:ev="http://www.w3.org/2001/xml-events" xmlns:xlink="http://www.w3.org/1999/xlink"><defs /><g><g transform="rotate(73.0,290.0,340.0)"><polyline fill="none" opacity="100" points="-108.0,443.0 200.0,3.0" stroke="#F5F5F5" stroke-width="20" /><polyline fill="none" opacity="100" points="-51.0,289.0 538.0,702.0" stroke="#F5F5F5" stroke-width="20" /><text fill="#00AFAF" font-family="Arial" font-size="15" font-weight="normal" opacity="100" transform="rotate(-145.0 398.0,614.0) translate(0 15)" x="398.0" y="614.0">Лиговский проспект</text><text fill="#00AFAF" font-family="Arial" font-size="15" font-weight="normal" opacity="100" transform="rotate(-55.0 -11.0,287.0) translate(0 15)" x="-11.0" y="287.0">набережная Обводного канала</text><polygon fill="#702785" opacity="100" points="649.0,271.0 649.0,301.0 200.0,301.0 200.0,271.0" stroke="#000" stroke-width="1" /><polygon fill="#702785" opacity="100" points="649.0,191.0 649.0,161.0 200.0,161.0 200.0,191.0" stroke="#000" stroke-width="1" /><text fill="#702785" font-family="Arial" font-size="20" font-weight="normal" opacity="100" transform="rotate(-0.0 525.0,301.0) translate(0 20)" x="525.0" y="301.0">Волковская &gt;&gt;</text><text fill="#702785" font-family="Arial" font-size="20" font-weight="normal" opacity="100" transform="rotate(-0.0 203.0,136.0) translate(0 20)" x="203.0" y="136.0">&lt;&lt; Звенигородская</text><text fill="#702785" font-family="Arial" font-size="25" font-weight="bold" opacity="100" transform="rotate(-0.0 311.0,213.0) translate(0 25)" x="311.0" y="213.0">Обводный канал</text><polyline fill="none" opacity="100" points="649.0,271.0 649.0,256.0 505.0,256.0 505.0,248.0 512.0,248.0 512.0,213.0 505.0,213.0 505.0,205.0 649.0,205.0 649.0,191.0" stroke="#000" stroke-width="1" /><polyline fill="none" opacity="100" points="361.0,256.0 200.0,256.0 200.0,271.0" stroke="#000" stroke-width="1" /><polygon fill="#FFF" opacity="0.8" points="306.0,302.0 306.0,269.0 306.0,269.0 306.0,248.0 355.0,249.0 355.0,269.0 355.0,269.0 355.0,302.0" stroke="#FFF" stroke-width="1" /><polyline fill="none" opacity="1.0" points="200.0,191.0 200.0,205.0 361.0,205.0 361.0,213.0 300.0,213.0 300.0,248.0 306.0,248.0 306.0,323.0" stroke="#000" stroke-width="1" /><polyline fill="none" opacity="1.0" points="303.0,332.0 253.0,369.0" stroke="#000" stroke-width="1" /><polyline fill="none" opacity="1.0" points="245.0,375.0 165.0,389.0 166.0,395.0" stroke="#000" stroke-width="1" /><polyline fill="none" opacity="1.0" points="173.0,432.0 174.0,438.0 254.0,424.0" stroke="#000" stroke-width="1" /><polyline fill="none" opacity="1.0" points="293.0,403.0 343.0,366.0" stroke="#000" stroke-width="1" /><polyline fill="none" opacity="1.0" points="355.0,323.0 355.0,248.0 361.0,248.0 361.0,256.0" stroke="#000" stroke-width="1" /><polyline fill="none" opacity="1.0" points="306.0,250.0 355.0,250.0" stroke="#000" stroke-width="1" /><polyline fill="none" opacity="1.0" points="306.0,254.0 355.0,254.0" stroke="#000" stroke-width="1" /><polyline fill="none" opacity="1.0" points="306.0,258.0 355.0,258.0" stroke="#000" stroke-width="1" /><polyline fill="none" opacity="1.0" points="306.0,262.0 355.0,262.0" stroke="#000" stroke-width="1" /><polyline fill="none" opacity="1.0" points="306.0,266.0 355.0,266.0" stroke="#000" stroke-width="1" /><polyline fill="none" opacity="1.0" points="306.0,270.0 355.0,270.0" stroke="#000" stroke-width="1" /><polyline fill="none" opacity="1.0" points="306.0,274.0 355.0,274.0" stroke="#000" stroke-width="1" /><polyline fill="none" opacity="1.0" points="306.0,278.0 355.0,278.0" stroke="#000" stroke-width="1" /><polyline fill="none" opacity="1.0" points="306.0,282.0 355.0,282.0" stroke="#000" stroke-width="1" /><polyline fill="none" opacity="1.0" points="306.0,286.0 355.0,286.0" stroke="#000" stroke-width="1" /><polyline fill="none" opacity="1.0" points="306.0,290.0 355.0,290.0" stroke="#000" stroke-width="1" /><polyline fill="none" opacity="1.0" points="306.0,294.0 355.0,294.0" stroke="#000" stroke-width="1" /><polyline fill="none" opacity="1.0" points="306.0,298.0 355.0,298.0" stroke="#000" stroke-width="1" /><polyline fill="none" opacity="1.0" points="306.0,302.0 355.0,302.0" stroke="#000" stroke-width="1" /><polyline fill="none" opacity="1.0" points="306.0,306.0 355.0,306.0" stroke="#000" stroke-width="1" /><polyline fill="none" opacity="1.0" points="306.0,310.0 355.0,310.0" stroke="#000" stroke-width="1" /><polyline fill="none" opacity="1.0" points="34.0,496.0 38.0,495.0 40.0,506.0 -52.0,522.0 -76.0,505.0 -85.0,451.0 -74.0,435.0 -71.0,437.0" stroke="#000" stroke-width="1" /><polyline fill="none" opacity="1.0" points="-50.0,409.0 -53.0,407.0 -40.0,389.0 -28.0,397.0 -32.0,403.0 -8.0,420.0 24.0,414.0 25.0,420.0" stroke="#000" stroke-width="1" /><polyline fill="none" opacity="1.0" points="32.0,458.0 35.0,476.0 31.0,477.0" stroke="#000" stroke-width="1" /><polyline fill="none" opacity="1.0" points="306.0,323.0 305.9297,323.6797 305.8438,324.3438 305.7422,324.9922 305.625,325.625 305.4922,326.2422 305.3438,326.8438 305.1797,327.4297 305.0,328.0 304.8047,328.5547 304.5938,329.0938 304.3672,329.6172 304.125,330.125 303.8672,330.6172 303.5938,331.0938 303.3047,331.5547 303.0,332.0" stroke="#000" stroke-width="1" /><polyline fill="none" opacity="1.0" points="253.0,369.0 252.5,369.6094 252.0,370.1875 251.5,370.7344 251.0,371.25 250.5,371.7344 250.0,372.1875 249.5,372.6094 249.0,373.0 248.5,373.3594 248.0,373.6875 247.5,373.9844 247.0,374.25 246.5,374.4844 246.0,374.6875 245.5,374.8594 245.0,375.0" stroke="#000" stroke-width="1" /><polyline fill="none" opacity="1.0" points="355.0,323.0 354.9531,326.0391 354.8125,329.0312 354.5781,331.9766 354.25,334.875 353.8281,337.7266 353.3125,340.5312 352.7031,343.2891 352.0,346.0 351.2031,348.6641 350.3125,351.2812 349.3281,353.8516 348.25,356.375 347.0781,358.8516 345.8125,361.2812 344.4531,363.6641 343.0,366.0" stroke="#000" stroke-width="1" /><polyline fill="none" opacity="1.0" points="293.0,403.0 290.9141,404.8984 288.7812,406.7188 286.6016,408.4609 284.375,410.125 282.1016,411.7109 279.7812,413.2188 277.4141,414.6484 275.0,416.0 272.5391,417.2734 270.0312,418.4688 267.4766,419.5859 264.875,420.625 262.2266,421.5859 259.5312,422.4688 256.7891,423.2734 254.0,424.0" stroke="#000" stroke-width="1" /><polygon fill="#CCC" opacity="1.0" points="374.0,205.0 389.0,205.0 389.0,213.0 374.0,213.0" stroke="#000" stroke-width="1" /><polygon fill="#CCC" opacity="1.0" points="402.0,205.0 417.0,205.0 417.0,213.0 402.0,213.0" stroke="#000" stroke-width="1" /><polygon fill="#CCC" opacity="1.0" points="430.0,205.0 462.0,205.0 462.0,213.0 430.0,213.0" stroke="#000" stroke-width="1" /><polygon fill="#CCC" opacity="1.0" points="475.0,205.0 490.0,205.0 490.0,213.0 475.0,213.0" stroke="#000" stroke-width="1" /><polygon fill="#CCC" opacity="1.0" points="374.0,248.0 389.0,248.0 389.0,256.0 374.0,256.0" stroke="#000" stroke-width="1" /><polygon fill="#CCC" opacity="1.0" points="402.0,248.0 417.0,248.0 417.0,256.0 402.0,256.0" stroke="#000" stroke-width="1" /><polygon fill="#CCC" opacity="1.0" points="430.0,248.0 462.0,248.0 462.0,256.0 430.0,256.0" stroke="#000" stroke-width="1" /><polygon fill="#CCC" opacity="1.0" points="475.0,248.0 490.0,248.0 490.0,256.0 475.0,256.0" stroke="#000" stroke-width="1" /><polyline fill="none" opacity="1.0" points="11.0,425.0 17.0,458.0" stroke="#7F7F7F" stroke-width="1" /><polyline fill="none" opacity="1.0" points="14.9366,424.2905 20.9366,457.2905" stroke="#7F7F7F" stroke-width="1" /><polyline fill="none" opacity="1.0" points="18.8731,423.581 24.8731,456.581" stroke="#7F7F7F" stroke-width="1" /><polyline fill="none" opacity="1.0" points="22.8097,422.8715 28.8097,455.8715" stroke="#7F7F7F" stroke-width="1" /><polyline fill="none" opacity="1.0" points="26.7463,422.162 32.7463,455.162" stroke="#7F7F7F" stroke-width="1" /><polyline fill="none" opacity="1.0" points="30.6829,421.4525 36.6829,454.4525" stroke="#7F7F7F" stroke-width="1" /><polyline fill="none" opacity="1.0" points="34.6194,420.743 40.6194,453.743" stroke="#7F7F7F" stroke-width="1" /><polyline fill="none" opacity="1.0" points="38.556,420.0335 44.556,453.0335" stroke="#7F7F7F" stroke-width="1" /><polyline fill="none" opacity="1.0" points="42.4926,419.324 48.4926,452.324" stroke="#7F7F7F" stroke-width="1" /><polyline fill="none" opacity="1.0" points="46.4292,418.6145 52.4292,451.6145" stroke="#7F7F7F" stroke-width="1" /><polyline fill="none" opacity="1.0" points="50.3657,417.905 56.3657,450.905" stroke="#7F7F7F" stroke-width="1" /><polyline fill="none" opacity="1.0" points="54.3023,417.1955 60.3023,450.1955" stroke="#7F7F7F" stroke-width="1" /><polyline fill="none" opacity="1.0" points="58.2389,416.486 64.2389,449.486" stroke="#7F7F7F" stroke-width="1" /><polyline fill="none" opacity="1.0" points="62.1755,415.7765 68.1755,448.7765" stroke="#7F7F7F" stroke-width="1" /><polyline fill="none" opacity="1.0" points="66.112,415.067 72.112,448.067" stroke="#7F7F7F" stroke-width="1" /><polyline fill="none" opacity="1.0" points="70.0486,414.3575 76.0486,447.3575" stroke="#7F7F7F" stroke-width="1" /><polyline fill="none" opacity="1.0" points="73.9852,413.648 79.9852,446.648" stroke="#7F7F7F" stroke-width="1" /><polyline fill="none" opacity="1.0" points="77.9218,412.9385 83.9218,445.9385" stroke="#7F7F7F" stroke-width="1" /><polyline fill="none" opacity="1.0" points="81.8583,412.229 87.8583,445.229" stroke="#7F7F7F" stroke-width="1" /><polyline fill="none" opacity="1.0" points="85.7949,411.5195 91.7949,444.5195" stroke="#7F7F7F" stroke-width="1" /><polyline fill="none" opacity="1.0" points="89.7315,410.81 95.7315,443.81" stroke="#7F7F7F" stroke-width="1" /><polyline fill="none" opacity="1.0" points="93.668,410.1005 99.668,443.1005" stroke="#7F7F7F" stroke-width="1" /><polyline fill="none" opacity="1.0" points="97.6046,409.391 103.6046,442.391" stroke="#7F7F7F" stroke-width="1" /><polyline fill="none" opacity="1.0" points="101.5412,408.6815 107.5412,441.6815" stroke="#7F7F7F" stroke-width="1" /><polyline fill="none" opacity="1.0" points="105.4778,407.972 111.4778,440.972" stroke="#7F7F7F" stroke-width="1" /><polyline fill="none" opacity="1.0" points="109.4143,407.2625 115.4143,440.2625" stroke="#7F7F7F" stroke-width="1" /><polyline fill="none" opacity="1.0" points="113.3509,406.553 119.3509,439.553" stroke="#7F7F7F" stroke-width="1" /><polyline fill="none" opacity="1.0" points="117.2875,405.8435 123.2875,438.8435" stroke="#7F7F7F" stroke-width="1" /><polyline fill="none" opacity="1.0" points="121.2241,405.134 127.2241,438.134" stroke="#7F7F7F" stroke-width="1" /><polyline fill="none" opacity="1.0" points="125.1606,404.4245 131.1606,437.4245" stroke="#7F7F7F" stroke-width="1" /><polyline fill="none" opacity="1.0" points="129.0972,403.715 135.0972,436.715" stroke="#7F7F7F" stroke-width="1" /><polyline fill="none" opacity="1.0" points="133.0338,403.0055 139.0338,436.0055" stroke="#7F7F7F" stroke-width="1" /><polyline fill="none" opacity="1.0" points="136.9704,402.296 142.9704,435.296" stroke="#7F7F7F" stroke-width="1" /><polyline fill="none" opacity="1.0" points="140.9069,401.5865 146.9069,434.5865" stroke="#7F7F7F" stroke-width="1" /><polyline fill="none" opacity="1.0" points="144.8435,400.877 150.8435,433.877" stroke="#7F7F7F" stroke-width="1" /><polyline fill="none" opacity="1.0" points="148.7801,400.1675 154.7801,433.1675" stroke="#7F7F7F" stroke-width="1" /><polyline fill="none" opacity="1.0" points="152.7166,399.458 158.7166,432.458" stroke="#7F7F7F" stroke-width="1" /><polyline fill="none" opacity="1.0" points="156.6532,398.7485 162.6532,431.7485" stroke="#7F7F7F" stroke-width="1" /><polyline fill="none" opacity="1.0" points="160.5898,398.039 166.5898,431.039" stroke="#7F7F7F" stroke-width="1" /><polyline fill="none" opacity="1.0" points="164.5264,397.3295 170.5264,430.3295" stroke="#7F7F7F" stroke-width="1" /><polyline fill="none" opacity="1.0" points="168.4629,396.6201 174.4629,429.6201" stroke="#7F7F7F" stroke-width="1" /><polyline fill="none" opacity="1.0" points="172.3995,395.9106 178.3995,428.9106" stroke="#7F7F7F" stroke-width="1" /><polyline fill="none" opacity="1.0" points="176.3361,395.2011 182.3361,428.2011" stroke="#7F7F7F" stroke-width="1" /><polyline fill="none" opacity="1.0" points="180.2727,394.4916 186.2727,427.4916" stroke="#7F7F7F" stroke-width="1" /><polygon fill="#9B5509" opacity="1.0" points="4.0,423.0 186.0,391.0 187.0,394.0 5.0,426.0" stroke="#000" stroke-width="1" /><polygon fill="#9B5509" opacity="1.0" points="6.0,431.0 187.0,399.0 188.0,403.0 7.0,435.0" stroke="#000" stroke-width="1" /><polygon fill="#9B5509" opacity="1.0" points="8.0,440.0 189.0,408.0 190.0,412.0 9.0,444.0" stroke="#000" stroke-width="1" /><polygon fill="#9B5509" opacity="1.0" points="9.0,449.0 191.0,417.0 192.0,421.0 10.0,453.0" stroke="#000" stroke-width="1" /><polygon fill="#9B5509" opacity="1.0" points="11.0,458.0 192.0,426.0 193.0,429.0 12.0,461.0" stroke="#000" stroke-width="1" /><polyline fill="none" opacity="1.0" points="13.0,511.0 14.0,518.0 -15.0,523.0 -16.0,516.0" stroke="#000" stroke-width="1" /><text fill="#000" font-family="Arial" font-size="10" font-weight="normal" opacity="1.0" transform="rotate(-10.0 -14.0,512.0) translate(0 10)" x="-14.0" y="512.0">кассы</text><ellipse cx="-32.5" cy="464.5" fill="none" opacity="1.0" rx="3.5" ry="3.5" stroke="#000" stroke-width="1" /><polyline fill="none" opacity="1.0" points="15.0,461.0 19.0,482.0 -2.0,486.0 -5.0,484.0" stroke="#000" stroke-width="0.5" /><polyline fill="none" opacity="1.0" points="-8.0,420.0 -14.0,421.0" stroke="#000" stroke-width="0.5" /><polyline fill="none" opacity="1.0" points="-60.0,469.0 -41.0,458.0 -37.0,461.0 -20.0,447.0 8.0,442.0" stroke="#000" stroke-width="0.5" /><polyline fill="none" opacity="1.0" points="-69.0,473.0 -81.0,475.0" stroke="#000" stroke-width="0.5" /><polyline fill="none" opacity="1.0" points="-4.0,482.0 -6.0,485.0" stroke="#090" stroke-width="1" /><polyline fill="none" opacity="1.0" points="-7.2836,479.7157 -9.2836,482.7157" stroke="#090" stroke-width="1" /><polyline fill="none" opacity="1.0" points="-10.5672,477.4315 -12.5672,480.4315" stroke="#090" stroke-width="1" /><polyline fill="none" opacity="1.0" points="-13.8509,475.1472 -15.8509,478.1472" stroke="#090" stroke-width="1" /><polyline fill="none" opacity="1.0" points="-17.1345,472.863 -19.1345,475.863" stroke="#090" stroke-width="1" /><polyline fill="none" opacity="1.0" points="-20.4181,470.5787 -22.4181,473.5787" stroke="#090" stroke-width="1" /><polyline fill="none" opacity="1.0" points="-23.7017,468.2945 -25.7017,471.2945" stroke="#090" stroke-width="1" /><polyline fill="none" opacity="1.0" points="-26.9853,466.0102 -28.9853,469.0102" stroke="#090" stroke-width="1" /><polyline fill="none" opacity="1.0" points="-42.0,456.0 -39.0,458.0" stroke="#F00" stroke-width="1" /><polyline fill="none" opacity="1.0" points="-39.6421,452.7688 -36.6421,454.7688" stroke="#F00" stroke-width="1" /><polyline fill="none" opacity="1.0" points="-37.2842,449.5377 -34.2842,451.5377" stroke="#F00" stroke-width="1" /><polyline fill="none" opacity="1.0" points="-34.9264,446.3065 -31.9264,448.3065" stroke="#F00" stroke-width="1" /><polyline fill="none" opacity="1.0" points="-32.5685,443.0753 -29.5685,445.0753" stroke="#F00" stroke-width="1" /><polyline fill="none" opacity="1.0" points="-30.2106,439.8442 -27.2106,441.8442" stroke="#F00" stroke-width="1" /><polyline fill="none" opacity="1.0" points="-27.8527,436.613 -24.8527,438.613" stroke="#F00" stroke-width="1" /><polyline fill="none" opacity="1.0" points="-25.4949,433.3819 -22.4949,435.3819" stroke="#F00" stroke-width="1" /><polyline fill="none" opacity="1.0" points="-23.137,430.1507 -20.137,432.1507" stroke="#F00" stroke-width="1" /><polyline fill="none" opacity="1.0" points="-20.7791,426.9195 -17.7791,428.9195" stroke="#F00" stroke-width="1" /><polyline fill="none" opacity="1.0" points="-18.4212,423.6884 -15.4212,425.6884" stroke="#F00" stroke-width="1" /><polyline fill="none" opacity="1.0" points="-16.0634,420.4572 -13.0634,422.4572" stroke="#F00" stroke-width="1" /><polyline fill="none" opacity="1.0" points="-55.0,426.0 -69.0,416.0" stroke="#F00" stroke-width="1" /><polygon fill="#F00" opacity="1.0" points="-64.1667,417.8107 -69.0,416.0 -65.7196,419.9848" stroke="#F00" stroke-width="1" /><polyline fill="none" opacity="1.0" points="209.0,393.0 193.0,396.0" stroke="#F00" stroke-width="1" /><polygon fill="#F00" opacity="1.0" points="197.4035,393.8883 193.0,396.0 197.8694,396.373" stroke="#F00" stroke-width="1" /><polyline fill="none" opacity="1.0" points="43.0,484.0 20.0,488.0" stroke="#090" stroke-width="1" /><polygon fill="#090" opacity="1.0" points="26.3543,485.055 20.0,488.0 26.9755,488.6267" stroke="#090" stroke-width="1" /><polyline fill="none" opacity="1.0" points="199.0,422.0 217.0,419.0" stroke="#090" stroke-width="1" /><polygon fill="#090" opacity="1.0" points="212.0169,421.267 217.0,419.0 211.5511,418.4717" stroke="#090" stroke-width="1" /><polygon fill="#34349C" opacity="1.0" points="-65.0,470.0 -60.0,468.0 -59.0,470.0 -64.0,472.0" stroke="#34349C" stroke-width="1" /><polygon fill="#F00" opacity="1.0" points="-70.0,472.0 -65.0,470.0 -64.0,472.0 -69.0,474.0" stroke="#F00" stroke-width="1" /></g></g></svg>