<?xml version="1.0" encoding="utf-8" ?>
<svg baseProfile="tiny" height="850px" version="1.2" width="510px" xmlns="http://www.w3.org/2000/svg" xmlns:ev="http://www.w3.org/2001/xml-events" xmlns:xlink="http://www.w3.org/1999/xlink"><defs /><g><g transform="rotate(-75.0,255.0,425.0)"><polygon fill="#0078c9" opacity="100" points="281.0,413.0 281.0,443.0 -169.0,443.0 -169.0,413.0" stroke="#000" stroke-width="1" /><polygon fill="#0078c9" opacity="100" points="281.0,333.0 281.0,303.0 -169.0,303.0 -169.0,333.0" stroke="#000" stroke-width="1" /><text fill="#0078c9" font-family="Arial" font-size="20" font-weight="normal" opacity="100" transform="rotate(-0.0 49.0,443.0) translate(0 20)" x="49.0" y="443.0">Проспект Просвещения &gt;&gt;</text><text fill="#0078c9" font-family="Arial" font-size="20" font-weight="normal" opacity="100" transform="rotate(-0.0 -163.0,278.0) translate(0 20)" x="-163.0" y="278.0">&lt;&lt; Удельная</text><text fill="#0078c9" font-family="Arial" font-size="25" font-weight="bold" opacity="100" transform="rotate(-0.0 16.0,355.0) translate(0 25)" x="16.0" y="355.0">Озерки</text><polyline fill="none" opacity="100" points="-169.0,333.0 -169.0,345.0 -90.0,345.0 -90.0,400.0 -169.0,400.0 -169.0,413.0" stroke="#000" stroke-width="1" /><polygon fill="#FEFBF1" opacity="100" points="647.0,294.0 585.0,232.0 444.0,373.0 585.0,514.0 647.0,452.0 612.0,417.0 623.0,406.0 607.0,390.0 607.0,356.0 623.0,340.0 612.0,329.0" stroke="#DDD" stroke-width="1" /><polygon fill="#CCC" opacity="100" points="585.0,232.0 596.0,243.0 530.0,309.0 519.0,298.0" stroke="#000" stroke-width="1" /><polygon fill="#CCC" opacity="100" points="530.0,437.0 519.0,448.0 585.0,514.0 596.0,503.0" stroke="#000" stroke-width="1" /><polyline fill="none" opacity="100" points="281.0,413.0 281.0,396.0 337.0,396.0 337.0,393.0" stroke="#000" stroke-width="1" /><polyline fill="none" opacity="100" points="281.0,333.0 281.0,350.0 337.0,350.0 337.0,353.0" stroke="#000" stroke-width="1" /><polyline fill="none" opacity="100" points="515.0,390.0 515.0,356.0" stroke="#7F7F7F" stroke-width="1" /><polyline fill="none" opacity="100" points="511.0,390.0 511.0,356.0" stroke="#7F7F7F" stroke-width="1" /><polyline fill="none" opacity="100" points="507.0,390.0 507.0,356.0" stroke="#7F7F7F" stroke-width="1" /><polyline fill="none" opacity="100" points="503.0,390.0 503.0,356.0" stroke="#7F7F7F" stroke-width="1" /><polyline fill="none" opacity="100" points="499.0,390.0 499.0,356.0" stroke="#7F7F7F" stroke-width="1" /><polyline fill="none" opacity="100" points="495.0,390.0 495.0,356.0" stroke="#7F7F7F" stroke-width="1" /><polyline fill="none" opacity="100" points="491.0,390.0 491.0,356.0" stroke="#7F7F7F" stroke-width="1" /><polyline fill="none" opacity="100" points="487.0,390.0 487.0,356.0" stroke="#7F7F7F" stroke-width="1" /><polyline fill="none" opacity="100" points="483.0,390.0 483.0,356.0" stroke="#7F7F7F" stroke-width="1" /><polyline fill="none" opacity="100" points="479.0,390.0 479.0,356.0" stroke="#7F7F7F" stroke-width="1" /><polyline fill="none" opacity="100" points="475.0,390.0 475.0,356.0" stroke="#7F7F7F" stroke-width="1" /><polyline fill="none" opacity="100" points="471.0,390.0 471.0,356.0" stroke="#7F7F7F" stroke-width="1" /><polyline fill="none" opacity="100" points="467.0,390.0 467.0,356.0" stroke="#7F7F7F" stroke-width="1" /><polyline fill="none" opacity="100" points="463.0,390.0 463.0,356.0" stroke="#7F7F7F" stroke-width="1" /><polyline fill="none" opacity="100" points="459.0,390.0 459.0,356.0" stroke="#7F7F7F" stroke-width="1" /><polyline fill="none" opacity="100" points="455.0,390.0 455.0,356.0" stroke="#7F7F7F" stroke-width="1" /><polyline fill="none" opacity="100" points="451.0,390.0 451.0,356.0" stroke="#7F7F7F" stroke-width="1" /><polyline fill="none" opacity="100" points="447.0,390.0 447.0,356.0" stroke="#7F7F7F" stroke-width="1" /><polyline fill="none" opacity="100" points="443.0,390.0 443.0,356.0" stroke="#7F7F7F" stroke-width="1" /><polyline fill="none" opacity="100" points="439.0,390.0 439.0,356.0" stroke="#7F7F7F" stroke-width="1" /><polyline fill="none" opacity="100" points="435.0,390.0 435.0,356.0" stroke="#7F7F7F" stroke-width="1" /><polyline fill="none" opacity="100" points="431.0,390.0 431.0,356.0" stroke="#7F7F7F" stroke-width="1" /><polyline fill="none" opacity="100" points="427.0,390.0 427.0,356.0" stroke="#7F7F7F" stroke-width="1" /><polyline fill="none" opacity="100" points="423.0,390.0 423.0,356.0" stroke="#7F7F7F" stroke-width="1" /><polyline fill="none" opacity="100" points="419.0,390.0 419.0,356.0" stroke="#7F7F7F" stroke-width="1" /><polyline fill="none" opacity="100" points="415.0,390.0 415.0,356.0" stroke="#7F7F7F" stroke-width="1" /><polyline fill="none" opacity="100" points="411.0,390.0 411.0,356.0" stroke="#7F7F7F" stroke-width="1" /><polyline fill="none" opacity="100" points="407.0,390.0 407.0,356.0" stroke="#7F7F7F" stroke-width="1" /><polyline fill="none" opacity="100" points="403.0,390.0 403.0,356.0" stroke="#7F7F7F" stroke-width="1" /><polyline fill="none" opacity="100" points="399.0,390.0 399.0,356.0" stroke="#7F7F7F" stroke-width="1" /><polyline fill="none" opacity="100" points="395.0,390.0 395.0,356.0" stroke="#7F7F7F" stroke-width="1" /><polyline fill="none" opacity="100" points="391.0,390.0 391.0,356.0" stroke="#7F7F7F" stroke-width="1" /><polyline fill="none" opacity="100" points="387.0,390.0 387.0,356.0" stroke="#7F7F7F" stroke-width="1" /><polyline fill="none" opacity="100" points="383.0,390.0 383.0,356.0" stroke="#7F7F7F" stroke-width="1" /><polyline fill="none" opacity="100" points="379.0,390.0 379.0,356.0" stroke="#7F7F7F" stroke-width="1" /><polyline fill="none" opacity="100" points="375.0,390.0 375.0,356.0" stroke="#7F7F7F" stroke-width="1" /><polyline fill="none" opacity="100" points="371.0,390.0 371.0,356.0" stroke="#7F7F7F" stroke-width="1" /><polyline fill="none" opacity="100" points="367.0,390.0 367.0,356.0" stroke="#7F7F7F" stroke-width="1" /><polyline fill="none" opacity="100" points="363.0,390.0 363.0,356.0" stroke="#7F7F7F" stroke-width="1" /><polyline fill="none" opacity="100" points="359.0,390.0 359.0,356.0" stroke="#7F7F7F" stroke-width="1" /><polyline fill="none" opacity="100" points="355.0,390.0 355.0,356.0" stroke="#7F7F7F" stroke-width="1" /><polyline fill="none" opacity="100" points="351.0,390.0 351.0,356.0" stroke="#7F7F7F" stroke-width="1" /><polyline fill="none" opacity="100" points="347.0,390.0 347.0,356.0" stroke="#7F7F7F" stroke-width="1" /><polyline fill="none" opacity="100" points="343.0,390.0 343.0,356.0" stroke="#7F7F7F" stroke-width="1" /><polyline fill="none" opacity="100" points="339.0,390.0 339.0,356.0" stroke="#7F7F7F" stroke-width="1" /><polyline fill="none" opacity="100" points="335.0,390.0 335.0,356.0" stroke="#7F7F7F" stroke-width="1" /><polygon fill="#9B5509" opacity="100" points="522.0,356.0 329.0,356.0 329.0,353.0 522.0,353.0" stroke="#000" stroke-width="1" /><polygon fill="#9B5509" opacity="100" points="522.0,364.0 522.0,369.0 329.0,369.0 329.0,364.0" stroke="#000" stroke-width="1" /><polygon fill="#9B5509" opacity="100" points="522.0,377.0 522.0,382.0 329.0,382.0 329.0,377.0" stroke="#000" stroke-width="1" /><polygon fill="#9B5509" opacity="100" points="522.0,390.0 329.0,390.0 329.0,393.0 522.0,393.0" stroke="#000" stroke-width="1" /><polyline fill="none" opacity="100" points="642.0,447.0 647.0,452.0 585.0,514.0 464.0,393.0" stroke="#000" stroke-width="1" /><polyline fill="none" opacity="100" points="464.0,353.0 519.0,298.0" stroke="#000" stroke-width="1" /><polyline fill="none" opacity="100" points="596.0,243.0 647.0,294.0 644.0,297.0" stroke="#000" stroke-width="1" /><polyline fill="none" opacity="100" points="634.0,307.0 612.0,329.0 623.0,340.0 607.0,356.0 607.0,390.0 623.0,406.0 612.0,417.0 631.0,436.0" stroke="#000" stroke-width="1" /><polyline fill="none" opacity="100" points="607.0,390.0 590.0,364.0 522.0,364.0" stroke="#000" stroke-width="0.5" /><polyline fill="none" opacity="100" points="607.0,390.0 595.0,398.0" stroke="#000" stroke-width="0.5" /><polyline fill="none" opacity="100" points="534.0,441.0 549.0,430.0" stroke="#000" stroke-width="0.5" /><polyline fill="none" opacity="100" points="547.0,428.0 551.0,432.0" stroke="#090" stroke-width="1" /><polyline fill="none" opacity="100" points="550.2836,425.7157 554.2836,429.7157" stroke="#090" stroke-width="1" /><polyline fill="none" opacity="100" points="553.5672,423.4315 557.5672,427.4315" stroke="#090" stroke-width="1" /><polyline fill="none" opacity="100" points="556.8509,421.1472 560.8509,425.1472" stroke="#090" stroke-width="1" /><polyline fill="none" opacity="100" points="560.1345,418.863 564.1345,422.863" stroke="#090" stroke-width="1" /><polyline fill="none" opacity="100" points="563.4181,416.5787 567.4181,420.5787" stroke="#090" stroke-width="1" /><polyline fill="none" opacity="100" points="566.7017,414.2945 570.7017,418.2945" stroke="#090" stroke-width="1" /><polyline fill="none" opacity="100" points="569.9853,412.0102 573.9853,416.0102" stroke="#090" stroke-width="1" /><polyline fill="none" opacity="100" points="573.269,409.7259 577.269,413.7259" stroke="#090" stroke-width="1" /><polyline fill="none" opacity="100" points="576.5526,407.4417 580.5526,411.4417" stroke="#090" stroke-width="1" /><polyline fill="none" opacity="100" points="579.8362,405.1574 583.8362,409.1574" stroke="#090" stroke-width="1" /><polyline fill="none" opacity="100" points="583.1198,402.8732 587.1198,406.8732" stroke="#090" stroke-width="1" /><polyline fill="none" opacity="100" points="586.4034,400.5889 590.4034,404.5889" stroke="#090" stroke-width="1" /><polyline fill="none" opacity="100" points="589.6871,398.3046 593.6871,402.3046" stroke="#090" stroke-width="1" /><polyline fill="none" opacity="100" points="592.9707,396.0204 596.9707,400.0204" stroke="#090" stroke-width="1" /><polygon fill="#FFF" opacity="100" points="551.0,458.0 543.0,466.0 568.0,491.0 576.0,483.0" stroke="#000" stroke-width="1" /><text fill="#000" font-family="Arial" font-size="10" font-weight="normal" opacity="100" transform="rotate(45.0 556.0,461.0) translate(0 10)" x="556.0" y="461.0">кассы</text><polyline fill="none" opacity="100" points="635.0,298.0 648.0,311.0" stroke="#F00" stroke-width="1" /><polygon fill="#F00" opacity="100" points="643.2235,308.2423 648.0,311.0 645.2423,306.2235" stroke="#F00" stroke-width="1" /><polyline fill="none" opacity="100" points="643.0,435.0 631.0,447.0" stroke="#090" stroke-width="1" /><polygon fill="#090" opacity="100" points="633.5456,442.5909 631.0,447.0 635.4091,444.4544" stroke="#090" stroke-width="1" /><text fill="#00AFAF" font-family="Arial" font-size="15" font-weight="normal" opacity="100" transform="rotate(-0.0 530.0,546.0) translate(0 15)" x="530.0" y="546.0">проспект Энгельса</text></g></g></svg>