<?xml version="1.0" encoding="utf-8" ?>
<svg baseProfile="tiny" height="770px" version="1.2" width="280px" xmlns="http://www.w3.org/2000/svg" xmlns:ev="http://www.w3.org/2001/xml-events" xmlns:xlink="http://www.w3.org/1999/xlink"><defs /><g><g transform="rotate(-90.0,140.0,385.0)"><polygon fill="#0078c9" opacity="100" points="514.0,446.0 514.0,476.0 64.0,476.0 64.0,446.0" stroke="#000" stroke-width="1" /><polygon fill="#0078c9" opacity="100" points="514.0,366.0 514.0,336.0 64.0,336.0 64.0,366.0" stroke="#000" stroke-width="1" /><text fill="#0078c9" font-family="Arial" font-size="20" font-weight="normal" opacity="100" transform="rotate(-0.0 67.0,315.0) translate(0 20)" x="67.0" y="315.0">&lt;&lt; Московская</text><text fill="#0078c9" font-family="Arial" font-size="20" font-weight="normal" opacity="100" transform="rotate(-0.0 370.0,476.0) translate(0 20)" x="370.0" y="476.0">Электросила &gt;&gt;</text><text fill="#0078c9" font-family="Arial" font-size="25" font-weight="bold" opacity="100" transform="rotate(-0.0 215.0,391.0) translate(0 25)" x="215.0" y="391.0">Парк Победы</text><polyline fill="none" opacity="100" points="514.0,443.0 514.0,369.0 502.0,369.0 502.0,370.0 489.0,370.0 489.0,368.0 484.0,368.0 484.0,370.0 472.0,370.0 472.0,368.0 467.0,368.0 467.0,370.0 455.0,370.0 455.0,368.0 450.0,368.0 450.0,370.0 438.0,370.0 438.0,368.0 433.0,368.0 433.0,370.0 421.0,370.0 421.0,368.0 416.0,368.0 416.0,370.0 404.0,370.0 404.0,368.0 399.0,368.0 399.0,370.0 387.0,370.0 387.0,368.0 382.0,368.0 382.0,370.0 370.0,370.0 370.0,368.0 365.0,368.0 365.0,370.0 353.0,370.0 353.0,368.0 348.0,368.0 348.0,370.0 336.0,370.0 336.0,368.0 331.0,368.0 331.0,370.0 319.0,370.0 319.0,368.0 314.0,368.0 314.0,370.0 302.0,370.0 302.0,368.0 297.0,368.0 297.0,370.0 285.0,370.0 285.0,368.0 280.0,368.0 280.0,370.0 268.0,370.0 268.0,368.0 263.0,368.0 263.0,370.0 251.0,370.0 251.0,368.0 246.0,368.0 246.0,370.0 234.0,370.0 234.0,368.0 229.0,368.0 229.0,370.0 217.0,370.0 217.0,368.0 212.0,368.0 212.0,370.0 200.0,370.0 200.0,368.0 195.0,368.0 195.0,370.0 183.0,370.0 183.0,368.0 178.0,368.0 178.0,370.0 166.0,370.0 166.0,368.0 161.0,368.0 161.0,370.0 149.0,370.0 149.0,368.0 144.0,368.0 144.0,370.0 132.0,370.0 132.0,368.0 127.0,368.0 127.0,370.0 115.0,370.0 115.0,368.0 110.0,368.0 110.0,370.0 98.0,370.0 98.0,368.0 93.0,368.0 93.0,370.0 80.0,370.0 80.0,369.0 64.0,369.0 64.0,386.0 49.0,386.0 49.0,382.0 18.0,382.0 18.0,386.0" stroke="#000" stroke-width="1" /><polyline fill="none" opacity="100" points="514.0,443.0 502.0,443.0 502.0,442.0 489.0,442.0 489.0,444.0 484.0,444.0 484.0,442.0 472.0,442.0 472.0,444.0 467.0,444.0 467.0,442.0 455.0,442.0 455.0,444.0 450.0,444.0 450.0,442.0 438.0,442.0 438.0,444.0 433.0,444.0 433.0,442.0 421.0,442.0 421.0,444.0 416.0,444.0 416.0,442.0 404.0,442.0 404.0,444.0 399.0,444.0 399.0,442.0 387.0,442.0 387.0,444.0 382.0,444.0 382.0,442.0 370.0,442.0 370.0,444.0 365.0,444.0 365.0,442.0 353.0,442.0 353.0,444.0 348.0,444.0 348.0,442.0 336.0,442.0 336.0,444.0 331.0,444.0 331.0,442.0 319.0,442.0 319.0,444.0 314.0,444.0 314.0,442.0 302.0,442.0 302.0,444.0 297.0,444.0 297.0,442.0 285.0,442.0 285.0,444.0 280.0,444.0 280.0,442.0 268.0,442.0 268.0,444.0 263.0,444.0 263.0,442.0 251.0,442.0 251.0,444.0 246.0,444.0 246.0,442.0 234.0,442.0 234.0,444.0 229.0,444.0 229.0,442.0 217.0,442.0 217.0,444.0 212.0,444.0 212.0,442.0 200.0,442.0 200.0,444.0 195.0,444.0 195.0,442.0 183.0,442.0 183.0,444.0 178.0,444.0 178.0,442.0 166.0,442.0 166.0,444.0 161.0,444.0 161.0,442.0 149.0,442.0 149.0,444.0 144.0,444.0 144.0,442.0 132.0,442.0 132.0,444.0 127.0,444.0 127.0,442.0 115.0,442.0 115.0,444.0 110.0,444.0 110.0,442.0 98.0,442.0 98.0,444.0 93.0,444.0 93.0,442.0 80.0,442.0 80.0,443.0 64.0,443.0 64.0,426.0 49.0,426.0 49.0,430.0 18.0,430.0 18.0,426.0" stroke="#000" stroke-width="1" /><polyline fill="none" opacity="100" points="20.0,423.0 20.0,389.0" stroke="#7F7F7F" stroke-width="1" /><polyline fill="none" opacity="100" points="16.0,423.0 16.0,389.0" stroke="#7F7F7F" stroke-width="1" /><polyline fill="none" opacity="100" points="12.0,423.0 12.0,389.0" stroke="#7F7F7F" stroke-width="1" /><polyline fill="none" opacity="100" points="8.0,423.0 8.0,389.0" stroke="#7F7F7F" stroke-width="1" /><polyline fill="none" opacity="100" points="4.0,423.0 4.0,389.0" stroke="#7F7F7F" stroke-width="1" /><polyline fill="none" opacity="100" points="0.0,423.0 0.0,389.0" stroke="#7F7F7F" stroke-width="1" /><polyline fill="none" opacity="100" points="-4.0,423.0 -4.0,389.0" stroke="#7F7F7F" stroke-width="1" /><polyline fill="none" opacity="100" points="-8.0,423.0 -8.0,389.0" stroke="#7F7F7F" stroke-width="1" /><polyline fill="none" opacity="100" points="-12.0,423.0 -12.0,389.0" stroke="#7F7F7F" stroke-width="1" /><polyline fill="none" opacity="100" points="-16.0,423.0 -16.0,389.0" stroke="#7F7F7F" stroke-width="1" /><polyline fill="none" opacity="100" points="-20.0,423.0 -20.0,389.0" stroke="#7F7F7F" stroke-width="1" /><polyline fill="none" opacity="100" points="-24.0,423.0 -24.0,389.0" stroke="#7F7F7F" stroke-width="1" /><polyline fill="none" opacity="100" points="-28.0,423.0 -28.0,389.0" stroke="#7F7F7F" stroke-width="1" /><polyline fill="none" opacity="100" points="-32.0,423.0 -32.0,389.0" stroke="#7F7F7F" stroke-width="1" /><polyline fill="none" opacity="100" points="-36.0,423.0 -36.0,389.0" stroke="#7F7F7F" stroke-width="1" /><polyline fill="none" opacity="100" points="-40.0,423.0 -40.0,389.0" stroke="#7F7F7F" stroke-width="1" /><polyline fill="none" opacity="100" points="-44.0,423.0 -44.0,389.0" stroke="#7F7F7F" stroke-width="1" /><polyline fill="none" opacity="100" points="-48.0,423.0 -48.0,389.0" stroke="#7F7F7F" stroke-width="1" /><polyline fill="none" opacity="100" points="-52.0,423.0 -52.0,389.0" stroke="#7F7F7F" stroke-width="1" /><polyline fill="none" opacity="100" points="-56.0,423.0 -56.0,389.0" stroke="#7F7F7F" stroke-width="1" /><polyline fill="none" opacity="100" points="-60.0,423.0 -60.0,389.0" stroke="#7F7F7F" stroke-width="1" /><polyline fill="none" opacity="100" points="-64.0,423.0 -64.0,389.0" stroke="#7F7F7F" stroke-width="1" /><polyline fill="none" opacity="100" points="-68.0,423.0 -68.0,389.0" stroke="#7F7F7F" stroke-width="1" /><polyline fill="none" opacity="100" points="-72.0,423.0 -72.0,389.0" stroke="#7F7F7F" stroke-width="1" /><polyline fill="none" opacity="100" points="-76.0,423.0 -76.0,389.0" stroke="#7F7F7F" stroke-width="1" /><polyline fill="none" opacity="100" points="-80.0,423.0 -80.0,389.0" stroke="#7F7F7F" stroke-width="1" /><polyline fill="none" opacity="100" points="-84.0,423.0 -84.0,389.0" stroke="#7F7F7F" stroke-width="1" /><polyline fill="none" opacity="100" points="-88.0,423.0 -88.0,389.0" stroke="#7F7F7F" stroke-width="1" /><polyline fill="none" opacity="100" points="-92.0,423.0 -92.0,389.0" stroke="#7F7F7F" stroke-width="1" /><polygon fill="#9B5509" opacity="100" points="27.0,389.0 -100.0,389.0 -100.0,386.0 27.0,386.0" stroke="#000" stroke-width="1" /><polygon fill="#9B5509" opacity="100" points="27.0,397.0 27.0,402.0 -100.0,402.0 -100.0,397.0" stroke="#000" stroke-width="1" /><polygon fill="#9B5509" opacity="100" points="27.0,410.0 27.0,415.0 -100.0,415.0 -100.0,410.0" stroke="#000" stroke-width="1" /><polygon fill="#9B5509" opacity="100" points="27.0,423.0 -100.0,423.0 -100.0,426.0 27.0,426.0" stroke="#000" stroke-width="1" /><polyline fill="none" opacity="100" points="-87.0,426.0 -87.7578,427.9844 -88.6562,429.9375 -89.6963,431.8613 -90.875,433.75 -92.1865,435.5918 -93.6406,437.4062 -95.2402,439.1992 -97.0,441.0 -98.9473,442.8633 -101.0469,444.7188 -103.2769,446.52 -105.625,448.25 -108.0708,449.8823 -110.6172,451.3984 -113.2607,452.7842 -116.0,454.0 -118.8408,454.9893 -121.7578,455.7891 -124.7319,456.4163 -127.75,456.875 -130.7954,457.1833 -133.8594,457.3164 -136.9316,457.2622 -140.0,457.0 -143.0527,456.4917 -146.0781,455.7773 -149.0637,454.8811 -152.0,453.8125 -154.8796,452.5896 -157.6836,451.2109 -160.3979,449.6787 -163.0,448.0 -165.4575,446.1807 -167.7852,444.2266 -169.9875,442.1423 -172.0625,439.9375 -174.0144,437.6252 -175.8281,435.1992 -177.4941,432.6616 -179.0,430.0 -180.3262,427.186 -181.4844,424.2695 -182.4785,421.2852 -183.3125,418.25 -183.998,415.1875 -184.5156,412.1133 -184.8574,409.0415 -185.0,406.0 -184.9004,403.0249 -184.6094,400.1055 -184.1594,397.2422 -183.5625,394.4375 -182.8386,391.6836 -181.9961,389.0117 -181.0425,386.439 -180.0,384.0 -178.8989,381.7524 -177.7227,379.6445 -176.4646,377.6462 -175.125,375.75 -173.6975,373.9377 -172.1953,372.2109 -170.626,370.5693 -169.0,369.0 -167.335,367.4854 -165.6172,366.0391 -163.8394,364.6685 -162.0,363.375 -160.0942,362.1636 -158.125,361.0312 -156.0938,359.9766 -154.0,359.0" stroke="#000" stroke-width="1" /><polyline fill="none" opacity="100" points="-154.0,359.0 -154.0,348.0" stroke="#000" stroke-width="1" /><polygon fill="#CCC" opacity="100" points="-140.0,345.0 -140.0,359.0 -128.0,359.0 -128.0,345.0" stroke="#000" stroke-width="1" /><polyline fill="none" opacity="100" points="-114.0,348.0 -114.0,359.0" stroke="#000" stroke-width="1" /><polyline fill="none" opacity="100" points="-114.0,359.0 -111.7266,360.1016 -109.5312,361.2812 -107.4141,362.5391 -105.375,363.875 -103.4141,365.2891 -101.5312,366.7812 -99.7266,368.3516 -98.0,370.0 -96.3516,371.7266 -94.7812,373.5312 -93.2891,375.4141 -91.875,377.375 -90.5391,379.4141 -89.2812,381.5312 -88.1016,383.7266 -87.0,386.0" stroke="#000" stroke-width="1" /><polyline fill="none" opacity="100" points="-134.0,359.0 -134.0,393.0 -117.0,393.0 -117.0,410.0 -100.0,410.0" stroke="#000" stroke-width="0.5" /><polyline fill="none" opacity="100" points="-134.0,393.0 -134.0,399.0" stroke="#000" stroke-width="0.5" /><polyline fill="none" opacity="100" points="-134.0,457.0 -134.0,451.0" stroke="#000" stroke-width="0.5" /><polyline fill="none" opacity="100" points="-130.0,451.0 -137.0,451.0" stroke="#090" stroke-width="1" /><polyline fill="none" opacity="100" points="-130.0755,447.0007 -137.0755,447.0007" stroke="#090" stroke-width="1" /><polyline fill="none" opacity="100" points="-130.1509,443.0014 -137.1509,443.0014" stroke="#090" stroke-width="1" /><polyline fill="none" opacity="100" points="-130.2264,439.0021 -137.2264,439.0021" stroke="#090" stroke-width="1" /><polyline fill="none" opacity="100" points="-130.3018,435.0028 -137.3018,435.0028" stroke="#090" stroke-width="1" /><polyline fill="none" opacity="100" points="-130.3773,431.0036 -137.3773,431.0036" stroke="#090" stroke-width="1" /><polyline fill="none" opacity="100" points="-130.4527,427.0043 -137.4527,427.0043" stroke="#090" stroke-width="1" /><polyline fill="none" opacity="100" points="-130.5282,423.005 -137.5282,423.005" stroke="#090" stroke-width="1" /><polyline fill="none" opacity="100" points="-130.6037,419.0057 -137.6037,419.0057" stroke="#090" stroke-width="1" /><polyline fill="none" opacity="100" points="-130.6791,415.0064 -137.6791,415.0064" stroke="#090" stroke-width="1" /><polyline fill="none" opacity="100" points="-130.7546,411.0071 -137.7546,411.0071" stroke="#090" stroke-width="1" /><polyline fill="none" opacity="100" points="-130.83,407.0078 -137.83,407.0078" stroke="#090" stroke-width="1" /><polyline fill="none" opacity="100" points="-130.9055,403.0085 -137.9055,403.0085" stroke="#090" stroke-width="1" /><polyline fill="none" opacity="100" points="-130.981,399.0093 -137.981,399.0093" stroke="#090" stroke-width="1" /><polyline fill="none" opacity="100" points="-156.0,452.0 -165.0,461.0 -188.0,438.0 -179.0,429.0" stroke="#000" stroke-width="1" /><text fill="#000" font-family="Arial" font-size="10" font-weight="normal" opacity="100" transform="rotate(45.0 -177.0,433.0) translate(0 10)" x="-177.0" y="433.0">кассы</text><polyline fill="none" opacity="100" points="-121.0,359.0 -121.0,345.0" stroke="#F00" stroke-width="1" /><polygon fill="#F00" opacity="100" points="-119.913,349.0569 -121.0,345.0 -122.087,349.0569" stroke="#F00" stroke-width="1" /><polyline fill="none" opacity="100" points="-147.0,345.0 -147.0,359.0" stroke="#090" stroke-width="1" /><polygon fill="#090" opacity="100" points="-148.087,354.9431 -147.0,359.0 -145.913,354.9431" stroke="#090" stroke-width="1" /><text fill="#00AFAF" font-family="Arial" font-size="15" font-weight="normal" opacity="100" transform="rotate(-0.0 -159.0,258.0) translate(0 15)" x="-159.0" y="258.0">Московский проспект</text><text fill="#00AFAF" font-family="Arial" font-size="15" font-weight="normal" opacity="100" transform="rotate(90.0 -228.0,364.0) translate(0 15)" x="-228.0" y="364.0">Бассейная улица</text></g></g></svg>