<?xml version="1.0" encoding="utf-8" ?>
<svg baseProfile="tiny" height="910px" version="1.2" width="625px" xmlns="http://www.w3.org/2000/svg" xmlns:ev="http://www.w3.org/2001/xml-events" xmlns:xlink="http://www.w3.org/1999/xlink"><defs /><g><g transform="rotate(80.0,312.5,455.0)"><polygon fill="#0078C9" opacity="100" points="324.0,283.0 324.0,253.0 774.0,253.0 774.0,283.0" stroke="#000" stroke-width="1" /><polygon fill="#0078C9" opacity="100" points="324.0,363.0 324.0,393.0 774.0,393.0 774.0,363.0" stroke="#000" stroke-width="1" /><text fill="#0078C9" font-family="Arial" font-size="20" font-weight="normal" opacity="100" transform="rotate(-0.0 326.0,228.0) translate(0 20)" x="326.0" y="228.0">&lt;&lt; Чёрная речка</text><text fill="#0078C9" font-family="Arial" font-size="20" font-weight="normal" opacity="100" transform="rotate(-0.0 634.0,393.0) translate(0 20)" x="634.0" y="393.0">Горьковская &gt;&gt;</text><text fill="#0078C9" font-family="Arial" font-size="25" font-weight="bold" opacity="100" transform="rotate(-0.0 479.0,307.0) translate(0 25)" x="479.0" y="307.0">Петроградская</text><polyline fill="none" opacity="100" points="774.0,360.0 774.0,286.0 762.0,286.0 762.0,287.0 749.0,287.0 749.0,285.0 744.0,285.0 744.0,287.0 732.0,287.0 732.0,285.0 727.0,285.0 727.0,287.0 715.0,287.0 715.0,285.0 710.0,285.0 710.0,287.0 698.0,287.0 698.0,285.0 693.0,285.0 693.0,287.0 681.0,287.0 681.0,285.0 676.0,285.0 676.0,287.0 664.0,287.0 664.0,285.0 659.0,285.0 659.0,287.0 647.0,287.0 647.0,285.0 642.0,285.0 642.0,287.0 630.0,287.0 630.0,285.0 625.0,285.0 625.0,287.0 613.0,287.0 613.0,285.0 608.0,285.0 608.0,287.0 596.0,287.0 596.0,285.0 591.0,285.0 591.0,287.0 579.0,287.0 579.0,285.0 574.0,285.0 574.0,287.0 562.0,287.0 562.0,285.0 557.0,285.0 557.0,287.0 545.0,287.0 545.0,285.0 540.0,285.0 540.0,287.0 528.0,287.0 528.0,285.0 523.0,285.0 523.0,287.0 511.0,287.0 511.0,285.0 506.0,285.0 506.0,287.0 494.0,287.0 494.0,285.0 489.0,285.0 489.0,287.0 477.0,287.0 477.0,285.0 472.0,285.0 472.0,287.0 460.0,287.0 460.0,285.0 455.0,285.0 455.0,287.0 443.0,287.0 443.0,285.0 438.0,285.0 438.0,287.0 426.0,287.0 426.0,285.0 421.0,285.0 421.0,287.0 409.0,287.0 409.0,285.0 404.0,285.0 404.0,287.0 392.0,287.0 392.0,285.0 387.0,285.0 387.0,287.0 375.0,287.0 375.0,285.0 370.0,285.0 370.0,287.0 358.0,287.0 358.0,285.0 353.0,285.0 353.0,287.0 340.0,287.0 340.0,286.0 324.0,286.0 324.0,298.0 263.0,298.0 263.0,301.0" stroke="#000" stroke-width="1" /><polyline fill="none" opacity="100" points="774.0,360.0 762.0,360.0 762.0,359.0 749.0,359.0 749.0,361.0 744.0,361.0 744.0,359.0 732.0,359.0 732.0,361.0 727.0,361.0 727.0,359.0 715.0,359.0 715.0,361.0 710.0,361.0 710.0,359.0 698.0,359.0 698.0,361.0 693.0,361.0 693.0,359.0 681.0,359.0 681.0,361.0 676.0,361.0 676.0,359.0 664.0,359.0 664.0,361.0 659.0,361.0 659.0,359.0 647.0,359.0 647.0,361.0 642.0,361.0 642.0,359.0 630.0,359.0 630.0,361.0 625.0,361.0 625.0,359.0 613.0,359.0 613.0,361.0 608.0,361.0 608.0,359.0 596.0,359.0 596.0,361.0 591.0,361.0 591.0,359.0 579.0,359.0 579.0,361.0 574.0,361.0 574.0,359.0 562.0,359.0 562.0,361.0 557.0,361.0 557.0,359.0 545.0,359.0 545.0,361.0 540.0,361.0 540.0,359.0 528.0,359.0 528.0,361.0 523.0,361.0 523.0,359.0 511.0,359.0 511.0,361.0 506.0,361.0 506.0,359.0 494.0,359.0 494.0,361.0 489.0,361.0 489.0,359.0 477.0,359.0 477.0,361.0 472.0,361.0 472.0,359.0 460.0,359.0 460.0,361.0 455.0,361.0 455.0,359.0 443.0,359.0 443.0,361.0 438.0,361.0 438.0,359.0 426.0,359.0 426.0,361.0 421.0,361.0 421.0,359.0 409.0,359.0 409.0,361.0 404.0,361.0 404.0,359.0 392.0,359.0 392.0,361.0 387.0,361.0 387.0,359.0 375.0,359.0 375.0,361.0 370.0,361.0 370.0,359.0 358.0,359.0 358.0,361.0 353.0,361.0 353.0,359.0 340.0,359.0 340.0,360.0 324.0,360.0 324.0,344.0 263.0,344.0 263.0,341.0" stroke="#000" stroke-width="1" /><polyline fill="none" opacity="100" points="265.0,338.0 265.0,304.0" stroke="#7F7F7F" stroke-width="1" /><polyline fill="none" opacity="100" points="261.0,338.0 261.0,304.0" stroke="#7F7F7F" stroke-width="1" /><polyline fill="none" opacity="100" points="257.0,338.0 257.0,304.0" stroke="#7F7F7F" stroke-width="1" /><polyline fill="none" opacity="100" points="253.0,338.0 253.0,304.0" stroke="#7F7F7F" stroke-width="1" /><polyline fill="none" opacity="100" points="249.0,338.0 249.0,304.0" stroke="#7F7F7F" stroke-width="1" /><polyline fill="none" opacity="100" points="245.0,338.0 245.0,304.0" stroke="#7F7F7F" stroke-width="1" /><polyline fill="none" opacity="100" points="241.0,338.0 241.0,304.0" stroke="#7F7F7F" stroke-width="1" /><polyline fill="none" opacity="100" points="237.0,338.0 237.0,304.0" stroke="#7F7F7F" stroke-width="1" /><polyline fill="none" opacity="100" points="233.0,338.0 233.0,304.0" stroke="#7F7F7F" stroke-width="1" /><polyline fill="none" opacity="100" points="229.0,338.0 229.0,304.0" stroke="#7F7F7F" stroke-width="1" /><polyline fill="none" opacity="100" points="225.0,338.0 225.0,304.0" stroke="#7F7F7F" stroke-width="1" /><polyline fill="none" opacity="100" points="221.0,338.0 221.0,304.0" stroke="#7F7F7F" stroke-width="1" /><polyline fill="none" opacity="100" points="217.0,338.0 217.0,304.0" stroke="#7F7F7F" stroke-width="1" /><polyline fill="none" opacity="100" points="213.0,338.0 213.0,304.0" stroke="#7F7F7F" stroke-width="1" /><polyline fill="none" opacity="100" points="209.0,338.0 209.0,304.0" stroke="#7F7F7F" stroke-width="1" /><polyline fill="none" opacity="100" points="205.0,338.0 205.0,304.0" stroke="#7F7F7F" stroke-width="1" /><polyline fill="none" opacity="100" points="201.0,338.0 201.0,304.0" stroke="#7F7F7F" stroke-width="1" /><polyline fill="none" opacity="100" points="197.0,338.0 197.0,304.0" stroke="#7F7F7F" stroke-width="1" /><polyline fill="none" opacity="100" points="193.0,338.0 193.0,304.0" stroke="#7F7F7F" stroke-width="1" /><polyline fill="none" opacity="100" points="189.0,338.0 189.0,304.0" stroke="#7F7F7F" stroke-width="1" /><polyline fill="none" opacity="100" points="185.0,338.0 185.0,304.0" stroke="#7F7F7F" stroke-width="1" /><polyline fill="none" opacity="100" points="181.0,338.0 181.0,304.0" stroke="#7F7F7F" stroke-width="1" /><polyline fill="none" opacity="100" points="177.0,338.0 177.0,304.0" stroke="#7F7F7F" stroke-width="1" /><polyline fill="none" opacity="100" points="173.0,338.0 173.0,304.0" stroke="#7F7F7F" stroke-width="1" /><polyline fill="none" opacity="100" points="169.0,338.0 169.0,304.0" stroke="#7F7F7F" stroke-width="1" /><polyline fill="none" opacity="100" points="165.0,338.0 165.0,304.0" stroke="#7F7F7F" stroke-width="1" /><polyline fill="none" opacity="100" points="161.0,338.0 161.0,304.0" stroke="#7F7F7F" stroke-width="1" /><polyline fill="none" opacity="100" points="157.0,338.0 157.0,304.0" stroke="#7F7F7F" stroke-width="1" /><polyline fill="none" opacity="100" points="153.0,338.0 153.0,304.0" stroke="#7F7F7F" stroke-width="1" /><polyline fill="none" opacity="100" points="149.0,338.0 149.0,304.0" stroke="#7F7F7F" stroke-width="1" /><polyline fill="none" opacity="100" points="145.0,338.0 145.0,304.0" stroke="#7F7F7F" stroke-width="1" /><polyline fill="none" opacity="100" points="141.0,338.0 141.0,304.0" stroke="#7F7F7F" stroke-width="1" /><polyline fill="none" opacity="100" points="137.0,338.0 137.0,304.0" stroke="#7F7F7F" stroke-width="1" /><polyline fill="none" opacity="100" points="133.0,338.0 133.0,304.0" stroke="#7F7F7F" stroke-width="1" /><polyline fill="none" opacity="100" points="129.0,338.0 129.0,304.0" stroke="#7F7F7F" stroke-width="1" /><polyline fill="none" opacity="100" points="125.0,338.0 125.0,304.0" stroke="#7F7F7F" stroke-width="1" /><polyline fill="none" opacity="100" points="121.0,338.0 121.0,304.0" stroke="#7F7F7F" stroke-width="1" /><polyline fill="none" opacity="100" points="117.0,338.0 117.0,304.0" stroke="#7F7F7F" stroke-width="1" /><polyline fill="none" opacity="100" points="113.0,338.0 113.0,304.0" stroke="#7F7F7F" stroke-width="1" /><polygon fill="#9B5509" opacity="100" points="272.0,304.0 107.0,304.0 107.0,301.0 272.0,301.0" stroke="#000" stroke-width="1" /><polygon fill="#9B5509" opacity="100" points="272.0,312.0 272.0,317.0 107.0,317.0 107.0,312.0" stroke="#000" stroke-width="1" /><polygon fill="#9B5509" opacity="100" points="272.0,325.0 272.0,330.0 107.0,330.0 107.0,325.0" stroke="#000" stroke-width="1" /><polygon fill="#9B5509" opacity="100" points="272.0,338.0 107.0,338.0 107.0,341.0 272.0,341.0" stroke="#000" stroke-width="1" /><polyline fill="none" opacity="100" points="116.0,301.0 113.2344,294.6484 110.1875,288.7188 106.8538,283.2097 103.25,278.125 99.4099,273.4719 95.2773,269.2383 90.8354,265.4204 86.0,262.0 80.6138,258.9429 74.8789,256.293 68.926,254.082 62.8125,252.3125 56.6306,250.9844 50.4062,250.1367 44.1719,249.7866 38.0,250.0 31.9766,250.8892 26.0938,252.332 20.3669,254.2517 14.8125,256.625 9.4241,259.4104 4.2852,262.5859 -0.5542,266.1357 -5.0,270.0 -8.9028,274.0908 -12.3789,278.4766 -15.4905,283.1938 -18.25,288.25 -20.699,293.6694 -22.8125,299.4375 -24.5781,305.5469 -26.0,312.0" stroke="#000" stroke-width="1" /><polyline fill="none" opacity="100" points="117.0,341.0 115.2109,345.8906 113.2188,350.5625 111.021,355.0168 108.625,359.25 106.0454,363.2546 103.2578,367.043 100.2549,370.6187 97.0,374.0 93.4248,377.2212 89.6172,380.2383 85.6357,383.022 81.5,385.5625 77.2393,387.8452 72.8828,389.8555 68.4502,391.5835 64.0,393.0 59.6201,394.061 55.2422,394.8008 50.8296,395.2375 46.375,395.375 41.854,395.2253 37.2812,394.7812 32.6641,394.0391 28.0,393.0" stroke="#000" stroke-width="1" /><polyline fill="none" opacity="100" points="-26.0,312.0 -115.0,336.0 -91.0,424.0 -87.0,423.0 -84.0,435.0" stroke="#000" stroke-width="1" /><polyline fill="none" opacity="100" points="-73.0,432.0 -76.0,420.0 -69.0,418.0 -56.0,467.0 -68.0,470.0 -65.0,481.0 -105.0,492.0" stroke="#000" stroke-width="1" /><polyline fill="none" opacity="100" points="-100.0,512.0 -59.0,501.0 -42.0,661.0 -83.0,672.0" stroke="#000" stroke-width="1" /><polyline fill="none" opacity="100" points="-78.0,692.0 75.0,651.0" stroke="#000" stroke-width="1" /><polyline fill="none" opacity="100" points="70.0,631.0 29.0,642.0 14.0,481.0 54.0,470.0" stroke="#000" stroke-width="1" /><polyline fill="none" opacity="100" points="48.0,451.0 7.0,462.0 4.0,451.0 -8.0,454.0 -21.0,406.0 -17.0,405.0 -14.0,416.0" stroke="#000" stroke-width="1" /><polyline fill="none" opacity="100" points="-2.0,413.0 -5.0,402.0 28.0,393.0" stroke="#000" stroke-width="1" /><polyline fill="none" opacity="100" points="-86.0,426.0 -75.0,423.0" stroke="#000" stroke-width="1" /><polyline fill="none" opacity="100" points="-85.1323,429.9047 -74.1323,426.9047" stroke="#000" stroke-width="1" /><polyline fill="none" opacity="100" points="-84.2646,433.8095 -73.2646,430.8095" stroke="#000" stroke-width="1" /><polyline fill="none" opacity="100" points="-68.0,422.0 -50.0,417.0" stroke="#000" stroke-width="1" /><polyline fill="none" opacity="100" points="-66.9475,425.8591 -48.9475,420.8591" stroke="#000" stroke-width="1" /><polyline fill="none" opacity="100" points="-65.8951,429.7181 -47.8951,424.7181" stroke="#000" stroke-width="1" /><polyline fill="none" opacity="100" points="-64.8426,433.5772 -46.8426,428.5772" stroke="#000" stroke-width="1" /><polyline fill="none" opacity="100" points="-63.7901,437.4362 -45.7901,432.4362" stroke="#000" stroke-width="1" /><polyline fill="none" opacity="100" points="-62.7377,441.2953 -44.7377,436.2953" stroke="#000" stroke-width="1" /><polyline fill="none" opacity="100" points="-61.6852,445.1543 -43.6852,440.1543" stroke="#000" stroke-width="1" /><polyline fill="none" opacity="100" points="-60.6327,449.0134 -42.6327,444.0134" stroke="#000" stroke-width="1" /><polyline fill="none" opacity="100" points="-59.5802,452.8724 -41.5802,447.8724" stroke="#000" stroke-width="1" /><polyline fill="none" opacity="100" points="-58.5278,456.7315 -40.5278,451.7315" stroke="#000" stroke-width="1" /><polyline fill="none" opacity="100" points="-57.4753,460.5906 -39.4753,455.5906" stroke="#000" stroke-width="1" /><polyline fill="none" opacity="100" points="-56.4228,464.4496 -38.4228,459.4496" stroke="#000" stroke-width="1" /><polyline fill="none" opacity="100" points="-39.0,413.0 -21.0,408.0" stroke="#000" stroke-width="1" /><polyline fill="none" opacity="100" points="-37.9475,416.8591 -19.9475,411.8591" stroke="#000" stroke-width="1" /><polyline fill="none" opacity="100" points="-36.8951,420.7181 -18.8951,415.7181" stroke="#000" stroke-width="1" /><polyline fill="none" opacity="100" points="-35.8426,424.5772 -17.8426,419.5772" stroke="#000" stroke-width="1" /><polyline fill="none" opacity="100" points="-34.7901,428.4362 -16.7901,423.4362" stroke="#000" stroke-width="1" /><polyline fill="none" opacity="100" points="-33.7377,432.2953 -15.7377,427.2953" stroke="#000" stroke-width="1" /><polyline fill="none" opacity="100" points="-32.6852,436.1543 -14.6852,431.1543" stroke="#000" stroke-width="1" /><polyline fill="none" opacity="100" points="-31.6327,440.0134 -13.6327,435.0134" stroke="#000" stroke-width="1" /><polyline fill="none" opacity="100" points="-30.5802,443.8724 -12.5802,438.8724" stroke="#000" stroke-width="1" /><polyline fill="none" opacity="100" points="-29.5278,447.7315 -11.5278,442.7315" stroke="#000" stroke-width="1" /><polyline fill="none" opacity="100" points="-28.4753,451.5906 -10.4753,446.5906" stroke="#000" stroke-width="1" /><polyline fill="none" opacity="100" points="-27.4228,455.4496 -9.4228,450.4496" stroke="#000" stroke-width="1" /><polyline fill="none" opacity="100" points="-103.0,492.0 -98.0,511.0" stroke="#000" stroke-width="1" /><polyline fill="none" opacity="100" points="-99.1385,490.9564 -94.1385,509.9564" stroke="#000" stroke-width="1" /><polyline fill="none" opacity="100" points="-95.2771,489.9127 -90.2771,508.9127" stroke="#000" stroke-width="1" /><polyline fill="none" opacity="100" points="-91.4156,488.8691 -86.4156,507.8691" stroke="#000" stroke-width="1" /><polyline fill="none" opacity="100" points="-87.5542,487.8255 -82.5542,506.8255" stroke="#000" stroke-width="1" /><polyline fill="none" opacity="100" points="-83.6927,486.7818 -78.6927,505.7818" stroke="#000" stroke-width="1" /><polyline fill="none" opacity="100" points="-79.8313,485.7382 -74.8313,504.7382" stroke="#000" stroke-width="1" /><polyline fill="none" opacity="100" points="-75.9698,484.6945 -70.9698,503.6945" stroke="#000" stroke-width="1" /><polyline fill="none" opacity="100" points="-72.1084,483.6509 -67.1084,502.6509" stroke="#000" stroke-width="1" /><polyline fill="none" opacity="100" points="-68.2469,482.6073 -63.2469,501.6073" stroke="#000" stroke-width="1" /><polyline fill="none" opacity="100" points="45.0,452.0 50.0,471.0" stroke="#000" stroke-width="1" /><polyline fill="none" opacity="100" points="41.1385,453.0436 46.1385,472.0436" stroke="#000" stroke-width="1" /><polyline fill="none" opacity="100" points="37.2771,454.0873 42.2771,473.0873" stroke="#000" stroke-width="1" /><polyline fill="none" opacity="100" points="33.4156,455.1309 38.4156,474.1309" stroke="#000" stroke-width="1" /><polyline fill="none" opacity="100" points="29.5542,456.1745 34.5542,475.1745" stroke="#000" stroke-width="1" /><polyline fill="none" opacity="100" points="25.6927,457.2182 30.6927,476.2182" stroke="#000" stroke-width="1" /><polyline fill="none" opacity="100" points="21.8313,458.2618 26.8313,477.2618" stroke="#000" stroke-width="1" /><polyline fill="none" opacity="100" points="17.9698,459.3055 22.9698,478.3055" stroke="#000" stroke-width="1" /><polyline fill="none" opacity="100" points="14.1084,460.3491 19.1084,479.3491" stroke="#000" stroke-width="1" /><polyline fill="none" opacity="100" points="10.2469,461.3927 15.2469,480.3927" stroke="#000" stroke-width="1" /><polyline fill="none" opacity="100" points="-81.0,672.0 -76.0,691.0" stroke="#000" stroke-width="1" /><polyline fill="none" opacity="100" points="-77.1385,670.9564 -72.1385,689.9564" stroke="#000" stroke-width="1" /><polyline fill="none" opacity="100" points="-73.2771,669.9127 -68.2771,688.9127" stroke="#000" stroke-width="1" /><polyline fill="none" opacity="100" points="-69.4156,668.8691 -64.4156,687.8691" stroke="#000" stroke-width="1" /><polyline fill="none" opacity="100" points="-65.5542,667.8255 -60.5542,686.8255" stroke="#000" stroke-width="1" /><polyline fill="none" opacity="100" points="-61.6927,666.7818 -56.6927,685.7818" stroke="#000" stroke-width="1" /><polyline fill="none" opacity="100" points="-57.8313,665.7382 -52.8313,684.7382" stroke="#000" stroke-width="1" /><polyline fill="none" opacity="100" points="-53.9698,664.6945 -48.9698,683.6945" stroke="#000" stroke-width="1" /><polyline fill="none" opacity="100" points="-50.1084,663.6509 -45.1084,682.6509" stroke="#000" stroke-width="1" /><polyline fill="none" opacity="100" points="-46.2469,662.6073 -41.2469,681.6073" stroke="#000" stroke-width="1" /><polyline fill="none" opacity="100" points="68.0,632.0 73.0,651.0" stroke="#000" stroke-width="1" /><polyline fill="none" opacity="100" points="64.1317,633.018 69.1317,652.018" stroke="#000" stroke-width="1" /><polyline fill="none" opacity="100" points="60.2634,634.0359 65.2634,653.0359" stroke="#000" stroke-width="1" /><polyline fill="none" opacity="100" points="56.3951,635.0539 61.3951,654.0539" stroke="#000" stroke-width="1" /><polyline fill="none" opacity="100" points="52.5268,636.0719 57.5268,655.0719" stroke="#000" stroke-width="1" /><polyline fill="none" opacity="100" points="48.6585,637.0899 53.6585,656.0899" stroke="#000" stroke-width="1" /><polyline fill="none" opacity="100" points="44.7902,638.1078 49.7902,657.1078" stroke="#000" stroke-width="1" /><polyline fill="none" opacity="100" points="40.9219,639.1258 45.9219,658.1258" stroke="#000" stroke-width="1" /><polyline fill="none" opacity="100" points="37.0536,640.1438 42.0536,659.1438" stroke="#000" stroke-width="1" /><polyline fill="none" opacity="100" points="33.1853,641.1618 38.1853,660.1618" stroke="#000" stroke-width="1" /><polyline fill="none" opacity="100" points="-16.0,406.0 -5.0,403.0" stroke="#000" stroke-width="1" /><polyline fill="none" opacity="100" points="-15.1323,409.9047 -4.1323,406.9047" stroke="#000" stroke-width="1" /><polyline fill="none" opacity="100" points="-14.2646,413.8095 -3.2646,410.8095" stroke="#000" stroke-width="1" /><polygon fill="#CCC" opacity="100" points="-38.0,462.0 -51.0,414.0 -40.0,411.0 -27.0,459.0" stroke="#000" stroke-width="1" /><polyline fill="none" opacity="100" points="-45.0,412.0 -57.0,369.0 -10.0,356.0 37.0,312.0 107.0,312.0" stroke="#000" stroke-width="0.5" /><polyline fill="none" opacity="100" points="37.0,312.0 45.0,321.0" stroke="#000" stroke-width="0.5" /><polyline fill="none" opacity="100" points="88.0,368.0 96.0,376.0" stroke="#000" stroke-width="0.5" /><polyline fill="none" opacity="100" points="43.0,322.0 47.0,319.0" stroke="#090" stroke-width="1" /><polyline fill="none" opacity="100" points="45.6725,324.9762 49.6725,321.9762" stroke="#090" stroke-width="1" /><polyline fill="none" opacity="100" points="48.345,327.9524 52.345,324.9524" stroke="#090" stroke-width="1" /><polyline fill="none" opacity="100" points="51.0175,330.9286 55.0175,327.9286" stroke="#090" stroke-width="1" /><polyline fill="none" opacity="100" points="53.69,333.9048 57.69,330.9048" stroke="#090" stroke-width="1" /><polyline fill="none" opacity="100" points="56.3625,336.881 60.3625,333.881" stroke="#090" stroke-width="1" /><polyline fill="none" opacity="100" points="59.035,339.8572 63.035,336.8572" stroke="#090" stroke-width="1" /><polyline fill="none" opacity="100" points="61.7075,342.8334 65.7075,339.8334" stroke="#090" stroke-width="1" /><polyline fill="none" opacity="100" points="64.38,345.8096 68.38,342.8096" stroke="#090" stroke-width="1" /><polyline fill="none" opacity="100" points="67.0525,348.7858 71.0525,345.7858" stroke="#090" stroke-width="1" /><polyline fill="none" opacity="100" points="69.725,351.7619 73.725,348.7619" stroke="#090" stroke-width="1" /><polyline fill="none" opacity="100" points="72.3975,354.7381 76.3975,351.7381" stroke="#090" stroke-width="1" /><polyline fill="none" opacity="100" points="75.07,357.7143 79.07,354.7143" stroke="#090" stroke-width="1" /><polyline fill="none" opacity="100" points="77.7425,360.6905 81.7425,357.6905" stroke="#090" stroke-width="1" /><polyline fill="none" opacity="100" points="80.415,363.6667 84.415,360.6667" stroke="#090" stroke-width="1" /><polyline fill="none" opacity="100" points="83.0875,366.6429 87.0875,363.6429" stroke="#090" stroke-width="1" /><polyline fill="none" opacity="100" points="85.76,369.6191 89.76,366.6191" stroke="#090" stroke-width="1" /><polyline fill="none" opacity="100" points="-81.0,380.0 -78.0,394.0" stroke="#F00" stroke-width="1" /><polygon fill="#F00" opacity="100" points="-79.9564,390.176 -78.0,394.0 -77.7823,389.7102" stroke="#F00" stroke-width="1" /><polyline fill="none" opacity="100" points="-16.0,377.0 1.0,373.0" stroke="#090" stroke-width="1" /><polygon fill="#090" opacity="100" points="-3.6156,375.4791 1.0,373.0 -4.2368,372.8391" stroke="#090" stroke-width="1" /><text fill="#00AFAF" font-family="Arial" font-size="15" font-weight="normal" opacity="100" transform="rotate(-15.0 147.0,538.0) translate(0 15)" x="147.0" y="538.0">Каменноостровский проспект</text></g></g></svg>