<?xml version="1.0" encoding="utf-8" ?>
<svg baseProfile="tiny" height="850px" version="1.2" width="678px" xmlns="http://www.w3.org/2000/svg" xmlns:ev="http://www.w3.org/2001/xml-events" xmlns:xlink="http://www.w3.org/1999/xlink"><defs /><g><g transform="rotate(70.0,339.0,425.0)"><polygon fill="#D6083B" opacity="100" points="562.0,400.0 562.0,430.0 112.0,430.0 112.0,400.0" stroke="#000" stroke-width="1" /><polygon fill="#D6083B" opacity="100" points="562.0,320.0 562.0,290.0 112.0,290.0 112.0,320.0" stroke="#000" stroke-width="1" /><text fill="#D6083B" font-family="Arial" font-size="20" font-weight="normal" opacity="100" transform="rotate(-0.0 117.0,266.0) translate(0 20)" x="117.0" y="266.0">&lt;&lt; Выборгская</text><text fill="#D6083B" font-family="Arial" font-size="20" font-weight="normal" opacity="100" transform="rotate(-0.0 407.0,430.0) translate(0 20)" x="407.0" y="430.0">Чернышевская &gt;&gt;</text><text fill="#D6083B" font-family="Arial" font-size="25" font-weight="bold" opacity="100" transform="rotate(-0.0 243.0,342.0) translate(0 25)" x="243.0" y="342.0">Площадь Ленина</text><polygon fill="#CCC" opacity="100" points="662.0,356.0 705.0,399.0 746.0,358.0 735.0,347.0 724.0,351.0 712.0,354.0 701.0,355.0 689.0,357.0 676.0,357.0" stroke="#CCC" stroke-width="1" /><polyline fill="none" opacity="100" points="562.0,400.0 562.0,391.0 420.0,391.0 420.0,383.0 472.0,383.0 472.0,380.0" stroke="#000" stroke-width="1" /><polyline fill="none" opacity="100" points="562.0,320.0 562.0,328.0 420.0,328.0 420.0,337.0 472.0,337.0 472.0,340.0" stroke="#000" stroke-width="1" /><polyline fill="none" opacity="100" points="612.0,380.0 612.0,383.0 646.0,383.0 676.0,413.0 676.0,431.0 663.0,444.0 658.0,439.0 652.0,445.0 673.0,466.0 679.0,460.0 677.0,458.0" stroke="#000" stroke-width="1" /><polyline fill="none" opacity="100" points="612.0,340.0 612.0,337.0 662.0,337.0" stroke="#000" stroke-width="1" /><polyline fill="none" opacity="100" points="662.0,337.0 665.0938,336.9297 668.125,336.8438 671.0923,336.7427 674.0,336.625 676.8569,336.4878 679.6484,336.3359 682.3701,336.1709 685.0,336.0 687.4971,335.8369 689.9141,335.6641 692.2874,335.47 694.625,335.25 696.9373,334.9968 699.2539,334.707 701.5903,334.3774 704.0,334.0 706.5698,333.564 709.2148,333.0742 711.8838,332.5322 714.5625,331.9375 717.2217,331.292 719.8555,330.5898 722.4585,329.8276 725.0,329.0 727.436,328.0981 729.8008,327.1289 732.1125,326.0959 734.375,325.0 736.6003,323.8435 738.7812,322.625 740.9141,321.3438 743.0,320.0" stroke="#000" stroke-width="1" /><polyline fill="none" opacity="100" points="662.0,356.0 667.1484,356.2578 672.2188,356.4062 677.2109,356.4453 682.125,356.375 686.9609,356.1953 691.7188,355.9062 696.3984,355.5078 701.0,355.0 705.5234,354.3828 709.9688,353.6562 714.3359,352.8203 718.625,351.875 722.8359,350.8203 726.9688,349.6562 731.0234,348.3828 735.0,347.0" stroke="#000" stroke-width="1" /><polyline fill="none" opacity="100" points="743.0,320.0 747.0,324.0 775.0,296.0" stroke="#000" stroke-width="1" /><polyline fill="none" opacity="100" points="783.0,304.0 755.0,332.0 781.0,358.0 776.0,363.0 774.0,361.0" stroke="#000" stroke-width="1" /><polyline fill="none" opacity="100" points="767.0,368.0 769.0,370.0 689.0,450.0 687.0,448.0" stroke="#000" stroke-width="1" /><polyline fill="none" opacity="100" points="735.0,347.0 746.0,358.0 705.0,399.0 662.0,356.0" stroke="#000" stroke-width="1" /><polyline fill="none" opacity="100" points="774.0,297.0 782.0,305.0" stroke="#000" stroke-width="1" /><polyline fill="none" opacity="100" points="771.1716,299.8284 779.1716,307.8284" stroke="#000" stroke-width="1" /><polyline fill="none" opacity="100" points="768.3431,302.6569 776.3431,310.6569" stroke="#000" stroke-width="1" /><polyline fill="none" opacity="100" points="765.5147,305.4853 773.5147,313.4853" stroke="#000" stroke-width="1" /><polyline fill="none" opacity="100" points="762.6863,308.3137 770.6863,316.3137" stroke="#000" stroke-width="1" /><polyline fill="none" opacity="100" points="759.8579,311.1421 767.8579,319.1421" stroke="#000" stroke-width="1" /><polyline fill="none" opacity="100" points="757.0294,313.9706 765.0294,321.9706" stroke="#000" stroke-width="1" /><polyline fill="none" opacity="100" points="754.201,316.799 762.201,324.799" stroke="#000" stroke-width="1" /><polyline fill="none" opacity="100" points="751.3726,319.6274 759.3726,327.6274" stroke="#000" stroke-width="1" /><polyline fill="none" opacity="100" points="748.5442,322.4558 756.5442,330.4558" stroke="#000" stroke-width="1" /><polyline fill="none" opacity="100" points="741.0,363.0 758.0,380.0" stroke="#000" stroke-width="0.5" /><polyline fill="none" opacity="100" points="676.0,428.0 683.0,421.0" stroke="#000" stroke-width="0.5" /><polyline fill="none" opacity="100" points="700.0,404.0 705.0,399.0" stroke="#000" stroke-width="0.5" /><polyline fill="none" opacity="100" points="621.0,356.0 662.0,356.0" stroke="#000" stroke-width="0.5" /><polyline fill="none" opacity="100" points="698.0,402.0 703.0,407.0" stroke="#090" stroke-width="1" /><polyline fill="none" opacity="100" points="695.1716,404.8284 700.1716,409.8284" stroke="#090" stroke-width="1" /><polyline fill="none" opacity="100" points="692.3431,407.6569 697.3431,412.6569" stroke="#090" stroke-width="1" /><polyline fill="none" opacity="100" points="689.5147,410.4853 694.5147,415.4853" stroke="#090" stroke-width="1" /><polyline fill="none" opacity="100" points="686.6863,413.3137 691.6863,418.3137" stroke="#090" stroke-width="1" /><polyline fill="none" opacity="100" points="683.8579,416.1421 688.8579,421.1421" stroke="#090" stroke-width="1" /><polyline fill="none" opacity="100" points="681.0294,418.9706 686.0294,423.9706" stroke="#090" stroke-width="1" /><polyline fill="none" opacity="100" points="614.0,377.0 614.0,343.0" stroke="#7F7F7F" stroke-width="1" /><polyline fill="none" opacity="100" points="610.0,377.0 610.0,343.0" stroke="#7F7F7F" stroke-width="1" /><polyline fill="none" opacity="100" points="606.0,377.0 606.0,343.0" stroke="#7F7F7F" stroke-width="1" /><polyline fill="none" opacity="100" points="602.0,377.0 602.0,343.0" stroke="#7F7F7F" stroke-width="1" /><polyline fill="none" opacity="100" points="598.0,377.0 598.0,343.0" stroke="#7F7F7F" stroke-width="1" /><polyline fill="none" opacity="100" points="594.0,377.0 594.0,343.0" stroke="#7F7F7F" stroke-width="1" /><polyline fill="none" opacity="100" points="590.0,377.0 590.0,343.0" stroke="#7F7F7F" stroke-width="1" /><polyline fill="none" opacity="100" points="586.0,377.0 586.0,343.0" stroke="#7F7F7F" stroke-width="1" /><polyline fill="none" opacity="100" points="582.0,377.0 582.0,343.0" stroke="#7F7F7F" stroke-width="1" /><polyline fill="none" opacity="100" points="578.0,377.0 578.0,343.0" stroke="#7F7F7F" stroke-width="1" /><polyline fill="none" opacity="100" points="574.0,377.0 574.0,343.0" stroke="#7F7F7F" stroke-width="1" /><polyline fill="none" opacity="100" points="570.0,377.0 570.0,343.0" stroke="#7F7F7F" stroke-width="1" /><polyline fill="none" opacity="100" points="566.0,377.0 566.0,343.0" stroke="#7F7F7F" stroke-width="1" /><polyline fill="none" opacity="100" points="562.0,377.0 562.0,343.0" stroke="#7F7F7F" stroke-width="1" /><polyline fill="none" opacity="100" points="558.0,377.0 558.0,343.0" stroke="#7F7F7F" stroke-width="1" /><polyline fill="none" opacity="100" points="554.0,377.0 554.0,343.0" stroke="#7F7F7F" stroke-width="1" /><polyline fill="none" opacity="100" points="550.0,377.0 550.0,343.0" stroke="#7F7F7F" stroke-width="1" /><polyline fill="none" opacity="100" points="546.0,377.0 546.0,343.0" stroke="#7F7F7F" stroke-width="1" /><polyline fill="none" opacity="100" points="542.0,377.0 542.0,343.0" stroke="#7F7F7F" stroke-width="1" /><polyline fill="none" opacity="100" points="538.0,377.0 538.0,343.0" stroke="#7F7F7F" stroke-width="1" /><polyline fill="none" opacity="100" points="534.0,377.0 534.0,343.0" stroke="#7F7F7F" stroke-width="1" /><polyline fill="none" opacity="100" points="530.0,377.0 530.0,343.0" stroke="#7F7F7F" stroke-width="1" /><polyline fill="none" opacity="100" points="526.0,377.0 526.0,343.0" stroke="#7F7F7F" stroke-width="1" /><polyline fill="none" opacity="100" points="522.0,377.0 522.0,343.0" stroke="#7F7F7F" stroke-width="1" /><polyline fill="none" opacity="100" points="518.0,377.0 518.0,343.0" stroke="#7F7F7F" stroke-width="1" /><polyline fill="none" opacity="100" points="514.0,377.0 514.0,343.0" stroke="#7F7F7F" stroke-width="1" /><polyline fill="none" opacity="100" points="510.0,377.0 510.0,343.0" stroke="#7F7F7F" stroke-width="1" /><polyline fill="none" opacity="100" points="506.0,377.0 506.0,343.0" stroke="#7F7F7F" stroke-width="1" /><polyline fill="none" opacity="100" points="502.0,377.0 502.0,343.0" stroke="#7F7F7F" stroke-width="1" /><polyline fill="none" opacity="100" points="498.0,377.0 498.0,343.0" stroke="#7F7F7F" stroke-width="1" /><polyline fill="none" opacity="100" points="494.0,377.0 494.0,343.0" stroke="#7F7F7F" stroke-width="1" /><polyline fill="none" opacity="100" points="490.0,377.0 490.0,343.0" stroke="#7F7F7F" stroke-width="1" /><polyline fill="none" opacity="100" points="486.0,377.0 486.0,343.0" stroke="#7F7F7F" stroke-width="1" /><polyline fill="none" opacity="100" points="482.0,377.0 482.0,343.0" stroke="#7F7F7F" stroke-width="1" /><polyline fill="none" opacity="100" points="478.0,377.0 478.0,343.0" stroke="#7F7F7F" stroke-width="1" /><polyline fill="none" opacity="100" points="474.0,377.0 474.0,343.0" stroke="#7F7F7F" stroke-width="1" /><polyline fill="none" opacity="100" points="470.0,377.0 470.0,343.0" stroke="#7F7F7F" stroke-width="1" /><polygon fill="#9B5509" opacity="100" points="621.0,343.0 465.0,343.0 465.0,340.0 621.0,340.0" stroke="#000" stroke-width="1" /><polygon fill="#9B5509" opacity="100" points="621.0,351.0 621.0,356.0 465.0,356.0 465.0,351.0" stroke="#000" stroke-width="1" /><polygon fill="#9B5509" opacity="100" points="621.0,364.0 621.0,369.0 465.0,369.0 465.0,364.0" stroke="#000" stroke-width="1" /><polygon fill="#9B5509" opacity="100" points="621.0,377.0 465.0,377.0 465.0,380.0 621.0,380.0" stroke="#000" stroke-width="1" /><polyline fill="none" opacity="100" points="112.0,400.0 112.0,391.0 253.0,391.0 253.0,383.0 200.0,383.0 200.0,380.0" stroke="#000" stroke-width="1" /><polyline fill="none" opacity="100" points="112.0,320.0 112.0,328.0 253.0,328.0 253.0,337.0 200.0,337.0 200.0,340.0" stroke="#000" stroke-width="1" /><polyline fill="none" opacity="100" points="75.0,321.0 53.0,313.0" stroke="#000" stroke-width="1" /><polyline fill="none" opacity="100" points="53.0,313.0 51.0,312.2969 49.0,311.6875 46.9998,311.1716 45.0,310.75 43.0022,310.4241 41.0039,310.1914 39.0044,310.0513 37.0,310.0 34.9839,310.0308 32.9648,310.1523 30.9485,310.3704 28.9375,310.6875 26.9363,311.1082 24.9453,311.6328 22.9658,312.2627 21.0,313.0 19.0498,313.8467 17.1172,314.8047 15.2024,315.8772 13.3125,317.0625 11.4597,318.3552 9.6289,319.7695 7.8169,321.311 6.0,323.0 4.1323,324.8726 2.2773,326.8867 0.4785,329.0173 -1.25,331.25 -2.8887,333.5588 -4.4102,335.9531 -5.7974,338.4316 -7.0,341.0 -7.9409,343.6777 -8.6836,346.4219 -9.2622,349.2004 -9.6875,352.0 -9.9878,354.8054 -10.1445,357.5898 -10.1509,360.3354 -10.0,363.0 -9.6733,365.52 -9.1992,367.9414 -8.5969,370.2876 -7.875,372.5625 -7.0457,374.7827 -6.1172,376.9336 -5.0967,379.0073 -4.0,381.0 -2.8486,382.9028 -1.6328,384.7227 -0.3496,386.4631 1.0,388.125 2.4199,389.7107 3.8984,391.2188 5.4287,392.6484 7.0,394.0 8.5947,395.2734 10.2266,396.4688 11.9028,397.5859 13.625,398.625 15.3979,399.5859 17.2188,400.4688 19.0859,401.2734 21.0,402.0" stroke="#000" stroke-width="1" /><polyline fill="none" opacity="100" points="21.0,402.0 43.0,410.0" stroke="#000" stroke-width="1" /><polyline fill="none" opacity="100" points="69.0,338.0 47.0,330.0" stroke="#000" stroke-width="1" /><polyline fill="none" opacity="100" points="47.0,330.0 44.9609,329.2578 42.9688,328.6562 41.0234,328.1953 39.125,327.875 37.2734,327.6953 35.4688,327.6562 33.7109,327.7578 32.0,328.0 30.3359,328.3828 28.7188,328.9062 27.1484,329.5703 25.625,330.375 24.1484,331.3203 22.7188,332.4062 21.3359,333.6328 20.0,335.0" stroke="#000" stroke-width="1" /><polyline fill="none" opacity="100" points="20.0,335.0 34.0,340.0" stroke="#000" stroke-width="1" /><polyline fill="none" opacity="100" points="27.0,385.0 49.0,393.0" stroke="#000" stroke-width="1" /><polyline fill="none" opacity="100" points="27.0,385.0 25.7109,384.5391 24.4688,384.0312 23.2734,383.4766 22.125,382.875 21.0234,382.2266 19.9688,381.5312 18.9609,380.7891 18.0,380.0 17.0859,379.1641 16.2188,378.2812 15.3984,377.3516 14.625,376.375 13.8984,375.3516 13.2188,374.2812 12.5859,373.1641 12.0,372.0" stroke="#000" stroke-width="1" /><polyline fill="none" opacity="100" points="12.0,372.0 34.0,380.0" stroke="#000" stroke-width="1" /><polyline fill="none" opacity="100" points="34.0,364.0 -9.0,348.0" stroke="#000" stroke-width="0.5" /><polyline fill="none" opacity="100" points="36.0,328.0 36.0,325.0" stroke="#000" stroke-width="0.5" /><polyline fill="none" opacity="100" points="36.0,313.0 36.0,310.0" stroke="#000" stroke-width="0.5" /><polyline fill="none" opacity="100" points="34.0,313.0 38.0,313.0" stroke="#090" stroke-width="1" /><polyline fill="none" opacity="100" points="34.0,317.0 38.0,317.0" stroke="#090" stroke-width="1" /><polyline fill="none" opacity="100" points="34.0,321.0 38.0,321.0" stroke="#090" stroke-width="1" /><polyline fill="none" opacity="100" points="34.0,325.0 38.0,325.0" stroke="#090" stroke-width="1" /><polyline fill="none" opacity="100" points="202.0,377.0 202.0,343.0" stroke="#7F7F7F" stroke-width="1" /><polyline fill="none" opacity="100" points="198.0,377.0 198.0,343.0" stroke="#7F7F7F" stroke-width="1" /><polyline fill="none" opacity="100" points="194.0,377.0 194.0,343.0" stroke="#7F7F7F" stroke-width="1" /><polyline fill="none" opacity="100" points="190.0,377.0 190.0,343.0" stroke="#7F7F7F" stroke-width="1" /><polyline fill="none" opacity="100" points="186.0,377.0 186.0,343.0" stroke="#7F7F7F" stroke-width="1" /><polyline fill="none" opacity="100" points="182.0,377.0 182.0,343.0" stroke="#7F7F7F" stroke-width="1" /><polyline fill="none" opacity="100" points="178.0,377.0 178.0,343.0" stroke="#7F7F7F" stroke-width="1" /><polyline fill="none" opacity="100" points="174.0,377.0 174.0,343.0" stroke="#7F7F7F" stroke-width="1" /><polyline fill="none" opacity="100" points="170.0,377.0 170.0,343.0" stroke="#7F7F7F" stroke-width="1" /><polyline fill="none" opacity="100" points="166.0,377.0 166.0,343.0" stroke="#7F7F7F" stroke-width="1" /><polyline fill="none" opacity="100" points="162.0,377.0 162.0,343.0" stroke="#7F7F7F" stroke-width="1" /><polyline fill="none" opacity="100" points="158.0,377.0 158.0,343.0" stroke="#7F7F7F" stroke-width="1" /><polyline fill="none" opacity="100" points="154.0,377.0 154.0,343.0" stroke="#7F7F7F" stroke-width="1" /><polyline fill="none" opacity="100" points="150.0,377.0 150.0,343.0" stroke="#7F7F7F" stroke-width="1" /><polyline fill="none" opacity="100" points="146.0,377.0 146.0,343.0" stroke="#7F7F7F" stroke-width="1" /><polyline fill="none" opacity="100" points="142.0,377.0 142.0,343.0" stroke="#7F7F7F" stroke-width="1" /><polyline fill="none" opacity="100" points="138.0,377.0 138.0,343.0" stroke="#7F7F7F" stroke-width="1" /><polyline fill="none" opacity="100" points="134.0,377.0 134.0,343.0" stroke="#7F7F7F" stroke-width="1" /><polyline fill="none" opacity="100" points="130.0,377.0 130.0,343.0" stroke="#7F7F7F" stroke-width="1" /><polyline fill="none" opacity="100" points="126.0,377.0 126.0,343.0" stroke="#7F7F7F" stroke-width="1" /><polyline fill="none" opacity="100" points="122.0,377.0 122.0,343.0" stroke="#7F7F7F" stroke-width="1" /><polyline fill="none" opacity="100" points="118.0,377.0 118.0,343.0" stroke="#7F7F7F" stroke-width="1" /><polyline fill="none" opacity="100" points="114.0,377.0 114.0,343.0" stroke="#7F7F7F" stroke-width="1" /><polyline fill="none" opacity="100" points="110.0,377.0 110.0,343.0" stroke="#7F7F7F" stroke-width="1" /><polyline fill="none" opacity="100" points="106.0,377.0 106.0,343.0" stroke="#7F7F7F" stroke-width="1" /><polyline fill="none" opacity="100" points="102.0,377.0 102.0,343.0" stroke="#7F7F7F" stroke-width="1" /><polyline fill="none" opacity="100" points="98.0,377.0 98.0,343.0" stroke="#7F7F7F" stroke-width="1" /><polyline fill="none" opacity="100" points="94.0,377.0 94.0,343.0" stroke="#7F7F7F" stroke-width="1" /><polyline fill="none" opacity="100" points="90.0,377.0 90.0,343.0" stroke="#7F7F7F" stroke-width="1" /><polyline fill="none" opacity="100" points="86.0,377.0 86.0,343.0" stroke="#7F7F7F" stroke-width="1" /><polyline fill="none" opacity="100" points="82.0,377.0 82.0,343.0" stroke="#7F7F7F" stroke-width="1" /><polyline fill="none" opacity="100" points="78.0,377.0 78.0,343.0" stroke="#7F7F7F" stroke-width="1" /><polyline fill="none" opacity="100" points="74.0,377.0 74.0,343.0" stroke="#7F7F7F" stroke-width="1" /><polyline fill="none" opacity="100" points="70.0,377.0 70.0,343.0" stroke="#7F7F7F" stroke-width="1" /><polyline fill="none" opacity="100" points="66.0,377.0 66.0,343.0" stroke="#7F7F7F" stroke-width="1" /><polyline fill="none" opacity="100" points="62.0,377.0 62.0,343.0" stroke="#7F7F7F" stroke-width="1" /><polyline fill="none" opacity="100" points="58.0,377.0 58.0,343.0" stroke="#7F7F7F" stroke-width="1" /><polyline fill="none" opacity="100" points="54.0,377.0 54.0,343.0" stroke="#7F7F7F" stroke-width="1" /><polyline fill="none" opacity="100" points="50.0,377.0 50.0,343.0" stroke="#7F7F7F" stroke-width="1" /><polyline fill="none" opacity="100" points="46.0,377.0 46.0,343.0" stroke="#7F7F7F" stroke-width="1" /><polyline fill="none" opacity="100" points="42.0,377.0 42.0,343.0" stroke="#7F7F7F" stroke-width="1" /><polygon fill="#9B5509" opacity="100" points="209.0,343.0 34.0,343.0 34.0,340.0 209.0,340.0" stroke="#000" stroke-width="1" /><polygon fill="#9B5509" opacity="100" points="209.0,351.0 209.0,356.0 34.0,356.0 34.0,351.0" stroke="#000" stroke-width="1" /><polygon fill="#9B5509" opacity="100" points="209.0,364.0 209.0,369.0 34.0,369.0 34.0,364.0" stroke="#000" stroke-width="1" /><polygon fill="#9B5509" opacity="100" points="209.0,377.0 34.0,377.0 34.0,380.0 209.0,380.0" stroke="#000" stroke-width="1" /><polyline fill="none" opacity="100" points="32.0,396.0 46.0,401.0" stroke="#F00" stroke-width="1" /><polygon fill="#F00" opacity="100" points="41.5549,400.6382 46.0,401.0 42.3313,398.4641" stroke="#F00" stroke-width="1" /><polyline fill="none" opacity="100" points="760.0,354.0 772.0,366.0" stroke="#F00" stroke-width="1" /><polygon fill="#F00" opacity="100" points="767.5909,363.4544 772.0,366.0 769.4544,361.5909" stroke="#F00" stroke-width="1" /><polyline fill="none" opacity="100" points="741.0,338.0 751.0,328.0" stroke="#F00" stroke-width="1" /><polygon fill="#F00" opacity="100" points="748.8787,331.6742 751.0,328.0 747.3258,330.1213" stroke="#F00" stroke-width="1" /><polyline fill="none" opacity="100" points="72.0,329.0 58.0,324.0" stroke="#090" stroke-width="1" /><polygon fill="#090" opacity="100" points="62.4451,324.3618 58.0,324.0 61.6687,326.5359" stroke="#090" stroke-width="1" /><polyline fill="none" opacity="100" points="684.0,455.0 675.0,446.0" stroke="#090" stroke-width="1" /><polygon fill="#090" opacity="100" points="678.3068,447.9092 675.0,446.0 676.9092,449.3068" stroke="#090" stroke-width="1" /><text fill="#00AFAF" font-family="Arial" font-size="15" font-weight="normal" opacity="100" transform="rotate(-140.0 166.0,719.0) translate(0 15)" x="166.0" y="719.0">улица Академика Лебедева</text><text fill="#00AFAF" font-family="Arial" font-size="15" font-weight="normal" opacity="100" transform="rotate(-50.0 37.0,557.0) translate(0 15)" x="37.0" y="557.0">Боткинская улица</text><text fill="#00AFAF" font-family="Arial" font-size="15" font-weight="normal" opacity="100" transform="rotate(-50.0 229.0,557.0) translate(0 15)" x="229.0" y="557.0">Финский переулок</text><text fill="#00AFAF" font-family="Arial" font-size="15" font-weight="normal" opacity="100" transform="rotate(-0.0 -98.0,413.0) translate(0 15)" x="-98.0" y="413.0">&lt;&lt; Лесной проспект</text><text fill="#00AFAF" font-family="Arial" font-size="15" font-weight="normal" opacity="100" transform="rotate(-140.0 769.0,294.0) translate(0 15)" x="769.0" y="294.0">Финляндский вокзал</text><text fill="#00AFAF" font-family="Arial" font-size="15" font-weight="normal" opacity="100" transform="rotate(-50.0 708.0,454.0) translate(0 15)" x="708.0" y="454.0">улица Комсомола</text></g></g></svg>