<?xml version="1.0" encoding="utf-8" ?>
<svg baseProfile="tiny" height="920px" version="1.2" width="1100px" xmlns="http://www.w3.org/2000/svg" xmlns:ev="http://www.w3.org/2001/xml-events" xmlns:xlink="http://www.w3.org/1999/xlink"><defs /><g><g transform="rotate(10.0,550.0,460.0)"><polygon fill="#D6083B" opacity="100" points="813.0,212.0 843.0,212.0 843.0,662.0 813.0,662.0" stroke="#000" stroke-width="1" /><polygon fill="#D6083B" opacity="100" points="703.0,212.0 733.0,212.0 733.0,662.0 703.0,662.0" stroke="#000" stroke-width="1" /><text fill="#D6083B" font-family="Arial" font-size="20" font-weight="normal" opacity="100" transform="rotate(-90.0 678.0,662.0) translate(0 20)" x="678.0" y="662.0">&lt;&lt; Владимирская</text><text fill="#D6083B" font-family="Arial" font-size="20" font-weight="normal" opacity="100" transform="rotate(-90.0 843.0,364.0) translate(0 20)" x="843.0" y="364.0">Чернышевская &gt;&gt;</text><text fill="#D6083B" font-family="Arial" font-size="25" font-weight="bold" opacity="100" transform="rotate(-90.0 761.0,568.0) translate(0 25)" x="761.0" y="568.0">Площадь Восстания</text><polygon fill="#CCC" opacity="100" points="803.0,300.0 803.0,309.0 795.0,309.0 795.0,300.0" stroke="#000" stroke-width="1" /><polygon fill="#CCC" opacity="100" points="751.0,300.0 751.0,309.0 743.0,309.0 743.0,300.0" stroke="#000" stroke-width="1" /><polygon fill="#CCC" opacity="100" points="803.0,319.0 803.0,327.0 795.0,327.0 795.0,319.0" stroke="#000" stroke-width="1" /><polygon fill="#CCC" opacity="100" points="751.0,319.0 751.0,327.0 743.0,327.0 743.0,319.0" stroke="#000" stroke-width="1" /><polygon fill="#CCC" opacity="100" points="803.0,337.0 803.0,345.0 795.0,345.0 795.0,337.0" stroke="#000" stroke-width="1" /><polygon fill="#CCC" opacity="100" points="751.0,337.0 751.0,345.0 743.0,345.0 743.0,337.0" stroke="#000" stroke-width="1" /><polygon fill="#CCC" opacity="100" points="803.0,354.0 803.0,362.0 795.0,362.0 795.0,354.0" stroke="#000" stroke-width="1" /><polygon fill="#CCC" opacity="100" points="751.0,354.0 751.0,362.0 743.0,362.0 743.0,354.0" stroke="#000" stroke-width="1" /><polygon fill="#CCC" opacity="100" points="803.0,372.0 803.0,380.0 795.0,380.0 795.0,372.0" stroke="#000" stroke-width="1" /><polygon fill="#CCC" opacity="100" points="751.0,372.0 751.0,380.0 743.0,380.0 743.0,372.0" stroke="#000" stroke-width="1" /><polygon fill="#CCC" opacity="100" points="803.0,388.0 803.0,397.0 805.0,397.0 805.0,405.0 803.0,405.0 803.0,452.0 806.0,452.0 806.0,461.0 803.0,461.0 803.0,469.0 795.0,469.0 795.0,461.0 792.0,461.0 792.0,452.0 795.0,452.0 795.0,405.0 792.0,405.0 792.0,397.0 795.0,397.0 795.0,388.0" stroke="#000" stroke-width="1" /><polygon fill="#CCC" opacity="100" points="751.0,477.0 751.0,486.0 743.0,486.0 743.0,477.0" stroke="#000" stroke-width="1" /><polygon fill="#CCC" opacity="100" points="751.0,495.0 751.0,504.0 743.0,504.0 743.0,495.0" stroke="#000" stroke-width="1" /><polygon fill="#CCC" opacity="100" points="751.0,513.0 751.0,522.0 743.0,522.0 743.0,513.0" stroke="#000" stroke-width="1" /><polygon fill="#CCC" opacity="100" points="803.0,477.0 803.0,522.0 795.0,522.0 795.0,513.0 798.0,513.0 798.0,504.0 795.0,504.0 795.0,495.0 798.0,495.0 798.0,486.0 795.0,486.0 795.0,477.0" stroke="#000" stroke-width="1" /><polygon fill="#CCC" opacity="100" points="803.0,530.0 803.0,538.0 795.0,538.0 795.0,530.0" stroke="#000" stroke-width="1" /><polygon fill="#CCC" opacity="100" points="751.0,530.0 751.0,538.0 743.0,538.0 743.0,530.0" stroke="#000" stroke-width="1" /><polygon fill="#CCC" opacity="100" points="803.0,547.0 803.0,555.0 795.0,555.0 795.0,547.0" stroke="#000" stroke-width="1" /><polygon fill="#CCC" opacity="100" points="751.0,547.0 751.0,555.0 743.0,555.0 743.0,547.0" stroke="#000" stroke-width="1" /><polygon fill="#CCC" opacity="100" points="803.0,563.0 803.0,572.0 795.0,572.0 795.0,563.0" stroke="#000" stroke-width="1" /><polygon fill="#CCC" opacity="100" points="751.0,563.0 751.0,572.0 743.0,572.0 743.0,563.0" stroke="#000" stroke-width="1" /><polygon fill="#CCC" opacity="100" points="803.0,581.0 803.0,590.0 795.0,590.0 795.0,581.0" stroke="#000" stroke-width="1" /><polygon fill="#CCC" opacity="100" points="751.0,581.0 751.0,590.0 743.0,590.0 743.0,581.0" stroke="#000" stroke-width="1" /><polygon fill="#CCC" opacity="100" points="743.0,389.0 751.0,389.0 751.0,398.0 754.0,398.0 754.0,406.0 751.0,406.0 751.0,412.0 736.0,412.0 736.0,409.0 740.0,409.0 740.0,398.0 743.0,398.0" stroke="#000" stroke-width="1" /><polygon fill="#CCC" opacity="100" points="751.0,448.0 751.0,452.0 754.0,452.0 754.0,461.0 751.0,461.0 751.0,469.0 743.0,469.0 743.0,461.0 740.0,461.0 740.0,451.0 736.0,451.0 736.0,448.0" stroke="#000" stroke-width="1" /><polygon fill="#FFF" opacity="100" points="782.0,214.0 782.0,223.0 777.0,223.0 777.0,214.0" stroke="#000" stroke-width="1" /><polygon fill="#FFF" opacity="100" points="760.0,451.0 760.0,461.0 754.0,461.0 754.0,451.0" stroke="#000" stroke-width="1" /><polyline fill="none" opacity="100" points="813.0,212.0 807.0,212.0 807.0,222.0 803.0,222.0 803.0,286.0 795.0,286.0 795.0,248.0 791.0,248.0 791.0,240.0 796.0,240.0 796.0,199.0 793.0,199.0" stroke="#000" stroke-width="1" /><polyline fill="none" opacity="100" points="753.0,199.0 750.0,199.0 750.0,240.0 755.0,240.0 755.0,248.0 751.0,248.0 751.0,286.0 743.0,286.0 743.0,212.0 733.0,212.0" stroke="#000" stroke-width="1" /><polyline fill="none" opacity="100" points="799.0,85.0 799.0,85.0" stroke="#000" stroke-width="3" /><polyline fill="none" opacity="100" points="804.0,78.0 804.0,78.0" stroke="#000" stroke-width="3" /><polyline fill="none" opacity="100" points="808.0,68.0 808.0,68.0" stroke="#000" stroke-width="3" /><polyline fill="none" opacity="100" points="808.0,58.0 808.0,58.0" stroke="#000" stroke-width="3" /><polyline fill="none" opacity="100" points="806.0,49.0 806.0,49.0" stroke="#000" stroke-width="3" /><polyline fill="none" opacity="100" points="802.0,40.0 802.0,40.0" stroke="#000" stroke-width="3" /><polyline fill="none" opacity="100" points="795.0,32.0 795.0,32.0" stroke="#000" stroke-width="3" /><polyline fill="none" opacity="100" points="777.0,25.0 777.0,25.0" stroke="#000" stroke-width="3" /><polyline fill="none" opacity="100" points="787.0,27.0 787.0,27.0" stroke="#000" stroke-width="3" /><polyline fill="none" opacity="100" points="768.0,25.0 768.0,25.0" stroke="#000" stroke-width="3" /><polyline fill="none" opacity="100" points="758.0,27.0 758.0,27.0" stroke="#000" stroke-width="3" /><polyline fill="none" opacity="100" points="751.0,32.0 751.0,32.0" stroke="#000" stroke-width="3" /><polyline fill="none" opacity="100" points="743.0,40.0 743.0,40.0" stroke="#000" stroke-width="3" /><polyline fill="none" opacity="100" points="739.0,49.0 739.0,49.0" stroke="#000" stroke-width="3" /><polyline fill="none" opacity="100" points="737.0,58.0 737.0,58.0" stroke="#000" stroke-width="3" /><polyline fill="none" opacity="100" points="737.0,68.0 737.0,68.0" stroke="#000" stroke-width="3" /><polyline fill="none" opacity="100" points="741.0,78.0 741.0,78.0" stroke="#000" stroke-width="3" /><polyline fill="none" opacity="100" points="746.0,85.0 746.0,85.0" stroke="#000" stroke-width="3" /><polyline fill="none" opacity="100" points="817.0,75.0 845.0,88.0 842.0,95.0" stroke="#000" stroke-width="1" /><polyline fill="none" opacity="100" points="728.0,75.0 700.0,88.0 703.0,95.0" stroke="#000" stroke-width="1" /><polyline fill="none" opacity="100" points="756.0,-15.0 756.0,-20.0 759.0,-20.0" stroke="#000" stroke-width="1" /><polyline fill="none" opacity="100" points="788.0,-20.0 791.0,-20.0 791.0,-15.0" stroke="#000" stroke-width="1" /><polyline fill="none" opacity="100" points="788.0,-20.0 787.8828,-20.6094 787.6562,-21.1875 787.3184,-21.7349 786.875,-22.25 786.3379,-22.73 785.6875,-23.1797 784.918,-23.6006 784.0,-24.0 782.8789,-24.3916 781.625,-24.7578 780.2839,-25.0864 778.875,-25.375 777.429,-25.6206 775.957,-25.8125 774.4712,-25.9453 773.0,-26.0 771.5796,-25.9453 770.1992,-25.8125 768.8589,-25.6206 767.5625,-25.375 766.3052,-25.0864 765.1133,-24.7578 764.0024,-24.3916 763.0,-24.0 762.1499,-23.6006 761.418,-23.1797 760.7859,-22.73 760.25,-22.25 759.7981,-21.7349 759.4375,-21.1875 759.1719,-20.6094 759.0,-20.0" stroke="#000" stroke-width="1" /><polyline fill="none" opacity="100" points="753.0,94.0 750.1797,92.0078 747.5938,89.9062 745.2419,87.6921 743.125,85.375 741.2444,82.9739 739.5977,80.457 738.1841,77.8149 737.0,75.0 736.0386,71.9233 735.3086,68.6992 734.8159,65.4038 734.5625,62.0625 734.5513,58.7134 734.7852,55.3945 735.2661,52.1313 736.0,49.0 736.9956,46.1147 738.2461,43.3867 739.7478,40.7683 741.5,38.25 743.5002,35.8 745.75,33.4375 748.25,31.1719 751.0,29.0" stroke="#000" stroke-width="1" /><polyline fill="none" opacity="100" points="731.0,82.0 729.7734,79.25 728.7188,76.5 727.8367,73.7485 727.125,71.0 726.5793,68.2632 726.207,65.5234 726.0103,62.7764 726.0,60.0 726.1968,57.1533 726.5742,54.2891 727.1147,51.4424 727.8125,48.625 728.6587,45.8545 729.6445,43.1484 730.7642,40.5186 732.0,38.0 733.3257,35.6455 734.7617,33.4141 736.3191,31.2837 738.0,29.25 739.8118,27.2983 741.75,25.4375 743.8125,23.6719 746.0,22.0" stroke="#000" stroke-width="1" /><polyline fill="none" opacity="100" points="701.0,31.0 702.1719,28.2812 703.4375,25.625 704.7966,23.0308 706.25,20.5 707.7991,18.0356 709.4414,15.6328 711.1763,13.29 713.0,11.0 714.9058,8.749 716.9023,6.5547 718.9956,4.4287 721.1875,2.375 723.481,0.3994 725.8789,-1.4922 728.3833,-3.2959 731.0,-5.0 733.7378,-6.5869 736.5898,-8.0703 739.5525,-9.4575 742.625,-10.75 745.8049,-11.9526 749.0938,-13.0625 752.4922,-14.0781 756.0,-15.0" stroke="#000" stroke-width="1" /><polyline fill="none" opacity="100" points="791.0,-15.0 794.1484,-14.0781 797.2188,-13.0625 800.2112,-11.9526 803.125,-10.75 805.9587,-9.4575 808.7148,-8.0703 811.394,-6.5869 814.0,-5.0 816.5396,-3.2959 819.0039,-1.4922 821.3872,0.3994 823.6875,2.375 825.9019,4.4287 828.0273,6.5547 830.062,8.749 832.0,11.0 833.8325,13.29 835.5664,15.6328 837.2053,18.0356 838.75,20.5 840.2029,23.0308 841.5625,25.625 842.8281,28.2812 844.0,31.0" stroke="#000" stroke-width="1" /><polyline fill="none" opacity="100" points="793.0,94.0 795.875,91.7734 798.5,89.4688 800.8745,87.0835 803.0,84.625 804.8794,82.1079 806.5078,79.5078 807.8838,76.8174 809.0,74.0 809.8428,70.9873 810.4297,67.8672 810.7725,64.6982 810.875,61.5 810.7432,58.3018 810.3828,55.1328 809.7979,52.0127 809.0,49.0 808.0068,46.1826 806.8047,43.4922 805.3862,40.8921 803.75,38.375 801.8911,35.9165 799.8125,33.5312 797.5156,31.2266 795.0,29.0" stroke="#000" stroke-width="1" /><polyline fill="none" opacity="100" points="814.0,82.0 815.2266,79.25 816.2812,76.5 817.1633,73.7485 817.875,71.0 818.4207,68.2632 818.793,65.5234 818.9897,62.7764 819.0,60.0 818.8032,57.1533 818.4258,54.2891 817.8853,51.4424 817.1875,48.625 816.3413,45.8545 815.3555,43.1484 814.2358,40.5186 813.0,38.0 811.6743,35.6455 810.2383,33.4141 808.6809,31.2837 807.0,29.25 805.1882,27.2983 803.25,25.4375 801.1875,23.6719 799.0,22.0" stroke="#000" stroke-width="1" /><polygon fill="#FFF" opacity="100" points="780.0,40.0 780.0,47.0 769.0,47.0 769.0,40.0" stroke="#000" stroke-width="1" /><polyline fill="none" opacity="100" points="703.0,26.0 709.0,29.0" stroke="#000" stroke-width="1" /><polyline fill="none" opacity="100" points="714.0,31.0 720.0,34.0" stroke="#000" stroke-width="1" /><polyline fill="none" opacity="100" points="725.0,36.0 731.0,39.0" stroke="#000" stroke-width="1" /><polyline fill="none" opacity="100" points="842.0,26.0 836.0,29.0" stroke="#000" stroke-width="1" /><polyline fill="none" opacity="100" points="831.0,31.0 825.0,34.0" stroke="#000" stroke-width="1" /><polyline fill="none" opacity="100" points="820.0,36.0 814.0,39.0" stroke="#000" stroke-width="1" /><polyline fill="none" opacity="100" points="847.0,39.0 849.0,49.0" stroke="#000" stroke-width="1" /><polyline fill="none" opacity="100" points="850.0,61.0 849.0,73.0" stroke="#000" stroke-width="1" /><polyline fill="none" opacity="100" points="847.0,82.0 845.0,88.0" stroke="#000" stroke-width="1" /><polyline fill="none" opacity="100" points="698.0,39.0 696.0,49.0" stroke="#000" stroke-width="1" /><polyline fill="none" opacity="100" points="695.0,61.0 696.0,73.0" stroke="#000" stroke-width="1" /><polyline fill="none" opacity="100" points="698.0,82.0 700.0,88.0" stroke="#000" stroke-width="1" /><polygon fill="#CCC" opacity="100" points="743.0,25.0 746.0,22.0 751.0,29.0 748.0,31.0" stroke="#000" stroke-width="1" /><polygon fill="#CCC" opacity="100" points="751.0,19.0 755.0,17.0 759.0,24.0 755.0,26.0" stroke="#000" stroke-width="1" /><polygon fill="#CCC" opacity="100" points="763.0,15.0 768.0,14.0 769.0,22.0 765.0,23.0" stroke="#000" stroke-width="1" /><polygon fill="#CCC" opacity="100" points="777.0,14.0 776.0,22.0 780.0,23.0 782.0,15.0" stroke="#000" stroke-width="1" /><polygon fill="#CCC" opacity="100" points="786.0,24.0 789.0,17.0 793.0,19.0 790.0,26.0" stroke="#000" stroke-width="1" /><polygon fill="#CCC" opacity="100" points="798.0,31.0 802.0,25.0 799.0,22.0 795.0,29.0" stroke="#000" stroke-width="1" /><polyline fill="none" opacity="100" points="790.0,97.0 756.0,97.0" stroke="#7F7F7F" stroke-width="1" /><polyline fill="none" opacity="100" points="790.0,101.0 756.0,101.0" stroke="#7F7F7F" stroke-width="1" /><polyline fill="none" opacity="100" points="790.0,105.0 756.0,105.0" stroke="#7F7F7F" stroke-width="1" /><polyline fill="none" opacity="100" points="790.0,109.0 756.0,109.0" stroke="#7F7F7F" stroke-width="1" /><polyline fill="none" opacity="100" points="790.0,113.0 756.0,113.0" stroke="#7F7F7F" stroke-width="1" /><polyline fill="none" opacity="100" points="790.0,117.0 756.0,117.0" stroke="#7F7F7F" stroke-width="1" /><polyline fill="none" opacity="100" points="790.0,121.0 756.0,121.0" stroke="#7F7F7F" stroke-width="1" /><polyline fill="none" opacity="100" points="790.0,125.0 756.0,125.0" stroke="#7F7F7F" stroke-width="1" /><polyline fill="none" opacity="100" points="790.0,129.0 756.0,129.0" stroke="#7F7F7F" stroke-width="1" /><polyline fill="none" opacity="100" points="790.0,133.0 756.0,133.0" stroke="#7F7F7F" stroke-width="1" /><polyline fill="none" opacity="100" points="790.0,137.0 756.0,137.0" stroke="#7F7F7F" stroke-width="1" /><polyline fill="none" opacity="100" points="790.0,141.0 756.0,141.0" stroke="#7F7F7F" stroke-width="1" /><polyline fill="none" opacity="100" points="790.0,145.0 756.0,145.0" stroke="#7F7F7F" stroke-width="1" /><polyline fill="none" opacity="100" points="790.0,149.0 756.0,149.0" stroke="#7F7F7F" stroke-width="1" /><polyline fill="none" opacity="100" points="790.0,153.0 756.0,153.0" stroke="#7F7F7F" stroke-width="1" /><polyline fill="none" opacity="100" points="790.0,157.0 756.0,157.0" stroke="#7F7F7F" stroke-width="1" /><polyline fill="none" opacity="100" points="790.0,161.0 756.0,161.0" stroke="#7F7F7F" stroke-width="1" /><polyline fill="none" opacity="100" points="790.0,165.0 756.0,165.0" stroke="#7F7F7F" stroke-width="1" /><polyline fill="none" opacity="100" points="790.0,169.0 756.0,169.0" stroke="#7F7F7F" stroke-width="1" /><polyline fill="none" opacity="100" points="790.0,173.0 756.0,173.0" stroke="#7F7F7F" stroke-width="1" /><polyline fill="none" opacity="100" points="790.0,177.0 756.0,177.0" stroke="#7F7F7F" stroke-width="1" /><polyline fill="none" opacity="100" points="790.0,181.0 756.0,181.0" stroke="#7F7F7F" stroke-width="1" /><polyline fill="none" opacity="100" points="790.0,185.0 756.0,185.0" stroke="#7F7F7F" stroke-width="1" /><polyline fill="none" opacity="100" points="790.0,189.0 756.0,189.0" stroke="#7F7F7F" stroke-width="1" /><polyline fill="none" opacity="100" points="790.0,193.0 756.0,193.0" stroke="#7F7F7F" stroke-width="1" /><polyline fill="none" opacity="100" points="790.0,197.0 756.0,197.0" stroke="#7F7F7F" stroke-width="1" /><polyline fill="none" opacity="100" points="790.0,201.0 756.0,201.0" stroke="#7F7F7F" stroke-width="1" /><polyline fill="none" opacity="100" points="790.0,205.0 756.0,205.0" stroke="#7F7F7F" stroke-width="1" /><polygon fill="#9B5509" opacity="100" points="756.0,90.0 756.0,212.0 753.0,212.0 753.0,90.0" stroke="#000" stroke-width="1" /><polygon fill="#9B5509" opacity="100" points="764.0,90.0 769.0,90.0 769.0,212.0 764.0,212.0" stroke="#000" stroke-width="1" /><polygon fill="#9B5509" opacity="100" points="777.0,90.0 782.0,90.0 782.0,212.0 777.0,212.0" stroke="#000" stroke-width="1" /><polygon fill="#9B5509" opacity="100" points="790.0,90.0 790.0,212.0 793.0,212.0 793.0,90.0" stroke="#000" stroke-width="1" /><polyline fill="none" opacity="100" points="777.0,90.0 769.0,73.0 769.0,44.0 751.0,-14.0" stroke="#000" stroke-width="0.5" /><polyline fill="none" opacity="100" points="807.0,44.0 800.0,44.0" stroke="#000" stroke-width="0.5" /><polyline fill="none" opacity="100" points="784.0,41.0 784.0,46.0" stroke="#090" stroke-width="1" /><polyline fill="none" opacity="100" points="788.0,41.0 788.0,46.0" stroke="#090" stroke-width="1" /><polyline fill="none" opacity="100" points="792.0,41.0 792.0,46.0" stroke="#090" stroke-width="1" /><polyline fill="none" opacity="100" points="796.0,41.0 796.0,46.0" stroke="#090" stroke-width="1" /><polyline fill="none" opacity="100" points="800.0,41.0 800.0,46.0" stroke="#090" stroke-width="1" /><polyline fill="none" opacity="100" points="700.0,56.0 683.0,56.0" stroke="#F00" stroke-width="1" /><polygon fill="#F00" opacity="100" points="687.9262,54.68 683.0,56.0 687.9262,57.32" stroke="#F00" stroke-width="1" /><polyline fill="none" opacity="100" points="857.0,55.0 841.0,55.0" stroke="#090" stroke-width="1" /><polygon fill="#090" opacity="100" points="845.6364,53.7577 841.0,55.0 845.6364,56.2423" stroke="#090" stroke-width="1" /><polyline fill="none" opacity="100" points="733.0,662.0 743.0,662.0 743.0,600.0 751.0,600.0 751.0,662.0 753.0,662.0 753.0,664.0" stroke="#000" stroke-width="1" /><polyline fill="none" opacity="100" points="793.0,664.0 793.0,662.0 795.0,662.0 795.0,600.0 803.0,600.0 803.0,662.0 813.0,662.0" stroke="#000" stroke-width="1" /><polyline fill="none" opacity="100" points="713.0,710.0 713.0,701.0 753.0,701.0 753.0,664.0" stroke="#000" stroke-width="1" /><polyline fill="none" opacity="100" points="793.0,664.0 793.0,701.0 823.0,701.0 830.0,700.0 836.0,698.0 835.0,695.0 857.0,687.0 858.0,690.0" stroke="#000" stroke-width="1" /><polyline fill="none" opacity="100" points="737.0,731.0 809.0,731.0" stroke="#000" stroke-width="1" /><polyline fill="none" opacity="100" points="753.0,664.0 793.0,664.0" stroke="#000" stroke-width="1" /><polyline fill="none" opacity="100" points="753.0,668.0 793.0,668.0" stroke="#000" stroke-width="1" /><polyline fill="none" opacity="100" points="753.0,672.0 793.0,672.0" stroke="#000" stroke-width="1" /><polyline fill="none" opacity="100" points="753.0,676.0 793.0,676.0" stroke="#000" stroke-width="1" /><polyline fill="none" opacity="100" points="753.0,680.0 793.0,680.0" stroke="#000" stroke-width="1" /><polyline fill="none" opacity="100" points="753.0,684.0 793.0,684.0" stroke="#000" stroke-width="1" /><polyline fill="none" opacity="100" points="753.0,688.0 793.0,688.0" stroke="#000" stroke-width="1" /><polyline fill="none" opacity="100" points="753.0,692.0 793.0,692.0" stroke="#000" stroke-width="1" /><polyline fill="none" opacity="100" points="753.0,696.0 793.0,696.0" stroke="#000" stroke-width="1" /><polyline fill="none" opacity="100" points="751.0,731.0 751.0,701.0" stroke="#000" stroke-width="1" /><polyline fill="none" opacity="100" points="747.0,731.0 747.0,701.0" stroke="#000" stroke-width="1" /><polyline fill="none" opacity="100" points="743.0,731.0 743.0,701.0" stroke="#000" stroke-width="1" /><polyline fill="none" opacity="100" points="739.0,731.0 739.0,701.0" stroke="#000" stroke-width="1" /><polyline fill="none" opacity="100" points="795.0,731.0 795.0,701.0" stroke="#000" stroke-width="1" /><polyline fill="none" opacity="100" points="799.0,731.0 799.0,701.0" stroke="#000" stroke-width="1" /><polyline fill="none" opacity="100" points="803.0,731.0 803.0,701.0" stroke="#000" stroke-width="1" /><polyline fill="none" opacity="100" points="807.0,731.0 807.0,701.0" stroke="#000" stroke-width="1" /><polygon fill="#009a49" opacity="100" points="218.0,468.0 218.0,498.0 668.0,498.0 668.0,468.0" stroke="#000" stroke-width="1" /><polygon fill="#009a49" opacity="100" points="668.0,388.0 668.0,358.0 218.0,358.0 218.0,388.0" stroke="#000" stroke-width="1" /><text fill="#009a49" font-family="Arial" font-size="20" font-weight="normal" opacity="100" transform="rotate(-0.0 219.0,336.0) translate(0 20)" x="219.0" y="336.0">&lt;&lt; Гостиный двор</text><text fill="#009a49" font-family="Arial" font-size="20" font-weight="normal" opacity="100" transform="rotate(-0.0 360.0,498.0) translate(0 20)" x="360.0" y="498.0">Площадь Александра Невского-I &gt;&gt;</text><text fill="#009a49" font-family="Arial" font-size="25" font-weight="bold" opacity="100" transform="rotate(-0.0 378.0,390.0) translate(0 25)" x="378.0" y="390.0">Маяковская</text><polyline fill="none" opacity="100" points="687.0,412.0 687.0,409.0 668.0,409.0 668.0,391.0 656.0,391.0 656.0,393.0 643.0,392.0 643.0,390.0 638.0,390.0 638.0,393.0 626.0,392.0 626.0,390.0 621.0,390.0 621.0,393.0 609.0,392.0 609.0,390.0 604.0,390.0 604.0,393.0 592.0,392.0 592.0,390.0 587.0,390.0 587.0,393.0 575.0,392.0 575.0,390.0 570.0,390.0 570.0,393.0 558.0,392.0 558.0,390.0 553.0,390.0 553.0,393.0 541.0,392.0 541.0,390.0 536.0,390.0 536.0,393.0 524.0,392.0 524.0,390.0 519.0,390.0 519.0,393.0 507.0,392.0 507.0,390.0 502.0,390.0 502.0,393.0 490.0,392.0 490.0,390.0 485.0,390.0 485.0,393.0 473.0,392.0 473.0,390.0 468.0,390.0 468.0,393.0 456.0,392.0 456.0,390.0 451.0,390.0 451.0,393.0 439.0,392.0 439.0,390.0 434.0,390.0 434.0,393.0 422.0,392.0 422.0,390.0 417.0,390.0 417.0,393.0 405.0,392.0 405.0,390.0 400.0,390.0 400.0,393.0 388.0,392.0 388.0,390.0 383.0,390.0 383.0,393.0 371.0,392.0 371.0,390.0 366.0,390.0 366.0,393.0 354.0,392.0 354.0,390.0 349.0,390.0 349.0,393.0 337.0,392.0 337.0,390.0 332.0,390.0 332.0,393.0 320.0,392.0 320.0,390.0 315.0,390.0 315.0,393.0 303.0,392.0 303.0,390.0 298.0,390.0 298.0,393.0 286.0,392.0 286.0,390.0 281.0,390.0 281.0,393.0 269.0,392.0 269.0,390.0 264.0,390.0 264.0,393.0 252.0,392.0 252.0,390.0 247.0,390.0 247.0,393.0 234.0,392.0 234.0,391.0 218.0,391.0 218.0,409.0 203.0,409.0 203.0,405.0 172.0,405.0 172.0,408.0" stroke="#000" stroke-width="1" /><polyline fill="none" opacity="100" points="687.0,448.0 687.0,451.0 668.0,451.0 668.0,465.0 656.0,465.0 656.0,464.0 643.0,463.0 643.0,466.0 638.0,466.0 638.0,464.0 626.0,463.0 626.0,466.0 621.0,466.0 621.0,464.0 609.0,463.0 609.0,466.0 604.0,466.0 604.0,464.0 592.0,463.0 592.0,466.0 587.0,466.0 587.0,464.0 575.0,463.0 575.0,466.0 570.0,466.0 570.0,464.0 558.0,463.0 558.0,466.0 553.0,466.0 553.0,464.0 541.0,463.0 541.0,466.0 536.0,466.0 536.0,464.0 524.0,463.0 524.0,466.0 519.0,466.0 519.0,464.0 507.0,463.0 507.0,466.0 502.0,466.0 502.0,464.0 490.0,463.0 490.0,466.0 485.0,466.0 485.0,464.0 473.0,463.0 473.0,466.0 468.0,466.0 468.0,464.0 456.0,463.0 456.0,466.0 451.0,466.0 451.0,464.0 439.0,463.0 439.0,466.0 434.0,466.0 434.0,464.0 422.0,463.0 422.0,466.0 417.0,466.0 417.0,464.0 405.0,463.0 405.0,466.0 400.0,466.0 400.0,464.0 388.0,463.0 388.0,466.0 383.0,466.0 383.0,464.0 371.0,463.0 371.0,466.0 366.0,466.0 366.0,464.0 354.0,463.0 354.0,466.0 349.0,466.0 349.0,464.0 337.0,463.0 337.0,466.0 332.0,466.0 332.0,464.0 320.0,463.0 320.0,466.0 315.0,466.0 315.0,464.0 303.0,463.0 303.0,466.0 298.0,466.0 298.0,464.0 286.0,463.0 286.0,466.0 281.0,466.0 281.0,464.0 269.0,463.0 269.0,466.0 264.0,466.0 264.0,464.0 252.0,463.0 252.0,466.0 247.0,466.0 247.0,464.0 234.0,463.0 234.0,465.0 218.0,465.0 218.0,447.0 203.0,447.0 203.0,451.0 172.0,451.0 172.0,448.0" stroke="#000" stroke-width="1" /><polyline fill="none" opacity="100" points="388.0,443.0 411.0,443.0 411.0,422.0 388.0,422.0" stroke="#000" stroke-width="1" /><polyline fill="none" opacity="100" points="503.0,443.0 480.0,443.0 480.0,422.0 503.0,422.0" stroke="#000" stroke-width="1" /><polygon fill="#FFF" opacity="0.2" points="461.0,499.0 430.0,499.0 430.0,467.0 461.0,467.0" stroke="#FFF" stroke-width="1" /><polyline fill="none" opacity="0.2" points="411.0,422.0 480.0,422.0" stroke="#000" stroke-width="1" /><polyline fill="none" opacity="0.2" points="480.0,443.0 465.0,443.0 465.0,454.0 461.0,454.0 461.0,470.0 461.0,498.0" stroke="#000" stroke-width="1" /><polyline fill="none" opacity="0.2" points="411.0,443.0 426.0,443.0 426.0,454.0 430.0,454.0 430.0,470.0 430.0,498.0" stroke="#000" stroke-width="1" /><polyline fill="none" opacity="0.2" points="478.0,422.0 478.0,443.0" stroke="#000" stroke-width="1" /><polyline fill="none" opacity="0.2" points="474.0,422.0 474.0,443.0" stroke="#000" stroke-width="1" /><polyline fill="none" opacity="0.2" points="470.0,422.0 470.0,443.0" stroke="#000" stroke-width="1" /><polyline fill="none" opacity="0.2" points="466.0,422.0 466.0,443.0" stroke="#000" stroke-width="1" /><polyline fill="none" opacity="0.2" points="413.0,422.0 413.0,443.0" stroke="#000" stroke-width="1" /><polyline fill="none" opacity="0.2" points="417.0,422.0 417.0,443.0" stroke="#000" stroke-width="1" /><polyline fill="none" opacity="0.2" points="421.0,422.0 421.0,443.0" stroke="#000" stroke-width="1" /><polyline fill="none" opacity="0.2" points="425.0,422.0 425.0,443.0" stroke="#000" stroke-width="1" /><polygon fill="#808080" opacity="0.2" points="442.0,454.0 442.0,464.0 445.0,470.0 449.0,464.0 449.0,454.0" stroke="#000" stroke-width="1" /><polyline fill="none" opacity="1.0" points="472.0,538.0 620.0,676.0" stroke="#000" stroke-width="1" /><polyline fill="none" opacity="1.0" points="600.0,695.0 452.0,556.0" stroke="#000" stroke-width="1" /><polyline fill="none" opacity="1.0" points="461.0,498.0 460.8672,501.2031 460.8438,504.3125 460.9297,507.3281 461.125,510.25 461.4297,513.0781 461.8438,515.8125 462.3672,518.4531 463.0,521.0 463.7422,523.4531 464.5938,525.8125 465.5547,528.0781 466.625,530.25 467.8047,532.3281 469.0938,534.3125 470.4922,536.2031 472.0,538.0" stroke="#000" stroke-width="1" /><polyline fill="none" opacity="1.0" points="430.0,498.0 429.9688,501.8594 430.125,505.6875 430.4688,509.4844 431.0,513.25 431.7188,516.9844 432.625,520.6875 433.7188,524.3594 435.0,528.0 436.4688,531.6094 438.125,535.1875 439.9688,538.7344 442.0,542.25 444.2188,545.7344 446.625,549.1875 449.2188,552.6094 452.0,556.0" stroke="#000" stroke-width="1" /><polyline fill="none" opacity="1.0" points="620.0,676.0 624.9922,680.7031 630.0938,685.0625 635.3047,689.0781 640.625,692.75 646.0547,696.0781 651.5938,699.0625 657.2422,701.7031 663.0,704.0 668.8672,705.9531 674.8438,707.5625 680.9297,708.8281 687.125,709.75 693.4297,710.3281 699.8438,710.5625 706.3672,710.4531 713.0,710.0" stroke="#000" stroke-width="1" /><polyline fill="none" opacity="1.0" points="600.0,695.0 606.0078,700.1875 612.1562,705.0 618.4453,709.4375 624.875,713.5 631.4453,717.1875 638.1562,720.5 645.0078,723.4375 652.0,726.0 659.1328,728.1875 666.4062,730.0 673.8203,731.4375 681.375,732.5 689.0703,733.1875 696.9062,733.5 704.8828,733.4375 713.0,733.0" stroke="#000" stroke-width="1" /><polyline fill="none" opacity="1.0" points="389.0,422.0 389.0,443.0" stroke="#000" stroke-width="1" /><polyline fill="none" opacity="1.0" points="393.0,422.0 393.0,443.0" stroke="#000" stroke-width="1" /><polyline fill="none" opacity="1.0" points="397.0,422.0 397.0,443.0" stroke="#000" stroke-width="1" /><polyline fill="none" opacity="1.0" points="401.0,422.0 401.0,443.0" stroke="#000" stroke-width="1" /><polyline fill="none" opacity="1.0" points="405.0,422.0 405.0,443.0" stroke="#000" stroke-width="1" /><polyline fill="none" opacity="1.0" points="409.0,422.0 409.0,443.0" stroke="#000" stroke-width="1" /><polyline fill="none" opacity="1.0" points="502.0,422.0 502.0,443.0" stroke="#000" stroke-width="1" /><polyline fill="none" opacity="1.0" points="498.0,422.0 498.0,443.0" stroke="#000" stroke-width="1" /><polyline fill="none" opacity="1.0" points="494.0,422.0 494.0,443.0" stroke="#000" stroke-width="1" /><polyline fill="none" opacity="1.0" points="490.0,422.0 490.0,443.0" stroke="#000" stroke-width="1" /><polyline fill="none" opacity="1.0" points="486.0,422.0 486.0,443.0" stroke="#000" stroke-width="1" /><polyline fill="none" opacity="1.0" points="482.0,422.0 482.0,443.0" stroke="#000" stroke-width="1" /><polyline fill="none" opacity="1.0" points="74.0,243.0 74.0,305.0 79.0,326.0 83.0,329.0 179.0,329.0" stroke="#000" stroke-width="1" /><polyline fill="none" opacity="1.0" points="97.0,408.0 86.0,360.0 87.0,356.0 90.0,354.0 131.0,354.0 131.0,362.0 179.0,362.0" stroke="#000" stroke-width="1" /><polyline fill="none" opacity="1.0" points="3.0,243.0 3.0,399.0 13.0,399.0 13.0,394.0 18.0,394.0 18.0,423.0 13.0,423.0 13.0,418.0 3.0,418.0" stroke="#000" stroke-width="1" /><polyline fill="none" opacity="1.0" points="3.0,418.0 2.875,422.9609 3.0,427.7188 3.3772,432.2742 4.0,436.625 4.8552,440.7668 5.9648,444.707 7.3354,448.4478 9.0,452.0 11.02,455.3843 13.3164,458.5742 15.8394,461.5522 18.5625,464.3125 21.4419,466.8462 24.4805,469.1445 27.6694,471.2017 31.0,473.0 34.4751,474.5132 38.0508,475.7617 41.6909,476.7546 45.375,477.5 49.0825,478.0168 52.7773,478.2812 56.4331,478.2852 60.0,478.0 63.4067,477.3711 66.6914,476.4688 69.8687,475.3398 72.9375,474.0 75.9126,472.4727 78.7617,470.7812 81.4663,468.9414 84.0,467.0 86.3188,465.0273 88.457,462.9688 90.4329,460.7949 92.25,458.5 93.9207,456.0645 95.4375,453.5 96.7969,450.8125 98.0,448.0" stroke="#000" stroke-width="1" /><polyline fill="none" opacity="1.0" points="3.0,262.0 18.0,262.0" stroke="#000" stroke-width="1" /><polyline fill="none" opacity="1.0" points="31.0,262.0 44.0,262.0" stroke="#000" stroke-width="1" /><polyline fill="none" opacity="1.0" points="57.0,262.0 74.0,262.0" stroke="#000" stroke-width="1" /><polyline fill="none" opacity="1.0" points="3.0,268.0 18.0,268.0" stroke="#000" stroke-width="1" /><polyline fill="none" opacity="1.0" points="31.0,268.0 44.0,268.0" stroke="#000" stroke-width="1" /><polyline fill="none" opacity="1.0" points="57.0,268.0 74.0,268.0" stroke="#000" stroke-width="1" /><polyline fill="none" opacity="1.0" points="169.0,329.0 169.0,336.0" stroke="#000" stroke-width="1" /><polyline fill="none" opacity="1.0" points="169.0,343.0 169.0,349.0" stroke="#000" stroke-width="1" /><polyline fill="none" opacity="1.0" points="169.0,356.0 169.0,362.0" stroke="#000" stroke-width="1" /><polyline fill="none" opacity="1.0" points="164.0,329.0 164.0,336.0" stroke="#000" stroke-width="1" /><polyline fill="none" opacity="1.0" points="164.0,343.0 164.0,349.0" stroke="#000" stroke-width="1" /><polyline fill="none" opacity="1.0" points="164.0,356.0 164.0,362.0" stroke="#000" stroke-width="1" /><polygon fill="#FFF" opacity="1.0" points="47.0,449.0 56.0,449.0 56.0,461.0 47.0,461.0" stroke="#000" stroke-width="1" /><polygon fill="#CCC" opacity="1.0" points="32.0,353.0 57.0,353.0 57.0,360.0 32.0,360.0" stroke="#000" stroke-width="1" /><polygon fill="#CCC" opacity="1.0" points="175.0,344.0 179.0,344.0 179.0,348.0 175.0,348.0" stroke="#000" stroke-width="1" /><polygon fill="#CCC" opacity="1.0" points="10.0,242.0 14.0,242.0 14.0,247.0 10.0,247.0" stroke="#000" stroke-width="1" /><polygon fill="#CCC" opacity="1.0" points="24.0,242.0 28.0,242.0 28.0,247.0 24.0,247.0" stroke="#000" stroke-width="1" /><polygon fill="#CCC" opacity="1.0" points="36.0,242.0 40.0,242.0 40.0,247.0 36.0,247.0" stroke="#000" stroke-width="1" /><polygon fill="#CCC" opacity="1.0" points="50.0,242.0 54.0,242.0 54.0,247.0 50.0,247.0" stroke="#000" stroke-width="1" /><polygon fill="#CCC" opacity="1.0" points="63.0,242.0 67.0,242.0 67.0,247.0 63.0,247.0" stroke="#000" stroke-width="1" /><polyline fill="none" opacity="1.0" points="174.0,445.0 174.0,411.0" stroke="#7F7F7F" stroke-width="1" /><polyline fill="none" opacity="1.0" points="170.0,445.0 170.0,411.0" stroke="#7F7F7F" stroke-width="1" /><polyline fill="none" opacity="1.0" points="166.0,445.0 166.0,411.0" stroke="#7F7F7F" stroke-width="1" /><polyline fill="none" opacity="1.0" points="162.0,445.0 162.0,411.0" stroke="#7F7F7F" stroke-width="1" /><polyline fill="none" opacity="1.0" points="158.0,445.0 158.0,411.0" stroke="#7F7F7F" stroke-width="1" /><polyline fill="none" opacity="1.0" points="154.0,445.0 154.0,411.0" stroke="#7F7F7F" stroke-width="1" /><polyline fill="none" opacity="1.0" points="150.0,445.0 150.0,411.0" stroke="#7F7F7F" stroke-width="1" /><polyline fill="none" opacity="1.0" points="146.0,445.0 146.0,411.0" stroke="#7F7F7F" stroke-width="1" /><polyline fill="none" opacity="1.0" points="142.0,445.0 142.0,411.0" stroke="#7F7F7F" stroke-width="1" /><polyline fill="none" opacity="1.0" points="138.0,445.0 138.0,411.0" stroke="#7F7F7F" stroke-width="1" /><polyline fill="none" opacity="1.0" points="134.0,445.0 134.0,411.0" stroke="#7F7F7F" stroke-width="1" /><polyline fill="none" opacity="1.0" points="130.0,445.0 130.0,411.0" stroke="#7F7F7F" stroke-width="1" /><polyline fill="none" opacity="1.0" points="126.0,445.0 126.0,411.0" stroke="#7F7F7F" stroke-width="1" /><polyline fill="none" opacity="1.0" points="122.0,445.0 122.0,411.0" stroke="#7F7F7F" stroke-width="1" /><polyline fill="none" opacity="1.0" points="118.0,445.0 118.0,411.0" stroke="#7F7F7F" stroke-width="1" /><polyline fill="none" opacity="1.0" points="114.0,445.0 114.0,411.0" stroke="#7F7F7F" stroke-width="1" /><polyline fill="none" opacity="1.0" points="110.0,445.0 110.0,411.0" stroke="#7F7F7F" stroke-width="1" /><polyline fill="none" opacity="1.0" points="106.0,445.0 106.0,411.0" stroke="#7F7F7F" stroke-width="1" /><polyline fill="none" opacity="1.0" points="102.0,445.0 102.0,411.0" stroke="#7F7F7F" stroke-width="1" /><polyline fill="none" opacity="1.0" points="98.0,445.0 98.0,411.0" stroke="#7F7F7F" stroke-width="1" /><polyline fill="none" opacity="1.0" points="94.0,445.0 94.0,411.0" stroke="#7F7F7F" stroke-width="1" /><polyline fill="none" opacity="1.0" points="90.0,445.0 90.0,411.0" stroke="#7F7F7F" stroke-width="1" /><polygon fill="#9B5509" opacity="1.0" points="181.0,411.0 85.0,411.0 85.0,408.0 181.0,408.0" stroke="#000" stroke-width="1" /><polygon fill="#9B5509" opacity="1.0" points="181.0,419.0 181.0,424.0 85.0,424.0 85.0,419.0" stroke="#000" stroke-width="1" /><polygon fill="#9B5509" opacity="1.0" points="181.0,432.0 181.0,437.0 85.0,437.0 85.0,432.0" stroke="#000" stroke-width="1" /><polygon fill="#9B5509" opacity="1.0" points="181.0,445.0 85.0,445.0 85.0,448.0 181.0,448.0" stroke="#000" stroke-width="1" /><polygon fill="#FFF" opacity="1.0" points="190.0,432.0 190.0,437.0 183.0,437.0 183.0,432.0" stroke="#000" stroke-width="1" /><polyline fill="none" opacity="1.0" points="85.0,448.0 56.0,461.0" stroke="#000" stroke-width="0.5" /><polyline fill="none" opacity="1.0" points="85.0,424.0 54.0,418.0" stroke="#000" stroke-width="0.5" /><polyline fill="none" opacity="1.0" points="49.0,418.0 54.0,418.0" stroke="#090" stroke-width="1" /><polyline fill="none" opacity="1.0" points="49.0,422.0 54.0,422.0" stroke="#090" stroke-width="1" /><polyline fill="none" opacity="1.0" points="49.0,426.0 54.0,426.0" stroke="#090" stroke-width="1" /><polyline fill="none" opacity="1.0" points="49.0,430.0 54.0,430.0" stroke="#090" stroke-width="1" /><polyline fill="none" opacity="1.0" points="49.0,434.0 54.0,434.0" stroke="#090" stroke-width="1" /><polyline fill="none" opacity="1.0" points="49.0,438.0 54.0,438.0" stroke="#090" stroke-width="1" /><polyline fill="none" opacity="1.0" points="49.0,442.0 54.0,442.0" stroke="#090" stroke-width="1" /><polyline fill="none" opacity="1.0" points="49.0,446.0 54.0,446.0" stroke="#090" stroke-width="1" /><polyline fill="none" opacity="1.0" points="50.0,290.0 50.0,275.0" stroke="#F00" stroke-width="1" /><polygon fill="#F00" opacity="1.0" points="51.1647,279.3467 50.0,275.0 48.8353,279.3467" stroke="#F00" stroke-width="1" /><polyline fill="none" opacity="1.0" points="25.0,275.0 25.0,290.0" stroke="#090" stroke-width="1" /><polygon fill="#090" opacity="1.0" points="23.8353,285.6533 25.0,290.0 26.1647,285.6533" stroke="#090" stroke-width="1" /><polyline fill="none" opacity="1.0" points="713.0,733.0 713.0,742.0 823.0,742.0 838.0,741.0 851.0,738.0 852.0,741.0 874.0,733.0 873.0,730.0" stroke="#000" stroke-width="1" /><polygon fill="#FFF" opacity="1.0" points="979.0,694.0 981.0,690.0 976.0,687.0 974.0,691.0" stroke="#000" stroke-width="1" /><polygon fill="#FFF" opacity="1.0" points="983.0,655.0 980.0,647.0 975.0,649.0 978.0,657.0" stroke="#000" stroke-width="1" /><polygon fill="#FFF" opacity="1.0" points="856.0,719.0 851.0,721.0 853.0,725.0 858.0,723.0" stroke="#000" stroke-width="1" /><polyline fill="none" opacity="1.0" points="960.0,562.0 962.0,568.0 970.0,565.0" stroke="#000" stroke-width="1" /><polyline fill="none" opacity="1.0" points="980.0,588.0 969.0,592.0 988.0,644.0 994.0,642.0 1008.0,681.0 1002.0,683.0 1021.0,736.0 1065.0,720.0 1067.0,725.0" stroke="#000" stroke-width="1" /><polyline fill="none" opacity="1.0" points="1066.0,722.0 1140.0,695.0" stroke="#000" stroke-width="1" /><polyline fill="none" opacity="1.0" points="1146.0,714.0 1072.0,741.0" stroke="#000" stroke-width="1" /><polyline fill="none" opacity="1.0" points="1071.0,739.0 1073.0,744.0 1065.0,747.0 1069.0,758.0 1066.0,759.0" stroke="#000" stroke-width="1" /><polyline fill="none" opacity="1.0" points="1058.0,762.0 1055.0,763.0 1051.0,752.0 1029.0,760.0 1031.0,766.0 989.0,781.0 988.0,778.0" stroke="#000" stroke-width="1" /><polyline fill="none" opacity="1.0" points="979.0,755.0 978.0,752.0 981.0,751.0 980.0,748.0 991.0,744.0 988.0,736.0 982.0,738.0 967.0,696.0 956.0,700.0" stroke="#000" stroke-width="1" /><polyline fill="none" opacity="1.0" points="941.0,660.0 951.0,657.0 933.0,606.0 922.0,610.0" stroke="#000" stroke-width="1" /><polyline fill="none" opacity="1.0" points="913.0,586.0 924.0,582.0 922.0,576.0" stroke="#000" stroke-width="1" /><polyline fill="none" opacity="1.0" points="922.0,576.0 923.4375,573.0156 925.0,570.3125 926.6875,567.8906 928.5,565.75 930.4375,563.8906 932.5,562.3125 934.6875,561.0156 937.0,560.0 939.4375,559.2656 942.0,558.8125 944.6875,558.6406 947.5,558.75 950.4375,559.1406 953.5,559.8125 956.6875,560.7656 960.0,562.0" stroke="#000" stroke-width="1" /><polyline fill="none" opacity="1.0" points="946.0,586.0 946.0,586.0" stroke="#000" stroke-width="5" /><polyline fill="none" opacity="1.0" points="954.0,606.0 954.0,606.0" stroke="#000" stroke-width="5" /><polyline fill="none" opacity="1.0" points="961.0,626.0 961.0,626.0" stroke="#000" stroke-width="5" /><polyline fill="none" opacity="1.0" points="927.0,608.0 924.0,600.0" stroke="#000" stroke-width="1" /><polyline fill="none" opacity="1.0" points="921.0,592.0 918.0,584.0" stroke="#000" stroke-width="1" /><polyline fill="none" opacity="1.0" points="974.0,590.0 971.0,582.0" stroke="#000" stroke-width="1" /><polyline fill="none" opacity="1.0" points="968.0,575.0 965.0,567.0" stroke="#000" stroke-width="1" /><polyline fill="none" opacity="1.0" points="989.0,745.0 1000.0,777.0" stroke="#000" stroke-width="1" /><polyline fill="none" opacity="1.0" points="985.2053,746.2649 996.2053,778.2649" stroke="#000" stroke-width="1" /><polyline fill="none" opacity="1.0" points="1025.0,735.0 1033.0,758.0" stroke="#000" stroke-width="1" /><polyline fill="none" opacity="1.0" points="1028.7592,733.633 1036.7592,756.633" stroke="#000" stroke-width="1" /><polyline fill="none" opacity="1.0" points="1032.5183,732.2661 1040.5183,755.2661" stroke="#000" stroke-width="1" /><polyline fill="none" opacity="1.0" points="1096.0,711.0 1103.0,730.0" stroke="#000" stroke-width="1" /><polyline fill="none" opacity="1.0" points="1099.7592,709.633 1106.7592,728.633" stroke="#000" stroke-width="1" /><polyline fill="none" opacity="1.0" points="1103.5183,708.2661 1110.5183,727.2661" stroke="#000" stroke-width="1" /><polyline fill="none" opacity="1.0" points="1107.2775,706.8991 1114.2775,725.8991" stroke="#000" stroke-width="1" /><polyline fill="none" opacity="1.0" points="1111.0367,705.5321 1118.0367,724.5321" stroke="#000" stroke-width="1" /><polyline fill="none" opacity="1.0" points="1114.7959,704.1651 1121.7959,723.1651" stroke="#000" stroke-width="1" /><polyline fill="none" opacity="1.0" points="1118.555,702.7982 1125.555,721.7982" stroke="#000" stroke-width="1" /><polyline fill="none" opacity="1.0" points="1122.3142,701.4312 1129.3142,720.4312" stroke="#000" stroke-width="1" /><polyline fill="none" opacity="1.0" points="1126.0734,700.0642 1133.0734,719.0642" stroke="#000" stroke-width="1" /><polygon fill="#CCC" opacity="1.0" points="954.0,646.0 957.0,645.0 958.0,648.0 955.0,649.0" stroke="#000" stroke-width="1" /><polygon fill="#CCC" opacity="1.0" points="965.0,642.0 968.0,641.0 969.0,644.0 966.0,645.0" stroke="#000" stroke-width="1" /><polygon fill="#CCC" opacity="1.0" points="976.0,638.0 979.0,637.0 980.0,640.0 977.0,641.0" stroke="#000" stroke-width="1" /><polygon fill="#CCC" opacity="1.0" points="973.0,664.0 976.0,663.0 977.0,666.0 974.0,667.0" stroke="#000" stroke-width="1" /><polygon fill="#CCC" opacity="1.0" points="977.0,675.0 980.0,674.0 981.0,677.0 978.0,678.0" stroke="#000" stroke-width="1" /><polygon fill="#CCC" opacity="1.0" points="983.0,692.0 986.0,691.0 987.0,694.0 984.0,695.0" stroke="#000" stroke-width="1" /><polygon fill="#CCC" opacity="1.0" points="972.0,696.0 975.0,695.0 976.0,698.0 973.0,699.0" stroke="#000" stroke-width="1" /><polygon fill="#CCC" opacity="1.0" points="994.0,688.0 997.0,687.0 998.0,690.0 995.0,691.0" stroke="#000" stroke-width="1" /><polyline fill="none" opacity="1.0" points="859.0,694.0 871.0,727.0" stroke="#7F7F7F" stroke-width="1" /><polyline fill="none" opacity="1.0" points="862.7648,692.6485 874.7648,725.6485" stroke="#7F7F7F" stroke-width="1" /><polyline fill="none" opacity="1.0" points="866.5296,691.2971 878.5296,724.2971" stroke="#7F7F7F" stroke-width="1" /><polyline fill="none" opacity="1.0" points="870.2943,689.9456 882.2943,722.9456" stroke="#7F7F7F" stroke-width="1" /><polyline fill="none" opacity="1.0" points="874.0591,688.5942 886.0591,721.5942" stroke="#7F7F7F" stroke-width="1" /><polyline fill="none" opacity="1.0" points="877.8239,687.2427 889.8239,720.2427" stroke="#7F7F7F" stroke-width="1" /><polyline fill="none" opacity="1.0" points="881.5887,685.8912 893.5887,718.8912" stroke="#7F7F7F" stroke-width="1" /><polyline fill="none" opacity="1.0" points="885.3535,684.5398 897.3535,717.5398" stroke="#7F7F7F" stroke-width="1" /><polyline fill="none" opacity="1.0" points="889.1182,683.1883 901.1182,716.1883" stroke="#7F7F7F" stroke-width="1" /><polyline fill="none" opacity="1.0" points="892.883,681.8369 904.883,714.8369" stroke="#7F7F7F" stroke-width="1" /><polyline fill="none" opacity="1.0" points="896.6478,680.4854 908.6478,713.4854" stroke="#7F7F7F" stroke-width="1" /><polyline fill="none" opacity="1.0" points="900.4126,679.134 912.4126,712.134" stroke="#7F7F7F" stroke-width="1" /><polyline fill="none" opacity="1.0" points="904.1773,677.7825 916.1773,710.7825" stroke="#7F7F7F" stroke-width="1" /><polyline fill="none" opacity="1.0" points="907.9421,676.431 919.9421,709.431" stroke="#7F7F7F" stroke-width="1" /><polyline fill="none" opacity="1.0" points="911.7069,675.0796 923.7069,708.0796" stroke="#7F7F7F" stroke-width="1" /><polyline fill="none" opacity="1.0" points="915.4717,673.7281 927.4717,706.7281" stroke="#7F7F7F" stroke-width="1" /><polyline fill="none" opacity="1.0" points="919.2365,672.3767 931.2365,705.3767" stroke="#7F7F7F" stroke-width="1" /><polyline fill="none" opacity="1.0" points="923.0012,671.0252 935.0012,704.0252" stroke="#7F7F7F" stroke-width="1" /><polyline fill="none" opacity="1.0" points="926.766,669.6737 938.766,702.6737" stroke="#7F7F7F" stroke-width="1" /><polyline fill="none" opacity="1.0" points="930.5308,668.3223 942.5308,701.3223" stroke="#7F7F7F" stroke-width="1" /><polyline fill="none" opacity="1.0" points="934.2956,666.9708 946.2956,699.9708" stroke="#7F7F7F" stroke-width="1" /><polygon fill="#9B5509" opacity="1.0" points="850.0,693.0 941.0,660.0 942.0,664.0 851.0,697.0" stroke="#000" stroke-width="1" /><polygon fill="#9B5509" opacity="1.0" points="854.0,705.0 945.0,672.0 947.0,676.0 856.0,709.0" stroke="#000" stroke-width="1" /><polygon fill="#9B5509" opacity="1.0" points="859.0,718.0 950.0,685.0 952.0,689.0 861.0,722.0" stroke="#000" stroke-width="1" /><polygon fill="#9B5509" opacity="1.0" points="864.0,729.0 955.0,696.0 956.0,700.0 865.0,733.0" stroke="#000" stroke-width="1" /><polyline fill="none" opacity="1.0" points="947.0,676.0 973.0,664.0 978.0,657.0" stroke="#000" stroke-width="0.5" /><polyline fill="none" opacity="1.0" points="980.0,659.0 983.0,658.0" stroke="#090" stroke-width="1" /><polyline fill="none" opacity="1.0" points="981.1931,662.8179 984.1931,661.8179" stroke="#090" stroke-width="1" /><polyline fill="none" opacity="1.0" points="982.3862,666.6358 985.3862,665.6358" stroke="#090" stroke-width="1" /><polyline fill="none" opacity="1.0" points="983.5793,670.4538 986.5793,669.4538" stroke="#090" stroke-width="1" /><polyline fill="none" opacity="1.0" points="984.7724,674.2717 987.7724,673.2717" stroke="#090" stroke-width="1" /><polyline fill="none" opacity="1.0" points="984.0,677.0 987.0,679.0" stroke="#090" stroke-width="1" /><polyline fill="none" opacity="1.0" points="981.675,680.2549 984.675,682.2549" stroke="#090" stroke-width="1" /><polyline fill="none" opacity="1.0" points="979.3501,683.5099 982.3501,685.5099" stroke="#090" stroke-width="1" /><polyline fill="none" opacity="1.0" points="938.0,589.0 927.0,593.0" stroke="#F00" stroke-width="1" /><polygon fill="#F00" opacity="1.0" points="929.877,590.9868 927.0,593.0 930.4981,592.695" stroke="#F00" stroke-width="1" /><polyline fill="none" opacity="1.0" points="954.0,583.0 965.0,579.0" stroke="#F00" stroke-width="1" /><polygon fill="#F00" opacity="1.0" points="962.123,581.0132 965.0,579.0 961.5019,579.305" stroke="#F00" stroke-width="1" /><polyline fill="none" opacity="1.0" points="1002.0,734.0 995.0,717.0" stroke="#090" stroke-width="1" /><polygon fill="#090" opacity="1.0" points="998.3484,721.3827 995.0,717.0 995.7085,722.4697" stroke="#090" stroke-width="1" /><polygon fill="#FFF" opacity="0.8" points="702.0,414.0 734.0,414.0 734.0,446.0 702.0,446.0" stroke="#FFF" stroke-width="1" /><polyline fill="none" opacity="1.0" points="685.0,414.0 685.0,446.0" stroke="#7F7F7F" stroke-width="1" /><polyline fill="none" opacity="1.0" points="689.0,414.0 689.0,446.0" stroke="#7F7F7F" stroke-width="1" /><polyline fill="none" opacity="1.0" points="693.0,414.0 693.0,446.0" stroke="#7F7F7F" stroke-width="1" /><polyline fill="none" opacity="1.0" points="697.0,414.0 697.0,446.0" stroke="#7F7F7F" stroke-width="1" /><polyline fill="none" opacity="1.0" points="701.0,414.0 701.0,446.0" stroke="#7F7F7F" stroke-width="1" /><polyline fill="none" opacity="1.0" points="705.0,414.0 705.0,446.0" stroke="#7F7F7F" stroke-width="1" /><polyline fill="none" opacity="1.0" points="709.0,414.0 709.0,446.0" stroke="#7F7F7F" stroke-width="1" /><polyline fill="none" opacity="1.0" points="713.0,414.0 713.0,446.0" stroke="#7F7F7F" stroke-width="1" /><polyline fill="none" opacity="1.0" points="717.0,414.0 717.0,446.0" stroke="#7F7F7F" stroke-width="1" /><polyline fill="none" opacity="1.0" points="721.0,414.0 721.0,446.0" stroke="#7F7F7F" stroke-width="1" /><polyline fill="none" opacity="1.0" points="725.0,414.0 725.0,446.0" stroke="#7F7F7F" stroke-width="1" /><polyline fill="none" opacity="1.0" points="729.0,414.0 729.0,446.0" stroke="#7F7F7F" stroke-width="1" /><polyline fill="none" opacity="1.0" points="733.0,414.0 733.0,446.0" stroke="#7F7F7F" stroke-width="1" /><polyline fill="none" opacity="1.0" points="737.0,414.0 737.0,446.0" stroke="#7F7F7F" stroke-width="1" /><polyline fill="none" opacity="1.0" points="741.0,414.0 741.0,446.0" stroke="#7F7F7F" stroke-width="1" /><polyline fill="none" opacity="1.0" points="745.0,414.0 745.0,446.0" stroke="#7F7F7F" stroke-width="1" /><polyline fill="none" opacity="1.0" points="749.0,414.0 749.0,446.0" stroke="#7F7F7F" stroke-width="1" /><polyline fill="none" opacity="1.0" points="753.0,414.0 753.0,446.0" stroke="#7F7F7F" stroke-width="1" /><polygon fill="#9B5509" opacity="1.0" points="679.0,412.0 679.0,414.0 759.0,414.0 759.0,412.0" stroke="#000" stroke-width="1" /><polygon fill="#9B5509" opacity="1.0" points="679.0,423.0 679.0,419.0 759.0,419.0 759.0,423.0" stroke="#000" stroke-width="1" /><polygon fill="#9B5509" opacity="1.0" points="679.0,432.0 679.0,428.0 759.0,428.0 759.0,432.0" stroke="#000" stroke-width="1" /><polygon fill="#9B5509" opacity="1.0" points="679.0,441.0 679.0,437.0 759.0,437.0 759.0,441.0" stroke="#000" stroke-width="1" /><polygon fill="#9B5509" opacity="1.0" points="679.0,448.0 679.0,446.0 759.0,446.0 759.0,448.0" stroke="#000" stroke-width="1" /><polyline fill="none" opacity="1.0" points="759.0,439.0 774.0,439.0 774.0,462.0" stroke="#000" stroke-width="0.5" /><polyline fill="none" opacity="1.0" points="679.0,438.0 656.0,438.0" stroke="#000" stroke-width="0.5" /><polyline fill="none" opacity="1.0" points="759.0,430.0 774.0,430.0" stroke="#000" stroke-width="0.5" /><polyline fill="none" opacity="1.0" points="656.0,443.0 672.0,443.0" stroke="#000" stroke-width="1" /><polygon fill="#000" opacity="1.0" points="667.3636,444.2423 672.0,443.0 667.3636,441.7577" stroke="#000" stroke-width="1" /><polyline fill="none" opacity="1.0" points="774.0,426.0 760.0,426.0" stroke="#000" stroke-width="1" /><polygon fill="#000" opacity="1.0" points="764.0569,424.913 760.0,426.0 764.0569,427.087" stroke="#000" stroke-width="1" /><polyline fill="none" opacity="1.0" points="768.0,445.0 768.0,461.0" stroke="#000" stroke-width="1" /><polygon fill="#000" opacity="1.0" points="766.7577,456.3636 768.0,461.0 769.2423,456.3636" stroke="#000" stroke-width="1" /><polyline fill="none" opacity="1.0" points="672.0,426.0 657.0,426.0" stroke="#000" stroke-width="1" /><polygon fill="#000" opacity="1.0" points="661.3467,424.8353 657.0,426.0 661.3467,427.1647" stroke="#000" stroke-width="1" /><text fill="#00AFAF" font-family="Arial" font-size="15" font-weight="normal" opacity="1.0" transform="rotate(-0.0 7.0,192.0) translate(0 15)" x="7.0" y="192.0">Невский проспект</text><text fill="#00AFAF" font-family="Arial" font-size="15" font-weight="normal" opacity="1.0" transform="rotate(-0.0 514.0,193.0) translate(0 15)" x="514.0" y="193.0">Невский проспект</text><text fill="#00AFAF" font-family="Arial" font-size="15" font-weight="normal" opacity="1.0" transform="rotate(-90.0 638.0,151.0) translate(0 15)" x="638.0" y="151.0">улица Восстания</text><text fill="#00AFAF" font-family="Arial" font-size="15" font-weight="normal" opacity="1.0" transform="rotate(-90.0 865.0,654.0) translate(0 15)" x="865.0" y="654.0">Лиговский проспект</text><text fill="#00AFAF" font-family="Arial" font-size="15" font-weight="normal" opacity="1.0" transform="rotate(-90.0 189.0,608.0) translate(0 15)" x="189.0" y="608.0">улица Марата</text><text fill="#00AFAF" font-family="Arial" font-size="15" font-weight="normal" opacity="1.0" transform="rotate(70.0 1044.0,577.0) translate(0 15)" x="1044.0" y="577.0">Московский вокзал</text><text fill="#00AFAF" font-family="Arial" font-size="15" font-weight="normal" opacity="1.0" transform="rotate(-0.0 969.0,187.0) translate(0 15)" x="969.0" y="187.0">Плошадь</text><text fill="#00AFAF" font-family="Arial" font-size="15" font-weight="normal" opacity="1.0" transform="rotate(-0.0 962.0,218.0) translate(0 15)" x="962.0" y="218.0">Восстания</text></g></g></svg>