<?xml version="1.0" encoding="utf-8" ?>
<svg baseProfile="tiny" height="420px" version="1.2" width="780px" xmlns="http://www.w3.org/2000/svg" xmlns:ev="http://www.w3.org/2001/xml-events" xmlns:xlink="http://www.w3.org/1999/xlink"><defs /><g><g transform="rotate(-20.0,390.0,210.0)"><polygon fill="#D6083B" opacity="100" points="756.0,285.0 756.0,315.0 306.0,315.0 306.0,285.0" stroke="#000" stroke-width="1" /><polygon fill="#D6083B" opacity="100" points="756.0,205.0 756.0,175.0 306.0,175.0 306.0,205.0" stroke="#000" stroke-width="1" /><text fill="#D6083B" font-family="Arial" font-size="20" font-weight="normal" opacity="100" transform="rotate(-0.0 599.0,315.0) translate(0 20)" x="599.0" y="315.0">Академическая &gt;&gt;</text><text fill="#D6083B" font-family="Arial" font-size="20" font-weight="normal" opacity="100" transform="rotate(-0.0 308.0,151.0) translate(0 20)" x="308.0" y="151.0">&lt;&lt; Площадь Мужества</text><text fill="#D6083B" font-family="Arial" font-size="25" font-weight="bold" opacity="100" transform="rotate(-0.0 449.0,231.0) translate(0 25)" x="449.0" y="231.0">Политехническая</text><polyline fill="none" opacity="100" points="756.0,285.0 756.0,205.0" stroke="#000" stroke-width="1" /><polyline fill="none" opacity="100" points="306.0,285.0 306.0,273.0 275.0,273.0 275.0,270.0" stroke="#000" stroke-width="1" /><polyline fill="none" opacity="100" points="306.0,205.0 306.0,218.0 275.0,218.0 275.0,221.0" stroke="#000" stroke-width="1" /><polyline fill="none" opacity="100" points="83.0,222.0 80.0,219.0 68.0,231.0 76.0,239.0 76.0,251.0 67.0,260.0 79.0,272.0 82.0,269.0" stroke="#000" stroke-width="1" /><polyline fill="none" opacity="100" points="156.0,225.0 156.0,266.0" stroke="#7F7F7F" stroke-width="1" /><polyline fill="none" opacity="100" points="160.0,225.0 160.0,266.0" stroke="#7F7F7F" stroke-width="1" /><polyline fill="none" opacity="100" points="164.0,225.0 164.0,266.0" stroke="#7F7F7F" stroke-width="1" /><polyline fill="none" opacity="100" points="168.0,225.0 168.0,266.0" stroke="#7F7F7F" stroke-width="1" /><polyline fill="none" opacity="100" points="172.0,225.0 172.0,266.0" stroke="#7F7F7F" stroke-width="1" /><polyline fill="none" opacity="100" points="176.0,225.0 176.0,266.0" stroke="#7F7F7F" stroke-width="1" /><polyline fill="none" opacity="100" points="180.0,225.0 180.0,266.0" stroke="#7F7F7F" stroke-width="1" /><polyline fill="none" opacity="100" points="184.0,225.0 184.0,266.0" stroke="#7F7F7F" stroke-width="1" /><polyline fill="none" opacity="100" points="188.0,225.0 188.0,266.0" stroke="#7F7F7F" stroke-width="1" /><polyline fill="none" opacity="100" points="192.0,225.0 192.0,266.0" stroke="#7F7F7F" stroke-width="1" /><polyline fill="none" opacity="100" points="196.0,225.0 196.0,266.0" stroke="#7F7F7F" stroke-width="1" /><polyline fill="none" opacity="100" points="200.0,225.0 200.0,266.0" stroke="#7F7F7F" stroke-width="1" /><polyline fill="none" opacity="100" points="204.0,225.0 204.0,266.0" stroke="#7F7F7F" stroke-width="1" /><polyline fill="none" opacity="100" points="208.0,225.0 208.0,266.0" stroke="#7F7F7F" stroke-width="1" /><polyline fill="none" opacity="100" points="212.0,225.0 212.0,266.0" stroke="#7F7F7F" stroke-width="1" /><polyline fill="none" opacity="100" points="216.0,225.0 216.0,266.0" stroke="#7F7F7F" stroke-width="1" /><polyline fill="none" opacity="100" points="220.0,225.0 220.0,266.0" stroke="#7F7F7F" stroke-width="1" /><polyline fill="none" opacity="100" points="224.0,225.0 224.0,266.0" stroke="#7F7F7F" stroke-width="1" /><polyline fill="none" opacity="100" points="228.0,225.0 228.0,266.0" stroke="#7F7F7F" stroke-width="1" /><polyline fill="none" opacity="100" points="232.0,225.0 232.0,266.0" stroke="#7F7F7F" stroke-width="1" /><polyline fill="none" opacity="100" points="236.0,225.0 236.0,266.0" stroke="#7F7F7F" stroke-width="1" /><polyline fill="none" opacity="100" points="240.0,225.0 240.0,266.0" stroke="#7F7F7F" stroke-width="1" /><polyline fill="none" opacity="100" points="244.0,225.0 244.0,266.0" stroke="#7F7F7F" stroke-width="1" /><polyline fill="none" opacity="100" points="248.0,225.0 248.0,266.0" stroke="#7F7F7F" stroke-width="1" /><polyline fill="none" opacity="100" points="252.0,225.0 252.0,266.0" stroke="#7F7F7F" stroke-width="1" /><polyline fill="none" opacity="100" points="256.0,225.0 256.0,266.0" stroke="#7F7F7F" stroke-width="1" /><polyline fill="none" opacity="100" points="260.0,225.0 260.0,266.0" stroke="#7F7F7F" stroke-width="1" /><polyline fill="none" opacity="100" points="264.0,225.0 264.0,266.0" stroke="#7F7F7F" stroke-width="1" /><polyline fill="none" opacity="100" points="268.0,225.0 268.0,266.0" stroke="#7F7F7F" stroke-width="1" /><polyline fill="none" opacity="100" points="272.0,225.0 272.0,266.0" stroke="#7F7F7F" stroke-width="1" /><polyline fill="none" opacity="100" points="276.0,225.0 276.0,266.0" stroke="#7F7F7F" stroke-width="1" /><polygon fill="#9B5509" opacity="100" points="282.0,270.0 151.0,270.0 151.0,266.0 282.0,266.0" stroke="#000" stroke-width="1" /><polygon fill="#9B5509" opacity="100" points="282.0,257.0 151.0,257.0 151.0,250.0 282.0,250.0" stroke="#000" stroke-width="1" /><polygon fill="#9B5509" opacity="100" points="282.0,241.0 151.0,241.0 151.0,234.0 282.0,234.0" stroke="#000" stroke-width="1" /><polygon fill="#9B5509" opacity="100" points="282.0,225.0 151.0,225.0 151.0,221.0 282.0,221.0" stroke="#000" stroke-width="1" /><polygon fill="#FFF" opacity="0.8" points="162.0,220.0 174.0,220.0 200.0,246.0 175.0,271.0 163.0,271.0 169.0,266.0 175.0,261.0 177.0,257.0 179.0,254.0 181.0,250.0 181.0,245.0 181.0,241.0 179.0,237.0 177.0,234.0 174.0,230.0 169.0,225.0" stroke="#FFF" stroke-width="1" /><polyline fill="none" opacity="1.0" points="103.0,290.0 100.0,293.0 127.0,320.0 201.0,246.0 127.0,172.0 100.0,199.0 103.0,202.0" stroke="#000" stroke-width="1" /><polyline fill="none" opacity="1.0" points="162.0,221.0 166.3984,223.9453 170.2188,226.9062 173.4609,229.8828 176.125,232.875 178.2109,235.8828 179.7188,238.9062 180.6484,241.9453 181.0,245.0 180.7734,248.0703 179.9688,251.1562 178.5859,254.2578 176.625,257.375 174.0859,260.5078 170.9688,263.6562 167.2734,266.8203 163.0,270.0" stroke="#000" stroke-width="1" /><polyline fill="none" opacity="1.0" points="151.0,254.0 109.0,254.0 98.0,249.0 77.0,270.0" stroke="#000" stroke-width="0.5" /><polyline fill="none" opacity="1.0" points="151.0,221.0 126.0,221.0 122.0,225.0" stroke="#000" stroke-width="0.5" /><polyline fill="none" opacity="1.0" points="98.0,249.0 102.0,245.0" stroke="#000" stroke-width="0.5" /><polyline fill="none" opacity="1.0" points="100.0,243.0 104.0,247.0" stroke="#090" stroke-width="1" /><polyline fill="none" opacity="1.0" points="102.8284,240.1716 106.8284,244.1716" stroke="#090" stroke-width="1" /><polyline fill="none" opacity="1.0" points="105.6569,237.3431 109.6569,241.3431" stroke="#090" stroke-width="1" /><polyline fill="none" opacity="1.0" points="108.4853,234.5147 112.4853,238.5147" stroke="#090" stroke-width="1" /><polyline fill="none" opacity="1.0" points="111.3137,231.6863 115.3137,235.6863" stroke="#090" stroke-width="1" /><polyline fill="none" opacity="1.0" points="114.1421,228.8579 118.1421,232.8579" stroke="#090" stroke-width="1" /><polyline fill="none" opacity="1.0" points="116.9706,226.0294 120.9706,230.0294" stroke="#090" stroke-width="1" /><polyline fill="none" opacity="1.0" points="119.799,223.201 123.799,227.201" stroke="#090" stroke-width="1" /><polyline fill="none" opacity="1.0" points="97.0,275.0 89.0,283.0" stroke="#F00" stroke-width="1" /><polygon fill="#F00" opacity="1.0" points="90.6971,280.0606 89.0,283.0 91.9394,281.3029" stroke="#F00" stroke-width="1" /><polyline fill="none" opacity="1.0" points="90.0,209.0 98.0,217.0" stroke="#090" stroke-width="1" /><polygon fill="#090" opacity="1.0" points="95.0606,215.3029 98.0,217.0 96.3029,214.0606" stroke="#090" stroke-width="1" /><text fill="#00AFAF" font-family="Arial" font-size="15" font-weight="normal" opacity="1.0" transform="rotate(35.0 461.0,22.0) translate(0 15)" x="461.0" y="22.0">улица Гидротехников</text><text fill="#00AFAF" font-family="Arial" font-size="15" font-weight="normal" opacity="1.0" transform="rotate(100.0 46.0,70.0) translate(0 15)" x="46.0" y="70.0">Политехническая улица</text></g></g></svg>