<?xml version="1.0" encoding="utf-8" ?>
<svg baseProfile="tiny" height="730px" version="1.2" width="740px" xmlns="http://www.w3.org/2000/svg" xmlns:ev="http://www.w3.org/2001/xml-events" xmlns:xlink="http://www.w3.org/1999/xlink"><defs /><g><g transform="rotate(45.0,370.0,365.0)"><polygon fill="#ea7125" opacity="100" points="-56.0,327.0 -56.0,297.0 394.0,297.0 394.0,327.0" stroke="#000" stroke-width="1" /><polygon fill="#ea7125" opacity="100" points="-56.0,407.0 -56.0,437.0 394.0,437.0 394.0,407.0" stroke="#000" stroke-width="1" /><text fill="#ea7125" font-family="Arial" font-size="20" font-weight="normal" opacity="100" transform="rotate(-0.0 -55.0,273.0) translate(0 20)" x="-55.0" y="273.0">&lt;&lt; Ладожская</text><text fill="#ea7125" font-family="Arial" font-size="20" font-weight="normal" opacity="100" transform="rotate(-0.0 237.0,437.0) translate(0 20)" x="237.0" y="437.0">Улица Дыбенко &gt;&gt;</text><text fill="#ea7125" font-family="Arial" font-size="25" font-weight="bold" opacity="100" transform="rotate(-0.0 58.0,353.0) translate(0 25)" x="58.0" y="353.0">Проспект Большевиков</text><polyline fill="none" opacity="100" points="-56.0,327.0 -56.0,337.0 -13.0,337.0 -13.0,396.0 -56.0,396.0 -56.0,407.0" stroke="#000" stroke-width="1" /><polyline fill="none" opacity="100" points="394.0,407.0 394.0,397.0 479.0,397.0 479.0,394.0" stroke="#000" stroke-width="1" /><polyline fill="none" opacity="100" points="394.0,327.0 394.0,338.0 479.0,338.0 479.0,341.0" stroke="#000" stroke-width="1" /><polyline fill="none" opacity="100" points="397.0,338.0 397.0,397.0" stroke="#000" stroke-width="1" /><polyline fill="none" opacity="100" points="401.0,338.0 401.0,397.0" stroke="#000" stroke-width="1" /><polyline fill="none" opacity="100" points="405.0,338.0 405.0,397.0" stroke="#000" stroke-width="1" /><polyline fill="none" opacity="100" points="409.0,338.0 409.0,397.0" stroke="#000" stroke-width="1" /><polyline fill="none" opacity="100" points="413.0,338.0 413.0,397.0" stroke="#000" stroke-width="1" /><polyline fill="none" opacity="100" points="417.0,338.0 417.0,397.0" stroke="#000" stroke-width="1" /><polyline fill="none" opacity="100" points="421.0,338.0 421.0,397.0" stroke="#000" stroke-width="1" /><polyline fill="none" opacity="100" points="425.0,338.0 425.0,397.0" stroke="#000" stroke-width="1" /><polyline fill="none" opacity="100" points="429.0,338.0 429.0,397.0" stroke="#000" stroke-width="1" /><polyline fill="none" opacity="100" points="433.0,338.0 433.0,397.0" stroke="#000" stroke-width="1" /><polyline fill="none" opacity="100" points="437.0,338.0 437.0,397.0" stroke="#000" stroke-width="1" /><polyline fill="none" opacity="100" points="441.0,338.0 441.0,397.0" stroke="#000" stroke-width="1" /><polyline fill="none" opacity="100" points="593.0,391.0 593.0,344.0" stroke="#7F7F7F" stroke-width="1" /><polyline fill="none" opacity="100" points="589.0,391.0 589.0,344.0" stroke="#7F7F7F" stroke-width="1" /><polyline fill="none" opacity="100" points="585.0,391.0 585.0,344.0" stroke="#7F7F7F" stroke-width="1" /><polyline fill="none" opacity="100" points="581.0,391.0 581.0,344.0" stroke="#7F7F7F" stroke-width="1" /><polyline fill="none" opacity="100" points="577.0,391.0 577.0,344.0" stroke="#7F7F7F" stroke-width="1" /><polyline fill="none" opacity="100" points="573.0,391.0 573.0,344.0" stroke="#7F7F7F" stroke-width="1" /><polyline fill="none" opacity="100" points="569.0,391.0 569.0,344.0" stroke="#7F7F7F" stroke-width="1" /><polyline fill="none" opacity="100" points="565.0,391.0 565.0,344.0" stroke="#7F7F7F" stroke-width="1" /><polyline fill="none" opacity="100" points="561.0,391.0 561.0,344.0" stroke="#7F7F7F" stroke-width="1" /><polyline fill="none" opacity="100" points="557.0,391.0 557.0,344.0" stroke="#7F7F7F" stroke-width="1" /><polyline fill="none" opacity="100" points="553.0,391.0 553.0,344.0" stroke="#7F7F7F" stroke-width="1" /><polyline fill="none" opacity="100" points="549.0,391.0 549.0,344.0" stroke="#7F7F7F" stroke-width="1" /><polyline fill="none" opacity="100" points="545.0,391.0 545.0,344.0" stroke="#7F7F7F" stroke-width="1" /><polyline fill="none" opacity="100" points="541.0,391.0 541.0,344.0" stroke="#7F7F7F" stroke-width="1" /><polyline fill="none" opacity="100" points="537.0,391.0 537.0,344.0" stroke="#7F7F7F" stroke-width="1" /><polyline fill="none" opacity="100" points="533.0,391.0 533.0,344.0" stroke="#7F7F7F" stroke-width="1" /><polyline fill="none" opacity="100" points="529.0,391.0 529.0,344.0" stroke="#7F7F7F" stroke-width="1" /><polyline fill="none" opacity="100" points="525.0,391.0 525.0,344.0" stroke="#7F7F7F" stroke-width="1" /><polyline fill="none" opacity="100" points="521.0,391.0 521.0,344.0" stroke="#7F7F7F" stroke-width="1" /><polyline fill="none" opacity="100" points="517.0,391.0 517.0,344.0" stroke="#7F7F7F" stroke-width="1" /><polyline fill="none" opacity="100" points="513.0,391.0 513.0,344.0" stroke="#7F7F7F" stroke-width="1" /><polyline fill="none" opacity="100" points="509.0,391.0 509.0,344.0" stroke="#7F7F7F" stroke-width="1" /><polyline fill="none" opacity="100" points="505.0,391.0 505.0,344.0" stroke="#7F7F7F" stroke-width="1" /><polyline fill="none" opacity="100" points="501.0,391.0 501.0,344.0" stroke="#7F7F7F" stroke-width="1" /><polyline fill="none" opacity="100" points="497.0,391.0 497.0,344.0" stroke="#7F7F7F" stroke-width="1" /><polyline fill="none" opacity="100" points="493.0,391.0 493.0,344.0" stroke="#7F7F7F" stroke-width="1" /><polyline fill="none" opacity="100" points="489.0,391.0 489.0,344.0" stroke="#7F7F7F" stroke-width="1" /><polyline fill="none" opacity="100" points="485.0,391.0 485.0,344.0" stroke="#7F7F7F" stroke-width="1" /><polyline fill="none" opacity="100" points="481.0,391.0 481.0,344.0" stroke="#7F7F7F" stroke-width="1" /><polyline fill="none" opacity="100" points="477.0,391.0 477.0,344.0" stroke="#7F7F7F" stroke-width="1" /><polygon fill="#9B5509" opacity="100" points="600.0,344.0 471.0,344.0 471.0,341.0 600.0,341.0" stroke="#000" stroke-width="1" /><polygon fill="#9B5509" opacity="100" points="600.0,352.0 600.0,357.0 471.0,357.0 471.0,352.0" stroke="#000" stroke-width="1" /><polygon fill="#9B5509" opacity="100" points="600.0,365.0 600.0,370.0 471.0,370.0 471.0,365.0" stroke="#000" stroke-width="1" /><polygon fill="#9B5509" opacity="100" points="600.0,378.0 600.0,383.0 471.0,383.0 471.0,378.0" stroke="#000" stroke-width="1" /><polygon fill="#9B5509" opacity="100" points="600.0,391.0 471.0,391.0 471.0,394.0 600.0,394.0" stroke="#000" stroke-width="1" /><polyline fill="none" opacity="100" points="582.0,341.0 584.1172,337.9141 586.3438,335.0312 588.6821,332.3513 591.125,329.875 593.6577,327.6038 596.3047,325.5352 599.0732,323.6685 602.0,322.0 605.1533,320.5229 608.4453,319.2461 611.8184,318.1765 615.25,317.3125 618.7051,316.6497 622.1641,316.2031 625.6104,315.9785 629.0,316.0 632.2725,316.3105 635.4609,316.8594 638.5793,317.6138 641.625,318.5625 644.6062,319.687 647.5039,320.9766 650.3052,322.4229 653.0,324.0 655.5737,325.6709 658.0273,327.4609 660.3579,329.3826 662.5625,331.4375 664.6421,333.635 666.582,335.9648 668.3735,338.4214 670.0,341.0 671.4351,343.6919 672.6992,346.5039 673.8035,349.4397 674.75,352.5 675.5461,355.6873 676.1875,359.0 676.6719,362.4375 677.0,366.0" stroke="#000" stroke-width="1" /><polyline fill="none" opacity="100" points="677.0,366.0 728.0,400.0" stroke="#000" stroke-width="1" /><polyline fill="none" opacity="100" points="695.0,449.0 644.0,415.0" stroke="#000" stroke-width="1" /><polyline fill="none" opacity="100" points="644.0,415.0 640.9453,416.0312 637.9062,416.875 634.8809,417.5298 631.875,418.0 628.9004,418.2944 625.9375,418.3984 622.9805,418.3076 620.0,418.0 616.9414,417.4346 613.875,416.6641 610.8477,415.7236 607.875,414.625 604.9805,413.3857 602.1875,412.0234 599.5117,410.5498 597.0,409.0 594.7227,407.4268 592.625,405.7891 590.6777,404.0649 588.875,402.25 587.1973,400.3296 585.6562,398.3125 584.2578,396.2031 583.0,394.0" stroke="#000" stroke-width="1" /><polyline fill="none" opacity="100" points="686.0,372.0 653.0,421.0" stroke="#000" stroke-width="1" /><polyline fill="none" opacity="100" points="689.3282,374.2188 656.3282,423.2188" stroke="#000" stroke-width="1" /><polyline fill="none" opacity="100" points="692.6564,376.4376 659.6564,425.4376" stroke="#000" stroke-width="1" /><polyline fill="none" opacity="100" points="695.9846,378.6564 662.9846,427.6564" stroke="#000" stroke-width="1" /><polyline fill="none" opacity="100" points="699.3128,380.8752 666.3128,429.8752" stroke="#000" stroke-width="1" /><polyline fill="none" opacity="100" points="702.641,383.094 669.641,432.094" stroke="#000" stroke-width="1" /><polyline fill="none" opacity="100" points="705.9692,385.3128 672.9692,434.3128" stroke="#000" stroke-width="1" /><polyline fill="none" opacity="100" points="709.2974,387.5316 676.2974,436.5316" stroke="#000" stroke-width="1" /><polyline fill="none" opacity="100" points="712.6256,389.7504 679.6256,438.7504" stroke="#000" stroke-width="1" /><polyline fill="none" opacity="100" points="715.9538,391.9692 682.9538,440.9692" stroke="#000" stroke-width="1" /><polyline fill="none" opacity="100" points="712.0,425.0 644.0,379.0 600.0,367.0" stroke="#000" stroke-width="0.5" /><polyline fill="none" opacity="100" points="618.0,317.0 623.0,328.0" stroke="#000" stroke-width="0.5" /><polyline fill="none" opacity="100" points="640.0,369.0 644.0,379.0" stroke="#000" stroke-width="0.5" /><polyline fill="none" opacity="100" points="638.0,370.0 643.0,368.0" stroke="#090" stroke-width="1" /><polyline fill="none" opacity="100" points="636.4679,366.305 641.4679,364.305" stroke="#090" stroke-width="1" /><polyline fill="none" opacity="100" points="634.9359,362.6101 639.9359,360.6101" stroke="#090" stroke-width="1" /><polyline fill="none" opacity="100" points="633.4038,358.9151 638.4038,356.9151" stroke="#090" stroke-width="1" /><polyline fill="none" opacity="100" points="631.8718,355.2201 636.8718,353.2201" stroke="#090" stroke-width="1" /><polyline fill="none" opacity="100" points="630.3397,351.5252 635.3397,349.5252" stroke="#090" stroke-width="1" /><polyline fill="none" opacity="100" points="628.8076,347.8302 633.8076,345.8302" stroke="#090" stroke-width="1" /><polyline fill="none" opacity="100" points="627.2756,344.1352 632.2756,342.1352" stroke="#090" stroke-width="1" /><polyline fill="none" opacity="100" points="625.7435,340.4403 630.7435,338.4403" stroke="#090" stroke-width="1" /><polyline fill="none" opacity="100" points="624.2115,336.7453 629.2115,334.7453" stroke="#090" stroke-width="1" /><polyline fill="none" opacity="100" points="622.6794,333.0503 627.6794,331.0503" stroke="#090" stroke-width="1" /><polyline fill="none" opacity="100" points="621.1473,329.3553 626.1473,327.3553" stroke="#090" stroke-width="1" /><polyline fill="none" opacity="100" points="693.0,430.0 705.0,438.0" stroke="#F00" stroke-width="1" /><polygon fill="#F00" opacity="100" points="700.9015,436.6135 705.0,438.0 702.1438,434.75" stroke="#F00" stroke-width="1" /><polyline fill="none" opacity="100" points="722.0,414.0 710.0,406.0" stroke="#090" stroke-width="1" /><polygon fill="#090" opacity="100" points="714.0985,407.3865 710.0,406.0 712.8562,409.25" stroke="#090" stroke-width="1" /><text fill="#00AFAF" font-family="Arial" font-size="15" font-weight="normal" opacity="100" transform="rotate(-20.0 448.0,93.0) translate(0 15)" x="448.0" y="93.0">проспект Пятилеток</text><text fill="#00AFAF" font-family="Arial" font-size="15" font-weight="normal" opacity="100" transform="rotate(-55.0 711.0,510.0) translate(0 15)" x="711.0" y="510.0">улица Коллонтай</text></g></g></svg>