<?xml version="1.0" encoding="utf-8" ?>
<svg baseProfile="tiny" height="760px" version="1.2" width="600px" xmlns="http://www.w3.org/2000/svg" xmlns:ev="http://www.w3.org/2001/xml-events" xmlns:xlink="http://www.w3.org/1999/xlink"><defs /><g><g transform="rotate(60.0,300.0,380.0)"><polygon fill="#EA7125" opacity="100" points="-89.0,367.0 -89.0,337.0 361.0,337.0 361.0,367.0" stroke="#000" stroke-width="1" /><polygon fill="#EA7125" opacity="100" points="-89.0,447.0 -89.0,477.0 361.0,477.0 361.0,447.0" stroke="#000" stroke-width="1" /><text fill="#EA7125" font-family="Arial" font-size="20" font-weight="normal" opacity="100" transform="rotate(-0.0 -88.0,311.0) translate(0 20)" x="-88.0" y="311.0">&lt;&lt; Проспект Большевиков</text><text fill="#EA7125" font-family="Arial" font-size="20" font-weight="normal" opacity="100" transform="rotate(-0.0 234.0,474.0) translate(0 20)" x="234.0" y="474.0">посадки нет &gt;&gt;</text><text fill="#EA7125" font-family="Arial" font-size="25" font-weight="bold" opacity="100" transform="rotate(-0.0 70.0,391.0) translate(0 25)" x="70.0" y="391.0">Улица Дыбенко</text><polyline fill="none" opacity="100" points="-89.0,367.0 -89.0,379.0 -41.0,379.0 -41.0,390.0 -11.0,390.0 -11.0,425.0 -41.0,425.0 -41.0,435.0 -89.0,435.0 -89.0,447.0" stroke="#000" stroke-width="1" /><polyline fill="none" opacity="100" points="361.0,447.0 361.0,439.0 336.0,439.0 336.0,431.0 387.0,431.0 387.0,437.0 419.0,437.0 419.0,434.0" stroke="#000" stroke-width="1" /><polyline fill="none" opacity="100" points="361.0,367.0 361.0,376.0 336.0,376.0 336.0,384.0 387.0,384.0 387.0,378.0 419.0,378.0 419.0,381.0" stroke="#000" stroke-width="1" /><polyline fill="none" opacity="100" points="549.0,431.0 549.0,384.0" stroke="#7F7F7F" stroke-width="1" /><polyline fill="none" opacity="100" points="545.0,431.0 545.0,384.0" stroke="#7F7F7F" stroke-width="1" /><polyline fill="none" opacity="100" points="541.0,431.0 541.0,384.0" stroke="#7F7F7F" stroke-width="1" /><polyline fill="none" opacity="100" points="537.0,431.0 537.0,384.0" stroke="#7F7F7F" stroke-width="1" /><polyline fill="none" opacity="100" points="533.0,431.0 533.0,384.0" stroke="#7F7F7F" stroke-width="1" /><polyline fill="none" opacity="100" points="529.0,431.0 529.0,384.0" stroke="#7F7F7F" stroke-width="1" /><polyline fill="none" opacity="100" points="525.0,431.0 525.0,384.0" stroke="#7F7F7F" stroke-width="1" /><polyline fill="none" opacity="100" points="521.0,431.0 521.0,384.0" stroke="#7F7F7F" stroke-width="1" /><polyline fill="none" opacity="100" points="517.0,431.0 517.0,384.0" stroke="#7F7F7F" stroke-width="1" /><polyline fill="none" opacity="100" points="513.0,431.0 513.0,384.0" stroke="#7F7F7F" stroke-width="1" /><polyline fill="none" opacity="100" points="509.0,431.0 509.0,384.0" stroke="#7F7F7F" stroke-width="1" /><polyline fill="none" opacity="100" points="505.0,431.0 505.0,384.0" stroke="#7F7F7F" stroke-width="1" /><polyline fill="none" opacity="100" points="501.0,431.0 501.0,384.0" stroke="#7F7F7F" stroke-width="1" /><polyline fill="none" opacity="100" points="497.0,431.0 497.0,384.0" stroke="#7F7F7F" stroke-width="1" /><polyline fill="none" opacity="100" points="493.0,431.0 493.0,384.0" stroke="#7F7F7F" stroke-width="1" /><polyline fill="none" opacity="100" points="489.0,431.0 489.0,384.0" stroke="#7F7F7F" stroke-width="1" /><polyline fill="none" opacity="100" points="485.0,431.0 485.0,384.0" stroke="#7F7F7F" stroke-width="1" /><polyline fill="none" opacity="100" points="481.0,431.0 481.0,384.0" stroke="#7F7F7F" stroke-width="1" /><polyline fill="none" opacity="100" points="477.0,431.0 477.0,384.0" stroke="#7F7F7F" stroke-width="1" /><polyline fill="none" opacity="100" points="473.0,431.0 473.0,384.0" stroke="#7F7F7F" stroke-width="1" /><polyline fill="none" opacity="100" points="469.0,431.0 469.0,384.0" stroke="#7F7F7F" stroke-width="1" /><polyline fill="none" opacity="100" points="465.0,431.0 465.0,384.0" stroke="#7F7F7F" stroke-width="1" /><polyline fill="none" opacity="100" points="461.0,431.0 461.0,384.0" stroke="#7F7F7F" stroke-width="1" /><polyline fill="none" opacity="100" points="457.0,431.0 457.0,384.0" stroke="#7F7F7F" stroke-width="1" /><polyline fill="none" opacity="100" points="453.0,431.0 453.0,384.0" stroke="#7F7F7F" stroke-width="1" /><polyline fill="none" opacity="100" points="449.0,431.0 449.0,384.0" stroke="#7F7F7F" stroke-width="1" /><polyline fill="none" opacity="100" points="445.0,431.0 445.0,384.0" stroke="#7F7F7F" stroke-width="1" /><polyline fill="none" opacity="100" points="441.0,431.0 441.0,384.0" stroke="#7F7F7F" stroke-width="1" /><polyline fill="none" opacity="100" points="437.0,431.0 437.0,384.0" stroke="#7F7F7F" stroke-width="1" /><polyline fill="none" opacity="100" points="433.0,431.0 433.0,384.0" stroke="#7F7F7F" stroke-width="1" /><polyline fill="none" opacity="100" points="429.0,431.0 429.0,384.0" stroke="#7F7F7F" stroke-width="1" /><polyline fill="none" opacity="100" points="425.0,431.0 425.0,384.0" stroke="#7F7F7F" stroke-width="1" /><polyline fill="none" opacity="100" points="421.0,431.0 421.0,384.0" stroke="#7F7F7F" stroke-width="1" /><polyline fill="none" opacity="100" points="417.0,431.0 417.0,384.0" stroke="#7F7F7F" stroke-width="1" /><polygon fill="#9B5509" opacity="100" points="556.0,384.0 411.0,384.0 411.0,381.0 556.0,381.0" stroke="#000" stroke-width="1" /><polygon fill="#9B5509" opacity="100" points="556.0,392.0 556.0,397.0 411.0,397.0 411.0,392.0" stroke="#000" stroke-width="1" /><polygon fill="#9B5509" opacity="100" points="556.0,405.0 556.0,410.0 411.0,410.0 411.0,405.0" stroke="#000" stroke-width="1" /><polygon fill="#9B5509" opacity="100" points="556.0,418.0 556.0,423.0 411.0,423.0 411.0,418.0" stroke="#000" stroke-width="1" /><polygon fill="#9B5509" opacity="100" points="556.0,431.0 411.0,431.0 411.0,434.0 556.0,434.0" stroke="#000" stroke-width="1" /><polygon fill="#CCC" opacity="100" points="641.0,423.0 641.0,436.0 608.0,469.0 595.0,469.0 595.0,456.0 603.0,454.0 610.0,450.0 618.0,444.0 623.0,438.0 628.0,431.0 631.0,423.0" stroke="#CCC" stroke-width="1" /><polyline fill="none" opacity="100" points="536.0,381.0 538.2266,377.7891 540.5312,374.7812 542.9153,371.9766 545.375,369.375 547.9031,366.9766 550.5117,364.7812 553.2046,362.7891 556.0,361.0 558.9321,359.4141 561.957,358.0312 565.0469,356.8523 568.1875,355.875 571.3555,355.095 574.5508,354.5195 577.7681,354.1509 581.0,354.0 584.2437,354.0874 587.4805,354.3867 590.6946,354.8811 593.875,355.5625 597.0105,356.4177 600.0859,357.4453 603.0889,358.6416 606.0,360.0 608.7939,361.5146 611.4766,363.1797 614.0464,364.9885 616.5,366.9375 618.8403,369.0251 621.0469,371.2383 623.1074,373.5688 625.0,376.0 626.6895,378.5054 628.2031,381.1055 629.5557,383.8113 630.75,386.625 631.7959,389.554 632.6875,392.5938 633.4219,395.7422 634.0,399.0" stroke="#000" stroke-width="1" /><polyline fill="none" opacity="100" points="634.0,399.0 641.0,399.0 641.0,382.0 637.0,382.0 637.0,348.0 650.0,348.0 650.0,358.0 664.0,358.0 664.0,456.0 661.0,453.0" stroke="#000" stroke-width="1" /><polyline fill="none" opacity="100" points="637.0,477.0 640.0,480.0 629.0,491.0 622.0,484.0 604.0,502.0 600.0,502.0 595.0,497.0 536.0,497.0 536.0,494.0" stroke="#000" stroke-width="1" /><polyline fill="none" opacity="100" points="536.0,472.0 536.0,469.0 571.0,469.0 571.0,457.0" stroke="#000" stroke-width="1" /><polyline fill="none" opacity="100" points="631.0,423.0 641.0,423.0 641.0,436.0 608.0,469.0 595.0,469.0 595.0,456.0" stroke="#000" stroke-width="1" /><polyline fill="none" opacity="100" points="631.0,423.0 630.2734,425.0391 629.4688,427.0312 628.5852,428.9773 627.625,430.875 626.5925,432.72 625.4805,434.5195 624.2866,436.2759 623.0,438.0 621.6001,439.7124 620.1133,441.3867 618.5571,443.0054 616.9375,444.5625 615.2632,446.0493 613.543,447.457 611.7827,448.7798 610.0,450.0 608.2212,451.0913 606.4258,452.0742 604.6028,452.9597 602.75,453.75 600.8601,454.4524 598.9375,455.0625 596.9844,455.5781 595.0,456.0" stroke="#000" stroke-width="1" /><polyline fill="none" opacity="100" points="571.0,457.0 568.6406,456.3828 566.3125,455.6562 564.0156,454.8203 561.75,453.875 559.5156,452.8203 557.3125,451.6562 555.1406,450.3828 553.0,449.0 550.8906,447.5078 548.8125,445.9062 546.7656,444.1953 544.75,442.375 542.7656,440.4453 540.8125,438.4062 538.8906,436.2578 537.0,434.0" stroke="#000" stroke-width="1" /><polyline fill="none" opacity="100" points="595.0,497.0 595.0,469.0" stroke="#000" stroke-width="0.5" /><polyline fill="none" opacity="100" points="595.0,456.0 595.0,433.0 556.0,407.0" stroke="#000" stroke-width="0.5" /><polyline fill="none" opacity="100" points="595.0,388.0 595.0,381.0 556.0,381.0" stroke="#000" stroke-width="0.5" /><polyline fill="none" opacity="100" points="595.0,424.0 595.0,433.0" stroke="#000" stroke-width="0.5" /><polyline fill="none" opacity="100" points="592.0,424.0 598.0,424.0" stroke="#090" stroke-width="1" /><polyline fill="none" opacity="100" points="592.0,420.0 598.0,420.0" stroke="#090" stroke-width="1" /><polyline fill="none" opacity="100" points="592.0,416.0 598.0,416.0" stroke="#090" stroke-width="1" /><polyline fill="none" opacity="100" points="592.0,412.0 598.0,412.0" stroke="#090" stroke-width="1" /><polyline fill="none" opacity="100" points="592.0,408.0 598.0,408.0" stroke="#090" stroke-width="1" /><polyline fill="none" opacity="100" points="592.0,404.0 598.0,404.0" stroke="#090" stroke-width="1" /><polyline fill="none" opacity="100" points="592.0,400.0 598.0,400.0" stroke="#090" stroke-width="1" /><polyline fill="none" opacity="100" points="592.0,396.0 598.0,396.0" stroke="#090" stroke-width="1" /><polyline fill="none" opacity="100" points="592.0,392.0 598.0,392.0" stroke="#090" stroke-width="1" /><polyline fill="none" opacity="100" points="592.0,388.0 598.0,388.0" stroke="#090" stroke-width="1" /><polygon fill="#FFF" opacity="100" points="615.0,462.0 609.0,456.0 630.0,435.0 636.0,441.0" stroke="#000" stroke-width="1" /><text fill="#000" font-family="Arial" font-size="10" font-weight="normal" opacity="100" transform="rotate(-45.0 609.0,452.0) translate(0 10)" x="609.0" y="452.0">кассы</text><polyline fill="none" opacity="100" points="556.0,483.0 541.0,483.0" stroke="#F00" stroke-width="1" /><polygon fill="#F00" opacity="100" points="545.3467,481.8353 541.0,483.0 545.3467,484.1647" stroke="#F00" stroke-width="1" /><polyline fill="none" opacity="100" points="653.0,469.0 643.0,459.0" stroke="#090" stroke-width="1" /><polygon fill="#090" opacity="100" points="646.6742,461.1213 643.0,459.0 645.1213,462.6742" stroke="#090" stroke-width="1" /><text fill="#00AFAF" font-family="Arial" font-size="15" font-weight="normal" opacity="100" transform="rotate(-0.0 461.0,540.0) translate(0 15)" x="461.0" y="540.0">проспект Большевиков</text><text fill="#00AFAF" font-family="Arial" font-size="15" font-weight="normal" opacity="100" transform="rotate(-90.0 691.0,394.0) translate(0 15)" x="691.0" y="394.0">улица Дыбенко</text></g></g></svg>