<?xml version="1.0" encoding="utf-8" ?>
<svg baseProfile="tiny" height="530px" version="1.2" width="870px" xmlns="http://www.w3.org/2000/svg" xmlns:ev="http://www.w3.org/2001/xml-events" xmlns:xlink="http://www.w3.org/1999/xlink"><defs /><g><g transform="rotate(30.0,435.0,265.0)"><polyline fill="none" opacity="100" points="-159.0,100.0 947.0,98.0" stroke="#F7F7F7" stroke-width="60" /><polyline fill="none" opacity="100" points="892.0,108.0 896.0,419.0" stroke="#F7F7F7" stroke-width="30" /><polygon fill="#009A49" opacity="100" points="10.0,265.0 10.0,235.0 460.0,235.0 460.0,265.0" stroke="#000" stroke-width="1" /><polygon fill="#009A49" opacity="100" points="10.0,345.0 10.0,375.0 460.0,375.0 460.0,345.0" stroke="#000" stroke-width="1" /><text fill="#009A49" font-family="Arial" font-size="20" font-weight="normal" opacity="100" transform="rotate(-0.0 11.0,211.0) translate(0 20)" x="11.0" y="211.0">&lt;&lt; Приморская</text><text fill="#009A49" font-family="Arial" font-size="20" font-weight="normal" opacity="100" transform="rotate(-0.0 306.0,375.0) translate(0 20)" x="306.0" y="375.0">Гостиный двор &gt;&gt;</text><text fill="#009A49" font-family="Arial" font-size="25" font-weight="bold" opacity="100" transform="rotate(-0.0 133.0,287.0) translate(0 25)" x="133.0" y="287.0">Василеостровская</text><polyline fill="none" opacity="100" points="518.0,286.0 518.0,283.0 460.0,283.0 460.0,268.0 448.0,268.0 448.0,269.0 435.0,269.0 435.0,267.0 430.0,267.0 430.0,269.0 418.0,269.0 418.0,267.0 413.0,267.0 413.0,269.0 401.0,269.0 401.0,267.0 396.0,267.0 396.0,269.0 384.0,269.0 384.0,267.0 379.0,267.0 379.0,269.0 367.0,269.0 367.0,267.0 362.0,267.0 362.0,269.0 350.0,269.0 350.0,267.0 345.0,267.0 345.0,269.0 333.0,269.0 333.0,267.0 328.0,267.0 328.0,269.0 316.0,269.0 316.0,267.0 311.0,267.0 311.0,269.0 299.0,269.0 299.0,267.0 294.0,267.0 294.0,269.0 282.0,269.0 282.0,267.0 277.0,267.0 277.0,269.0 265.0,269.0 265.0,267.0 260.0,267.0 260.0,269.0 248.0,269.0 248.0,267.0 243.0,267.0 243.0,269.0 231.0,269.0 231.0,267.0 226.0,267.0 226.0,269.0 214.0,269.0 214.0,267.0 209.0,267.0 209.0,269.0 197.0,269.0 197.0,267.0 192.0,267.0 192.0,269.0 180.0,269.0 180.0,267.0 175.0,267.0 175.0,269.0 163.0,269.0 163.0,267.0 158.0,267.0 158.0,269.0 146.0,269.0 146.0,267.0 141.0,267.0 141.0,269.0 129.0,269.0 129.0,267.0 124.0,267.0 124.0,269.0 112.0,269.0 112.0,267.0 107.0,267.0 107.0,269.0 95.0,269.0 95.0,267.0 90.0,267.0 90.0,269.0 78.0,269.0 78.0,267.0 73.0,267.0 73.0,269.0 61.0,269.0 61.0,267.0 56.0,267.0 56.0,269.0 44.0,269.0 44.0,267.0 39.0,267.0 39.0,269.0 26.0,269.0 26.0,268.0 10.0,268.0" stroke="#000" stroke-width="1" /><polyline fill="none" opacity="100" points="518.0,326.0 518.0,329.0 460.0,329.0 460.0,342.0 448.0,342.0 448.0,341.0 435.0,341.0 435.0,343.0 430.0,343.0 430.0,341.0 418.0,341.0 418.0,343.0 413.0,343.0 413.0,341.0 401.0,341.0 401.0,343.0 396.0,343.0 396.0,341.0 384.0,341.0 384.0,343.0 379.0,343.0 379.0,341.0 367.0,341.0 367.0,343.0 362.0,343.0 362.0,341.0 350.0,341.0 350.0,343.0 345.0,343.0 345.0,341.0 333.0,341.0 333.0,343.0 328.0,343.0 328.0,341.0 316.0,341.0 316.0,343.0 311.0,343.0 311.0,341.0 299.0,341.0 299.0,343.0 294.0,343.0 294.0,341.0 282.0,341.0 282.0,343.0 277.0,343.0 277.0,341.0 265.0,341.0 265.0,343.0 260.0,343.0 260.0,341.0 248.0,341.0 248.0,343.0 243.0,343.0 243.0,341.0 231.0,341.0 231.0,343.0 226.0,343.0 226.0,341.0 214.0,341.0 214.0,343.0 209.0,343.0 209.0,341.0 197.0,341.0 197.0,343.0 192.0,343.0 192.0,341.0 180.0,341.0 180.0,343.0 175.0,343.0 175.0,341.0 163.0,341.0 163.0,343.0 158.0,343.0 158.0,341.0 146.0,341.0 146.0,343.0 141.0,343.0 141.0,341.0 129.0,341.0 129.0,343.0 124.0,343.0 124.0,341.0 112.0,341.0 112.0,343.0 107.0,343.0 107.0,341.0 95.0,341.0 95.0,343.0 90.0,343.0 90.0,341.0 78.0,341.0 78.0,343.0 73.0,343.0 73.0,341.0 61.0,341.0 61.0,343.0 56.0,343.0 56.0,341.0 44.0,341.0 44.0,343.0 39.0,343.0 39.0,341.0 26.0,341.0 26.0,342.0 10.0,342.0 10.0,268.0" stroke="#000" stroke-width="1" /><polyline fill="none" opacity="100" points="652.0,323.0 652.0,289.0" stroke="#7F7F7F" stroke-width="1" /><polyline fill="none" opacity="100" points="648.0,323.0 648.0,289.0" stroke="#7F7F7F" stroke-width="1" /><polyline fill="none" opacity="100" points="644.0,323.0 644.0,289.0" stroke="#7F7F7F" stroke-width="1" /><polyline fill="none" opacity="100" points="640.0,323.0 640.0,289.0" stroke="#7F7F7F" stroke-width="1" /><polyline fill="none" opacity="100" points="636.0,323.0 636.0,289.0" stroke="#7F7F7F" stroke-width="1" /><polyline fill="none" opacity="100" points="632.0,323.0 632.0,289.0" stroke="#7F7F7F" stroke-width="1" /><polyline fill="none" opacity="100" points="628.0,323.0 628.0,289.0" stroke="#7F7F7F" stroke-width="1" /><polyline fill="none" opacity="100" points="624.0,323.0 624.0,289.0" stroke="#7F7F7F" stroke-width="1" /><polyline fill="none" opacity="100" points="620.0,323.0 620.0,289.0" stroke="#7F7F7F" stroke-width="1" /><polyline fill="none" opacity="100" points="616.0,323.0 616.0,289.0" stroke="#7F7F7F" stroke-width="1" /><polyline fill="none" opacity="100" points="612.0,323.0 612.0,289.0" stroke="#7F7F7F" stroke-width="1" /><polyline fill="none" opacity="100" points="608.0,323.0 608.0,289.0" stroke="#7F7F7F" stroke-width="1" /><polyline fill="none" opacity="100" points="604.0,323.0 604.0,289.0" stroke="#7F7F7F" stroke-width="1" /><polyline fill="none" opacity="100" points="600.0,323.0 600.0,289.0" stroke="#7F7F7F" stroke-width="1" /><polyline fill="none" opacity="100" points="596.0,323.0 596.0,289.0" stroke="#7F7F7F" stroke-width="1" /><polyline fill="none" opacity="100" points="592.0,323.0 592.0,289.0" stroke="#7F7F7F" stroke-width="1" /><polyline fill="none" opacity="100" points="588.0,323.0 588.0,289.0" stroke="#7F7F7F" stroke-width="1" /><polyline fill="none" opacity="100" points="584.0,323.0 584.0,289.0" stroke="#7F7F7F" stroke-width="1" /><polyline fill="none" opacity="100" points="580.0,323.0 580.0,289.0" stroke="#7F7F7F" stroke-width="1" /><polyline fill="none" opacity="100" points="576.0,323.0 576.0,289.0" stroke="#7F7F7F" stroke-width="1" /><polyline fill="none" opacity="100" points="572.0,323.0 572.0,289.0" stroke="#7F7F7F" stroke-width="1" /><polyline fill="none" opacity="100" points="568.0,323.0 568.0,289.0" stroke="#7F7F7F" stroke-width="1" /><polyline fill="none" opacity="100" points="564.0,323.0 564.0,289.0" stroke="#7F7F7F" stroke-width="1" /><polyline fill="none" opacity="100" points="560.0,323.0 560.0,289.0" stroke="#7F7F7F" stroke-width="1" /><polyline fill="none" opacity="100" points="556.0,323.0 556.0,289.0" stroke="#7F7F7F" stroke-width="1" /><polyline fill="none" opacity="100" points="552.0,323.0 552.0,289.0" stroke="#7F7F7F" stroke-width="1" /><polyline fill="none" opacity="100" points="548.0,323.0 548.0,289.0" stroke="#7F7F7F" stroke-width="1" /><polyline fill="none" opacity="100" points="544.0,323.0 544.0,289.0" stroke="#7F7F7F" stroke-width="1" /><polyline fill="none" opacity="100" points="540.0,323.0 540.0,289.0" stroke="#7F7F7F" stroke-width="1" /><polyline fill="none" opacity="100" points="536.0,323.0 536.0,289.0" stroke="#7F7F7F" stroke-width="1" /><polyline fill="none" opacity="100" points="532.0,323.0 532.0,289.0" stroke="#7F7F7F" stroke-width="1" /><polyline fill="none" opacity="100" points="528.0,323.0 528.0,289.0" stroke="#7F7F7F" stroke-width="1" /><polyline fill="none" opacity="100" points="524.0,323.0 524.0,289.0" stroke="#7F7F7F" stroke-width="1" /><polyline fill="none" opacity="100" points="520.0,323.0 520.0,289.0" stroke="#7F7F7F" stroke-width="1" /><polyline fill="none" opacity="100" points="516.0,323.0 516.0,289.0" stroke="#7F7F7F" stroke-width="1" /><polygon fill="#9B5509" opacity="100" points="659.0,289.0 509.0,289.0 509.0,286.0 659.0,286.0" stroke="#000" stroke-width="1" /><polygon fill="#9B5509" opacity="100" points="659.0,297.0 659.0,302.0 509.0,302.0 509.0,297.0" stroke="#000" stroke-width="1" /><polygon fill="#9B5509" opacity="100" points="659.0,310.0 659.0,315.0 509.0,315.0 509.0,310.0" stroke="#000" stroke-width="1" /><polygon fill="#9B5509" opacity="100" points="659.0,323.0 509.0,323.0 509.0,326.0 659.0,326.0" stroke="#000" stroke-width="1" /><polyline fill="none" opacity="100" points="642.0,286.0 642.8281,282.7812 643.8125,279.625 644.9531,276.5312 646.25,273.5 647.7031,270.5312 649.3125,267.625 651.0781,264.7812 653.0,262.0 655.0781,259.2812 657.3125,256.625 659.7031,254.0312 662.25,251.5 664.9531,249.0312 667.8125,246.625 670.8281,244.2812 674.0,242.0" stroke="#000" stroke-width="1" /><polyline fill="none" opacity="100" points="700.0,232.0 703.8594,231.4141 707.6875,231.0312 711.4844,230.8516 715.25,230.875 718.9844,231.1016 722.6875,231.5312 726.3594,232.1641 730.0,233.0 733.6094,234.0391 737.1875,235.2812 740.7344,236.7266 744.25,238.375 747.7344,240.2266 751.1875,242.2812 754.6094,244.5391 758.0,247.0" stroke="#000" stroke-width="1" /><polyline fill="none" opacity="100" points="767.0,284.0 767.9766,287.4141 768.7812,290.7812 769.4138,294.1018 769.875,297.375 770.1663,300.5994 770.2852,303.7773 770.231,306.9097 770.0,310.0 769.5854,313.0552 768.9961,316.0664 768.2378,319.0278 767.3125,321.9375 766.2231,324.7925 764.9727,327.5898 763.563,330.3276 762.0,333.0 760.2925,335.5981 758.4336,338.1289 756.4197,340.5959 754.25,343.0 751.9221,345.3435 749.4375,347.625 746.7969,349.8438 744.0,352.0" stroke="#000" stroke-width="1" /><polyline fill="none" opacity="100" points="752.0,364.0 748.9531,366.0859 745.8125,367.9688 742.5759,369.6492 739.25,371.125 735.8479,372.3918 732.3477,373.457 728.7427,374.3228 725.0,375.0 721.0581,375.5093 716.9961,375.8242 712.8645,375.926 708.6875,375.8125 704.5046,375.4822 700.3203,374.9141 696.1455,374.0986 692.0,373.0 687.9014,371.5576 683.8672,369.8359 679.9172,367.8752 676.0625,365.6875 672.3074,363.2947 668.6914,360.707 665.2388,357.9321 662.0,355.0 659.0542,351.9546 656.3398,348.7617 653.824,345.4031 651.5,341.875 649.3459,338.1653 647.375,334.2812 645.5938,330.2266 644.0,326.0" stroke="#000" stroke-width="1" /><polyline fill="none" opacity="100" points="674.0,242.0 667.0,231.0 655.0,230.0 636.0,194.0 599.0,194.0 599.0,177.0 571.0,177.0 571.0,140.0" stroke="#000" stroke-width="1" /><polyline fill="none" opacity="100" points="599.0,177.0 662.0,177.0" stroke="#000" stroke-width="1" /><polyline fill="none" opacity="100" points="752.0,364.0 744.0,352.0" stroke="#000" stroke-width="1" /><polyline fill="none" opacity="100" points="685.0,177.0 814.0,177.0 814.0,214.0" stroke="#000" stroke-width="1" /><polyline fill="none" opacity="100" points="814.0,244.0 814.0,302.0 805.0,302.0 798.0,260.0 786.0,260.0 777.0,270.0 781.0,279.0 767.0,284.0" stroke="#000" stroke-width="1" /><polyline fill="none" opacity="100" points="814.0,207.0 766.0,223.0 767.0,237.0 758.0,247.0" stroke="#000" stroke-width="1" /><polyline fill="none" opacity="100" points="700.0,232.0 694.0,222.0 699.0,211.0 699.0,177.0" stroke="#000" stroke-width="1" /><polyline fill="none" opacity="100" points="766.0,223.0 699.0,211.0" stroke="#000" stroke-width="1" /><polyline fill="none" opacity="100" points="814.0,301.0 837.0,301.0 837.0,154.0 571.0,154.0" stroke="#000" stroke-width="1" /><polyline fill="none" opacity="100" points="571.0,147.0 844.0,147.0 844.0,308.0 814.0,308.0" stroke="#000" stroke-width="1" /><polyline fill="none" opacity="100" points="814.0,315.0 851.0,315.0 851.0,140.0 571.0,140.0" stroke="#000" stroke-width="1" /><polyline fill="none" opacity="100" points="814.0,302.0 814.0,323.0" stroke="#000" stroke-width="1" /><polyline fill="none" opacity="100" points="758.0,247.0 716.0,268.0 703.0,302.0 659.0,302.0" stroke="#000" stroke-width="0.5" /><polyline fill="none" opacity="100" points="703.0,364.0 703.0,375.0" stroke="#000" stroke-width="0.5" /><polyline fill="none" opacity="100" points="703.0,302.0 703.0,312.0" stroke="#000" stroke-width="0.5" /><polyline fill="none" opacity="100" points="700.0,312.0 706.0,312.0" stroke="#090" stroke-width="1" /><polyline fill="none" opacity="100" points="700.0,316.0 706.0,316.0" stroke="#090" stroke-width="1" /><polyline fill="none" opacity="100" points="700.0,320.0 706.0,320.0" stroke="#090" stroke-width="1" /><polyline fill="none" opacity="100" points="700.0,324.0 706.0,324.0" stroke="#090" stroke-width="1" /><polyline fill="none" opacity="100" points="700.0,328.0 706.0,328.0" stroke="#090" stroke-width="1" /><polyline fill="none" opacity="100" points="700.0,332.0 706.0,332.0" stroke="#090" stroke-width="1" /><polyline fill="none" opacity="100" points="700.0,336.0 706.0,336.0" stroke="#090" stroke-width="1" /><polyline fill="none" opacity="100" points="700.0,340.0 706.0,340.0" stroke="#090" stroke-width="1" /><polyline fill="none" opacity="100" points="700.0,344.0 706.0,344.0" stroke="#090" stroke-width="1" /><polyline fill="none" opacity="100" points="700.0,348.0 706.0,348.0" stroke="#090" stroke-width="1" /><polyline fill="none" opacity="100" points="700.0,352.0 706.0,352.0" stroke="#090" stroke-width="1" /><polyline fill="none" opacity="100" points="700.0,356.0 706.0,356.0" stroke="#090" stroke-width="1" /><polyline fill="none" opacity="100" points="700.0,360.0 706.0,360.0" stroke="#090" stroke-width="1" /><polyline fill="none" opacity="100" points="700.0,364.0 706.0,364.0" stroke="#090" stroke-width="1" /><polyline fill="none" opacity="100" points="678.0,212.0 674.0,185.0" stroke="#F00" stroke-width="1" /><polygon fill="#F00" opacity="100" points="677.2555,192.5134 674.0,185.0 673.0627,193.1346" stroke="#F00" stroke-width="1" /><polyline fill="none" opacity="100" points="813.0,228.0 790.0,241.0" stroke="#090" stroke-width="1" /><polygon fill="#090" opacity="100" points="795.6555,235.447 790.0,241.0 797.6743,239.0187" stroke="#090" stroke-width="1" /><text fill="#00AFAF" font-family="Arial" font-size="15" font-weight="normal" opacity="100" transform="rotate(-0.0 422.0,93.0) translate(0 15)" x="422.0" y="93.0">Средний проспект В.О.</text><text fill="#00AFAF" font-family="Arial" font-size="15" font-weight="normal" opacity="100" transform="rotate(-90.0 885.0,345.0) translate(0 15)" x="885.0" y="345.0">Андреевский бульвар</text></g></g></svg>