<?xml version="1.0" encoding="utf-8" ?>
<svg baseProfile="tiny" height="1020px" version="1.2" width="870px" xmlns="http://www.w3.org/2000/svg" xmlns:ev="http://www.w3.org/2001/xml-events" xmlns:xlink="http://www.w3.org/1999/xlink"><defs /><g><g transform="rotate(10.0,435.0,510.0)"><polyline fill="none" opacity="100" points="10.0,655.0 421.0,171.0 818.0,168.0" stroke="#F7F7F7" stroke-width="30" /><polyline fill="none" opacity="100" points="580.0,1004.0 384.0,-109.0" stroke="#F7F7F7" stroke-width="60" /><polygon fill="#D6083B" opacity="100" points="591.0,956.0 617.0,971.0 842.0,580.0 816.0,565.0" stroke="#000" stroke-width="1" /><polygon fill="#D6083B" opacity="100" points="522.0,916.0 496.0,901.0 721.0,510.0 747.0,525.0" stroke="#000" stroke-width="1" /><text fill="#D6083B" font-family="Arial" font-size="24" font-weight="bold" opacity="100" transform="rotate(-60.0 672.0,708.0) translate(0 24)" x="672.0" y="708.0">Владимирская</text><text fill="#D6083B" font-family="Arial" font-size="20" font-weight="normal" opacity="100" transform="rotate(-60.0 741.0,752.0) translate(0 20)" x="741.0" y="752.0">Площадь Восстания &gt;&gt;</text><text fill="#D6083B" font-family="Arial" font-size="20" font-weight="normal" opacity="100" transform="rotate(-60.0 474.0,884.0) translate(0 20)" x="474.0" y="884.0">&lt;&lt; Пушкинская</text><polygon fill="#FFF" opacity="0.8" points="663.0,608.0 672.0,593.0 702.0,611.0 694.0,626.0" stroke="#FFF" stroke-width="1" /><polygon fill="#FFF" opacity="0.8" points="674.0,587.0 683.0,573.0 714.0,591.0 705.0,605.0" stroke="#FFF" stroke-width="1" /><polyline fill="none" opacity="1.0" points="522.0,916.0 534.0,923.0 656.0,712.0 668.0,719.0 665.0,724.0 684.0,735.0 687.0,730.0 701.0,738.0 579.0,949.0 591.0,956.0" stroke="#000" stroke-width="1" /><polyline fill="none" opacity="1.0" points="816.0,565.0 804.0,558.0 778.0,603.0 771.0,599.0 829.0,499.0 754.0,455.0" stroke="#000" stroke-width="1" /><polyline fill="none" opacity="1.0" points="754.0,455.0 750.0547,452.5078 746.3438,449.9062 742.8672,447.1953 739.625,444.375 736.6172,441.4453 733.8438,438.4062 731.3047,435.2578 729.0,432.0 726.9297,428.6328 725.0938,425.1562 723.4922,421.5703 722.125,417.875 720.9922,414.0703 720.0938,410.1562 719.4297,406.1328 719.0,402.0" stroke="#000" stroke-width="1" /><polyline fill="none" opacity="1.0" points="747.0,525.0 759.0,532.0 733.0,577.0 740.0,581.0 774.0,522.0 717.0,489.0" stroke="#000" stroke-width="1" /><polyline fill="none" opacity="1.0" points="673.0,412.0 673.1719,418.1016 673.6875,424.0312 674.5469,429.7891 675.75,435.375 677.2969,440.7891 679.1875,446.0312 681.4219,451.1016 684.0,456.0 686.9219,460.7266 690.1875,465.2812 693.7969,469.6641 697.75,473.875 702.0469,477.9141 706.6875,481.7812 711.6719,485.4766 717.0,489.0" stroke="#000" stroke-width="1" /><polyline fill="none" opacity="1.0" points="673.0,412.0 673.0,372.0 676.0,372.0" stroke="#000" stroke-width="1" /><polyline fill="none" opacity="1.0" points="719.0,402.0 719.0,372.0 716.0,372.0" stroke="#000" stroke-width="1" /><polyline fill="none" opacity="1.0" points="790.0,566.0 759.0,548.0" stroke="#000" stroke-width="1" /><polyline fill="none" opacity="1.0" points="792.0155,562.5449 761.0155,544.5449" stroke="#000" stroke-width="1" /><polyline fill="none" opacity="1.0" points="794.031,559.0898 763.031,541.0898" stroke="#000" stroke-width="1" /><polyline fill="none" opacity="1.0" points="796.0465,555.6347 765.0465,537.6347" stroke="#000" stroke-width="1" /><polyline fill="none" opacity="1.0" points="764.0,516.0 788.0,475.0" stroke="#000" stroke-width="1" /><polyline fill="none" opacity="1.0" points="760.527,514.0154 784.527,473.0154" stroke="#000" stroke-width="1" /><polyline fill="none" opacity="1.0" points="757.0541,512.0309 781.0541,471.0309" stroke="#000" stroke-width="1" /><polyline fill="none" opacity="1.0" points="753.5811,510.0463 777.5811,469.0463" stroke="#000" stroke-width="1" /><polyline fill="none" opacity="1.0" points="750.1081,508.0618 774.1081,467.0618" stroke="#000" stroke-width="1" /><polyline fill="none" opacity="1.0" points="746.6351,506.0772 770.6351,465.0772" stroke="#000" stroke-width="1" /><polyline fill="none" opacity="1.0" points="743.1622,504.0927 767.1622,463.0927" stroke="#000" stroke-width="1" /><polyline fill="none" opacity="1.0" points="739.6892,502.1081 763.6892,461.1081" stroke="#000" stroke-width="1" /><polyline fill="none" opacity="1.0" points="736.2162,500.1236 760.2162,459.1236" stroke="#000" stroke-width="1" /><polyline fill="none" opacity="1.0" points="713.0,290.0 679.0,290.0" stroke="#7F7F7F" stroke-width="1" /><polyline fill="none" opacity="1.0" points="713.0,294.0 679.0,294.0" stroke="#7F7F7F" stroke-width="1" /><polyline fill="none" opacity="1.0" points="713.0,298.0 679.0,298.0" stroke="#7F7F7F" stroke-width="1" /><polyline fill="none" opacity="1.0" points="713.0,302.0 679.0,302.0" stroke="#7F7F7F" stroke-width="1" /><polyline fill="none" opacity="1.0" points="713.0,306.0 679.0,306.0" stroke="#7F7F7F" stroke-width="1" /><polyline fill="none" opacity="1.0" points="713.0,310.0 679.0,310.0" stroke="#7F7F7F" stroke-width="1" /><polyline fill="none" opacity="1.0" points="713.0,314.0 679.0,314.0" stroke="#7F7F7F" stroke-width="1" /><polyline fill="none" opacity="1.0" points="713.0,318.0 679.0,318.0" stroke="#7F7F7F" stroke-width="1" /><polyline fill="none" opacity="1.0" points="713.0,322.0 679.0,322.0" stroke="#7F7F7F" stroke-width="1" /><polyline fill="none" opacity="1.0" points="713.0,326.0 679.0,326.0" stroke="#7F7F7F" stroke-width="1" /><polyline fill="none" opacity="1.0" points="713.0,330.0 679.0,330.0" stroke="#7F7F7F" stroke-width="1" /><polyline fill="none" opacity="1.0" points="713.0,334.0 679.0,334.0" stroke="#7F7F7F" stroke-width="1" /><polyline fill="none" opacity="1.0" points="713.0,338.0 679.0,338.0" stroke="#7F7F7F" stroke-width="1" /><polyline fill="none" opacity="1.0" points="713.0,342.0 679.0,342.0" stroke="#7F7F7F" stroke-width="1" /><polyline fill="none" opacity="1.0" points="713.0,346.0 679.0,346.0" stroke="#7F7F7F" stroke-width="1" /><polyline fill="none" opacity="1.0" points="713.0,350.0 679.0,350.0" stroke="#7F7F7F" stroke-width="1" /><polyline fill="none" opacity="1.0" points="713.0,354.0 679.0,354.0" stroke="#7F7F7F" stroke-width="1" /><polyline fill="none" opacity="1.0" points="713.0,358.0 679.0,358.0" stroke="#7F7F7F" stroke-width="1" /><polyline fill="none" opacity="1.0" points="713.0,362.0 679.0,362.0" stroke="#7F7F7F" stroke-width="1" /><polyline fill="none" opacity="1.0" points="713.0,366.0 679.0,366.0" stroke="#7F7F7F" stroke-width="1" /><polyline fill="none" opacity="1.0" points="713.0,370.0 679.0,370.0" stroke="#7F7F7F" stroke-width="1" /><polyline fill="none" opacity="1.0" points="713.0,374.0 679.0,374.0" stroke="#7F7F7F" stroke-width="1" /><polyline fill="none" opacity="1.0" points="713.0,378.0 679.0,378.0" stroke="#7F7F7F" stroke-width="1" /><polygon fill="#9B5509" opacity="1.0" points="679.0,283.0 679.0,383.0 676.0,383.0 676.0,283.0" stroke="#000" stroke-width="1" /><polygon fill="#9B5509" opacity="1.0" points="687.0,283.0 692.0,283.0 692.0,383.0 687.0,383.0" stroke="#000" stroke-width="1" /><polygon fill="#9B5509" opacity="1.0" points="700.0,283.0 705.0,283.0 705.0,383.0 700.0,383.0" stroke="#000" stroke-width="1" /><polygon fill="#9B5509" opacity="1.0" points="713.0,283.0 713.0,383.0 716.0,383.0 716.0,283.0" stroke="#000" stroke-width="1" /><polyline fill="none" opacity="1.0" points="676.0,292.0 662.0,292.0 650.0,280.0 501.0,280.0 495.0,246.0 505.0,234.0 507.0,236.0" stroke="#000" stroke-width="1" /><polyline fill="none" opacity="1.0" points="515.0,226.0 513.0,224.0 523.0,212.0 650.0,212.0 662.0,200.0 685.0,200.0 685.0,203.0" stroke="#000" stroke-width="1" /><polyline fill="none" opacity="1.0" points="707.0,203.0 707.0,200.0 730.0,200.0 742.0,212.0 742.0,280.0 730.0,292.0 716.0,292.0" stroke="#000" stroke-width="1" /><polygon fill="#CCC" opacity="1.0" points="627.0,223.0 636.0,223.0 636.0,232.0 627.0,232.0" stroke="#000" stroke-width="1" /><polygon fill="#CCC" opacity="1.0" points="627.0,242.0 636.0,242.0 636.0,251.0 627.0,251.0" stroke="#000" stroke-width="1" /><polygon fill="#CCC" opacity="1.0" points="627.0,261.0 636.0,261.0 636.0,270.0 627.0,270.0" stroke="#000" stroke-width="1" /><polyline fill="none" opacity="1.0" points="683.0,232.0 687.0,225.0" stroke="#000" stroke-width="0.5" /><polyline fill="none" opacity="1.0" points="742.0,225.0 735.0,225.0" stroke="#000" stroke-width="0.5" /><polyline fill="none" opacity="1.0" points="683.0,232.0" stroke="#000" stroke-width="0.5" /><polyline fill="none" opacity="1.0" points="659.0,289.0 662.0,281.0" stroke="#000" stroke-width="0.5" /><polyline fill="none" opacity="1.0" points="658.0,204.0 683.0,232.0 704.0,260.0 704.0,283.0" stroke="#000" stroke-width="0.5" /><polygon fill="none" opacity="1.0" points="676.0,238.0 678.0,233.0 683.0,235.0 681.0,240.0" stroke="#000" stroke-width="1" /><polyline fill="none" opacity="1.0" points="660.0,280.0 665.0,282.0" stroke="#090" stroke-width="1" /><polyline fill="none" opacity="1.0" points="661.4359,276.2666 666.4359,278.2666" stroke="#090" stroke-width="1" /><polyline fill="none" opacity="1.0" points="662.8718,272.5332 667.8718,274.5332" stroke="#090" stroke-width="1" /><polyline fill="none" opacity="1.0" points="664.3077,268.7999 669.3077,270.7999" stroke="#090" stroke-width="1" /><polyline fill="none" opacity="1.0" points="665.7437,265.0665 670.7437,267.0665" stroke="#090" stroke-width="1" /><polyline fill="none" opacity="1.0" points="667.1796,261.3331 672.1796,263.3331" stroke="#090" stroke-width="1" /><polyline fill="none" opacity="1.0" points="668.6155,257.5997 673.6155,259.5997" stroke="#090" stroke-width="1" /><polyline fill="none" opacity="1.0" points="670.0514,253.8663 675.0514,255.8663" stroke="#090" stroke-width="1" /><polyline fill="none" opacity="1.0" points="671.4873,250.1329 676.4873,252.1329" stroke="#090" stroke-width="1" /><polyline fill="none" opacity="1.0" points="672.9232,246.3996 677.9232,248.3996" stroke="#090" stroke-width="1" /><polyline fill="none" opacity="1.0" points="674.3592,242.6662 679.3592,244.6662" stroke="#090" stroke-width="1" /><polyline fill="none" opacity="1.0" points="687.0,223.0 687.0,227.0" stroke="#F00" stroke-width="1" /><polyline fill="none" opacity="1.0" points="691.0,223.0 691.0,227.0" stroke="#F00" stroke-width="1" /><polyline fill="none" opacity="1.0" points="695.0,223.0 695.0,227.0" stroke="#F00" stroke-width="1" /><polyline fill="none" opacity="1.0" points="699.0,223.0 699.0,227.0" stroke="#F00" stroke-width="1" /><polyline fill="none" opacity="1.0" points="703.0,223.0 703.0,227.0" stroke="#F00" stroke-width="1" /><polyline fill="none" opacity="1.0" points="707.0,223.0 707.0,227.0" stroke="#F00" stroke-width="1" /><polyline fill="none" opacity="1.0" points="711.0,223.0 711.0,227.0" stroke="#F00" stroke-width="1" /><polyline fill="none" opacity="1.0" points="715.0,223.0 715.0,227.0" stroke="#F00" stroke-width="1" /><polyline fill="none" opacity="1.0" points="719.0,223.0 719.0,227.0" stroke="#F00" stroke-width="1" /><polyline fill="none" opacity="1.0" points="723.0,223.0 723.0,227.0" stroke="#F00" stroke-width="1" /><polyline fill="none" opacity="1.0" points="727.0,223.0 727.0,227.0" stroke="#F00" stroke-width="1" /><polyline fill="none" opacity="1.0" points="731.0,223.0 731.0,227.0" stroke="#F00" stroke-width="1" /><polyline fill="none" opacity="1.0" points="735.0,223.0 735.0,227.0" stroke="#F00" stroke-width="1" /><polyline fill="none" opacity="1.0" points="565.0,212.0 565.0,203.0 596.0,203.0 596.0,212.0" stroke="#000" stroke-width="1" /><text fill="#000" font-family="Arial" font-size="10" font-weight="normal" opacity="1.0" transform="rotate(-0.0 568.0,201.0) translate(0 10)" x="568.0" y="201.0">кассы</text><polyline fill="none" opacity="1.0" points="504.0,225.0 516.0,235.0" stroke="#090" stroke-width="1" /><polygon fill="#090" opacity="1.0" points="511.7462,233.034 516.0,235.0 513.2991,231.1705" stroke="#090" stroke-width="1" /><polyline fill="none" opacity="1.0" points="687.0,251.0 687.0,266.0" stroke="#090" stroke-width="1" /><polygon fill="#090" opacity="1.0" points="685.8353,261.6533 687.0,266.0 688.1647,261.6533" stroke="#090" stroke-width="1" /><polyline fill="none" opacity="1.0" points="683.0,388.0 683.0,400.0" stroke="#090" stroke-width="1" /><polygon fill="#090" opacity="1.0" points="682.0683,396.5227 683.0,400.0 683.9317,396.5227" stroke="#090" stroke-width="1" /><polyline fill="none" opacity="1.0" points="721.0,266.0 721.0,251.0" stroke="#F00" stroke-width="1" /><polygon fill="#F00" opacity="1.0" points="722.1647,255.3467 721.0,251.0 719.8353,255.3467" stroke="#F00" stroke-width="1" /><polyline fill="none" opacity="1.0" points="709.0,400.0 709.0,388.0" stroke="#F00" stroke-width="1" /><polygon fill="#F00" opacity="1.0" points="709.9317,391.4773 709.0,388.0 708.0683,391.4773" stroke="#F00" stroke-width="1" /><polyline fill="none" opacity="1.0" points="709.0,635.0 718.0,620.0" stroke="#000" stroke-width="1" /><polyline fill="none" opacity="1.0" points="705.5383,632.9959 714.5383,617.9959" stroke="#000" stroke-width="1" /><polyline fill="none" opacity="1.0" points="702.0766,630.9917 711.0766,615.9917" stroke="#000" stroke-width="1" /><polyline fill="none" opacity="1.0" points="698.6149,628.9876 707.6149,613.9876" stroke="#000" stroke-width="1" /><polyline fill="none" opacity="1.0" points="695.1532,626.9834 704.1532,611.9834" stroke="#000" stroke-width="1" /><polyline fill="none" opacity="1.0" points="691.6915,624.9793 700.6915,609.9793" stroke="#000" stroke-width="1" /><polyline fill="none" opacity="1.0" points="688.2298,622.9751 697.2298,607.9751" stroke="#000" stroke-width="1" /><polyline fill="none" opacity="1.0" points="684.7681,620.971 693.7681,605.971" stroke="#000" stroke-width="1" /><polyline fill="none" opacity="1.0" points="681.3064,618.9668 690.3064,603.9668" stroke="#000" stroke-width="1" /><polyline fill="none" opacity="1.0" points="677.8447,616.9627 686.8447,601.9627" stroke="#000" stroke-width="1" /><polyline fill="none" opacity="1.0" points="674.3829,614.9585 683.3829,599.9585" stroke="#000" stroke-width="1" /><polyline fill="none" opacity="1.0" points="721.0,615.0 730.0,600.0" stroke="#000" stroke-width="1" /><polyline fill="none" opacity="1.0" points="717.5383,612.9959 726.5383,597.9959" stroke="#000" stroke-width="1" /><polyline fill="none" opacity="1.0" points="714.0766,610.9917 723.0766,595.9917" stroke="#000" stroke-width="1" /><polyline fill="none" opacity="1.0" points="710.6149,608.9876 719.6149,593.9876" stroke="#000" stroke-width="1" /><polyline fill="none" opacity="1.0" points="707.1532,606.9834 716.1532,591.9834" stroke="#000" stroke-width="1" /><polyline fill="none" opacity="1.0" points="703.6915,604.9793 712.6915,589.9793" stroke="#000" stroke-width="1" /><polyline fill="none" opacity="1.0" points="700.2298,602.9751 709.2298,587.9751" stroke="#000" stroke-width="1" /><polyline fill="none" opacity="1.0" points="696.7681,600.971 705.7681,585.971" stroke="#000" stroke-width="1" /><polyline fill="none" opacity="1.0" points="693.3064,598.9668 702.3064,583.9668" stroke="#000" stroke-width="1" /><polyline fill="none" opacity="1.0" points="689.8447,596.9627 698.8447,581.9627" stroke="#000" stroke-width="1" /><polyline fill="none" opacity="1.0" points="686.3829,594.9585 695.3829,579.9585" stroke="#000" stroke-width="1" /><polyline fill="none" opacity="1.0" points="677.0,580.0 665.0,571.0" stroke="#000" stroke-width="1" /><polygon fill="#000" opacity="1.0" points="669.1761,572.6763 665.0,571.0 667.7785,574.5397" stroke="#000" stroke-width="1" /><polyline fill="none" opacity="1.0" points="651.0,591.0 665.0,599.0" stroke="#000" stroke-width="1" /><polygon fill="#000" opacity="1.0" points="660.3219,597.7688 665.0,599.0 661.5643,595.5947" stroke="#000" stroke-width="1" /><polyline fill="none" opacity="1.0" points="732.0,601.0 672.0,566.0 669.0,561.0 667.0,562.0 663.0,555.0 665.0,554.0 652.0,534.0 642.0,523.0 657.0,507.0 654.0,492.0 661.0,492.0 661.0,425.0 578.0,425.0 578.0,433.0" stroke="#000" stroke-width="1" /><polyline fill="none" opacity="1.0" points="711.0,636.0 642.0,596.0 632.0,581.0 634.0,580.0 630.0,573.0 628.0,574.0 621.0,544.0 622.0,525.0 603.0,515.0 599.0,492.0 578.0,492.0 578.0,484.0" stroke="#000" stroke-width="1" /><polygon fill="#C0C0C0" opacity="1.0" points="643.0,492.0 645.0,504.0 636.0,513.0 632.0,492.0 643.0,492.0" stroke="#000" stroke-width="1" /><polygon fill="#C0C0C0" opacity="1.0" points="621.0,492.0 625.0,515.0 613.0,509.0 610.0,492.0 621.0,492.0" stroke="#000" stroke-width="1" /><polyline fill="none" opacity="1.0" points="469.0,498.0 469.0,487.0 494.0,487.0 494.0,484.0" stroke="#000" stroke-width="1" /><polyline fill="none" opacity="1.0" points="469.0,418.0 469.0,430.0 494.0,430.0 494.0,433.0" stroke="#000" stroke-width="1" /><polyline fill="none" opacity="1.0" points="720.0,621.0 655.0,583.0 648.0,573.0 646.0,574.0 642.0,567.0 644.0,566.0 637.0,540.0 649.0,563.0 651.0,562.0 655.0,569.0 653.0,570.0 659.0,579.0 723.0,616.0" stroke="#000" stroke-width="1" /><polyline fill="none" opacity="1.0" points="625.0,515.0 637.0,540.0" stroke="#000" stroke-width="0.5" /><polyline fill="none" opacity="1.0" points="492.0,437.0 492.0,480.0" stroke="#808080" stroke-width="1" /><polyline fill="none" opacity="1.0" points="496.0,437.0 496.0,480.0" stroke="#808080" stroke-width="1" /><polyline fill="none" opacity="1.0" points="500.0,437.0 500.0,480.0" stroke="#808080" stroke-width="1" /><polyline fill="none" opacity="1.0" points="504.0,437.0 504.0,480.0" stroke="#808080" stroke-width="1" /><polyline fill="none" opacity="1.0" points="508.0,437.0 508.0,480.0" stroke="#808080" stroke-width="1" /><polyline fill="none" opacity="1.0" points="512.0,437.0 512.0,480.0" stroke="#808080" stroke-width="1" /><polyline fill="none" opacity="1.0" points="516.0,437.0 516.0,480.0" stroke="#808080" stroke-width="1" /><polyline fill="none" opacity="1.0" points="520.0,437.0 520.0,480.0" stroke="#808080" stroke-width="1" /><polyline fill="none" opacity="1.0" points="524.0,437.0 524.0,480.0" stroke="#808080" stroke-width="1" /><polyline fill="none" opacity="1.0" points="528.0,437.0 528.0,480.0" stroke="#808080" stroke-width="1" /><polyline fill="none" opacity="1.0" points="532.0,437.0 532.0,480.0" stroke="#808080" stroke-width="1" /><polyline fill="none" opacity="1.0" points="536.0,437.0 536.0,480.0" stroke="#808080" stroke-width="1" /><polyline fill="none" opacity="1.0" points="540.0,437.0 540.0,480.0" stroke="#808080" stroke-width="1" /><polyline fill="none" opacity="1.0" points="544.0,437.0 544.0,480.0" stroke="#808080" stroke-width="1" /><polyline fill="none" opacity="1.0" points="548.0,437.0 548.0,480.0" stroke="#808080" stroke-width="1" /><polyline fill="none" opacity="1.0" points="552.0,437.0 552.0,480.0" stroke="#808080" stroke-width="1" /><polyline fill="none" opacity="1.0" points="556.0,437.0 556.0,480.0" stroke="#808080" stroke-width="1" /><polyline fill="none" opacity="1.0" points="560.0,437.0 560.0,480.0" stroke="#808080" stroke-width="1" /><polyline fill="none" opacity="1.0" points="564.0,437.0 564.0,480.0" stroke="#808080" stroke-width="1" /><polyline fill="none" opacity="1.0" points="568.0,437.0 568.0,480.0" stroke="#808080" stroke-width="1" /><polyline fill="none" opacity="1.0" points="572.0,437.0 572.0,480.0" stroke="#808080" stroke-width="1" /><polyline fill="none" opacity="1.0" points="576.0,437.0 576.0,480.0" stroke="#808080" stroke-width="1" /><polyline fill="none" opacity="1.0" points="580.0,437.0 580.0,480.0" stroke="#808080" stroke-width="1" /><polygon fill="#9B5509" opacity="1.0" points="486.0,433.0 586.0,433.0 586.0,437.0 486.0,437.0" stroke="#000" stroke-width="1" /><polygon fill="#9B5509" opacity="1.0" points="486.0,444.0 586.0,444.0 586.0,449.0 486.0,449.0" stroke="#000" stroke-width="1" /><polygon fill="#9B5509" opacity="1.0" points="486.0,456.0 586.0,456.0 586.0,461.0 486.0,461.0" stroke="#000" stroke-width="1" /><polygon fill="#9B5509" opacity="1.0" points="486.0,468.0 586.0,468.0 586.0,473.0 486.0,473.0" stroke="#000" stroke-width="1" /><polygon fill="#9B5509" opacity="1.0" points="486.0,480.0 586.0,480.0 586.0,484.0 486.0,484.0" stroke="#000" stroke-width="1" /><polygon fill="#EA7125" opacity="1.0" points="19.0,498.0 19.0,528.0 469.0,528.0 469.0,498.0" stroke="#000" stroke-width="1" /><polygon fill="#EA7125" opacity="1.0" points="19.0,418.0 19.0,388.0 469.0,388.0 469.0,418.0" stroke="#000" stroke-width="1" /><text fill="#EA7125" font-family="Arial" font-size="20" font-weight="normal" opacity="1.0" transform="rotate(-0.0 101.0,366.0) translate(0 20)" x="101.0" y="366.0">&lt;&lt; Спасская</text><text fill="#EA7125" font-family="Arial" font-size="20" font-weight="normal" opacity="1.0" transform="rotate(-0.0 269.0,528.0) translate(0 20)" x="269.0" y="528.0">Лиговский проспект &gt;&gt;</text><text fill="#EA7125" font-family="Arial" font-size="25" font-weight="bold" opacity="1.0" transform="rotate(-0.0 207.0,440.0) translate(0 25)" x="207.0" y="440.0">Достоевская</text><polyline fill="none" opacity="1.0" points="19.0,498.0 19.0,484.0 125.0,484.0 125.0,477.0 31.0,477.0 31.0,439.0 36.0,439.0" stroke="#000" stroke-width="1" /><polyline fill="none" opacity="1.0" points="91.0,439.0 125.0,439.0 125.0,432.0 19.0,432.0 19.0,418.0" stroke="#000" stroke-width="1" /><polygon fill="#FFF" opacity="0.8" points="36.0,387.0 49.0,387.0 49.0,433.0 36.0,433.0" stroke="#FFF" stroke-width="0.5" /><polygon fill="#FFF" opacity="0.8" points="57.0,387.0 70.0,387.0 70.0,433.0 57.0,433.0" stroke="#FFF" stroke-width="0.5" /><polygon fill="#FFF" opacity="0.8" points="78.0,387.0 91.0,387.0 91.0,433.0 78.0,433.0" stroke="#FFF" stroke-width="0.5" /><polyline fill="none" opacity="1.0" points="97.0,439.0 97.0,477.0" stroke="#000" stroke-width="1" /><polyline fill="none" opacity="1.0" points="101.0,439.0 101.0,477.0" stroke="#000" stroke-width="1" /><polyline fill="none" opacity="1.0" points="105.0,439.0 105.0,477.0" stroke="#000" stroke-width="1" /><polyline fill="none" opacity="1.0" points="109.0,439.0 109.0,477.0" stroke="#000" stroke-width="1" /><polyline fill="none" opacity="1.0" points="113.0,439.0 113.0,477.0" stroke="#000" stroke-width="1" /><polyline fill="none" opacity="1.0" points="117.0,439.0 117.0,477.0" stroke="#000" stroke-width="1" /><polyline fill="none" opacity="1.0" points="121.0,439.0 121.0,477.0" stroke="#000" stroke-width="1" /><polyline fill="none" opacity="1.0" points="36.0,439.0 36.0,346.0 38.0,335.0 43.0,324.0 70.0,277.0 74.0,279.0 84.0,261.0 87.0,263.0" stroke="#000" stroke-width="1" /><polyline fill="none" opacity="1.0" points="91.0,439.0 91.0,357.0 93.0,347.0 118.0,304.0 114.0,302.0 124.0,285.0 122.0,284.0" stroke="#000" stroke-width="1" /><polygon fill="#CCC" opacity="1.0" points="49.0,439.0 49.0,382.0 57.0,382.0 57.0,439.0" stroke="#000" stroke-width="1" /><polygon fill="#CCC" opacity="1.0" points="70.0,439.0 70.0,382.0 78.0,382.0 78.0,439.0" stroke="#000" stroke-width="1" /><polyline fill="none" opacity="1.0" points="190.0,158.0 161.0,141.0" stroke="#7F7F7F" stroke-width="1" /><polyline fill="none" opacity="1.0" points="188.0154,161.473 159.0154,144.473" stroke="#7F7F7F" stroke-width="1" /><polyline fill="none" opacity="1.0" points="186.0309,164.9459 157.0309,147.9459" stroke="#7F7F7F" stroke-width="1" /><polyline fill="none" opacity="1.0" points="184.0463,168.4189 155.0463,151.4189" stroke="#7F7F7F" stroke-width="1" /><polyline fill="none" opacity="1.0" points="182.0618,171.8919 153.0618,154.8919" stroke="#7F7F7F" stroke-width="1" /><polyline fill="none" opacity="1.0" points="180.0772,175.3649 151.0772,158.3649" stroke="#7F7F7F" stroke-width="1" /><polyline fill="none" opacity="1.0" points="178.0927,178.8378 149.0927,161.8378" stroke="#7F7F7F" stroke-width="1" /><polyline fill="none" opacity="1.0" points="176.1081,182.3108 147.1081,165.3108" stroke="#7F7F7F" stroke-width="1" /><polyline fill="none" opacity="1.0" points="174.1236,185.7838 145.1236,168.7838" stroke="#7F7F7F" stroke-width="1" /><polyline fill="none" opacity="1.0" points="172.139,189.2568 143.139,172.2568" stroke="#7F7F7F" stroke-width="1" /><polyline fill="none" opacity="1.0" points="170.1544,192.7297 141.1544,175.7297" stroke="#7F7F7F" stroke-width="1" /><polyline fill="none" opacity="1.0" points="168.1699,196.2027 139.1699,179.2027" stroke="#7F7F7F" stroke-width="1" /><polyline fill="none" opacity="1.0" points="166.1853,199.6757 137.1853,182.6757" stroke="#7F7F7F" stroke-width="1" /><polyline fill="none" opacity="1.0" points="164.2008,203.1486 135.2008,186.1486" stroke="#7F7F7F" stroke-width="1" /><polyline fill="none" opacity="1.0" points="162.2162,206.6216 133.2162,189.6216" stroke="#7F7F7F" stroke-width="1" /><polyline fill="none" opacity="1.0" points="160.2317,210.0946 131.2317,193.0946" stroke="#7F7F7F" stroke-width="1" /><polyline fill="none" opacity="1.0" points="158.2471,213.5676 129.2471,196.5676" stroke="#7F7F7F" stroke-width="1" /><polyline fill="none" opacity="1.0" points="156.2626,217.0405 127.2626,200.0405" stroke="#7F7F7F" stroke-width="1" /><polyline fill="none" opacity="1.0" points="154.278,220.5135 125.278,203.5135" stroke="#7F7F7F" stroke-width="1" /><polyline fill="none" opacity="1.0" points="152.2934,223.9865 123.2934,206.9865" stroke="#7F7F7F" stroke-width="1" /><polyline fill="none" opacity="1.0" points="150.3089,227.4595 121.3089,210.4595" stroke="#7F7F7F" stroke-width="1" /><polyline fill="none" opacity="1.0" points="148.3243,230.9324 119.3243,213.9324" stroke="#7F7F7F" stroke-width="1" /><polyline fill="none" opacity="1.0" points="146.3398,234.4054 117.3398,217.4054" stroke="#7F7F7F" stroke-width="1" /><polyline fill="none" opacity="1.0" points="144.3552,237.8784 115.3552,220.8784" stroke="#7F7F7F" stroke-width="1" /><polyline fill="none" opacity="1.0" points="142.3707,241.3513 113.3707,224.3513" stroke="#7F7F7F" stroke-width="1" /><polyline fill="none" opacity="1.0" points="140.3861,244.8243 111.3861,227.8243" stroke="#7F7F7F" stroke-width="1" /><polyline fill="none" opacity="1.0" points="138.4016,248.2973 109.4016,231.2973" stroke="#7F7F7F" stroke-width="1" /><polyline fill="none" opacity="1.0" points="136.417,251.7703 107.417,234.7703" stroke="#7F7F7F" stroke-width="1" /><polyline fill="none" opacity="1.0" points="134.4324,255.2432 105.4324,238.2432" stroke="#7F7F7F" stroke-width="1" /><polyline fill="none" opacity="1.0" points="132.4479,258.7162 103.4479,241.7162" stroke="#7F7F7F" stroke-width="1" /><polyline fill="none" opacity="1.0" points="130.4633,262.1892 101.4633,245.1892" stroke="#7F7F7F" stroke-width="1" /><polyline fill="none" opacity="1.0" points="128.4788,265.6621 99.4788,248.6621" stroke="#7F7F7F" stroke-width="1" /><polyline fill="none" opacity="1.0" points="126.4942,269.1351 97.4942,252.1351" stroke="#7F7F7F" stroke-width="1" /><polyline fill="none" opacity="1.0" points="124.5097,272.6081 95.5097,255.6081" stroke="#7F7F7F" stroke-width="1" /><polyline fill="none" opacity="1.0" points="122.5251,276.0811 93.5251,259.0811" stroke="#7F7F7F" stroke-width="1" /><polyline fill="none" opacity="1.0" points="120.5405,279.554 91.5405,262.554" stroke="#7F7F7F" stroke-width="1" /><polyline fill="none" opacity="1.0" points="118.556,283.027 89.556,266.027" stroke="#7F7F7F" stroke-width="1" /><polygon fill="#9B5509" opacity="1.0" points="165.0,135.0 86.0,272.0 83.0,270.0 162.0,133.0" stroke="#000" stroke-width="1" /><polygon fill="#9B5509" opacity="1.0" points="171.0,139.0 176.0,142.0 97.0,279.0 92.0,276.0" stroke="#000" stroke-width="1" /><polygon fill="#9B5509" opacity="1.0" points="182.0,145.0 187.0,148.0 108.0,285.0 103.0,282.0" stroke="#000" stroke-width="1" /><polygon fill="#9B5509" opacity="1.0" points="194.0,152.0 115.0,289.0 118.0,291.0 197.0,154.0" stroke="#000" stroke-width="1" /><polygon fill="#FFF" opacity="0.8" points="124.0,195.0 169.0,207.0 183.0,181.0 175.0,183.0 166.0,184.0 158.0,182.0 151.0,175.0 148.0,166.0 146.0,158.0" stroke="#FFF" stroke-width="1" /><polyline fill="none" opacity="0.8" points="233.0,188.0 184.0,175.0" stroke="#000" stroke-width="1" /><polyline fill="none" opacity="0.8" points="231.9011,191.8461 182.9011,178.8461" stroke="#000" stroke-width="1" /><polyline fill="none" opacity="0.8" points="117.0,157.0 148.0,165.0" stroke="#000" stroke-width="1" /><polyline fill="none" opacity="0.8" points="116.3424,160.9456 147.3424,168.9456" stroke="#000" stroke-width="1" /><polyline fill="none" opacity="0.8" points="258.0,108.0 263.0,90.0 163.0,63.0 156.0,88.0 125.0,127.0 108.0,191.0 213.0,219.0 239.0,182.0 248.0,149.0" stroke="#000" stroke-width="1" /><polyline fill="none" opacity="0.8" points="243.0,132.0 246.0,121.0" stroke="#000" stroke-width="1" /><polyline fill="none" opacity="0.8" points="273.0,112.0 250.0,106.0 248.0,113.0" stroke="#000" stroke-width="1" /><polyline fill="none" opacity="0.8" points="262.0,153.0 239.0,147.0 241.0,140.0" stroke="#000" stroke-width="1" /><polyline fill="none" opacity="0.8" points="147.0,159.0 147.6641,163.0078 148.5312,166.6562 149.6016,169.9453 150.875,172.875 152.3516,175.4453 154.0312,177.6562 155.9141,179.5078 158.0,181.0 160.2891,182.1328 162.7812,182.9062 165.4766,183.3203 168.375,183.375 171.4766,183.0703 174.7812,182.4062 178.2891,181.3828 182.0,180.0" stroke="#000" stroke-width="1" /><polyline fill="none" opacity="0.8" points="36.0,438.0 49.0,438.0" stroke="#000" stroke-width="1" /><polyline fill="none" opacity="0.8" points="36.0,434.0 49.0,434.0" stroke="#000" stroke-width="1" /><polyline fill="none" opacity="0.8" points="36.0,430.0 49.0,430.0" stroke="#000" stroke-width="1" /><polyline fill="none" opacity="0.8" points="36.0,426.0 49.0,426.0" stroke="#000" stroke-width="1" /><polyline fill="none" opacity="0.8" points="36.0,422.0 49.0,422.0" stroke="#000" stroke-width="1" /><polyline fill="none" opacity="0.8" points="57.0,438.0 70.0,438.0" stroke="#000" stroke-width="1" /><polyline fill="none" opacity="0.8" points="57.0,434.0 70.0,434.0" stroke="#000" stroke-width="1" /><polyline fill="none" opacity="0.8" points="57.0,430.0 70.0,430.0" stroke="#000" stroke-width="1" /><polyline fill="none" opacity="0.8" points="57.0,426.0 70.0,426.0" stroke="#000" stroke-width="1" /><polyline fill="none" opacity="0.8" points="57.0,422.0 70.0,422.0" stroke="#000" stroke-width="1" /><polyline fill="none" opacity="0.8" points="78.0,438.0 91.0,438.0" stroke="#000" stroke-width="1" /><polyline fill="none" opacity="0.8" points="78.0,434.0 91.0,434.0" stroke="#000" stroke-width="1" /><polyline fill="none" opacity="0.8" points="78.0,430.0 91.0,430.0" stroke="#000" stroke-width="1" /><polyline fill="none" opacity="0.8" points="78.0,426.0 91.0,426.0" stroke="#000" stroke-width="1" /><polyline fill="none" opacity="0.8" points="78.0,422.0 91.0,422.0" stroke="#000" stroke-width="1" /><polyline fill="none" opacity="0.8" points="270.0,111.0 259.0,152.0" stroke="#000" stroke-width="1" /><polyline fill="none" opacity="0.8" points="266.0777,110.2155 255.0777,151.2155" stroke="#000" stroke-width="1" /><polyline fill="none" opacity="0.8" points="173.0,119.0 175.0,123.0 171.0,125.0 169.0,121.0 173.0,119.0" stroke="#000" stroke-width="1" /><polyline fill="none" opacity="0.8" points="162.0,133.0 169.0,121.0" stroke="#000" stroke-width="0.5" /><polyline fill="none" opacity="0.8" points="244.0,126.0 218.0,119.0 202.0,128.0 198.0,126.0 186.0,147.0" stroke="#000" stroke-width="0.5" /><polyline fill="none" opacity="0.8" points="177.0,117.0 179.0,121.0" stroke="#090" stroke-width="1" /><polyline fill="none" opacity="0.8" points="180.6552,115.3754 182.6552,119.3754" stroke="#090" stroke-width="1" /><polyline fill="none" opacity="0.8" points="184.3105,113.7509 186.3105,117.7509" stroke="#090" stroke-width="1" /><polyline fill="none" opacity="0.8" points="187.9657,112.1263 189.9657,116.1263" stroke="#090" stroke-width="1" /><polyline fill="none" opacity="0.8" points="191.621,110.5018 193.621,114.5018" stroke="#090" stroke-width="1" /><polyline fill="none" opacity="0.8" points="198.0,110.0 197.0,114.0" stroke="#090" stroke-width="1" /><polyline fill="none" opacity="0.8" points="201.8806,110.9701 200.8806,114.9701" stroke="#090" stroke-width="1" /><polyline fill="none" opacity="0.8" points="205.7611,111.9403 204.7611,115.9403" stroke="#090" stroke-width="1" /><polyline fill="none" opacity="0.8" points="209.6417,112.9104 208.6417,116.9104" stroke="#090" stroke-width="1" /><polyline fill="none" opacity="0.8" points="213.5223,113.8806 212.5223,117.8806" stroke="#090" stroke-width="1" /><polyline fill="none" opacity="0.8" points="217.4029,114.8507 216.4029,118.8507" stroke="#090" stroke-width="1" /><polyline fill="none" opacity="0.8" points="156.0,88.0 145.0,85.0 152.0,60.0 163.0,63.0" stroke="#000" stroke-width="1" /><text fill="#000" font-family="Arial" font-size="10" font-weight="normal" opacity="0.8" transform="rotate(-75.0 144.0,84.0) translate(0 10)" x="144.0" y="84.0">кассы</text><polyline fill="none" opacity="0.8" points="244.0,116.0 233.0,113.0" stroke="#090" stroke-width="1" /><polygon fill="#090" opacity="0.8" points="236.4205,113.0152 233.0,113.0 235.9546,114.7234" stroke="#090" stroke-width="1" /><polyline fill="none" opacity="0.8" points="228.0,132.0 239.0,135.0" stroke="#F00" stroke-width="1" /><polygon fill="#F00" opacity="0.8" points="235.5795,134.9848 239.0,135.0 236.0454,133.2766" stroke="#F00" stroke-width="1" /><text fill="#00AFAF" font-family="Arial" font-size="15" font-weight="normal" opacity="0.8" transform="rotate(-0.0 612.0,160.0) translate(0 15)" x="612.0" y="160.0">Кузнечный переулок</text><text fill="#00AFAF" font-family="Arial" font-size="15" font-weight="normal" opacity="0.8" transform="rotate(-100.0 397.0,21.0) translate(0 15)" x="397.0" y="21.0">Владимирский пр.</text><text fill="#00AFAF" font-family="Arial" font-size="15" font-weight="normal" opacity="0.8" transform="rotate(-50.0 263.0,339.0) translate(0 15)" x="263.0" y="339.0">Загородный проспект</text><text fill="#00AFAF" font-family="Arial" font-size="15" font-weight="normal" opacity="0.8" transform="rotate(-100.0 459.0,371.0) translate(0 15)" x="459.0" y="371.0">Большая Московская улица</text><text fill="#00AFAF" font-family="Arial" font-size="15" font-weight="normal" opacity="0.8" transform="rotate(-100.0 423.0,165.0) translate(0 15)" x="423.0" y="165.0">Владимирская пл.</text></g></g></svg>