<?xml version="1.0" encoding="utf-8" ?>
<svg baseProfile="tiny" height="800px" version="1.2" width="1050px" xmlns="http://www.w3.org/2000/svg" xmlns:ev="http://www.w3.org/2001/xml-events" xmlns:xlink="http://www.w3.org/1999/xlink"><defs /><g><polygon fill="#A5CEF7" opacity="100" points="0.0,650.0 650.0,0.0 0.0,0.0" stroke="#A5CEF7" stroke-width="5" /><polyline fill="none" opacity="100" points="550.0,60.0 655.0,60.0 840.0,245.0 840.0,336.0" stroke="#A5CEF7" stroke-width="10" /><polyline fill="none" opacity="100" points="15.0,618.0 15.0,688.0 46.0,658.0" stroke="#A5CEF7" stroke-width="10" /><polyline fill="none" opacity="100" points="16.0,657.0 40.0,633.0" stroke="#A5CEF7" stroke-width="10" /><text fill="#FFF" font-family="Arial" font-size="40" font-weight="normal" opacity="100" x="142.0" y="208.0">Gulf of Arabia</text><text fill="#0404A4" font-family="Arial" font-size="45" font-weight="bold" opacity="100" x="3.25" y="50.5">Dubai</text><text fill="#0404A4" font-family="Arial" font-size="15" font-weight="normal" opacity="100" x="7.75" y="66.5">(Attention! All time intervals in this version equal 2 minutes)</text><polygon fill="#F00" opacity="100" points="558.0,491.0 603.0,462.0 619.0,478.0" stroke="#F00" stroke-width="1" /><text fill="#FFF" font-family="Arial" font-size="14" font-weight="bold" opacity="100" x="586.9" y="480.6">RTA</text><text fill="#000" font-family="Arial" font-size="8" font-weight="bold" opacity="100" x="611.8" y="468.2">ROADS &amp; TRANSPORT AUTHORITY</text><text fill="#F00" font-family="Arial" font-size="15" font-weight="normal" opacity="100" x="605.75" y="514.5">Red Line</text><text fill="#28903A" font-family="Arial" font-size="15" font-weight="normal" opacity="100" x="605.75" y="534.5">Green Line</text><polyline fill="none" opacity="100" points="201.0,471.0 203.0,469.0 100.0,366.0 98.0,368.0" stroke="#000" stroke-width="3" /><text fill="#000" font-family="Arial" font-size="10" font-weight="normal" opacity="100" x="130.5" y="477.0">Gateway Towers 2</text><text fill="#000" font-family="Arial" font-size="10" font-weight="normal" opacity="100" x="19.5" y="379.0">Atlantis Aquaventure 2</text><text fill="#000" font-family="Arial" font-size="10" font-weight="bold" opacity="100" x="145.5" y="405.0">Palm Jumeirah Monorail</text><polyline fill="none" opacity="100" points="590.0,60.0 655.0,60.0 840.0,245.0 840.0,401.0" stroke="#737373" stroke-width="2" /><polyline fill="none" opacity="100" points="0.0,699.0 251.0,699.0 549.0,401.0" stroke="#737373" stroke-width="2" /><polyline fill="none" opacity="100" points="388.0,266.0 474.0,352.0 549.0,352.0 549.0,401.0 840.0,401.0" stroke="#737373" stroke-width="2" /><polyline fill="none" opacity="100" points="251.0,699.0 251.0,801.0" stroke="#737373" stroke-width="2" /><polyline fill="none" opacity="100" points="840.0,401.0 1050.0,401.0" stroke="#737373" stroke-width="2" /><text fill="#737373" font-family="Arial" font-size="20" font-weight="normal" opacity="100" x="214.0" y="778.0">1 3</text><text fill="#737373" font-family="Arial" font-size="20" font-weight="normal" opacity="100" x="214.0" y="682.0">2 3</text><text fill="#737373" font-family="Arial" font-size="20" font-weight="normal" opacity="100" x="773.0" y="387.0">5 3</text><text fill="#737373" font-family="Arial" font-size="20" font-weight="normal" opacity="100" x="1023.0" y="387.0">6 3</text><text fill="#737373" font-family="Arial" font-size="15" font-weight="normal" opacity="100" x="537.75" y="554.5">"1 2 5 6" 3</text><text fill="#000" font-family="Arial" font-size="15" font-weight="normal" opacity="100" x="605.75" y="554.5">Zone numbers</text></g></svg>