<?xml version="1.0" encoding="utf-8" ?>
<svg baseProfile="tiny" height="1000px" version="1.2" width="890px" xmlns="http://www.w3.org/2000/svg" xmlns:ev="http://www.w3.org/2001/xml-events" xmlns:xlink="http://www.w3.org/1999/xlink"><defs /><g><polyline fill="none" opacity="100" points="161.0,1004.0 164.75,996.3047 169.0,988.0938 173.7642,979.3506 179.0,970.125 184.6226,960.5166 190.7734,950.3594 197.4951,939.6035 205.0,928.0 213.6846,915.084 223.0391,901.4531 232.7017,887.5227 242.625,873.375 252.771,859.1082 262.75,845.0898 272.3828,831.5034 281.0,819.0 287.4766,808.6489 293.0,799.3789 298.3357,790.5256 303.625,781.9375 309.1194,773.3123 315.2539,764.4375 322.2388,755.1953 331.0,745.0 343.0464,732.9375 356.8398,719.875 371.428,706.3369 386.5625,692.4375 401.7615,678.4287 416.7734,664.4219 431.4365,650.4785 445.0,637.0 456.3291,624.6074 466.4141,612.7031 475.8147,600.9238 484.6875,589.1875 493.4177,577.3184 501.8789,565.2344 510.0356,552.8887 518.0,540.0 525.8667,526.1348 533.6523,511.7031 541.395,496.9539 549.125,481.9375 556.8472,466.7668 564.6758,451.5039 572.6821,436.1802 581.0,421.0 589.8374,406.2847 599.043,391.7148 608.5554,377.0691 618.3125,362.375 628.1614,347.6868 638.3125,332.7031 648.8398,317.3184 660.0,301.0 672.2773,282.8066 685.0625,263.8594 697.946,244.9116 710.8125,226.125 723.4934,207.7329 735.7383,190.2734 747.4009,174.0225 758.0,160.0 766.7827,149.8604 774.418,141.9766 781.2795,135.3623 787.5,129.75 793.3865,124.5908 798.7891,119.7422 803.6689,115.0889 808.0,110.0 811.6514,103.5596 814.8984,96.5078 817.9463,89.2505 820.875,81.875 823.7725,74.644 826.8203,67.4375 830.1338,60.1992 834.0,53.0 838.8584,45.9102 844.3672,38.875 850.3433,31.8652 856.75,24.875 863.4653,17.8848 870.5625,10.9062 878.0781,3.9453 886.0,-3.0" stroke="#D9F5FF" stroke-width="20" /><polyline fill="none" opacity="100" points="206.0,1005.0 210.6094,996.0938 215.1875,987.375 219.7354,978.8464 224.25,970.5 228.7256,962.3196 233.1719,954.332 237.5918,946.5454 242.0,939.0 246.4238,931.771 250.8281,924.7617 255.1792,917.9114 259.5,911.1875 263.8403,904.5359 268.0859,897.9609 272.1982,891.4521 276.0,885.0 279.1689,878.6104 282.1016,872.2266 285.0674,865.7976 288.125,859.3125 291.3545,852.7747 294.9609,846.0898 299.0498,839.2104 304.0,832.0 310.4268,824.231 317.7266,816.1289 325.5457,807.8147 333.75,799.375 342.0657,790.9841 350.5586,782.5 359.2222,773.8906 368.0,765.0 376.8833,755.5 385.7227,745.875 394.3748,736.4629 402.8125,727.375 411.0608,718.7559 418.8203,710.8438 425.9424,703.7852 432.0,698.0 436.2764,694.1367 439.4922,691.6562 442.0952,690.2747 444.1875,689.875 445.9712,690.1687 447.5938,691.3867 449.1367,693.6069 451.0,697.0 453.8086,701.936 456.9688,707.8945 460.1223,714.5144 463.1875,721.6875 465.9851,729.2727 468.4492,737.0078 470.5405,744.7393 472.0,752.0 472.4321,758.0576 472.207,763.5547 471.5396,768.8564 470.5,774.0625 469.2417,779.417 467.7305,784.8516 465.9663,790.3486 464.0,796.0 461.8735,801.9014 459.6133,808.0234 457.2524,814.3823 454.8125,820.9375 452.3022,827.5747 449.793,834.5312 447.3296,841.8984 445.0,850.0 442.9399,859.4219 441.0508,869.4688 439.2859,879.6765 437.625,889.9375 436.009,900.0911 434.5078,909.832 433.1494,918.9985 432.0,927.0 431.1865,932.8882 430.5547,937.5742 430.0015,941.6226 429.5,945.125 429.0103,948.2837 428.4688,951.332 427.8398,954.3735 427.0,958.0 425.7539,963.1772 424.2812,968.8867 422.6843,974.4724 421.0,979.8125 419.3098,984.6897 417.582,988.7344 415.811,991.7676 414.0,993.0 412.1304,991.1465 410.2617,987.5156 408.4465,982.9038 406.6875,977.5625 404.9695,971.9829 403.3984,966.2422 402.0225,960.4365 401.0,955.0 400.6025,950.5166 400.5391,946.6328 400.6208,943.1982 400.8125,940.1875 401.053,937.4346 401.2305,935.2109 401.2905,933.6553 401.0,933.0 399.979,933.6572 398.6133,935.2266 397.1394,937.467 395.625,940.3125 394.2024,943.6248 392.9141,947.3789 391.7939,951.5513 391.0,956.0 390.7607,960.5229 390.8984,965.2773 391.3179,970.3474 392.0,975.75 392.8813,981.5413 394.0,987.6875 395.375,994.1719 397.0,1001.0" stroke="#D9F5FF" stroke-width="20" /><polyline fill="none" opacity="100" points="421.0,1000.0 422.0859,993.5234 423.4688,986.9688 425.1604,980.3318 427.125,973.625 429.2908,966.8733 431.7773,960.0352 434.6206,953.0981 438.0,946.0 442.2505,938.6245 446.9414,931.1211 451.7756,923.5906 456.6875,916.0625 461.5935,908.5793 466.25,901.2031 470.5312,893.9707 474.0,887.0 475.9453,880.4746 477.0625,874.2344 477.7708,868.2156 478.1875,862.3125 478.5554,856.302 478.918,850.4727 479.3179,844.9106 480.0,840.0 481.311,836.4761 482.9883,833.3711 484.8962,829.9849 487.0,826.25 489.1877,822.1479 491.5547,816.832 494.1436,809.9243 497.0,800.0 500.2236,784.6421 503.6953,766.4492 507.3286,747.0742 511.125,726.9375 515.0972,706.7891 519.125,687.293 523.1602,668.8374 527.0,653.0 530.293,642.229 533.4375,634.3008 536.7117,627.9163 540.125,622.75 543.6731,618.0388 547.6758,613.7969 552.2642,609.9902 558.0,606.0 565.8491,600.9629 574.7305,595.5781 583.9404,590.2307 593.3125,585.0 602.5713,580.1267 611.3398,575.5117 619.4136,571.1069 626.0,567.0 629.8403,563.2954 632.1289,559.8945 633.5754,556.7397 634.375,553.8125 634.95,551.0728 635.3281,548.5273 635.5566,546.1753 636.0,544.0 637.1621,541.9849 638.6719,540.1289 640.3521,538.4268 642.125,536.875 643.769,535.4756 645.5391,534.207 647.5361,533.0571 650.0,532.0 653.3936,530.9937 657.1484,530.0742 660.8757,529.2642 664.5,528.5625 667.9231,527.9702 670.8242,527.5039 673.0444,527.1685 674.0,527.0 672.7329,527.062 670.207,527.2773 667.0151,527.5959 663.3125,528.0 659.4067,528.4607 655.4336,528.9609 651.4839,529.4873 648.0,530.0 645.645,530.4424 643.8477,530.8516 642.2786,531.2412 640.875,531.625 639.4656,532.04 638.0469,532.4297 636.6191,532.7725 635.0,533.0 632.9121,532.9854 630.6406,532.8828 628.3721,532.7954 626.125,532.75 623.9326,532.7866 621.9375,532.9688 620.1992,533.332 619.0,534.0 618.8164,535.168 619.125,536.6562 619.5898,538.3596 620.125,540.25 620.582,542.2634 620.8125,544.4023 620.7305,546.6636 620.0,549.0 618.0977,551.3481 615.5,553.7539 612.4836,556.2437 609.125,558.8125 605.6003,561.4595 601.8867,564.1992 597.9858,567.0327 594.0,570.0 590.0571,573.1743 586.082,576.457 582.0315,579.7949 577.9375,583.125 573.8376,586.334 569.6719,589.5195 565.4355,592.6978 561.0,596.0 556.1191,599.6968 551.1406,603.3867 546.3091,606.7808 541.6875,609.8125 537.3511,612.4146 533.5078,614.3008 530.2705,615.3228 528.0,615.0 527.2764,612.5483 527.5547,608.7305 528.5176,603.9995 530.0625,598.5 531.9668,592.5317 534.2734,586.082 536.9795,579.1782 540.0,572.0 543.2549,564.7632 546.7266,557.3867 550.3772,549.853 554.1875,542.1875 558.1677,534.3735 562.1914,526.5195 566.188,518.6978 570.0,511.0 573.3706,503.564 576.5273,496.3242 579.5964,489.2598 582.625,482.375 585.7219,475.6426 588.8281,469.1367 591.9277,462.8999 595.0,457.0 597.9785,451.5493 600.9844,446.457 604.1074,441.6768 607.375,437.1875 610.8145,432.9365 614.5156,428.9727 618.5293,425.313 623.0,422.0 628.1582,419.1206 633.7969,416.5586 639.8027,414.2388 646.125,412.125 652.6504,410.1597 659.4531,408.332 666.5527,406.6235 674.0,405.0 681.916,403.4272 690.1094,401.8867 698.4417,400.3499 706.875,398.8125 715.3689,397.2927 723.793,395.6953 732.0757,393.9736 740.0,392.0 747.2173,389.5576 754.0508,386.8672 760.6921,384.0811 767.1875,381.1875 773.6418,378.1611 780.0703,375.1953 786.4854,372.3604 793.0,370.0 799.7803,368.7178 806.6797,367.8047 813.614,366.8015 820.5625,365.5625 827.4739,363.8489 834.3555,361.4805 841.2085,358.3335 848.0,354.0 854.686,347.8735 861.3008,340.4258 867.8625,331.9094 874.375,322.375 880.8503,311.991 887.2812,300.6562 893.6641,288.3203 900.0,275.0" stroke="#D9F5FF" stroke-width="20" /><polyline fill="none" opacity="100" points="672.0,329.0 676.9766,318.7734 681.7812,309.2188 686.4019,300.3618 690.875,292.125 695.2739,284.353 699.4766,277.3047 703.4463,271.0576 707.0,266.0 709.7959,262.8564 712.2734,260.6953 714.738,258.8694 717.25,257.25 719.8811,255.6833 722.9023,253.5977 726.4487,250.7075 731.0,246.0 737.3442,237.812 744.6914,227.8086 752.5688,217.0007 760.8125,205.6875 769.0952,194.4661 777.4336,183.4531 785.7925,172.7676 794.0,163.0 801.8677,154.9746 809.4102,148.1094 816.5793,142.1187 823.375,136.9375 829.8835,132.3149 835.7969,128.5234 840.9668,125.6943 845.0,124.0 847.2207,123.7744 848.3281,124.6641 848.7598,126.4526 848.625,129.0625 848.1309,132.3481 847.4219,136.2969 846.584,140.8809 846.0,146.0 846.2598,151.5332 846.8281,157.5156 847.3884,163.9573 847.875,170.8125 848.1292,178.033 848.1133,185.6367 847.8071,193.603 847.0,202.0 845.3687,210.979 843.2305,220.2695 840.7803,229.6729 838.0625,239.125 835.1689,248.5576 832.1523,257.7852 829.0425,266.6997 826.0,275.0 823.2739,282.2104 820.6289,288.7461 817.9187,294.8447 815.125,300.5625 812.2043,306.042 809.0859,311.2617 805.7412,316.2163 802.0,321.0 797.5791,325.7407 792.7891,330.332 787.8271,334.7161 782.75,338.875 777.6572,342.7625 772.6172,346.4062 767.6748,349.8164 763.0,353.0 758.8486,355.9805 755.0078,358.7188 751.3518,361.1846 747.875,363.375 744.5447,365.292 741.3164,366.8906 738.1802,368.1504 735.0,369.0 731.5425,369.3184 728.0898,369.2344 724.8359,368.8254 721.8125,368.125 719.0586,367.196 716.7461,366.0273 714.9565,364.6245 714.0,363.0 714.3911,361.1528 715.5977,359.1289 717.3049,356.9595 719.375,354.6875 721.5408,352.3765 723.875,349.9961 726.3672,347.5542 729.0,345.0 731.8359,342.2153 734.625,339.4102 737.1426,336.751 739.375,334.25 741.3887,331.8857 742.7188,329.9258 743.1523,328.4907 742.0,328.0 738.082,329.1694 732.6562,331.2305 726.5068,333.6975 719.875,336.4375 713.2041,339.2107 706.6719,341.8516 700.4199,344.2549 695.0,346.0 691.2051,346.4482 688.4531,346.1484 686.4736,345.4031 685.125,344.3125 684.0186,343.1223 683.625,341.6992 684.125,340.0015 686.0,338.0 690.1719,335.5806 695.5,332.957 701.2041,330.2983 707.125,327.625 713.0537,324.9282 718.3594,322.4648 722.7246,320.355 725.0,319.0 723.3066,319.0786 719.5156,319.8789 714.7847,320.9399 709.375,322.1875 703.813,323.4897 698.4609,324.5586 693.5186,325.2612 690.0,325.0 689.4893,322.7896 690.4766,319.6602 692.061,316.2512 694.0,312.75 695.771,309.5085 697.3125,306.6719 698.5547,304.3496 699.0,303.0 697.9453,303.291 695.9375,304.7031 693.2695,306.958 690.0,310.0 686.3242,313.6436 682.125,318.0 677.3438,323.125 672.0,329.0" stroke="#D9F5FF" stroke-width="5" /><polygon fill="#D9F5FF" opacity="100" points="170.0,1000.0 282.0,828.0 334.0,752.0 436.0,657.0 532.0,520.0 554.0,535.0 523.0,643.0 432.0,689.0 333.0,794.0 206.0,1000.0" stroke="#D9F5FF" stroke-width="1" /><polygon fill="#D9F5FF" opacity="100" points="442.0,678.0 530.0,637.0 494.0,807.0 448.0,938.0 433.0,905.0 479.0,767.0" stroke="#D9F5FF" stroke-width="1" /><polygon fill="#D9F5FF" opacity="100" points="526.0,523.0 556.0,540.0 611.0,430.0 848.0,357.0 890.0,298.0 890.0,2.0 815.0,84.0 848.0,125.0 846.0,152.0 849.0,190.0 836.0,246.0 817.0,298.0 797.0,326.0 756.0,360.0 728.0,370.0 713.0,363.0 721.0,352.0 741.0,330.0 693.0,346.0 686.0,345.0 684.0,340.0 719.0,321.0 690.0,326.0 696.0,305.0 678.0,321.0 659.0,312.0" stroke="#D9F5FF" stroke-width="1" /><polygon fill="#D9F5FF" opacity="100" points="657.0,316.0 763.0,160.0 827.0,91.0 851.0,122.0 832.0,131.0 803.0,153.0 776.0,184.0 727.0,249.0 715.0,258.0 705.0,268.0 675.0,322.0" stroke="#D9F5FF" stroke-width="1" /><polyline fill="none" opacity="100" points="832.0,-10.0 900.0,-10.0 900.0,314.0" stroke="#FFF" stroke-width="20" /><polyline fill="none" opacity="100" points="151.0,1010.0 430.0,1010.0" stroke="#FFF" stroke-width="20" /><polyline fill="none" opacity="100" points="520.0,512.0 569.0,539.0" stroke="#FFF" stroke-width="4" /><text fill="#040464" font-family="Arial" font-size="30" font-weight="bold" opacity="100" x="55.5" y="47.0">ВОЛГОГРАД</text><text fill="#040464" font-family="Arial" font-size="20" font-weight="bold" opacity="100" x="57.0" y="68.0">схема скоростного трамвая</text></g></svg>