<?xml version="1.0" encoding="utf-8" ?>
<svg baseProfile="tiny" height="775px" version="1.2" width="1210px" xmlns="http://www.w3.org/2000/svg" xmlns:ev="http://www.w3.org/2001/xml-events" xmlns:xlink="http://www.w3.org/1999/xlink"><defs /><g><polygon fill="#FFF7E5" opacity="100" points="0.0,0.0 0.0,775.0 1210.0,775.0 1210.0,0.0" stroke="#FFF7E5" stroke-width="1" /><text fill="#0404A4" font-family="Arial" font-size="40" font-weight="normal" opacity="100" x="282.0" y="275.0">Toulouse</text><text fill="#0404A4" font-family="Arial" font-size="10" font-weight="normal" opacity="100" x="284.5" y="288.0">(Attention! All time intervals in this version equal 2 minutes)</text><text fill="#0404A4" font-family="Arial" font-size="15" font-weight="normal" opacity="100" x="295.75" y="559.5">Les Pradettes 3</text><text fill="#0404A4" font-family="Arial" font-size="15" font-weight="normal" opacity="100" x="392.75" y="547.5">Cepiere 3</text><text fill="#0404A4" font-family="Arial" font-size="15" font-weight="normal" opacity="100" x="315.75" y="334.5">Casselardit 3</text><text fill="#0404A4" font-family="Arial" font-size="15" font-weight="normal" opacity="100" x="563.75" y="321.5">Bourrassol 3</text><text fill="#0404A4" font-family="Arial" font-size="15" font-weight="normal" opacity="100" x="432.75" y="567.5">Bagatelle 3</text><text fill="#0404A4" font-family="Arial" font-size="15" font-weight="normal" opacity="100" x="344.75" y="595.5">Mirail 3</text><text fill="#0404A4" font-family="Arial" font-size="15" font-weight="normal" opacity="100" x="402.75" y="670.5">Reynerie 3</text><text fill="#0404A4" font-family="Arial" font-size="15" font-weight="normal" opacity="100" x="468.75" y="679.5">Papus 3</text><text fill="#0404A4" font-family="Arial" font-size="15" font-weight="normal" opacity="100" x="505.75" y="615.5">Fontaine Lestang 3</text><text fill="#0404A4" font-family="Arial" font-size="15" font-weight="normal" opacity="100" x="555.75" y="538.5">Croix de Pierre 3</text><text fill="#0404A4" font-family="Arial" font-size="15" font-weight="normal" opacity="100" x="594.75" y="459.5">St Cyprien 3</text><text fill="#0404A4" font-family="Arial" font-size="15" font-weight="normal" opacity="100" x="740.75" y="232.5">St Sernin 3</text><text fill="#0404A4" font-family="Arial" font-size="15" font-weight="normal" opacity="100" x="928.75" y="74.5">Bonnefoy 3</text><text fill="#0404A4" font-family="Arial" font-size="15" font-weight="normal" opacity="100" x="1025.75" y="171.5">Soupetard 3</text><text fill="#0404A4" font-family="Arial" font-size="15" font-weight="normal" opacity="100" x="1009.75" y="224.5">La Coquille 3</text><text fill="#0404A4" font-family="Arial" font-size="15" font-weight="normal" opacity="100" x="220.75" y="496.5">Lardenne 3</text><polyline fill="none" opacity="100" points="2.0,597.0 4.8516,594.625 7.5312,592.25 10.032,589.8743 12.375,587.5 14.6028,585.1316 16.6445,582.7617 18.479,580.3882 20.0,578.0 21.0093,575.5767 21.7617,573.1445 22.4333,570.7156 23.0625,568.3125 23.6975,565.9778 24.4844,563.6641 25.498,561.3604 27.0,559.0 29.416,556.4521 32.3281,553.8984 35.4814,551.4734 38.8125,549.1875 42.1904,547.0364 45.5625,545.1992 48.8945,543.7554 52.0,543.0 54.5977,543.436 56.9375,544.5195 59.165,545.9075 61.3125,547.5 63.46,549.1179 65.6094,550.6562 67.7637,552.043 70.0,553.0 72.4316,553.1133 74.9531,552.7188 77.5073,551.9939 80.0625,551.0 82.5513,549.8987 85.0234,548.5664 87.4912,546.9575 90.0,545.0 92.6494,542.5308 95.2891,539.7773 97.8064,536.9028 100.1875,533.9375 102.4299,530.9097 104.3867,527.9883 105.9897,525.2563 107.0,523.0 107.0142,521.6929 106.457,520.8555 105.5911,520.1851 104.5,519.625 103.3406,519.0649 102.1562,518.3633 100.9883,517.4517 100.0,516.0 99.418,513.4741 99.0938,510.418 98.9626,507.1704 99.0,503.8125 99.1174,500.5015 99.4414,497.3477 100.0278,494.4146 101.0,492.0 102.5854,490.5659 104.5273,489.6836 106.6621,489.1021 108.9375,488.75 111.2637,488.4683 113.5898,488.2695 115.8784,488.147 118.0,488.0 119.7661,487.7007 121.3164,487.3242 122.7188,486.8997 124.0,486.4375 125.2383,485.9851 126.3477,485.4609 127.2935,484.8271 128.0,484.0 128.3198,482.8291 128.4336,481.4766 128.4646,480.0496 128.4375,478.5625 128.385,477.0383 128.4062,475.5586 128.5508,474.1597 129.0,473.0 130.0508,472.3442 131.4062,471.9102 132.8845,471.519 134.4375,471.125 135.969,470.645 137.4414,470.0117 138.8286,469.1851 140.0,468.0 140.7612,466.2017 141.2773,464.0195 141.634,461.5862 141.875,458.9375 142.1023,456.158 142.2266,453.2344 142.2197,450.166 142.0,447.0 141.3975,443.7949 140.6484,440.5156 139.9258,437.1401 139.25,433.6875 138.6289,430.1841 138.2734,426.5859 138.2803,422.8857 139.0,419.0 141.0244,414.7705 143.7266,410.4141 146.7043,406.0815 149.875,401.8125 153.0906,397.6567 156.1445,393.7344 158.9321,390.1113 161.0,387.0 161.6187,384.7402 161.5117,383.0156 161.1265,381.6443 160.5625,380.5625 160.022,379.6311 159.6445,378.8945 159.5063,378.3579 160.0,378.0 161.7397,377.8257 164.1367,377.7617 166.8367,377.7383 169.75,377.75 172.6848,377.8203 175.5938,377.793 178.4414,377.5952 181.0,377.0 182.9336,375.6196 184.5312,373.8633 185.9551,371.9937 187.25,370.0625 188.5293,368.1626 189.75,366.4336 190.8984,364.9448 192.0,364.0 193.0703,364.0903 194.125,364.7227 195.1897,365.5972 196.25,366.625 197.2615,367.6294 198.3398,368.5742 199.5308,369.4233 201.0,370.0 203.0435,370.0571 205.3164,369.7695 207.583,369.218 209.8125,368.4375 211.9678,367.5339 213.832,366.375 215.3071,364.9062 216.0,363.0 215.2515,360.4141 213.7617,357.4375 211.9778,354.2607 210.0,350.9375 208.0085,347.5518 206.2109,344.2031 204.7178,340.9512 204.0,338.0 204.8057,335.666 206.4141,333.6719 208.3938,331.8591 210.625,330.1875 212.8542,328.5569 215.0508,326.9883 217.1782,325.4868 219.0,324.0 220.1851,322.4624 220.9805,320.918 221.5073,319.3899 221.8125,317.875 222.0317,316.3777 222.0195,314.8984 221.7173,313.4326 221.0,312.0 219.6226,310.6377 217.8867,309.2891 215.9915,307.9084 214.0,306.5 212.0105,305.0818 210.1172,303.5664 208.3818,301.9185 207.0,300.0 206.2666,297.5698 205.9453,294.9023 205.9148,292.1804 206.125,289.4375 206.4465,286.7239 206.9961,284.1719 207.8159,281.8457 209.0,280.0 210.7427,279.0527 212.7852,278.5781 214.9458,278.3115 217.1875,278.1875 219.4683,278.0791 221.6211,277.9062 223.562,277.6211 225.0,277.0 225.4575,275.6992 225.4102,274.0312 225.1516,272.1877 224.75,270.1875 224.3425,268.0837 224.0156,265.9648 223.8184,263.8628 224.0,262.0 224.9473,260.7505 226.2969,259.6914 227.8264,258.5273 229.5,257.25 231.2341,255.8672 232.9492,254.0352 234.6108,251.6138 236.0,248.0 236.7603,242.1558 237.2695,235.2461 237.7761,228.042 238.3125,220.6875 238.9329,213.4072 239.8203,206.7305 241.0557,200.9155 243.0,197.0 246.2568,196.6821 250.1797,198.2383 254.3547,200.5925 258.6875,203.5 263.0105,206.4836 267.1289,209.1641 270.938,211.333 274.0,212.0 275.6206,209.6123 276.4648,205.6484 276.9343,201.0005 277.125,195.875 277.2434,190.7222 277.3594,185.7031 277.5176,180.916 278.0,177.0 279.2324,174.9277 280.8281,173.7969 282.5623,173.074 284.375,172.625 286.1272,172.1467 287.832,171.6133 289.4868,170.9946 291.0,170.0 292.2515,168.2124 293.3242,165.9805 294.2534,163.4932 295.0625,160.8125 295.8169,158.0967 296.4258,155.2461 296.854,152.2261 297.0,149.0 296.6733,145.4653 296.1055,141.7852 295.4509,138.0859 294.75,134.375 294.0627,130.6367 293.4844,127.0664 293.0684,123.7505 293.0,121.0 293.5723,119.3472 294.5156,118.2148 295.6729,117.2239 297.0,116.3125 298.3975,115.3796 299.875,114.1641 301.4297,112.5439 303.0,110.0 304.5078,105.6748 306.0,100.4609 307.4978,94.9209 309.0,89.1875 310.5198,83.5088 312.0352,78.1016 313.5317,73.0869 315.0,69.0 316.4253,66.6787 317.8086,65.3359 319.1467,64.5056 320.4375,64.0625 321.6833,63.7307 322.8672,63.4961 323.9795,63.3315 325.0,63.0 325.8955,62.1724 326.6953,61.0977 327.4089,59.9106 328.0625,58.625 328.7102,57.3081 329.2773,55.9336 329.7417,54.48 330.0,53.0 329.856,51.5786 329.5664,50.0977 329.3035,48.4766 329.125,46.6875 329.1165,44.6914 329.3672,42.4414 329.9365,39.9067 331.0,37.0 332.8213,33.5894 335.1953,29.7773 338.0122,25.6189 341.25,21.125 344.8354,16.3323 348.8125,11.2188 353.2031,5.7734 358.0,0.0" stroke="#4FC3DC" stroke-width="10" /><polyline fill="none" opacity="100" points="1082.0,775.0 1083.5391,767.3828 1084.7812,760.1562 1085.7183,753.3242 1086.375,746.875 1086.8013,740.7852 1086.9141,735.0938 1086.6885,729.8125 1086.0,725.0 1084.6162,720.7656 1082.8359,716.9688 1080.8657,713.5186 1078.75,710.375 1076.5444,707.4736 1074.4219,704.7969 1072.4707,702.3223 1071.0,700.0 1070.5137,697.7715 1070.5156,695.6406 1070.7026,693.592 1071.0,691.625 1071.2544,689.7654 1071.3984,687.918 1071.3896,686.0366 1071.0,684.0 1069.8838,681.6001 1068.3516,679.0508 1066.5813,676.4932 1064.625,673.9375 1062.6042,671.4014 1060.4883,669.0039 1058.272,666.7935 1056.0,665.0 1053.7163,664.0151 1051.418,663.4023 1049.1167,662.874 1046.8125,662.375 1044.4849,661.8174 1042.207,661.0117 1040.0142,659.8647 1038.0,658.0 1036.3257,654.8032 1034.8242,650.8945 1033.3896,646.6567 1032.0,642.1875 1030.6143,637.6792 1029.1836,633.2305 1027.6831,628.9038 1026.0,625.0 1023.9536,621.9751 1021.7227,619.4258 1019.418,617.1321 1017.0625,615.0 1014.7031,612.8152 1012.3789,610.7188 1010.1099,608.75 1008.0,607.0 1006.2144,605.6875 1004.5898,604.4688 1003.0239,603.0852 1001.5,601.5 999.9839,599.7019 998.4258,597.3555 996.8032,594.3022 995.0,590.0 992.8257,583.5376 990.4805,575.8633 988.0952,567.5698 985.6875,558.8125 983.2876,549.8833 980.9883,540.9648 978.8306,532.1714 977.0,524.0 975.8062,517.2075 974.918,511.1289 974.1208,505.3748 973.375,499.875 972.6116,494.4436 971.7031,489.0391 970.5879,483.6455 969.0,478.0 966.5059,471.6904 963.5469,465.1484 960.3955,458.6487 957.125,452.25 953.8779,446.0603 950.7188,440.207 947.6914,434.7563 945.0,430.0 942.9492,426.4038 941.2812,423.5117 939.8523,421.0479 938.625,418.9375 937.5012,417.0264 936.5195,415.2773 935.6938,413.6597 935.0,412.0 934.4194,410.0474 933.9492,408.0039 933.5803,406.0044 933.3125,404.0 933.156,401.9175 933.0703,399.9648 933.0361,398.1987 933.0,397.0 932.8701,397.063 932.7422,397.5039 932.6802,397.6912 932.6875,397.5625 932.769,397.0881 932.9844,395.5391 933.3574,392.5908 934.0,387.0 935.1035,376.6592 936.4531,363.8359 937.9111,349.9741 939.4375,335.4375 940.9639,320.8735 942.4375,306.875 943.8242,293.7852 945.0,283.0 945.7773,276.6914 946.3125,272.875 946.6958,270.3984 946.9375,268.9375 947.0737,267.75 947.1172,266.9375 947.0693,266.4922 947.0,266.0 947.0244,264.9531 947.0078,263.625 946.8577,262.1145 946.5625,260.4375 946.1091,258.7429 945.4102,256.7305 944.4263,254.2476 943.0,251.0 940.8667,246.4751 938.3086,241.1758 935.501,235.3977 932.5,229.25 929.4092,222.9558 926.2617,216.4688 923.0874,209.7969 920.0,203.0 917.1587,196.1094 914.457,189.2188 911.8489,182.4253 909.3125,175.75 906.7781,169.1724 904.3438,162.9141 902.0508,157.0869 900.0,152.0 898.3789,148.1709 896.9688,145.0859 895.625,142.4297 894.3125,140.125 892.9766,138.0156 891.5312,136.0234 889.9297,134.1006 888.0,132.0 885.4688,129.3447 882.5938,126.4766 879.5271,123.5947 876.3125,120.75 873.0452,118.0615 869.7227,115.5234 866.3521,113.1396 863.0,111.0 859.7534,109.2275 856.5586,107.7266 853.3918,106.4507 850.25,105.375 847.1101,104.436 844.0078,103.7031 840.9619,103.2012 838.0,103.0 835.1709,103.2363 832.4297,103.7344 829.7537,104.3784 827.125,105.125 824.5061,105.9067 821.9336,106.6797 819.4175,107.4092 817.0,108.0 814.7661,108.3174 812.5977,108.4453 810.4109,108.4148 808.1875,108.25 805.9075,108.0247 803.4922,107.6211 800.9014,106.9917 798.0,106.0 794.5674,104.395 790.8203,102.4727 786.8914,100.4241 782.8125,98.3125 778.6497,96.2419 774.4336,94.2812 770.1831,92.4805 766.0,91.0 762.0396,90.0742 758.1602,89.5312 754.2832,89.2854 750.375,89.3125 746.3613,89.533 742.2852,90.0273 738.1567,90.8315 734.0,92.0 729.8784,93.6411 725.6836,95.6289 721.3413,97.8862 716.8125,100.375 712.0415,103.0278 707.0039,105.8555 701.6724,108.8491 696.0,112.0 689.9331,115.3188 683.4648,118.7383 676.5754,122.2026 669.25,125.6875 661.489,129.1724 653.2266,132.5898 644.4229,135.8979 635.0,139.0 624.835,141.7466 614.0234,144.2539 602.6167,146.5842 590.625,148.75 578.0825,150.7927 564.9688,152.6875 551.2734,154.4219 537.0,156.0" stroke="#4FC3DC" stroke-width="12" /><polyline fill="none" opacity="100" points="557.0,1.0 531.0,173.0 699.0,253.0 700.0,272.0" stroke="#4FC3DC" stroke-width="12" /><polyline fill="none" opacity="100" points="674.0,775.0 672.4219,768.1797 670.9375,761.5938 669.5525,755.2515 668.25,749.125 666.9963,743.1587 665.8477,737.4453 664.8208,732.0127 664.0,727.0 663.5425,722.667 663.2461,718.6797 662.9688,714.803 662.6875,711.0 662.3789,707.2341 661.9023,703.2695 661.1909,698.9946 660.0,694.0 657.9224,687.603 655.3789,680.5117 652.6245,673.1802 649.75,665.6875 646.9302,658.1792 644.168,650.9102 641.4897,644.0005 639.0,638.0 636.8188,633.8081 634.9258,630.4961 633.3311,627.4932 632.0625,624.625 631.126,621.5576 630.5977,618.1992 630.5317,614.4663 631.0,610.0 632.105,604.2954 633.8086,597.707 636.1284,590.386 639.0,582.4375 642.2622,574.1472 646.2227,565.125 650.9927,555.2227 657.0,544.0 665.0269,530.6289 674.1211,516.125 683.6526,501.1689 693.4375,485.9375 703.1931,470.6904 712.5859,455.8594 721.4131,441.6855 729.0,429.0 734.3057,419.1191 738.2266,410.8281 741.2734,403.4055 743.5625,396.6875 745.3984,390.2957 746.7266,384.1523 747.5283,378.2065 748.0,372.0 748.4092,364.8442 748.5234,357.3789 748.2095,349.9871 747.4375,342.75 746.1304,335.8547 744.2969,329.3672 741.9395,323.3232 739.0,318.0 735.3965,313.8252 731.2031,310.3828 726.4539,307.4297 721.1875,304.875 715.4856,302.5312 709.2539,300.4453 702.4653,298.6143 695.0,297.0 686.6245,295.5967 677.6523,294.3047 668.2947,293.0327 658.625,291.75 648.7502,290.4478 638.7812,288.9688 628.793,287.2266 619.0,285.0 609.7227,281.9297 600.7188,278.3438 591.8586,274.4355 583.125,270.25 574.4441,265.8926 565.8555,261.375 557.3843,256.707 549.0,252.0 540.6587,247.418 532.4258,242.8125 524.3472,238.0947 516.4375,233.25 508.7153,228.2412 501.2148,223.0469 493.9565,217.6582 487.0,212.0 480.438,205.9512 474.1914,199.6406 468.2158,193.1594 462.5,186.5 457.0146,179.6433 451.7695,172.7148 446.7681,165.7612 442.0,159.0 437.4546,152.813 433.1367,146.7539 429.0479,140.5342 425.1875,134.0625 421.5576,127.1885 418.1523,119.8008 414.9683,111.8228 412.0,103.0 409.2388,92.9546 406.6914,81.9805 404.3616,70.2351 402.25,57.75 400.3591,44.6301 398.6875,30.8125 397.2344,16.2656 396.0,1.0" stroke="#4FC3DC" stroke-width="17" /><polyline fill="none" opacity="100" points="728.0,775.0 727.9609,770.2109 727.9688,765.4688 728.03,760.7771 728.125,756.125 728.2141,751.4905 728.3633,746.9102 728.5923,742.395 729.0,738.0 729.771,733.8276 730.668,729.7461 731.5229,725.6624 732.3125,721.5625 733.0161,717.4333 733.457,713.1797 733.5532,708.7568 733.0,704.0 731.2866,698.6338 728.9492,692.9453 726.3157,687.1199 723.5,681.1875 720.7175,675.2024 717.9922,669.2773 715.3662,663.4644 713.0,658.0 711.0947,653.2739 709.5703,648.8789 708.4268,644.5586 707.625,640.25 707.0264,635.8359 706.9297,631.2227 707.46,626.356 709.0,621.0 712.2354,614.7886 716.3828,608.0586 720.9265,601.0007 725.75,593.6875 730.6692,586.2786 735.3711,578.7031 739.6909,570.9473 743.0,563.0 744.2896,554.7949 744.5352,546.4844 744.3298,538.186 743.8125,529.9375 743.2776,521.771 742.8516,513.8203 742.6104,506.1611 743.0,499.0 744.7021,492.667 747.0859,486.8672 749.7859,481.4314 752.6875,476.3125 755.5364,471.3987 758.3867,466.7148 761.2397,462.2651 764.0,458.0 766.5767,453.8638 768.957,449.8789 771.0942,446.0583 773.0,442.375 774.7495,438.7913 776.1055,435.3516 776.9624,432.0596 777.0,429.0 775.6587,426.3389 773.5508,423.8359 771.0671,421.313 768.3125,418.75 765.47,416.144 762.6953,413.2656 760.083,410.0098 758.0,406.0 757.0107,400.5996 756.6172,394.4844 756.5447,388.0876 756.6875,381.5 756.801,374.8831 757.0273,368.457 757.4058,362.3345 758.0,357.0 758.9888,353.2319 760.0664,350.2617 761.0002,347.613 761.75,345.1875 762.2986,342.7834 762.3438,340.2344 761.7383,337.4551 760.0,334.0 756.3242,329.1621 751.5312,323.6406 746.1218,317.8596 740.25,311.9375 734.2161,306.115 728.082,300.4492 721.9126,294.9897 716.0,290.0 710.7476,285.8579 705.8867,282.2695 701.2957,279.0823 696.9375,276.25 692.6711,273.6384 688.6875,271.3594 685.0742,269.459 682.0,268.0 679.7773,267.1191 678.0625,266.6406 676.6401,266.4497 675.4375,266.5 674.3247,266.7183 673.2578,267.0703 672.1963,267.5244 671.0,268.0 669.4756,268.3896 667.7422,268.7422 665.856,269.0735 663.8125,269.375 661.6401,269.6589 659.2969,269.8789 656.752,270.0044 654.0,270.0 651.0371,269.812 647.8281,269.4648 644.3333,268.9634 640.5625,268.3125 636.5554,267.5366 632.1836,266.582 627.394,265.4243 622.0,264.0 615.6724,262.1968 608.7852,260.1367 601.5762,257.8965 594.125,255.5 586.5684,252.9902 578.9727,250.3867 571.3911,247.7046 564.0,245.0 557.0503,242.354 550.3711,239.707 543.8801,237.0276 537.5625,234.3125 531.3484,231.5447 525.3203,228.7344 519.5205,225.8887 514.0,223.0 508.8545,220.0566 503.9922,217.0781 499.3582,214.0784 494.9375,211.0625 490.6985,208.0369 486.6367,205.0117 482.7476,201.9937 479.0,199.0 475.3501,196.0571 471.832,193.1445 468.4641,190.2512 465.25,187.375 462.2019,184.5085 459.3125,181.6562 456.5781,178.8203 454.0,176.0" stroke="#4FC3DC" stroke-width="12" /><polyline fill="none" opacity="100" points="739.0,450.0 742.6953,451.9766 745.9062,454.0312 748.626,456.1758 750.875,458.375 752.6943,460.5586 754.0156,462.8438 754.8184,465.2656 755.0,468.0 754.3691,471.375 753.1719,474.9688 751.5637,478.4922 749.625,481.875 747.489,485.0234 745.1523,487.7188 742.644,489.8438 740.0,491.0 737.2271,490.5469 734.4414,489.0938 731.7524,487.0005 729.1875,484.375 726.7397,481.4487 724.6211,478.2109 722.9409,474.6787 722.0,471.0 722.2974,467.3604 723.3477,463.6641 724.8643,459.8735 726.75,456.0 728.8037,452.021 731.0508,448.0 733.479,443.9805 736.0,440.0 738.5249,436.1133 741.043,432.3125 743.5173,428.6206 745.9375,425.0 748.3323,421.3521 750.5469,417.8828 752.502,414.6689 754.0,412.0 754.709,410.4014 754.9531,409.2422 754.9377,408.0906 754.6875,406.875 754.2556,405.5051 753.7617,403.6055 753.2554,400.9976 753.0,397.0 753.436,390.4829 754.082,382.6133 754.6221,374.1155 755.0,365.1875 755.124,356.2068 754.7852,347.3594 753.8833,338.7715 752.0,331.0 748.4487,324.877 743.9336,319.7031 738.8862,315.0869 733.4375,310.9375 727.8403,307.0068 722.1602,303.375 716.4575,300.0742 711.0,297.0 706.1636,294.0273 701.6836,291.25 697.4348,288.7214 693.375,286.4375 689.364,284.4055 685.5703,282.6445 682.0674,281.1548 679.0,280.0 676.6436,279.2944 674.6797,278.8867 672.9111,278.6797 671.25,278.625 669.542,278.6445 667.7891,278.7305 665.9619,278.8608 664.0,279.0 661.8584,279.1196 659.4609,279.1758 656.73,279.123 653.625,278.9375 650.1255,278.6074 646.0938,278.0508 641.4453,277.2173 636.0,276.0 629.4766,274.2319 622.0938,272.043 613.9688,269.5027 605.125,266.625 595.6406,263.4563 585.4688,259.9688 574.5859,256.1484 563.0,252.0" stroke="#4FC3DC" stroke-width="17" /><polyline fill="none" opacity="100" points="513.0,167.0 515.4219,166.2188 517.6875,165.625 519.8003,165.2214 521.75,165.0 523.5161,164.9446 525.1328,165.082 526.6104,165.4204 528.0,166.0 529.3975,166.896 530.6797,168.0117 531.7646,169.2827 532.625,170.6875 533.2197,172.1938 533.5078,173.7695 533.4619,175.3931 533.0,177.0 531.999,178.4937 530.5547,179.9492 528.7183,181.407 526.5,182.875 523.9341,184.3801 521.0,185.9062 517.6875,187.4453 514.0,189.0" stroke="#4FC3DC" stroke-width="17" /><polyline fill="none" opacity="100" points="378.0,676.0 375.625,676.4375 373.5,677.0 371.625,677.6875 370.0,678.5 368.625,679.4375 367.5,680.5 366.625,681.6875 366.0,683.0 365.625,684.4375 365.5,686.0 365.625,687.6875 366.0,689.5 366.625,691.4375 367.5,693.5 368.625,695.6875 370.0,698.0" stroke="#4FC3DC" stroke-width="17" /><polyline fill="none" opacity="100" points="2.0,597.0 4.8516,594.625 7.5312,592.25 10.032,589.8743 12.375,587.5 14.6028,585.1316 16.6445,582.7617 18.479,580.3882 20.0,578.0 21.0093,575.5767 21.7617,573.1445 22.4333,570.7156 23.0625,568.3125 23.6975,565.9778 24.4844,563.6641 25.498,561.3604 27.0,559.0 29.416,556.4521 32.3281,553.8984 35.4814,551.4734 38.8125,549.1875 42.1904,547.0364 45.5625,545.1992 48.8945,543.7554 52.0,543.0 54.5977,543.436 56.9375,544.5195 59.165,545.9075 61.3125,547.5 63.46,549.1179 65.6094,550.6562 67.7637,552.043 70.0,553.0 72.4316,553.1133 74.9531,552.7188 77.5073,551.9939 80.0625,551.0 82.5513,549.8987 85.0234,548.5664 87.4912,546.9575 90.0,545.0 92.6494,542.5308 95.2891,539.7773 97.8064,536.9028 100.1875,533.9375 102.4299,530.9097 104.3867,527.9883 105.9897,525.2563 107.0,523.0 107.0142,521.6929 106.457,520.8555 105.5911,520.1851 104.5,519.625 103.3406,519.0649 102.1562,518.3633 100.9883,517.4517 100.0,516.0 99.418,513.4741 99.0938,510.418 98.9626,507.1704 99.0,503.8125 99.1174,500.5015 99.4414,497.3477 100.0278,494.4146 101.0,492.0 102.5854,490.5659 104.5273,489.6836 106.6621,489.1021 108.9375,488.75 111.2637,488.4683 113.5898,488.2695 115.8784,488.147 118.0,488.0 119.7661,487.7007 121.3164,487.3242 122.7188,486.8997 124.0,486.4375 125.2383,485.9851 126.3477,485.4609 127.2935,484.8271 128.0,484.0 128.3198,482.8291 128.4336,481.4766 128.4646,480.0496 128.4375,478.5625 128.385,477.0383 128.4062,475.5586 128.5508,474.1597 129.0,473.0 130.0508,472.3442 131.4062,471.9102 132.8845,471.519 134.4375,471.125 135.969,470.645 137.4414,470.0117 138.8286,469.1851 140.0,468.0 140.7612,466.2017 141.2773,464.0195 141.634,461.5862 141.875,458.9375 142.1023,456.158 142.2266,453.2344 142.2197,450.166 142.0,447.0 141.3975,443.7949 140.6484,440.5156 139.9258,437.1401 139.25,433.6875 138.6289,430.1841 138.2734,426.5859 138.2803,422.8857 139.0,419.0 141.0244,414.7705 143.7266,410.4141 146.7043,406.0815 149.875,401.8125 153.0906,397.6567 156.1445,393.7344 158.9321,390.1113 161.0,387.0 161.6187,384.7402 161.5117,383.0156 161.1265,381.6443 160.5625,380.5625 160.022,379.6311 159.6445,378.8945 159.5063,378.3579 160.0,378.0 161.7397,377.8257 164.1367,377.7617 166.8367,377.7383 169.75,377.75 172.6848,377.8203 175.5938,377.793 178.4414,377.5952 181.0,377.0 182.9336,375.6196 184.5312,373.8633 185.9551,371.9937 187.25,370.0625 188.5293,368.1626 189.75,366.4336 190.8984,364.9448 192.0,364.0 193.0703,364.0903 194.125,364.7227 195.1897,365.5972 196.25,366.625 197.2615,367.6294 198.3398,368.5742 199.5308,369.4233 201.0,370.0 203.0435,370.0571 205.3164,369.7695 207.583,369.218 209.8125,368.4375 211.9678,367.5339 213.832,366.375 215.3071,364.9062 216.0,363.0 215.2515,360.4141 213.7617,357.4375 211.9778,354.2607 210.0,350.9375 208.0085,347.5518 206.2109,344.2031 204.7178,340.9512 204.0,338.0 204.8057,335.666 206.4141,333.6719 208.3938,331.8591 210.625,330.1875 212.8542,328.5569 215.0508,326.9883 217.1782,325.4868 219.0,324.0 220.1851,322.4624 220.9805,320.918 221.5073,319.3899 221.8125,317.875 222.0317,316.3777 222.0195,314.8984 221.7173,313.4326 221.0,312.0 219.6226,310.6377 217.8867,309.2891 215.9915,307.9084 214.0,306.5 212.0105,305.0818 210.1172,303.5664 208.3818,301.9185 207.0,300.0 206.2666,297.5698 205.9453,294.9023 205.9148,292.1804 206.125,289.4375 206.4465,286.7239 206.9961,284.1719 207.8159,281.8457 209.0,280.0 210.7427,279.0527 212.7852,278.5781 214.9458,278.3115 217.1875,278.1875 219.4683,278.0791 221.6211,277.9062 223.562,277.6211 225.0,277.0 225.4575,275.6992 225.4102,274.0312 225.1516,272.1877 224.75,270.1875 224.3425,268.0837 224.0156,265.9648 223.8184,263.8628 224.0,262.0 224.9473,260.7505 226.2969,259.6914 227.8264,258.5273 229.5,257.25 231.2341,255.8672 232.9492,254.0352 234.6108,251.6138 236.0,248.0 236.7603,242.1558 237.2695,235.2461 237.7761,228.042 238.3125,220.6875 238.9329,213.4072 239.8203,206.7305 241.0557,200.9155 243.0,197.0 246.2568,196.6821 250.1797,198.2383 254.3547,200.5925 258.6875,203.5 263.0105,206.4836 267.1289,209.1641 270.938,211.333 274.0,212.0 275.6206,209.6123 276.4648,205.6484 276.9343,201.0005 277.125,195.875 277.2434,190.7222 277.3594,185.7031 277.5176,180.916 278.0,177.0 279.2324,174.9277 280.8281,173.7969 282.5623,173.074 284.375,172.625 286.1272,172.1467 287.832,171.6133 289.4868,170.9946 291.0,170.0 292.2515,168.2124 293.3242,165.9805 294.2534,163.4932 295.0625,160.8125 295.8169,158.0967 296.4258,155.2461 296.854,152.2261 297.0,149.0 296.6733,145.4653 296.1055,141.7852 295.4509,138.0859 294.75,134.375 294.0627,130.6367 293.4844,127.0664 293.0684,123.7505 293.0,121.0 293.5723,119.3472 294.5156,118.2148 295.6729,117.2239 297.0,116.3125 298.3975,115.3796 299.875,114.1641 301.4297,112.5439 303.0,110.0 304.5078,105.6748 306.0,100.4609 307.4978,94.9209 309.0,89.1875 310.5198,83.5088 312.0352,78.1016 313.5317,73.0869 315.0,69.0 316.4253,66.6787 317.8086,65.3359 319.1467,64.5056 320.4375,64.0625 321.6833,63.7307 322.8672,63.4961 323.9795,63.3315 325.0,63.0 325.8955,62.1724 326.6953,61.0977 327.4089,59.9106 328.0625,58.625 328.7102,57.3081 329.2773,55.9336 329.7417,54.48 330.0,53.0 329.856,51.5786 329.5664,50.0977 329.3035,48.4766 329.125,46.6875 329.1165,44.6914 329.3672,42.4414 329.9365,39.9067 331.0,37.0 332.8213,33.5894 335.1953,29.7773 338.0122,25.6189 341.25,21.125 344.8354,16.3323 348.8125,11.2188 353.2031,5.7734 358.0,0.0" stroke="#DBE8EB" stroke-width="8" /><polyline fill="none" opacity="100" points="1082.0,775.0 1083.5391,767.3828 1084.7812,760.1562 1085.7183,753.3242 1086.375,746.875 1086.8013,740.7852 1086.9141,735.0938 1086.6885,729.8125 1086.0,725.0 1084.6162,720.7656 1082.8359,716.9688 1080.8657,713.5186 1078.75,710.375 1076.5444,707.4736 1074.4219,704.7969 1072.4707,702.3223 1071.0,700.0 1070.5137,697.7715 1070.5156,695.6406 1070.7026,693.592 1071.0,691.625 1071.2544,689.7654 1071.3984,687.918 1071.3896,686.0366 1071.0,684.0 1069.8838,681.6001 1068.3516,679.0508 1066.5813,676.4932 1064.625,673.9375 1062.6042,671.4014 1060.4883,669.0039 1058.272,666.7935 1056.0,665.0 1053.7163,664.0151 1051.418,663.4023 1049.1167,662.874 1046.8125,662.375 1044.4849,661.8174 1042.207,661.0117 1040.0142,659.8647 1038.0,658.0 1036.3257,654.8032 1034.8242,650.8945 1033.3896,646.6567 1032.0,642.1875 1030.6143,637.6792 1029.1836,633.2305 1027.6831,628.9038 1026.0,625.0 1023.9536,621.9751 1021.7227,619.4258 1019.418,617.1321 1017.0625,615.0 1014.7031,612.8152 1012.3789,610.7188 1010.1099,608.75 1008.0,607.0 1006.2144,605.6875 1004.5898,604.4688 1003.0239,603.0852 1001.5,601.5 999.9839,599.7019 998.4258,597.3555 996.8032,594.3022 995.0,590.0 992.8257,583.5376 990.4805,575.8633 988.0952,567.5698 985.6875,558.8125 983.2876,549.8833 980.9883,540.9648 978.8306,532.1714 977.0,524.0 975.8062,517.2075 974.918,511.1289 974.1208,505.3748 973.375,499.875 972.6116,494.4436 971.7031,489.0391 970.5879,483.6455 969.0,478.0 966.5059,471.6904 963.5469,465.1484 960.3955,458.6487 957.125,452.25 953.8779,446.0603 950.7188,440.207 947.6914,434.7563 945.0,430.0 942.9492,426.4038 941.2812,423.5117 939.8523,421.0479 938.625,418.9375 937.5012,417.0264 936.5195,415.2773 935.6938,413.6597 935.0,412.0 934.4194,410.0474 933.9492,408.0039 933.5803,406.0044 933.3125,404.0 933.156,401.9175 933.0703,399.9648 933.0361,398.1987 933.0,397.0 932.8701,397.063 932.7422,397.5039 932.6802,397.6912 932.6875,397.5625 932.769,397.0881 932.9844,395.5391 933.3574,392.5908 934.0,387.0 935.1035,376.6592 936.4531,363.8359 937.9111,349.9741 939.4375,335.4375 940.9639,320.8735 942.4375,306.875 943.8242,293.7852 945.0,283.0 945.7773,276.6914 946.3125,272.875 946.6958,270.3984 946.9375,268.9375 947.0737,267.75 947.1172,266.9375 947.0693,266.4922 947.0,266.0 947.0244,264.9531 947.0078,263.625 946.8577,262.1145 946.5625,260.4375 946.1091,258.7429 945.4102,256.7305 944.4263,254.2476 943.0,251.0 940.8667,246.4751 938.3086,241.1758 935.501,235.3977 932.5,229.25 929.4092,222.9558 926.2617,216.4688 923.0874,209.7969 920.0,203.0 917.1587,196.1094 914.457,189.2188 911.8489,182.4253 909.3125,175.75 906.7781,169.1724 904.3438,162.9141 902.0508,157.0869 900.0,152.0 898.3789,148.1709 896.9688,145.0859 895.625,142.4297 894.3125,140.125 892.9766,138.0156 891.5312,136.0234 889.9297,134.1006 888.0,132.0 885.4688,129.3447 882.5938,126.4766 879.5271,123.5947 876.3125,120.75 873.0452,118.0615 869.7227,115.5234 866.3521,113.1396 863.0,111.0 859.7534,109.2275 856.5586,107.7266 853.3918,106.4507 850.25,105.375 847.1101,104.436 844.0078,103.7031 840.9619,103.2012 838.0,103.0 835.1709,103.2363 832.4297,103.7344 829.7537,104.3784 827.125,105.125 824.5061,105.9067 821.9336,106.6797 819.4175,107.4092 817.0,108.0 814.7661,108.3174 812.5977,108.4453 810.4109,108.4148 808.1875,108.25 805.9075,108.0247 803.4922,107.6211 800.9014,106.9917 798.0,106.0 794.5674,104.395 790.8203,102.4727 786.8914,100.4241 782.8125,98.3125 778.6497,96.2419 774.4336,94.2812 770.1831,92.4805 766.0,91.0 762.0396,90.0742 758.1602,89.5312 754.2832,89.2854 750.375,89.3125 746.3613,89.533 742.2852,90.0273 738.1567,90.8315 734.0,92.0 729.8784,93.6411 725.6836,95.6289 721.3413,97.8862 716.8125,100.375 712.0415,103.0278 707.0039,105.8555 701.6724,108.8491 696.0,112.0 689.9331,115.3188 683.4648,118.7383 676.5754,122.2026 669.25,125.6875 661.489,129.1724 653.2266,132.5898 644.4229,135.8979 635.0,139.0 624.835,141.7466 614.0234,144.2539 602.6167,146.5842 590.625,148.75 578.0825,150.7927 564.9688,152.6875 551.2734,154.4219 537.0,156.0" stroke="#DBE8EB" stroke-width="10" /><polyline fill="none" opacity="100" points="557.0,1.0 531.0,173.0 699.0,253.0 700.0,272.0" stroke="#DBE8EB" stroke-width="10" /><polyline fill="none" opacity="100" points="674.0,775.0 672.4219,768.1797 670.9375,761.5938 669.5525,755.2515 668.25,749.125 666.9963,743.1587 665.8477,737.4453 664.8208,732.0127 664.0,727.0 663.5425,722.667 663.2461,718.6797 662.9688,714.803 662.6875,711.0 662.3789,707.2341 661.9023,703.2695 661.1909,698.9946 660.0,694.0 657.9224,687.603 655.3789,680.5117 652.6245,673.1802 649.75,665.6875 646.9302,658.1792 644.168,650.9102 641.4897,644.0005 639.0,638.0 636.8188,633.8081 634.9258,630.4961 633.3311,627.4932 632.0625,624.625 631.126,621.5576 630.5977,618.1992 630.5317,614.4663 631.0,610.0 632.105,604.2954 633.8086,597.707 636.1284,590.386 639.0,582.4375 642.2622,574.1472 646.2227,565.125 650.9927,555.2227 657.0,544.0 665.0269,530.6289 674.1211,516.125 683.6526,501.1689 693.4375,485.9375 703.1931,470.6904 712.5859,455.8594 721.4131,441.6855 729.0,429.0 734.3057,419.1191 738.2266,410.8281 741.2734,403.4055 743.5625,396.6875 745.3984,390.2957 746.7266,384.1523 747.5283,378.2065 748.0,372.0 748.4092,364.8442 748.5234,357.3789 748.2095,349.9871 747.4375,342.75 746.1304,335.8547 744.2969,329.3672 741.9395,323.3232 739.0,318.0 735.3965,313.8252 731.2031,310.3828 726.4539,307.4297 721.1875,304.875 715.4856,302.5312 709.2539,300.4453 702.4653,298.6143 695.0,297.0 686.6245,295.5967 677.6523,294.3047 668.2947,293.0327 658.625,291.75 648.7502,290.4478 638.7812,288.9688 628.793,287.2266 619.0,285.0 609.7227,281.9297 600.7188,278.3438 591.8586,274.4355 583.125,270.25 574.4441,265.8926 565.8555,261.375 557.3843,256.707 549.0,252.0 540.6587,247.418 532.4258,242.8125 524.3472,238.0947 516.4375,233.25 508.7153,228.2412 501.2148,223.0469 493.9565,217.6582 487.0,212.0 480.438,205.9512 474.1914,199.6406 468.2158,193.1594 462.5,186.5 457.0146,179.6433 451.7695,172.7148 446.7681,165.7612 442.0,159.0 437.4546,152.813 433.1367,146.7539 429.0479,140.5342 425.1875,134.0625 421.5576,127.1885 418.1523,119.8008 414.9683,111.8228 412.0,103.0 409.2388,92.9546 406.6914,81.9805 404.3616,70.2351 402.25,57.75 400.3591,44.6301 398.6875,30.8125 397.2344,16.2656 396.0,1.0" stroke="#DBE8EB" stroke-width="15" /><polyline fill="none" opacity="100" points="728.0,775.0 727.9609,770.2109 727.9688,765.4688 728.03,760.7771 728.125,756.125 728.2141,751.4905 728.3633,746.9102 728.5923,742.395 729.0,738.0 729.771,733.8276 730.668,729.7461 731.5229,725.6624 732.3125,721.5625 733.0161,717.4333 733.457,713.1797 733.5532,708.7568 733.0,704.0 731.2866,698.6338 728.9492,692.9453 726.3157,687.1199 723.5,681.1875 720.7175,675.2024 717.9922,669.2773 715.3662,663.4644 713.0,658.0 711.0947,653.2739 709.5703,648.8789 708.4268,644.5586 707.625,640.25 707.0264,635.8359 706.9297,631.2227 707.46,626.356 709.0,621.0 712.2354,614.7886 716.3828,608.0586 720.9265,601.0007 725.75,593.6875 730.6692,586.2786 735.3711,578.7031 739.6909,570.9473 743.0,563.0 744.2896,554.7949 744.5352,546.4844 744.3298,538.186 743.8125,529.9375 743.2776,521.771 742.8516,513.8203 742.6104,506.1611 743.0,499.0 744.7021,492.667 747.0859,486.8672 749.7859,481.4314 752.6875,476.3125 755.5364,471.3987 758.3867,466.7148 761.2397,462.2651 764.0,458.0 766.5767,453.8638 768.957,449.8789 771.0942,446.0583 773.0,442.375 774.7495,438.7913 776.1055,435.3516 776.9624,432.0596 777.0,429.0 775.6587,426.3389 773.5508,423.8359 771.0671,421.313 768.3125,418.75 765.47,416.144 762.6953,413.2656 760.083,410.0098 758.0,406.0 757.0107,400.5996 756.6172,394.4844 756.5447,388.0876 756.6875,381.5 756.801,374.8831 757.0273,368.457 757.4058,362.3345 758.0,357.0 758.9888,353.2319 760.0664,350.2617 761.0002,347.613 761.75,345.1875 762.2986,342.7834 762.3438,340.2344 761.7383,337.4551 760.0,334.0 756.3242,329.1621 751.5312,323.6406 746.1218,317.8596 740.25,311.9375 734.2161,306.115 728.082,300.4492 721.9126,294.9897 716.0,290.0 710.7476,285.8579 705.8867,282.2695 701.2957,279.0823 696.9375,276.25 692.6711,273.6384 688.6875,271.3594 685.0742,269.459 682.0,268.0 679.7773,267.1191 678.0625,266.6406 676.6401,266.4497 675.4375,266.5 674.3247,266.7183 673.2578,267.0703 672.1963,267.5244 671.0,268.0 669.4756,268.3896 667.7422,268.7422 665.856,269.0735 663.8125,269.375 661.6401,269.6589 659.2969,269.8789 656.752,270.0044 654.0,270.0 651.0371,269.812 647.8281,269.4648 644.3333,268.9634 640.5625,268.3125 636.5554,267.5366 632.1836,266.582 627.394,265.4243 622.0,264.0 615.6724,262.1968 608.7852,260.1367 601.5762,257.8965 594.125,255.5 586.5684,252.9902 578.9727,250.3867 571.3911,247.7046 564.0,245.0 557.0503,242.354 550.3711,239.707 543.8801,237.0276 537.5625,234.3125 531.3484,231.5447 525.3203,228.7344 519.5205,225.8887 514.0,223.0 508.8545,220.0566 503.9922,217.0781 499.3582,214.0784 494.9375,211.0625 490.6985,208.0369 486.6367,205.0117 482.7476,201.9937 479.0,199.0 475.3501,196.0571 471.832,193.1445 468.4641,190.2512 465.25,187.375 462.2019,184.5085 459.3125,181.6562 456.5781,178.8203 454.0,176.0" stroke="#DBE8EB" stroke-width="10" /><polyline fill="none" opacity="100" points="739.0,450.0 742.6953,451.9766 745.9062,454.0312 748.626,456.1758 750.875,458.375 752.6943,460.5586 754.0156,462.8438 754.8184,465.2656 755.0,468.0 754.3691,471.375 753.1719,474.9688 751.5637,478.4922 749.625,481.875 747.489,485.0234 745.1523,487.7188 742.644,489.8438 740.0,491.0 737.2271,490.5469 734.4414,489.0938 731.7524,487.0005 729.1875,484.375 726.7397,481.4487 724.6211,478.2109 722.9409,474.6787 722.0,471.0 722.2974,467.3604 723.3477,463.6641 724.8643,459.8735 726.75,456.0 728.8037,452.021 731.0508,448.0 733.479,443.9805 736.0,440.0 738.5249,436.1133 741.043,432.3125 743.5173,428.6206 745.9375,425.0 748.3323,421.3521 750.5469,417.8828 752.502,414.6689 754.0,412.0 754.709,410.4014 754.9531,409.2422 754.9377,408.0906 754.6875,406.875 754.2556,405.5051 753.7617,403.6055 753.2554,400.9976 753.0,397.0 753.436,390.4829 754.082,382.6133 754.6221,374.1155 755.0,365.1875 755.124,356.2068 754.7852,347.3594 753.8833,338.7715 752.0,331.0 748.4487,324.877 743.9336,319.7031 738.8862,315.0869 733.4375,310.9375 727.8403,307.0068 722.1602,303.375 716.4575,300.0742 711.0,297.0 706.1636,294.0273 701.6836,291.25 697.4348,288.7214 693.375,286.4375 689.364,284.4055 685.5703,282.6445 682.0674,281.1548 679.0,280.0 676.6436,279.2944 674.6797,278.8867 672.9111,278.6797 671.25,278.625 669.542,278.6445 667.7891,278.7305 665.9619,278.8608 664.0,279.0 661.8584,279.1196 659.4609,279.1758 656.73,279.123 653.625,278.9375 650.1255,278.6074 646.0938,278.0508 641.4453,277.2173 636.0,276.0 629.4766,274.2319 622.0938,272.043 613.9688,269.5027 605.125,266.625 595.6406,263.4563 585.4688,259.9688 574.5859,256.1484 563.0,252.0" stroke="#DBE8EB" stroke-width="15" /><polyline fill="none" opacity="100" points="513.0,167.0 515.4219,166.2188 517.6875,165.625 519.8003,165.2214 521.75,165.0 523.5161,164.9446 525.1328,165.082 526.6104,165.4204 528.0,166.0 529.3975,166.896 530.6797,168.0117 531.7646,169.2827 532.625,170.6875 533.2197,172.1938 533.5078,173.7695 533.4619,175.3931 533.0,177.0 531.999,178.4937 530.5547,179.9492 528.7183,181.407 526.5,182.875 523.9341,184.3801 521.0,185.9062 517.6875,187.4453 514.0,189.0" stroke="#DBE8EB" stroke-width="15" /><polyline fill="none" opacity="100" points="378.0,676.0 375.625,676.4375 373.5,677.0 371.625,677.6875 370.0,678.5 368.625,679.4375 367.5,680.5 366.625,681.6875 366.0,683.0 365.625,684.4375 365.5,686.0 365.625,687.6875 366.0,689.5 366.625,691.4375 367.5,693.5 368.625,695.6875 370.0,698.0" stroke="#DBE8EB" stroke-width="15" /><polygon fill="#DBE8EB" opacity="100" points="110.0,679.0 121.0,682.0 123.0,686.0 117.0,693.0 111.0,694.0 97.0,693.0 88.0,688.0 84.0,678.0 88.0,675.0 94.0,675.0 98.0,669.0 104.0,671.0 110.0,679.0" stroke="#4FC3DC" stroke-width="1" /><polygon fill="#DBE8EB" opacity="100" points="1.0,729.0 7.0,732.0 11.0,730.0 38.0,691.0 38.0,687.0 38.0,681.0 35.0,675.0 71.0,624.0 50.0,626.0 41.0,628.0 34.0,633.0 36.0,642.0 32.0,650.0 25.0,653.0 20.0,661.0 17.0,669.0 12.0,675.0 3.0,673.0 1.0,673.0" stroke="#4FC3DC" stroke-width="1" /><polygon fill="#E8F1DB" opacity="100" points="385.0,530.0 375.0,469.0 429.0,415.0 450.0,428.0 461.0,453.0 427.0,511.0" stroke="#E8F1DB" stroke-width="1" /><polygon fill="#E8F1DB" opacity="100" points="541.0,564.0 555.0,537.0 572.0,548.0 550.0,569.0" stroke="#E8F1DB" stroke-width="1" /><polygon fill="#E8F1DB" opacity="100" points="646.0,590.0 668.0,599.0 661.0,610.0 678.0,621.0 681.0,635.0 694.0,638.0 700.0,659.0 651.0,641.0 644.0,621.0 643.0,603.0" stroke="#E8F1DB" stroke-width="1" /><polygon fill="#E8F1DB" opacity="100" points="822.0,425.0 855.0,409.0 887.0,378.0 894.0,461.0" stroke="#E8F1DB" stroke-width="1" /><polygon fill="#F0E7F2" opacity="100" points="254.0,-1.0 216.0,103.0 79.0,33.0 85.0,-1.0" stroke="#F0E7F2" stroke-width="1" /><polyline fill="none" opacity="100" points="79.0,34.0 31.0,259.0 146.0,371.0 117.0,436.0 135.0,447.0" stroke="#C0BFC2" stroke-width="2" /><polyline fill="none" opacity="100" points="147.0,457.0 214.0,465.0 169.0,565.0 91.0,592.0 149.0,648.0 149.0,667.0 79.0,771.0" stroke="#C0BFC2" stroke-width="2" /><text fill="#4FC3DC" font-family="Arial" font-size="15" font-weight="normal" opacity="100" transform="rotate(80.0 992.0,460.0) translate(0 15)" x="992.0" y="460.0">Canal 3</text><text fill="#4FC3DC" font-family="Arial" font-size="15" font-weight="normal" opacity="100" transform="rotate(80.0 1003.0,516.0) translate(0 15)" x="1003.0" y="516.0">du 3</text><text fill="#4FC3DC" font-family="Arial" font-size="15" font-weight="normal" opacity="100" transform="rotate(80.0 1013.0,552.0) translate(0 15)" x="1013.0" y="552.0">midi 3</text><text fill="#4FC3DC" font-family="Arial" font-size="15" font-weight="normal" opacity="100" transform="rotate(10.0 604.0,264.0) translate(0 15)" x="604.0" y="264.0">La Garonne 3</text><polygon fill="none" opacity="100" points="-5.0,-5.0 -5.0,780.0 1215.0,780.0 1215.0,-5.0" stroke="#FFF" stroke-width="10" /><text fill="#F2653F" font-family="Arial" font-size="12" font-weight="bold" opacity="100" x="62.2" y="445.8">A</text><text fill="#FFCF29" font-family="Arial" font-size="12" font-weight="bold" opacity="100" x="62.2" y="468.8">"B C"</text></g></svg>