<?xml version="1.0" encoding="utf-8" ?>
<svg baseProfile="tiny" height="790px" version="1.2" width="1222px" xmlns="http://www.w3.org/2000/svg" xmlns:ev="http://www.w3.org/2001/xml-events" xmlns:xlink="http://www.w3.org/1999/xlink"><defs /><g><text fill="#0404A4" font-family="Arial" font-size="35" font-weight="bold" opacity="100" x="102.75" y="54.5">Shenyang</text><text fill="#0404A4" font-family="Arial" font-size="10" font-weight="normal" opacity="100" x="106.5" y="68.0">(Attention! All time intervals in this version equal 2 minutes)</text><polyline fill="none" opacity="100" points="0.0,602.0 453.0,602.0 545.0,510.0 600.0,510.0 692.0,602.0 1131.0,602.0 1229.0,504.0" stroke="#D9F5FF" stroke-width="28" /><ellipse cx="57.5" cy="51.5" fill="#C00" opacity="100" rx="26.5" ry="26.5" stroke="#C00" stroke-width="1" /><ellipse cx="57.5" cy="51.5" fill="#FFF" opacity="100" rx="19.5" ry="19.5" stroke="#FFF" stroke-width="1" /><polyline fill="none" opacity="100" points="71.0,45.0 85.0,45.0" stroke="#FFF" stroke-width="5" /><polyline fill="none" opacity="100" points="43.0,56.0 30.0,56.0" stroke="#FFF" stroke-width="5" /><polygon fill="#C00" opacity="100" points="53.0,23.0 62.0,23.0 62.0,42.0 53.0,42.0" stroke="#C00" stroke-width="1" /><polygon fill="#C00" opacity="100" points="29.0,46.0 29.0,55.0 86.0,55.0 86.0,46.0" stroke="#C00" stroke-width="1" /><polygon fill="#C00" opacity="100" points="53.0,59.0 62.0,59.0 62.0,80.0 53.0,80.0" stroke="#C00" stroke-width="1" /><text fill="#008000" font-family="Arial" font-size="12" font-weight="bold" opacity="100" x="77.2" y="137.8">Line 1</text><text fill="#FFAD00" font-family="Arial" font-size="12" font-weight="bold" opacity="100" x="77.2" y="157.8">Line 2</text></g></svg>