<?xml version="1.0" encoding="utf-8" ?>
<svg baseProfile="tiny" height="705px" version="1.2" width="780px" xmlns="http://www.w3.org/2000/svg" xmlns:ev="http://www.w3.org/2001/xml-events" xmlns:xlink="http://www.w3.org/1999/xlink"><defs /><g><polygon fill="#F4E2BA" opacity="100" points="0.0,-60.0 925.0,-60.0 925.0,705.0 0.0,705.0" stroke="#F4E2BA" stroke-width="1" /><polygon fill="#FFF3E3" opacity="100" points="208.0,-53.0 925.0,-60.0 920.0,448.0 905.0,457.0 868.0,438.0 844.0,457.0 766.0,412.0 738.0,498.0 688.0,525.0 674.0,520.0 626.0,598.0 579.0,610.0 555.0,692.0 534.0,695.0 448.0,652.0 395.0,583.0 196.0,510.0 12.0,360.0 117.0,194.0 156.0,162.0 154.0,114.0 86.0,50.0 74.0,-8.0 159.0,-4.0 202.0,-20.0" stroke="#FFF3E3" stroke-width="1" /><polygon fill="#BFD8FF" opacity="100" points="194.0,-60.0 925.0,-60.0 925.0,456.0 791.0,248.0 785.0,250.0 680.0,42.0 676.0,10.0 643.0,2.0 625.0,41.0 634.0,51.0 563.0,76.0 497.0,57.0 454.0,46.0 440.0,56.0 382.0,36.0 325.0,3.0" stroke="#BFD8FF" stroke-width="1" /><polyline fill="none" opacity="100" points="848.0,454.0 854.0,466.0 842.0,532.0 869.0,578.0 874.0,622.0 858.0,670.0 801.0,690.0 797.0,705.0" stroke="#000" stroke-width="1" /><polyline fill="none" opacity="100" points="356.0,706.0 395.0,583.0 250.0,614.0 203.0,666.0 130.0,674.0 69.0,705.0" stroke="#000" stroke-width="1" /><polyline fill="none" opacity="100" points="925.0,456.0 791.0,248.0 785.0,250.0 680.0,42.0 676.0,10.0 643.0,2.0 625.0,41.0 634.0,51.0 563.0,76.0 497.0,57.0 454.0,46.0 440.0,56.0 382.0,36.0 325.0,3.0 194.0,-60.0" stroke="#000" stroke-width="1" /><polyline fill="none" opacity="100" points="208.0,-53.0 202.0,-20.0 159.0,-4.0 74.0,-8.0 86.0,50.0 154.0,114.0 156.0,162.0 117.0,194.0 12.0,360.0 196.0,510.0 395.0,583.0 448.0,652.0 534.0,695.0 555.0,692.0 579.0,610.0 626.0,598.0 674.0,520.0 688.0,525.0 738.0,498.0 766.0,412.0 844.0,457.0 868.0,438.0 905.0,457.0 920.0,448.0" stroke="#000" stroke-width="1" /><text fill="#0404A4" font-family="Arial" font-size="25" font-weight="bold" opacity="100" x="397.25" y="337.5">Fortaleza</text><text fill="#0404A4" font-family="Arial" font-size="10" font-weight="normal" opacity="100" x="399.5" y="349.0">(Attention! All time intervals in this version equal 2 minutes)</text><text fill="#F00" font-family="Arial" font-size="10" font-weight="normal" opacity="100" x="447.5" y="380.0">Linha Sul</text><text fill="#008000" font-family="Arial" font-size="10" font-weight="normal" opacity="100" x="447.5" y="400.0">Linha Oeste</text><text fill="#0000C4" font-family="Arial" font-size="10" font-weight="normal" opacity="100" x="447.5" y="420.0">Linha Leste</text><text fill="#FFA500" font-family="Arial" font-size="10" font-weight="normal" opacity="100" x="447.5" y="440.0">Linha Mucuripe</text></g></svg>