<?xml version="1.0" encoding="utf-8" ?>
<svg baseProfile="tiny" height="760px" version="1.2" width="1050px" xmlns="http://www.w3.org/2000/svg" xmlns:ev="http://www.w3.org/2001/xml-events" xmlns:xlink="http://www.w3.org/1999/xlink"><defs /><g><g transform="rotate(38.0,525.0,380.0)"><polygon fill="#046434" opacity="100" points="350.0,352.0 350.0,322.0 800.0,322.0 800.0,352.0" stroke="#000" stroke-width="1" /><polygon fill="#046434" opacity="100" points="350.0,432.0 800.0,432.0 800.0,462.0 350.0,462.0" stroke="#000" stroke-width="1" /><text fill="#046434" font-family="Arial" font-size="20" font-weight="normal" opacity="100" transform="rotate(-0.0 353.0,299.0) translate(0 20)" x="353.0" y="299.0">&lt;&lt; Сокол</text><text fill="#046434" font-family="Arial" font-size="20" font-weight="normal" opacity="100" transform="rotate(-0.0 711.0,462.0) translate(0 20)" x="711.0" y="462.0">Динамо &gt;&gt;</text><text fill="#046434" font-family="Arial" font-size="25" font-weight="bold" opacity="100" transform="rotate(-0.0 454.0,377.0) translate(0 25)" x="454.0" y="377.0">Аэропорт</text><polygon fill="#34349C" opacity="100" points="575.0,395.0 575.0,391.0 576.0,391.0 576.0,395.0" stroke="#34349C" stroke-width="1" /><polygon fill="#F00" opacity="100" points="575.0,399.0 575.0,395.0 576.0,395.0 576.0,399.0" stroke="#F00" stroke-width="1" /><polyline fill="none" opacity="100" points="259.0,308.0 255.0,308.0 255.0,243.0 336.0,243.0 336.0,308.0 332.0,308.0" stroke="#000" stroke-width="1" /><polyline fill="none" opacity="100" points="69.0,611.0 126.0,611.0 126.0,223.0" stroke="#000" stroke-width="1" /><polyline fill="none" opacity="100" points="69.0,631.0 157.0,631.0 157.0,609.0 153.0,609.0 153.0,606.0 212.0,606.0" stroke="#000" stroke-width="1" /><polyline fill="none" opacity="100" points="212.0,594.0 153.0,594.0 153.0,579.0 212.0,579.0" stroke="#000" stroke-width="1" /><polyline fill="none" opacity="100" points="212.0,567.0 153.0,567.0 153.0,510.0 162.0,510.0 162.0,507.0 309.0,507.0 309.0,455.0 305.0,455.0 305.0,451.0 321.0,451.0 321.0,409.0" stroke="#000" stroke-width="1" /><polyline fill="none" opacity="100" points="153.0,223.0 153.0,469.0 162.0,469.0 162.0,473.0 282.0,473.0 282.0,455.0 286.0,455.0 286.0,451.0 216.0,451.0 216.0,335.0 286.0,335.0 286.0,331.0 282.0,331.0 282.0,266.0 276.0,266.0 276.0,308.0 272.0,308.0" stroke="#000" stroke-width="1" /><polyline fill="none" opacity="100" points="321.0,376.0 321.0,335.0 305.0,335.0 305.0,331.0 309.0,331.0 309.0,266.0 315.0,266.0 315.0,308.0 319.0,308.0" stroke="#000" stroke-width="1" /><polyline fill="none" opacity="100" points="350.0,352.0 350.0,376.0 312.0,376.0" stroke="#000" stroke-width="1" /><polyline fill="none" opacity="100" points="350.0,432.0 350.0,409.0 312.0,409.0" stroke="#000" stroke-width="1" /><polyline fill="none" opacity="100" points="312.0,409.0 312.0,376.0" stroke="#000" stroke-width="1" /><polyline fill="none" opacity="100" points="316.0,409.0 316.0,376.0" stroke="#000" stroke-width="1" /><polyline fill="none" opacity="100" points="320.0,409.0 320.0,376.0" stroke="#000" stroke-width="1" /><polyline fill="none" opacity="100" points="324.0,409.0 324.0,376.0" stroke="#000" stroke-width="1" /><polyline fill="none" opacity="100" points="328.0,409.0 328.0,376.0" stroke="#000" stroke-width="1" /><polyline fill="none" opacity="100" points="332.0,409.0 332.0,376.0" stroke="#000" stroke-width="1" /><polyline fill="none" opacity="100" points="336.0,409.0 336.0,376.0" stroke="#000" stroke-width="1" /><polyline fill="none" opacity="100" points="340.0,409.0 340.0,376.0" stroke="#000" stroke-width="1" /><polyline fill="none" opacity="100" points="344.0,409.0 344.0,376.0" stroke="#000" stroke-width="1" /><polyline fill="none" opacity="100" points="348.0,409.0 348.0,376.0" stroke="#000" stroke-width="1" /><polyline fill="none" opacity="100" points="336.0,271.0 315.0,271.0" stroke="#000" stroke-width="1" /><polyline fill="none" opacity="100" points="336.0,275.0 315.0,275.0" stroke="#000" stroke-width="1" /><polyline fill="none" opacity="100" points="336.0,279.0 315.0,279.0" stroke="#000" stroke-width="1" /><polyline fill="none" opacity="100" points="336.0,283.0 315.0,283.0" stroke="#000" stroke-width="1" /><polyline fill="none" opacity="100" points="336.0,287.0 315.0,287.0" stroke="#000" stroke-width="1" /><polyline fill="none" opacity="100" points="309.0,269.0 282.0,269.0" stroke="#000" stroke-width="1" /><polyline fill="none" opacity="100" points="309.0,273.0 282.0,273.0" stroke="#000" stroke-width="1" /><polyline fill="none" opacity="100" points="309.0,277.0 282.0,277.0" stroke="#000" stroke-width="1" /><polyline fill="none" opacity="100" points="309.0,281.0 282.0,281.0" stroke="#000" stroke-width="1" /><polyline fill="none" opacity="100" points="309.0,285.0 282.0,285.0" stroke="#000" stroke-width="1" /><polyline fill="none" opacity="100" points="309.0,289.0 282.0,289.0" stroke="#000" stroke-width="1" /><polyline fill="none" opacity="100" points="276.0,271.0 255.0,271.0" stroke="#000" stroke-width="1" /><polyline fill="none" opacity="100" points="276.0,275.0 255.0,275.0" stroke="#000" stroke-width="1" /><polyline fill="none" opacity="100" points="276.0,279.0 255.0,279.0" stroke="#000" stroke-width="1" /><polyline fill="none" opacity="100" points="276.0,283.0 255.0,283.0" stroke="#000" stroke-width="1" /><polyline fill="none" opacity="100" points="276.0,287.0 255.0,287.0" stroke="#000" stroke-width="1" /><polyline fill="none" opacity="100" points="267.0,485.0 267.0,473.0" stroke="#000" stroke-width="1" /><polyline fill="none" opacity="100" points="263.0,485.0 263.0,473.0" stroke="#000" stroke-width="1" /><polyline fill="none" opacity="100" points="259.0,485.0 259.0,473.0" stroke="#000" stroke-width="1" /><polyline fill="none" opacity="100" points="255.0,485.0 255.0,473.0" stroke="#000" stroke-width="1" /><polyline fill="none" opacity="100" points="251.0,485.0 251.0,473.0" stroke="#000" stroke-width="1" /><polyline fill="none" opacity="100" points="247.0,485.0 247.0,473.0" stroke="#000" stroke-width="1" /><polyline fill="none" opacity="100" points="243.0,485.0 243.0,473.0" stroke="#000" stroke-width="1" /><polyline fill="none" opacity="100" points="239.0,485.0 239.0,473.0" stroke="#000" stroke-width="1" /><polyline fill="none" opacity="100" points="235.0,485.0 235.0,473.0" stroke="#000" stroke-width="1" /><polyline fill="none" opacity="100" points="231.0,485.0 231.0,473.0" stroke="#000" stroke-width="1" /><polyline fill="none" opacity="100" points="227.0,485.0 227.0,473.0" stroke="#000" stroke-width="1" /><polyline fill="none" opacity="100" points="208.0,579.0 208.0,567.0" stroke="#000" stroke-width="1" /><polyline fill="none" opacity="100" points="204.0,579.0 204.0,567.0" stroke="#000" stroke-width="1" /><polyline fill="none" opacity="100" points="200.0,579.0 200.0,567.0" stroke="#000" stroke-width="1" /><polyline fill="none" opacity="100" points="196.0,579.0 196.0,567.0" stroke="#000" stroke-width="1" /><polyline fill="none" opacity="100" points="192.0,579.0 192.0,567.0" stroke="#000" stroke-width="1" /><polyline fill="none" opacity="100" points="188.0,579.0 188.0,567.0" stroke="#000" stroke-width="1" /><polyline fill="none" opacity="100" points="184.0,579.0 184.0,567.0" stroke="#000" stroke-width="1" /><polyline fill="none" opacity="100" points="180.0,579.0 180.0,567.0" stroke="#000" stroke-width="1" /><polyline fill="none" opacity="100" points="176.0,579.0 176.0,567.0" stroke="#000" stroke-width="1" /><polyline fill="none" opacity="100" points="208.0,606.0 208.0,594.0" stroke="#000" stroke-width="1" /><polyline fill="none" opacity="100" points="204.0,606.0 204.0,594.0" stroke="#000" stroke-width="1" /><polyline fill="none" opacity="100" points="200.0,606.0 200.0,594.0" stroke="#000" stroke-width="1" /><polyline fill="none" opacity="100" points="196.0,606.0 196.0,594.0" stroke="#000" stroke-width="1" /><polyline fill="none" opacity="100" points="192.0,606.0 192.0,594.0" stroke="#000" stroke-width="1" /><polyline fill="none" opacity="100" points="188.0,606.0 188.0,594.0" stroke="#000" stroke-width="1" /><polyline fill="none" opacity="100" points="184.0,606.0 184.0,594.0" stroke="#000" stroke-width="1" /><polyline fill="none" opacity="100" points="180.0,606.0 180.0,594.0" stroke="#000" stroke-width="1" /><polyline fill="none" opacity="100" points="176.0,606.0 176.0,594.0" stroke="#000" stroke-width="1" /><polyline fill="none" opacity="100" points="72.0,631.0 72.0,611.0" stroke="#000" stroke-width="1" /><polyline fill="none" opacity="100" points="76.0,631.0 76.0,611.0" stroke="#000" stroke-width="1" /><polyline fill="none" opacity="100" points="80.0,631.0 80.0,611.0" stroke="#000" stroke-width="1" /><polyline fill="none" opacity="100" points="84.0,631.0 84.0,611.0" stroke="#000" stroke-width="1" /><polyline fill="none" opacity="100" points="88.0,631.0 88.0,611.0" stroke="#000" stroke-width="1" /><polyline fill="none" opacity="100" points="92.0,631.0 92.0,611.0" stroke="#000" stroke-width="1" /><polyline fill="none" opacity="100" points="96.0,631.0 96.0,611.0" stroke="#000" stroke-width="1" /><polyline fill="none" opacity="100" points="100.0,631.0 100.0,611.0" stroke="#000" stroke-width="1" /><polyline fill="none" opacity="100" points="104.0,631.0 104.0,611.0" stroke="#000" stroke-width="1" /><polyline fill="none" opacity="100" points="108.0,631.0 108.0,611.0" stroke="#000" stroke-width="1" /><polyline fill="none" opacity="100" points="126.0,263.0 153.0,263.0" stroke="#000" stroke-width="1" /><polyline fill="none" opacity="100" points="126.0,259.0 153.0,259.0" stroke="#000" stroke-width="1" /><polyline fill="none" opacity="100" points="126.0,255.0 153.0,255.0" stroke="#000" stroke-width="1" /><polyline fill="none" opacity="100" points="126.0,251.0 153.0,251.0" stroke="#000" stroke-width="1" /><polyline fill="none" opacity="100" points="126.0,247.0 153.0,247.0" stroke="#000" stroke-width="1" /><polyline fill="none" opacity="100" points="126.0,243.0 153.0,243.0" stroke="#000" stroke-width="1" /><polyline fill="none" opacity="100" points="126.0,239.0 153.0,239.0" stroke="#000" stroke-width="1" /><polyline fill="none" opacity="100" points="126.0,235.0 153.0,235.0" stroke="#000" stroke-width="1" /><polyline fill="none" opacity="100" points="126.0,231.0 153.0,231.0" stroke="#000" stroke-width="1" /><polyline fill="none" opacity="100" points="126.0,227.0 153.0,227.0" stroke="#000" stroke-width="1" /><polygon fill="#D0D0D0" opacity="100" points="162.0,487.0 173.0,487.0 173.0,493.0 162.0,493.0" stroke="#000" stroke-width="1" /><polyline fill="none" opacity="100" points="265.0,504.0 265.0,488.0" stroke="#7F7F7F" stroke-width="1" /><polyline fill="none" opacity="100" points="261.0,504.0 261.0,488.0" stroke="#7F7F7F" stroke-width="1" /><polyline fill="none" opacity="100" points="257.0,504.0 257.0,488.0" stroke="#7F7F7F" stroke-width="1" /><polyline fill="none" opacity="100" points="253.0,504.0 253.0,488.0" stroke="#7F7F7F" stroke-width="1" /><polyline fill="none" opacity="100" points="249.0,504.0 249.0,488.0" stroke="#7F7F7F" stroke-width="1" /><polyline fill="none" opacity="100" points="245.0,504.0 245.0,488.0" stroke="#7F7F7F" stroke-width="1" /><polyline fill="none" opacity="100" points="241.0,504.0 241.0,488.0" stroke="#7F7F7F" stroke-width="1" /><polyline fill="none" opacity="100" points="237.0,504.0 237.0,488.0" stroke="#7F7F7F" stroke-width="1" /><polyline fill="none" opacity="100" points="233.0,504.0 233.0,488.0" stroke="#7F7F7F" stroke-width="1" /><polyline fill="none" opacity="100" points="229.0,504.0 229.0,488.0" stroke="#7F7F7F" stroke-width="1" /><polygon fill="#9B5509" opacity="100" points="271.0,488.0 223.0,488.0 223.0,485.0 271.0,485.0" stroke="#000" stroke-width="1" /><polygon fill="#9B5509" opacity="100" points="271.0,494.0 271.0,498.0 223.0,498.0 223.0,494.0" stroke="#000" stroke-width="1" /><polygon fill="#9B5509" opacity="100" points="271.0,504.0 223.0,504.0 223.0,507.0 271.0,507.0" stroke="#000" stroke-width="1" /><polyline fill="none" opacity="100" points="216.0,378.0 207.0,378.0 207.0,407.0 216.0,407.0" stroke="#000" stroke-width="1" /><text fill="#FFF" font-family="Arial" font-size="10" font-weight="normal" opacity="100" transform="rotate(-90.0 205.0,405.0) translate(0 10)" x="205.0" y="405.0">кассы</text><polyline fill="none" opacity="100" points="296.0,289.0 296.0,348.0" stroke="#000" stroke-width="0.5" /><polygon fill="none" opacity="100" points="273.0,366.0 279.0,366.0 279.0,372.0 273.0,372.0" stroke="#000" stroke-width="1" /><polyline fill="none" opacity="100" points="296.0,430.0 296.0,487.0 271.0,487.0" stroke="#000" stroke-width="0.5" /><polyline fill="none" opacity="100" points="294.0,347.0 297.0,350.0" stroke="#090" stroke-width="1" /><polyline fill="none" opacity="100" points="291.1716,349.8284 294.1716,352.8284" stroke="#090" stroke-width="1" /><polyline fill="none" opacity="100" points="288.3431,352.6569 291.3431,355.6569" stroke="#090" stroke-width="1" /><polyline fill="none" opacity="100" points="285.5147,355.4853 288.5147,358.4853" stroke="#090" stroke-width="1" /><polyline fill="none" opacity="100" points="282.6863,358.3137 285.6863,361.3137" stroke="#090" stroke-width="1" /><polyline fill="none" opacity="100" points="279.8579,361.1421 282.8579,364.1421" stroke="#090" stroke-width="1" /><polyline fill="none" opacity="100" points="274.0,377.0 278.0,377.0" stroke="#090" stroke-width="1" /><polyline fill="none" opacity="100" points="274.0,381.0 278.0,381.0" stroke="#090" stroke-width="1" /><polyline fill="none" opacity="100" points="274.0,385.0 278.0,385.0" stroke="#090" stroke-width="1" /><polyline fill="none" opacity="100" points="274.0,389.0 278.0,389.0" stroke="#090" stroke-width="1" /><polyline fill="none" opacity="100" points="274.0,393.0 278.0,393.0" stroke="#090" stroke-width="1" /><polyline fill="none" opacity="100" points="274.0,397.0 278.0,397.0" stroke="#090" stroke-width="1" /><polyline fill="none" opacity="100" points="274.0,401.0 278.0,401.0" stroke="#090" stroke-width="1" /><polyline fill="none" opacity="100" points="274.0,405.0 278.0,405.0" stroke="#090" stroke-width="1" /><polyline fill="none" opacity="100" points="274.0,409.0 278.0,409.0" stroke="#090" stroke-width="1" /><polyline fill="none" opacity="100" points="276.0,415.0 279.0,412.0" stroke="#090" stroke-width="1" /><polyline fill="none" opacity="100" points="278.8284,417.8284 281.8284,414.8284" stroke="#090" stroke-width="1" /><polyline fill="none" opacity="100" points="281.6569,420.6569 284.6569,417.6569" stroke="#090" stroke-width="1" /><polyline fill="none" opacity="100" points="284.4853,423.4853 287.4853,420.4853" stroke="#090" stroke-width="1" /><polyline fill="none" opacity="100" points="287.3137,426.3137 290.3137,423.3137" stroke="#090" stroke-width="1" /><polyline fill="none" opacity="100" points="290.1421,429.1421 293.1421,426.1421" stroke="#090" stroke-width="1" /><polyline fill="none" opacity="100" points="292.9706,431.9706 295.9706,428.9706" stroke="#090" stroke-width="1" /><polyline fill="none" opacity="100" points="326.0,299.0 326.0,315.0" stroke="#F00" stroke-width="1" /><polygon fill="#F00" opacity="100" points="324.7577,310.3636 326.0,315.0 327.2423,310.3636" stroke="#F00" stroke-width="1" /><polyline fill="none" opacity="100" points="303.0,321.0 303.0,304.0" stroke="#F00" stroke-width="1" /><polygon fill="#F00" opacity="100" points="304.32,308.9262 303.0,304.0 301.68,308.9262" stroke="#F00" stroke-width="1" /><polyline fill="none" opacity="100" points="293.0,495.0 280.0,495.0" stroke="#F00" stroke-width="1" /><polygon fill="#F00" opacity="100" points="283.7671,493.9906 280.0,495.0 283.7671,496.0094" stroke="#F00" stroke-width="1" /><polyline fill="none" opacity="100" points="266.0,315.0 266.0,299.0" stroke="#090" stroke-width="1" /><polygon fill="#090" opacity="100" points="267.2423,303.6364 266.0,299.0 264.7577,303.6364" stroke="#090" stroke-width="1" /><polyline fill="none" opacity="100" points="289.0,304.0 289.0,322.0" stroke="#090" stroke-width="1" /><polygon fill="#090" opacity="100" points="287.6024,316.784 289.0,322.0 290.3976,316.784" stroke="#090" stroke-width="1" /><polyline fill="none" opacity="100" points="273.0,479.0 287.0,479.0" stroke="#090" stroke-width="1" /><polygon fill="#090" opacity="100" points="282.9431,480.087 287.0,479.0 282.9431,477.913" stroke="#090" stroke-width="1" /><polygon fill="#34349C" opacity="100" points="219.0,366.0 219.0,362.0 220.0,362.0 220.0,366.0" stroke="#34349C" stroke-width="1" /><polygon fill="#F00" opacity="100" points="219.0,370.0 219.0,366.0 220.0,366.0 220.0,370.0" stroke="#F00" stroke-width="1" /><polyline fill="none" opacity="100" points="800.0,352.0 800.0,376.0 839.0,376.0" stroke="#000" stroke-width="1" /><polyline fill="none" opacity="100" points="800.0,432.0 800.0,409.0 839.0,409.0" stroke="#000" stroke-width="1" /><polyline fill="none" opacity="100" points="833.0,376.0 833.0,335.0 866.0,335.0 866.0,331.0 862.0,331.0 862.0,274.0 857.0,274.0 857.0,316.0 854.0,316.0" stroke="#000" stroke-width="1" /><polyline fill="none" opacity="100" points="833.0,409.0 833.0,450.0 931.0,450.0 931.0,335.0 887.0,335.0 887.0,331.0 891.0,331.0 891.0,274.0 896.0,274.0 896.0,316.0 899.0,316.0" stroke="#000" stroke-width="1" /><polyline fill="none" opacity="100" points="838.0,316.0 835.0,316.0 835.0,254.0 917.0,254.0 917.0,316.0 914.0,316.0" stroke="#000" stroke-width="1" /><polyline fill="none" opacity="100" points="917.0,297.0 896.0,297.0" stroke="#000" stroke-width="1" /><polyline fill="none" opacity="100" points="917.0,293.0 896.0,293.0" stroke="#000" stroke-width="1" /><polyline fill="none" opacity="100" points="917.0,289.0 896.0,289.0" stroke="#000" stroke-width="1" /><polyline fill="none" opacity="100" points="917.0,285.0 896.0,285.0" stroke="#000" stroke-width="1" /><polyline fill="none" opacity="100" points="917.0,281.0 896.0,281.0" stroke="#000" stroke-width="1" /><polyline fill="none" opacity="100" points="891.0,295.0 862.0,295.0" stroke="#000" stroke-width="1" /><polyline fill="none" opacity="100" points="891.0,291.0 862.0,291.0" stroke="#000" stroke-width="1" /><polyline fill="none" opacity="100" points="891.0,287.0 862.0,287.0" stroke="#000" stroke-width="1" /><polyline fill="none" opacity="100" points="891.0,283.0 862.0,283.0" stroke="#000" stroke-width="1" /><polyline fill="none" opacity="100" points="891.0,279.0 862.0,279.0" stroke="#000" stroke-width="1" /><polyline fill="none" opacity="100" points="857.0,297.0 835.0,297.0" stroke="#000" stroke-width="1" /><polyline fill="none" opacity="100" points="857.0,293.0 835.0,293.0" stroke="#000" stroke-width="1" /><polyline fill="none" opacity="100" points="857.0,289.0 835.0,289.0" stroke="#000" stroke-width="1" /><polyline fill="none" opacity="100" points="857.0,285.0 835.0,285.0" stroke="#000" stroke-width="1" /><polyline fill="none" opacity="100" points="857.0,281.0 835.0,281.0" stroke="#000" stroke-width="1" /><polyline fill="none" opacity="100" points="839.0,409.0 839.0,376.0" stroke="#000" stroke-width="1" /><polyline fill="none" opacity="100" points="835.0,409.0 835.0,376.0" stroke="#000" stroke-width="1" /><polyline fill="none" opacity="100" points="831.0,409.0 831.0,376.0" stroke="#000" stroke-width="1" /><polyline fill="none" opacity="100" points="827.0,409.0 827.0,376.0" stroke="#000" stroke-width="1" /><polyline fill="none" opacity="100" points="823.0,409.0 823.0,376.0" stroke="#000" stroke-width="1" /><polyline fill="none" opacity="100" points="819.0,409.0 819.0,376.0" stroke="#000" stroke-width="1" /><polyline fill="none" opacity="100" points="815.0,409.0 815.0,376.0" stroke="#000" stroke-width="1" /><polyline fill="none" opacity="100" points="811.0,409.0 811.0,376.0" stroke="#000" stroke-width="1" /><polyline fill="none" opacity="100" points="807.0,409.0 807.0,376.0" stroke="#000" stroke-width="1" /><polyline fill="none" opacity="100" points="803.0,409.0 803.0,376.0" stroke="#000" stroke-width="1" /><polyline fill="none" opacity="100" points="862.0,254.0 862.0,245.0 891.0,245.0 891.0,254.0" stroke="#000" stroke-width="1" /><text fill="#FFF" font-family="Arial" font-size="10" font-weight="normal" opacity="100" transform="rotate(-0.0 864.0,243.0) translate(0 10)" x="864.0" y="243.0">кассы</text><polyline fill="none" opacity="100" points="877.0,295.0 877.0,373.0" stroke="#000" stroke-width="0.5" /><polygon fill="none" opacity="100" points="874.0,373.0 880.0,373.0 880.0,379.0 874.0,379.0" stroke="#000" stroke-width="1" /><polyline fill="none" opacity="100" points="906.0,405.0 906.0,450.0" stroke="#000" stroke-width="0.5" /><polyline fill="none" opacity="100" points="884.0,381.0 881.0,384.0" stroke="#090" stroke-width="1" /><polyline fill="none" opacity="100" points="886.8284,383.8284 883.8284,386.8284" stroke="#090" stroke-width="1" /><polyline fill="none" opacity="100" points="889.6569,386.6569 886.6569,389.6569" stroke="#090" stroke-width="1" /><polyline fill="none" opacity="100" points="892.4853,389.4853 889.4853,392.4853" stroke="#090" stroke-width="1" /><polyline fill="none" opacity="100" points="895.3137,392.3137 892.3137,395.3137" stroke="#090" stroke-width="1" /><polyline fill="none" opacity="100" points="898.1421,395.1421 895.1421,398.1421" stroke="#090" stroke-width="1" /><polyline fill="none" opacity="100" points="900.9706,397.9706 897.9706,400.9706" stroke="#090" stroke-width="1" /><polyline fill="none" opacity="100" points="903.799,400.799 900.799,403.799" stroke="#090" stroke-width="1" /><polyline fill="none" opacity="100" points="906.6274,403.6274 903.6274,406.6274" stroke="#090" stroke-width="1" /><polyline fill="none" opacity="100" points="846.0,306.0 846.0,319.0" stroke="#F00" stroke-width="1" /><polygon fill="#F00" opacity="100" points="844.9906,315.2329 846.0,319.0 847.0094,315.2329" stroke="#F00" stroke-width="1" /><polyline fill="none" opacity="100" points="870.0,319.0 870.0,306.0" stroke="#F00" stroke-width="1" /><polygon fill="#F00" opacity="100" points="871.0094,309.7671 870.0,306.0 868.9906,309.7671" stroke="#F00" stroke-width="1" /><polyline fill="none" opacity="100" points="906.0,319.0 906.0,306.0" stroke="#090" stroke-width="1" /><polygon fill="#090" opacity="100" points="907.0094,309.7671 906.0,306.0 904.9906,309.7671" stroke="#090" stroke-width="1" /><polyline fill="none" opacity="100" points="884.0,306.0 884.0,319.0" stroke="#090" stroke-width="1" /><polygon fill="#090" opacity="100" points="882.9906,315.2329 884.0,319.0 885.0094,315.2329" stroke="#090" stroke-width="1" /><polyline fill="none" opacity="100" points="907.0,377.0 899.0,385.0" stroke="#090" stroke-width="1" /><polygon fill="#090" opacity="100" points="900.6971,382.0606 899.0,385.0 901.9394,383.3029" stroke="#090" stroke-width="1" /><polygon fill="#34349C" opacity="100" points="853.0,414.0 849.0,414.0 849.0,415.0 853.0,415.0" stroke="#34349C" stroke-width="1" /><polygon fill="#F00" opacity="100" points="857.0,414.0 853.0,414.0 853.0,415.0 857.0,415.0" stroke="#F00" stroke-width="1" /><text fill="#00AFAF" font-family="Arial" font-size="15" font-weight="normal" opacity="100" transform="rotate(-0.0 -33.0,389.0) translate(0 15)" x="-33.0" y="389.0">Ленинградский проспект</text><text fill="#00AFAF" font-family="Arial" font-size="15" font-weight="normal" opacity="100" transform="rotate(-0.0 945.0,381.0) translate(0 15)" x="945.0" y="381.0">Ленинградский проспект</text><text fill="#00AFAF" font-family="Arial" font-size="15" font-weight="normal" opacity="100" transform="rotate(-90.0 177.0,330.0) translate(0 15)" x="177.0" y="330.0">улица Черняховского</text><text fill="#00AFAF" font-family="Arial" font-size="15" font-weight="normal" opacity="100" transform="rotate(-90.0 969.0,306.0) translate(0 15)" x="969.0" y="306.0">1-я Аэропортовская улица</text><polygon fill="#FFD0D0" opacity="0.7" points="151.0,565.0 214.0,565.0 214.0,608.0 151.0,608.0" stroke="#FFD0D0" stroke-width="1" /><text fill="#FF4040" font-family="Arial" font-size="15" font-weight="normal" opacity="1.0" transform="rotate(-0.0 159.0,573.0) translate(0 15)" x="159.0" y="573.0">закрыто</text><polyline fill="none" opacity="1.0" points="151.0,565.0 214.0,565.0 214.0,608.0 151.0,608.0 151.0,565.0" stroke="#FF4040" stroke-dasharray="5,5" stroke-width="1" /><g transform="rotate(-38.0,525.0,380.0)"><text fill="#FFD900" font-family="Arial" font-size="25" font-weight="normal" opacity="1.0" x="457.25" y="193.5">1</text><text fill="#FFD900" font-family="Arial" font-size="25" font-weight="normal" opacity="1.0" x="264.25" y="24.5">2</text><text fill="#FFD900" font-family="Arial" font-size="25" font-weight="normal" opacity="1.0" x="34.25" y="271.5">3</text><text fill="#FFD900" font-family="Arial" font-size="25" font-weight="normal" opacity="1.0" x="807.25" y="477.5">4</text></g></g></g></svg>