<?xml version="1.0" encoding="utf-8" ?>
<svg baseProfile="tiny" height="930px" version="1.2" width="1120px" xmlns="http://www.w3.org/2000/svg" xmlns:ev="http://www.w3.org/2001/xml-events" xmlns:xlink="http://www.w3.org/1999/xlink"><defs /><g><g transform="rotate(-60.0,560.0,465.0)"><polygon fill="#FC9C54" opacity="100" points="242.0,313.0 242.0,283.0 692.0,283.0 692.0,313.0" stroke="#000" stroke-width="1" /><polygon fill="#FC9C54" opacity="100" points="692.0,203.0 692.0,173.0 242.0,173.0 242.0,203.0" stroke="#000" stroke-width="1" /><text fill="#F7782E" font-family="Arial" font-size="25" font-weight="bold" opacity="100" transform="rotate(-0.0 391.0,212.0) translate(0 25)" x="391.0" y="212.0">Академическая</text><text fill="#F7782E" font-family="Arial" font-size="20" font-weight="normal" opacity="100" transform="rotate(-0.0 245.0,149.0) translate(0 20)" x="245.0" y="149.0">&lt;&lt; Профсоюзная</text><text fill="#F7782E" font-family="Arial" font-size="20" font-weight="normal" opacity="100" transform="rotate(-0.0 491.0,313.0) translate(0 20)" x="491.0" y="313.0">Ленинский проспект &gt;&gt;</text><polyline fill="none" opacity="100" points="136.0,156.0 96.0,156.0 96.0,214.0 100.0,214.0 100.0,198.0 172.0,198.0 172.0,217.0 242.0,217.0 242.0,203.0" stroke="#000" stroke-width="1" /><polyline fill="none" opacity="100" points="136.0,335.0 96.0,335.0 96.0,273.0 100.0,273.0 100.0,288.0 172.0,288.0 172.0,269.0 242.0,269.0 242.0,283.0" stroke="#000" stroke-width="1" /><polyline fill="none" opacity="100" points="136.0,138.0 28.0,138.0" stroke="#000" stroke-width="1" /><polyline fill="none" opacity="100" points="136.0,353.0 28.0,353.0" stroke="#000" stroke-width="1" /><polyline fill="none" opacity="100" points="28.0,335.0 68.0,335.0 68.0,156.0 28.0,156.0" stroke="#000" stroke-width="1" /><polyline fill="none" opacity="100" points="96.0,143.0 136.0,143.0" stroke="#000" stroke-width="0.5" /><polyline fill="none" opacity="100" points="233.0,217.0 233.0,269.0" stroke="#000" stroke-width="1" /><polyline fill="none" opacity="100" points="237.0,217.0 237.0,269.0" stroke="#000" stroke-width="1" /><polyline fill="none" opacity="100" points="241.0,217.0 241.0,269.0" stroke="#000" stroke-width="1" /><polyline fill="none" opacity="100" points="177.0,269.0 177.0,244.0" stroke="#000" stroke-width="1" /><polyline fill="none" opacity="100" points="181.0,269.0 181.0,244.0" stroke="#000" stroke-width="1" /><polyline fill="none" opacity="100" points="185.0,269.0 185.0,244.0" stroke="#000" stroke-width="1" /><polyline fill="none" opacity="100" points="189.0,269.0 189.0,244.0" stroke="#000" stroke-width="1" /><polyline fill="none" opacity="100" points="193.0,269.0 193.0,244.0" stroke="#000" stroke-width="1" /><polyline fill="none" opacity="100" points="197.0,269.0 197.0,244.0" stroke="#000" stroke-width="1" /><polyline fill="none" opacity="100" points="201.0,269.0 201.0,244.0" stroke="#000" stroke-width="1" /><polyline fill="none" opacity="100" points="205.0,269.0 205.0,244.0" stroke="#000" stroke-width="1" /><polyline fill="none" opacity="100" points="209.0,269.0 209.0,244.0" stroke="#000" stroke-width="1" /><polyline fill="none" opacity="100" points="213.0,269.0 213.0,244.0" stroke="#000" stroke-width="1" /><polyline fill="none" opacity="100" points="217.0,269.0 217.0,244.0" stroke="#000" stroke-width="1" /><polyline fill="none" opacity="100" points="221.0,269.0 221.0,244.0" stroke="#000" stroke-width="1" /><polyline fill="none" opacity="100" points="98.0,143.0 98.0,156.0" stroke="#000" stroke-width="1" /><polyline fill="none" opacity="100" points="102.0,143.0 102.0,156.0" stroke="#000" stroke-width="1" /><polyline fill="none" opacity="100" points="106.0,143.0 106.0,156.0" stroke="#000" stroke-width="1" /><polyline fill="none" opacity="100" points="110.0,143.0 110.0,156.0" stroke="#000" stroke-width="1" /><polyline fill="none" opacity="100" points="114.0,143.0 114.0,156.0" stroke="#000" stroke-width="1" /><polyline fill="none" opacity="100" points="118.0,143.0 118.0,156.0" stroke="#000" stroke-width="1" /><polyline fill="none" opacity="100" points="122.0,143.0 122.0,156.0" stroke="#000" stroke-width="1" /><polyline fill="none" opacity="100" points="126.0,143.0 126.0,156.0" stroke="#000" stroke-width="1" /><polyline fill="none" opacity="100" points="130.0,143.0 130.0,156.0" stroke="#000" stroke-width="1" /><polyline fill="none" opacity="100" points="134.0,143.0 134.0,156.0" stroke="#000" stroke-width="1" /><polyline fill="none" opacity="100" points="30.0,138.0 30.0,156.0" stroke="#000" stroke-width="1" /><polyline fill="none" opacity="100" points="34.0,138.0 34.0,156.0" stroke="#000" stroke-width="1" /><polyline fill="none" opacity="100" points="38.0,138.0 38.0,156.0" stroke="#000" stroke-width="1" /><polyline fill="none" opacity="100" points="42.0,138.0 42.0,156.0" stroke="#000" stroke-width="1" /><polyline fill="none" opacity="100" points="46.0,138.0 46.0,156.0" stroke="#000" stroke-width="1" /><polyline fill="none" opacity="100" points="50.0,138.0 50.0,156.0" stroke="#000" stroke-width="1" /><polyline fill="none" opacity="100" points="54.0,138.0 54.0,156.0" stroke="#000" stroke-width="1" /><polyline fill="none" opacity="100" points="58.0,138.0 58.0,156.0" stroke="#000" stroke-width="1" /><polyline fill="none" opacity="100" points="62.0,138.0 62.0,156.0" stroke="#000" stroke-width="1" /><polyline fill="none" opacity="100" points="66.0,138.0 66.0,156.0" stroke="#000" stroke-width="1" /><polyline fill="none" opacity="100" points="98.0,335.0 98.0,353.0" stroke="#000" stroke-width="1" /><polyline fill="none" opacity="100" points="102.0,335.0 102.0,353.0" stroke="#000" stroke-width="1" /><polyline fill="none" opacity="100" points="106.0,335.0 106.0,353.0" stroke="#000" stroke-width="1" /><polyline fill="none" opacity="100" points="110.0,335.0 110.0,353.0" stroke="#000" stroke-width="1" /><polyline fill="none" opacity="100" points="114.0,335.0 114.0,353.0" stroke="#000" stroke-width="1" /><polyline fill="none" opacity="100" points="118.0,335.0 118.0,353.0" stroke="#000" stroke-width="1" /><polyline fill="none" opacity="100" points="122.0,335.0 122.0,353.0" stroke="#000" stroke-width="1" /><polyline fill="none" opacity="100" points="126.0,335.0 126.0,353.0" stroke="#000" stroke-width="1" /><polyline fill="none" opacity="100" points="130.0,335.0 130.0,353.0" stroke="#000" stroke-width="1" /><polyline fill="none" opacity="100" points="134.0,335.0 134.0,353.0" stroke="#000" stroke-width="1" /><polyline fill="none" opacity="100" points="30.0,353.0 30.0,335.0" stroke="#000" stroke-width="1" /><polyline fill="none" opacity="100" points="34.0,353.0 34.0,335.0" stroke="#000" stroke-width="1" /><polyline fill="none" opacity="100" points="38.0,353.0 38.0,335.0" stroke="#000" stroke-width="1" /><polyline fill="none" opacity="100" points="42.0,353.0 42.0,335.0" stroke="#000" stroke-width="1" /><polyline fill="none" opacity="100" points="46.0,353.0 46.0,335.0" stroke="#000" stroke-width="1" /><polyline fill="none" opacity="100" points="50.0,353.0 50.0,335.0" stroke="#000" stroke-width="1" /><polyline fill="none" opacity="100" points="54.0,353.0 54.0,335.0" stroke="#000" stroke-width="1" /><polyline fill="none" opacity="100" points="58.0,353.0 58.0,335.0" stroke="#000" stroke-width="1" /><polyline fill="none" opacity="100" points="62.0,353.0 62.0,335.0" stroke="#000" stroke-width="1" /><polyline fill="none" opacity="100" points="66.0,353.0 66.0,335.0" stroke="#000" stroke-width="1" /><polygon fill="#D0D0D0" opacity="100" points="100.0,241.0 96.0,241.0 96.0,246.0 100.0,246.0" stroke="#000" stroke-width="1" /><polyline fill="none" opacity="100" points="120.0,288.0 120.0,299.0 148.0,299.0 148.0,288.0" stroke="#000" stroke-width="1" /><text fill="#FFF" font-family="Arial" font-size="10" font-weight="normal" opacity="100" transform="rotate(-0.0 122.0,287.0) translate(0 10)" x="122.0" y="287.0">кассы</text><polygon fill="none" opacity="100" points="168.0,272.0 163.0,269.0 166.0,264.0 171.0,267.0" stroke="#000" stroke-width="1" /><polyline fill="none" opacity="100" points="160.0,267.0 163.0,262.0" stroke="#090" stroke-width="1" /><polyline fill="none" opacity="100" points="156.6014,264.8905 159.6014,259.8905" stroke="#090" stroke-width="1" /><polyline fill="none" opacity="100" points="153.2029,262.7811 156.2029,257.7811" stroke="#090" stroke-width="1" /><polyline fill="none" opacity="100" points="149.8043,260.6716 152.8043,255.6716" stroke="#090" stroke-width="1" /><polyline fill="none" opacity="100" points="146.4058,258.5622 149.4058,253.5622" stroke="#090" stroke-width="1" /><polyline fill="none" opacity="100" points="143.0072,256.4527 146.0072,251.4527" stroke="#090" stroke-width="1" /><polyline fill="none" opacity="100" points="139.6086,254.3433 142.6086,249.3433" stroke="#090" stroke-width="1" /><polyline fill="none" opacity="100" points="136.2101,252.2338 139.2101,247.2338" stroke="#090" stroke-width="1" /><polyline fill="none" opacity="100" points="132.8115,250.1244 135.8115,245.1244" stroke="#090" stroke-width="1" /><polyline fill="none" opacity="100" points="129.0,202.0 135.0,202.0" stroke="#F00" stroke-width="1" /><polyline fill="none" opacity="100" points="129.0,206.0 135.0,206.0" stroke="#F00" stroke-width="1" /><polyline fill="none" opacity="100" points="129.0,210.0 135.0,210.0" stroke="#F00" stroke-width="1" /><polyline fill="none" opacity="100" points="129.0,214.0 135.0,214.0" stroke="#F00" stroke-width="1" /><polyline fill="none" opacity="100" points="129.0,218.0 135.0,218.0" stroke="#F00" stroke-width="1" /><polyline fill="none" opacity="100" points="129.0,222.0 135.0,222.0" stroke="#F00" stroke-width="1" /><polyline fill="none" opacity="100" points="129.0,226.0 135.0,226.0" stroke="#F00" stroke-width="1" /><polyline fill="none" opacity="100" points="129.0,230.0 135.0,230.0" stroke="#F00" stroke-width="1" /><polyline fill="none" opacity="100" points="129.0,234.0 135.0,234.0" stroke="#F00" stroke-width="1" /><polyline fill="none" opacity="100" points="129.0,238.0 135.0,238.0" stroke="#F00" stroke-width="1" /><polyline fill="none" opacity="100" points="129.0,242.0 135.0,242.0" stroke="#F00" stroke-width="1" /><polyline fill="none" opacity="100" points="224.0,243.0 224.0,219.0" stroke="#7F7F7F" stroke-width="1" /><polyline fill="none" opacity="100" points="220.0,243.0 220.0,219.0" stroke="#7F7F7F" stroke-width="1" /><polyline fill="none" opacity="100" points="216.0,243.0 216.0,219.0" stroke="#7F7F7F" stroke-width="1" /><polyline fill="none" opacity="100" points="212.0,243.0 212.0,219.0" stroke="#7F7F7F" stroke-width="1" /><polyline fill="none" opacity="100" points="208.0,243.0 208.0,219.0" stroke="#7F7F7F" stroke-width="1" /><polyline fill="none" opacity="100" points="204.0,243.0 204.0,219.0" stroke="#7F7F7F" stroke-width="1" /><polyline fill="none" opacity="100" points="200.0,243.0 200.0,219.0" stroke="#7F7F7F" stroke-width="1" /><polyline fill="none" opacity="100" points="196.0,243.0 196.0,219.0" stroke="#7F7F7F" stroke-width="1" /><polyline fill="none" opacity="100" points="192.0,243.0 192.0,219.0" stroke="#7F7F7F" stroke-width="1" /><polyline fill="none" opacity="100" points="188.0,243.0 188.0,219.0" stroke="#7F7F7F" stroke-width="1" /><polyline fill="none" opacity="100" points="184.0,243.0 184.0,219.0" stroke="#7F7F7F" stroke-width="1" /><polyline fill="none" opacity="100" points="180.0,243.0 180.0,219.0" stroke="#7F7F7F" stroke-width="1" /><polyline fill="none" opacity="100" points="176.0,243.0 176.0,219.0" stroke="#7F7F7F" stroke-width="1" /><polygon fill="#9B5509" opacity="100" points="173.0,229.0 226.0,229.0 226.0,233.0 173.0,233.0" stroke="#000" stroke-width="1" /><polygon fill="#9B5509" opacity="100" points="173.0,242.0 226.0,242.0 226.0,245.0 173.0,245.0" stroke="#000" stroke-width="1" /><polygon fill="#9B5509" opacity="100" points="173.0,217.0 226.0,217.0 226.0,220.0 173.0,220.0" stroke="#000" stroke-width="1" /><polyline fill="none" opacity="100" points="776.0,156.0 816.0,156.0 816.0,214.0 812.0,214.0 812.0,198.0 742.0,198.0 742.0,217.0 692.0,217.0 692.0,203.0" stroke="#000" stroke-width="1" /><polyline fill="none" opacity="100" points="884.0,156.0 844.0,156.0 844.0,334.0 884.0,334.0" stroke="#000" stroke-width="1" /><polyline fill="none" opacity="100" points="776.0,334.0 816.0,334.0 816.0,272.0 812.0,272.0 812.0,286.0 742.0,286.0 742.0,269.0 692.0,269.0 692.0,283.0" stroke="#000" stroke-width="1" /><polyline fill="none" opacity="100" points="884.0,352.0 776.0,352.0" stroke="#000" stroke-width="1" /><polyline fill="none" opacity="100" points="776.0,138.0 884.0,138.0" stroke="#000" stroke-width="1" /><polyline fill="none" opacity="100" points="844.0,143.0 882.0,143.0" stroke="#000" stroke-width="0.5" /><polyline fill="none" opacity="100" points="882.0,143.0 882.0,156.0" stroke="#000" stroke-width="1" /><polyline fill="none" opacity="100" points="878.0,143.0 878.0,156.0" stroke="#000" stroke-width="1" /><polyline fill="none" opacity="100" points="874.0,143.0 874.0,156.0" stroke="#000" stroke-width="1" /><polyline fill="none" opacity="100" points="870.0,143.0 870.0,156.0" stroke="#000" stroke-width="1" /><polyline fill="none" opacity="100" points="866.0,143.0 866.0,156.0" stroke="#000" stroke-width="1" /><polyline fill="none" opacity="100" points="862.0,143.0 862.0,156.0" stroke="#000" stroke-width="1" /><polyline fill="none" opacity="100" points="858.0,143.0 858.0,156.0" stroke="#000" stroke-width="1" /><polyline fill="none" opacity="100" points="854.0,143.0 854.0,156.0" stroke="#000" stroke-width="1" /><polyline fill="none" opacity="100" points="850.0,143.0 850.0,156.0" stroke="#000" stroke-width="1" /><polyline fill="none" opacity="100" points="846.0,143.0 846.0,156.0" stroke="#000" stroke-width="1" /><polyline fill="none" opacity="100" points="846.0,334.0 846.0,352.0" stroke="#000" stroke-width="1" /><polyline fill="none" opacity="100" points="850.0,334.0 850.0,352.0" stroke="#000" stroke-width="1" /><polyline fill="none" opacity="100" points="854.0,334.0 854.0,352.0" stroke="#000" stroke-width="1" /><polyline fill="none" opacity="100" points="858.0,334.0 858.0,352.0" stroke="#000" stroke-width="1" /><polyline fill="none" opacity="100" points="862.0,334.0 862.0,352.0" stroke="#000" stroke-width="1" /><polyline fill="none" opacity="100" points="866.0,334.0 866.0,352.0" stroke="#000" stroke-width="1" /><polyline fill="none" opacity="100" points="870.0,334.0 870.0,352.0" stroke="#000" stroke-width="1" /><polyline fill="none" opacity="100" points="874.0,334.0 874.0,352.0" stroke="#000" stroke-width="1" /><polyline fill="none" opacity="100" points="878.0,334.0 878.0,352.0" stroke="#000" stroke-width="1" /><polyline fill="none" opacity="100" points="882.0,334.0 882.0,352.0" stroke="#000" stroke-width="1" /><polyline fill="none" opacity="100" points="778.0,138.0 778.0,156.0" stroke="#000" stroke-width="1" /><polyline fill="none" opacity="100" points="782.0,138.0 782.0,156.0" stroke="#000" stroke-width="1" /><polyline fill="none" opacity="100" points="786.0,138.0 786.0,156.0" stroke="#000" stroke-width="1" /><polyline fill="none" opacity="100" points="790.0,138.0 790.0,156.0" stroke="#000" stroke-width="1" /><polyline fill="none" opacity="100" points="794.0,138.0 794.0,156.0" stroke="#000" stroke-width="1" /><polyline fill="none" opacity="100" points="798.0,138.0 798.0,156.0" stroke="#000" stroke-width="1" /><polyline fill="none" opacity="100" points="802.0,138.0 802.0,156.0" stroke="#000" stroke-width="1" /><polyline fill="none" opacity="100" points="806.0,138.0 806.0,156.0" stroke="#000" stroke-width="1" /><polyline fill="none" opacity="100" points="810.0,138.0 810.0,156.0" stroke="#000" stroke-width="1" /><polyline fill="none" opacity="100" points="814.0,138.0 814.0,156.0" stroke="#000" stroke-width="1" /><polyline fill="none" opacity="100" points="778.0,352.0 778.0,334.0" stroke="#000" stroke-width="1" /><polyline fill="none" opacity="100" points="782.0,352.0 782.0,334.0" stroke="#000" stroke-width="1" /><polyline fill="none" opacity="100" points="786.0,352.0 786.0,334.0" stroke="#000" stroke-width="1" /><polyline fill="none" opacity="100" points="790.0,352.0 790.0,334.0" stroke="#000" stroke-width="1" /><polyline fill="none" opacity="100" points="794.0,352.0 794.0,334.0" stroke="#000" stroke-width="1" /><polyline fill="none" opacity="100" points="798.0,352.0 798.0,334.0" stroke="#000" stroke-width="1" /><polyline fill="none" opacity="100" points="802.0,352.0 802.0,334.0" stroke="#000" stroke-width="1" /><polyline fill="none" opacity="100" points="806.0,352.0 806.0,334.0" stroke="#000" stroke-width="1" /><polyline fill="none" opacity="100" points="810.0,352.0 810.0,334.0" stroke="#000" stroke-width="1" /><polyline fill="none" opacity="100" points="814.0,352.0 814.0,334.0" stroke="#000" stroke-width="1" /><polyline fill="none" opacity="100" points="739.0,217.0 739.0,269.0" stroke="#000" stroke-width="1" /><polyline fill="none" opacity="100" points="735.0,217.0 735.0,269.0" stroke="#000" stroke-width="1" /><polyline fill="none" opacity="100" points="731.0,217.0 731.0,269.0" stroke="#000" stroke-width="1" /><polyline fill="none" opacity="100" points="727.0,217.0 727.0,269.0" stroke="#000" stroke-width="1" /><polyline fill="none" opacity="100" points="723.0,217.0 723.0,269.0" stroke="#000" stroke-width="1" /><polyline fill="none" opacity="100" points="719.0,217.0 719.0,269.0" stroke="#000" stroke-width="1" /><polyline fill="none" opacity="100" points="715.0,217.0 715.0,269.0" stroke="#000" stroke-width="1" /><polyline fill="none" opacity="100" points="711.0,217.0 711.0,269.0" stroke="#000" stroke-width="1" /><polyline fill="none" opacity="100" points="707.0,217.0 707.0,269.0" stroke="#000" stroke-width="1" /><polyline fill="none" opacity="100" points="703.0,217.0 703.0,269.0" stroke="#000" stroke-width="1" /><polyline fill="none" opacity="100" points="699.0,217.0 699.0,269.0" stroke="#000" stroke-width="1" /><polyline fill="none" opacity="100" points="695.0,217.0 695.0,269.0" stroke="#000" stroke-width="1" /><polygon fill="#D0D0D0" opacity="100" points="816.0,241.0 812.0,241.0 812.0,246.0 816.0,246.0" stroke="#000" stroke-width="1" /><polygon fill="none" opacity="100" points="777.0,201.0 771.0,201.0 771.0,207.0 777.0,207.0" stroke="#000" stroke-width="1" /><polyline fill="none" opacity="100" points="772.0,212.0 776.0,212.0" stroke="#090" stroke-width="1" /><polyline fill="none" opacity="100" points="772.0,216.0 776.0,216.0" stroke="#090" stroke-width="1" /><polyline fill="none" opacity="100" points="772.0,220.0 776.0,220.0" stroke="#090" stroke-width="1" /><polyline fill="none" opacity="100" points="772.0,224.0 776.0,224.0" stroke="#090" stroke-width="1" /><polyline fill="none" opacity="100" points="772.0,228.0 776.0,228.0" stroke="#090" stroke-width="1" /><polyline fill="none" opacity="100" points="772.0,232.0 776.0,232.0" stroke="#090" stroke-width="1" /><polyline fill="none" opacity="100" points="772.0,236.0 776.0,236.0" stroke="#090" stroke-width="1" /><polyline fill="none" opacity="100" points="772.0,240.0 776.0,240.0" stroke="#090" stroke-width="1" /><polyline fill="none" opacity="100" points="772.0,244.0 776.0,244.0" stroke="#090" stroke-width="1" /><polyline fill="none" opacity="100" points="772.0,248.0 776.0,248.0" stroke="#F00" stroke-width="1" /><polyline fill="none" opacity="100" points="772.0,252.0 776.0,252.0" stroke="#F00" stroke-width="1" /><polyline fill="none" opacity="100" points="772.0,256.0 776.0,256.0" stroke="#F00" stroke-width="1" /><polyline fill="none" opacity="100" points="772.0,260.0 776.0,260.0" stroke="#F00" stroke-width="1" /><polyline fill="none" opacity="100" points="772.0,264.0 776.0,264.0" stroke="#F00" stroke-width="1" /><polyline fill="none" opacity="100" points="772.0,268.0 776.0,268.0" stroke="#F00" stroke-width="1" /><polyline fill="none" opacity="100" points="772.0,272.0 776.0,272.0" stroke="#F00" stroke-width="1" /><polyline fill="none" opacity="100" points="772.0,276.0 776.0,276.0" stroke="#F00" stroke-width="1" /><polyline fill="none" opacity="100" points="772.0,280.0 776.0,280.0" stroke="#F00" stroke-width="1" /><polyline fill="none" opacity="100" points="780.0,198.0 780.0,187.0 807.0,187.0 807.0,198.0" stroke="#000" stroke-width="1" /><text fill="#000" font-family="Arial" font-size="10" font-weight="normal" opacity="100" transform="rotate(-0.0 782.0,186.0) translate(0 10)" x="782.0" y="186.0">кассы</text><polyline fill="none" opacity="100" points="792.0,259.0 803.0,259.0" stroke="#F00" stroke-width="1" /><polygon fill="#F00" opacity="100" points="799.8124,259.8541 803.0,259.0 799.8124,258.1459" stroke="#F00" stroke-width="1" /><polyline fill="none" opacity="100" points="115.0,226.0 101.0,226.0" stroke="#F00" stroke-width="1" /><polygon fill="#F00" opacity="100" points="105.0569,224.913 101.0,226.0 105.0569,227.087" stroke="#F00" stroke-width="1" /><polyline fill="none" opacity="100" points="804.0,226.0 793.0,226.0" stroke="#090" stroke-width="1" /><polygon fill="#090" opacity="100" points="796.1876,225.1459 793.0,226.0 796.1876,226.8541" stroke="#090" stroke-width="1" /><polyline fill="none" opacity="100" points="118.0,266.0 136.0,266.0" stroke="#090" stroke-width="1" /><polygon fill="#090" opacity="100" points="130.784,267.3976 136.0,266.0 130.784,264.6024" stroke="#090" stroke-width="1" /><polygon fill="#34349C" opacity="100" points="668.0,268.0 663.0,268.0 663.0,266.0 668.0,266.0" stroke="#34349C" stroke-width="1" /><polygon fill="#34349C" opacity="100" points="376.0,256.0 376.0,246.0 374.0,246.0 374.0,256.0" stroke="#34349C" stroke-width="1" /><polygon fill="#34349C" opacity="100" points="266.0,266.0 261.0,266.0 261.0,268.0 266.0,268.0" stroke="#34349C" stroke-width="1" /><polygon fill="#F00" opacity="100" points="673.0,268.0 668.0,268.0 668.0,266.0 673.0,266.0" stroke="#F00" stroke-width="1" /><polygon fill="#F00" opacity="100" points="376.0,251.0 376.0,256.0 374.0,256.0 374.0,251.0" stroke="#F00" stroke-width="1" /><polygon fill="#F00" opacity="100" points="271.0,266.0 266.0,266.0 266.0,268.0 271.0,268.0" stroke="#F00" stroke-width="1" /><text fill="#00AFAF" font-family="Arial" font-size="15" font-weight="normal" opacity="100" transform="rotate(-18.0 860.0,247.0) translate(0 15)" x="860.0" y="247.0">проспект 60-летия Октября</text><text fill="#00AFAF" font-family="Arial" font-size="15" font-weight="normal" opacity="100" transform="rotate(-0.0 -87.0,236.0) translate(0 15)" x="-87.0" y="236.0">Профсоюзная улица</text><text fill="#00AFAF" font-family="Arial" font-size="15" font-weight="normal" opacity="100" transform="rotate(90.0 491.0,-24.0) translate(0 15)" x="491.0" y="-24.0">улица Дмитрия Ульянова</text><text fill="#00AFAF" font-family="Arial" font-size="15" font-weight="normal" opacity="100" transform="rotate(90.0 497.0,988.0) translate(0 15)" x="497.0" y="988.0">улица Дмитрия Ульянова</text><text fill="#00AFAF" font-family="Arial" font-size="15" font-weight="normal" opacity="100" transform="rotate(-0.0 646.0,851.0) translate(0 15)" x="646.0" y="851.0">улица Гримау</text><polygon fill="#03795F" opacity="100" points="530.0,401.0 560.0,401.0 560.0,850.0 530.0,850.0" stroke="#000" stroke-width="1" /><polygon fill="#03795F" opacity="100" points="422.0,401.0 452.0,401.0 452.0,850.0 422.0,850.0" stroke="#000" stroke-width="1" /><polyline fill="none" opacity="100" points="452.0,850.0 478.0,850.0 478.0,856.0" stroke="#000" stroke-width="1" /><polyline fill="none" opacity="100" points="509.0,878.0 509.0,850.0 505.0,850.0 505.0,856.0" stroke="#000" stroke-width="1" /><polyline fill="none" opacity="100" points="530.0,850.0 524.0,850.0 524.0,878.0" stroke="#000" stroke-width="1" /><polyline fill="none" opacity="100" points="505.0,893.0 540.0,893.0 540.0,946.0 512.0,946.0 512.0,955.0 620.0,955.0 620.0,1013.0" stroke="#000" stroke-width="1" /><polyline fill="none" opacity="100" points="478.0,893.0 449.0,893.0 449.0,946.0 480.0,946.0 480.0,955.0 371.0,955.0 371.0,1013.0" stroke="#000" stroke-width="1" /><polyline fill="none" opacity="100" points="602.0,1013.0 602.0,973.0 389.0,973.0 389.0,1013.0" stroke="#000" stroke-width="1" /><polyline fill="none" opacity="100" points="468.0,417.0 465.0,417.0 465.0,401.0 452.0,401.0" stroke="#000" stroke-width="1" /><polyline fill="none" opacity="100" points="483.0,417.0 518.0,417.0 518.0,401.0 530.0,401.0" stroke="#000" stroke-width="1" /><polyline fill="none" opacity="100" points="604.0,546.0 604.0,586.0" stroke="#000" stroke-width="0.5" /><polyline fill="none" opacity="100" points="616.0,1013.0 616.0,973.0" stroke="#000" stroke-width="0.5" /><polyline fill="none" opacity="100" points="604.0,584.0 590.0,584.0" stroke="#000" stroke-width="1" /><polyline fill="none" opacity="100" points="604.0,580.0 590.0,580.0" stroke="#000" stroke-width="1" /><polyline fill="none" opacity="100" points="604.0,576.0 590.0,576.0" stroke="#000" stroke-width="1" /><polyline fill="none" opacity="100" points="604.0,572.0 590.0,572.0" stroke="#000" stroke-width="1" /><polyline fill="none" opacity="100" points="604.0,568.0 590.0,568.0" stroke="#000" stroke-width="1" /><polyline fill="none" opacity="100" points="604.0,564.0 590.0,564.0" stroke="#000" stroke-width="1" /><polyline fill="none" opacity="100" points="604.0,560.0 590.0,560.0" stroke="#000" stroke-width="1" /><polyline fill="none" opacity="100" points="604.0,556.0 590.0,556.0" stroke="#000" stroke-width="1" /><polyline fill="none" opacity="100" points="604.0,552.0 590.0,552.0" stroke="#000" stroke-width="1" /><polyline fill="none" opacity="100" points="604.0,548.0 590.0,548.0" stroke="#000" stroke-width="1" /><polyline fill="none" opacity="100" points="359.0,593.0 377.0,593.0" stroke="#000" stroke-width="1" /><polyline fill="none" opacity="100" points="359.0,589.0 377.0,589.0" stroke="#000" stroke-width="1" /><polyline fill="none" opacity="100" points="359.0,585.0 377.0,585.0" stroke="#000" stroke-width="1" /><polyline fill="none" opacity="100" points="359.0,581.0 377.0,581.0" stroke="#000" stroke-width="1" /><polyline fill="none" opacity="100" points="359.0,577.0 377.0,577.0" stroke="#000" stroke-width="1" /><polyline fill="none" opacity="100" points="359.0,573.0 377.0,573.0" stroke="#000" stroke-width="1" /><polyline fill="none" opacity="100" points="359.0,569.0 377.0,569.0" stroke="#000" stroke-width="1" /><polyline fill="none" opacity="100" points="359.0,565.0 377.0,565.0" stroke="#000" stroke-width="1" /><polyline fill="none" opacity="100" points="359.0,561.0 377.0,561.0" stroke="#000" stroke-width="1" /><polyline fill="none" opacity="100" points="359.0,557.0 377.0,557.0" stroke="#000" stroke-width="1" /><polyline fill="none" opacity="100" points="616.0,1011.0 602.0,1011.0" stroke="#000" stroke-width="1" /><polyline fill="none" opacity="100" points="616.0,1007.0 602.0,1007.0" stroke="#000" stroke-width="1" /><polyline fill="none" opacity="100" points="616.0,1003.0 602.0,1003.0" stroke="#000" stroke-width="1" /><polyline fill="none" opacity="100" points="616.0,999.0 602.0,999.0" stroke="#000" stroke-width="1" /><polyline fill="none" opacity="100" points="616.0,995.0 602.0,995.0" stroke="#000" stroke-width="1" /><polyline fill="none" opacity="100" points="616.0,991.0 602.0,991.0" stroke="#000" stroke-width="1" /><polyline fill="none" opacity="100" points="616.0,987.0 602.0,987.0" stroke="#000" stroke-width="1" /><polyline fill="none" opacity="100" points="616.0,983.0 602.0,983.0" stroke="#000" stroke-width="1" /><polyline fill="none" opacity="100" points="616.0,979.0 602.0,979.0" stroke="#000" stroke-width="1" /><polyline fill="none" opacity="100" points="616.0,975.0 602.0,975.0" stroke="#000" stroke-width="1" /><polyline fill="none" opacity="100" points="371.0,1011.0 389.0,1011.0" stroke="#000" stroke-width="1" /><polyline fill="none" opacity="100" points="371.0,1007.0 389.0,1007.0" stroke="#000" stroke-width="1" /><polyline fill="none" opacity="100" points="371.0,1003.0 389.0,1003.0" stroke="#000" stroke-width="1" /><polyline fill="none" opacity="100" points="371.0,999.0 389.0,999.0" stroke="#000" stroke-width="1" /><polyline fill="none" opacity="100" points="371.0,995.0 389.0,995.0" stroke="#000" stroke-width="1" /><polyline fill="none" opacity="100" points="371.0,991.0 389.0,991.0" stroke="#000" stroke-width="1" /><polyline fill="none" opacity="100" points="371.0,987.0 389.0,987.0" stroke="#000" stroke-width="1" /><polyline fill="none" opacity="100" points="371.0,983.0 389.0,983.0" stroke="#000" stroke-width="1" /><polyline fill="none" opacity="100" points="371.0,979.0 389.0,979.0" stroke="#000" stroke-width="1" /><polyline fill="none" opacity="100" points="371.0,975.0 389.0,975.0" stroke="#000" stroke-width="1" /><polyline fill="none" opacity="100" points="498.0,947.0 498.0,921.0" stroke="#000" stroke-width="0.5" /><polyline fill="none" opacity="100" points="476.0,899.0 476.0,924.0" stroke="#000" stroke-width="0.5" /><polyline fill="none" opacity="100" points="523.0,924.0 538.0,924.0" stroke="#000" stroke-width="0.5" /><polyline fill="none" opacity="100" points="494.0,926.0 494.0,922.0" stroke="#090" stroke-width="1" /><polyline fill="none" opacity="100" points="490.0,926.0 490.0,922.0" stroke="#090" stroke-width="1" /><polyline fill="none" opacity="100" points="486.0,926.0 486.0,922.0" stroke="#090" stroke-width="1" /><polyline fill="none" opacity="100" points="482.0,926.0 482.0,922.0" stroke="#090" stroke-width="1" /><polyline fill="none" opacity="100" points="478.0,926.0 478.0,922.0" stroke="#090" stroke-width="1" /><polyline fill="none" opacity="100" points="522.0,922.0 522.0,926.0" stroke="#F00" stroke-width="1" /><polyline fill="none" opacity="100" points="518.0,922.0 518.0,926.0" stroke="#F00" stroke-width="1" /><polyline fill="none" opacity="100" points="514.0,922.0 514.0,926.0" stroke="#F00" stroke-width="1" /><polyline fill="none" opacity="100" points="510.0,922.0 510.0,926.0" stroke="#F00" stroke-width="1" /><polyline fill="none" opacity="100" points="506.0,922.0 506.0,926.0" stroke="#F00" stroke-width="1" /><polyline fill="none" opacity="100" points="502.0,922.0 502.0,926.0" stroke="#F00" stroke-width="1" /><polyline fill="none" opacity="100" points="481.0,895.0 502.0,895.0" stroke="#7F7F7F" stroke-width="1" /><polyline fill="none" opacity="100" points="481.0,891.0 502.0,891.0" stroke="#7F7F7F" stroke-width="1" /><polyline fill="none" opacity="100" points="481.0,887.0 502.0,887.0" stroke="#7F7F7F" stroke-width="1" /><polyline fill="none" opacity="100" points="481.0,883.0 502.0,883.0" stroke="#7F7F7F" stroke-width="1" /><polyline fill="none" opacity="100" points="481.0,879.0 502.0,879.0" stroke="#7F7F7F" stroke-width="1" /><polyline fill="none" opacity="100" points="481.0,875.0 502.0,875.0" stroke="#7F7F7F" stroke-width="1" /><polyline fill="none" opacity="100" points="481.0,871.0 502.0,871.0" stroke="#7F7F7F" stroke-width="1" /><polyline fill="none" opacity="100" points="481.0,867.0 502.0,867.0" stroke="#7F7F7F" stroke-width="1" /><polyline fill="none" opacity="100" points="481.0,863.0 502.0,863.0" stroke="#7F7F7F" stroke-width="1" /><polygon fill="#9B5509" opacity="100" points="502.0,900.0 502.0,856.0 505.0,856.0 505.0,900.0" stroke="#000" stroke-width="1" /><polygon fill="#9B5509" opacity="100" points="497.0,900.0 494.0,900.0 494.0,856.0 497.0,856.0" stroke="#000" stroke-width="1" /><polygon fill="#9B5509" opacity="100" points="489.0,900.0 486.0,900.0 486.0,856.0 489.0,856.0" stroke="#000" stroke-width="1" /><polygon fill="#9B5509" opacity="100" points="481.0,900.0 481.0,856.0 478.0,856.0 478.0,900.0" stroke="#000" stroke-width="1" /><polyline fill="none" opacity="100" points="477.0,504.0 506.0,504.0" stroke="#7F7F7F" stroke-width="1" /><polyline fill="none" opacity="100" points="477.0,500.0 506.0,500.0" stroke="#7F7F7F" stroke-width="1" /><polyline fill="none" opacity="100" points="477.0,496.0 506.0,496.0" stroke="#7F7F7F" stroke-width="1" /><polyline fill="none" opacity="100" points="477.0,492.0 506.0,492.0" stroke="#7F7F7F" stroke-width="1" /><polyline fill="none" opacity="100" points="477.0,488.0 506.0,488.0" stroke="#7F7F7F" stroke-width="1" /><polyline fill="none" opacity="100" points="477.0,484.0 506.0,484.0" stroke="#7F7F7F" stroke-width="1" /><polyline fill="none" opacity="100" points="477.0,480.0 506.0,480.0" stroke="#7F7F7F" stroke-width="1" /><polyline fill="none" opacity="100" points="477.0,476.0 506.0,476.0" stroke="#7F7F7F" stroke-width="1" /><polyline fill="none" opacity="100" points="477.0,472.0 506.0,472.0" stroke="#7F7F7F" stroke-width="1" /><polyline fill="none" opacity="100" points="477.0,468.0 506.0,468.0" stroke="#7F7F7F" stroke-width="1" /><polyline fill="none" opacity="100" points="477.0,464.0 506.0,464.0" stroke="#7F7F7F" stroke-width="1" /><polyline fill="none" opacity="100" points="477.0,460.0 506.0,460.0" stroke="#7F7F7F" stroke-width="1" /><polyline fill="none" opacity="100" points="477.0,456.0 506.0,456.0" stroke="#7F7F7F" stroke-width="1" /><polyline fill="none" opacity="100" points="477.0,452.0 506.0,452.0" stroke="#7F7F7F" stroke-width="1" /><polyline fill="none" opacity="100" points="477.0,448.0 506.0,448.0" stroke="#7F7F7F" stroke-width="1" /><polygon fill="#9B5509" opacity="100" points="506.0,509.0 506.0,443.0 509.0,443.0 509.0,509.0" stroke="#000" stroke-width="1" /><polygon fill="#9B5509" opacity="100" points="493.0,509.0 490.0,509.0 490.0,443.0 493.0,443.0" stroke="#000" stroke-width="1" /><polygon fill="#9B5509" opacity="100" points="501.0,509.0 498.0,509.0 498.0,443.0 501.0,443.0" stroke="#000" stroke-width="1" /><polygon fill="#9B5509" opacity="100" points="485.0,509.0 482.0,509.0 482.0,443.0 485.0,443.0" stroke="#000" stroke-width="1" /><polygon fill="#9B5509" opacity="100" points="477.0,509.0 477.0,443.0 474.0,443.0 474.0,509.0" stroke="#000" stroke-width="1" /><polygon fill="#94949C" opacity="100" points="489.0,718.0 494.0,718.0 494.0,716.0 489.0,716.0" stroke="#94949C" stroke-width="1" /><polygon fill="#F00" opacity="100" points="484.0,718.0 489.0,718.0 489.0,716.0 484.0,716.0" stroke="#F00" stroke-width="1" /><polygon fill="#94949C" opacity="100" points="491.0,520.0 486.0,520.0 486.0,518.0 491.0,518.0" stroke="#94949C" stroke-width="1" /><polygon fill="#F00" opacity="100" points="496.0,520.0 491.0,520.0 491.0,518.0 496.0,518.0" stroke="#F00" stroke-width="1" /><polygon fill="#94949C" opacity="100" points="491.0,426.0 496.0,426.0 496.0,424.0 491.0,424.0" stroke="#94949C" stroke-width="1" /><polygon fill="#F00" opacity="100" points="486.0,426.0 491.0,426.0 491.0,424.0 486.0,424.0" stroke="#F00" stroke-width="1" /><polygon fill="#94949C" opacity="100" points="538.0,937.0 538.0,941.0 536.0,941.0 536.0,937.0" stroke="#94949C" stroke-width="1" /><polygon fill="#F00" opacity="100" points="538.0,933.0 538.0,937.0 536.0,937.0 536.0,933.0" stroke="#F00" stroke-width="1" /><polygon fill="#D0EFFF" opacity="100" points="509.0,893.0 509.0,878.0 524.0,878.0 524.0,893.0" stroke="#000" stroke-width="1" /><text fill="#000" font-family="Arial" font-size="6" font-weight="normal" opacity="100" transform="rotate(-0.0 510.0,882.0) translate(0 6)" x="510.0" y="882.0">лифт</text><polygon fill="#D0EFFF" opacity="100" points="589.0,520.0 599.0,510.0 609.0,520.0 599.0,530.0" stroke="#000" stroke-width="1" /><text fill="#000" font-family="Arial" font-size="6" font-weight="normal" opacity="100" transform="rotate(-0.0 593.0,516.0) translate(0 6)" x="593.0" y="516.0">лифт</text><polygon fill="#D0EFFF" opacity="100" points="602.0,955.0 602.0,940.0 617.0,940.0 617.0,955.0" stroke="#000" stroke-width="1" /><text fill="#000" font-family="Arial" font-size="6" font-weight="normal" opacity="100" transform="rotate(-0.0 603.0,944.0) translate(0 6)" x="603.0" y="944.0">лифт</text><polygon fill="#FFF" opacity="0.7" points="446.0,400.0 446.0,479.0 469.0,479.0 469.0,437.0 514.0,437.0 514.0,479.0 536.0,479.0 536.0,400.0" stroke="#FFF" stroke-width="1" /><polygon fill="#FFF" opacity="0.7" points="446.0,479.0 446.0,513.0 421.0,513.0 421.0,531.0 561.0,531.0 561.0,513.0 536.0,513.0 536.0,479.0" stroke="#FFF" stroke-width="1" /><polygon fill="#FFF" opacity="0.7" points="515.0,282.0 469.0,282.0 469.0,314.0 515.0,314.0" stroke="#FFF" stroke-width="1" /><polyline fill="none" opacity="1.0" points="608.0,586.0 608.0,539.0 582.0,513.0 536.0,513.0 536.0,396.0 515.0,396.0 515.0,260.0 555.0,260.0" stroke="#000" stroke-width="1" /><polyline fill="none" opacity="1.0" points="359.0,595.0 359.0,548.0 394.0,513.0 446.0,513.0 446.0,396.0 469.0,396.0 469.0,260.0 429.0,260.0" stroke="#000" stroke-width="1" /><polyline fill="none" opacity="1.0" points="429.0,242.0 555.0,242.0" stroke="#000" stroke-width="1" /><polyline fill="none" opacity="1.0" points="377.0,595.0 377.0,555.0 401.0,531.0 575.0,531.0 590.0,546.0 590.0,586.0" stroke="#000" stroke-width="1" /><polyline fill="none" opacity="1.0" points="509.0,443.0 509.0,439.0 512.0,439.0 512.0,479.0 471.0,479.0 471.0,439.0 474.0,439.0 474.0,443.0" stroke="#000" stroke-width="1" /><polyline fill="none" opacity="1.0" points="553.0,242.0 553.0,260.0" stroke="#000" stroke-width="1" /><polyline fill="none" opacity="1.0" points="549.0,242.0 549.0,260.0" stroke="#000" stroke-width="1" /><polyline fill="none" opacity="1.0" points="545.0,242.0 545.0,260.0" stroke="#000" stroke-width="1" /><polyline fill="none" opacity="1.0" points="541.0,242.0 541.0,260.0" stroke="#000" stroke-width="1" /><polyline fill="none" opacity="1.0" points="537.0,242.0 537.0,260.0" stroke="#000" stroke-width="1" /><polyline fill="none" opacity="1.0" points="533.0,242.0 533.0,260.0" stroke="#000" stroke-width="1" /><polyline fill="none" opacity="1.0" points="529.0,242.0 529.0,260.0" stroke="#000" stroke-width="1" /><polyline fill="none" opacity="1.0" points="525.0,242.0 525.0,260.0" stroke="#000" stroke-width="1" /><polyline fill="none" opacity="1.0" points="521.0,242.0 521.0,260.0" stroke="#000" stroke-width="1" /><polyline fill="none" opacity="1.0" points="517.0,242.0 517.0,260.0" stroke="#000" stroke-width="1" /><polyline fill="none" opacity="1.0" points="431.0,242.0 431.0,260.0" stroke="#000" stroke-width="1" /><polyline fill="none" opacity="1.0" points="435.0,242.0 435.0,260.0" stroke="#000" stroke-width="1" /><polyline fill="none" opacity="1.0" points="439.0,242.0 439.0,260.0" stroke="#000" stroke-width="1" /><polyline fill="none" opacity="1.0" points="443.0,242.0 443.0,260.0" stroke="#000" stroke-width="1" /><polyline fill="none" opacity="1.0" points="447.0,242.0 447.0,260.0" stroke="#000" stroke-width="1" /><polyline fill="none" opacity="1.0" points="451.0,242.0 451.0,260.0" stroke="#000" stroke-width="1" /><polyline fill="none" opacity="1.0" points="455.0,242.0 455.0,260.0" stroke="#000" stroke-width="1" /><polyline fill="none" opacity="1.0" points="459.0,242.0 459.0,260.0" stroke="#000" stroke-width="1" /><polyline fill="none" opacity="1.0" points="463.0,242.0 463.0,260.0" stroke="#000" stroke-width="1" /><polyline fill="none" opacity="1.0" points="467.0,242.0 467.0,260.0" stroke="#000" stroke-width="1" /><polyline fill="none" opacity="1.0" points="468.0,421.0 472.0,421.0" stroke="#090" stroke-width="1" /><polyline fill="none" opacity="1.0" points="468.0,425.0 472.0,425.0" stroke="#090" stroke-width="1" /><polyline fill="none" opacity="1.0" points="468.0,429.0 472.0,429.0" stroke="#090" stroke-width="1" /><polyline fill="none" opacity="1.0" points="468.0,433.0 472.0,433.0" stroke="#090" stroke-width="1" /><polyline fill="none" opacity="1.0" points="468.0,437.0 472.0,437.0" stroke="#090" stroke-width="1" /><polyline fill="none" opacity="1.0" points="532.0,446.0 532.0,450.0" stroke="#F00" stroke-width="1" /><polyline fill="none" opacity="1.0" points="528.0,446.0 528.0,450.0" stroke="#F00" stroke-width="1" /><polyline fill="none" opacity="1.0" points="524.0,446.0 524.0,450.0" stroke="#F00" stroke-width="1" /><polyline fill="none" opacity="1.0" points="520.0,446.0 520.0,450.0" stroke="#F00" stroke-width="1" /><polyline fill="none" opacity="1.0" points="516.0,446.0 516.0,450.0" stroke="#F00" stroke-width="1" /><polyline fill="none" opacity="1.0" points="450.0,514.0 448.0,530.0" stroke="#F00" stroke-width="1" /><polyline fill="none" opacity="1.0" points="450.0,530.0 448.0,514.0" stroke="#F00" stroke-width="1" /><polyline fill="none" opacity="1.0" points="455.0,956.0 453.0,972.0" stroke="#F00" stroke-width="1" /><polyline fill="none" opacity="1.0" points="455.0,972.0 453.0,956.0" stroke="#F00" stroke-width="1" /><polyline fill="none" opacity="1.0" points="514.0,377.0 470.0,381.0" stroke="#F00" stroke-width="1" /><polyline fill="none" opacity="1.0" points="514.0,381.0 470.0,377.0" stroke="#F00" stroke-width="1" /><polyline fill="none" opacity="1.0" points="552.0,244.0 550.0,258.0" stroke="#F00" stroke-width="1" /><polyline fill="none" opacity="1.0" points="550.0,244.0 552.0,258.0" stroke="#F00" stroke-width="1" /><polyline fill="none" opacity="1.0" points="432.0,244.0 434.0,258.0" stroke="#F00" stroke-width="1" /><polyline fill="none" opacity="1.0" points="434.0,244.0 432.0,258.0" stroke="#F00" stroke-width="1" /><polygon fill="#D0EFFF" opacity="1.0" points="468.0,417.0 468.0,402.0 483.0,402.0 483.0,417.0" stroke="#000" stroke-width="1" /><text fill="#000" font-family="Arial" font-size="6" font-weight="normal" opacity="1.0" transform="rotate(-0.0 469.0,406.0) translate(0 6)" x="469.0" y="406.0">лифт</text><polygon fill="#94949C" opacity="1.0" points="511.0,389.0 511.0,385.0 509.0,385.0 509.0,389.0" stroke="#94949C" stroke-width="1" /><polygon fill="#F00" opacity="1.0" points="511.0,393.0 511.0,389.0 509.0,389.0 509.0,393.0" stroke="#F00" stroke-width="1" /><text fill="#03795F" font-family="Arial" font-size="20" font-weight="normal" opacity="1.0" transform="rotate(90.0 584.0,404.0) translate(0 20)" x="584.0" y="404.0">&lt;&lt; Вавиловская</text><text fill="#03795F" font-family="Arial" font-size="20" font-weight="normal" opacity="1.0" transform="rotate(90.0 422.0,739.0) translate(0 20)" x="422.0" y="739.0">Крымская &gt;&gt;</text><text fill="#03795F" font-family="Arial" font-size="25" font-weight="bold" opacity="1.0" transform="rotate(90.0 509.0,539.0) translate(0 25)" x="509.0" y="539.0">Академическая</text><g transform="rotate(60.0,560.0,465.0)"><text fill="#FFD900" font-family="Arial" font-size="25" font-weight="normal" opacity="1.0" x="267.25" y="796.5">1</text><text fill="#FFD900" font-family="Arial" font-size="25" font-weight="normal" opacity="1.0" x="219.25" y="887.5">2</text><text fill="#FFD900" font-family="Arial" font-size="25" font-weight="normal" opacity="1.0" x="48.25" y="786.5">3</text><text fill="#FFD900" font-family="Arial" font-size="25" font-weight="normal" opacity="1.0" x="29.25" y="667.5">4</text><text fill="#FFD900" font-family="Arial" font-size="25" font-weight="normal" opacity="1.0" x="351.25" y="107.5">5</text><text fill="#FFD900" font-family="Arial" font-size="25" font-weight="normal" opacity="1.0" x="396.25" y="28.5">6</text><text fill="#FFD900" font-family="Arial" font-size="25" font-weight="normal" opacity="1.0" x="641.25" y="158.5">7</text><text fill="#FFD900" font-family="Arial" font-size="25" font-weight="normal" opacity="1.0" x="524.25" y="237.5">8</text><text fill="#FFD900" font-family="Arial" font-size="25" font-weight="normal" opacity="1.0" x="706.25" y="488.5">9</text><text fill="#FFD900" font-family="Arial" font-size="25" font-weight="normal" opacity="1.0" x="1076.25" y="700.5">11</text></g></g></g></svg>