<?xml version="1.0" encoding="utf-8" ?>
<svg baseProfile="tiny" height="1px" version="1.2" width="1px" xmlns="http://www.w3.org/2000/svg" xmlns:ev="http://www.w3.org/2001/xml-events" xmlns:xlink="http://www.w3.org/1999/xlink"><defs /><g><g transform="rotate(-90.0,280.0,585.0)"><polygon fill="#9CA4A4" opacity="100" points="41.0,655.0 41.0,625.0 491.0,625.0 491.0,655.0" stroke="#000" stroke-width="1" /><polygon fill="#9CA4A4" opacity="100" points="491.0,545.0 491.0,515.0 41.0,515.0 41.0,545.0" stroke="#000" stroke-width="1" /><text fill="#4C4C4C" font-family="Arial" font-size="25" font-weight="bold" opacity="100" transform="rotate(-0.0 200.0,555.0) translate(0 25)" x="200.0" y="555.0">Алтуфьево</text><text fill="#4C4C4C" font-family="Arial" font-size="20" font-weight="normal" opacity="100" transform="rotate(-0.0 44.0,492.0) translate(0 20)" x="44.0" y="492.0">&lt;&lt; Бибирево</text><text fill="#4C4C4C" font-family="Arial" font-size="20" font-weight="normal" opacity="100" transform="rotate(-0.0 360.0,655.0) translate(0 20)" x="360.0" y="655.0">посадки нет &gt;&gt;</text><polyline fill="none" opacity="100" points="-70.0,496.0 -106.0,496.0 -106.0,523.0 -9.0,523.0 -9.0,555.0 41.0,555.0 41.0,545.0" stroke="#000" stroke-width="1" /><polyline fill="none" opacity="100" points="-70.0,703.0 -106.0,703.0 -106.0,646.0 -9.0,646.0 -9.0,615.0 41.0,615.0 41.0,625.0" stroke="#000" stroke-width="1" /><polyline fill="none" opacity="100" points="-172.0,496.0 -136.0,496.0 -136.0,703.0 -172.0,703.0" stroke="#000" stroke-width="1" /><polyline fill="none" opacity="100" points="-70.0,727.0 -172.0,727.0" stroke="#000" stroke-width="1" /><polyline fill="none" opacity="100" points="-70.0,473.0 -172.0,473.0" stroke="#000" stroke-width="1" /><polyline fill="none" opacity="100" points="-138.0,473.0 -138.0,496.0" stroke="#000" stroke-width="1" /><polyline fill="none" opacity="100" points="-142.0,473.0 -142.0,496.0" stroke="#000" stroke-width="1" /><polyline fill="none" opacity="100" points="-146.0,473.0 -146.0,496.0" stroke="#000" stroke-width="1" /><polyline fill="none" opacity="100" points="-150.0,473.0 -150.0,496.0" stroke="#000" stroke-width="1" /><polyline fill="none" opacity="100" points="-154.0,473.0 -154.0,496.0" stroke="#000" stroke-width="1" /><polyline fill="none" opacity="100" points="-158.0,473.0 -158.0,496.0" stroke="#000" stroke-width="1" /><polyline fill="none" opacity="100" points="-162.0,473.0 -162.0,496.0" stroke="#000" stroke-width="1" /><polyline fill="none" opacity="100" points="-166.0,473.0 -166.0,496.0" stroke="#000" stroke-width="1" /><polyline fill="none" opacity="100" points="-170.0,473.0 -170.0,496.0" stroke="#000" stroke-width="1" /><polyline fill="none" opacity="100" points="-104.0,727.0 -104.0,703.0" stroke="#000" stroke-width="1" /><polyline fill="none" opacity="100" points="-100.0,727.0 -100.0,703.0" stroke="#000" stroke-width="1" /><polyline fill="none" opacity="100" points="-96.0,727.0 -96.0,703.0" stroke="#000" stroke-width="1" /><polyline fill="none" opacity="100" points="-92.0,727.0 -92.0,703.0" stroke="#000" stroke-width="1" /><polyline fill="none" opacity="100" points="-88.0,727.0 -88.0,703.0" stroke="#000" stroke-width="1" /><polyline fill="none" opacity="100" points="-84.0,727.0 -84.0,703.0" stroke="#000" stroke-width="1" /><polyline fill="none" opacity="100" points="-80.0,727.0 -80.0,703.0" stroke="#000" stroke-width="1" /><polyline fill="none" opacity="100" points="-76.0,727.0 -76.0,703.0" stroke="#000" stroke-width="1" /><polyline fill="none" opacity="100" points="-72.0,727.0 -72.0,703.0" stroke="#000" stroke-width="1" /><polyline fill="none" opacity="100" points="-6.0,555.0 -6.0,615.0" stroke="#000" stroke-width="1" /><polyline fill="none" opacity="100" points="-2.0,555.0 -2.0,615.0" stroke="#000" stroke-width="1" /><polyline fill="none" opacity="100" points="2.0,555.0 2.0,615.0" stroke="#000" stroke-width="1" /><polyline fill="none" opacity="100" points="6.0,555.0 6.0,615.0" stroke="#000" stroke-width="1" /><polyline fill="none" opacity="100" points="10.0,555.0 10.0,615.0" stroke="#000" stroke-width="1" /><polyline fill="none" opacity="100" points="14.0,555.0 14.0,615.0" stroke="#000" stroke-width="1" /><polyline fill="none" opacity="100" points="18.0,555.0 18.0,615.0" stroke="#000" stroke-width="1" /><polyline fill="none" opacity="100" points="22.0,555.0 22.0,615.0" stroke="#000" stroke-width="1" /><polyline fill="none" opacity="100" points="26.0,555.0 26.0,615.0" stroke="#000" stroke-width="1" /><polyline fill="none" opacity="100" points="30.0,555.0 30.0,615.0" stroke="#000" stroke-width="1" /><polyline fill="none" opacity="100" points="34.0,555.0 34.0,615.0" stroke="#000" stroke-width="1" /><polyline fill="none" opacity="100" points="38.0,555.0 38.0,615.0" stroke="#000" stroke-width="1" /><polyline fill="none" opacity="100" points="-72.0,473.0 -72.0,496.0" stroke="#000" stroke-width="1" /><polyline fill="none" opacity="100" points="-76.0,473.0 -76.0,496.0" stroke="#000" stroke-width="1" /><polyline fill="none" opacity="100" points="-80.0,473.0 -80.0,496.0" stroke="#000" stroke-width="1" /><polyline fill="none" opacity="100" points="-84.0,473.0 -84.0,496.0" stroke="#000" stroke-width="1" /><polyline fill="none" opacity="100" points="-88.0,473.0 -88.0,496.0" stroke="#000" stroke-width="1" /><polyline fill="none" opacity="100" points="-92.0,473.0 -92.0,496.0" stroke="#000" stroke-width="1" /><polyline fill="none" opacity="100" points="-96.0,473.0 -96.0,496.0" stroke="#000" stroke-width="1" /><polyline fill="none" opacity="100" points="-100.0,473.0 -100.0,496.0" stroke="#000" stroke-width="1" /><polyline fill="none" opacity="100" points="-104.0,473.0 -104.0,496.0" stroke="#000" stroke-width="1" /><polyline fill="none" opacity="100" points="-170.0,703.0 -170.0,727.0" stroke="#000" stroke-width="1" /><polyline fill="none" opacity="100" points="-166.0,703.0 -166.0,727.0" stroke="#000" stroke-width="1" /><polyline fill="none" opacity="100" points="-162.0,703.0 -162.0,727.0" stroke="#000" stroke-width="1" /><polyline fill="none" opacity="100" points="-158.0,703.0 -158.0,727.0" stroke="#000" stroke-width="1" /><polyline fill="none" opacity="100" points="-154.0,703.0 -154.0,727.0" stroke="#000" stroke-width="1" /><polyline fill="none" opacity="100" points="-150.0,703.0 -150.0,727.0" stroke="#000" stroke-width="1" /><polyline fill="none" opacity="100" points="-146.0,703.0 -146.0,727.0" stroke="#000" stroke-width="1" /><polyline fill="none" opacity="100" points="-142.0,703.0 -142.0,727.0" stroke="#000" stroke-width="1" /><polyline fill="none" opacity="100" points="-138.0,703.0 -138.0,727.0" stroke="#000" stroke-width="1" /><polygon fill="#D0D0D0" opacity="100" points="-98.0,556.0 -106.0,556.0 -106.0,613.0 -98.0,613.0" stroke="#000" stroke-width="1" /><polyline fill="none" opacity="100" points="-9.0,525.0 4.0,525.0 4.0,553.0 -9.0,553.0" stroke="#000" stroke-width="1" /><text fill="#FFF" font-family="Arial" font-size="10" font-weight="normal" opacity="100" transform="rotate(90.0 4.0,527.0) translate(0 10)" x="4.0" y="527.0">кассы</text><polyline fill="none" opacity="100" points="-9.0,554.0 -41.0,554.0" stroke="#000" stroke-width="0.5" /><polyline fill="none" opacity="100" points="-63.0,613.0 -98.0,613.0" stroke="#000" stroke-width="0.5" /><polygon fill="none" opacity="100" points="-68.0,611.0 -66.0,606.0 -61.0,608.0 -63.0,613.0" stroke="#000" stroke-width="1" /><polyline fill="none" opacity="100" points="-64.0,603.0 -59.0,605.0" stroke="#090" stroke-width="1" /><polyline fill="none" opacity="100" points="-62.3616,599.3509 -57.3616,601.3509" stroke="#090" stroke-width="1" /><polyline fill="none" opacity="100" points="-60.7233,595.7018 -55.7233,597.7018" stroke="#090" stroke-width="1" /><polyline fill="none" opacity="100" points="-59.0849,592.0528 -54.0849,594.0528" stroke="#090" stroke-width="1" /><polyline fill="none" opacity="100" points="-57.4466,588.4037 -52.4466,590.4037" stroke="#090" stroke-width="1" /><polyline fill="none" opacity="100" points="-55.8082,584.7546 -50.8082,586.7546" stroke="#090" stroke-width="1" /><polyline fill="none" opacity="100" points="-54.1698,581.1055 -49.1698,583.1055" stroke="#090" stroke-width="1" /><polyline fill="none" opacity="100" points="-52.5315,577.4565 -47.5315,579.4565" stroke="#090" stroke-width="1" /><polyline fill="none" opacity="100" points="-50.8931,573.8074 -45.8931,575.8074" stroke="#090" stroke-width="1" /><polyline fill="none" opacity="100" points="-49.2547,570.1583 -44.2547,572.1583" stroke="#090" stroke-width="1" /><polyline fill="none" opacity="100" points="-47.6164,566.5092 -42.6164,568.5092" stroke="#090" stroke-width="1" /><polyline fill="none" opacity="100" points="-45.978,562.8601 -40.978,564.8601" stroke="#090" stroke-width="1" /><polyline fill="none" opacity="100" points="-44.3397,559.2111 -39.3397,561.2111" stroke="#090" stroke-width="1" /><polyline fill="none" opacity="100" points="-42.7013,555.562 -37.7013,557.562" stroke="#090" stroke-width="1" /><polyline fill="none" opacity="100" points="-63.0,618.0 -69.0,618.0" stroke="#F00" stroke-width="1" /><polyline fill="none" opacity="100" points="-63.0,622.0 -69.0,622.0" stroke="#F00" stroke-width="1" /><polyline fill="none" opacity="100" points="-63.0,626.0 -69.0,626.0" stroke="#F00" stroke-width="1" /><polyline fill="none" opacity="100" points="-63.0,630.0 -69.0,630.0" stroke="#F00" stroke-width="1" /><polyline fill="none" opacity="100" points="-63.0,634.0 -69.0,634.0" stroke="#F00" stroke-width="1" /><polyline fill="none" opacity="100" points="-63.0,638.0 -69.0,638.0" stroke="#F00" stroke-width="1" /><polyline fill="none" opacity="100" points="-63.0,642.0 -69.0,642.0" stroke="#F00" stroke-width="1" /><polyline fill="none" opacity="100" points="603.0,472.0 639.0,472.0 639.0,523.0 540.0,523.0 540.0,555.0 491.0,555.0 491.0,545.0" stroke="#000" stroke-width="1" /><polyline fill="none" opacity="100" points="603.0,703.0 639.0,703.0 639.0,646.0 540.0,646.0 540.0,615.0 491.0,615.0 491.0,625.0" stroke="#000" stroke-width="1" /><polyline fill="none" opacity="100" points="603.0,448.0 706.0,448.0" stroke="#000" stroke-width="1" /><polyline fill="none" opacity="100" points="706.0,472.0 670.0,472.0 670.0,703.0 706.0,703.0" stroke="#000" stroke-width="1" /><polyline fill="none" opacity="100" points="603.0,727.0 706.0,727.0" stroke="#000" stroke-width="1" /><polyline fill="none" opacity="100" points="493.0,555.0 493.0,615.0" stroke="#000" stroke-width="1" /><polyline fill="none" opacity="100" points="497.0,555.0 497.0,615.0" stroke="#000" stroke-width="1" /><polyline fill="none" opacity="100" points="501.0,555.0 501.0,615.0" stroke="#000" stroke-width="1" /><polyline fill="none" opacity="100" points="505.0,555.0 505.0,615.0" stroke="#000" stroke-width="1" /><polyline fill="none" opacity="100" points="509.0,555.0 509.0,615.0" stroke="#000" stroke-width="1" /><polyline fill="none" opacity="100" points="513.0,555.0 513.0,615.0" stroke="#000" stroke-width="1" /><polyline fill="none" opacity="100" points="517.0,555.0 517.0,615.0" stroke="#000" stroke-width="1" /><polyline fill="none" opacity="100" points="521.0,555.0 521.0,615.0" stroke="#000" stroke-width="1" /><polyline fill="none" opacity="100" points="525.0,555.0 525.0,615.0" stroke="#000" stroke-width="1" /><polyline fill="none" opacity="100" points="529.0,555.0 529.0,615.0" stroke="#000" stroke-width="1" /><polyline fill="none" opacity="100" points="533.0,555.0 533.0,615.0" stroke="#000" stroke-width="1" /><polyline fill="none" opacity="100" points="537.0,555.0 537.0,615.0" stroke="#000" stroke-width="1" /><polyline fill="none" opacity="100" points="605.0,472.0 605.0,448.0" stroke="#000" stroke-width="1" /><polyline fill="none" opacity="100" points="609.0,472.0 609.0,448.0" stroke="#000" stroke-width="1" /><polyline fill="none" opacity="100" points="613.0,472.0 613.0,448.0" stroke="#000" stroke-width="1" /><polyline fill="none" opacity="100" points="617.0,472.0 617.0,448.0" stroke="#000" stroke-width="1" /><polyline fill="none" opacity="100" points="621.0,472.0 621.0,448.0" stroke="#000" stroke-width="1" /><polyline fill="none" opacity="100" points="625.0,472.0 625.0,448.0" stroke="#000" stroke-width="1" /><polyline fill="none" opacity="100" points="629.0,472.0 629.0,448.0" stroke="#000" stroke-width="1" /><polyline fill="none" opacity="100" points="633.0,472.0 633.0,448.0" stroke="#000" stroke-width="1" /><polyline fill="none" opacity="100" points="637.0,472.0 637.0,448.0" stroke="#000" stroke-width="1" /><polyline fill="none" opacity="100" points="605.0,727.0 605.0,703.0" stroke="#000" stroke-width="1" /><polyline fill="none" opacity="100" points="609.0,727.0 609.0,703.0" stroke="#000" stroke-width="1" /><polyline fill="none" opacity="100" points="613.0,727.0 613.0,703.0" stroke="#000" stroke-width="1" /><polyline fill="none" opacity="100" points="617.0,727.0 617.0,703.0" stroke="#000" stroke-width="1" /><polyline fill="none" opacity="100" points="621.0,727.0 621.0,703.0" stroke="#000" stroke-width="1" /><polyline fill="none" opacity="100" points="625.0,727.0 625.0,703.0" stroke="#000" stroke-width="1" /><polyline fill="none" opacity="100" points="629.0,727.0 629.0,703.0" stroke="#000" stroke-width="1" /><polyline fill="none" opacity="100" points="633.0,727.0 633.0,703.0" stroke="#000" stroke-width="1" /><polyline fill="none" opacity="100" points="637.0,727.0 637.0,703.0" stroke="#000" stroke-width="1" /><polyline fill="none" opacity="100" points="672.0,472.0 672.0,448.0" stroke="#000" stroke-width="1" /><polyline fill="none" opacity="100" points="676.0,472.0 676.0,448.0" stroke="#000" stroke-width="1" /><polyline fill="none" opacity="100" points="680.0,472.0 680.0,448.0" stroke="#000" stroke-width="1" /><polyline fill="none" opacity="100" points="684.0,472.0 684.0,448.0" stroke="#000" stroke-width="1" /><polyline fill="none" opacity="100" points="688.0,472.0 688.0,448.0" stroke="#000" stroke-width="1" /><polyline fill="none" opacity="100" points="692.0,472.0 692.0,448.0" stroke="#000" stroke-width="1" /><polyline fill="none" opacity="100" points="696.0,472.0 696.0,448.0" stroke="#000" stroke-width="1" /><polyline fill="none" opacity="100" points="700.0,472.0 700.0,448.0" stroke="#000" stroke-width="1" /><polyline fill="none" opacity="100" points="704.0,472.0 704.0,448.0" stroke="#000" stroke-width="1" /><polyline fill="none" opacity="100" points="672.0,727.0 672.0,703.0" stroke="#000" stroke-width="1" /><polyline fill="none" opacity="100" points="676.0,727.0 676.0,703.0" stroke="#000" stroke-width="1" /><polyline fill="none" opacity="100" points="680.0,727.0 680.0,703.0" stroke="#000" stroke-width="1" /><polyline fill="none" opacity="100" points="684.0,727.0 684.0,703.0" stroke="#000" stroke-width="1" /><polyline fill="none" opacity="100" points="688.0,727.0 688.0,703.0" stroke="#000" stroke-width="1" /><polyline fill="none" opacity="100" points="692.0,727.0 692.0,703.0" stroke="#000" stroke-width="1" /><polyline fill="none" opacity="100" points="696.0,727.0 696.0,703.0" stroke="#000" stroke-width="1" /><polyline fill="none" opacity="100" points="700.0,727.0 700.0,703.0" stroke="#000" stroke-width="1" /><polyline fill="none" opacity="100" points="704.0,727.0 704.0,703.0" stroke="#000" stroke-width="1" /><polygon fill="#D0D0D0" opacity="100" points="639.0,556.0 631.0,556.0 631.0,613.0 639.0,613.0" stroke="#000" stroke-width="1" /><polyline fill="none" opacity="100" points="540.0,554.0 571.0,554.0" stroke="#000" stroke-width="0.5" /><polygon fill="none" opacity="100" points="601.0,611.0 599.0,606.0 594.0,608.0 596.0,613.0" stroke="#000" stroke-width="1" /><polyline fill="none" opacity="100" points="596.0,613.0 631.0,613.0" stroke="#000" stroke-width="0.5" /><polyline fill="none" opacity="100" points="593.0,604.0 598.0,602.0" stroke="#090" stroke-width="1" /><polyline fill="none" opacity="100" points="591.4884,600.2966 596.4884,598.2966" stroke="#090" stroke-width="1" /><polyline fill="none" opacity="100" points="589.9768,596.5932 594.9768,594.5932" stroke="#090" stroke-width="1" /><polyline fill="none" opacity="100" points="588.4652,592.8898 593.4652,590.8898" stroke="#090" stroke-width="1" /><polyline fill="none" opacity="100" points="586.9536,589.1864 591.9536,587.1864" stroke="#090" stroke-width="1" /><polyline fill="none" opacity="100" points="585.4421,585.483 590.4421,583.483" stroke="#090" stroke-width="1" /><polyline fill="none" opacity="100" points="583.9305,581.7797 588.9305,579.7797" stroke="#090" stroke-width="1" /><polyline fill="none" opacity="100" points="582.4189,578.0763 587.4189,576.0763" stroke="#090" stroke-width="1" /><polyline fill="none" opacity="100" points="580.9073,574.3729 585.9073,572.3729" stroke="#090" stroke-width="1" /><polyline fill="none" opacity="100" points="579.3957,570.6695 584.3957,568.6695" stroke="#090" stroke-width="1" /><polyline fill="none" opacity="100" points="577.8841,566.9661 582.8841,564.9661" stroke="#090" stroke-width="1" /><polyline fill="none" opacity="100" points="576.3725,563.2627 581.3725,561.2627" stroke="#090" stroke-width="1" /><polyline fill="none" opacity="100" points="574.8609,559.5593 579.8609,557.5593" stroke="#090" stroke-width="1" /><polyline fill="none" opacity="100" points="573.3494,555.8559 578.3494,553.8559" stroke="#090" stroke-width="1" /><polyline fill="none" opacity="100" points="601.0,617.0 595.0,617.0" stroke="#F00" stroke-width="1" /><polyline fill="none" opacity="100" points="601.0,621.0 595.0,621.0" stroke="#F00" stroke-width="1" /><polyline fill="none" opacity="100" points="601.0,625.0 595.0,625.0" stroke="#F00" stroke-width="1" /><polyline fill="none" opacity="100" points="601.0,629.0 595.0,629.0" stroke="#F00" stroke-width="1" /><polyline fill="none" opacity="100" points="601.0,633.0 595.0,633.0" stroke="#F00" stroke-width="1" /><polyline fill="none" opacity="100" points="601.0,637.0 595.0,637.0" stroke="#F00" stroke-width="1" /><polyline fill="none" opacity="100" points="601.0,641.0 595.0,641.0" stroke="#F00" stroke-width="1" /><polyline fill="none" opacity="100" points="540.0,525.0 527.0,525.0 527.0,553.0 540.0,553.0" stroke="#000" stroke-width="1" /><text fill="#000" font-family="Arial" font-size="10" font-weight="normal" opacity="100" transform="rotate(90.0 540.0,528.0) translate(0 10)" x="540.0" y="528.0">кассы</text><polyline fill="none" opacity="100" points="622.0,629.0 635.0,629.0" stroke="#F00" stroke-width="1" /><polygon fill="#F00" opacity="100" points="631.2329,630.0094 635.0,629.0 631.2329,627.9906" stroke="#F00" stroke-width="1" /><polyline fill="none" opacity="100" points="-89.0,630.0 -103.0,630.0" stroke="#F00" stroke-width="1" /><polygon fill="#F00" opacity="100" points="-98.9431,628.913 -103.0,630.0 -98.9431,631.087" stroke="#F00" stroke-width="1" /><polyline fill="none" opacity="100" points="608.0,548.0 596.0,553.0" stroke="#090" stroke-width="1" /><polygon fill="#090" opacity="100" points="599.0891,550.6194 596.0,553.0 599.8656,552.4829" stroke="#090" stroke-width="1" /><polyline fill="none" opacity="100" points="-73.0,561.0 -61.0,566.0" stroke="#090" stroke-width="1" /><polygon fill="#090" opacity="100" points="-64.8656,565.4829 -61.0,566.0 -64.0891,563.6194" stroke="#090" stroke-width="1" /><polygon fill="#34349C" opacity="100" points="561.0,558.0 566.0,558.0 566.0,556.0 561.0,556.0" stroke="#34349C" stroke-width="1" /><polygon fill="#34349C" opacity="100" points="251.0,588.0 251.0,583.0 249.0,583.0 249.0,588.0" stroke="#34349C" stroke-width="1" /><polygon fill="#34349C" opacity="100" points="-27.0,558.0 -22.0,558.0 -22.0,556.0 -27.0,556.0" stroke="#34349C" stroke-width="1" /><polygon fill="#F00" opacity="100" points="556.0,558.0 561.0,558.0 561.0,556.0 556.0,556.0" stroke="#F00" stroke-width="1" /><polygon fill="#F00" opacity="100" points="251.0,593.0 251.0,588.0 249.0,588.0 249.0,593.0" stroke="#F00" stroke-width="1" /><polygon fill="#F00" opacity="100" points="-32.0,558.0 -27.0,558.0 -27.0,556.0 -32.0,556.0" stroke="#F00" stroke-width="1" /><text fill="#00AFAF" font-family="Arial" font-size="15" font-weight="normal" opacity="100" transform="rotate(-0.0 704.0,587.0) translate(0 15)" x="704.0" y="587.0">Алтуфьевское шоссе</text><text fill="#00AFAF" font-family="Arial" font-size="15" font-weight="normal" opacity="100" transform="rotate(-0.0 -298.0,587.0) translate(0 15)" x="-298.0" y="587.0">Алтуфьевское шоссе</text><text fill="#00AFAF" font-family="Arial" font-size="15" font-weight="normal" opacity="100" transform="rotate(90.0 450.0,319.0) translate(0 15)" x="450.0" y="319.0">Череповецкая улица</text><text fill="#00AFAF" font-family="Arial" font-size="15" font-weight="normal" opacity="100" transform="rotate(90.0 450.0,759.0) translate(0 15)" x="450.0" y="759.0">улица Лескова</text><text fill="#00AFAF" font-family="Arial" font-size="15" font-weight="normal" opacity="100" transform="rotate(90.0 400.0,759.0) translate(0 15)" x="400.0" y="759.0">Макдональдс</text><g transform="rotate(90.0,0.5,0.5)"><text fill="#FFD900" font-family="Arial" font-size="25" font-weight="normal" opacity="100" x="111.25" y="259.5">1</text><text fill="#FFD900" font-family="Arial" font-size="25" font-weight="normal" opacity="100" x="111.25" y="180.5">2</text><text fill="#FFD900" font-family="Arial" font-size="25" font-weight="normal" opacity="100" x="432.25" y="180.5">3</text><text fill="#FFD900" font-family="Arial" font-size="25" font-weight="normal" opacity="100" x="431.25" y="254.5">4</text><text fill="#FFD900" font-family="Arial" font-size="25" font-weight="normal" opacity="100" x="431.25" y="961.5">5</text><text fill="#FFD900" font-family="Arial" font-size="25" font-weight="normal" opacity="100" x="431.25" y="1027.5">6</text><text fill="#FFD900" font-family="Arial" font-size="25" font-weight="normal" opacity="100" x="137.25" y="1029.5">7</text><text fill="#FFD900" font-family="Arial" font-size="25" font-weight="normal" opacity="100" x="137.25" y="959.5">8</text><text fill="#FFD900" font-family="Arial" font-size="25" font-weight="normal" opacity="100" x="14.25" y="423.5">9</text><text fill="#FFD900" font-family="Arial" font-size="25" font-weight="normal" opacity="100" x="8.25" y="473.5">10</text><text fill="#FFD900" font-family="Arial" font-size="25" font-weight="normal" opacity="100" x="8.25" y="523.5">11</text><text fill="#FFD900" font-family="Arial" font-size="25" font-weight="normal" opacity="100" x="8.25" y="573.5">12</text><text fill="#FFD900" font-family="Arial" font-size="25" font-weight="normal" opacity="100" x="8.25" y="623.5">13</text><text fill="#FFD900" font-family="Arial" font-size="25" font-weight="normal" opacity="100" x="8.25" y="673.5">14</text></g></g></g></svg>