<?xml version="1.0" encoding="utf-8" ?>
<svg baseProfile="tiny" height="990px" version="1.2" width="490px" xmlns="http://www.w3.org/2000/svg" xmlns:ev="http://www.w3.org/2001/xml-events" xmlns:xlink="http://www.w3.org/1999/xlink"><defs /><g><g transform="rotate(-80.0,245.0,495.0)"><text fill="#4C4C4C" font-family="Arial" font-size="20" font-weight="normal" opacity="100" transform="rotate(-0.0 105.0,514.0) translate(0 20)" x="105.0" y="514.0">Улица Академика Янгеля &gt;&gt;</text><text fill="#4C4C4C" font-family="Arial" font-size="20" font-weight="normal" opacity="100" transform="rotate(-0.0 -99.0,349.0) translate(0 20)" x="-99.0" y="349.0">&lt;&lt; Бульвар Дмитрия Донского</text><text fill="#4C4C4C" font-family="Arial" font-size="25" font-weight="bold" opacity="100" transform="rotate(-0.0 73.0,415.0) translate(0 25)" x="73.0" y="415.0">Аннино</text><text fill="#00AFAF" font-family="Arial" font-size="15" font-weight="normal" opacity="100" transform="rotate(-0.0 456.0,658.0) translate(0 15)" x="456.0" y="658.0">Варшавское шоссе</text><polygon fill="#9CA4A4" opacity="100" points="-100.0,373.0 350.0,373.0 350.0,403.0 -100.0,403.0" stroke="#000" stroke-width="1" /><polygon fill="#9CA4A4" opacity="100" points="-100.0,484.0 350.0,484.0 350.0,514.0 -100.0,514.0" stroke="#000" stroke-width="1" /><polygon fill="#D0D0D0" opacity="100" points="583.0,413.0 613.0,413.0 621.0,418.0 630.0,427.0 634.0,438.0 634.0,448.0 630.0,459.0 621.0,468.0 613.0,473.0 583.0,473.0" stroke="#D0D0D0" stroke-width="1" /><polyline fill="none" opacity="100" points="613.0,413.0 583.0,413.0 583.0,473.0 613.0,473.0" stroke="#000" stroke-width="1" /><polyline fill="none" opacity="100" points="688.0,219.0 623.0,219.0 623.0,370.0 469.0,370.0 469.0,398.0 405.0,398.0 405.0,420.0 350.0,420.0 350.0,403.0" stroke="#000" stroke-width="1" /><polyline fill="none" opacity="100" points="688.0,243.0 652.0,243.0 652.0,370.0 694.0,370.0 694.0,516.0 652.0,516.0 652.0,622.0 694.0,622.0" stroke="#000" stroke-width="1" /><polyline fill="none" opacity="100" points="694.0,645.0 623.0,645.0 623.0,589.0 587.0,589.0" stroke="#000" stroke-width="1" /><polyline fill="none" opacity="100" points="587.0,566.0 623.0,566.0 623.0,516.0 469.0,516.0 469.0,489.0 405.0,489.0 405.0,468.0 350.0,468.0 350.0,484.0" stroke="#000" stroke-width="1" /><polyline fill="none" opacity="100" points="613.0,413.0 616.4141,414.9219 619.5312,416.9375 622.3516,419.0498 624.875,421.25 627.1016,423.5205 629.0312,425.8906 630.6641,428.3691 632.0,431.0 633.0391,433.8652 633.7812,436.8594 634.2266,439.9121 634.375,443.0 634.2266,446.0879 633.7812,449.1406 633.0391,452.1348 632.0,455.0 630.6641,457.6309 629.0312,460.1094 627.1016,462.4795 624.875,464.75 622.3516,466.9502 619.5312,469.0625 616.4141,471.0781 613.0,473.0" stroke="#000" stroke-width="1" /><polyline fill="none" opacity="100" points="583.0,413.0 579.4062,414.9219 576.125,416.9375 573.1562,419.0498 570.5,421.25 568.1562,423.5205 566.125,425.8906 564.4062,428.3691 563.0,431.0 561.9062,433.8652 561.125,436.8594 560.6562,439.9121 560.5,443.0 560.6562,446.0879 561.125,449.1406 561.9062,452.1348 563.0,455.0 564.4062,457.6309 566.125,460.1094 568.1562,462.4795 570.5,464.75 573.1562,466.9502 576.125,469.0625 579.4062,471.0781 583.0,473.0" stroke="#000" stroke-width="1" /><polyline fill="none" opacity="100" points="589.0,566.0 589.0,589.0" stroke="#000" stroke-width="1" /><polyline fill="none" opacity="100" points="593.0,566.0 593.0,589.0" stroke="#000" stroke-width="1" /><polyline fill="none" opacity="100" points="597.0,566.0 597.0,589.0" stroke="#000" stroke-width="1" /><polyline fill="none" opacity="100" points="601.0,566.0 601.0,589.0" stroke="#000" stroke-width="1" /><polyline fill="none" opacity="100" points="605.0,566.0 605.0,589.0" stroke="#000" stroke-width="1" /><polyline fill="none" opacity="100" points="609.0,566.0 609.0,589.0" stroke="#000" stroke-width="1" /><polyline fill="none" opacity="100" points="613.0,566.0 613.0,589.0" stroke="#000" stroke-width="1" /><polyline fill="none" opacity="100" points="617.0,566.0 617.0,589.0" stroke="#000" stroke-width="1" /><polyline fill="none" opacity="100" points="621.0,566.0 621.0,589.0" stroke="#000" stroke-width="1" /><polyline fill="none" opacity="100" points="692.0,622.0 692.0,645.0" stroke="#000" stroke-width="1" /><polyline fill="none" opacity="100" points="688.0,622.0 688.0,645.0" stroke="#000" stroke-width="1" /><polyline fill="none" opacity="100" points="684.0,622.0 684.0,645.0" stroke="#000" stroke-width="1" /><polyline fill="none" opacity="100" points="680.0,622.0 680.0,645.0" stroke="#000" stroke-width="1" /><polyline fill="none" opacity="100" points="676.0,622.0 676.0,645.0" stroke="#000" stroke-width="1" /><polyline fill="none" opacity="100" points="672.0,622.0 672.0,645.0" stroke="#000" stroke-width="1" /><polyline fill="none" opacity="100" points="668.0,622.0 668.0,645.0" stroke="#000" stroke-width="1" /><polyline fill="none" opacity="100" points="664.0,622.0 664.0,645.0" stroke="#000" stroke-width="1" /><polyline fill="none" opacity="100" points="660.0,622.0 660.0,645.0" stroke="#000" stroke-width="1" /><polyline fill="none" opacity="100" points="656.0,622.0 656.0,645.0" stroke="#000" stroke-width="1" /><polyline fill="none" opacity="100" points="686.0,243.0 686.0,219.0" stroke="#000" stroke-width="1" /><polyline fill="none" opacity="100" points="682.0,243.0 682.0,219.0" stroke="#000" stroke-width="1" /><polyline fill="none" opacity="100" points="678.0,243.0 678.0,219.0" stroke="#000" stroke-width="1" /><polyline fill="none" opacity="100" points="674.0,243.0 674.0,219.0" stroke="#000" stroke-width="1" /><polyline fill="none" opacity="100" points="670.0,243.0 670.0,219.0" stroke="#000" stroke-width="1" /><polyline fill="none" opacity="100" points="666.0,243.0 666.0,219.0" stroke="#000" stroke-width="1" /><polyline fill="none" opacity="100" points="662.0,243.0 662.0,219.0" stroke="#000" stroke-width="1" /><polyline fill="none" opacity="100" points="658.0,243.0 658.0,219.0" stroke="#000" stroke-width="1" /><polyline fill="none" opacity="100" points="654.0,243.0 654.0,219.0" stroke="#000" stroke-width="1" /><text fill="#000" font-family="Arial" font-size="14" font-weight="normal" opacity="100" transform="rotate(90.0 583.0,427.0) translate(0 14)" x="583.0" y="427.0">кассы</text><polyline fill="none" opacity="100" points="524.0,468.0 520.0,468.0" stroke="#F00" stroke-width="1" /><polyline fill="none" opacity="100" points="524.0,472.0 520.0,472.0" stroke="#F00" stroke-width="1" /><polyline fill="none" opacity="100" points="524.0,476.0 520.0,476.0" stroke="#F00" stroke-width="1" /><polyline fill="none" opacity="100" points="524.0,480.0 520.0,480.0" stroke="#F00" stroke-width="1" /><polyline fill="none" opacity="100" points="524.0,484.0 520.0,484.0" stroke="#F00" stroke-width="1" /><polyline fill="none" opacity="100" points="524.0,488.0 520.0,488.0" stroke="#F00" stroke-width="1" /><polyline fill="none" opacity="100" points="524.0,492.0 520.0,492.0" stroke="#F00" stroke-width="1" /><polyline fill="none" opacity="100" points="524.0,496.0 520.0,496.0" stroke="#F00" stroke-width="1" /><polyline fill="none" opacity="100" points="524.0,500.0 520.0,500.0" stroke="#F00" stroke-width="1" /><polyline fill="none" opacity="100" points="524.0,504.0 520.0,504.0" stroke="#F00" stroke-width="1" /><polyline fill="none" opacity="100" points="524.0,508.0 520.0,508.0" stroke="#F00" stroke-width="1" /><polyline fill="none" opacity="100" points="524.0,512.0 520.0,512.0" stroke="#F00" stroke-width="1" /><polyline fill="none" opacity="100" points="515.0,387.0 511.0,388.0" stroke="#090" stroke-width="1" /><polyline fill="none" opacity="100" points="515.8381,390.9112 511.8381,391.9112" stroke="#090" stroke-width="1" /><polyline fill="none" opacity="100" points="516.6762,394.8224 512.6762,395.8224" stroke="#090" stroke-width="1" /><polyline fill="none" opacity="100" points="517.5143,398.7336 513.5143,399.7336" stroke="#090" stroke-width="1" /><polyline fill="none" opacity="100" points="518.3525,402.6448 514.3525,403.6448" stroke="#090" stroke-width="1" /><polyline fill="none" opacity="100" points="519.1906,406.556 515.1906,407.556" stroke="#090" stroke-width="1" /><polyline fill="none" opacity="100" points="520.0287,410.4673 516.0287,411.4673" stroke="#090" stroke-width="1" /><polyline fill="none" opacity="100" points="520.8668,414.3785 516.8668,415.3785" stroke="#090" stroke-width="1" /><polyline fill="none" opacity="100" points="521.7049,418.2897 517.7049,419.2897" stroke="#090" stroke-width="1" /><polyline fill="none" opacity="100" points="522.543,422.2009 518.543,423.2009" stroke="#090" stroke-width="1" /><polyline fill="none" opacity="100" points="523.3812,426.1121 519.3812,427.1121" stroke="#090" stroke-width="1" /><polygon fill="none" opacity="100" points="506.0,376.0 514.0,374.0 516.0,382.0 508.0,384.0" stroke="#000" stroke-width="1" /><polyline fill="none" opacity="100" points="522.0,428.0 522.0,466.0" stroke="#000" stroke-width="0.5" /><polyline fill="none" opacity="100" points="354.0,421.0 354.0,467.0" stroke="#7F7F7F" stroke-width="1" /><polyline fill="none" opacity="100" points="358.0,421.0 358.0,467.0" stroke="#7F7F7F" stroke-width="1" /><polyline fill="none" opacity="100" points="362.0,421.0 362.0,467.0" stroke="#7F7F7F" stroke-width="1" /><polyline fill="none" opacity="100" points="366.0,421.0 366.0,467.0" stroke="#7F7F7F" stroke-width="1" /><polyline fill="none" opacity="100" points="370.0,421.0 370.0,467.0" stroke="#7F7F7F" stroke-width="1" /><polyline fill="none" opacity="100" points="374.0,421.0 374.0,467.0" stroke="#7F7F7F" stroke-width="1" /><polyline fill="none" opacity="100" points="378.0,421.0 378.0,467.0" stroke="#7F7F7F" stroke-width="1" /><polyline fill="none" opacity="100" points="382.0,421.0 382.0,467.0" stroke="#7F7F7F" stroke-width="1" /><polyline fill="none" opacity="100" points="386.0,421.0 386.0,467.0" stroke="#7F7F7F" stroke-width="1" /><polyline fill="none" opacity="100" points="390.0,421.0 390.0,467.0" stroke="#7F7F7F" stroke-width="1" /><polyline fill="none" opacity="100" points="394.0,421.0 394.0,467.0" stroke="#7F7F7F" stroke-width="1" /><polyline fill="none" opacity="100" points="398.0,421.0 398.0,467.0" stroke="#7F7F7F" stroke-width="1" /><polyline fill="none" opacity="100" points="402.0,421.0 402.0,467.0" stroke="#7F7F7F" stroke-width="1" /><polyline fill="none" opacity="100" points="406.0,421.0 406.0,467.0" stroke="#7F7F7F" stroke-width="1" /><polyline fill="none" opacity="100" points="410.0,421.0 410.0,467.0" stroke="#7F7F7F" stroke-width="1" /><polyline fill="none" opacity="100" points="414.0,421.0 414.0,467.0" stroke="#7F7F7F" stroke-width="1" /><polyline fill="none" opacity="100" points="418.0,421.0 418.0,467.0" stroke="#7F7F7F" stroke-width="1" /><polyline fill="none" opacity="100" points="422.0,421.0 422.0,467.0" stroke="#7F7F7F" stroke-width="1" /><polyline fill="none" opacity="100" points="426.0,421.0 426.0,467.0" stroke="#7F7F7F" stroke-width="1" /><polygon fill="#9B5509" opacity="100" points="433.0,449.0 350.0,449.0 350.0,455.0 433.0,455.0" stroke="#000" stroke-width="1" /><polygon fill="#9B5509" opacity="100" points="433.0,465.0 350.0,465.0 350.0,468.0 433.0,468.0" stroke="#000" stroke-width="1" /><polygon fill="#9B5509" opacity="100" points="433.0,420.0 350.0,420.0 350.0,423.0 433.0,423.0" stroke="#000" stroke-width="1" /><polygon fill="#9B5509" opacity="100" points="433.0,433.0 350.0,433.0 350.0,439.0 433.0,439.0" stroke="#000" stroke-width="1" /><polyline fill="none" opacity="100" points="582.0,495.0 599.0,495.0" stroke="#F00" stroke-width="1" /><polygon fill="#F00" opacity="100" points="594.0738,496.32 599.0,495.0 594.0738,493.68" stroke="#F00" stroke-width="1" /><polyline fill="none" opacity="100" points="599.0,392.0 582.0,392.0" stroke="#090" stroke-width="1" /><polygon fill="#090" opacity="100" points="586.9262,390.68 582.0,392.0 586.9262,393.32" stroke="#090" stroke-width="1" /><polyline fill="none" opacity="100" points="-100.0,403.0 -100.0,410.0 -169.0,410.0 -169.0,387.0 -262.0,387.0" stroke="#000" stroke-width="1" /><polyline fill="none" opacity="100" points="-262.0,392.0 -214.0,392.0" stroke="#000" stroke-width="1" /><polyline fill="none" opacity="100" points="-100.0,484.0 -100.0,477.0 -214.0,477.0 -214.0,410.0 -262.0,410.0" stroke="#000" stroke-width="1" /><polyline fill="none" opacity="100" points="-100.0,470.0 -169.0,470.0" stroke="#000" stroke-width="1" /><polyline fill="none" opacity="100" points="-106.0,410.0 -106.0,470.0" stroke="#000" stroke-width="1" /><polyline fill="none" opacity="100" points="-110.0,410.0 -110.0,470.0" stroke="#000" stroke-width="1" /><polyline fill="none" opacity="100" points="-114.0,410.0 -114.0,470.0" stroke="#000" stroke-width="1" /><polyline fill="none" opacity="100" points="-118.0,410.0 -118.0,470.0" stroke="#000" stroke-width="1" /><polyline fill="none" opacity="100" points="-122.0,410.0 -122.0,470.0" stroke="#000" stroke-width="1" /><polyline fill="none" opacity="100" points="-126.0,410.0 -126.0,470.0" stroke="#000" stroke-width="1" /><polyline fill="none" opacity="100" points="-130.0,410.0 -130.0,470.0" stroke="#000" stroke-width="1" /><polyline fill="none" opacity="100" points="-140.0,410.0 -140.0,470.0" stroke="#000" stroke-width="1" /><polyline fill="none" opacity="100" points="-144.0,410.0 -144.0,470.0" stroke="#000" stroke-width="1" /><polyline fill="none" opacity="100" points="-148.0,410.0 -148.0,470.0" stroke="#000" stroke-width="1" /><polyline fill="none" opacity="100" points="-152.0,410.0 -152.0,470.0" stroke="#000" stroke-width="1" /><polyline fill="none" opacity="100" points="-156.0,410.0 -156.0,470.0" stroke="#000" stroke-width="1" /><polyline fill="none" opacity="100" points="-160.0,410.0 -160.0,470.0" stroke="#000" stroke-width="1" /><polyline fill="none" opacity="100" points="-164.0,410.0 -164.0,470.0" stroke="#000" stroke-width="1" /><polyline fill="none" opacity="100" points="-217.0,392.0 -217.0,410.0" stroke="#000" stroke-width="1" /><polyline fill="none" opacity="100" points="-221.0,392.0 -221.0,410.0" stroke="#000" stroke-width="1" /><polyline fill="none" opacity="100" points="-225.0,392.0 -225.0,410.0" stroke="#000" stroke-width="1" /><polyline fill="none" opacity="100" points="-229.0,392.0 -229.0,410.0" stroke="#000" stroke-width="1" /><polyline fill="none" opacity="100" points="-233.0,392.0 -233.0,410.0" stroke="#000" stroke-width="1" /><polyline fill="none" opacity="100" points="-244.0,392.0 -244.0,410.0" stroke="#000" stroke-width="1" /><polyline fill="none" opacity="100" points="-248.0,392.0 -248.0,410.0" stroke="#000" stroke-width="1" /><polyline fill="none" opacity="100" points="-252.0,392.0 -252.0,410.0" stroke="#000" stroke-width="1" /><polyline fill="none" opacity="100" points="-256.0,392.0 -256.0,410.0" stroke="#000" stroke-width="1" /><polyline fill="none" opacity="100" points="-260.0,392.0 -260.0,410.0" stroke="#000" stroke-width="1" /><polyline fill="none" opacity="100" points="-207.0,387.0 -207.0,374.0 -169.0,374.0 -169.0,387.0" stroke="#000" stroke-width="1" /><text fill="#FFF" font-family="Arial" font-size="14" font-weight="normal" opacity="100" transform="rotate(-0.0 -205.0,372.0) translate(0 14)" x="-205.0" y="372.0">кассы</text><polyline fill="none" opacity="100" points="-191.0,409.0 -187.0,410.0" stroke="#F00" stroke-width="1" /><polyline fill="none" opacity="100" points="-192.0785,412.8519 -188.0785,413.8519" stroke="#F00" stroke-width="1" /><polyline fill="none" opacity="100" points="-193.157,416.7037 -189.157,417.7037" stroke="#F00" stroke-width="1" /><polyline fill="none" opacity="100" points="-194.2356,420.5556 -190.2356,421.5556" stroke="#F00" stroke-width="1" /><polyline fill="none" opacity="100" points="-195.3141,424.4074 -191.3141,425.4074" stroke="#F00" stroke-width="1" /><polyline fill="none" opacity="100" points="-196.3926,428.2593 -192.3926,429.2593" stroke="#F00" stroke-width="1" /><polyline fill="none" opacity="100" points="-197.4711,432.1111 -193.4711,433.1111" stroke="#F00" stroke-width="1" /><polyline fill="none" opacity="100" points="-199.0,436.0 -194.0,436.0" stroke="#090" stroke-width="1" /><polyline fill="none" opacity="100" points="-199.0,440.0 -194.0,440.0" stroke="#090" stroke-width="1" /><polyline fill="none" opacity="100" points="-199.0,444.0 -194.0,444.0" stroke="#090" stroke-width="1" /><polyline fill="none" opacity="100" points="-199.0,448.0 -194.0,448.0" stroke="#090" stroke-width="1" /><polyline fill="none" opacity="100" points="-199.0,452.0 -194.0,452.0" stroke="#090" stroke-width="1" /><polyline fill="none" opacity="100" points="-199.0,456.0 -194.0,456.0" stroke="#090" stroke-width="1" /><polyline fill="none" opacity="100" points="-199.0,460.0 -194.0,460.0" stroke="#090" stroke-width="1" /><polyline fill="none" opacity="100" points="-199.0,464.0 -194.0,464.0" stroke="#090" stroke-width="1" /><polygon fill="none" opacity="100" points="-200.0,468.0 -193.0,468.0 -193.0,475.0 -200.0,475.0" stroke="#000" stroke-width="1" /><polyline fill="none" opacity="100" points="-187.0,410.0 -169.0,410.0" stroke="#000" stroke-width="0.5" /><polyline fill="none" opacity="100" points="-171.0,421.0 -183.0,421.0" stroke="#F00" stroke-width="1" /><polygon fill="#F00" opacity="100" points="-179.5227,420.0683 -183.0,421.0 -179.5227,421.9317" stroke="#F00" stroke-width="1" /><polyline fill="none" opacity="100" points="-183.0,453.0 -171.0,453.0" stroke="#090" stroke-width="1" /><polygon fill="#090" opacity="100" points="-174.4773,453.9317 -171.0,453.0 -174.4773,452.0683" stroke="#090" stroke-width="1" /><polygon fill="#34349C" opacity="100" points="548.0,511.0 543.0,511.0 543.0,513.0 548.0,513.0" stroke="#34349C" stroke-width="1" /><polygon fill="#34349C" opacity="100" points="90.0,447.0 90.0,442.0 92.0,442.0 92.0,447.0" stroke="#34349C" stroke-width="1" /><polygon fill="#34349C" opacity="100" points="-210.0,421.0 -210.0,426.0 -208.0,426.0 -208.0,421.0" stroke="#34349C" stroke-width="1" /><polygon fill="#F00" opacity="100" points="553.0,511.0 548.0,511.0 548.0,513.0 553.0,513.0" stroke="#F00" stroke-width="1" /><polygon fill="#F00" opacity="100" points="90.0,452.0 90.0,447.0 92.0,447.0 92.0,452.0" stroke="#F00" stroke-width="1" /><polygon fill="#F00" opacity="100" points="-210.0,416.0 -210.0,421.0 -208.0,421.0 -208.0,416.0" stroke="#F00" stroke-width="1" /><g transform="rotate(80.0,245.0,495.0)"><text fill="#FFD900" font-family="Arial" font-size="25" font-weight="normal" opacity="100" x="86.25" y="975.5">1</text><text fill="#FFD900" font-family="Arial" font-size="25" font-weight="normal" opacity="100" x="15.25" y="30.5">2</text><text fill="#FFD900" font-family="Arial" font-size="25" font-weight="normal" opacity="100" x="411.25" y="177.5">3</text><text fill="#FFD900" font-family="Arial" font-size="25" font-weight="normal" opacity="100" x="414.25" y="90.5">4</text></g></g></g></svg>