<?xml version="1.0" encoding="utf-8" ?>
<svg baseProfile="tiny" height="1080px" version="1.2" width="550px" xmlns="http://www.w3.org/2000/svg" xmlns:ev="http://www.w3.org/2001/xml-events" xmlns:xlink="http://www.w3.org/1999/xlink"><defs /><g><g transform="rotate(-72.0,275.0,540.0)"><polygon fill="#FC9C54" opacity="100" points="65.0,612.0 65.0,582.0 515.0,582.0 515.0,612.0" stroke="#000" stroke-width="1" /><polygon fill="#FC9C54" opacity="100" points="515.0,502.0 515.0,472.0 65.0,472.0 65.0,502.0" stroke="#000" stroke-width="1" /><text fill="#F7782E" font-family="Arial" font-size="25" font-weight="bold" opacity="100" transform="rotate(-0.0 192.0,515.0) translate(0 25)" x="192.0" y="515.0">Бабушкинская</text><text fill="#F7782E" font-family="Arial" font-size="20" font-weight="normal" opacity="100" transform="rotate(-0.0 68.0,449.0) translate(0 20)" x="68.0" y="449.0">&lt;&lt; Свиблово</text><text fill="#F7782E" font-family="Arial" font-size="20" font-weight="normal" opacity="100" transform="rotate(-0.0 377.0,612.0) translate(0 20)" x="377.0" y="612.0">Медведково &gt;&gt;</text><polyline fill="none" opacity="100" points="-77.0,447.0 -113.0,447.0 -113.0,480.0 -5.0,480.0 -5.0,518.0 65.0,518.0 65.0,502.0" stroke="#000" stroke-width="1" /><polyline fill="none" opacity="100" points="-179.0,447.0 -143.0,447.0 -143.0,603.0 -5.0,603.0 -5.0,566.0 65.0,566.0 65.0,582.0" stroke="#000" stroke-width="1" /><polyline fill="none" opacity="100" points="-179.0,426.0 -77.0,426.0" stroke="#000" stroke-width="1" /><polyline fill="none" opacity="100" points="-145.0,426.0 -145.0,447.0" stroke="#000" stroke-width="1" /><polyline fill="none" opacity="100" points="-149.0,426.0 -149.0,447.0" stroke="#000" stroke-width="1" /><polyline fill="none" opacity="100" points="-153.0,426.0 -153.0,447.0" stroke="#000" stroke-width="1" /><polyline fill="none" opacity="100" points="-157.0,426.0 -157.0,447.0" stroke="#000" stroke-width="1" /><polyline fill="none" opacity="100" points="-161.0,426.0 -161.0,447.0" stroke="#000" stroke-width="1" /><polyline fill="none" opacity="100" points="-165.0,426.0 -165.0,447.0" stroke="#000" stroke-width="1" /><polyline fill="none" opacity="100" points="-169.0,426.0 -169.0,447.0" stroke="#000" stroke-width="1" /><polyline fill="none" opacity="100" points="-173.0,426.0 -173.0,447.0" stroke="#000" stroke-width="1" /><polyline fill="none" opacity="100" points="-177.0,426.0 -177.0,447.0" stroke="#000" stroke-width="1" /><polyline fill="none" opacity="100" points="-111.0,426.0 -111.0,447.0" stroke="#000" stroke-width="1" /><polyline fill="none" opacity="100" points="-107.0,426.0 -107.0,447.0" stroke="#000" stroke-width="1" /><polyline fill="none" opacity="100" points="-103.0,426.0 -103.0,447.0" stroke="#000" stroke-width="1" /><polyline fill="none" opacity="100" points="-99.0,426.0 -99.0,447.0" stroke="#000" stroke-width="1" /><polyline fill="none" opacity="100" points="-95.0,426.0 -95.0,447.0" stroke="#000" stroke-width="1" /><polyline fill="none" opacity="100" points="-91.0,426.0 -91.0,447.0" stroke="#000" stroke-width="1" /><polyline fill="none" opacity="100" points="-87.0,426.0 -87.0,447.0" stroke="#000" stroke-width="1" /><polyline fill="none" opacity="100" points="-83.0,426.0 -83.0,447.0" stroke="#000" stroke-width="1" /><polyline fill="none" opacity="100" points="-79.0,426.0 -79.0,447.0" stroke="#000" stroke-width="1" /><polygon fill="#D0D0D0" opacity="100" points="-103.0,513.0 -113.0,513.0 -113.0,570.0 -103.0,570.0" stroke="#000" stroke-width="1" /><polyline fill="none" opacity="100" points="-1.0,519.0 -1.0,564.0" stroke="#7F7F7F" stroke-width="1" /><polyline fill="none" opacity="100" points="2.9981,519.123 2.9981,564.123" stroke="#7F7F7F" stroke-width="1" /><polyline fill="none" opacity="100" points="6.9962,519.246 6.9962,564.246" stroke="#7F7F7F" stroke-width="1" /><polyline fill="none" opacity="100" points="10.9943,519.3691 10.9943,564.3691" stroke="#7F7F7F" stroke-width="1" /><polyline fill="none" opacity="100" points="14.9924,519.4921 14.9924,564.4921" stroke="#7F7F7F" stroke-width="1" /><polyline fill="none" opacity="100" points="18.9905,519.6151 18.9905,564.6151" stroke="#7F7F7F" stroke-width="1" /><polyline fill="none" opacity="100" points="22.9886,519.7381 22.9886,564.7381" stroke="#7F7F7F" stroke-width="1" /><polyline fill="none" opacity="100" points="26.9868,519.8611 26.9868,564.8611" stroke="#7F7F7F" stroke-width="1" /><polyline fill="none" opacity="100" points="30.9849,519.9841 30.9849,564.9841" stroke="#7F7F7F" stroke-width="1" /><polyline fill="none" opacity="100" points="34.983,520.1072 34.983,565.1072" stroke="#7F7F7F" stroke-width="1" /><polyline fill="none" opacity="100" points="38.9811,520.2302 38.9811,565.2302" stroke="#7F7F7F" stroke-width="1" /><polyline fill="none" opacity="100" points="42.9792,520.3532 42.9792,565.3532" stroke="#7F7F7F" stroke-width="1" /><polyline fill="none" opacity="100" points="46.9773,520.4762 46.9773,565.4762" stroke="#7F7F7F" stroke-width="1" /><polyline fill="none" opacity="100" points="50.9754,520.5992 50.9754,565.5992" stroke="#7F7F7F" stroke-width="1" /><polyline fill="none" opacity="100" points="54.9735,520.7223 54.9735,565.7223" stroke="#7F7F7F" stroke-width="1" /><polyline fill="none" opacity="100" points="58.9716,520.8453 58.9716,565.8453" stroke="#7F7F7F" stroke-width="1" /><polyline fill="none" opacity="100" points="62.9697,520.9683 62.9697,565.9683" stroke="#7F7F7F" stroke-width="1" /><polygon fill="#9B5509" opacity="100" points="65.0,532.0 -4.0,532.0 -4.0,537.0 65.0,537.0" stroke="#000" stroke-width="1" /><polygon fill="#9B5509" opacity="100" points="65.0,547.0 -4.0,547.0 -4.0,552.0 65.0,552.0" stroke="#000" stroke-width="1" /><polygon fill="#9B5509" opacity="100" points="65.0,518.0 -4.0,518.0 -4.0,522.0 65.0,522.0" stroke="#000" stroke-width="1" /><polygon fill="#9B5509" opacity="100" points="65.0,562.0 -4.0,562.0 -4.0,566.0 65.0,566.0" stroke="#000" stroke-width="1" /><polyline fill="none" opacity="100" points="-19.0,502.0 -5.0,502.0" stroke="#000" stroke-width="1" /><polyline fill="none" opacity="100" points="-45.0,480.0 -45.0078,481.125 -44.9062,482.25 -44.6943,483.3762 -44.375,484.5 -43.9541,485.614 -43.4219,486.7305 -42.7754,487.853 -42.0,489.0 -41.0684,490.2056 -40.0156,491.4258 -38.8652,492.6313 -37.625,493.8125 -36.3066,494.9546 -34.9219,496.043 -33.4785,497.0679 -32.0,498.0 -30.5215,498.7954 -29.0156,499.4883 -27.4678,500.0969 -25.875,500.625 -24.2275,501.0847 -22.5312,501.4688 -20.7891,501.7734 -19.0,502.0" stroke="#000" stroke-width="1" /><text fill="#FFF" font-family="Arial" font-size="10" font-weight="normal" opacity="100" transform="rotate(-0.0 -34.0,482.0) translate(0 10)" x="-34.0" y="482.0">кассы</text><polyline fill="none" opacity="100" points="-5.0,512.0 -65.0,512.0" stroke="#000" stroke-width="0.5" /><polygon fill="none" opacity="100" points="-67.0,520.0 -67.0,514.0 -61.0,514.0 -61.0,520.0" stroke="#000" stroke-width="1" /><polyline fill="none" opacity="100" points="-101.0,565.0 -61.0,565.0 -5.0,537.0" stroke="#000" stroke-width="0.5" /><polyline fill="none" opacity="100" points="-66.0,524.0 -61.0,524.0" stroke="#090" stroke-width="1" /><polyline fill="none" opacity="100" points="-66.0,528.0 -61.0,528.0" stroke="#090" stroke-width="1" /><polyline fill="none" opacity="100" points="-66.0,532.0 -61.0,532.0" stroke="#090" stroke-width="1" /><polyline fill="none" opacity="100" points="-66.0,536.0 -61.0,536.0" stroke="#090" stroke-width="1" /><polyline fill="none" opacity="100" points="-66.0,540.0 -61.0,540.0" stroke="#090" stroke-width="1" /><polyline fill="none" opacity="100" points="-66.0,544.0 -61.0,544.0" stroke="#090" stroke-width="1" /><polyline fill="none" opacity="100" points="-66.0,548.0 -61.0,548.0" stroke="#090" stroke-width="1" /><polyline fill="none" opacity="100" points="-66.0,552.0 -61.0,552.0" stroke="#090" stroke-width="1" /><polyline fill="none" opacity="100" points="-66.0,556.0 -61.0,556.0" stroke="#090" stroke-width="1" /><polyline fill="none" opacity="100" points="-66.0,560.0 -61.0,560.0" stroke="#090" stroke-width="1" /><polyline fill="none" opacity="100" points="-66.0,570.0 -61.0,570.0" stroke="#F00" stroke-width="1" /><polyline fill="none" opacity="100" points="-66.0,574.0 -61.0,574.0" stroke="#F00" stroke-width="1" /><polyline fill="none" opacity="100" points="-66.0,578.0 -61.0,578.0" stroke="#F00" stroke-width="1" /><polyline fill="none" opacity="100" points="-66.0,582.0 -61.0,582.0" stroke="#F00" stroke-width="1" /><polyline fill="none" opacity="100" points="-66.0,586.0 -61.0,586.0" stroke="#F00" stroke-width="1" /><polyline fill="none" opacity="100" points="-66.0,590.0 -61.0,590.0" stroke="#F00" stroke-width="1" /><polyline fill="none" opacity="100" points="-66.0,594.0 -61.0,594.0" stroke="#F00" stroke-width="1" /><polyline fill="none" opacity="100" points="-66.0,598.0 -61.0,598.0" stroke="#F00" stroke-width="1" /><polyline fill="none" opacity="100" points="627.0,447.0 663.0,447.0 663.0,480.0 564.0,480.0 564.0,512.0 515.0,512.0 515.0,502.0" stroke="#000" stroke-width="1" /><polyline fill="none" opacity="100" points="733.0,447.0 697.0,447.0 697.0,632.0 733.0,632.0" stroke="#000" stroke-width="1" /><polyline fill="none" opacity="100" points="627.0,426.0 733.0,426.0" stroke="#000" stroke-width="1" /><polyline fill="none" opacity="100" points="627.0,652.0 733.0,652.0" stroke="#000" stroke-width="1" /><polyline fill="none" opacity="100" points="627.0,632.0 663.0,632.0 663.0,603.0 564.0,603.0 564.0,572.0 515.0,572.0 515.0,582.0" stroke="#000" stroke-width="1" /><polygon fill="#D0D0D0" opacity="100" points="663.0,513.0 655.0,513.0 655.0,570.0 663.0,570.0" stroke="#000" stroke-width="1" /><polyline fill="none" opacity="100" points="517.0,512.0 517.0,572.0" stroke="#000" stroke-width="1" /><polyline fill="none" opacity="100" points="521.0,512.0 521.0,572.0" stroke="#000" stroke-width="1" /><polyline fill="none" opacity="100" points="525.0,512.0 525.0,572.0" stroke="#000" stroke-width="1" /><polyline fill="none" opacity="100" points="529.0,512.0 529.0,572.0" stroke="#000" stroke-width="1" /><polyline fill="none" opacity="100" points="533.0,512.0 533.0,572.0" stroke="#000" stroke-width="1" /><polyline fill="none" opacity="100" points="537.0,512.0 537.0,572.0" stroke="#000" stroke-width="1" /><polyline fill="none" opacity="100" points="541.0,512.0 541.0,572.0" stroke="#000" stroke-width="1" /><polyline fill="none" opacity="100" points="545.0,512.0 545.0,572.0" stroke="#000" stroke-width="1" /><polyline fill="none" opacity="100" points="549.0,512.0 549.0,572.0" stroke="#000" stroke-width="1" /><polyline fill="none" opacity="100" points="553.0,512.0 553.0,572.0" stroke="#000" stroke-width="1" /><polyline fill="none" opacity="100" points="557.0,512.0 557.0,572.0" stroke="#000" stroke-width="1" /><polyline fill="none" opacity="100" points="561.0,512.0 561.0,572.0" stroke="#000" stroke-width="1" /><polyline fill="none" opacity="100" points="629.0,447.0 629.0,426.0" stroke="#000" stroke-width="1" /><polyline fill="none" opacity="100" points="633.0,447.0 633.0,426.0" stroke="#000" stroke-width="1" /><polyline fill="none" opacity="100" points="637.0,447.0 637.0,426.0" stroke="#000" stroke-width="1" /><polyline fill="none" opacity="100" points="641.0,447.0 641.0,426.0" stroke="#000" stroke-width="1" /><polyline fill="none" opacity="100" points="645.0,447.0 645.0,426.0" stroke="#000" stroke-width="1" /><polyline fill="none" opacity="100" points="649.0,447.0 649.0,426.0" stroke="#000" stroke-width="1" /><polyline fill="none" opacity="100" points="653.0,447.0 653.0,426.0" stroke="#000" stroke-width="1" /><polyline fill="none" opacity="100" points="657.0,447.0 657.0,426.0" stroke="#000" stroke-width="1" /><polyline fill="none" opacity="100" points="661.0,447.0 661.0,426.0" stroke="#000" stroke-width="1" /><polyline fill="none" opacity="100" points="661.0,652.0 661.0,632.0" stroke="#000" stroke-width="1" /><polyline fill="none" opacity="100" points="657.0,652.0 657.0,632.0" stroke="#000" stroke-width="1" /><polyline fill="none" opacity="100" points="653.0,652.0 653.0,632.0" stroke="#000" stroke-width="1" /><polyline fill="none" opacity="100" points="649.0,652.0 649.0,632.0" stroke="#000" stroke-width="1" /><polyline fill="none" opacity="100" points="645.0,652.0 645.0,632.0" stroke="#000" stroke-width="1" /><polyline fill="none" opacity="100" points="641.0,652.0 641.0,632.0" stroke="#000" stroke-width="1" /><polyline fill="none" opacity="100" points="637.0,652.0 637.0,632.0" stroke="#000" stroke-width="1" /><polyline fill="none" opacity="100" points="633.0,652.0 633.0,632.0" stroke="#000" stroke-width="1" /><polyline fill="none" opacity="100" points="629.0,652.0 629.0,632.0" stroke="#000" stroke-width="1" /><polyline fill="none" opacity="100" points="699.0,426.0 699.0,447.0" stroke="#000" stroke-width="1" /><polyline fill="none" opacity="100" points="703.0,426.0 703.0,447.0" stroke="#000" stroke-width="1" /><polyline fill="none" opacity="100" points="707.0,426.0 707.0,447.0" stroke="#000" stroke-width="1" /><polyline fill="none" opacity="100" points="711.0,426.0 711.0,447.0" stroke="#000" stroke-width="1" /><polyline fill="none" opacity="100" points="715.0,426.0 715.0,447.0" stroke="#000" stroke-width="1" /><polyline fill="none" opacity="100" points="719.0,426.0 719.0,447.0" stroke="#000" stroke-width="1" /><polyline fill="none" opacity="100" points="723.0,426.0 723.0,447.0" stroke="#000" stroke-width="1" /><polyline fill="none" opacity="100" points="727.0,426.0 727.0,447.0" stroke="#000" stroke-width="1" /><polyline fill="none" opacity="100" points="731.0,426.0 731.0,447.0" stroke="#000" stroke-width="1" /><polyline fill="none" opacity="100" points="731.0,632.0 731.0,652.0" stroke="#000" stroke-width="1" /><polyline fill="none" opacity="100" points="727.0,632.0 727.0,652.0" stroke="#000" stroke-width="1" /><polyline fill="none" opacity="100" points="723.0,632.0 723.0,652.0" stroke="#000" stroke-width="1" /><polyline fill="none" opacity="100" points="719.0,632.0 719.0,652.0" stroke="#000" stroke-width="1" /><polyline fill="none" opacity="100" points="715.0,632.0 715.0,652.0" stroke="#000" stroke-width="1" /><polyline fill="none" opacity="100" points="711.0,632.0 711.0,652.0" stroke="#000" stroke-width="1" /><polyline fill="none" opacity="100" points="707.0,632.0 707.0,652.0" stroke="#000" stroke-width="1" /><polyline fill="none" opacity="100" points="703.0,632.0 703.0,652.0" stroke="#000" stroke-width="1" /><polyline fill="none" opacity="100" points="699.0,632.0 699.0,652.0" stroke="#000" stroke-width="1" /><polyline fill="none" opacity="100" points="564.0,511.0 595.0,511.0" stroke="#000" stroke-width="0.5" /><polygon fill="none" opacity="100" points="625.0,568.0 623.0,563.0 618.0,565.0 620.0,570.0" stroke="#000" stroke-width="1" /><polyline fill="none" opacity="100" points="620.0,570.0 655.0,570.0" stroke="#000" stroke-width="0.5" /><polyline fill="none" opacity="100" points="617.0,561.0 622.0,559.0" stroke="#090" stroke-width="1" /><polyline fill="none" opacity="100" points="615.4884,557.2966 620.4884,555.2966" stroke="#090" stroke-width="1" /><polyline fill="none" opacity="100" points="613.9768,553.5932 618.9768,551.5932" stroke="#090" stroke-width="1" /><polyline fill="none" opacity="100" points="612.4652,549.8898 617.4652,547.8898" stroke="#090" stroke-width="1" /><polyline fill="none" opacity="100" points="610.9536,546.1864 615.9536,544.1864" stroke="#090" stroke-width="1" /><polyline fill="none" opacity="100" points="609.4421,542.483 614.4421,540.483" stroke="#090" stroke-width="1" /><polyline fill="none" opacity="100" points="607.9305,538.7797 612.9305,536.7797" stroke="#090" stroke-width="1" /><polyline fill="none" opacity="100" points="606.4189,535.0763 611.4189,533.0763" stroke="#090" stroke-width="1" /><polyline fill="none" opacity="100" points="604.9073,531.3729 609.9073,529.3729" stroke="#090" stroke-width="1" /><polyline fill="none" opacity="100" points="603.3957,527.6695 608.3957,525.6695" stroke="#090" stroke-width="1" /><polyline fill="none" opacity="100" points="601.8841,523.9661 606.8841,521.9661" stroke="#090" stroke-width="1" /><polyline fill="none" opacity="100" points="600.3725,520.2627 605.3725,518.2627" stroke="#090" stroke-width="1" /><polyline fill="none" opacity="100" points="598.8609,516.5593 603.8609,514.5593" stroke="#090" stroke-width="1" /><polyline fill="none" opacity="100" points="597.3494,512.8559 602.3494,510.8559" stroke="#090" stroke-width="1" /><polyline fill="none" opacity="100" points="564.0,482.0 551.0,482.0 551.0,510.0 564.0,510.0" stroke="#000" stroke-width="1" /><text fill="#000" font-family="Arial" font-size="10" font-weight="normal" opacity="100" transform="rotate(90.0 564.0,485.0) translate(0 10)" x="564.0" y="485.0">кассы</text><polyline fill="none" opacity="100" points="650.0,587.0 668.0,587.0" stroke="#F00" stroke-width="1" /><polygon fill="#F00" opacity="100" points="662.784,588.3976 668.0,587.0 662.784,585.6024" stroke="#F00" stroke-width="1" /><polyline fill="none" opacity="100" points="7.0,557.0 -4.0,557.0" stroke="#F00" stroke-width="1" /><polygon fill="#F00" opacity="100" points="-0.8124,556.1459 -4.0,557.0 -0.8124,557.8541" stroke="#F00" stroke-width="1" /><polyline fill="none" opacity="100" points="-90.0,586.0 -108.0,586.0" stroke="#F00" stroke-width="1" /><polygon fill="#F00" opacity="100" points="-102.784,584.6024 -108.0,586.0 -102.784,587.3976" stroke="#F00" stroke-width="1" /><polyline fill="none" opacity="100" points="668.0,497.0 650.0,497.0" stroke="#090" stroke-width="1" /><polygon fill="#090" opacity="100" points="655.216,495.6024 650.0,497.0 655.216,498.3976" stroke="#090" stroke-width="1" /><polyline fill="none" opacity="100" points="-109.0,497.0 -91.0,497.0" stroke="#090" stroke-width="1" /><polygon fill="#090" opacity="100" points="-96.216,498.3976 -91.0,497.0 -96.216,495.6024" stroke="#090" stroke-width="1" /><polyline fill="none" opacity="100" points="-4.0,527.0 7.0,527.0" stroke="#090" stroke-width="1" /><polygon fill="#090" opacity="100" points="3.8124,527.8541 7.0,527.0 3.8124,526.1459" stroke="#090" stroke-width="1" /><polygon fill="#34349C" opacity="100" points="582.0,574.0 576.0,574.0 576.0,572.0 582.0,572.0" stroke="#34349C" stroke-width="1" /><polygon fill="#34349C" opacity="100" points="275.0,554.0 275.0,544.0 273.0,544.0 273.0,554.0" stroke="#34349C" stroke-width="1" /><polygon fill="#34349C" opacity="100" points="-56.0,483.0 -51.0,483.0 -51.0,485.0 -56.0,485.0" stroke="#34349C" stroke-width="1" /><polygon fill="#F00" opacity="100" points="588.0,574.0 582.0,574.0 582.0,572.0 588.0,572.0" stroke="#F00" stroke-width="1" /><polygon fill="#F00" opacity="100" points="275.0,549.0 275.0,554.0 273.0,554.0 273.0,549.0" stroke="#F00" stroke-width="1" /><polygon fill="#F00" opacity="100" points="-61.0,483.0 -56.0,483.0 -56.0,485.0 -61.0,485.0" stroke="#F00" stroke-width="1" /><text fill="#00AFAF" font-family="Arial" font-size="15" font-weight="normal" opacity="100" transform="rotate(-0.0 717.0,556.0) translate(0 15)" x="717.0" y="556.0">Енисейская улица</text><text fill="#00AFAF" font-family="Arial" font-size="15" font-weight="normal" opacity="100" transform="rotate(-0.0 -276.0,556.0) translate(0 15)" x="-276.0" y="556.0">Енисейская улица</text><text fill="#00AFAF" font-family="Arial" font-size="15" font-weight="normal" opacity="100" transform="rotate(90.0 362.0,326.0) translate(0 15)" x="362.0" y="326.0">улица Менжинского</text><g transform="rotate(72.0,275.0,540.0)"><text fill="#FFD900" font-family="Arial" font-size="25" font-weight="normal" opacity="100" x="239.25" y="160.5">1</text><text fill="#FFD900" font-family="Arial" font-size="25" font-weight="normal" opacity="100" x="263.25" y="78.5">2</text><text fill="#FFD900" font-family="Arial" font-size="25" font-weight="normal" opacity="100" x="467.25" y="146.5">3</text><text fill="#FFD900" font-family="Arial" font-size="25" font-weight="normal" opacity="100" x="510.25" y="238.5">4</text><text fill="#FFD900" font-family="Arial" font-size="25" font-weight="normal" opacity="100" x="17.25" y="851.5">5</text><text fill="#FFD900" font-family="Arial" font-size="25" font-weight="normal" opacity="100" x="64.25" y="950.5">6</text></g></g></g></svg>