<?xml version="1.0" encoding="utf-8" ?>
<svg baseProfile="tiny" height="510px" version="1.2" width="500px" xmlns="http://www.w3.org/2000/svg" xmlns:ev="http://www.w3.org/2001/xml-events" xmlns:xlink="http://www.w3.org/1999/xlink"><defs /><g><g transform="rotate(-25.0,250.0,255.0)"><polygon fill="#2C7CAC" opacity="100" points="23.0,218.0 23.0,188.0 473.0,188.0 473.0,218.0" stroke="#000" stroke-width="1" /><polygon fill="#2C7CAC" opacity="100" points="23.0,328.0 23.0,298.0 473.0,298.0 473.0,328.0" stroke="#000" stroke-width="1" /><text fill="#2C7CAC" font-family="Arial" font-size="20" font-weight="normal" opacity="100" transform="rotate(-0.0 26.0,166.0) translate(0 20)" x="26.0" y="166.0">&lt;&lt; Филёвский парк</text><text fill="#2C7CAC" font-family="Arial" font-size="25" font-weight="bold" opacity="100" transform="rotate(-0.0 176.0,347.0) translate(0 25)" x="176.0" y="347.0">Багратионовская</text><text fill="#2C7CAC" font-family="Arial" font-size="20" font-weight="normal" opacity="100" transform="rotate(-0.0 398.0,328.0) translate(0 20)" x="398.0" y="328.0">Фили &gt;&gt;</text><polyline fill="none" opacity="100" points="473.0,218.0 473.0,298.0" stroke="#000" stroke-width="1" /><polyline fill="none" opacity="100" points="23.0,298.0 23.0,218.0" stroke="#000" stroke-width="1" /><polyline fill="none" opacity="100" points="125.0,275.0 70.0,275.0 70.0,241.0 125.0,241.0" stroke="#000" stroke-width="1" /><polyline fill="none" opacity="100" points="378.0,241.0 435.0,241.0 435.0,275.0 378.0,275.0" stroke="#000" stroke-width="1" /><polyline fill="none" opacity="100" points="161.0,271.0 161.0,245.0" stroke="#000" stroke-width="1" /><polyline fill="none" opacity="100" points="157.0,271.0 157.0,245.0" stroke="#000" stroke-width="1" /><polyline fill="none" opacity="100" points="153.0,271.0 153.0,245.0" stroke="#000" stroke-width="1" /><polyline fill="none" opacity="100" points="149.0,271.0 149.0,245.0" stroke="#000" stroke-width="1" /><polyline fill="none" opacity="100" points="145.0,271.0 145.0,245.0" stroke="#000" stroke-width="1" /><polyline fill="none" opacity="100" points="141.0,271.0 141.0,245.0" stroke="#000" stroke-width="1" /><polyline fill="none" opacity="100" points="137.0,271.0 137.0,245.0" stroke="#000" stroke-width="1" /><polyline fill="none" opacity="100" points="133.0,271.0 133.0,245.0" stroke="#000" stroke-width="1" /><polyline fill="none" opacity="100" points="129.0,271.0 129.0,245.0" stroke="#000" stroke-width="1" /><polyline fill="none" opacity="100" points="346.0,271.0 346.0,245.0" stroke="#000" stroke-width="1" /><polyline fill="none" opacity="100" points="350.0,271.0 350.0,245.0" stroke="#000" stroke-width="1" /><polyline fill="none" opacity="100" points="354.0,271.0 354.0,245.0" stroke="#000" stroke-width="1" /><polyline fill="none" opacity="100" points="358.0,271.0 358.0,245.0" stroke="#000" stroke-width="1" /><polyline fill="none" opacity="100" points="362.0,271.0 362.0,245.0" stroke="#000" stroke-width="1" /><polyline fill="none" opacity="100" points="366.0,271.0 366.0,245.0" stroke="#000" stroke-width="1" /><polyline fill="none" opacity="100" points="370.0,271.0 370.0,245.0" stroke="#000" stroke-width="1" /><polyline fill="none" opacity="100" points="374.0,271.0 374.0,245.0" stroke="#000" stroke-width="1" /><polygon fill="#D0D0D0" opacity="100" points="378.0,241.0 378.0,245.0 314.0,245.0 314.0,241.0" stroke="#000" stroke-width="1" /><polygon fill="#D0D0D0" opacity="100" points="314.0,275.0 314.0,271.0 378.0,271.0 378.0,275.0" stroke="#000" stroke-width="1" /><polygon fill="#D0D0D0" opacity="100" points="190.0,275.0 190.0,271.0 125.0,271.0 125.0,275.0" stroke="#000" stroke-width="1" /><polygon fill="#D0D0D0" opacity="100" points="190.0,241.0 190.0,245.0 125.0,245.0 125.0,241.0" stroke="#000" stroke-width="1" /><polygon fill="#FFF" opacity="0.8" points="213.0,209.0 213.0,184.0 291.0,184.0 291.0,209.0 435.0,209.0 435.0,308.0 291.0,308.0 291.0,332.0 213.0,332.0 213.0,308.0 70.0,308.0 70.0,209.0" stroke="#FFF" stroke-width="1" /><polyline fill="none" opacity="0.8" points="190.0,214.0 190.0,209.0 70.0,209.0 70.0,308.0 190.0,308.0 190.0,302.0" stroke="#000" stroke-width="1" /><polyline fill="none" opacity="0.8" points="190.0,279.0 190.0,237.0" stroke="#000" stroke-width="1" /><polyline fill="none" opacity="0.8" points="314.0,303.0 314.0,308.0 435.0,308.0 435.0,209.0 314.0,209.0 314.0,214.0" stroke="#000" stroke-width="1" /><polyline fill="none" opacity="0.8" points="314.0,237.0 314.0,279.0" stroke="#000" stroke-width="1" /><polyline fill="none" opacity="0.8" points="125.0,241.0 133.0,241.0 138.0,246.0 164.0,246.0 169.0,241.0 173.0,241.0 173.0,275.0 125.0,275.0" stroke="#000" stroke-width="1" /><polyline fill="none" opacity="0.8" points="378.0,241.0 330.0,241.0 330.0,275.0 334.0,275.0 339.0,270.0 365.0,270.0 370.0,275.0 378.0,275.0" stroke="#000" stroke-width="1" /><polyline fill="none" opacity="0.8" points="113.0,271.0 113.0,245.0" stroke="#000" stroke-width="1" /><polyline fill="none" opacity="0.8" points="109.0,271.0 109.0,245.0" stroke="#000" stroke-width="1" /><polyline fill="none" opacity="0.8" points="105.0,271.0 105.0,245.0" stroke="#000" stroke-width="1" /><polyline fill="none" opacity="0.8" points="101.0,271.0 101.0,245.0" stroke="#000" stroke-width="1" /><polyline fill="none" opacity="0.8" points="97.0,271.0 97.0,245.0" stroke="#000" stroke-width="1" /><polyline fill="none" opacity="0.8" points="93.0,271.0 93.0,245.0" stroke="#000" stroke-width="1" /><polyline fill="none" opacity="0.8" points="89.0,271.0 89.0,245.0" stroke="#000" stroke-width="1" /><polyline fill="none" opacity="0.8" points="85.0,271.0 85.0,245.0" stroke="#000" stroke-width="1" /><polyline fill="none" opacity="0.8" points="390.0,270.0 390.0,245.0" stroke="#000" stroke-width="1" /><polyline fill="none" opacity="0.8" points="394.0,270.0 394.0,245.0" stroke="#000" stroke-width="1" /><polyline fill="none" opacity="0.8" points="398.0,270.0 398.0,245.0" stroke="#000" stroke-width="1" /><polyline fill="none" opacity="0.8" points="402.0,270.0 402.0,245.0" stroke="#000" stroke-width="1" /><polyline fill="none" opacity="0.8" points="406.0,270.0 406.0,245.0" stroke="#000" stroke-width="1" /><polyline fill="none" opacity="0.8" points="410.0,270.0 410.0,245.0" stroke="#000" stroke-width="1" /><polyline fill="none" opacity="0.8" points="414.0,270.0 414.0,245.0" stroke="#000" stroke-width="1" /><polyline fill="none" opacity="0.8" points="418.0,270.0 418.0,245.0" stroke="#000" stroke-width="1" /><polygon fill="#D0D0D0" opacity="0.8" points="83.0,245.0 83.0,241.0 125.0,241.0 125.0,275.0 82.0,275.0 82.0,271.0 120.0,271.0 120.0,245.0" stroke="#000" stroke-width="1" /><polygon fill="#D0D0D0" opacity="0.8" points="421.0,275.0 421.0,270.0 383.0,270.0 383.0,245.0 421.0,245.0 421.0,241.0 378.0,241.0 378.0,275.0" stroke="#000" stroke-width="1" /><polyline fill="none" opacity="0.8" points="339.0,270.0 339.0,261.0 365.0,261.0 365.0,270.0" stroke="#000" stroke-width="1" /><text fill="#FFF" font-family="Arial" font-size="10" font-weight="normal" opacity="0.8" transform="rotate(-0.0 340.0,259.0) translate(0 10)" x="340.0" y="259.0">кассы</text><polyline fill="none" opacity="0.8" points="138.0,246.0 138.0,254.0 164.0,254.0 164.0,246.0" stroke="#000" stroke-width="1" /><text fill="#FFF" font-family="Arial" font-size="10" font-weight="normal" opacity="0.8" transform="rotate(-0.0 139.0,243.0) translate(0 10)" x="139.0" y="243.0">кассы</text><polygon fill="none" opacity="0.8" points="373.0,276.0 370.0,279.0 373.0,282.0 376.0,279.0" stroke="#000" stroke-width="1" /><polygon fill="none" opacity="0.8" points="131.0,235.0 128.0,238.0 131.0,241.0 134.0,238.0" stroke="#000" stroke-width="1" /><polyline fill="none" opacity="0.8" points="373.0,285.0 377.0,285.0" stroke="#090" stroke-width="1" /><polyline fill="none" opacity="0.8" points="373.0,289.0 377.0,289.0" stroke="#090" stroke-width="1" /><polyline fill="none" opacity="0.8" points="373.0,293.0 377.0,293.0" stroke="#090" stroke-width="1" /><polyline fill="none" opacity="0.8" points="373.0,297.0 377.0,297.0" stroke="#090" stroke-width="1" /><polyline fill="none" opacity="0.8" points="373.0,301.0 377.0,301.0" stroke="#090" stroke-width="1" /><polyline fill="none" opacity="0.8" points="373.0,305.0 377.0,305.0" stroke="#090" stroke-width="1" /><polyline fill="none" opacity="0.8" points="129.0,213.0 133.0,213.0" stroke="#090" stroke-width="1" /><polyline fill="none" opacity="0.8" points="129.0,217.0 133.0,217.0" stroke="#090" stroke-width="1" /><polyline fill="none" opacity="0.8" points="129.0,221.0 133.0,221.0" stroke="#090" stroke-width="1" /><polyline fill="none" opacity="0.8" points="129.0,225.0 133.0,225.0" stroke="#090" stroke-width="1" /><polyline fill="none" opacity="0.8" points="129.0,229.0 133.0,229.0" stroke="#090" stroke-width="1" /><polyline fill="none" opacity="0.8" points="129.0,233.0 133.0,233.0" stroke="#090" stroke-width="1" /><polyline fill="none" opacity="0.8" points="373.0,237.0 377.0,237.0" stroke="#F00" stroke-width="1" /><polyline fill="none" opacity="0.8" points="373.0,233.0 377.0,233.0" stroke="#F00" stroke-width="1" /><polyline fill="none" opacity="0.8" points="373.0,229.0 377.0,229.0" stroke="#F00" stroke-width="1" /><polyline fill="none" opacity="0.8" points="373.0,225.0 377.0,225.0" stroke="#F00" stroke-width="1" /><polyline fill="none" opacity="0.8" points="373.0,221.0 377.0,221.0" stroke="#F00" stroke-width="1" /><polyline fill="none" opacity="0.8" points="373.0,217.0 377.0,217.0" stroke="#F00" stroke-width="1" /><polyline fill="none" opacity="0.8" points="373.0,213.0 377.0,213.0" stroke="#F00" stroke-width="1" /><polyline fill="none" opacity="0.8" points="133.0,279.0 129.0,279.0" stroke="#F00" stroke-width="1" /><polyline fill="none" opacity="0.8" points="133.0,283.0 129.0,283.0" stroke="#F00" stroke-width="1" /><polyline fill="none" opacity="0.8" points="133.0,287.0 129.0,287.0" stroke="#F00" stroke-width="1" /><polyline fill="none" opacity="0.8" points="133.0,291.0 129.0,291.0" stroke="#F00" stroke-width="1" /><polyline fill="none" opacity="0.8" points="133.0,295.0 129.0,295.0" stroke="#F00" stroke-width="1" /><polyline fill="none" opacity="0.8" points="133.0,299.0 129.0,299.0" stroke="#F00" stroke-width="1" /><polyline fill="none" opacity="0.8" points="133.0,303.0 129.0,303.0" stroke="#F00" stroke-width="1" /><polyline fill="none" opacity="0.8" points="323.0,226.0 304.0,226.0" stroke="#F00" stroke-width="1" /><polygon fill="#F00" opacity="0.8" points="309.5058,224.5247 304.0,226.0 309.5058,227.4753" stroke="#F00" stroke-width="1" /><polyline fill="none" opacity="0.8" points="179.0,290.0 199.0,290.0" stroke="#F00" stroke-width="1" /><polygon fill="#F00" opacity="0.8" points="193.2044,291.5529 199.0,290.0 193.2044,288.4471" stroke="#F00" stroke-width="1" /><polyline fill="none" opacity="0.8" points="99.0,264.0 79.0,264.0" stroke="#F00" stroke-width="1" /><polygon fill="#F00" opacity="0.8" points="84.7956,262.4471 79.0,264.0 84.7956,265.5529" stroke="#F00" stroke-width="1" /><polyline fill="none" opacity="0.8" points="408.0,252.0 425.0,252.0" stroke="#F00" stroke-width="1" /><polygon fill="#F00" opacity="0.8" points="420.0738,253.32 425.0,252.0 420.0738,250.68" stroke="#F00" stroke-width="1" /><polyline fill="none" opacity="0.8" points="198.0,226.0 180.0,226.0" stroke="#090" stroke-width="1" /><polygon fill="#090" opacity="0.8" points="185.216,224.6024 180.0,226.0 185.216,227.3976" stroke="#090" stroke-width="1" /><polyline fill="none" opacity="0.8" points="304.0,291.0 323.0,291.0" stroke="#090" stroke-width="1" /><polygon fill="#090" opacity="0.8" points="317.4942,292.4753 323.0,291.0 317.4942,289.5247" stroke="#090" stroke-width="1" /><polyline fill="none" opacity="0.8" points="80.0,252.0 99.0,252.0" stroke="#090" stroke-width="1" /><polygon fill="#090" opacity="0.8" points="93.4942,253.4753 99.0,252.0 93.4942,250.5247" stroke="#090" stroke-width="1" /><polyline fill="none" opacity="0.8" points="425.0,264.0 408.0,264.0" stroke="#090" stroke-width="1" /><polygon fill="#090" opacity="0.8" points="412.9262,262.68 408.0,264.0 412.9262,265.32" stroke="#090" stroke-width="1" /><polyline fill="none" opacity="1.0" points="222.0,348.0 222.0,152.0 160.0,152.0" stroke="#000" stroke-width="1" /><polyline fill="none" opacity="1.0" points="282.0,348.0 282.0,152.0 344.0,152.0" stroke="#000" stroke-width="1" /><text fill="#00AFAF" font-family="Arial" font-size="15" font-weight="normal" opacity="1.0" transform="rotate(90.0 260.0,199.0) translate(0 15)" x="260.0" y="199.0">улица Барклая</text><text fill="#00AFAF" font-family="Arial" font-size="15" font-weight="normal" opacity="1.0" transform="rotate(-0.0 324.0,129.0) translate(0 15)" x="324.0" y="129.0">Сеславинская улица</text><text fill="#00AFAF" font-family="Arial" font-size="15" font-weight="normal" opacity="1.0" transform="rotate(90.0 297.0,396.0) translate(0 15)" x="297.0" y="396.0">"Горбушка" &gt;&gt;</text><text fill="#00AFAF" font-family="Arial" font-size="15" font-weight="normal" opacity="1.0" transform="rotate(90.0 275.0,396.0) translate(0 15)" x="275.0" y="396.0">"Горбушкин двор" &gt;&gt;</text><text fill="#00AFAF" font-family="Arial" font-size="15" font-weight="normal" opacity="1.0" transform="rotate(90.0 281.0,7.0) translate(0 15)" x="281.0" y="7.0">&lt;&lt; ДК им.Горбунова</text><text fill="#000" font-family="Arial" font-size="8" font-weight="normal" opacity="1.0" x="74.8" y="219.2">верхний ярус</text><text fill="#000" font-family="Arial" font-size="8" font-weight="normal" opacity="1.0" x="22.8" y="225.2">нижний ярус</text><g transform="rotate(25.0,250.0,255.0)"><text fill="#FFD900" font-family="Arial" font-size="25" font-weight="normal" opacity="1.0" x="205.25" y="281.5">1</text><text fill="#FFD900" font-family="Arial" font-size="25" font-weight="normal" opacity="1.0" x="278.25" y="247.5">2</text></g></g></g></svg>