<?xml version="1.0" encoding="utf-8" ?>
<svg baseProfile="tiny" height="730px" version="1.2" width="1150px" xmlns="http://www.w3.org/2000/svg" xmlns:ev="http://www.w3.org/2001/xml-events" xmlns:xlink="http://www.w3.org/1999/xlink"><defs /><g><g transform="rotate(20.0,575.0,365.0)"><ellipse cx="255.5" cy="722.5" fill="#FEFBF1" opacity="100" rx="126.5" ry="126.5" stroke="#DFDFDF" stroke-width="1" /><polygon fill="#FEFBF1" opacity="100" points="969.0,246.0 969.0,119.0 1080.0,119.0 1080.0,246.0" stroke="#DFDFDF" stroke-width="1" /><polygon fill="#9B5509" opacity="100" points="219.0,583.0 189.0,583.0 189.0,133.0 219.0,133.0" stroke="#000" stroke-width="1" /><polygon fill="#9B5509" opacity="100" points="329.0,583.0 299.0,583.0 299.0,133.0 329.0,133.0" stroke="#000" stroke-width="1" /><text fill="#9B5509" font-family="Arial" font-size="15" font-weight="normal" opacity="100" transform="rotate(-90.0 171.0,581.0) translate(0 15)" x="171.0" y="581.0">&lt;&lt; Киевская</text><text fill="#9B5509" font-family="Arial" font-size="15" font-weight="normal" opacity="100" transform="rotate(-90.0 329.0,316.0) translate(0 15)" x="329.0" y="316.0">Белорусская &gt;&gt;</text><text fill="#9B5509" font-family="Arial" font-size="25" font-weight="bold" opacity="100" transform="rotate(-90.0 247.0,493.0) translate(0 25)" x="247.0" y="493.0">Краснопресненская</text><polyline fill="none" opacity="100" points="299.0,133.0 279.0,133.0 279.0,201.0" stroke="#000" stroke-width="1" /><polyline fill="none" opacity="100" points="274.0,152.0 240.0,152.0 240.0,245.0 244.0,245.0 244.0,250.0 235.0,250.0 235.0,133.0 219.0,133.0" stroke="#000" stroke-width="1" /><polygon fill="#34349C" opacity="100" points="252.0,358.0 256.0,358.0 256.0,356.0 252.0,356.0" stroke="#34349C" stroke-width="1" /><polygon fill="#F00" opacity="100" points="248.0,358.0 252.0,358.0 252.0,356.0 248.0,356.0" stroke="#F00" stroke-width="1" /><polyline fill="none" opacity="100" points="299.0,583.0 287.0,583.0 287.0,512.0 276.0,512.0 276.0,548.0" stroke="#000" stroke-width="1" /><polyline fill="none" opacity="100" points="219.0,583.0 228.0,583.0 228.0,512.0 236.0,512.0 236.0,548.0" stroke="#000" stroke-width="1" /><polyline fill="none" opacity="100" points="267.0,790.0 267.0,795.0" stroke="#000" stroke-width="1" /><polyline fill="none" opacity="100" points="246.0,795.0 247.4297,795.2344 248.8438,795.4375 250.2422,795.6094 251.625,795.75 252.9922,795.8594 254.3438,795.9375 255.6797,795.9844 257.0,796.0 258.3047,795.9844 259.5938,795.9375 260.8672,795.8594 262.125,795.75 263.3672,795.6094 264.5938,795.4375 265.8047,795.2344 267.0,795.0" stroke="#000" stroke-width="1" /><polyline fill="none" opacity="100" points="246.0,795.0 246.0,790.0" stroke="#000" stroke-width="1" /><polyline fill="none" opacity="100" points="216.0,784.0 211.6562,780.6172 207.625,777.0938 203.9055,773.4272 200.5,769.625 197.4128,765.7017 194.6367,761.6328 192.1694,757.4111 190.0,753.0 188.1079,748.3311 186.5195,743.4922 185.2534,738.5381 184.3125,733.5 183.6997,728.4307 183.4336,723.3203 183.5229,718.1768 184.0,713.0 184.9185,707.7686 186.2227,702.5547 187.8782,697.4155 189.875,692.375 192.1941,687.4556 194.8281,682.7188 197.7715,678.2031 201.0,674.0 204.4785,670.25 208.2344,666.8438 212.2822,663.7227 216.625,660.875 221.2725,658.2617 226.2188,655.9062 231.4609,653.8203 237.0,652.0" stroke="#000" stroke-width="1" /><polyline fill="none" opacity="100" points="275.0,651.0 280.7188,653.0 286.125,655.25 291.2195,657.7537 296.0,660.5 300.4622,663.467 304.6133,666.6914 308.4556,670.1841 312.0,674.0 315.2671,678.2417 318.2305,682.7773 320.8721,687.5215 323.1875,692.4375 325.1709,697.4668 326.8086,702.5898 328.0933,707.7847 329.0,713.0 329.4888,718.1724 329.5977,723.3164 329.3494,728.4285 328.75,733.5 327.8127,738.5383 326.5391,743.4922 324.9307,748.3311 323.0,753.0 320.7646,757.4111 318.2109,761.6328 315.3315,765.7017 312.125,769.625 308.5864,773.4272 304.7188,777.0938 300.5234,780.6172 296.0,784.0" stroke="#000" stroke-width="1" /><polyline fill="none" opacity="100" points="216.0,784.0 216.0,778.0" stroke="#000" stroke-width="1" /><polyline fill="none" opacity="100" points="296.0,784.0 296.0,778.0" stroke="#000" stroke-width="1" /><polyline fill="none" opacity="100" points="373.0,678.0 375.4609,685.7188 377.4688,693.375 379.0217,700.9719 380.125,708.5 380.7888,715.9402 380.9961,723.3242 380.7417,730.6616 380.0,738.0 378.7231,745.4282 376.9727,752.832 374.7874,760.137 372.1875,767.3125 369.2068,774.3103 365.8438,781.1094 362.1055,787.6895 358.0,794.0 353.5273,799.9746 348.7188,805.6406 343.5991,811.0061 338.1875,816.0625 332.5063,820.8123 326.5703,825.2305 320.3955,829.2983 314.0,833.0 307.4014,836.3149 300.6172,839.2383 293.6621,841.759 286.5625,843.875 279.3535,845.5945 272.0234,846.875 264.5811,847.6953 257.0,848.0 249.2158,847.6953 241.3516,846.875 233.4961,845.5945 225.6875,843.875 217.9727,841.759 210.4141,839.2383 203.0557,836.3149 196.0,833.0 189.3975,829.2983 183.1484,825.2305 177.2036,820.8123 171.5625,816.0625 166.1987,811.0061 161.1406,805.6406 156.4082,799.9746 152.0,794.0 147.9121,787.6895 144.1719,781.1094 140.802,774.3103 137.8125,767.3125 135.2117,760.137 133.0273,752.832 131.2769,745.4282 130.0,738.0 129.2583,730.6616 129.0039,723.3242 129.2112,715.9402 129.875,708.5 130.9783,700.9719 132.5312,693.375 134.5391,685.7188 137.0,678.0" stroke="#000" stroke-width="1" /><polyline fill="none" opacity="100" points="373.0,678.0 357.0,684.0 358.0,687.0" stroke="#000" stroke-width="1" /><polyline fill="none" opacity="100" points="340.0,694.0 339.0,691.0 325.0,696.0" stroke="#000" stroke-width="1" /><polyline fill="none" opacity="100" points="188.0,696.0 174.0,691.0 173.0,694.0" stroke="#000" stroke-width="1" /><polyline fill="none" opacity="100" points="152.0,687.0 153.0,684.0 137.0,678.0" stroke="#000" stroke-width="1" /><polyline fill="none" opacity="100" points="239.0,682.0 273.0,682.0" stroke="#7F7F7F" stroke-width="1" /><polyline fill="none" opacity="100" points="239.0,678.0 273.0,678.0" stroke="#7F7F7F" stroke-width="1" /><polyline fill="none" opacity="100" points="239.0,674.0 273.0,674.0" stroke="#7F7F7F" stroke-width="1" /><polyline fill="none" opacity="100" points="239.0,670.0 273.0,670.0" stroke="#7F7F7F" stroke-width="1" /><polyline fill="none" opacity="100" points="239.0,666.0 273.0,666.0" stroke="#7F7F7F" stroke-width="1" /><polyline fill="none" opacity="100" points="239.0,662.0 273.0,662.0" stroke="#7F7F7F" stroke-width="1" /><polyline fill="none" opacity="100" points="239.0,658.0 273.0,658.0" stroke="#7F7F7F" stroke-width="1" /><polyline fill="none" opacity="100" points="239.0,654.0 273.0,654.0" stroke="#7F7F7F" stroke-width="1" /><polyline fill="none" opacity="100" points="239.0,650.0 273.0,650.0" stroke="#7F7F7F" stroke-width="1" /><polyline fill="none" opacity="100" points="239.0,646.0 273.0,646.0" stroke="#7F7F7F" stroke-width="1" /><polyline fill="none" opacity="100" points="239.0,642.0 273.0,642.0" stroke="#7F7F7F" stroke-width="1" /><polyline fill="none" opacity="100" points="239.0,638.0 273.0,638.0" stroke="#7F7F7F" stroke-width="1" /><polyline fill="none" opacity="100" points="239.0,634.0 273.0,634.0" stroke="#7F7F7F" stroke-width="1" /><polyline fill="none" opacity="100" points="239.0,630.0 273.0,630.0" stroke="#7F7F7F" stroke-width="1" /><polyline fill="none" opacity="100" points="239.0,626.0 273.0,626.0" stroke="#7F7F7F" stroke-width="1" /><polyline fill="none" opacity="100" points="239.0,622.0 273.0,622.0" stroke="#7F7F7F" stroke-width="1" /><polyline fill="none" opacity="100" points="239.0,618.0 273.0,618.0" stroke="#7F7F7F" stroke-width="1" /><polyline fill="none" opacity="100" points="239.0,614.0 273.0,614.0" stroke="#7F7F7F" stroke-width="1" /><polyline fill="none" opacity="100" points="239.0,610.0 273.0,610.0" stroke="#7F7F7F" stroke-width="1" /><polyline fill="none" opacity="100" points="239.0,606.0 273.0,606.0" stroke="#7F7F7F" stroke-width="1" /><polyline fill="none" opacity="100" points="239.0,602.0 273.0,602.0" stroke="#7F7F7F" stroke-width="1" /><polyline fill="none" opacity="100" points="239.0,598.0 273.0,598.0" stroke="#7F7F7F" stroke-width="1" /><polyline fill="none" opacity="100" points="239.0,594.0 273.0,594.0" stroke="#7F7F7F" stroke-width="1" /><polyline fill="none" opacity="100" points="239.0,590.0 273.0,590.0" stroke="#7F7F7F" stroke-width="1" /><polyline fill="none" opacity="100" points="239.0,586.0 273.0,586.0" stroke="#7F7F7F" stroke-width="1" /><polyline fill="none" opacity="100" points="239.0,582.0 273.0,582.0" stroke="#7F7F7F" stroke-width="1" /><polyline fill="none" opacity="100" points="239.0,578.0 273.0,578.0" stroke="#7F7F7F" stroke-width="1" /><polyline fill="none" opacity="100" points="239.0,574.0 273.0,574.0" stroke="#7F7F7F" stroke-width="1" /><polyline fill="none" opacity="100" points="239.0,570.0 273.0,570.0" stroke="#7F7F7F" stroke-width="1" /><polyline fill="none" opacity="100" points="239.0,566.0 273.0,566.0" stroke="#7F7F7F" stroke-width="1" /><polyline fill="none" opacity="100" points="239.0,562.0 273.0,562.0" stroke="#7F7F7F" stroke-width="1" /><polyline fill="none" opacity="100" points="239.0,558.0 273.0,558.0" stroke="#7F7F7F" stroke-width="1" /><polyline fill="none" opacity="100" points="239.0,554.0 273.0,554.0" stroke="#7F7F7F" stroke-width="1" /><polygon fill="#9B5509" opacity="100" points="236.0,688.0 236.0,548.0 239.0,548.0 239.0,688.0" stroke="#000" stroke-width="1" /><polygon fill="#9B5509" opacity="100" points="247.0,688.0 247.0,548.0 252.0,548.0 252.0,688.0" stroke="#000" stroke-width="1" /><polygon fill="#9B5509" opacity="100" points="260.0,688.0 260.0,548.0 265.0,548.0 265.0,688.0" stroke="#000" stroke-width="1" /><polygon fill="#9B5509" opacity="100" points="273.0,688.0 273.0,548.0 276.0,548.0 276.0,688.0" stroke="#000" stroke-width="1" /><polyline fill="none" opacity="100" points="130.0,708.0 121.0,708.0 121.0,737.0 130.0,737.0" stroke="#000" stroke-width="1" /><text fill="#FFF" font-family="Arial" font-size="10" font-weight="normal" opacity="100" transform="rotate(-90.0 118.0,735.0) translate(0 10)" x="118.0" y="735.0">кассы</text><polyline fill="none" opacity="100" points="260.0,688.0 260.0,796.0" stroke="#000" stroke-width="0.5" /><polygon fill="none" opacity="100" points="187.0,721.0 187.0,728.0 194.0,728.0 194.0,721.0" stroke="#000" stroke-width="1" /><polyline fill="none" opacity="100" points="199.0,722.0 199.0,727.0" stroke="#090" stroke-width="1" /><polyline fill="none" opacity="100" points="203.0,722.0 203.0,727.0" stroke="#090" stroke-width="1" /><polyline fill="none" opacity="100" points="207.0,722.0 207.0,727.0" stroke="#090" stroke-width="1" /><polyline fill="none" opacity="100" points="211.0,722.0 211.0,727.0" stroke="#090" stroke-width="1" /><polyline fill="none" opacity="100" points="215.0,722.0 215.0,727.0" stroke="#090" stroke-width="1" /><polyline fill="none" opacity="100" points="219.0,722.0 219.0,727.0" stroke="#090" stroke-width="1" /><polyline fill="none" opacity="100" points="223.0,722.0 223.0,727.0" stroke="#090" stroke-width="1" /><polyline fill="none" opacity="100" points="227.0,722.0 227.0,727.0" stroke="#090" stroke-width="1" /><polyline fill="none" opacity="100" points="231.0,722.0 231.0,727.0" stroke="#090" stroke-width="1" /><polyline fill="none" opacity="100" points="235.0,722.0 235.0,727.0" stroke="#090" stroke-width="1" /><polyline fill="none" opacity="100" points="239.0,722.0 239.0,727.0" stroke="#090" stroke-width="1" /><polyline fill="none" opacity="100" points="243.0,722.0 243.0,727.0" stroke="#090" stroke-width="1" /><polyline fill="none" opacity="100" points="247.0,722.0 247.0,727.0" stroke="#090" stroke-width="1" /><polyline fill="none" opacity="100" points="251.0,722.0 251.0,727.0" stroke="#090" stroke-width="1" /><polyline fill="none" opacity="100" points="255.0,722.0 255.0,727.0" stroke="#090" stroke-width="1" /><polyline fill="none" opacity="100" points="259.0,722.0 259.0,727.0" stroke="#090" stroke-width="1" /><polyline fill="none" opacity="100" points="265.0,519.0 265.0,541.0" stroke="#F00" stroke-width="1" /><polygon fill="#F00" opacity="100" points="263.2918,534.6249 265.0,541.0 266.7082,534.6249" stroke="#F00" stroke-width="1" /><polyline fill="none" opacity="100" points="352.0,698.0 346.0,681.0" stroke="#F00" stroke-width="1" /><polygon fill="#F00" opacity="100" points="349.0586,685.4603 346.0,681.0 346.4187,686.3921" stroke="#F00" stroke-width="1" /><polyline fill="none" opacity="100" points="278.0,770.0 278.0,801.0" stroke="#F00" stroke-width="1" /><polygon fill="#F00" opacity="100" points="275.593,792.0169 278.0,801.0 280.407,792.0169" stroke="#F00" stroke-width="1" /><polyline fill="none" opacity="100" points="246.0,541.0 246.0,519.0" stroke="#090" stroke-width="1" /><polygon fill="#090" opacity="100" points="247.7082,525.3751 246.0,519.0 244.2918,525.3751" stroke="#090" stroke-width="1" /><polyline fill="none" opacity="100" points="166.0,681.0 160.0,698.0" stroke="#090" stroke-width="1" /><polygon fill="#090" opacity="100" points="160.4187,692.6079 160.0,698.0 163.0586,693.5397" stroke="#090" stroke-width="1" /><polyline fill="none" opacity="100" points="235.0,801.0 235.0,771.0" stroke="#090" stroke-width="1" /><polygon fill="#090" opacity="100" points="237.3294,779.6933 235.0,771.0 232.6706,779.6933" stroke="#090" stroke-width="1" /><polygon fill="#FFF" opacity="0.8" points="278.0,159.0 330.0,159.0 330.0,176.0 278.0,176.0" stroke="#FFF" stroke-width="1" /><polygon fill="#FFF" opacity="0.8" points="278.0,184.0 330.0,184.0 330.0,201.0 278.0,201.0" stroke="#FFF" stroke-width="1" /><polyline fill="none" opacity="1.0" points="371.0,154.0 371.0,151.0 335.0,151.0 335.0,159.0 274.0,159.0 274.0,152.0" stroke="#000" stroke-width="1" /><polyline fill="none" opacity="1.0" points="274.0,184.0 274.0,176.0 335.0,176.0 335.0,184.0 274.0,184.0" stroke="#000" stroke-width="1" /><polyline fill="none" opacity="1.0" points="371.0,207.0 371.0,210.0 335.0,210.0 335.0,201.0 274.0,201.0 274.0,245.0 270.0,245.0 270.0,250.0 279.0,250.0 279.0,201.0" stroke="#000" stroke-width="1" /><polyline fill="none" opacity="1.0" points="240.0,239.0 274.0,239.0" stroke="#000" stroke-width="1" /><polyline fill="none" opacity="1.0" points="240.0,235.0 274.0,235.0" stroke="#000" stroke-width="1" /><polyline fill="none" opacity="1.0" points="240.0,231.0 274.0,231.0" stroke="#000" stroke-width="1" /><polyline fill="none" opacity="1.0" points="240.0,227.0 274.0,227.0" stroke="#000" stroke-width="1" /><polyline fill="none" opacity="1.0" points="240.0,223.0 274.0,223.0" stroke="#000" stroke-width="1" /><polyline fill="none" opacity="1.0" points="240.0,219.0 274.0,219.0" stroke="#000" stroke-width="1" /><polyline fill="none" opacity="1.0" points="240.0,215.0 274.0,215.0" stroke="#000" stroke-width="1" /><polyline fill="none" opacity="1.0" points="240.0,211.0 274.0,211.0" stroke="#000" stroke-width="1" /><polyline fill="none" opacity="1.0" points="240.0,207.0 274.0,207.0" stroke="#000" stroke-width="1" /><polyline fill="none" opacity="1.0" points="240.0,203.0 274.0,203.0" stroke="#000" stroke-width="1" /><polyline fill="none" opacity="1.0" points="277.0,201.0 277.0,184.0" stroke="#000" stroke-width="1" /><polyline fill="none" opacity="1.0" points="281.0,201.0 281.0,184.0" stroke="#000" stroke-width="1" /><polyline fill="none" opacity="1.0" points="285.0,201.0 285.0,184.0" stroke="#000" stroke-width="1" /><polyline fill="none" opacity="1.0" points="289.0,201.0 289.0,184.0" stroke="#000" stroke-width="1" /><polyline fill="none" opacity="1.0" points="293.0,201.0 293.0,184.0" stroke="#000" stroke-width="1" /><polyline fill="none" opacity="1.0" points="277.0,176.0 277.0,159.0" stroke="#000" stroke-width="1" /><polyline fill="none" opacity="1.0" points="281.0,176.0 281.0,159.0" stroke="#000" stroke-width="1" /><polyline fill="none" opacity="1.0" points="285.0,176.0 285.0,159.0" stroke="#000" stroke-width="1" /><polyline fill="none" opacity="1.0" points="289.0,176.0 289.0,159.0" stroke="#000" stroke-width="1" /><polyline fill="none" opacity="1.0" points="293.0,176.0 293.0,159.0" stroke="#000" stroke-width="1" /><polyline fill="none" opacity="1.0" points="335.0,180.0 362.0,180.0" stroke="#000" stroke-width="0.5" /><polyline fill="none" opacity="1.0" points="335.0,192.0 318.0,192.0" stroke="#000" stroke-width="1" /><polygon fill="#000" opacity="1.0" points="322.9262,190.68 318.0,192.0 322.9262,193.32" stroke="#000" stroke-width="1" /><polyline fill="none" opacity="1.0" points="318.0,168.0 335.0,168.0" stroke="#000" stroke-width="1" /><polygon fill="#000" opacity="1.0" points="330.0738,169.32 335.0,168.0 330.0738,166.68" stroke="#000" stroke-width="1" /><polyline fill="none" opacity="1.0" points="445.0,204.0 445.0,157.0" stroke="#7F7F7F" stroke-width="1" /><polyline fill="none" opacity="1.0" points="441.0,204.0 441.0,157.0" stroke="#7F7F7F" stroke-width="1" /><polyline fill="none" opacity="1.0" points="437.0,204.0 437.0,157.0" stroke="#7F7F7F" stroke-width="1" /><polyline fill="none" opacity="1.0" points="433.0,204.0 433.0,157.0" stroke="#7F7F7F" stroke-width="1" /><polyline fill="none" opacity="1.0" points="429.0,204.0 429.0,157.0" stroke="#7F7F7F" stroke-width="1" /><polyline fill="none" opacity="1.0" points="425.0,204.0 425.0,157.0" stroke="#7F7F7F" stroke-width="1" /><polyline fill="none" opacity="1.0" points="421.0,204.0 421.0,157.0" stroke="#7F7F7F" stroke-width="1" /><polyline fill="none" opacity="1.0" points="417.0,204.0 417.0,157.0" stroke="#7F7F7F" stroke-width="1" /><polyline fill="none" opacity="1.0" points="413.0,204.0 413.0,157.0" stroke="#7F7F7F" stroke-width="1" /><polyline fill="none" opacity="1.0" points="409.0,204.0 409.0,157.0" stroke="#7F7F7F" stroke-width="1" /><polyline fill="none" opacity="1.0" points="405.0,204.0 405.0,157.0" stroke="#7F7F7F" stroke-width="1" /><polyline fill="none" opacity="1.0" points="401.0,204.0 401.0,157.0" stroke="#7F7F7F" stroke-width="1" /><polyline fill="none" opacity="1.0" points="397.0,204.0 397.0,157.0" stroke="#7F7F7F" stroke-width="1" /><polyline fill="none" opacity="1.0" points="393.0,204.0 393.0,157.0" stroke="#7F7F7F" stroke-width="1" /><polyline fill="none" opacity="1.0" points="389.0,204.0 389.0,157.0" stroke="#7F7F7F" stroke-width="1" /><polyline fill="none" opacity="1.0" points="385.0,204.0 385.0,157.0" stroke="#7F7F7F" stroke-width="1" /><polyline fill="none" opacity="1.0" points="381.0,204.0 381.0,157.0" stroke="#7F7F7F" stroke-width="1" /><polyline fill="none" opacity="1.0" points="377.0,204.0 377.0,157.0" stroke="#7F7F7F" stroke-width="1" /><polyline fill="none" opacity="1.0" points="373.0,204.0 373.0,157.0" stroke="#7F7F7F" stroke-width="1" /><polyline fill="none" opacity="1.0" points="369.0,204.0 369.0,157.0" stroke="#7F7F7F" stroke-width="1" /><polygon fill="#9B5509" opacity="1.0" points="452.0,157.0 362.0,157.0 362.0,154.0 452.0,154.0" stroke="#000" stroke-width="1" /><polygon fill="#9B5509" opacity="1.0" points="452.0,165.0 452.0,170.0 362.0,170.0 362.0,165.0" stroke="#000" stroke-width="1" /><polygon fill="#9B5509" opacity="1.0" points="452.0,178.0 452.0,183.0 362.0,183.0 362.0,178.0" stroke="#000" stroke-width="1" /><polygon fill="#9B5509" opacity="1.0" points="452.0,191.0 452.0,196.0 362.0,196.0 362.0,191.0" stroke="#000" stroke-width="1" /><polygon fill="#9B5509" opacity="1.0" points="452.0,204.0 362.0,204.0 362.0,207.0 452.0,207.0" stroke="#000" stroke-width="1" /><polygon fill="#AC1CAC" opacity="1.0" points="434.0,140.0 434.0,110.0 884.0,110.0 884.0,140.0" stroke="#000" stroke-width="1" /><polygon fill="#AC1CAC" opacity="1.0" points="434.0,250.0 434.0,220.0 884.0,220.0 884.0,250.0" stroke="#000" stroke-width="1" /><text fill="#AC1CAC" font-family="Arial" font-size="15" font-weight="normal" opacity="1.0" transform="rotate(-0.0 436.0,90.0) translate(0 15)" x="436.0" y="90.0">&lt;&lt; Улица 1905 года</text><text fill="#AC1CAC" font-family="Arial" font-size="15" font-weight="normal" opacity="1.0" transform="rotate(-0.0 788.0,250.0) translate(0 15)" x="788.0" y="250.0">Пушкинская &gt;&gt;</text><text fill="#AC1CAC" font-family="Arial" font-size="25" font-weight="bold" opacity="1.0" transform="rotate(-0.0 576.0,174.0) translate(0 25)" x="576.0" y="174.0">Баррикадная</text><polyline fill="none" opacity="1.0" points="434.0,220.0 434.0,215.0 498.0,215.0 498.0,210.0 443.0,210.0 443.0,207.0" stroke="#000" stroke-width="1" /><polyline fill="none" opacity="1.0" points="434.0,140.0 434.0,146.0 498.0,146.0 498.0,151.0 443.0,151.0 443.0,154.0" stroke="#000" stroke-width="1" /><polyline fill="none" opacity="1.0" points="884.0,220.0 884.0,212.0 823.0,212.0 823.0,198.0 843.0,198.0 843.0,204.0 875.0,204.0 875.0,201.0" stroke="#000" stroke-width="1" /><polyline fill="none" opacity="1.0" points="875.0,161.0 875.0,158.0 843.0,158.0 843.0,164.0 823.0,164.0 823.0,150.0 884.0,150.0 884.0,140.0" stroke="#000" stroke-width="1" /><polygon fill="#34349C" opacity="1.0" points="656.0,175.0 656.0,171.0 655.0,171.0 655.0,175.0" stroke="#34349C" stroke-width="1" /><polygon fill="#F00" opacity="1.0" points="656.0,179.0 656.0,175.0 655.0,175.0 655.0,179.0" stroke="#F00" stroke-width="1" /><polyline fill="none" opacity="1.0" points="969.0,161.0 969.0,119.0 1080.0,119.0 1080.0,153.0 1071.0,153.0" stroke="#000" stroke-width="1" /><polyline fill="none" opacity="1.0" points="969.0,201.0 969.0,237.0 1027.0,237.0 1027.0,246.0" stroke="#000" stroke-width="1" /><polyline fill="none" opacity="1.0" points="1054.0,246.0 1054.0,237.0 1080.0,237.0 1080.0,179.0 1070.0,179.0" stroke="#000" stroke-width="1" /><polyline fill="none" opacity="1.0" points="1013.0,198.0 1013.0,164.0" stroke="#7F7F7F" stroke-width="1" /><polyline fill="none" opacity="1.0" points="1009.0,198.0 1009.0,164.0" stroke="#7F7F7F" stroke-width="1" /><polyline fill="none" opacity="1.0" points="1005.0,198.0 1005.0,164.0" stroke="#7F7F7F" stroke-width="1" /><polyline fill="none" opacity="1.0" points="1001.0,198.0 1001.0,164.0" stroke="#7F7F7F" stroke-width="1" /><polyline fill="none" opacity="1.0" points="997.0,198.0 997.0,164.0" stroke="#7F7F7F" stroke-width="1" /><polyline fill="none" opacity="1.0" points="993.0,198.0 993.0,164.0" stroke="#7F7F7F" stroke-width="1" /><polyline fill="none" opacity="1.0" points="989.0,198.0 989.0,164.0" stroke="#7F7F7F" stroke-width="1" /><polyline fill="none" opacity="1.0" points="985.0,198.0 985.0,164.0" stroke="#7F7F7F" stroke-width="1" /><polyline fill="none" opacity="1.0" points="981.0,198.0 981.0,164.0" stroke="#7F7F7F" stroke-width="1" /><polyline fill="none" opacity="1.0" points="977.0,198.0 977.0,164.0" stroke="#7F7F7F" stroke-width="1" /><polyline fill="none" opacity="1.0" points="973.0,198.0 973.0,164.0" stroke="#7F7F7F" stroke-width="1" /><polyline fill="none" opacity="1.0" points="969.0,198.0 969.0,164.0" stroke="#7F7F7F" stroke-width="1" /><polyline fill="none" opacity="1.0" points="965.0,198.0 965.0,164.0" stroke="#7F7F7F" stroke-width="1" /><polyline fill="none" opacity="1.0" points="961.0,198.0 961.0,164.0" stroke="#7F7F7F" stroke-width="1" /><polyline fill="none" opacity="1.0" points="957.0,198.0 957.0,164.0" stroke="#7F7F7F" stroke-width="1" /><polyline fill="none" opacity="1.0" points="953.0,198.0 953.0,164.0" stroke="#7F7F7F" stroke-width="1" /><polyline fill="none" opacity="1.0" points="949.0,198.0 949.0,164.0" stroke="#7F7F7F" stroke-width="1" /><polyline fill="none" opacity="1.0" points="945.0,198.0 945.0,164.0" stroke="#7F7F7F" stroke-width="1" /><polyline fill="none" opacity="1.0" points="941.0,198.0 941.0,164.0" stroke="#7F7F7F" stroke-width="1" /><polyline fill="none" opacity="1.0" points="937.0,198.0 937.0,164.0" stroke="#7F7F7F" stroke-width="1" /><polyline fill="none" opacity="1.0" points="933.0,198.0 933.0,164.0" stroke="#7F7F7F" stroke-width="1" /><polyline fill="none" opacity="1.0" points="929.0,198.0 929.0,164.0" stroke="#7F7F7F" stroke-width="1" /><polyline fill="none" opacity="1.0" points="925.0,198.0 925.0,164.0" stroke="#7F7F7F" stroke-width="1" /><polyline fill="none" opacity="1.0" points="921.0,198.0 921.0,164.0" stroke="#7F7F7F" stroke-width="1" /><polyline fill="none" opacity="1.0" points="917.0,198.0 917.0,164.0" stroke="#7F7F7F" stroke-width="1" /><polyline fill="none" opacity="1.0" points="913.0,198.0 913.0,164.0" stroke="#7F7F7F" stroke-width="1" /><polyline fill="none" opacity="1.0" points="909.0,198.0 909.0,164.0" stroke="#7F7F7F" stroke-width="1" /><polyline fill="none" opacity="1.0" points="905.0,198.0 905.0,164.0" stroke="#7F7F7F" stroke-width="1" /><polyline fill="none" opacity="1.0" points="901.0,198.0 901.0,164.0" stroke="#7F7F7F" stroke-width="1" /><polyline fill="none" opacity="1.0" points="897.0,198.0 897.0,164.0" stroke="#7F7F7F" stroke-width="1" /><polyline fill="none" opacity="1.0" points="893.0,198.0 893.0,164.0" stroke="#7F7F7F" stroke-width="1" /><polyline fill="none" opacity="1.0" points="889.0,198.0 889.0,164.0" stroke="#7F7F7F" stroke-width="1" /><polyline fill="none" opacity="1.0" points="885.0,198.0 885.0,164.0" stroke="#7F7F7F" stroke-width="1" /><polyline fill="none" opacity="1.0" points="881.0,198.0 881.0,164.0" stroke="#7F7F7F" stroke-width="1" /><polyline fill="none" opacity="1.0" points="877.0,198.0 877.0,164.0" stroke="#7F7F7F" stroke-width="1" /><polyline fill="none" opacity="1.0" points="873.0,198.0 873.0,164.0" stroke="#7F7F7F" stroke-width="1" /><polygon fill="#9B5509" opacity="1.0" points="1020.0,164.0 868.0,164.0 868.0,161.0 1020.0,161.0" stroke="#000" stroke-width="1" /><polygon fill="#9B5509" opacity="1.0" points="1020.0,172.0 1020.0,177.0 868.0,177.0 868.0,172.0" stroke="#000" stroke-width="1" /><polygon fill="#9B5509" opacity="1.0" points="1020.0,185.0 1020.0,190.0 868.0,190.0 868.0,185.0" stroke="#000" stroke-width="1" /><polygon fill="#9B5509" opacity="1.0" points="1020.0,198.0 868.0,198.0 868.0,201.0 1020.0,201.0" stroke="#000" stroke-width="1" /><polyline fill="none" opacity="1.0" points="1005.0,237.0 1005.0,246.0 977.0,246.0 977.0,237.0" stroke="#000" stroke-width="1" /><text fill="#FFF" font-family="Arial" font-size="10" font-weight="normal" opacity="1.0" transform="rotate(-0.0 979.0,234.0) translate(0 10)" x="979.0" y="234.0">кассы</text><polyline fill="none" opacity="1.0" points="1020.0,187.0 1080.0,187.0" stroke="#000" stroke-width="0.5" /><polygon fill="none" opacity="1.0" points="1070.0,208.0 1070.0,201.0 1077.0,201.0 1077.0,208.0" stroke="#000" stroke-width="1" /><polyline fill="none" opacity="1.0" points="1066.0,202.0 1066.0,207.0" stroke="#090" stroke-width="1" /><polyline fill="none" opacity="1.0" points="1062.0,202.0 1062.0,207.0" stroke="#090" stroke-width="1" /><polyline fill="none" opacity="1.0" points="1058.0,202.0 1058.0,207.0" stroke="#090" stroke-width="1" /><polyline fill="none" opacity="1.0" points="1054.0,202.0 1054.0,207.0" stroke="#090" stroke-width="1" /><polyline fill="none" opacity="1.0" points="1050.0,202.0 1050.0,207.0" stroke="#090" stroke-width="1" /><polyline fill="none" opacity="1.0" points="1046.0,202.0 1046.0,207.0" stroke="#090" stroke-width="1" /><polyline fill="none" opacity="1.0" points="1042.0,202.0 1042.0,207.0" stroke="#090" stroke-width="1" /><polyline fill="none" opacity="1.0" points="1038.0,202.0 1038.0,207.0" stroke="#090" stroke-width="1" /><polyline fill="none" opacity="1.0" points="1034.0,202.0 1034.0,207.0" stroke="#090" stroke-width="1" /><polyline fill="none" opacity="1.0" points="1030.0,202.0 1030.0,207.0" stroke="#090" stroke-width="1" /><polyline fill="none" opacity="1.0" points="1026.0,202.0 1026.0,207.0" stroke="#090" stroke-width="1" /><polyline fill="none" opacity="1.0" points="1022.0,202.0 1022.0,207.0" stroke="#090" stroke-width="1" /><polyline fill="none" opacity="1.0" points="1050.0,166.0 1087.0,166.0" stroke="#F00" stroke-width="1" /><polygon fill="#F00" opacity="1.0" points="1076.2782,168.8729 1087.0,166.0 1076.2782,163.1271" stroke="#F00" stroke-width="1" /><polyline fill="none" opacity="1.0" points="1041.0,258.0 1041.0,221.0" stroke="#090" stroke-width="1" /><polygon fill="#090" opacity="1.0" points="1043.8729,231.7218 1041.0,221.0 1038.1271,231.7218" stroke="#090" stroke-width="1" /><polygon fill="#34349C" opacity="1.0" points="1059.0,185.0 1055.0,185.0 1055.0,184.0 1059.0,184.0" stroke="#34349C" stroke-width="1" /><polygon fill="#F00" opacity="1.0" points="1063.0,185.0 1059.0,185.0 1059.0,184.0 1063.0,184.0" stroke="#F00" stroke-width="1" /><text fill="#00AFAF" font-family="Arial" font-size="15" font-weight="normal" opacity="1.0" transform="rotate(-10.0 15.0,438.0) translate(0 15)" x="15.0" y="438.0">улица Красная Пресня</text><text fill="#00AFAF" font-family="Arial" font-size="15" font-weight="normal" opacity="1.0" transform="rotate(-110.0 534.0,653.0) translate(0 15)" x="534.0" y="653.0">Конюшковская улица</text><text fill="#00AFAF" font-family="Arial" font-size="15" font-weight="normal" opacity="1.0" transform="rotate(-105.0 445.0,408.0) translate(0 15)" x="445.0" y="408.0">улица Большая Грузинская</text><text fill="#00AFAF" font-family="Arial" font-size="15" font-weight="normal" opacity="1.0" transform="rotate(20.0 919.0,456.0) translate(0 15)" x="919.0" y="456.0">Баррикадная улица</text><g transform="rotate(-20.0,575.0,365.0)"><text fill="#FFD900" font-family="Arial" font-size="25" font-weight="normal" opacity="1.0" x="132.25" y="720.5">1</text><text fill="#FFD900" font-family="Arial" font-size="25" font-weight="normal" opacity="1.0" x="1129.25" y="398.5">2</text></g></g></g></svg>