<?xml version="1.0" encoding="utf-8" ?>
<svg baseProfile="tiny" height="1080px" version="1.2" width="1170px" xmlns="http://www.w3.org/2000/svg" xmlns:ev="http://www.w3.org/2001/xml-events" xmlns:xlink="http://www.w3.org/1999/xlink"><defs /><g><g transform="rotate(45.0,585.0,540.0)"><polygon fill="#FEFBF1" opacity="100" points="43.0,347.0 43.0,815.0 174.0,946.0 427.0,946.0 427.0,794.0 236.0,794.0 193.0,751.0 193.0,347.0" stroke="#CCC" stroke-width="1" /><text fill="#000" font-family="Arial" font-size="15" font-weight="normal" opacity="100" transform="rotate(45.0 122.0,762.0) translate(0 15)" x="122.0" y="762.0">Белорусский вокзал</text><polygon fill="#047C54" opacity="100" points="664.0,428.0 664.0,458.0 214.0,458.0 214.0,428.0" stroke="#000" stroke-width="1" /><polygon fill="#047C54" opacity="100" points="664.0,318.0 664.0,348.0 214.0,348.0 214.0,318.0" stroke="#000" stroke-width="1" /><text fill="#047C54" font-family="Arial" font-size="20" font-weight="normal" opacity="100" transform="rotate(-0.0 531.0,458.0) translate(0 20)" x="531.0" y="458.0">Маяковская &gt;&gt;</text><text fill="#047C54" font-family="Arial" font-size="20" font-weight="normal" opacity="100" transform="rotate(-0.0 219.0,293.0) translate(0 20)" x="219.0" y="293.0">&lt;&lt; Динамо</text><text fill="#047C54" font-family="Arial" font-size="25" font-weight="bold" opacity="100" transform="rotate(-0.0 392.0,364.0) translate(0 25)" x="392.0" y="364.0">Белорусская</text><polygon fill="#34349C" opacity="100" points="574.0,388.0 574.0,392.0 573.0,392.0 573.0,388.0" stroke="#34349C" stroke-width="1" /><polygon fill="#F00" opacity="100" points="574.0,384.0 574.0,388.0 573.0,388.0 573.0,384.0" stroke="#F00" stroke-width="1" /><polyline fill="none" opacity="100" points="214.0,348.0 214.0,359.0 332.0,359.0 332.0,370.0 281.0,370.0 281.0,374.0" stroke="#000" stroke-width="1" /><polyline fill="none" opacity="100" points="281.0,403.0 281.0,407.0 332.0,407.0 332.0,417.0 214.0,417.0 214.0,428.0" stroke="#000" stroke-width="1" /><polyline fill="none" opacity="100" points="188.0,462.0 193.0,462.0 193.0,437.0 165.0,437.0 165.0,423.0 193.0,423.0 193.0,403.0" stroke="#000" stroke-width="1" /><polyline fill="none" opacity="100" points="193.0,374.0 193.0,347.0 114.0,347.0 114.0,351.0" stroke="#000" stroke-width="1" /><polyline fill="none" opacity="100" points="47.0,347.0 43.0,347.0 43.0,505.0 193.0,505.0 193.0,480.0 188.0,480.0" stroke="#000" stroke-width="1" /><polyline fill="none" opacity="100" points="75.0,466.0 75.0,347.0 71.0,347.0" stroke="#000" stroke-width="1" /><polyline fill="none" opacity="100" points="75.0,347.0 83.0,347.0 83.0,351.0" stroke="#000" stroke-width="1" /><polyline fill="none" opacity="100" points="43.0,367.0 75.0,367.0" stroke="#000" stroke-width="1" /><polyline fill="none" opacity="100" points="43.0,371.0 75.0,371.0" stroke="#000" stroke-width="1" /><polyline fill="none" opacity="100" points="43.0,375.0 75.0,375.0" stroke="#000" stroke-width="1" /><polyline fill="none" opacity="100" points="43.0,379.0 75.0,379.0" stroke="#000" stroke-width="1" /><polyline fill="none" opacity="100" points="43.0,383.0 75.0,383.0" stroke="#000" stroke-width="1" /><polyline fill="none" opacity="100" points="43.0,387.0 75.0,387.0" stroke="#000" stroke-width="1" /><polyline fill="none" opacity="100" points="43.0,391.0 75.0,391.0" stroke="#000" stroke-width="1" /><polyline fill="none" opacity="100" points="43.0,395.0 75.0,395.0" stroke="#000" stroke-width="1" /><polyline fill="none" opacity="100" points="43.0,399.0 75.0,399.0" stroke="#000" stroke-width="1" /><polyline fill="none" opacity="100" points="43.0,403.0 75.0,403.0" stroke="#000" stroke-width="1" /><polyline fill="none" opacity="100" points="43.0,407.0 75.0,407.0" stroke="#000" stroke-width="1" /><polyline fill="none" opacity="100" points="43.0,411.0 75.0,411.0" stroke="#000" stroke-width="1" /><polyline fill="none" opacity="100" points="43.0,415.0 75.0,415.0" stroke="#000" stroke-width="1" /><polyline fill="none" opacity="100" points="43.0,419.0 75.0,419.0" stroke="#000" stroke-width="1" /><polyline fill="none" opacity="100" points="43.0,423.0 75.0,423.0" stroke="#000" stroke-width="1" /><polyline fill="none" opacity="100" points="43.0,427.0 75.0,427.0" stroke="#000" stroke-width="1" /><polyline fill="none" opacity="100" points="43.0,431.0 75.0,431.0" stroke="#000" stroke-width="1" /><polyline fill="none" opacity="100" points="43.0,435.0 75.0,435.0" stroke="#000" stroke-width="1" /><polyline fill="none" opacity="100" points="43.0,439.0 75.0,439.0" stroke="#000" stroke-width="1" /><polyline fill="none" opacity="100" points="43.0,443.0 75.0,443.0" stroke="#000" stroke-width="1" /><polyline fill="none" opacity="100" points="43.0,447.0 75.0,447.0" stroke="#000" stroke-width="1" /><polyline fill="none" opacity="100" points="283.0,400.0 283.0,377.0" stroke="#7F7F7F" stroke-width="1" /><polyline fill="none" opacity="100" points="279.0,400.0 279.0,377.0" stroke="#7F7F7F" stroke-width="1" /><polyline fill="none" opacity="100" points="275.0,400.0 275.0,377.0" stroke="#7F7F7F" stroke-width="1" /><polyline fill="none" opacity="100" points="271.0,400.0 271.0,377.0" stroke="#7F7F7F" stroke-width="1" /><polyline fill="none" opacity="100" points="267.0,400.0 267.0,377.0" stroke="#7F7F7F" stroke-width="1" /><polyline fill="none" opacity="100" points="263.0,400.0 263.0,377.0" stroke="#7F7F7F" stroke-width="1" /><polyline fill="none" opacity="100" points="259.0,400.0 259.0,377.0" stroke="#7F7F7F" stroke-width="1" /><polyline fill="none" opacity="100" points="255.0,400.0 255.0,377.0" stroke="#7F7F7F" stroke-width="1" /><polyline fill="none" opacity="100" points="251.0,400.0 251.0,377.0" stroke="#7F7F7F" stroke-width="1" /><polyline fill="none" opacity="100" points="247.0,400.0 247.0,377.0" stroke="#7F7F7F" stroke-width="1" /><polyline fill="none" opacity="100" points="243.0,400.0 243.0,377.0" stroke="#7F7F7F" stroke-width="1" /><polyline fill="none" opacity="100" points="239.0,400.0 239.0,377.0" stroke="#7F7F7F" stroke-width="1" /><polyline fill="none" opacity="100" points="235.0,400.0 235.0,377.0" stroke="#7F7F7F" stroke-width="1" /><polyline fill="none" opacity="100" points="231.0,400.0 231.0,377.0" stroke="#7F7F7F" stroke-width="1" /><polyline fill="none" opacity="100" points="227.0,400.0 227.0,377.0" stroke="#7F7F7F" stroke-width="1" /><polyline fill="none" opacity="100" points="223.0,400.0 223.0,377.0" stroke="#7F7F7F" stroke-width="1" /><polyline fill="none" opacity="100" points="219.0,400.0 219.0,377.0" stroke="#7F7F7F" stroke-width="1" /><polyline fill="none" opacity="100" points="215.0,400.0 215.0,377.0" stroke="#7F7F7F" stroke-width="1" /><polyline fill="none" opacity="100" points="211.0,400.0 211.0,377.0" stroke="#7F7F7F" stroke-width="1" /><polyline fill="none" opacity="100" points="207.0,400.0 207.0,377.0" stroke="#7F7F7F" stroke-width="1" /><polyline fill="none" opacity="100" points="203.0,400.0 203.0,377.0" stroke="#7F7F7F" stroke-width="1" /><polyline fill="none" opacity="100" points="199.0,400.0 199.0,377.0" stroke="#7F7F7F" stroke-width="1" /><polyline fill="none" opacity="100" points="195.0,400.0 195.0,377.0" stroke="#7F7F7F" stroke-width="1" /><polyline fill="none" opacity="100" points="191.0,400.0 191.0,377.0" stroke="#7F7F7F" stroke-width="1" /><polyline fill="none" opacity="100" points="187.0,400.0 187.0,377.0" stroke="#7F7F7F" stroke-width="1" /><polyline fill="none" opacity="100" points="183.0,400.0 183.0,377.0" stroke="#7F7F7F" stroke-width="1" /><polyline fill="none" opacity="100" points="179.0,400.0 179.0,377.0" stroke="#7F7F7F" stroke-width="1" /><polyline fill="none" opacity="100" points="175.0,400.0 175.0,377.0" stroke="#7F7F7F" stroke-width="1" /><polyline fill="none" opacity="100" points="171.0,400.0 171.0,377.0" stroke="#7F7F7F" stroke-width="1" /><polyline fill="none" opacity="100" points="167.0,400.0 167.0,377.0" stroke="#7F7F7F" stroke-width="1" /><polyline fill="none" opacity="100" points="163.0,400.0 163.0,377.0" stroke="#7F7F7F" stroke-width="1" /><polyline fill="none" opacity="100" points="159.0,400.0 159.0,377.0" stroke="#7F7F7F" stroke-width="1" /><polygon fill="#9B5509" opacity="100" points="290.0,377.0 151.0,377.0 151.0,374.0 290.0,374.0" stroke="#000" stroke-width="1" /><polygon fill="#9B5509" opacity="100" points="290.0,382.0 290.0,386.0 151.0,386.0 151.0,382.0" stroke="#000" stroke-width="1" /><polygon fill="#9B5509" opacity="100" points="290.0,391.0 290.0,395.0 151.0,395.0 151.0,391.0" stroke="#000" stroke-width="1" /><polygon fill="#9B5509" opacity="100" points="290.0,400.0 151.0,400.0 151.0,403.0 290.0,403.0" stroke="#000" stroke-width="1" /><polyline fill="none" opacity="100" points="128.0,505.0 128.0,513.0 100.0,513.0 100.0,505.0" stroke="#000" stroke-width="1" /><text fill="#FFF" font-family="Arial" font-size="10" font-weight="normal" opacity="100" transform="rotate(-0.0 102.0,502.0) translate(0 10)" x="102.0" y="502.0">кассы</text><polygon fill="none" opacity="100" points="115.0,436.0 115.0,430.0 121.0,430.0 121.0,436.0" stroke="#000" stroke-width="1" /><polyline fill="none" opacity="100" points="151.0,384.0 105.0,384.0 75.0,405.0" stroke="#000" stroke-width="0.5" /><polyline fill="none" opacity="100" points="125.0,435.0 125.0,431.0" stroke="#090" stroke-width="1" /><polyline fill="none" opacity="100" points="129.0,435.0 129.0,431.0" stroke="#090" stroke-width="1" /><polyline fill="none" opacity="100" points="133.0,435.0 133.0,431.0" stroke="#090" stroke-width="1" /><polyline fill="none" opacity="100" points="137.0,435.0 137.0,431.0" stroke="#090" stroke-width="1" /><polyline fill="none" opacity="100" points="141.0,435.0 141.0,431.0" stroke="#090" stroke-width="1" /><polyline fill="none" opacity="100" points="145.0,435.0 145.0,431.0" stroke="#090" stroke-width="1" /><polyline fill="none" opacity="100" points="149.0,435.0 149.0,431.0" stroke="#090" stroke-width="1" /><polyline fill="none" opacity="100" points="153.0,435.0 153.0,431.0" stroke="#090" stroke-width="1" /><polyline fill="none" opacity="100" points="157.0,435.0 157.0,431.0" stroke="#090" stroke-width="1" /><polyline fill="none" opacity="100" points="161.0,435.0 161.0,431.0" stroke="#090" stroke-width="1" /><polyline fill="none" opacity="100" points="79.0,435.0 79.0,431.0" stroke="#090" stroke-width="1" /><polyline fill="none" opacity="100" points="83.0,435.0 83.0,431.0" stroke="#090" stroke-width="1" /><polyline fill="none" opacity="100" points="87.0,435.0 87.0,431.0" stroke="#090" stroke-width="1" /><polyline fill="none" opacity="100" points="91.0,435.0 91.0,431.0" stroke="#090" stroke-width="1" /><polyline fill="none" opacity="100" points="95.0,435.0 95.0,431.0" stroke="#090" stroke-width="1" /><polyline fill="none" opacity="100" points="99.0,435.0 99.0,431.0" stroke="#090" stroke-width="1" /><polyline fill="none" opacity="100" points="103.0,435.0 103.0,431.0" stroke="#090" stroke-width="1" /><polyline fill="none" opacity="100" points="107.0,435.0 107.0,431.0" stroke="#090" stroke-width="1" /><polyline fill="none" opacity="100" points="111.0,435.0 111.0,431.0" stroke="#090" stroke-width="1" /><polyline fill="none" opacity="100" points="98.0,354.0 98.0,341.0" stroke="#F00" stroke-width="1" /><polygon fill="#F00" opacity="100" points="99.0094,344.7671 98.0,341.0 96.9906,344.7671" stroke="#F00" stroke-width="1" /><polyline fill="none" opacity="100" points="197.0,471.0 181.0,471.0" stroke="#090" stroke-width="1" /><polygon fill="#090" opacity="100" points="185.6364,469.7577 181.0,471.0 185.6364,472.2423" stroke="#090" stroke-width="1" /><polyline fill="none" opacity="100" points="58.0,346.0 58.0,361.0" stroke="#090" stroke-width="1" /><polygon fill="#090" opacity="100" points="56.8353,356.6533 58.0,361.0 59.1647,356.6533" stroke="#090" stroke-width="1" /><polyline fill="none" opacity="100" points="97.0,456.0 97.0,442.0" stroke="#090" stroke-width="1" /><polygon fill="#090" opacity="100" points="98.087,446.0569 97.0,442.0 95.913,446.0569" stroke="#090" stroke-width="1" /><polyline fill="none" opacity="100" points="139.0,455.0 139.0,441.0" stroke="#090" stroke-width="1" /><polygon fill="#090" opacity="100" points="140.087,445.0569 139.0,441.0 137.913,445.0569" stroke="#090" stroke-width="1" /><polygon fill="#34349C" opacity="100" points="78.0,455.0 78.0,451.0 79.0,451.0 79.0,455.0" stroke="#34349C" stroke-width="1" /><polygon fill="#F00" opacity="100" points="78.0,459.0 78.0,455.0 79.0,455.0 79.0,459.0" stroke="#F00" stroke-width="1" /><polyline fill="none" opacity="100" points="664.0,348.0 664.0,362.0 574.0,362.0 574.0,372.0 582.0,372.0 582.0,405.0 574.0,405.0 574.0,415.0 664.0,415.0 664.0,428.0" stroke="#000" stroke-width="1" /><polygon fill="#9B5509" opacity="100" points="740.0,760.0 710.0,760.0 710.0,310.0 740.0,310.0" stroke="#000" stroke-width="1" /><polygon fill="#9B5509" opacity="100" points="850.0,760.0 820.0,760.0 820.0,310.0 850.0,310.0" stroke="#000" stroke-width="1" /><text fill="#543C04" font-family="Arial" font-size="20" font-weight="normal" opacity="100" transform="rotate(-90.0 680.0,761.0) translate(0 20)" x="680.0" y="761.0">&lt;&lt; Краснопресненская</text><text fill="#543C04" font-family="Arial" font-size="20" font-weight="normal" opacity="100" transform="rotate(-90.0 850.0,477.0) translate(0 20)" x="850.0" y="477.0">Новослободская &gt;&gt;</text><text fill="#543C04" font-family="Arial" font-size="25" font-weight="bold" opacity="100" transform="rotate(-90.0 778.0,603.0) translate(0 25)" x="778.0" y="603.0">Белорусская</text><polygon fill="#34349C" opacity="100" points="782.0,401.0 786.0,401.0 786.0,402.0 782.0,402.0" stroke="#34349C" stroke-width="1" /><polygon fill="#F00" opacity="100" points="778.0,401.0 782.0,401.0 782.0,402.0 778.0,402.0" stroke="#F00" stroke-width="1" /><polygon fill="#FEFBF1" opacity="100" points="678.0,794.0 841.0,794.0 841.0,957.0 678.0,957.0" stroke="#DFDFDF" stroke-width="1" /><polygon fill="#D0D0D0" opacity="100" points="841.0,864.0 841.0,899.0 828.0,886.0 828.0,877.0 841.0,864.0" stroke="#D0D0D0" stroke-width="1" /><polygon fill="#D0D0D0" opacity="100" points="841.0,899.0 817.0,923.0 810.0,916.0 799.0,916.0 799.0,937.0 803.0,937.0 803.0,957.0 841.0,957.0" stroke="#D0D0D0" stroke-width="1" /><polygon fill="#D0D0D0" opacity="100" points="822.0,794.0 822.0,845.0 813.0,854.0 806.0,854.0 806.0,833.0 794.0,821.0 794.0,794.0" stroke="#D0D0D0" stroke-width="1" /><polygon fill="#D0D0D0" opacity="100" points="765.0,794.0 765.0,821.0 753.0,833.0 753.0,854.0 748.0,854.0 739.0,845.0 719.0,865.0 731.0,877.0 731.0,886.0 718.0,899.0 742.0,923.0 749.0,916.0 759.0,916.0 759.0,937.0 742.0,937.0 709.0,904.0 709.0,794.0" stroke="#D0D0D0" stroke-width="1" /><polygon fill="#D0D0D0" opacity="100" points="678.0,794.0 685.0,794.0 685.0,897.0 678.0,904.0" stroke="#D0D0D0" stroke-width="1" /><polygon fill="#D0D0D0" opacity="100" points="678.0,904.0 678.0,957.0 731.0,957.0 712.0,938.0 706.0,944.0 686.0,924.0 692.0,918.0" stroke="#D0D0D0" stroke-width="1" /><polyline fill="none" opacity="100" points="841.0,794.0 841.0,864.0 828.0,877.0 828.0,886.0 841.0,899.0 817.0,923.0 810.0,916.0 799.0,916.0 799.0,937.0 803.0,937.0 803.0,957.0 731.0,957.0 678.0,904.0 685.0,897.0 685.0,794.0" stroke="#000" stroke-width="1" /><polyline fill="none" opacity="100" points="822.0,794.0 822.0,845.0 813.0,854.0 806.0,854.0 806.0,833.0 794.0,821.0" stroke="#000" stroke-width="1" /><polyline fill="none" opacity="100" points="765.0,821.0 753.0,833.0 753.0,854.0 748.0,854.0 739.0,845.0 719.0,865.0 731.0,877.0 731.0,886.0 718.0,899.0 742.0,923.0 749.0,916.0 759.0,916.0 759.0,937.0 742.0,937.0 709.0,904.0 709.0,794.0" stroke="#000" stroke-width="1" /><polyline fill="none" opacity="100" points="826.0,760.0 809.0,760.0 809.0,678.0 798.0,678.0 798.0,760.0 794.0,760.0" stroke="#000" stroke-width="1" /><polyline fill="none" opacity="100" points="765.0,760.0 761.0,760.0 761.0,678.0 750.0,678.0 750.0,760.0 740.0,760.0" stroke="#000" stroke-width="1" /><polyline fill="none" opacity="100" points="768.0,848.0 791.0,848.0" stroke="#7F7F7F" stroke-width="1" /><polyline fill="none" opacity="100" points="768.0,844.0 791.0,844.0" stroke="#7F7F7F" stroke-width="1" /><polyline fill="none" opacity="100" points="768.0,840.0 791.0,840.0" stroke="#7F7F7F" stroke-width="1" /><polyline fill="none" opacity="100" points="768.0,836.0 791.0,836.0" stroke="#7F7F7F" stroke-width="1" /><polyline fill="none" opacity="100" points="768.0,832.0 791.0,832.0" stroke="#7F7F7F" stroke-width="1" /><polyline fill="none" opacity="100" points="768.0,828.0 791.0,828.0" stroke="#7F7F7F" stroke-width="1" /><polyline fill="none" opacity="100" points="768.0,824.0 791.0,824.0" stroke="#7F7F7F" stroke-width="1" /><polyline fill="none" opacity="100" points="768.0,820.0 791.0,820.0" stroke="#7F7F7F" stroke-width="1" /><polyline fill="none" opacity="100" points="768.0,816.0 791.0,816.0" stroke="#7F7F7F" stroke-width="1" /><polyline fill="none" opacity="100" points="768.0,812.0 791.0,812.0" stroke="#7F7F7F" stroke-width="1" /><polyline fill="none" opacity="100" points="768.0,808.0 791.0,808.0" stroke="#7F7F7F" stroke-width="1" /><polyline fill="none" opacity="100" points="768.0,804.0 791.0,804.0" stroke="#7F7F7F" stroke-width="1" /><polyline fill="none" opacity="100" points="768.0,800.0 791.0,800.0" stroke="#7F7F7F" stroke-width="1" /><polyline fill="none" opacity="100" points="768.0,796.0 791.0,796.0" stroke="#7F7F7F" stroke-width="1" /><polyline fill="none" opacity="100" points="768.0,792.0 791.0,792.0" stroke="#7F7F7F" stroke-width="1" /><polyline fill="none" opacity="100" points="768.0,788.0 791.0,788.0" stroke="#7F7F7F" stroke-width="1" /><polyline fill="none" opacity="100" points="768.0,784.0 791.0,784.0" stroke="#7F7F7F" stroke-width="1" /><polyline fill="none" opacity="100" points="768.0,780.0 791.0,780.0" stroke="#7F7F7F" stroke-width="1" /><polyline fill="none" opacity="100" points="768.0,776.0 791.0,776.0" stroke="#7F7F7F" stroke-width="1" /><polyline fill="none" opacity="100" points="768.0,772.0 791.0,772.0" stroke="#7F7F7F" stroke-width="1" /><polyline fill="none" opacity="100" points="768.0,768.0 791.0,768.0" stroke="#7F7F7F" stroke-width="1" /><polyline fill="none" opacity="100" points="768.0,764.0 791.0,764.0" stroke="#7F7F7F" stroke-width="1" /><polyline fill="none" opacity="100" points="768.0,760.0 791.0,760.0" stroke="#7F7F7F" stroke-width="1" /><polyline fill="none" opacity="100" points="768.0,756.0 791.0,756.0" stroke="#7F7F7F" stroke-width="1" /><polyline fill="none" opacity="100" points="768.0,752.0 791.0,752.0" stroke="#7F7F7F" stroke-width="1" /><polyline fill="none" opacity="100" points="768.0,748.0 791.0,748.0" stroke="#7F7F7F" stroke-width="1" /><polyline fill="none" opacity="100" points="768.0,744.0 791.0,744.0" stroke="#7F7F7F" stroke-width="1" /><polyline fill="none" opacity="100" points="768.0,740.0 791.0,740.0" stroke="#7F7F7F" stroke-width="1" /><polyline fill="none" opacity="100" points="768.0,736.0 791.0,736.0" stroke="#7F7F7F" stroke-width="1" /><polyline fill="none" opacity="100" points="768.0,732.0 791.0,732.0" stroke="#7F7F7F" stroke-width="1" /><polyline fill="none" opacity="100" points="768.0,728.0 791.0,728.0" stroke="#7F7F7F" stroke-width="1" /><polyline fill="none" opacity="100" points="768.0,724.0 791.0,724.0" stroke="#7F7F7F" stroke-width="1" /><polygon fill="#9B5509" opacity="100" points="765.0,854.0 765.0,718.0 768.0,718.0 768.0,854.0" stroke="#000" stroke-width="1" /><polygon fill="#9B5509" opacity="100" points="773.0,854.0 773.0,718.0 777.0,718.0 777.0,854.0" stroke="#000" stroke-width="1" /><polygon fill="#9B5509" opacity="100" points="782.0,854.0 782.0,718.0 786.0,718.0 786.0,854.0" stroke="#000" stroke-width="1" /><polygon fill="#9B5509" opacity="100" points="791.0,854.0 791.0,718.0 794.0,718.0 794.0,854.0" stroke="#000" stroke-width="1" /><polyline fill="none" opacity="100" points="692.0,918.0 686.0,924.0 706.0,944.0 712.0,938.0" stroke="#000" stroke-width="1" /><text fill="#FFF" font-family="Arial" font-size="10" font-weight="normal" opacity="100" transform="rotate(45.0 695.0,918.0) translate(0 10)" x="695.0" y="918.0">кассы</text><polygon fill="none" opacity="100" points="756.0,908.0 756.0,914.0 762.0,914.0 762.0,908.0" stroke="#000" stroke-width="1" /><polyline fill="none" opacity="100" points="784.0,854.0 799.0,879.0 799.0,908.0" stroke="#000" stroke-width="0.5" /><polyline fill="none" opacity="100" points="766.0,913.0 766.0,909.0" stroke="#090" stroke-width="1" /><polyline fill="none" opacity="100" points="770.0,913.0 770.0,909.0" stroke="#090" stroke-width="1" /><polyline fill="none" opacity="100" points="774.0,913.0 774.0,909.0" stroke="#090" stroke-width="1" /><polyline fill="none" opacity="100" points="778.0,913.0 778.0,909.0" stroke="#090" stroke-width="1" /><polyline fill="none" opacity="100" points="782.0,913.0 782.0,909.0" stroke="#090" stroke-width="1" /><polyline fill="none" opacity="100" points="786.0,913.0 786.0,909.0" stroke="#090" stroke-width="1" /><polyline fill="none" opacity="100" points="790.0,913.0 790.0,909.0" stroke="#090" stroke-width="1" /><polyline fill="none" opacity="100" points="794.0,913.0 794.0,909.0" stroke="#090" stroke-width="1" /><polyline fill="none" opacity="100" points="798.0,913.0 798.0,909.0" stroke="#090" stroke-width="1" /><polyline fill="none" opacity="100" points="834.0,813.0 834.0,797.0" stroke="#F00" stroke-width="1" /><polygon fill="#F00" opacity="100" points="835.2423,801.6364 834.0,797.0 832.7577,801.6364" stroke="#F00" stroke-width="1" /><polyline fill="none" opacity="100" points="697.0,797.0 697.0,812.0" stroke="#090" stroke-width="1" /><polygon fill="#090" opacity="100" points="695.8353,807.6533 697.0,812.0 698.1647,807.6533" stroke="#090" stroke-width="1" /><polyline fill="none" opacity="100" points="780.0,935.0 780.0,922.0" stroke="#090" stroke-width="1" /><polygon fill="#090" opacity="100" points="781.0094,925.7671 780.0,922.0 778.9906,925.7671" stroke="#090" stroke-width="1" /><polygon fill="#34349C" opacity="100" points="831.0,898.0 831.0,902.0 832.0,902.0 832.0,898.0" stroke="#34349C" stroke-width="1" /><polygon fill="#F00" opacity="100" points="831.0,894.0 831.0,898.0 832.0,898.0 832.0,894.0" stroke="#F00" stroke-width="1" /><polyline fill="none" opacity="100" points="820.0,310.0 811.0,310.0 811.0,355.0 803.0,355.0 803.0,274.0 799.0,274.0" stroke="#000" stroke-width="1" /><polyline fill="none" opacity="100" points="799.0,203.0 810.0,203.0 810.0,159.0 838.0,159.0 838.0,-5.0 650.0,-5.0 650.0,-47.0" stroke="#000" stroke-width="1" /><polyline fill="none" opacity="100" points="628.0,-47.0 628.0,57.0 607.0,67.0" stroke="#000" stroke-width="1" /><polyline fill="none" opacity="100" points="616.0,86.0 650.0,70.0 650.0,35.0 722.0,35.0 722.0,159.0 754.0,159.0 754.0,203.0 761.0,203.0" stroke="#000" stroke-width="1" /><polyline fill="none" opacity="100" points="761.0,274.0 757.0,274.0 757.0,354.0 749.0,354.0 749.0,310.0 740.0,310.0" stroke="#000" stroke-width="1" /><polyline fill="none" opacity="100" points="618.0,85.0 609.0,66.0" stroke="#000" stroke-width="1" /><polyline fill="none" opacity="100" points="621.6193,83.2968 612.6193,64.2968" stroke="#000" stroke-width="1" /><polyline fill="none" opacity="100" points="625.2385,81.5936 616.2385,62.5936" stroke="#000" stroke-width="1" /><polyline fill="none" opacity="100" points="628.8578,79.8904 619.8578,60.8904" stroke="#000" stroke-width="1" /><polyline fill="none" opacity="100" points="632.4771,78.1872 623.4771,59.1872" stroke="#000" stroke-width="1" /><polyline fill="none" opacity="100" points="650.0,55.0 628.0,55.0" stroke="#000" stroke-width="1" /><polyline fill="none" opacity="100" points="650.0,51.0 628.0,51.0" stroke="#000" stroke-width="1" /><polyline fill="none" opacity="100" points="650.0,47.0 628.0,47.0" stroke="#000" stroke-width="1" /><polyline fill="none" opacity="100" points="650.0,43.0 628.0,43.0" stroke="#000" stroke-width="1" /><polyline fill="none" opacity="100" points="650.0,39.0 628.0,39.0" stroke="#000" stroke-width="1" /><polyline fill="none" opacity="100" points="650.0,-45.0 628.0,-45.0" stroke="#000" stroke-width="1" /><polyline fill="none" opacity="100" points="650.0,-41.0 628.0,-41.0" stroke="#000" stroke-width="1" /><polyline fill="none" opacity="100" points="650.0,-37.0 628.0,-37.0" stroke="#000" stroke-width="1" /><polyline fill="none" opacity="100" points="650.0,-33.0 628.0,-33.0" stroke="#000" stroke-width="1" /><polyline fill="none" opacity="100" points="650.0,-29.0 628.0,-29.0" stroke="#000" stroke-width="1" /><polyline fill="none" opacity="100" points="650.0,-25.0 628.0,-25.0" stroke="#000" stroke-width="1" /><polyline fill="none" opacity="100" points="650.0,-21.0 628.0,-21.0" stroke="#000" stroke-width="1" /><polyline fill="none" opacity="100" points="650.0,-17.0 628.0,-17.0" stroke="#000" stroke-width="1" /><polyline fill="none" opacity="100" points="650.0,-13.0 628.0,-13.0" stroke="#000" stroke-width="1" /><polyline fill="none" opacity="100" points="650.0,-9.0 628.0,-9.0" stroke="#000" stroke-width="1" /><polyline fill="none" opacity="100" points="722.0,59.0 838.0,59.0" stroke="#000" stroke-width="1" /><polyline fill="none" opacity="100" points="722.0,55.0 838.0,55.0" stroke="#000" stroke-width="1" /><polyline fill="none" opacity="100" points="757.0,324.0 803.0,324.0" stroke="#000" stroke-width="1" /><polyline fill="none" opacity="100" points="757.0,320.0 803.0,320.0" stroke="#000" stroke-width="1" /><polyline fill="none" opacity="100" points="757.0,316.0 803.0,316.0" stroke="#000" stroke-width="1" /><polyline fill="none" opacity="100" points="757.0,312.0 803.0,312.0" stroke="#000" stroke-width="1" /><polyline fill="none" opacity="100" points="757.0,308.0 803.0,308.0" stroke="#000" stroke-width="1" /><polyline fill="none" opacity="100" points="764.0,280.0 796.0,280.0" stroke="#7F7F7F" stroke-width="1" /><polyline fill="none" opacity="100" points="764.0,276.0 796.0,276.0" stroke="#7F7F7F" stroke-width="1" /><polyline fill="none" opacity="100" points="764.0,272.0 796.0,272.0" stroke="#7F7F7F" stroke-width="1" /><polyline fill="none" opacity="100" points="764.0,268.0 796.0,268.0" stroke="#7F7F7F" stroke-width="1" /><polyline fill="none" opacity="100" points="764.0,264.0 796.0,264.0" stroke="#7F7F7F" stroke-width="1" /><polyline fill="none" opacity="100" points="764.0,260.0 796.0,260.0" stroke="#7F7F7F" stroke-width="1" /><polyline fill="none" opacity="100" points="764.0,256.0 796.0,256.0" stroke="#7F7F7F" stroke-width="1" /><polyline fill="none" opacity="100" points="764.0,252.0 796.0,252.0" stroke="#7F7F7F" stroke-width="1" /><polyline fill="none" opacity="100" points="764.0,248.0 796.0,248.0" stroke="#7F7F7F" stroke-width="1" /><polyline fill="none" opacity="100" points="764.0,244.0 796.0,244.0" stroke="#7F7F7F" stroke-width="1" /><polyline fill="none" opacity="100" points="764.0,240.0 796.0,240.0" stroke="#7F7F7F" stroke-width="1" /><polyline fill="none" opacity="100" points="764.0,236.0 796.0,236.0" stroke="#7F7F7F" stroke-width="1" /><polyline fill="none" opacity="100" points="764.0,232.0 796.0,232.0" stroke="#7F7F7F" stroke-width="1" /><polyline fill="none" opacity="100" points="764.0,228.0 796.0,228.0" stroke="#7F7F7F" stroke-width="1" /><polyline fill="none" opacity="100" points="764.0,224.0 796.0,224.0" stroke="#7F7F7F" stroke-width="1" /><polyline fill="none" opacity="100" points="764.0,220.0 796.0,220.0" stroke="#7F7F7F" stroke-width="1" /><polyline fill="none" opacity="100" points="764.0,216.0 796.0,216.0" stroke="#7F7F7F" stroke-width="1" /><polyline fill="none" opacity="100" points="764.0,212.0 796.0,212.0" stroke="#7F7F7F" stroke-width="1" /><polyline fill="none" opacity="100" points="764.0,208.0 796.0,208.0" stroke="#7F7F7F" stroke-width="1" /><polyline fill="none" opacity="100" points="764.0,204.0 796.0,204.0" stroke="#7F7F7F" stroke-width="1" /><polyline fill="none" opacity="100" points="764.0,200.0 796.0,200.0" stroke="#7F7F7F" stroke-width="1" /><polyline fill="none" opacity="100" points="764.0,196.0 796.0,196.0" stroke="#7F7F7F" stroke-width="1" /><polyline fill="none" opacity="100" points="764.0,192.0 796.0,192.0" stroke="#7F7F7F" stroke-width="1" /><polygon fill="#9B5509" opacity="100" points="761.0,286.0 761.0,187.0 764.0,187.0 764.0,286.0" stroke="#000" stroke-width="1" /><polygon fill="#9B5509" opacity="100" points="769.0,286.0 769.0,187.0 773.0,187.0 773.0,286.0" stroke="#000" stroke-width="1" /><polygon fill="#9B5509" opacity="100" points="778.0,286.0 778.0,187.0 782.0,187.0 782.0,286.0" stroke="#000" stroke-width="1" /><polygon fill="#9B5509" opacity="100" points="787.0,286.0 787.0,187.0 791.0,187.0 791.0,286.0" stroke="#000" stroke-width="1" /><polygon fill="#9B5509" opacity="100" points="796.0,286.0 796.0,187.0 799.0,187.0 799.0,286.0" stroke="#000" stroke-width="1" /><polyline fill="none" opacity="100" points="838.0,150.0 810.0,150.0 810.0,159.0" stroke="#000" stroke-width="1" /><text fill="#FFF" font-family="Arial" font-size="10" font-weight="normal" opacity="100" transform="rotate(-0.0 812.0,148.0) translate(0 10)" x="812.0" y="148.0">кассы</text><polyline fill="none" opacity="100" points="810.0,150.0 810.0,129.0" stroke="#000" stroke-width="0.5" /><polygon fill="none" opacity="100" points="783.0,98.0 779.0,102.0 775.0,98.0 779.0,94.0" stroke="#000" stroke-width="1" /><polyline fill="none" opacity="100" points="733.0,98.0 722.0,98.0" stroke="#000" stroke-width="0.5" /><polyline fill="none" opacity="100" points="780.0,187.0 780.0,144.0 773.0,100.0" stroke="#000" stroke-width="0.5" /><polyline fill="none" opacity="100" points="811.0,127.0 808.0,130.0" stroke="#090" stroke-width="1" /><polyline fill="none" opacity="100" points="808.1716,124.1716 805.1716,127.1716" stroke="#090" stroke-width="1" /><polyline fill="none" opacity="100" points="805.3431,121.3431 802.3431,124.3431" stroke="#090" stroke-width="1" /><polyline fill="none" opacity="100" points="802.5147,118.5147 799.5147,121.5147" stroke="#090" stroke-width="1" /><polyline fill="none" opacity="100" points="799.6863,115.6863 796.6863,118.6863" stroke="#090" stroke-width="1" /><polyline fill="none" opacity="100" points="796.8579,112.8579 793.8579,115.8579" stroke="#090" stroke-width="1" /><polyline fill="none" opacity="100" points="794.0294,110.0294 791.0294,113.0294" stroke="#090" stroke-width="1" /><polyline fill="none" opacity="100" points="791.201,107.201 788.201,110.201" stroke="#090" stroke-width="1" /><polyline fill="none" opacity="100" points="788.3726,104.3726 785.3726,107.3726" stroke="#090" stroke-width="1" /><polyline fill="none" opacity="100" points="785.5442,101.5442 782.5442,104.5442" stroke="#090" stroke-width="1" /><polyline fill="none" opacity="100" points="773.0,96.0 773.0,100.0" stroke="#F00" stroke-width="1" /><polyline fill="none" opacity="100" points="769.0,96.0 769.0,100.0" stroke="#F00" stroke-width="1" /><polyline fill="none" opacity="100" points="765.0,96.0 765.0,100.0" stroke="#F00" stroke-width="1" /><polyline fill="none" opacity="100" points="761.0,96.0 761.0,100.0" stroke="#F00" stroke-width="1" /><polyline fill="none" opacity="100" points="757.0,96.0 757.0,100.0" stroke="#F00" stroke-width="1" /><polyline fill="none" opacity="100" points="753.0,96.0 753.0,100.0" stroke="#F00" stroke-width="1" /><polyline fill="none" opacity="100" points="749.0,96.0 749.0,100.0" stroke="#F00" stroke-width="1" /><polyline fill="none" opacity="100" points="745.0,96.0 745.0,100.0" stroke="#F00" stroke-width="1" /><polyline fill="none" opacity="100" points="741.0,96.0 741.0,100.0" stroke="#F00" stroke-width="1" /><polyline fill="none" opacity="100" points="737.0,96.0 737.0,100.0" stroke="#F00" stroke-width="1" /><polyline fill="none" opacity="100" points="733.0,96.0 733.0,100.0" stroke="#F00" stroke-width="1" /><polyline fill="none" opacity="100" points="764.0,154.0 764.0,138.0" stroke="#F00" stroke-width="1" /><polygon fill="#F00" opacity="100" points="765.2423,142.6364 764.0,138.0 762.7577,142.6364" stroke="#F00" stroke-width="1" /><polyline fill="none" opacity="100" points="795.0,139.0 795.0,155.0" stroke="#090" stroke-width="1" /><polygon fill="#090" opacity="100" points="793.7577,150.3636 795.0,155.0 796.2423,150.3636" stroke="#090" stroke-width="1" /><polygon fill="#FFF" opacity="0.8" points="418.0,427.0 440.0,427.0 440.0,459.0 418.0,459.0" stroke="#FFF" stroke-width="1" /><polygon fill="#FFF" opacity="0.8" points="452.0,427.0 472.0,427.0 472.0,459.0 452.0,459.0" stroke="#FFF" stroke-width="1" /><polygon fill="#FFF" opacity="0.8" points="484.0,427.0 504.0,427.0 504.0,459.0 484.0,459.0" stroke="#FFF" stroke-width="1" /><polygon fill="#FFF" opacity="0.8" points="709.0,479.0 741.0,479.0 741.0,496.0 709.0,496.0" stroke="#FFF" stroke-width="1" /><polygon fill="#FFF" opacity="0.8" points="709.0,507.0 741.0,507.0 741.0,523.0 709.0,523.0" stroke="#FFF" stroke-width="1" /><polygon fill="#FFF" opacity="0.8" points="709.0,533.0 741.0,533.0 741.0,549.0 709.0,549.0" stroke="#FFF" stroke-width="1" /><polyline fill="none" opacity="1.0" points="764.0,479.0 695.0,479.0 695.0,475.0 675.0,475.0 647.0,494.0 601.0,494.0 601.0,499.0" stroke="#000" stroke-width="1" /><polyline fill="none" opacity="1.0" points="529.0,499.0 529.0,494.0 504.0,494.0 504.0,404.0" stroke="#000" stroke-width="1" /><polyline fill="none" opacity="1.0" points="484.0,404.0 484.0,494.0 472.0,494.0 472.0,404.0" stroke="#000" stroke-width="1" /><polyline fill="none" opacity="1.0" points="452.0,404.0 452.0,494.0 440.0,494.0 440.0,404.0" stroke="#000" stroke-width="1" /><polyline fill="none" opacity="1.0" points="418.0,404.0 418.0,494.0 411.0,494.0 411.0,533.0 529.0,533.0 529.0,528.0" stroke="#000" stroke-width="1" /><polyline fill="none" opacity="1.0" points="601.0,528.0 601.0,533.0 647.0,533.0 675.0,553.0 695.0,553.0 695.0,549.0 764.0,549.0" stroke="#000" stroke-width="1" /><polyline fill="none" opacity="1.0" points="764.0,533.0 695.0,533.0 695.0,523.0 764.0,523.0" stroke="#000" stroke-width="1" /><polyline fill="none" opacity="1.0" points="764.0,507.0 695.0,507.0 695.0,496.0 764.0,496.0" stroke="#000" stroke-width="1" /><polyline fill="none" opacity="1.0" points="680.0,541.0 700.0,541.0" stroke="#000" stroke-width="1" /><polygon fill="#000" opacity="1.0" points="694.2044,542.5529 700.0,541.0 694.2044,539.4471" stroke="#000" stroke-width="1" /><polyline fill="none" opacity="1.0" points="700.0,487.0 680.0,487.0" stroke="#000" stroke-width="1" /><polygon fill="#000" opacity="1.0" points="685.7956,485.4471 680.0,487.0 685.7956,488.5529" stroke="#000" stroke-width="1" /><polyline fill="none" opacity="1.0" points="494.0,515.0 494.0,490.0" stroke="#000" stroke-width="1" /><polygon fill="#000" opacity="1.0" points="495.9411,497.2444 494.0,490.0 492.0589,497.2444" stroke="#000" stroke-width="1" /><polyline fill="none" opacity="1.0" points="428.0,490.0 428.0,515.0" stroke="#000" stroke-width="1" /><polygon fill="#000" opacity="1.0" points="426.0589,507.7556 428.0,515.0 429.9411,507.7556" stroke="#000" stroke-width="1" /><polyline fill="none" opacity="1.0" points="762.0,549.0 762.0,533.0" stroke="#000" stroke-width="1" /><polyline fill="none" opacity="1.0" points="758.0,549.0 758.0,533.0" stroke="#000" stroke-width="1" /><polyline fill="none" opacity="1.0" points="754.0,549.0 754.0,533.0" stroke="#000" stroke-width="1" /><polyline fill="none" opacity="1.0" points="750.0,549.0 750.0,533.0" stroke="#000" stroke-width="1" /><polyline fill="none" opacity="1.0" points="746.0,549.0 746.0,533.0" stroke="#000" stroke-width="1" /><polyline fill="none" opacity="1.0" points="742.0,549.0 742.0,533.0" stroke="#000" stroke-width="1" /><polyline fill="none" opacity="1.0" points="738.0,549.0 738.0,533.0" stroke="#000" stroke-width="1" /><polyline fill="none" opacity="1.0" points="734.0,549.0 734.0,533.0" stroke="#000" stroke-width="1" /><polyline fill="none" opacity="1.0" points="762.0,523.0 762.0,507.0" stroke="#000" stroke-width="1" /><polyline fill="none" opacity="1.0" points="758.0,523.0 758.0,507.0" stroke="#000" stroke-width="1" /><polyline fill="none" opacity="1.0" points="754.0,523.0 754.0,507.0" stroke="#000" stroke-width="1" /><polyline fill="none" opacity="1.0" points="750.0,523.0 750.0,507.0" stroke="#000" stroke-width="1" /><polyline fill="none" opacity="1.0" points="746.0,523.0 746.0,507.0" stroke="#000" stroke-width="1" /><polyline fill="none" opacity="1.0" points="742.0,523.0 742.0,507.0" stroke="#000" stroke-width="1" /><polyline fill="none" opacity="1.0" points="738.0,523.0 738.0,507.0" stroke="#000" stroke-width="1" /><polyline fill="none" opacity="1.0" points="734.0,523.0 734.0,507.0" stroke="#000" stroke-width="1" /><polyline fill="none" opacity="1.0" points="762.0,496.0 762.0,479.0" stroke="#000" stroke-width="1" /><polyline fill="none" opacity="1.0" points="758.0,496.0 758.0,479.0" stroke="#000" stroke-width="1" /><polyline fill="none" opacity="1.0" points="754.0,496.0 754.0,479.0" stroke="#000" stroke-width="1" /><polyline fill="none" opacity="1.0" points="750.0,496.0 750.0,479.0" stroke="#000" stroke-width="1" /><polyline fill="none" opacity="1.0" points="746.0,496.0 746.0,479.0" stroke="#000" stroke-width="1" /><polyline fill="none" opacity="1.0" points="742.0,496.0 742.0,479.0" stroke="#000" stroke-width="1" /><polyline fill="none" opacity="1.0" points="738.0,496.0 738.0,479.0" stroke="#000" stroke-width="1" /><polyline fill="none" opacity="1.0" points="734.0,496.0 734.0,479.0" stroke="#000" stroke-width="1" /><polyline fill="none" opacity="1.0" points="504.0,406.0 484.0,406.0" stroke="#000" stroke-width="1" /><polyline fill="none" opacity="1.0" points="504.0,410.0 484.0,410.0" stroke="#000" stroke-width="1" /><polyline fill="none" opacity="1.0" points="504.0,414.0 484.0,414.0" stroke="#000" stroke-width="1" /><polyline fill="none" opacity="1.0" points="504.0,418.0 484.0,418.0" stroke="#000" stroke-width="1" /><polyline fill="none" opacity="1.0" points="504.0,422.0 484.0,422.0" stroke="#000" stroke-width="1" /><polyline fill="none" opacity="1.0" points="504.0,426.0 484.0,426.0" stroke="#000" stroke-width="1" /><polyline fill="none" opacity="1.0" points="504.0,430.0 484.0,430.0" stroke="#000" stroke-width="1" /><polyline fill="none" opacity="1.0" points="504.0,434.0 484.0,434.0" stroke="#000" stroke-width="1" /><polyline fill="none" opacity="1.0" points="472.0,406.0 452.0,406.0" stroke="#000" stroke-width="1" /><polyline fill="none" opacity="1.0" points="472.0,410.0 452.0,410.0" stroke="#000" stroke-width="1" /><polyline fill="none" opacity="1.0" points="472.0,414.0 452.0,414.0" stroke="#000" stroke-width="1" /><polyline fill="none" opacity="1.0" points="472.0,418.0 452.0,418.0" stroke="#000" stroke-width="1" /><polyline fill="none" opacity="1.0" points="472.0,422.0 452.0,422.0" stroke="#000" stroke-width="1" /><polyline fill="none" opacity="1.0" points="472.0,426.0 452.0,426.0" stroke="#000" stroke-width="1" /><polyline fill="none" opacity="1.0" points="472.0,430.0 452.0,430.0" stroke="#000" stroke-width="1" /><polyline fill="none" opacity="1.0" points="472.0,434.0 452.0,434.0" stroke="#000" stroke-width="1" /><polyline fill="none" opacity="1.0" points="440.0,406.0 418.0,406.0" stroke="#000" stroke-width="1" /><polyline fill="none" opacity="1.0" points="440.0,410.0 418.0,410.0" stroke="#000" stroke-width="1" /><polyline fill="none" opacity="1.0" points="440.0,414.0 418.0,414.0" stroke="#000" stroke-width="1" /><polyline fill="none" opacity="1.0" points="440.0,418.0 418.0,418.0" stroke="#000" stroke-width="1" /><polyline fill="none" opacity="1.0" points="440.0,422.0 418.0,422.0" stroke="#000" stroke-width="1" /><polyline fill="none" opacity="1.0" points="440.0,426.0 418.0,426.0" stroke="#000" stroke-width="1" /><polyline fill="none" opacity="1.0" points="440.0,430.0 418.0,430.0" stroke="#000" stroke-width="1" /><polyline fill="none" opacity="1.0" points="440.0,434.0 418.0,434.0" stroke="#000" stroke-width="1" /><polyline fill="none" opacity="1.0" points="603.0,525.0 603.0,502.0" stroke="#7F7F7F" stroke-width="1" /><polyline fill="none" opacity="1.0" points="599.0,525.0 599.0,502.0" stroke="#7F7F7F" stroke-width="1" /><polyline fill="none" opacity="1.0" points="595.0,525.0 595.0,502.0" stroke="#7F7F7F" stroke-width="1" /><polyline fill="none" opacity="1.0" points="591.0,525.0 591.0,502.0" stroke="#7F7F7F" stroke-width="1" /><polyline fill="none" opacity="1.0" points="587.0,525.0 587.0,502.0" stroke="#7F7F7F" stroke-width="1" /><polyline fill="none" opacity="1.0" points="583.0,525.0 583.0,502.0" stroke="#7F7F7F" stroke-width="1" /><polyline fill="none" opacity="1.0" points="579.0,525.0 579.0,502.0" stroke="#7F7F7F" stroke-width="1" /><polyline fill="none" opacity="1.0" points="575.0,525.0 575.0,502.0" stroke="#7F7F7F" stroke-width="1" /><polyline fill="none" opacity="1.0" points="571.0,525.0 571.0,502.0" stroke="#7F7F7F" stroke-width="1" /><polyline fill="none" opacity="1.0" points="567.0,525.0 567.0,502.0" stroke="#7F7F7F" stroke-width="1" /><polyline fill="none" opacity="1.0" points="563.0,525.0 563.0,502.0" stroke="#7F7F7F" stroke-width="1" /><polyline fill="none" opacity="1.0" points="559.0,525.0 559.0,502.0" stroke="#7F7F7F" stroke-width="1" /><polyline fill="none" opacity="1.0" points="555.0,525.0 555.0,502.0" stroke="#7F7F7F" stroke-width="1" /><polyline fill="none" opacity="1.0" points="551.0,525.0 551.0,502.0" stroke="#7F7F7F" stroke-width="1" /><polyline fill="none" opacity="1.0" points="547.0,525.0 547.0,502.0" stroke="#7F7F7F" stroke-width="1" /><polyline fill="none" opacity="1.0" points="543.0,525.0 543.0,502.0" stroke="#7F7F7F" stroke-width="1" /><polyline fill="none" opacity="1.0" points="539.0,525.0 539.0,502.0" stroke="#7F7F7F" stroke-width="1" /><polyline fill="none" opacity="1.0" points="535.0,525.0 535.0,502.0" stroke="#7F7F7F" stroke-width="1" /><polyline fill="none" opacity="1.0" points="531.0,525.0 531.0,502.0" stroke="#7F7F7F" stroke-width="1" /><polyline fill="none" opacity="1.0" points="527.0,525.0 527.0,502.0" stroke="#7F7F7F" stroke-width="1" /><polygon fill="#9B5509" opacity="1.0" points="610.0,502.0 520.0,502.0 520.0,499.0 610.0,499.0" stroke="#000" stroke-width="1" /><polygon fill="#9B5509" opacity="1.0" points="610.0,507.0 610.0,511.0 520.0,511.0 520.0,507.0" stroke="#000" stroke-width="1" /><polygon fill="#9B5509" opacity="1.0" points="610.0,516.0 610.0,520.0 520.0,520.0 520.0,516.0" stroke="#000" stroke-width="1" /><polygon fill="#9B5509" opacity="1.0" points="610.0,525.0 520.0,525.0 520.0,528.0 610.0,528.0" stroke="#000" stroke-width="1" /><text fill="#00AFAF" font-family="Arial" font-size="15" font-weight="normal" opacity="1.0" transform="rotate(-90.0 895.0,971.0) translate(0 15)" x="895.0" y="971.0">улица Грузинский вал</text><text fill="#00AFAF" font-family="Arial" font-size="15" font-weight="normal" opacity="1.0" transform="rotate(-0.0 455.0,720.0) translate(0 15)" x="455.0" y="720.0">площадь Белорусского вокзала</text><text fill="#00AFAF" font-family="Arial" font-size="15" font-weight="normal" opacity="1.0" transform="rotate(-115.0 530.0,72.0) translate(0 15)" x="530.0" y="72.0">улица Бутырский вал</text><text fill="#00AFAF" font-family="Arial" font-size="15" font-weight="normal" opacity="1.0" transform="rotate(-90.0 688.0,-45.0) translate(0 15)" x="688.0" y="-45.0">Лесная улица</text><g transform="rotate(-90.0,585.0,540.0)"><text fill="#040464" font-family="Arial" font-size="12" font-weight="normal" opacity="1.0" x="-57.8" y="375.8">Схема станции Москва-Смоленская 5</text><g transform="rotate(45.0,585.0,540.0)"><text fill="#FFD900" font-family="Arial" font-size="25" font-weight="normal" opacity="1.0" x="491.25" y="850.5">1</text><text fill="#FFD900" font-family="Arial" font-size="25" font-weight="normal" opacity="1.0" x="908.25" y="275.5">2</text><text fill="#FFD900" font-family="Arial" font-size="25" font-weight="normal" opacity="1.0" x="994.25" y="149.5">3</text><text fill="#FFD900" font-family="Arial" font-size="25" font-weight="normal" opacity="1.0" x="405.25" y="102.5">4</text><text fill="#FFD900" font-family="Arial" font-size="25" font-weight="normal" opacity="1.0" x="299.25" y="24.5">5</text></g></g></g></g></svg>