<?xml version="1.0" encoding="utf-8" ?>
<svg baseProfile="tiny" height="470px" version="1.2" width="750px" xmlns="http://www.w3.org/2000/svg" xmlns:ev="http://www.w3.org/2001/xml-events" xmlns:xlink="http://www.w3.org/1999/xlink"><defs /><g><g transform="rotate(-25.0,375.0,235.0)"><polygon fill="#FCDC04" opacity="100" points="162.0,235.0 162.0,205.0 611.0,205.0 611.0,235.0" stroke="#000" stroke-width="1" /><polygon fill="#FCDC04" opacity="100" points="162.0,343.0 162.0,313.0 611.0,313.0 611.0,343.0" stroke="#000" stroke-width="1" /><text fill="#000" font-family="Arial" font-size="20" font-weight="normal" opacity="100" transform="rotate(-0.0 165.0,180.0) translate(0 20)" x="165.0" y="180.0">&lt;&lt; Новопеределкино</text><text fill="#000" font-family="Arial" font-size="20" font-weight="normal" opacity="100" transform="rotate(-0.0 499.0,341.0) translate(0 20)" x="499.0" y="341.0">Солнцево &gt;&gt;</text><text fill="#000" font-family="Arial" font-size="25" font-weight="bold" opacity="100" transform="rotate(-0.0 311.0,261.0) translate(0 25)" x="311.0" y="261.0">Боровское шоссе</text><text fill="#FCDC04" font-family="Arial" font-size="20" font-weight="normal" opacity="100" transform="rotate(-0.0 164.0,179.0) translate(0 20)" x="164.0" y="179.0">&lt;&lt; Новопеределкино</text><text fill="#FCDC04" font-family="Arial" font-size="20" font-weight="normal" opacity="100" transform="rotate(-0.0 498.0,340.0) translate(0 20)" x="498.0" y="340.0">Солнцево &gt;&gt;</text><text fill="#FCDC04" font-family="Arial" font-size="25" font-weight="bold" opacity="100" transform="rotate(-0.0 310.0,260.0) translate(0 25)" x="310.0" y="260.0">Боровское шоссе</text><polygon fill="#94949C" opacity="100" points="396.0,265.0 396.0,261.0 394.0,261.0 394.0,265.0" stroke="#94949C" stroke-width="1" /><polygon fill="#F00" opacity="100" points="396.0,269.0 396.0,265.0 394.0,265.0 394.0,269.0" stroke="#F00" stroke-width="1" /><polyline fill="none" opacity="100" points="611.0,235.0 611.0,250.0" stroke="#000" stroke-width="1" /><polyline fill="none" opacity="100" points="596.0,250.0 649.0,250.0 649.0,228.0 691.0,228.0 691.0,199.0 619.0,199.0 619.0,169.0 567.0,169.0 567.0,181.0 607.0,181.0" stroke="#000" stroke-width="1" /><polyline fill="none" opacity="100" points="607.0,199.0 549.0,199.0 549.0,151.0 697.0,151.0" stroke="#000" stroke-width="1" /><polyline fill="none" opacity="100" points="697.0,169.0 638.0,169.0 638.0,181.0 718.0,181.0 718.0,305.0 698.0,305.0 698.0,320.0 649.0,320.0 649.0,310.0 611.0,310.0 611.0,313.0" stroke="#000" stroke-width="1" /><polyline fill="none" opacity="100" points="596.0,295.0 636.0,295.0" stroke="#000" stroke-width="1" /><polyline fill="none" opacity="100" points="695.0,304.0 680.0,304.0" stroke="#000" stroke-width="0.5" /><polyline fill="none" opacity="100" points="669.0,266.0 705.0,266.0 705.0,228.0" stroke="#000" stroke-width="0.5" /><polyline fill="none" opacity="100" points="567.0,165.0 607.0,165.0" stroke="#000" stroke-width="0.5" /><polyline fill="none" opacity="100" points="697.0,165.0 657.0,165.0" stroke="#000" stroke-width="0.5" /><polyline fill="none" opacity="100" points="678.0,185.0 638.0,185.0" stroke="#000" stroke-width="0.5" /><polyline fill="none" opacity="100" points="567.0,185.0 607.0,185.0" stroke="#000" stroke-width="0.5" /><polyline fill="none" opacity="100" points="598.0,250.0 598.0,295.0" stroke="#000" stroke-width="1" /><polyline fill="none" opacity="100" points="602.0,250.0 602.0,295.0" stroke="#000" stroke-width="1" /><polyline fill="none" opacity="100" points="606.0,250.0 606.0,295.0" stroke="#000" stroke-width="1" /><polyline fill="none" opacity="100" points="610.0,250.0 610.0,295.0" stroke="#000" stroke-width="1" /><polyline fill="none" opacity="100" points="614.0,250.0 614.0,295.0" stroke="#000" stroke-width="1" /><polyline fill="none" opacity="100" points="618.0,250.0 618.0,295.0" stroke="#000" stroke-width="1" /><polyline fill="none" opacity="100" points="622.0,250.0 622.0,295.0" stroke="#000" stroke-width="1" /><polyline fill="none" opacity="100" points="626.0,250.0 626.0,295.0" stroke="#000" stroke-width="1" /><polyline fill="none" opacity="100" points="630.0,250.0 630.0,295.0" stroke="#000" stroke-width="1" /><polyline fill="none" opacity="100" points="634.0,250.0 634.0,295.0" stroke="#000" stroke-width="1" /><polyline fill="none" opacity="100" points="605.0,199.0 605.0,185.0" stroke="#000" stroke-width="1" /><polyline fill="none" opacity="100" points="601.0,199.0 601.0,185.0" stroke="#000" stroke-width="1" /><polyline fill="none" opacity="100" points="597.0,199.0 597.0,185.0" stroke="#000" stroke-width="1" /><polyline fill="none" opacity="100" points="593.0,199.0 593.0,185.0" stroke="#000" stroke-width="1" /><polyline fill="none" opacity="100" points="589.0,199.0 589.0,185.0" stroke="#000" stroke-width="1" /><polyline fill="none" opacity="100" points="585.0,199.0 585.0,185.0" stroke="#000" stroke-width="1" /><polyline fill="none" opacity="100" points="581.0,199.0 581.0,185.0" stroke="#000" stroke-width="1" /><polyline fill="none" opacity="100" points="577.0,199.0 577.0,185.0" stroke="#000" stroke-width="1" /><polyline fill="none" opacity="100" points="573.0,199.0 573.0,185.0" stroke="#000" stroke-width="1" /><polyline fill="none" opacity="100" points="569.0,199.0 569.0,185.0" stroke="#000" stroke-width="1" /><polyline fill="none" opacity="100" points="569.0,151.0 569.0,165.0" stroke="#000" stroke-width="1" /><polyline fill="none" opacity="100" points="573.0,151.0 573.0,165.0" stroke="#000" stroke-width="1" /><polyline fill="none" opacity="100" points="577.0,151.0 577.0,165.0" stroke="#000" stroke-width="1" /><polyline fill="none" opacity="100" points="581.0,151.0 581.0,165.0" stroke="#000" stroke-width="1" /><polyline fill="none" opacity="100" points="585.0,151.0 585.0,165.0" stroke="#000" stroke-width="1" /><polyline fill="none" opacity="100" points="589.0,151.0 589.0,165.0" stroke="#000" stroke-width="1" /><polyline fill="none" opacity="100" points="593.0,151.0 593.0,165.0" stroke="#000" stroke-width="1" /><polyline fill="none" opacity="100" points="597.0,151.0 597.0,165.0" stroke="#000" stroke-width="1" /><polyline fill="none" opacity="100" points="601.0,151.0 601.0,165.0" stroke="#000" stroke-width="1" /><polyline fill="none" opacity="100" points="605.0,151.0 605.0,165.0" stroke="#000" stroke-width="1" /><polyline fill="none" opacity="100" points="695.0,151.0 695.0,165.0" stroke="#000" stroke-width="1" /><polyline fill="none" opacity="100" points="691.0,151.0 691.0,165.0" stroke="#000" stroke-width="1" /><polyline fill="none" opacity="100" points="687.0,151.0 687.0,165.0" stroke="#000" stroke-width="1" /><polyline fill="none" opacity="100" points="683.0,151.0 683.0,165.0" stroke="#000" stroke-width="1" /><polyline fill="none" opacity="100" points="679.0,151.0 679.0,165.0" stroke="#000" stroke-width="1" /><polyline fill="none" opacity="100" points="675.0,151.0 675.0,165.0" stroke="#000" stroke-width="1" /><polyline fill="none" opacity="100" points="671.0,151.0 671.0,165.0" stroke="#000" stroke-width="1" /><polyline fill="none" opacity="100" points="667.0,151.0 667.0,165.0" stroke="#000" stroke-width="1" /><polyline fill="none" opacity="100" points="663.0,151.0 663.0,165.0" stroke="#000" stroke-width="1" /><polyline fill="none" opacity="100" points="659.0,151.0 659.0,165.0" stroke="#000" stroke-width="1" /><polyline fill="none" opacity="100" points="676.0,199.0 676.0,185.0" stroke="#000" stroke-width="1" /><polyline fill="none" opacity="100" points="672.0,199.0 672.0,185.0" stroke="#000" stroke-width="1" /><polyline fill="none" opacity="100" points="668.0,199.0 668.0,185.0" stroke="#000" stroke-width="1" /><polyline fill="none" opacity="100" points="664.0,199.0 664.0,185.0" stroke="#000" stroke-width="1" /><polyline fill="none" opacity="100" points="660.0,199.0 660.0,185.0" stroke="#000" stroke-width="1" /><polyline fill="none" opacity="100" points="656.0,199.0 656.0,185.0" stroke="#000" stroke-width="1" /><polyline fill="none" opacity="100" points="652.0,199.0 652.0,185.0" stroke="#000" stroke-width="1" /><polyline fill="none" opacity="100" points="648.0,199.0 648.0,185.0" stroke="#000" stroke-width="1" /><polyline fill="none" opacity="100" points="644.0,199.0 644.0,185.0" stroke="#000" stroke-width="1" /><polyline fill="none" opacity="100" points="640.0,199.0 640.0,185.0" stroke="#000" stroke-width="1" /><polygon fill="none" opacity="100" points="677.0,297.0 670.0,297.0 670.0,304.0 677.0,304.0" stroke="#000" stroke-width="1" /><polyline fill="none" opacity="100" points="671.0,293.0 676.0,293.0" stroke="#090" stroke-width="1" /><polyline fill="none" opacity="100" points="671.0,289.0 676.0,289.0" stroke="#090" stroke-width="1" /><polyline fill="none" opacity="100" points="671.0,285.0 676.0,285.0" stroke="#090" stroke-width="1" /><polyline fill="none" opacity="100" points="671.0,281.0 676.0,281.0" stroke="#090" stroke-width="1" /><polyline fill="none" opacity="100" points="671.0,277.0 676.0,277.0" stroke="#090" stroke-width="1" /><polyline fill="none" opacity="100" points="671.0,273.0 676.0,273.0" stroke="#090" stroke-width="1" /><polyline fill="none" opacity="100" points="671.0,269.0 676.0,269.0" stroke="#090" stroke-width="1" /><polyline fill="none" opacity="100" points="684.0,235.0 687.0,232.0" stroke="#F00" stroke-width="1" /><polyline fill="none" opacity="100" points="686.8284,237.8284 689.8284,234.8284" stroke="#F00" stroke-width="1" /><polyline fill="none" opacity="100" points="689.6569,240.6569 692.6569,237.6569" stroke="#F00" stroke-width="1" /><polyline fill="none" opacity="100" points="692.4853,243.4853 695.4853,240.4853" stroke="#F00" stroke-width="1" /><polyline fill="none" opacity="100" points="695.3137,246.3137 698.3137,243.3137" stroke="#F00" stroke-width="1" /><polyline fill="none" opacity="100" points="698.1421,249.1421 701.1421,246.1421" stroke="#F00" stroke-width="1" /><polyline fill="none" opacity="100" points="700.9706,251.9706 703.9706,248.9706" stroke="#F00" stroke-width="1" /><polyline fill="none" opacity="100" points="718.0,261.0 726.0,261.0 726.0,289.0 718.0,289.0" stroke="#000" stroke-width="1" /><text fill="#000" font-family="Arial" font-size="10" font-weight="normal" opacity="100" transform="rotate(90.0 729.0,262.0) translate(0 10)" x="729.0" y="262.0">кассы</text><polygon fill="#D0EFFF" opacity="100" points="613.0,310.0 613.0,295.0 628.0,295.0 628.0,310.0" stroke="#000" stroke-width="1" /><text fill="#000" font-family="Arial" font-size="6" font-weight="normal" opacity="100" transform="rotate(-0.0 614.0,299.0) translate(0 6)" x="614.0" y="299.0">лифт</text><polygon fill="#94949C" opacity="100" points="654.0,244.0 654.0,240.0 652.0,240.0 652.0,244.0" stroke="#94949C" stroke-width="1" /><polygon fill="#F00" opacity="100" points="654.0,248.0 654.0,244.0 652.0,244.0 652.0,248.0" stroke="#F00" stroke-width="1" /><polyline fill="none" opacity="100" points="162.0,235.0 162.0,254.0 158.0,254.0" stroke="#000" stroke-width="1" /><polyline fill="none" opacity="100" points="162.0,313.0 162.0,293.0 158.0,293.0" stroke="#000" stroke-width="1" /><polyline fill="none" opacity="100" points="81.0,254.0 81.0,239.0 39.0,239.0 39.0,221.0 -14.0,221.0 -14.0,282.0" stroke="#000" stroke-width="1" /><polyline fill="none" opacity="100" points="4.0,282.0 4.0,239.0 14.0,239.0 14.0,307.0 81.0,307.0 81.0,293.0" stroke="#000" stroke-width="1" /><polyline fill="none" opacity="100" points="72.0,274.0 37.0,274.0 27.0,264.0 27.0,239.0 18.0,230.0 3.0,230.0" stroke="#000" stroke-width="0.5" /><polyline fill="none" opacity="100" points="71.0,254.0 51.0,254.0" stroke="#000" stroke-width="0.5" /><polyline fill="none" opacity="100" points="-1.0,282.0 -1.0,242.0" stroke="#000" stroke-width="0.5" /><polyline fill="none" opacity="100" points="-14.0,280.0 -1.0,280.0" stroke="#000" stroke-width="1" /><polyline fill="none" opacity="100" points="-14.0,276.0 -1.0,276.0" stroke="#000" stroke-width="1" /><polyline fill="none" opacity="100" points="-14.0,272.0 -1.0,272.0" stroke="#000" stroke-width="1" /><polyline fill="none" opacity="100" points="-14.0,268.0 -1.0,268.0" stroke="#000" stroke-width="1" /><polyline fill="none" opacity="100" points="-14.0,264.0 -1.0,264.0" stroke="#000" stroke-width="1" /><polyline fill="none" opacity="100" points="-14.0,260.0 -1.0,260.0" stroke="#000" stroke-width="1" /><polyline fill="none" opacity="100" points="-14.0,256.0 -1.0,256.0" stroke="#000" stroke-width="1" /><polyline fill="none" opacity="100" points="-14.0,252.0 -1.0,252.0" stroke="#000" stroke-width="1" /><polyline fill="none" opacity="100" points="-14.0,248.0 -1.0,248.0" stroke="#000" stroke-width="1" /><polyline fill="none" opacity="100" points="-14.0,244.0 -1.0,244.0" stroke="#000" stroke-width="1" /><polyline fill="none" opacity="100" points="79.0,257.0 79.0,290.0" stroke="#7F7F7F" stroke-width="1" /><polyline fill="none" opacity="100" points="83.0,257.0 83.0,290.0" stroke="#7F7F7F" stroke-width="1" /><polyline fill="none" opacity="100" points="87.0,257.0 87.0,290.0" stroke="#7F7F7F" stroke-width="1" /><polyline fill="none" opacity="100" points="91.0,257.0 91.0,290.0" stroke="#7F7F7F" stroke-width="1" /><polyline fill="none" opacity="100" points="95.0,257.0 95.0,290.0" stroke="#7F7F7F" stroke-width="1" /><polyline fill="none" opacity="100" points="99.0,257.0 99.0,290.0" stroke="#7F7F7F" stroke-width="1" /><polyline fill="none" opacity="100" points="103.0,257.0 103.0,290.0" stroke="#7F7F7F" stroke-width="1" /><polyline fill="none" opacity="100" points="107.0,257.0 107.0,290.0" stroke="#7F7F7F" stroke-width="1" /><polyline fill="none" opacity="100" points="111.0,257.0 111.0,290.0" stroke="#7F7F7F" stroke-width="1" /><polyline fill="none" opacity="100" points="115.0,257.0 115.0,290.0" stroke="#7F7F7F" stroke-width="1" /><polyline fill="none" opacity="100" points="119.0,257.0 119.0,290.0" stroke="#7F7F7F" stroke-width="1" /><polyline fill="none" opacity="100" points="123.0,257.0 123.0,290.0" stroke="#7F7F7F" stroke-width="1" /><polyline fill="none" opacity="100" points="127.0,257.0 127.0,290.0" stroke="#7F7F7F" stroke-width="1" /><polyline fill="none" opacity="100" points="131.0,257.0 131.0,290.0" stroke="#7F7F7F" stroke-width="1" /><polyline fill="none" opacity="100" points="135.0,257.0 135.0,290.0" stroke="#7F7F7F" stroke-width="1" /><polyline fill="none" opacity="100" points="139.0,257.0 139.0,290.0" stroke="#7F7F7F" stroke-width="1" /><polyline fill="none" opacity="100" points="143.0,257.0 143.0,290.0" stroke="#7F7F7F" stroke-width="1" /><polyline fill="none" opacity="100" points="147.0,257.0 147.0,290.0" stroke="#7F7F7F" stroke-width="1" /><polyline fill="none" opacity="100" points="151.0,257.0 151.0,290.0" stroke="#7F7F7F" stroke-width="1" /><polygon fill="#9B5509" opacity="100" points="158.0,254.0 73.0,254.0 73.0,257.0 158.0,257.0" stroke="#000" stroke-width="1" /><polygon fill="#9B5509" opacity="100" points="158.0,263.0 73.0,263.0 73.0,266.0 158.0,266.0" stroke="#000" stroke-width="1" /><polygon fill="#9B5509" opacity="100" points="158.0,272.0 73.0,272.0 73.0,275.0 158.0,275.0" stroke="#000" stroke-width="1" /><polygon fill="#9B5509" opacity="100" points="158.0,281.0 73.0,281.0 73.0,284.0 158.0,284.0" stroke="#000" stroke-width="1" /><polygon fill="#9B5509" opacity="100" points="158.0,290.0 73.0,290.0 73.0,293.0 158.0,293.0" stroke="#000" stroke-width="1" /><polyline fill="none" opacity="100" points="44.0,307.0 44.0,315.0 16.0,315.0 16.0,307.0" stroke="#000" stroke-width="1" /><text fill="#000" font-family="Arial" font-size="10" font-weight="normal" opacity="100" transform="rotate(-0.0 18.0,304.0) translate(0 10)" x="18.0" y="304.0">кассы</text><polygon fill="none" opacity="100" points="52.0,296.0 46.0,296.0 46.0,302.0 52.0,302.0" stroke="#000" stroke-width="1" /><polyline fill="none" opacity="100" points="47.0,292.0 51.0,292.0" stroke="#090" stroke-width="1" /><polyline fill="none" opacity="100" points="47.0,288.0 51.0,288.0" stroke="#090" stroke-width="1" /><polyline fill="none" opacity="100" points="47.0,284.0 51.0,284.0" stroke="#090" stroke-width="1" /><polyline fill="none" opacity="100" points="47.0,280.0 51.0,280.0" stroke="#090" stroke-width="1" /><polyline fill="none" opacity="100" points="47.0,276.0 51.0,276.0" stroke="#090" stroke-width="1" /><polyline fill="none" opacity="100" points="47.0,256.0 51.0,256.0" stroke="#F00" stroke-width="1" /><polyline fill="none" opacity="100" points="47.0,260.0 51.0,260.0" stroke="#F00" stroke-width="1" /><polyline fill="none" opacity="100" points="47.0,264.0 51.0,264.0" stroke="#F00" stroke-width="1" /><polyline fill="none" opacity="100" points="47.0,268.0 51.0,268.0" stroke="#F00" stroke-width="1" /><polyline fill="none" opacity="100" points="47.0,272.0 51.0,272.0" stroke="#F00" stroke-width="1" /><text fill="#00AFAF" font-family="Arial" font-size="15" font-weight="normal" opacity="100" transform="rotate(-20.0 107.0,101.0) translate(0 15)" x="107.0" y="101.0">Боровское\nшоссе</text><text fill="#00AFAF" font-family="Arial" font-size="15" font-weight="normal" opacity="100" transform="rotate(90.0 769.0,170.0) translate(0 15)" x="769.0" y="170.0">Приречная улица</text><g transform="rotate(25.0,375.0,235.0)"><text fill="#FFD900" font-family="Arial" font-size="25" font-weight="normal" opacity="100" x="14.25" y="461.5">1</text><text fill="#FFD900" font-family="Arial" font-size="25" font-weight="normal" opacity="100" x="475.25" y="122.5">2</text><text fill="#FFD900" font-family="Arial" font-size="25" font-weight="normal" opacity="100" x="646.25" y="25.5">3</text></g></g></g></svg>