<?xml version="1.0" encoding="utf-8" ?>
<svg baseProfile="tiny" height="950px" version="1.2" width="960px" xmlns="http://www.w3.org/2000/svg" xmlns:ev="http://www.w3.org/2001/xml-events" xmlns:xlink="http://www.w3.org/1999/xlink"><defs /><g><g transform="rotate(-30.0,480.0,475.0)"><polygon fill="#84BC54" opacity="100" points="709.0,403.0 259.0,403.0 259.0,373.0 709.0,373.0" stroke="#000" stroke-width="1" /><polygon fill="#84BC54" opacity="100" points="709.0,293.0 259.0,293.0 259.0,263.0 709.0,263.0" stroke="#000" stroke-width="1" /><text fill="#5C9F2E" font-family="Arial" font-size="25" font-weight="bold" opacity="100" transform="rotate(-0.0 399.0,322.0) translate(0 25)" x="399.0" y="322.0">Братиславская</text><text fill="#5C9F2E" font-family="Arial" font-size="20" font-weight="normal" opacity="100" transform="rotate(-0.0 270.0,236.0) translate(0 20)" x="270.0" y="236.0">&lt;&lt; Марьино</text><text fill="#5C9F2E" font-family="Arial" font-size="20" font-weight="normal" opacity="100" transform="rotate(-0.0 596.0,404.0) translate(0 20)" x="596.0" y="404.0">Люблино &gt;&gt;</text><polygon fill="#34349C" opacity="100" points="454.0,326.0 454.0,330.0 455.0,330.0 455.0,326.0" stroke="#34349C" stroke-width="1" /><polygon fill="#F00" opacity="100" points="454.0,322.0 454.0,326.0 455.0,326.0 455.0,322.0" stroke="#F00" stroke-width="1" /><polyline fill="none" opacity="100" points="934.0,612.0 823.0,612.0" stroke="#000" stroke-width="1" /><polyline fill="none" opacity="100" points="934.0,595.0 894.0,595.0 894.0,403.0 903.0,403.0 903.0,263.0 762.0,263.0 762.0,305.0 709.0,305.0 709.0,293.0" stroke="#000" stroke-width="1" /><polyline fill="none" opacity="100" points="709.0,373.0 709.0,363.0 762.0,363.0 762.0,403.0 863.0,403.0 863.0,444.0 834.0,444.0 834.0,429.0 757.0,429.0" stroke="#000" stroke-width="1" /><polyline fill="none" opacity="100" points="757.0,447.0 802.0,447.0 802.0,453.0 816.0,453.0 816.0,462.0 863.0,462.0 863.0,594.0 823.0,594.0" stroke="#000" stroke-width="1" /><polyline fill="none" opacity="100" points="797.0,433.0 757.0,433.0" stroke="#000" stroke-width="0.5" /><polyline fill="none" opacity="100" points="863.0,608.0 823.0,608.0" stroke="#000" stroke-width="0.5" /><polyline fill="none" opacity="100" points="712.0,310.0 760.0,310.0" stroke="#000" stroke-width="0.5" /><polyline fill="none" opacity="100" points="932.0,595.0 932.0,612.0" stroke="#000" stroke-width="1" /><polyline fill="none" opacity="100" points="928.0,595.0 928.0,612.0" stroke="#000" stroke-width="1" /><polyline fill="none" opacity="100" points="924.0,595.0 924.0,612.0" stroke="#000" stroke-width="1" /><polyline fill="none" opacity="100" points="920.0,595.0 920.0,612.0" stroke="#000" stroke-width="1" /><polyline fill="none" opacity="100" points="916.0,595.0 916.0,612.0" stroke="#000" stroke-width="1" /><polyline fill="none" opacity="100" points="912.0,595.0 912.0,612.0" stroke="#000" stroke-width="1" /><polyline fill="none" opacity="100" points="908.0,595.0 908.0,612.0" stroke="#000" stroke-width="1" /><polyline fill="none" opacity="100" points="904.0,595.0 904.0,612.0" stroke="#000" stroke-width="1" /><polyline fill="none" opacity="100" points="900.0,595.0 900.0,612.0" stroke="#000" stroke-width="1" /><polyline fill="none" opacity="100" points="896.0,595.0 896.0,612.0" stroke="#000" stroke-width="1" /><polyline fill="none" opacity="100" points="825.0,594.0 825.0,608.0" stroke="#000" stroke-width="1" /><polyline fill="none" opacity="100" points="829.0,594.0 829.0,608.0" stroke="#000" stroke-width="1" /><polyline fill="none" opacity="100" points="833.0,594.0 833.0,608.0" stroke="#000" stroke-width="1" /><polyline fill="none" opacity="100" points="837.0,594.0 837.0,608.0" stroke="#000" stroke-width="1" /><polyline fill="none" opacity="100" points="841.0,594.0 841.0,608.0" stroke="#000" stroke-width="1" /><polyline fill="none" opacity="100" points="845.0,594.0 845.0,608.0" stroke="#000" stroke-width="1" /><polyline fill="none" opacity="100" points="849.0,594.0 849.0,608.0" stroke="#000" stroke-width="1" /><polyline fill="none" opacity="100" points="853.0,594.0 853.0,608.0" stroke="#000" stroke-width="1" /><polyline fill="none" opacity="100" points="857.0,594.0 857.0,608.0" stroke="#000" stroke-width="1" /><polyline fill="none" opacity="100" points="861.0,594.0 861.0,608.0" stroke="#000" stroke-width="1" /><polyline fill="none" opacity="100" points="759.0,433.0 759.0,447.0" stroke="#000" stroke-width="1" /><polyline fill="none" opacity="100" points="763.0,433.0 763.0,447.0" stroke="#000" stroke-width="1" /><polyline fill="none" opacity="100" points="767.0,433.0 767.0,447.0" stroke="#000" stroke-width="1" /><polyline fill="none" opacity="100" points="771.0,433.0 771.0,447.0" stroke="#000" stroke-width="1" /><polyline fill="none" opacity="100" points="775.0,433.0 775.0,447.0" stroke="#000" stroke-width="1" /><polyline fill="none" opacity="100" points="779.0,433.0 779.0,447.0" stroke="#000" stroke-width="1" /><polyline fill="none" opacity="100" points="783.0,433.0 783.0,447.0" stroke="#000" stroke-width="1" /><polyline fill="none" opacity="100" points="787.0,433.0 787.0,447.0" stroke="#000" stroke-width="1" /><polyline fill="none" opacity="100" points="791.0,433.0 791.0,447.0" stroke="#000" stroke-width="1" /><polyline fill="none" opacity="100" points="795.0,433.0 795.0,447.0" stroke="#000" stroke-width="1" /><polyline fill="none" opacity="100" points="758.0,310.0 758.0,363.0" stroke="#000" stroke-width="1" /><polyline fill="none" opacity="100" points="754.0,310.0 754.0,363.0" stroke="#000" stroke-width="1" /><polyline fill="none" opacity="100" points="750.0,310.0 750.0,363.0" stroke="#000" stroke-width="1" /><polyline fill="none" opacity="100" points="746.0,310.0 746.0,363.0" stroke="#000" stroke-width="1" /><polyline fill="none" opacity="100" points="742.0,310.0 742.0,363.0" stroke="#000" stroke-width="1" /><polyline fill="none" opacity="100" points="738.0,310.0 738.0,363.0" stroke="#000" stroke-width="1" /><polyline fill="none" opacity="100" points="734.0,310.0 734.0,363.0" stroke="#000" stroke-width="1" /><polyline fill="none" opacity="100" points="730.0,310.0 730.0,363.0" stroke="#000" stroke-width="1" /><polyline fill="none" opacity="100" points="726.0,310.0 726.0,363.0" stroke="#000" stroke-width="1" /><polyline fill="none" opacity="100" points="722.0,310.0 722.0,363.0" stroke="#000" stroke-width="1" /><polyline fill="none" opacity="100" points="718.0,310.0 718.0,363.0" stroke="#000" stroke-width="1" /><polyline fill="none" opacity="100" points="714.0,310.0 714.0,363.0" stroke="#000" stroke-width="1" /><polygon fill="#D0D0D0" opacity="100" points="869.0,306.0 853.0,306.0 853.0,362.0 869.0,362.0" stroke="#000" stroke-width="1" /><polyline fill="none" opacity="100" points="853.0,306.0 847.0,306.0" stroke="#000" stroke-width="1" /><polyline fill="none" opacity="100" points="827.0,340.0 827.0,362.0 853.0,362.0" stroke="#000" stroke-width="1" /><polyline fill="none" opacity="100" points="827.0,340.0 828.7188,339.9844 830.375,339.6875 831.9688,339.1094 833.5,338.25 834.9688,337.1094 836.375,335.6875 837.7188,333.9844 839.0,332.0 840.2188,329.7344 841.375,327.1875 842.4688,324.3594 843.5,321.25 844.4688,317.8594 845.375,314.1875 846.2188,310.2344 847.0,306.0" stroke="#000" stroke-width="1" /><text fill="#FFF" font-family="Arial" font-size="10" font-weight="normal" opacity="100" transform="rotate(90.0 854.0,327.0) translate(0 10)" x="854.0" y="327.0">кассы</text><polyline fill="none" opacity="100" points="811.0,263.0 811.0,273.0" stroke="#000" stroke-width="1" /><polygon fill="none" opacity="100" points="814.0,325.0 808.0,325.0 808.0,331.0 814.0,331.0" stroke="#000" stroke-width="1" /><polyline fill="none" opacity="100" points="811.0,394.0 811.0,403.0" stroke="#000" stroke-width="1" /><polyline fill="none" opacity="100" points="813.0,273.0 809.0,273.0" stroke="#090" stroke-width="1" /><polyline fill="none" opacity="100" points="813.0,277.0 809.0,277.0" stroke="#090" stroke-width="1" /><polyline fill="none" opacity="100" points="813.0,281.0 809.0,281.0" stroke="#090" stroke-width="1" /><polyline fill="none" opacity="100" points="813.0,285.0 809.0,285.0" stroke="#090" stroke-width="1" /><polyline fill="none" opacity="100" points="813.0,289.0 809.0,289.0" stroke="#090" stroke-width="1" /><polyline fill="none" opacity="100" points="813.0,293.0 809.0,293.0" stroke="#090" stroke-width="1" /><polyline fill="none" opacity="100" points="813.0,297.0 809.0,297.0" stroke="#090" stroke-width="1" /><polyline fill="none" opacity="100" points="813.0,301.0 809.0,301.0" stroke="#090" stroke-width="1" /><polyline fill="none" opacity="100" points="813.0,305.0 809.0,305.0" stroke="#090" stroke-width="1" /><polyline fill="none" opacity="100" points="813.0,309.0 809.0,309.0" stroke="#090" stroke-width="1" /><polyline fill="none" opacity="100" points="813.0,313.0 809.0,313.0" stroke="#090" stroke-width="1" /><polyline fill="none" opacity="100" points="813.0,317.0 809.0,317.0" stroke="#090" stroke-width="1" /><polyline fill="none" opacity="100" points="813.0,321.0 809.0,321.0" stroke="#090" stroke-width="1" /><polyline fill="none" opacity="100" points="813.0,335.0 809.0,335.0" stroke="#F00" stroke-width="1" /><polyline fill="none" opacity="100" points="813.0,339.0 809.0,339.0" stroke="#F00" stroke-width="1" /><polyline fill="none" opacity="100" points="813.0,343.0 809.0,343.0" stroke="#F00" stroke-width="1" /><polyline fill="none" opacity="100" points="813.0,347.0 809.0,347.0" stroke="#F00" stroke-width="1" /><polyline fill="none" opacity="100" points="813.0,351.0 809.0,351.0" stroke="#F00" stroke-width="1" /><polyline fill="none" opacity="100" points="813.0,355.0 809.0,355.0" stroke="#F00" stroke-width="1" /><polyline fill="none" opacity="100" points="813.0,359.0 809.0,359.0" stroke="#F00" stroke-width="1" /><polyline fill="none" opacity="100" points="813.0,363.0 809.0,363.0" stroke="#F00" stroke-width="1" /><polyline fill="none" opacity="100" points="813.0,367.0 809.0,367.0" stroke="#F00" stroke-width="1" /><polyline fill="none" opacity="100" points="813.0,371.0 809.0,371.0" stroke="#F00" stroke-width="1" /><polyline fill="none" opacity="100" points="813.0,375.0 809.0,375.0" stroke="#F00" stroke-width="1" /><polyline fill="none" opacity="100" points="813.0,379.0 809.0,379.0" stroke="#F00" stroke-width="1" /><polyline fill="none" opacity="100" points="813.0,383.0 809.0,383.0" stroke="#F00" stroke-width="1" /><polyline fill="none" opacity="100" points="813.0,387.0 809.0,387.0" stroke="#F00" stroke-width="1" /><polyline fill="none" opacity="100" points="813.0,391.0 809.0,391.0" stroke="#F00" stroke-width="1" /><polyline fill="none" opacity="100" points="813.0,395.0 809.0,395.0" stroke="#F00" stroke-width="1" /><polygon fill="#34349C" opacity="100" points="766.0,369.0 766.0,365.0 767.0,365.0 767.0,369.0" stroke="#34349C" stroke-width="1" /><polygon fill="#F00" opacity="100" points="766.0,373.0 766.0,369.0 767.0,369.0 767.0,373.0" stroke="#F00" stroke-width="1" /><polyline fill="none" opacity="100" points="259.0,293.0 259.0,305.0 209.0,305.0 209.0,263.0 68.0,263.0 68.0,403.0 76.0,403.0 76.0,432.0 82.0,432.0 82.0,594.0 -34.0,594.0" stroke="#000" stroke-width="1" /><polyline fill="none" opacity="100" points="-34.0,612.0 160.0,612.0" stroke="#000" stroke-width="1" /><polyline fill="none" opacity="100" points="160.0,594.0 108.0,594.0 108.0,462.0 154.0,462.0 154.0,453.0 168.0,453.0 168.0,447.0 210.0,447.0" stroke="#000" stroke-width="1" /><polyline fill="none" opacity="100" points="210.0,429.0 137.0,429.0 137.0,444.0 108.0,444.0 108.0,403.0 209.0,403.0 209.0,361.0 259.0,361.0 259.0,373.0" stroke="#000" stroke-width="1" /><polyline fill="none" opacity="100" points="210.0,433.0 170.0,433.0" stroke="#000" stroke-width="0.5" /><polyline fill="none" opacity="100" points="-34.0,608.0 6.0,608.0" stroke="#000" stroke-width="0.5" /><polyline fill="none" opacity="100" points="209.0,357.0 257.0,357.0" stroke="#000" stroke-width="0.5" /><polyline fill="none" opacity="100" points="211.0,305.0 211.0,357.0" stroke="#000" stroke-width="1" /><polyline fill="none" opacity="100" points="215.0,305.0 215.0,357.0" stroke="#000" stroke-width="1" /><polyline fill="none" opacity="100" points="219.0,305.0 219.0,357.0" stroke="#000" stroke-width="1" /><polyline fill="none" opacity="100" points="223.0,305.0 223.0,357.0" stroke="#000" stroke-width="1" /><polyline fill="none" opacity="100" points="227.0,305.0 227.0,357.0" stroke="#000" stroke-width="1" /><polyline fill="none" opacity="100" points="231.0,305.0 231.0,357.0" stroke="#000" stroke-width="1" /><polyline fill="none" opacity="100" points="235.0,305.0 235.0,357.0" stroke="#000" stroke-width="1" /><polyline fill="none" opacity="100" points="239.0,305.0 239.0,357.0" stroke="#000" stroke-width="1" /><polyline fill="none" opacity="100" points="243.0,305.0 243.0,357.0" stroke="#000" stroke-width="1" /><polyline fill="none" opacity="100" points="247.0,305.0 247.0,357.0" stroke="#000" stroke-width="1" /><polyline fill="none" opacity="100" points="251.0,305.0 251.0,357.0" stroke="#000" stroke-width="1" /><polyline fill="none" opacity="100" points="255.0,305.0 255.0,357.0" stroke="#000" stroke-width="1" /><polyline fill="none" opacity="100" points="208.0,433.0 208.0,447.0" stroke="#000" stroke-width="1" /><polyline fill="none" opacity="100" points="204.0,433.0 204.0,447.0" stroke="#000" stroke-width="1" /><polyline fill="none" opacity="100" points="200.0,433.0 200.0,447.0" stroke="#000" stroke-width="1" /><polyline fill="none" opacity="100" points="196.0,433.0 196.0,447.0" stroke="#000" stroke-width="1" /><polyline fill="none" opacity="100" points="192.0,433.0 192.0,447.0" stroke="#000" stroke-width="1" /><polyline fill="none" opacity="100" points="188.0,433.0 188.0,447.0" stroke="#000" stroke-width="1" /><polyline fill="none" opacity="100" points="184.0,433.0 184.0,447.0" stroke="#000" stroke-width="1" /><polyline fill="none" opacity="100" points="180.0,433.0 180.0,447.0" stroke="#000" stroke-width="1" /><polyline fill="none" opacity="100" points="176.0,433.0 176.0,447.0" stroke="#000" stroke-width="1" /><polyline fill="none" opacity="100" points="172.0,433.0 172.0,447.0" stroke="#000" stroke-width="1" /><polyline fill="none" opacity="100" points="158.0,594.0 158.0,612.0" stroke="#000" stroke-width="1" /><polyline fill="none" opacity="100" points="154.0,594.0 154.0,612.0" stroke="#000" stroke-width="1" /><polyline fill="none" opacity="100" points="150.0,594.0 150.0,612.0" stroke="#000" stroke-width="1" /><polyline fill="none" opacity="100" points="146.0,594.0 146.0,612.0" stroke="#000" stroke-width="1" /><polyline fill="none" opacity="100" points="142.0,594.0 142.0,612.0" stroke="#000" stroke-width="1" /><polyline fill="none" opacity="100" points="138.0,594.0 138.0,612.0" stroke="#000" stroke-width="1" /><polyline fill="none" opacity="100" points="134.0,594.0 134.0,612.0" stroke="#000" stroke-width="1" /><polyline fill="none" opacity="100" points="130.0,594.0 130.0,612.0" stroke="#000" stroke-width="1" /><polyline fill="none" opacity="100" points="126.0,594.0 126.0,612.0" stroke="#000" stroke-width="1" /><polyline fill="none" opacity="100" points="122.0,594.0 122.0,612.0" stroke="#000" stroke-width="1" /><polyline fill="none" opacity="100" points="-32.0,594.0 -32.0,608.0" stroke="#000" stroke-width="1" /><polyline fill="none" opacity="100" points="-28.0,594.0 -28.0,608.0" stroke="#000" stroke-width="1" /><polyline fill="none" opacity="100" points="-24.0,594.0 -24.0,608.0" stroke="#000" stroke-width="1" /><polyline fill="none" opacity="100" points="-20.0,594.0 -20.0,608.0" stroke="#000" stroke-width="1" /><polyline fill="none" opacity="100" points="-16.0,594.0 -16.0,608.0" stroke="#000" stroke-width="1" /><polyline fill="none" opacity="100" points="-12.0,594.0 -12.0,608.0" stroke="#000" stroke-width="1" /><polyline fill="none" opacity="100" points="-8.0,594.0 -8.0,608.0" stroke="#000" stroke-width="1" /><polyline fill="none" opacity="100" points="-4.0,594.0 -4.0,608.0" stroke="#000" stroke-width="1" /><polyline fill="none" opacity="100" points="0.0,594.0 0.0,608.0" stroke="#000" stroke-width="1" /><polyline fill="none" opacity="100" points="4.0,594.0 4.0,608.0" stroke="#000" stroke-width="1" /><polygon fill="#D0D0D0" opacity="100" points="123.0,306.0 123.0,361.0 107.0,361.0 107.0,306.0" stroke="#000" stroke-width="1" /><polyline fill="none" opacity="100" points="123.0,306.0 149.0,306.0 149.0,329.0" stroke="#000" stroke-width="1" /><polyline fill="none" opacity="100" points="129.0,361.0 123.0,361.0" stroke="#000" stroke-width="1" /><polyline fill="none" opacity="100" points="149.0,329.0 147.0469,329.3594 145.1875,329.9375 143.4219,330.7344 141.75,331.75 140.1719,332.9844 138.6875,334.4375 137.2969,336.1094 136.0,338.0 134.7969,340.1094 133.6875,342.4375 132.6719,344.9844 131.75,347.75 130.9219,350.7344 130.1875,353.9375 129.5469,357.3594 129.0,361.0" stroke="#000" stroke-width="1" /><text fill="#FFF" font-family="Arial" font-size="10" font-weight="normal" opacity="100" transform="rotate(90.0 136.0,314.0) translate(0 10)" x="136.0" y="314.0">кассы</text><polyline fill="none" opacity="100" points="169.0,403.0 169.0,397.0" stroke="#000" stroke-width="1" /><polygon fill="none" opacity="100" points="166.0,338.0 172.0,338.0 172.0,332.0 166.0,332.0" stroke="#000" stroke-width="1" /><polyline fill="none" opacity="100" points="169.0,268.0 169.0,263.0" stroke="#000" stroke-width="1" /><polyline fill="none" opacity="100" points="167.0,397.0 171.0,397.0" stroke="#090" stroke-width="1" /><polyline fill="none" opacity="100" points="167.0,393.0 171.0,393.0" stroke="#090" stroke-width="1" /><polyline fill="none" opacity="100" points="167.0,389.0 171.0,389.0" stroke="#090" stroke-width="1" /><polyline fill="none" opacity="100" points="167.0,385.0 171.0,385.0" stroke="#090" stroke-width="1" /><polyline fill="none" opacity="100" points="167.0,381.0 171.0,381.0" stroke="#090" stroke-width="1" /><polyline fill="none" opacity="100" points="167.0,377.0 171.0,377.0" stroke="#090" stroke-width="1" /><polyline fill="none" opacity="100" points="167.0,373.0 171.0,373.0" stroke="#090" stroke-width="1" /><polyline fill="none" opacity="100" points="167.0,369.0 171.0,369.0" stroke="#090" stroke-width="1" /><polyline fill="none" opacity="100" points="167.0,365.0 171.0,365.0" stroke="#090" stroke-width="1" /><polyline fill="none" opacity="100" points="167.0,361.0 171.0,361.0" stroke="#090" stroke-width="1" /><polyline fill="none" opacity="100" points="167.0,357.0 171.0,357.0" stroke="#090" stroke-width="1" /><polyline fill="none" opacity="100" points="167.0,353.0 171.0,353.0" stroke="#090" stroke-width="1" /><polyline fill="none" opacity="100" points="167.0,349.0 171.0,349.0" stroke="#090" stroke-width="1" /><polyline fill="none" opacity="100" points="167.0,345.0 171.0,345.0" stroke="#090" stroke-width="1" /><polyline fill="none" opacity="100" points="167.0,341.0 171.0,341.0" stroke="#090" stroke-width="1" /><polyline fill="none" opacity="100" points="167.0,328.0 171.0,328.0" stroke="#F00" stroke-width="1" /><polyline fill="none" opacity="100" points="167.0,324.0 171.0,324.0" stroke="#F00" stroke-width="1" /><polyline fill="none" opacity="100" points="167.0,320.0 171.0,320.0" stroke="#F00" stroke-width="1" /><polyline fill="none" opacity="100" points="167.0,316.0 171.0,316.0" stroke="#F00" stroke-width="1" /><polyline fill="none" opacity="100" points="167.0,312.0 171.0,312.0" stroke="#F00" stroke-width="1" /><polyline fill="none" opacity="100" points="167.0,308.0 171.0,308.0" stroke="#F00" stroke-width="1" /><polyline fill="none" opacity="100" points="167.0,304.0 171.0,304.0" stroke="#F00" stroke-width="1" /><polyline fill="none" opacity="100" points="167.0,300.0 171.0,300.0" stroke="#F00" stroke-width="1" /><polyline fill="none" opacity="100" points="167.0,296.0 171.0,296.0" stroke="#F00" stroke-width="1" /><polyline fill="none" opacity="100" points="167.0,292.0 171.0,292.0" stroke="#F00" stroke-width="1" /><polyline fill="none" opacity="100" points="167.0,288.0 171.0,288.0" stroke="#F00" stroke-width="1" /><polyline fill="none" opacity="100" points="167.0,284.0 171.0,284.0" stroke="#F00" stroke-width="1" /><polyline fill="none" opacity="100" points="167.0,280.0 171.0,280.0" stroke="#F00" stroke-width="1" /><polyline fill="none" opacity="100" points="167.0,276.0 171.0,276.0" stroke="#F00" stroke-width="1" /><polyline fill="none" opacity="100" points="167.0,272.0 171.0,272.0" stroke="#F00" stroke-width="1" /><polyline fill="none" opacity="100" points="167.0,268.0 171.0,268.0" stroke="#F00" stroke-width="1" /><polygon fill="#34349C" opacity="100" points="205.0,298.0 205.0,302.0 206.0,302.0 206.0,298.0" stroke="#34349C" stroke-width="1" /><polygon fill="#F00" opacity="100" points="205.0,294.0 205.0,298.0 206.0,298.0 206.0,294.0" stroke="#F00" stroke-width="1" /><text fill="#00AFAF" font-family="Arial" font-size="15" font-weight="normal" opacity="100" transform="rotate(-0.0 428.0,519.0) translate(0 15)" x="428.0" y="519.0">ул.Перерва</text><text fill="#00AFAF" font-family="Arial" font-size="15" font-weight="normal" opacity="100" transform="rotate(-0.0 422.0,219.0) translate(0 15)" x="422.0" y="219.0">ТЦ БУМ</text><text fill="#00AFAF" font-family="Arial" font-size="15" font-weight="normal" opacity="100" transform="rotate(-0.0 907.0,223.0) translate(0 15)" x="907.0" y="223.0">к/т "Солярис"</text><text fill="#00AFAF" font-family="Arial" font-size="15" font-weight="normal" opacity="100" transform="rotate(90.0 72.0,636.0) translate(0 15)" x="72.0" y="636.0">Мячковский бульвар</text><text fill="#00AFAF" font-family="Arial" font-size="15" font-weight="normal" opacity="100" transform="rotate(30.0 20.0,330.0) translate(0 15)" x="20.0" y="330.0">&lt;&lt; Ашан</text><polyline fill="none" opacity="100" points="139.0,286.0 122.0,286.0" stroke="#F00" stroke-width="1" /><polygon fill="#F00" opacity="100" points="126.9262,284.68 122.0,286.0 126.9262,287.32" stroke="#F00" stroke-width="1" /><polyline fill="none" opacity="100" points="835.0,381.0 852.0,381.0" stroke="#F00" stroke-width="1" /><polygon fill="#F00" opacity="100" points="847.0738,382.32 852.0,381.0 847.0738,379.68" stroke="#F00" stroke-width="1" /><polyline fill="none" opacity="100" points="121.0,380.0 139.0,380.0" stroke="#090" stroke-width="1" /><polygon fill="#090" opacity="100" points="133.784,381.3976 139.0,380.0 133.784,378.6024" stroke="#090" stroke-width="1" /><polyline fill="none" opacity="100" points="851.0,288.0 835.0,288.0" stroke="#090" stroke-width="1" /><polygon fill="#090" opacity="100" points="839.6364,286.7577 835.0,288.0 839.6364,289.2423" stroke="#090" stroke-width="1" /><g transform="rotate(30.0,480.0,475.0)"><text fill="#FFD900" font-family="Arial" font-size="25" font-weight="normal" opacity="100" x="225.25" y="621.5">1</text><text fill="#FFD900" font-family="Arial" font-size="25" font-weight="normal" opacity="100" x="224.25" y="733.5">2</text><text fill="#FFD900" font-family="Arial" font-size="25" font-weight="normal" opacity="100" x="91.25" y="812.5">3</text><text fill="#FFD900" font-family="Arial" font-size="25" font-weight="normal" opacity="100" x="720.25" y="335.5">4</text><text fill="#FFD900" font-family="Arial" font-size="25" font-weight="normal" opacity="100" x="906.25" y="340.5">5</text><text fill="#FFD900" font-family="Arial" font-size="25" font-weight="normal" opacity="100" x="827.25" y="389.5">6</text></g></g></g></svg>