<?xml version="1.0" encoding="utf-8" ?>
<svg baseProfile="tiny" height="530px" version="1.2" width="980px" xmlns="http://www.w3.org/2000/svg" xmlns:ev="http://www.w3.org/2001/xml-events" xmlns:xlink="http://www.w3.org/1999/xlink"><defs /><g><g transform="rotate(-30.0,490.0,265.0)"><polygon fill="#8CBCFC" opacity="100" points="513.0,274.0 513.0,244.0 963.0,244.0 963.0,274.0" stroke="#000" stroke-width="1" /><polygon fill="#8CBCFC" opacity="100" points="513.0,384.0 513.0,354.0 963.0,354.0 963.0,384.0" stroke="#000" stroke-width="1" /><text fill="#2D69FC" font-family="Arial" font-size="25" font-weight="bold" opacity="100" transform="rotate(-0.0 653.0,298.0) translate(0 25)" x="653.0" y="298.0">Бунинская аллея</text><text fill="#2D69FC" font-family="Arial" font-size="20" font-weight="normal" opacity="100" transform="rotate(-0.0 795.0,384.0) translate(0 20)" x="795.0" y="384.0">Улица Горчакова &gt;&gt;</text><text fill="#2D69FC" font-family="Arial" font-size="20" font-weight="normal" opacity="100" transform="rotate(-0.0 514.0,220.0) translate(0 20)" x="514.0" y="220.0">&lt;&lt; посадки нет</text><polyline fill="none" opacity="100" points="963.0,274.0 963.0,285.0" stroke="#000" stroke-width="1" /><polyline fill="none" opacity="100" points="963.0,342.0 963.0,354.0" stroke="#000" stroke-width="1" /><polyline fill="none" opacity="100" points="513.0,274.0 513.0,281.0 440.0,281.0 440.0,259.0 414.0,259.0 414.0,239.0 374.0,239.0" stroke="#000" stroke-width="1" /><polyline fill="none" opacity="100" points="374.0,239.0 372.9062,238.8438 371.875,238.625 370.9062,238.3438 370.0,238.0 369.1562,237.5938 368.375,237.125 367.6562,236.5938 367.0,236.0 366.4062,235.3438 365.875,234.625 365.4062,233.8438 365.0,233.0 364.6562,232.0938 364.375,231.125 364.1562,230.0938 364.0,229.0" stroke="#000" stroke-width="1" /><polyline fill="none" opacity="100" points="364.0,229.0 284.0,229.0 284.0,240.0" stroke="#000" stroke-width="1" /><polyline fill="none" opacity="100" points="513.0,354.0 513.0,346.0 440.0,346.0 440.0,365.0 356.0,365.0" stroke="#000" stroke-width="1" /><polyline fill="none" opacity="100" points="356.0,365.0 352.7891,365.1641 349.7812,365.5312 346.9766,366.1016 344.375,366.875 341.9766,367.8516 339.7812,369.0312 337.7891,370.4141 336.0,372.0 334.4141,373.7891 333.0312,375.7812 331.8516,377.9766 330.875,380.375 330.1016,382.9766 329.5312,385.7812 329.1641,388.7891 329.0,392.0" stroke="#000" stroke-width="1" /><polyline fill="none" opacity="100" points="329.0,392.0 284.0,392.0 284.0,340.0" stroke="#000" stroke-width="1" /><polyline fill="none" opacity="100" points="326.0,392.0 326.0,408.0 286.0,408.0 286.0,392.0" stroke="#000" stroke-width="1" /><polygon fill="#D0D0D0" opacity="100" points="363.0,303.0 284.0,303.0 284.0,277.0 363.0,277.0 368.0,278.0 372.0,281.0 375.0,285.0 376.0,290.0 375.0,295.0 372.0,299.0 368.0,302.0" stroke="#D0D0D0" stroke-width="1" /><polyline fill="none" opacity="100" points="363.0,303.0 284.0,303.0 284.0,277.0 363.0,277.0" stroke="#000" stroke-width="1" /><polyline fill="none" opacity="100" points="363.0,277.0 363.6797,277.0156 364.3438,277.0625 364.9922,277.1409 365.625,277.25 366.2422,277.3884 366.8438,277.5586 367.4297,277.7612 368.0,278.0 368.5547,278.2817 369.0938,278.5977 369.6174,278.9419 370.125,279.3125 370.615,279.7065 371.0898,280.1211 371.5503,280.5542 372.0,281.0 372.4458,281.4497 372.8789,281.9102 373.2935,282.3853 373.6875,282.875 374.0581,283.3804 374.4023,283.9023 374.7183,284.4409 375.0,285.0 375.2388,285.5864 375.4414,286.1914 375.6116,286.8093 375.75,287.4375 375.8591,288.0715 375.9375,288.7109 375.9844,289.3545 376.0,290.0 375.9844,290.6455 375.9375,291.2891 375.8591,291.9285 375.75,292.5625 375.6116,293.1907 375.4414,293.8086 375.2388,294.4136 375.0,295.0 374.7183,295.5591 374.4023,296.0977 374.0581,296.6196 373.6875,297.125 373.2935,297.6147 372.8789,298.0898 372.4458,298.5503 372.0,299.0 371.5503,299.4458 371.0898,299.8789 370.615,300.2935 370.125,300.6875 369.6174,301.0581 369.0938,301.4023 368.5547,301.7183 368.0,302.0 367.4297,302.2388 366.8438,302.4414 366.2422,302.6116 365.625,302.75 364.9922,302.8591 364.3438,302.9375 363.6797,302.9844 363.0,303.0" stroke="#000" stroke-width="1" /><polyline fill="none" opacity="100" points="443.0,285.0 443.0,342.0" stroke="#7F7F7F" stroke-width="1" /><polyline fill="none" opacity="100" points="447.0,285.0 447.0,342.0" stroke="#7F7F7F" stroke-width="1" /><polyline fill="none" opacity="100" points="451.0,285.0 451.0,342.0" stroke="#7F7F7F" stroke-width="1" /><polyline fill="none" opacity="100" points="455.0,285.0 455.0,342.0" stroke="#7F7F7F" stroke-width="1" /><polyline fill="none" opacity="100" points="459.0,285.0 459.0,342.0" stroke="#7F7F7F" stroke-width="1" /><polyline fill="none" opacity="100" points="463.0,285.0 463.0,342.0" stroke="#7F7F7F" stroke-width="1" /><polyline fill="none" opacity="100" points="467.0,285.0 467.0,342.0" stroke="#7F7F7F" stroke-width="1" /><polyline fill="none" opacity="100" points="471.0,285.0 471.0,342.0" stroke="#7F7F7F" stroke-width="1" /><polyline fill="none" opacity="100" points="475.0,285.0 475.0,342.0" stroke="#7F7F7F" stroke-width="1" /><polyline fill="none" opacity="100" points="479.0,285.0 479.0,342.0" stroke="#7F7F7F" stroke-width="1" /><polyline fill="none" opacity="100" points="483.0,285.0 483.0,342.0" stroke="#7F7F7F" stroke-width="1" /><polyline fill="none" opacity="100" points="487.0,285.0 487.0,342.0" stroke="#7F7F7F" stroke-width="1" /><polyline fill="none" opacity="100" points="491.0,285.0 491.0,342.0" stroke="#7F7F7F" stroke-width="1" /><polyline fill="none" opacity="100" points="495.0,285.0 495.0,342.0" stroke="#7F7F7F" stroke-width="1" /><polyline fill="none" opacity="100" points="499.0,285.0 499.0,342.0" stroke="#7F7F7F" stroke-width="1" /><polyline fill="none" opacity="100" points="503.0,285.0 503.0,342.0" stroke="#7F7F7F" stroke-width="1" /><polygon fill="#9B5509" opacity="100" points="510.0,299.0 437.0,299.0 437.0,306.0 510.0,306.0" stroke="#000" stroke-width="1" /><polygon fill="#9B5509" opacity="100" points="510.0,321.0 437.0,321.0 437.0,328.0 510.0,328.0" stroke="#000" stroke-width="1" /><polygon fill="#9B5509" opacity="100" points="510.0,281.0 437.0,281.0 437.0,285.0 510.0,285.0" stroke="#000" stroke-width="1" /><polygon fill="#9B5509" opacity="100" points="510.0,342.0 437.0,342.0 437.0,346.0 510.0,346.0" stroke="#000" stroke-width="1" /><polyline fill="none" opacity="100" points="358.0,360.0 363.0,360.0" stroke="#090" stroke-width="1" /><polyline fill="none" opacity="100" points="358.0,356.0 363.0,356.0" stroke="#090" stroke-width="1" /><polyline fill="none" opacity="100" points="358.0,352.0 363.0,352.0" stroke="#090" stroke-width="1" /><polyline fill="none" opacity="100" points="358.0,348.0 363.0,348.0" stroke="#090" stroke-width="1" /><polyline fill="none" opacity="100" points="358.0,344.0 363.0,344.0" stroke="#090" stroke-width="1" /><polyline fill="none" opacity="100" points="358.0,340.0 363.0,340.0" stroke="#090" stroke-width="1" /><polyline fill="none" opacity="100" points="358.0,336.0 363.0,336.0" stroke="#090" stroke-width="1" /><polyline fill="none" opacity="100" points="358.0,332.0 363.0,332.0" stroke="#090" stroke-width="1" /><polyline fill="none" opacity="100" points="358.0,328.0 363.0,328.0" stroke="#090" stroke-width="1" /><polyline fill="none" opacity="100" points="358.0,324.0 363.0,324.0" stroke="#090" stroke-width="1" /><polyline fill="none" opacity="100" points="358.0,320.0 363.0,320.0" stroke="#090" stroke-width="1" /><polyline fill="none" opacity="100" points="358.0,316.0 363.0,316.0" stroke="#090" stroke-width="1" /><polyline fill="none" opacity="100" points="358.0,312.0 363.0,312.0" stroke="#090" stroke-width="1" /><polyline fill="none" opacity="100" points="358.0,308.0 363.0,308.0" stroke="#090" stroke-width="1" /><polyline fill="none" opacity="100" points="408.0,242.0 411.0,245.0" stroke="#F00" stroke-width="1" /><polyline fill="none" opacity="100" points="405.2129,244.8691 408.2129,247.8691" stroke="#F00" stroke-width="1" /><polyline fill="none" opacity="100" points="402.4257,247.7382 405.4257,250.7382" stroke="#F00" stroke-width="1" /><polyline fill="none" opacity="100" points="399.6386,250.6074 402.6386,253.6074" stroke="#F00" stroke-width="1" /><polyline fill="none" opacity="100" points="396.8514,253.4765 399.8514,256.4765" stroke="#F00" stroke-width="1" /><polyline fill="none" opacity="100" points="394.0643,256.3456 397.0643,259.3456" stroke="#F00" stroke-width="1" /><polyline fill="none" opacity="100" points="391.2771,259.2147 394.2771,262.2147" stroke="#F00" stroke-width="1" /><polyline fill="none" opacity="100" points="388.49,262.0838 391.49,265.0838" stroke="#F00" stroke-width="1" /><polyline fill="none" opacity="100" points="385.7029,264.9529 388.7029,267.9529" stroke="#F00" stroke-width="1" /><polyline fill="none" opacity="100" points="382.9157,267.8221 385.9157,270.8221" stroke="#F00" stroke-width="1" /><polyline fill="none" opacity="100" points="380.1286,270.6912 383.1286,273.6912" stroke="#F00" stroke-width="1" /><polyline fill="none" opacity="100" points="377.3414,273.5603 380.3414,276.5603" stroke="#F00" stroke-width="1" /><polyline fill="none" opacity="100" points="374.5543,276.4294 377.5543,279.4294" stroke="#F00" stroke-width="1" /><text fill="#000" font-family="Arial" font-size="15" font-weight="normal" opacity="100" transform="rotate(-0.0 288.0,390.0) translate(0 15)" x="288.0" y="390.0">кассы</text><polygon fill="#D0EFFF" opacity="100" points="963.0,285.0 979.0,285.0 979.0,342.0 963.0,342.0" stroke="#000" stroke-width="1" /><text fill="#FFF" font-family="Arial" font-size="15" font-weight="normal" opacity="100" transform="rotate(90.0 982.0,291.0) translate(0 15)" x="982.0" y="291.0">лифты</text><polygon fill="#34349C" opacity="100" points="392.0,362.0 392.0,360.0 397.0,360.0 397.0,362.0" stroke="#34349C" stroke-width="1" /><polygon fill="#F00" opacity="100" points="397.0,362.0 397.0,360.0 402.0,360.0 402.0,362.0" stroke="#F00" stroke-width="1" /><polyline fill="none" opacity="100" points="350.0,257.0 334.0,257.0" stroke="#F00" stroke-width="1" /><polygon fill="#F00" opacity="100" points="338.6364,255.7577 334.0,257.0 338.6364,258.2423" stroke="#F00" stroke-width="1" /><polyline fill="none" opacity="100" points="452.0,292.0 437.0,292.0" stroke="#F00" stroke-width="1" /><polygon fill="#F00" opacity="100" points="441.3467,290.8353 437.0,292.0 441.3467,293.1647" stroke="#F00" stroke-width="1" /><polyline fill="none" opacity="100" points="334.0,334.0 350.0,334.0" stroke="#090" stroke-width="1" /><polygon fill="#090" opacity="100" points="345.3636,335.2423 350.0,334.0 345.3636,332.7577" stroke="#090" stroke-width="1" /><polyline fill="none" opacity="100" points="437.0,335.0 452.0,335.0" stroke="#090" stroke-width="1" /><polygon fill="#090" opacity="100" points="447.6533,336.1647 452.0,335.0 447.6533,333.8353" stroke="#090" stroke-width="1" /><text fill="#00AFAF" font-family="Arial" font-size="15" font-weight="normal" opacity="100" transform="rotate(-0.0 2.0,129.0) translate(0 15)" x="2.0" y="129.0">улица Кадырова</text><text fill="#00AFAF" font-family="Arial" font-size="15" font-weight="normal" opacity="100" transform="rotate(-0.0 385.0,474.0) translate(0 15)" x="385.0" y="474.0">Черневская улица</text><text fill="#00AFAF" font-family="Arial" font-size="15" font-weight="normal" opacity="100" transform="rotate(90.0 181.0,251.0) translate(0 15)" x="181.0" y="251.0">Бунинская аллея</text><g transform="rotate(30.0,490.0,265.0)"><text fill="#FFD900" font-family="Arial" font-size="25" font-weight="normal" opacity="100" x="291.25" y="417.5">1</text></g></g></g></svg>