<?xml version="1.0" encoding="utf-8" ?>
<svg baseProfile="tiny" height="930px" version="1.2" width="930px" xmlns="http://www.w3.org/2000/svg" xmlns:ev="http://www.w3.org/2001/xml-events" xmlns:xlink="http://www.w3.org/1999/xlink"><defs /><g><g transform="rotate(45.0,465.0,465.0)"><polygon fill="#84BC54" opacity="100" points="234.0,393.0 684.0,393.0 684.0,423.0 234.0,423.0" stroke="#000" stroke-width="1" /><polygon fill="#84BC54" opacity="100" points="234.0,503.0 684.0,503.0 684.0,533.0 234.0,533.0" stroke="#000" stroke-width="1" /><text fill="#5C9F2E" font-family="Arial" font-size="25" font-weight="bold" opacity="100" transform="rotate(-0.0 401.0,430.0) translate(0 25)" x="401.0" y="430.0">Бутырская</text><text fill="#5C9F2E" font-family="Arial" font-size="20" font-weight="normal" opacity="100" transform="rotate(-0.0 235.0,369.0) translate(0 20)" x="235.0" y="369.0">&lt;&lt; Фонвизинская</text><text fill="#5C9F2E" font-family="Arial" font-size="20" font-weight="normal" opacity="100" transform="rotate(-0.0 530.0,533.0) translate(0 20)" x="530.0" y="533.0">Марьина Роща &gt;&gt;</text><polygon fill="#34349C" opacity="100" points="464.0,465.0 464.0,461.0 465.0,461.0 465.0,465.0" stroke="#34349C" stroke-width="1" /><polygon fill="#F00" opacity="100" points="464.0,469.0 464.0,465.0 465.0,465.0 465.0,469.0" stroke="#F00" stroke-width="1" /><polyline fill="none" opacity="100" points="83.0,442.0 83.0,485.0" stroke="#7F7F7F" stroke-width="1" /><polyline fill="none" opacity="100" points="87.0,442.0 87.0,485.0" stroke="#7F7F7F" stroke-width="1" /><polyline fill="none" opacity="100" points="91.0,442.0 91.0,485.0" stroke="#7F7F7F" stroke-width="1" /><polyline fill="none" opacity="100" points="95.0,442.0 95.0,485.0" stroke="#7F7F7F" stroke-width="1" /><polyline fill="none" opacity="100" points="99.0,442.0 99.0,485.0" stroke="#7F7F7F" stroke-width="1" /><polyline fill="none" opacity="100" points="103.0,442.0 103.0,485.0" stroke="#7F7F7F" stroke-width="1" /><polyline fill="none" opacity="100" points="107.0,442.0 107.0,485.0" stroke="#7F7F7F" stroke-width="1" /><polyline fill="none" opacity="100" points="111.0,442.0 111.0,485.0" stroke="#7F7F7F" stroke-width="1" /><polyline fill="none" opacity="100" points="115.0,442.0 115.0,485.0" stroke="#7F7F7F" stroke-width="1" /><polyline fill="none" opacity="100" points="119.0,442.0 119.0,485.0" stroke="#7F7F7F" stroke-width="1" /><polyline fill="none" opacity="100" points="123.0,442.0 123.0,485.0" stroke="#7F7F7F" stroke-width="1" /><polyline fill="none" opacity="100" points="127.0,442.0 127.0,485.0" stroke="#7F7F7F" stroke-width="1" /><polyline fill="none" opacity="100" points="131.0,442.0 131.0,485.0" stroke="#7F7F7F" stroke-width="1" /><polyline fill="none" opacity="100" points="135.0,442.0 135.0,485.0" stroke="#7F7F7F" stroke-width="1" /><polyline fill="none" opacity="100" points="139.0,442.0 139.0,485.0" stroke="#7F7F7F" stroke-width="1" /><polyline fill="none" opacity="100" points="143.0,442.0 143.0,485.0" stroke="#7F7F7F" stroke-width="1" /><polyline fill="none" opacity="100" points="147.0,442.0 147.0,485.0" stroke="#7F7F7F" stroke-width="1" /><polyline fill="none" opacity="100" points="151.0,442.0 151.0,485.0" stroke="#7F7F7F" stroke-width="1" /><polyline fill="none" opacity="100" points="155.0,442.0 155.0,485.0" stroke="#7F7F7F" stroke-width="1" /><polyline fill="none" opacity="100" points="159.0,442.0 159.0,485.0" stroke="#7F7F7F" stroke-width="1" /><polyline fill="none" opacity="100" points="163.0,442.0 163.0,485.0" stroke="#7F7F7F" stroke-width="1" /><polyline fill="none" opacity="100" points="167.0,442.0 167.0,485.0" stroke="#7F7F7F" stroke-width="1" /><polyline fill="none" opacity="100" points="171.0,442.0 171.0,485.0" stroke="#7F7F7F" stroke-width="1" /><polyline fill="none" opacity="100" points="175.0,442.0 175.0,485.0" stroke="#7F7F7F" stroke-width="1" /><polyline fill="none" opacity="100" points="179.0,442.0 179.0,485.0" stroke="#7F7F7F" stroke-width="1" /><polyline fill="none" opacity="100" points="183.0,442.0 183.0,485.0" stroke="#7F7F7F" stroke-width="1" /><polyline fill="none" opacity="100" points="187.0,442.0 187.0,485.0" stroke="#7F7F7F" stroke-width="1" /><polyline fill="none" opacity="100" points="191.0,442.0 191.0,485.0" stroke="#7F7F7F" stroke-width="1" /><polyline fill="none" opacity="100" points="195.0,442.0 195.0,485.0" stroke="#7F7F7F" stroke-width="1" /><polyline fill="none" opacity="100" points="199.0,442.0 199.0,485.0" stroke="#7F7F7F" stroke-width="1" /><polyline fill="none" opacity="100" points="203.0,442.0 203.0,485.0" stroke="#7F7F7F" stroke-width="1" /><polyline fill="none" opacity="100" points="207.0,442.0 207.0,485.0" stroke="#7F7F7F" stroke-width="1" /><polyline fill="none" opacity="100" points="211.0,442.0 211.0,485.0" stroke="#7F7F7F" stroke-width="1" /><polyline fill="none" opacity="100" points="215.0,442.0 215.0,485.0" stroke="#7F7F7F" stroke-width="1" /><polyline fill="none" opacity="100" points="219.0,442.0 219.0,485.0" stroke="#7F7F7F" stroke-width="1" /><polyline fill="none" opacity="100" points="223.0,442.0 223.0,485.0" stroke="#7F7F7F" stroke-width="1" /><polyline fill="none" opacity="100" points="227.0,442.0 227.0,485.0" stroke="#7F7F7F" stroke-width="1" /><polyline fill="none" opacity="100" points="231.0,442.0 231.0,485.0" stroke="#7F7F7F" stroke-width="1" /><polyline fill="none" opacity="100" points="235.0,442.0 235.0,485.0" stroke="#7F7F7F" stroke-width="1" /><polyline fill="none" opacity="100" points="239.0,442.0 239.0,485.0" stroke="#7F7F7F" stroke-width="1" /><polyline fill="none" opacity="100" points="243.0,442.0 243.0,485.0" stroke="#7F7F7F" stroke-width="1" /><polyline fill="none" opacity="100" points="247.0,442.0 247.0,485.0" stroke="#7F7F7F" stroke-width="1" /><polyline fill="none" opacity="100" points="251.0,442.0 251.0,485.0" stroke="#7F7F7F" stroke-width="1" /><polyline fill="none" opacity="100" points="255.0,442.0 255.0,485.0" stroke="#7F7F7F" stroke-width="1" /><polyline fill="none" opacity="100" points="259.0,442.0 259.0,485.0" stroke="#7F7F7F" stroke-width="1" /><polyline fill="none" opacity="100" points="263.0,442.0 263.0,485.0" stroke="#7F7F7F" stroke-width="1" /><polyline fill="none" opacity="100" points="267.0,442.0 267.0,485.0" stroke="#7F7F7F" stroke-width="1" /><polyline fill="none" opacity="100" points="271.0,442.0 271.0,485.0" stroke="#7F7F7F" stroke-width="1" /><polyline fill="none" opacity="100" points="275.0,442.0 275.0,485.0" stroke="#7F7F7F" stroke-width="1" /><polyline fill="none" opacity="100" points="279.0,442.0 279.0,485.0" stroke="#7F7F7F" stroke-width="1" /><polyline fill="none" opacity="100" points="283.0,442.0 283.0,485.0" stroke="#7F7F7F" stroke-width="1" /><polyline fill="none" opacity="100" points="287.0,442.0 287.0,485.0" stroke="#7F7F7F" stroke-width="1" /><polyline fill="none" opacity="100" points="291.0,442.0 291.0,485.0" stroke="#7F7F7F" stroke-width="1" /><polyline fill="none" opacity="100" points="295.0,442.0 295.0,485.0" stroke="#7F7F7F" stroke-width="1" /><polyline fill="none" opacity="100" points="299.0,442.0 299.0,485.0" stroke="#7F7F7F" stroke-width="1" /><polyline fill="none" opacity="100" points="303.0,442.0 303.0,485.0" stroke="#7F7F7F" stroke-width="1" /><polygon fill="#9B5509" opacity="100" points="76.0,438.0 310.0,438.0 310.0,442.0 76.0,442.0" stroke="#000" stroke-width="1" /><polygon fill="#9B5509" opacity="100" points="76.0,449.0 310.0,449.0 310.0,454.0 76.0,454.0" stroke="#000" stroke-width="1" /><polygon fill="#9B5509" opacity="100" points="76.0,461.0 310.0,461.0 310.0,466.0 76.0,466.0" stroke="#000" stroke-width="1" /><polygon fill="#9B5509" opacity="100" points="76.0,473.0 310.0,473.0 310.0,478.0 76.0,478.0" stroke="#000" stroke-width="1" /><polygon fill="#9B5509" opacity="100" points="76.0,485.0 310.0,485.0 310.0,489.0 76.0,489.0" stroke="#000" stroke-width="1" /><polyline fill="none" opacity="100" points="615.0,448.0 615.0,479.0" stroke="#7F7F7F" stroke-width="1" /><polyline fill="none" opacity="100" points="619.0,448.0 619.0,479.0" stroke="#7F7F7F" stroke-width="1" /><polyline fill="none" opacity="100" points="623.0,448.0 623.0,479.0" stroke="#7F7F7F" stroke-width="1" /><polyline fill="none" opacity="100" points="627.0,448.0 627.0,479.0" stroke="#7F7F7F" stroke-width="1" /><polyline fill="none" opacity="100" points="631.0,448.0 631.0,479.0" stroke="#7F7F7F" stroke-width="1" /><polyline fill="none" opacity="100" points="635.0,448.0 635.0,479.0" stroke="#7F7F7F" stroke-width="1" /><polyline fill="none" opacity="100" points="639.0,448.0 639.0,479.0" stroke="#7F7F7F" stroke-width="1" /><polyline fill="none" opacity="100" points="643.0,448.0 643.0,479.0" stroke="#7F7F7F" stroke-width="1" /><polyline fill="none" opacity="100" points="647.0,448.0 647.0,479.0" stroke="#7F7F7F" stroke-width="1" /><polyline fill="none" opacity="100" points="651.0,448.0 651.0,479.0" stroke="#7F7F7F" stroke-width="1" /><polyline fill="none" opacity="100" points="655.0,448.0 655.0,479.0" stroke="#7F7F7F" stroke-width="1" /><polyline fill="none" opacity="100" points="659.0,448.0 659.0,479.0" stroke="#7F7F7F" stroke-width="1" /><polyline fill="none" opacity="100" points="663.0,448.0 663.0,479.0" stroke="#7F7F7F" stroke-width="1" /><polyline fill="none" opacity="100" points="667.0,448.0 667.0,479.0" stroke="#7F7F7F" stroke-width="1" /><polyline fill="none" opacity="100" points="671.0,448.0 671.0,479.0" stroke="#7F7F7F" stroke-width="1" /><polyline fill="none" opacity="100" points="675.0,448.0 675.0,479.0" stroke="#7F7F7F" stroke-width="1" /><polyline fill="none" opacity="100" points="679.0,448.0 679.0,479.0" stroke="#7F7F7F" stroke-width="1" /><polyline fill="none" opacity="100" points="683.0,448.0 683.0,479.0" stroke="#7F7F7F" stroke-width="1" /><polyline fill="none" opacity="100" points="687.0,448.0 687.0,479.0" stroke="#7F7F7F" stroke-width="1" /><polyline fill="none" opacity="100" points="691.0,448.0 691.0,479.0" stroke="#7F7F7F" stroke-width="1" /><polyline fill="none" opacity="100" points="695.0,448.0 695.0,479.0" stroke="#7F7F7F" stroke-width="1" /><polyline fill="none" opacity="100" points="699.0,448.0 699.0,479.0" stroke="#7F7F7F" stroke-width="1" /><polyline fill="none" opacity="100" points="703.0,448.0 703.0,479.0" stroke="#7F7F7F" stroke-width="1" /><polyline fill="none" opacity="100" points="707.0,448.0 707.0,479.0" stroke="#7F7F7F" stroke-width="1" /><polyline fill="none" opacity="100" points="711.0,448.0 711.0,479.0" stroke="#7F7F7F" stroke-width="1" /><polyline fill="none" opacity="100" points="715.0,448.0 715.0,479.0" stroke="#7F7F7F" stroke-width="1" /><polyline fill="none" opacity="100" points="719.0,448.0 719.0,479.0" stroke="#7F7F7F" stroke-width="1" /><polyline fill="none" opacity="100" points="723.0,448.0 723.0,479.0" stroke="#7F7F7F" stroke-width="1" /><polyline fill="none" opacity="100" points="727.0,448.0 727.0,479.0" stroke="#7F7F7F" stroke-width="1" /><polyline fill="none" opacity="100" points="731.0,448.0 731.0,479.0" stroke="#7F7F7F" stroke-width="1" /><polyline fill="none" opacity="100" points="735.0,448.0 735.0,479.0" stroke="#7F7F7F" stroke-width="1" /><polyline fill="none" opacity="100" points="739.0,448.0 739.0,479.0" stroke="#7F7F7F" stroke-width="1" /><polyline fill="none" opacity="100" points="743.0,448.0 743.0,479.0" stroke="#7F7F7F" stroke-width="1" /><polyline fill="none" opacity="100" points="747.0,448.0 747.0,479.0" stroke="#7F7F7F" stroke-width="1" /><polyline fill="none" opacity="100" points="751.0,448.0 751.0,479.0" stroke="#7F7F7F" stroke-width="1" /><polyline fill="none" opacity="100" points="755.0,448.0 755.0,479.0" stroke="#7F7F7F" stroke-width="1" /><polyline fill="none" opacity="100" points="759.0,448.0 759.0,479.0" stroke="#7F7F7F" stroke-width="1" /><polyline fill="none" opacity="100" points="763.0,448.0 763.0,479.0" stroke="#7F7F7F" stroke-width="1" /><polyline fill="none" opacity="100" points="767.0,448.0 767.0,479.0" stroke="#7F7F7F" stroke-width="1" /><polyline fill="none" opacity="100" points="771.0,448.0 771.0,479.0" stroke="#7F7F7F" stroke-width="1" /><polyline fill="none" opacity="100" points="775.0,448.0 775.0,479.0" stroke="#7F7F7F" stroke-width="1" /><polyline fill="none" opacity="100" points="779.0,448.0 779.0,479.0" stroke="#7F7F7F" stroke-width="1" /><polyline fill="none" opacity="100" points="783.0,448.0 783.0,479.0" stroke="#7F7F7F" stroke-width="1" /><polyline fill="none" opacity="100" points="787.0,448.0 787.0,479.0" stroke="#7F7F7F" stroke-width="1" /><polyline fill="none" opacity="100" points="791.0,448.0 791.0,479.0" stroke="#7F7F7F" stroke-width="1" /><polyline fill="none" opacity="100" points="795.0,448.0 795.0,479.0" stroke="#7F7F7F" stroke-width="1" /><polyline fill="none" opacity="100" points="799.0,448.0 799.0,479.0" stroke="#7F7F7F" stroke-width="1" /><polyline fill="none" opacity="100" points="803.0,448.0 803.0,479.0" stroke="#7F7F7F" stroke-width="1" /><polyline fill="none" opacity="100" points="807.0,448.0 807.0,479.0" stroke="#7F7F7F" stroke-width="1" /><polyline fill="none" opacity="100" points="811.0,448.0 811.0,479.0" stroke="#7F7F7F" stroke-width="1" /><polyline fill="none" opacity="100" points="815.0,448.0 815.0,479.0" stroke="#7F7F7F" stroke-width="1" /><polyline fill="none" opacity="100" points="819.0,448.0 819.0,479.0" stroke="#7F7F7F" stroke-width="1" /><polyline fill="none" opacity="100" points="823.0,448.0 823.0,479.0" stroke="#7F7F7F" stroke-width="1" /><polyline fill="none" opacity="100" points="827.0,448.0 827.0,479.0" stroke="#7F7F7F" stroke-width="1" /><polyline fill="none" opacity="100" points="831.0,448.0 831.0,479.0" stroke="#7F7F7F" stroke-width="1" /><polyline fill="none" opacity="100" points="835.0,448.0 835.0,479.0" stroke="#7F7F7F" stroke-width="1" /><polygon fill="#9B5509" opacity="100" points="608.0,444.0 843.0,444.0 843.0,448.0 608.0,448.0" stroke="#000" stroke-width="1" /><polygon fill="#9B5509" opacity="100" points="608.0,455.0 843.0,455.0 843.0,460.0 608.0,460.0" stroke="#000" stroke-width="1" /><polygon fill="#9B5509" opacity="100" points="608.0,467.0 843.0,467.0 843.0,472.0 608.0,472.0" stroke="#000" stroke-width="1" /><polygon fill="#9B5509" opacity="100" points="608.0,479.0 843.0,479.0 843.0,483.0 608.0,483.0" stroke="#000" stroke-width="1" /><polygon fill="#FFF" opacity="0.8" points="749.0,393.0 802.0,393.0 802.0,444.0 796.0,448.0 793.0,454.0 791.0,461.0 792.0,468.0 793.0,474.0 797.0,480.0 802.0,483.0 802.0,533.0 749.0,533.0" stroke="#FFF" stroke-width="1" /><polygon fill="#D0D0D0" opacity="1.0" points="724.0,393.0 749.0,393.0 749.0,533.0 724.0,533.0" stroke="#D0D0D0" stroke-width="1" /><polygon fill="#D0D0D0" opacity="1.0" points="989.0,393.0 989.0,533.0 965.0,533.0 965.0,516.0 965.0,503.0 963.0,488.0 961.0,474.0 957.0,461.0 953.0,449.0 946.0,436.0 939.0,428.0 930.0,419.0 919.0,412.0 904.0,404.0 890.0,399.0 865.0,393.0" stroke="#D0D0D0" stroke-width="1" /><polygon fill="#FFF" opacity="1.0" points="749.0,445.0 749.0,481.0 735.0,481.0 735.0,445.0" stroke="#FFF" stroke-width="1" /><polyline fill="none" opacity="1.0" points="865.0,393.0 874.2656,394.9609 883.0625,397.2188 891.3889,399.7708 899.25,402.625 906.656,405.7976 913.5898,409.2617 920.0464,413.0093 926.0,417.0 931.4028,421.1587 936.3164,425.582 940.7817,430.3345 944.8125,435.4375 948.4292,440.9233 951.6523,446.8242 954.4956,453.1616 957.0,460.0 959.2271,467.436 961.1289,475.3945 962.6799,483.8352 963.875,492.75 964.697,502.1121 965.1562,511.9375 965.2578,522.2344 965.0,533.0" stroke="#000" stroke-width="1" /><polyline fill="none" opacity="1.0" points="802.0,444.0 800.3828,445.0469 798.9062,446.1875 797.5703,447.4248 796.375,448.75 795.3203,450.1455 794.4062,451.6406 793.6328,453.2441 793.0,455.0 792.5078,456.9902 792.1562,459.1094 791.9453,461.2871 791.875,463.5 791.9453,465.7129 792.1562,467.8906 792.5078,470.0098 793.0,472.0 793.6328,473.7559 794.4062,475.3594 795.3203,476.8545 796.375,478.25 797.5703,479.5752 798.9062,480.8125 800.3828,481.9531 802.0,483.0" stroke="#000" stroke-width="1" /><polyline fill="none" opacity="1.0" points="883.0,566.0 790.0,566.0 790.0,533.0 989.0,533.0 989.0,393.0 790.0,393.0 790.0,360.0 884.0,360.0" stroke="#000" stroke-width="1" /><polyline fill="none" opacity="1.0" points="884.0,334.0 760.0,334.0 760.0,393.0 724.0,393.0 724.0,533.0 759.0,533.0 759.0,594.0 883.0,594.0" stroke="#000" stroke-width="1" /><polyline fill="none" opacity="1.0" points="749.0,393.0 749.0,533.0" stroke="#000" stroke-width="1" /><polyline fill="none" opacity="1.0" points="811.0,393.0 811.0,398.0" stroke="#000" stroke-width="1" /><polyline fill="none" opacity="1.0" points="811.0,439.0 811.0,444.0" stroke="#000" stroke-width="1" /><polyline fill="none" opacity="1.0" points="811.0,483.0 811.0,488.0" stroke="#000" stroke-width="1" /><polyline fill="none" opacity="1.0" points="811.0,528.0 811.0,533.0" stroke="#000" stroke-width="1" /><polyline fill="none" opacity="1.0" points="684.0,423.0 684.0,431.0 546.0,431.0 546.0,444.0 557.0,444.0 557.0,438.0 608.0,438.0 608.0,444.0" stroke="#000" stroke-width="1" /><polyline fill="none" opacity="1.0" points="684.0,503.0 684.0,496.0 546.0,496.0 546.0,483.0 557.0,483.0 557.0,489.0 608.0,489.0 608.0,483.0" stroke="#000" stroke-width="1" /><polyline fill="none" opacity="1.0" points="821.0,566.0 821.0,594.0" stroke="#000" stroke-width="1" /><polyline fill="none" opacity="1.0" points="825.0,566.0 825.0,594.0" stroke="#000" stroke-width="1" /><polyline fill="none" opacity="1.0" points="829.0,566.0 829.0,594.0" stroke="#000" stroke-width="1" /><polyline fill="none" opacity="1.0" points="833.0,566.0 833.0,594.0" stroke="#000" stroke-width="1" /><polyline fill="none" opacity="1.0" points="837.0,566.0 837.0,594.0" stroke="#000" stroke-width="1" /><polyline fill="none" opacity="1.0" points="841.0,566.0 841.0,594.0" stroke="#000" stroke-width="1" /><polyline fill="none" opacity="1.0" points="845.0,566.0 845.0,594.0" stroke="#000" stroke-width="1" /><polyline fill="none" opacity="1.0" points="849.0,566.0 849.0,594.0" stroke="#000" stroke-width="1" /><polyline fill="none" opacity="1.0" points="853.0,566.0 853.0,594.0" stroke="#000" stroke-width="1" /><polyline fill="none" opacity="1.0" points="857.0,566.0 857.0,594.0" stroke="#000" stroke-width="1" /><polyline fill="none" opacity="1.0" points="861.0,566.0 861.0,594.0" stroke="#000" stroke-width="1" /><polyline fill="none" opacity="1.0" points="865.0,566.0 865.0,594.0" stroke="#000" stroke-width="1" /><polyline fill="none" opacity="1.0" points="869.0,566.0 869.0,594.0" stroke="#000" stroke-width="1" /><polyline fill="none" opacity="1.0" points="873.0,566.0 873.0,594.0" stroke="#000" stroke-width="1" /><polyline fill="none" opacity="1.0" points="877.0,566.0 877.0,594.0" stroke="#000" stroke-width="1" /><polyline fill="none" opacity="1.0" points="881.0,566.0 881.0,594.0" stroke="#000" stroke-width="1" /><polyline fill="none" opacity="1.0" points="759.0,557.0 790.0,557.0" stroke="#000" stroke-width="1" /><polyline fill="none" opacity="1.0" points="759.0,561.0 790.0,561.0" stroke="#000" stroke-width="1" /><polyline fill="none" opacity="1.0" points="824.0,360.0 824.0,334.0" stroke="#000" stroke-width="1" /><polyline fill="none" opacity="1.0" points="828.0,360.0 828.0,334.0" stroke="#000" stroke-width="1" /><polyline fill="none" opacity="1.0" points="832.0,360.0 832.0,334.0" stroke="#000" stroke-width="1" /><polyline fill="none" opacity="1.0" points="836.0,360.0 836.0,334.0" stroke="#000" stroke-width="1" /><polyline fill="none" opacity="1.0" points="840.0,360.0 840.0,334.0" stroke="#000" stroke-width="1" /><polyline fill="none" opacity="1.0" points="844.0,360.0 844.0,334.0" stroke="#000" stroke-width="1" /><polyline fill="none" opacity="1.0" points="848.0,360.0 848.0,334.0" stroke="#000" stroke-width="1" /><polyline fill="none" opacity="1.0" points="852.0,360.0 852.0,334.0" stroke="#000" stroke-width="1" /><polyline fill="none" opacity="1.0" points="856.0,360.0 856.0,334.0" stroke="#000" stroke-width="1" /><polyline fill="none" opacity="1.0" points="860.0,360.0 860.0,334.0" stroke="#000" stroke-width="1" /><polyline fill="none" opacity="1.0" points="864.0,360.0 864.0,334.0" stroke="#000" stroke-width="1" /><polyline fill="none" opacity="1.0" points="868.0,360.0 868.0,334.0" stroke="#000" stroke-width="1" /><polyline fill="none" opacity="1.0" points="872.0,360.0 872.0,334.0" stroke="#000" stroke-width="1" /><polyline fill="none" opacity="1.0" points="876.0,360.0 876.0,334.0" stroke="#000" stroke-width="1" /><polyline fill="none" opacity="1.0" points="880.0,360.0 880.0,334.0" stroke="#000" stroke-width="1" /><polyline fill="none" opacity="1.0" points="760.0,371.0 790.0,371.0" stroke="#000" stroke-width="1" /><polyline fill="none" opacity="1.0" points="760.0,367.0 790.0,367.0" stroke="#000" stroke-width="1" /><polyline fill="none" opacity="1.0" points="749.0,445.0 735.0,445.0 735.0,481.0 749.0,481.0" stroke="#000" stroke-width="1" /><text fill="#FFF" font-family="Arial" font-size="10" font-weight="normal" opacity="1.0" transform="rotate(-90.0 737.0,476.0) translate(0 10)" x="737.0" y="476.0">кассы</text><polygon fill="none" opacity="1.0" points="917.0,484.0 923.0,484.0 923.0,490.0 917.0,490.0" stroke="#000" stroke-width="1" /><polyline fill="none" opacity="1.0" points="961.0,484.0 928.0,484.0" stroke="#000" stroke-width="0.5" /><polyline fill="none" opacity="1.0" points="848.0,485.0 848.0,490.0" stroke="#090" stroke-width="1" /><polyline fill="none" opacity="1.0" points="852.0,485.0 852.0,490.0" stroke="#090" stroke-width="1" /><polyline fill="none" opacity="1.0" points="856.0,485.0 856.0,490.0" stroke="#090" stroke-width="1" /><polyline fill="none" opacity="1.0" points="860.0,485.0 860.0,490.0" stroke="#090" stroke-width="1" /><polyline fill="none" opacity="1.0" points="864.0,485.0 864.0,490.0" stroke="#090" stroke-width="1" /><polyline fill="none" opacity="1.0" points="868.0,485.0 868.0,490.0" stroke="#090" stroke-width="1" /><polyline fill="none" opacity="1.0" points="872.0,485.0 872.0,490.0" stroke="#090" stroke-width="1" /><polyline fill="none" opacity="1.0" points="876.0,485.0 876.0,490.0" stroke="#090" stroke-width="1" /><polyline fill="none" opacity="1.0" points="880.0,485.0 880.0,490.0" stroke="#090" stroke-width="1" /><polyline fill="none" opacity="1.0" points="884.0,485.0 884.0,490.0" stroke="#090" stroke-width="1" /><polyline fill="none" opacity="1.0" points="888.0,485.0 888.0,490.0" stroke="#090" stroke-width="1" /><polyline fill="none" opacity="1.0" points="892.0,485.0 892.0,490.0" stroke="#090" stroke-width="1" /><polyline fill="none" opacity="1.0" points="896.0,485.0 896.0,490.0" stroke="#090" stroke-width="1" /><polyline fill="none" opacity="1.0" points="900.0,485.0 900.0,490.0" stroke="#090" stroke-width="1" /><polyline fill="none" opacity="1.0" points="904.0,485.0 904.0,490.0" stroke="#090" stroke-width="1" /><polyline fill="none" opacity="1.0" points="908.0,485.0 908.0,490.0" stroke="#090" stroke-width="1" /><polyline fill="none" opacity="1.0" points="843.0,396.0 838.0,396.0" stroke="#F00" stroke-width="1" /><polyline fill="none" opacity="1.0" points="843.0,400.0 838.0,400.0" stroke="#F00" stroke-width="1" /><polyline fill="none" opacity="1.0" points="843.0,404.0 838.0,404.0" stroke="#F00" stroke-width="1" /><polyline fill="none" opacity="1.0" points="843.0,408.0 838.0,408.0" stroke="#F00" stroke-width="1" /><polyline fill="none" opacity="1.0" points="843.0,412.0 838.0,412.0" stroke="#F00" stroke-width="1" /><polyline fill="none" opacity="1.0" points="843.0,416.0 838.0,416.0" stroke="#F00" stroke-width="1" /><polyline fill="none" opacity="1.0" points="843.0,420.0 838.0,420.0" stroke="#F00" stroke-width="1" /><polyline fill="none" opacity="1.0" points="843.0,424.0 838.0,424.0" stroke="#F00" stroke-width="1" /><polyline fill="none" opacity="1.0" points="843.0,428.0 838.0,428.0" stroke="#F00" stroke-width="1" /><polyline fill="none" opacity="1.0" points="843.0,432.0 838.0,432.0" stroke="#F00" stroke-width="1" /><polyline fill="none" opacity="1.0" points="843.0,436.0 838.0,436.0" stroke="#F00" stroke-width="1" /><polyline fill="none" opacity="1.0" points="843.0,440.0 838.0,440.0" stroke="#F00" stroke-width="1" /><polyline fill="none" opacity="1.0" points="870.0,419.0 855.0,419.0" stroke="#F00" stroke-width="1" /><polygon fill="#F00" opacity="1.0" points="859.3467,417.8353 855.0,419.0 859.3467,420.1647" stroke="#F00" stroke-width="1" /><polyline fill="none" opacity="1.0" points="878.0,513.0 878.0,501.0" stroke="#090" stroke-width="1" /><polygon fill="#090" opacity="1.0" points="878.9317,504.4773 878.0,501.0 877.0683,504.4773" stroke="#090" stroke-width="1" /><polygon fill="#34349C" opacity="1.0" points="939.0,436.0 936.0,433.0 937.0,432.0 940.0,435.0" stroke="#34349C" stroke-width="1" /><polygon fill="#F00" opacity="1.0" points="942.0,439.0 939.0,436.0 940.0,435.0 943.0,438.0" stroke="#F00" stroke-width="1" /><polygon fill="#FFF" opacity="0.8" points="118.0,393.0 169.0,393.0 169.0,533.0 117.0,533.0 117.0,489.0 122.0,484.0 126.0,478.0 128.0,472.0 128.0,466.0 129.0,460.0 127.0,453.0 125.0,447.0 121.0,442.0 118.0,438.0" stroke="#FFF" stroke-width="1" /><polygon fill="#D0D0D0" opacity="1.0" points="-72.0,393.0 50.0,393.0 26.0,398.0 9.0,405.0 -6.0,414.0 -16.0,423.0 -26.0,436.0 -33.0,450.0 -38.0,464.0 -42.0,478.0 -45.0,494.0 -46.0,507.0 -46.0,519.0 -46.0,533.0 -72.0,533.0" stroke="#000" stroke-width="1" /><polygon fill="#D0D0D0" opacity="1.0" points="169.0,393.0 195.0,393.0 195.0,533.0 169.0,533.0" stroke="#000" stroke-width="1" /><polygon fill="#FFF" opacity="1.0" points="169.0,443.0 169.0,479.0 183.0,479.0 183.0,443.0" stroke="#FFF" stroke-width="1" /><polyline fill="none" opacity="1.0" points="50.0,393.0 41.2188,394.5078 32.875,396.4062 24.9702,398.6963 17.5,401.375 10.4556,404.4365 3.8516,407.8906 -2.3076,411.7402 -8.0,416.0 -13.1846,420.6973 -17.9141,425.7969 -22.2236,431.2754 -26.125,437.125 -29.6357,443.334 -32.7734,449.8906 -35.5498,456.7871 -38.0,464.0 -40.1768,471.4941 -42.0391,479.2969 -43.5649,487.4229 -44.75,495.875 -45.5796,504.6631 -46.0625,513.7812 -46.2031,523.2266 -46.0,533.0" stroke="#000" stroke-width="1" /><polyline fill="none" opacity="1.0" points="117.0,438.0 118.7969,439.6016 120.4375,441.2812 121.9219,443.0413 123.25,444.875 124.4219,446.7693 125.4375,448.7461 126.2969,450.812 127.0,453.0 127.5469,455.3716 127.9375,457.8477 128.1719,460.3755 128.25,462.9375 128.1719,465.5073 127.9375,468.0586 127.5469,470.5737 127.0,473.0 126.2969,475.2583 125.4375,477.4102 124.4219,479.4885 123.25,481.5 121.9219,483.4666 120.4375,485.375 118.7969,487.2188 117.0,489.0" stroke="#000" stroke-width="1" /><polyline fill="none" opacity="1.0" points="44.0,569.0 130.0,569.0 130.0,533.0 -72.0,533.0 -72.0,393.0 130.0,393.0 130.0,334.0 238.0,334.0" stroke="#000" stroke-width="1" /><polyline fill="none" opacity="1.0" points="238.0,360.0 160.0,360.0 160.0,393.0 195.0,393.0 195.0,533.0 160.0,533.0 160.0,596.0 44.0,596.0" stroke="#000" stroke-width="1" /><polyline fill="none" opacity="1.0" points="169.0,393.0 169.0,533.0" stroke="#000" stroke-width="1" /><polyline fill="none" opacity="1.0" points="107.0,393.0 107.0,398.0" stroke="#000" stroke-width="1" /><polyline fill="none" opacity="1.0" points="107.0,433.0 107.0,438.0" stroke="#000" stroke-width="1" /><polyline fill="none" opacity="1.0" points="107.0,489.0 107.0,494.0" stroke="#000" stroke-width="1" /><polyline fill="none" opacity="1.0" points="107.0,533.0 107.0,528.0" stroke="#000" stroke-width="1" /><polyline fill="none" opacity="1.0" points="234.0,423.0 234.0,431.0 372.0,431.0 372.0,444.0 361.0,444.0 361.0,438.0 310.0,438.0" stroke="#000" stroke-width="1" /><polyline fill="none" opacity="1.0" points="234.0,503.0 234.0,496.0 372.0,496.0 372.0,483.0 361.0,483.0 361.0,489.0 310.0,489.0" stroke="#000" stroke-width="1" /><polyline fill="none" opacity="1.0" points="48.0,569.0 48.0,596.0" stroke="#000" stroke-width="1" /><polyline fill="none" opacity="1.0" points="52.0,569.0 52.0,596.0" stroke="#000" stroke-width="1" /><polyline fill="none" opacity="1.0" points="56.0,569.0 56.0,596.0" stroke="#000" stroke-width="1" /><polyline fill="none" opacity="1.0" points="60.0,569.0 60.0,596.0" stroke="#000" stroke-width="1" /><polyline fill="none" opacity="1.0" points="64.0,569.0 64.0,596.0" stroke="#000" stroke-width="1" /><polyline fill="none" opacity="1.0" points="68.0,569.0 68.0,596.0" stroke="#000" stroke-width="1" /><polyline fill="none" opacity="1.0" points="72.0,569.0 72.0,596.0" stroke="#000" stroke-width="1" /><polyline fill="none" opacity="1.0" points="76.0,569.0 76.0,596.0" stroke="#000" stroke-width="1" /><polyline fill="none" opacity="1.0" points="80.0,569.0 80.0,596.0" stroke="#000" stroke-width="1" /><polyline fill="none" opacity="1.0" points="84.0,569.0 84.0,596.0" stroke="#000" stroke-width="1" /><polyline fill="none" opacity="1.0" points="88.0,569.0 88.0,596.0" stroke="#000" stroke-width="1" /><polyline fill="none" opacity="1.0" points="92.0,569.0 92.0,596.0" stroke="#000" stroke-width="1" /><polyline fill="none" opacity="1.0" points="96.0,569.0 96.0,596.0" stroke="#000" stroke-width="1" /><polyline fill="none" opacity="1.0" points="100.0,569.0 100.0,596.0" stroke="#000" stroke-width="1" /><polyline fill="none" opacity="1.0" points="160.0,566.0 130.0,566.0" stroke="#000" stroke-width="1" /><polyline fill="none" opacity="1.0" points="160.0,562.0 130.0,562.0" stroke="#000" stroke-width="1" /><polyline fill="none" opacity="1.0" points="183.0,360.0 183.0,334.0" stroke="#000" stroke-width="1" /><polyline fill="none" opacity="1.0" points="187.0,360.0 187.0,334.0" stroke="#000" stroke-width="1" /><polyline fill="none" opacity="1.0" points="191.0,360.0 191.0,334.0" stroke="#000" stroke-width="1" /><polyline fill="none" opacity="1.0" points="195.0,360.0 195.0,334.0" stroke="#000" stroke-width="1" /><polyline fill="none" opacity="1.0" points="199.0,360.0 199.0,334.0" stroke="#000" stroke-width="1" /><polyline fill="none" opacity="1.0" points="203.0,360.0 203.0,334.0" stroke="#000" stroke-width="1" /><polyline fill="none" opacity="1.0" points="207.0,360.0 207.0,334.0" stroke="#000" stroke-width="1" /><polyline fill="none" opacity="1.0" points="211.0,360.0 211.0,334.0" stroke="#000" stroke-width="1" /><polyline fill="none" opacity="1.0" points="215.0,360.0 215.0,334.0" stroke="#000" stroke-width="1" /><polyline fill="none" opacity="1.0" points="219.0,360.0 219.0,334.0" stroke="#000" stroke-width="1" /><polyline fill="none" opacity="1.0" points="223.0,360.0 223.0,334.0" stroke="#000" stroke-width="1" /><polyline fill="none" opacity="1.0" points="227.0,360.0 227.0,334.0" stroke="#000" stroke-width="1" /><polyline fill="none" opacity="1.0" points="231.0,360.0 231.0,334.0" stroke="#000" stroke-width="1" /><polyline fill="none" opacity="1.0" points="235.0,360.0 235.0,334.0" stroke="#000" stroke-width="1" /><polyline fill="none" opacity="1.0" points="160.0,366.0 130.0,366.0" stroke="#000" stroke-width="1" /><polyline fill="none" opacity="1.0" points="160.0,370.0 130.0,370.0" stroke="#000" stroke-width="1" /><polyline fill="none" opacity="1.0" points="169.0,443.0 183.0,443.0 183.0,479.0 169.0,479.0" stroke="#000" stroke-width="1" /><text fill="#FFF" font-family="Arial" font-size="10" font-weight="normal" opacity="1.0" transform="rotate(-90.0 170.0,473.0) translate(0 10)" x="170.0" y="473.0">кассы</text><polygon fill="none" opacity="1.0" points="30.0,489.0 36.0,489.0 36.0,495.0 30.0,495.0" stroke="#000" stroke-width="1" /><polyline fill="none" opacity="1.0" points="36.0,400.0 36.0,428.0" stroke="#000" stroke-width="0.5" /><polyline fill="none" opacity="1.0" points="39.0,489.0 73.0,489.0" stroke="#000" stroke-width="0.5" /><polyline fill="none" opacity="1.0" points="36.0,431.0 31.0,431.0" stroke="#090" stroke-width="1" /><polyline fill="none" opacity="1.0" points="36.0,435.0 31.0,435.0" stroke="#090" stroke-width="1" /><polyline fill="none" opacity="1.0" points="36.0,439.0 31.0,439.0" stroke="#090" stroke-width="1" /><polyline fill="none" opacity="1.0" points="36.0,443.0 31.0,443.0" stroke="#090" stroke-width="1" /><polyline fill="none" opacity="1.0" points="36.0,447.0 31.0,447.0" stroke="#090" stroke-width="1" /><polyline fill="none" opacity="1.0" points="36.0,451.0 31.0,451.0" stroke="#090" stroke-width="1" /><polyline fill="none" opacity="1.0" points="36.0,455.0 31.0,455.0" stroke="#090" stroke-width="1" /><polyline fill="none" opacity="1.0" points="36.0,459.0 31.0,459.0" stroke="#090" stroke-width="1" /><polyline fill="none" opacity="1.0" points="36.0,463.0 31.0,463.0" stroke="#090" stroke-width="1" /><polyline fill="none" opacity="1.0" points="36.0,467.0 31.0,467.0" stroke="#090" stroke-width="1" /><polyline fill="none" opacity="1.0" points="36.0,471.0 31.0,471.0" stroke="#090" stroke-width="1" /><polyline fill="none" opacity="1.0" points="36.0,475.0 31.0,475.0" stroke="#090" stroke-width="1" /><polyline fill="none" opacity="1.0" points="36.0,479.0 31.0,479.0" stroke="#090" stroke-width="1" /><polyline fill="none" opacity="1.0" points="36.0,483.0 31.0,483.0" stroke="#090" stroke-width="1" /><polyline fill="none" opacity="1.0" points="36.0,487.0 31.0,487.0" stroke="#090" stroke-width="1" /><polyline fill="none" opacity="1.0" points="80.0,395.0 75.0,395.0" stroke="#F00" stroke-width="1" /><polyline fill="none" opacity="1.0" points="80.0,399.0 75.0,399.0" stroke="#F00" stroke-width="1" /><polyline fill="none" opacity="1.0" points="80.0,403.0 75.0,403.0" stroke="#F00" stroke-width="1" /><polyline fill="none" opacity="1.0" points="80.0,407.0 75.0,407.0" stroke="#F00" stroke-width="1" /><polyline fill="none" opacity="1.0" points="80.0,411.0 75.0,411.0" stroke="#F00" stroke-width="1" /><polyline fill="none" opacity="1.0" points="80.0,415.0 75.0,415.0" stroke="#F00" stroke-width="1" /><polyline fill="none" opacity="1.0" points="80.0,419.0 75.0,419.0" stroke="#F00" stroke-width="1" /><polyline fill="none" opacity="1.0" points="80.0,423.0 75.0,423.0" stroke="#F00" stroke-width="1" /><polyline fill="none" opacity="1.0" points="80.0,427.0 75.0,427.0" stroke="#F00" stroke-width="1" /><polyline fill="none" opacity="1.0" points="80.0,431.0 75.0,431.0" stroke="#F00" stroke-width="1" /><polyline fill="none" opacity="1.0" points="80.0,435.0 75.0,435.0" stroke="#F00" stroke-width="1" /><polyline fill="none" opacity="1.0" points="56.0,419.0 69.0,419.0" stroke="#F00" stroke-width="1" /><polygon fill="#F00" opacity="1.0" points="65.2329,420.0094 69.0,419.0 65.2329,417.9906" stroke="#F00" stroke-width="1" /><polyline fill="none" opacity="1.0" points="6.0,464.0 21.0,464.0" stroke="#090" stroke-width="1" /><polygon fill="#090" opacity="1.0" points="16.6533,465.1647 21.0,464.0 16.6533,462.8353" stroke="#090" stroke-width="1" /><polygon fill="#D0EFFF" opacity="1.0" points="115.0,345.0 130.0,345.0 130.0,360.0 115.0,360.0" stroke="#000" stroke-width="1" /><polygon fill="#D0EFFF" opacity="1.0" points="115.0,541.0 130.0,541.0 130.0,556.0 115.0,556.0" stroke="#000" stroke-width="1" /><text fill="#000" font-family="Arial" font-size="6" font-weight="normal" opacity="1.0" transform="rotate(-0.0 116.0,349.0) translate(0 6)" x="116.0" y="349.0">лифт</text><text fill="#000" font-family="Arial" font-size="6" font-weight="normal" opacity="1.0" transform="rotate(-0.0 116.0,545.0) translate(0 6)" x="116.0" y="545.0">лифт</text><text fill="#00AFAF" font-family="Arial" font-size="15" font-weight="normal" opacity="1.0" transform="rotate(-0.0 1002.0,457.0) translate(0 15)" x="1002.0" y="457.0">Огородный пр-д</text><text fill="#00AFAF" font-family="Arial" font-size="15" font-weight="normal" opacity="1.0" transform="rotate(-0.0 -184.0,455.0) translate(0 15)" x="-184.0" y="455.0">Огородный пр-д</text><text fill="#00AFAF" font-family="Arial" font-size="15" font-weight="normal" opacity="1.0" transform="rotate(-45.0 181.0,667.0) translate(0 15)" x="181.0" y="667.0">ул. Руставели</text><g transform="rotate(-45.0,465.0,465.0)"><text fill="#FFD900" font-family="Arial" font-size="25" font-weight="normal" opacity="1.0" x="398.25" y="187.5">1</text><text fill="#FFD900" font-family="Arial" font-size="25" font-weight="normal" opacity="1.0" x="60.25" y="307.5">2</text><text fill="#FFD900" font-family="Arial" font-size="25" font-weight="normal" opacity="1.0" x="626.25" y="872.5">3</text><text fill="#FFD900" font-family="Arial" font-size="25" font-weight="normal" opacity="1.0" x="856.25" y="651.5">4</text></g></g></g></svg>