<?xml version="1.0" encoding="utf-8" ?>
<svg baseProfile="tiny" height="810px" version="1.2" width="880px" xmlns="http://www.w3.org/2000/svg" xmlns:ev="http://www.w3.org/2001/xml-events" xmlns:xlink="http://www.w3.org/1999/xlink"><defs /><g><g transform="rotate(35.0,440.0,405.0)"><polygon fill="#9CA4A4" opacity="100" points="333.0,530.0 333.0,500.0 783.0,500.0 783.0,530.0" stroke="#000" stroke-width="1" /><polygon fill="#9CA4A4" opacity="100" points="783.0,420.0 783.0,390.0 333.0,390.0 333.0,420.0" stroke="#000" stroke-width="1" /><text fill="#4C4C4C" font-family="Arial" font-size="25" font-weight="bold" opacity="100" transform="rotate(-0.0 470.0,429.0) translate(0 25)" x="470.0" y="429.0">Чертановская</text><text fill="#4C4C4C" font-family="Arial" font-size="20" font-weight="normal" opacity="100" transform="rotate(-0.0 335.0,367.0) translate(0 20)" x="335.0" y="367.0">&lt;&lt; Севастопольская</text><text fill="#4C4C4C" font-family="Arial" font-size="20" font-weight="normal" opacity="100" transform="rotate(-0.0 695.0,530.0) translate(0 20)" x="695.0" y="530.0">Южная &gt;&gt;</text><polyline fill="none" opacity="100" points="90.0,263.0 90.0,299.0 164.0,299.0 164.0,398.0 263.0,398.0 263.0,436.0 333.0,436.0 333.0,420.0" stroke="#000" stroke-width="1" /><polyline fill="none" opacity="100" points="573.0,597.0 543.0,554.0 275.0,554.0 263.0,537.0 164.0,537.0 164.0,521.0 263.0,521.0 263.0,484.0 333.0,484.0 333.0,500.0" stroke="#000" stroke-width="1" /><polyline fill="none" opacity="100" points="90.0,361.0 90.0,325.0 136.0,325.0 136.0,609.0" stroke="#000" stroke-width="1" /><polyline fill="none" opacity="100" points="68.0,361.0 68.0,263.0" stroke="#000" stroke-width="1" /><polyline fill="none" opacity="100" points="557.0,609.0 535.0,578.0 471.0,578.0 493.0,609.0" stroke="#000" stroke-width="1" /><polyline fill="none" opacity="100" points="478.0,620.0 449.0,579.0 396.0,579.0 418.0,610.0" stroke="#000" stroke-width="1" /><polyline fill="none" opacity="100" points="402.0,622.0 375.0,583.0 295.0,583.0 318.0,616.0" stroke="#000" stroke-width="1" /><polyline fill="none" opacity="100" points="300.0,627.0 273.0,588.0 265.0,588.0 265.0,603.0" stroke="#000" stroke-width="1" /><polyline fill="none" opacity="100" points="90.0,297.0 68.0,297.0" stroke="#000" stroke-width="1" /><polyline fill="none" opacity="100" points="90.0,293.0 68.0,293.0" stroke="#000" stroke-width="1" /><polyline fill="none" opacity="100" points="90.0,289.0 68.0,289.0" stroke="#000" stroke-width="1" /><polyline fill="none" opacity="100" points="90.0,285.0 68.0,285.0" stroke="#000" stroke-width="1" /><polyline fill="none" opacity="100" points="90.0,281.0 68.0,281.0" stroke="#000" stroke-width="1" /><polyline fill="none" opacity="100" points="90.0,277.0 68.0,277.0" stroke="#000" stroke-width="1" /><polyline fill="none" opacity="100" points="90.0,273.0 68.0,273.0" stroke="#000" stroke-width="1" /><polyline fill="none" opacity="100" points="90.0,269.0 68.0,269.0" stroke="#000" stroke-width="1" /><polyline fill="none" opacity="100" points="90.0,265.0 68.0,265.0" stroke="#000" stroke-width="1" /><polyline fill="none" opacity="100" points="90.0,327.0 68.0,327.0" stroke="#000" stroke-width="1" /><polyline fill="none" opacity="100" points="90.0,331.0 68.0,331.0" stroke="#000" stroke-width="1" /><polyline fill="none" opacity="100" points="90.0,335.0 68.0,335.0" stroke="#000" stroke-width="1" /><polyline fill="none" opacity="100" points="90.0,339.0 68.0,339.0" stroke="#000" stroke-width="1" /><polyline fill="none" opacity="100" points="90.0,343.0 68.0,343.0" stroke="#000" stroke-width="1" /><polyline fill="none" opacity="100" points="90.0,347.0 68.0,347.0" stroke="#000" stroke-width="1" /><polyline fill="none" opacity="100" points="90.0,351.0 68.0,351.0" stroke="#000" stroke-width="1" /><polyline fill="none" opacity="100" points="90.0,355.0 68.0,355.0" stroke="#000" stroke-width="1" /><polyline fill="none" opacity="100" points="90.0,359.0 68.0,359.0" stroke="#000" stroke-width="1" /><polyline fill="none" opacity="100" points="537.0,580.0 553.0,569.0" stroke="#000" stroke-width="1" /><polyline fill="none" opacity="100" points="539.302,583.2712 555.302,572.2712" stroke="#000" stroke-width="1" /><polyline fill="none" opacity="100" points="541.6039,586.5425 557.6039,575.5425" stroke="#000" stroke-width="1" /><polyline fill="none" opacity="100" points="543.9059,589.8137 559.9059,578.8137" stroke="#000" stroke-width="1" /><polyline fill="none" opacity="100" points="546.2079,593.0849 562.2079,582.0849" stroke="#000" stroke-width="1" /><polyline fill="none" opacity="100" points="548.5099,596.3561 564.5099,585.3561" stroke="#000" stroke-width="1" /><polyline fill="none" opacity="100" points="550.8118,599.6274 566.8118,588.6274" stroke="#000" stroke-width="1" /><polyline fill="none" opacity="100" points="553.1138,602.8986 569.1138,591.8986" stroke="#000" stroke-width="1" /><polyline fill="none" opacity="100" points="555.4158,606.1698 571.4158,595.1698" stroke="#000" stroke-width="1" /><polyline fill="none" opacity="100" points="458.0,591.0 473.0,581.0" stroke="#000" stroke-width="1" /><polyline fill="none" opacity="100" points="460.302,594.2712 475.302,584.2712" stroke="#000" stroke-width="1" /><polyline fill="none" opacity="100" points="462.6039,597.5425 477.6039,587.5425" stroke="#000" stroke-width="1" /><polyline fill="none" opacity="100" points="464.9059,600.8137 479.9059,590.8137" stroke="#000" stroke-width="1" /><polyline fill="none" opacity="100" points="467.2079,604.0849 482.2079,594.0849" stroke="#000" stroke-width="1" /><polyline fill="none" opacity="100" points="469.5099,607.3561 484.5099,597.3561" stroke="#000" stroke-width="1" /><polyline fill="none" opacity="100" points="471.8118,610.6274 486.8118,600.6274" stroke="#000" stroke-width="1" /><polyline fill="none" opacity="100" points="474.1138,613.8986 489.1138,603.8986" stroke="#000" stroke-width="1" /><polyline fill="none" opacity="100" points="476.4158,617.1698 491.4158,607.1698" stroke="#000" stroke-width="1" /><polyline fill="none" opacity="100" points="382.0,593.0 398.0,582.0" stroke="#000" stroke-width="1" /><polyline fill="none" opacity="100" points="384.302,596.2712 400.302,585.2712" stroke="#000" stroke-width="1" /><polyline fill="none" opacity="100" points="386.6039,599.5425 402.6039,588.5425" stroke="#000" stroke-width="1" /><polyline fill="none" opacity="100" points="388.9059,602.8137 404.9059,591.8137" stroke="#000" stroke-width="1" /><polyline fill="none" opacity="100" points="391.2079,606.0849 407.2079,595.0849" stroke="#000" stroke-width="1" /><polyline fill="none" opacity="100" points="393.5099,609.3561 409.5099,598.3561" stroke="#000" stroke-width="1" /><polyline fill="none" opacity="100" points="395.8118,612.6274 411.8118,601.6274" stroke="#000" stroke-width="1" /><polyline fill="none" opacity="100" points="398.1138,615.8986 414.1138,604.8986" stroke="#000" stroke-width="1" /><polyline fill="none" opacity="100" points="400.4158,619.1698 416.4158,608.1698" stroke="#000" stroke-width="1" /><polyline fill="none" opacity="100" points="297.0,586.0 280.0,598.0" stroke="#000" stroke-width="1" /><polyline fill="none" opacity="100" points="299.246,589.3099 282.246,601.3099" stroke="#000" stroke-width="1" /><polyline fill="none" opacity="100" points="301.492,592.6198 284.492,604.6198" stroke="#000" stroke-width="1" /><polyline fill="none" opacity="100" points="303.738,595.9297 286.738,607.9297" stroke="#000" stroke-width="1" /><polyline fill="none" opacity="100" points="305.984,599.2396 288.984,611.2396" stroke="#000" stroke-width="1" /><polyline fill="none" opacity="100" points="308.23,602.5495 291.23,614.5495" stroke="#000" stroke-width="1" /><polyline fill="none" opacity="100" points="310.476,605.8594 293.476,617.8594" stroke="#000" stroke-width="1" /><polyline fill="none" opacity="100" points="312.722,609.1693 295.722,621.1693" stroke="#000" stroke-width="1" /><polyline fill="none" opacity="100" points="314.968,612.4792 297.968,624.4792" stroke="#000" stroke-width="1" /><polygon fill="#D0D0D0" opacity="100" points="174.0,431.0 166.0,431.0 166.0,488.0 174.0,488.0" stroke="#000" stroke-width="1" /><polyline fill="none" opacity="100" points="267.0,437.0 267.0,482.0" stroke="#7F7F7F" stroke-width="1" /><polyline fill="none" opacity="100" points="270.9981,437.123 270.9981,482.123" stroke="#7F7F7F" stroke-width="1" /><polyline fill="none" opacity="100" points="274.9962,437.246 274.9962,482.246" stroke="#7F7F7F" stroke-width="1" /><polyline fill="none" opacity="100" points="278.9943,437.3691 278.9943,482.3691" stroke="#7F7F7F" stroke-width="1" /><polyline fill="none" opacity="100" points="282.9924,437.4921 282.9924,482.4921" stroke="#7F7F7F" stroke-width="1" /><polyline fill="none" opacity="100" points="286.9905,437.6151 286.9905,482.6151" stroke="#7F7F7F" stroke-width="1" /><polyline fill="none" opacity="100" points="290.9886,437.7381 290.9886,482.7381" stroke="#7F7F7F" stroke-width="1" /><polyline fill="none" opacity="100" points="294.9868,437.8611 294.9868,482.8611" stroke="#7F7F7F" stroke-width="1" /><polyline fill="none" opacity="100" points="298.9849,437.9841 298.9849,482.9841" stroke="#7F7F7F" stroke-width="1" /><polyline fill="none" opacity="100" points="302.983,438.1072 302.983,483.1072" stroke="#7F7F7F" stroke-width="1" /><polyline fill="none" opacity="100" points="306.9811,438.2302 306.9811,483.2302" stroke="#7F7F7F" stroke-width="1" /><polyline fill="none" opacity="100" points="310.9792,438.3532 310.9792,483.3532" stroke="#7F7F7F" stroke-width="1" /><polyline fill="none" opacity="100" points="314.9773,438.4762 314.9773,483.4762" stroke="#7F7F7F" stroke-width="1" /><polyline fill="none" opacity="100" points="318.9754,438.5992 318.9754,483.5992" stroke="#7F7F7F" stroke-width="1" /><polyline fill="none" opacity="100" points="322.9735,438.7223 322.9735,483.7223" stroke="#7F7F7F" stroke-width="1" /><polyline fill="none" opacity="100" points="326.9716,438.8453 326.9716,483.8453" stroke="#7F7F7F" stroke-width="1" /><polyline fill="none" opacity="100" points="330.9697,438.9683 330.9697,483.9683" stroke="#7F7F7F" stroke-width="1" /><polygon fill="#9B5509" opacity="100" points="333.0,450.0 264.0,450.0 264.0,455.0 333.0,455.0" stroke="#000" stroke-width="1" /><polygon fill="#9B5509" opacity="100" points="333.0,465.0 264.0,465.0 264.0,470.0 333.0,470.0" stroke="#000" stroke-width="1" /><polygon fill="#9B5509" opacity="100" points="333.0,436.0 264.0,436.0 264.0,440.0 333.0,440.0" stroke="#000" stroke-width="1" /><polygon fill="#9B5509" opacity="100" points="333.0,480.0 264.0,480.0 264.0,484.0 333.0,484.0" stroke="#000" stroke-width="1" /><polyline fill="none" opacity="100" points="263.0,400.0 271.0,400.0 271.0,428.0 263.0,428.0" stroke="#000" stroke-width="1" /><text fill="#FFF" font-family="Arial" font-size="10" font-weight="normal" opacity="100" transform="rotate(-90.0 260.0,426.0) translate(0 10)" x="260.0" y="426.0">кассы</text><polyline fill="none" opacity="100" points="263.0,429.0 235.0,429.0" stroke="#000" stroke-width="0.5" /><polygon fill="none" opacity="100" points="204.0,486.0 206.0,481.0 211.0,483.0 209.0,488.0" stroke="#000" stroke-width="1" /><polyline fill="none" opacity="100" points="209.0,488.0 174.0,488.0" stroke="#000" stroke-width="0.5" /><polyline fill="none" opacity="100" points="208.0,478.0 212.0,480.0" stroke="#090" stroke-width="1" /><polyline fill="none" opacity="100" points="209.8167,474.4364 213.8167,476.4364" stroke="#090" stroke-width="1" /><polyline fill="none" opacity="100" points="211.6335,470.8728 215.6335,472.8728" stroke="#090" stroke-width="1" /><polyline fill="none" opacity="100" points="213.4502,467.3091 217.4502,469.3091" stroke="#090" stroke-width="1" /><polyline fill="none" opacity="100" points="215.267,463.7455 219.267,465.7455" stroke="#090" stroke-width="1" /><polyline fill="none" opacity="100" points="217.0837,460.1819 221.0837,462.1819" stroke="#090" stroke-width="1" /><polyline fill="none" opacity="100" points="218.9005,456.6183 222.9005,458.6183" stroke="#090" stroke-width="1" /><polyline fill="none" opacity="100" points="220.7172,453.0546 224.7172,455.0546" stroke="#090" stroke-width="1" /><polyline fill="none" opacity="100" points="222.534,449.491 226.534,451.491" stroke="#090" stroke-width="1" /><polyline fill="none" opacity="100" points="224.3507,445.9274 228.3507,447.9274" stroke="#090" stroke-width="1" /><polyline fill="none" opacity="100" points="226.1675,442.3638 230.1675,444.3638" stroke="#090" stroke-width="1" /><polyline fill="none" opacity="100" points="227.9842,438.8001 231.9842,440.8001" stroke="#090" stroke-width="1" /><polyline fill="none" opacity="100" points="229.801,435.2365 233.801,437.2365" stroke="#090" stroke-width="1" /><polyline fill="none" opacity="100" points="231.6177,431.6729 235.6177,433.6729" stroke="#090" stroke-width="1" /><polyline fill="none" opacity="100" points="233.4345,428.1093 237.4345,430.1093" stroke="#090" stroke-width="1" /><polyline fill="none" opacity="100" points="208.0,493.0 203.0,493.0" stroke="#F00" stroke-width="1" /><polyline fill="none" opacity="100" points="208.0,497.0 203.0,497.0" stroke="#F00" stroke-width="1" /><polyline fill="none" opacity="100" points="208.0,501.0 203.0,501.0" stroke="#F00" stroke-width="1" /><polyline fill="none" opacity="100" points="208.0,505.0 203.0,505.0" stroke="#F00" stroke-width="1" /><polyline fill="none" opacity="100" points="208.0,509.0 203.0,509.0" stroke="#F00" stroke-width="1" /><polyline fill="none" opacity="100" points="208.0,513.0 203.0,513.0" stroke="#F00" stroke-width="1" /><polyline fill="none" opacity="100" points="208.0,517.0 203.0,517.0" stroke="#F00" stroke-width="1" /><polyline fill="none" opacity="100" points="816.0,432.0 863.0,432.0 863.0,437.0 783.0,437.0 783.0,420.0" stroke="#000" stroke-width="1" /><polyline fill="none" opacity="100" points="816.0,488.0 861.0,488.0 861.0,483.0 783.0,483.0 783.0,500.0" stroke="#000" stroke-width="1" /><polyline fill="none" opacity="100" points="816.0,513.0 954.0,513.0 954.0,407.0 816.0,407.0" stroke="#000" stroke-width="1" /><polyline fill="none" opacity="100" points="914.0,473.0 858.0,468.0" stroke="#000" stroke-width="0.5" /><polyline fill="none" opacity="100" points="863.0,435.0 894.0,435.0" stroke="#000" stroke-width="0.5" /><polyline fill="none" opacity="100" points="855.0,439.0 855.0,481.0" stroke="#7F7F7F" stroke-width="1" /><polyline fill="none" opacity="100" points="851.0,439.0 851.0,481.0" stroke="#7F7F7F" stroke-width="1" /><polyline fill="none" opacity="100" points="847.0,439.0 847.0,481.0" stroke="#7F7F7F" stroke-width="1" /><polyline fill="none" opacity="100" points="843.0,439.0 843.0,481.0" stroke="#7F7F7F" stroke-width="1" /><polyline fill="none" opacity="100" points="839.0,439.0 839.0,481.0" stroke="#7F7F7F" stroke-width="1" /><polyline fill="none" opacity="100" points="835.0,439.0 835.0,481.0" stroke="#7F7F7F" stroke-width="1" /><polyline fill="none" opacity="100" points="831.0,439.0 831.0,481.0" stroke="#7F7F7F" stroke-width="1" /><polyline fill="none" opacity="100" points="827.0,439.0 827.0,481.0" stroke="#7F7F7F" stroke-width="1" /><polyline fill="none" opacity="100" points="823.0,439.0 823.0,481.0" stroke="#7F7F7F" stroke-width="1" /><polyline fill="none" opacity="100" points="819.0,439.0 819.0,481.0" stroke="#7F7F7F" stroke-width="1" /><polyline fill="none" opacity="100" points="815.0,439.0 815.0,481.0" stroke="#7F7F7F" stroke-width="1" /><polyline fill="none" opacity="100" points="811.0,439.0 811.0,481.0" stroke="#7F7F7F" stroke-width="1" /><polyline fill="none" opacity="100" points="807.0,439.0 807.0,481.0" stroke="#7F7F7F" stroke-width="1" /><polyline fill="none" opacity="100" points="803.0,439.0 803.0,481.0" stroke="#7F7F7F" stroke-width="1" /><polyline fill="none" opacity="100" points="799.0,439.0 799.0,481.0" stroke="#7F7F7F" stroke-width="1" /><polyline fill="none" opacity="100" points="795.0,439.0 795.0,481.0" stroke="#7F7F7F" stroke-width="1" /><polyline fill="none" opacity="100" points="791.0,439.0 791.0,481.0" stroke="#7F7F7F" stroke-width="1" /><polyline fill="none" opacity="100" points="787.0,439.0 787.0,481.0" stroke="#7F7F7F" stroke-width="1" /><polygon fill="#9B5509" opacity="100" points="784.0,450.0 858.0,450.0 858.0,455.0 784.0,455.0" stroke="#000" stroke-width="1" /><polygon fill="#9B5509" opacity="100" points="784.0,465.0 858.0,465.0 858.0,470.0 784.0,470.0" stroke="#000" stroke-width="1" /><polygon fill="#9B5509" opacity="100" points="784.0,437.0 858.0,437.0 858.0,440.0 784.0,440.0" stroke="#000" stroke-width="1" /><polygon fill="#9B5509" opacity="100" points="784.0,480.0 858.0,480.0 858.0,483.0 784.0,483.0" stroke="#000" stroke-width="1" /><polygon fill="none" opacity="100" points="896.0,434.0 899.0,439.0 894.0,442.0 891.0,437.0" stroke="#000" stroke-width="1" /><polyline fill="none" opacity="100" points="897.0,445.0 900.0,443.0" stroke="#090" stroke-width="1" /><polyline fill="none" opacity="100" points="899.1095,448.3986 902.1095,446.3986" stroke="#090" stroke-width="1" /><polyline fill="none" opacity="100" points="901.2189,451.7971 904.2189,449.7971" stroke="#090" stroke-width="1" /><polyline fill="none" opacity="100" points="903.3284,455.1957 906.3284,453.1957" stroke="#090" stroke-width="1" /><polyline fill="none" opacity="100" points="905.4378,458.5942 908.4378,456.5942" stroke="#090" stroke-width="1" /><polyline fill="none" opacity="100" points="907.5473,461.9928 910.5473,459.9928" stroke="#090" stroke-width="1" /><polyline fill="none" opacity="100" points="909.6567,465.3914 912.6567,463.3914" stroke="#090" stroke-width="1" /><polyline fill="none" opacity="100" points="911.7662,468.7899 914.7662,466.7899" stroke="#090" stroke-width="1" /><polyline fill="none" opacity="100" points="913.8756,472.1885 916.8756,470.1885" stroke="#090" stroke-width="1" /><polyline fill="none" opacity="100" points="954.0,410.0 963.0,410.0 963.0,439.0 954.0,439.0" stroke="#000" stroke-width="1" /><text fill="#000" font-family="Arial" font-size="10" font-weight="normal" opacity="100" transform="rotate(-90.0 951.0,437.0) translate(0 10)" x="951.0" y="437.0">кассы</text><polyline fill="none" opacity="100" points="833.0,500.0 816.0,500.0" stroke="#F00" stroke-width="1" /><polygon fill="#F00" opacity="100" points="820.9262,498.68 816.0,500.0 820.9262,501.32" stroke="#F00" stroke-width="1" /><polyline fill="none" opacity="100" points="860.0,475.0 871.0,475.0" stroke="#F00" stroke-width="1" /><polygon fill="#F00" opacity="100" points="867.8124,475.8541 871.0,475.0 867.8124,474.1459" stroke="#F00" stroke-width="1" /><polyline fill="none" opacity="100" points="183.0,504.0 170.0,504.0" stroke="#F00" stroke-width="1" /><polygon fill="#F00" opacity="100" points="173.7671,502.9906 170.0,504.0 173.7671,505.0094" stroke="#F00" stroke-width="1" /><polyline fill="none" opacity="100" points="260.0,475.0 249.0,475.0" stroke="#F00" stroke-width="1" /><polygon fill="#F00" opacity="100" points="252.1876,474.1459 249.0,475.0 252.1876,475.8541" stroke="#F00" stroke-width="1" /><polyline fill="none" opacity="100" points="871.0,445.0 860.0,445.0" stroke="#090" stroke-width="1" /><polygon fill="#090" opacity="100" points="863.1876,444.1459 860.0,445.0 863.1876,445.8541" stroke="#090" stroke-width="1" /><polyline fill="none" opacity="100" points="926.0,441.0 915.0,449.0" stroke="#090" stroke-width="1" /><polygon fill="#090" opacity="100" points="917.5664,445.8277 915.0,449.0 918.8087,447.5359" stroke="#090" stroke-width="1" /><polyline fill="none" opacity="100" points="816.0,419.0 833.0,419.0" stroke="#090" stroke-width="1" /><polygon fill="#090" opacity="100" points="828.0738,420.32 833.0,419.0 828.0738,417.68" stroke="#090" stroke-width="1" /><polyline fill="none" opacity="100" points="210.0,425.0 221.0,430.0" stroke="#090" stroke-width="1" /><polygon fill="#090" opacity="100" points="217.4242,429.4052 221.0,430.0 218.2007,427.697" stroke="#090" stroke-width="1" /><polyline fill="none" opacity="100" points="249.0,445.0 260.0,445.0" stroke="#090" stroke-width="1" /><polygon fill="#090" opacity="100" points="256.8124,445.8541 260.0,445.0 256.8124,444.1459" stroke="#090" stroke-width="1" /><polygon fill="#34349C" opacity="100" points="919.0,413.0 924.0,413.0 924.0,411.0 919.0,411.0" stroke="#34349C" stroke-width="1" /><polygon fill="#34349C" opacity="100" points="543.0,463.0 543.0,468.0 541.0,468.0 541.0,463.0" stroke="#34349C" stroke-width="1" /><polygon fill="#34349C" opacity="100" points="198.0,433.0 193.0,433.0 193.0,435.0 198.0,435.0" stroke="#34349C" stroke-width="1" /><polygon fill="#F00" opacity="100" points="914.0,413.0 919.0,413.0 919.0,411.0 914.0,411.0" stroke="#F00" stroke-width="1" /><polygon fill="#F00" opacity="100" points="543.0,458.0 543.0,463.0 541.0,463.0 541.0,458.0" stroke="#F00" stroke-width="1" /><polygon fill="#F00" opacity="100" points="203.0,433.0 198.0,433.0 198.0,435.0 203.0,435.0" stroke="#F00" stroke-width="1" /><polyline fill="none" opacity="100" points="634.0,172.0 596.0,199.0 582.0,179.0 620.0,152.0" stroke="#000" stroke-width="1" /><polyline fill="none" opacity="100" points="509.0,229.0 548.0,202.0 562.0,222.0 524.0,249.0" stroke="#000" stroke-width="1" /><polyline fill="none" opacity="100" points="451.0,142.0 488.0,116.0 502.0,136.0 464.0,163.0" stroke="#000" stroke-width="1" /><polyline fill="none" opacity="100" points="559.0,66.0 521.0,93.0 535.0,113.0 574.0,86.0" stroke="#000" stroke-width="1" /><polyline fill="none" opacity="100" points="492.0,143.0 478.0,123.0" stroke="#000" stroke-width="1" /><polyline fill="none" opacity="100" points="488.7288,145.302 474.7288,125.302" stroke="#000" stroke-width="1" /><polyline fill="none" opacity="100" points="485.4575,147.6039 471.4575,127.6039" stroke="#000" stroke-width="1" /><polyline fill="none" opacity="100" points="482.1863,149.9059 468.1863,129.9059" stroke="#000" stroke-width="1" /><polyline fill="none" opacity="100" points="478.9151,152.2079 464.9151,132.2079" stroke="#000" stroke-width="1" /><polyline fill="none" opacity="100" points="475.6439,154.5099 461.6439,134.5099" stroke="#000" stroke-width="1" /><polyline fill="none" opacity="100" points="472.3726,156.8118 458.3726,136.8118" stroke="#000" stroke-width="1" /><polyline fill="none" opacity="100" points="469.1014,159.1138 455.1014,139.1138" stroke="#000" stroke-width="1" /><polyline fill="none" opacity="100" points="465.8302,161.4158 451.8302,141.4158" stroke="#000" stroke-width="1" /><polyline fill="none" opacity="100" points="571.0,88.0 557.0,68.0" stroke="#000" stroke-width="1" /><polyline fill="none" opacity="100" points="567.7288,90.302 553.7288,70.302" stroke="#000" stroke-width="1" /><polyline fill="none" opacity="100" points="564.4575,92.6039 550.4575,72.6039" stroke="#000" stroke-width="1" /><polyline fill="none" opacity="100" points="561.1863,94.9059 547.1863,74.9059" stroke="#000" stroke-width="1" /><polyline fill="none" opacity="100" points="557.9151,97.2079 543.9151,77.2079" stroke="#000" stroke-width="1" /><polyline fill="none" opacity="100" points="554.6439,99.5099 540.6439,79.5099" stroke="#000" stroke-width="1" /><polyline fill="none" opacity="100" points="551.3726,101.8118 537.3726,81.8118" stroke="#000" stroke-width="1" /><polyline fill="none" opacity="100" points="548.1014,104.1138 534.1014,84.1138" stroke="#000" stroke-width="1" /><polyline fill="none" opacity="100" points="544.8302,106.4158 530.8302,86.4158" stroke="#000" stroke-width="1" /><polyline fill="none" opacity="100" points="513.0,227.0 527.0,247.0" stroke="#000" stroke-width="1" /><polyline fill="none" opacity="100" points="516.2712,224.698 530.2712,244.698" stroke="#000" stroke-width="1" /><polyline fill="none" opacity="100" points="519.5425,222.3961 533.5425,242.3961" stroke="#000" stroke-width="1" /><polyline fill="none" opacity="100" points="522.8137,220.0941 536.8137,240.0941" stroke="#000" stroke-width="1" /><polyline fill="none" opacity="100" points="526.0849,217.7921 540.0849,237.7921" stroke="#000" stroke-width="1" /><polyline fill="none" opacity="100" points="529.3561,215.4901 543.3561,235.4901" stroke="#000" stroke-width="1" /><polyline fill="none" opacity="100" points="532.6274,213.1882 546.6274,233.1882" stroke="#000" stroke-width="1" /><polyline fill="none" opacity="100" points="535.8986,210.8862 549.8986,230.8862" stroke="#000" stroke-width="1" /><polyline fill="none" opacity="100" points="539.1698,208.5842 553.1698,228.5842" stroke="#000" stroke-width="1" /><polyline fill="none" opacity="100" points="617.0,154.0 631.0,174.0" stroke="#000" stroke-width="1" /><polyline fill="none" opacity="100" points="613.7704,156.3601 627.7704,176.3601" stroke="#000" stroke-width="1" /><polyline fill="none" opacity="100" points="610.5409,158.7201 624.5409,178.7201" stroke="#000" stroke-width="1" /><polyline fill="none" opacity="100" points="607.3113,161.0802 621.3113,181.0802" stroke="#000" stroke-width="1" /><polyline fill="none" opacity="100" points="604.0817,163.4403 618.0817,183.4403" stroke="#000" stroke-width="1" /><polyline fill="none" opacity="100" points="600.8522,165.8003 614.8522,185.8003" stroke="#000" stroke-width="1" /><polyline fill="none" opacity="100" points="597.6226,168.1604 611.6226,188.1604" stroke="#000" stroke-width="1" /><polyline fill="none" opacity="100" points="594.393,170.5205 608.393,190.5205" stroke="#000" stroke-width="1" /><polyline fill="none" opacity="100" points="591.1635,172.8805 605.1635,192.8805" stroke="#000" stroke-width="1" /><polyline fill="none" opacity="100" points="596.0,199.0 562.0,222.0" stroke="#D8D8D8" stroke-width="1" /><polyline fill="none" opacity="100" points="582.0,179.0 576.0,183.0 530.0,117.0 535.0,113.0" stroke="#D8D8D8" stroke-width="1" /><polyline fill="none" opacity="100" points="521.0,93.0 488.0,116.0" stroke="#D8D8D8" stroke-width="1" /><polyline fill="none" opacity="100" points="502.0,136.0 508.0,132.0 554.0,198.0 548.0,202.0" stroke="#D8D8D8" stroke-width="1" /><text fill="#00AFAF" font-family="Arial" font-size="15" font-weight="normal" opacity="100" transform="rotate(-125.0 586.0,722.0) translate(0 15)" x="586.0" y="722.0">Чертановская улица</text><polyline fill="none" opacity="100" points="568.0,660.0 550.0,635.0" stroke="#00AFAF" stroke-width="1" /><polygon fill="#00AFAF" opacity="100" points="557.1571,640.8468 550.0,635.0 553.2749,643.6421" stroke="#00AFAF" stroke-width="1" /><text fill="#00AFAF" font-family="Arial" font-size="15" font-weight="normal" opacity="100" transform="rotate(-125.0 427.0,715.0) translate(0 15)" x="427.0" y="715.0">Чертановская улица</text><polyline fill="none" opacity="100" points="401.0,645.0 418.0,669.0" stroke="#00AFAF" stroke-width="1" /><polygon fill="#00AFAF" opacity="100" points="411.2103,663.3653 418.0,669.0 414.9373,660.7254" stroke="#00AFAF" stroke-width="1" /><text fill="#00AFAF" font-family="Arial" font-size="15" font-weight="normal" opacity="100" transform="rotate(-125.0 503.0,716.0) translate(0 15)" x="503.0" y="716.0">трамвайные пути</text><text fill="#00AFAF" font-family="Arial" font-size="15" font-weight="normal" opacity="100" transform="rotate(-35.0 483.0,183.0) translate(0 15)" x="483.0" y="183.0">Балаклавский проспект</text><text fill="#00AFAF" font-family="Arial" font-size="15" font-weight="normal" opacity="100" transform="rotate(-35.0 -2.0,523.0) translate(0 15)" x="-2.0" y="523.0">Балаклавский проспект</text><text fill="#00AFAF" font-family="Arial" font-size="15" font-weight="normal" opacity="100" transform="rotate(-125.0 226.0,287.0) translate(0 15)" x="226.0" y="287.0">Симферопольский бульвар</text><g transform="rotate(-35.0,440.0,405.0)"><text fill="#FFD900" font-family="Arial" font-size="25" font-weight="normal" opacity="100" x="678.25" y="750.5">1</text><text fill="#FFD900" font-family="Arial" font-size="25" font-weight="normal" opacity="100" x="181.25" y="74.5">2</text><text fill="#FFD900" font-family="Arial" font-size="25" font-weight="normal" opacity="100" x="138.25" y="141.5">3</text><text fill="#FFD900" font-family="Arial" font-size="25" font-weight="normal" opacity="100" x="101.25" y="432.5">4</text><text fill="#FFD900" font-family="Arial" font-size="25" font-weight="normal" opacity="100" x="202.25" y="548.5">5</text><text fill="#FFD900" font-family="Arial" font-size="25" font-weight="normal" opacity="100" x="287.25" y="591.5">6</text><text fill="#FFD900" font-family="Arial" font-size="25" font-weight="normal" opacity="100" x="345.25" y="633.5">7</text><text fill="#FFD900" font-family="Arial" font-size="25" font-weight="normal" opacity="100" x="424.25" y="672.5">8</text></g></g></g></svg>