<?xml version="1.0" encoding="utf-8" ?>
<svg baseProfile="tiny" height="560px" version="1.2" width="500px" xmlns="http://www.w3.org/2000/svg" xmlns:ev="http://www.w3.org/2001/xml-events" xmlns:xlink="http://www.w3.org/1999/xlink"><defs /><g><g transform="rotate(-50.0,250.0,280.0)"><polygon fill="#30D5C8" opacity="100" points="478.0,322.0 478.0,352.0 29.0,352.0 29.0,322.0" stroke="#000" stroke-width="1" /><polygon fill="#30D5C8" opacity="100" points="478.0,214.0 478.0,244.0 29.0,244.0 29.0,214.0" stroke="#000" stroke-width="1" /><text fill="#30D5C8" font-family="Arial" font-size="20" font-weight="normal" opacity="100" transform="rotate(-0.0 28.0,190.0) translate(0 20)" x="28.0" y="190.0">&lt;&lt; Хорошёвская</text><text fill="#30D5C8" font-family="Arial" font-size="20" font-weight="normal" opacity="100" transform="rotate(-0.0 308.0,352.0) translate(0 20)" x="308.0" y="352.0">Петровский парк &gt;&gt;</text><text fill="#30D5C8" font-family="Arial" font-size="25" font-weight="bold" opacity="100" transform="rotate(-0.0 180.0,266.0) translate(0 25)" x="180.0" y="266.0">ЦСКА</text><polyline fill="none" opacity="100" points="478.0,244.0 478.0,252.0 506.0,252.0" stroke="#000" stroke-width="1" /><polyline fill="none" opacity="100" points="478.0,322.0 478.0,302.0" stroke="#000" stroke-width="1" /><polyline fill="none" opacity="100" points="29.0,244.0 29.0,252.0 1.0,252.0" stroke="#000" stroke-width="1" /><polyline fill="none" opacity="100" points="29.0,322.0 29.0,302.0" stroke="#000" stroke-width="1" /><polyline fill="none" opacity="100" points="-13.0,305.0 -9.0,305.0" stroke="#090" stroke-width="1" /><polyline fill="none" opacity="100" points="-13.0,309.0 -9.0,309.0" stroke="#090" stroke-width="1" /><polyline fill="none" opacity="100" points="-13.0,313.0 -9.0,313.0" stroke="#090" stroke-width="1" /><polyline fill="none" opacity="100" points="-13.0,317.0 -9.0,317.0" stroke="#090" stroke-width="1" /><polyline fill="none" opacity="100" points="-13.0,321.0 -9.0,321.0" stroke="#090" stroke-width="1" /><polyline fill="none" opacity="100" points="-13.0,325.0 -9.0,325.0" stroke="#090" stroke-width="1" /><polyline fill="none" opacity="100" points="-13.0,329.0 -9.0,329.0" stroke="#090" stroke-width="1" /><polyline fill="none" opacity="100" points="-13.0,333.0 -9.0,333.0" stroke="#090" stroke-width="1" /><polyline fill="none" opacity="100" points="-13.0,337.0 -9.0,337.0" stroke="#090" stroke-width="1" /><polyline fill="none" opacity="100" points="23.0,234.0 19.0,234.0" stroke="#F00" stroke-width="1" /><polyline fill="none" opacity="100" points="23.0,238.0 19.0,238.0" stroke="#F00" stroke-width="1" /><polyline fill="none" opacity="100" points="23.0,242.0 19.0,242.0" stroke="#F00" stroke-width="1" /><polyline fill="none" opacity="100" points="23.0,246.0 19.0,246.0" stroke="#F00" stroke-width="1" /><polyline fill="none" opacity="100" points="23.0,250.0 19.0,250.0" stroke="#F00" stroke-width="1" /><polyline fill="none" opacity="100" points="23.0,254.0 19.0,254.0" stroke="#F00" stroke-width="1" /><polyline fill="none" opacity="100" points="23.0,258.0 19.0,258.0" stroke="#F00" stroke-width="1" /><polyline fill="none" opacity="100" points="23.0,262.0 19.0,262.0" stroke="#F00" stroke-width="1" /><polyline fill="none" opacity="100" points="520.0,305.0 516.0,305.0" stroke="#090" stroke-width="1" /><polyline fill="none" opacity="100" points="520.0,309.0 516.0,309.0" stroke="#090" stroke-width="1" /><polyline fill="none" opacity="100" points="520.0,313.0 516.0,313.0" stroke="#090" stroke-width="1" /><polyline fill="none" opacity="100" points="520.0,317.0 516.0,317.0" stroke="#090" stroke-width="1" /><polyline fill="none" opacity="100" points="520.0,321.0 516.0,321.0" stroke="#090" stroke-width="1" /><polyline fill="none" opacity="100" points="520.0,325.0 516.0,325.0" stroke="#090" stroke-width="1" /><polyline fill="none" opacity="100" points="520.0,329.0 516.0,329.0" stroke="#090" stroke-width="1" /><polyline fill="none" opacity="100" points="520.0,333.0 516.0,333.0" stroke="#090" stroke-width="1" /><polyline fill="none" opacity="100" points="520.0,337.0 516.0,337.0" stroke="#090" stroke-width="1" /><polyline fill="none" opacity="100" points="484.0,234.0 488.0,234.0" stroke="#F00" stroke-width="1" /><polyline fill="none" opacity="100" points="484.0,238.0 488.0,238.0" stroke="#F00" stroke-width="1" /><polyline fill="none" opacity="100" points="484.0,242.0 488.0,242.0" stroke="#F00" stroke-width="1" /><polyline fill="none" opacity="100" points="484.0,246.0 488.0,246.0" stroke="#F00" stroke-width="1" /><polyline fill="none" opacity="100" points="484.0,250.0 488.0,250.0" stroke="#F00" stroke-width="1" /><polyline fill="none" opacity="100" points="484.0,254.0 488.0,254.0" stroke="#F00" stroke-width="1" /><polyline fill="none" opacity="100" points="484.0,258.0 488.0,258.0" stroke="#F00" stroke-width="1" /><polyline fill="none" opacity="100" points="484.0,262.0 488.0,262.0" stroke="#F00" stroke-width="1" /><polyline fill="none" opacity="100" points="103.0,269.0 91.0,269.0" stroke="#F00" stroke-width="1" /><polygon fill="#F00" opacity="100" points="94.4773,268.0683 91.0,269.0 94.4773,269.9317" stroke="#F00" stroke-width="1" /><polyline fill="none" opacity="100" points="414.0,269.0 428.0,269.0" stroke="#F00" stroke-width="1" /><polygon fill="#F00" opacity="100" points="423.9431,270.087 428.0,269.0 423.9431,267.913" stroke="#F00" stroke-width="1" /><polyline fill="none" opacity="100" points="91.0,296.0 103.0,296.0" stroke="#090" stroke-width="1" /><polygon fill="#090" opacity="100" points="99.5227,296.9317 103.0,296.0 99.5227,295.0683" stroke="#090" stroke-width="1" /><polyline fill="none" opacity="100" points="428.0,300.0 414.0,300.0" stroke="#090" stroke-width="1" /><polygon fill="#090" opacity="100" points="418.0569,298.913 414.0,300.0 418.0569,301.087" stroke="#090" stroke-width="1" /><polygon fill="#94949C" opacity="100" points="260.0,277.0 260.0,282.0 262.0,282.0 262.0,277.0" stroke="#94949C" stroke-width="1" /><polygon fill="#94949C" opacity="100" points="556.0,285.0 556.0,280.0 558.0,280.0 558.0,285.0" stroke="#94949C" stroke-width="1" /><polygon fill="#94949C" opacity="100" points="462.0,284.0 462.0,279.0 464.0,279.0 464.0,284.0" stroke="#94949C" stroke-width="1" /><polygon fill="#94949C" opacity="100" points="-49.0,284.0 -49.0,279.0 -51.0,279.0 -51.0,284.0" stroke="#94949C" stroke-width="1" /><polygon fill="#94949C" opacity="100" points="42.0,284.0 42.0,279.0 40.0,279.0 40.0,284.0" stroke="#94949C" stroke-width="1" /><polygon fill="#F00" opacity="100" points="260.0,282.0 260.0,287.0 262.0,287.0 262.0,282.0" stroke="#F00" stroke-width="1" /><polygon fill="#F00" opacity="100" points="556.0,290.0 556.0,285.0 558.0,285.0 558.0,290.0" stroke="#F00" stroke-width="1" /><polygon fill="#F00" opacity="100" points="462.0,289.0 462.0,284.0 464.0,284.0 464.0,289.0" stroke="#F00" stroke-width="1" /><polygon fill="#F00" opacity="100" points="-49.0,289.0 -49.0,284.0 -51.0,284.0 -51.0,289.0" stroke="#F00" stroke-width="1" /><polygon fill="#F00" opacity="100" points="42.0,289.0 42.0,284.0 40.0,284.0 40.0,289.0" stroke="#F00" stroke-width="1" /><polygon fill="none" opacity="100" points="52.0,310.0 52.0,282.0 62.0,282.0 62.0,310.0" stroke="#000" stroke-width="1" /><text fill="#000" font-family="Arial" font-size="10" font-weight="normal" opacity="100" transform="rotate(90.0 63.0,284.0) translate(0 10)" x="63.0" y="284.0">кассы</text><polygon fill="none" opacity="100" points="455.0,310.0 455.0,282.0 445.0,282.0 445.0,310.0" stroke="#000" stroke-width="1" /><text fill="#000" font-family="Arial" font-size="10" font-weight="normal" opacity="100" transform="rotate(90.0 456.0,283.0) translate(0 10)" x="456.0" y="283.0">кассы</text><polygon fill="#FFF" opacity="0.8" points="12.0,223.0 38.0,231.0 54.0,241.0 69.0,261.0 69.0,302.0 55.0,322.0 38.0,334.0 11.0,342.0 -26.0,340.0 -57.0,324.0 -56.0,239.0" stroke="#FFF" stroke-width="1" /><polygon fill="#FFF" opacity="0.8" points="494.0,223.0 468.0,231.0 452.0,241.0 437.0,261.0 437.0,302.0 451.0,322.0 468.0,334.0 495.0,342.0 532.0,340.0 563.0,324.0 562.0,239.0" stroke="#FFF" stroke-width="1" /><polyline fill="none" opacity="1.0" points="-21.0,299.0 -21.0,270.0" stroke="#7F7F7F" stroke-width="1" /><polyline fill="none" opacity="1.0" points="-17.0,299.0 -17.0,270.0" stroke="#7F7F7F" stroke-width="1" /><polyline fill="none" opacity="1.0" points="-13.0,299.0 -13.0,270.0" stroke="#7F7F7F" stroke-width="1" /><polyline fill="none" opacity="1.0" points="-9.0,299.0 -9.0,270.0" stroke="#7F7F7F" stroke-width="1" /><polyline fill="none" opacity="1.0" points="-5.0,299.0 -5.0,270.0" stroke="#7F7F7F" stroke-width="1" /><polyline fill="none" opacity="1.0" points="-1.0,299.0 -1.0,270.0" stroke="#7F7F7F" stroke-width="1" /><polyline fill="none" opacity="1.0" points="3.0,299.0 3.0,270.0" stroke="#7F7F7F" stroke-width="1" /><polyline fill="none" opacity="1.0" points="7.0,299.0 7.0,270.0" stroke="#7F7F7F" stroke-width="1" /><polyline fill="none" opacity="1.0" points="11.0,299.0 11.0,270.0" stroke="#7F7F7F" stroke-width="1" /><polyline fill="none" opacity="1.0" points="15.0,299.0 15.0,270.0" stroke="#7F7F7F" stroke-width="1" /><polyline fill="none" opacity="1.0" points="19.0,299.0 19.0,270.0" stroke="#7F7F7F" stroke-width="1" /><polyline fill="none" opacity="1.0" points="23.0,299.0 23.0,270.0" stroke="#7F7F7F" stroke-width="1" /><polygon fill="#9B5509" opacity="1.0" points="-27.0,302.0 29.0,302.0 29.0,299.0 -27.0,299.0" stroke="#000" stroke-width="1" /><polygon fill="#9B5509" opacity="1.0" points="-27.0,294.0 29.0,294.0 29.0,291.0 -27.0,291.0" stroke="#000" stroke-width="1" /><polygon fill="#9B5509" opacity="1.0" points="-27.0,286.0 29.0,286.0 29.0,283.0 -27.0,283.0" stroke="#000" stroke-width="1" /><polygon fill="#9B5509" opacity="1.0" points="-27.0,278.0 29.0,278.0 29.0,275.0 -27.0,275.0" stroke="#000" stroke-width="1" /><polygon fill="#9B5509" opacity="1.0" points="-27.0,270.0 29.0,270.0 29.0,267.0 -27.0,267.0" stroke="#000" stroke-width="1" /><polyline fill="none" opacity="1.0" points="528.0,299.0 528.0,270.0" stroke="#7F7F7F" stroke-width="1" /><polyline fill="none" opacity="1.0" points="524.0,299.0 524.0,270.0" stroke="#7F7F7F" stroke-width="1" /><polyline fill="none" opacity="1.0" points="520.0,299.0 520.0,270.0" stroke="#7F7F7F" stroke-width="1" /><polyline fill="none" opacity="1.0" points="516.0,299.0 516.0,270.0" stroke="#7F7F7F" stroke-width="1" /><polyline fill="none" opacity="1.0" points="512.0,299.0 512.0,270.0" stroke="#7F7F7F" stroke-width="1" /><polyline fill="none" opacity="1.0" points="508.0,299.0 508.0,270.0" stroke="#7F7F7F" stroke-width="1" /><polyline fill="none" opacity="1.0" points="504.0,299.0 504.0,270.0" stroke="#7F7F7F" stroke-width="1" /><polyline fill="none" opacity="1.0" points="500.0,299.0 500.0,270.0" stroke="#7F7F7F" stroke-width="1" /><polyline fill="none" opacity="1.0" points="496.0,299.0 496.0,270.0" stroke="#7F7F7F" stroke-width="1" /><polyline fill="none" opacity="1.0" points="492.0,299.0 492.0,270.0" stroke="#7F7F7F" stroke-width="1" /><polyline fill="none" opacity="1.0" points="488.0,299.0 488.0,270.0" stroke="#7F7F7F" stroke-width="1" /><polyline fill="none" opacity="1.0" points="484.0,299.0 484.0,270.0" stroke="#7F7F7F" stroke-width="1" /><polygon fill="#9B5509" opacity="1.0" points="534.0,302.0 478.0,302.0 478.0,299.0 534.0,299.0" stroke="#000" stroke-width="1" /><polygon fill="#9B5509" opacity="1.0" points="534.0,294.0 478.0,294.0 478.0,291.0 534.0,291.0" stroke="#000" stroke-width="1" /><polygon fill="#9B5509" opacity="1.0" points="534.0,286.0 478.0,286.0 478.0,283.0 534.0,283.0" stroke="#000" stroke-width="1" /><polygon fill="#9B5509" opacity="1.0" points="534.0,278.0 478.0,278.0 478.0,275.0 534.0,275.0" stroke="#000" stroke-width="1" /><polygon fill="#9B5509" opacity="1.0" points="534.0,270.0 478.0,270.0 478.0,267.0 534.0,267.0" stroke="#000" stroke-width="1" /><polygon fill="#D0EFFF" opacity="1.0" points="-13.0,267.0 1.0,267.0 1.0,252.0 -13.0,252.0" stroke="#000" stroke-width="1" /><text fill="#000" font-family="Arial" font-size="6" font-weight="normal" opacity="1.0" transform="rotate(90.0 -4.0,253.0) translate(0 6)" x="-4.0" y="253.0">лифт</text><polygon fill="#D0EFFF" opacity="1.0" points="520.0,267.0 506.0,267.0 506.0,252.0 520.0,252.0" stroke="#000" stroke-width="1" /><text fill="#000" font-family="Arial" font-size="6" font-weight="normal" opacity="1.0" transform="rotate(90.0 516.0,253.0) translate(0 6)" x="516.0" y="253.0">лифт</text><polyline fill="none" opacity="1.0" points="490.0,267.0 490.0,224.0" stroke="#000" stroke-width="0.5" /><polyline fill="none" opacity="1.0" points="510.0,232.0 510.0,222.0" stroke="#000" stroke-width="0.5" /><polyline fill="none" opacity="1.0" points="512.0,244.0 508.0,244.0" stroke="#000" stroke-width="1" /><polyline fill="none" opacity="1.0" points="512.0,240.0 508.0,240.0" stroke="#000" stroke-width="1" /><polyline fill="none" opacity="1.0" points="512.0,236.0 508.0,236.0" stroke="#000" stroke-width="1" /><polyline fill="none" opacity="1.0" points="512.0,232.0 508.0,232.0" stroke="#000" stroke-width="1" /><polygon fill="#D0D0D0" opacity="1.0" points="503.0,252.0 503.0,249.0 523.0,249.0 523.0,267.0 520.0,267.0 520.0,252.0" stroke="#000" stroke-width="1" /><polyline fill="none" opacity="1.0" points="17.0,267.0 17.0,224.0" stroke="#000" stroke-width="0.5" /><polyline fill="none" opacity="1.0" points="-3.0,232.0 -3.0,222.0" stroke="#000" stroke-width="0.5" /><polyline fill="none" opacity="1.0" points="-5.0,244.0 -1.0,244.0" stroke="#000" stroke-width="1" /><polyline fill="none" opacity="1.0" points="-5.0,240.0 -1.0,240.0" stroke="#000" stroke-width="1" /><polyline fill="none" opacity="1.0" points="-5.0,236.0 -1.0,236.0" stroke="#000" stroke-width="1" /><polyline fill="none" opacity="1.0" points="-5.0,232.0 -1.0,232.0" stroke="#000" stroke-width="1" /><polygon fill="#D0D0D0" opacity="1.0" points="4.0,252.0 4.0,249.0 -16.0,249.0 -16.0,267.0 -13.0,267.0 -13.0,252.0" stroke="#000" stroke-width="1" /><ellipse cx="509.5" cy="283.0" fill="none" opacity="1.0" rx="77.5" ry="61.0" stroke="#000" stroke-width="1" /><polyline fill="none" opacity="1.0" points="585.0,282.0 585.0,282.0" stroke="#FFF" stroke-width="20" /><polyline fill="none" opacity="1.0" points="585.0,272.0 591.0,272.0" stroke="#000" stroke-width="1" /><polyline fill="none" opacity="1.0" points="585.0,292.0 591.0,292.0" stroke="#000" stroke-width="1" /><text fill="#000" font-family="Arial" font-size="6" font-weight="normal" opacity="1.0" transform="rotate(50.0 497.0,303.0) translate(0 6)" x="497.0" y="303.0">3 уровня\n эскалаторов</text><text fill="#000" font-family="Arial" font-size="6" font-weight="normal" opacity="1.0" transform="rotate(50.0 505.0,153.0) translate(0 6)" x="505.0" y="153.0">"Кассы и турникеты на -1 этаже \nметро - на -3 этаже"</text><ellipse cx="-2.5" cy="283.0" fill="none" opacity="1.0" rx="-77.5" ry="61.0" stroke="#000" stroke-width="1" /><polyline fill="none" opacity="1.0" points="-78.0,282.0 -78.0,282.0" stroke="#FFF" stroke-width="20" /><polyline fill="none" opacity="1.0" points="-78.0,272.0 -84.0,272.0" stroke="#000" stroke-width="1" /><polyline fill="none" opacity="1.0" points="-78.0,292.0 -84.0,292.0" stroke="#000" stroke-width="1" /><text fill="#000" font-family="Arial" font-size="6" font-weight="normal" opacity="1.0" transform="rotate(50.0 10.0,303.0) translate(0 6)" x="10.0" y="303.0">3 уровня\n эскалаторов</text><text fill="#000" font-family="Arial" font-size="6" font-weight="normal" opacity="1.0" transform="rotate(50.0 -21.0,356.0) translate(0 6)" x="-21.0" y="356.0">"Кассы и турникеты на -1 этаже \nметро - на -3 этаже"</text><g transform="rotate(50.0,250.0,280.0)"><text fill="#FFD900" font-family="Arial" font-size="25" font-weight="normal" opacity="1.0" x="409.25" y="24.5">1</text><text fill="#FFD900" font-family="Arial" font-size="25" font-weight="normal" opacity="1.0" x="63.25" y="553.5">2</text></g></g></g></svg>