<?xml version="1.0" encoding="utf-8" ?>
<svg baseProfile="tiny" height="1490px" version="1.2" width="976px" xmlns="http://www.w3.org/2000/svg" xmlns:ev="http://www.w3.org/2001/xml-events" xmlns:xlink="http://www.w3.org/1999/xlink"><defs /><g><g transform="rotate(15.0,488.0,745.0)"><polygon fill="#9CA4A4" opacity="100" points="13.0,650.0 -17.0,650.0 -17.0,200.0 13.0,200.0" stroke="#000" stroke-width="1" /><polygon fill="#9CA4A4" opacity="100" points="123.0,650.0 93.0,650.0 93.0,200.0 123.0,200.0" stroke="#000" stroke-width="1" /><text fill="#4C4C4C" font-family="Arial" font-size="20" font-weight="normal" opacity="100" transform="rotate(-90.0 123.0,445.0) translate(0 20)" x="123.0" y="445.0">Менделеевская &gt;&gt;</text><text fill="#4C4C4C" font-family="Arial" font-size="20" font-weight="normal" opacity="100" transform="rotate(-90.0 -38.0,648.0) translate(0 20)" x="-38.0" y="648.0">&lt;&lt; Чеховская</text><text fill="#4C4C4C" font-family="Arial" font-size="25" font-weight="bold" opacity="100" transform="rotate(-90.0 48.0,554.0) translate(0 25)" x="48.0" y="554.0">Цветной бульвар</text><polygon fill="#34349C" opacity="100" points="48.0,433.0 44.0,433.0 44.0,434.0 48.0,434.0" stroke="#34349C" stroke-width="1" /><polygon fill="#F00" opacity="100" points="52.0,433.0 48.0,433.0 48.0,434.0 52.0,434.0" stroke="#F00" stroke-width="1" /><polygon fill="#7CBC54" opacity="100" points="745.0,1051.0 730.0,1076.0 340.0,851.0 355.0,825.0" stroke="#000" stroke-width="1" /><polygon fill="#7CBC54" opacity="100" points="300.0,921.0 285.0,947.0 676.0,1172.0 691.0,1146.0" stroke="#000" stroke-width="1" /><text fill="#5C9F2E" font-family="Arial" font-size="20" font-weight="normal" opacity="100" transform="rotate(30.0 368.0,804.0) translate(0 20)" x="368.0" y="804.0">&lt;&lt; Достоевская</text><text fill="#5C9F2E" font-family="Arial" font-size="20" font-weight="normal" opacity="100" transform="rotate(30.0 495.0,1068.0) translate(0 20)" x="495.0" y="1068.0">Сретенский бульвар &gt;&gt;</text><text fill="#5C9F2E" font-family="Arial" font-size="25" font-weight="bold" opacity="100" transform="rotate(30.0 479.0,966.0) translate(0 25)" x="479.0" y="966.0">Трубная</text><polygon fill="#34349C" opacity="100" points="514.0,987.0 516.0,984.0 517.0,985.0 515.0,988.0" stroke="#34349C" stroke-width="1" /><polygon fill="#F00" opacity="100" points="512.0,990.0 514.0,987.0 515.0,988.0 513.0,991.0" stroke="#F00" stroke-width="1" /><polyline fill="none" opacity="100" points="13.0,650.0 24.0,650.0 24.0,566.0 31.0,566.0 31.0,785.0 96.0,785.0 118.0,798.0 115.0,803.0 177.0,839.0 181.0,832.0" stroke="#000" stroke-width="1" /><polyline fill="none" opacity="100" points="93.0,650.0 79.0,650.0 79.0,566.0 69.0,566.0 69.0,737.0 111.0,737.0 143.0,755.0 146.0,749.0 208.0,785.0 204.0,792.0" stroke="#000" stroke-width="1" /><polyline fill="none" opacity="100" points="288.0,839.0 345.0,872.0 349.0,865.0 336.0,858.0 340.0,851.0" stroke="#000" stroke-width="1" /><polyline fill="none" opacity="100" points="264.0,881.0 322.0,915.0 318.0,922.0 304.0,914.0 300.0,921.0" stroke="#000" stroke-width="1" /><polyline fill="none" opacity="100" points="31.0,666.0 69.0,666.0" stroke="#000" stroke-width="1" /><polyline fill="none" opacity="100" points="31.0,670.0 69.0,670.0" stroke="#000" stroke-width="1" /><polyline fill="none" opacity="100" points="31.0,674.0 69.0,674.0" stroke="#000" stroke-width="1" /><polyline fill="none" opacity="100" points="31.0,678.0 69.0,678.0" stroke="#000" stroke-width="1" /><polyline fill="none" opacity="100" points="31.0,682.0 69.0,682.0" stroke="#000" stroke-width="1" /><polyline fill="none" opacity="100" points="31.0,695.0 69.0,695.0" stroke="#000" stroke-width="1" /><polyline fill="none" opacity="100" points="31.0,699.0 69.0,699.0" stroke="#000" stroke-width="1" /><polyline fill="none" opacity="100" points="31.0,703.0 69.0,703.0" stroke="#000" stroke-width="1" /><polyline fill="none" opacity="100" points="31.0,707.0 69.0,707.0" stroke="#000" stroke-width="1" /><polyline fill="none" opacity="100" points="31.0,711.0 69.0,711.0" stroke="#000" stroke-width="1" /><polygon fill="#D0D0D0" opacity="100" points="83.0,748.0 107.0,748.0 131.0,762.0 128.0,767.0 105.0,754.0 83.0,754.0" stroke="#000" stroke-width="1" /><polygon fill="#D0D0D0" opacity="100" points="83.0,767.0 101.0,767.0 121.0,779.0 118.0,784.0 99.0,773.0 83.0,773.0" stroke="#000" stroke-width="1" /><polyline fill="none" opacity="100" points="257.0,876.0 280.0,836.0" stroke="#7F7F7F" stroke-width="1" /><polyline fill="none" opacity="100" points="253.5492,873.9771 276.5492,833.9771" stroke="#7F7F7F" stroke-width="1" /><polyline fill="none" opacity="100" points="250.0984,871.9542 273.0984,831.9542" stroke="#7F7F7F" stroke-width="1" /><polyline fill="none" opacity="100" points="246.6476,869.9314 269.6476,829.9314" stroke="#7F7F7F" stroke-width="1" /><polyline fill="none" opacity="100" points="243.1968,867.9085 266.1968,827.9085" stroke="#7F7F7F" stroke-width="1" /><polyline fill="none" opacity="100" points="239.746,865.8856 262.746,825.8856" stroke="#7F7F7F" stroke-width="1" /><polyline fill="none" opacity="100" points="236.2952,863.8627 259.2952,823.8627" stroke="#7F7F7F" stroke-width="1" /><polyline fill="none" opacity="100" points="232.8445,861.8399 255.8445,821.8399" stroke="#7F7F7F" stroke-width="1" /><polyline fill="none" opacity="100" points="229.3937,859.817 252.3937,819.817" stroke="#7F7F7F" stroke-width="1" /><polyline fill="none" opacity="100" points="225.9429,857.7941 248.9429,817.7941" stroke="#7F7F7F" stroke-width="1" /><polyline fill="none" opacity="100" points="222.4921,855.7712 245.4921,815.7712" stroke="#7F7F7F" stroke-width="1" /><polyline fill="none" opacity="100" points="219.0413,853.7483 242.0413,813.7483" stroke="#7F7F7F" stroke-width="1" /><polyline fill="none" opacity="100" points="215.5905,851.7255 238.5905,811.7255" stroke="#7F7F7F" stroke-width="1" /><polyline fill="none" opacity="100" points="212.1397,849.7026 235.1397,809.7026" stroke="#7F7F7F" stroke-width="1" /><polyline fill="none" opacity="100" points="208.6889,847.6797 231.6889,807.6797" stroke="#7F7F7F" stroke-width="1" /><polyline fill="none" opacity="100" points="205.2381,845.6568 228.2381,805.6568" stroke="#7F7F7F" stroke-width="1" /><polyline fill="none" opacity="100" points="201.7873,843.634 224.7873,803.634" stroke="#7F7F7F" stroke-width="1" /><polyline fill="none" opacity="100" points="198.3365,841.6111 221.3365,801.6111" stroke="#7F7F7F" stroke-width="1" /><polyline fill="none" opacity="100" points="194.8857,839.5882 217.8857,799.5882" stroke="#7F7F7F" stroke-width="1" /><polyline fill="none" opacity="100" points="191.435,837.5653 214.435,797.5653" stroke="#7F7F7F" stroke-width="1" /><polyline fill="none" opacity="100" points="187.9842,835.5424 210.9842,795.5424" stroke="#7F7F7F" stroke-width="1" /><polyline fill="none" opacity="100" points="184.5334,833.5196 207.5334,793.5196" stroke="#7F7F7F" stroke-width="1" /><polyline fill="none" opacity="100" points="181.0826,831.4967 204.0826,791.4967" stroke="#7F7F7F" stroke-width="1" /><polyline fill="none" opacity="100" points="177.6318,829.4738 200.6318,789.4738" stroke="#7F7F7F" stroke-width="1" /><polyline fill="none" opacity="100" points="174.181,827.4509 197.181,787.4509" stroke="#7F7F7F" stroke-width="1" /><polyline fill="none" opacity="100" points="170.7302,825.4281 193.7302,785.4281" stroke="#7F7F7F" stroke-width="1" /><polygon fill="#9B5509" opacity="100" points="264.0,881.0 165.0,824.0 166.0,822.0 265.0,879.0" stroke="#000" stroke-width="1" /><polygon fill="#9B5509" opacity="100" points="269.0,872.0 170.0,815.0 172.0,812.0 271.0,869.0" stroke="#000" stroke-width="1" /><polygon fill="#9B5509" opacity="100" points="275.0,862.0 176.0,805.0 178.0,802.0 277.0,859.0" stroke="#000" stroke-width="1" /><polygon fill="#9B5509" opacity="100" points="281.0,851.0 182.0,794.0 184.0,791.0 283.0,848.0" stroke="#000" stroke-width="1" /><polygon fill="#9B5509" opacity="100" points="287.0,841.0 188.0,784.0 189.0,782.0 288.0,839.0" stroke="#000" stroke-width="1" /><polygon fill="#34349C" opacity="100" points="164.0,767.0 166.0,764.0 167.0,765.0 165.0,768.0" stroke="#34349C" stroke-width="1" /><polygon fill="#F00" opacity="100" points="162.0,770.0 164.0,767.0 165.0,768.0 163.0,771.0" stroke="#F00" stroke-width="1" /><polygon fill="#FEFBF1" opacity="100" points="273.0,41.0 426.0,0.0 464.0,144.0 311.0,185.0" stroke="#DDD" stroke-width="1" /><polyline fill="none" opacity="100" points="13.0,200.0 24.0,200.0 24.0,335.0 32.0,335.0 32.0,218.0 73.0,218.0 73.0,232.0" stroke="#000" stroke-width="1" /><polyline fill="none" opacity="100" points="73.0,280.0 73.0,335.0 81.0,335.0 81.0,200.0 93.0,200.0" stroke="#000" stroke-width="1" /><polyline fill="none" opacity="100" points="73.0,332.0 32.0,332.0" stroke="#000" stroke-width="1" /><polyline fill="none" opacity="100" points="73.0,328.0 32.0,328.0" stroke="#000" stroke-width="1" /><polyline fill="none" opacity="100" points="73.0,324.0 32.0,324.0" stroke="#000" stroke-width="1" /><polyline fill="none" opacity="100" points="73.0,320.0 32.0,320.0" stroke="#000" stroke-width="1" /><polyline fill="none" opacity="100" points="73.0,316.0 32.0,316.0" stroke="#000" stroke-width="1" /><polyline fill="none" opacity="100" points="32.0,303.0 73.0,303.0" stroke="#000" stroke-width="1" /><polyline fill="none" opacity="100" points="32.0,299.0 73.0,299.0" stroke="#000" stroke-width="1" /><polyline fill="none" opacity="100" points="32.0,295.0 73.0,295.0" stroke="#000" stroke-width="1" /><polyline fill="none" opacity="100" points="32.0,291.0 73.0,291.0" stroke="#000" stroke-width="1" /><polyline fill="none" opacity="100" points="32.0,287.0 73.0,287.0" stroke="#000" stroke-width="1" /><polygon fill="#FFF" opacity="0.8" points="71.0,280.0 71.0,232.0 96.0,232.0 124.0,213.0 124.0,272.0 114.0,280.0" stroke="#FFF" stroke-width="1" /><polyline fill="none" opacity="1.0" points="233.0,193.0 239.0,201.0 208.0,222.0 204.0,217.0 114.0,280.0 73.0,280.0" stroke="#000" stroke-width="1" /><polyline fill="none" opacity="1.0" points="73.0,232.0 96.0,232.0 176.0,176.0 172.0,170.0 202.0,149.0 206.0,155.0" stroke="#000" stroke-width="1" /><polygon fill="#D0D0D0" opacity="1.0" points="108.0,262.0 73.0,262.0 73.0,251.0 104.0,251.0 111.0,246.0 118.0,255.0" stroke="#000" stroke-width="1" /><polygon fill="#D0D0D0" opacity="1.0" points="420.0,98.0 411.0,64.0 441.0,56.0 450.0,90.0" stroke="#000" stroke-width="1" /><polygon fill="#D0D0D0" opacity="1.0" points="436.0,37.0 426.0,0.0 273.0,41.0 288.0,98.0 300.0,89.0 329.0,81.0 322.0,56.0 400.0,35.0 403.0,46.0 410.0,44.0 404.0,22.0 419.0,18.0 425.0,40.0" stroke="#000" stroke-width="1" /><polygon fill="#D0D0D0" opacity="1.0" points="454.0,107.0 464.0,144.0 311.0,185.0 300.0,144.0 325.0,127.0 340.0,123.0 346.0,145.0 423.0,124.0 421.0,116.0 428.0,114.0 432.0,129.0 447.0,125.0 443.0,110.0" stroke="#000" stroke-width="1" /><polyline fill="none" opacity="1.0" points="206.0,159.0 229.0,192.0" stroke="#7F7F7F" stroke-width="1" /><polyline fill="none" opacity="1.0" points="209.2769,156.7062 232.2769,189.7062" stroke="#7F7F7F" stroke-width="1" /><polyline fill="none" opacity="1.0" points="212.5539,154.4123 235.5539,187.4123" stroke="#7F7F7F" stroke-width="1" /><polyline fill="none" opacity="1.0" points="215.8308,152.1185 238.8308,185.1185" stroke="#7F7F7F" stroke-width="1" /><polyline fill="none" opacity="1.0" points="219.1077,149.8246 242.1077,182.8246" stroke="#7F7F7F" stroke-width="1" /><polyline fill="none" opacity="1.0" points="222.3846,147.5308 245.3846,180.5308" stroke="#7F7F7F" stroke-width="1" /><polyline fill="none" opacity="1.0" points="225.6616,145.2369 248.6616,178.2369" stroke="#7F7F7F" stroke-width="1" /><polyline fill="none" opacity="1.0" points="228.9385,142.9431 251.9385,175.9431" stroke="#7F7F7F" stroke-width="1" /><polyline fill="none" opacity="1.0" points="232.2154,140.6492 255.2154,173.6492" stroke="#7F7F7F" stroke-width="1" /><polyline fill="none" opacity="1.0" points="235.4923,138.3554 258.4923,171.3554" stroke="#7F7F7F" stroke-width="1" /><polyline fill="none" opacity="1.0" points="238.7693,136.0615 261.7693,169.0615" stroke="#7F7F7F" stroke-width="1" /><polyline fill="none" opacity="1.0" points="242.0462,133.7677 265.0462,166.7677" stroke="#7F7F7F" stroke-width="1" /><polyline fill="none" opacity="1.0" points="245.3231,131.4738 268.3231,164.4738" stroke="#7F7F7F" stroke-width="1" /><polyline fill="none" opacity="1.0" points="248.6001,129.18 271.6001,162.18" stroke="#7F7F7F" stroke-width="1" /><polyline fill="none" opacity="1.0" points="251.877,126.8861 274.877,159.8861" stroke="#7F7F7F" stroke-width="1" /><polyline fill="none" opacity="1.0" points="255.1539,124.5923 278.1539,157.5923" stroke="#7F7F7F" stroke-width="1" /><polyline fill="none" opacity="1.0" points="258.4308,122.2984 281.4308,155.2984" stroke="#7F7F7F" stroke-width="1" /><polyline fill="none" opacity="1.0" points="261.7078,120.0046 284.7078,153.0046" stroke="#7F7F7F" stroke-width="1" /><polyline fill="none" opacity="1.0" points="264.9847,117.7107 287.9847,150.7107" stroke="#7F7F7F" stroke-width="1" /><polyline fill="none" opacity="1.0" points="268.2616,115.4169 291.2616,148.4169" stroke="#7F7F7F" stroke-width="1" /><polyline fill="none" opacity="1.0" points="271.5386,113.123 294.5386,146.123" stroke="#7F7F7F" stroke-width="1" /><polyline fill="none" opacity="1.0" points="274.8155,110.8292 297.8155,143.8292" stroke="#7F7F7F" stroke-width="1" /><polyline fill="none" opacity="1.0" points="278.0924,108.5353 301.0924,141.5353" stroke="#7F7F7F" stroke-width="1" /><polyline fill="none" opacity="1.0" points="281.3693,106.2415 304.3693,139.2415" stroke="#7F7F7F" stroke-width="1" /><polyline fill="none" opacity="1.0" points="284.6463,103.9476 307.6463,136.9476" stroke="#7F7F7F" stroke-width="1" /><polyline fill="none" opacity="1.0" points="287.9232,101.6538 310.9232,134.6538" stroke="#7F7F7F" stroke-width="1" /><polyline fill="none" opacity="1.0" points="291.2001,99.3599 314.2001,132.3599" stroke="#7F7F7F" stroke-width="1" /><polyline fill="none" opacity="1.0" points="294.477,97.0661 317.477,130.0661" stroke="#7F7F7F" stroke-width="1" /><polygon fill="#9B5509" opacity="1.0" points="198.0,160.0 300.0,89.0 302.0,92.0 200.0,163.0" stroke="#000" stroke-width="1" /><polygon fill="#9B5509" opacity="1.0" points="204.0,169.0 306.0,98.0 308.0,101.0 206.0,172.0" stroke="#000" stroke-width="1" /><polygon fill="#9B5509" opacity="1.0" points="210.0,178.0 312.0,107.0 314.0,110.0 212.0,181.0" stroke="#000" stroke-width="1" /><polygon fill="#9B5509" opacity="1.0" points="216.0,187.0 318.0,116.0 320.0,119.0 218.0,190.0" stroke="#000" stroke-width="1" /><polygon fill="#9B5509" opacity="1.0" points="222.0,196.0 324.0,125.0 326.0,128.0 224.0,199.0" stroke="#000" stroke-width="1" /><polygon fill="#FFF" opacity="1.0" points="367.0,44.0 365.0,37.0 395.0,29.0 397.0,36.0" stroke="#000" stroke-width="1" /><text fill="#FFF" font-family="Arial" font-size="10" font-weight="normal" opacity="1.0" transform="rotate(-15.0 367.0,34.0) translate(0 10)" x="367.0" y="34.0">кассы</text><polyline fill="none" opacity="1.0" points="326.0,55.0 337.0,60.0" stroke="#000" stroke-width="0.5" /><polygon fill="none" opacity="1.0" points="374.0,77.0 368.0,79.0 370.0,85.0 376.0,83.0" stroke="#000" stroke-width="1" /><polyline fill="none" opacity="1.0" points="385.0,130.0 386.0,134.0" stroke="#000" stroke-width="0.5" /><polyline fill="none" opacity="1.0" points="338.0,58.0 336.0,62.0" stroke="#090" stroke-width="1" /><polyline fill="none" opacity="1.0" points="341.5545,59.8346 339.5545,63.8346" stroke="#090" stroke-width="1" /><polyline fill="none" opacity="1.0" points="345.109,61.6691 343.109,65.6691" stroke="#090" stroke-width="1" /><polyline fill="none" opacity="1.0" points="348.6634,63.5037 346.6634,67.5037" stroke="#090" stroke-width="1" /><polyline fill="none" opacity="1.0" points="352.2179,65.3383 350.2179,69.3383" stroke="#090" stroke-width="1" /><polyline fill="none" opacity="1.0" points="355.7724,67.1729 353.7724,71.1729" stroke="#090" stroke-width="1" /><polyline fill="none" opacity="1.0" points="359.3269,69.0074 357.3269,73.0074" stroke="#090" stroke-width="1" /><polyline fill="none" opacity="1.0" points="362.8814,70.842 360.8814,74.842" stroke="#090" stroke-width="1" /><polyline fill="none" opacity="1.0" points="366.4359,72.6766 364.4359,76.6766" stroke="#090" stroke-width="1" /><polyline fill="none" opacity="1.0" points="376.0,87.0 372.0,88.0" stroke="#F00" stroke-width="1" /><polyline fill="none" opacity="1.0" points="376.9913,90.8752 372.9913,91.8752" stroke="#F00" stroke-width="1" /><polyline fill="none" opacity="1.0" points="377.9827,94.7504 373.9827,95.7504" stroke="#F00" stroke-width="1" /><polyline fill="none" opacity="1.0" points="378.974,98.6256 374.974,99.6256" stroke="#F00" stroke-width="1" /><polyline fill="none" opacity="1.0" points="379.9653,102.5008 375.9653,103.5008" stroke="#F00" stroke-width="1" /><polyline fill="none" opacity="1.0" points="380.9567,106.3761 376.9567,107.3761" stroke="#F00" stroke-width="1" /><polyline fill="none" opacity="1.0" points="381.948,110.2513 377.948,111.2513" stroke="#F00" stroke-width="1" /><polyline fill="none" opacity="1.0" points="382.9393,114.1265 378.9393,115.1265" stroke="#F00" stroke-width="1" /><polyline fill="none" opacity="1.0" points="383.9307,118.0017 379.9307,119.0017" stroke="#F00" stroke-width="1" /><polyline fill="none" opacity="1.0" points="384.922,121.8769 380.922,122.8769" stroke="#F00" stroke-width="1" /><polyline fill="none" opacity="1.0" points="385.9133,125.7521 381.9133,126.7521" stroke="#F00" stroke-width="1" /><polyline fill="none" opacity="1.0" points="386.9047,129.6273 382.9047,130.6273" stroke="#F00" stroke-width="1" /><polygon fill="#34349C" opacity="1.0" points="332.0,67.0 336.0,66.0 336.0,67.0 332.0,68.0" stroke="#34349C" stroke-width="1" /><polygon fill="#F00" opacity="1.0" points="328.0,68.0 332.0,67.0 332.0,68.0 328.0,69.0" stroke="#F00" stroke-width="1" /><polyline fill="none" opacity="1.0" points="730.0,1076.0 726.0,1083.0 702.0,1069.0 698.0,1076.0 702.0,1079.0" stroke="#000" stroke-width="1" /><polyline fill="none" opacity="1.0" points="691.0,1146.0 695.0,1139.0 670.0,1125.0 674.0,1118.0 678.0,1120.0" stroke="#000" stroke-width="1" /><polyline fill="none" opacity="1.0" points="905.0,1197.0 908.0,1192.0 933.0,1206.0 945.0,1185.0 1030.0,1234.0 1046.0,1206.0 1030.0,1197.0 1016.0,1179.0 1004.0,1134.0 974.0,1142.0" stroke="#000" stroke-width="1" /><polyline fill="none" opacity="1.0" points="881.0,1238.0 877.0,1245.0 903.0,1261.0 890.0,1284.0 1014.0,1355.0" stroke="#000" stroke-width="1" /><polyline fill="none" opacity="1.0" points="1014.0,1355.0 1017.8281,1356.6328 1021.5625,1357.9062 1025.2021,1358.8181 1028.75,1359.375 1032.2119,1359.5901 1035.5781,1359.4414 1038.8457,1358.9224 1042.0,1358.0 1045.0137,1356.6128 1047.9219,1354.8398 1050.7507,1352.7292 1053.5,1350.3125 1056.1653,1347.6438 1058.7852,1344.7031 1061.3755,1341.4941 1064.0,1338.0 1066.769,1334.1699 1069.5586,1330.1094 1072.2922,1325.8965 1074.9375,1321.5625 1077.4363,1317.1426 1079.7891,1312.7031 1081.9854,1308.2871 1084.0,1304.0 1085.8115,1300.002 1087.3984,1296.1719 1088.7366,1292.446 1089.8125,1288.8125 1090.6208,1285.2278 1091.1133,1281.7227 1091.2603,1278.313 1091.0,1275.0 1090.2358,1271.7925 1089.043,1268.6836 1087.4617,1265.6697 1085.5,1262.75 1083.1848,1259.9221 1080.5,1257.1875 1077.4375,1254.5469 1074.0,1252.0" stroke="#000" stroke-width="1" /><polyline fill="none" opacity="1.0" points="1074.0,1252.0 1102.0,1204.0 1045.0,1171.0 1040.0,1165.0 1030.0,1127.0 1060.0,1119.0" stroke="#000" stroke-width="1" /><polyline fill="none" opacity="1.0" points="1053.0,1097.0 968.0,1120.0" stroke="#000" stroke-width="1" /><polygon fill="#D0D0D0" opacity="1.0" points="1013.0,1255.0 990.0,1241.0 962.0,1288.0 985.0,1302.0" stroke="#000" stroke-width="1" /><polyline fill="none" opacity="1.0" points="961.0,1325.0 977.0,1297.0" stroke="#000" stroke-width="1" /><polyline fill="none" opacity="1.0" points="964.5777,1326.7889 980.5777,1298.7889" stroke="#000" stroke-width="1" /><polyline fill="none" opacity="1.0" points="968.1554,1328.5777 984.1554,1300.5777" stroke="#000" stroke-width="1" /><polyline fill="none" opacity="1.0" points="1018.0,1227.0 1005.0,1249.0" stroke="#000" stroke-width="1" /><polyline fill="none" opacity="1.0" points="1021.392,1229.12 1008.392,1251.12" stroke="#000" stroke-width="1" /><polyline fill="none" opacity="1.0" points="1024.784,1231.24 1011.784,1253.24" stroke="#000" stroke-width="1" /><polyline fill="none" opacity="1.0" points="1045.0,1171.0 1030.0,1197.0" stroke="#000" stroke-width="1" /><polyline fill="none" opacity="1.0" points="1048.473,1172.9846 1033.473,1198.9846" stroke="#000" stroke-width="1" /><polyline fill="none" opacity="1.0" points="1051.9459,1174.9691 1036.9459,1200.9691" stroke="#000" stroke-width="1" /><polyline fill="none" opacity="1.0" points="1055.4189,1176.9537 1040.4189,1202.9537" stroke="#000" stroke-width="1" /><polyline fill="none" opacity="1.0" points="1058.8919,1178.9382 1043.8919,1204.9382" stroke="#000" stroke-width="1" /><polyline fill="none" opacity="1.0" points="1034.0,1142.0 1008.0,1149.0" stroke="#000" stroke-width="1" /><polyline fill="none" opacity="1.0" points="1032.9475,1138.1409 1006.9475,1145.1409" stroke="#000" stroke-width="1" /><polyline fill="none" opacity="1.0" points="1031.8951,1134.2819 1005.8951,1141.2819" stroke="#000" stroke-width="1" /><polyline fill="none" opacity="1.0" points="1033.0,1126.0 1027.0,1104.0" stroke="#000" stroke-width="1" /><polyline fill="none" opacity="1.0" points="1036.872,1124.9962 1030.872,1102.9962" stroke="#000" stroke-width="1" /><polyline fill="none" opacity="1.0" points="1040.744,1123.9923 1034.744,1101.9923" stroke="#000" stroke-width="1" /><polyline fill="none" opacity="1.0" points="1044.616,1122.9885 1038.616,1100.9885" stroke="#000" stroke-width="1" /><polyline fill="none" opacity="1.0" points="1048.488,1121.9846 1042.488,1099.9846" stroke="#000" stroke-width="1" /><polyline fill="none" opacity="1.0" points="1052.3599,1120.9808 1046.3599,1098.9808" stroke="#000" stroke-width="1" /><polyline fill="none" opacity="1.0" points="1056.2319,1119.9769 1050.2319,1097.9769" stroke="#000" stroke-width="1" /><polyline fill="none" opacity="1.0" points="1000.0,1135.0 994.0,1113.0" stroke="#000" stroke-width="1" /><polyline fill="none" opacity="1.0" points="996.1375,1136.0399 990.1375,1114.0399" stroke="#000" stroke-width="1" /><polyline fill="none" opacity="1.0" points="992.2751,1137.0798 986.2751,1115.0798" stroke="#000" stroke-width="1" /><polyline fill="none" opacity="1.0" points="988.4126,1138.1197 982.4126,1116.1197" stroke="#000" stroke-width="1" /><polyline fill="none" opacity="1.0" points="984.5501,1139.1596 978.5501,1117.1596" stroke="#000" stroke-width="1" /><polyline fill="none" opacity="1.0" points="980.6877,1140.1995 974.6877,1118.1995" stroke="#000" stroke-width="1" /><polyline fill="none" opacity="1.0" points="976.8252,1141.2394 970.8252,1119.2394" stroke="#000" stroke-width="1" /><polyline fill="none" opacity="1.0" points="882.0,1236.0 904.0,1198.0" stroke="#7F7F7F" stroke-width="1" /><polyline fill="none" opacity="1.0" points="878.5474,1233.9802 900.5474,1195.9802" stroke="#7F7F7F" stroke-width="1" /><polyline fill="none" opacity="1.0" points="875.0948,1231.9604 897.0948,1193.9604" stroke="#7F7F7F" stroke-width="1" /><polyline fill="none" opacity="1.0" points="871.6422,1229.9407 893.6422,1191.9407" stroke="#7F7F7F" stroke-width="1" /><polyline fill="none" opacity="1.0" points="868.1896,1227.9209 890.1896,1189.9209" stroke="#7F7F7F" stroke-width="1" /><polyline fill="none" opacity="1.0" points="864.737,1225.9011 886.737,1187.9011" stroke="#7F7F7F" stroke-width="1" /><polyline fill="none" opacity="1.0" points="861.2843,1223.8813 883.2843,1185.8813" stroke="#7F7F7F" stroke-width="1" /><polyline fill="none" opacity="1.0" points="857.8317,1221.8616 879.8317,1183.8616" stroke="#7F7F7F" stroke-width="1" /><polyline fill="none" opacity="1.0" points="854.3791,1219.8418 876.3791,1181.8418" stroke="#7F7F7F" stroke-width="1" /><polyline fill="none" opacity="1.0" points="850.9265,1217.822 872.9265,1179.822" stroke="#7F7F7F" stroke-width="1" /><polyline fill="none" opacity="1.0" points="847.4739,1215.8022 869.4739,1177.8022" stroke="#7F7F7F" stroke-width="1" /><polyline fill="none" opacity="1.0" points="844.0213,1213.7825 866.0213,1175.7825" stroke="#7F7F7F" stroke-width="1" /><polyline fill="none" opacity="1.0" points="840.5687,1211.7627 862.5687,1173.7627" stroke="#7F7F7F" stroke-width="1" /><polyline fill="none" opacity="1.0" points="837.1161,1209.7429 859.1161,1171.7429" stroke="#7F7F7F" stroke-width="1" /><polyline fill="none" opacity="1.0" points="833.6635,1207.7231 855.6635,1169.7231" stroke="#7F7F7F" stroke-width="1" /><polyline fill="none" opacity="1.0" points="830.2109,1205.7034 852.2109,1167.7034" stroke="#7F7F7F" stroke-width="1" /><polyline fill="none" opacity="1.0" points="826.7583,1203.6836 848.7583,1165.6836" stroke="#7F7F7F" stroke-width="1" /><polyline fill="none" opacity="1.0" points="823.3057,1201.6638 845.3057,1163.6638" stroke="#7F7F7F" stroke-width="1" /><polyline fill="none" opacity="1.0" points="819.853,1199.644 841.853,1161.644" stroke="#7F7F7F" stroke-width="1" /><polyline fill="none" opacity="1.0" points="816.4004,1197.6243 838.4004,1159.6243" stroke="#7F7F7F" stroke-width="1" /><polyline fill="none" opacity="1.0" points="812.9478,1195.6045 834.9478,1157.6045" stroke="#7F7F7F" stroke-width="1" /><polyline fill="none" opacity="1.0" points="809.4952,1193.5847 831.4952,1155.5847" stroke="#7F7F7F" stroke-width="1" /><polyline fill="none" opacity="1.0" points="806.0426,1191.5649 828.0426,1153.5649" stroke="#7F7F7F" stroke-width="1" /><polyline fill="none" opacity="1.0" points="802.59,1189.5452 824.59,1151.5452" stroke="#7F7F7F" stroke-width="1" /><polyline fill="none" opacity="1.0" points="799.1374,1187.5254 821.1374,1149.5254" stroke="#7F7F7F" stroke-width="1" /><polyline fill="none" opacity="1.0" points="795.6848,1185.5056 817.6848,1147.5056" stroke="#7F7F7F" stroke-width="1" /><polyline fill="none" opacity="1.0" points="792.2322,1183.4858 814.2322,1145.4858" stroke="#7F7F7F" stroke-width="1" /><polyline fill="none" opacity="1.0" points="788.7796,1181.466 810.7796,1143.466" stroke="#7F7F7F" stroke-width="1" /><polyline fill="none" opacity="1.0" points="785.327,1179.4463 807.327,1141.4463" stroke="#7F7F7F" stroke-width="1" /><polyline fill="none" opacity="1.0" points="781.8744,1177.4265 803.8744,1139.4265" stroke="#7F7F7F" stroke-width="1" /><polyline fill="none" opacity="1.0" points="778.4217,1175.4067 800.4217,1137.4067" stroke="#7F7F7F" stroke-width="1" /><polyline fill="none" opacity="1.0" points="774.9691,1173.3869 796.9691,1135.3869" stroke="#7F7F7F" stroke-width="1" /><polyline fill="none" opacity="1.0" points="771.5165,1171.3672 793.5165,1133.3672" stroke="#7F7F7F" stroke-width="1" /><polyline fill="none" opacity="1.0" points="768.0639,1169.3474 790.0639,1131.3474" stroke="#7F7F7F" stroke-width="1" /><polyline fill="none" opacity="1.0" points="764.6113,1167.3276 786.6113,1129.3276" stroke="#7F7F7F" stroke-width="1" /><polyline fill="none" opacity="1.0" points="761.1587,1165.3078 783.1587,1127.3078" stroke="#7F7F7F" stroke-width="1" /><polyline fill="none" opacity="1.0" points="757.7061,1163.2881 779.7061,1125.2881" stroke="#7F7F7F" stroke-width="1" /><polyline fill="none" opacity="1.0" points="754.2535,1161.2683 776.2535,1123.2683" stroke="#7F7F7F" stroke-width="1" /><polyline fill="none" opacity="1.0" points="750.8009,1159.2485 772.8009,1121.2485" stroke="#7F7F7F" stroke-width="1" /><polyline fill="none" opacity="1.0" points="747.3483,1157.2287 769.3483,1119.2287" stroke="#7F7F7F" stroke-width="1" /><polyline fill="none" opacity="1.0" points="743.8957,1155.209 765.8957,1117.209" stroke="#7F7F7F" stroke-width="1" /><polyline fill="none" opacity="1.0" points="740.4431,1153.1892 762.4431,1115.1892" stroke="#7F7F7F" stroke-width="1" /><polyline fill="none" opacity="1.0" points="736.9904,1151.1694 758.9904,1113.1694" stroke="#7F7F7F" stroke-width="1" /><polyline fill="none" opacity="1.0" points="733.5378,1149.1496 755.5378,1111.1496" stroke="#7F7F7F" stroke-width="1" /><polyline fill="none" opacity="1.0" points="730.0852,1147.1299 752.0852,1109.1299" stroke="#7F7F7F" stroke-width="1" /><polyline fill="none" opacity="1.0" points="726.6326,1145.1101 748.6326,1107.1101" stroke="#7F7F7F" stroke-width="1" /><polyline fill="none" opacity="1.0" points="723.18,1143.0903 745.18,1105.0903" stroke="#7F7F7F" stroke-width="1" /><polyline fill="none" opacity="1.0" points="719.7274,1141.0705 741.7274,1103.0705" stroke="#7F7F7F" stroke-width="1" /><polyline fill="none" opacity="1.0" points="716.2748,1139.0508 738.2748,1101.0508" stroke="#7F7F7F" stroke-width="1" /><polyline fill="none" opacity="1.0" points="712.8222,1137.031 734.8222,1099.031" stroke="#7F7F7F" stroke-width="1" /><polyline fill="none" opacity="1.0" points="709.3696,1135.0112 731.3696,1097.0112" stroke="#7F7F7F" stroke-width="1" /><polyline fill="none" opacity="1.0" points="705.917,1132.9914 727.917,1094.9914" stroke="#7F7F7F" stroke-width="1" /><polyline fill="none" opacity="1.0" points="702.4644,1130.9717 724.4644,1092.9717" stroke="#7F7F7F" stroke-width="1" /><polyline fill="none" opacity="1.0" points="699.0118,1128.9519 721.0118,1090.9519" stroke="#7F7F7F" stroke-width="1" /><polyline fill="none" opacity="1.0" points="695.5591,1126.9321 717.5591,1088.9321" stroke="#7F7F7F" stroke-width="1" /><polyline fill="none" opacity="1.0" points="692.1065,1124.9123 714.1065,1086.9123" stroke="#7F7F7F" stroke-width="1" /><polyline fill="none" opacity="1.0" points="688.6539,1122.8925 710.6539,1084.8925" stroke="#7F7F7F" stroke-width="1" /><polyline fill="none" opacity="1.0" points="685.2013,1120.8728 707.2013,1082.8728" stroke="#7F7F7F" stroke-width="1" /><polygon fill="#9B5509" opacity="1.0" points="886.0,1240.0 678.0,1120.0 679.0,1118.0 887.0,1238.0" stroke="#000" stroke-width="1" /><polygon fill="#9B5509" opacity="1.0" points="891.0,1231.0 683.0,1111.0 685.0,1108.0 893.0,1228.0" stroke="#000" stroke-width="1" /><polygon fill="#9B5509" opacity="1.0" points="897.0,1221.0 689.0,1101.0 691.0,1098.0 899.0,1218.0" stroke="#000" stroke-width="1" /><polygon fill="#9B5509" opacity="1.0" points="903.0,1211.0 695.0,1091.0 697.0,1088.0 905.0,1208.0" stroke="#000" stroke-width="1" /><polygon fill="#9B5509" opacity="1.0" points="909.0,1201.0 701.0,1081.0 702.0,1079.0 910.0,1199.0" stroke="#000" stroke-width="1" /><polyline fill="none" opacity="1.0" points="985.0,1302.0 986.9141,1302.7969 988.7812,1303.4375 990.6011,1303.9216 992.375,1304.25 994.106,1304.4241 995.7891,1304.4414 997.4229,1304.3013 999.0,1304.0 1000.5068,1303.5308 1001.9609,1302.9023 1003.3757,1302.1177 1004.75,1301.1875 1006.0793,1300.1323 1007.3867,1298.9258 1008.6812,1297.561 1010.0,1296.0 1011.4087,1294.1694 1012.832,1292.168 1014.2224,1290.062 1015.5625,1287.875 1016.8225,1285.6411 1017.9922,1283.3945 1019.0615,1281.1587 1020.0,1279.0 1020.7666,1277.0171 1021.3828,1275.1367 1021.8567,1273.3208 1022.1875,1271.5625 1022.3835,1269.8354 1022.4258,1268.1602 1022.3032,1266.5474 1022.0,1265.0 1021.4897,1263.5269 1020.793,1262.1211 1019.9207,1260.7791 1018.875,1259.5 1017.6633,1258.2815 1016.2812,1257.125 1014.7266,1256.0312 1013.0,1255.0" stroke="#000" stroke-width="1" /><text fill="#FFF" font-family="Arial" font-size="12" font-weight="normal" opacity="1.0" transform="rotate(-60.0 992.0,1290.0) translate(0 12)" x="992.0" y="1290.0">кассы</text><polyline fill="none" opacity="1.0" points="981.0,1256.0 963.0,1246.0" stroke="#000" stroke-width="1" /><polyline fill="none" opacity="1.0" points="903.0,1261.0 915.0,1258.0" stroke="#000" stroke-width="1" /><polygon fill="none" opacity="1.0" points="956.0,1247.0 960.0,1249.0 963.0,1245.0 958.0,1242.0" stroke="#000" stroke-width="1" /><polyline fill="none" opacity="1.0" points="978.0,1211.0 981.0,1206.0" stroke="#000" stroke-width="1" /><polyline fill="none" opacity="1.0" points="916.0,1259.0 915.0,1256.0" stroke="#090" stroke-width="1" /><polyline fill="none" opacity="1.0" points="919.8568,1257.9394 918.8568,1254.9394" stroke="#090" stroke-width="1" /><polyline fill="none" opacity="1.0" points="923.7136,1256.8787 922.7136,1253.8787" stroke="#090" stroke-width="1" /><polyline fill="none" opacity="1.0" points="927.5705,1255.8181 926.5705,1252.8181" stroke="#090" stroke-width="1" /><polyline fill="none" opacity="1.0" points="931.4273,1254.7575 930.4273,1251.7575" stroke="#090" stroke-width="1" /><polyline fill="none" opacity="1.0" points="935.2841,1253.6969 934.2841,1250.6969" stroke="#090" stroke-width="1" /><polyline fill="none" opacity="1.0" points="939.1409,1252.6362 938.1409,1249.6362" stroke="#090" stroke-width="1" /><polyline fill="none" opacity="1.0" points="942.9978,1251.5756 941.9978,1248.5756" stroke="#090" stroke-width="1" /><polyline fill="none" opacity="1.0" points="946.8546,1250.515 945.8546,1247.515" stroke="#090" stroke-width="1" /><polyline fill="none" opacity="1.0" points="950.7114,1249.4544 949.7114,1246.4544" stroke="#090" stroke-width="1" /><polyline fill="none" opacity="1.0" points="954.5682,1248.3937 953.5682,1245.3937" stroke="#090" stroke-width="1" /><polyline fill="none" opacity="1.0" points="964.0,1240.0 961.0,1238.0" stroke="#F00" stroke-width="1" /><polyline fill="none" opacity="1.0" points="965.9323,1236.4977 962.9323,1234.4977" stroke="#F00" stroke-width="1" /><polyline fill="none" opacity="1.0" points="967.8646,1232.9954 964.8646,1230.9954" stroke="#F00" stroke-width="1" /><polyline fill="none" opacity="1.0" points="969.7969,1229.4931 966.7969,1227.4931" stroke="#F00" stroke-width="1" /><polyline fill="none" opacity="1.0" points="971.7292,1225.9908 968.7292,1223.9908" stroke="#F00" stroke-width="1" /><polyline fill="none" opacity="1.0" points="973.6615,1222.4884 970.6615,1220.4884" stroke="#F00" stroke-width="1" /><polyline fill="none" opacity="1.0" points="975.5939,1218.9861 972.5939,1216.9861" stroke="#F00" stroke-width="1" /><polyline fill="none" opacity="1.0" points="977.5262,1215.4838 974.5262,1213.4838" stroke="#F00" stroke-width="1" /><polyline fill="none" opacity="1.0" points="979.4585,1211.9815 976.4585,1209.9815" stroke="#F00" stroke-width="1" /><polygon fill="#34349C" opacity="1.0" points="959.0,1196.0 962.0,1198.0 961.0,1199.0 958.0,1197.0" stroke="#34349C" stroke-width="1" /><polygon fill="#F00" opacity="1.0" points="956.0,1194.0 959.0,1196.0 958.0,1197.0 955.0,1195.0" stroke="#F00" stroke-width="1" /><text fill="#00AFAF" font-family="Arial" font-size="15" font-weight="normal" opacity="1.0" transform="rotate(-105.0 661.0,459.0) translate(0 15)" x="661.0" y="459.0">Цветной бульвар</text><text fill="#00AFAF" font-family="Arial" font-size="15" font-weight="normal" opacity="1.0" transform="rotate(-105.0 490.0,239.0) translate(0 15)" x="490.0" y="239.0">&lt;&lt; Цирк</text><polyline fill="none" opacity="1.0" points="107.0,784.0 126.0,795.0" stroke="#000" stroke-width="1" /><polygon fill="#000" opacity="1.0" points="119.6401,793.2877 126.0,795.0 121.3483,790.3372" stroke="#000" stroke-width="1" /><polyline fill="none" opacity="1.0" points="97.0,743.0 79.0,743.0" stroke="#000" stroke-width="1" /><polygon fill="#000" opacity="1.0" points="84.216,741.6024 79.0,743.0 84.216,744.3976" stroke="#000" stroke-width="1" /><polyline fill="none" opacity="1.0" points="157.0,234.0 180.0,218.0" stroke="#F00" stroke-width="1" /><polygon fill="#F00" opacity="1.0" points="174.5774,224.4223 180.0,218.0 172.0928,220.8506" stroke="#F00" stroke-width="1" /><polyline fill="none" opacity="1.0" points="352.0,113.0 367.0,109.0" stroke="#F00" stroke-width="1" /><polygon fill="#F00" opacity="1.0" points="362.9639,111.3238 367.0,109.0 362.3428,108.9944" stroke="#F00" stroke-width="1" /><polyline fill="none" opacity="1.0" points="947.0,1213.0 960.0,1221.0" stroke="#F00" stroke-width="1" /><polygon fill="#F00" opacity="1.0" points="955.6117,1219.6912 960.0,1221.0 956.8541,1217.6724" stroke="#F00" stroke-width="1" /><polyline fill="none" opacity="1.0" points="165.0,198.0 142.0,214.0" stroke="#090" stroke-width="1" /><polygon fill="#090" opacity="1.0" points="147.4226,207.5777 142.0,214.0 149.9072,211.1494" stroke="#090" stroke-width="1" /><polyline fill="none" opacity="1.0" points="369.0,53.0 362.0,68.0" stroke="#090" stroke-width="1" /><polygon fill="#090" opacity="1.0" points="362.8638,63.1098 362.0,68.0 365.1931,64.1969" stroke="#090" stroke-width="1" /><polyline fill="none" opacity="1.0" points="945.0,1280.0 940.0,1263.0" stroke="#090" stroke-width="1" /><polygon fill="#090" opacity="1.0" points="942.7689,1267.538 940.0,1263.0 940.1289,1268.3145" stroke="#090" stroke-width="1" /><g transform="rotate(-15.0,488.0,745.0)"><text fill="#FFD900" font-family="Arial" font-size="25" font-weight="normal" opacity="1.0" x="651.25" y="93.5">1</text><text fill="#FFD900" font-family="Arial" font-size="25" font-weight="normal" opacity="1.0" x="886.25" y="1213.5">2</text></g></g></g></svg>