<?xml version="1.0" encoding="utf-8" ?>
<svg baseProfile="tiny" height="1220px" version="1.2" width="1710px" xmlns="http://www.w3.org/2000/svg" xmlns:ev="http://www.w3.org/2001/xml-events" xmlns:xlink="http://www.w3.org/1999/xlink"><defs /><g><g transform="rotate(-30.0,855.0,610.0)"><polygon fill="#2C7CAC" opacity="100" points="909.0,265.0 909.0,295.0 1359.0,295.0 1359.0,265.0" stroke="#000" stroke-width="1" /><polygon fill="#2C7CAC" opacity="100" points="909.0,375.0 909.0,405.0 1359.0,405.0 1359.0,375.0" stroke="#000" stroke-width="1" /><polygon fill="#34349C" opacity="100" points="1131.0,344.0 1131.0,340.0 1130.0,340.0 1130.0,344.0" stroke="#34349C" stroke-width="1" /><polygon fill="#F00" opacity="100" points="1131.0,348.0 1131.0,344.0 1130.0,344.0 1130.0,348.0" stroke="#F00" stroke-width="1" /><polyline fill="none" opacity="100" points="1359.0,375.0 1359.0,364.0 1347.0,364.0 1347.0,361.0 1385.0,361.0" stroke="#000" stroke-width="1" /><polyline fill="none" opacity="100" points="1359.0,295.0 1359.0,306.0 1347.0,306.0 1347.0,309.0" stroke="#000" stroke-width="1" /><polyline fill="none" opacity="100" points="1351.0,329.0 1351.0,361.0" stroke="#000" stroke-width="1" /><polyline fill="none" opacity="100" points="1355.0,329.0 1355.0,361.0" stroke="#000" stroke-width="1" /><polyline fill="none" opacity="100" points="1359.0,329.0 1359.0,361.0" stroke="#000" stroke-width="1" /><polyline fill="none" opacity="100" points="1363.0,329.0 1363.0,361.0" stroke="#000" stroke-width="1" /><polyline fill="none" opacity="100" points="1367.0,329.0 1367.0,361.0" stroke="#000" stroke-width="1" /><polyline fill="none" opacity="100" points="1371.0,329.0 1371.0,361.0" stroke="#000" stroke-width="1" /><polyline fill="none" opacity="100" points="1375.0,329.0 1375.0,361.0" stroke="#000" stroke-width="1" /><polyline fill="none" opacity="100" points="1379.0,329.0 1379.0,361.0" stroke="#000" stroke-width="1" /><polyline fill="none" opacity="100" points="1383.0,329.0 1383.0,361.0" stroke="#000" stroke-width="1" /><polyline fill="none" opacity="100" points="1378.0,327.0 1378.0,311.0" stroke="#7F7F7F" stroke-width="1" /><polyline fill="none" opacity="100" points="1374.0,327.0 1374.0,311.0" stroke="#7F7F7F" stroke-width="1" /><polyline fill="none" opacity="100" points="1370.0,327.0 1370.0,311.0" stroke="#7F7F7F" stroke-width="1" /><polyline fill="none" opacity="100" points="1366.0,327.0 1366.0,311.0" stroke="#7F7F7F" stroke-width="1" /><polyline fill="none" opacity="100" points="1362.0,327.0 1362.0,311.0" stroke="#7F7F7F" stroke-width="1" /><polyline fill="none" opacity="100" points="1358.0,327.0 1358.0,311.0" stroke="#7F7F7F" stroke-width="1" /><polyline fill="none" opacity="100" points="1354.0,327.0 1354.0,311.0" stroke="#7F7F7F" stroke-width="1" /><polygon fill="#9B5509" opacity="100" points="1385.0,311.0 1347.0,311.0 1347.0,309.0 1385.0,309.0" stroke="#000" stroke-width="1" /><polygon fill="#9B5509" opacity="100" points="1385.0,317.0 1385.0,321.0 1347.0,321.0 1347.0,317.0" stroke="#000" stroke-width="1" /><polygon fill="#9B5509" opacity="100" points="1385.0,327.0 1347.0,327.0 1347.0,329.0 1385.0,329.0" stroke="#000" stroke-width="1" /><polyline fill="none" opacity="100" points="1359.0,265.0 1432.0,265.0 1432.0,399.0 1411.0,420.0 1367.0,420.0 1367.0,777.0" stroke="#000" stroke-width="1" /><polyline fill="none" opacity="100" points="1367.0,826.0 1367.0,835.0" stroke="#000" stroke-width="1" /><polyline fill="none" opacity="100" points="1367.0,884.0 1367.0,894.0" stroke="#000" stroke-width="1" /><polyline fill="none" opacity="100" points="1367.0,943.0 1367.0,1013.0" stroke="#000" stroke-width="1" /><polyline fill="none" opacity="100" points="1388.0,1024.0 1396.0,1017.0" stroke="#000" stroke-width="1" /><polyline fill="none" opacity="100" points="1423.0,1049.0 1416.0,1055.0" stroke="#000" stroke-width="1" /><polyline fill="none" opacity="100" points="1350.0,1166.0 1346.0,1181.0" stroke="#000" stroke-width="1" /><polyline fill="none" opacity="100" points="1304.0,1170.0 1308.0,1155.0" stroke="#000" stroke-width="1" /><polyline fill="none" opacity="100" points="1329.0,1014.0 1329.0,944.0" stroke="#000" stroke-width="1" /><polyline fill="none" opacity="100" points="1329.0,893.0 1329.0,885.0" stroke="#000" stroke-width="1" /><polyline fill="none" opacity="100" points="1329.0,834.0 1329.0,827.0" stroke="#000" stroke-width="1" /><polyline fill="none" opacity="100" points="1329.0,776.0 1327.3672,777.3906 1325.8438,778.8125 1324.4299,780.2661 1323.125,781.75 1321.9275,783.2612 1320.8398,784.8047 1319.8628,786.3818 1319.0,788.0 1318.2583,789.6729 1317.6289,791.3828 1317.1057,793.1189 1316.6875,794.875 1316.3728,796.6409 1316.1562,798.418 1316.0352,800.2046 1316.0,802.0 1316.0352,803.8071 1316.1562,805.6133 1316.3728,807.4082 1316.6875,809.1875 1317.1057,810.9473 1317.6289,812.6758 1318.2583,814.3657 1319.0,816.0 1319.8628,817.5522 1320.8398,819.043 1321.9275,820.4832 1323.125,821.875 1324.4299,823.2258 1325.8438,824.5312 1327.3672,825.7891 1329.0,827.0" stroke="#000" stroke-width="1" /><polyline fill="none" opacity="100" points="1329.0,834.0 1327.6016,835.1562 1326.2812,836.375 1325.0383,837.6575 1323.875,839.0 1322.7957,840.3953 1321.793,841.8555 1320.8647,843.3843 1320.0,845.0 1319.1782,846.7368 1318.4258,848.5508 1317.761,850.4131 1317.1875,852.3125 1316.7097,854.2314 1316.3438,856.1602 1316.0977,858.0903 1316.0,860.0 1316.0977,861.8589 1316.3438,863.6836 1316.7097,865.4807 1317.1875,867.25 1317.761,868.9978 1318.4258,870.7109 1319.1782,872.3818 1320.0,874.0 1320.8647,875.5479 1321.793,877.0391 1322.7957,878.481 1323.875,879.875 1325.0383,881.2261 1326.2812,882.5312 1327.6016,883.7891 1329.0,885.0" stroke="#000" stroke-width="1" /><polyline fill="none" opacity="100" points="1329.0,893.0 1327.6016,894.1562 1326.2812,895.375 1325.0383,896.6572 1323.875,898.0 1322.7957,899.3975 1321.793,900.8594 1320.8647,902.3887 1320.0,904.0 1319.1782,905.7207 1318.4258,907.5156 1317.761,909.3625 1317.1875,911.25 1316.7097,913.1589 1316.3438,915.0898 1316.0977,917.0386 1316.0,919.0 1316.0977,920.9731 1316.3438,922.9414 1316.7097,924.8901 1317.1875,926.8125 1317.761,928.7036 1318.4258,930.543 1319.1782,932.3179 1320.0,934.0 1320.8647,935.5454 1321.793,936.9883 1322.7957,938.3469 1323.875,939.625 1325.0383,940.8347 1326.2812,941.9688 1327.6016,943.0234 1329.0,944.0" stroke="#000" stroke-width="1" /><polyline fill="none" opacity="100" points="1367.0,943.0 1368.2188,941.9688 1369.375,940.875 1370.4697,939.718 1371.5,938.5 1372.46,937.2253 1373.3594,935.8867 1374.2012,934.4819 1375.0,933.0 1375.7832,931.4204 1376.5156,929.7695 1377.1729,928.0635 1377.75,926.3125 1378.2412,924.5342 1378.625,922.7227 1378.8906,920.8794 1379.0,919.0 1378.8906,917.0698 1378.625,915.1211 1378.2412,913.178 1377.75,911.25 1377.1729,909.3474 1376.5156,907.4922 1375.7832,905.6982 1375.0,904.0 1374.2012,902.4502 1373.3594,901.0078 1372.46,899.6509 1371.5,898.375 1370.4697,897.1655 1369.375,896.0312 1368.2188,894.9766 1367.0,894.0" stroke="#000" stroke-width="1" /><polyline fill="none" opacity="100" points="1367.0,884.0 1368.2188,882.9688 1369.375,881.875 1370.4695,880.7178 1371.5,879.5 1372.4622,878.2275 1373.3633,876.8906 1374.2056,875.4863 1375.0,874.0 1375.7671,872.4043 1376.4805,870.7344 1377.1223,869.0129 1377.6875,867.25 1378.1687,865.4617 1378.5547,863.6523 1378.8389,861.8276 1379.0,860.0 1379.0049,858.1841 1378.8828,856.3789 1378.6506,854.5874 1378.3125,852.8125 1377.8787,851.0532 1377.3477,849.3242 1376.7192,847.6343 1376.0,846.0 1375.1987,844.4478 1374.3086,842.957 1373.3259,841.5168 1372.25,840.125 1371.0784,838.7742 1369.8125,837.4688 1368.4531,836.2109 1367.0,835.0" stroke="#000" stroke-width="1" /><polyline fill="none" opacity="100" points="1367.0,826.0 1368.2188,824.9688 1369.375,823.875 1370.4695,822.7178 1371.5,821.5 1372.4622,820.2275 1373.3633,818.8906 1374.2056,817.4863 1375.0,816.0 1375.7671,814.4043 1376.4805,812.7344 1377.1223,811.0129 1377.6875,809.25 1378.1687,807.4617 1378.5547,805.6523 1378.8389,803.8276 1379.0,802.0 1379.0049,800.1841 1378.8828,798.3789 1378.6506,796.5874 1378.3125,794.8125 1377.8787,793.0532 1377.3477,791.3242 1376.7192,789.6343 1376.0,788.0 1375.1987,786.4478 1374.3086,784.957 1373.3259,783.5168 1372.25,782.125 1371.0784,780.7742 1369.8125,779.4688 1368.4531,778.2109 1367.0,777.0" stroke="#000" stroke-width="1" /><polyline fill="none" opacity="100" points="1329.0,1014.0 1325.2422,1015.1875 1321.5938,1016.5 1318.0542,1017.9375 1314.625,1019.5 1311.3091,1021.1875 1308.1016,1023.0 1305.001,1024.9375 1302.0,1027.0 1299.085,1029.1875 1296.2734,1031.5 1293.5762,1033.9385 1291.0,1036.5 1288.5566,1039.1787 1286.2422,1041.9844 1284.0576,1044.9199 1282.0,1048.0 1280.0596,1051.252 1278.2578,1054.6406 1276.6111,1058.145 1275.125,1061.75 1273.8049,1065.4292 1272.668,1069.1953 1271.7241,1073.0479 1271.0,1077.0 1270.5376,1081.085 1270.3008,1085.2422 1270.2703,1089.4285 1270.4375,1093.625 1270.7825,1097.8079 1271.3203,1101.9492 1272.0557,1106.0288 1273.0,1110.0 1274.1787,1113.7954 1275.5547,1117.457 1277.1023,1121.0039 1278.8125,1124.4375 1280.6731,1127.7734 1282.668,1130.9883 1284.7866,1134.0688 1287.0,1137.0 1289.2642,1139.7554 1291.6133,1142.3555 1294.0657,1144.8113 1296.625,1147.125 1299.3035,1149.304 1302.0938,1151.3438 1304.9922,1153.2422 1308.0,1155.0" stroke="#000" stroke-width="1" /><polyline fill="none" opacity="100" points="1350.0,1166.0 1353.2344,1165.8672 1356.4375,1165.5938 1359.6106,1165.179 1362.75,1164.625 1365.8484,1163.9363 1368.918,1163.1055 1371.9624,1162.1304 1375.0,1161.0 1378.0649,1159.6938 1381.1133,1158.2383 1384.116,1156.6501 1387.0625,1154.9375 1389.9368,1153.1135 1392.7266,1151.1797 1395.4229,1149.1396 1398.0,1147.0 1400.4209,1144.7666 1402.7109,1142.4453 1404.8823,1140.0422 1406.9375,1137.5625 1408.8872,1135.0105 1410.7188,1132.3945 1412.4258,1129.7212 1414.0,1127.0 1415.4258,1124.2437 1416.7188,1121.4492 1417.8887,1118.6174 1418.9375,1115.75 1419.8691,1112.8455 1420.6875,1109.9141 1421.3945,1106.9619 1422.0,1104.0 1422.5195,1101.0459 1422.9375,1098.0859 1423.2444,1095.1128 1423.4375,1092.125 1423.5115,1089.1177 1423.4648,1086.0938 1423.2964,1083.0547 1423.0,1080.0 1422.5669,1076.9297 1422.0039,1073.8438 1421.3147,1070.7422 1420.5,1067.625 1419.5623,1064.4922 1418.5,1061.3438 1417.3125,1058.1797 1416.0,1055.0" stroke="#000" stroke-width="1" /><polyline fill="none" opacity="100" points="1388.0,1024.0 1387.0938,1023.375 1386.125,1022.75 1385.0938,1022.125 1384.0,1021.5 1382.8438,1020.875 1381.625,1020.25 1380.3438,1019.625 1379.0,1019.0 1377.5938,1018.375 1376.125,1017.75 1374.5938,1017.125 1373.0,1016.5 1371.3438,1015.875 1369.625,1015.25 1367.8438,1014.625 1366.0,1014.0" stroke="#000" stroke-width="1" /><polyline fill="none" opacity="100" points="1329.0,964.0 1342.0,964.0" stroke="#000" stroke-width="1" /><polyline fill="none" opacity="100" points="1329.0,968.0 1342.0,968.0" stroke="#000" stroke-width="1" /><polyline fill="none" opacity="100" points="1329.0,972.0 1342.0,972.0" stroke="#000" stroke-width="1" /><polyline fill="none" opacity="100" points="1329.0,976.0 1342.0,976.0" stroke="#000" stroke-width="1" /><polyline fill="none" opacity="100" points="1329.0,980.0 1342.0,980.0" stroke="#000" stroke-width="1" /><polyline fill="none" opacity="100" points="1329.0,984.0 1342.0,984.0" stroke="#000" stroke-width="1" /><polyline fill="none" opacity="100" points="1329.0,988.0 1342.0,988.0" stroke="#000" stroke-width="1" /><polyline fill="none" opacity="100" points="1329.0,992.0 1342.0,992.0" stroke="#000" stroke-width="1" /><polyline fill="none" opacity="100" points="1329.0,996.0 1342.0,996.0" stroke="#000" stroke-width="1" /><polyline fill="none" opacity="100" points="1329.0,1000.0 1342.0,1000.0" stroke="#000" stroke-width="1" /><polyline fill="none" opacity="100" points="1329.0,1004.0 1342.0,1004.0" stroke="#000" stroke-width="1" /><polyline fill="none" opacity="100" points="1329.0,1008.0 1342.0,1008.0" stroke="#000" stroke-width="1" /><polyline fill="none" opacity="100" points="1329.0,1012.0 1342.0,1012.0" stroke="#000" stroke-width="1" /><polyline fill="none" opacity="100" points="1364.0,724.0 1332.0,724.0" stroke="#7F7F7F" stroke-width="1" /><polyline fill="none" opacity="100" points="1364.0,728.0 1332.0,728.0" stroke="#7F7F7F" stroke-width="1" /><polyline fill="none" opacity="100" points="1364.0,732.0 1332.0,732.0" stroke="#7F7F7F" stroke-width="1" /><polyline fill="none" opacity="100" points="1364.0,736.0 1332.0,736.0" stroke="#7F7F7F" stroke-width="1" /><polyline fill="none" opacity="100" points="1364.0,740.0 1332.0,740.0" stroke="#7F7F7F" stroke-width="1" /><polyline fill="none" opacity="100" points="1364.0,744.0 1332.0,744.0" stroke="#7F7F7F" stroke-width="1" /><polyline fill="none" opacity="100" points="1364.0,748.0 1332.0,748.0" stroke="#7F7F7F" stroke-width="1" /><polygon fill="#9B5509" opacity="100" points="1332.0,718.0 1332.0,754.0 1329.0,754.0 1329.0,718.0" stroke="#000" stroke-width="1" /><polygon fill="#9B5509" opacity="100" points="1340.0,718.0 1344.0,718.0 1344.0,754.0 1340.0,754.0" stroke="#000" stroke-width="1" /><polygon fill="#9B5509" opacity="100" points="1352.0,718.0 1356.0,718.0 1356.0,754.0 1352.0,754.0" stroke="#000" stroke-width="1" /><polygon fill="#9B5509" opacity="100" points="1364.0,718.0 1364.0,754.0 1367.0,754.0 1367.0,718.0" stroke="#000" stroke-width="1" /><polyline fill="none" opacity="100" points="1365.0,971.0 1344.0,971.0" stroke="#7F7F7F" stroke-width="1" /><polyline fill="none" opacity="100" points="1365.0,975.0 1344.0,975.0" stroke="#7F7F7F" stroke-width="1" /><polyline fill="none" opacity="100" points="1365.0,979.0 1344.0,979.0" stroke="#7F7F7F" stroke-width="1" /><polyline fill="none" opacity="100" points="1365.0,983.0 1344.0,983.0" stroke="#7F7F7F" stroke-width="1" /><polyline fill="none" opacity="100" points="1365.0,987.0 1344.0,987.0" stroke="#7F7F7F" stroke-width="1" /><polyline fill="none" opacity="100" points="1365.0,991.0 1344.0,991.0" stroke="#7F7F7F" stroke-width="1" /><polyline fill="none" opacity="100" points="1365.0,995.0 1344.0,995.0" stroke="#7F7F7F" stroke-width="1" /><polyline fill="none" opacity="100" points="1365.0,999.0 1344.0,999.0" stroke="#7F7F7F" stroke-width="1" /><polyline fill="none" opacity="100" points="1365.0,1003.0 1344.0,1003.0" stroke="#7F7F7F" stroke-width="1" /><polyline fill="none" opacity="100" points="1365.0,1007.0 1344.0,1007.0" stroke="#7F7F7F" stroke-width="1" /><polygon fill="#9B5509" opacity="100" points="1344.0,964.0 1344.0,1013.0 1342.0,1013.0 1342.0,964.0" stroke="#000" stroke-width="1" /><polygon fill="#9B5509" opacity="100" points="1349.0,964.0 1352.0,964.0 1352.0,1013.0 1349.0,1013.0" stroke="#000" stroke-width="1" /><polygon fill="#9B5509" opacity="100" points="1357.0,964.0 1360.0,964.0 1360.0,1013.0 1357.0,1013.0" stroke="#000" stroke-width="1" /><polygon fill="#9B5509" opacity="100" points="1365.0,964.0 1365.0,1013.0 1367.0,1013.0 1367.0,964.0" stroke="#000" stroke-width="1" /><polyline fill="none" opacity="100" points="1432.0,370.0 1440.0,370.0 1440.0,396.0 1432.0,396.0" stroke="#000" stroke-width="1" /><text fill="#000" font-family="Arial" font-size="10" font-weight="normal" opacity="100" transform="rotate(90.0 1443.0,371.0) translate(0 10)" x="1443.0" y="371.0">кассы</text><polyline fill="none" opacity="100" points="1407.0,420.0 1407.0,429.0 1370.0,429.0 1370.0,420.0" stroke="#000" stroke-width="1" /><text fill="#000" font-family="Arial" font-size="10" font-weight="normal" opacity="100" transform="rotate(-0.0 1371.0,417.0) translate(0 10)" x="1371.0" y="417.0">полиция</text><polygon fill="none" opacity="100" points="1423.0,362.0 1423.0,368.0 1429.0,368.0 1429.0,362.0" stroke="#000" stroke-width="1" /><polyline fill="none" opacity="100" points="1387.0,365.0 1383.0,365.0 1383.0,361.0" stroke="#000" stroke-width="0.5" /><polyline fill="none" opacity="100" points="1432.0,305.0 1426.0,305.0" stroke="#000" stroke-width="0.5" /><polyline fill="none" opacity="100" points="1390.0,305.0 1383.0,305.0 1383.0,309.0" stroke="#000" stroke-width="0.5" /><polyline fill="none" opacity="100" points="1426.0,307.0 1426.0,303.0" stroke="#F00" stroke-width="1" /><polyline fill="none" opacity="100" points="1422.0,307.0 1422.0,303.0" stroke="#F00" stroke-width="1" /><polyline fill="none" opacity="100" points="1418.0,307.0 1418.0,303.0" stroke="#F00" stroke-width="1" /><polyline fill="none" opacity="100" points="1414.0,307.0 1414.0,303.0" stroke="#F00" stroke-width="1" /><polyline fill="none" opacity="100" points="1410.0,307.0 1410.0,303.0" stroke="#F00" stroke-width="1" /><polyline fill="none" opacity="100" points="1406.0,307.0 1406.0,303.0" stroke="#F00" stroke-width="1" /><polyline fill="none" opacity="100" points="1402.0,307.0 1402.0,303.0" stroke="#F00" stroke-width="1" /><polyline fill="none" opacity="100" points="1398.0,307.0 1398.0,303.0" stroke="#F00" stroke-width="1" /><polyline fill="none" opacity="100" points="1394.0,307.0 1394.0,303.0" stroke="#F00" stroke-width="1" /><polyline fill="none" opacity="100" points="1390.0,307.0 1390.0,303.0" stroke="#F00" stroke-width="1" /><polyline fill="none" opacity="100" points="1419.0,367.0 1419.0,363.0" stroke="#090" stroke-width="1" /><polyline fill="none" opacity="100" points="1415.0,367.0 1415.0,363.0" stroke="#090" stroke-width="1" /><polyline fill="none" opacity="100" points="1411.0,367.0 1411.0,363.0" stroke="#090" stroke-width="1" /><polyline fill="none" opacity="100" points="1407.0,367.0 1407.0,363.0" stroke="#090" stroke-width="1" /><polyline fill="none" opacity="100" points="1403.0,367.0 1403.0,363.0" stroke="#090" stroke-width="1" /><polyline fill="none" opacity="100" points="1399.0,367.0 1399.0,363.0" stroke="#090" stroke-width="1" /><polyline fill="none" opacity="100" points="1395.0,367.0 1395.0,363.0" stroke="#090" stroke-width="1" /><polyline fill="none" opacity="100" points="1391.0,367.0 1391.0,363.0" stroke="#090" stroke-width="1" /><polyline fill="none" opacity="100" points="1387.0,367.0 1387.0,363.0" stroke="#090" stroke-width="1" /><polyline fill="none" opacity="100" points="1389.0,324.0 1400.0,324.0 1400.0,286.0 1339.0,286.0 1339.0,307.0" stroke="#F00" stroke-width="1" /><polygon fill="#F00" opacity="100" points="1337.3694,300.9147 1339.0,307.0 1340.6306,300.9147" stroke="#F00" stroke-width="1" /><polyline fill="none" opacity="100" points="1342.0,941.0 1342.0,957.0" stroke="#F00" stroke-width="1" /><polygon fill="#F00" opacity="100" points="1340.7577,952.3636 1342.0,957.0 1343.2423,952.3636" stroke="#F00" stroke-width="1" /><polyline fill="none" opacity="100" points="1404.0,1048.0 1424.0,1031.0" stroke="#F00" stroke-width="1" /><polygon fill="#F00" opacity="100" points="1419.5244,1037.4791 1424.0,1031.0 1416.8845,1034.3733" stroke="#F00" stroke-width="1" /><polyline fill="none" opacity="100" points="1339.0,1162.0 1334.0,1180.0" stroke="#F00" stroke-width="1" /><polygon fill="#F00" opacity="100" points="1334.0513,1174.3958 1334.0,1180.0 1336.8465,1175.1722" stroke="#F00" stroke-width="1" /><polyline fill="none" opacity="100" points="1355.0,957.0 1355.0,941.0" stroke="#090" stroke-width="1" /><polygon fill="#090" opacity="100" points="1356.2423,945.6364 1355.0,941.0 1353.7577,945.6364" stroke="#090" stroke-width="1" /><polyline fill="none" opacity="100" points="1413.0,1019.0 1394.0,1035.0" stroke="#090" stroke-width="1" /><polygon fill="#090" opacity="100" points="1398.2634,1028.8883 1394.0,1035.0 1400.7481,1031.8388" stroke="#090" stroke-width="1" /><polyline fill="none" opacity="100" points="1318.0,1176.0 1323.0,1157.0" stroke="#090" stroke-width="1" /><polygon fill="#090" opacity="100" points="1323.0264,1162.894 1323.0,1157.0 1320.0758,1162.1175" stroke="#090" stroke-width="1" /><polyline fill="none" opacity="100" points="1356.0,409.0 1356.0,389.0 1379.0,389.0" stroke="#090" stroke-width="1" /><polygon fill="#090" opacity="100" points="1372.3351,390.7859 1379.0,389.0 1372.3351,387.2141" stroke="#090" stroke-width="1" /><polyline fill="none" opacity="100" points="1390.0,344.0 1367.0,344.0" stroke="#090" stroke-width="1" /><polygon fill="#090" opacity="100" points="1373.6649,342.2141 1367.0,344.0 1373.6649,345.7859" stroke="#090" stroke-width="1" /><polyline fill="none" opacity="100" points="1413.0,371.0 1413.0,355.0" stroke="#090" stroke-width="1" /><polygon fill="#090" opacity="100" points="1414.2423,359.6364 1413.0,355.0 1411.7577,359.6364" stroke="#090" stroke-width="1" /><polyline fill="none" opacity="100" points="909.0,375.0 909.0,365.0 952.0,365.0 952.0,362.0 914.0,362.0" stroke="#000" stroke-width="1" /><polyline fill="none" opacity="100" points="950.0,330.0 950.0,362.0" stroke="#000" stroke-width="1" /><polyline fill="none" opacity="100" points="946.0,330.0 946.0,362.0" stroke="#000" stroke-width="1" /><polyline fill="none" opacity="100" points="942.0,330.0 942.0,362.0" stroke="#000" stroke-width="1" /><polyline fill="none" opacity="100" points="938.0,330.0 938.0,362.0" stroke="#000" stroke-width="1" /><polyline fill="none" opacity="100" points="934.0,330.0 934.0,362.0" stroke="#000" stroke-width="1" /><polyline fill="none" opacity="100" points="930.0,330.0 930.0,362.0" stroke="#000" stroke-width="1" /><polyline fill="none" opacity="100" points="926.0,330.0 926.0,362.0" stroke="#000" stroke-width="1" /><polyline fill="none" opacity="100" points="922.0,330.0 922.0,362.0" stroke="#000" stroke-width="1" /><polyline fill="none" opacity="100" points="918.0,330.0 918.0,362.0" stroke="#000" stroke-width="1" /><polyline fill="none" opacity="100" points="909.0,295.0 909.0,306.0 952.0,306.0 952.0,310.0" stroke="#000" stroke-width="1" /><polyline fill="none" opacity="100" points="945.0,328.0 945.0,312.0" stroke="#7F7F7F" stroke-width="1" /><polyline fill="none" opacity="100" points="941.0,328.0 941.0,312.0" stroke="#7F7F7F" stroke-width="1" /><polyline fill="none" opacity="100" points="937.0,328.0 937.0,312.0" stroke="#7F7F7F" stroke-width="1" /><polyline fill="none" opacity="100" points="933.0,328.0 933.0,312.0" stroke="#7F7F7F" stroke-width="1" /><polyline fill="none" opacity="100" points="929.0,328.0 929.0,312.0" stroke="#7F7F7F" stroke-width="1" /><polyline fill="none" opacity="100" points="925.0,328.0 925.0,312.0" stroke="#7F7F7F" stroke-width="1" /><polyline fill="none" opacity="100" points="921.0,328.0 921.0,312.0" stroke="#7F7F7F" stroke-width="1" /><polygon fill="#9B5509" opacity="100" points="952.0,312.0 914.0,312.0 914.0,310.0 952.0,310.0" stroke="#000" stroke-width="1" /><polygon fill="#9B5509" opacity="100" points="952.0,318.0 952.0,322.0 914.0,322.0 914.0,318.0" stroke="#000" stroke-width="1" /><polygon fill="#9B5509" opacity="100" points="952.0,328.0 914.0,328.0 914.0,330.0 952.0,330.0" stroke="#000" stroke-width="1" /><polygon fill="#FFF" opacity="0.75" points="908.0,265.0 1360.0,265.0 1360.0,296.0 1227.0,296.0 1206.0,288.0 1181.0,281.0 1156.0,277.0 1132.0,276.0 1108.0,277.0 1083.0,281.0 1058.0,288.0 1037.0,296.0 908.0,296.0" stroke="#FFF" stroke-width="1" /><polygon fill="#FFF" opacity="0.75" points="1346.0,296.0 1360.0,296.0 1360.0,374.0 1346.0,374.0" stroke="#FFF" stroke-width="1" /><polygon fill="#FFF" opacity="0.75" points="936.0,307.0 936.0,364.0 908.0,364.0 908.0,374.0 936.0,374.0 936.0,366.0 953.0,366.0 953.0,296.0 908.0,296.0 908.0,307.0" stroke="#FFF" stroke-width="1" /><polygon fill="#FFF" opacity="0.75" points="1329.0,374.0 1360.0,374.0 1360.0,406.0 908.0,406.0 908.0,374.0 936.0,374.0 936.0,385.0 1329.0,385.0" stroke="#FFF" stroke-width="1" /><polyline fill="none" opacity="1.0" points="1360.0,309.0 1360.0,361.0" stroke="#000" stroke-width="1" /><polyline fill="none" opacity="1.0" points="936.0,265.0 1359.0,265.0" stroke="#000" stroke-width="1" /><polyline fill="none" opacity="1.0" points="936.0,265.0 936.0,362.0" stroke="#000" stroke-width="1" /><text fill="#2C7CAC" font-family="Arial" font-size="20" font-weight="normal" opacity="1.0" transform="rotate(-0.0 909.0,241.0) translate(0 20)" x="909.0" y="241.0">&lt;&lt; Москва-Сити</text><text fill="#2C7CAC" font-family="Arial" font-size="20" font-weight="normal" opacity="1.0" transform="rotate(-0.0 1215.0,405.0) translate(0 20)" x="1215.0" y="405.0">Киевская &gt;&gt;</text><text fill="#2C7CAC" font-family="Arial" font-size="25" font-weight="bold" opacity="1.0" transform="rotate(-0.0 1055.0,313.0) translate(0 25)" x="1055.0" y="313.0">Деловой центр</text><polyline fill="none" opacity="1.0" points="1329.0,776.0 1329.0,405.0 936.0,405.0 936.0,587.0" stroke="#000" stroke-width="1" /><polygon fill="#FFF" opacity="0.75" points="1327.0,557.0 1369.0,557.0 1369.0,650.0 1327.0,650.0" stroke="#FFF" stroke-width="1" /><polyline fill="none" opacity="1.0" points="936.0,361.0 936.0,385.0 1329.0,385.0 1329.0,361.0" stroke="#000" stroke-width="1" /><polyline fill="none" opacity="1.0" points="936.0,361.0 960.4453,341.0781 984.9062,323.8125 1009.3828,309.2031 1033.875,297.25 1058.3828,287.9531 1082.9062,281.3125 1107.4453,277.3281 1132.0,276.0 1156.5703,277.3281 1181.1562,281.3125 1205.7578,287.9531 1230.375,297.25 1255.0078,309.2031 1279.6562,323.8125 1304.3203,341.0781 1329.0,361.0" stroke="#000" stroke-width="1" /><polyline fill="none" opacity="1.0" points="1329.0,405.0 1329.0,265.0" stroke="#000" stroke-width="0.5" /><polyline fill="none" opacity="1.0" points="851.0,552.0 851.0,650.0" stroke="#000" stroke-width="1" /><polyline fill="none" opacity="1.0" points="936.0,617.0 936.0,800.0 662.0,800.0 662.0,803.0" stroke="#000" stroke-width="1" /><polyline fill="none" opacity="1.0" points="663.0,401.0 663.0,403.0 852.0,402.0 852.0,308.0 936.0,308.0" stroke="#000" stroke-width="1" /><polyline fill="none" opacity="1.0" points="1448.0,557.0 1121.0,557.0 1121.0,573.0 1064.0,573.0 1064.0,587.0" stroke="#000" stroke-width="1" /><polyline fill="none" opacity="1.0" points="1064.0,617.0 1064.0,634.0 1121.0,634.0 1121.0,650.0 1448.0,650.0" stroke="#000" stroke-width="1" /><polyline fill="none" opacity="1.0" points="1438.0,650.0 1438.0,611.0" stroke="#000" stroke-width="1" /><polyline fill="none" opacity="1.0" points="1442.0,650.0 1442.0,611.0" stroke="#000" stroke-width="1" /><polyline fill="none" opacity="1.0" points="1446.0,650.0 1446.0,611.0" stroke="#000" stroke-width="1" /><polyline fill="none" opacity="1.0" points="1438.0,600.0 1438.0,557.0" stroke="#000" stroke-width="1" /><polyline fill="none" opacity="1.0" points="1442.0,600.0 1442.0,557.0" stroke="#000" stroke-width="1" /><polyline fill="none" opacity="1.0" points="1446.0,600.0 1446.0,557.0" stroke="#000" stroke-width="1" /><polyline fill="none" opacity="1.0" points="1384.0,585.0 1384.0,557.0" stroke="#000" stroke-width="1" /><polyline fill="none" opacity="1.0" points="1388.0,585.0 1388.0,557.0" stroke="#000" stroke-width="1" /><polyline fill="none" opacity="1.0" points="1392.0,585.0 1392.0,557.0" stroke="#000" stroke-width="1" /><polyline fill="none" opacity="1.0" points="1396.0,585.0 1396.0,557.0" stroke="#000" stroke-width="1" /><polyline fill="none" opacity="1.0" points="1400.0,585.0 1400.0,557.0" stroke="#000" stroke-width="1" /><polyline fill="none" opacity="1.0" points="1404.0,585.0 1404.0,557.0" stroke="#000" stroke-width="1" /><polyline fill="none" opacity="1.0" points="1408.0,585.0 1408.0,557.0" stroke="#000" stroke-width="1" /><polyline fill="none" opacity="1.0" points="1412.0,585.0 1412.0,557.0" stroke="#000" stroke-width="1" /><polyline fill="none" opacity="1.0" points="1416.0,585.0 1416.0,557.0" stroke="#000" stroke-width="1" /><polyline fill="none" opacity="1.0" points="1384.0,624.0 1384.0,650.0" stroke="#000" stroke-width="1" /><polyline fill="none" opacity="1.0" points="1388.0,624.0 1388.0,650.0" stroke="#000" stroke-width="1" /><polyline fill="none" opacity="1.0" points="1392.0,624.0 1392.0,650.0" stroke="#000" stroke-width="1" /><polyline fill="none" opacity="1.0" points="1396.0,624.0 1396.0,650.0" stroke="#000" stroke-width="1" /><polyline fill="none" opacity="1.0" points="1400.0,624.0 1400.0,650.0" stroke="#000" stroke-width="1" /><polyline fill="none" opacity="1.0" points="1404.0,624.0 1404.0,650.0" stroke="#000" stroke-width="1" /><polyline fill="none" opacity="1.0" points="1408.0,624.0 1408.0,650.0" stroke="#000" stroke-width="1" /><polyline fill="none" opacity="1.0" points="1412.0,624.0 1412.0,650.0" stroke="#000" stroke-width="1" /><polyline fill="none" opacity="1.0" points="1416.0,624.0 1416.0,650.0" stroke="#000" stroke-width="1" /><polygon fill="#D0D0D0" opacity="1.0" points="1154.0,585.0 1277.0,585.0 1277.0,624.0 1154.0,624.0" stroke="#000" stroke-width="1" /><polygon fill="#D0D0D0" opacity="1.0" points="1309.0,585.0 1422.0,585.0 1422.0,624.0 1309.0,624.0" stroke="#000" stroke-width="1" /><polygon fill="#D0D0D0" opacity="1.0" points="1436.0,600.0 1448.0,600.0 1448.0,611.0 1436.0,611.0" stroke="#000" stroke-width="1" /><polyline fill="none" opacity="1.0" points="1074.0,615.0 1074.0,589.0" stroke="#7F7F7F" stroke-width="1" /><polyline fill="none" opacity="1.0" points="1070.0,615.0 1070.0,589.0" stroke="#7F7F7F" stroke-width="1" /><polyline fill="none" opacity="1.0" points="1066.0,615.0 1066.0,589.0" stroke="#7F7F7F" stroke-width="1" /><polyline fill="none" opacity="1.0" points="1062.0,615.0 1062.0,589.0" stroke="#7F7F7F" stroke-width="1" /><polyline fill="none" opacity="1.0" points="1058.0,615.0 1058.0,589.0" stroke="#7F7F7F" stroke-width="1" /><polyline fill="none" opacity="1.0" points="1054.0,615.0 1054.0,589.0" stroke="#7F7F7F" stroke-width="1" /><polyline fill="none" opacity="1.0" points="1050.0,615.0 1050.0,589.0" stroke="#7F7F7F" stroke-width="1" /><polyline fill="none" opacity="1.0" points="1046.0,615.0 1046.0,589.0" stroke="#7F7F7F" stroke-width="1" /><polyline fill="none" opacity="1.0" points="1042.0,615.0 1042.0,589.0" stroke="#7F7F7F" stroke-width="1" /><polyline fill="none" opacity="1.0" points="1038.0,615.0 1038.0,589.0" stroke="#7F7F7F" stroke-width="1" /><polyline fill="none" opacity="1.0" points="1034.0,615.0 1034.0,589.0" stroke="#7F7F7F" stroke-width="1" /><polyline fill="none" opacity="1.0" points="1030.0,615.0 1030.0,589.0" stroke="#7F7F7F" stroke-width="1" /><polyline fill="none" opacity="1.0" points="1026.0,615.0 1026.0,589.0" stroke="#7F7F7F" stroke-width="1" /><polyline fill="none" opacity="1.0" points="1022.0,615.0 1022.0,589.0" stroke="#7F7F7F" stroke-width="1" /><polyline fill="none" opacity="1.0" points="1018.0,615.0 1018.0,589.0" stroke="#7F7F7F" stroke-width="1" /><polyline fill="none" opacity="1.0" points="1014.0,615.0 1014.0,589.0" stroke="#7F7F7F" stroke-width="1" /><polyline fill="none" opacity="1.0" points="1010.0,615.0 1010.0,589.0" stroke="#7F7F7F" stroke-width="1" /><polyline fill="none" opacity="1.0" points="1006.0,615.0 1006.0,589.0" stroke="#7F7F7F" stroke-width="1" /><polyline fill="none" opacity="1.0" points="1002.0,615.0 1002.0,589.0" stroke="#7F7F7F" stroke-width="1" /><polyline fill="none" opacity="1.0" points="998.0,615.0 998.0,589.0" stroke="#7F7F7F" stroke-width="1" /><polyline fill="none" opacity="1.0" points="994.0,615.0 994.0,589.0" stroke="#7F7F7F" stroke-width="1" /><polyline fill="none" opacity="1.0" points="990.0,615.0 990.0,589.0" stroke="#7F7F7F" stroke-width="1" /><polyline fill="none" opacity="1.0" points="986.0,615.0 986.0,589.0" stroke="#7F7F7F" stroke-width="1" /><polyline fill="none" opacity="1.0" points="982.0,615.0 982.0,589.0" stroke="#7F7F7F" stroke-width="1" /><polyline fill="none" opacity="1.0" points="978.0,615.0 978.0,589.0" stroke="#7F7F7F" stroke-width="1" /><polyline fill="none" opacity="1.0" points="974.0,615.0 974.0,589.0" stroke="#7F7F7F" stroke-width="1" /><polyline fill="none" opacity="1.0" points="970.0,615.0 970.0,589.0" stroke="#7F7F7F" stroke-width="1" /><polyline fill="none" opacity="1.0" points="966.0,615.0 966.0,589.0" stroke="#7F7F7F" stroke-width="1" /><polyline fill="none" opacity="1.0" points="962.0,615.0 962.0,589.0" stroke="#7F7F7F" stroke-width="1" /><polyline fill="none" opacity="1.0" points="958.0,615.0 958.0,589.0" stroke="#7F7F7F" stroke-width="1" /><polyline fill="none" opacity="1.0" points="954.0,615.0 954.0,589.0" stroke="#7F7F7F" stroke-width="1" /><polyline fill="none" opacity="1.0" points="950.0,615.0 950.0,589.0" stroke="#7F7F7F" stroke-width="1" /><polyline fill="none" opacity="1.0" points="946.0,615.0 946.0,589.0" stroke="#7F7F7F" stroke-width="1" /><polyline fill="none" opacity="1.0" points="942.0,615.0 942.0,589.0" stroke="#7F7F7F" stroke-width="1" /><polyline fill="none" opacity="1.0" points="938.0,615.0 938.0,589.0" stroke="#7F7F7F" stroke-width="1" /><polyline fill="none" opacity="1.0" points="934.0,615.0 934.0,589.0" stroke="#7F7F7F" stroke-width="1" /><polygon fill="#9B5509" opacity="1.0" points="1081.0,589.0 928.0,589.0 928.0,587.0 1081.0,587.0" stroke="#000" stroke-width="1" /><polygon fill="#9B5509" opacity="1.0" points="1081.0,595.0 1081.0,599.0 928.0,599.0 928.0,595.0" stroke="#000" stroke-width="1" /><polygon fill="#9B5509" opacity="1.0" points="1081.0,605.0 1081.0,609.0 928.0,609.0 928.0,605.0" stroke="#000" stroke-width="1" /><polygon fill="#9B5509" opacity="1.0" points="1081.0,615.0 928.0,615.0 928.0,617.0 1081.0,617.0" stroke="#000" stroke-width="1" /><polyline fill="none" opacity="1.0" points="936.0,498.0 944.0,498.0 944.0,524.0 936.0,524.0" stroke="#000" stroke-width="1" /><text fill="#000" font-family="Arial" font-size="10" font-weight="normal" opacity="1.0" transform="rotate(90.0 947.0,499.0) translate(0 10)" x="947.0" y="499.0">кассы</text><polyline fill="none" opacity="1.0" points="793.0,403.0 793.0,393.0 754.0,393.0 754.0,403.0" stroke="#000" stroke-width="1" /><text fill="#000" font-family="Arial" font-size="10" font-weight="normal" opacity="1.0" transform="rotate(-0.0 756.0,391.0) translate(0 10)" x="756.0" y="391.0">полиция</text><polyline fill="none" opacity="1.0" points="916.0,407.0 916.0,364.0" stroke="#000" stroke-width="0.5" /><polyline fill="none" opacity="1.0" points="851.0,737.0 851.0,798.0" stroke="#000" stroke-width="0.5" /><polygon fill="none" opacity="1.0" points="854.0,481.0 854.0,488.0 847.0,488.0 847.0,481.0" stroke="#000" stroke-width="1" /><polygon fill="none" opacity="1.0" points="885.0,437.0 890.0,442.0 885.0,447.0 880.0,442.0" stroke="#000" stroke-width="1" /><polyline fill="none" opacity="1.0" points="883.0,448.0 880.0,445.0" stroke="#090" stroke-width="1" /><polyline fill="none" opacity="1.0" points="880.2216,450.8776 877.2216,447.8776" stroke="#090" stroke-width="1" /><polyline fill="none" opacity="1.0" points="877.4432,453.7552 874.4432,450.7552" stroke="#090" stroke-width="1" /><polyline fill="none" opacity="1.0" points="874.6649,456.6328 871.6649,453.6328" stroke="#090" stroke-width="1" /><polyline fill="none" opacity="1.0" points="871.8865,459.5104 868.8865,456.5104" stroke="#090" stroke-width="1" /><polyline fill="none" opacity="1.0" points="869.1081,462.388 866.1081,459.388" stroke="#090" stroke-width="1" /><polyline fill="none" opacity="1.0" points="866.3297,465.2656 863.3297,462.2656" stroke="#090" stroke-width="1" /><polyline fill="none" opacity="1.0" points="863.5514,468.1432 860.5514,465.1432" stroke="#090" stroke-width="1" /><polyline fill="none" opacity="1.0" points="860.773,471.0208 857.773,468.0208" stroke="#090" stroke-width="1" /><polyline fill="none" opacity="1.0" points="857.9946,473.8985 854.9946,470.8985" stroke="#090" stroke-width="1" /><polyline fill="none" opacity="1.0" points="855.2162,476.7761 852.2162,473.7761" stroke="#090" stroke-width="1" /><polyline fill="none" opacity="1.0" points="849.0,654.0 854.0,654.0" stroke="#090" stroke-width="1" /><polyline fill="none" opacity="1.0" points="849.0,658.0 854.0,658.0" stroke="#090" stroke-width="1" /><polyline fill="none" opacity="1.0" points="849.0,662.0 854.0,662.0" stroke="#090" stroke-width="1" /><polyline fill="none" opacity="1.0" points="849.0,666.0 854.0,666.0" stroke="#090" stroke-width="1" /><polyline fill="none" opacity="1.0" points="849.0,670.0 854.0,670.0" stroke="#090" stroke-width="1" /><polyline fill="none" opacity="1.0" points="849.0,674.0 854.0,674.0" stroke="#090" stroke-width="1" /><polyline fill="none" opacity="1.0" points="849.0,678.0 854.0,678.0" stroke="#090" stroke-width="1" /><polyline fill="none" opacity="1.0" points="849.0,682.0 854.0,682.0" stroke="#090" stroke-width="1" /><polyline fill="none" opacity="1.0" points="849.0,686.0 854.0,686.0" stroke="#090" stroke-width="1" /><polyline fill="none" opacity="1.0" points="849.0,690.0 854.0,690.0" stroke="#090" stroke-width="1" /><polyline fill="none" opacity="1.0" points="849.0,694.0 854.0,694.0" stroke="#090" stroke-width="1" /><polyline fill="none" opacity="1.0" points="849.0,698.0 854.0,698.0" stroke="#090" stroke-width="1" /><polyline fill="none" opacity="1.0" points="918.0,412.0 915.0,409.0" stroke="#F00" stroke-width="1" /><polyline fill="none" opacity="1.0" points="915.2216,414.8776 912.2216,411.8776" stroke="#F00" stroke-width="1" /><polyline fill="none" opacity="1.0" points="912.4432,417.7552 909.4432,414.7552" stroke="#F00" stroke-width="1" /><polyline fill="none" opacity="1.0" points="909.6649,420.6328 906.6649,417.6328" stroke="#F00" stroke-width="1" /><polyline fill="none" opacity="1.0" points="906.8865,423.5104 903.8865,420.5104" stroke="#F00" stroke-width="1" /><polyline fill="none" opacity="1.0" points="904.1081,426.388 901.1081,423.388" stroke="#F00" stroke-width="1" /><polyline fill="none" opacity="1.0" points="901.3297,429.2656 898.3297,426.2656" stroke="#F00" stroke-width="1" /><polyline fill="none" opacity="1.0" points="898.5514,432.1432 895.5514,429.1432" stroke="#F00" stroke-width="1" /><polyline fill="none" opacity="1.0" points="895.773,435.0208 892.773,432.0208" stroke="#F00" stroke-width="1" /><polyline fill="none" opacity="1.0" points="892.9946,437.8985 889.9946,434.8985" stroke="#F00" stroke-width="1" /><polyline fill="none" opacity="1.0" points="890.2162,440.7761 887.2162,437.7761" stroke="#F00" stroke-width="1" /><polyline fill="none" opacity="1.0" points="854.0,493.0 849.0,493.0" stroke="#F00" stroke-width="1" /><polyline fill="none" opacity="1.0" points="854.0,497.0 849.0,497.0" stroke="#F00" stroke-width="1" /><polyline fill="none" opacity="1.0" points="854.0,501.0 849.0,501.0" stroke="#F00" stroke-width="1" /><polyline fill="none" opacity="1.0" points="854.0,505.0 849.0,505.0" stroke="#F00" stroke-width="1" /><polyline fill="none" opacity="1.0" points="854.0,509.0 849.0,509.0" stroke="#F00" stroke-width="1" /><polyline fill="none" opacity="1.0" points="854.0,513.0 849.0,513.0" stroke="#F00" stroke-width="1" /><polyline fill="none" opacity="1.0" points="854.0,517.0 849.0,517.0" stroke="#F00" stroke-width="1" /><polyline fill="none" opacity="1.0" points="854.0,521.0 849.0,521.0" stroke="#F00" stroke-width="1" /><polyline fill="none" opacity="1.0" points="854.0,525.0 849.0,525.0" stroke="#F00" stroke-width="1" /><polyline fill="none" opacity="1.0" points="854.0,529.0 849.0,529.0" stroke="#F00" stroke-width="1" /><polyline fill="none" opacity="1.0" points="854.0,533.0 849.0,533.0" stroke="#F00" stroke-width="1" /><polyline fill="none" opacity="1.0" points="854.0,537.0 849.0,537.0" stroke="#F00" stroke-width="1" /><polyline fill="none" opacity="1.0" points="854.0,541.0 849.0,541.0" stroke="#F00" stroke-width="1" /><polyline fill="none" opacity="1.0" points="854.0,545.0 849.0,545.0" stroke="#F00" stroke-width="1" /><polyline fill="none" opacity="1.0" points="854.0,549.0 849.0,549.0" stroke="#F00" stroke-width="1" /><polyline fill="none" opacity="1.0" points="849.0,702.0 854.0,702.0" stroke="#F00" stroke-width="1" /><polyline fill="none" opacity="1.0" points="849.0,706.0 854.0,706.0" stroke="#F00" stroke-width="1" /><polyline fill="none" opacity="1.0" points="849.0,710.0 854.0,710.0" stroke="#F00" stroke-width="1" /><polyline fill="none" opacity="1.0" points="849.0,714.0 854.0,714.0" stroke="#F00" stroke-width="1" /><polyline fill="none" opacity="1.0" points="849.0,718.0 854.0,718.0" stroke="#F00" stroke-width="1" /><polyline fill="none" opacity="1.0" points="849.0,722.0 854.0,722.0" stroke="#F00" stroke-width="1" /><polyline fill="none" opacity="1.0" points="849.0,726.0 854.0,726.0" stroke="#F00" stroke-width="1" /><polyline fill="none" opacity="1.0" points="849.0,730.0 854.0,730.0" stroke="#F00" stroke-width="1" /><polyline fill="none" opacity="1.0" points="849.0,734.0 854.0,734.0" stroke="#F00" stroke-width="1" /><polyline fill="none" opacity="1.0" points="1407.0,637.0 1424.0,637.0" stroke="#F00" stroke-width="1" /><polygon fill="#F00" opacity="1.0" points="1419.0738,638.32 1424.0,637.0 1419.0738,635.68" stroke="#F00" stroke-width="1" /><polyline fill="none" opacity="1.0" points="1091.0,618.0 1108.0,618.0" stroke="#F00" stroke-width="1" /><polygon fill="#F00" opacity="1.0" points="1103.0738,619.32 1108.0,618.0 1103.0738,616.68" stroke="#F00" stroke-width="1" /><polyline fill="none" opacity="1.0" points="871.0,512.0 885.0,512.0" stroke="#F00" stroke-width="1" /><polygon fill="#F00" opacity="1.0" points="880.9431,513.087 885.0,512.0 880.9431,510.913" stroke="#F00" stroke-width="1" /><polyline fill="none" opacity="1.0" points="898.0,320.0 886.0,320.0 886.0,341.0" stroke="#F00" stroke-width="1" /><polygon fill="#F00" opacity="1.0" points="884.3694,334.9147 886.0,341.0 887.6306,334.9147" stroke="#F00" stroke-width="1" /><polyline fill="none" opacity="1.0" points="910.0,435.0 919.0,445.0" stroke="#F00" stroke-width="1" /><polygon fill="#F00" opacity="1.0" points="915.6155,442.801 919.0,445.0 917.1685,441.4034" stroke="#F00" stroke-width="1" /><polyline fill="none" opacity="1.0" points="1108.0,589.0 1091.0,589.0" stroke="#090" stroke-width="1" /><polygon fill="#090" opacity="1.0" points="1095.9262,587.68 1091.0,589.0 1095.9262,590.32" stroke="#090" stroke-width="1" /><polyline fill="none" opacity="1.0" points="1424.0,571.0 1407.0,571.0" stroke="#090" stroke-width="1" /><polygon fill="#090" opacity="1.0" points="1411.9262,569.68 1407.0,571.0 1411.9262,572.32" stroke="#090" stroke-width="1" /><polyline fill="none" opacity="1.0" points="908.0,347.0 933.0,347.0" stroke="#090" stroke-width="1" /><polygon fill="#090" opacity="1.0" points="925.7556,348.9411 933.0,347.0 925.7556,345.0589" stroke="#090" stroke-width="1" /><polyline fill="none" opacity="1.0" points="889.0,474.0 880.0,465.0" stroke="#090" stroke-width="1" /><polygon fill="#090" opacity="1.0" points="883.3068,466.9092 880.0,465.0 881.9092,468.3068" stroke="#090" stroke-width="1" /><polygon fill="#FCCC04" opacity="1.0" points="343.0,443.0 343.0,473.0 793.0,473.0 793.0,443.0" stroke="#000" stroke-width="1" /><polygon fill="#FCCC04" opacity="1.0" points="343.0,553.0 343.0,583.0 793.0,583.0 793.0,553.0" stroke="#000" stroke-width="1" /><polyline fill="none" opacity="1.0" points="364.0,473.0 364.0,499.0" stroke="#000" stroke-width="1" /><polyline fill="none" opacity="1.0" points="364.0,528.0 364.0,553.0" stroke="#000" stroke-width="1" /><polyline fill="none" opacity="1.0" points="622.0,401.0 663.0,401.0" stroke="#707070" stroke-width="1" /><polygon fill="#FFF" opacity="0.8" points="342.0,451.0 342.0,442.0 794.0,442.0 794.0,451.0" stroke="#FFF" stroke-width="1" /><polygon fill="#FFF" opacity="0.8" points="794.0,575.0 794.0,584.0 342.0,584.0 342.0,575.0" stroke="#FFF" stroke-width="1" /><polygon fill="#FFF" opacity="0.8" points="471.0,473.0 470.0,464.0 466.0,457.0 459.0,452.0 449.0,451.0 534.0,451.0 524.0,452.0 517.0,457.0 513.0,464.0 512.0,473.0 512.0,553.0 513.0,563.0 517.0,569.0 524.0,574.0 534.0,575.0 449.0,575.0 459.0,574.0 466.0,569.0 470.0,563.0 471.0,553.0" stroke="#FFF" stroke-width="1" /><polygon fill="#FFF" opacity="0.8" points="622.0,473.0 621.0,464.0 617.0,457.0 609.0,452.0 600.0,451.0 685.0,451.0 675.0,452.0 668.0,457.0 664.0,464.0 663.0,473.0 663.0,553.0 664.0,563.0 668.0,569.0 675.0,574.0 685.0,575.0 600.0,575.0 609.0,574.0 617.0,569.0 621.0,563.0 622.0,553.0" stroke="#FFF" stroke-width="1" /><polygon fill="#FFF" opacity="0.8" points="726.0,451.0 794.0,451.0 794.0,473.0 773.0,473.0 764.0,463.0 753.0,456.0 740.0,451.0" stroke="#FFF" stroke-width="1" /><polygon fill="#FFF" opacity="0.8" points="726.0,575.0 794.0,575.0 794.0,553.0 773.0,553.0 764.0,562.0 753.0,569.0 740.0,574.0" stroke="#FFF" stroke-width="1" /><polygon fill="#FFF" opacity="0.8" points="411.0,451.0 342.0,451.0 342.0,473.0 364.0,473.0 372.0,464.0 384.0,457.0 397.0,452.0" stroke="#FFF" stroke-width="1" /><polygon fill="#FFF" opacity="0.8" points="411.0,575.0 342.0,575.0 342.0,553.0 364.0,553.0 372.0,562.0 384.0,569.0 401.0,575.0" stroke="#FFF" stroke-width="1" /><text fill="#000" font-family="Arial" font-size="20" font-weight="normal" opacity="1.0" transform="rotate(-0.0 346.0,422.0) translate(0 20)" x="346.0" y="422.0">&lt;&lt; Парк Победы</text><text fill="#000" font-family="Arial" font-size="20" font-weight="normal" opacity="1.0" transform="rotate(-0.0 717.0,579.0) translate(0 20)" x="717.0" y="579.0">тупик &gt;&gt;</text><text fill="#000" font-family="Arial" font-size="25" font-weight="bold" opacity="1.0" transform="rotate(-0.0 481.0,362.0) translate(0 25)" x="481.0" y="362.0">Деловой центр</text><text fill="#FCCC04" font-family="Arial" font-size="20" font-weight="normal" opacity="1.0" transform="rotate(-0.0 345.0,421.0) translate(0 20)" x="345.0" y="421.0">&lt;&lt; Парк Победы</text><text fill="#FCCC04" font-family="Arial" font-size="20" font-weight="normal" opacity="1.0" transform="rotate(-0.0 716.0,578.0) translate(0 20)" x="716.0" y="578.0">тупик &gt;&gt;</text><text fill="#FCCC04" font-family="Arial" font-size="25" font-weight="bold" opacity="1.0" transform="rotate(-0.0 480.0,361.0) translate(0 25)" x="480.0" y="361.0">Деловой центр</text><polyline fill="none" opacity="1.0" points="622.0,528.0 622.0,553.0" stroke="#000" stroke-width="1" /><polyline fill="none" opacity="1.0" points="600.0,575.0 534.0,575.0" stroke="#000" stroke-width="1" /><polyline fill="none" opacity="1.0" points="512.0,553.0 512.0,473.0" stroke="#000" stroke-width="1" /><polyline fill="none" opacity="1.0" points="534.0,451.0 600.0,451.0" stroke="#000" stroke-width="1" /><polyline fill="none" opacity="1.0" points="622.0,473.0 622.0,499.0" stroke="#000" stroke-width="1" /><polyline fill="none" opacity="1.0" points="411.0,451.0 449.0,451.0" stroke="#000" stroke-width="1" /><polyline fill="none" opacity="1.0" points="471.0,473.0 471.0,553.0" stroke="#000" stroke-width="1" /><polyline fill="none" opacity="1.0" points="449.0,575.0 411.0,575.0" stroke="#000" stroke-width="1" /><polyline fill="none" opacity="1.0" points="622.0,473.0 621.7969,470.4531 621.4375,468.0625 620.9219,465.8281 620.25,463.75 619.4219,461.8281 618.4375,460.0625 617.2969,458.4531 616.0,457.0 614.5469,455.7031 612.9375,454.5625 611.1719,453.5781 609.25,452.75 607.1719,452.0781 604.9375,451.5625 602.5469,451.2031 600.0,451.0" stroke="#000" stroke-width="1" /><polyline fill="none" opacity="1.0" points="534.0,451.0 531.4531,451.2031 529.0625,451.5625 526.8281,452.0781 524.75,452.75 522.8281,453.5781 521.0625,454.5625 519.4531,455.7031 518.0,457.0 516.7031,458.4531 515.5625,460.0625 514.5781,461.8281 513.75,463.75 513.0781,465.8281 512.5625,468.0625 512.2031,470.4531 512.0,473.0" stroke="#000" stroke-width="1" /><polyline fill="none" opacity="1.0" points="449.0,451.0 451.5469,451.2031 453.9375,451.5625 456.1719,452.0781 458.25,452.75 460.1719,453.5781 461.9375,454.5625 463.5469,455.7031 465.0,457.0 466.2969,458.4531 467.4375,460.0625 468.4219,461.8281 469.25,463.75 469.9219,465.8281 470.4375,468.0625 470.7969,470.4531 471.0,473.0" stroke="#000" stroke-width="1" /><polyline fill="none" opacity="1.0" points="449.0,575.0 451.5469,574.7969 453.9375,574.4375 456.1719,573.9219 458.25,573.25 460.1719,572.4219 461.9375,571.4375 463.5469,570.2969 465.0,569.0 466.2969,567.5469 467.4375,565.9375 468.4219,564.1719 469.25,562.25 469.9219,560.1719 470.4375,557.9375 470.7969,555.5469 471.0,553.0" stroke="#000" stroke-width="1" /><polyline fill="none" opacity="1.0" points="534.0,575.0 531.4531,574.7969 529.0625,574.4375 526.8281,573.9219 524.75,573.25 522.8281,572.4219 521.0625,571.4375 519.4531,570.2969 518.0,569.0 516.7031,567.5469 515.5625,565.9375 514.5781,564.1719 513.75,562.25 513.0781,560.1719 512.5625,557.9375 512.2031,555.5469 512.0,553.0" stroke="#000" stroke-width="1" /><polyline fill="none" opacity="1.0" points="622.0,553.0 621.7969,555.5469 621.4375,557.9375 620.9219,560.1719 620.25,562.25 619.4219,564.1719 618.4375,565.9375 617.2969,567.5469 616.0,569.0 614.5469,570.2969 612.9375,571.4375 611.1719,572.4219 609.25,573.25 607.1719,573.9219 604.9375,574.4375 602.5469,574.7969 600.0,575.0" stroke="#000" stroke-width="1" /><polyline fill="none" opacity="1.0" points="411.0,451.0 407.4766,451.2031 404.0312,451.5625 400.6641,452.0781 397.375,452.75 394.1641,453.5781 391.0312,454.5625 387.9766,455.7031 385.0,457.0 382.1016,458.4531 379.2812,460.0625 376.5391,461.8281 373.875,463.75 371.2891,465.8281 368.7812,468.0625 366.3516,470.4531 364.0,473.0" stroke="#000" stroke-width="1" /><polyline fill="none" opacity="1.0" points="411.0,575.0 407.4766,574.7969 404.0312,574.4375 400.6641,573.9219 397.375,573.25 394.1641,572.4219 391.0312,571.4375 387.9766,570.2969 385.0,569.0 382.1016,567.5469 379.2812,565.9375 376.5391,564.1719 373.875,562.25 371.2891,560.1719 368.7812,557.9375 366.3516,555.5469 364.0,553.0" stroke="#000" stroke-width="1" /><polyline fill="none" opacity="1.0" points="663.0,499.0 663.0,473.0" stroke="#000" stroke-width="1" /><polyline fill="none" opacity="1.0" points="685.0,451.0 726.0,451.0" stroke="#000" stroke-width="1" /><polyline fill="none" opacity="1.0" points="773.0,473.0 773.0,499.0" stroke="#000" stroke-width="1" /><polyline fill="none" opacity="1.0" points="663.0,528.0 663.0,553.0" stroke="#000" stroke-width="1" /><polyline fill="none" opacity="1.0" points="685.0,575.0 726.0,575.0" stroke="#000" stroke-width="1" /><polyline fill="none" opacity="1.0" points="773.0,553.0 773.0,528.0" stroke="#000" stroke-width="1" /><polyline fill="none" opacity="1.0" points="685.0,451.0 682.4531,451.2031 680.0625,451.5625 677.8281,452.0781 675.75,452.75 673.8281,453.5781 672.0625,454.5625 670.4531,455.7031 669.0,457.0 667.7031,458.4531 666.5625,460.0625 665.5781,461.8281 664.75,463.75 664.0781,465.8281 663.5625,468.0625 663.2031,470.4531 663.0,473.0" stroke="#000" stroke-width="1" /><polyline fill="none" opacity="1.0" points="685.0,575.0 682.4531,574.7969 680.0625,574.4375 677.8281,573.9219 675.75,573.25 673.8281,572.4219 672.0625,571.4375 670.4531,570.2969 669.0,569.0 667.7031,567.5469 666.5625,565.9375 665.5781,564.1719 664.75,562.25 664.0781,560.1719 663.5625,557.9375 663.2031,555.5469 663.0,553.0" stroke="#000" stroke-width="1" /><polyline fill="none" opacity="1.0" points="773.0,473.0 770.6484,470.2188 768.2188,467.625 765.7109,465.2188 763.125,463.0 760.4609,460.9688 757.7188,459.125 754.8984,457.4688 752.0,456.0 749.0234,454.7188 745.9688,453.625 742.8359,452.7188 739.625,452.0 736.3359,451.4688 732.9688,451.125 729.5234,450.9688 726.0,451.0" stroke="#000" stroke-width="1" /><polyline fill="none" opacity="1.0" points="726.0,575.0 729.5234,574.7969 732.9688,574.4375 736.3359,573.9219 739.625,573.25 742.8359,572.4219 745.9688,571.4375 749.0234,570.2969 752.0,569.0 754.8984,567.5469 757.7188,565.9375 760.4609,564.1719 763.125,562.25 765.7109,560.1719 768.2188,557.9375 770.6484,555.5469 773.0,553.0" stroke="#000" stroke-width="1" /><polyline fill="none" opacity="1.0" points="783.0,525.0 783.0,502.0" stroke="#7F7F7F" stroke-width="1" /><polyline fill="none" opacity="1.0" points="779.0,525.0 779.0,502.0" stroke="#7F7F7F" stroke-width="1" /><polyline fill="none" opacity="1.0" points="775.0,525.0 775.0,502.0" stroke="#7F7F7F" stroke-width="1" /><polyline fill="none" opacity="1.0" points="771.0,525.0 771.0,502.0" stroke="#7F7F7F" stroke-width="1" /><polyline fill="none" opacity="1.0" points="767.0,525.0 767.0,502.0" stroke="#7F7F7F" stroke-width="1" /><polyline fill="none" opacity="1.0" points="763.0,525.0 763.0,502.0" stroke="#7F7F7F" stroke-width="1" /><polyline fill="none" opacity="1.0" points="759.0,525.0 759.0,502.0" stroke="#7F7F7F" stroke-width="1" /><polyline fill="none" opacity="1.0" points="755.0,525.0 755.0,502.0" stroke="#7F7F7F" stroke-width="1" /><polyline fill="none" opacity="1.0" points="751.0,525.0 751.0,502.0" stroke="#7F7F7F" stroke-width="1" /><polygon fill="#9B5509" opacity="1.0" points="790.0,502.0 745.0,502.0 745.0,499.0 790.0,499.0" stroke="#000" stroke-width="1" /><polygon fill="#9B5509" opacity="1.0" points="790.0,507.0 790.0,511.0 745.0,511.0 745.0,507.0" stroke="#000" stroke-width="1" /><polygon fill="#9B5509" opacity="1.0" points="790.0,516.0 790.0,520.0 745.0,520.0 745.0,516.0" stroke="#000" stroke-width="1" /><polygon fill="#9B5509" opacity="1.0" points="790.0,525.0 745.0,525.0 745.0,528.0 790.0,528.0" stroke="#000" stroke-width="1" /><polyline fill="none" opacity="1.0" points="693.0,525.0 693.0,502.0" stroke="#7F7F7F" stroke-width="1" /><polyline fill="none" opacity="1.0" points="689.0,525.0 689.0,502.0" stroke="#7F7F7F" stroke-width="1" /><polyline fill="none" opacity="1.0" points="685.0,525.0 685.0,502.0" stroke="#7F7F7F" stroke-width="1" /><polyline fill="none" opacity="1.0" points="681.0,525.0 681.0,502.0" stroke="#7F7F7F" stroke-width="1" /><polyline fill="none" opacity="1.0" points="677.0,525.0 677.0,502.0" stroke="#7F7F7F" stroke-width="1" /><polyline fill="none" opacity="1.0" points="673.0,525.0 673.0,502.0" stroke="#7F7F7F" stroke-width="1" /><polyline fill="none" opacity="1.0" points="669.0,525.0 669.0,502.0" stroke="#7F7F7F" stroke-width="1" /><polyline fill="none" opacity="1.0" points="665.0,525.0 665.0,502.0" stroke="#7F7F7F" stroke-width="1" /><polyline fill="none" opacity="1.0" points="661.0,525.0 661.0,502.0" stroke="#7F7F7F" stroke-width="1" /><polygon fill="#9B5509" opacity="1.0" points="700.0,502.0 655.0,502.0 655.0,499.0 700.0,499.0" stroke="#000" stroke-width="1" /><polygon fill="#9B5509" opacity="1.0" points="700.0,507.0 700.0,511.0 655.0,511.0 655.0,507.0" stroke="#000" stroke-width="1" /><polygon fill="#9B5509" opacity="1.0" points="700.0,516.0 700.0,520.0 655.0,520.0 655.0,516.0" stroke="#000" stroke-width="1" /><polygon fill="#9B5509" opacity="1.0" points="700.0,525.0 655.0,525.0 655.0,528.0 700.0,528.0" stroke="#000" stroke-width="1" /><polyline fill="none" opacity="1.0" points="624.0,525.0 624.0,502.0" stroke="#7F7F7F" stroke-width="1" /><polyline fill="none" opacity="1.0" points="620.0,525.0 620.0,502.0" stroke="#7F7F7F" stroke-width="1" /><polyline fill="none" opacity="1.0" points="616.0,525.0 616.0,502.0" stroke="#7F7F7F" stroke-width="1" /><polyline fill="none" opacity="1.0" points="612.0,525.0 612.0,502.0" stroke="#7F7F7F" stroke-width="1" /><polyline fill="none" opacity="1.0" points="608.0,525.0 608.0,502.0" stroke="#7F7F7F" stroke-width="1" /><polyline fill="none" opacity="1.0" points="604.0,525.0 604.0,502.0" stroke="#7F7F7F" stroke-width="1" /><polyline fill="none" opacity="1.0" points="600.0,525.0 600.0,502.0" stroke="#7F7F7F" stroke-width="1" /><polyline fill="none" opacity="1.0" points="596.0,525.0 596.0,502.0" stroke="#7F7F7F" stroke-width="1" /><polyline fill="none" opacity="1.0" points="592.0,525.0 592.0,502.0" stroke="#7F7F7F" stroke-width="1" /><polygon fill="#9B5509" opacity="1.0" points="631.0,502.0 586.0,502.0 586.0,499.0 631.0,499.0" stroke="#000" stroke-width="1" /><polygon fill="#9B5509" opacity="1.0" points="631.0,507.0 631.0,511.0 586.0,511.0 586.0,507.0" stroke="#000" stroke-width="1" /><polygon fill="#9B5509" opacity="1.0" points="631.0,516.0 631.0,520.0 586.0,520.0 586.0,516.0" stroke="#000" stroke-width="1" /><polygon fill="#9B5509" opacity="1.0" points="631.0,525.0 586.0,525.0 586.0,528.0 631.0,528.0" stroke="#000" stroke-width="1" /><polyline fill="none" opacity="1.0" points="386.0,525.0 386.0,502.0" stroke="#7F7F7F" stroke-width="1" /><polyline fill="none" opacity="1.0" points="382.0,525.0 382.0,502.0" stroke="#7F7F7F" stroke-width="1" /><polyline fill="none" opacity="1.0" points="378.0,525.0 378.0,502.0" stroke="#7F7F7F" stroke-width="1" /><polyline fill="none" opacity="1.0" points="374.0,525.0 374.0,502.0" stroke="#7F7F7F" stroke-width="1" /><polyline fill="none" opacity="1.0" points="370.0,525.0 370.0,502.0" stroke="#7F7F7F" stroke-width="1" /><polyline fill="none" opacity="1.0" points="366.0,525.0 366.0,502.0" stroke="#7F7F7F" stroke-width="1" /><polyline fill="none" opacity="1.0" points="362.0,525.0 362.0,502.0" stroke="#7F7F7F" stroke-width="1" /><polyline fill="none" opacity="1.0" points="358.0,525.0 358.0,502.0" stroke="#7F7F7F" stroke-width="1" /><polyline fill="none" opacity="1.0" points="354.0,525.0 354.0,502.0" stroke="#7F7F7F" stroke-width="1" /><polygon fill="#9B5509" opacity="1.0" points="393.0,502.0 348.0,502.0 348.0,499.0 393.0,499.0" stroke="#000" stroke-width="1" /><polygon fill="#9B5509" opacity="1.0" points="393.0,507.0 393.0,511.0 348.0,511.0 348.0,507.0" stroke="#000" stroke-width="1" /><polygon fill="#9B5509" opacity="1.0" points="393.0,516.0 393.0,520.0 348.0,520.0 348.0,516.0" stroke="#000" stroke-width="1" /><polygon fill="#9B5509" opacity="1.0" points="393.0,525.0 348.0,525.0 348.0,528.0 393.0,528.0" stroke="#000" stroke-width="1" /><polygon fill="#D0EFFF" opacity="1.0" points="481.0,502.0 501.0,502.0 501.0,522.0 481.0,522.0" stroke="#000" stroke-width="1" /><text fill="#000" font-family="Arial" font-size="8" font-weight="normal" opacity="1.0" transform="rotate(-0.0 483.0,507.0) translate(0 8)" x="483.0" y="507.0">лифт</text><polygon fill="#34349C" opacity="1.0" points="575.0,513.0 575.0,517.0 574.0,517.0 574.0,513.0" stroke="#34349C" stroke-width="1" /><polygon fill="#F00" opacity="1.0" points="575.0,509.0 575.0,513.0 574.0,513.0 574.0,509.0" stroke="#F00" stroke-width="1" /><polygon fill="#30D5C8" opacity="1.0" points="344.0,621.0 344.0,651.0 794.0,651.0 794.0,621.0" stroke="#000" stroke-width="1" /><polygon fill="#30D5C8" opacity="1.0" points="344.0,731.0 344.0,761.0 794.0,761.0 794.0,731.0" stroke="#000" stroke-width="1" /><polyline fill="none" opacity="1.0" points="365.0,651.0 365.0,677.0" stroke="#000" stroke-width="1" /><polyline fill="none" opacity="1.0" points="365.0,706.0 365.0,731.0" stroke="#000" stroke-width="1" /><polyline fill="none" opacity="1.0" points="621.0,803.0 662.0,803.0" stroke="#707070" stroke-width="1" /><polygon fill="#FFF" opacity="0.8" points="343.0,629.0 343.0,620.0 795.0,620.0 795.0,629.0" stroke="#FFF" stroke-width="1" /><polygon fill="#FFF" opacity="0.8" points="795.0,753.0 795.0,762.0 343.0,762.0 343.0,753.0" stroke="#FFF" stroke-width="1" /><polygon fill="#FFF" opacity="0.8" points="472.0,651.0 471.0,642.0 467.0,635.0 460.0,630.0 450.0,629.0 535.0,629.0 525.0,630.0 518.0,635.0 514.0,642.0 513.0,651.0 513.0,731.0 514.0,741.0 518.0,747.0 525.0,752.0 535.0,753.0 450.0,753.0 460.0,752.0 467.0,747.0 471.0,741.0 472.0,731.0" stroke="#FFF" stroke-width="1" /><polygon fill="#FFF" opacity="0.8" points="623.0,651.0 622.0,642.0 618.0,635.0 610.0,630.0 601.0,629.0 686.0,629.0 676.0,630.0 669.0,635.0 665.0,642.0 664.0,651.0 664.0,731.0 665.0,741.0 669.0,747.0 676.0,752.0 686.0,753.0 601.0,753.0 610.0,752.0 618.0,747.0 622.0,741.0 623.0,731.0" stroke="#FFF" stroke-width="1" /><polygon fill="#FFF" opacity="0.8" points="727.0,629.0 795.0,629.0 795.0,651.0 774.0,651.0 765.0,641.0 754.0,634.0 741.0,629.0" stroke="#FFF" stroke-width="1" /><polygon fill="#FFF" opacity="0.8" points="727.0,753.0 795.0,753.0 795.0,731.0 774.0,731.0 765.0,740.0 754.0,747.0 741.0,752.0" stroke="#FFF" stroke-width="1" /><polygon fill="#FFF" opacity="0.8" points="412.0,629.0 343.0,629.0 343.0,651.0 365.0,651.0 373.0,642.0 385.0,635.0 398.0,630.0" stroke="#FFF" stroke-width="1" /><polygon fill="#FFF" opacity="0.8" points="412.0,753.0 343.0,753.0 343.0,731.0 365.0,731.0 373.0,740.0 385.0,747.0 402.0,753.0" stroke="#FFF" stroke-width="1" /><text fill="#222" font-family="Arial" font-size="20" font-weight="normal" opacity="1.0" transform="rotate(-0.0 345.0,608.0) translate(0 20)" x="345.0" y="608.0">&lt;&lt; Шелепиха</text><text fill="#222" font-family="Arial" font-size="20" font-weight="normal" opacity="1.0" transform="rotate(-0.0 718.0,757.0) translate(0 20)" x="718.0" y="757.0">тупик &gt;&gt;</text><polyline fill="none" opacity="1.0" points="623.0,706.0 623.0,731.0" stroke="#000" stroke-width="1" /><polyline fill="none" opacity="1.0" points="601.0,753.0 535.0,753.0" stroke="#000" stroke-width="1" /><polyline fill="none" opacity="1.0" points="513.0,731.0 513.0,651.0" stroke="#000" stroke-width="1" /><polyline fill="none" opacity="1.0" points="535.0,629.0 601.0,629.0" stroke="#000" stroke-width="1" /><polyline fill="none" opacity="1.0" points="623.0,651.0 623.0,677.0" stroke="#000" stroke-width="1" /><polyline fill="none" opacity="1.0" points="412.0,629.0 450.0,629.0" stroke="#000" stroke-width="1" /><polyline fill="none" opacity="1.0" points="472.0,651.0 472.0,731.0" stroke="#000" stroke-width="1" /><polyline fill="none" opacity="1.0" points="450.0,753.0 412.0,753.0" stroke="#000" stroke-width="1" /><polyline fill="none" opacity="1.0" points="623.0,651.0 622.7969,648.4531 622.4375,646.0625 621.9219,643.8281 621.25,641.75 620.4219,639.8281 619.4375,638.0625 618.2969,636.4531 617.0,635.0 615.5469,633.7031 613.9375,632.5625 612.1719,631.5781 610.25,630.75 608.1719,630.0781 605.9375,629.5625 603.5469,629.2031 601.0,629.0" stroke="#000" stroke-width="1" /><polyline fill="none" opacity="1.0" points="535.0,629.0 532.4531,629.2031 530.0625,629.5625 527.8281,630.0781 525.75,630.75 523.8281,631.5781 522.0625,632.5625 520.4531,633.7031 519.0,635.0 517.7031,636.4531 516.5625,638.0625 515.5781,639.8281 514.75,641.75 514.0781,643.8281 513.5625,646.0625 513.2031,648.4531 513.0,651.0" stroke="#000" stroke-width="1" /><polyline fill="none" opacity="1.0" points="450.0,629.0 452.5469,629.2031 454.9375,629.5625 457.1719,630.0781 459.25,630.75 461.1719,631.5781 462.9375,632.5625 464.5469,633.7031 466.0,635.0 467.2969,636.4531 468.4375,638.0625 469.4219,639.8281 470.25,641.75 470.9219,643.8281 471.4375,646.0625 471.7969,648.4531 472.0,651.0" stroke="#000" stroke-width="1" /><polyline fill="none" opacity="1.0" points="450.0,753.0 452.5469,752.7969 454.9375,752.4375 457.1719,751.9219 459.25,751.25 461.1719,750.4219 462.9375,749.4375 464.5469,748.2969 466.0,747.0 467.2969,745.5469 468.4375,743.9375 469.4219,742.1719 470.25,740.25 470.9219,738.1719 471.4375,735.9375 471.7969,733.5469 472.0,731.0" stroke="#000" stroke-width="1" /><polyline fill="none" opacity="1.0" points="535.0,753.0 532.4531,752.7969 530.0625,752.4375 527.8281,751.9219 525.75,751.25 523.8281,750.4219 522.0625,749.4375 520.4531,748.2969 519.0,747.0 517.7031,745.5469 516.5625,743.9375 515.5781,742.1719 514.75,740.25 514.0781,738.1719 513.5625,735.9375 513.2031,733.5469 513.0,731.0" stroke="#000" stroke-width="1" /><polyline fill="none" opacity="1.0" points="623.0,731.0 622.7969,733.5469 622.4375,735.9375 621.9219,738.1719 621.25,740.25 620.4219,742.1719 619.4375,743.9375 618.2969,745.5469 617.0,747.0 615.5469,748.2969 613.9375,749.4375 612.1719,750.4219 610.25,751.25 608.1719,751.9219 605.9375,752.4375 603.5469,752.7969 601.0,753.0" stroke="#000" stroke-width="1" /><polyline fill="none" opacity="1.0" points="412.0,629.0 408.4766,629.2031 405.0312,629.5625 401.6641,630.0781 398.375,630.75 395.1641,631.5781 392.0312,632.5625 388.9766,633.7031 386.0,635.0 383.1016,636.4531 380.2812,638.0625 377.5391,639.8281 374.875,641.75 372.2891,643.8281 369.7812,646.0625 367.3516,648.4531 365.0,651.0" stroke="#000" stroke-width="1" /><polyline fill="none" opacity="1.0" points="412.0,753.0 408.4766,752.7969 405.0312,752.4375 401.6641,751.9219 398.375,751.25 395.1641,750.4219 392.0312,749.4375 388.9766,748.2969 386.0,747.0 383.1016,745.5469 380.2812,743.9375 377.5391,742.1719 374.875,740.25 372.2891,738.1719 369.7812,735.9375 367.3516,733.5469 365.0,731.0" stroke="#000" stroke-width="1" /><polyline fill="none" opacity="1.0" points="664.0,677.0 664.0,651.0" stroke="#000" stroke-width="1" /><polyline fill="none" opacity="1.0" points="686.0,629.0 727.0,629.0" stroke="#000" stroke-width="1" /><polyline fill="none" opacity="1.0" points="774.0,651.0 774.0,677.0" stroke="#000" stroke-width="1" /><polyline fill="none" opacity="1.0" points="664.0,706.0 664.0,731.0" stroke="#000" stroke-width="1" /><polyline fill="none" opacity="1.0" points="686.0,753.0 727.0,753.0" stroke="#000" stroke-width="1" /><polyline fill="none" opacity="1.0" points="774.0,731.0 774.0,706.0" stroke="#000" stroke-width="1" /><polyline fill="none" opacity="1.0" points="686.0,629.0 683.4531,629.2031 681.0625,629.5625 678.8281,630.0781 676.75,630.75 674.8281,631.5781 673.0625,632.5625 671.4531,633.7031 670.0,635.0 668.7031,636.4531 667.5625,638.0625 666.5781,639.8281 665.75,641.75 665.0781,643.8281 664.5625,646.0625 664.2031,648.4531 664.0,651.0" stroke="#000" stroke-width="1" /><polyline fill="none" opacity="1.0" points="686.0,753.0 683.4531,752.7969 681.0625,752.4375 678.8281,751.9219 676.75,751.25 674.8281,750.4219 673.0625,749.4375 671.4531,748.2969 670.0,747.0 668.7031,745.5469 667.5625,743.9375 666.5781,742.1719 665.75,740.25 665.0781,738.1719 664.5625,735.9375 664.2031,733.5469 664.0,731.0" stroke="#000" stroke-width="1" /><polyline fill="none" opacity="1.0" points="774.0,651.0 771.6484,648.2188 769.2188,645.625 766.7109,643.2188 764.125,641.0 761.4609,638.9688 758.7188,637.125 755.8984,635.4688 753.0,634.0 750.0234,632.7188 746.9688,631.625 743.8359,630.7188 740.625,630.0 737.3359,629.4688 733.9688,629.125 730.5234,628.9688 727.0,629.0" stroke="#000" stroke-width="1" /><polyline fill="none" opacity="1.0" points="727.0,753.0 730.5234,752.7969 733.9688,752.4375 737.3359,751.9219 740.625,751.25 743.8359,750.4219 746.9688,749.4375 750.0234,748.2969 753.0,747.0 755.8984,745.5469 758.7188,743.9375 761.4609,742.1719 764.125,740.25 766.7109,738.1719 769.2188,735.9375 771.6484,733.5469 774.0,731.0" stroke="#000" stroke-width="1" /><polyline fill="none" opacity="1.0" points="784.0,703.0 784.0,680.0" stroke="#7F7F7F" stroke-width="1" /><polyline fill="none" opacity="1.0" points="780.0,703.0 780.0,680.0" stroke="#7F7F7F" stroke-width="1" /><polyline fill="none" opacity="1.0" points="776.0,703.0 776.0,680.0" stroke="#7F7F7F" stroke-width="1" /><polyline fill="none" opacity="1.0" points="772.0,703.0 772.0,680.0" stroke="#7F7F7F" stroke-width="1" /><polyline fill="none" opacity="1.0" points="768.0,703.0 768.0,680.0" stroke="#7F7F7F" stroke-width="1" /><polyline fill="none" opacity="1.0" points="764.0,703.0 764.0,680.0" stroke="#7F7F7F" stroke-width="1" /><polyline fill="none" opacity="1.0" points="760.0,703.0 760.0,680.0" stroke="#7F7F7F" stroke-width="1" /><polyline fill="none" opacity="1.0" points="756.0,703.0 756.0,680.0" stroke="#7F7F7F" stroke-width="1" /><polyline fill="none" opacity="1.0" points="752.0,703.0 752.0,680.0" stroke="#7F7F7F" stroke-width="1" /><polygon fill="#9B5509" opacity="1.0" points="791.0,680.0 746.0,680.0 746.0,677.0 791.0,677.0" stroke="#000" stroke-width="1" /><polygon fill="#9B5509" opacity="1.0" points="791.0,685.0 791.0,689.0 746.0,689.0 746.0,685.0" stroke="#000" stroke-width="1" /><polygon fill="#9B5509" opacity="1.0" points="791.0,694.0 791.0,698.0 746.0,698.0 746.0,694.0" stroke="#000" stroke-width="1" /><polygon fill="#9B5509" opacity="1.0" points="791.0,703.0 746.0,703.0 746.0,706.0 791.0,706.0" stroke="#000" stroke-width="1" /><polyline fill="none" opacity="1.0" points="694.0,703.0 694.0,680.0" stroke="#7F7F7F" stroke-width="1" /><polyline fill="none" opacity="1.0" points="690.0,703.0 690.0,680.0" stroke="#7F7F7F" stroke-width="1" /><polyline fill="none" opacity="1.0" points="686.0,703.0 686.0,680.0" stroke="#7F7F7F" stroke-width="1" /><polyline fill="none" opacity="1.0" points="682.0,703.0 682.0,680.0" stroke="#7F7F7F" stroke-width="1" /><polyline fill="none" opacity="1.0" points="678.0,703.0 678.0,680.0" stroke="#7F7F7F" stroke-width="1" /><polyline fill="none" opacity="1.0" points="674.0,703.0 674.0,680.0" stroke="#7F7F7F" stroke-width="1" /><polyline fill="none" opacity="1.0" points="670.0,703.0 670.0,680.0" stroke="#7F7F7F" stroke-width="1" /><polyline fill="none" opacity="1.0" points="666.0,703.0 666.0,680.0" stroke="#7F7F7F" stroke-width="1" /><polyline fill="none" opacity="1.0" points="662.0,703.0 662.0,680.0" stroke="#7F7F7F" stroke-width="1" /><polygon fill="#9B5509" opacity="1.0" points="701.0,680.0 656.0,680.0 656.0,677.0 701.0,677.0" stroke="#000" stroke-width="1" /><polygon fill="#9B5509" opacity="1.0" points="701.0,685.0 701.0,689.0 656.0,689.0 656.0,685.0" stroke="#000" stroke-width="1" /><polygon fill="#9B5509" opacity="1.0" points="701.0,694.0 701.0,698.0 656.0,698.0 656.0,694.0" stroke="#000" stroke-width="1" /><polygon fill="#9B5509" opacity="1.0" points="701.0,703.0 656.0,703.0 656.0,706.0 701.0,706.0" stroke="#000" stroke-width="1" /><polyline fill="none" opacity="1.0" points="625.0,703.0 625.0,680.0" stroke="#7F7F7F" stroke-width="1" /><polyline fill="none" opacity="1.0" points="621.0,703.0 621.0,680.0" stroke="#7F7F7F" stroke-width="1" /><polyline fill="none" opacity="1.0" points="617.0,703.0 617.0,680.0" stroke="#7F7F7F" stroke-width="1" /><polyline fill="none" opacity="1.0" points="613.0,703.0 613.0,680.0" stroke="#7F7F7F" stroke-width="1" /><polyline fill="none" opacity="1.0" points="609.0,703.0 609.0,680.0" stroke="#7F7F7F" stroke-width="1" /><polyline fill="none" opacity="1.0" points="605.0,703.0 605.0,680.0" stroke="#7F7F7F" stroke-width="1" /><polyline fill="none" opacity="1.0" points="601.0,703.0 601.0,680.0" stroke="#7F7F7F" stroke-width="1" /><polyline fill="none" opacity="1.0" points="597.0,703.0 597.0,680.0" stroke="#7F7F7F" stroke-width="1" /><polyline fill="none" opacity="1.0" points="593.0,703.0 593.0,680.0" stroke="#7F7F7F" stroke-width="1" /><polygon fill="#9B5509" opacity="1.0" points="632.0,680.0 587.0,680.0 587.0,677.0 632.0,677.0" stroke="#000" stroke-width="1" /><polygon fill="#9B5509" opacity="1.0" points="632.0,685.0 632.0,689.0 587.0,689.0 587.0,685.0" stroke="#000" stroke-width="1" /><polygon fill="#9B5509" opacity="1.0" points="632.0,694.0 632.0,698.0 587.0,698.0 587.0,694.0" stroke="#000" stroke-width="1" /><polygon fill="#9B5509" opacity="1.0" points="632.0,703.0 587.0,703.0 587.0,706.0 632.0,706.0" stroke="#000" stroke-width="1" /><polyline fill="none" opacity="1.0" points="387.0,703.0 387.0,680.0" stroke="#7F7F7F" stroke-width="1" /><polyline fill="none" opacity="1.0" points="383.0,703.0 383.0,680.0" stroke="#7F7F7F" stroke-width="1" /><polyline fill="none" opacity="1.0" points="379.0,703.0 379.0,680.0" stroke="#7F7F7F" stroke-width="1" /><polyline fill="none" opacity="1.0" points="375.0,703.0 375.0,680.0" stroke="#7F7F7F" stroke-width="1" /><polyline fill="none" opacity="1.0" points="371.0,703.0 371.0,680.0" stroke="#7F7F7F" stroke-width="1" /><polyline fill="none" opacity="1.0" points="367.0,703.0 367.0,680.0" stroke="#7F7F7F" stroke-width="1" /><polyline fill="none" opacity="1.0" points="363.0,703.0 363.0,680.0" stroke="#7F7F7F" stroke-width="1" /><polyline fill="none" opacity="1.0" points="359.0,703.0 359.0,680.0" stroke="#7F7F7F" stroke-width="1" /><polyline fill="none" opacity="1.0" points="355.0,703.0 355.0,680.0" stroke="#7F7F7F" stroke-width="1" /><polygon fill="#9B5509" opacity="1.0" points="394.0,680.0 349.0,680.0 349.0,677.0 394.0,677.0" stroke="#000" stroke-width="1" /><polygon fill="#9B5509" opacity="1.0" points="394.0,685.0 394.0,689.0 349.0,689.0 349.0,685.0" stroke="#000" stroke-width="1" /><polygon fill="#9B5509" opacity="1.0" points="394.0,694.0 394.0,698.0 349.0,698.0 349.0,694.0" stroke="#000" stroke-width="1" /><polygon fill="#9B5509" opacity="1.0" points="394.0,703.0 349.0,703.0 349.0,706.0 394.0,706.0" stroke="#000" stroke-width="1" /><polygon fill="#D0EFFF" opacity="1.0" points="482.0,680.0 502.0,680.0 502.0,700.0 482.0,700.0" stroke="#000" stroke-width="1" /><text fill="#000" font-family="Arial" font-size="8" font-weight="normal" opacity="1.0" transform="rotate(-0.0 484.0,685.0) translate(0 8)" x="484.0" y="685.0">лифт</text><polygon fill="#34349C" opacity="1.0" points="576.0,691.0 576.0,695.0 575.0,695.0 575.0,691.0" stroke="#34349C" stroke-width="1" /><polygon fill="#F00" opacity="1.0" points="576.0,687.0 576.0,691.0 575.0,691.0 575.0,687.0" stroke="#F00" stroke-width="1" /><ellipse cx="28.5" cy="601.0" fill="#D0D0D0" opacity="1.0" rx="69.5" ry="69.0" stroke="#000" stroke-width="1" /><polygon fill="#D0D0D0" opacity="1.0" points="147.0,569.0 167.0,565.0 189.0,564.0 211.0,568.0 227.0,576.0 237.0,588.0 241.0,602.0 237.0,617.0 227.0,628.0 211.0,635.0 189.0,640.0 173.0,640.0 159.0,638.0 147.0,635.0 150.0,621.0 152.0,610.0 152.0,592.0 150.0,580.0" stroke="#D0D0D0" stroke-width="1" /><polygon fill="#FFF" opacity="1.0" points="149.0,575.0 164.0,572.0 166.0,584.0 168.0,594.0 167.0,609.0 166.0,620.0 151.0,617.0 152.0,606.0 152.0,595.0 151.0,586.0" stroke="#FFF" stroke-width="1" /><polyline fill="none" opacity="1.0" points="265.0,417.0 265.0,403.0 622.0,403.0 622.0,401.0" stroke="#000" stroke-width="1" /><polyline fill="none" opacity="1.0" points="265.0,417.0 259.75,420.2812 254.5,423.125 249.25,425.5312 244.0,427.5 238.75,429.0312 233.5,430.125 228.25,430.7812 223.0,431.0 217.75,430.7812 212.5,430.125 207.25,429.0312 202.0,427.5 196.75,425.5312 191.5,423.125 186.25,420.2812 181.0,417.0" stroke="#000" stroke-width="1" /><polyline fill="none" opacity="1.0" points="181.0,417.0 181.0,411.0 125.0,411.0 125.0,399.0" stroke="#000" stroke-width="1" /><polyline fill="none" opacity="1.0" points="621.0,800.0 265.0,800.0 265.0,787.0" stroke="#000" stroke-width="1" /><polyline fill="none" opacity="1.0" points="265.0,787.0 259.6953,783.5391 254.4062,780.5312 249.1328,777.9766 243.875,775.875 238.6328,774.2266 233.4062,773.0312 228.1953,772.2891 223.0,772.0 217.8203,772.1641 212.6562,772.7812 207.5078,773.8516 202.375,775.375 197.2578,777.3516 192.1562,779.7812 187.0703,782.6641 182.0,786.0" stroke="#000" stroke-width="1" /><polyline fill="none" opacity="1.0" points="182.0,786.0 182.0,793.0 -30.0,793.0 0.0,722.0" stroke="#000" stroke-width="1" /><polygon fill="#FFF" opacity="0.8" points="449.0,266.0 449.0,410.0 391.0,410.0 391.0,266.0" stroke="#FFF" stroke-width="1" /><polyline fill="none" opacity="1.0" points="307.0,399.0 391.0,399.0 391.0,863.0" stroke="#000" stroke-width="1" /><polyline fill="none" opacity="1.0" points="391.0,266.0 391.0,370.0 307.0,370.0" stroke="#000" stroke-width="1" /><polyline fill="none" opacity="1.0" points="449.0,863.0 449.0,266.0" stroke="#000" stroke-width="1" /><polyline fill="none" opacity="1.0" points="125.0,370.0 85.0,370.0 85.0,339.0 26.0,339.0 26.0,477.0" stroke="#000" stroke-width="1" /><polyline fill="none" opacity="1.0" points="26.0,477.0 17.7344,477.4141 9.6875,478.2812 1.8557,479.605 -5.75,481.375 -13.1077,483.5708 -20.2539,486.2266 -27.1997,489.3525 -34.0,493.0 -40.7573,497.2646 -47.3398,502.0234 -53.6597,507.1943 -59.6875,512.75 -65.3794,518.6494 -70.6914,524.8516 -75.5942,531.3291 -80.0,538.0 -83.7769,544.7412 -87.0273,551.6484 -89.8064,558.7729 -92.125,566.125 -94.0198,573.7388 -95.4688,581.5938 -96.4609,589.6797 -97.0,598.0" stroke="#000" stroke-width="1" /><polyline fill="none" opacity="1.0" points="-97.0,598.0 -76.0,598.0" stroke="#000" stroke-width="1" /><polyline fill="none" opacity="1.0" points="-76.0,598.0 -75.8672,605.0312 -75.3438,611.875 -74.4272,618.5339 -73.125,625.0 -71.4517,631.2571 -69.3828,637.332 -66.9111,643.2329 -64.0,649.0 -60.5811,654.7085 -56.7422,660.2617 -52.542,665.5952 -48.0,670.6875 -43.1455,675.5063 -38.0078,680.0195 -32.6064,684.2056 -27.0,688.0 -21.2764,691.3062 -15.3672,694.1992 -9.2358,696.7195 -2.875,698.875 3.7397,700.6926 10.5938,702.1562 17.6797,703.2578 25.0,704.0" stroke="#000" stroke-width="1" /><polyline fill="none" opacity="1.0" points="25.0,704.0 25.0,725.0" stroke="#000" stroke-width="1" /><polyline fill="none" opacity="1.0" points="25.0,725.0 23.5547,724.9297 22.0938,724.8438 20.6172,724.7422 19.125,724.625 17.6172,724.4922 16.0938,724.3438 14.5547,724.1797 13.0,724.0 11.4297,723.8047 9.8438,723.5938 8.2422,723.3672 6.625,723.125 4.9922,722.8672 3.3438,722.5938 1.6797,722.3047 0.0,722.0" stroke="#000" stroke-width="1" /><polyline fill="none" opacity="1.0" points="147.0,569.0 152.4688,567.4453 157.875,566.1562 163.2236,565.1335 168.5,564.375 173.6748,563.8762 178.7969,563.6445 183.8809,563.6821 189.0,564.0 194.291,564.6187 199.5781,565.5117 204.7451,566.665 209.75,568.0625 214.5283,569.6748 219.0312,571.5273 223.2227,573.6245 227.0,576.0 230.2148,578.7231 232.9688,581.6914 235.3105,584.8372 237.25,588.125 238.8301,591.5007 240.0,594.9531 240.7344,598.4629 241.0,602.0 240.7344,605.5371 240.0,609.0469 238.8301,612.4993 237.25,615.875 235.3105,619.1628 232.9688,622.3086 230.2148,625.2769 227.0,628.0 223.2227,630.3755 219.0312,632.4727 214.5283,634.3252 209.75,635.9375 204.7451,637.335 199.5781,638.4883 194.291,639.3813 189.0,640.0 183.8809,640.3179 178.7969,640.3555 173.6748,640.1238 168.5,639.625 163.2236,638.8665 157.875,637.8438 152.4688,636.5547 147.0,635.0" stroke="#000" stroke-width="1" /><polyline fill="none" opacity="1.0" points="147.0,569.0 148.1719,573.125 149.1875,577.25 150.0469,581.375 150.75,585.5 151.2969,589.625 151.6875,593.75 151.9219,597.875 152.0,602.0 151.9219,606.125 151.6875,610.25 151.2969,614.375 150.75,618.5 150.0469,622.625 149.1875,626.75 148.1719,630.875 147.0,635.0" stroke="#000" stroke-width="1" /><polyline fill="none" opacity="1.0" points="125.0,412.0 125.0,482.0 121.0,488.0" stroke="#000" stroke-width="0.5" /><polyline fill="none" opacity="1.0" points="77.0,544.0 73.0,548.0" stroke="#000" stroke-width="0.5" /><polyline fill="none" opacity="1.0" points="121.0,704.0 125.0,709.0 125.0,793.0" stroke="#000" stroke-width="0.5" /><polyline fill="none" opacity="1.0" points="83.0,651.0 79.0,647.0" stroke="#000" stroke-width="0.5" /><polyline fill="none" opacity="1.0" points="300.0,396.0 300.0,373.0" stroke="#7F7F7F" stroke-width="1" /><polyline fill="none" opacity="1.0" points="296.0,396.0 296.0,373.0" stroke="#7F7F7F" stroke-width="1" /><polyline fill="none" opacity="1.0" points="292.0,396.0 292.0,373.0" stroke="#7F7F7F" stroke-width="1" /><polyline fill="none" opacity="1.0" points="288.0,396.0 288.0,373.0" stroke="#7F7F7F" stroke-width="1" /><polyline fill="none" opacity="1.0" points="284.0,396.0 284.0,373.0" stroke="#7F7F7F" stroke-width="1" /><polyline fill="none" opacity="1.0" points="280.0,396.0 280.0,373.0" stroke="#7F7F7F" stroke-width="1" /><polyline fill="none" opacity="1.0" points="276.0,396.0 276.0,373.0" stroke="#7F7F7F" stroke-width="1" /><polyline fill="none" opacity="1.0" points="272.0,396.0 272.0,373.0" stroke="#7F7F7F" stroke-width="1" /><polyline fill="none" opacity="1.0" points="268.0,396.0 268.0,373.0" stroke="#7F7F7F" stroke-width="1" /><polyline fill="none" opacity="1.0" points="264.0,396.0 264.0,373.0" stroke="#7F7F7F" stroke-width="1" /><polyline fill="none" opacity="1.0" points="260.0,396.0 260.0,373.0" stroke="#7F7F7F" stroke-width="1" /><polyline fill="none" opacity="1.0" points="256.0,396.0 256.0,373.0" stroke="#7F7F7F" stroke-width="1" /><polyline fill="none" opacity="1.0" points="252.0,396.0 252.0,373.0" stroke="#7F7F7F" stroke-width="1" /><polyline fill="none" opacity="1.0" points="248.0,396.0 248.0,373.0" stroke="#7F7F7F" stroke-width="1" /><polyline fill="none" opacity="1.0" points="244.0,396.0 244.0,373.0" stroke="#7F7F7F" stroke-width="1" /><polyline fill="none" opacity="1.0" points="240.0,396.0 240.0,373.0" stroke="#7F7F7F" stroke-width="1" /><polyline fill="none" opacity="1.0" points="236.0,396.0 236.0,373.0" stroke="#7F7F7F" stroke-width="1" /><polyline fill="none" opacity="1.0" points="232.0,396.0 232.0,373.0" stroke="#7F7F7F" stroke-width="1" /><polyline fill="none" opacity="1.0" points="228.0,396.0 228.0,373.0" stroke="#7F7F7F" stroke-width="1" /><polyline fill="none" opacity="1.0" points="224.0,396.0 224.0,373.0" stroke="#7F7F7F" stroke-width="1" /><polyline fill="none" opacity="1.0" points="220.0,396.0 220.0,373.0" stroke="#7F7F7F" stroke-width="1" /><polyline fill="none" opacity="1.0" points="216.0,396.0 216.0,373.0" stroke="#7F7F7F" stroke-width="1" /><polyline fill="none" opacity="1.0" points="212.0,396.0 212.0,373.0" stroke="#7F7F7F" stroke-width="1" /><polyline fill="none" opacity="1.0" points="208.0,396.0 208.0,373.0" stroke="#7F7F7F" stroke-width="1" /><polyline fill="none" opacity="1.0" points="204.0,396.0 204.0,373.0" stroke="#7F7F7F" stroke-width="1" /><polyline fill="none" opacity="1.0" points="200.0,396.0 200.0,373.0" stroke="#7F7F7F" stroke-width="1" /><polyline fill="none" opacity="1.0" points="196.0,396.0 196.0,373.0" stroke="#7F7F7F" stroke-width="1" /><polyline fill="none" opacity="1.0" points="192.0,396.0 192.0,373.0" stroke="#7F7F7F" stroke-width="1" /><polyline fill="none" opacity="1.0" points="188.0,396.0 188.0,373.0" stroke="#7F7F7F" stroke-width="1" /><polyline fill="none" opacity="1.0" points="184.0,396.0 184.0,373.0" stroke="#7F7F7F" stroke-width="1" /><polyline fill="none" opacity="1.0" points="180.0,396.0 180.0,373.0" stroke="#7F7F7F" stroke-width="1" /><polyline fill="none" opacity="1.0" points="176.0,396.0 176.0,373.0" stroke="#7F7F7F" stroke-width="1" /><polyline fill="none" opacity="1.0" points="172.0,396.0 172.0,373.0" stroke="#7F7F7F" stroke-width="1" /><polyline fill="none" opacity="1.0" points="168.0,396.0 168.0,373.0" stroke="#7F7F7F" stroke-width="1" /><polyline fill="none" opacity="1.0" points="164.0,396.0 164.0,373.0" stroke="#7F7F7F" stroke-width="1" /><polyline fill="none" opacity="1.0" points="160.0,396.0 160.0,373.0" stroke="#7F7F7F" stroke-width="1" /><polyline fill="none" opacity="1.0" points="156.0,396.0 156.0,373.0" stroke="#7F7F7F" stroke-width="1" /><polyline fill="none" opacity="1.0" points="152.0,396.0 152.0,373.0" stroke="#7F7F7F" stroke-width="1" /><polyline fill="none" opacity="1.0" points="148.0,396.0 148.0,373.0" stroke="#7F7F7F" stroke-width="1" /><polyline fill="none" opacity="1.0" points="144.0,396.0 144.0,373.0" stroke="#7F7F7F" stroke-width="1" /><polyline fill="none" opacity="1.0" points="140.0,396.0 140.0,373.0" stroke="#7F7F7F" stroke-width="1" /><polyline fill="none" opacity="1.0" points="136.0,396.0 136.0,373.0" stroke="#7F7F7F" stroke-width="1" /><polyline fill="none" opacity="1.0" points="132.0,396.0 132.0,373.0" stroke="#7F7F7F" stroke-width="1" /><polygon fill="#9B5509" opacity="1.0" points="307.0,373.0 125.0,373.0 125.0,370.0 307.0,370.0" stroke="#000" stroke-width="1" /><polygon fill="#9B5509" opacity="1.0" points="307.0,378.0 307.0,382.0 125.0,382.0 125.0,378.0" stroke="#000" stroke-width="1" /><polygon fill="#9B5509" opacity="1.0" points="307.0,387.0 307.0,391.0 125.0,391.0 125.0,387.0" stroke="#000" stroke-width="1" /><polygon fill="#9B5509" opacity="1.0" points="307.0,396.0 125.0,396.0 125.0,399.0 307.0,399.0" stroke="#000" stroke-width="1" /><polygon fill="none" opacity="1.0" points="270.0,488.0 276.0,485.0 279.0,491.0 273.0,494.0" stroke="#000" stroke-width="1" /><polyline fill="none" opacity="1.0" points="279.0,494.0 275.0,496.0" stroke="#090" stroke-width="1" /><polyline fill="none" opacity="1.0" points="280.8122,497.5659 276.8122,499.5659" stroke="#090" stroke-width="1" /><polyline fill="none" opacity="1.0" points="282.6244,501.1319 278.6244,503.1319" stroke="#090" stroke-width="1" /><polyline fill="none" opacity="1.0" points="284.4366,504.6978 280.4366,506.6978" stroke="#090" stroke-width="1" /><polyline fill="none" opacity="1.0" points="286.2488,508.2638 282.2488,510.2638" stroke="#090" stroke-width="1" /><polyline fill="none" opacity="1.0" points="288.061,511.8297 284.061,513.8297" stroke="#090" stroke-width="1" /><polyline fill="none" opacity="1.0" points="289.8732,515.3956 285.8732,517.3956" stroke="#090" stroke-width="1" /><polyline fill="none" opacity="1.0" points="291.6854,518.9616 287.6854,520.9616" stroke="#090" stroke-width="1" /><polyline fill="none" opacity="1.0" points="293.4976,522.5275 289.4976,524.5275" stroke="#090" stroke-width="1" /><polyline fill="none" opacity="1.0" points="295.3098,526.0935 291.3098,528.0935" stroke="#090" stroke-width="1" /><polyline fill="none" opacity="1.0" points="297.122,529.6594 293.122,531.6594" stroke="#090" stroke-width="1" /><polyline fill="none" opacity="1.0" points="298.9342,533.2253 294.9342,535.2253" stroke="#090" stroke-width="1" /><polyline fill="none" opacity="1.0" points="300.7464,536.7913 296.7464,538.7913" stroke="#090" stroke-width="1" /><polyline fill="none" opacity="1.0" points="302.5586,540.3572 298.5586,542.3572" stroke="#090" stroke-width="1" /><polyline fill="none" opacity="1.0" points="304.3708,543.9232 300.3708,545.9232" stroke="#090" stroke-width="1" /><polyline fill="none" opacity="1.0" points="306.183,547.4891 302.183,549.4891" stroke="#090" stroke-width="1" /><polyline fill="none" opacity="1.0" points="307.9952,551.0551 303.9952,553.0551" stroke="#090" stroke-width="1" /><polyline fill="none" opacity="1.0" points="309.8074,554.621 305.8074,556.621" stroke="#090" stroke-width="1" /><polyline fill="none" opacity="1.0" points="309.0,643.0 313.0,645.0" stroke="#090" stroke-width="1" /><polyline fill="none" opacity="1.0" points="307.2111,646.5777 311.2111,648.5777" stroke="#090" stroke-width="1" /><polyline fill="none" opacity="1.0" points="305.4223,650.1554 309.4223,652.1554" stroke="#090" stroke-width="1" /><polyline fill="none" opacity="1.0" points="303.6334,653.7331 307.6334,655.7331" stroke="#090" stroke-width="1" /><polyline fill="none" opacity="1.0" points="301.8446,657.3108 305.8446,659.3108" stroke="#090" stroke-width="1" /><polyline fill="none" opacity="1.0" points="300.0557,660.8885 304.0557,662.8885" stroke="#090" stroke-width="1" /><polyline fill="none" opacity="1.0" points="298.2669,664.4663 302.2669,666.4663" stroke="#090" stroke-width="1" /><polyline fill="none" opacity="1.0" points="296.478,668.044 300.478,670.044" stroke="#090" stroke-width="1" /><polyline fill="none" opacity="1.0" points="294.6892,671.6217 298.6892,673.6217" stroke="#090" stroke-width="1" /><polyline fill="none" opacity="1.0" points="292.9003,675.1994 296.9003,677.1994" stroke="#090" stroke-width="1" /><polyline fill="none" opacity="1.0" points="291.1115,678.7771 295.1115,680.7771" stroke="#090" stroke-width="1" /><polyline fill="none" opacity="1.0" points="289.3226,682.3548 293.3226,684.3548" stroke="#090" stroke-width="1" /><polyline fill="none" opacity="1.0" points="287.5337,685.9325 291.5337,687.9325" stroke="#090" stroke-width="1" /><polyline fill="none" opacity="1.0" points="285.7449,689.5102 289.7449,691.5102" stroke="#090" stroke-width="1" /><polyline fill="none" opacity="1.0" points="283.956,693.0879 287.956,695.0879" stroke="#090" stroke-width="1" /><polyline fill="none" opacity="1.0" points="282.1672,696.6656 286.1672,698.6656" stroke="#090" stroke-width="1" /><polyline fill="none" opacity="1.0" points="280.3783,700.2433 284.3783,702.2433" stroke="#090" stroke-width="1" /><polyline fill="none" opacity="1.0" points="243.0,435.0 247.0,433.0" stroke="#F00" stroke-width="1" /><polyline fill="none" opacity="1.0" points="244.8157,438.5642 248.8157,436.5642" stroke="#F00" stroke-width="1" /><polyline fill="none" opacity="1.0" points="246.6314,442.1283 250.6314,440.1283" stroke="#F00" stroke-width="1" /><polyline fill="none" opacity="1.0" points="248.4471,445.6925 252.4471,443.6925" stroke="#F00" stroke-width="1" /><polyline fill="none" opacity="1.0" points="250.2628,449.2566 254.2628,447.2566" stroke="#F00" stroke-width="1" /><polyline fill="none" opacity="1.0" points="252.0785,452.8208 256.0785,450.8208" stroke="#F00" stroke-width="1" /><polyline fill="none" opacity="1.0" points="253.8942,456.3849 257.8942,454.3849" stroke="#F00" stroke-width="1" /><polyline fill="none" opacity="1.0" points="255.7099,459.9491 259.7099,457.9491" stroke="#F00" stroke-width="1" /><polyline fill="none" opacity="1.0" points="257.5256,463.5133 261.5256,461.5133" stroke="#F00" stroke-width="1" /><polyline fill="none" opacity="1.0" points="259.3413,467.0774 263.3413,465.0774" stroke="#F00" stroke-width="1" /><polyline fill="none" opacity="1.0" points="261.157,470.6416 265.157,468.6416" stroke="#F00" stroke-width="1" /><polyline fill="none" opacity="1.0" points="262.9727,474.2057 266.9727,472.2057" stroke="#F00" stroke-width="1" /><polyline fill="none" opacity="1.0" points="264.7884,477.7699 268.7884,475.7699" stroke="#F00" stroke-width="1" /><polyline fill="none" opacity="1.0" points="266.6041,481.3341 270.6041,479.3341" stroke="#F00" stroke-width="1" /><polyline fill="none" opacity="1.0" points="268.4198,484.8982 272.4198,482.8982" stroke="#F00" stroke-width="1" /><polyline fill="none" opacity="1.0" points="276.0,709.0 280.0,711.0" stroke="#F00" stroke-width="1" /><polyline fill="none" opacity="1.0" points="274.1843,712.5642 278.1843,714.5642" stroke="#F00" stroke-width="1" /><polyline fill="none" opacity="1.0" points="272.3686,716.1283 276.3686,718.1283" stroke="#F00" stroke-width="1" /><polyline fill="none" opacity="1.0" points="270.5529,719.6925 274.5529,721.6925" stroke="#F00" stroke-width="1" /><polyline fill="none" opacity="1.0" points="268.7372,723.2566 272.7372,725.2566" stroke="#F00" stroke-width="1" /><polyline fill="none" opacity="1.0" points="266.9215,726.8208 270.9215,728.8208" stroke="#F00" stroke-width="1" /><polyline fill="none" opacity="1.0" points="265.1058,730.3849 269.1058,732.3849" stroke="#F00" stroke-width="1" /><polyline fill="none" opacity="1.0" points="263.2901,733.9491 267.2901,735.9491" stroke="#F00" stroke-width="1" /><polyline fill="none" opacity="1.0" points="261.4744,737.5133 265.4744,739.5133" stroke="#F00" stroke-width="1" /><polyline fill="none" opacity="1.0" points="259.6587,741.0774 263.6587,743.0774" stroke="#F00" stroke-width="1" /><polyline fill="none" opacity="1.0" points="257.843,744.6416 261.843,746.6416" stroke="#F00" stroke-width="1" /><polyline fill="none" opacity="1.0" points="256.0273,748.2057 260.0273,750.2057" stroke="#F00" stroke-width="1" /><polyline fill="none" opacity="1.0" points="254.2116,751.7699 258.2116,753.7699" stroke="#F00" stroke-width="1" /><polyline fill="none" opacity="1.0" points="252.3959,755.3341 256.3959,757.3341" stroke="#F00" stroke-width="1" /><polyline fill="none" opacity="1.0" points="250.5802,758.8982 254.5802,760.8982" stroke="#F00" stroke-width="1" /><polyline fill="none" opacity="1.0" points="299.0,460.0 277.0,460.0" stroke="#F00" stroke-width="1" /><polygon fill="#F00" opacity="1.0" points="283.3751,458.2918 277.0,460.0 283.3751,461.7082" stroke="#F00" stroke-width="1" /><polyline fill="none" opacity="1.0" points="309.0,737.0 287.0,737.0" stroke="#F00" stroke-width="1" /><polygon fill="#F00" opacity="1.0" points="293.3751,735.2918 287.0,737.0 293.3751,738.7082" stroke="#F00" stroke-width="1" /><polyline fill="none" opacity="1.0" points="247.0,522.0 271.0,522.0" stroke="#090" stroke-width="1" /><polygon fill="#090" opacity="1.0" points="264.0453,523.8635 271.0,522.0 264.0453,520.1365" stroke="#090" stroke-width="1" /><polyline fill="none" opacity="1.0" points="247.0,677.0 271.0,677.0" stroke="#090" stroke-width="1" /><polygon fill="#090" opacity="1.0" points="264.0453,678.8635 271.0,677.0 264.0453,675.1365" stroke="#090" stroke-width="1" /><polyline fill="none" opacity="1.0" points="151.0,617.0 166.0,620.0" stroke="#000" stroke-width="1" /><polyline fill="none" opacity="1.0" points="166.0,620.0 166.5781,617.2344 167.0625,614.4375 167.4531,611.6094 167.75,608.75 167.9531,605.8594 168.0625,602.9375 168.0781,599.9844 168.0,597.0 167.8281,593.9844 167.5625,590.9375 167.2031,587.8594 166.75,584.75 166.2031,581.6094 165.5625,578.4375 164.8281,575.2344 164.0,572.0" stroke="#000" stroke-width="1" /><polyline fill="none" opacity="1.0" points="149.0,575.0 164.0,572.0" stroke="#000" stroke-width="1" /><text fill="#000" font-family="Arial" font-size="10" font-weight="normal" opacity="1.0" transform="rotate(88.0 167.0,584.0) translate(0 10)" x="167.0" y="584.0">кассы</text><polygon fill="#34349C" opacity="1.0" points="219.0,563.0 223.0,566.0 222.0,567.0 218.0,564.0" stroke="#34349C" stroke-width="1" /><polygon fill="#F00" opacity="1.0" points="215.0,560.0 219.0,563.0 218.0,564.0 214.0,561.0" stroke="#F00" stroke-width="1" /><text fill="#00AFAF" font-family="Arial" font-size="15" font-weight="normal" opacity="1.0" transform="rotate(-0.0 1429.0,1067.0) translate(0 15)" x="1429.0" y="1067.0">Краснопресненская</text><text fill="#00AFAF" font-family="Arial" font-size="15" font-weight="normal" opacity="1.0" transform="rotate(-0.0 1431.0,1086.0) translate(0 15)" x="1431.0" y="1086.0">набережная</text><text fill="#00AFAF" font-family="Arial" font-size="15" font-weight="normal" opacity="1.0" transform="rotate(90.0 1535.0,681.0) translate(0 15)" x="1535.0" y="681.0">Выставочный пер.</text><text fill="#00AFAF" font-family="Arial" font-size="15" font-weight="normal" opacity="1.0" transform="rotate(90.0 1327.0,1196.0) translate(0 15)" x="1327.0" y="1196.0">мост "Багратион"</text><text fill="#00AFAF" font-family="Arial" font-size="15" font-weight="normal" opacity="1.0" transform="rotate(90.0 1291.0,1151.0) translate(0 15)" x="1291.0" y="1151.0">Кутузовский проспект &gt;&gt;</text><text fill="#00AFAF" font-family="Arial" font-size="15" font-weight="normal" opacity="1.0" transform="rotate(-0.0 1153.0,211.0) translate(0 15)" x="1153.0" y="211.0">1-й Красногвардейский проезд</text><text fill="#00AFAF" font-family="Arial" font-size="15" font-weight="normal" opacity="1.0" transform="rotate(90.0 1104.0,74.0) translate(0 15)" x="1104.0" y="74.0">улица Антонова-Овсеенко</text><text fill="#00AFAF" font-family="Arial" font-size="15" font-weight="normal" opacity="1.0" transform="rotate(-0.0 1041.0,702.0) translate(0 15)" x="1041.0" y="702.0">&lt;&lt; Международный Деловой центр</text><polygon fill="#FFD0D0" opacity="0.7" points="804.0,601.0 804.0,779.0 335.0,779.0 335.0,601.0" stroke="#FFD0D0" stroke-width="1" /><text fill="#FF4040" font-family="Arial" font-size="15" font-weight="normal" opacity="1.0" transform="rotate(-0.0 555.0,615.0) translate(0 15)" x="555.0" y="615.0">Закрыто</text><polyline fill="none" opacity="1.0" points="804.0,601.0 804.0,779.0 335.0,779.0 335.0,601.0 804.0,601.0" stroke="#FF4040" stroke-dasharray="5,5" stroke-width="1" /><g transform="rotate(30.0,855.0,610.0)"><text fill="#FFD900" font-family="Arial" font-size="25" font-weight="normal" opacity="1.0" x="288.25" y="505.5">1</text><text fill="#FFD900" font-family="Arial" font-size="25" font-weight="normal" opacity="1.0" x="620.25" y="1088.5">2</text><text fill="#FFD900" font-family="Arial" font-size="25" font-weight="normal" opacity="1.0" x="104.25" y="934.5">3</text><text fill="#FFD900" font-family="Arial" font-size="25" font-weight="normal" opacity="1.0" x="1390.25" y="300.5">4</text><text fill="#FFD900" font-family="Arial" font-size="25" font-weight="normal" opacity="1.0" x="1509.25" y="788.5">5</text></g></g></g></svg>