<?xml version="1.0" encoding="utf-8" ?>
<svg baseProfile="tiny" height="990px" version="1.2" width="710px" xmlns="http://www.w3.org/2000/svg" xmlns:ev="http://www.w3.org/2001/xml-events" xmlns:xlink="http://www.w3.org/1999/xlink"><defs /><g><g transform="rotate(70.0,355.0,495.0)"><polygon fill="#9CA4A4" opacity="100" points="792.0,448.0 342.0,448.0 342.0,418.0 792.0,418.0" stroke="#000" stroke-width="1" /><polygon fill="#9CA4A4" opacity="100" points="792.0,338.0 342.0,338.0 342.0,308.0 792.0,308.0" stroke="#000" stroke-width="1" /><text fill="#4C4C4C" font-family="Arial" font-size="20" font-weight="normal" opacity="100" transform="rotate(-360.0 351.0,283.0) translate(0 20)" x="351.0" y="283.0">&lt;&lt; Тимирязевская</text><text fill="#4C4C4C" font-family="Arial" font-size="20" font-weight="normal" opacity="100" transform="rotate(-360.0 651.0,448.0) translate(0 20)" x="651.0" y="448.0">Савёловская &gt;&gt;</text><text fill="#4C4C4C" font-family="Arial" font-size="25" font-weight="bold" opacity="100" transform="rotate(-360.0 502.0,355.0) translate(0 25)" x="502.0" y="355.0">Дмитровская</text><polygon fill="#34349C" opacity="100" points="569.0,388.0 569.0,392.0 570.0,392.0 570.0,388.0" stroke="#34349C" stroke-width="1" /><polygon fill="#F00" opacity="100" points="569.0,384.0 569.0,388.0 570.0,388.0 570.0,384.0" stroke="#F00" stroke-width="1" /><polyline fill="none" opacity="100" points="238.0,398.0 238.0,416.0 170.0,416.0 170.0,458.0 106.0,458.0 106.0,453.0 80.0,453.0 80.0,458.0 58.0,458.0 58.0,531.0 110.0,531.0" stroke="#000" stroke-width="1" /><polyline fill="none" opacity="100" points="110.0,552.0 58.0,552.0 58.0,594.0" stroke="#000" stroke-width="1" /><polyline fill="none" opacity="100" points="36.0,594.0 36.0,458.0 18.0,458.0 18.0,299.0 35.0,299.0 35.0,255.0 30.0,255.0 30.0,281.0" stroke="#000" stroke-width="1" /><polyline fill="none" opacity="100" points="11.0,281.0 11.0,197.0" stroke="#000" stroke-width="1" /><polyline fill="none" opacity="100" points="31.0,197.0 31.0,223.0 57.0,223.0 57.0,299.0 81.0,299.0 81.0,305.0 106.0,305.0 106.0,299.0 170.0,299.0 170.0,340.0 238.0,340.0 238.0,358.0" stroke="#000" stroke-width="1" /><polyline fill="none" opacity="100" points="351.0,398.0 398.0,398.0 398.0,394.0 409.0,394.0 409.0,408.0 342.0,408.0 342.0,418.0" stroke="#000" stroke-width="1" /><polyline fill="none" opacity="100" points="351.0,358.0 398.0,358.0 398.0,362.0 409.0,362.0 409.0,348.0 342.0,348.0 342.0,338.0" stroke="#000" stroke-width="1" /><polyline fill="none" opacity="100" points="108.0,552.0 108.0,531.0" stroke="#000" stroke-width="1" /><polyline fill="none" opacity="100" points="104.0,552.0 104.0,531.0" stroke="#000" stroke-width="1" /><polyline fill="none" opacity="100" points="100.0,552.0 100.0,531.0" stroke="#000" stroke-width="1" /><polyline fill="none" opacity="100" points="96.0,552.0 96.0,531.0" stroke="#000" stroke-width="1" /><polyline fill="none" opacity="100" points="92.0,552.0 92.0,531.0" stroke="#000" stroke-width="1" /><polyline fill="none" opacity="100" points="88.0,552.0 88.0,531.0" stroke="#000" stroke-width="1" /><polyline fill="none" opacity="100" points="84.0,552.0 84.0,531.0" stroke="#000" stroke-width="1" /><polyline fill="none" opacity="100" points="80.0,552.0 80.0,531.0" stroke="#000" stroke-width="1" /><polyline fill="none" opacity="100" points="76.0,552.0 76.0,531.0" stroke="#000" stroke-width="1" /><polyline fill="none" opacity="100" points="72.0,552.0 72.0,531.0" stroke="#000" stroke-width="1" /><polyline fill="none" opacity="100" points="58.0,592.0 36.0,592.0" stroke="#000" stroke-width="1" /><polyline fill="none" opacity="100" points="58.0,588.0 36.0,588.0" stroke="#000" stroke-width="1" /><polyline fill="none" opacity="100" points="58.0,584.0 36.0,584.0" stroke="#000" stroke-width="1" /><polyline fill="none" opacity="100" points="58.0,580.0 36.0,580.0" stroke="#000" stroke-width="1" /><polyline fill="none" opacity="100" points="58.0,576.0 36.0,576.0" stroke="#000" stroke-width="1" /><polyline fill="none" opacity="100" points="58.0,572.0 36.0,572.0" stroke="#000" stroke-width="1" /><polyline fill="none" opacity="100" points="58.0,568.0 36.0,568.0" stroke="#000" stroke-width="1" /><polyline fill="none" opacity="100" points="58.0,564.0 36.0,564.0" stroke="#000" stroke-width="1" /><polyline fill="none" opacity="100" points="58.0,560.0 36.0,560.0" stroke="#000" stroke-width="1" /><polyline fill="none" opacity="100" points="58.0,556.0 36.0,556.0" stroke="#000" stroke-width="1" /><polyline fill="none" opacity="100" points="30.0,279.0 11.0,279.0" stroke="#000" stroke-width="1" /><polyline fill="none" opacity="100" points="30.0,275.0 11.0,275.0" stroke="#000" stroke-width="1" /><polyline fill="none" opacity="100" points="30.0,271.0 11.0,271.0" stroke="#000" stroke-width="1" /><polyline fill="none" opacity="100" points="30.0,267.0 11.0,267.0" stroke="#000" stroke-width="1" /><polyline fill="none" opacity="100" points="30.0,263.0 11.0,263.0" stroke="#000" stroke-width="1" /><polyline fill="none" opacity="100" points="30.0,259.0 11.0,259.0" stroke="#000" stroke-width="1" /><polyline fill="none" opacity="100" points="31.0,199.0 11.0,199.0" stroke="#000" stroke-width="1" /><polyline fill="none" opacity="100" points="31.0,203.0 11.0,203.0" stroke="#000" stroke-width="1" /><polyline fill="none" opacity="100" points="31.0,207.0 11.0,207.0" stroke="#000" stroke-width="1" /><polyline fill="none" opacity="100" points="31.0,211.0 11.0,211.0" stroke="#000" stroke-width="1" /><polyline fill="none" opacity="100" points="31.0,215.0 11.0,215.0" stroke="#000" stroke-width="1" /><polyline fill="none" opacity="100" points="31.0,219.0 11.0,219.0" stroke="#000" stroke-width="1" /><polyline fill="none" opacity="100" points="57.0,296.0 35.0,296.0" stroke="#000" stroke-width="1" /><polyline fill="none" opacity="100" points="57.0,292.0 35.0,292.0" stroke="#000" stroke-width="1" /><polyline fill="none" opacity="100" points="57.0,288.0 35.0,288.0" stroke="#000" stroke-width="1" /><polyline fill="none" opacity="100" points="61.0,299.0 61.0,458.0" stroke="#000" stroke-width="1" /><polyline fill="none" opacity="100" points="65.0,299.0 65.0,458.0" stroke="#000" stroke-width="1" /><polyline fill="none" opacity="100" points="69.0,299.0 69.0,458.0" stroke="#000" stroke-width="1" /><polygon fill="#D0D0D0" opacity="100" points="100.0,427.0 79.0,427.0 79.0,330.0 100.0,330.0" stroke="#000" stroke-width="1" /><polyline fill="none" opacity="100" points="344.0,395.0 344.0,361.0" stroke="#7F7F7F" stroke-width="1" /><polyline fill="none" opacity="100" points="340.0,395.0 340.0,361.0" stroke="#7F7F7F" stroke-width="1" /><polyline fill="none" opacity="100" points="336.0,395.0 336.0,361.0" stroke="#7F7F7F" stroke-width="1" /><polyline fill="none" opacity="100" points="332.0,395.0 332.0,361.0" stroke="#7F7F7F" stroke-width="1" /><polyline fill="none" opacity="100" points="328.0,395.0 328.0,361.0" stroke="#7F7F7F" stroke-width="1" /><polyline fill="none" opacity="100" points="324.0,395.0 324.0,361.0" stroke="#7F7F7F" stroke-width="1" /><polyline fill="none" opacity="100" points="320.0,395.0 320.0,361.0" stroke="#7F7F7F" stroke-width="1" /><polyline fill="none" opacity="100" points="316.0,395.0 316.0,361.0" stroke="#7F7F7F" stroke-width="1" /><polyline fill="none" opacity="100" points="312.0,395.0 312.0,361.0" stroke="#7F7F7F" stroke-width="1" /><polyline fill="none" opacity="100" points="308.0,395.0 308.0,361.0" stroke="#7F7F7F" stroke-width="1" /><polyline fill="none" opacity="100" points="304.0,395.0 304.0,361.0" stroke="#7F7F7F" stroke-width="1" /><polyline fill="none" opacity="100" points="300.0,395.0 300.0,361.0" stroke="#7F7F7F" stroke-width="1" /><polyline fill="none" opacity="100" points="296.0,395.0 296.0,361.0" stroke="#7F7F7F" stroke-width="1" /><polyline fill="none" opacity="100" points="292.0,395.0 292.0,361.0" stroke="#7F7F7F" stroke-width="1" /><polyline fill="none" opacity="100" points="288.0,395.0 288.0,361.0" stroke="#7F7F7F" stroke-width="1" /><polyline fill="none" opacity="100" points="284.0,395.0 284.0,361.0" stroke="#7F7F7F" stroke-width="1" /><polyline fill="none" opacity="100" points="280.0,395.0 280.0,361.0" stroke="#7F7F7F" stroke-width="1" /><polyline fill="none" opacity="100" points="276.0,395.0 276.0,361.0" stroke="#7F7F7F" stroke-width="1" /><polyline fill="none" opacity="100" points="272.0,395.0 272.0,361.0" stroke="#7F7F7F" stroke-width="1" /><polyline fill="none" opacity="100" points="268.0,395.0 268.0,361.0" stroke="#7F7F7F" stroke-width="1" /><polyline fill="none" opacity="100" points="264.0,395.0 264.0,361.0" stroke="#7F7F7F" stroke-width="1" /><polyline fill="none" opacity="100" points="260.0,395.0 260.0,361.0" stroke="#7F7F7F" stroke-width="1" /><polyline fill="none" opacity="100" points="256.0,395.0 256.0,361.0" stroke="#7F7F7F" stroke-width="1" /><polyline fill="none" opacity="100" points="252.0,395.0 252.0,361.0" stroke="#7F7F7F" stroke-width="1" /><polyline fill="none" opacity="100" points="248.0,395.0 248.0,361.0" stroke="#7F7F7F" stroke-width="1" /><polyline fill="none" opacity="100" points="244.0,395.0 244.0,361.0" stroke="#7F7F7F" stroke-width="1" /><polyline fill="none" opacity="100" points="240.0,395.0 240.0,361.0" stroke="#7F7F7F" stroke-width="1" /><polyline fill="none" opacity="100" points="236.0,395.0 236.0,361.0" stroke="#7F7F7F" stroke-width="1" /><polyline fill="none" opacity="100" points="232.0,395.0 232.0,361.0" stroke="#7F7F7F" stroke-width="1" /><polyline fill="none" opacity="100" points="228.0,395.0 228.0,361.0" stroke="#7F7F7F" stroke-width="1" /><polyline fill="none" opacity="100" points="224.0,395.0 224.0,361.0" stroke="#7F7F7F" stroke-width="1" /><polyline fill="none" opacity="100" points="220.0,395.0 220.0,361.0" stroke="#7F7F7F" stroke-width="1" /><polyline fill="none" opacity="100" points="216.0,395.0 216.0,361.0" stroke="#7F7F7F" stroke-width="1" /><polyline fill="none" opacity="100" points="212.0,395.0 212.0,361.0" stroke="#7F7F7F" stroke-width="1" /><polyline fill="none" opacity="100" points="208.0,395.0 208.0,361.0" stroke="#7F7F7F" stroke-width="1" /><polyline fill="none" opacity="100" points="204.0,395.0 204.0,361.0" stroke="#7F7F7F" stroke-width="1" /><polygon fill="#9B5509" opacity="100" points="351.0,361.0 198.0,361.0 198.0,358.0 351.0,358.0" stroke="#000" stroke-width="1" /><polygon fill="#9B5509" opacity="100" points="351.0,369.0 351.0,374.0 198.0,374.0 198.0,369.0" stroke="#000" stroke-width="1" /><polygon fill="#9B5509" opacity="100" points="351.0,382.0 351.0,387.0 198.0,387.0 198.0,382.0" stroke="#000" stroke-width="1" /><polygon fill="#9B5509" opacity="100" points="351.0,395.0 198.0,395.0 198.0,398.0 351.0,398.0" stroke="#000" stroke-width="1" /><polyline fill="none" opacity="100" points="170.0,421.0 179.0,421.0 179.0,449.0 170.0,449.0" stroke="#000" stroke-width="1" /><text fill="#FFF" font-family="Arial" font-size="10" font-weight="normal" opacity="100" transform="rotate(-90.0 168.0,447.0) translate(0 10)" x="168.0" y="447.0">кассы</text><polyline fill="none" opacity="100" points="126.0,351.0 126.0,368.0" stroke="#000" stroke-width="0.5" /><polygon fill="none" opacity="100" points="126.0,368.0 130.0,372.0 126.0,376.0 122.0,372.0" stroke="#000" stroke-width="1" /><polyline fill="none" opacity="100" points="130.0,379.0 133.0,376.0" stroke="#090" stroke-width="1" /><polyline fill="none" opacity="100" points="132.8284,381.8284 135.8284,378.8284" stroke="#090" stroke-width="1" /><polyline fill="none" opacity="100" points="135.6569,384.6569 138.6569,381.6569" stroke="#090" stroke-width="1" /><polyline fill="none" opacity="100" points="138.4853,387.4853 141.4853,384.4853" stroke="#090" stroke-width="1" /><polyline fill="none" opacity="100" points="141.3137,390.3137 144.3137,387.3137" stroke="#090" stroke-width="1" /><polyline fill="none" opacity="100" points="144.1421,393.1421 147.1421,390.1421" stroke="#090" stroke-width="1" /><polyline fill="none" opacity="100" points="146.9706,395.9706 149.9706,392.9706" stroke="#090" stroke-width="1" /><polyline fill="none" opacity="100" points="149.799,398.799 152.799,395.799" stroke="#090" stroke-width="1" /><polyline fill="none" opacity="100" points="152.6274,401.6274 155.6274,398.6274" stroke="#090" stroke-width="1" /><polyline fill="none" opacity="100" points="155.4558,404.4558 158.4558,401.4558" stroke="#090" stroke-width="1" /><polyline fill="none" opacity="100" points="158.2843,407.2843 161.2843,404.2843" stroke="#090" stroke-width="1" /><polyline fill="none" opacity="100" points="161.1127,410.1127 164.1127,407.1127" stroke="#090" stroke-width="1" /><polyline fill="none" opacity="100" points="163.9411,412.9411 166.9411,409.9411" stroke="#090" stroke-width="1" /><polyline fill="none" opacity="100" points="166.7696,415.7696 169.7696,412.7696" stroke="#090" stroke-width="1" /><polyline fill="none" opacity="100" points="124.0,351.0 128.0,351.0" stroke="#F00" stroke-width="1" /><polyline fill="none" opacity="100" points="124.0,347.0 128.0,347.0" stroke="#F00" stroke-width="1" /><polyline fill="none" opacity="100" points="124.0,343.0 128.0,343.0" stroke="#F00" stroke-width="1" /><polyline fill="none" opacity="100" points="124.0,339.0 128.0,339.0" stroke="#F00" stroke-width="1" /><polyline fill="none" opacity="100" points="124.0,335.0 128.0,335.0" stroke="#F00" stroke-width="1" /><polyline fill="none" opacity="100" points="124.0,331.0 128.0,331.0" stroke="#F00" stroke-width="1" /><polyline fill="none" opacity="100" points="124.0,327.0 128.0,327.0" stroke="#F00" stroke-width="1" /><polyline fill="none" opacity="100" points="124.0,323.0 128.0,323.0" stroke="#F00" stroke-width="1" /><polyline fill="none" opacity="100" points="124.0,319.0 128.0,319.0" stroke="#F00" stroke-width="1" /><polyline fill="none" opacity="100" points="124.0,315.0 128.0,315.0" stroke="#F00" stroke-width="1" /><polyline fill="none" opacity="100" points="124.0,311.0 128.0,311.0" stroke="#F00" stroke-width="1" /><polyline fill="none" opacity="100" points="124.0,307.0 128.0,307.0" stroke="#F00" stroke-width="1" /><polyline fill="none" opacity="100" points="124.0,303.0 128.0,303.0" stroke="#F00" stroke-width="1" /><polyline fill="none" opacity="100" points="386.0,365.0 369.0,365.0" stroke="#F00" stroke-width="1" /><polygon fill="#F00" opacity="100" points="373.9262,363.68 369.0,365.0 373.9262,366.32" stroke="#F00" stroke-width="1" /><polyline fill="none" opacity="100" points="102.0,318.0 83.0,318.0" stroke="#F00" stroke-width="1" /><polygon fill="#F00" opacity="100" points="88.5058,316.5247 83.0,318.0 88.5058,319.4753" stroke="#F00" stroke-width="1" /><polyline fill="none" opacity="100" points="369.0,390.0 386.0,390.0" stroke="#090" stroke-width="1" /><polygon fill="#090" opacity="100" points="381.0738,391.32 386.0,390.0 381.0738,388.68" stroke="#090" stroke-width="1" /><polyline fill="none" opacity="100" points="83.0,440.0 103.0,440.0" stroke="#090" stroke-width="1" /><polygon fill="#090" opacity="100" points="97.2044,441.5529 103.0,440.0 97.2044,438.4471" stroke="#090" stroke-width="1" /><polygon fill="#34349C" opacity="100" points="158.0,337.0 162.0,337.0 162.0,338.0 158.0,338.0" stroke="#34349C" stroke-width="1" /><polygon fill="#F00" opacity="100" points="154.0,337.0 158.0,337.0 158.0,338.0 154.0,338.0" stroke="#F00" stroke-width="1" /><polyline fill="none" opacity="100" points="792.0,418.0 792.0,410.0 785.0,410.0 785.0,347.0 792.0,347.0 792.0,338.0" stroke="#000" stroke-width="1" /><text fill="#00AFAF" font-family="Arial" font-size="15" font-weight="normal" opacity="100" transform="rotate(-360.0 -119.0,389.0) translate(0 15)" x="-119.0" y="389.0">Дмитровское шоссе</text><text fill="#00AFAF" font-family="Arial" font-size="15" font-weight="normal" opacity="100" transform="rotate(-360.0 796.0,371.0) translate(0 15)" x="796.0" y="371.0">Бутырская улица</text><text fill="#00AFAF" font-family="Arial" font-size="15" font-weight="normal" opacity="100" transform="rotate(-90.0 -29.0,721.0) translate(0 15)" x="-29.0" y="721.0">платформа "Дмитровская"</text><g transform="rotate(-70.0,355.0,495.0)"><text fill="#040464" font-family="Arial" font-size="12" font-weight="normal" opacity="100" transform="rotate(-0.0 10.0,131.0) translate(0 12)" x="10.0" y="131.0">Схема перехода к пл."Дмитровская"' 5</text><g transform="rotate(-0.0,355.0,495.0)"><text fill="#FFD900" font-family="Arial" font-size="25" font-weight="normal" opacity="100" x="183.25" y="291.5">1</text><text fill="#FFD900" font-family="Arial" font-size="25" font-weight="normal" opacity="100" x="154.25" y="209.5">2</text><text fill="#FFD900" font-family="Arial" font-size="25" font-weight="normal" opacity="100" x="423.25" y="83.5">3</text><text fill="#FFD900" font-family="Arial" font-size="25" font-weight="normal" opacity="100" x="493.25" y="57.5">4</text></g></g></g></g></svg>