<?xml version="1.0" encoding="utf-8" ?>
<svg baseProfile="tiny" height="680px" version="1.2" width="1030px" xmlns="http://www.w3.org/2000/svg" xmlns:ev="http://www.w3.org/2001/xml-events" xmlns:xlink="http://www.w3.org/1999/xlink"><defs /><g><g transform="rotate(-15.0,515.0,340.0)"><polygon fill="#046434" opacity="100" points="310.0,227.0 760.0,227.0 760.0,257.0 310.0,257.0" stroke="#000" stroke-width="1" /><polygon fill="#046434" opacity="100" points="310.0,337.0 760.0,337.0 760.0,367.0 310.0,367.0" stroke="#000" stroke-width="1" /><text fill="#046434" font-family="Arial" font-size="20" font-weight="normal" opacity="100" transform="rotate(-0.0 313.0,203.0) translate(0 20)" x="313.0" y="203.0">&lt;&lt; Орехово</text><text fill="#046434" font-family="Arial" font-size="20" font-weight="normal" opacity="100" transform="rotate(-0.0 561.0,367.0) translate(0 20)" x="561.0" y="367.0">Красногвардейская &gt;&gt;</text><text fill="#046434" font-family="Arial" font-size="25" font-weight="bold" opacity="100" transform="rotate(-0.0 445.0,295.0) translate(0 25)" x="445.0" y="295.0">Домодедовская</text><polygon fill="#34349C" opacity="100" points="535.0,296.0 535.0,292.0 536.0,292.0 536.0,296.0" stroke="#34349C" stroke-width="1" /><polygon fill="#F00" opacity="100" points="535.0,300.0 535.0,296.0 536.0,296.0 536.0,300.0" stroke="#F00" stroke-width="1" /><polyline fill="none" opacity="100" points="310.0,257.0 310.0,276.0 236.0,276.0 236.0,238.0 141.0,238.0 141.0,241.0 131.0,241.0 131.0,238.0 124.0,238.0 124.0,80.0 376.0,80.0 376.0,91.0 398.0,129.0" stroke="#000" stroke-width="1" /><polyline fill="none" opacity="100" points="58.0,125.0 100.0,125.0 100.0,207.0 58.0,207.0" stroke="#000" stroke-width="1" /><polyline fill="none" opacity="100" points="58.0,225.0 100.0,225.0 100.0,238.0 91.0,238.0 91.0,354.0 100.0,354.0 100.0,433.0 58.0,433.0" stroke="#000" stroke-width="1" /><polyline fill="none" opacity="100" points="58.0,457.0 100.0,457.0 100.0,552.0" stroke="#000" stroke-width="1" /><polyline fill="none" opacity="100" points="124.0,552.0 124.0,510.0 192.0,510.0 192.0,552.0" stroke="#000" stroke-width="1" /><polyline fill="none" opacity="100" points="210.0,552.0 210.0,510.0 389.0,510.0 389.0,552.0" stroke="#000" stroke-width="1" /><polyline fill="none" opacity="100" points="389.0,439.0 389.0,481.0 124.0,481.0 124.0,354.0 131.0,354.0 131.0,351.0 141.0,351.0 141.0,354.0 236.0,354.0 236.0,319.0 310.0,319.0 310.0,337.0" stroke="#000" stroke-width="1" /><polyline fill="none" opacity="100" points="457.0,552.0 457.0,510.0 407.0,510.0 407.0,552.0" stroke="#000" stroke-width="1" /><polyline fill="none" opacity="100" points="475.0,552.0 475.0,481.0 407.0,481.0 407.0,439.0" stroke="#000" stroke-width="1" /><polyline fill="none" opacity="100" points="57.0,107.0 100.0,107.0 100.0,62.0 112.0,62.0 112.0,-7.0 109.0,-7.0 109.0,45.0" stroke="#000" stroke-width="1" /><polyline fill="none" opacity="100" points="97.0,45.0 97.0,-19.0 124.0,-19.0 124.0,62.0 365.0,62.0 365.0,-19.0 392.0,-19.0 392.0,45.0" stroke="#000" stroke-width="1" /><polyline fill="none" opacity="100" points="380.0,45.0 380.0,-7.0 377.0,-7.0 377.0,62.0 392.0,62.0 392.0,79.0 415.0,119.0" stroke="#000" stroke-width="1" /><polyline fill="none" opacity="100" points="104.0,80.0 104.0,104.0" stroke="#000" stroke-width="1" /><polyline fill="none" opacity="100" points="60.0,125.0 60.0,107.0" stroke="#000" stroke-width="1" /><polyline fill="none" opacity="100" points="64.0,125.0 64.0,107.0" stroke="#000" stroke-width="1" /><polyline fill="none" opacity="100" points="68.0,125.0 68.0,107.0" stroke="#000" stroke-width="1" /><polyline fill="none" opacity="100" points="72.0,125.0 72.0,107.0" stroke="#000" stroke-width="1" /><polyline fill="none" opacity="100" points="76.0,125.0 76.0,107.0" stroke="#000" stroke-width="1" /><polyline fill="none" opacity="100" points="80.0,125.0 80.0,107.0" stroke="#000" stroke-width="1" /><polyline fill="none" opacity="100" points="84.0,125.0 84.0,107.0" stroke="#000" stroke-width="1" /><polyline fill="none" opacity="100" points="88.0,125.0 88.0,107.0" stroke="#000" stroke-width="1" /><polyline fill="none" opacity="100" points="92.0,125.0 92.0,107.0" stroke="#000" stroke-width="1" /><polyline fill="none" opacity="100" points="96.0,125.0 96.0,107.0" stroke="#000" stroke-width="1" /><polyline fill="none" opacity="100" points="60.0,225.0 60.0,207.0" stroke="#000" stroke-width="1" /><polyline fill="none" opacity="100" points="64.0,225.0 64.0,207.0" stroke="#000" stroke-width="1" /><polyline fill="none" opacity="100" points="68.0,225.0 68.0,207.0" stroke="#000" stroke-width="1" /><polyline fill="none" opacity="100" points="72.0,225.0 72.0,207.0" stroke="#000" stroke-width="1" /><polyline fill="none" opacity="100" points="76.0,225.0 76.0,207.0" stroke="#000" stroke-width="1" /><polyline fill="none" opacity="100" points="80.0,225.0 80.0,207.0" stroke="#000" stroke-width="1" /><polyline fill="none" opacity="100" points="84.0,225.0 84.0,207.0" stroke="#000" stroke-width="1" /><polyline fill="none" opacity="100" points="88.0,225.0 88.0,207.0" stroke="#000" stroke-width="1" /><polyline fill="none" opacity="100" points="92.0,225.0 92.0,207.0" stroke="#000" stroke-width="1" /><polyline fill="none" opacity="100" points="96.0,225.0 96.0,207.0" stroke="#000" stroke-width="1" /><polyline fill="none" opacity="100" points="60.0,457.0 60.0,433.0" stroke="#000" stroke-width="1" /><polyline fill="none" opacity="100" points="64.0,457.0 64.0,433.0" stroke="#000" stroke-width="1" /><polyline fill="none" opacity="100" points="68.0,457.0 68.0,433.0" stroke="#000" stroke-width="1" /><polyline fill="none" opacity="100" points="72.0,457.0 72.0,433.0" stroke="#000" stroke-width="1" /><polyline fill="none" opacity="100" points="76.0,457.0 76.0,433.0" stroke="#000" stroke-width="1" /><polyline fill="none" opacity="100" points="80.0,457.0 80.0,433.0" stroke="#000" stroke-width="1" /><polyline fill="none" opacity="100" points="84.0,457.0 84.0,433.0" stroke="#000" stroke-width="1" /><polyline fill="none" opacity="100" points="88.0,457.0 88.0,433.0" stroke="#000" stroke-width="1" /><polyline fill="none" opacity="100" points="92.0,457.0 92.0,433.0" stroke="#000" stroke-width="1" /><polyline fill="none" opacity="100" points="96.0,457.0 96.0,433.0" stroke="#000" stroke-width="1" /><polyline fill="none" opacity="100" points="389.0,441.0 407.0,441.0" stroke="#000" stroke-width="1" /><polyline fill="none" opacity="100" points="389.0,445.0 407.0,445.0" stroke="#000" stroke-width="1" /><polyline fill="none" opacity="100" points="389.0,449.0 407.0,449.0" stroke="#000" stroke-width="1" /><polyline fill="none" opacity="100" points="389.0,453.0 407.0,453.0" stroke="#000" stroke-width="1" /><polyline fill="none" opacity="100" points="389.0,457.0 407.0,457.0" stroke="#000" stroke-width="1" /><polyline fill="none" opacity="100" points="389.0,461.0 407.0,461.0" stroke="#000" stroke-width="1" /><polyline fill="none" opacity="100" points="389.0,465.0 407.0,465.0" stroke="#000" stroke-width="1" /><polyline fill="none" opacity="100" points="389.0,469.0 407.0,469.0" stroke="#000" stroke-width="1" /><polyline fill="none" opacity="100" points="389.0,473.0 407.0,473.0" stroke="#000" stroke-width="1" /><polyline fill="none" opacity="100" points="389.0,477.0 407.0,477.0" stroke="#000" stroke-width="1" /><polyline fill="none" opacity="100" points="100.0,550.0 124.0,550.0" stroke="#000" stroke-width="1" /><polyline fill="none" opacity="100" points="100.0,546.0 124.0,546.0" stroke="#000" stroke-width="1" /><polyline fill="none" opacity="100" points="100.0,542.0 124.0,542.0" stroke="#000" stroke-width="1" /><polyline fill="none" opacity="100" points="100.0,538.0 124.0,538.0" stroke="#000" stroke-width="1" /><polyline fill="none" opacity="100" points="100.0,534.0 124.0,534.0" stroke="#000" stroke-width="1" /><polyline fill="none" opacity="100" points="100.0,530.0 124.0,530.0" stroke="#000" stroke-width="1" /><polyline fill="none" opacity="100" points="100.0,526.0 124.0,526.0" stroke="#000" stroke-width="1" /><polyline fill="none" opacity="100" points="100.0,522.0 124.0,522.0" stroke="#000" stroke-width="1" /><polyline fill="none" opacity="100" points="100.0,518.0 124.0,518.0" stroke="#000" stroke-width="1" /><polyline fill="none" opacity="100" points="100.0,514.0 124.0,514.0" stroke="#000" stroke-width="1" /><polyline fill="none" opacity="100" points="254.0,294.0 254.0,276.0" stroke="#000" stroke-width="1" /><polyline fill="none" opacity="100" points="258.0,294.0 258.0,276.0" stroke="#000" stroke-width="1" /><polyline fill="none" opacity="100" points="262.0,294.0 262.0,276.0" stroke="#000" stroke-width="1" /><polyline fill="none" opacity="100" points="266.0,294.0 266.0,276.0" stroke="#000" stroke-width="1" /><polyline fill="none" opacity="100" points="270.0,294.0 270.0,276.0" stroke="#000" stroke-width="1" /><polyline fill="none" opacity="100" points="274.0,294.0 274.0,276.0" stroke="#000" stroke-width="1" /><polyline fill="none" opacity="100" points="278.0,294.0 278.0,276.0" stroke="#000" stroke-width="1" /><polyline fill="none" opacity="100" points="282.0,294.0 282.0,276.0" stroke="#000" stroke-width="1" /><polyline fill="none" opacity="100" points="286.0,294.0 286.0,276.0" stroke="#000" stroke-width="1" /><polyline fill="none" opacity="100" points="290.0,294.0 290.0,276.0" stroke="#000" stroke-width="1" /><polyline fill="none" opacity="100" points="294.0,294.0 294.0,276.0" stroke="#000" stroke-width="1" /><polyline fill="none" opacity="100" points="298.0,294.0 298.0,276.0" stroke="#000" stroke-width="1" /><polyline fill="none" opacity="100" points="210.0,550.0 192.0,550.0" stroke="#000" stroke-width="1" /><polyline fill="none" opacity="100" points="210.0,546.0 192.0,546.0" stroke="#000" stroke-width="1" /><polyline fill="none" opacity="100" points="210.0,542.0 192.0,542.0" stroke="#000" stroke-width="1" /><polyline fill="none" opacity="100" points="210.0,538.0 192.0,538.0" stroke="#000" stroke-width="1" /><polyline fill="none" opacity="100" points="210.0,534.0 192.0,534.0" stroke="#000" stroke-width="1" /><polyline fill="none" opacity="100" points="210.0,530.0 192.0,530.0" stroke="#000" stroke-width="1" /><polyline fill="none" opacity="100" points="210.0,526.0 192.0,526.0" stroke="#000" stroke-width="1" /><polyline fill="none" opacity="100" points="210.0,522.0 192.0,522.0" stroke="#000" stroke-width="1" /><polyline fill="none" opacity="100" points="210.0,518.0 192.0,518.0" stroke="#000" stroke-width="1" /><polyline fill="none" opacity="100" points="210.0,514.0 192.0,514.0" stroke="#000" stroke-width="1" /><polyline fill="none" opacity="100" points="389.0,550.0 407.0,550.0" stroke="#000" stroke-width="1" /><polyline fill="none" opacity="100" points="389.0,546.0 407.0,546.0" stroke="#000" stroke-width="1" /><polyline fill="none" opacity="100" points="389.0,542.0 407.0,542.0" stroke="#000" stroke-width="1" /><polyline fill="none" opacity="100" points="389.0,538.0 407.0,538.0" stroke="#000" stroke-width="1" /><polyline fill="none" opacity="100" points="389.0,534.0 407.0,534.0" stroke="#000" stroke-width="1" /><polyline fill="none" opacity="100" points="389.0,530.0 407.0,530.0" stroke="#000" stroke-width="1" /><polyline fill="none" opacity="100" points="389.0,526.0 407.0,526.0" stroke="#000" stroke-width="1" /><polyline fill="none" opacity="100" points="389.0,522.0 407.0,522.0" stroke="#000" stroke-width="1" /><polyline fill="none" opacity="100" points="389.0,518.0 407.0,518.0" stroke="#000" stroke-width="1" /><polyline fill="none" opacity="100" points="389.0,514.0 407.0,514.0" stroke="#000" stroke-width="1" /><polyline fill="none" opacity="100" points="457.0,550.0 475.0,550.0" stroke="#000" stroke-width="1" /><polyline fill="none" opacity="100" points="457.0,546.0 475.0,546.0" stroke="#000" stroke-width="1" /><polyline fill="none" opacity="100" points="457.0,542.0 475.0,542.0" stroke="#000" stroke-width="1" /><polyline fill="none" opacity="100" points="457.0,538.0 475.0,538.0" stroke="#000" stroke-width="1" /><polyline fill="none" opacity="100" points="457.0,534.0 475.0,534.0" stroke="#000" stroke-width="1" /><polyline fill="none" opacity="100" points="457.0,530.0 475.0,530.0" stroke="#000" stroke-width="1" /><polyline fill="none" opacity="100" points="457.0,526.0 475.0,526.0" stroke="#000" stroke-width="1" /><polyline fill="none" opacity="100" points="457.0,522.0 475.0,522.0" stroke="#000" stroke-width="1" /><polyline fill="none" opacity="100" points="457.0,518.0 475.0,518.0" stroke="#000" stroke-width="1" /><polyline fill="none" opacity="100" points="457.0,514.0 475.0,514.0" stroke="#000" stroke-width="1" /><polyline fill="none" opacity="100" points="397.0,127.0 414.0,117.0" stroke="#000" stroke-width="1" /><polyline fill="none" opacity="100" points="395.0041,123.5335 412.0041,113.5335" stroke="#000" stroke-width="1" /><polyline fill="none" opacity="100" points="393.0083,120.067 410.0083,110.067" stroke="#000" stroke-width="1" /><polyline fill="none" opacity="100" points="391.0124,116.6005 408.0124,106.6005" stroke="#000" stroke-width="1" /><polyline fill="none" opacity="100" points="389.0166,113.134 406.0166,103.134" stroke="#000" stroke-width="1" /><polyline fill="none" opacity="100" points="387.0207,109.6676 404.0207,99.6676" stroke="#000" stroke-width="1" /><polyline fill="none" opacity="100" points="385.0249,106.2011 402.0249,96.2011" stroke="#000" stroke-width="1" /><polyline fill="none" opacity="100" points="383.029,102.7346 400.029,92.7346" stroke="#000" stroke-width="1" /><polyline fill="none" opacity="100" points="381.0331,99.2681 398.0331,89.2681" stroke="#000" stroke-width="1" /><polyline fill="none" opacity="100" points="379.0373,95.8016 396.0373,85.8016" stroke="#000" stroke-width="1" /><polyline fill="none" opacity="100" points="124.0,82.0 104.0,82.0" stroke="#000" stroke-width="1" /><polyline fill="none" opacity="100" points="124.0,86.0 104.0,86.0" stroke="#000" stroke-width="1" /><polyline fill="none" opacity="100" points="124.0,90.0 104.0,90.0" stroke="#000" stroke-width="1" /><polyline fill="none" opacity="100" points="124.0,94.0 104.0,94.0" stroke="#000" stroke-width="1" /><polyline fill="none" opacity="100" points="124.0,98.0 104.0,98.0" stroke="#000" stroke-width="1" /><polyline fill="none" opacity="100" points="124.0,102.0 104.0,102.0" stroke="#000" stroke-width="1" /><polygon fill="#D0D0D0" opacity="100" points="131.0,267.0 141.0,267.0 141.0,328.0 131.0,328.0" stroke="#000" stroke-width="1" /><polyline fill="none" opacity="100" points="296.0,316.0 296.0,297.0" stroke="#7F7F7F" stroke-width="1" /><polyline fill="none" opacity="100" points="292.0,316.0 292.0,297.0" stroke="#7F7F7F" stroke-width="1" /><polyline fill="none" opacity="100" points="288.0,316.0 288.0,297.0" stroke="#7F7F7F" stroke-width="1" /><polyline fill="none" opacity="100" points="284.0,316.0 284.0,297.0" stroke="#7F7F7F" stroke-width="1" /><polyline fill="none" opacity="100" points="280.0,316.0 280.0,297.0" stroke="#7F7F7F" stroke-width="1" /><polyline fill="none" opacity="100" points="276.0,316.0 276.0,297.0" stroke="#7F7F7F" stroke-width="1" /><polyline fill="none" opacity="100" points="272.0,316.0 272.0,297.0" stroke="#7F7F7F" stroke-width="1" /><polyline fill="none" opacity="100" points="268.0,316.0 268.0,297.0" stroke="#7F7F7F" stroke-width="1" /><polyline fill="none" opacity="100" points="264.0,316.0 264.0,297.0" stroke="#7F7F7F" stroke-width="1" /><polyline fill="none" opacity="100" points="260.0,316.0 260.0,297.0" stroke="#7F7F7F" stroke-width="1" /><polyline fill="none" opacity="100" points="256.0,316.0 256.0,297.0" stroke="#7F7F7F" stroke-width="1" /><polygon fill="#9B5509" opacity="100" points="303.0,297.0 251.0,297.0 251.0,294.0 303.0,294.0" stroke="#000" stroke-width="1" /><polygon fill="#9B5509" opacity="100" points="303.0,304.0 303.0,309.0 251.0,309.0 251.0,304.0" stroke="#000" stroke-width="1" /><polygon fill="#9B5509" opacity="100" points="303.0,316.0 251.0,316.0 251.0,319.0 303.0,319.0" stroke="#000" stroke-width="1" /><polyline fill="none" opacity="100" points="227.0,238.0 227.0,266.0 236.0,266.0" stroke="#000" stroke-width="1" /><text fill="#FFF" font-family="Arial" font-size="10" font-weight="normal" opacity="100" transform="rotate(-90.0 225.0,263.0) translate(0 10)" x="225.0" y="263.0">кассы</text><polyline fill="none" opacity="100" points="227.0,266.0 206.0,266.0" stroke="#000" stroke-width="0.5" /><polygon fill="none" opacity="100" points="175.0,293.0 179.0,297.0 175.0,301.0 171.0,297.0" stroke="#000" stroke-width="1" /><polyline fill="none" opacity="100" points="175.0,343.0 175.0,354.0" stroke="#000" stroke-width="0.5" /><polyline fill="none" opacity="100" points="251.0,294.0 177.0,303.0" stroke="#000" stroke-width="0.5" /><polyline fill="none" opacity="100" points="204.0,265.0 207.0,268.0" stroke="#090" stroke-width="1" /><polyline fill="none" opacity="100" points="201.1716,267.8284 204.1716,270.8284" stroke="#090" stroke-width="1" /><polyline fill="none" opacity="100" points="198.3431,270.6569 201.3431,273.6569" stroke="#090" stroke-width="1" /><polyline fill="none" opacity="100" points="195.5147,273.4853 198.5147,276.4853" stroke="#090" stroke-width="1" /><polyline fill="none" opacity="100" points="192.6863,276.3137 195.6863,279.3137" stroke="#090" stroke-width="1" /><polyline fill="none" opacity="100" points="189.8579,279.1421 192.8579,282.1421" stroke="#090" stroke-width="1" /><polyline fill="none" opacity="100" points="187.0294,281.9706 190.0294,284.9706" stroke="#090" stroke-width="1" /><polyline fill="none" opacity="100" points="184.201,284.799 187.201,287.799" stroke="#090" stroke-width="1" /><polyline fill="none" opacity="100" points="181.3726,287.6274 184.3726,290.6274" stroke="#090" stroke-width="1" /><polyline fill="none" opacity="100" points="178.5442,290.4558 181.5442,293.4558" stroke="#090" stroke-width="1" /><polyline fill="none" opacity="100" points="173.0,303.0 177.0,303.0" stroke="#F00" stroke-width="1" /><polyline fill="none" opacity="100" points="173.0,307.0 177.0,307.0" stroke="#F00" stroke-width="1" /><polyline fill="none" opacity="100" points="173.0,311.0 177.0,311.0" stroke="#F00" stroke-width="1" /><polyline fill="none" opacity="100" points="173.0,315.0 177.0,315.0" stroke="#F00" stroke-width="1" /><polyline fill="none" opacity="100" points="173.0,319.0 177.0,319.0" stroke="#F00" stroke-width="1" /><polyline fill="none" opacity="100" points="173.0,323.0 177.0,323.0" stroke="#F00" stroke-width="1" /><polyline fill="none" opacity="100" points="173.0,327.0 177.0,327.0" stroke="#F00" stroke-width="1" /><polyline fill="none" opacity="100" points="173.0,331.0 177.0,331.0" stroke="#F00" stroke-width="1" /><polyline fill="none" opacity="100" points="173.0,335.0 177.0,335.0" stroke="#F00" stroke-width="1" /><polyline fill="none" opacity="100" points="173.0,339.0 177.0,339.0" stroke="#F00" stroke-width="1" /><polyline fill="none" opacity="100" points="173.0,343.0 177.0,343.0" stroke="#F00" stroke-width="1" /><polyline fill="none" opacity="100" points="330.0,306.0 312.0,306.0" stroke="#F00" stroke-width="1" /><polygon fill="#F00" opacity="100" points="317.216,304.6024 312.0,306.0 317.216,307.3976" stroke="#F00" stroke-width="1" /><polyline fill="none" opacity="100" points="202.0,317.0 188.0,317.0" stroke="#F00" stroke-width="1" /><polygon fill="#F00" opacity="100" points="192.0569,315.913 188.0,317.0 192.0569,318.087" stroke="#F00" stroke-width="1" /><polyline fill="none" opacity="100" points="293.0,284.0 310.0,284.0" stroke="#090" stroke-width="1" /><polygon fill="#090" opacity="100" points="305.0738,285.32 310.0,284.0 305.0738,282.68" stroke="#090" stroke-width="1" /><polyline fill="none" opacity="100" points="179.0,265.0 188.0,274.0" stroke="#090" stroke-width="1" /><polygon fill="#090" opacity="100" points="184.6932,272.0908 188.0,274.0 186.0908,270.6932" stroke="#090" stroke-width="1" /><polygon fill="#34349C" opacity="100" points="158.0,267.0 154.0,267.0 154.0,268.0 158.0,268.0" stroke="#34349C" stroke-width="1" /><polygon fill="#F00" opacity="100" points="162.0,267.0 158.0,267.0 158.0,268.0 162.0,268.0" stroke="#F00" stroke-width="1" /><polyline fill="none" opacity="100" points="760.0,257.0 760.0,276.0 809.0,276.0 809.0,239.0 905.0,239.0 905.0,242.0 914.0,242.0 914.0,239.0 921.0,239.0 921.0,128.0 992.0,128.0" stroke="#000" stroke-width="1" /><polyline fill="none" opacity="100" points="992.0,151.0 951.0,151.0 951.0,239.0 962.0,239.0 962.0,355.0 951.0,355.0 951.0,408.0 992.0,408.0" stroke="#000" stroke-width="1" /><polyline fill="none" opacity="100" points="992.0,430.0 879.0,430.0" stroke="#000" stroke-width="1" /><polyline fill="none" opacity="100" points="879.0,408.0 921.0,408.0 921.0,355.0 914.0,355.0 914.0,352.0 905.0,352.0 905.0,355.0 809.0,355.0 809.0,319.0 760.0,319.0 760.0,337.0" stroke="#000" stroke-width="1" /><polyline fill="none" opacity="100" points="807.0,319.0 807.0,276.0" stroke="#000" stroke-width="1" /><polyline fill="none" opacity="100" points="803.0,319.0 803.0,276.0" stroke="#000" stroke-width="1" /><polyline fill="none" opacity="100" points="799.0,319.0 799.0,276.0" stroke="#000" stroke-width="1" /><polyline fill="none" opacity="100" points="795.0,319.0 795.0,276.0" stroke="#000" stroke-width="1" /><polyline fill="none" opacity="100" points="791.0,319.0 791.0,276.0" stroke="#000" stroke-width="1" /><polyline fill="none" opacity="100" points="787.0,319.0 787.0,276.0" stroke="#000" stroke-width="1" /><polyline fill="none" opacity="100" points="783.0,319.0 783.0,276.0" stroke="#000" stroke-width="1" /><polyline fill="none" opacity="100" points="779.0,319.0 779.0,276.0" stroke="#000" stroke-width="1" /><polyline fill="none" opacity="100" points="775.0,319.0 775.0,276.0" stroke="#000" stroke-width="1" /><polyline fill="none" opacity="100" points="771.0,319.0 771.0,276.0" stroke="#000" stroke-width="1" /><polyline fill="none" opacity="100" points="767.0,319.0 767.0,276.0" stroke="#000" stroke-width="1" /><polyline fill="none" opacity="100" points="763.0,319.0 763.0,276.0" stroke="#000" stroke-width="1" /><polyline fill="none" opacity="100" points="881.0,408.0 881.0,430.0" stroke="#000" stroke-width="1" /><polyline fill="none" opacity="100" points="885.0,408.0 885.0,430.0" stroke="#000" stroke-width="1" /><polyline fill="none" opacity="100" points="889.0,408.0 889.0,430.0" stroke="#000" stroke-width="1" /><polyline fill="none" opacity="100" points="893.0,408.0 893.0,430.0" stroke="#000" stroke-width="1" /><polyline fill="none" opacity="100" points="897.0,408.0 897.0,430.0" stroke="#000" stroke-width="1" /><polyline fill="none" opacity="100" points="901.0,408.0 901.0,430.0" stroke="#000" stroke-width="1" /><polyline fill="none" opacity="100" points="905.0,408.0 905.0,430.0" stroke="#000" stroke-width="1" /><polyline fill="none" opacity="100" points="909.0,408.0 909.0,430.0" stroke="#000" stroke-width="1" /><polyline fill="none" opacity="100" points="913.0,408.0 913.0,430.0" stroke="#000" stroke-width="1" /><polyline fill="none" opacity="100" points="917.0,408.0 917.0,430.0" stroke="#000" stroke-width="1" /><polyline fill="none" opacity="100" points="990.0,408.0 990.0,430.0" stroke="#000" stroke-width="1" /><polyline fill="none" opacity="100" points="986.0,408.0 986.0,430.0" stroke="#000" stroke-width="1" /><polyline fill="none" opacity="100" points="982.0,408.0 982.0,430.0" stroke="#000" stroke-width="1" /><polyline fill="none" opacity="100" points="978.0,408.0 978.0,430.0" stroke="#000" stroke-width="1" /><polyline fill="none" opacity="100" points="974.0,408.0 974.0,430.0" stroke="#000" stroke-width="1" /><polyline fill="none" opacity="100" points="970.0,408.0 970.0,430.0" stroke="#000" stroke-width="1" /><polyline fill="none" opacity="100" points="966.0,408.0 966.0,430.0" stroke="#000" stroke-width="1" /><polyline fill="none" opacity="100" points="962.0,408.0 962.0,430.0" stroke="#000" stroke-width="1" /><polyline fill="none" opacity="100" points="958.0,408.0 958.0,430.0" stroke="#000" stroke-width="1" /><polyline fill="none" opacity="100" points="954.0,408.0 954.0,430.0" stroke="#000" stroke-width="1" /><polyline fill="none" opacity="100" points="990.0,128.0 990.0,151.0" stroke="#000" stroke-width="1" /><polyline fill="none" opacity="100" points="986.0,128.0 986.0,151.0" stroke="#000" stroke-width="1" /><polyline fill="none" opacity="100" points="982.0,128.0 982.0,151.0" stroke="#000" stroke-width="1" /><polyline fill="none" opacity="100" points="978.0,128.0 978.0,151.0" stroke="#000" stroke-width="1" /><polyline fill="none" opacity="100" points="974.0,128.0 974.0,151.0" stroke="#000" stroke-width="1" /><polyline fill="none" opacity="100" points="970.0,128.0 970.0,151.0" stroke="#000" stroke-width="1" /><polyline fill="none" opacity="100" points="966.0,128.0 966.0,151.0" stroke="#000" stroke-width="1" /><polyline fill="none" opacity="100" points="962.0,128.0 962.0,151.0" stroke="#000" stroke-width="1" /><polyline fill="none" opacity="100" points="958.0,128.0 958.0,151.0" stroke="#000" stroke-width="1" /><polyline fill="none" opacity="100" points="954.0,128.0 954.0,151.0" stroke="#000" stroke-width="1" /><polygon fill="#D0D0D0" opacity="100" points="905.0,270.0 914.0,270.0 914.0,324.0 905.0,324.0" stroke="#000" stroke-width="1" /><polyline fill="none" opacity="100" points="818.0,239.0 818.0,267.0 809.0,267.0" stroke="#000" stroke-width="1" /><text fill="#FFF" font-family="Arial" font-size="10" font-weight="normal" opacity="100" transform="rotate(-90.0 807.0,265.0) translate(0 10)" x="807.0" y="265.0">кассы</text><polyline fill="none" opacity="100" points="818.0,267.0 839.0,267.0" stroke="#000" stroke-width="0.5" /><polygon fill="none" opacity="100" points="870.0,294.0 866.0,298.0 870.0,302.0 874.0,298.0" stroke="#000" stroke-width="1" /><polyline fill="none" opacity="100" points="870.0,344.0 870.0,355.0" stroke="#000" stroke-width="0.5" /><polyline fill="none" opacity="100" points="841.0,266.0 838.0,269.0" stroke="#090" stroke-width="1" /><polyline fill="none" opacity="100" points="843.8284,268.8284 840.8284,271.8284" stroke="#090" stroke-width="1" /><polyline fill="none" opacity="100" points="846.6569,271.6569 843.6569,274.6569" stroke="#090" stroke-width="1" /><polyline fill="none" opacity="100" points="849.4853,274.4853 846.4853,277.4853" stroke="#090" stroke-width="1" /><polyline fill="none" opacity="100" points="852.3137,277.3137 849.3137,280.3137" stroke="#090" stroke-width="1" /><polyline fill="none" opacity="100" points="855.1421,280.1421 852.1421,283.1421" stroke="#090" stroke-width="1" /><polyline fill="none" opacity="100" points="857.9706,282.9706 854.9706,285.9706" stroke="#090" stroke-width="1" /><polyline fill="none" opacity="100" points="860.799,285.799 857.799,288.799" stroke="#090" stroke-width="1" /><polyline fill="none" opacity="100" points="863.6274,288.6274 860.6274,291.6274" stroke="#090" stroke-width="1" /><polyline fill="none" opacity="100" points="866.4558,291.4558 863.4558,294.4558" stroke="#090" stroke-width="1" /><polyline fill="none" opacity="100" points="872.0,304.0 868.0,304.0" stroke="#F00" stroke-width="1" /><polyline fill="none" opacity="100" points="872.0,308.0 868.0,308.0" stroke="#F00" stroke-width="1" /><polyline fill="none" opacity="100" points="872.0,312.0 868.0,312.0" stroke="#F00" stroke-width="1" /><polyline fill="none" opacity="100" points="872.0,316.0 868.0,316.0" stroke="#F00" stroke-width="1" /><polyline fill="none" opacity="100" points="872.0,320.0 868.0,320.0" stroke="#F00" stroke-width="1" /><polyline fill="none" opacity="100" points="872.0,324.0 868.0,324.0" stroke="#F00" stroke-width="1" /><polyline fill="none" opacity="100" points="872.0,328.0 868.0,328.0" stroke="#F00" stroke-width="1" /><polyline fill="none" opacity="100" points="872.0,332.0 868.0,332.0" stroke="#F00" stroke-width="1" /><polyline fill="none" opacity="100" points="872.0,336.0 868.0,336.0" stroke="#F00" stroke-width="1" /><polyline fill="none" opacity="100" points="872.0,340.0 868.0,340.0" stroke="#F00" stroke-width="1" /><polyline fill="none" opacity="100" points="872.0,344.0 868.0,344.0" stroke="#F00" stroke-width="1" /><polyline fill="none" opacity="100" points="846.0,330.0 862.0,330.0" stroke="#F00" stroke-width="1" /><polygon fill="#F00" opacity="100" points="857.3636,331.2423 862.0,330.0 857.3636,328.7577" stroke="#F00" stroke-width="1" /><polyline fill="none" opacity="100" points="873.0,265.0 862.0,276.0" stroke="#090" stroke-width="1" /><polygon fill="#090" opacity="100" points="864.3335,271.9583 862.0,276.0 866.0417,273.6665" stroke="#090" stroke-width="1" /><polygon fill="#34349C" opacity="100" points="838.0,320.0 834.0,320.0 834.0,321.0 838.0,321.0" stroke="#34349C" stroke-width="1" /><polygon fill="#F00" opacity="100" points="842.0,320.0 838.0,320.0 838.0,321.0 842.0,321.0" stroke="#F00" stroke-width="1" /><text fill="#00AFAF" font-family="Arial" font-size="15" font-weight="normal" opacity="100" transform="rotate(90.0 1036.0,243.0) translate(0 15)" x="1036.0" y="243.0">улица Генерала Белова</text><text fill="#00AFAF" font-family="Arial" font-size="15" font-weight="normal" opacity="100" transform="rotate(90.0 256.0,-69.0) translate(0 15)" x="256.0" y="-69.0">Каширское шоссе</text><text fill="#00AFAF" font-family="Arial" font-size="15" font-weight="normal" opacity="100" transform="rotate(-0.0 208.0,158.0) translate(0 15)" x="208.0" y="158.0">Ореховый бульвар</text><text fill="#00AFAF" font-family="Arial" font-size="15" font-weight="normal" opacity="100" transform="rotate(90.0 307.0,516.0) translate(0 15)" x="307.0" y="516.0">Каширское шоссе</text><text fill="#000" font-family="Arial" font-size="12" font-weight="normal" opacity="100" transform="rotate(90.0 163.0,-88.0) translate(0 12)" x="163.0" y="-88.0">Автобус №308</text><text fill="#000" font-family="Arial" font-size="12" font-weight="normal" opacity="100" transform="rotate(90.0 149.0,-93.0) translate(0 12)" x="149.0" y="-93.0">до аэропорта "Домодедово"</text><text fill="#FFF" font-family="Arial" font-size="20" font-weight="bold" opacity="100" transform="rotate(15.0 159.0,-3.0) translate(0 20)" x="159.0" y="-3.0">A</text><g transform="rotate(15.0,515.0,340.0)"><text fill="#FFD900" font-family="Arial" font-size="25" font-weight="normal" opacity="100" x="950.25" y="39.5">1</text><text fill="#FFD900" font-family="Arial" font-size="25" font-weight="normal" opacity="100" x="984.25" y="349.5">2</text><text fill="#FFD900" font-family="Arial" font-size="25" font-weight="normal" opacity="100" x="898.25" y="368.5">3</text><text fill="#FFD900" font-family="Arial" font-size="25" font-weight="normal" opacity="100" x="367.25" y="126.5">4</text><text fill="#FFD900" font-family="Arial" font-size="25" font-weight="normal" opacity="100" x="328.25" y="73.5">5</text><text fill="#FFD900" font-family="Arial" font-size="25" font-weight="normal" opacity="100" x="-2.75" y="156.5">6</text><text fill="#FFD900" font-family="Arial" font-size="25" font-weight="normal" opacity="100" x="6.25" y="219.5">7</text><text fill="#FFD900" font-family="Arial" font-size="25" font-weight="normal" opacity="100" x="38.25" y="314.5">8</text><text fill="#FFD900" font-family="Arial" font-size="25" font-weight="normal" opacity="100" x="97.25" y="533.5">9</text><text fill="#FFD900" font-family="Arial" font-size="25" font-weight="normal" opacity="100" x="125.25" y="650.5">10</text><text fill="#FFD900" font-family="Arial" font-size="25" font-weight="normal" opacity="100" x="217.25" y="627.5">11</text><text fill="#FFD900" font-family="Arial" font-size="25" font-weight="normal" opacity="100" x="406.25" y="578.5">12</text><text fill="#FFD900" font-family="Arial" font-size="25" font-weight="normal" opacity="100" x="382.25" y="488.5">13</text><text fill="#FFD900" font-family="Arial" font-size="25" font-weight="normal" opacity="100" x="537.25" y="550.5">14</text></g></g></g></svg>