<?xml version="1.0" encoding="utf-8" ?>
<svg baseProfile="tiny" height="800px" version="1.2" width="1180px" xmlns="http://www.w3.org/2000/svg" xmlns:ev="http://www.w3.org/2001/xml-events" xmlns:xlink="http://www.w3.org/1999/xlink"><defs /><g><g transform="rotate(10.0,590.0,400.0)"><polygon fill="#84BC54" opacity="100" points="332.0,132.0 302.0,132.0 302.0,582.0 332.0,582.0" stroke="#000" stroke-width="1" /><polygon fill="#84BC54" opacity="100" points="412.0,132.0 442.0,132.0 442.0,582.0 412.0,582.0" stroke="#000" stroke-width="1" /><text fill="#84BC54" font-family="Arial" font-size="25" font-weight="bold" opacity="100" transform="rotate(-90.0 341.0,434.0) translate(0 25)" x="341.0" y="434.0">Достоевская</text><text fill="#84BC54" font-family="Arial" font-size="20" font-weight="normal" opacity="100" transform="rotate(-90.0 277.0,579.0) translate(0 20)" x="277.0" y="579.0">&lt;&lt; Трубная</text><text fill="#84BC54" font-family="Arial" font-size="20" font-weight="normal" opacity="100" transform="rotate(-90.0 442.0,287.0) translate(0 20)" x="442.0" y="287.0">Марьина Роща &gt;&gt;</text><polygon fill="#34349C" opacity="100" points="373.0,356.0 369.0,356.0 369.0,357.0 373.0,357.0" stroke="#34349C" stroke-width="1" /><polygon fill="#F00" opacity="100" points="377.0,356.0 373.0,356.0 373.0,357.0 377.0,357.0" stroke="#F00" stroke-width="1" /><polyline fill="none" opacity="100" points="189.0,376.0 201.0,336.0 249.0,349.0 236.0,399.0 220.0,422.0 205.0,432.0 240.0,486.0 274.0,464.0" stroke="#000" stroke-width="1" /><polyline fill="none" opacity="100" points="286.0,481.0 151.0,569.0" stroke="#000" stroke-width="1" /><polyline fill="none" opacity="100" points="139.0,552.0 176.0,528.0 131.0,460.0 149.0,448.0 128.0,434.0 109.0,462.0 36.0,413.0 138.0,261.0 156.0,273.0" stroke="#000" stroke-width="1" /><polyline fill="none" opacity="100" points="188.0,294.0 211.0,310.0 143.0,411.0 172.0,431.0 208.0,407.0 222.0,387.0 227.0,369.0 216.0,366.0 218.0,358.0 211.0,356.0 204.0,380.0" stroke="#000" stroke-width="1" /><polyline fill="none" opacity="100" points="332.0,132.0 349.0,132.0 349.0,200.0 356.0,200.0 356.0,87.0 351.0,87.0" stroke="#000" stroke-width="1" /><polyline fill="none" opacity="100" points="412.0,132.0 395.0,132.0 395.0,200.0 388.0,200.0 388.0,50.0 333.0,50.0" stroke="#000" stroke-width="1" /><polyline fill="none" opacity="100" points="285.0,151.0 316.0,104.0" stroke="#000" stroke-width="1" /><polyline fill="none" opacity="100" points="252.0,131.0 283.0,84.0" stroke="#000" stroke-width="1" /><polyline fill="none" opacity="100" points="283.0,84.0 285.4219,80.0 287.9375,76.25 290.5469,72.75 293.25,69.5 296.0469,66.5 298.9375,63.75 301.9219,61.25 305.0,59.0 308.1719,57.0 311.4375,55.25 314.7969,53.75 318.25,52.5 321.7969,51.5 325.4375,50.75 329.1719,50.25 333.0,50.0" stroke="#000" stroke-width="1" /><polyline fill="none" opacity="100" points="316.0,104.0 317.6016,101.8828 319.2812,99.9062 321.0391,98.0703 322.875,96.375 324.7891,94.8203 326.7812,93.4062 328.8516,92.1328 331.0,91.0 333.2266,90.0078 335.5312,89.1562 337.9141,88.4453 340.375,87.875 342.9141,87.4453 345.5312,87.1562 348.2266,87.0078 351.0,87.0" stroke="#000" stroke-width="1" /><polyline fill="none" opacity="100" points="152.0,568.0 141.0,551.0" stroke="#000" stroke-width="1" /><polyline fill="none" opacity="100" points="155.3442,565.8054 144.3442,548.8054" stroke="#000" stroke-width="1" /><polyline fill="none" opacity="100" points="158.6884,563.6107 147.6884,546.6107" stroke="#000" stroke-width="1" /><polyline fill="none" opacity="100" points="162.0326,561.4161 151.0326,544.4161" stroke="#000" stroke-width="1" /><polyline fill="none" opacity="100" points="165.3768,559.2215 154.3768,542.2215" stroke="#000" stroke-width="1" /><polyline fill="none" opacity="100" points="168.721,557.0269 157.721,540.0269" stroke="#000" stroke-width="1" /><polyline fill="none" opacity="100" points="172.0651,554.8322 161.0651,537.8322" stroke="#000" stroke-width="1" /><polyline fill="none" opacity="100" points="175.4093,552.6376 164.4093,535.6376" stroke="#000" stroke-width="1" /><polyline fill="none" opacity="100" points="178.7535,550.443 167.7535,533.443" stroke="#000" stroke-width="1" /><polyline fill="none" opacity="100" points="182.0977,548.2484 171.0977,531.2484" stroke="#000" stroke-width="1" /><polyline fill="none" opacity="100" points="284.0,482.0 273.0,465.0" stroke="#000" stroke-width="1" /><polyline fill="none" opacity="100" points="280.6388,484.1685 269.6388,467.1685" stroke="#000" stroke-width="1" /><polyline fill="none" opacity="100" points="277.2776,486.337 266.2776,469.337" stroke="#000" stroke-width="1" /><polyline fill="none" opacity="100" points="273.9164,488.5055 262.9164,471.5055" stroke="#000" stroke-width="1" /><polyline fill="none" opacity="100" points="270.5553,490.674 259.5553,473.674" stroke="#000" stroke-width="1" /><polyline fill="none" opacity="100" points="267.1941,492.8425 256.1941,475.8425" stroke="#000" stroke-width="1" /><polyline fill="none" opacity="100" points="263.8329,495.011 252.8329,478.011" stroke="#000" stroke-width="1" /><polyline fill="none" opacity="100" points="260.4717,497.1796 249.4717,480.1796" stroke="#000" stroke-width="1" /><polyline fill="none" opacity="100" points="257.1105,499.3481 246.1105,482.3481" stroke="#000" stroke-width="1" /><polyline fill="none" opacity="100" points="253.7493,501.5166 242.7493,484.5166" stroke="#000" stroke-width="1" /><polyline fill="none" opacity="100" points="210.0,358.0 196.0,354.0" stroke="#000" stroke-width="1" /><polyline fill="none" opacity="100" points="208.9011,361.8461 194.9011,357.8461" stroke="#000" stroke-width="1" /><polyline fill="none" opacity="100" points="207.8022,365.6922 193.8022,361.6922" stroke="#000" stroke-width="1" /><polyline fill="none" opacity="100" points="206.7033,369.5383 192.7033,365.5383" stroke="#000" stroke-width="1" /><polyline fill="none" opacity="100" points="205.6045,373.3844 191.6045,369.3844" stroke="#000" stroke-width="1" /><polyline fill="none" opacity="100" points="204.5056,377.2305 190.5056,373.2305" stroke="#000" stroke-width="1" /><polyline fill="none" opacity="100" points="216.0,357.0 220.0,341.0" stroke="#000" stroke-width="1" /><polyline fill="none" opacity="100" points="212.0777,356.2155 216.0777,340.2155" stroke="#000" stroke-width="1" /><polyline fill="none" opacity="100" points="388.0,196.0 356.0,196.0" stroke="#000" stroke-width="1" /><polyline fill="none" opacity="100" points="388.0,192.0 356.0,192.0" stroke="#000" stroke-width="1" /><polyline fill="none" opacity="100" points="388.0,188.0 356.0,188.0" stroke="#000" stroke-width="1" /><polyline fill="none" opacity="100" points="388.0,184.0 356.0,184.0" stroke="#000" stroke-width="1" /><polyline fill="none" opacity="100" points="388.0,180.0 356.0,180.0" stroke="#000" stroke-width="1" /><polyline fill="none" opacity="100" points="388.0,176.0 356.0,176.0" stroke="#000" stroke-width="1" /><polyline fill="none" opacity="100" points="388.0,172.0 356.0,172.0" stroke="#000" stroke-width="1" /><polyline fill="none" opacity="100" points="388.0,168.0 356.0,168.0" stroke="#000" stroke-width="1" /><polyline fill="none" opacity="100" points="388.0,164.0 356.0,164.0" stroke="#000" stroke-width="1" /><polyline fill="none" opacity="100" points="388.0,160.0 356.0,160.0" stroke="#000" stroke-width="1" /><polyline fill="none" opacity="100" points="388.0,156.0 356.0,156.0" stroke="#000" stroke-width="1" /><polyline fill="none" opacity="100" points="388.0,152.0 356.0,152.0" stroke="#000" stroke-width="1" /><polyline fill="none" opacity="100" points="356.0,87.0 356.0,73.0" stroke="#000" stroke-width="1" /><polyline fill="none" opacity="100" points="352.0,87.0 352.0,73.0" stroke="#000" stroke-width="1" /><polyline fill="none" opacity="100" points="356.0,65.0 356.0,50.0" stroke="#000" stroke-width="1" /><polyline fill="none" opacity="100" points="352.0,65.0 352.0,50.0" stroke="#000" stroke-width="1" /><polyline fill="none" opacity="100" points="145.0,436.0 156.0,420.0" stroke="#000" stroke-width="1" /><polyline fill="none" opacity="100" points="141.6254,433.8525 152.6254,417.8525" stroke="#000" stroke-width="1" /><polyline fill="none" opacity="100" points="138.2507,431.705 149.2507,415.705" stroke="#000" stroke-width="1" /><polyline fill="none" opacity="100" points="134.8761,429.5575 145.8761,413.5575" stroke="#000" stroke-width="1" /><polyline fill="none" opacity="100" points="147.0,438.0 120.0,420.0" stroke="#000" stroke-width="1" /><polyline fill="none" opacity="100" points="128.0,434.0 116.0,426.0" stroke="#000" stroke-width="1" /><polygon fill="#D0D0D0" opacity="100" points="349.0,73.0 362.0,73.0 362.0,65.0 349.0,65.0" stroke="#000" stroke-width="1" /><polyline fill="none" opacity="100" points="152.0,282.0 181.0,301.0" stroke="#7F7F7F" stroke-width="1" /><polyline fill="none" opacity="100" points="154.2499,278.6927 183.2499,297.6927" stroke="#7F7F7F" stroke-width="1" /><polyline fill="none" opacity="100" points="156.4997,275.3854 185.4997,294.3854" stroke="#7F7F7F" stroke-width="1" /><polyline fill="none" opacity="100" points="158.7496,272.0781 187.7496,291.0781" stroke="#7F7F7F" stroke-width="1" /><polyline fill="none" opacity="100" points="160.9994,268.7709 189.9994,287.7709" stroke="#7F7F7F" stroke-width="1" /><polyline fill="none" opacity="100" points="163.2493,265.4636 192.2493,284.4636" stroke="#7F7F7F" stroke-width="1" /><polyline fill="none" opacity="100" points="165.4991,262.1563 194.4991,281.1563" stroke="#7F7F7F" stroke-width="1" /><polyline fill="none" opacity="100" points="167.749,258.849 196.749,277.849" stroke="#7F7F7F" stroke-width="1" /><polyline fill="none" opacity="100" points="169.9988,255.5417 198.9988,274.5417" stroke="#7F7F7F" stroke-width="1" /><polyline fill="none" opacity="100" points="172.2487,252.2344 201.2487,271.2344" stroke="#7F7F7F" stroke-width="1" /><polyline fill="none" opacity="100" points="174.4986,248.9271 203.4986,267.9271" stroke="#7F7F7F" stroke-width="1" /><polyline fill="none" opacity="100" points="176.7484,245.6198 205.7484,264.6198" stroke="#7F7F7F" stroke-width="1" /><polyline fill="none" opacity="100" points="178.9983,242.3126 207.9983,261.3126" stroke="#7F7F7F" stroke-width="1" /><polyline fill="none" opacity="100" points="181.2481,239.0053 210.2481,258.0053" stroke="#7F7F7F" stroke-width="1" /><polyline fill="none" opacity="100" points="183.498,235.698 212.498,254.698" stroke="#7F7F7F" stroke-width="1" /><polyline fill="none" opacity="100" points="185.7478,232.3907 214.7478,251.3907" stroke="#7F7F7F" stroke-width="1" /><polyline fill="none" opacity="100" points="187.9977,229.0834 216.9977,248.0834" stroke="#7F7F7F" stroke-width="1" /><polyline fill="none" opacity="100" points="190.2475,225.7761 219.2475,244.7761" stroke="#7F7F7F" stroke-width="1" /><polyline fill="none" opacity="100" points="192.4974,222.4688 221.4974,241.4688" stroke="#7F7F7F" stroke-width="1" /><polyline fill="none" opacity="100" points="194.7473,219.1615 223.7473,238.1615" stroke="#7F7F7F" stroke-width="1" /><polyline fill="none" opacity="100" points="196.9971,215.8543 225.9971,234.8543" stroke="#7F7F7F" stroke-width="1" /><polyline fill="none" opacity="100" points="199.247,212.547 228.247,231.547" stroke="#7F7F7F" stroke-width="1" /><polyline fill="none" opacity="100" points="201.4968,209.2397 230.4968,228.2397" stroke="#7F7F7F" stroke-width="1" /><polyline fill="none" opacity="100" points="203.7467,205.9324 232.7467,224.9324" stroke="#7F7F7F" stroke-width="1" /><polyline fill="none" opacity="100" points="205.9965,202.6251 234.9965,221.6251" stroke="#7F7F7F" stroke-width="1" /><polyline fill="none" opacity="100" points="208.2464,199.3178 237.2464,218.3178" stroke="#7F7F7F" stroke-width="1" /><polyline fill="none" opacity="100" points="210.4962,196.0105 239.4962,215.0105" stroke="#7F7F7F" stroke-width="1" /><polyline fill="none" opacity="100" points="212.7461,192.7032 241.7461,211.7032" stroke="#7F7F7F" stroke-width="1" /><polyline fill="none" opacity="100" points="214.996,189.396 243.996,208.396" stroke="#7F7F7F" stroke-width="1" /><polyline fill="none" opacity="100" points="217.2458,186.0887 246.2458,205.0887" stroke="#7F7F7F" stroke-width="1" /><polyline fill="none" opacity="100" points="219.4957,182.7814 248.4957,201.7814" stroke="#7F7F7F" stroke-width="1" /><polyline fill="none" opacity="100" points="221.7455,179.4741 250.7455,198.4741" stroke="#7F7F7F" stroke-width="1" /><polyline fill="none" opacity="100" points="223.9954,176.1668 252.9954,195.1668" stroke="#7F7F7F" stroke-width="1" /><polyline fill="none" opacity="100" points="226.2452,172.8595 255.2452,191.8595" stroke="#7F7F7F" stroke-width="1" /><polyline fill="none" opacity="100" points="228.4951,169.5522 257.4951,188.5522" stroke="#7F7F7F" stroke-width="1" /><polyline fill="none" opacity="100" points="230.7449,166.2449 259.7449,185.2449" stroke="#7F7F7F" stroke-width="1" /><polyline fill="none" opacity="100" points="232.9948,162.9377 261.9948,181.9377" stroke="#7F7F7F" stroke-width="1" /><polyline fill="none" opacity="100" points="235.2447,159.6304 264.2447,178.6304" stroke="#7F7F7F" stroke-width="1" /><polyline fill="none" opacity="100" points="237.4945,156.3231 266.4945,175.3231" stroke="#7F7F7F" stroke-width="1" /><polyline fill="none" opacity="100" points="239.7444,153.0158 268.7444,172.0158" stroke="#7F7F7F" stroke-width="1" /><polyline fill="none" opacity="100" points="241.9942,149.7085 270.9942,168.7085" stroke="#7F7F7F" stroke-width="1" /><polyline fill="none" opacity="100" points="244.2441,146.4012 273.2441,165.4012" stroke="#7F7F7F" stroke-width="1" /><polyline fill="none" opacity="100" points="246.4939,143.0939 275.4939,162.0939" stroke="#7F7F7F" stroke-width="1" /><polyline fill="none" opacity="100" points="248.7438,139.7866 277.7438,158.7866" stroke="#7F7F7F" stroke-width="1" /><polyline fill="none" opacity="100" points="250.9936,136.4794 279.9936,155.4794" stroke="#7F7F7F" stroke-width="1" /><polygon fill="#9B5509" opacity="100" points="147.0,286.0 252.0,131.0 254.0,132.0 149.0,287.0" stroke="#000" stroke-width="1" /><polygon fill="#9B5509" opacity="100" points="154.0,290.0 259.0,135.0 262.0,137.0 157.0,292.0" stroke="#000" stroke-width="1" /><polygon fill="#9B5509" opacity="100" points="162.0,295.0 267.0,140.0 270.0,142.0 165.0,297.0" stroke="#000" stroke-width="1" /><polygon fill="#9B5509" opacity="100" points="170.0,300.0 275.0,145.0 278.0,147.0 173.0,302.0" stroke="#000" stroke-width="1" /><polygon fill="#9B5509" opacity="100" points="178.0,305.0 283.0,150.0 285.0,151.0 180.0,306.0" stroke="#000" stroke-width="1" /><polyline fill="none" opacity="100" points="95.0,378.0 99.0,372.0 124.0,389.0 120.0,395.0 95.0,378.0" stroke="#000" stroke-width="1" /><text fill="#FFF" font-family="Arial" font-size="10" font-weight="normal" opacity="100" transform="rotate(34.0 103.0,371.0) translate(0 10)" x="103.0" y="371.0">кассы</text><polyline fill="none" opacity="100" points="103.0,314.0 109.0,318.0" stroke="#000" stroke-width="1" /><polygon fill="none" opacity="100" points="135.0,339.0 139.0,333.0 145.0,337.0 141.0,343.0" stroke="#000" stroke-width="1" /><polyline fill="none" opacity="100" points="166.0,355.0 176.0,362.0" stroke="#000" stroke-width="1" /><polyline fill="none" opacity="100" points="109.0,320.0 111.0,317.0" stroke="#090" stroke-width="1" /><polyline fill="none" opacity="100" points="112.3691,322.1562 114.3691,319.1562" stroke="#090" stroke-width="1" /><polyline fill="none" opacity="100" points="115.7382,324.3124 117.7382,321.3124" stroke="#090" stroke-width="1" /><polyline fill="none" opacity="100" points="119.1073,326.4686 121.1073,323.4686" stroke="#090" stroke-width="1" /><polyline fill="none" opacity="100" points="122.4763,328.6249 124.4763,325.6249" stroke="#090" stroke-width="1" /><polyline fill="none" opacity="100" points="125.8454,330.7811 127.8454,327.7811" stroke="#090" stroke-width="1" /><polyline fill="none" opacity="100" points="129.2145,332.9373 131.2145,329.9373" stroke="#090" stroke-width="1" /><polyline fill="none" opacity="100" points="132.5836,335.0935 134.5836,332.0935" stroke="#090" stroke-width="1" /><polyline fill="none" opacity="100" points="145.0,343.0 147.0,340.0" stroke="#F00" stroke-width="1" /><polyline fill="none" opacity="100" points="148.2769,345.2938 150.2769,342.2938" stroke="#F00" stroke-width="1" /><polyline fill="none" opacity="100" points="151.5539,347.5877 153.5539,344.5877" stroke="#F00" stroke-width="1" /><polyline fill="none" opacity="100" points="154.8308,349.8815 156.8308,346.8815" stroke="#F00" stroke-width="1" /><polyline fill="none" opacity="100" points="158.1077,352.1754 160.1077,349.1754" stroke="#F00" stroke-width="1" /><polyline fill="none" opacity="100" points="161.3846,354.4692 163.3846,351.4692" stroke="#F00" stroke-width="1" /><polyline fill="none" opacity="100" points="164.6616,356.7631 166.6616,353.7631" stroke="#F00" stroke-width="1" /><polygon fill="#D0EFFF" opacity="100" points="217.0,366.0 215.0,374.0 223.0,376.0 225.0,368.0" stroke="#000" stroke-width="1" /><text fill="#000" font-family="Arial" font-size="7" font-weight="normal" opacity="100" transform="rotate(-75.0 209.0,391.0) translate(0 7)" x="209.0" y="391.0">лифт</text><polyline fill="none" opacity="100" points="167.0,328.0 159.0,340.0" stroke="#F00" stroke-width="1" /><polygon fill="#F00" opacity="100" points="160.3865,335.9015 159.0,340.0 162.25,337.1438" stroke="#F00" stroke-width="1" /><polyline fill="none" opacity="100" points="112.0,348.0 120.0,336.0" stroke="#090" stroke-width="1" /><polygon fill="#090" opacity="100" points="118.6135,340.0985 120.0,336.0 116.75,338.8562" stroke="#090" stroke-width="1" /><polygon fill="#34349C" opacity="100" points="112.0,377.0 109.0,375.0 109.0,376.0 112.0,378.0" stroke="#34349C" stroke-width="1" /><polygon fill="#F00" opacity="100" points="115.0,379.0 112.0,377.0 112.0,378.0 115.0,380.0" stroke="#F00" stroke-width="1" /><polyline fill="none" opacity="100" points="332.0,582.0 350.0,582.0 350.0,531.0 395.0,531.0 395.0,582.0 412.0,582.0" stroke="#000" stroke-width="1" /><text fill="#00AFAF" font-family="Arial" font-size="15" font-weight="normal" opacity="100" transform="rotate(-33.0 32.0,574.0) translate(0 15)" x="32.0" y="574.0">Селезневская улица</text><text fill="#00AFAF" font-family="Arial" font-size="15" font-weight="normal" opacity="100" transform="rotate(-333.0 475.0,266.0) translate(0 15)" x="475.0" y="266.0">Суворовская площадь</text><text fill="#00AFAF" font-family="Arial" font-size="15" font-weight="normal" opacity="100" transform="rotate(-23.0 52.0,164.0) translate(0 15)" x="52.0" y="164.0">Театр Российской армии</text><polygon fill="#9B5509" opacity="0.2" points="920.0,617.0 920.0,587.0 470.0,587.0 470.0,617.0" stroke="#000" stroke-width="1" /><polygon fill="#9B5509" opacity="0.2" points="920.0,697.0 920.0,727.0 470.0,727.0 470.0,697.0" stroke="#000" stroke-width="1" /><text fill="#543C04" font-family="Arial" font-size="25" font-weight="bold" opacity="0.2" transform="rotate(-0.0 536.0,638.0) translate(0 25)" x="536.0" y="638.0">Суворовская площадь</text><text fill="#543C04" font-family="Arial" font-size="20" font-weight="normal" opacity="0.2" transform="rotate(-0.0 622.0,669.0) translate(0 20)" x="622.0" y="669.0">(проект)</text><text fill="#543C04" font-family="Arial" font-size="20" font-weight="normal" opacity="0.2" transform="rotate(-0.0 472.0,563.0) translate(0 20)" x="472.0" y="563.0">&lt;&lt; Новослободская</text><text fill="#543C04" font-family="Arial" font-size="20" font-weight="normal" opacity="0.2" transform="rotate(-0.0 766.0,727.0) translate(0 20)" x="766.0" y="727.0">Проспект Мира &gt;&gt;</text><polyline fill="none" opacity="0.2" points="401.0,369.0 444.0,369.0 451.0,362.0 444.0,355.0 401.0,355.0" stroke="#000" stroke-width="1" /><polyline fill="none" opacity="0.2" points="401.0,383.0 444.0,383.0 475.0,376.0 500.0,376.0 536.0,412.0 538.0,410.0" stroke="#000" stroke-width="1" /><polyline fill="none" opacity="0.2" points="401.0,341.0 444.0,341.0 475.0,347.0 517.0,347.0 559.0,389.0 557.0,391.0" stroke="#000" stroke-width="1" /><polyline fill="none" opacity="0.2" points="598.0,470.0 592.0,476.0 612.0,496.0 614.0,494.0" stroke="#000" stroke-width="1" /><polyline fill="none" opacity="0.2" points="614.0,494.0 635.0,515.0" stroke="#000" stroke-width="1" /><polyline fill="none" opacity="0.2" points="664.0,557.0 664.0,624.0" stroke="#000" stroke-width="1" /><polyline fill="none" opacity="0.2" points="708.0,624.0 708.0,557.0" stroke="#000" stroke-width="1" /><polyline fill="none" opacity="0.2" points="689.0,515.0 641.0,467.0 643.0,465.0 623.0,445.0 617.0,451.0" stroke="#000" stroke-width="1" /><polyline fill="none" opacity="0.2" points="679.0,624.0 679.0,573.0 694.0,573.0 694.0,624.0" stroke="#000" stroke-width="1" /><polyline fill="none" opacity="0.2" points="403.0,383.0 403.0,369.0" stroke="#000" stroke-width="1" /><polyline fill="none" opacity="0.2" points="407.0,383.0 407.0,369.0" stroke="#000" stroke-width="1" /><polyline fill="none" opacity="0.2" points="411.0,383.0 411.0,369.0" stroke="#000" stroke-width="1" /><polyline fill="none" opacity="0.2" points="415.0,383.0 415.0,369.0" stroke="#000" stroke-width="1" /><polyline fill="none" opacity="0.2" points="419.0,383.0 419.0,369.0" stroke="#000" stroke-width="1" /><polyline fill="none" opacity="0.2" points="403.0,355.0 403.0,341.0" stroke="#000" stroke-width="1" /><polyline fill="none" opacity="0.2" points="407.0,355.0 407.0,341.0" stroke="#000" stroke-width="1" /><polyline fill="none" opacity="0.2" points="411.0,355.0 411.0,341.0" stroke="#000" stroke-width="1" /><polyline fill="none" opacity="0.2" points="415.0,355.0 415.0,341.0" stroke="#000" stroke-width="1" /><polyline fill="none" opacity="0.2" points="419.0,355.0 419.0,341.0" stroke="#000" stroke-width="1" /><polyline fill="none" opacity="0.2" points="679.0,622.0 664.0,622.0" stroke="#000" stroke-width="1" /><polyline fill="none" opacity="0.2" points="679.0,618.0 664.0,618.0" stroke="#000" stroke-width="1" /><polyline fill="none" opacity="0.2" points="679.0,614.0 664.0,614.0" stroke="#000" stroke-width="1" /><polyline fill="none" opacity="0.2" points="679.0,610.0 664.0,610.0" stroke="#000" stroke-width="1" /><polyline fill="none" opacity="0.2" points="679.0,606.0 664.0,606.0" stroke="#000" stroke-width="1" /><polyline fill="none" opacity="0.2" points="694.0,622.0 708.0,622.0" stroke="#000" stroke-width="1" /><polyline fill="none" opacity="0.2" points="694.0,618.0 708.0,618.0" stroke="#000" stroke-width="1" /><polyline fill="none" opacity="0.2" points="694.0,614.0 708.0,614.0" stroke="#000" stroke-width="1" /><polyline fill="none" opacity="0.2" points="694.0,610.0 708.0,610.0" stroke="#000" stroke-width="1" /><polyline fill="none" opacity="0.2" points="694.0,606.0 708.0,606.0" stroke="#000" stroke-width="1" /><polyline fill="none" opacity="0.2" points="552.0,387.0 534.0,405.0" stroke="#7F7F7F" stroke-width="1" /><polyline fill="none" opacity="0.2" points="554.8284,389.8284 536.8284,407.8284" stroke="#7F7F7F" stroke-width="1" /><polyline fill="none" opacity="0.2" points="557.6569,392.6569 539.6569,410.6569" stroke="#7F7F7F" stroke-width="1" /><polyline fill="none" opacity="0.2" points="560.4853,395.4853 542.4853,413.4853" stroke="#7F7F7F" stroke-width="1" /><polyline fill="none" opacity="0.2" points="563.3137,398.3137 545.3137,416.3137" stroke="#7F7F7F" stroke-width="1" /><polyline fill="none" opacity="0.2" points="566.1421,401.1421 548.1421,419.1421" stroke="#7F7F7F" stroke-width="1" /><polyline fill="none" opacity="0.2" points="568.9706,403.9706 550.9706,421.9706" stroke="#7F7F7F" stroke-width="1" /><polyline fill="none" opacity="0.2" points="571.799,406.799 553.799,424.799" stroke="#7F7F7F" stroke-width="1" /><polyline fill="none" opacity="0.2" points="574.6274,409.6274 556.6274,427.6274" stroke="#7F7F7F" stroke-width="1" /><polyline fill="none" opacity="0.2" points="577.4558,412.4558 559.4558,430.4558" stroke="#7F7F7F" stroke-width="1" /><polyline fill="none" opacity="0.2" points="580.2843,415.2843 562.2843,433.2843" stroke="#7F7F7F" stroke-width="1" /><polyline fill="none" opacity="0.2" points="583.1127,418.1127 565.1127,436.1127" stroke="#7F7F7F" stroke-width="1" /><polyline fill="none" opacity="0.2" points="585.9411,420.9411 567.9411,438.9411" stroke="#7F7F7F" stroke-width="1" /><polyline fill="none" opacity="0.2" points="588.7696,423.7696 570.7696,441.7696" stroke="#7F7F7F" stroke-width="1" /><polyline fill="none" opacity="0.2" points="591.598,426.598 573.598,444.598" stroke="#7F7F7F" stroke-width="1" /><polyline fill="none" opacity="0.2" points="594.4264,429.4264 576.4264,447.4264" stroke="#7F7F7F" stroke-width="1" /><polyline fill="none" opacity="0.2" points="597.2548,432.2548 579.2548,450.2548" stroke="#7F7F7F" stroke-width="1" /><polyline fill="none" opacity="0.2" points="600.0833,435.0833 582.0833,453.0833" stroke="#7F7F7F" stroke-width="1" /><polyline fill="none" opacity="0.2" points="602.9117,437.9117 584.9117,455.9117" stroke="#7F7F7F" stroke-width="1" /><polyline fill="none" opacity="0.2" points="605.7401,440.7401 587.7401,458.7401" stroke="#7F7F7F" stroke-width="1" /><polyline fill="none" opacity="0.2" points="608.5685,443.5685 590.5685,461.5685" stroke="#7F7F7F" stroke-width="1" /><polyline fill="none" opacity="0.2" points="611.397,446.397 593.397,464.397" stroke="#7F7F7F" stroke-width="1" /><polyline fill="none" opacity="0.2" points="614.2254,449.2254 596.2254,467.2254" stroke="#7F7F7F" stroke-width="1" /><polyline fill="none" opacity="0.2" points="617.0538,452.0538 599.0538,470.0538" stroke="#7F7F7F" stroke-width="1" /><polyline fill="none" opacity="0.2" points="619.8823,454.8823 601.8823,472.8823" stroke="#7F7F7F" stroke-width="1" /><polyline fill="none" opacity="0.2" points="622.7107,457.7107 604.7107,475.7107" stroke="#7F7F7F" stroke-width="1" /><polygon fill="#9B5509" opacity="0.2" points="549.0,382.0 627.0,460.0 626.0,461.0 548.0,383.0" stroke="#000" stroke-width="1" /><polygon fill="#9B5509" opacity="0.2" points="545.0,386.0 623.0,464.0 621.0,466.0 543.0,388.0" stroke="#000" stroke-width="1" /><polygon fill="#9B5509" opacity="0.2" points="540.0,391.0 618.0,469.0 616.0,471.0 538.0,393.0" stroke="#000" stroke-width="1" /><polygon fill="#9B5509" opacity="0.2" points="535.0,396.0 613.0,474.0 611.0,476.0 533.0,398.0" stroke="#000" stroke-width="1" /><polygon fill="#9B5509" opacity="0.2" points="530.0,401.0 608.0,479.0 607.0,480.0 529.0,402.0" stroke="#000" stroke-width="1" /><polyline fill="none" opacity="0.2" points="920.0,697.0 920.0,686.0 824.0,686.0 824.0,676.0 981.0,676.0 981.0,638.0 975.0,638.0 975.0,608.0 985.0,581.0 1015.0,592.0 1017.0,586.0" stroke="#000" stroke-width="1" /><polyline fill="none" opacity="0.2" points="920.0,617.0 920.0,628.0 824.0,628.0 824.0,638.0 948.0,638.0 948.0,602.0 959.0,572.0 954.0,570.0 971.0,524.0 1032.0,546.0 1030.0,552.0" stroke="#000" stroke-width="1" /><polyline fill="none" opacity="0.2" points="1119.0,586.0 1121.0,581.0 1165.0,597.0 1167.0,591.0 1205.0,605.0" stroke="#000" stroke-width="1" /><polyline fill="none" opacity="0.2" points="1202.0,611.0 1172.0,600.0 1149.0,663.0 1160.0,679.0" stroke="#000" stroke-width="1" /><polyline fill="none" opacity="0.2" points="1154.0,683.0 1141.0,664.0 1149.0,643.0 1105.0,627.0 1108.0,619.0" stroke="#000" stroke-width="1" /><polyline fill="none" opacity="0.2" points="853.0,676.0 853.0,638.0" stroke="#000" stroke-width="1" /><polyline fill="none" opacity="0.2" points="857.0,676.0 857.0,638.0" stroke="#000" stroke-width="1" /><polyline fill="none" opacity="0.2" points="861.0,676.0 861.0,638.0" stroke="#000" stroke-width="1" /><polyline fill="none" opacity="0.2" points="865.0,676.0 865.0,638.0" stroke="#000" stroke-width="1" /><polyline fill="none" opacity="0.2" points="869.0,676.0 869.0,638.0" stroke="#000" stroke-width="1" /><polyline fill="none" opacity="0.2" points="873.0,676.0 873.0,638.0" stroke="#000" stroke-width="1" /><polyline fill="none" opacity="0.2" points="877.0,676.0 877.0,638.0" stroke="#000" stroke-width="1" /><polyline fill="none" opacity="0.2" points="881.0,676.0 881.0,638.0" stroke="#000" stroke-width="1" /><polyline fill="none" opacity="0.2" points="885.0,676.0 885.0,638.0" stroke="#000" stroke-width="1" /><polyline fill="none" opacity="0.2" points="889.0,676.0 889.0,638.0" stroke="#000" stroke-width="1" /><polyline fill="none" opacity="0.2" points="893.0,676.0 893.0,638.0" stroke="#000" stroke-width="1" /><polyline fill="none" opacity="0.2" points="897.0,676.0 897.0,638.0" stroke="#000" stroke-width="1" /><polyline fill="none" opacity="0.2" points="1177.0,602.0 1179.0,596.0" stroke="#000" stroke-width="1" /><polyline fill="none" opacity="0.2" points="1180.7592,603.367 1182.7592,597.367" stroke="#000" stroke-width="1" /><polyline fill="none" opacity="0.2" points="1184.5183,604.7339 1186.5183,598.7339" stroke="#000" stroke-width="1" /><polyline fill="none" opacity="0.2" points="1188.2775,606.1009 1190.2775,600.1009" stroke="#000" stroke-width="1" /><polyline fill="none" opacity="0.2" points="1192.0367,607.4679 1194.0367,601.4679" stroke="#000" stroke-width="1" /><polyline fill="none" opacity="0.2" points="1195.7959,608.8349 1197.7959,602.8349" stroke="#000" stroke-width="1" /><polyline fill="none" opacity="0.2" points="1152.0,681.0 1158.0,677.0" stroke="#000" stroke-width="1" /><polyline fill="none" opacity="0.2" points="1149.8525,677.6254 1155.8525,673.6254" stroke="#000" stroke-width="1" /><polyline fill="none" opacity="0.2" points="1147.705,674.2507 1153.705,670.2507" stroke="#000" stroke-width="1" /><polyline fill="none" opacity="0.2" points="1145.5575,670.8761 1151.5575,666.8761" stroke="#000" stroke-width="1" /><polygon fill="#D0D0D0" opacity="0.2" points="964.0,638.0 959.0,638.0 959.0,614.0 964.0,614.0" stroke="#000" stroke-width="1" /><polygon fill="#D0D0D0" opacity="0.2" points="963.0,593.0 969.0,576.0 974.0,578.0 968.0,595.0" stroke="#000" stroke-width="1" /><polyline fill="none" opacity="0.2" points="1028.0,554.0 1017.0,584.0" stroke="#7F7F7F" stroke-width="1" /><polyline fill="none" opacity="0.2" points="1031.752,555.3866 1020.752,585.3866" stroke="#7F7F7F" stroke-width="1" /><polyline fill="none" opacity="0.2" points="1035.504,556.7732 1024.504,586.7732" stroke="#7F7F7F" stroke-width="1" /><polyline fill="none" opacity="0.2" points="1039.2559,558.1598 1028.2559,588.1598" stroke="#7F7F7F" stroke-width="1" /><polyline fill="none" opacity="0.2" points="1043.0079,559.5464 1032.0079,589.5464" stroke="#7F7F7F" stroke-width="1" /><polyline fill="none" opacity="0.2" points="1046.7599,560.933 1035.7599,590.933" stroke="#7F7F7F" stroke-width="1" /><polyline fill="none" opacity="0.2" points="1050.5119,562.3196 1039.5119,592.3196" stroke="#7F7F7F" stroke-width="1" /><polyline fill="none" opacity="0.2" points="1054.2638,563.7062 1043.2638,593.7062" stroke="#7F7F7F" stroke-width="1" /><polyline fill="none" opacity="0.2" points="1058.0158,565.0928 1047.0158,595.0928" stroke="#7F7F7F" stroke-width="1" /><polyline fill="none" opacity="0.2" points="1061.7678,566.4794 1050.7678,596.4794" stroke="#7F7F7F" stroke-width="1" /><polyline fill="none" opacity="0.2" points="1065.5198,567.866 1054.5198,597.866" stroke="#7F7F7F" stroke-width="1" /><polyline fill="none" opacity="0.2" points="1069.2718,569.2526 1058.2718,599.2526" stroke="#7F7F7F" stroke-width="1" /><polyline fill="none" opacity="0.2" points="1073.0237,570.6392 1062.0237,600.6392" stroke="#7F7F7F" stroke-width="1" /><polyline fill="none" opacity="0.2" points="1076.7757,572.0258 1065.7757,602.0258" stroke="#7F7F7F" stroke-width="1" /><polyline fill="none" opacity="0.2" points="1080.5277,573.4124 1069.5277,603.4124" stroke="#7F7F7F" stroke-width="1" /><polyline fill="none" opacity="0.2" points="1084.2797,574.799 1073.2797,604.799" stroke="#7F7F7F" stroke-width="1" /><polyline fill="none" opacity="0.2" points="1088.0316,576.1856 1077.0316,606.1856" stroke="#7F7F7F" stroke-width="1" /><polyline fill="none" opacity="0.2" points="1091.7836,577.5722 1080.7836,607.5722" stroke="#7F7F7F" stroke-width="1" /><polyline fill="none" opacity="0.2" points="1095.5356,578.9588 1084.5356,608.9588" stroke="#7F7F7F" stroke-width="1" /><polyline fill="none" opacity="0.2" points="1099.2876,580.3454 1088.2876,610.3454" stroke="#7F7F7F" stroke-width="1" /><polyline fill="none" opacity="0.2" points="1103.0396,581.732 1092.0396,611.732" stroke="#7F7F7F" stroke-width="1" /><polyline fill="none" opacity="0.2" points="1106.7915,583.1186 1095.7915,613.1186" stroke="#7F7F7F" stroke-width="1" /><polyline fill="none" opacity="0.2" points="1110.5435,584.5052 1099.5435,614.5052" stroke="#7F7F7F" stroke-width="1" /><polyline fill="none" opacity="0.2" points="1114.2955,585.8918 1103.2955,615.8918" stroke="#7F7F7F" stroke-width="1" /><polyline fill="none" opacity="0.2" points="1118.0475,587.2784 1107.0475,617.2784" stroke="#7F7F7F" stroke-width="1" /><polygon fill="#9B5509" opacity="0.2" points="1023.0,550.0 1124.0,587.0 1123.0,589.0 1022.0,552.0" stroke="#000" stroke-width="1" /><polygon fill="#9B5509" opacity="0.2" points="1020.0,557.0 1121.0,594.0 1120.0,597.0 1019.0,560.0" stroke="#000" stroke-width="1" /><polygon fill="#9B5509" opacity="0.2" points="1017.0,565.0 1118.0,602.0 1117.0,605.0 1016.0,568.0" stroke="#000" stroke-width="1" /><polygon fill="#9B5509" opacity="0.2" points="1014.0,573.0 1115.0,610.0 1114.0,613.0 1013.0,576.0" stroke="#000" stroke-width="1" /><polygon fill="#9B5509" opacity="0.2" points="1011.0,581.0 1112.0,618.0 1111.0,620.0 1010.0,583.0" stroke="#000" stroke-width="1" /><polyline fill="none" opacity="0.2" points="470.0,617.0 470.0,631.0 506.0,631.0 506.0,683.0 470.0,683.0 470.0,697.0" stroke="#000" stroke-width="1" /><polyline fill="none" opacity="0.2" points="940.0,525.0 946.0,509.0" stroke="#000" stroke-width="1" /><polyline fill="none" opacity="0.2" points="936.2162,523.7027 942.2162,507.7027" stroke="#000" stroke-width="1" /><polyline fill="none" opacity="0.2" points="932.4324,522.4054 938.4324,506.4054" stroke="#000" stroke-width="1" /><polyline fill="none" opacity="0.2" points="928.6486,521.1081 934.6486,505.1081" stroke="#000" stroke-width="1" /><polyline fill="none" opacity="0.2" points="924.8649,519.8108 930.8649,503.8108" stroke="#000" stroke-width="1" /><polyline fill="none" opacity="0.2" points="921.0811,518.5135 927.0811,502.5135" stroke="#000" stroke-width="1" /><polyline fill="none" opacity="0.2" points="917.2973,517.2162 923.2973,501.2162" stroke="#000" stroke-width="1" /><polyline fill="none" opacity="0.2" points="913.5135,515.9189 919.5135,499.9189" stroke="#000" stroke-width="1" /><polyline fill="none" opacity="0.2" points="909.7297,514.6216 915.7297,498.6216" stroke="#000" stroke-width="1" /><polyline fill="none" opacity="0.2" points="905.9459,513.3243 911.9459,497.3243" stroke="#000" stroke-width="1" /><polyline fill="none" opacity="0.2" points="403.0,521.0 403.0,507.0" stroke="#000" stroke-width="1" /><polyline fill="none" opacity="0.2" points="407.0,521.0 407.0,507.0" stroke="#000" stroke-width="1" /><polyline fill="none" opacity="0.2" points="411.0,521.0 411.0,507.0" stroke="#000" stroke-width="1" /><polyline fill="none" opacity="0.2" points="415.0,521.0 415.0,507.0" stroke="#000" stroke-width="1" /><polyline fill="none" opacity="0.2" points="419.0,521.0 419.0,507.0" stroke="#000" stroke-width="1" /><polyline fill="none" opacity="0.2" points="403.0,543.0 403.0,529.0" stroke="#000" stroke-width="1" /><polyline fill="none" opacity="0.2" points="407.0,543.0 407.0,529.0" stroke="#000" stroke-width="1" /><polyline fill="none" opacity="0.2" points="411.0,543.0 411.0,529.0" stroke="#000" stroke-width="1" /><polyline fill="none" opacity="0.2" points="415.0,543.0 415.0,529.0" stroke="#000" stroke-width="1" /><polyline fill="none" opacity="0.2" points="419.0,543.0 419.0,529.0" stroke="#000" stroke-width="1" /><polyline fill="none" opacity="0.2" points="403.0,565.0 403.0,551.0" stroke="#000" stroke-width="1" /><polyline fill="none" opacity="0.2" points="407.0,565.0 407.0,551.0" stroke="#000" stroke-width="1" /><polyline fill="none" opacity="0.2" points="411.0,565.0 411.0,551.0" stroke="#000" stroke-width="1" /><polyline fill="none" opacity="0.2" points="415.0,565.0 415.0,551.0" stroke="#000" stroke-width="1" /><polyline fill="none" opacity="0.2" points="419.0,565.0 419.0,551.0" stroke="#000" stroke-width="1" /><polyline fill="none" opacity="0.2" points="795.0,576.0 807.0,583.0" stroke="#000" stroke-width="1" /><polyline fill="none" opacity="0.2" points="796.8824,572.4706 808.8824,579.4706" stroke="#000" stroke-width="1" /><polyline fill="none" opacity="0.2" points="798.7647,568.9412 810.7647,575.9412" stroke="#000" stroke-width="1" /><polyline fill="none" opacity="0.2" points="800.6471,565.4118 812.6471,572.4118" stroke="#000" stroke-width="1" /><polyline fill="none" opacity="0.2" points="802.5294,561.8824 814.5294,568.8824" stroke="#000" stroke-width="1" /><polyline fill="none" opacity="0.2" points="948.0,510.0 898.0,492.0 876.0,551.0 818.0,530.0 818.0,519.0 777.0,519.0 777.0,509.0 736.0,509.0 736.0,514.0 713.0,514.0 713.0,517.0" stroke="#000" stroke-width="1" /><polyline fill="none" opacity="0.2" points="806.0,585.0 818.0,564.0 818.0,543.0 883.0,567.0 903.0,512.0 942.0,526.0" stroke="#000" stroke-width="1" /><polyline fill="none" opacity="0.2" points="713.0,555.0 713.0,559.0 736.0,559.0 736.0,564.0 778.0,564.0 778.0,554.0 804.0,554.0 804.0,560.0 793.0,579.0" stroke="#000" stroke-width="1" /><polyline fill="none" opacity="0.2" points="562.0,517.0 562.0,516.0 449.0,507.0 401.0,507.0" stroke="#000" stroke-width="1" /><polyline fill="none" opacity="0.2" points="401.0,521.0 446.0,521.0 446.0,529.0 401.0,529.0" stroke="#000" stroke-width="1" /><polyline fill="none" opacity="0.2" points="401.0,543.0 446.0,543.0 446.0,551.0 401.0,551.0" stroke="#000" stroke-width="1" /><polyline fill="none" opacity="0.2" points="401.0,565.0 449.0,565.0 562.0,557.0 562.0,555.0" stroke="#000" stroke-width="1" /><polyline fill="none" opacity="0.2" points="562.0,520.0 562.0,552.0" stroke="#7F7F7F" stroke-width="1" /><polyline fill="none" opacity="0.2" points="566.0,520.0 566.0,552.0" stroke="#7F7F7F" stroke-width="1" /><polyline fill="none" opacity="0.2" points="570.0,520.0 570.0,552.0" stroke="#7F7F7F" stroke-width="1" /><polyline fill="none" opacity="0.2" points="574.0,520.0 574.0,552.0" stroke="#7F7F7F" stroke-width="1" /><polyline fill="none" opacity="0.2" points="578.0,520.0 578.0,552.0" stroke="#7F7F7F" stroke-width="1" /><polyline fill="none" opacity="0.2" points="582.0,520.0 582.0,552.0" stroke="#7F7F7F" stroke-width="1" /><polyline fill="none" opacity="0.2" points="586.0,520.0 586.0,552.0" stroke="#7F7F7F" stroke-width="1" /><polyline fill="none" opacity="0.2" points="590.0,520.0 590.0,552.0" stroke="#7F7F7F" stroke-width="1" /><polyline fill="none" opacity="0.2" points="594.0,520.0 594.0,552.0" stroke="#7F7F7F" stroke-width="1" /><polyline fill="none" opacity="0.2" points="598.0,520.0 598.0,552.0" stroke="#7F7F7F" stroke-width="1" /><polyline fill="none" opacity="0.2" points="602.0,520.0 602.0,552.0" stroke="#7F7F7F" stroke-width="1" /><polyline fill="none" opacity="0.2" points="606.0,520.0 606.0,552.0" stroke="#7F7F7F" stroke-width="1" /><polyline fill="none" opacity="0.2" points="610.0,520.0 610.0,552.0" stroke="#7F7F7F" stroke-width="1" /><polyline fill="none" opacity="0.2" points="614.0,520.0 614.0,552.0" stroke="#7F7F7F" stroke-width="1" /><polyline fill="none" opacity="0.2" points="618.0,520.0 618.0,552.0" stroke="#7F7F7F" stroke-width="1" /><polyline fill="none" opacity="0.2" points="622.0,520.0 622.0,552.0" stroke="#7F7F7F" stroke-width="1" /><polyline fill="none" opacity="0.2" points="626.0,520.0 626.0,552.0" stroke="#7F7F7F" stroke-width="1" /><polyline fill="none" opacity="0.2" points="630.0,520.0 630.0,552.0" stroke="#7F7F7F" stroke-width="1" /><polyline fill="none" opacity="0.2" points="634.0,520.0 634.0,552.0" stroke="#7F7F7F" stroke-width="1" /><polyline fill="none" opacity="0.2" points="638.0,520.0 638.0,552.0" stroke="#7F7F7F" stroke-width="1" /><polyline fill="none" opacity="0.2" points="642.0,520.0 642.0,552.0" stroke="#7F7F7F" stroke-width="1" /><polyline fill="none" opacity="0.2" points="646.0,520.0 646.0,552.0" stroke="#7F7F7F" stroke-width="1" /><polyline fill="none" opacity="0.2" points="650.0,520.0 650.0,552.0" stroke="#7F7F7F" stroke-width="1" /><polyline fill="none" opacity="0.2" points="654.0,520.0 654.0,552.0" stroke="#7F7F7F" stroke-width="1" /><polyline fill="none" opacity="0.2" points="658.0,520.0 658.0,552.0" stroke="#7F7F7F" stroke-width="1" /><polyline fill="none" opacity="0.2" points="662.0,520.0 662.0,552.0" stroke="#7F7F7F" stroke-width="1" /><polyline fill="none" opacity="0.2" points="666.0,520.0 666.0,552.0" stroke="#7F7F7F" stroke-width="1" /><polyline fill="none" opacity="0.2" points="670.0,520.0 670.0,552.0" stroke="#7F7F7F" stroke-width="1" /><polyline fill="none" opacity="0.2" points="674.0,520.0 674.0,552.0" stroke="#7F7F7F" stroke-width="1" /><polyline fill="none" opacity="0.2" points="678.0,520.0 678.0,552.0" stroke="#7F7F7F" stroke-width="1" /><polyline fill="none" opacity="0.2" points="682.0,520.0 682.0,552.0" stroke="#7F7F7F" stroke-width="1" /><polyline fill="none" opacity="0.2" points="686.0,520.0 686.0,552.0" stroke="#7F7F7F" stroke-width="1" /><polyline fill="none" opacity="0.2" points="690.0,520.0 690.0,552.0" stroke="#7F7F7F" stroke-width="1" /><polyline fill="none" opacity="0.2" points="694.0,520.0 694.0,552.0" stroke="#7F7F7F" stroke-width="1" /><polyline fill="none" opacity="0.2" points="698.0,520.0 698.0,552.0" stroke="#7F7F7F" stroke-width="1" /><polyline fill="none" opacity="0.2" points="702.0,520.0 702.0,552.0" stroke="#7F7F7F" stroke-width="1" /><polyline fill="none" opacity="0.2" points="706.0,520.0 706.0,552.0" stroke="#7F7F7F" stroke-width="1" /><polyline fill="none" opacity="0.2" points="710.0,520.0 710.0,552.0" stroke="#7F7F7F" stroke-width="1" /><polyline fill="none" opacity="0.2" points="714.0,520.0 714.0,552.0" stroke="#7F7F7F" stroke-width="1" /><polygon fill="#9B5509" opacity="0.2" points="556.0,517.0 721.0,517.0 721.0,520.0 556.0,520.0" stroke="#000" stroke-width="1" /><polygon fill="#9B5509" opacity="0.2" points="556.0,525.0 721.0,525.0 721.0,529.0 556.0,529.0" stroke="#000" stroke-width="1" /><polygon fill="#9B5509" opacity="0.2" points="556.0,534.0 721.0,534.0 721.0,538.0 556.0,538.0" stroke="#000" stroke-width="1" /><polygon fill="#9B5509" opacity="0.2" points="556.0,543.0 721.0,543.0 721.0,547.0 556.0,547.0" stroke="#000" stroke-width="1" /><polygon fill="#9B5509" opacity="0.2" points="556.0,552.0 721.0,552.0 721.0,555.0 556.0,555.0" stroke="#000" stroke-width="1" /><g transform="rotate(-10.0,590.0,400.0)"><text fill="#FFD900" font-family="Arial" font-size="25" font-weight="normal" opacity="1.0" x="249.25" y="275.5">1</text><text fill="#FFD900" font-family="Arial" font-size="25" font-weight="normal" opacity="1.0" x="233.25" y="397.5">2</text><text fill="#FFD900" font-family="Arial" font-size="25" font-weight="normal" opacity="1.0" x="147.25" y="513.5">3</text></g></g></g></svg>