<?xml version="1.0" encoding="utf-8" ?>
<svg baseProfile="tiny" height="380px" version="1.2" width="500px" xmlns="http://www.w3.org/2000/svg" xmlns:ev="http://www.w3.org/2001/xml-events" xmlns:xlink="http://www.w3.org/1999/xlink"><defs /><g><g transform="rotate(-25.0,250.0,190.0)"><polygon fill="#2C7CAC" opacity="100" points="20.0,149.0 20.0,119.0 470.0,119.0 470.0,149.0" stroke="#000" stroke-width="1" /><polygon fill="#2C7CAC" opacity="100" points="20.0,259.0 20.0,229.0 470.0,229.0 470.0,259.0" stroke="#000" stroke-width="1" /><text fill="#2C7CAC" font-family="Arial" font-size="20" font-weight="normal" opacity="100" transform="rotate(-0.0 23.0,97.0) translate(0 20)" x="23.0" y="97.0">&lt;&lt; Пионерская</text><text fill="#2C7CAC" font-family="Arial" font-size="25" font-weight="bold" opacity="100" transform="rotate(-0.0 173.0,278.0) translate(0 25)" x="173.0" y="278.0">Филёвский парк</text><text fill="#2C7CAC" font-family="Arial" font-size="20" font-weight="normal" opacity="100" transform="rotate(-0.0 311.0,259.0) translate(0 20)" x="311.0" y="259.0">Багратионовская &gt;&gt;</text><polyline fill="none" opacity="100" points="470.0,149.0 470.0,229.0" stroke="#000" stroke-width="1" /><polyline fill="none" opacity="100" points="20.0,229.0 20.0,149.0" stroke="#000" stroke-width="1" /><polyline fill="none" opacity="100" points="122.0,206.0 67.0,206.0 67.0,172.0 122.0,172.0" stroke="#000" stroke-width="1" /><polyline fill="none" opacity="100" points="375.0,172.0 432.0,172.0 432.0,206.0 375.0,206.0" stroke="#000" stroke-width="1" /><polyline fill="none" opacity="100" points="158.0,202.0 158.0,176.0" stroke="#000" stroke-width="1" /><polyline fill="none" opacity="100" points="154.0,202.0 154.0,176.0" stroke="#000" stroke-width="1" /><polyline fill="none" opacity="100" points="150.0,202.0 150.0,176.0" stroke="#000" stroke-width="1" /><polyline fill="none" opacity="100" points="146.0,202.0 146.0,176.0" stroke="#000" stroke-width="1" /><polyline fill="none" opacity="100" points="142.0,202.0 142.0,176.0" stroke="#000" stroke-width="1" /><polyline fill="none" opacity="100" points="138.0,202.0 138.0,176.0" stroke="#000" stroke-width="1" /><polyline fill="none" opacity="100" points="134.0,202.0 134.0,176.0" stroke="#000" stroke-width="1" /><polyline fill="none" opacity="100" points="130.0,202.0 130.0,176.0" stroke="#000" stroke-width="1" /><polyline fill="none" opacity="100" points="126.0,202.0 126.0,176.0" stroke="#000" stroke-width="1" /><polyline fill="none" opacity="100" points="343.0,202.0 343.0,176.0" stroke="#000" stroke-width="1" /><polyline fill="none" opacity="100" points="347.0,202.0 347.0,176.0" stroke="#000" stroke-width="1" /><polyline fill="none" opacity="100" points="351.0,202.0 351.0,176.0" stroke="#000" stroke-width="1" /><polyline fill="none" opacity="100" points="355.0,202.0 355.0,176.0" stroke="#000" stroke-width="1" /><polyline fill="none" opacity="100" points="359.0,202.0 359.0,176.0" stroke="#000" stroke-width="1" /><polyline fill="none" opacity="100" points="363.0,202.0 363.0,176.0" stroke="#000" stroke-width="1" /><polyline fill="none" opacity="100" points="367.0,202.0 367.0,176.0" stroke="#000" stroke-width="1" /><polyline fill="none" opacity="100" points="371.0,202.0 371.0,176.0" stroke="#000" stroke-width="1" /><polygon fill="#D0D0D0" opacity="100" points="375.0,172.0 375.0,176.0 311.0,176.0 311.0,172.0" stroke="#000" stroke-width="1" /><polygon fill="#D0D0D0" opacity="100" points="311.0,206.0 311.0,202.0 375.0,202.0 375.0,206.0" stroke="#000" stroke-width="1" /><polygon fill="#D0D0D0" opacity="100" points="187.0,206.0 187.0,202.0 122.0,202.0 122.0,206.0" stroke="#000" stroke-width="1" /><polygon fill="#D0D0D0" opacity="100" points="187.0,172.0 187.0,176.0 122.0,176.0 122.0,172.0" stroke="#000" stroke-width="1" /><polygon fill="#FFF" opacity="0.8" points="210.0,140.0 210.0,115.0 288.0,115.0 288.0,140.0 432.0,140.0 432.0,239.0 288.0,239.0 288.0,263.0 210.0,263.0 210.0,239.0 67.0,239.0 67.0,140.0" stroke="#FFF" stroke-width="1" /><polyline fill="none" opacity="0.8" points="187.0,145.0 187.0,140.0 67.0,140.0 67.0,239.0 187.0,239.0 187.0,233.0" stroke="#000" stroke-width="1" /><polyline fill="none" opacity="0.8" points="187.0,210.0 187.0,168.0" stroke="#000" stroke-width="1" /><polyline fill="none" opacity="0.8" points="311.0,234.0 311.0,239.0 432.0,239.0 432.0,140.0 311.0,140.0 311.0,145.0" stroke="#000" stroke-width="1" /><polyline fill="none" opacity="0.8" points="311.0,168.0 311.0,210.0" stroke="#000" stroke-width="1" /><polyline fill="none" opacity="0.8" points="122.0,172.0 130.0,172.0 135.0,177.0 161.0,177.0 166.0,172.0 170.0,172.0 170.0,206.0 122.0,206.0" stroke="#000" stroke-width="1" /><polyline fill="none" opacity="0.8" points="375.0,172.0 327.0,172.0 327.0,206.0 331.0,206.0 336.0,201.0 362.0,201.0 367.0,206.0 375.0,206.0" stroke="#000" stroke-width="1" /><polyline fill="none" opacity="0.8" points="110.0,202.0 110.0,176.0" stroke="#000" stroke-width="1" /><polyline fill="none" opacity="0.8" points="106.0,202.0 106.0,176.0" stroke="#000" stroke-width="1" /><polyline fill="none" opacity="0.8" points="102.0,202.0 102.0,176.0" stroke="#000" stroke-width="1" /><polyline fill="none" opacity="0.8" points="98.0,202.0 98.0,176.0" stroke="#000" stroke-width="1" /><polyline fill="none" opacity="0.8" points="94.0,202.0 94.0,176.0" stroke="#000" stroke-width="1" /><polyline fill="none" opacity="0.8" points="90.0,202.0 90.0,176.0" stroke="#000" stroke-width="1" /><polyline fill="none" opacity="0.8" points="86.0,202.0 86.0,176.0" stroke="#000" stroke-width="1" /><polyline fill="none" opacity="0.8" points="82.0,202.0 82.0,176.0" stroke="#000" stroke-width="1" /><polyline fill="none" opacity="0.8" points="387.0,201.0 387.0,176.0" stroke="#000" stroke-width="1" /><polyline fill="none" opacity="0.8" points="391.0,201.0 391.0,176.0" stroke="#000" stroke-width="1" /><polyline fill="none" opacity="0.8" points="395.0,201.0 395.0,176.0" stroke="#000" stroke-width="1" /><polyline fill="none" opacity="0.8" points="399.0,201.0 399.0,176.0" stroke="#000" stroke-width="1" /><polyline fill="none" opacity="0.8" points="403.0,201.0 403.0,176.0" stroke="#000" stroke-width="1" /><polyline fill="none" opacity="0.8" points="407.0,201.0 407.0,176.0" stroke="#000" stroke-width="1" /><polyline fill="none" opacity="0.8" points="411.0,201.0 411.0,176.0" stroke="#000" stroke-width="1" /><polyline fill="none" opacity="0.8" points="415.0,201.0 415.0,176.0" stroke="#000" stroke-width="1" /><polygon fill="#D0D0D0" opacity="0.8" points="80.0,176.0 80.0,172.0 122.0,172.0 122.0,206.0 79.0,206.0 79.0,202.0 117.0,202.0 117.0,176.0" stroke="#000" stroke-width="1" /><polygon fill="#D0D0D0" opacity="0.8" points="418.0,206.0 418.0,201.0 380.0,201.0 380.0,176.0 418.0,176.0 418.0,172.0 375.0,172.0 375.0,206.0" stroke="#000" stroke-width="1" /><polyline fill="none" opacity="0.8" points="336.0,201.0 336.0,192.0 362.0,192.0 362.0,201.0" stroke="#000" stroke-width="1" /><text fill="#FFF" font-family="Arial" font-size="10" font-weight="normal" opacity="0.8" transform="rotate(-0.0 337.0,190.0) translate(0 10)" x="337.0" y="190.0">кассы</text><polyline fill="none" opacity="0.8" points="135.0,177.0 135.0,185.0 161.0,185.0 161.0,177.0" stroke="#000" stroke-width="1" /><text fill="#FFF" font-family="Arial" font-size="10" font-weight="normal" opacity="0.8" transform="rotate(-0.0 136.0,174.0) translate(0 10)" x="136.0" y="174.0">кассы</text><polygon fill="none" opacity="0.8" points="370.0,207.0 367.0,210.0 370.0,213.0 373.0,210.0" stroke="#000" stroke-width="1" /><polygon fill="none" opacity="0.8" points="128.0,166.0 125.0,169.0 128.0,172.0 131.0,169.0" stroke="#000" stroke-width="1" /><polyline fill="none" opacity="0.8" points="370.0,217.0 374.0,217.0" stroke="#090" stroke-width="1" /><polyline fill="none" opacity="0.8" points="370.0,221.0 374.0,221.0" stroke="#090" stroke-width="1" /><polyline fill="none" opacity="0.8" points="370.0,225.0 374.0,225.0" stroke="#090" stroke-width="1" /><polyline fill="none" opacity="0.8" points="370.0,229.0 374.0,229.0" stroke="#090" stroke-width="1" /><polyline fill="none" opacity="0.8" points="370.0,233.0 374.0,233.0" stroke="#090" stroke-width="1" /><polyline fill="none" opacity="0.8" points="370.0,237.0 374.0,237.0" stroke="#090" stroke-width="1" /><polyline fill="none" opacity="0.8" points="126.0,144.0 130.0,144.0" stroke="#090" stroke-width="1" /><polyline fill="none" opacity="0.8" points="126.0,148.0 130.0,148.0" stroke="#090" stroke-width="1" /><polyline fill="none" opacity="0.8" points="126.0,152.0 130.0,152.0" stroke="#090" stroke-width="1" /><polyline fill="none" opacity="0.8" points="126.0,156.0 130.0,156.0" stroke="#090" stroke-width="1" /><polyline fill="none" opacity="0.8" points="126.0,160.0 130.0,160.0" stroke="#090" stroke-width="1" /><polyline fill="none" opacity="0.8" points="126.0,164.0 130.0,164.0" stroke="#090" stroke-width="1" /><polyline fill="none" opacity="0.8" points="370.0,168.0 374.0,168.0" stroke="#F00" stroke-width="1" /><polyline fill="none" opacity="0.8" points="370.0,164.0 374.0,164.0" stroke="#F00" stroke-width="1" /><polyline fill="none" opacity="0.8" points="370.0,160.0 374.0,160.0" stroke="#F00" stroke-width="1" /><polyline fill="none" opacity="0.8" points="370.0,156.0 374.0,156.0" stroke="#F00" stroke-width="1" /><polyline fill="none" opacity="0.8" points="370.0,152.0 374.0,152.0" stroke="#F00" stroke-width="1" /><polyline fill="none" opacity="0.8" points="370.0,148.0 374.0,148.0" stroke="#F00" stroke-width="1" /><polyline fill="none" opacity="0.8" points="370.0,144.0 374.0,144.0" stroke="#F00" stroke-width="1" /><polyline fill="none" opacity="0.8" points="130.0,210.0 126.0,210.0" stroke="#F00" stroke-width="1" /><polyline fill="none" opacity="0.8" points="130.0,214.0 126.0,214.0" stroke="#F00" stroke-width="1" /><polyline fill="none" opacity="0.8" points="130.0,218.0 126.0,218.0" stroke="#F00" stroke-width="1" /><polyline fill="none" opacity="0.8" points="130.0,222.0 126.0,222.0" stroke="#F00" stroke-width="1" /><polyline fill="none" opacity="0.8" points="130.0,226.0 126.0,226.0" stroke="#F00" stroke-width="1" /><polyline fill="none" opacity="0.8" points="130.0,230.0 126.0,230.0" stroke="#F00" stroke-width="1" /><polyline fill="none" opacity="0.8" points="130.0,234.0 126.0,234.0" stroke="#F00" stroke-width="1" /><polygon fill="#34349C" opacity="0.8" points="75.0,236.0 71.0,236.0 71.0,237.0 75.0,237.0" stroke="#34349C" stroke-width="1" /><polygon fill="#F00" opacity="0.8" points="79.0,236.0 75.0,236.0 75.0,237.0 79.0,237.0" stroke="#F00" stroke-width="1" /><polygon fill="#34349C" opacity="0.8" points="313.0,189.0 313.0,185.0 314.0,185.0 314.0,189.0" stroke="#34349C" stroke-width="1" /><polygon fill="#F00" opacity="0.8" points="313.0,193.0 313.0,189.0 314.0,189.0 314.0,193.0" stroke="#F00" stroke-width="1" /><polyline fill="none" opacity="0.8" points="320.0,161.0 301.0,161.0" stroke="#F00" stroke-width="1" /><polygon fill="#F00" opacity="0.8" points="306.5058,159.5247 301.0,161.0 306.5058,162.4753" stroke="#F00" stroke-width="1" /><polyline fill="none" opacity="0.8" points="176.0,225.0 196.0,225.0" stroke="#F00" stroke-width="1" /><polygon fill="#F00" opacity="0.8" points="190.2044,226.5529 196.0,225.0 190.2044,223.4471" stroke="#F00" stroke-width="1" /><polyline fill="none" opacity="0.8" points="96.0,195.0 76.0,195.0" stroke="#F00" stroke-width="1" /><polygon fill="#F00" opacity="0.8" points="81.7956,193.4471 76.0,195.0 81.7956,196.5529" stroke="#F00" stroke-width="1" /><polyline fill="none" opacity="0.8" points="405.0,183.0 422.0,183.0" stroke="#F00" stroke-width="1" /><polygon fill="#F00" opacity="0.8" points="417.0738,184.32 422.0,183.0 417.0738,181.68" stroke="#F00" stroke-width="1" /><polyline fill="none" opacity="0.8" points="195.0,161.0 177.0,161.0" stroke="#090" stroke-width="1" /><polygon fill="#090" opacity="0.8" points="182.216,159.6024 177.0,161.0 182.216,162.3976" stroke="#090" stroke-width="1" /><polyline fill="none" opacity="0.8" points="301.0,226.0 320.0,226.0" stroke="#090" stroke-width="1" /><polygon fill="#090" opacity="0.8" points="314.4942,227.4753 320.0,226.0 314.4942,224.5247" stroke="#090" stroke-width="1" /><polyline fill="none" opacity="0.8" points="77.0,183.0 96.0,183.0" stroke="#090" stroke-width="1" /><polygon fill="#090" opacity="0.8" points="90.4942,184.4753 96.0,183.0 90.4942,181.5247" stroke="#090" stroke-width="1" /><polyline fill="none" opacity="0.8" points="422.0,195.0 405.0,195.0" stroke="#090" stroke-width="1" /><polygon fill="#090" opacity="0.8" points="409.9262,193.68 405.0,195.0 409.9262,196.32" stroke="#090" stroke-width="1" /><polyline fill="none" opacity="1.0" points="219.0,277.0 219.0,81.0 157.0,81.0" stroke="#000" stroke-width="1" /><polyline fill="none" opacity="1.0" points="279.0,277.0 279.0,81.0 341.0,81.0" stroke="#000" stroke-width="1" /><text fill="#FFF" font-family="Arial" font-size="15" font-weight="normal" opacity="1.0" transform="rotate(90.0 257.0,130.0) translate(0 15)" x="257.0" y="130.0">Минская улица</text><text fill="#FFF" font-family="Arial" font-size="15" font-weight="normal" opacity="1.0" transform="rotate(-0.0 293.0,60.0) translate(0 15)" x="293.0" y="60.0">Сеславинская улица</text><text fill="#000" font-family="Arial" font-size="8" font-weight="normal" opacity="1.0" x="71.8" y="150.2">верхний ярус</text><text fill="#000" font-family="Arial" font-size="8" font-weight="normal" opacity="1.0" x="19.8" y="156.2">нижний ярус</text><g transform="rotate(25.0,250.0,190.0)"><text fill="#FFD900" font-family="Arial" font-size="25" font-weight="normal" opacity="1.0" x="274.25" y="178.5">1</text><text fill="#FFD900" font-family="Arial" font-size="25" font-weight="normal" opacity="1.0" x="200.25" y="215.5">2</text></g></g></g></svg>