<?xml version="1.0" encoding="utf-8" ?>
<svg baseProfile="tiny" height="770px" version="1.2" width="650px" xmlns="http://www.w3.org/2000/svg" xmlns:ev="http://www.w3.org/2001/xml-events" xmlns:xlink="http://www.w3.org/1999/xlink"><defs /><g><g transform="rotate(55.0,325.0,385.0)"><polygon fill="#2C7CAC" opacity="100" points="552.0,346.0 552.0,376.0 102.0,376.0 102.0,346.0" stroke="#000" stroke-width="1" /><polygon fill="#2C7CAC" opacity="100" points="552.0,379.0 552.0,409.0 102.0,409.0 102.0,379.0" stroke="#000" stroke-width="1" /><text fill="#000" font-family="Arial" font-size="20" font-weight="normal" opacity="100" transform="rotate(-0.0 107.0,345.0) translate(0 20)" x="107.0" y="345.0">&lt;&lt; Багратионовская</text><text fill="#000" font-family="Arial" font-size="30" font-weight="bold" opacity="100" transform="rotate(-0.0 292.0,361.0) translate(0 30)" x="292.0" y="361.0">Фили</text><text fill="#000" font-family="Arial" font-size="20" font-weight="normal" opacity="100" transform="rotate(-0.0 411.0,387.0) translate(0 20)" x="411.0" y="387.0">Кутузовская &gt;&gt;</text><text fill="#FFF" font-family="Arial" font-size="20" font-weight="normal" opacity="100" transform="rotate(-0.0 106.0,344.0) translate(0 20)" x="106.0" y="344.0">&lt;&lt; Багратионовская</text><text fill="#FFF" font-family="Arial" font-size="30" font-weight="bold" opacity="100" transform="rotate(-0.0 290.0,360.0) translate(0 30)" x="290.0" y="360.0">Фили</text><text fill="#FFF" font-family="Arial" font-size="20" font-weight="normal" opacity="100" transform="rotate(-0.0 411.0,386.0) translate(0 20)" x="411.0" y="386.0">Кутузовская &gt;&gt;</text><polygon fill="#FEFBF1" opacity="100" points="-60.0,282.0 -60.0,473.0 -26.0,473.0 -26.0,427.0 62.0,427.0 62.0,327.0 -26.0,327.0 -26.0,282.0" stroke="#DFDFDF" stroke-width="1" /><polygon fill="#FEFBF1" opacity="100" points="558.0,282.0 723.0,282.0 723.0,472.0 558.0,472.0" stroke="#DFDFDF" stroke-width="1" /><polyline fill="none" opacity="100" points="-45.0,282.0 108.0,282.0 137.0,292.0 137.0,296.0 406.0,296.0 406.0,292.0 435.0,282.0 593.0,282.0" stroke="#000" stroke-width="1" /><polyline fill="none" opacity="100" points="593.0,472.0 435.0,472.0 407.0,462.0 407.0,458.0 138.0,458.0 138.0,462.0 108.0,473.0 -45.0,473.0" stroke="#000" stroke-width="1" /><polyline fill="none" opacity="100" points="58.0,366.0 62.0,366.0 62.0,327.0 41.0,327.0" stroke="#000" stroke-width="1" /><polyline fill="none" opacity="100" points="58.0,387.0 62.0,387.0 62.0,427.0 41.0,427.0" stroke="#000" stroke-width="1" /><polyline fill="none" opacity="100" points="-23.0,327.0 -26.0,327.0 -26.0,315.0 160.0,315.0 160.0,321.0 102.0,321.0 102.0,346.0" stroke="#000" stroke-width="1" /><polyline fill="none" opacity="100" points="-25.0,427.0 -26.0,427.0 -26.0,438.0 159.0,438.0 159.0,432.0 102.0,432.0 102.0,409.0" stroke="#000" stroke-width="1" /><polyline fill="none" opacity="100" points="-56.0,473.0 -60.0,473.0 -60.0,282.0 -56.0,282.0" stroke="#000" stroke-width="1" /><polyline fill="none" opacity="100" points="-23.0,282.0 -23.0,315.0" stroke="#000" stroke-width="1" /><polyline fill="none" opacity="100" points="-19.0,282.0 -19.0,315.0" stroke="#000" stroke-width="1" /><polyline fill="none" opacity="100" points="-15.0,282.0 -15.0,315.0" stroke="#000" stroke-width="1" /><polyline fill="none" opacity="100" points="-11.0,282.0 -11.0,315.0" stroke="#000" stroke-width="1" /><polyline fill="none" opacity="100" points="-7.0,282.0 -7.0,315.0" stroke="#000" stroke-width="1" /><polyline fill="none" opacity="100" points="-3.0,282.0 -3.0,315.0" stroke="#000" stroke-width="1" /><polyline fill="none" opacity="100" points="1.0,282.0 1.0,315.0" stroke="#000" stroke-width="1" /><polyline fill="none" opacity="100" points="5.0,282.0 5.0,315.0" stroke="#000" stroke-width="1" /><polyline fill="none" opacity="100" points="9.0,282.0 9.0,315.0" stroke="#000" stroke-width="1" /><polyline fill="none" opacity="100" points="13.0,282.0 13.0,315.0" stroke="#000" stroke-width="1" /><polyline fill="none" opacity="100" points="17.0,282.0 17.0,315.0" stroke="#000" stroke-width="1" /><polyline fill="none" opacity="100" points="21.0,282.0 21.0,315.0" stroke="#000" stroke-width="1" /><polyline fill="none" opacity="100" points="-23.0,473.0 -23.0,438.0" stroke="#000" stroke-width="1" /><polyline fill="none" opacity="100" points="-19.0,473.0 -19.0,438.0" stroke="#000" stroke-width="1" /><polyline fill="none" opacity="100" points="-15.0,473.0 -15.0,438.0" stroke="#000" stroke-width="1" /><polyline fill="none" opacity="100" points="-11.0,473.0 -11.0,438.0" stroke="#000" stroke-width="1" /><polyline fill="none" opacity="100" points="-7.0,473.0 -7.0,438.0" stroke="#000" stroke-width="1" /><polyline fill="none" opacity="100" points="-3.0,473.0 -3.0,438.0" stroke="#000" stroke-width="1" /><polyline fill="none" opacity="100" points="1.0,473.0 1.0,438.0" stroke="#000" stroke-width="1" /><polyline fill="none" opacity="100" points="5.0,473.0 5.0,438.0" stroke="#000" stroke-width="1" /><polyline fill="none" opacity="100" points="9.0,473.0 9.0,438.0" stroke="#000" stroke-width="1" /><polyline fill="none" opacity="100" points="13.0,473.0 13.0,438.0" stroke="#000" stroke-width="1" /><polyline fill="none" opacity="100" points="17.0,473.0 17.0,438.0" stroke="#000" stroke-width="1" /><polyline fill="none" opacity="100" points="21.0,473.0 21.0,438.0" stroke="#000" stroke-width="1" /><polygon fill="#D0D0D0" opacity="100" points="-9.0,405.0 25.0,405.0 32.0,398.0 40.0,396.0 49.0,399.0 55.0,408.0 54.0,417.0 49.0,424.0 41.0,427.0 -25.0,427.0 -33.0,424.0 -38.0,417.0 -38.0,407.0 -32.0,398.0 -23.0,396.0 -15.0,398.0" stroke="#D0D0D0" stroke-width="1" /><polygon fill="#D0D0D0" opacity="100" points="-8.0,349.0 26.0,349.0 33.0,356.0 41.0,358.0 50.0,355.0 56.0,346.0 55.0,336.0 50.0,330.0 41.0,327.0 -23.0,327.0 -32.0,330.0 -37.0,338.0 -37.0,347.0 -32.0,355.0 -23.0,358.0 -14.0,356.0" stroke="#D0D0D0" stroke-width="1" /><polyline fill="none" opacity="100" points="-9.0,405.0 25.0,405.0" stroke="#000" stroke-width="1" /><polyline fill="none" opacity="100" points="25.0,405.0 25.8203,403.8516 26.6562,402.7812 27.5078,401.7891 28.375,400.875 29.2578,400.0391 30.1562,399.2812 31.0703,398.6016 32.0,398.0 32.9453,397.4766 33.9062,397.0312 34.8838,396.6638 35.875,396.375 36.874,396.1663 37.8906,396.0352 38.9277,395.981 40.0,396.0 41.1348,396.0854 42.2969,396.2461 43.4639,396.4893 44.625,396.8125 45.7627,397.21 46.875,397.6992 47.957,398.2866 49.0,399.0 49.9961,399.8892 50.9375,400.8945 51.8147,401.9778 52.625,403.125 53.3708,404.3132 54.0273,405.5312 54.5815,406.7695 55.0,408.0 55.2271,409.1836 55.3164,410.3438 55.3,411.4912 55.1875,412.625 54.9988,413.751 54.7344,414.8594 54.3965,415.9434 54.0,417.0 53.5645,418.0254 53.0781,419.0156 52.5359,419.9663 51.9375,420.875 51.2786,421.7407 50.5664,422.5547 49.8052,423.3115 49.0,424.0 48.1597,424.6025 47.2773,425.1328 46.3494,425.5981 45.375,426.0 44.3518,426.3433 43.2812,426.625 42.1641,426.8438 41.0,427.0" stroke="#000" stroke-width="1" /><polyline fill="none" opacity="100" points="41.0,427.0 -25.0,427.0" stroke="#000" stroke-width="1" /><polyline fill="none" opacity="100" points="-25.0,427.0 -26.1641,426.8438 -27.2812,426.625 -28.3521,426.3435 -29.375,426.0 -30.3472,425.5959 -31.2734,425.1289 -32.1553,424.5981 -33.0,424.0 -33.8213,423.3276 -34.6016,422.5898 -35.3293,421.7915 -36.0,420.9375 -36.6062,420.0366 -37.1445,419.082 -37.6118,418.0728 -38.0,417.0 -38.2983,415.8452 -38.5117,414.6367 -38.6409,413.3928 -38.6875,412.125 -38.658,410.8513 -38.5391,409.5703 -38.3252,408.2861 -38.0,407.0 -37.5342,405.7061 -36.9609,404.4297 -36.3005,403.1921 -35.5625,402.0 -34.7639,400.8567 -33.9023,399.793 -32.98,398.8257 -32.0,398.0 -30.9614,397.3892 -29.8789,396.9258 -28.7646,396.5701 -27.625,396.3125 -26.4658,396.1311 -25.3008,396.0234 -24.1392,395.9873 -23.0,396.0 -21.9116,396.0283 -20.8555,396.1016 -19.8228,396.2366 -18.8125,396.4375 -17.8179,396.7146 -16.8477,397.0664 -15.9067,397.4927 -15.0,398.0 -14.1362,398.5972 -13.3086,399.2773 -12.5134,400.0369 -11.75,400.875 -11.0159,401.7893 -10.3125,402.7812 -9.6406,403.8516 -9.0,405.0" stroke="#000" stroke-width="1" /><polyline fill="none" opacity="100" points="-8.0,349.0 26.0,349.0" stroke="#000" stroke-width="1" /><polyline fill="none" opacity="100" points="26.0,349.0 26.8203,350.1484 27.6562,351.2188 28.5078,352.2109 29.375,353.125 30.2578,353.9609 31.1562,354.7188 32.0703,355.3984 33.0,356.0 33.9453,356.5234 34.9062,356.9688 35.8838,357.3362 36.875,357.625 37.874,357.8337 38.8906,357.9648 39.9277,358.019 41.0,358.0 42.1348,357.9146 43.2969,357.7539 44.4639,357.511 45.625,357.1875 46.7627,356.7878 47.875,356.2969 48.957,355.709 50.0,355.0 50.9961,354.127 51.9375,353.1406 52.8147,352.0728 53.625,350.9375 54.3708,349.7593 55.0273,348.5391 55.5815,347.2822 56.0,346.0 56.2271,344.7021 56.3164,343.3984 56.3003,342.1001 56.1875,340.8125 55.9966,339.5366 55.7305,338.2969 55.3921,337.1074 55.0,336.0 54.5806,335.0254 54.1133,334.1406 53.5872,333.3215 53.0,332.5625 52.3445,331.8484 51.625,331.1836 50.8438,330.5698 50.0,330.0 49.0938,329.4653 48.125,328.9727 47.0938,328.5256 46.0,328.125 44.8438,327.7732 43.625,327.4688 42.3438,327.2109 41.0,327.0" stroke="#000" stroke-width="1" /><polyline fill="none" opacity="100" points="41.0,327.0 -23.0,327.0" stroke="#000" stroke-width="1" /><polyline fill="none" opacity="100" points="-23.0,327.0 -24.3438,327.1016 -25.625,327.2812 -26.844,327.54 -28.0,327.875 -29.0916,328.2803 -30.1211,328.7656 -31.0894,329.334 -32.0,330.0 -32.8599,330.791 -33.6602,331.6719 -34.395,332.6196 -35.0625,333.625 -35.6597,334.6733 -36.1836,335.7578 -36.6323,336.8721 -37.0,338.0 -37.2778,339.1201 -37.4727,340.2422 -37.5879,341.3701 -37.625,342.5 -37.5879,343.6299 -37.4727,344.7578 -37.2778,345.8799 -37.0,347.0 -36.6323,348.1279 -36.1836,349.2422 -35.6587,350.3267 -35.0625,351.375 -34.4038,352.3804 -33.6758,353.3281 -32.8774,354.209 -32.0,355.0 -31.0249,355.666 -29.9805,356.2344 -28.8857,356.7197 -27.75,357.125 -26.5869,357.46 -25.4023,357.7188 -24.2026,357.8984 -23.0,358.0 -21.8091,358.0234 -20.6289,357.9688 -19.4624,357.8359 -18.3125,357.625 -17.1782,357.3359 -16.0742,356.9688 -15.0093,356.5234 -14.0,356.0 -13.0728,355.3984 -12.207,354.7188 -11.3918,353.9609 -10.625,353.125 -9.8992,352.2109 -9.2188,351.2188 -8.5859,350.1484 -8.0,349.0" stroke="#000" stroke-width="1" /><polygon fill="#FFF" opacity="100" points="-8.0,349.0 -8.0,341.0 26.0,341.0 26.0,349.0" stroke="#000" stroke-width="1" /><text fill="#FFF" font-family="Arial" font-size="10" font-weight="normal" opacity="100" transform="rotate(-0.0 -3.0,339.0) translate(0 10)" x="-3.0" y="339.0">кассы</text><polygon fill="none" opacity="100" points="-27.0,393.0 -20.0,393.0 -20.0,386.0 -27.0,386.0" stroke="#000" stroke-width="1" /><polyline fill="none" opacity="100" points="-21.0,382.0 -26.0,382.0" stroke="#090" stroke-width="1" /><polyline fill="none" opacity="100" points="-21.0,378.0 -26.0,378.0" stroke="#090" stroke-width="1" /><polyline fill="none" opacity="100" points="-21.0,374.0 -26.0,374.0" stroke="#090" stroke-width="1" /><polyline fill="none" opacity="100" points="-21.0,370.0 -26.0,370.0" stroke="#090" stroke-width="1" /><polyline fill="none" opacity="100" points="-21.0,366.0 -26.0,366.0" stroke="#090" stroke-width="1" /><polyline fill="none" opacity="100" points="-21.0,362.0 -26.0,362.0" stroke="#090" stroke-width="1" /><polyline fill="none" opacity="100" points="-55.0,304.0 -58.0,301.0" stroke="#F00" stroke-width="1" /><polyline fill="none" opacity="100" points="-52.1716,301.1716 -55.1716,298.1716" stroke="#F00" stroke-width="1" /><polyline fill="none" opacity="100" points="-49.3431,298.3431 -52.3431,295.3431" stroke="#F00" stroke-width="1" /><polyline fill="none" opacity="100" points="-46.5147,295.5147 -49.5147,292.5147" stroke="#F00" stroke-width="1" /><polyline fill="none" opacity="100" points="-43.6863,292.6863 -46.6863,289.6863" stroke="#F00" stroke-width="1" /><polyline fill="none" opacity="100" points="-40.8579,289.8579 -43.8579,286.8579" stroke="#F00" stroke-width="1" /><polyline fill="none" opacity="100" points="-38.0294,287.0294 -41.0294,284.0294" stroke="#F00" stroke-width="1" /><polyline fill="none" opacity="100" points="-55.0,451.0 -58.0,454.0" stroke="#F00" stroke-width="1" /><polyline fill="none" opacity="100" points="-52.249,453.9038 -55.249,456.9038" stroke="#F00" stroke-width="1" /><polyline fill="none" opacity="100" points="-49.498,456.8076 -52.498,459.8076" stroke="#F00" stroke-width="1" /><polyline fill="none" opacity="100" points="-46.7471,459.7114 -49.7471,462.7114" stroke="#F00" stroke-width="1" /><polyline fill="none" opacity="100" points="-43.9961,462.6152 -46.9961,465.6152" stroke="#F00" stroke-width="1" /><polyline fill="none" opacity="100" points="-41.2451,465.5191 -44.2451,468.5191" stroke="#F00" stroke-width="1" /><polyline fill="none" opacity="100" points="-38.4941,468.4229 -41.4941,471.4229" stroke="#F00" stroke-width="1" /><polyline fill="none" opacity="100" points="90.0,292.0 69.0,292.0" stroke="#F00" stroke-width="1" /><polygon fill="#F00" opacity="100" points="75.0853,290.3694 69.0,292.0 75.0853,293.6306" stroke="#F00" stroke-width="1" /><polyline fill="none" opacity="100" points="-43.0,296.0 -51.0,288.0 -51.0,274.0" stroke="#F00" stroke-width="1" /><polygon fill="#F00" opacity="100" points="-49.913,278.0569 -51.0,274.0 -52.087,278.0569" stroke="#F00" stroke-width="1" /><polyline fill="none" opacity="100" points="90.0,463.0 69.0,463.0" stroke="#F00" stroke-width="1" /><polygon fill="#F00" opacity="100" points="75.0853,461.3694 69.0,463.0 75.0853,464.6306" stroke="#F00" stroke-width="1" /><polyline fill="none" opacity="100" points="-39.0,460.0 -51.0,472.0 -51.0,484.0" stroke="#F00" stroke-width="1" /><polygon fill="#F00" opacity="100" points="-51.9317,480.5227 -51.0,484.0 -50.0683,480.5227" stroke="#F00" stroke-width="1" /><polyline fill="none" opacity="100" points="69.0,305.0 90.0,305.0" stroke="#090" stroke-width="1" /><polygon fill="#090" opacity="100" points="83.9147,306.6306 90.0,305.0 83.9147,303.3694" stroke="#090" stroke-width="1" /><polyline fill="none" opacity="100" points="-48.0,348.0 -48.0,330.0" stroke="#090" stroke-width="1" /><polygon fill="#090" opacity="100" points="-46.6024,335.216 -48.0,330.0 -49.3976,335.216" stroke="#090" stroke-width="1" /><polyline fill="none" opacity="100" points="-48.0,407.0 -48.0,423.0" stroke="#090" stroke-width="1" /><polygon fill="#090" opacity="100" points="-49.2423,418.3636 -48.0,423.0 -46.7577,418.3636" stroke="#090" stroke-width="1" /><polyline fill="none" opacity="100" points="69.0,449.0 90.0,449.0" stroke="#090" stroke-width="1" /><polygon fill="#090" opacity="100" points="83.9147,450.6306 90.0,449.0 83.9147,447.3694" stroke="#090" stroke-width="1" /><polyline fill="none" opacity="100" points="55.0,377.0 40.0,377.0" stroke="#090" stroke-width="1" /><polygon fill="#090" opacity="100" points="44.3467,375.8353 40.0,377.0 44.3467,378.1647" stroke="#090" stroke-width="1" /><text fill="#000" font-family="Arial" font-size="10" font-weight="normal" opacity="100" transform="rotate(-90.0 61.0,387.0) translate(0 10)" x="61.0" y="387.0">вход</text><polygon fill="#34349C" opacity="100" points="-57.0,323.0 -57.0,319.0 -56.0,319.0 -56.0,323.0" stroke="#34349C" stroke-width="1" /><polygon fill="#F00" opacity="100" points="-57.0,327.0 -57.0,323.0 -56.0,323.0 -56.0,327.0" stroke="#F00" stroke-width="1" /><polyline fill="none" opacity="100" points="611.0,282.0 723.0,282.0 723.0,289.0" stroke="#000" stroke-width="1" /><polyline fill="none" opacity="100" points="723.0,306.0 723.0,366.0" stroke="#000" stroke-width="1" /><polyline fill="none" opacity="100" points="723.0,387.0 723.0,448.0" stroke="#000" stroke-width="1" /><polyline fill="none" opacity="100" points="723.0,466.0 723.0,472.0 611.0,472.0" stroke="#000" stroke-width="1" /><polyline fill="none" opacity="100" points="704.0,408.0 723.0,408.0" stroke="#000" stroke-width="1" /><polyline fill="none" opacity="100" points="702.0,346.0 723.0,346.0" stroke="#000" stroke-width="1" /><polyline fill="none" opacity="100" points="708.0,408.0 708.0,387.0" stroke="#000" stroke-width="1" /><polyline fill="none" opacity="100" points="708.0,366.0 708.0,346.0" stroke="#000" stroke-width="1" /><polyline fill="none" opacity="100" points="504.0,315.0 504.0,282.0" stroke="#000" stroke-width="1" /><polyline fill="none" opacity="100" points="508.0,315.0 508.0,282.0" stroke="#000" stroke-width="1" /><polyline fill="none" opacity="100" points="512.0,315.0 512.0,282.0" stroke="#000" stroke-width="1" /><polyline fill="none" opacity="100" points="516.0,315.0 516.0,282.0" stroke="#000" stroke-width="1" /><polyline fill="none" opacity="100" points="520.0,315.0 520.0,282.0" stroke="#000" stroke-width="1" /><polyline fill="none" opacity="100" points="524.0,315.0 524.0,282.0" stroke="#000" stroke-width="1" /><polyline fill="none" opacity="100" points="528.0,315.0 528.0,282.0" stroke="#000" stroke-width="1" /><polyline fill="none" opacity="100" points="532.0,315.0 532.0,282.0" stroke="#000" stroke-width="1" /><polyline fill="none" opacity="100" points="536.0,315.0 536.0,282.0" stroke="#000" stroke-width="1" /><polyline fill="none" opacity="100" points="540.0,315.0 540.0,282.0" stroke="#000" stroke-width="1" /><polyline fill="none" opacity="100" points="544.0,315.0 544.0,282.0" stroke="#000" stroke-width="1" /><polyline fill="none" opacity="100" points="548.0,315.0 548.0,282.0" stroke="#000" stroke-width="1" /><polyline fill="none" opacity="100" points="504.0,472.0 504.0,438.0" stroke="#000" stroke-width="1" /><polyline fill="none" opacity="100" points="508.0,472.0 508.0,438.0" stroke="#000" stroke-width="1" /><polyline fill="none" opacity="100" points="512.0,472.0 512.0,438.0" stroke="#000" stroke-width="1" /><polyline fill="none" opacity="100" points="516.0,472.0 516.0,438.0" stroke="#000" stroke-width="1" /><polyline fill="none" opacity="100" points="520.0,472.0 520.0,438.0" stroke="#000" stroke-width="1" /><polyline fill="none" opacity="100" points="524.0,472.0 524.0,438.0" stroke="#000" stroke-width="1" /><polyline fill="none" opacity="100" points="528.0,472.0 528.0,438.0" stroke="#000" stroke-width="1" /><polyline fill="none" opacity="100" points="532.0,472.0 532.0,438.0" stroke="#000" stroke-width="1" /><polyline fill="none" opacity="100" points="536.0,472.0 536.0,438.0" stroke="#000" stroke-width="1" /><polyline fill="none" opacity="100" points="540.0,472.0 540.0,438.0" stroke="#000" stroke-width="1" /><polyline fill="none" opacity="100" points="544.0,472.0 544.0,438.0" stroke="#000" stroke-width="1" /><polyline fill="none" opacity="100" points="548.0,472.0 548.0,438.0" stroke="#000" stroke-width="1" /><polygon fill="#D0D0D0" opacity="100" points="552.0,346.0 552.0,321.0 440.0,321.0 440.0,315.0 558.0,315.0 558.0,438.0 440.0,438.0 440.0,433.0 552.0,433.0 552.0,409.0" stroke="#000" stroke-width="1" /><polygon fill="#D0D0D0" opacity="100" points="641.0,405.0 674.0,405.0 679.0,399.0 688.0,396.0 698.0,399.0 704.0,408.0 703.0,417.0 698.0,424.0 691.0,427.0 626.0,427.0 617.0,424.0 612.0,417.0 611.0,408.0 616.0,400.0 626.0,396.0 635.0,398.0" stroke="#D0D0D0" stroke-width="1" /><polygon fill="#D0D0D0" opacity="100" points="640.0,350.0 674.0,350.0 681.0,356.0 689.0,357.0 697.0,354.0 702.0,346.0 702.0,337.0 697.0,329.0 688.0,326.0 627.0,326.0 617.0,330.0 612.0,339.0 613.0,348.0 619.0,355.0 627.0,357.0 635.0,355.0" stroke="#D0D0D0" stroke-width="1" /><polyline fill="none" opacity="100" points="641.0,405.0 674.0,405.0" stroke="#000" stroke-width="1" /><polyline fill="none" opacity="100" points="674.0,405.0 674.4062,404.0859 674.875,403.2188 675.407,402.3977 676.0,401.625 676.6497,400.905 677.3633,400.2305 678.1431,399.5991 679.0,399.0 679.9546,398.4126 680.9805,397.8633 682.0613,397.3696 683.1875,396.9375 684.343,396.5757 685.5312,396.293 686.75,396.0952 688.0,396.0 689.2891,396.0337 690.5938,396.1758 691.8965,396.4167 693.1875,396.75 694.4551,397.1594 695.6875,397.6641 696.875,398.2705 698.0,399.0 699.0391,399.8936 700.0,400.8984 700.8828,401.98 701.6875,403.125 702.4219,404.313 703.0625,405.5312 703.5977,406.7695 704.0,408.0 704.2227,409.1836 704.3125,410.3438 704.2976,411.4912 704.1875,412.625 704.0012,413.751 703.7383,414.8594 703.4009,415.9434 703.0,417.0 702.5483,418.0254 702.043,419.0156 701.4846,419.9663 700.875,420.875 700.2126,421.7407 699.5078,422.5547 698.7666,423.3115 698.0,424.0 697.2256,424.6025 696.4297,425.1328 695.605,425.5981 694.75,426.0 693.8599,426.3433 692.9375,426.625 691.9844,426.8438 691.0,427.0" stroke="#000" stroke-width="1" /><polyline fill="none" opacity="100" points="691.0,427.0 626.0,427.0" stroke="#000" stroke-width="1" /><polyline fill="none" opacity="100" points="626.0,427.0 624.6562,426.8438 623.375,426.625 622.1562,426.3433 621.0,426.0 619.9062,425.5981 618.875,425.1328 617.9062,424.6025 617.0,424.0 616.1562,423.3115 615.375,422.5547 614.6558,421.7405 614.0,420.875 613.4106,419.9685 612.8828,419.0195 612.415,418.0298 612.0,417.0 611.624,415.9272 611.3047,414.8242 611.054,413.7004 610.875,412.5625 610.7722,411.4187 610.7539,410.2734 610.8247,409.1318 611.0,408.0 611.3042,406.8838 611.7148,405.7891 612.2202,404.7219 612.8125,403.6875 613.4751,402.6902 614.2227,401.7383 615.0591,400.8384 616.0,400.0 617.0776,399.2358 618.2461,398.543 619.4744,397.9224 620.75,397.375 622.0549,396.8979 623.375,396.5039 624.6992,396.1997 626.0,396.0 627.2383,395.9292 628.4375,395.9648 629.6079,396.0938 630.75,396.3125 631.8726,396.6133 632.9609,396.9961 634.0068,397.4604 635.0,398.0 635.9229,398.606 636.7891,399.2852 637.606,400.0413 638.375,400.875 639.1011,401.7888 639.7812,402.7812 640.4141,403.8516 641.0,405.0" stroke="#000" stroke-width="1" /><polyline fill="none" opacity="100" points="640.0,350.0 674.0,350.0" stroke="#000" stroke-width="1" /><polyline fill="none" opacity="100" points="674.0,350.0 674.8203,351.0234 675.6562,351.9688 676.5081,352.8357 677.375,353.625 678.2556,354.3381 679.1523,354.9727 680.0659,355.5278 681.0,356.0 681.9614,356.3823 682.9414,356.6836 683.9348,356.9099 684.9375,357.0625 685.9421,357.1428 686.9531,357.1562 687.9707,357.1055 689.0,357.0 690.0527,356.8555 691.1094,356.6562 692.1565,356.3918 693.1875,356.0625 694.1931,355.6687 695.168,355.1992 696.1069,354.6499 697.0,354.0 697.8345,353.2134 698.6133,352.332 699.3357,351.3826 700.0,350.375 700.6077,349.3264 701.1484,348.2422 701.6162,347.1279 702.0,346.0 702.2822,344.8799 702.4766,343.7578 702.5901,342.6299 702.625,341.5 702.5876,340.3701 702.4727,339.2422 702.2778,338.1201 702.0,337.0 701.6323,335.8721 701.1836,334.7578 700.6597,333.6733 700.0625,332.625 699.395,331.6196 698.6602,330.6719 697.8599,329.791 697.0,329.0 696.0894,328.334 695.1211,327.7656 694.0916,327.2803 693.0,326.875 691.844,326.54 690.625,326.2812 689.3438,326.1016 688.0,326.0" stroke="#000" stroke-width="1" /><polyline fill="none" opacity="100" points="688.0,326.0 627.0,326.0" stroke="#000" stroke-width="1" /><polyline fill="none" opacity="100" points="627.0,326.0 625.4766,326.2266 624.0312,326.5312 622.6638,326.9153 621.375,327.375 620.1663,327.9031 619.0352,328.5117 617.981,329.2046 617.0,330.0 616.0854,330.9321 615.2461,331.957 614.488,333.0459 613.8125,334.1875 613.2209,335.3643 612.7188,336.5664 612.3086,337.7856 612.0,339.0 611.8086,340.1792 611.7188,341.3398 611.7217,342.4893 611.8125,343.625 611.9814,344.749 612.2344,345.8555 612.5723,346.939 613.0,348.0 613.5293,349.0415 614.1406,350.0508 614.8206,351.0173 615.5625,351.9375 616.3572,352.8088 617.1992,353.6172 618.0835,354.3545 619.0,355.0 619.936,355.5205 620.8945,355.9453 621.8755,356.291 622.875,356.5625 623.8901,356.7715 624.918,356.9141 625.9546,356.9893 627.0,357.0 628.0571,356.9482 629.1133,356.8359 630.1582,356.6653 631.1875,356.4375 632.1973,356.1531 633.1758,355.8164 634.1157,355.4302 635.0,355.0 635.8022,354.5347 636.543,354.0273 637.2332,353.4744 637.875,352.875 638.4758,352.2268 639.0312,351.5312 639.5391,350.7891 640.0,350.0" stroke="#000" stroke-width="1" /><polygon fill="#FFF" opacity="100" points="640.0,350.0 640.0,342.0 674.0,342.0 674.0,350.0" stroke="#000" stroke-width="1" /><text fill="#FFF" font-family="Arial" font-size="10" font-weight="normal" opacity="100" transform="rotate(-0.0 645.0,340.0) translate(0 10)" x="645.0" y="340.0">кассы</text><polygon fill="none" opacity="100" points="624.0,360.0 630.0,360.0 630.0,366.0 624.0,366.0" stroke="#000" stroke-width="1" /><polyline fill="none" opacity="100" points="629.0,370.0 625.0,370.0" stroke="#090" stroke-width="1" /><polyline fill="none" opacity="100" points="629.0,374.0 625.0,374.0" stroke="#090" stroke-width="1" /><polyline fill="none" opacity="100" points="629.0,378.0 625.0,378.0" stroke="#090" stroke-width="1" /><polyline fill="none" opacity="100" points="629.0,382.0 625.0,382.0" stroke="#090" stroke-width="1" /><polyline fill="none" opacity="100" points="629.0,386.0 625.0,386.0" stroke="#090" stroke-width="1" /><polyline fill="none" opacity="100" points="629.0,390.0 625.0,390.0" stroke="#090" stroke-width="1" /><polyline fill="none" opacity="100" points="629.0,394.0 625.0,394.0" stroke="#090" stroke-width="1" /><polyline fill="none" opacity="100" points="618.0,431.0 615.0,428.0" stroke="#F00" stroke-width="1" /><polyline fill="none" opacity="100" points="615.1716,433.8284 612.1716,430.8284" stroke="#F00" stroke-width="1" /><polyline fill="none" opacity="100" points="612.3431,436.6569 609.3431,433.6569" stroke="#F00" stroke-width="1" /><polyline fill="none" opacity="100" points="609.5147,439.4853 606.5147,436.4853" stroke="#F00" stroke-width="1" /><polyline fill="none" opacity="100" points="606.6863,442.3137 603.6863,439.3137" stroke="#F00" stroke-width="1" /><polyline fill="none" opacity="100" points="603.8579,445.1421 600.8579,442.1421" stroke="#F00" stroke-width="1" /><polyline fill="none" opacity="100" points="601.0294,447.9706 598.0294,444.9706" stroke="#F00" stroke-width="1" /><polyline fill="none" opacity="100" points="598.201,450.799 595.201,447.799" stroke="#F00" stroke-width="1" /><polyline fill="none" opacity="100" points="595.3726,453.6274 592.3726,450.6274" stroke="#F00" stroke-width="1" /><polyline fill="none" opacity="100" points="592.5442,456.4558 589.5442,453.4558" stroke="#F00" stroke-width="1" /><polyline fill="none" opacity="100" points="589.7157,459.2843 586.7157,456.2843" stroke="#F00" stroke-width="1" /><polyline fill="none" opacity="100" points="586.8873,462.1127 583.8873,459.1127" stroke="#F00" stroke-width="1" /><polyline fill="none" opacity="100" points="584.0589,464.9411 581.0589,461.9411" stroke="#F00" stroke-width="1" /><polyline fill="none" opacity="100" points="581.2304,467.7696 578.2304,464.7696" stroke="#F00" stroke-width="1" /><polyline fill="none" opacity="100" points="578.402,470.598 575.402,467.598" stroke="#F00" stroke-width="1" /><polyline fill="none" opacity="100" points="618.0,323.0 615.0,326.0" stroke="#F00" stroke-width="1" /><polyline fill="none" opacity="100" points="615.1716,320.1716 612.1716,323.1716" stroke="#F00" stroke-width="1" /><polyline fill="none" opacity="100" points="612.3431,317.3431 609.3431,320.3431" stroke="#F00" stroke-width="1" /><polyline fill="none" opacity="100" points="609.5147,314.5147 606.5147,317.5147" stroke="#F00" stroke-width="1" /><polyline fill="none" opacity="100" points="606.6863,311.6863 603.6863,314.6863" stroke="#F00" stroke-width="1" /><polyline fill="none" opacity="100" points="603.8579,308.8579 600.8579,311.8579" stroke="#F00" stroke-width="1" /><polyline fill="none" opacity="100" points="601.0294,306.0294 598.0294,309.0294" stroke="#F00" stroke-width="1" /><polyline fill="none" opacity="100" points="598.201,303.201 595.201,306.201" stroke="#F00" stroke-width="1" /><polyline fill="none" opacity="100" points="595.3726,300.3726 592.3726,303.3726" stroke="#F00" stroke-width="1" /><polyline fill="none" opacity="100" points="592.5442,297.5442 589.5442,300.5442" stroke="#F00" stroke-width="1" /><polyline fill="none" opacity="100" points="589.7157,294.7157 586.7157,297.7157" stroke="#F00" stroke-width="1" /><polyline fill="none" opacity="100" points="586.8873,291.8873 583.8873,294.8873" stroke="#F00" stroke-width="1" /><polyline fill="none" opacity="100" points="584.0589,289.0589 581.0589,292.0589" stroke="#F00" stroke-width="1" /><polyline fill="none" opacity="100" points="581.2304,286.2304 578.2304,289.2304" stroke="#F00" stroke-width="1" /><polyline fill="none" opacity="100" points="578.402,283.402 575.402,286.402" stroke="#F00" stroke-width="1" /><polyline fill="none" opacity="100" points="433.0,292.0 450.0,292.0" stroke="#F00" stroke-width="1" /><polygon fill="#F00" opacity="100" points="445.0738,293.32 450.0,292.0 445.0738,290.68" stroke="#F00" stroke-width="1" /><polyline fill="none" opacity="100" points="433.0,463.0 450.0,463.0" stroke="#F00" stroke-width="1" /><polygon fill="#F00" opacity="100" points="445.0738,464.32 450.0,463.0 445.0738,461.68" stroke="#F00" stroke-width="1" /><polyline fill="none" opacity="100" points="584.0,451.0 602.0,469.0 602.0,489.0" stroke="#F00" stroke-width="1" /><polygon fill="#F00" opacity="100" points="600.4471,483.2044 602.0,489.0 603.5529,483.2044" stroke="#F00" stroke-width="1" /><polyline fill="none" opacity="100" points="589.0,304.0 601.0,292.0 601.0,269.0" stroke="#F00" stroke-width="1" /><polygon fill="#F00" opacity="100" points="602.7859,275.6649 601.0,269.0 599.2141,275.6649" stroke="#F00" stroke-width="1" /><polyline fill="none" opacity="100" points="712.0,297.0 735.0,297.0" stroke="#F00" stroke-width="1" /><polygon fill="#F00" opacity="100" points="728.3351,298.7859 735.0,297.0 728.3351,295.2141" stroke="#F00" stroke-width="1" /><polyline fill="none" opacity="100" points="712.0,456.0 735.0,456.0" stroke="#F00" stroke-width="1" /><polygon fill="#F00" opacity="100" points="728.3351,457.7859 735.0,456.0 728.3351,454.2141" stroke="#F00" stroke-width="1" /><polyline fill="none" opacity="100" points="450.0,307.0 433.0,307.0" stroke="#090" stroke-width="1" /><polygon fill="#090" opacity="100" points="437.9262,305.68 433.0,307.0 437.9262,308.32" stroke="#090" stroke-width="1" /><polyline fill="none" opacity="100" points="450.0,447.0 434.0,447.0" stroke="#090" stroke-width="1" /><polygon fill="#090" opacity="100" points="438.6364,445.7577 434.0,447.0 438.6364,448.2423" stroke="#090" stroke-width="1" /><polyline fill="none" opacity="100" points="598.0,402.0 573.0,427.0" stroke="#090" stroke-width="1" /><polygon fill="#090" opacity="100" points="578.3033,417.8144 573.0,427.0 582.1856,421.6967" stroke="#090" stroke-width="1" /><polyline fill="none" opacity="100" points="598.0,353.0 573.0,328.0" stroke="#090" stroke-width="1" /><polygon fill="#090" opacity="100" points="582.1856,333.3033 573.0,328.0 578.3033,337.1856" stroke="#090" stroke-width="1" /><polyline fill="none" opacity="100" points="733.0,377.0 695.0,377.0" stroke="#090" stroke-width="1" /><polygon fill="#090" opacity="100" points="706.0116,374.0495 695.0,377.0 706.0116,379.9505" stroke="#090" stroke-width="1" /><polygon fill="#34349C" opacity="100" points="714.0,342.0 710.0,342.0 710.0,343.0 714.0,343.0" stroke="#34349C" stroke-width="1" /><polygon fill="#F00" opacity="100" points="718.0,342.0 714.0,342.0 714.0,343.0 718.0,343.0" stroke="#F00" stroke-width="1" /><text fill="#00AFAF" font-family="Arial" font-size="15" font-weight="normal" opacity="100" transform="rotate(-90.0 134.0,631.0) translate(0 15)" x="134.0" y="631.0">Багратионовский проезд</text><text fill="#00AFAF" font-family="Arial" font-size="15" font-weight="normal" opacity="100" transform="rotate(-0.0 530.0,214.0) translate(0 15)" x="530.0" y="214.0">улица 1812 года</text><text fill="#00AFAF" font-family="Arial" font-size="15" font-weight="normal" opacity="100" transform="rotate(-0.0 -5.0,234.0) translate(0 15)" x="-5.0" y="234.0">Новозаводская улица</text><text fill="#00AFAF" font-family="Arial" font-size="15" font-weight="normal" opacity="100" transform="rotate(-90.0 558.0,653.0) translate(0 15)" x="558.0" y="653.0">&lt;&lt; ж/д платформа "Фили"</text><g transform="rotate(-55.0,325.0,385.0)"><text fill="#040464" font-family="Arial" font-size="15" font-weight="normal" opacity="100" x="86.75" y="763.5">Схема перехода к ж/д платформе "Фили"' 5</text><text fill="#FFD900" font-family="Arial" font-size="25" font-weight="normal" opacity="100" x="12.25" y="162.5">1</text><text fill="#FFD900" font-family="Arial" font-size="25" font-weight="normal" opacity="100" x="214.25" y="27.5">2</text><text fill="#FFD900" font-family="Arial" font-size="25" font-weight="normal" opacity="100" x="357.25" y="693.5">3.1</text><text fill="#FFD900" font-family="Arial" font-size="25" font-weight="normal" opacity="100" x="567.25" y="534.5">3.2</text><text fill="#FFD900" font-family="Arial" font-size="25" font-weight="normal" opacity="100" x="578.25" y="730.5">3</text></g></g></g></svg>