<?xml version="1.0" encoding="utf-8" ?>
<svg baseProfile="tiny" height="1040px" version="1.2" width="980px" xmlns="http://www.w3.org/2000/svg" xmlns:ev="http://www.w3.org/2001/xml-events" xmlns:xlink="http://www.w3.org/1999/xlink"><defs /><g><g transform="rotate(45.0,490.0,520.0)"><polygon fill="#84BC54" opacity="100" points="256.0,431.0 706.0,431.0 706.0,461.0 256.0,461.0" stroke="#000" stroke-width="1" /><polygon fill="#84BC54" opacity="100" points="256.0,541.0 706.0,541.0 706.0,571.0 256.0,571.0" stroke="#000" stroke-width="1" /><text fill="#5C9F2E" font-family="Arial" font-size="25" font-weight="bold" opacity="100" transform="rotate(-0.0 402.0,468.0) translate(0 25)" x="402.0" y="468.0">Фонвизинская</text><text fill="#5C9F2E" font-family="Arial" font-size="20" font-weight="normal" opacity="100" transform="rotate(-0.0 257.0,407.0) translate(0 20)" x="257.0" y="407.0">&lt;&lt; Петровско-Разумовская</text><text fill="#5C9F2E" font-family="Arial" font-size="20" font-weight="normal" opacity="100" transform="rotate(-0.0 591.0,571.0) translate(0 20)" x="591.0" y="571.0">Бутырская &gt;&gt;</text><polygon fill="#34349C" opacity="100" points="486.0,503.0 486.0,499.0 487.0,499.0 487.0,503.0" stroke="#34349C" stroke-width="1" /><polygon fill="#F00" opacity="100" points="486.0,507.0 486.0,503.0 487.0,503.0 487.0,507.0" stroke="#F00" stroke-width="1" /><polygon fill="#D0D0D0" opacity="100" points="922.0,465.0 928.0,465.0 939.0,468.0 948.0,474.0 957.0,482.0 963.0,490.0 968.0,499.0 970.0,507.0 971.0,515.0 970.0,523.0 967.0,530.0 963.0,534.0 954.0,536.0 945.0,535.0 937.0,532.0 927.0,526.0 920.0,519.0 913.0,511.0 907.0,500.0 905.0,491.0 905.0,480.0 909.0,470.0 916.0,466.0" stroke="#D0D0D0" stroke-width="1" /><polygon fill="#D0D0D0" opacity="100" points="990.0,431.0 1032.0,431.0 1032.0,570.0 990.0,570.0 996.0,561.0 1001.0,552.0 1005.0,541.0 1008.0,530.0 1010.0,519.0 1010.0,517.0 1011.0,495.0 1010.0,483.0 1009.0,474.0 1006.0,463.0 1003.0,453.0 999.0,445.0 996.0,438.0" stroke="#D0D0D0" stroke-width="1" /><polygon fill="#FFF" opacity="100" points="1025.0,478.0 1025.0,517.0 1010.0,518.0 1011.0,507.0 1011.0,495.0 1010.0,485.0 1009.0,478.0" stroke="#FFF" stroke-width="1" /><polyline fill="none" opacity="100" points="957.0,482.0 959.9531,485.7188 962.5625,489.375 964.8284,492.9746 966.75,496.5 968.3259,499.916 969.5586,503.2812 970.4487,506.6133 971.0,510.0 971.2192,513.6055 971.0977,517.2188 970.6223,520.6987 969.8125,524.0 968.7078,527.0552 967.2344,529.7891 965.3691,532.1533 963.0,534.0 959.9199,535.1045 956.3906,535.6484 952.5806,535.7251 948.5625,535.375 944.4546,534.7007 940.2891,533.6094 936.1064,532.0684 932.0,530.0 928.0811,527.2441 924.3359,524.0156 920.7825,520.4531 917.4375,516.625 914.2859,512.6406 911.4414,508.5156 908.9692,504.2832 907.0,500.0 905.7456,495.7168 905.0273,491.4844 904.751,487.3613 904.875,483.375 905.2998,479.5293 906.1055,475.9531 907.3179,472.7207 909.0,470.0 911.2876,468.0605 913.9883,466.6719 916.9702,465.7036 920.1875,465.125 923.5767,464.855 927.0586,464.9141 930.5815,465.3096 934.0,466.0 937.0942,466.9326 940.0352,468.1484 942.9143,469.6694 945.75,471.5 948.6033,473.6548 951.4375,476.125 954.2344,478.9062 957.0,482.0" stroke="#000" stroke-width="1" /><polyline fill="none" opacity="100" points="990.0,431.0 993.1797,435.2344 996.0938,439.6875 998.7429,444.365 1001.125,449.25 1003.2356,454.3088 1005.082,459.5977 1006.6665,465.1333 1008.0,471.0 1009.103,477.355 1009.9492,483.9961 1010.521,490.7886 1010.8125,497.6875 1010.8149,504.6255 1010.5195,511.5352 1009.9204,518.3716 1009.0,525.0 1007.7319,531.2183 1006.1367,537.1836 1004.2253,542.9802 1002.0,548.625 999.468,554.1741 996.625,559.5938 993.4688,564.8672 990.0,570.0" stroke="#000" stroke-width="1" /><polyline fill="none" opacity="100" points="864.0,605.0 962.0,605.0 962.0,571.0 781.0,571.0 781.0,534.0 745.0,534.0 745.0,521.0" stroke="#000" stroke-width="1" /><polyline fill="none" opacity="100" points="864.0,632.0 990.0,632.0 990.0,570.0 1032.0,570.0 1032.0,431.0 990.0,431.0 990.0,372.0 734.0,372.0" stroke="#000" stroke-width="1" /><polyline fill="none" opacity="100" points="734.0,398.0 962.0,398.0 962.0,431.0 780.0,431.0 780.0,469.0 745.0,469.0 745.0,481.0" stroke="#000" stroke-width="1" /><polyline fill="none" opacity="100" points="959.0,431.0 958.0,436.0" stroke="#000" stroke-width="1" /><polyline fill="none" opacity="100" points="950.0,469.0 949.0,474.0" stroke="#000" stroke-width="1" /><polyline fill="none" opacity="100" points="937.0,533.0 936.0,537.0" stroke="#000" stroke-width="1" /><polyline fill="none" opacity="100" points="929.0,566.0 928.0,571.0" stroke="#000" stroke-width="1" /><polyline fill="none" opacity="100" points="706.0,461.0 706.0,469.0 568.0,469.0 568.0,482.0 579.0,482.0 579.0,476.0 630.0,476.0 630.0,482.0" stroke="#000" stroke-width="1" /><polyline fill="none" opacity="100" points="706.0,541.0 706.0,534.0 568.0,534.0 568.0,521.0 579.0,521.0 579.0,527.0 630.0,527.0 630.0,521.0" stroke="#000" stroke-width="1" /><polyline fill="none" opacity="100" points="867.0,605.0 867.0,632.0" stroke="#000" stroke-width="1" /><polyline fill="none" opacity="100" points="871.0,605.0 871.0,632.0" stroke="#000" stroke-width="1" /><polyline fill="none" opacity="100" points="875.0,605.0 875.0,632.0" stroke="#000" stroke-width="1" /><polyline fill="none" opacity="100" points="879.0,605.0 879.0,632.0" stroke="#000" stroke-width="1" /><polyline fill="none" opacity="100" points="883.0,605.0 883.0,632.0" stroke="#000" stroke-width="1" /><polyline fill="none" opacity="100" points="887.0,605.0 887.0,632.0" stroke="#000" stroke-width="1" /><polyline fill="none" opacity="100" points="891.0,605.0 891.0,632.0" stroke="#000" stroke-width="1" /><polyline fill="none" opacity="100" points="895.0,605.0 895.0,632.0" stroke="#000" stroke-width="1" /><polyline fill="none" opacity="100" points="899.0,605.0 899.0,632.0" stroke="#000" stroke-width="1" /><polyline fill="none" opacity="100" points="903.0,605.0 903.0,632.0" stroke="#000" stroke-width="1" /><polyline fill="none" opacity="100" points="907.0,605.0 907.0,632.0" stroke="#000" stroke-width="1" /><polyline fill="none" opacity="100" points="911.0,605.0 911.0,632.0" stroke="#000" stroke-width="1" /><polyline fill="none" opacity="100" points="915.0,605.0 915.0,632.0" stroke="#000" stroke-width="1" /><polyline fill="none" opacity="100" points="919.0,605.0 919.0,632.0" stroke="#000" stroke-width="1" /><polyline fill="none" opacity="100" points="951.0,632.0 951.0,605.0" stroke="#000" stroke-width="1" /><polyline fill="none" opacity="100" points="955.0,632.0 955.0,605.0" stroke="#000" stroke-width="1" /><polyline fill="none" opacity="100" points="959.0,632.0 959.0,605.0" stroke="#000" stroke-width="1" /><polyline fill="none" opacity="100" points="737.0,398.0 737.0,372.0" stroke="#000" stroke-width="1" /><polyline fill="none" opacity="100" points="741.0,398.0 741.0,372.0" stroke="#000" stroke-width="1" /><polyline fill="none" opacity="100" points="745.0,398.0 745.0,372.0" stroke="#000" stroke-width="1" /><polyline fill="none" opacity="100" points="749.0,398.0 749.0,372.0" stroke="#000" stroke-width="1" /><polyline fill="none" opacity="100" points="753.0,398.0 753.0,372.0" stroke="#000" stroke-width="1" /><polyline fill="none" opacity="100" points="757.0,398.0 757.0,372.0" stroke="#000" stroke-width="1" /><polyline fill="none" opacity="100" points="761.0,398.0 761.0,372.0" stroke="#000" stroke-width="1" /><polyline fill="none" opacity="100" points="765.0,398.0 765.0,372.0" stroke="#000" stroke-width="1" /><polyline fill="none" opacity="100" points="769.0,398.0 769.0,372.0" stroke="#000" stroke-width="1" /><polyline fill="none" opacity="100" points="773.0,398.0 773.0,372.0" stroke="#000" stroke-width="1" /><polyline fill="none" opacity="100" points="777.0,398.0 777.0,372.0" stroke="#000" stroke-width="1" /><polyline fill="none" opacity="100" points="781.0,398.0 781.0,372.0" stroke="#000" stroke-width="1" /><polyline fill="none" opacity="100" points="785.0,398.0 785.0,372.0" stroke="#000" stroke-width="1" /><polyline fill="none" opacity="100" points="789.0,398.0 789.0,372.0" stroke="#000" stroke-width="1" /><polyline fill="none" opacity="100" points="793.0,398.0 793.0,372.0" stroke="#000" stroke-width="1" /><polyline fill="none" opacity="100" points="863.0,372.0 863.0,398.0" stroke="#000" stroke-width="1" /><polyline fill="none" opacity="100" points="867.0,372.0 867.0,398.0" stroke="#000" stroke-width="1" /><polyline fill="none" opacity="100" points="871.0,372.0 871.0,398.0" stroke="#000" stroke-width="1" /><polyline fill="none" opacity="100" points="1010.0,478.0 1025.0,478.0 1025.0,518.0 1010.0,518.0" stroke="#000" stroke-width="1" /><text fill="#FFF" font-family="Arial" font-size="10" font-weight="normal" opacity="100" transform="rotate(-90.0 1012.0,510.0) translate(0 10)" x="1012.0" y="510.0">кассы</text><polygon fill="none" opacity="100" points="868.0,472.0 874.0,472.0 874.0,478.0 868.0,478.0" stroke="#000" stroke-width="1" /><polyline fill="none" opacity="100" points="862.0,548.0 873.0,567.0" stroke="#000" stroke-width="0.5" /><polyline fill="none" opacity="100" points="905.0,469.0 878.0,469.0" stroke="#000" stroke-width="0.5" /><polyline fill="none" opacity="100" points="866.0,482.0 861.0,482.0" stroke="#090" stroke-width="1" /><polyline fill="none" opacity="100" points="866.0,486.0 861.0,486.0" stroke="#090" stroke-width="1" /><polyline fill="none" opacity="100" points="866.0,490.0 861.0,490.0" stroke="#090" stroke-width="1" /><polyline fill="none" opacity="100" points="866.0,494.0 861.0,494.0" stroke="#090" stroke-width="1" /><polyline fill="none" opacity="100" points="866.0,498.0 861.0,498.0" stroke="#090" stroke-width="1" /><polyline fill="none" opacity="100" points="866.0,502.0 861.0,502.0" stroke="#090" stroke-width="1" /><polyline fill="none" opacity="100" points="866.0,506.0 861.0,506.0" stroke="#090" stroke-width="1" /><polyline fill="none" opacity="100" points="866.0,510.0 861.0,510.0" stroke="#090" stroke-width="1" /><polyline fill="none" opacity="100" points="866.0,514.0 861.0,514.0" stroke="#090" stroke-width="1" /><polyline fill="none" opacity="100" points="866.0,518.0 861.0,518.0" stroke="#090" stroke-width="1" /><polyline fill="none" opacity="100" points="866.0,522.0 861.0,522.0" stroke="#090" stroke-width="1" /><polyline fill="none" opacity="100" points="866.0,526.0 861.0,526.0" stroke="#090" stroke-width="1" /><polyline fill="none" opacity="100" points="866.0,530.0 861.0,530.0" stroke="#090" stroke-width="1" /><polyline fill="none" opacity="100" points="866.0,534.0 861.0,534.0" stroke="#090" stroke-width="1" /><polyline fill="none" opacity="100" points="866.0,538.0 861.0,538.0" stroke="#090" stroke-width="1" /><polyline fill="none" opacity="100" points="866.0,542.0 861.0,542.0" stroke="#090" stroke-width="1" /><polyline fill="none" opacity="100" points="884.0,434.0 879.0,434.0" stroke="#F00" stroke-width="1" /><polyline fill="none" opacity="100" points="884.0,438.0 879.0,438.0" stroke="#F00" stroke-width="1" /><polyline fill="none" opacity="100" points="884.0,442.0 879.0,442.0" stroke="#F00" stroke-width="1" /><polyline fill="none" opacity="100" points="884.0,446.0 879.0,446.0" stroke="#F00" stroke-width="1" /><polyline fill="none" opacity="100" points="884.0,450.0 879.0,450.0" stroke="#F00" stroke-width="1" /><polyline fill="none" opacity="100" points="884.0,454.0 879.0,454.0" stroke="#F00" stroke-width="1" /><polyline fill="none" opacity="100" points="884.0,458.0 879.0,458.0" stroke="#F00" stroke-width="1" /><polyline fill="none" opacity="100" points="884.0,462.0 879.0,462.0" stroke="#F00" stroke-width="1" /><polyline fill="none" opacity="100" points="884.0,466.0 879.0,466.0" stroke="#F00" stroke-width="1" /><polyline fill="none" opacity="100" points="637.0,486.0 637.0,517.0" stroke="#7F7F7F" stroke-width="1" /><polyline fill="none" opacity="100" points="641.0,486.0 641.0,517.0" stroke="#7F7F7F" stroke-width="1" /><polyline fill="none" opacity="100" points="645.0,486.0 645.0,517.0" stroke="#7F7F7F" stroke-width="1" /><polyline fill="none" opacity="100" points="649.0,486.0 649.0,517.0" stroke="#7F7F7F" stroke-width="1" /><polyline fill="none" opacity="100" points="653.0,486.0 653.0,517.0" stroke="#7F7F7F" stroke-width="1" /><polyline fill="none" opacity="100" points="657.0,486.0 657.0,517.0" stroke="#7F7F7F" stroke-width="1" /><polyline fill="none" opacity="100" points="661.0,486.0 661.0,517.0" stroke="#7F7F7F" stroke-width="1" /><polyline fill="none" opacity="100" points="665.0,486.0 665.0,517.0" stroke="#7F7F7F" stroke-width="1" /><polyline fill="none" opacity="100" points="669.0,486.0 669.0,517.0" stroke="#7F7F7F" stroke-width="1" /><polyline fill="none" opacity="100" points="673.0,486.0 673.0,517.0" stroke="#7F7F7F" stroke-width="1" /><polyline fill="none" opacity="100" points="677.0,486.0 677.0,517.0" stroke="#7F7F7F" stroke-width="1" /><polyline fill="none" opacity="100" points="681.0,486.0 681.0,517.0" stroke="#7F7F7F" stroke-width="1" /><polyline fill="none" opacity="100" points="685.0,486.0 685.0,517.0" stroke="#7F7F7F" stroke-width="1" /><polyline fill="none" opacity="100" points="689.0,486.0 689.0,517.0" stroke="#7F7F7F" stroke-width="1" /><polyline fill="none" opacity="100" points="693.0,486.0 693.0,517.0" stroke="#7F7F7F" stroke-width="1" /><polyline fill="none" opacity="100" points="697.0,486.0 697.0,517.0" stroke="#7F7F7F" stroke-width="1" /><polyline fill="none" opacity="100" points="701.0,486.0 701.0,517.0" stroke="#7F7F7F" stroke-width="1" /><polyline fill="none" opacity="100" points="705.0,486.0 705.0,517.0" stroke="#7F7F7F" stroke-width="1" /><polyline fill="none" opacity="100" points="709.0,486.0 709.0,517.0" stroke="#7F7F7F" stroke-width="1" /><polyline fill="none" opacity="100" points="713.0,486.0 713.0,517.0" stroke="#7F7F7F" stroke-width="1" /><polyline fill="none" opacity="100" points="717.0,486.0 717.0,517.0" stroke="#7F7F7F" stroke-width="1" /><polyline fill="none" opacity="100" points="721.0,486.0 721.0,517.0" stroke="#7F7F7F" stroke-width="1" /><polyline fill="none" opacity="100" points="725.0,486.0 725.0,517.0" stroke="#7F7F7F" stroke-width="1" /><polyline fill="none" opacity="100" points="729.0,486.0 729.0,517.0" stroke="#7F7F7F" stroke-width="1" /><polyline fill="none" opacity="100" points="733.0,486.0 733.0,517.0" stroke="#7F7F7F" stroke-width="1" /><polyline fill="none" opacity="100" points="737.0,486.0 737.0,517.0" stroke="#7F7F7F" stroke-width="1" /><polyline fill="none" opacity="100" points="741.0,486.0 741.0,517.0" stroke="#7F7F7F" stroke-width="1" /><polyline fill="none" opacity="100" points="745.0,486.0 745.0,517.0" stroke="#7F7F7F" stroke-width="1" /><polyline fill="none" opacity="100" points="749.0,486.0 749.0,517.0" stroke="#7F7F7F" stroke-width="1" /><polygon fill="#9B5509" opacity="100" points="630.0,482.0 755.0,482.0 755.0,486.0 630.0,486.0" stroke="#000" stroke-width="1" /><polygon fill="#9B5509" opacity="100" points="630.0,493.0 755.0,493.0 755.0,498.0 630.0,498.0" stroke="#000" stroke-width="1" /><polygon fill="#9B5509" opacity="100" points="630.0,505.0 755.0,505.0 755.0,510.0 630.0,510.0" stroke="#000" stroke-width="1" /><polygon fill="#9B5509" opacity="100" points="630.0,517.0 755.0,517.0 755.0,521.0 630.0,521.0" stroke="#000" stroke-width="1" /><polygon fill="#D0EFFF" opacity="100" points="990.0,590.0 1005.0,590.0 1005.0,605.0 990.0,605.0" stroke="#000" stroke-width="1" /><text fill="#000" font-family="Arial" font-size="6" font-weight="normal" opacity="100" transform="rotate(-0.0 991.0,594.0) translate(0 6)" x="991.0" y="594.0">лифт</text><polyline fill="none" opacity="100" points="853.0,451.0 866.0,451.0" stroke="#F00" stroke-width="1" /><polygon fill="#F00" opacity="100" points="862.2329,452.0094 866.0,451.0 862.2329,449.9906" stroke="#F00" stroke-width="1" /><polyline fill="none" opacity="100" points="904.0,533.0 889.0,528.0" stroke="#090" stroke-width="1" /><polygon fill="#090" opacity="100" points="893.7349,528.2842 889.0,528.0 892.9584,530.6136" stroke="#090" stroke-width="1" /><polygon fill="#D0D0D0" opacity="100" points="37.0,468.0 44.0,469.0 49.0,472.0 52.0,475.0 54.0,481.0 55.0,487.0 55.0,493.0 54.0,499.0 52.0,506.0 49.0,511.0 46.0,515.0 42.0,520.0 37.0,525.0 32.0,530.0 26.0,534.0 20.0,536.0 13.0,538.0 5.0,538.0 -1.0,537.0 -5.0,535.0 -9.0,530.0 -11.0,523.0 -11.0,516.0 -10.0,508.0 -8.0,502.0 -3.0,494.0 0.0,490.0 7.0,482.0 12.0,477.0 16.0,474.0 22.0,471.0 30.0,468.0" stroke="#000" stroke-width="1" /><polygon fill="#D0D0D0" opacity="100" points="-32.0,431.0 -89.0,431.0 -90.0,571.0 -32.0,571.0 -40.0,560.0 -44.0,551.0 -47.0,541.0 -49.0,531.0 -51.0,521.0 -53.0,513.0 -52.0,495.0 -52.0,483.0 -50.0,472.0 -48.0,460.0 -45.0,452.0 -42.0,445.0 -38.0,438.0" stroke="#000" stroke-width="1" /><polygon fill="#FFF" opacity="100" points="-67.0,476.0 -67.0,515.0 -51.0,516.0 -52.0,505.0 -52.0,494.0 -52.0,485.0 -51.0,476.0" stroke="#FFF" stroke-width="1" /><polyline fill="none" opacity="100" points="3.0,486.0 0.0469,489.5391 -2.5625,493.0312 -4.8284,496.4827 -6.75,499.875 -8.3259,503.1716 -9.5586,506.4336 -10.4487,509.6792 -11.0,513.0 -11.2192,516.5669 -11.0977,520.1602 -10.6223,523.6328 -9.8125,526.9375 -8.7078,530.0039 -7.2344,532.7539 -5.3691,535.1372 -3.0,537.0 0.0801,538.1089 3.6094,538.6523 7.4194,538.7273 11.4375,538.375 15.5454,537.7004 19.7109,536.6094 23.8936,535.0684 28.0,533.0 31.9189,530.2441 35.6641,527.0156 39.2175,523.4531 42.5625,519.625 45.7141,515.6406 48.5586,511.5156 51.0308,507.2832 53.0,503.0 54.2544,498.7168 54.9727,494.4844 55.249,490.3611 55.125,486.375 54.7002,482.5315 53.8945,478.957 52.6821,475.7251 51.0,473.0 48.7124,471.0444 46.0117,469.6367 43.0298,468.6523 39.8125,468.0625 36.4233,467.7891 32.9414,467.8555 29.4185,468.271 26.0,469.0 22.9058,469.9985 19.9648,471.3008 17.0857,472.925 14.25,474.875 11.3967,477.1628 8.5625,479.7812 5.7656,482.7266 3.0,486.0" stroke="#000" stroke-width="1" /><polyline fill="none" opacity="100" points="-32.0,431.0 -35.2891,435.1406 -38.2812,439.5625 -40.9758,444.2747 -43.375,449.25 -45.4832,454.4343 -47.293,459.918 -48.8022,465.728 -50.0,472.0 -50.8657,478.9868 -51.4258,486.3633 -51.6978,493.9126 -51.6875,501.5625 -51.4038,509.2046 -50.8555,516.7305 -50.0483,524.0679 -49.0,531.0 -47.7368,537.2017 -46.2383,542.9258 -44.4934,548.3079 -42.5,553.375 -40.2507,558.2175 -37.75,562.7812 -35.0,567.0391 -32.0,571.0" stroke="#000" stroke-width="1" /><polyline fill="none" opacity="100" points="98.0,605.0 -2.0,605.0 -2.0,571.0 181.0,571.0 181.0,534.0 217.0,534.0 217.0,527.0" stroke="#000" stroke-width="1" /><polyline fill="none" opacity="100" points="98.0,632.0 -32.0,632.0 -32.0,571.0 -90.0,571.0 -89.0,431.0 -32.0,431.0 -32.0,372.0 229.0,372.0" stroke="#000" stroke-width="1" /><polyline fill="none" opacity="100" points="229.0,398.0 -2.0,398.0 -2.0,431.0 180.0,431.0 180.0,469.0 217.0,469.0 217.0,476.0" stroke="#000" stroke-width="1" /><polyline fill="none" opacity="100" points="4.0,431.0 5.0,436.0" stroke="#000" stroke-width="1" /><polyline fill="none" opacity="100" points="13.0,470.0 14.0,475.0" stroke="#000" stroke-width="1" /><polyline fill="none" opacity="100" points="26.0,534.0 27.0,539.0" stroke="#000" stroke-width="1" /><polyline fill="none" opacity="100" points="34.0,571.0 33.0,566.0" stroke="#000" stroke-width="1" /><polyline fill="none" opacity="100" points="256.0,461.0 256.0,469.0 394.0,469.0 394.0,482.0 383.0,482.0 383.0,476.0 332.0,476.0" stroke="#000" stroke-width="1" /><polyline fill="none" opacity="100" points="256.0,541.0 256.0,534.0 394.0,534.0 394.0,521.0 383.0,521.0 383.0,527.0 332.0,527.0" stroke="#000" stroke-width="1" /><polyline fill="none" opacity="100" points="44.0,605.0 44.0,632.0" stroke="#000" stroke-width="1" /><polyline fill="none" opacity="100" points="48.0,605.0 48.0,632.0" stroke="#000" stroke-width="1" /><polyline fill="none" opacity="100" points="52.0,605.0 52.0,632.0" stroke="#000" stroke-width="1" /><polyline fill="none" opacity="100" points="56.0,605.0 56.0,632.0" stroke="#000" stroke-width="1" /><polyline fill="none" opacity="100" points="60.0,605.0 60.0,632.0" stroke="#000" stroke-width="1" /><polyline fill="none" opacity="100" points="64.0,605.0 64.0,632.0" stroke="#000" stroke-width="1" /><polyline fill="none" opacity="100" points="68.0,605.0 68.0,632.0" stroke="#000" stroke-width="1" /><polyline fill="none" opacity="100" points="72.0,605.0 72.0,632.0" stroke="#000" stroke-width="1" /><polyline fill="none" opacity="100" points="76.0,605.0 76.0,632.0" stroke="#000" stroke-width="1" /><polyline fill="none" opacity="100" points="80.0,605.0 80.0,632.0" stroke="#000" stroke-width="1" /><polyline fill="none" opacity="100" points="84.0,605.0 84.0,632.0" stroke="#000" stroke-width="1" /><polyline fill="none" opacity="100" points="88.0,605.0 88.0,632.0" stroke="#000" stroke-width="1" /><polyline fill="none" opacity="100" points="92.0,605.0 92.0,632.0" stroke="#000" stroke-width="1" /><polyline fill="none" opacity="100" points="96.0,605.0 96.0,632.0" stroke="#000" stroke-width="1" /><polyline fill="none" opacity="100" points="0.0,632.0 0.0,605.0" stroke="#000" stroke-width="1" /><polyline fill="none" opacity="100" points="4.0,632.0 4.0,605.0" stroke="#000" stroke-width="1" /><polyline fill="none" opacity="100" points="8.0,632.0 8.0,605.0" stroke="#000" stroke-width="1" /><polyline fill="none" opacity="100" points="170.0,398.0 170.0,372.0" stroke="#000" stroke-width="1" /><polyline fill="none" opacity="100" points="174.0,398.0 174.0,372.0" stroke="#000" stroke-width="1" /><polyline fill="none" opacity="100" points="178.0,398.0 178.0,372.0" stroke="#000" stroke-width="1" /><polyline fill="none" opacity="100" points="182.0,398.0 182.0,372.0" stroke="#000" stroke-width="1" /><polyline fill="none" opacity="100" points="186.0,398.0 186.0,372.0" stroke="#000" stroke-width="1" /><polyline fill="none" opacity="100" points="190.0,398.0 190.0,372.0" stroke="#000" stroke-width="1" /><polyline fill="none" opacity="100" points="194.0,398.0 194.0,372.0" stroke="#000" stroke-width="1" /><polyline fill="none" opacity="100" points="198.0,398.0 198.0,372.0" stroke="#000" stroke-width="1" /><polyline fill="none" opacity="100" points="202.0,398.0 202.0,372.0" stroke="#000" stroke-width="1" /><polyline fill="none" opacity="100" points="206.0,398.0 206.0,372.0" stroke="#000" stroke-width="1" /><polyline fill="none" opacity="100" points="210.0,398.0 210.0,372.0" stroke="#000" stroke-width="1" /><polyline fill="none" opacity="100" points="214.0,398.0 214.0,372.0" stroke="#000" stroke-width="1" /><polyline fill="none" opacity="100" points="218.0,398.0 218.0,372.0" stroke="#000" stroke-width="1" /><polyline fill="none" opacity="100" points="222.0,398.0 222.0,372.0" stroke="#000" stroke-width="1" /><polyline fill="none" opacity="100" points="226.0,398.0 226.0,372.0" stroke="#000" stroke-width="1" /><polyline fill="none" opacity="100" points="85.0,372.0 85.0,398.0" stroke="#000" stroke-width="1" /><polyline fill="none" opacity="100" points="89.0,372.0 89.0,398.0" stroke="#000" stroke-width="1" /><polyline fill="none" opacity="100" points="93.0,372.0 93.0,398.0" stroke="#000" stroke-width="1" /><polyline fill="none" opacity="100" points="-51.0,476.0 -67.0,476.0 -67.0,516.0 -51.0,516.0" stroke="#000" stroke-width="1" /><text fill="#FFF" font-family="Arial" font-size="10" font-weight="normal" opacity="100" transform="rotate(-90.0 -65.0,508.0) translate(0 10)" x="-65.0" y="508.0">кассы</text><polygon fill="none" opacity="100" points="84.0,472.0 90.0,472.0 90.0,478.0 84.0,478.0" stroke="#000" stroke-width="1" /><polyline fill="none" opacity="100" points="92.0,550.0 78.0,568.0" stroke="#000" stroke-width="0.5" /><polyline fill="none" opacity="100" points="54.0,470.0 81.0,470.0" stroke="#000" stroke-width="0.5" /><polyline fill="none" opacity="100" points="98.0,483.0 93.0,483.0" stroke="#090" stroke-width="1" /><polyline fill="none" opacity="100" points="98.0,487.0 93.0,487.0" stroke="#090" stroke-width="1" /><polyline fill="none" opacity="100" points="98.0,491.0 93.0,491.0" stroke="#090" stroke-width="1" /><polyline fill="none" opacity="100" points="98.0,495.0 93.0,495.0" stroke="#090" stroke-width="1" /><polyline fill="none" opacity="100" points="98.0,499.0 93.0,499.0" stroke="#090" stroke-width="1" /><polyline fill="none" opacity="100" points="98.0,503.0 93.0,503.0" stroke="#090" stroke-width="1" /><polyline fill="none" opacity="100" points="98.0,507.0 93.0,507.0" stroke="#090" stroke-width="1" /><polyline fill="none" opacity="100" points="98.0,511.0 93.0,511.0" stroke="#090" stroke-width="1" /><polyline fill="none" opacity="100" points="98.0,515.0 93.0,515.0" stroke="#090" stroke-width="1" /><polyline fill="none" opacity="100" points="98.0,519.0 93.0,519.0" stroke="#090" stroke-width="1" /><polyline fill="none" opacity="100" points="98.0,523.0 93.0,523.0" stroke="#090" stroke-width="1" /><polyline fill="none" opacity="100" points="98.0,527.0 93.0,527.0" stroke="#090" stroke-width="1" /><polyline fill="none" opacity="100" points="98.0,531.0 93.0,531.0" stroke="#090" stroke-width="1" /><polyline fill="none" opacity="100" points="98.0,535.0 93.0,535.0" stroke="#090" stroke-width="1" /><polyline fill="none" opacity="100" points="98.0,539.0 93.0,539.0" stroke="#090" stroke-width="1" /><polyline fill="none" opacity="100" points="98.0,543.0 93.0,543.0" stroke="#090" stroke-width="1" /><polyline fill="none" opacity="100" points="98.0,547.0 93.0,547.0" stroke="#090" stroke-width="1" /><polyline fill="none" opacity="100" points="79.0,435.0 74.0,435.0" stroke="#F00" stroke-width="1" /><polyline fill="none" opacity="100" points="79.0,439.0 74.0,439.0" stroke="#F00" stroke-width="1" /><polyline fill="none" opacity="100" points="79.0,443.0 74.0,443.0" stroke="#F00" stroke-width="1" /><polyline fill="none" opacity="100" points="79.0,447.0 74.0,447.0" stroke="#F00" stroke-width="1" /><polyline fill="none" opacity="100" points="79.0,451.0 74.0,451.0" stroke="#F00" stroke-width="1" /><polyline fill="none" opacity="100" points="79.0,455.0 74.0,455.0" stroke="#F00" stroke-width="1" /><polyline fill="none" opacity="100" points="79.0,459.0 74.0,459.0" stroke="#F00" stroke-width="1" /><polyline fill="none" opacity="100" points="79.0,463.0 74.0,463.0" stroke="#F00" stroke-width="1" /><polyline fill="none" opacity="100" points="79.0,467.0 74.0,467.0" stroke="#F00" stroke-width="1" /><polyline fill="none" opacity="100" points="214.0,480.0 214.0,523.0" stroke="#7F7F7F" stroke-width="1" /><polyline fill="none" opacity="100" points="218.0,480.0 218.0,523.0" stroke="#7F7F7F" stroke-width="1" /><polyline fill="none" opacity="100" points="222.0,480.0 222.0,523.0" stroke="#7F7F7F" stroke-width="1" /><polyline fill="none" opacity="100" points="226.0,480.0 226.0,523.0" stroke="#7F7F7F" stroke-width="1" /><polyline fill="none" opacity="100" points="230.0,480.0 230.0,523.0" stroke="#7F7F7F" stroke-width="1" /><polyline fill="none" opacity="100" points="234.0,480.0 234.0,523.0" stroke="#7F7F7F" stroke-width="1" /><polyline fill="none" opacity="100" points="238.0,480.0 238.0,523.0" stroke="#7F7F7F" stroke-width="1" /><polyline fill="none" opacity="100" points="242.0,480.0 242.0,523.0" stroke="#7F7F7F" stroke-width="1" /><polyline fill="none" opacity="100" points="246.0,480.0 246.0,523.0" stroke="#7F7F7F" stroke-width="1" /><polyline fill="none" opacity="100" points="250.0,480.0 250.0,523.0" stroke="#7F7F7F" stroke-width="1" /><polyline fill="none" opacity="100" points="254.0,480.0 254.0,523.0" stroke="#7F7F7F" stroke-width="1" /><polyline fill="none" opacity="100" points="258.0,480.0 258.0,523.0" stroke="#7F7F7F" stroke-width="1" /><polyline fill="none" opacity="100" points="262.0,480.0 262.0,523.0" stroke="#7F7F7F" stroke-width="1" /><polyline fill="none" opacity="100" points="266.0,480.0 266.0,523.0" stroke="#7F7F7F" stroke-width="1" /><polyline fill="none" opacity="100" points="270.0,480.0 270.0,523.0" stroke="#7F7F7F" stroke-width="1" /><polyline fill="none" opacity="100" points="274.0,480.0 274.0,523.0" stroke="#7F7F7F" stroke-width="1" /><polyline fill="none" opacity="100" points="278.0,480.0 278.0,523.0" stroke="#7F7F7F" stroke-width="1" /><polyline fill="none" opacity="100" points="282.0,480.0 282.0,523.0" stroke="#7F7F7F" stroke-width="1" /><polyline fill="none" opacity="100" points="286.0,480.0 286.0,523.0" stroke="#7F7F7F" stroke-width="1" /><polyline fill="none" opacity="100" points="290.0,480.0 290.0,523.0" stroke="#7F7F7F" stroke-width="1" /><polyline fill="none" opacity="100" points="294.0,480.0 294.0,523.0" stroke="#7F7F7F" stroke-width="1" /><polyline fill="none" opacity="100" points="298.0,480.0 298.0,523.0" stroke="#7F7F7F" stroke-width="1" /><polyline fill="none" opacity="100" points="302.0,480.0 302.0,523.0" stroke="#7F7F7F" stroke-width="1" /><polyline fill="none" opacity="100" points="306.0,480.0 306.0,523.0" stroke="#7F7F7F" stroke-width="1" /><polyline fill="none" opacity="100" points="310.0,480.0 310.0,523.0" stroke="#7F7F7F" stroke-width="1" /><polyline fill="none" opacity="100" points="314.0,480.0 314.0,523.0" stroke="#7F7F7F" stroke-width="1" /><polyline fill="none" opacity="100" points="318.0,480.0 318.0,523.0" stroke="#7F7F7F" stroke-width="1" /><polyline fill="none" opacity="100" points="322.0,480.0 322.0,523.0" stroke="#7F7F7F" stroke-width="1" /><polyline fill="none" opacity="100" points="326.0,480.0 326.0,523.0" stroke="#7F7F7F" stroke-width="1" /><polygon fill="#9B5509" opacity="100" points="207.0,476.0 332.0,476.0 332.0,480.0 207.0,480.0" stroke="#000" stroke-width="1" /><polygon fill="#9B5509" opacity="100" points="207.0,487.0 332.0,487.0 332.0,492.0 207.0,492.0" stroke="#000" stroke-width="1" /><polygon fill="#9B5509" opacity="100" points="207.0,499.0 332.0,499.0 332.0,504.0 207.0,504.0" stroke="#000" stroke-width="1" /><polygon fill="#9B5509" opacity="100" points="207.0,511.0 332.0,511.0 332.0,516.0 207.0,516.0" stroke="#000" stroke-width="1" /><polygon fill="#9B5509" opacity="100" points="207.0,523.0 332.0,523.0 332.0,527.0 207.0,527.0" stroke="#000" stroke-width="1" /><polyline fill="none" opacity="100" points="109.0,455.0 94.0,455.0" stroke="#F00" stroke-width="1" /><polygon fill="#F00" opacity="100" points="98.3467,453.8353 94.0,455.0 98.3467,456.1647" stroke="#F00" stroke-width="1" /><polyline fill="none" opacity="100" points="61.0,539.0 77.0,534.0" stroke="#090" stroke-width="1" /><polygon fill="#090" opacity="100" points="72.7518,536.6912 77.0,534.0 71.9753,534.2066" stroke="#090" stroke-width="1" /><text fill="#00AFAF" font-family="Arial" font-size="15" font-weight="normal" opacity="100" transform="rotate(-0.0 1037.0,486.0) translate(0 15)" x="1037.0" y="486.0">ул. Милашенкова</text><text fill="#00AFAF" font-family="Arial" font-size="15" font-weight="normal" opacity="100" transform="rotate(-0.0 -210.0,490.0) translate(0 15)" x="-210.0" y="490.0">ул. Милашенкова</text><text fill="#00AFAF" font-family="Arial" font-size="15" font-weight="normal" opacity="100" transform="rotate(-60.0 1075.0,634.0) translate(0 15)" x="1075.0" y="634.0">ул. Фонвизина</text><g transform="rotate(-45.0,490.0,520.0)"><text fill="#FFD900" font-family="Arial" font-size="25" font-weight="normal" opacity="100" x="87.25" y="327.5">1</text><text fill="#FFD900" font-family="Arial" font-size="25" font-weight="normal" opacity="100" x="394.25" y="201.5">2</text><text fill="#FFD900" font-family="Arial" font-size="25" font-weight="normal" opacity="100" x="751.25" y="559.5">3</text><text fill="#FFD900" font-family="Arial" font-size="25" font-weight="normal" opacity="100" x="657.25" y="901.5">4</text></g></g></g></svg>