<?xml version="1.0" encoding="utf-8" ?>
<svg baseProfile="tiny" height="390px" version="1.2" width="520px" xmlns="http://www.w3.org/2000/svg" xmlns:ev="http://www.w3.org/2001/xml-events" xmlns:xlink="http://www.w3.org/1999/xlink"><defs /><g><g transform="rotate(-25.0,260.0,195.0)"><polygon fill="#03795F" opacity="100" points="20.0,174.0 20.0,144.0 469.0,144.0 469.0,174.0" stroke="#000" stroke-width="1" /><polygon fill="#03795F" opacity="100" points="20.0,282.0 20.0,252.0 469.0,252.0 469.0,282.0" stroke="#000" stroke-width="1" /><polyline fill="none" opacity="100" points="469.0,174.0 469.0,177.0 503.0,177.0" stroke="#000" stroke-width="1" /><polyline fill="none" opacity="100" points="503.0,191.0 469.0,191.0 469.0,194.0" stroke="#000" stroke-width="1" /><polyline fill="none" opacity="100" points="452.0,194.0 400.0,194.0 400.0,197.0 403.0,197.0" stroke="#000" stroke-width="1" /><polyline fill="none" opacity="100" points="469.0,252.0 469.0,231.0 400.0,231.0 400.0,228.0 403.0,228.0" stroke="#000" stroke-width="1" /><polyline fill="none" opacity="100" points="20.0,252.0 20.0,174.0" stroke="#000" stroke-width="1" /><polyline fill="none" opacity="100" points="22.0,231.0 139.0,231.0" stroke="#000" stroke-width="1" /><polyline fill="none" opacity="100" points="22.0,191.0 139.0,191.0" stroke="#000" stroke-width="1" /><polyline fill="none" opacity="100" points="137.0,231.0 137.0,191.0" stroke="#000" stroke-width="1" /><polyline fill="none" opacity="100" points="133.0,231.0 133.0,191.0" stroke="#000" stroke-width="1" /><polyline fill="none" opacity="100" points="129.0,231.0 129.0,191.0" stroke="#000" stroke-width="1" /><polyline fill="none" opacity="100" points="125.0,231.0 125.0,191.0" stroke="#000" stroke-width="1" /><polyline fill="none" opacity="100" points="121.0,231.0 121.0,191.0" stroke="#000" stroke-width="1" /><polyline fill="none" opacity="100" points="117.0,231.0 117.0,191.0" stroke="#000" stroke-width="1" /><polyline fill="none" opacity="100" points="113.0,231.0 113.0,191.0" stroke="#000" stroke-width="1" /><polyline fill="none" opacity="100" points="109.0,231.0 109.0,191.0" stroke="#000" stroke-width="1" /><polyline fill="none" opacity="100" points="105.0,231.0 105.0,191.0" stroke="#000" stroke-width="1" /><polyline fill="none" opacity="100" points="101.0,231.0 101.0,191.0" stroke="#000" stroke-width="1" /><polyline fill="none" opacity="100" points="24.0,231.0 24.0,191.0" stroke="#000" stroke-width="1" /><polyline fill="none" opacity="100" points="28.0,231.0 28.0,191.0" stroke="#000" stroke-width="1" /><polyline fill="none" opacity="100" points="32.0,231.0 32.0,191.0" stroke="#000" stroke-width="1" /><polyline fill="none" opacity="100" points="36.0,231.0 36.0,191.0" stroke="#000" stroke-width="1" /><polyline fill="none" opacity="100" points="40.0,231.0 40.0,191.0" stroke="#000" stroke-width="1" /><polyline fill="none" opacity="100" points="44.0,231.0 44.0,191.0" stroke="#000" stroke-width="1" /><polyline fill="none" opacity="100" points="48.0,231.0 48.0,191.0" stroke="#000" stroke-width="1" /><polyline fill="none" opacity="100" points="52.0,231.0 52.0,191.0" stroke="#000" stroke-width="1" /><polyline fill="none" opacity="100" points="56.0,231.0 56.0,191.0" stroke="#000" stroke-width="1" /><polyline fill="none" opacity="100" points="60.0,231.0 60.0,191.0" stroke="#000" stroke-width="1" /><polygon fill="#94949C" opacity="100" points="282.0,213.0 282.0,209.0 280.0,209.0 280.0,213.0" stroke="#94949C" stroke-width="1" /><polygon fill="#F00" opacity="100" points="282.0,217.0 282.0,213.0 280.0,213.0 280.0,217.0" stroke="#F00" stroke-width="1" /><polyline fill="none" opacity="100" points="466.0,225.0 466.0,200.0" stroke="#7F7F7F" stroke-width="1" /><polyline fill="none" opacity="100" points="462.0,225.0 462.0,200.0" stroke="#7F7F7F" stroke-width="1" /><polyline fill="none" opacity="100" points="458.0,225.0 458.0,200.0" stroke="#7F7F7F" stroke-width="1" /><polyline fill="none" opacity="100" points="454.0,225.0 454.0,200.0" stroke="#7F7F7F" stroke-width="1" /><polyline fill="none" opacity="100" points="450.0,225.0 450.0,200.0" stroke="#7F7F7F" stroke-width="1" /><polyline fill="none" opacity="100" points="446.0,225.0 446.0,200.0" stroke="#7F7F7F" stroke-width="1" /><polyline fill="none" opacity="100" points="442.0,225.0 442.0,200.0" stroke="#7F7F7F" stroke-width="1" /><polyline fill="none" opacity="100" points="438.0,225.0 438.0,200.0" stroke="#7F7F7F" stroke-width="1" /><polyline fill="none" opacity="100" points="434.0,225.0 434.0,200.0" stroke="#7F7F7F" stroke-width="1" /><polyline fill="none" opacity="100" points="430.0,225.0 430.0,200.0" stroke="#7F7F7F" stroke-width="1" /><polyline fill="none" opacity="100" points="426.0,225.0 426.0,200.0" stroke="#7F7F7F" stroke-width="1" /><polyline fill="none" opacity="100" points="422.0,225.0 422.0,200.0" stroke="#7F7F7F" stroke-width="1" /><polyline fill="none" opacity="100" points="418.0,225.0 418.0,200.0" stroke="#7F7F7F" stroke-width="1" /><polyline fill="none" opacity="100" points="414.0,225.0 414.0,200.0" stroke="#7F7F7F" stroke-width="1" /><polyline fill="none" opacity="100" points="410.0,225.0 410.0,200.0" stroke="#7F7F7F" stroke-width="1" /><polygon fill="#9B5509" opacity="100" points="473.0,200.0 403.0,200.0 403.0,197.0 473.0,197.0" stroke="#000" stroke-width="1" /><polygon fill="#9B5509" opacity="100" points="473.0,204.0 473.0,207.0 403.0,207.0 403.0,204.0" stroke="#000" stroke-width="1" /><polygon fill="#9B5509" opacity="100" points="473.0,211.0 473.0,214.0 403.0,214.0 403.0,211.0" stroke="#000" stroke-width="1" /><polygon fill="#9B5509" opacity="100" points="473.0,218.0 473.0,221.0 403.0,221.0 403.0,218.0" stroke="#000" stroke-width="1" /><polygon fill="#9B5509" opacity="100" points="473.0,225.0 403.0,225.0 403.0,228.0 473.0,228.0" stroke="#000" stroke-width="1" /><polygon fill="#FFF" opacity="0.7" points="452.0,143.0 452.0,170.0 503.0,170.0 503.0,194.0 452.0,194.0 452.0,231.0 470.0,231.0 470.0,248.0 434.0,248.0 434.0,225.0 426.0,225.0 426.0,199.0 434.0,199.0 434.0,143.0" stroke="#FFF" stroke-width="1" /><polyline fill="none" opacity="1.0" points="473.0,197.0 473.0,194.0 452.0,194.0 452.0,231.0 473.0,231.0 473.0,228.0" stroke="#000" stroke-width="1" /><polyline fill="none" opacity="1.0" points="394.0,114.0 441.0,114.0 441.0,100.0 478.0,100.0" stroke="#000" stroke-width="1" /><polyline fill="none" opacity="1.0" points="492.0,114.0 452.0,114.0" stroke="#000" stroke-width="1" /><polyline fill="none" opacity="1.0" points="492.0,132.0 452.0,132.0 452.0,170.0 503.0,170.0 503.0,248.0 434.0,248.0 434.0,132.0 394.0,132.0" stroke="#000" stroke-width="1" /><polyline fill="none" opacity="1.0" points="394.0,123.0 434.0,123.0" stroke="#000" stroke-width="0.5" /><polyline fill="none" opacity="1.0" points="492.0,118.0 453.0,118.0" stroke="#000" stroke-width="0.5" /><polyline fill="none" opacity="1.0" points="396.0,114.0 396.0,132.0" stroke="#000" stroke-width="1" /><polyline fill="none" opacity="1.0" points="400.0,114.0 400.0,132.0" stroke="#000" stroke-width="1" /><polyline fill="none" opacity="1.0" points="404.0,114.0 404.0,132.0" stroke="#000" stroke-width="1" /><polyline fill="none" opacity="1.0" points="408.0,114.0 408.0,132.0" stroke="#000" stroke-width="1" /><polyline fill="none" opacity="1.0" points="412.0,114.0 412.0,132.0" stroke="#000" stroke-width="1" /><polyline fill="none" opacity="1.0" points="416.0,114.0 416.0,132.0" stroke="#000" stroke-width="1" /><polyline fill="none" opacity="1.0" points="420.0,114.0 420.0,132.0" stroke="#000" stroke-width="1" /><polyline fill="none" opacity="1.0" points="424.0,114.0 424.0,132.0" stroke="#000" stroke-width="1" /><polyline fill="none" opacity="1.0" points="428.0,114.0 428.0,132.0" stroke="#000" stroke-width="1" /><polyline fill="none" opacity="1.0" points="432.0,114.0 432.0,132.0" stroke="#000" stroke-width="1" /><polyline fill="none" opacity="1.0" points="490.0,132.0 490.0,118.0" stroke="#000" stroke-width="1" /><polyline fill="none" opacity="1.0" points="486.0,132.0 486.0,118.0" stroke="#000" stroke-width="1" /><polyline fill="none" opacity="1.0" points="482.0,132.0 482.0,118.0" stroke="#000" stroke-width="1" /><polyline fill="none" opacity="1.0" points="478.0,132.0 478.0,118.0" stroke="#000" stroke-width="1" /><polyline fill="none" opacity="1.0" points="474.0,132.0 474.0,118.0" stroke="#000" stroke-width="1" /><polyline fill="none" opacity="1.0" points="470.0,132.0 470.0,118.0" stroke="#000" stroke-width="1" /><polyline fill="none" opacity="1.0" points="466.0,132.0 466.0,118.0" stroke="#000" stroke-width="1" /><polyline fill="none" opacity="1.0" points="462.0,132.0 462.0,118.0" stroke="#000" stroke-width="1" /><polyline fill="none" opacity="1.0" points="458.0,132.0 458.0,118.0" stroke="#000" stroke-width="1" /><polyline fill="none" opacity="1.0" points="454.0,132.0 454.0,118.0" stroke="#000" stroke-width="1" /><polyline fill="none" opacity="1.0" points="473.0,231.0 486.0,231.0" stroke="#000" stroke-width="0.5" /><polyline fill="none" opacity="1.0" points="492.0,194.0 503.0,194.0" stroke="#000" stroke-width="0.5" /><polygon fill="none" opacity="1.0" points="492.0,194.0 486.0,194.0 486.0,200.0 492.0,200.0" stroke="#000" stroke-width="1" /><polyline fill="none" opacity="1.0" points="487.0,230.0 491.0,230.0" stroke="#090" stroke-width="1" /><polyline fill="none" opacity="1.0" points="487.0,226.0 491.0,226.0" stroke="#090" stroke-width="1" /><polyline fill="none" opacity="1.0" points="487.0,222.0 491.0,222.0" stroke="#090" stroke-width="1" /><polyline fill="none" opacity="1.0" points="487.0,218.0 491.0,218.0" stroke="#090" stroke-width="1" /><polyline fill="none" opacity="1.0" points="487.0,214.0 491.0,214.0" stroke="#090" stroke-width="1" /><polyline fill="none" opacity="1.0" points="487.0,210.0 491.0,210.0" stroke="#090" stroke-width="1" /><polyline fill="none" opacity="1.0" points="487.0,206.0 491.0,206.0" stroke="#090" stroke-width="1" /><polyline fill="none" opacity="1.0" points="487.0,202.0 491.0,202.0" stroke="#090" stroke-width="1" /><polyline fill="none" opacity="1.0" points="460.0,190.0 456.0,190.0" stroke="#F00" stroke-width="1" /><polyline fill="none" opacity="1.0" points="460.0,186.0 456.0,186.0" stroke="#F00" stroke-width="1" /><polyline fill="none" opacity="1.0" points="460.0,182.0 456.0,182.0" stroke="#F00" stroke-width="1" /><polyline fill="none" opacity="1.0" points="460.0,178.0 456.0,178.0" stroke="#F00" stroke-width="1" /><polyline fill="none" opacity="1.0" points="460.0,174.0 456.0,174.0" stroke="#F00" stroke-width="1" /><polygon fill="#D0EFFF" opacity="1.0" points="503.0,191.0 503.0,177.0 518.0,177.0 518.0,191.0" stroke="#000" stroke-width="1" /><text fill="#000" font-family="Arial" font-size="6" font-weight="normal" opacity="1.0" transform="rotate(-0.0 504.0,181.0) translate(0 6)" x="504.0" y="181.0">лифт</text><polygon fill="#94949C" opacity="1.0" points="487.0,174.0 492.0,174.0 492.0,172.0 487.0,172.0" stroke="#94949C" stroke-width="1" /><polygon fill="#F00" opacity="1.0" points="482.0,174.0 487.0,174.0 487.0,172.0 482.0,172.0" stroke="#F00" stroke-width="1" /><polyline fill="none" opacity="1.0" points="434.0,199.0 426.0,199.0 426.0,225.0 434.0,225.0" stroke="#000" stroke-width="1" /><text fill="#000" font-family="Arial" font-size="10" font-weight="normal" opacity="1.0" transform="rotate(90.0 437.0,200.0) translate(0 10)" x="437.0" y="200.0">кассы</text><polygon fill="#D0EFFF" opacity="1.0" points="458.0,114.0 458.0,100.0 473.0,100.0 473.0,114.0" stroke="#000" stroke-width="1" /><text fill="#000" font-family="Arial" font-size="6" font-weight="normal" opacity="1.0" transform="rotate(-0.0 460.0,104.0) translate(0 6)" x="460.0" y="104.0">лифт</text><text fill="#00AFAF" font-family="Arial" font-size="15" font-weight="normal" opacity="1.0" transform="rotate(80.0 632.0,0.0) translate(0 15)" x="632.0" y="0.0">улица Тёплый Стан</text><text fill="#00AFAF" font-family="Arial" font-size="15" font-weight="normal" opacity="1.0" transform="rotate(10.0 294.0,326.0) translate(0 15)" x="294.0" y="326.0">улица генерала Тюленева</text><polygon fill="#FFD0D0" opacity="0.7" points="14.0,184.0 142.0,184.0 142.0,238.0 14.0,238.0" stroke="#FFD0D0" stroke-width="1" /><text fill="#FF4040" font-family="Arial" font-size="15" font-weight="normal" opacity="1.0" transform="rotate(-0.0 43.0,213.0) translate(0 15)" x="43.0" y="213.0">закрыто</text><polyline fill="none" opacity="1.0" points="14.0,184.0 142.0,184.0 142.0,238.0 14.0,238.0 14.0,184.0" stroke="#FF4040" stroke-dasharray="5,5" stroke-width="1" /><text fill="#03795F" font-family="Arial" font-size="20" font-weight="normal" opacity="1.0" transform="rotate(-0.0 23.0,120.0) translate(0 20)" x="23.0" y="120.0">&lt;&lt; Тютчевская</text><text fill="#03795F" font-family="Arial" font-size="20" font-weight="normal" opacity="1.0" transform="rotate(-0.0 190.0,281.0) translate(0 20)" x="190.0" y="281.0">Университет дружбы народов &gt;&gt;</text><text fill="#03795F" font-family="Arial" font-size="25" font-weight="bold" opacity="1.0" transform="rotate(-0.0 167.0,183.0) translate(0 25)" x="167.0" y="183.0">Генерала Тюленева</text><g transform="rotate(25.0,260.0,195.0)"><text fill="#FFD900" font-family="Arial" font-size="25" font-weight="normal" opacity="1.0" x="337.25" y="45.5">1</text><text fill="#FFD900" font-family="Arial" font-size="25" font-weight="normal" opacity="1.0" x="465.25" y="44.5">2</text></g></g></g></svg>