<?xml version="1.0" encoding="utf-8" ?>
<svg baseProfile="tiny" height="350px" version="1.2" width="630px" xmlns="http://www.w3.org/2000/svg" xmlns:ev="http://www.w3.org/2001/xml-events" xmlns:xlink="http://www.w3.org/1999/xlink"><defs /><g><polygon fill="#FCDC04" opacity="100" points="94.0,119.0 94.0,89.0 543.0,89.0 543.0,119.0" stroke="#000" stroke-width="1" /><polygon fill="#FCDC04" opacity="100" points="94.0,227.0 94.0,197.0 543.0,197.0 543.0,227.0" stroke="#000" stroke-width="1" /><text fill="#000" font-family="Arial" font-size="20" font-weight="normal" opacity="100" transform="rotate(-0.0 98.0,66.0) translate(0 20)" x="98.0" y="66.0">&lt;&lt; Солнцево</text><text fill="#000" font-family="Arial" font-size="20" font-weight="normal" opacity="100" transform="rotate(-0.0 420.0,228.0) translate(0 20)" x="420.0" y="228.0">Озёрная &gt;&gt;</text><text fill="#000" font-family="Arial" font-size="25" font-weight="bold" opacity="100" transform="rotate(-0.0 270.0,150.0) translate(0 25)" x="270.0" y="150.0">Говорово</text><text fill="#FCDC04" font-family="Arial" font-size="20" font-weight="normal" opacity="100" transform="rotate(-0.0 97.0,65.0) translate(0 20)" x="97.0" y="65.0">&lt;&lt; Солнцево</text><text fill="#FCDC04" font-family="Arial" font-size="20" font-weight="normal" opacity="100" transform="rotate(-0.0 419.0,227.0) translate(0 20)" x="419.0" y="227.0">Озёрная &gt;&gt;</text><text fill="#FCDC04" font-family="Arial" font-size="25" font-weight="bold" opacity="100" transform="rotate(-0.0 269.0,149.0) translate(0 25)" x="269.0" y="149.0">Говорово</text><polygon fill="#94949C" opacity="100" points="323.0,153.0 323.0,149.0 321.0,149.0 321.0,153.0" stroke="#94949C" stroke-width="1" /><polygon fill="#F00" opacity="100" points="323.0,157.0 323.0,153.0 321.0,153.0 321.0,157.0" stroke="#F00" stroke-width="1" /><polyline fill="none" opacity="100" points="550.0,122.0 560.0,122.0" stroke="#D0D0D0" stroke-width="1" /><polyline fill="none" opacity="100" points="550.0,134.0 560.0,134.0" stroke="#D0D0D0" stroke-width="1" /><polyline fill="none" opacity="100" points="543.0,197.0 543.0,185.0" stroke="#000" stroke-width="1" /><polyline fill="none" opacity="100" points="510.0,185.0 550.0,185.0 550.0,197.0 593.0,197.0 593.0,232.0 535.0,232.0 535.0,254.0 495.0,254.0" stroke="#000" stroke-width="1" /><polyline fill="none" opacity="100" points="495.0,272.0 593.0,272.0" stroke="#000" stroke-width="1" /><polyline fill="none" opacity="100" points="593.0,254.0 553.0,254.0 553.0,250.0 612.0,250.0 612.0,133.0 599.0,133.0 599.0,120.0 550.0,120.0 550.0,141.0 510.0,141.0" stroke="#000" stroke-width="1" /><polyline fill="none" opacity="100" points="543.0,141.0 543.0,134.0 550.0,134.0" stroke="#000" stroke-width="1" /><polyline fill="none" opacity="100" points="543.0,119.0 543.0,122.0 550.0,122.0" stroke="#000" stroke-width="1" /><polyline fill="none" opacity="100" points="590.0,168.0 602.0,174.0 602.0,197.0" stroke="#000" stroke-width="0.5" /><polyline fill="none" opacity="100" points="587.0,132.0 587.0,120.0" stroke="#000" stroke-width="0.5" /><polyline fill="none" opacity="100" points="510.0,145.0 550.0,145.0" stroke="#000" stroke-width="1" /><polyline fill="none" opacity="100" points="495.0,268.0 535.0,268.0" stroke="#000" stroke-width="0.5" /><polyline fill="none" opacity="100" points="553.0,268.0 593.0,268.0" stroke="#000" stroke-width="0.5" /><polyline fill="none" opacity="100" points="553.0,246.0 593.0,246.0" stroke="#000" stroke-width="0.5" /><polyline fill="none" opacity="100" points="512.0,185.0 512.0,145.0" stroke="#000" stroke-width="1" /><polyline fill="none" opacity="100" points="516.0,185.0 516.0,145.0" stroke="#000" stroke-width="1" /><polyline fill="none" opacity="100" points="520.0,185.0 520.0,145.0" stroke="#000" stroke-width="1" /><polyline fill="none" opacity="100" points="524.0,185.0 524.0,145.0" stroke="#000" stroke-width="1" /><polyline fill="none" opacity="100" points="528.0,185.0 528.0,145.0" stroke="#000" stroke-width="1" /><polyline fill="none" opacity="100" points="532.0,185.0 532.0,145.0" stroke="#000" stroke-width="1" /><polyline fill="none" opacity="100" points="536.0,185.0 536.0,145.0" stroke="#000" stroke-width="1" /><polyline fill="none" opacity="100" points="540.0,185.0 540.0,145.0" stroke="#000" stroke-width="1" /><polyline fill="none" opacity="100" points="544.0,185.0 544.0,145.0" stroke="#000" stroke-width="1" /><polyline fill="none" opacity="100" points="548.0,185.0 548.0,145.0" stroke="#000" stroke-width="1" /><polyline fill="none" opacity="100" points="555.0,246.0 555.0,232.0" stroke="#000" stroke-width="1" /><polyline fill="none" opacity="100" points="559.0,246.0 559.0,232.0" stroke="#000" stroke-width="1" /><polyline fill="none" opacity="100" points="563.0,246.0 563.0,232.0" stroke="#000" stroke-width="1" /><polyline fill="none" opacity="100" points="567.0,246.0 567.0,232.0" stroke="#000" stroke-width="1" /><polyline fill="none" opacity="100" points="571.0,246.0 571.0,232.0" stroke="#000" stroke-width="1" /><polyline fill="none" opacity="100" points="575.0,246.0 575.0,232.0" stroke="#000" stroke-width="1" /><polyline fill="none" opacity="100" points="579.0,246.0 579.0,232.0" stroke="#000" stroke-width="1" /><polyline fill="none" opacity="100" points="583.0,246.0 583.0,232.0" stroke="#000" stroke-width="1" /><polyline fill="none" opacity="100" points="587.0,246.0 587.0,232.0" stroke="#000" stroke-width="1" /><polyline fill="none" opacity="100" points="591.0,246.0 591.0,232.0" stroke="#000" stroke-width="1" /><polyline fill="none" opacity="100" points="497.0,268.0 497.0,254.0" stroke="#000" stroke-width="1" /><polyline fill="none" opacity="100" points="501.0,268.0 501.0,254.0" stroke="#000" stroke-width="1" /><polyline fill="none" opacity="100" points="505.0,268.0 505.0,254.0" stroke="#000" stroke-width="1" /><polyline fill="none" opacity="100" points="509.0,268.0 509.0,254.0" stroke="#000" stroke-width="1" /><polyline fill="none" opacity="100" points="513.0,268.0 513.0,254.0" stroke="#000" stroke-width="1" /><polyline fill="none" opacity="100" points="517.0,268.0 517.0,254.0" stroke="#000" stroke-width="1" /><polyline fill="none" opacity="100" points="521.0,268.0 521.0,254.0" stroke="#000" stroke-width="1" /><polyline fill="none" opacity="100" points="525.0,268.0 525.0,254.0" stroke="#000" stroke-width="1" /><polyline fill="none" opacity="100" points="529.0,268.0 529.0,254.0" stroke="#000" stroke-width="1" /><polyline fill="none" opacity="100" points="533.0,268.0 533.0,254.0" stroke="#000" stroke-width="1" /><polyline fill="none" opacity="100" points="591.0,268.0 591.0,254.0" stroke="#000" stroke-width="1" /><polyline fill="none" opacity="100" points="587.0,268.0 587.0,254.0" stroke="#000" stroke-width="1" /><polyline fill="none" opacity="100" points="583.0,268.0 583.0,254.0" stroke="#000" stroke-width="1" /><polyline fill="none" opacity="100" points="579.0,268.0 579.0,254.0" stroke="#000" stroke-width="1" /><polyline fill="none" opacity="100" points="575.0,268.0 575.0,254.0" stroke="#000" stroke-width="1" /><polyline fill="none" opacity="100" points="571.0,268.0 571.0,254.0" stroke="#000" stroke-width="1" /><polyline fill="none" opacity="100" points="567.0,268.0 567.0,254.0" stroke="#000" stroke-width="1" /><polyline fill="none" opacity="100" points="563.0,268.0 563.0,254.0" stroke="#000" stroke-width="1" /><polyline fill="none" opacity="100" points="559.0,268.0 559.0,254.0" stroke="#000" stroke-width="1" /><polyline fill="none" opacity="100" points="555.0,268.0 555.0,254.0" stroke="#000" stroke-width="1" /><polygon fill="none" opacity="100" points="584.0,132.0 584.0,138.0 590.0,138.0 590.0,132.0" stroke="#000" stroke-width="1" /><polyline fill="none" opacity="100" points="585.0,165.0 589.0,165.0" stroke="#090" stroke-width="1" /><polyline fill="none" opacity="100" points="585.0,161.0 589.0,161.0" stroke="#090" stroke-width="1" /><polyline fill="none" opacity="100" points="585.0,157.0 589.0,157.0" stroke="#090" stroke-width="1" /><polyline fill="none" opacity="100" points="585.0,153.0 589.0,153.0" stroke="#090" stroke-width="1" /><polyline fill="none" opacity="100" points="585.0,149.0 589.0,149.0" stroke="#090" stroke-width="1" /><polyline fill="none" opacity="100" points="585.0,145.0 589.0,145.0" stroke="#090" stroke-width="1" /><polyline fill="none" opacity="100" points="585.0,141.0 589.0,141.0" stroke="#090" stroke-width="1" /><polyline fill="none" opacity="100" points="585.0,170.0 589.0,171.0" stroke="#F00" stroke-width="1" /><polyline fill="none" opacity="100" points="583.9962,173.872 587.9962,174.872" stroke="#F00" stroke-width="1" /><polyline fill="none" opacity="100" points="582.9923,177.744 586.9923,178.744" stroke="#F00" stroke-width="1" /><polyline fill="none" opacity="100" points="581.9885,181.616 585.9885,182.616" stroke="#F00" stroke-width="1" /><polyline fill="none" opacity="100" points="580.9846,185.488 584.9846,186.488" stroke="#F00" stroke-width="1" /><polyline fill="none" opacity="100" points="579.9808,189.3599 583.9808,190.3599" stroke="#F00" stroke-width="1" /><polyline fill="none" opacity="100" points="578.9769,193.2319 582.9769,194.2319" stroke="#F00" stroke-width="1" /><polyline fill="none" opacity="100" points="559.0,176.0 573.0,176.0" stroke="#F00" stroke-width="1" /><polygon fill="#F00" opacity="100" points="568.9431,177.087 573.0,176.0 568.9431,174.913" stroke="#F00" stroke-width="1" /><polyline fill="none" opacity="100" points="572.0,153.0 560.0,153.0" stroke="#090" stroke-width="1" /><polygon fill="#090" opacity="100" points="563.4773,152.0683 560.0,153.0 563.4773,153.9317" stroke="#090" stroke-width="1" /><polygon fill="#D0EFFF" opacity="100" points="560.0,134.0 560.0,120.0 574.0,120.0 574.0,134.0" stroke="#000" stroke-width="1" /><text fill="#000" font-family="Arial" font-size="6" font-weight="normal" opacity="100" transform="rotate(-0.0 561.0,124.0) translate(0 6)" x="561.0" y="124.0">лифт</text><polyline fill="none" opacity="100" points="612.0,139.0 619.0,139.0 619.0,166.0 612.0,166.0" stroke="#000" stroke-width="1" /><text fill="#000" font-family="Arial" font-size="10" font-weight="normal" opacity="100" transform="rotate(-90.0 609.0,165.0) translate(0 10)" x="609.0" y="165.0">кассы</text><polygon fill="#94949C" opacity="100" points="571.0,138.0 576.0,138.0 576.0,136.0 571.0,136.0" stroke="#94949C" stroke-width="1" /><polygon fill="#F00" opacity="100" points="566.0,138.0 571.0,138.0 571.0,136.0 566.0,136.0" stroke="#F00" stroke-width="1" /><polyline fill="none" opacity="100" points="94.0,119.0 94.0,122.0 89.0,122.0" stroke="#000" stroke-width="1" /><polyline fill="none" opacity="100" points="89.0,134.0 94.0,134.0 94.0,137.0" stroke="#000" stroke-width="1" /><polyline fill="none" opacity="100" points="133.0,137.0 88.0,137.0 88.0,119.0 24.0,119.0" stroke="#000" stroke-width="1" /><polyline fill="none" opacity="100" points="78.0,121.0 88.0,121.0" stroke="#000" stroke-width="1" /><polyline fill="none" opacity="100" points="24.0,119.0 24.0,250.0 83.0,250.0 83.0,255.0 43.0,255.0" stroke="#000" stroke-width="1" /><polyline fill="none" opacity="100" points="43.0,273.0 174.0,273.0 174.0,232.0 116.0,232.0" stroke="#000" stroke-width="1" /><polyline fill="none" opacity="100" points="116.0,250.0 156.0,250.0 156.0,255.0 101.0,255.0 101.0,232.0 42.0,232.0 42.0,195.0 89.0,195.0 89.0,184.0 133.0,184.0" stroke="#000" stroke-width="1" /><polyline fill="none" opacity="100" points="94.0,184.0 94.0,197.0" stroke="#000" stroke-width="1" /><polyline fill="none" opacity="100" points="51.0,170.0 33.0,170.0 33.0,201.0" stroke="#000" stroke-width="0.5" /><polyline fill="none" opacity="100" points="82.0,245.0 42.0,245.0" stroke="#000" stroke-width="0.5" /><polyline fill="none" opacity="100" points="153.0,269.0 113.0,269.0" stroke="#000" stroke-width="0.5" /><polyline fill="none" opacity="100" points="43.0,259.0 83.0,259.0" stroke="#000" stroke-width="0.5" /><polyline fill="none" opacity="100" points="116.0,236.0 156.0,236.0" stroke="#000" stroke-width="0.5" /><polyline fill="none" opacity="100" points="56.0,136.0 56.0,120.0" stroke="#000" stroke-width="0.5" /><polyline fill="none" opacity="100" points="131.0,137.0 131.0,184.0" stroke="#000" stroke-width="1" /><polyline fill="none" opacity="100" points="127.0,137.0 127.0,184.0" stroke="#000" stroke-width="1" /><polyline fill="none" opacity="100" points="123.0,137.0 123.0,184.0" stroke="#000" stroke-width="1" /><polyline fill="none" opacity="100" points="119.0,137.0 119.0,184.0" stroke="#000" stroke-width="1" /><polyline fill="none" opacity="100" points="115.0,137.0 115.0,184.0" stroke="#000" stroke-width="1" /><polyline fill="none" opacity="100" points="111.0,137.0 111.0,184.0" stroke="#000" stroke-width="1" /><polyline fill="none" opacity="100" points="107.0,137.0 107.0,184.0" stroke="#000" stroke-width="1" /><polyline fill="none" opacity="100" points="103.0,137.0 103.0,184.0" stroke="#000" stroke-width="1" /><polyline fill="none" opacity="100" points="99.0,137.0 99.0,184.0" stroke="#000" stroke-width="1" /><polyline fill="none" opacity="100" points="95.0,137.0 95.0,184.0" stroke="#000" stroke-width="1" /><polyline fill="none" opacity="100" points="80.0,245.0 80.0,232.0" stroke="#000" stroke-width="1" /><polyline fill="none" opacity="100" points="76.0,245.0 76.0,232.0" stroke="#000" stroke-width="1" /><polyline fill="none" opacity="100" points="72.0,245.0 72.0,232.0" stroke="#000" stroke-width="1" /><polyline fill="none" opacity="100" points="68.0,245.0 68.0,232.0" stroke="#000" stroke-width="1" /><polyline fill="none" opacity="100" points="64.0,245.0 64.0,232.0" stroke="#000" stroke-width="1" /><polyline fill="none" opacity="100" points="60.0,245.0 60.0,232.0" stroke="#000" stroke-width="1" /><polyline fill="none" opacity="100" points="56.0,245.0 56.0,232.0" stroke="#000" stroke-width="1" /><polyline fill="none" opacity="100" points="52.0,245.0 52.0,232.0" stroke="#000" stroke-width="1" /><polyline fill="none" opacity="100" points="48.0,245.0 48.0,232.0" stroke="#000" stroke-width="1" /><polyline fill="none" opacity="100" points="44.0,245.0 44.0,232.0" stroke="#000" stroke-width="1" /><polyline fill="none" opacity="100" points="45.0,273.0 45.0,259.0" stroke="#000" stroke-width="1" /><polyline fill="none" opacity="100" points="49.0,273.0 49.0,259.0" stroke="#000" stroke-width="1" /><polyline fill="none" opacity="100" points="53.0,273.0 53.0,259.0" stroke="#000" stroke-width="1" /><polyline fill="none" opacity="100" points="57.0,273.0 57.0,259.0" stroke="#000" stroke-width="1" /><polyline fill="none" opacity="100" points="61.0,273.0 61.0,259.0" stroke="#000" stroke-width="1" /><polyline fill="none" opacity="100" points="65.0,273.0 65.0,259.0" stroke="#000" stroke-width="1" /><polyline fill="none" opacity="100" points="69.0,273.0 69.0,259.0" stroke="#000" stroke-width="1" /><polyline fill="none" opacity="100" points="73.0,273.0 73.0,259.0" stroke="#000" stroke-width="1" /><polyline fill="none" opacity="100" points="77.0,273.0 77.0,259.0" stroke="#000" stroke-width="1" /><polyline fill="none" opacity="100" points="81.0,273.0 81.0,259.0" stroke="#000" stroke-width="1" /><polyline fill="none" opacity="100" points="115.0,255.0 115.0,269.0" stroke="#000" stroke-width="1" /><polyline fill="none" opacity="100" points="119.0,255.0 119.0,269.0" stroke="#000" stroke-width="1" /><polyline fill="none" opacity="100" points="123.0,255.0 123.0,269.0" stroke="#000" stroke-width="1" /><polyline fill="none" opacity="100" points="127.0,255.0 127.0,269.0" stroke="#000" stroke-width="1" /><polyline fill="none" opacity="100" points="131.0,255.0 131.0,269.0" stroke="#000" stroke-width="1" /><polyline fill="none" opacity="100" points="135.0,255.0 135.0,269.0" stroke="#000" stroke-width="1" /><polyline fill="none" opacity="100" points="139.0,255.0 139.0,269.0" stroke="#000" stroke-width="1" /><polyline fill="none" opacity="100" points="143.0,255.0 143.0,269.0" stroke="#000" stroke-width="1" /><polyline fill="none" opacity="100" points="147.0,255.0 147.0,269.0" stroke="#000" stroke-width="1" /><polyline fill="none" opacity="100" points="151.0,255.0 151.0,269.0" stroke="#000" stroke-width="1" /><polyline fill="none" opacity="100" points="118.0,236.0 118.0,250.0" stroke="#000" stroke-width="1" /><polyline fill="none" opacity="100" points="122.0,236.0 122.0,250.0" stroke="#000" stroke-width="1" /><polyline fill="none" opacity="100" points="126.0,236.0 126.0,250.0" stroke="#000" stroke-width="1" /><polyline fill="none" opacity="100" points="130.0,236.0 130.0,250.0" stroke="#000" stroke-width="1" /><polyline fill="none" opacity="100" points="134.0,236.0 134.0,250.0" stroke="#000" stroke-width="1" /><polyline fill="none" opacity="100" points="138.0,236.0 138.0,250.0" stroke="#000" stroke-width="1" /><polyline fill="none" opacity="100" points="142.0,236.0 142.0,250.0" stroke="#000" stroke-width="1" /><polyline fill="none" opacity="100" points="146.0,236.0 146.0,250.0" stroke="#000" stroke-width="1" /><polyline fill="none" opacity="100" points="150.0,236.0 150.0,250.0" stroke="#000" stroke-width="1" /><polyline fill="none" opacity="100" points="154.0,236.0 154.0,250.0" stroke="#000" stroke-width="1" /><polyline fill="none" opacity="100" points="87.0,122.0 78.0,122.0" stroke="#D0D0D0" stroke-width="1" /><polyline fill="none" opacity="100" points="88.0,134.0 78.0,134.0" stroke="#D0D0D0" stroke-width="1" /><polygon fill="none" opacity="100" points="53.0,137.0 53.0,143.0 59.0,143.0 59.0,137.0" stroke="#000" stroke-width="1" /><polyline fill="none" opacity="100" points="62.0,170.0 66.0,170.0" stroke="#090" stroke-width="1" /><polyline fill="none" opacity="100" points="62.0,166.0 66.0,166.0" stroke="#090" stroke-width="1" /><polyline fill="none" opacity="100" points="62.0,162.0 66.0,162.0" stroke="#090" stroke-width="1" /><polyline fill="none" opacity="100" points="62.0,158.0 66.0,158.0" stroke="#090" stroke-width="1" /><polyline fill="none" opacity="100" points="62.0,154.0 66.0,154.0" stroke="#090" stroke-width="1" /><polyline fill="none" opacity="100" points="62.0,150.0 66.0,150.0" stroke="#090" stroke-width="1" /><polyline fill="none" opacity="100" points="62.0,146.0 66.0,146.0" stroke="#090" stroke-width="1" /><polyline fill="none" opacity="100" points="62.0,142.0 66.0,142.0" stroke="#090" stroke-width="1" /><polyline fill="none" opacity="100" points="64.0,175.0 68.0,174.0" stroke="#F00" stroke-width="1" /><polyline fill="none" opacity="100" points="65.0706,178.8541 69.0706,177.8541" stroke="#F00" stroke-width="1" /><polyline fill="none" opacity="100" points="66.1412,182.7081 70.1412,181.7081" stroke="#F00" stroke-width="1" /><polyline fill="none" opacity="100" points="67.2117,186.5622 71.2117,185.5622" stroke="#F00" stroke-width="1" /><polyline fill="none" opacity="100" points="68.2823,190.4163 72.2823,189.4163" stroke="#F00" stroke-width="1" /><polyline fill="none" opacity="100" points="57.0,184.0 45.0,184.0" stroke="#F00" stroke-width="1" /><polygon fill="#F00" opacity="100" points="48.4773,183.0683 45.0,184.0 48.4773,184.9317" stroke="#F00" stroke-width="1" /><polyline fill="none" opacity="100" points="37.0,158.0 49.0,158.0" stroke="#090" stroke-width="1" /><polygon fill="#090" opacity="100" points="45.5227,158.9317 49.0,158.0 45.5227,157.0683" stroke="#090" stroke-width="1" /><polygon fill="#D0EFFF" opacity="100" points="64.0,135.0 64.0,121.0 78.0,121.0 78.0,135.0" stroke="#000" stroke-width="1" /><text fill="#000" font-family="Arial" font-size="6" font-weight="normal" opacity="100" transform="rotate(-0.0 65.0,125.0) translate(0 6)" x="65.0" y="125.0">лифт</text><polyline fill="none" opacity="100" points="24.0,138.0 16.0,138.0 16.0,166.0 24.0,166.0" stroke="#000" stroke-width="1" /><text fill="#000" font-family="Arial" font-size="10" font-weight="normal" opacity="100" transform="rotate(-90.0 14.0,164.0) translate(0 10)" x="14.0" y="164.0">кассы</text><polygon fill="#94949C" opacity="100" points="72.0,139.0 77.0,139.0 77.0,137.0 72.0,137.0" stroke="#94949C" stroke-width="1" /><polygon fill="#F00" opacity="100" points="67.0,139.0 72.0,139.0 72.0,137.0 67.0,137.0" stroke="#F00" stroke-width="1" /><text fill="#00AFAF" font-family="Arial" font-size="15" font-weight="normal" opacity="100" transform="rotate(-0.0 264.0,10.0) translate(0 15)" x="264.0" y="10.0">Боровское шоссе</text><text fill="#FFD900" font-family="Arial" font-size="25" font-weight="normal" opacity="100" x="181.25" y="256.5">1</text><text fill="#FFD900" font-family="Arial" font-size="25" font-weight="normal" opacity="100" x="44.25" y="302.5">2</text><text fill="#FFD900" font-family="Arial" font-size="25" font-weight="normal" opacity="100" x="574.25" y="299.5">3</text><text fill="#FFD900" font-family="Arial" font-size="25" font-weight="normal" opacity="100" x="495.25" y="299.5">4</text></g></svg>