<?xml version="1.0" encoding="utf-8" ?>
<svg baseProfile="tiny" height="510px" version="1.2" width="560px" xmlns="http://www.w3.org/2000/svg" xmlns:ev="http://www.w3.org/2001/xml-events" xmlns:xlink="http://www.w3.org/1999/xlink"><defs /><g><g transform="rotate(65.0,280.0,255.0)"><polyline fill="none" opacity="100" points="315.0,283.0 376.0,283.0 376.0,252.0 360.0,252.0 360.0,251.0" stroke="#000" stroke-width="1" /><polyline fill="none" opacity="100" points="443.0,251.0 403.0,251.0 403.0,311.0 346.0,311.0 346.0,336.0" stroke="#000" stroke-width="1" /><polyline fill="none" opacity="100" points="315.0,311.0 322.0,311.0 322.0,336.0 315.0,336.0" stroke="#000" stroke-width="1" /><polyline fill="none" opacity="100" points="443.0,233.0 403.0,233.0 403.0,171.0 443.0,171.0" stroke="#000" stroke-width="1" /><polyline fill="none" opacity="100" points="443.0,153.0 403.0,153.0 403.0,151.0 360.0,151.0 360.0,153.0" stroke="#000" stroke-width="1" /><polyline fill="none" opacity="100" points="360.0,170.0 360.0,172.0 376.0,172.0 376.0,232.0 360.0,232.0 360.0,234.0" stroke="#000" stroke-width="1" /><polyline fill="none" opacity="100" points="406.0,354.0 341.0,354.0" stroke="#000" stroke-width="1" /><polyline fill="none" opacity="100" points="315.0,354.0 328.0,354.0 328.0,369.0 341.0,369.0" stroke="#000" stroke-width="1" /><polyline fill="none" opacity="100" points="162.0,310.0 94.0,310.0" stroke="#000" stroke-width="1" /><polyline fill="none" opacity="100" points="162.0,292.0 156.0,292.0 156.0,277.0 143.0,277.0" stroke="#000" stroke-width="1" /><polyline fill="none" opacity="100" points="441.0,251.0 441.0,233.0" stroke="#000" stroke-width="1" /><polyline fill="none" opacity="100" points="437.0,251.0 437.0,233.0" stroke="#000" stroke-width="1" /><polyline fill="none" opacity="100" points="433.0,251.0 433.0,233.0" stroke="#000" stroke-width="1" /><polyline fill="none" opacity="100" points="429.0,251.0 429.0,233.0" stroke="#000" stroke-width="1" /><polyline fill="none" opacity="100" points="425.0,251.0 425.0,233.0" stroke="#000" stroke-width="1" /><polyline fill="none" opacity="100" points="421.0,251.0 421.0,233.0" stroke="#000" stroke-width="1" /><polyline fill="none" opacity="100" points="417.0,251.0 417.0,233.0" stroke="#000" stroke-width="1" /><polyline fill="none" opacity="100" points="413.0,251.0 413.0,233.0" stroke="#000" stroke-width="1" /><polyline fill="none" opacity="100" points="409.0,251.0 409.0,233.0" stroke="#000" stroke-width="1" /><polyline fill="none" opacity="100" points="405.0,251.0 405.0,233.0" stroke="#000" stroke-width="1" /><polyline fill="none" opacity="100" points="441.0,153.0 441.0,171.0" stroke="#000" stroke-width="1" /><polyline fill="none" opacity="100" points="437.0,153.0 437.0,171.0" stroke="#000" stroke-width="1" /><polyline fill="none" opacity="100" points="433.0,153.0 433.0,171.0" stroke="#000" stroke-width="1" /><polyline fill="none" opacity="100" points="429.0,153.0 429.0,171.0" stroke="#000" stroke-width="1" /><polyline fill="none" opacity="100" points="425.0,153.0 425.0,171.0" stroke="#000" stroke-width="1" /><polyline fill="none" opacity="100" points="421.0,153.0 421.0,171.0" stroke="#000" stroke-width="1" /><polyline fill="none" opacity="100" points="417.0,153.0 417.0,171.0" stroke="#000" stroke-width="1" /><polyline fill="none" opacity="100" points="413.0,153.0 413.0,171.0" stroke="#000" stroke-width="1" /><polyline fill="none" opacity="100" points="409.0,153.0 409.0,171.0" stroke="#000" stroke-width="1" /><polyline fill="none" opacity="100" points="405.0,153.0 405.0,171.0" stroke="#000" stroke-width="1" /><polyline fill="none" opacity="100" points="350.0,354.0 350.0,336.0" stroke="#000" stroke-width="1" /><polyline fill="none" opacity="100" points="354.0,354.0 354.0,336.0" stroke="#000" stroke-width="1" /><polyline fill="none" opacity="100" points="358.0,354.0 358.0,336.0" stroke="#000" stroke-width="1" /><polyline fill="none" opacity="100" points="362.0,354.0 362.0,336.0" stroke="#000" stroke-width="1" /><polyline fill="none" opacity="100" points="366.0,354.0 366.0,336.0" stroke="#000" stroke-width="1" /><polyline fill="none" opacity="100" points="370.0,354.0 370.0,336.0" stroke="#000" stroke-width="1" /><polyline fill="none" opacity="100" points="374.0,354.0 374.0,336.0" stroke="#000" stroke-width="1" /><polyline fill="none" opacity="100" points="378.0,354.0 378.0,336.0" stroke="#000" stroke-width="1" /><polyline fill="none" opacity="100" points="382.0,354.0 382.0,336.0" stroke="#000" stroke-width="1" /><polyline fill="none" opacity="100" points="386.0,354.0 386.0,336.0" stroke="#000" stroke-width="1" /><polyline fill="none" opacity="100" points="348.0,314.0 348.0,332.0" stroke="#000" stroke-width="1" /><polyline fill="none" opacity="100" points="352.0,314.0 352.0,332.0" stroke="#000" stroke-width="1" /><polyline fill="none" opacity="100" points="356.0,314.0 356.0,332.0" stroke="#000" stroke-width="1" /><polyline fill="none" opacity="100" points="360.0,314.0 360.0,332.0" stroke="#000" stroke-width="1" /><polyline fill="none" opacity="100" points="364.0,314.0 364.0,332.0" stroke="#000" stroke-width="1" /><polyline fill="none" opacity="100" points="368.0,314.0 368.0,332.0" stroke="#000" stroke-width="1" /><polyline fill="none" opacity="100" points="372.0,314.0 372.0,332.0" stroke="#000" stroke-width="1" /><polyline fill="none" opacity="100" points="376.0,314.0 376.0,332.0" stroke="#000" stroke-width="1" /><polyline fill="none" opacity="100" points="380.0,314.0 380.0,332.0" stroke="#000" stroke-width="1" /><polyline fill="none" opacity="100" points="384.0,314.0 384.0,332.0" stroke="#000" stroke-width="1" /><polyline fill="none" opacity="100" points="132.0,332.0 132.0,314.0" stroke="#000" stroke-width="1" /><polyline fill="none" opacity="100" points="128.0,332.0 128.0,314.0" stroke="#000" stroke-width="1" /><polyline fill="none" opacity="100" points="124.0,332.0 124.0,314.0" stroke="#000" stroke-width="1" /><polyline fill="none" opacity="100" points="120.0,332.0 120.0,314.0" stroke="#000" stroke-width="1" /><polyline fill="none" opacity="100" points="116.0,332.0 116.0,314.0" stroke="#000" stroke-width="1" /><polyline fill="none" opacity="100" points="112.0,332.0 112.0,314.0" stroke="#000" stroke-width="1" /><polyline fill="none" opacity="100" points="108.0,332.0 108.0,314.0" stroke="#000" stroke-width="1" /><polyline fill="none" opacity="100" points="104.0,332.0 104.0,314.0" stroke="#000" stroke-width="1" /><polyline fill="none" opacity="100" points="100.0,332.0 100.0,314.0" stroke="#000" stroke-width="1" /><polyline fill="none" opacity="100" points="96.0,332.0 96.0,314.0" stroke="#000" stroke-width="1" /><polyline fill="none" opacity="100" points="134.0,292.0 134.0,310.0" stroke="#000" stroke-width="1" /><polyline fill="none" opacity="100" points="130.0,292.0 130.0,310.0" stroke="#000" stroke-width="1" /><polyline fill="none" opacity="100" points="126.0,292.0 126.0,310.0" stroke="#000" stroke-width="1" /><polyline fill="none" opacity="100" points="122.0,292.0 122.0,310.0" stroke="#000" stroke-width="1" /><polyline fill="none" opacity="100" points="118.0,292.0 118.0,310.0" stroke="#000" stroke-width="1" /><polyline fill="none" opacity="100" points="114.0,292.0 114.0,310.0" stroke="#000" stroke-width="1" /><polyline fill="none" opacity="100" points="110.0,292.0 110.0,310.0" stroke="#000" stroke-width="1" /><polyline fill="none" opacity="100" points="106.0,292.0 106.0,310.0" stroke="#000" stroke-width="1" /><polyline fill="none" opacity="100" points="102.0,292.0 102.0,310.0" stroke="#000" stroke-width="1" /><polyline fill="none" opacity="100" points="98.0,292.0 98.0,310.0" stroke="#000" stroke-width="1" /><polyline fill="none" opacity="100" points="321.0,156.0 321.0,167.0" stroke="#7F7F7F" stroke-width="1" /><polyline fill="none" opacity="100" points="325.0,156.0 325.0,167.0" stroke="#7F7F7F" stroke-width="1" /><polyline fill="none" opacity="100" points="329.0,156.0 329.0,167.0" stroke="#7F7F7F" stroke-width="1" /><polyline fill="none" opacity="100" points="333.0,156.0 333.0,167.0" stroke="#7F7F7F" stroke-width="1" /><polyline fill="none" opacity="100" points="337.0,156.0 337.0,167.0" stroke="#7F7F7F" stroke-width="1" /><polyline fill="none" opacity="100" points="341.0,156.0 341.0,167.0" stroke="#7F7F7F" stroke-width="1" /><polyline fill="none" opacity="100" points="345.0,156.0 345.0,167.0" stroke="#7F7F7F" stroke-width="1" /><polyline fill="none" opacity="100" points="349.0,156.0 349.0,167.0" stroke="#7F7F7F" stroke-width="1" /><polyline fill="none" opacity="100" points="353.0,156.0 353.0,167.0" stroke="#7F7F7F" stroke-width="1" /><polygon fill="#9B5509" opacity="100" points="317.0,167.0 360.0,167.0 360.0,170.0 317.0,170.0" stroke="#000" stroke-width="1" /><polygon fill="#9B5509" opacity="100" points="317.0,163.0 317.0,160.0 360.0,160.0 360.0,163.0" stroke="#000" stroke-width="1" /><polygon fill="#9B5509" opacity="100" points="317.0,156.0 360.0,156.0 360.0,153.0 317.0,153.0" stroke="#000" stroke-width="1" /><polyline fill="none" opacity="100" points="321.0,238.0 321.0,248.0" stroke="#7F7F7F" stroke-width="1" /><polyline fill="none" opacity="100" points="325.0,238.0 325.0,248.0" stroke="#7F7F7F" stroke-width="1" /><polyline fill="none" opacity="100" points="329.0,238.0 329.0,248.0" stroke="#7F7F7F" stroke-width="1" /><polyline fill="none" opacity="100" points="333.0,238.0 333.0,248.0" stroke="#7F7F7F" stroke-width="1" /><polyline fill="none" opacity="100" points="337.0,238.0 337.0,248.0" stroke="#7F7F7F" stroke-width="1" /><polyline fill="none" opacity="100" points="341.0,238.0 341.0,248.0" stroke="#7F7F7F" stroke-width="1" /><polyline fill="none" opacity="100" points="345.0,238.0 345.0,248.0" stroke="#7F7F7F" stroke-width="1" /><polyline fill="none" opacity="100" points="349.0,238.0 349.0,248.0" stroke="#7F7F7F" stroke-width="1" /><polyline fill="none" opacity="100" points="353.0,238.0 353.0,248.0" stroke="#7F7F7F" stroke-width="1" /><polygon fill="#9B5509" opacity="100" points="317.0,248.0 360.0,248.0 360.0,251.0 317.0,251.0" stroke="#000" stroke-width="1" /><polygon fill="#9B5509" opacity="100" points="317.0,244.0 317.0,241.0 360.0,241.0 360.0,244.0" stroke="#000" stroke-width="1" /><polygon fill="#9B5509" opacity="100" points="317.0,237.0 360.0,237.0 360.0,234.0 317.0,234.0" stroke="#000" stroke-width="1" /><polyline fill="none" opacity="100" points="359.0,295.0 363.0,295.0" stroke="#090" stroke-width="1" /><polyline fill="none" opacity="100" points="359.0,291.0 363.0,291.0" stroke="#090" stroke-width="1" /><polyline fill="none" opacity="100" points="359.0,287.0 363.0,287.0" stroke="#090" stroke-width="1" /><polyline fill="none" opacity="100" points="359.0,299.0 363.0,299.0" stroke="#F00" stroke-width="1" /><polyline fill="none" opacity="100" points="359.0,303.0 363.0,303.0" stroke="#F00" stroke-width="1" /><polyline fill="none" opacity="100" points="359.0,307.0 363.0,307.0" stroke="#F00" stroke-width="1" /><polyline fill="none" opacity="100" points="381.0,301.0 369.0,301.0" stroke="#F00" stroke-width="1" /><polygon fill="#F00" opacity="100" points="372.4773,300.0683 369.0,301.0 372.4773,301.9317" stroke="#F00" stroke-width="1" /><polyline fill="none" opacity="100" points="369.0,289.0 381.0,289.0" stroke="#090" stroke-width="1" /><polygon fill="#090" opacity="100" points="377.5227,289.9317 381.0,289.0 377.5227,288.0683" stroke="#090" stroke-width="1" /><polygon fill="#94949C" opacity="100" points="281.0,162.0 286.0,162.0 286.0,160.0 281.0,160.0" stroke="#94949C" stroke-width="1" /><polygon fill="#F00" opacity="100" points="276.0,162.0 281.0,162.0 281.0,160.0 276.0,160.0" stroke="#F00" stroke-width="1" /><polygon fill="#94949C" opacity="100" points="281.0,243.0 286.0,243.0 286.0,241.0 281.0,241.0" stroke="#94949C" stroke-width="1" /><polygon fill="#F00" opacity="100" points="276.0,243.0 281.0,243.0 281.0,241.0 276.0,241.0" stroke="#F00" stroke-width="1" /><polyline fill="none" opacity="100" points="351.0,283.0 351.0,275.0 323.0,275.0 323.0,283.0" stroke="#000" stroke-width="1" /><text fill="#000" font-family="Arial" font-size="10" font-weight="normal" opacity="100" transform="rotate(-0.0 325.0,272.0) translate(0 10)" x="325.0" y="272.0">кассы</text><polygon fill="#D0EFFF" opacity="100" points="361.0,275.0 361.0,259.0 376.0,259.0 376.0,275.0" stroke="#000" stroke-width="1" /><text fill="#000" font-family="Arial" font-size="6" font-weight="normal" opacity="100" transform="rotate(-0.0 362.0,263.0) translate(0 6)" x="362.0" y="263.0">лифт</text><polygon fill="#FFF" opacity="0.8" points="330.0,253.0 330.0,150.0 427.0,150.0 427.0,253.0" stroke="#FFF" stroke-width="1" /><polygon fill="#FFF" opacity="0.8" points="321.0,314.0 321.0,332.0 326.0,332.0 326.0,371.0 341.0,371.0 341.0,332.0 347.0,332.0 347.0,314.0" stroke="#FFF" stroke-width="1" /><polygon fill="#FFF" opacity="0.8" points="143.0,275.0 158.0,275.0 158.0,311.0 143.0,311.0" stroke="#FFF" stroke-width="1" /><polyline fill="none" opacity="1.0" points="443.0,153.0 443.0,151.0 427.0,151.0 427.0,173.0 443.0,173.0 443.0,171.0" stroke="#000" stroke-width="1" /><polyline fill="none" opacity="1.0" points="443.0,233.0 443.0,231.0 427.0,231.0 427.0,253.0 443.0,253.0 443.0,251.0" stroke="#000" stroke-width="1" /><polyline fill="none" opacity="1.0" points="317.0,153.0 317.0,151.0 330.0,151.0 330.0,172.0 317.0,172.0 317.0,170.0" stroke="#000" stroke-width="1" /><polyline fill="none" opacity="1.0" points="317.0,234.0 317.0,232.0 330.0,232.0 330.0,253.0 317.0,253.0 317.0,251.0" stroke="#000" stroke-width="1" /><polyline fill="none" opacity="1.0" points="94.0,310.0 94.0,314.0 143.0,314.0 143.0,290.0" stroke="#000" stroke-width="1" /><polyline fill="none" opacity="1.0" points="143.0,275.0 158.0,275.0 158.0,314.0 406.0,314.0 406.0,354.0" stroke="#000" stroke-width="1" /><polyline fill="none" opacity="1.0" points="341.0,371.0 326.0,371.0 326.0,332.0 76.0,332.0 76.0,325.0 73.0,325.0" stroke="#000" stroke-width="1" /><polyline fill="none" opacity="1.0" points="73.0,299.0 76.0,299.0 76.0,292.0 143.0,292.0" stroke="#000" stroke-width="1" /><polyline fill="none" opacity="1.0" points="346.0,336.0 388.0,336.0 388.0,332.0 341.0,332.0 341.0,356.0" stroke="#000" stroke-width="1" /><polygon fill="#D0EFFF" opacity="1.0" points="341.0,371.0 341.0,356.0 356.0,356.0 356.0,371.0" stroke="#000" stroke-width="1" /><text fill="#000" font-family="Arial" font-size="6" font-weight="normal" opacity="1.0" transform="rotate(-0.0 342.0,359.0) translate(0 6)" x="342.0" y="359.0">лифт</text><polygon fill="#D0EFFF" opacity="1.0" points="128.0,290.0 128.0,275.0 143.0,275.0 143.0,290.0" stroke="#000" stroke-width="1" /><text fill="#000" font-family="Arial" font-size="6" font-weight="normal" opacity="1.0" transform="rotate(-0.0 129.0,278.0) translate(0 6)" x="129.0" y="278.0">лифт</text><polyline fill="none" opacity="1.0" points="416.0,191.0 61.0,191.0" stroke="#DE7272" stroke-width="20" /><polyline fill="none" opacity="1.0" points="546.0,213.0 191.0,213.0" stroke="#DE7272" stroke-width="20" /><polyline fill="none" opacity="1.0" points="416.0,191.0 61.0,191.0" stroke="#D56060" stroke-dasharray="5,5" stroke-width="13" /><polyline fill="none" opacity="1.0" points="546.0,213.0 191.0,213.0" stroke="#D56060" stroke-dasharray="5,5" stroke-width="13" /><polyline fill="none" opacity="1.0" points="51.0,253.0 51.0,223.0 556.0,223.0 556.0,253.0 51.0,253.0" stroke="#000" stroke-width="1" /><polyline fill="none" opacity="1.0" points="51.0,181.0 51.0,151.0 556.0,151.0 556.0,181.0 51.0,181.0" stroke="#000" stroke-width="1" /><text fill="#DE7272" font-family="Arial" font-size="20" font-weight="normal" opacity="1.0" transform="rotate(-0.0 52.0,156.0) translate(0 20)" x="52.0" y="156.0">&lt;&lt; Зорге</text><text fill="#DE7272" font-family="Arial" font-size="20" font-weight="normal" opacity="1.0" transform="rotate(-0.0 445.0,219.0) translate(0 20)" x="445.0" y="219.0">Шелепиха &gt;&gt;</text><text fill="#000" font-family="Arial" font-size="25" font-weight="bold" opacity="1.0" transform="rotate(-0.0 270.0,185.0) translate(0 25)" x="270.0" y="185.0">Хорошёво</text><text fill="#FFF" font-family="Arial" font-size="25" font-weight="bold" opacity="1.0" transform="rotate(-0.0 269.0,184.0) translate(0 25)" x="269.0" y="184.0">Хорошёво</text><text fill="#00AFAF" font-family="Arial" font-size="15" font-weight="normal" opacity="1.0" transform="rotate(-90.0 262.0,125.0) translate(0 15)" x="262.0" y="125.0">Хорошёвское шоссе</text><text fill="#00AFAF" font-family="Arial" font-size="15" font-weight="normal" opacity="1.0" transform="rotate(-90.0 284.0,125.0) translate(0 15)" x="284.0" y="125.0">к метро "Полежаевская"</text><text fill="#00AFAF" font-family="Arial" font-size="15" font-weight="normal" opacity="1.0" transform="rotate(-90.0 297.0,113.0) translate(0 15)" x="297.0" y="113.0">и "Хорошёвская" &gt;&gt;</text><text fill="#00AFAF" font-family="Arial" font-size="15" font-weight="normal" opacity="1.0" transform="rotate(-90.0 270.0,549.0) translate(0 15)" x="270.0" y="549.0">проспект Маршала Жукова</text><polyline fill="none" opacity="1.0" points="314.0,302.0 297.0,302.0 297.0,258.0" stroke="#00AFAF" stroke-width="1" /><polygon fill="#00AFAF" opacity="1.0" points="300.4164,270.7502 297.0,258.0 293.5836,270.7502" stroke="#00AFAF" stroke-width="1" /><g transform="rotate(-65.0,280.0,255.0)"><text fill="#FFD900" font-family="Arial" font-size="25" font-weight="normal" opacity="1.0" x="165.25" y="367.5">1</text><text fill="#FFD900" font-family="Arial" font-size="25" font-weight="normal" opacity="1.0" x="202.25" y="197.5">2</text></g></g></g></svg>