<?xml version="1.0" encoding="utf-8" ?>
<svg baseProfile="tiny" height="800px" version="1.2" width="1300px" xmlns="http://www.w3.org/2000/svg" xmlns:ev="http://www.w3.org/2001/xml-events" xmlns:xlink="http://www.w3.org/1999/xlink"><defs /><g><g transform="rotate(20.0,650.0,400.0)"><text fill="#00AFAF" font-family="Arial" font-size="20" font-weight="normal" opacity="100" transform="rotate(-15.0 1122.0,312.0) translate(0 20)" x="1122.0" y="312.0">Юбилейная улица</text><text fill="#00AFAF" font-family="Arial" font-size="20" font-weight="normal" opacity="100" transform="rotate(-288.0 1066.0,278.0) translate(0 20)" x="1066.0" y="278.0">Улица Ленина</text><polygon fill="#909090" opacity="100" points="110.0,474.0 990.0,474.0 990.0,499.0 110.0,499.0" stroke="#000" stroke-width="1" /><text fill="#000" font-family="Arial" font-size="20" font-weight="normal" opacity="100" transform="rotate(-0.0 109.0,439.0) translate(0 20)" x="109.0" y="439.0">&lt;&lt; Новоиерусалимская</text><text fill="#000" font-family="Arial" font-size="25" font-weight="bold" opacity="100" transform="rotate(-0.0 480.0,470.0) translate(0 25)" x="480.0" y="470.0">Истра</text><text fill="#000" font-family="Arial" font-size="20" font-weight="normal" opacity="100" transform="rotate(-0.0 767.0,511.0) translate(0 20)" x="767.0" y="511.0">Троицкая &gt;&gt;</text><text fill="#FFF" font-family="Arial" font-size="20" font-weight="bold" opacity="100" transform="rotate(-20.0 886.0,371.0) translate(0 20)" x="886.0" y="371.0">A</text><polyline fill="none" opacity="100" points="110.0,499.0 110.0,474.0 990.0,474.0 990.0,499.0 110.0,499.0" stroke="#000" stroke-width="1" /><polyline fill="none" opacity="100" points="990.0,474.0 1037.0,474.0 1036.0,401.0 1033.0,394.0 1028.0,392.0 782.0,392.0 777.0,390.0 775.0,385.0 763.0,313.0 764.0,306.0 771.0,304.0 857.0,283.0 855.0,276.0 782.0,293.0 773.0,293.0 763.0,289.0 600.0,175.0" stroke="#000" stroke-width="1" /><polyline fill="none" opacity="100" points="1049.0,328.0 1055.0,327.0 1029.0,239.0 1023.0,235.0 877.0,270.0 878.0,278.0 1013.0,245.0 1020.0,245.0 1024.0,251.0 1049.0,328.0" stroke="#000" stroke-width="1" /><polyline fill="none" opacity="100" points="990.0,499.0 1067.0,499.0" stroke="#000" stroke-width="1" /><polyline fill="none" opacity="100" points="1067.0,499.0 1066.0,545.0 1069.0,566.0" stroke="#000" stroke-width="1" /><polyline fill="none" opacity="100" points="1092.0,499.0 1080.0,499.0 1079.0,546.0 1089.0,566.0" stroke="#000" stroke-width="1" /><polyline fill="none" opacity="100" points="1089.0,473.0 1050.0,473.0 1050.0,433.0 1052.0,427.0 1059.0,425.0 1071.0,425.0 1075.0,421.0 1076.0,412.0 1054.0,345.0 1061.0,343.0 1088.0,429.0 1099.0,519.0 1120.0,622.0" stroke="#000" stroke-width="1" /><polyline fill="none" opacity="100" points="1143.0,624.0 1123.0,521.0 1111.0,431.0 1106.0,384.0 1109.0,367.0 1115.0,351.0 1125.0,343.0 1300.0,297.0" stroke="#000" stroke-width="1" /><polyline fill="none" opacity="100" points="1290.0,259.0 1115.0,305.0 1095.0,307.0 1081.0,299.0 1069.0,283.0 1023.0,136.0" stroke="#000" stroke-width="1" /><polyline fill="none" opacity="100" points="999.0,136.0 1017.0,194.0 1015.0,205.0 1004.0,214.0 789.0,266.0 768.0,267.0 749.0,259.0 627.0,174.0" stroke="#000" stroke-width="1" /><polyline fill="none" opacity="100" points="1050.0,449.0 1079.0,449.0" stroke="#000" stroke-width="1" /><polyline fill="none" opacity="100" points="1079.0,534.0 1094.0,534.0" stroke="#000" stroke-width="1" /><polyline fill="none" opacity="100" points="1067.0,533.0 843.0,533.0 788.0,558.0 71.0,557.0" stroke="#000" stroke-width="1" /><polyline fill="none" opacity="100" points="1036.0,448.0 787.0,448.0 724.0,412.0 69.0,412.0" stroke="#000" stroke-width="1" /><polyline fill="none" opacity="100" points="1092.0,499.0 1089.0,473.0" stroke="#000" stroke-width="1" /><polyline fill="none" opacity="100" points="990.0,474.0 990.0,499.0" stroke="#000" stroke-width="1" /><polyline fill="none" opacity="100" points="994.0,474.0 994.0,499.0" stroke="#000" stroke-width="1" /><polyline fill="none" opacity="100" points="998.0,474.0 998.0,499.0" stroke="#000" stroke-width="1" /><polyline fill="none" opacity="100" points="1002.0,474.0 1002.0,499.0" stroke="#000" stroke-width="1" /><polyline fill="none" opacity="100" points="1006.0,474.0 1006.0,499.0" stroke="#000" stroke-width="1" /><polyline fill="none" opacity="100" points="1010.0,474.0 1010.0,499.0" stroke="#000" stroke-width="1" /><polyline fill="none" opacity="100" points="1304.0,461.0 72.0,461.0" stroke="#000" stroke-width="1" /><polyline fill="none" opacity="100" points="1304.0,470.0 72.0,470.0" stroke="#000" stroke-width="1" /><polyline fill="none" opacity="100" points="79.0,459.0 79.0,472.0" stroke="#000" stroke-width="1" /><polyline fill="none" opacity="100" points="86.0,459.0 86.0,472.0" stroke="#000" stroke-width="1" /><polyline fill="none" opacity="100" points="93.0,459.0 93.0,472.0" stroke="#000" stroke-width="1" /><polyline fill="none" opacity="100" points="100.0,459.0 100.0,472.0" stroke="#000" stroke-width="1" /><polyline fill="none" opacity="100" points="107.0,459.0 107.0,472.0" stroke="#000" stroke-width="1" /><polyline fill="none" opacity="100" points="114.0,459.0 114.0,472.0" stroke="#000" stroke-width="1" /><polyline fill="none" opacity="100" points="121.0,459.0 121.0,472.0" stroke="#000" stroke-width="1" /><polyline fill="none" opacity="100" points="128.0,459.0 128.0,472.0" stroke="#000" stroke-width="1" /><polyline fill="none" opacity="100" points="135.0,459.0 135.0,472.0" stroke="#000" stroke-width="1" /><polyline fill="none" opacity="100" points="142.0,459.0 142.0,472.0" stroke="#000" stroke-width="1" /><polyline fill="none" opacity="100" points="149.0,459.0 149.0,472.0" stroke="#000" stroke-width="1" /><polyline fill="none" opacity="100" points="156.0,459.0 156.0,472.0" stroke="#000" stroke-width="1" /><polyline fill="none" opacity="100" points="163.0,459.0 163.0,472.0" stroke="#000" stroke-width="1" /><polyline fill="none" opacity="100" points="170.0,459.0 170.0,472.0" stroke="#000" stroke-width="1" /><polyline fill="none" opacity="100" points="177.0,459.0 177.0,472.0" stroke="#000" stroke-width="1" /><polyline fill="none" opacity="100" points="184.0,459.0 184.0,472.0" stroke="#000" stroke-width="1" /><polyline fill="none" opacity="100" points="191.0,459.0 191.0,472.0" stroke="#000" stroke-width="1" /><polyline fill="none" opacity="100" points="198.0,459.0 198.0,472.0" stroke="#000" stroke-width="1" /><polyline fill="none" opacity="100" points="205.0,459.0 205.0,472.0" stroke="#000" stroke-width="1" /><polyline fill="none" opacity="100" points="212.0,459.0 212.0,472.0" stroke="#000" stroke-width="1" /><polyline fill="none" opacity="100" points="219.0,459.0 219.0,472.0" stroke="#000" stroke-width="1" /><polyline fill="none" opacity="100" points="226.0,459.0 226.0,472.0" stroke="#000" stroke-width="1" /><polyline fill="none" opacity="100" points="233.0,459.0 233.0,472.0" stroke="#000" stroke-width="1" /><polyline fill="none" opacity="100" points="240.0,459.0 240.0,472.0" stroke="#000" stroke-width="1" /><polyline fill="none" opacity="100" points="247.0,459.0 247.0,472.0" stroke="#000" stroke-width="1" /><polyline fill="none" opacity="100" points="254.0,459.0 254.0,472.0" stroke="#000" stroke-width="1" /><polyline fill="none" opacity="100" points="261.0,459.0 261.0,472.0" stroke="#000" stroke-width="1" /><polyline fill="none" opacity="100" points="268.0,459.0 268.0,472.0" stroke="#000" stroke-width="1" /><polyline fill="none" opacity="100" points="275.0,459.0 275.0,472.0" stroke="#000" stroke-width="1" /><polyline fill="none" opacity="100" points="282.0,459.0 282.0,472.0" stroke="#000" stroke-width="1" /><polyline fill="none" opacity="100" points="289.0,459.0 289.0,472.0" stroke="#000" stroke-width="1" /><polyline fill="none" opacity="100" points="296.0,459.0 296.0,472.0" stroke="#000" stroke-width="1" /><polyline fill="none" opacity="100" points="303.0,459.0 303.0,472.0" stroke="#000" stroke-width="1" /><polyline fill="none" opacity="100" points="310.0,459.0 310.0,472.0" stroke="#000" stroke-width="1" /><polyline fill="none" opacity="100" points="317.0,459.0 317.0,472.0" stroke="#000" stroke-width="1" /><polyline fill="none" opacity="100" points="324.0,459.0 324.0,472.0" stroke="#000" stroke-width="1" /><polyline fill="none" opacity="100" points="331.0,459.0 331.0,472.0" stroke="#000" stroke-width="1" /><polyline fill="none" opacity="100" points="338.0,459.0 338.0,472.0" stroke="#000" stroke-width="1" /><polyline fill="none" opacity="100" points="345.0,459.0 345.0,472.0" stroke="#000" stroke-width="1" /><polyline fill="none" opacity="100" points="352.0,459.0 352.0,472.0" stroke="#000" stroke-width="1" /><polyline fill="none" opacity="100" points="359.0,459.0 359.0,472.0" stroke="#000" stroke-width="1" /><polyline fill="none" opacity="100" points="366.0,459.0 366.0,472.0" stroke="#000" stroke-width="1" /><polyline fill="none" opacity="100" points="373.0,459.0 373.0,472.0" stroke="#000" stroke-width="1" /><polyline fill="none" opacity="100" points="380.0,459.0 380.0,472.0" stroke="#000" stroke-width="1" /><polyline fill="none" opacity="100" points="387.0,459.0 387.0,472.0" stroke="#000" stroke-width="1" /><polyline fill="none" opacity="100" points="394.0,459.0 394.0,472.0" stroke="#000" stroke-width="1" /><polyline fill="none" opacity="100" points="401.0,459.0 401.0,472.0" stroke="#000" stroke-width="1" /><polyline fill="none" opacity="100" points="408.0,459.0 408.0,472.0" stroke="#000" stroke-width="1" /><polyline fill="none" opacity="100" points="415.0,459.0 415.0,472.0" stroke="#000" stroke-width="1" /><polyline fill="none" opacity="100" points="422.0,459.0 422.0,472.0" stroke="#000" stroke-width="1" /><polyline fill="none" opacity="100" points="429.0,459.0 429.0,472.0" stroke="#000" stroke-width="1" /><polyline fill="none" opacity="100" points="436.0,459.0 436.0,472.0" stroke="#000" stroke-width="1" /><polyline fill="none" opacity="100" points="443.0,459.0 443.0,472.0" stroke="#000" stroke-width="1" /><polyline fill="none" opacity="100" points="450.0,459.0 450.0,472.0" stroke="#000" stroke-width="1" /><polyline fill="none" opacity="100" points="457.0,459.0 457.0,472.0" stroke="#000" stroke-width="1" /><polyline fill="none" opacity="100" points="464.0,459.0 464.0,472.0" stroke="#000" stroke-width="1" /><polyline fill="none" opacity="100" points="471.0,459.0 471.0,472.0" stroke="#000" stroke-width="1" /><polyline fill="none" opacity="100" points="478.0,459.0 478.0,472.0" stroke="#000" stroke-width="1" /><polyline fill="none" opacity="100" points="485.0,459.0 485.0,472.0" stroke="#000" stroke-width="1" /><polyline fill="none" opacity="100" points="492.0,459.0 492.0,472.0" stroke="#000" stroke-width="1" /><polyline fill="none" opacity="100" points="499.0,459.0 499.0,472.0" stroke="#000" stroke-width="1" /><polyline fill="none" opacity="100" points="506.0,459.0 506.0,472.0" stroke="#000" stroke-width="1" /><polyline fill="none" opacity="100" points="513.0,459.0 513.0,472.0" stroke="#000" stroke-width="1" /><polyline fill="none" opacity="100" points="520.0,459.0 520.0,472.0" stroke="#000" stroke-width="1" /><polyline fill="none" opacity="100" points="527.0,459.0 527.0,472.0" stroke="#000" stroke-width="1" /><polyline fill="none" opacity="100" points="534.0,459.0 534.0,472.0" stroke="#000" stroke-width="1" /><polyline fill="none" opacity="100" points="541.0,459.0 541.0,472.0" stroke="#000" stroke-width="1" /><polyline fill="none" opacity="100" points="548.0,459.0 548.0,472.0" stroke="#000" stroke-width="1" /><polyline fill="none" opacity="100" points="555.0,459.0 555.0,472.0" stroke="#000" stroke-width="1" /><polyline fill="none" opacity="100" points="562.0,459.0 562.0,472.0" stroke="#000" stroke-width="1" /><polyline fill="none" opacity="100" points="569.0,459.0 569.0,472.0" stroke="#000" stroke-width="1" /><polyline fill="none" opacity="100" points="576.0,459.0 576.0,472.0" stroke="#000" stroke-width="1" /><polyline fill="none" opacity="100" points="583.0,459.0 583.0,472.0" stroke="#000" stroke-width="1" /><polyline fill="none" opacity="100" points="590.0,459.0 590.0,472.0" stroke="#000" stroke-width="1" /><polyline fill="none" opacity="100" points="597.0,459.0 597.0,472.0" stroke="#000" stroke-width="1" /><polyline fill="none" opacity="100" points="604.0,459.0 604.0,472.0" stroke="#000" stroke-width="1" /><polyline fill="none" opacity="100" points="611.0,459.0 611.0,472.0" stroke="#000" stroke-width="1" /><polyline fill="none" opacity="100" points="618.0,459.0 618.0,472.0" stroke="#000" stroke-width="1" /><polyline fill="none" opacity="100" points="625.0,459.0 625.0,472.0" stroke="#000" stroke-width="1" /><polyline fill="none" opacity="100" points="632.0,459.0 632.0,472.0" stroke="#000" stroke-width="1" /><polyline fill="none" opacity="100" points="639.0,459.0 639.0,472.0" stroke="#000" stroke-width="1" /><polyline fill="none" opacity="100" points="646.0,459.0 646.0,472.0" stroke="#000" stroke-width="1" /><polyline fill="none" opacity="100" points="653.0,459.0 653.0,472.0" stroke="#000" stroke-width="1" /><polyline fill="none" opacity="100" points="660.0,459.0 660.0,472.0" stroke="#000" stroke-width="1" /><polyline fill="none" opacity="100" points="667.0,459.0 667.0,472.0" stroke="#000" stroke-width="1" /><polyline fill="none" opacity="100" points="674.0,459.0 674.0,472.0" stroke="#000" stroke-width="1" /><polyline fill="none" opacity="100" points="681.0,459.0 681.0,472.0" stroke="#000" stroke-width="1" /><polyline fill="none" opacity="100" points="688.0,459.0 688.0,472.0" stroke="#000" stroke-width="1" /><polyline fill="none" opacity="100" points="695.0,459.0 695.0,472.0" stroke="#000" stroke-width="1" /><polyline fill="none" opacity="100" points="702.0,459.0 702.0,472.0" stroke="#000" stroke-width="1" /><polyline fill="none" opacity="100" points="709.0,459.0 709.0,472.0" stroke="#000" stroke-width="1" /><polyline fill="none" opacity="100" points="716.0,459.0 716.0,472.0" stroke="#000" stroke-width="1" /><polyline fill="none" opacity="100" points="723.0,459.0 723.0,472.0" stroke="#000" stroke-width="1" /><polyline fill="none" opacity="100" points="730.0,459.0 730.0,472.0" stroke="#000" stroke-width="1" /><polyline fill="none" opacity="100" points="737.0,459.0 737.0,472.0" stroke="#000" stroke-width="1" /><polyline fill="none" opacity="100" points="744.0,459.0 744.0,472.0" stroke="#000" stroke-width="1" /><polyline fill="none" opacity="100" points="751.0,459.0 751.0,472.0" stroke="#000" stroke-width="1" /><polyline fill="none" opacity="100" points="758.0,459.0 758.0,472.0" stroke="#000" stroke-width="1" /><polyline fill="none" opacity="100" points="765.0,459.0 765.0,472.0" stroke="#000" stroke-width="1" /><polyline fill="none" opacity="100" points="772.0,459.0 772.0,472.0" stroke="#000" stroke-width="1" /><polyline fill="none" opacity="100" points="779.0,459.0 779.0,472.0" stroke="#000" stroke-width="1" /><polyline fill="none" opacity="100" points="786.0,459.0 786.0,472.0" stroke="#000" stroke-width="1" /><polyline fill="none" opacity="100" points="793.0,459.0 793.0,472.0" stroke="#000" stroke-width="1" /><polyline fill="none" opacity="100" points="800.0,459.0 800.0,472.0" stroke="#000" stroke-width="1" /><polyline fill="none" opacity="100" points="807.0,459.0 807.0,472.0" stroke="#000" stroke-width="1" /><polyline fill="none" opacity="100" points="814.0,459.0 814.0,472.0" stroke="#000" stroke-width="1" /><polyline fill="none" opacity="100" points="821.0,459.0 821.0,472.0" stroke="#000" stroke-width="1" /><polyline fill="none" opacity="100" points="828.0,459.0 828.0,472.0" stroke="#000" stroke-width="1" /><polyline fill="none" opacity="100" points="835.0,459.0 835.0,472.0" stroke="#000" stroke-width="1" /><polyline fill="none" opacity="100" points="842.0,459.0 842.0,472.0" stroke="#000" stroke-width="1" /><polyline fill="none" opacity="100" points="849.0,459.0 849.0,472.0" stroke="#000" stroke-width="1" /><polyline fill="none" opacity="100" points="856.0,459.0 856.0,472.0" stroke="#000" stroke-width="1" /><polyline fill="none" opacity="100" points="863.0,459.0 863.0,472.0" stroke="#000" stroke-width="1" /><polyline fill="none" opacity="100" points="870.0,459.0 870.0,472.0" stroke="#000" stroke-width="1" /><polyline fill="none" opacity="100" points="877.0,459.0 877.0,472.0" stroke="#000" stroke-width="1" /><polyline fill="none" opacity="100" points="884.0,459.0 884.0,472.0" stroke="#000" stroke-width="1" /><polyline fill="none" opacity="100" points="891.0,459.0 891.0,472.0" stroke="#000" stroke-width="1" /><polyline fill="none" opacity="100" points="898.0,459.0 898.0,472.0" stroke="#000" stroke-width="1" /><polyline fill="none" opacity="100" points="905.0,459.0 905.0,472.0" stroke="#000" stroke-width="1" /><polyline fill="none" opacity="100" points="912.0,459.0 912.0,472.0" stroke="#000" stroke-width="1" /><polyline fill="none" opacity="100" points="919.0,459.0 919.0,472.0" stroke="#000" stroke-width="1" /><polyline fill="none" opacity="100" points="926.0,459.0 926.0,472.0" stroke="#000" stroke-width="1" /><polyline fill="none" opacity="100" points="933.0,459.0 933.0,472.0" stroke="#000" stroke-width="1" /><polyline fill="none" opacity="100" points="940.0,459.0 940.0,472.0" stroke="#000" stroke-width="1" /><polyline fill="none" opacity="100" points="947.0,459.0 947.0,472.0" stroke="#000" stroke-width="1" /><polyline fill="none" opacity="100" points="954.0,459.0 954.0,472.0" stroke="#000" stroke-width="1" /><polyline fill="none" opacity="100" points="961.0,459.0 961.0,472.0" stroke="#000" stroke-width="1" /><polyline fill="none" opacity="100" points="968.0,459.0 968.0,472.0" stroke="#000" stroke-width="1" /><polyline fill="none" opacity="100" points="975.0,459.0 975.0,472.0" stroke="#000" stroke-width="1" /><polyline fill="none" opacity="100" points="982.0,459.0 982.0,472.0" stroke="#000" stroke-width="1" /><polyline fill="none" opacity="100" points="989.0,459.0 989.0,472.0" stroke="#000" stroke-width="1" /><polyline fill="none" opacity="100" points="996.0,459.0 996.0,472.0" stroke="#000" stroke-width="1" /><polyline fill="none" opacity="100" points="1003.0,459.0 1003.0,472.0" stroke="#000" stroke-width="1" /><polyline fill="none" opacity="100" points="1010.0,459.0 1010.0,472.0" stroke="#000" stroke-width="1" /><polyline fill="none" opacity="100" points="1017.0,459.0 1017.0,472.0" stroke="#000" stroke-width="1" /><polyline fill="none" opacity="100" points="1024.0,459.0 1024.0,472.0" stroke="#000" stroke-width="1" /><polyline fill="none" opacity="100" points="1031.0,459.0 1031.0,472.0" stroke="#000" stroke-width="1" /><polyline fill="none" opacity="100" points="1038.0,459.0 1038.0,472.0" stroke="#000" stroke-width="1" /><polyline fill="none" opacity="100" points="1045.0,459.0 1045.0,472.0" stroke="#000" stroke-width="1" /><polyline fill="none" opacity="100" points="1052.0,459.0 1052.0,472.0" stroke="#000" stroke-width="1" /><polyline fill="none" opacity="100" points="1059.0,459.0 1059.0,472.0" stroke="#000" stroke-width="1" /><polyline fill="none" opacity="100" points="1066.0,459.0 1066.0,472.0" stroke="#000" stroke-width="1" /><polyline fill="none" opacity="100" points="1073.0,459.0 1073.0,472.0" stroke="#000" stroke-width="1" /><polyline fill="none" opacity="100" points="1080.0,459.0 1080.0,472.0" stroke="#000" stroke-width="1" /><polyline fill="none" opacity="100" points="1087.0,459.0 1087.0,472.0" stroke="#000" stroke-width="1" /><polyline fill="none" opacity="100" points="1094.0,459.0 1094.0,472.0" stroke="#000" stroke-width="1" /><polyline fill="none" opacity="100" points="1101.0,459.0 1101.0,472.0" stroke="#000" stroke-width="1" /><polyline fill="none" opacity="100" points="1108.0,459.0 1108.0,472.0" stroke="#000" stroke-width="1" /><polyline fill="none" opacity="100" points="1115.0,459.0 1115.0,472.0" stroke="#000" stroke-width="1" /><polyline fill="none" opacity="100" points="1122.0,459.0 1122.0,472.0" stroke="#000" stroke-width="1" /><polyline fill="none" opacity="100" points="1129.0,459.0 1129.0,472.0" stroke="#000" stroke-width="1" /><polyline fill="none" opacity="100" points="1136.0,459.0 1136.0,472.0" stroke="#000" stroke-width="1" /><polyline fill="none" opacity="100" points="1143.0,459.0 1143.0,472.0" stroke="#000" stroke-width="1" /><polyline fill="none" opacity="100" points="1150.0,459.0 1150.0,472.0" stroke="#000" stroke-width="1" /><polyline fill="none" opacity="100" points="1157.0,459.0 1157.0,472.0" stroke="#000" stroke-width="1" /><polyline fill="none" opacity="100" points="1164.0,459.0 1164.0,472.0" stroke="#000" stroke-width="1" /><polyline fill="none" opacity="100" points="1171.0,459.0 1171.0,472.0" stroke="#000" stroke-width="1" /><polyline fill="none" opacity="100" points="1178.0,459.0 1178.0,472.0" stroke="#000" stroke-width="1" /><polyline fill="none" opacity="100" points="1185.0,459.0 1185.0,472.0" stroke="#000" stroke-width="1" /><polyline fill="none" opacity="100" points="1192.0,459.0 1192.0,472.0" stroke="#000" stroke-width="1" /><polyline fill="none" opacity="100" points="1199.0,459.0 1199.0,472.0" stroke="#000" stroke-width="1" /><polyline fill="none" opacity="100" points="1206.0,459.0 1206.0,472.0" stroke="#000" stroke-width="1" /><polyline fill="none" opacity="100" points="1213.0,459.0 1213.0,472.0" stroke="#000" stroke-width="1" /><polyline fill="none" opacity="100" points="1220.0,459.0 1220.0,472.0" stroke="#000" stroke-width="1" /><polyline fill="none" opacity="100" points="1227.0,459.0 1227.0,472.0" stroke="#000" stroke-width="1" /><polyline fill="none" opacity="100" points="1234.0,459.0 1234.0,472.0" stroke="#000" stroke-width="1" /><polyline fill="none" opacity="100" points="1241.0,459.0 1241.0,472.0" stroke="#000" stroke-width="1" /><polyline fill="none" opacity="100" points="1248.0,459.0 1248.0,472.0" stroke="#000" stroke-width="1" /><polyline fill="none" opacity="100" points="1255.0,459.0 1255.0,472.0" stroke="#000" stroke-width="1" /><polyline fill="none" opacity="100" points="1262.0,459.0 1262.0,472.0" stroke="#000" stroke-width="1" /><polyline fill="none" opacity="100" points="1269.0,459.0 1269.0,472.0" stroke="#000" stroke-width="1" /><polyline fill="none" opacity="100" points="1276.0,459.0 1276.0,472.0" stroke="#000" stroke-width="1" /><polyline fill="none" opacity="100" points="1283.0,459.0 1283.0,472.0" stroke="#000" stroke-width="1" /><polyline fill="none" opacity="100" points="1290.0,459.0 1290.0,472.0" stroke="#000" stroke-width="1" /><polyline fill="none" opacity="100" points="1297.0,459.0 1297.0,472.0" stroke="#000" stroke-width="1" /><polyline fill="none" opacity="100" points="1304.0,459.0 1304.0,472.0" stroke="#000" stroke-width="1" /><polyline fill="none" opacity="100" points="1304.0,503.0 72.0,503.0" stroke="#000" stroke-width="1" /><polyline fill="none" opacity="100" points="1304.0,512.0 72.0,512.0" stroke="#000" stroke-width="1" /><polyline fill="none" opacity="100" points="79.0,501.0 79.0,514.0" stroke="#000" stroke-width="1" /><polyline fill="none" opacity="100" points="86.0,501.0 86.0,514.0" stroke="#000" stroke-width="1" /><polyline fill="none" opacity="100" points="93.0,501.0 93.0,514.0" stroke="#000" stroke-width="1" /><polyline fill="none" opacity="100" points="100.0,501.0 100.0,514.0" stroke="#000" stroke-width="1" /><polyline fill="none" opacity="100" points="107.0,501.0 107.0,514.0" stroke="#000" stroke-width="1" /><polyline fill="none" opacity="100" points="114.0,501.0 114.0,514.0" stroke="#000" stroke-width="1" /><polyline fill="none" opacity="100" points="121.0,501.0 121.0,514.0" stroke="#000" stroke-width="1" /><polyline fill="none" opacity="100" points="128.0,501.0 128.0,514.0" stroke="#000" stroke-width="1" /><polyline fill="none" opacity="100" points="135.0,501.0 135.0,514.0" stroke="#000" stroke-width="1" /><polyline fill="none" opacity="100" points="142.0,501.0 142.0,514.0" stroke="#000" stroke-width="1" /><polyline fill="none" opacity="100" points="149.0,501.0 149.0,514.0" stroke="#000" stroke-width="1" /><polyline fill="none" opacity="100" points="156.0,501.0 156.0,514.0" stroke="#000" stroke-width="1" /><polyline fill="none" opacity="100" points="163.0,501.0 163.0,514.0" stroke="#000" stroke-width="1" /><polyline fill="none" opacity="100" points="170.0,501.0 170.0,514.0" stroke="#000" stroke-width="1" /><polyline fill="none" opacity="100" points="177.0,501.0 177.0,514.0" stroke="#000" stroke-width="1" /><polyline fill="none" opacity="100" points="184.0,501.0 184.0,514.0" stroke="#000" stroke-width="1" /><polyline fill="none" opacity="100" points="191.0,501.0 191.0,514.0" stroke="#000" stroke-width="1" /><polyline fill="none" opacity="100" points="198.0,501.0 198.0,514.0" stroke="#000" stroke-width="1" /><polyline fill="none" opacity="100" points="205.0,501.0 205.0,514.0" stroke="#000" stroke-width="1" /><polyline fill="none" opacity="100" points="212.0,501.0 212.0,514.0" stroke="#000" stroke-width="1" /><polyline fill="none" opacity="100" points="219.0,501.0 219.0,514.0" stroke="#000" stroke-width="1" /><polyline fill="none" opacity="100" points="226.0,501.0 226.0,514.0" stroke="#000" stroke-width="1" /><polyline fill="none" opacity="100" points="233.0,501.0 233.0,514.0" stroke="#000" stroke-width="1" /><polyline fill="none" opacity="100" points="240.0,501.0 240.0,514.0" stroke="#000" stroke-width="1" /><polyline fill="none" opacity="100" points="247.0,501.0 247.0,514.0" stroke="#000" stroke-width="1" /><polyline fill="none" opacity="100" points="254.0,501.0 254.0,514.0" stroke="#000" stroke-width="1" /><polyline fill="none" opacity="100" points="261.0,501.0 261.0,514.0" stroke="#000" stroke-width="1" /><polyline fill="none" opacity="100" points="268.0,501.0 268.0,514.0" stroke="#000" stroke-width="1" /><polyline fill="none" opacity="100" points="275.0,501.0 275.0,514.0" stroke="#000" stroke-width="1" /><polyline fill="none" opacity="100" points="282.0,501.0 282.0,514.0" stroke="#000" stroke-width="1" /><polyline fill="none" opacity="100" points="289.0,501.0 289.0,514.0" stroke="#000" stroke-width="1" /><polyline fill="none" opacity="100" points="296.0,501.0 296.0,514.0" stroke="#000" stroke-width="1" /><polyline fill="none" opacity="100" points="303.0,501.0 303.0,514.0" stroke="#000" stroke-width="1" /><polyline fill="none" opacity="100" points="310.0,501.0 310.0,514.0" stroke="#000" stroke-width="1" /><polyline fill="none" opacity="100" points="317.0,501.0 317.0,514.0" stroke="#000" stroke-width="1" /><polyline fill="none" opacity="100" points="324.0,501.0 324.0,514.0" stroke="#000" stroke-width="1" /><polyline fill="none" opacity="100" points="331.0,501.0 331.0,514.0" stroke="#000" stroke-width="1" /><polyline fill="none" opacity="100" points="338.0,501.0 338.0,514.0" stroke="#000" stroke-width="1" /><polyline fill="none" opacity="100" points="345.0,501.0 345.0,514.0" stroke="#000" stroke-width="1" /><polyline fill="none" opacity="100" points="352.0,501.0 352.0,514.0" stroke="#000" stroke-width="1" /><polyline fill="none" opacity="100" points="359.0,501.0 359.0,514.0" stroke="#000" stroke-width="1" /><polyline fill="none" opacity="100" points="366.0,501.0 366.0,514.0" stroke="#000" stroke-width="1" /><polyline fill="none" opacity="100" points="373.0,501.0 373.0,514.0" stroke="#000" stroke-width="1" /><polyline fill="none" opacity="100" points="380.0,501.0 380.0,514.0" stroke="#000" stroke-width="1" /><polyline fill="none" opacity="100" points="387.0,501.0 387.0,514.0" stroke="#000" stroke-width="1" /><polyline fill="none" opacity="100" points="394.0,501.0 394.0,514.0" stroke="#000" stroke-width="1" /><polyline fill="none" opacity="100" points="401.0,501.0 401.0,514.0" stroke="#000" stroke-width="1" /><polyline fill="none" opacity="100" points="408.0,501.0 408.0,514.0" stroke="#000" stroke-width="1" /><polyline fill="none" opacity="100" points="415.0,501.0 415.0,514.0" stroke="#000" stroke-width="1" /><polyline fill="none" opacity="100" points="422.0,501.0 422.0,514.0" stroke="#000" stroke-width="1" /><polyline fill="none" opacity="100" points="429.0,501.0 429.0,514.0" stroke="#000" stroke-width="1" /><polyline fill="none" opacity="100" points="436.0,501.0 436.0,514.0" stroke="#000" stroke-width="1" /><polyline fill="none" opacity="100" points="443.0,501.0 443.0,514.0" stroke="#000" stroke-width="1" /><polyline fill="none" opacity="100" points="450.0,501.0 450.0,514.0" stroke="#000" stroke-width="1" /><polyline fill="none" opacity="100" points="457.0,501.0 457.0,514.0" stroke="#000" stroke-width="1" /><polyline fill="none" opacity="100" points="464.0,501.0 464.0,514.0" stroke="#000" stroke-width="1" /><polyline fill="none" opacity="100" points="471.0,501.0 471.0,514.0" stroke="#000" stroke-width="1" /><polyline fill="none" opacity="100" points="478.0,501.0 478.0,514.0" stroke="#000" stroke-width="1" /><polyline fill="none" opacity="100" points="485.0,501.0 485.0,514.0" stroke="#000" stroke-width="1" /><polyline fill="none" opacity="100" points="492.0,501.0 492.0,514.0" stroke="#000" stroke-width="1" /><polyline fill="none" opacity="100" points="499.0,501.0 499.0,514.0" stroke="#000" stroke-width="1" /><polyline fill="none" opacity="100" points="506.0,501.0 506.0,514.0" stroke="#000" stroke-width="1" /><polyline fill="none" opacity="100" points="513.0,501.0 513.0,514.0" stroke="#000" stroke-width="1" /><polyline fill="none" opacity="100" points="520.0,501.0 520.0,514.0" stroke="#000" stroke-width="1" /><polyline fill="none" opacity="100" points="527.0,501.0 527.0,514.0" stroke="#000" stroke-width="1" /><polyline fill="none" opacity="100" points="534.0,501.0 534.0,514.0" stroke="#000" stroke-width="1" /><polyline fill="none" opacity="100" points="541.0,501.0 541.0,514.0" stroke="#000" stroke-width="1" /><polyline fill="none" opacity="100" points="548.0,501.0 548.0,514.0" stroke="#000" stroke-width="1" /><polyline fill="none" opacity="100" points="555.0,501.0 555.0,514.0" stroke="#000" stroke-width="1" /><polyline fill="none" opacity="100" points="562.0,501.0 562.0,514.0" stroke="#000" stroke-width="1" /><polyline fill="none" opacity="100" points="569.0,501.0 569.0,514.0" stroke="#000" stroke-width="1" /><polyline fill="none" opacity="100" points="576.0,501.0 576.0,514.0" stroke="#000" stroke-width="1" /><polyline fill="none" opacity="100" points="583.0,501.0 583.0,514.0" stroke="#000" stroke-width="1" /><polyline fill="none" opacity="100" points="590.0,501.0 590.0,514.0" stroke="#000" stroke-width="1" /><polyline fill="none" opacity="100" points="597.0,501.0 597.0,514.0" stroke="#000" stroke-width="1" /><polyline fill="none" opacity="100" points="604.0,501.0 604.0,514.0" stroke="#000" stroke-width="1" /><polyline fill="none" opacity="100" points="611.0,501.0 611.0,514.0" stroke="#000" stroke-width="1" /><polyline fill="none" opacity="100" points="618.0,501.0 618.0,514.0" stroke="#000" stroke-width="1" /><polyline fill="none" opacity="100" points="625.0,501.0 625.0,514.0" stroke="#000" stroke-width="1" /><polyline fill="none" opacity="100" points="632.0,501.0 632.0,514.0" stroke="#000" stroke-width="1" /><polyline fill="none" opacity="100" points="639.0,501.0 639.0,514.0" stroke="#000" stroke-width="1" /><polyline fill="none" opacity="100" points="646.0,501.0 646.0,514.0" stroke="#000" stroke-width="1" /><polyline fill="none" opacity="100" points="653.0,501.0 653.0,514.0" stroke="#000" stroke-width="1" /><polyline fill="none" opacity="100" points="660.0,501.0 660.0,514.0" stroke="#000" stroke-width="1" /><polyline fill="none" opacity="100" points="667.0,501.0 667.0,514.0" stroke="#000" stroke-width="1" /><polyline fill="none" opacity="100" points="674.0,501.0 674.0,514.0" stroke="#000" stroke-width="1" /><polyline fill="none" opacity="100" points="681.0,501.0 681.0,514.0" stroke="#000" stroke-width="1" /><polyline fill="none" opacity="100" points="688.0,501.0 688.0,514.0" stroke="#000" stroke-width="1" /><polyline fill="none" opacity="100" points="695.0,501.0 695.0,514.0" stroke="#000" stroke-width="1" /><polyline fill="none" opacity="100" points="702.0,501.0 702.0,514.0" stroke="#000" stroke-width="1" /><polyline fill="none" opacity="100" points="709.0,501.0 709.0,514.0" stroke="#000" stroke-width="1" /><polyline fill="none" opacity="100" points="716.0,501.0 716.0,514.0" stroke="#000" stroke-width="1" /><polyline fill="none" opacity="100" points="723.0,501.0 723.0,514.0" stroke="#000" stroke-width="1" /><polyline fill="none" opacity="100" points="730.0,501.0 730.0,514.0" stroke="#000" stroke-width="1" /><polyline fill="none" opacity="100" points="737.0,501.0 737.0,514.0" stroke="#000" stroke-width="1" /><polyline fill="none" opacity="100" points="744.0,501.0 744.0,514.0" stroke="#000" stroke-width="1" /><polyline fill="none" opacity="100" points="751.0,501.0 751.0,514.0" stroke="#000" stroke-width="1" /><polyline fill="none" opacity="100" points="758.0,501.0 758.0,514.0" stroke="#000" stroke-width="1" /><polyline fill="none" opacity="100" points="765.0,501.0 765.0,514.0" stroke="#000" stroke-width="1" /><polyline fill="none" opacity="100" points="772.0,501.0 772.0,514.0" stroke="#000" stroke-width="1" /><polyline fill="none" opacity="100" points="779.0,501.0 779.0,514.0" stroke="#000" stroke-width="1" /><polyline fill="none" opacity="100" points="786.0,501.0 786.0,514.0" stroke="#000" stroke-width="1" /><polyline fill="none" opacity="100" points="793.0,501.0 793.0,514.0" stroke="#000" stroke-width="1" /><polyline fill="none" opacity="100" points="800.0,501.0 800.0,514.0" stroke="#000" stroke-width="1" /><polyline fill="none" opacity="100" points="807.0,501.0 807.0,514.0" stroke="#000" stroke-width="1" /><polyline fill="none" opacity="100" points="814.0,501.0 814.0,514.0" stroke="#000" stroke-width="1" /><polyline fill="none" opacity="100" points="821.0,501.0 821.0,514.0" stroke="#000" stroke-width="1" /><polyline fill="none" opacity="100" points="828.0,501.0 828.0,514.0" stroke="#000" stroke-width="1" /><polyline fill="none" opacity="100" points="835.0,501.0 835.0,514.0" stroke="#000" stroke-width="1" /><polyline fill="none" opacity="100" points="842.0,501.0 842.0,514.0" stroke="#000" stroke-width="1" /><polyline fill="none" opacity="100" points="849.0,501.0 849.0,514.0" stroke="#000" stroke-width="1" /><polyline fill="none" opacity="100" points="856.0,501.0 856.0,514.0" stroke="#000" stroke-width="1" /><polyline fill="none" opacity="100" points="863.0,501.0 863.0,514.0" stroke="#000" stroke-width="1" /><polyline fill="none" opacity="100" points="870.0,501.0 870.0,514.0" stroke="#000" stroke-width="1" /><polyline fill="none" opacity="100" points="877.0,501.0 877.0,514.0" stroke="#000" stroke-width="1" /><polyline fill="none" opacity="100" points="884.0,501.0 884.0,514.0" stroke="#000" stroke-width="1" /><polyline fill="none" opacity="100" points="891.0,501.0 891.0,514.0" stroke="#000" stroke-width="1" /><polyline fill="none" opacity="100" points="898.0,501.0 898.0,514.0" stroke="#000" stroke-width="1" /><polyline fill="none" opacity="100" points="905.0,501.0 905.0,514.0" stroke="#000" stroke-width="1" /><polyline fill="none" opacity="100" points="912.0,501.0 912.0,514.0" stroke="#000" stroke-width="1" /><polyline fill="none" opacity="100" points="919.0,501.0 919.0,514.0" stroke="#000" stroke-width="1" /><polyline fill="none" opacity="100" points="926.0,501.0 926.0,514.0" stroke="#000" stroke-width="1" /><polyline fill="none" opacity="100" points="933.0,501.0 933.0,514.0" stroke="#000" stroke-width="1" /><polyline fill="none" opacity="100" points="940.0,501.0 940.0,514.0" stroke="#000" stroke-width="1" /><polyline fill="none" opacity="100" points="947.0,501.0 947.0,514.0" stroke="#000" stroke-width="1" /><polyline fill="none" opacity="100" points="954.0,501.0 954.0,514.0" stroke="#000" stroke-width="1" /><polyline fill="none" opacity="100" points="961.0,501.0 961.0,514.0" stroke="#000" stroke-width="1" /><polyline fill="none" opacity="100" points="968.0,501.0 968.0,514.0" stroke="#000" stroke-width="1" /><polyline fill="none" opacity="100" points="975.0,501.0 975.0,514.0" stroke="#000" stroke-width="1" /><polyline fill="none" opacity="100" points="982.0,501.0 982.0,514.0" stroke="#000" stroke-width="1" /><polyline fill="none" opacity="100" points="989.0,501.0 989.0,514.0" stroke="#000" stroke-width="1" /><polyline fill="none" opacity="100" points="996.0,501.0 996.0,514.0" stroke="#000" stroke-width="1" /><polyline fill="none" opacity="100" points="1003.0,501.0 1003.0,514.0" stroke="#000" stroke-width="1" /><polyline fill="none" opacity="100" points="1010.0,501.0 1010.0,514.0" stroke="#000" stroke-width="1" /><polyline fill="none" opacity="100" points="1017.0,501.0 1017.0,514.0" stroke="#000" stroke-width="1" /><polyline fill="none" opacity="100" points="1024.0,501.0 1024.0,514.0" stroke="#000" stroke-width="1" /><polyline fill="none" opacity="100" points="1031.0,501.0 1031.0,514.0" stroke="#000" stroke-width="1" /><polyline fill="none" opacity="100" points="1038.0,501.0 1038.0,514.0" stroke="#000" stroke-width="1" /><polyline fill="none" opacity="100" points="1045.0,501.0 1045.0,514.0" stroke="#000" stroke-width="1" /><polyline fill="none" opacity="100" points="1052.0,501.0 1052.0,514.0" stroke="#000" stroke-width="1" /><polyline fill="none" opacity="100" points="1059.0,501.0 1059.0,514.0" stroke="#000" stroke-width="1" /><polyline fill="none" opacity="100" points="1066.0,501.0 1066.0,514.0" stroke="#000" stroke-width="1" /><polyline fill="none" opacity="100" points="1073.0,501.0 1073.0,514.0" stroke="#000" stroke-width="1" /><polyline fill="none" opacity="100" points="1080.0,501.0 1080.0,514.0" stroke="#000" stroke-width="1" /><polyline fill="none" opacity="100" points="1087.0,501.0 1087.0,514.0" stroke="#000" stroke-width="1" /><polyline fill="none" opacity="100" points="1094.0,501.0 1094.0,514.0" stroke="#000" stroke-width="1" /><polyline fill="none" opacity="100" points="1101.0,501.0 1101.0,514.0" stroke="#000" stroke-width="1" /><polyline fill="none" opacity="100" points="1108.0,501.0 1108.0,514.0" stroke="#000" stroke-width="1" /><polyline fill="none" opacity="100" points="1115.0,501.0 1115.0,514.0" stroke="#000" stroke-width="1" /><polyline fill="none" opacity="100" points="1122.0,501.0 1122.0,514.0" stroke="#000" stroke-width="1" /><polyline fill="none" opacity="100" points="1129.0,501.0 1129.0,514.0" stroke="#000" stroke-width="1" /><polyline fill="none" opacity="100" points="1136.0,501.0 1136.0,514.0" stroke="#000" stroke-width="1" /><polyline fill="none" opacity="100" points="1143.0,501.0 1143.0,514.0" stroke="#000" stroke-width="1" /><polyline fill="none" opacity="100" points="1150.0,501.0 1150.0,514.0" stroke="#000" stroke-width="1" /><polyline fill="none" opacity="100" points="1157.0,501.0 1157.0,514.0" stroke="#000" stroke-width="1" /><polyline fill="none" opacity="100" points="1164.0,501.0 1164.0,514.0" stroke="#000" stroke-width="1" /><polyline fill="none" opacity="100" points="1171.0,501.0 1171.0,514.0" stroke="#000" stroke-width="1" /><polyline fill="none" opacity="100" points="1178.0,501.0 1178.0,514.0" stroke="#000" stroke-width="1" /><polyline fill="none" opacity="100" points="1185.0,501.0 1185.0,514.0" stroke="#000" stroke-width="1" /><polyline fill="none" opacity="100" points="1192.0,501.0 1192.0,514.0" stroke="#000" stroke-width="1" /><polyline fill="none" opacity="100" points="1199.0,501.0 1199.0,514.0" stroke="#000" stroke-width="1" /><polyline fill="none" opacity="100" points="1206.0,501.0 1206.0,514.0" stroke="#000" stroke-width="1" /><polyline fill="none" opacity="100" points="1213.0,501.0 1213.0,514.0" stroke="#000" stroke-width="1" /><polyline fill="none" opacity="100" points="1220.0,501.0 1220.0,514.0" stroke="#000" stroke-width="1" /><polyline fill="none" opacity="100" points="1227.0,501.0 1227.0,514.0" stroke="#000" stroke-width="1" /><polyline fill="none" opacity="100" points="1234.0,501.0 1234.0,514.0" stroke="#000" stroke-width="1" /><polyline fill="none" opacity="100" points="1241.0,501.0 1241.0,514.0" stroke="#000" stroke-width="1" /><polyline fill="none" opacity="100" points="1248.0,501.0 1248.0,514.0" stroke="#000" stroke-width="1" /><polyline fill="none" opacity="100" points="1255.0,501.0 1255.0,514.0" stroke="#000" stroke-width="1" /><polyline fill="none" opacity="100" points="1262.0,501.0 1262.0,514.0" stroke="#000" stroke-width="1" /><polyline fill="none" opacity="100" points="1269.0,501.0 1269.0,514.0" stroke="#000" stroke-width="1" /><polyline fill="none" opacity="100" points="1276.0,501.0 1276.0,514.0" stroke="#000" stroke-width="1" /><polyline fill="none" opacity="100" points="1283.0,501.0 1283.0,514.0" stroke="#000" stroke-width="1" /><polyline fill="none" opacity="100" points="1290.0,501.0 1290.0,514.0" stroke="#000" stroke-width="1" /><polyline fill="none" opacity="100" points="1297.0,501.0 1297.0,514.0" stroke="#000" stroke-width="1" /><polyline fill="none" opacity="100" points="1304.0,501.0 1304.0,514.0" stroke="#000" stroke-width="1" /><polygon fill="#FFF" opacity="100" points="870.0,498.0 870.0,475.0 974.0,475.0 974.0,498.0" stroke="#FFF" stroke-width="1" /><polyline fill="none" opacity="100" points="974.0,498.0 974.0,475.0" stroke="#000" stroke-dasharray="5,5" stroke-width="1" /><polyline fill="none" opacity="100" points="870.0,498.0 870.0,475.0" stroke="#000" stroke-dasharray="5,5" stroke-width="1" /><polyline fill="none" opacity="100" points="882.0,498.0 882.0,485.0 913.0,485.0 913.0,498.0" stroke="#000" stroke-width="1" /><polyline fill="none" opacity="100" points="930.0,498.0 930.0,485.0 961.0,485.0 961.0,493.0 965.0,493.0 965.0,498.0" stroke="#000" stroke-width="1" /><polyline fill="none" opacity="100" points="920.0,495.0 925.0,495.0" stroke="#000" stroke-width="1" /><polyline fill="none" opacity="100" points="920.0,491.0 925.0,491.0" stroke="#000" stroke-width="1" /><polyline fill="none" opacity="100" points="920.0,487.0 925.0,487.0" stroke="#000" stroke-width="1" /><polyline fill="none" opacity="100" points="920.0,483.0 925.0,483.0" stroke="#000" stroke-width="1" /><polyline fill="none" opacity="100" points="920.0,479.0 925.0,479.0" stroke="#000" stroke-width="1" /><polyline fill="none" opacity="100" points="953.0,499.0 953.0,485.0" stroke="#000" stroke-width="1" /><text fill="#000" font-family="Arial" font-size="4" font-weight="normal" opacity="100" transform="rotate(-90.0 955.0,498.0) translate(0 4)" x="955.0" y="498.0">Кассы</text><polygon fill="#84AC60" opacity="100" points="1097.0,649.0 1068.0,591.0 1001.0,557.0 882.0,545.0 814.0,567.0 71.0,567.0 71.0,648.0" stroke="#84AC60" stroke-width="1" /><polygon fill="#84AC60" opacity="100" points="66.0,397.0 561.0,397.0 592.0,391.0 614.0,374.0 620.0,348.0 613.0,304.0 591.0,272.0 560.0,250.0 528.0,239.0 132.0,175.0 66.0,231.0" stroke="#84AC60" stroke-width="1" /><polygon fill="#CCC" opacity="100" points="779.0,401.0 1013.0,401.0 1013.0,423.0 779.0,423.0" stroke="#000" stroke-width="1" /><polygon fill="#CCC" opacity="100" points="744.0,250.0 734.0,214.0 795.0,198.0 805.0,234.0" stroke="#000" stroke-width="1" /><polygon fill="#CCC" opacity="100" points="623.0,395.0 630.0,321.0 657.0,324.0 652.0,375.0 693.0,379.0 691.0,402.0" stroke="#000" stroke-width="1" /><polyline fill="none" opacity="100" points="652.0,375.0 623.0,395.0" stroke="#000" stroke-width="1" /><polygon fill="#CCC" opacity="100" points="696.0,348.0 693.0,330.0 743.0,316.0 755.0,354.0" stroke="#000" stroke-width="1" /><polygon fill="#CCC" opacity="100" points="696.0,348.0 692.0,393.0 756.0,399.0 760.0,354.0" stroke="#000" stroke-width="1" /><polygon fill="#CCC" opacity="100" points="684.0,296.0 696.0,293.0 695.0,290.0 724.0,282.0 725.0,285.0 738.0,281.0 747.0,315.0 736.0,318.0 737.0,321.0 707.0,329.0 706.0,326.0 693.0,330.0" stroke="#000" stroke-width="1" /><polyline fill="none" opacity="100" points="724.0,396.0 728.0,351.0" stroke="#000" stroke-width="1" /><polyline fill="none" opacity="100" points="689.0,313.0 742.0,298.0" stroke="#000" stroke-width="1" /><polyline fill="none" opacity="100" points="696.0,293.0 736.0,318.0" stroke="#000" stroke-width="1" /><polyline fill="none" opacity="100" points="725.0,285.0 706.0,326.0" stroke="#000" stroke-width="1" /><polyline fill="none" opacity="100" points="710.0,286.0 721.0,325.0" stroke="#000" stroke-width="1" /><polyline fill="none" opacity="100" points="983.0,493.0 1023.0,493.0" stroke="#F00" stroke-width="1" /><polygon fill="#F00" opacity="100" points="1011.4089,496.1058 1023.0,493.0 1011.4089,489.8942" stroke="#F00" stroke-width="1" /><polyline fill="none" opacity="100" points="1023.0,481.0 983.0,481.0" stroke="#0F0" stroke-width="1" /><polygon fill="#0F0" opacity="100" points="994.5911,477.8942 983.0,481.0 994.5911,484.1058" stroke="#0F0" stroke-width="1" /></g></g></svg>