<?xml version="1.0" encoding="utf-8" ?>
<svg baseProfile="tiny" height="1530px" version="1.2" width="910px" xmlns="http://www.w3.org/2000/svg" xmlns:ev="http://www.w3.org/2001/xml-events" xmlns:xlink="http://www.w3.org/1999/xlink"><defs /><g><g transform="rotate(-60.0,455.0,765.0)"><polygon fill="#FC9C54" opacity="100" points="272.0,977.0 272.0,947.0 722.0,947.0 722.0,977.0" stroke="#000" stroke-width="1" /><polygon fill="#FC9C54" opacity="100" points="722.0,867.0 722.0,837.0 272.0,837.0 272.0,867.0" stroke="#000" stroke-width="1" /><text fill="#F7782E" font-family="Arial" font-size="25" font-weight="bold" opacity="100" transform="rotate(-0.0 434.0,880.0) translate(0 25)" x="434.0" y="880.0">Калужская</text><text fill="#F7782E" font-family="Arial" font-size="20" font-weight="normal" opacity="100" transform="rotate(-0.0 275.0,814.0) translate(0 20)" x="275.0" y="814.0">&lt;&lt; Беляево</text><text fill="#F7782E" font-family="Arial" font-size="20" font-weight="normal" opacity="100" transform="rotate(-0.0 536.0,976.0) translate(0 20)" x="536.0" y="976.0">Новые Черёмушки &gt;&gt;</text><polyline fill="none" opacity="100" points="164.0,819.0 124.0,819.0 124.0,845.0 223.0,845.0 223.0,877.0 272.0,877.0 272.0,867.0" stroke="#000" stroke-width="1" /><polyline fill="none" opacity="100" points="162.0,1022.0 124.0,1022.0 124.0,968.0 223.0,968.0 223.0,937.0 272.0,937.0 272.0,947.0" stroke="#000" stroke-width="1" /><polyline fill="none" opacity="100" points="164.0,801.0 66.0,801.0" stroke="#000" stroke-width="1" /><polyline fill="none" opacity="100" points="162.0,1040.0 71.0,1040.0" stroke="#000" stroke-width="1" /><polyline fill="none" opacity="100" points="-248.0,801.0 -188.0,801.0 -188.0,885.0 -72.0,885.0 -32.0,845.0 106.0,845.0 106.0,819.0 66.0,819.0" stroke="#000" stroke-width="1" /><polyline fill="none" opacity="100" points="71.0,1022.0 106.0,1022.0 106.0,968.0 -32.0,968.0 -72.0,928.0 -188.0,928.0 -188.0,1040.0 -248.0,1040.0" stroke="#000" stroke-width="1" /><polyline fill="none" opacity="100" points="-248.0,819.0 -206.0,819.0 -206.0,1022.0 -248.0,1022.0" stroke="#000" stroke-width="1" /><polyline fill="none" opacity="100" points="66.0,815.0 106.0,815.0" stroke="#000" stroke-width="0.5" /><polyline fill="none" opacity="100" points="-248.0,805.0 -208.0,805.0" stroke="#000" stroke-width="0.5" /><polyline fill="none" opacity="100" points="-248.0,1036.0 -208.0,1036.0" stroke="#000" stroke-width="0.5" /><polyline fill="none" opacity="100" points="226.0,906.0 226.0,937.0" stroke="#000" stroke-width="1" /><polyline fill="none" opacity="100" points="230.0,906.0 230.0,937.0" stroke="#000" stroke-width="1" /><polyline fill="none" opacity="100" points="234.0,906.0 234.0,937.0" stroke="#000" stroke-width="1" /><polyline fill="none" opacity="100" points="238.0,906.0 238.0,937.0" stroke="#000" stroke-width="1" /><polyline fill="none" opacity="100" points="242.0,906.0 242.0,937.0" stroke="#000" stroke-width="1" /><polyline fill="none" opacity="100" points="246.0,906.0 246.0,937.0" stroke="#000" stroke-width="1" /><polyline fill="none" opacity="100" points="250.0,906.0 250.0,937.0" stroke="#000" stroke-width="1" /><polyline fill="none" opacity="100" points="254.0,906.0 254.0,937.0" stroke="#000" stroke-width="1" /><polyline fill="none" opacity="100" points="258.0,906.0 258.0,937.0" stroke="#000" stroke-width="1" /><polyline fill="none" opacity="100" points="262.0,906.0 262.0,937.0" stroke="#000" stroke-width="1" /><polyline fill="none" opacity="100" points="266.0,906.0 266.0,937.0" stroke="#000" stroke-width="1" /><polyline fill="none" opacity="100" points="162.0,801.0 162.0,819.0" stroke="#000" stroke-width="1" /><polyline fill="none" opacity="100" points="158.0,801.0 158.0,819.0" stroke="#000" stroke-width="1" /><polyline fill="none" opacity="100" points="154.0,801.0 154.0,819.0" stroke="#000" stroke-width="1" /><polyline fill="none" opacity="100" points="150.0,801.0 150.0,819.0" stroke="#000" stroke-width="1" /><polyline fill="none" opacity="100" points="146.0,801.0 146.0,819.0" stroke="#000" stroke-width="1" /><polyline fill="none" opacity="100" points="142.0,801.0 142.0,819.0" stroke="#000" stroke-width="1" /><polyline fill="none" opacity="100" points="138.0,801.0 138.0,819.0" stroke="#000" stroke-width="1" /><polyline fill="none" opacity="100" points="134.0,801.0 134.0,819.0" stroke="#000" stroke-width="1" /><polyline fill="none" opacity="100" points="130.0,801.0 130.0,819.0" stroke="#000" stroke-width="1" /><polyline fill="none" opacity="100" points="126.0,801.0 126.0,819.0" stroke="#000" stroke-width="1" /><polyline fill="none" opacity="100" points="68.0,801.0 68.0,815.0" stroke="#000" stroke-width="1" /><polyline fill="none" opacity="100" points="72.0,801.0 72.0,815.0" stroke="#000" stroke-width="1" /><polyline fill="none" opacity="100" points="76.0,801.0 76.0,815.0" stroke="#000" stroke-width="1" /><polyline fill="none" opacity="100" points="80.0,801.0 80.0,815.0" stroke="#000" stroke-width="1" /><polyline fill="none" opacity="100" points="84.0,801.0 84.0,815.0" stroke="#000" stroke-width="1" /><polyline fill="none" opacity="100" points="88.0,801.0 88.0,815.0" stroke="#000" stroke-width="1" /><polyline fill="none" opacity="100" points="92.0,801.0 92.0,815.0" stroke="#000" stroke-width="1" /><polyline fill="none" opacity="100" points="96.0,801.0 96.0,815.0" stroke="#000" stroke-width="1" /><polyline fill="none" opacity="100" points="100.0,801.0 100.0,815.0" stroke="#000" stroke-width="1" /><polyline fill="none" opacity="100" points="104.0,801.0 104.0,815.0" stroke="#000" stroke-width="1" /><polyline fill="none" opacity="100" points="125.0,1022.0 125.0,1040.0" stroke="#000" stroke-width="1" /><polyline fill="none" opacity="100" points="129.0,1022.0 129.0,1040.0" stroke="#000" stroke-width="1" /><polyline fill="none" opacity="100" points="133.0,1022.0 133.0,1040.0" stroke="#000" stroke-width="1" /><polyline fill="none" opacity="100" points="137.0,1022.0 137.0,1040.0" stroke="#000" stroke-width="1" /><polyline fill="none" opacity="100" points="141.0,1022.0 141.0,1040.0" stroke="#000" stroke-width="1" /><polyline fill="none" opacity="100" points="145.0,1022.0 145.0,1040.0" stroke="#000" stroke-width="1" /><polyline fill="none" opacity="100" points="149.0,1022.0 149.0,1040.0" stroke="#000" stroke-width="1" /><polyline fill="none" opacity="100" points="153.0,1022.0 153.0,1040.0" stroke="#000" stroke-width="1" /><polyline fill="none" opacity="100" points="157.0,1022.0 157.0,1040.0" stroke="#000" stroke-width="1" /><polyline fill="none" opacity="100" points="161.0,1022.0 161.0,1040.0" stroke="#000" stroke-width="1" /><polyline fill="none" opacity="100" points="72.0,1022.0 72.0,1040.0" stroke="#000" stroke-width="1" /><polyline fill="none" opacity="100" points="76.0,1022.0 76.0,1040.0" stroke="#000" stroke-width="1" /><polyline fill="none" opacity="100" points="80.0,1022.0 80.0,1040.0" stroke="#000" stroke-width="1" /><polyline fill="none" opacity="100" points="84.0,1022.0 84.0,1040.0" stroke="#000" stroke-width="1" /><polyline fill="none" opacity="100" points="88.0,1022.0 88.0,1040.0" stroke="#000" stroke-width="1" /><polyline fill="none" opacity="100" points="92.0,1022.0 92.0,1040.0" stroke="#000" stroke-width="1" /><polyline fill="none" opacity="100" points="96.0,1022.0 96.0,1040.0" stroke="#000" stroke-width="1" /><polyline fill="none" opacity="100" points="100.0,1022.0 100.0,1040.0" stroke="#000" stroke-width="1" /><polyline fill="none" opacity="100" points="104.0,1022.0 104.0,1040.0" stroke="#000" stroke-width="1" /><polyline fill="none" opacity="100" points="-246.0,819.0 -246.0,805.0" stroke="#000" stroke-width="1" /><polyline fill="none" opacity="100" points="-242.0,819.0 -242.0,805.0" stroke="#000" stroke-width="1" /><polyline fill="none" opacity="100" points="-238.0,819.0 -238.0,805.0" stroke="#000" stroke-width="1" /><polyline fill="none" opacity="100" points="-234.0,819.0 -234.0,805.0" stroke="#000" stroke-width="1" /><polyline fill="none" opacity="100" points="-230.0,819.0 -230.0,805.0" stroke="#000" stroke-width="1" /><polyline fill="none" opacity="100" points="-226.0,819.0 -226.0,805.0" stroke="#000" stroke-width="1" /><polyline fill="none" opacity="100" points="-222.0,819.0 -222.0,805.0" stroke="#000" stroke-width="1" /><polyline fill="none" opacity="100" points="-218.0,819.0 -218.0,805.0" stroke="#000" stroke-width="1" /><polyline fill="none" opacity="100" points="-214.0,819.0 -214.0,805.0" stroke="#000" stroke-width="1" /><polyline fill="none" opacity="100" points="-210.0,819.0 -210.0,805.0" stroke="#000" stroke-width="1" /><polyline fill="none" opacity="100" points="-246.0,1022.0 -246.0,1036.0" stroke="#000" stroke-width="1" /><polyline fill="none" opacity="100" points="-242.0,1022.0 -242.0,1036.0" stroke="#000" stroke-width="1" /><polyline fill="none" opacity="100" points="-238.0,1022.0 -238.0,1036.0" stroke="#000" stroke-width="1" /><polyline fill="none" opacity="100" points="-234.0,1022.0 -234.0,1036.0" stroke="#000" stroke-width="1" /><polyline fill="none" opacity="100" points="-230.0,1022.0 -230.0,1036.0" stroke="#000" stroke-width="1" /><polyline fill="none" opacity="100" points="-226.0,1022.0 -226.0,1036.0" stroke="#000" stroke-width="1" /><polyline fill="none" opacity="100" points="-222.0,1022.0 -222.0,1036.0" stroke="#000" stroke-width="1" /><polyline fill="none" opacity="100" points="-218.0,1022.0 -218.0,1036.0" stroke="#000" stroke-width="1" /><polyline fill="none" opacity="100" points="-214.0,1022.0 -214.0,1036.0" stroke="#000" stroke-width="1" /><polyline fill="none" opacity="100" points="-210.0,1022.0 -210.0,1036.0" stroke="#000" stroke-width="1" /><polygon fill="#D0D0D0" opacity="100" points="106.0,878.0 106.0,935.0 -14.0,935.0 -37.0,912.0 -37.0,901.0 -14.0,878.0" stroke="#000" stroke-width="1" /><polygon fill="#D0D0D0" opacity="100" points="132.0,878.0 124.0,878.0 124.0,935.0 132.0,935.0" stroke="#000" stroke-width="1" /><polyline fill="none" opacity="100" points="223.0,939.0 236.0,939.0 236.0,966.0 223.0,966.0" stroke="#000" stroke-width="1" /><text fill="#FFF" font-family="Arial" font-size="10" font-weight="normal" opacity="100" transform="rotate(90.0 236.0,940.0) translate(0 10)" x="236.0" y="940.0">кассы</text><polygon fill="none" opacity="100" points="174.0,892.0 170.0,896.0 166.0,892.0 170.0,888.0" stroke="#000" stroke-width="1" /><polyline fill="none" opacity="100" points="176.0,895.0 173.0,898.0" stroke="#090" stroke-width="1" /><polyline fill="none" opacity="100" points="178.9242,897.7293 175.9242,900.7293" stroke="#090" stroke-width="1" /><polyline fill="none" opacity="100" points="181.8484,900.4585 178.8484,903.4585" stroke="#090" stroke-width="1" /><polyline fill="none" opacity="100" points="184.7727,903.1878 181.7727,906.1878" stroke="#090" stroke-width="1" /><polyline fill="none" opacity="100" points="187.6969,905.9171 184.6969,908.9171" stroke="#090" stroke-width="1" /><polyline fill="none" opacity="100" points="190.6211,908.6464 187.6211,911.6464" stroke="#090" stroke-width="1" /><polyline fill="none" opacity="100" points="193.5453,911.3756 190.5453,914.3756" stroke="#090" stroke-width="1" /><polyline fill="none" opacity="100" points="196.4695,914.1049 193.4695,917.1049" stroke="#090" stroke-width="1" /><polyline fill="none" opacity="100" points="199.3938,916.8342 196.3938,919.8342" stroke="#090" stroke-width="1" /><polyline fill="none" opacity="100" points="202.318,919.5635 199.318,922.5635" stroke="#090" stroke-width="1" /><polyline fill="none" opacity="100" points="205.2422,922.2927 202.2422,925.2927" stroke="#090" stroke-width="1" /><polyline fill="none" opacity="100" points="208.1664,925.022 205.1664,928.022" stroke="#090" stroke-width="1" /><polyline fill="none" opacity="100" points="211.0907,927.7513 208.0907,930.7513" stroke="#090" stroke-width="1" /><polyline fill="none" opacity="100" points="214.0149,930.4805 211.0149,933.4805" stroke="#090" stroke-width="1" /><polyline fill="none" opacity="100" points="216.9391,933.2098 213.9391,936.2098" stroke="#090" stroke-width="1" /><polyline fill="none" opacity="100" points="219.8633,935.9391 216.8633,938.9391" stroke="#090" stroke-width="1" /><polyline fill="none" opacity="100" points="172.0,848.0 168.0,848.0" stroke="#F00" stroke-width="1" /><polyline fill="none" opacity="100" points="172.0,852.0 168.0,852.0" stroke="#F00" stroke-width="1" /><polyline fill="none" opacity="100" points="172.0,856.0 168.0,856.0" stroke="#F00" stroke-width="1" /><polyline fill="none" opacity="100" points="172.0,860.0 168.0,860.0" stroke="#F00" stroke-width="1" /><polyline fill="none" opacity="100" points="172.0,864.0 168.0,864.0" stroke="#F00" stroke-width="1" /><polyline fill="none" opacity="100" points="172.0,868.0 168.0,868.0" stroke="#F00" stroke-width="1" /><polyline fill="none" opacity="100" points="172.0,872.0 168.0,872.0" stroke="#F00" stroke-width="1" /><polyline fill="none" opacity="100" points="172.0,876.0 168.0,876.0" stroke="#F00" stroke-width="1" /><polyline fill="none" opacity="100" points="172.0,880.0 168.0,880.0" stroke="#F00" stroke-width="1" /><polyline fill="none" opacity="100" points="172.0,884.0 168.0,884.0" stroke="#F00" stroke-width="1" /><polyline fill="none" opacity="100" points="228.0,880.0 228.0,903.0" stroke="#7F7F7F" stroke-width="1" /><polyline fill="none" opacity="100" points="232.0,880.0 232.0,903.0" stroke="#7F7F7F" stroke-width="1" /><polyline fill="none" opacity="100" points="236.0,880.0 236.0,903.0" stroke="#7F7F7F" stroke-width="1" /><polyline fill="none" opacity="100" points="240.0,880.0 240.0,903.0" stroke="#7F7F7F" stroke-width="1" /><polyline fill="none" opacity="100" points="244.0,880.0 244.0,903.0" stroke="#7F7F7F" stroke-width="1" /><polyline fill="none" opacity="100" points="248.0,880.0 248.0,903.0" stroke="#7F7F7F" stroke-width="1" /><polyline fill="none" opacity="100" points="252.0,880.0 252.0,903.0" stroke="#7F7F7F" stroke-width="1" /><polyline fill="none" opacity="100" points="256.0,880.0 256.0,903.0" stroke="#7F7F7F" stroke-width="1" /><polyline fill="none" opacity="100" points="260.0,880.0 260.0,903.0" stroke="#7F7F7F" stroke-width="1" /><polyline fill="none" opacity="100" points="264.0,880.0 264.0,903.0" stroke="#7F7F7F" stroke-width="1" /><polygon fill="#9B5509" opacity="100" points="272.0,889.0 224.0,889.0 224.0,894.0 272.0,894.0" stroke="#000" stroke-width="1" /><polygon fill="#9B5509" opacity="100" points="272.0,903.0 224.0,903.0 224.0,906.0 272.0,906.0" stroke="#000" stroke-width="1" /><polygon fill="#9B5509" opacity="100" points="272.0,877.0 224.0,877.0 224.0,880.0 272.0,880.0" stroke="#000" stroke-width="1" /><polyline fill="none" opacity="100" points="776.0,881.0 776.0,904.0" stroke="#7F7F7F" stroke-width="1" /><polyline fill="none" opacity="100" points="772.0,881.0 772.0,904.0" stroke="#7F7F7F" stroke-width="1" /><polyline fill="none" opacity="100" points="768.0,881.0 768.0,904.0" stroke="#7F7F7F" stroke-width="1" /><polyline fill="none" opacity="100" points="764.0,881.0 764.0,904.0" stroke="#7F7F7F" stroke-width="1" /><polyline fill="none" opacity="100" points="760.0,881.0 760.0,904.0" stroke="#7F7F7F" stroke-width="1" /><polyline fill="none" opacity="100" points="756.0,881.0 756.0,904.0" stroke="#7F7F7F" stroke-width="1" /><polyline fill="none" opacity="100" points="752.0,881.0 752.0,904.0" stroke="#7F7F7F" stroke-width="1" /><polyline fill="none" opacity="100" points="748.0,881.0 748.0,904.0" stroke="#7F7F7F" stroke-width="1" /><polyline fill="none" opacity="100" points="744.0,881.0 744.0,904.0" stroke="#7F7F7F" stroke-width="1" /><polyline fill="none" opacity="100" points="740.0,881.0 740.0,904.0" stroke="#7F7F7F" stroke-width="1" /><polyline fill="none" opacity="100" points="736.0,881.0 736.0,904.0" stroke="#7F7F7F" stroke-width="1" /><polyline fill="none" opacity="100" points="732.0,881.0 732.0,904.0" stroke="#7F7F7F" stroke-width="1" /><polyline fill="none" opacity="100" points="728.0,881.0 728.0,904.0" stroke="#7F7F7F" stroke-width="1" /><polygon fill="#9B5509" opacity="100" points="723.0,890.0 779.0,890.0 779.0,895.0 723.0,895.0" stroke="#000" stroke-width="1" /><polygon fill="#9B5509" opacity="100" points="723.0,904.0 779.0,904.0 779.0,907.0 723.0,907.0" stroke="#000" stroke-width="1" /><polygon fill="#9B5509" opacity="100" points="723.0,878.0 779.0,878.0 779.0,881.0 723.0,881.0" stroke="#000" stroke-width="1" /><polyline fill="none" opacity="100" points="726.0,907.0 726.0,936.0" stroke="#000" stroke-width="1" /><polyline fill="none" opacity="100" points="730.0,907.0 730.0,936.0" stroke="#000" stroke-width="1" /><polyline fill="none" opacity="100" points="734.0,907.0 734.0,936.0" stroke="#000" stroke-width="1" /><polyline fill="none" opacity="100" points="738.0,907.0 738.0,936.0" stroke="#000" stroke-width="1" /><polyline fill="none" opacity="100" points="742.0,907.0 742.0,936.0" stroke="#000" stroke-width="1" /><polyline fill="none" opacity="100" points="746.0,907.0 746.0,936.0" stroke="#000" stroke-width="1" /><polyline fill="none" opacity="100" points="750.0,907.0 750.0,936.0" stroke="#000" stroke-width="1" /><polyline fill="none" opacity="100" points="754.0,907.0 754.0,936.0" stroke="#000" stroke-width="1" /><polyline fill="none" opacity="100" points="758.0,907.0 758.0,936.0" stroke="#000" stroke-width="1" /><polyline fill="none" opacity="100" points="762.0,907.0 762.0,936.0" stroke="#000" stroke-width="1" /><polyline fill="none" opacity="100" points="766.0,907.0 766.0,936.0" stroke="#000" stroke-width="1" /><polyline fill="none" opacity="100" points="770.0,907.0 770.0,936.0" stroke="#000" stroke-width="1" /><polyline fill="none" opacity="100" points="774.0,907.0 774.0,936.0" stroke="#000" stroke-width="1" /><polyline fill="none" opacity="100" points="776.0,936.0 722.0,936.0 722.0,947.0" stroke="#000" stroke-width="1" /><polygon fill="#FFF" opacity="0.85" points="755.0,877.0 728.0,877.0 728.0,937.0 755.0,937.0" stroke="#FFF" stroke-width="1" /><polyline fill="none" opacity="1.0" points="722.0,878.0 722.0,867.0" stroke="#000" stroke-width="1" /><polyline fill="none" opacity="1.0" points="797.0,792.0 755.0,792.0 755.0,817.0 805.0,817.0 805.0,810.0 809.0,810.0" stroke="#000" stroke-width="1" /><polyline fill="none" opacity="1.0" points="840.0,810.0 844.0,810.0 844.0,963.0 756.0,963.0 756.0,1022.0 798.0,1022.0" stroke="#000" stroke-width="1" /><polyline fill="none" opacity="1.0" points="798.0,1040.0 686.0,1040.0" stroke="#000" stroke-width="1" /><polyline fill="none" opacity="1.0" points="686.0,1022.0 728.0,1022.0 728.0,792.0 686.0,792.0" stroke="#000" stroke-width="1" /><polyline fill="none" opacity="1.0" points="686.0,774.0 797.0,774.0" stroke="#000" stroke-width="1" /><polyline fill="none" opacity="1.0" points="798.0,1036.0 757.0,1036.0" stroke="#000" stroke-width="0.5" /><polyline fill="none" opacity="1.0" points="686.0,779.0 726.0,779.0" stroke="#000" stroke-width="0.5" /><polyline fill="none" opacity="1.0" points="797.0,779.0 757.0,779.0" stroke="#000" stroke-width="0.5" /><polyline fill="none" opacity="1.0" points="752.0,1019.0 752.0,1011.0" stroke="#000" stroke-width="0.5" /><polyline fill="none" opacity="1.0" points="794.0,831.0 756.0,831.0" stroke="#000" stroke-width="0.5" /><polyline fill="none" opacity="1.0" points="688.0,1022.0 688.0,1040.0" stroke="#000" stroke-width="1" /><polyline fill="none" opacity="1.0" points="692.0,1022.0 692.0,1040.0" stroke="#000" stroke-width="1" /><polyline fill="none" opacity="1.0" points="696.0,1022.0 696.0,1040.0" stroke="#000" stroke-width="1" /><polyline fill="none" opacity="1.0" points="700.0,1022.0 700.0,1040.0" stroke="#000" stroke-width="1" /><polyline fill="none" opacity="1.0" points="704.0,1022.0 704.0,1040.0" stroke="#000" stroke-width="1" /><polyline fill="none" opacity="1.0" points="708.0,1022.0 708.0,1040.0" stroke="#000" stroke-width="1" /><polyline fill="none" opacity="1.0" points="712.0,1022.0 712.0,1040.0" stroke="#000" stroke-width="1" /><polyline fill="none" opacity="1.0" points="716.0,1022.0 716.0,1040.0" stroke="#000" stroke-width="1" /><polyline fill="none" opacity="1.0" points="720.0,1022.0 720.0,1040.0" stroke="#000" stroke-width="1" /><polyline fill="none" opacity="1.0" points="724.0,1022.0 724.0,1040.0" stroke="#000" stroke-width="1" /><polyline fill="none" opacity="1.0" points="796.0,1022.0 796.0,1036.0" stroke="#000" stroke-width="1" /><polyline fill="none" opacity="1.0" points="792.0,1022.0 792.0,1036.0" stroke="#000" stroke-width="1" /><polyline fill="none" opacity="1.0" points="788.0,1022.0 788.0,1036.0" stroke="#000" stroke-width="1" /><polyline fill="none" opacity="1.0" points="784.0,1022.0 784.0,1036.0" stroke="#000" stroke-width="1" /><polyline fill="none" opacity="1.0" points="780.0,1022.0 780.0,1036.0" stroke="#000" stroke-width="1" /><polyline fill="none" opacity="1.0" points="776.0,1022.0 776.0,1036.0" stroke="#000" stroke-width="1" /><polyline fill="none" opacity="1.0" points="772.0,1022.0 772.0,1036.0" stroke="#000" stroke-width="1" /><polyline fill="none" opacity="1.0" points="768.0,1022.0 768.0,1036.0" stroke="#000" stroke-width="1" /><polyline fill="none" opacity="1.0" points="764.0,1022.0 764.0,1036.0" stroke="#000" stroke-width="1" /><polyline fill="none" opacity="1.0" points="760.0,1022.0 760.0,1036.0" stroke="#000" stroke-width="1" /><polyline fill="none" opacity="1.0" points="795.0,792.0 795.0,779.0" stroke="#000" stroke-width="1" /><polyline fill="none" opacity="1.0" points="791.0,792.0 791.0,779.0" stroke="#000" stroke-width="1" /><polyline fill="none" opacity="1.0" points="787.0,792.0 787.0,779.0" stroke="#000" stroke-width="1" /><polyline fill="none" opacity="1.0" points="783.0,792.0 783.0,779.0" stroke="#000" stroke-width="1" /><polyline fill="none" opacity="1.0" points="779.0,792.0 779.0,779.0" stroke="#000" stroke-width="1" /><polyline fill="none" opacity="1.0" points="775.0,792.0 775.0,779.0" stroke="#000" stroke-width="1" /><polyline fill="none" opacity="1.0" points="771.0,792.0 771.0,779.0" stroke="#000" stroke-width="1" /><polyline fill="none" opacity="1.0" points="767.0,792.0 767.0,779.0" stroke="#000" stroke-width="1" /><polyline fill="none" opacity="1.0" points="763.0,792.0 763.0,779.0" stroke="#000" stroke-width="1" /><polyline fill="none" opacity="1.0" points="759.0,792.0 759.0,779.0" stroke="#000" stroke-width="1" /><polyline fill="none" opacity="1.0" points="688.0,792.0 688.0,779.0" stroke="#000" stroke-width="1" /><polyline fill="none" opacity="1.0" points="692.0,792.0 692.0,779.0" stroke="#000" stroke-width="1" /><polyline fill="none" opacity="1.0" points="696.0,792.0 696.0,779.0" stroke="#000" stroke-width="1" /><polyline fill="none" opacity="1.0" points="700.0,792.0 700.0,779.0" stroke="#000" stroke-width="1" /><polyline fill="none" opacity="1.0" points="704.0,792.0 704.0,779.0" stroke="#000" stroke-width="1" /><polyline fill="none" opacity="1.0" points="708.0,792.0 708.0,779.0" stroke="#000" stroke-width="1" /><polyline fill="none" opacity="1.0" points="712.0,792.0 712.0,779.0" stroke="#000" stroke-width="1" /><polyline fill="none" opacity="1.0" points="716.0,792.0 716.0,779.0" stroke="#000" stroke-width="1" /><polyline fill="none" opacity="1.0" points="720.0,792.0 720.0,779.0" stroke="#000" stroke-width="1" /><polyline fill="none" opacity="1.0" points="724.0,792.0 724.0,779.0" stroke="#000" stroke-width="1" /><polyline fill="none" opacity="1.0" points="728.0,1017.0 752.0,1017.0" stroke="#000" stroke-width="1" /><polyline fill="none" opacity="1.0" points="728.0,1013.0 752.0,1013.0" stroke="#000" stroke-width="1" /><polygon fill="#D0D0D0" opacity="1.0" points="755.0,873.0 779.0,873.0 779.0,878.0 760.0,878.0 760.0,936.0 779.0,936.0 779.0,941.0 755.0,941.0" stroke="#000" stroke-width="1" /><polygon fill="#D0D0D0" opacity="1.0" points="755.0,847.0 755.0,855.0 805.0,855.0 805.0,847.0" stroke="#000" stroke-width="1" /><polygon fill="none" opacity="1.0" points="804.0,942.0 799.0,942.0 799.0,937.0 804.0,937.0" stroke="#000" stroke-width="1" /><polyline fill="none" opacity="1.0" points="804.0,937.0 779.0,937.0" stroke="#000" stroke-width="0.5" /><polyline fill="none" opacity="1.0" points="772.0,869.0 776.0,869.0" stroke="#F00" stroke-width="1" /><polyline fill="none" opacity="1.0" points="772.0,865.0 776.0,865.0" stroke="#F00" stroke-width="1" /><polyline fill="none" opacity="1.0" points="772.0,861.0 776.0,861.0" stroke="#F00" stroke-width="1" /><polyline fill="none" opacity="1.0" points="772.0,857.0 776.0,857.0" stroke="#F00" stroke-width="1" /><polyline fill="none" opacity="1.0" points="772.0,844.0 776.0,844.0" stroke="#F00" stroke-width="1" /><polyline fill="none" opacity="1.0" points="772.0,840.0 776.0,840.0" stroke="#F00" stroke-width="1" /><polyline fill="none" opacity="1.0" points="772.0,836.0 776.0,836.0" stroke="#F00" stroke-width="1" /><polyline fill="none" opacity="1.0" points="841.0,876.0 837.0,874.0" stroke="#090" stroke-width="1" /><polyline fill="none" opacity="1.0" points="838.942,879.43 834.942,877.43" stroke="#090" stroke-width="1" /><polyline fill="none" opacity="1.0" points="836.884,882.8599 832.884,880.8599" stroke="#090" stroke-width="1" /><polyline fill="none" opacity="1.0" points="834.8261,886.2899 830.8261,884.2899" stroke="#090" stroke-width="1" /><polyline fill="none" opacity="1.0" points="832.7681,889.7199 828.7681,887.7199" stroke="#090" stroke-width="1" /><polyline fill="none" opacity="1.0" points="830.7101,893.1499 826.7101,891.1499" stroke="#090" stroke-width="1" /><polyline fill="none" opacity="1.0" points="828.6521,896.5798 824.6521,894.5798" stroke="#090" stroke-width="1" /><polyline fill="none" opacity="1.0" points="826.5941,900.0098 822.5941,898.0098" stroke="#090" stroke-width="1" /><polyline fill="none" opacity="1.0" points="824.5361,903.4398 820.5361,901.4398" stroke="#090" stroke-width="1" /><polyline fill="none" opacity="1.0" points="822.4782,906.8697 818.4782,904.8697" stroke="#090" stroke-width="1" /><polyline fill="none" opacity="1.0" points="820.4202,910.2997 816.4202,908.2997" stroke="#090" stroke-width="1" /><polyline fill="none" opacity="1.0" points="818.3622,913.7297 814.3622,911.7297" stroke="#090" stroke-width="1" /><polyline fill="none" opacity="1.0" points="816.3042,917.1597 812.3042,915.1597" stroke="#090" stroke-width="1" /><polyline fill="none" opacity="1.0" points="814.2462,920.5896 810.2462,918.5896" stroke="#090" stroke-width="1" /><polyline fill="none" opacity="1.0" points="812.1882,924.0196 808.1882,922.0196" stroke="#090" stroke-width="1" /><polyline fill="none" opacity="1.0" points="810.1303,927.4496 806.1303,925.4496" stroke="#090" stroke-width="1" /><polyline fill="none" opacity="1.0" points="808.0723,930.8795 804.0723,928.8795" stroke="#090" stroke-width="1" /><polyline fill="none" opacity="1.0" points="806.0143,934.3095 802.0143,932.3095" stroke="#090" stroke-width="1" /><polyline fill="none" opacity="1.0" points="772.0,827.0 776.0,827.0" stroke="#090" stroke-width="1" /><polyline fill="none" opacity="1.0" points="772.0,823.0 776.0,823.0" stroke="#090" stroke-width="1" /><polyline fill="none" opacity="1.0" points="772.0,819.0 776.0,819.0" stroke="#090" stroke-width="1" /><polyline fill="none" opacity="1.0" points="844.0,931.0 857.0,931.0 857.0,959.0 844.0,959.0" stroke="#000" stroke-width="1" /><text fill="#000" font-family="Arial" font-size="10" font-weight="normal" opacity="1.0" transform="rotate(90.0 857.0,932.0) translate(0 10)" x="857.0" y="932.0">кассы</text><polyline fill="none" opacity="1.0" points="795.0,840.0 785.0,840.0" stroke="#F00" stroke-width="1" /><polygon fill="#F00" opacity="1.0" points="787.8978,839.2235 785.0,840.0 787.8978,840.7765" stroke="#F00" stroke-width="1" /><polyline fill="none" opacity="1.0" points="834.0,731.0 834.0,742.0" stroke="#F00" stroke-width="1" /><polygon fill="#F00" opacity="1.0" points="833.1459,738.8124 834.0,742.0 834.8541,738.8124" stroke="#F00" stroke-width="1" /><polyline fill="none" opacity="1.0" points="767.0,862.0 753.0,862.0" stroke="#F00" stroke-width="1" /><polygon fill="#F00" opacity="1.0" points="757.0569,860.913 753.0,862.0 757.0569,863.087" stroke="#F00" stroke-width="1" /><polyline fill="none" opacity="1.0" points="149.0,861.0 136.0,861.0" stroke="#F00" stroke-width="1" /><polygon fill="#F00" opacity="1.0" points="139.7671,859.9906 136.0,861.0 139.7671,862.0094" stroke="#F00" stroke-width="1" /><polyline fill="none" opacity="1.0" points="790.0,881.0 797.0,875.0" stroke="#F00" stroke-width="1" /><polygon fill="#F00" opacity="1.0" points="795.4374,877.2822 797.0,875.0 794.5057,876.1951" stroke="#F00" stroke-width="1" /><polyline fill="none" opacity="1.0" points="230.0,885.0 217.0,885.0" stroke="#F00" stroke-width="1" /><polygon fill="#F00" opacity="1.0" points="220.7671,883.9906 217.0,885.0 220.7671,886.0094" stroke="#F00" stroke-width="1" /><polyline fill="none" opacity="1.0" points="786.0,824.0 796.0,824.0" stroke="#090" stroke-width="1" /><polygon fill="#090" opacity="1.0" points="793.1022,824.7765 796.0,824.0 793.1022,823.2235" stroke="#090" stroke-width="1" /><polyline fill="none" opacity="1.0" points="815.0,742.0 815.0,731.0" stroke="#090" stroke-width="1" /><polygon fill="#090" opacity="1.0" points="815.8541,734.1876 815.0,731.0 814.1459,734.1876" stroke="#090" stroke-width="1" /><polyline fill="none" opacity="1.0" points="823.0,933.0 813.0,927.0" stroke="#090" stroke-width="1" /><polygon fill="#090" opacity="1.0" points="816.3637,927.9622 813.0,927.0 815.4319,929.5151" stroke="#090" stroke-width="1" /><polyline fill="none" opacity="1.0" points="158.0,943.0 167.0,934.0" stroke="#090" stroke-width="1" /><polygon fill="#090" opacity="1.0" points="165.0908,937.3068 167.0,934.0 163.6932,935.9092" stroke="#090" stroke-width="1" /><polyline fill="none" opacity="1.0" points="753.0,952.0 767.0,952.0" stroke="#090" stroke-width="1" /><polygon fill="#090" opacity="1.0" points="762.9431,953.087 767.0,952.0 762.9431,950.913" stroke="#090" stroke-width="1" /><polyline fill="none" opacity="1.0" points="219.0,920.0 236.0,920.0" stroke="#090" stroke-width="1" /><polygon fill="#090" opacity="1.0" points="231.0738,921.32 236.0,920.0 231.0738,918.68" stroke="#090" stroke-width="1" /><polygon fill="#34349C" opacity="1.0" points="837.0,925.0 842.0,925.0 842.0,923.0 837.0,923.0" stroke="#34349C" stroke-width="1" /><polygon fill="#34349C" opacity="1.0" points="488.0,918.0 488.0,923.0 486.0,923.0 486.0,918.0" stroke="#34349C" stroke-width="1" /><polygon fill="#34349C" opacity="1.0" points="135.0,928.0 135.0,923.0 137.0,923.0 137.0,928.0" stroke="#34349C" stroke-width="1" /><polygon fill="#F00" opacity="1.0" points="832.0,925.0 837.0,925.0 837.0,923.0 832.0,923.0" stroke="#F00" stroke-width="1" /><polygon fill="#F00" opacity="1.0" points="488.0,913.0 488.0,918.0 486.0,918.0 486.0,913.0" stroke="#F00" stroke-width="1" /><polygon fill="#F00" opacity="1.0" points="135.0,933.0 135.0,928.0 137.0,928.0 137.0,933.0" stroke="#F00" stroke-width="1" /><polygon fill="#30D5C8" opacity="1.0" points="786.0,735.0 756.0,735.0 756.0,286.0 786.0,286.0" stroke="#000" stroke-width="1" /><polygon fill="#30D5C8" opacity="1.0" points="894.0,735.0 864.0,735.0 864.0,286.0 894.0,286.0" stroke="#000" stroke-width="1" /><text fill="#30D5C8" font-family="Arial" font-size="25" font-weight="bold" opacity="1.0" transform="rotate(90.0 835.0,431.0) translate(0 25)" x="835.0" y="431.0">Воронцовская</text><text fill="#30D5C8" font-family="Arial" font-size="20" font-weight="normal" opacity="1.0" transform="rotate(90.0 869.0,306.0) translate(0 20)" x="869.0" y="306.0">&lt;&lt; Новаторская</text><text fill="#30D5C8" font-family="Arial" font-size="20" font-weight="normal" opacity="1.0" transform="rotate(90.0 812.0,611.0) translate(0 20)" x="812.0" y="611.0">Зюзино &gt;&gt;</text><polygon fill="#94949C" opacity="1.0" points="829.0,523.0 833.0,523.0 833.0,521.0 829.0,521.0" stroke="#94949C" stroke-width="1" /><polygon fill="#F00" opacity="1.0" points="825.0,523.0 829.0,523.0 829.0,521.0 825.0,521.0" stroke="#F00" stroke-width="1" /><polyline fill="none" opacity="1.0" points="836.0,225.0 812.0,225.0" stroke="#7F7F7F" stroke-width="1" /><polyline fill="none" opacity="1.0" points="836.0,229.0 812.0,229.0" stroke="#7F7F7F" stroke-width="1" /><polyline fill="none" opacity="1.0" points="836.0,233.0 812.0,233.0" stroke="#7F7F7F" stroke-width="1" /><polyline fill="none" opacity="1.0" points="836.0,237.0 812.0,237.0" stroke="#7F7F7F" stroke-width="1" /><polyline fill="none" opacity="1.0" points="836.0,241.0 812.0,241.0" stroke="#7F7F7F" stroke-width="1" /><polyline fill="none" opacity="1.0" points="836.0,245.0 812.0,245.0" stroke="#7F7F7F" stroke-width="1" /><polyline fill="none" opacity="1.0" points="836.0,249.0 812.0,249.0" stroke="#7F7F7F" stroke-width="1" /><polyline fill="none" opacity="1.0" points="836.0,253.0 812.0,253.0" stroke="#7F7F7F" stroke-width="1" /><polyline fill="none" opacity="1.0" points="836.0,257.0 812.0,257.0" stroke="#7F7F7F" stroke-width="1" /><polyline fill="none" opacity="1.0" points="836.0,261.0 812.0,261.0" stroke="#7F7F7F" stroke-width="1" /><polyline fill="none" opacity="1.0" points="836.0,265.0 812.0,265.0" stroke="#7F7F7F" stroke-width="1" /><polyline fill="none" opacity="1.0" points="836.0,269.0 812.0,269.0" stroke="#7F7F7F" stroke-width="1" /><polyline fill="none" opacity="1.0" points="836.0,273.0 812.0,273.0" stroke="#7F7F7F" stroke-width="1" /><polygon fill="#9B5509" opacity="1.0" points="809.0,218.0 812.0,218.0 812.0,279.0 809.0,279.0" stroke="#000" stroke-width="1" /><polygon fill="#9B5509" opacity="1.0" points="818.0,218.0 821.0,218.0 821.0,279.0 818.0,279.0" stroke="#000" stroke-width="1" /><polygon fill="#9B5509" opacity="1.0" points="827.0,218.0 830.0,218.0 830.0,279.0 827.0,279.0" stroke="#000" stroke-width="1" /><polygon fill="#9B5509" opacity="1.0" points="836.0,218.0 836.0,279.0 839.0,279.0 839.0,218.0" stroke="#000" stroke-width="1" /><polyline fill="none" opacity="1.0" points="864.0,286.0 839.0,286.0 839.0,279.0" stroke="#000" stroke-width="1" /><polyline fill="none" opacity="1.0" points="809.0,279.0 809.0,286.0 802.0,286.0 802.0,197.0 806.0,197.0 806.0,218.0 809.0,218.0" stroke="#000" stroke-width="1" /><polyline fill="none" opacity="1.0" points="839.0,218.0 843.0,218.0 843.0,197.0 868.0,197.0 868.0,108.0 903.0,108.0 903.0,148.0" stroke="#000" stroke-width="1" /><polyline fill="none" opacity="1.0" points="786.0,286.0 791.0,286.0 791.0,197.0 776.0,197.0 776.0,90.0 892.0,90.0 892.0,55.0" stroke="#000" stroke-width="1" /><polyline fill="none" opacity="1.0" points="903.0,90.0 903.0,48.0" stroke="#000" stroke-width="1" /><polyline fill="none" opacity="1.0" points="921.0,48.0 921.0,148.0" stroke="#000" stroke-width="1" /><polyline fill="none" opacity="1.0" points="907.0,48.0 907.0,88.0" stroke="#000" stroke-width="0.5" /><polyline fill="none" opacity="1.0" points="907.0,108.0 907.0,148.0" stroke="#000" stroke-width="0.5" /><polyline fill="none" opacity="1.0" points="921.0,146.0 907.0,146.0" stroke="#000" stroke-width="1" /><polyline fill="none" opacity="1.0" points="921.0,142.0 907.0,142.0" stroke="#000" stroke-width="1" /><polyline fill="none" opacity="1.0" points="921.0,138.0 907.0,138.0" stroke="#000" stroke-width="1" /><polyline fill="none" opacity="1.0" points="921.0,134.0 907.0,134.0" stroke="#000" stroke-width="1" /><polyline fill="none" opacity="1.0" points="921.0,130.0 907.0,130.0" stroke="#000" stroke-width="1" /><polyline fill="none" opacity="1.0" points="921.0,126.0 907.0,126.0" stroke="#000" stroke-width="1" /><polyline fill="none" opacity="1.0" points="921.0,122.0 907.0,122.0" stroke="#000" stroke-width="1" /><polyline fill="none" opacity="1.0" points="921.0,118.0 907.0,118.0" stroke="#000" stroke-width="1" /><polyline fill="none" opacity="1.0" points="921.0,114.0 907.0,114.0" stroke="#000" stroke-width="1" /><polyline fill="none" opacity="1.0" points="921.0,110.0 907.0,110.0" stroke="#000" stroke-width="1" /><polyline fill="none" opacity="1.0" points="921.0,50.0 907.0,50.0" stroke="#000" stroke-width="1" /><polyline fill="none" opacity="1.0" points="921.0,54.0 907.0,54.0" stroke="#000" stroke-width="1" /><polyline fill="none" opacity="1.0" points="921.0,58.0 907.0,58.0" stroke="#000" stroke-width="1" /><polyline fill="none" opacity="1.0" points="921.0,62.0 907.0,62.0" stroke="#000" stroke-width="1" /><polyline fill="none" opacity="1.0" points="921.0,66.0 907.0,66.0" stroke="#000" stroke-width="1" /><polyline fill="none" opacity="1.0" points="921.0,70.0 907.0,70.0" stroke="#000" stroke-width="1" /><polyline fill="none" opacity="1.0" points="921.0,74.0 907.0,74.0" stroke="#000" stroke-width="1" /><polyline fill="none" opacity="1.0" points="921.0,78.0 907.0,78.0" stroke="#000" stroke-width="1" /><polyline fill="none" opacity="1.0" points="921.0,82.0 907.0,82.0" stroke="#000" stroke-width="1" /><polyline fill="none" opacity="1.0" points="921.0,86.0 907.0,86.0" stroke="#000" stroke-width="1" /><polygon fill="#D0D0D0" opacity="1.0" points="816.0,154.0 841.0,129.0 841.0,122.0 827.0,108.0 805.0,108.0 805.0,143.0" stroke="#000" stroke-width="1" /><polyline fill="none" opacity="1.0" points="892.0,90.0 903.0,90.0" stroke="#D0D0D0" stroke-width="1" /><polyline fill="none" opacity="1.0" points="892.0,55.0 903.0,55.0" stroke="#D0D0D0" stroke-width="1" /><polyline fill="none" opacity="1.0" points="791.0,144.0 791.0,130.0" stroke="#F00" stroke-width="1" /><polygon fill="#F00" opacity="1.0" points="792.087,134.0569 791.0,130.0 789.913,134.0569" stroke="#F00" stroke-width="1" /><polyline fill="none" opacity="1.0" points="856.0,127.0 856.0,141.0" stroke="#090" stroke-width="1" /><polygon fill="#090" opacity="1.0" points="854.913,136.9431 856.0,141.0 857.087,136.9431" stroke="#090" stroke-width="1" /><polygon fill="#FFF" opacity="1.0" points="823.0,147.0 818.0,142.0 836.0,124.0 841.0,129.0" stroke="#000" stroke-width="1" /><text fill="#000" font-family="Arial" font-size="10" font-weight="normal" opacity="1.0" transform="rotate(-45.0 816.0,139.0) translate(0 10)" x="816.0" y="139.0">кассы</text><polyline fill="none" opacity="1.0" points="861.0,189.0 865.0,185.0" stroke="#090" stroke-width="1" /><polyline fill="none" opacity="1.0" points="857.9577,186.403 861.9577,182.403" stroke="#090" stroke-width="1" /><polyline fill="none" opacity="1.0" points="854.9155,183.8059 858.9155,179.8059" stroke="#090" stroke-width="1" /><polyline fill="none" opacity="1.0" points="851.8732,181.2089 855.8732,177.2089" stroke="#090" stroke-width="1" /><polyline fill="none" opacity="1.0" points="848.831,178.6118 852.831,174.6118" stroke="#090" stroke-width="1" /><polyline fill="none" opacity="1.0" points="845.7887,176.0148 849.7887,172.0148" stroke="#090" stroke-width="1" /><polyline fill="none" opacity="1.0" points="842.7465,173.4177 846.7465,169.4177" stroke="#090" stroke-width="1" /><polyline fill="none" opacity="1.0" points="839.7042,170.8207 843.7042,166.8207" stroke="#090" stroke-width="1" /><polyline fill="none" opacity="1.0" points="836.6619,168.2236 840.6619,164.2236" stroke="#090" stroke-width="1" /><polyline fill="none" opacity="1.0" points="833.6197,165.6266 837.6197,161.6266" stroke="#090" stroke-width="1" /><polyline fill="none" opacity="1.0" points="830.5774,163.0295 834.5774,159.0295" stroke="#090" stroke-width="1" /><polyline fill="none" opacity="1.0" points="827.5352,160.4325 831.5352,156.4325" stroke="#090" stroke-width="1" /><polyline fill="none" opacity="1.0" points="824.4929,157.8354 828.4929,153.8354" stroke="#090" stroke-width="1" /><polyline fill="none" opacity="1.0" points="821.4506,155.2384 825.4506,151.2384" stroke="#090" stroke-width="1" /><polyline fill="none" opacity="1.0" points="806.0,152.0 810.0,156.0" stroke="#F00" stroke-width="1" /><polyline fill="none" opacity="1.0" points="803.1167,154.7724 807.1167,158.7724" stroke="#F00" stroke-width="1" /><polyline fill="none" opacity="1.0" points="800.2333,157.5449 804.2333,161.5449" stroke="#F00" stroke-width="1" /><polyline fill="none" opacity="1.0" points="797.35,160.3173 801.35,164.3173" stroke="#F00" stroke-width="1" /><polyline fill="none" opacity="1.0" points="794.4667,163.0897 798.4667,167.0897" stroke="#F00" stroke-width="1" /><polyline fill="none" opacity="1.0" points="791.5833,165.8622 795.5833,169.8622" stroke="#F00" stroke-width="1" /><polyline fill="none" opacity="1.0" points="788.7,168.6346 792.7,172.6346" stroke="#F00" stroke-width="1" /><polyline fill="none" opacity="1.0" points="785.8167,171.407 789.8167,175.407" stroke="#F00" stroke-width="1" /><polyline fill="none" opacity="1.0" points="782.9333,174.1795 786.9333,178.1795" stroke="#F00" stroke-width="1" /><polyline fill="none" opacity="1.0" points="780.05,176.9519 784.05,180.9519" stroke="#F00" stroke-width="1" /><polygon fill="#94949C" opacity="1.0" points="864.0,157.0 864.0,161.0 866.0,161.0 866.0,157.0" stroke="#94949C" stroke-width="1" /><polygon fill="#F00" opacity="1.0" points="864.0,153.0 864.0,157.0 866.0,157.0 866.0,153.0" stroke="#F00" stroke-width="1" /><polygon fill="#D0EFFF" opacity="1.0" points="892.0,80.0 892.0,69.0 903.0,69.0 903.0,80.0" stroke="#000" stroke-width="1" /><text fill="#000" font-family="Arial" font-size="4" font-weight="normal" opacity="1.0" transform="rotate(-0.0 893.0,71.0) translate(0 4)" x="893.0" y="71.0">лифт</text><polygon fill="#D0EFFF" opacity="1.0" points="791.0,230.0 791.0,219.0 802.0,219.0 802.0,230.0" stroke="#000" stroke-width="1" /><text fill="#000" font-family="Arial" font-size="4" font-weight="normal" opacity="1.0" transform="rotate(-0.0 792.0,221.0) translate(0 4)" x="792.0" y="221.0">лифт</text><polyline fill="none" opacity="1.0" points="837.0,756.0 812.0,756.0" stroke="#7F7F7F" stroke-width="1" /><polyline fill="none" opacity="1.0" points="837.0,760.0 812.0,760.0" stroke="#7F7F7F" stroke-width="1" /><polyline fill="none" opacity="1.0" points="837.0,764.0 812.0,764.0" stroke="#7F7F7F" stroke-width="1" /><polyline fill="none" opacity="1.0" points="837.0,768.0 812.0,768.0" stroke="#7F7F7F" stroke-width="1" /><polyline fill="none" opacity="1.0" points="837.0,772.0 812.0,772.0" stroke="#7F7F7F" stroke-width="1" /><polyline fill="none" opacity="1.0" points="837.0,776.0 812.0,776.0" stroke="#7F7F7F" stroke-width="1" /><polyline fill="none" opacity="1.0" points="837.0,780.0 812.0,780.0" stroke="#7F7F7F" stroke-width="1" /><polyline fill="none" opacity="1.0" points="837.0,784.0 812.0,784.0" stroke="#7F7F7F" stroke-width="1" /><polyline fill="none" opacity="1.0" points="837.0,788.0 812.0,788.0" stroke="#7F7F7F" stroke-width="1" /><polyline fill="none" opacity="1.0" points="837.0,792.0 812.0,792.0" stroke="#7F7F7F" stroke-width="1" /><polyline fill="none" opacity="1.0" points="837.0,796.0 812.0,796.0" stroke="#7F7F7F" stroke-width="1" /><polyline fill="none" opacity="1.0" points="837.0,800.0 812.0,800.0" stroke="#7F7F7F" stroke-width="1" /><polyline fill="none" opacity="1.0" points="837.0,804.0 812.0,804.0" stroke="#7F7F7F" stroke-width="1" /><polygon fill="#9B5509" opacity="1.0" points="812.0,749.0 812.0,810.0 809.0,810.0 809.0,749.0" stroke="#000" stroke-width="1" /><polygon fill="#9B5509" opacity="1.0" points="816.0,749.0 819.0,749.0 819.0,810.0 816.0,810.0" stroke="#000" stroke-width="1" /><polygon fill="#9B5509" opacity="1.0" points="823.0,749.0 826.0,749.0 826.0,810.0 823.0,810.0" stroke="#000" stroke-width="1" /><polygon fill="#9B5509" opacity="1.0" points="830.0,749.0 833.0,749.0 833.0,810.0 830.0,810.0" stroke="#000" stroke-width="1" /><polygon fill="#9B5509" opacity="1.0" points="837.0,749.0 837.0,810.0 840.0,810.0 840.0,749.0" stroke="#000" stroke-width="1" /><polyline fill="none" opacity="1.0" points="864.0,735.0 840.0,735.0 840.0,749.0" stroke="#000" stroke-width="1" /><polyline fill="none" opacity="1.0" points="786.0,735.0 809.0,735.0 809.0,749.0" stroke="#000" stroke-width="1" /><text fill="#00AFAF" font-family="Arial" font-size="15" font-weight="normal" opacity="1.0" transform="rotate(-0.0 867.0,897.0) translate(0 15)" x="867.0" y="897.0">Профсоюзная улица</text><text fill="#00AFAF" font-family="Arial" font-size="15" font-weight="normal" opacity="1.0" transform="rotate(-0.0 -342.0,892.0) translate(0 15)" x="-342.0" y="892.0">Профсоюзная улица</text><text fill="#00AFAF" font-family="Arial" font-size="15" font-weight="normal" opacity="1.0" transform="rotate(90.0 172.0,1087.0) translate(0 15)" x="172.0" y="1087.0">ТК "Калужский"</text><text fill="#00AFAF" font-family="Arial" font-size="15" font-weight="normal" opacity="1.0" transform="rotate(100.0 -58.0,1102.0) translate(0 15)" x="-58.0" y="1102.0">улица Обручева</text><text fill="#00AFAF" font-family="Arial" font-size="15" font-weight="normal" opacity="1.0" transform="rotate(80.0 -87.0,607.0) translate(0 15)" x="-87.0" y="607.0">улица Обручева</text><text fill="#00AFAF" font-family="Arial" font-size="15" font-weight="normal" opacity="1.0" transform="rotate(90.0 896.0,928.0) translate(0 15)" x="896.0" y="928.0">Хлебобулочный проезд</text><text fill="#00AFAF" font-family="Arial" font-size="15" font-weight="normal" opacity="1.0" transform="rotate(90.0 954.0,80.0) translate(0 15)" x="954.0" y="80.0">улица Академика Семенихина</text><g transform="rotate(60.0,455.0,765.0)"><text fill="#FFD900" font-family="Arial" font-size="25" font-weight="normal" opacity="1.0" x="553.25" y="1184.5">1</text><text fill="#FFD900" font-family="Arial" font-size="25" font-weight="normal" opacity="1.0" x="523.25" y="1238.5">2</text><text fill="#FFF" font-family="Arial" font-size="25" font-weight="normal" opacity="1.0" x="298.25" y="1041.5">3</text><text fill="#FFF" font-family="Arial" font-size="25" font-weight="normal" opacity="1.0" x="267.25" y="1102.5">4</text><text fill="#FFF" font-family="Arial" font-size="25" font-weight="normal" opacity="1.0" x="368.25" y="1505.5">5</text><text fill="#FFF" font-family="Arial" font-size="25" font-weight="normal" opacity="1.0" x="116.25" y="1360.5">6</text><text fill="#FFF" font-family="Arial" font-size="25" font-weight="normal" opacity="1.0" x="870.25" y="637.5">7</text><text fill="#FFF" font-family="Arial" font-size="25" font-weight="normal" opacity="1.0" x="828.25" y="709.5">8</text><text fill="#FFF" font-family="Arial" font-size="25" font-weight="normal" opacity="1.0" x="557.25" y="550.5">9</text><text fill="#FFF" font-family="Arial" font-size="25" font-weight="normal" opacity="1.0" x="593.25" y="487.5">10</text><text fill="#FFF" font-family="Arial" font-size="25" font-weight="normal" opacity="1.0" x="18.25" y="24.5">11</text><text fill="#FFF" font-family="Arial" font-size="25" font-weight="normal" opacity="1.0" x="153.25" y="84.5">12</text></g></g></g></svg>