<?xml version="1.0" encoding="utf-8" ?>
<svg baseProfile="tiny" height="1190px" version="1.2" width="827px" xmlns="http://www.w3.org/2000/svg" xmlns:ev="http://www.w3.org/2001/xml-events" xmlns:xlink="http://www.w3.org/1999/xlink"><defs /><g><g transform="rotate(65.0,413.5,595.0)"><polygon fill="#046434" opacity="100" points="202.0,534.0 652.0,534.0 652.0,564.0 202.0,564.0" stroke="#000" stroke-width="1" /><polygon fill="#046434" opacity="100" points="202.0,644.0 652.0,644.0 652.0,674.0 202.0,674.0" stroke="#000" stroke-width="1" /><text fill="#046434" font-family="Arial" font-size="20" font-weight="normal" opacity="100" transform="rotate(-0.0 203.0,510.0) translate(0 20)" x="203.0" y="510.0">&lt;&lt; Каширская</text><text fill="#046434" font-family="Arial" font-size="20" font-weight="normal" opacity="100" transform="rotate(-0.0 538.0,674.0) translate(0 20)" x="538.0" y="674.0">Царицыно &gt;&gt;</text><text fill="#046434" font-family="Arial" font-size="25" font-weight="bold" opacity="100" transform="rotate(-0.0 328.0,594.0) translate(0 25)" x="328.0" y="594.0">Кантемировская</text><polygon fill="#34349C" opacity="100" points="431.0,596.0 431.0,592.0 432.0,592.0 432.0,596.0" stroke="#34349C" stroke-width="1" /><polygon fill="#F00" opacity="100" points="431.0,600.0 431.0,596.0 432.0,596.0 432.0,600.0" stroke="#F00" stroke-width="1" /><polyline fill="none" opacity="100" points="202.0,564.0 202.0,574.0 152.0,574.0 152.0,546.0 54.0,546.0 54.0,550.0 40.0,550.0 40.0,546.0 29.0,546.0 29.0,441.0 -51.0,441.0" stroke="#000" stroke-width="1" /><polyline fill="none" opacity="100" points="-52.0,738.0 -9.0,738.0 -9.0,663.0 -20.0,663.0 -20.0,546.0 -9.0,546.0 -9.0,464.0 -51.0,464.0" stroke="#000" stroke-width="1" /><polyline fill="none" opacity="100" points="202.0,644.0 202.0,634.0 152.0,634.0 152.0,663.0 54.0,663.0 54.0,659.0 40.0,659.0 40.0,663.0 29.0,663.0 29.0,738.0 71.0,738.0" stroke="#000" stroke-width="1" /><polyline fill="none" opacity="100" points="71.0,762.0 -52.0,762.0" stroke="#000" stroke-width="1" /><polyline fill="none" opacity="100" points="154.0,634.0 154.0,574.0" stroke="#000" stroke-width="1" /><polyline fill="none" opacity="100" points="158.0,634.0 158.0,574.0" stroke="#000" stroke-width="1" /><polyline fill="none" opacity="100" points="162.0,634.0 162.0,574.0" stroke="#000" stroke-width="1" /><polyline fill="none" opacity="100" points="166.0,634.0 166.0,574.0" stroke="#000" stroke-width="1" /><polyline fill="none" opacity="100" points="170.0,634.0 170.0,574.0" stroke="#000" stroke-width="1" /><polyline fill="none" opacity="100" points="174.0,634.0 174.0,574.0" stroke="#000" stroke-width="1" /><polyline fill="none" opacity="100" points="178.0,634.0 178.0,574.0" stroke="#000" stroke-width="1" /><polyline fill="none" opacity="100" points="182.0,634.0 182.0,574.0" stroke="#000" stroke-width="1" /><polyline fill="none" opacity="100" points="186.0,634.0 186.0,574.0" stroke="#000" stroke-width="1" /><polyline fill="none" opacity="100" points="190.0,634.0 190.0,574.0" stroke="#000" stroke-width="1" /><polyline fill="none" opacity="100" points="194.0,634.0 194.0,574.0" stroke="#000" stroke-width="1" /><polyline fill="none" opacity="100" points="198.0,634.0 198.0,574.0" stroke="#000" stroke-width="1" /><polyline fill="none" opacity="100" points="-50.0,762.0 -50.0,738.0" stroke="#000" stroke-width="1" /><polyline fill="none" opacity="100" points="-46.0,762.0 -46.0,738.0" stroke="#000" stroke-width="1" /><polyline fill="none" opacity="100" points="-42.0,762.0 -42.0,738.0" stroke="#000" stroke-width="1" /><polyline fill="none" opacity="100" points="-38.0,762.0 -38.0,738.0" stroke="#000" stroke-width="1" /><polyline fill="none" opacity="100" points="-34.0,762.0 -34.0,738.0" stroke="#000" stroke-width="1" /><polyline fill="none" opacity="100" points="-30.0,762.0 -30.0,738.0" stroke="#000" stroke-width="1" /><polyline fill="none" opacity="100" points="-26.0,762.0 -26.0,738.0" stroke="#000" stroke-width="1" /><polyline fill="none" opacity="100" points="-22.0,762.0 -22.0,738.0" stroke="#000" stroke-width="1" /><polyline fill="none" opacity="100" points="-18.0,762.0 -18.0,738.0" stroke="#000" stroke-width="1" /><polyline fill="none" opacity="100" points="-14.0,762.0 -14.0,738.0" stroke="#000" stroke-width="1" /><polyline fill="none" opacity="100" points="-49.0,464.0 -49.0,441.0" stroke="#000" stroke-width="1" /><polyline fill="none" opacity="100" points="-45.0,464.0 -45.0,441.0" stroke="#000" stroke-width="1" /><polyline fill="none" opacity="100" points="-41.0,464.0 -41.0,441.0" stroke="#000" stroke-width="1" /><polyline fill="none" opacity="100" points="-37.0,464.0 -37.0,441.0" stroke="#000" stroke-width="1" /><polyline fill="none" opacity="100" points="-33.0,464.0 -33.0,441.0" stroke="#000" stroke-width="1" /><polyline fill="none" opacity="100" points="-29.0,464.0 -29.0,441.0" stroke="#000" stroke-width="1" /><polyline fill="none" opacity="100" points="-25.0,464.0 -25.0,441.0" stroke="#000" stroke-width="1" /><polyline fill="none" opacity="100" points="-21.0,464.0 -21.0,441.0" stroke="#000" stroke-width="1" /><polyline fill="none" opacity="100" points="-17.0,464.0 -17.0,441.0" stroke="#000" stroke-width="1" /><polyline fill="none" opacity="100" points="-13.0,464.0 -13.0,441.0" stroke="#000" stroke-width="1" /><polyline fill="none" opacity="100" points="69.0,762.0 69.0,738.0" stroke="#000" stroke-width="1" /><polyline fill="none" opacity="100" points="65.0,762.0 65.0,738.0" stroke="#000" stroke-width="1" /><polyline fill="none" opacity="100" points="61.0,762.0 61.0,738.0" stroke="#000" stroke-width="1" /><polyline fill="none" opacity="100" points="57.0,762.0 57.0,738.0" stroke="#000" stroke-width="1" /><polyline fill="none" opacity="100" points="53.0,762.0 53.0,738.0" stroke="#000" stroke-width="1" /><polyline fill="none" opacity="100" points="49.0,762.0 49.0,738.0" stroke="#000" stroke-width="1" /><polyline fill="none" opacity="100" points="45.0,762.0 45.0,738.0" stroke="#000" stroke-width="1" /><polyline fill="none" opacity="100" points="41.0,762.0 41.0,738.0" stroke="#000" stroke-width="1" /><polyline fill="none" opacity="100" points="37.0,762.0 37.0,738.0" stroke="#000" stroke-width="1" /><polyline fill="none" opacity="100" points="33.0,762.0 33.0,738.0" stroke="#000" stroke-width="1" /><polygon fill="#D0D0D0" opacity="100" points="40.0,585.0 54.0,585.0 54.0,628.0 40.0,628.0" stroke="#000" stroke-width="1" /><polyline fill="none" opacity="100" points="143.0,546.0 143.0,574.0 152.0,574.0" stroke="#000" stroke-width="1" /><text fill="#FFF" font-family="Arial" font-size="10" font-weight="normal" opacity="100" transform="rotate(-90.0 141.0,573.0) translate(0 10)" x="141.0" y="573.0">кассы</text><polyline fill="none" opacity="100" points="143.0,574.0 122.0,574.0" stroke="#000" stroke-width="0.5" /><polygon fill="none" opacity="100" points="91.0,601.0 95.0,605.0 91.0,609.0 87.0,605.0" stroke="#000" stroke-width="1" /><polyline fill="none" opacity="100" points="91.0,651.0 91.0,662.0" stroke="#000" stroke-width="0.5" /><polyline fill="none" opacity="100" points="120.0,573.0 123.0,576.0" stroke="#090" stroke-width="1" /><polyline fill="none" opacity="100" points="117.1716,575.8284 120.1716,578.8284" stroke="#090" stroke-width="1" /><polyline fill="none" opacity="100" points="114.3431,578.6569 117.3431,581.6569" stroke="#090" stroke-width="1" /><polyline fill="none" opacity="100" points="111.5147,581.4853 114.5147,584.4853" stroke="#090" stroke-width="1" /><polyline fill="none" opacity="100" points="108.6863,584.3137 111.6863,587.3137" stroke="#090" stroke-width="1" /><polyline fill="none" opacity="100" points="105.8579,587.1421 108.8579,590.1421" stroke="#090" stroke-width="1" /><polyline fill="none" opacity="100" points="103.0294,589.9706 106.0294,592.9706" stroke="#090" stroke-width="1" /><polyline fill="none" opacity="100" points="100.201,592.799 103.201,595.799" stroke="#090" stroke-width="1" /><polyline fill="none" opacity="100" points="97.3726,595.6274 100.3726,598.6274" stroke="#090" stroke-width="1" /><polyline fill="none" opacity="100" points="94.5442,598.4558 97.5442,601.4558" stroke="#090" stroke-width="1" /><polyline fill="none" opacity="100" points="89.0,611.0 93.0,611.0" stroke="#F00" stroke-width="1" /><polyline fill="none" opacity="100" points="89.0,615.0 93.0,615.0" stroke="#F00" stroke-width="1" /><polyline fill="none" opacity="100" points="89.0,619.0 93.0,619.0" stroke="#F00" stroke-width="1" /><polyline fill="none" opacity="100" points="89.0,623.0 93.0,623.0" stroke="#F00" stroke-width="1" /><polyline fill="none" opacity="100" points="89.0,627.0 93.0,627.0" stroke="#F00" stroke-width="1" /><polyline fill="none" opacity="100" points="89.0,631.0 93.0,631.0" stroke="#F00" stroke-width="1" /><polyline fill="none" opacity="100" points="89.0,635.0 93.0,635.0" stroke="#F00" stroke-width="1" /><polyline fill="none" opacity="100" points="89.0,639.0 93.0,639.0" stroke="#F00" stroke-width="1" /><polyline fill="none" opacity="100" points="89.0,643.0 93.0,643.0" stroke="#F00" stroke-width="1" /><polyline fill="none" opacity="100" points="89.0,647.0 93.0,647.0" stroke="#F00" stroke-width="1" /><polyline fill="none" opacity="100" points="89.0,651.0 93.0,651.0" stroke="#F00" stroke-width="1" /><polyline fill="none" opacity="100" points="123.0,633.0 104.0,633.0" stroke="#F00" stroke-width="1" /><polygon fill="#F00" opacity="100" points="109.5058,631.5247 104.0,633.0 109.5058,634.4753" stroke="#F00" stroke-width="1" /><polyline fill="none" opacity="100" points="90.0,569.0 102.0,581.0" stroke="#090" stroke-width="1" /><polygon fill="#090" opacity="100" points="97.5909,578.4544 102.0,581.0 99.4544,576.5909" stroke="#090" stroke-width="1" /><polygon fill="#34349C" opacity="100" points="120.0,614.0 116.0,614.0 116.0,615.0 120.0,615.0" stroke="#34349C" stroke-width="1" /><polygon fill="#F00" opacity="100" points="124.0,614.0 120.0,614.0 120.0,615.0 124.0,615.0" stroke="#F00" stroke-width="1" /><polyline fill="none" opacity="100" points="652.0,564.0 652.0,574.0 701.0,574.0 701.0,546.0 801.0,546.0 801.0,550.0 815.0,550.0 815.0,546.0 826.0,546.0 826.0,455.0 784.0,455.0" stroke="#000" stroke-width="1" /><polyline fill="none" opacity="100" points="784.0,430.0 913.0,430.0" stroke="#000" stroke-width="1" /><polyline fill="none" opacity="100" points="913.0,456.0 871.0,456.0 871.0,765.0 912.0,765.0" stroke="#000" stroke-width="1" /><polyline fill="none" opacity="100" points="912.0,792.0 825.0,792.0 825.0,662.0 815.0,662.0 815.0,658.0 801.0,658.0 801.0,662.0 701.0,662.0 701.0,634.0 652.0,634.0 652.0,644.0" stroke="#000" stroke-width="1" /><polyline fill="none" opacity="100" points="911.0,456.0 911.0,430.0" stroke="#000" stroke-width="1" /><polyline fill="none" opacity="100" points="907.0,456.0 907.0,430.0" stroke="#000" stroke-width="1" /><polyline fill="none" opacity="100" points="903.0,456.0 903.0,430.0" stroke="#000" stroke-width="1" /><polyline fill="none" opacity="100" points="899.0,456.0 899.0,430.0" stroke="#000" stroke-width="1" /><polyline fill="none" opacity="100" points="895.0,456.0 895.0,430.0" stroke="#000" stroke-width="1" /><polyline fill="none" opacity="100" points="891.0,456.0 891.0,430.0" stroke="#000" stroke-width="1" /><polyline fill="none" opacity="100" points="887.0,456.0 887.0,430.0" stroke="#000" stroke-width="1" /><polyline fill="none" opacity="100" points="883.0,456.0 883.0,430.0" stroke="#000" stroke-width="1" /><polyline fill="none" opacity="100" points="879.0,456.0 879.0,430.0" stroke="#000" stroke-width="1" /><polyline fill="none" opacity="100" points="875.0,456.0 875.0,430.0" stroke="#000" stroke-width="1" /><polyline fill="none" opacity="100" points="786.0,455.0 786.0,430.0" stroke="#000" stroke-width="1" /><polyline fill="none" opacity="100" points="790.0,455.0 790.0,430.0" stroke="#000" stroke-width="1" /><polyline fill="none" opacity="100" points="794.0,455.0 794.0,430.0" stroke="#000" stroke-width="1" /><polyline fill="none" opacity="100" points="798.0,455.0 798.0,430.0" stroke="#000" stroke-width="1" /><polyline fill="none" opacity="100" points="802.0,455.0 802.0,430.0" stroke="#000" stroke-width="1" /><polyline fill="none" opacity="100" points="806.0,455.0 806.0,430.0" stroke="#000" stroke-width="1" /><polyline fill="none" opacity="100" points="810.0,455.0 810.0,430.0" stroke="#000" stroke-width="1" /><polyline fill="none" opacity="100" points="814.0,455.0 814.0,430.0" stroke="#000" stroke-width="1" /><polyline fill="none" opacity="100" points="818.0,455.0 818.0,430.0" stroke="#000" stroke-width="1" /><polyline fill="none" opacity="100" points="822.0,455.0 822.0,430.0" stroke="#000" stroke-width="1" /><polyline fill="none" opacity="100" points="910.0,792.0 910.0,765.0" stroke="#000" stroke-width="1" /><polyline fill="none" opacity="100" points="906.0,792.0 906.0,765.0" stroke="#000" stroke-width="1" /><polyline fill="none" opacity="100" points="902.0,792.0 902.0,765.0" stroke="#000" stroke-width="1" /><polyline fill="none" opacity="100" points="898.0,792.0 898.0,765.0" stroke="#000" stroke-width="1" /><polyline fill="none" opacity="100" points="894.0,792.0 894.0,765.0" stroke="#000" stroke-width="1" /><polyline fill="none" opacity="100" points="890.0,792.0 890.0,765.0" stroke="#000" stroke-width="1" /><polyline fill="none" opacity="100" points="886.0,792.0 886.0,765.0" stroke="#000" stroke-width="1" /><polyline fill="none" opacity="100" points="882.0,792.0 882.0,765.0" stroke="#000" stroke-width="1" /><polyline fill="none" opacity="100" points="878.0,792.0 878.0,765.0" stroke="#000" stroke-width="1" /><polyline fill="none" opacity="100" points="874.0,792.0 874.0,765.0" stroke="#000" stroke-width="1" /><polyline fill="none" opacity="100" points="700.0,634.0 700.0,574.0" stroke="#000" stroke-width="1" /><polyline fill="none" opacity="100" points="696.0,634.0 696.0,574.0" stroke="#000" stroke-width="1" /><polyline fill="none" opacity="100" points="692.0,634.0 692.0,574.0" stroke="#000" stroke-width="1" /><polyline fill="none" opacity="100" points="688.0,634.0 688.0,574.0" stroke="#000" stroke-width="1" /><polyline fill="none" opacity="100" points="684.0,634.0 684.0,574.0" stroke="#000" stroke-width="1" /><polyline fill="none" opacity="100" points="680.0,634.0 680.0,574.0" stroke="#000" stroke-width="1" /><polyline fill="none" opacity="100" points="676.0,634.0 676.0,574.0" stroke="#000" stroke-width="1" /><polyline fill="none" opacity="100" points="672.0,634.0 672.0,574.0" stroke="#000" stroke-width="1" /><polyline fill="none" opacity="100" points="668.0,634.0 668.0,574.0" stroke="#000" stroke-width="1" /><polyline fill="none" opacity="100" points="664.0,634.0 664.0,574.0" stroke="#000" stroke-width="1" /><polyline fill="none" opacity="100" points="660.0,634.0 660.0,574.0" stroke="#000" stroke-width="1" /><polyline fill="none" opacity="100" points="656.0,634.0 656.0,574.0" stroke="#000" stroke-width="1" /><polygon fill="#D0D0D0" opacity="100" points="801.0,585.0 815.0,585.0 815.0,623.0 801.0,623.0" stroke="#000" stroke-width="1" /><polyline fill="none" opacity="100" points="710.0,546.0 710.0,574.0 701.0,574.0" stroke="#000" stroke-width="1" /><text fill="#FFF" font-family="Arial" font-size="10" font-weight="normal" opacity="100" transform="rotate(-90.0 699.0,573.0) translate(0 10)" x="699.0" y="573.0">кассы</text><polyline fill="none" opacity="100" points="710.0,574.0 731.0,574.0" stroke="#000" stroke-width="0.5" /><polygon fill="none" opacity="100" points="762.0,601.0 758.0,605.0 762.0,609.0 766.0,605.0" stroke="#000" stroke-width="1" /><polyline fill="none" opacity="100" points="762.0,651.0 762.0,662.0" stroke="#000" stroke-width="0.5" /><polyline fill="none" opacity="100" points="733.0,573.0 730.0,576.0" stroke="#090" stroke-width="1" /><polyline fill="none" opacity="100" points="735.8284,575.8284 732.8284,578.8284" stroke="#090" stroke-width="1" /><polyline fill="none" opacity="100" points="738.6569,578.6569 735.6569,581.6569" stroke="#090" stroke-width="1" /><polyline fill="none" opacity="100" points="741.4853,581.4853 738.4853,584.4853" stroke="#090" stroke-width="1" /><polyline fill="none" opacity="100" points="744.3137,584.3137 741.3137,587.3137" stroke="#090" stroke-width="1" /><polyline fill="none" opacity="100" points="747.1421,587.1421 744.1421,590.1421" stroke="#090" stroke-width="1" /><polyline fill="none" opacity="100" points="749.9706,589.9706 746.9706,592.9706" stroke="#090" stroke-width="1" /><polyline fill="none" opacity="100" points="752.799,592.799 749.799,595.799" stroke="#090" stroke-width="1" /><polyline fill="none" opacity="100" points="755.6274,595.6274 752.6274,598.6274" stroke="#090" stroke-width="1" /><polyline fill="none" opacity="100" points="758.4558,598.4558 755.4558,601.4558" stroke="#090" stroke-width="1" /><polyline fill="none" opacity="100" points="764.0,611.0 760.0,611.0" stroke="#F00" stroke-width="1" /><polyline fill="none" opacity="100" points="764.0,615.0 760.0,615.0" stroke="#F00" stroke-width="1" /><polyline fill="none" opacity="100" points="764.0,619.0 760.0,619.0" stroke="#F00" stroke-width="1" /><polyline fill="none" opacity="100" points="764.0,623.0 760.0,623.0" stroke="#F00" stroke-width="1" /><polyline fill="none" opacity="100" points="764.0,627.0 760.0,627.0" stroke="#F00" stroke-width="1" /><polyline fill="none" opacity="100" points="764.0,631.0 760.0,631.0" stroke="#F00" stroke-width="1" /><polyline fill="none" opacity="100" points="764.0,635.0 760.0,635.0" stroke="#F00" stroke-width="1" /><polyline fill="none" opacity="100" points="764.0,639.0 760.0,639.0" stroke="#F00" stroke-width="1" /><polyline fill="none" opacity="100" points="764.0,643.0 760.0,643.0" stroke="#F00" stroke-width="1" /><polyline fill="none" opacity="100" points="764.0,647.0 760.0,647.0" stroke="#F00" stroke-width="1" /><polyline fill="none" opacity="100" points="764.0,651.0 760.0,651.0" stroke="#F00" stroke-width="1" /><polyline fill="none" opacity="100" points="736.0,637.0 754.0,637.0" stroke="#F00" stroke-width="1" /><polygon fill="#F00" opacity="100" points="748.784,638.3976 754.0,637.0 748.784,635.6024" stroke="#F00" stroke-width="1" /><polyline fill="none" opacity="100" points="765.0,571.0 754.0,582.0" stroke="#090" stroke-width="1" /><polygon fill="#090" opacity="100" points="756.3335,577.9583 754.0,582.0 758.0417,579.6665" stroke="#090" stroke-width="1" /><polygon fill="#34349C" opacity="100" points="732.0,622.0 728.0,622.0 728.0,623.0 732.0,623.0" stroke="#34349C" stroke-width="1" /><polygon fill="#F00" opacity="100" points="736.0,622.0 732.0,622.0 732.0,623.0 736.0,623.0" stroke="#F00" stroke-width="1" /><text fill="#00AFAF" font-family="Arial" font-size="15" font-weight="normal" opacity="100" transform="rotate(-55.0 -164.0,437.0) translate(0 15)" x="-164.0" y="437.0">Кантемировская улица</text><text fill="#00AFAF" font-family="Arial" font-size="15" font-weight="normal" opacity="100" transform="rotate(-0.0 -211.0,587.0) translate(0 15)" x="-211.0" y="587.0">Пролетарский проспект</text><text fill="#00AFAF" font-family="Arial" font-size="15" font-weight="normal" opacity="100" transform="rotate(-0.0 893.0,595.0) translate(0 15)" x="893.0" y="595.0">Пролетарский проспект</text><g transform="rotate(-65.0,413.5,595.0)"><text fill="#FFD900" font-family="Arial" font-size="25" font-weight="normal" opacity="100" x="688.25" y="836.5">1</text><text fill="#FFD900" font-family="Arial" font-size="25" font-weight="normal" opacity="100" x="769.25" y="1027.5">2</text><text fill="#FFD900" font-family="Arial" font-size="25" font-weight="normal" opacity="100" x="474.25" y="1159.5">3</text><text fill="#FFD900" font-family="Arial" font-size="25" font-weight="normal" opacity="100" x="136.25" y="387.5">4</text><text fill="#FFD900" font-family="Arial" font-size="25" font-weight="normal" opacity="100" x="54.25" y="213.5">5</text><text fill="#FFD900" font-family="Arial" font-size="25" font-weight="normal" opacity="100" x="321.25" y="93.5">6</text></g></g></g></svg>