<?xml version="1.0" encoding="utf-8" ?>
<svg baseProfile="tiny" height="1300px" version="1.2" width="1470px" xmlns="http://www.w3.org/2000/svg" xmlns:ev="http://www.w3.org/2001/xml-events" xmlns:xlink="http://www.w3.org/1999/xlink"><defs /><g><g transform="rotate(60.0,735.0,650.0)"><polygon fill="#FC9C54" opacity="100" points="518.0,550.0 518.0,520.0 968.0,520.0 968.0,550.0" stroke="#000" stroke-width="1" /><polygon fill="#FC9C54" opacity="100" points="518.0,398.0 518.0,368.0 968.0,368.0 968.0,398.0" stroke="#000" stroke-width="1" /><polygon fill="#AC1CAC" opacity="100" points="968.0,508.0 518.0,508.0 518.0,478.0 968.0,478.0" stroke="#000" stroke-width="1" /><polygon fill="#AC1CAC" opacity="100" points="968.0,660.0 518.0,660.0 518.0,630.0 968.0,630.0" stroke="#000" stroke-width="1" /><text fill="#AC24AC" font-family="Arial" font-size="20" font-weight="normal" opacity="100" transform="rotate(-0.0 856.0,661.0) translate(0 20)" x="856.0" y="661.0">Таганская &gt;&gt;</text><text fill="#AC24AC" font-family="Arial" font-size="25" font-weight="bold" opacity="100" transform="rotate(-0.0 690.0,289.0) translate(0 25)" x="690.0" y="289.0">Китай-город</text><text fill="#F7782E" font-family="Arial" font-size="20" font-weight="normal" opacity="100" transform="rotate(-0.0 524.0,342.0) translate(0 20)" x="524.0" y="342.0">&lt;&lt; Тургеневская</text><text fill="#F7782E" font-family="Arial" font-size="25" font-weight="bold" opacity="100" transform="rotate(-0.0 688.0,287.0) translate(0 25)" x="688.0" y="287.0">Китай-город</text><text fill="#000" font-family="Arial" font-size="20" font-weight="normal" opacity="100" transform="rotate(-0.0 525.0,486.0) translate(0 20)" x="525.0" y="486.0">&lt;&lt; Кузнецкий мост</text><text fill="#000" font-family="Arial" font-size="20" font-weight="normal" opacity="100" transform="rotate(-0.0 817.0,522.0) translate(0 20)" x="817.0" y="522.0">Третьяковская &gt;&gt;</text><text fill="#FFF" font-family="Arial" font-size="20" font-weight="normal" opacity="100" transform="rotate(-0.0 523.0,485.0) translate(0 20)" x="523.0" y="485.0">&lt;&lt; Кузнецкий мост</text><text fill="#FFF" font-family="Arial" font-size="20" font-weight="normal" opacity="100" transform="rotate(-0.0 815.0,521.0) translate(0 20)" x="815.0" y="521.0">Третьяковская &gt;&gt;</text><polygon fill="#34349C" opacity="100" points="806.0,592.0 806.0,588.0 807.0,588.0 807.0,592.0" stroke="#34349C" stroke-width="1" /><polygon fill="#F00" opacity="100" points="806.0,596.0 806.0,592.0 807.0,592.0 807.0,596.0" stroke="#F00" stroke-width="1" /><polygon fill="#34349C" opacity="100" points="809.0,438.0 809.0,434.0 810.0,434.0 810.0,438.0" stroke="#34349C" stroke-width="1" /><polygon fill="#F00" opacity="100" points="809.0,442.0 809.0,438.0 810.0,438.0 810.0,442.0" stroke="#F00" stroke-width="1" /><polyline fill="none" opacity="100" points="518.0,630.0 518.0,619.0 464.0,619.0 464.0,697.0 411.0,750.0 407.0,746.0" stroke="#000" stroke-width="1" /><polyline fill="none" opacity="100" points="518.0,550.0 518.0,561.0 466.0,561.0 466.0,467.0 518.0,467.0 518.0,478.0" stroke="#000" stroke-width="1" /><polyline fill="none" opacity="100" points="518.0,398.0 518.0,407.0 406.0,407.0 406.0,681.0 374.0,713.0 378.0,717.0" stroke="#000" stroke-width="1" /><polyline fill="none" opacity="100" points="380.0,773.0 381.9219,775.4609 383.6875,777.9688 385.2969,780.5244 386.75,783.125 388.0469,785.7646 389.1875,788.4531 390.1719,791.1934 391.0,794.0 391.6719,796.9004 392.1875,799.8594 392.5471,802.8545 392.75,805.875 392.7947,808.9033 392.6836,811.9375 392.4175,814.9727 392.0,818.0 391.438,821.0117 390.7227,824.0 389.8472,826.9575 388.8125,829.875 387.6216,832.7417 386.2617,835.5547 384.728,838.3076 383.0,841.0 381.0415,843.6377 378.8945,846.1953 376.5862,848.6523 374.125,851.0 371.5251,853.2305 368.7969,855.3203 365.9473,857.2549 363.0,859.0 359.9902,860.5029 356.8906,861.8047 353.6865,862.9272 350.375,863.875 346.9463,864.6626 343.4062,865.2812 339.7578,865.7266 336.0,866.0" stroke="#000" stroke-width="1" /><polyline fill="none" opacity="100" points="336.0,866.0 265.0,866.0 265.0,839.0 293.0,839.0 293.0,827.0 209.0,827.0 209.0,984.0 219.0,994.0 272.0,994.0" stroke="#000" stroke-width="1" /><polyline fill="none" opacity="100" points="272.0,1016.0 108.0,1016.0" stroke="#000" stroke-width="1" /><polyline fill="none" opacity="100" points="108.0,994.0 160.0,994.0 170.0,984.0 170.0,699.0 120.0,699.0 120.0,731.0" stroke="#000" stroke-width="1" /><polyline fill="none" opacity="100" points="99.0,731.0 99.0,678.0 170.0,678.0 170.0,563.0 113.0,563.0 101.0,551.0 101.0,517.0" stroke="#000" stroke-width="1" /><polyline fill="none" opacity="100" points="122.0,517.0 122.0,544.0 183.0,544.0 243.0,484.0 243.0,414.0 221.0,414.0" stroke="#000" stroke-width="1" /><polyline fill="none" opacity="100" points="221.0,391.0 267.0,391.0 267.0,501.0 373.0,501.0 373.0,529.0" stroke="#000" stroke-width="1" /><polyline fill="none" opacity="100" points="349.0,529.0 349.0,522.0 249.0,522.0 211.0,560.0 211.0,612.0 249.0,612.0 249.0,680.0 265.0,680.0 265.0,648.0" stroke="#000" stroke-width="1" /><polyline fill="none" opacity="100" points="282.0,648.0 282.0,740.0" stroke="#000" stroke-width="1" /><polyline fill="none" opacity="100" points="265.0,740.0 265.0,708.0 249.0,708.0 249.0,791.0 293.0,791.0 293.0,779.0 265.0,779.0 265.0,752.0 343.0,752.0" stroke="#000" stroke-width="1" /><polyline fill="none" opacity="100" points="514.0,619.0 514.0,561.0" stroke="#000" stroke-width="1" /><polyline fill="none" opacity="100" points="510.0,619.0 510.0,561.0" stroke="#000" stroke-width="1" /><polyline fill="none" opacity="100" points="506.0,619.0 506.0,561.0" stroke="#000" stroke-width="1" /><polyline fill="none" opacity="100" points="502.0,619.0 502.0,561.0" stroke="#000" stroke-width="1" /><polyline fill="none" opacity="100" points="498.0,619.0 498.0,561.0" stroke="#000" stroke-width="1" /><polyline fill="none" opacity="100" points="494.0,619.0 494.0,561.0" stroke="#000" stroke-width="1" /><polyline fill="none" opacity="100" points="490.0,619.0 490.0,561.0" stroke="#000" stroke-width="1" /><polyline fill="none" opacity="100" points="486.0,619.0 486.0,561.0" stroke="#000" stroke-width="1" /><polyline fill="none" opacity="100" points="482.0,619.0 482.0,561.0" stroke="#000" stroke-width="1" /><polyline fill="none" opacity="100" points="478.0,619.0 478.0,561.0" stroke="#000" stroke-width="1" /><polyline fill="none" opacity="100" points="474.0,619.0 474.0,561.0" stroke="#000" stroke-width="1" /><polyline fill="none" opacity="100" points="470.0,619.0 470.0,561.0" stroke="#000" stroke-width="1" /><polyline fill="none" opacity="100" points="514.0,467.0 514.0,407.0" stroke="#000" stroke-width="1" /><polyline fill="none" opacity="100" points="510.0,467.0 510.0,407.0" stroke="#000" stroke-width="1" /><polyline fill="none" opacity="100" points="506.0,467.0 506.0,407.0" stroke="#000" stroke-width="1" /><polyline fill="none" opacity="100" points="502.0,467.0 502.0,407.0" stroke="#000" stroke-width="1" /><polyline fill="none" opacity="100" points="498.0,467.0 498.0,407.0" stroke="#000" stroke-width="1" /><polyline fill="none" opacity="100" points="494.0,467.0 494.0,407.0" stroke="#000" stroke-width="1" /><polyline fill="none" opacity="100" points="490.0,467.0 490.0,407.0" stroke="#000" stroke-width="1" /><polyline fill="none" opacity="100" points="486.0,467.0 486.0,407.0" stroke="#000" stroke-width="1" /><polyline fill="none" opacity="100" points="482.0,467.0 482.0,407.0" stroke="#000" stroke-width="1" /><polyline fill="none" opacity="100" points="478.0,467.0 478.0,407.0" stroke="#000" stroke-width="1" /><polyline fill="none" opacity="100" points="474.0,467.0 474.0,407.0" stroke="#000" stroke-width="1" /><polyline fill="none" opacity="100" points="470.0,467.0 470.0,407.0" stroke="#000" stroke-width="1" /><polyline fill="none" opacity="100" points="110.0,994.0 110.0,1016.0" stroke="#000" stroke-width="1" /><polyline fill="none" opacity="100" points="114.0,994.0 114.0,1016.0" stroke="#000" stroke-width="1" /><polyline fill="none" opacity="100" points="118.0,994.0 118.0,1016.0" stroke="#000" stroke-width="1" /><polyline fill="none" opacity="100" points="122.0,994.0 122.0,1016.0" stroke="#000" stroke-width="1" /><polyline fill="none" opacity="100" points="126.0,994.0 126.0,1016.0" stroke="#000" stroke-width="1" /><polyline fill="none" opacity="100" points="130.0,994.0 130.0,1016.0" stroke="#000" stroke-width="1" /><polyline fill="none" opacity="100" points="134.0,994.0 134.0,1016.0" stroke="#000" stroke-width="1" /><polyline fill="none" opacity="100" points="138.0,994.0 138.0,1016.0" stroke="#000" stroke-width="1" /><polyline fill="none" opacity="100" points="142.0,994.0 142.0,1016.0" stroke="#000" stroke-width="1" /><polyline fill="none" opacity="100" points="146.0,994.0 146.0,1016.0" stroke="#000" stroke-width="1" /><polyline fill="none" opacity="100" points="269.0,994.0 269.0,1016.0" stroke="#000" stroke-width="1" /><polyline fill="none" opacity="100" points="265.0,994.0 265.0,1016.0" stroke="#000" stroke-width="1" /><polyline fill="none" opacity="100" points="261.0,994.0 261.0,1016.0" stroke="#000" stroke-width="1" /><polyline fill="none" opacity="100" points="257.0,994.0 257.0,1016.0" stroke="#000" stroke-width="1" /><polyline fill="none" opacity="100" points="253.0,994.0 253.0,1016.0" stroke="#000" stroke-width="1" /><polyline fill="none" opacity="100" points="249.0,994.0 249.0,1016.0" stroke="#000" stroke-width="1" /><polyline fill="none" opacity="100" points="245.0,994.0 245.0,1016.0" stroke="#000" stroke-width="1" /><polyline fill="none" opacity="100" points="241.0,994.0 241.0,1016.0" stroke="#000" stroke-width="1" /><polyline fill="none" opacity="100" points="237.0,994.0 237.0,1016.0" stroke="#000" stroke-width="1" /><polyline fill="none" opacity="100" points="233.0,994.0 233.0,1016.0" stroke="#000" stroke-width="1" /><polyline fill="none" opacity="100" points="99.0,729.0 120.0,729.0" stroke="#000" stroke-width="1" /><polyline fill="none" opacity="100" points="99.0,725.0 120.0,725.0" stroke="#000" stroke-width="1" /><polyline fill="none" opacity="100" points="99.0,721.0 120.0,721.0" stroke="#000" stroke-width="1" /><polyline fill="none" opacity="100" points="99.0,717.0 120.0,717.0" stroke="#000" stroke-width="1" /><polyline fill="none" opacity="100" points="99.0,713.0 120.0,713.0" stroke="#000" stroke-width="1" /><polyline fill="none" opacity="100" points="146.0,699.0 146.0,678.0" stroke="#000" stroke-width="1" /><polyline fill="none" opacity="100" points="150.0,699.0 150.0,678.0" stroke="#000" stroke-width="1" /><polyline fill="none" opacity="100" points="154.0,699.0 154.0,678.0" stroke="#000" stroke-width="1" /><polyline fill="none" opacity="100" points="158.0,699.0 158.0,678.0" stroke="#000" stroke-width="1" /><polyline fill="none" opacity="100" points="162.0,699.0 162.0,678.0" stroke="#000" stroke-width="1" /><polyline fill="none" opacity="100" points="122.0,519.0 101.0,519.0" stroke="#000" stroke-width="1" /><polyline fill="none" opacity="100" points="122.0,523.0 101.0,523.0" stroke="#000" stroke-width="1" /><polyline fill="none" opacity="100" points="122.0,527.0 101.0,527.0" stroke="#000" stroke-width="1" /><polyline fill="none" opacity="100" points="122.0,531.0 101.0,531.0" stroke="#000" stroke-width="1" /><polyline fill="none" opacity="100" points="122.0,535.0 101.0,535.0" stroke="#000" stroke-width="1" /><polyline fill="none" opacity="100" points="142.0,544.0 142.0,563.0" stroke="#000" stroke-width="1" /><polyline fill="none" opacity="100" points="146.0,544.0 146.0,563.0" stroke="#000" stroke-width="1" /><polyline fill="none" opacity="100" points="150.0,544.0 150.0,563.0" stroke="#000" stroke-width="1" /><polyline fill="none" opacity="100" points="154.0,544.0 154.0,563.0" stroke="#000" stroke-width="1" /><polyline fill="none" opacity="100" points="158.0,544.0 158.0,563.0" stroke="#000" stroke-width="1" /><polyline fill="none" opacity="100" points="162.0,544.0 162.0,563.0" stroke="#000" stroke-width="1" /><polyline fill="none" opacity="100" points="267.0,421.0 243.0,421.0" stroke="#000" stroke-width="1" /><polyline fill="none" opacity="100" points="267.0,425.0 243.0,425.0" stroke="#000" stroke-width="1" /><polyline fill="none" opacity="100" points="267.0,429.0 243.0,429.0" stroke="#000" stroke-width="1" /><polyline fill="none" opacity="100" points="267.0,433.0 243.0,433.0" stroke="#000" stroke-width="1" /><polyline fill="none" opacity="100" points="267.0,437.0 243.0,437.0" stroke="#000" stroke-width="1" /><polyline fill="none" opacity="100" points="267.0,441.0 243.0,441.0" stroke="#000" stroke-width="1" /><polyline fill="none" opacity="100" points="267.0,445.0 243.0,445.0" stroke="#000" stroke-width="1" /><polyline fill="none" opacity="100" points="267.0,449.0 243.0,449.0" stroke="#000" stroke-width="1" /><polyline fill="none" opacity="100" points="267.0,453.0 243.0,453.0" stroke="#000" stroke-width="1" /><polyline fill="none" opacity="100" points="267.0,457.0 243.0,457.0" stroke="#000" stroke-width="1" /><polyline fill="none" opacity="100" points="301.0,501.0 301.0,522.0" stroke="#000" stroke-width="1" /><polyline fill="none" opacity="100" points="305.0,501.0 305.0,522.0" stroke="#000" stroke-width="1" /><polyline fill="none" opacity="100" points="309.0,501.0 309.0,522.0" stroke="#000" stroke-width="1" /><polyline fill="none" opacity="100" points="313.0,501.0 313.0,522.0" stroke="#000" stroke-width="1" /><polyline fill="none" opacity="100" points="317.0,501.0 317.0,522.0" stroke="#000" stroke-width="1" /><polyline fill="none" opacity="100" points="321.0,501.0 321.0,522.0" stroke="#000" stroke-width="1" /><polyline fill="none" opacity="100" points="325.0,501.0 325.0,522.0" stroke="#000" stroke-width="1" /><polyline fill="none" opacity="100" points="329.0,501.0 329.0,522.0" stroke="#000" stroke-width="1" /><polyline fill="none" opacity="100" points="282.0,650.0 265.0,650.0" stroke="#000" stroke-width="1" /><polyline fill="none" opacity="100" points="282.0,654.0 265.0,654.0" stroke="#000" stroke-width="1" /><polyline fill="none" opacity="100" points="282.0,658.0 265.0,658.0" stroke="#000" stroke-width="1" /><polyline fill="none" opacity="100" points="282.0,662.0 265.0,662.0" stroke="#000" stroke-width="1" /><polyline fill="none" opacity="100" points="282.0,666.0 265.0,666.0" stroke="#000" stroke-width="1" /><polyline fill="none" opacity="100" points="282.0,738.0 265.0,738.0" stroke="#000" stroke-width="1" /><polyline fill="none" opacity="100" points="282.0,734.0 265.0,734.0" stroke="#000" stroke-width="1" /><polyline fill="none" opacity="100" points="282.0,730.0 265.0,730.0" stroke="#000" stroke-width="1" /><polyline fill="none" opacity="100" points="282.0,726.0 265.0,726.0" stroke="#000" stroke-width="1" /><polyline fill="none" opacity="100" points="282.0,722.0 265.0,722.0" stroke="#000" stroke-width="1" /><polyline fill="none" opacity="100" points="261.0,708.0 261.0,680.0" stroke="#000" stroke-width="1" /><polyline fill="none" opacity="100" points="257.0,708.0 257.0,680.0" stroke="#000" stroke-width="1" /><polyline fill="none" opacity="100" points="253.0,708.0 253.0,680.0" stroke="#000" stroke-width="1" /><polyline fill="none" opacity="100" points="281.0,827.0 281.0,791.0" stroke="#000" stroke-width="1" /><polyline fill="none" opacity="100" points="277.0,827.0 277.0,791.0" stroke="#000" stroke-width="1" /><polyline fill="none" opacity="100" points="273.0,827.0 273.0,791.0" stroke="#000" stroke-width="1" /><polyline fill="none" opacity="100" points="269.0,827.0 269.0,791.0" stroke="#000" stroke-width="1" /><polyline fill="none" opacity="100" points="265.0,827.0 265.0,791.0" stroke="#000" stroke-width="1" /><polyline fill="none" opacity="100" points="261.0,827.0 261.0,791.0" stroke="#000" stroke-width="1" /><polyline fill="none" opacity="100" points="257.0,827.0 257.0,791.0" stroke="#000" stroke-width="1" /><polyline fill="none" opacity="100" points="253.0,827.0 253.0,791.0" stroke="#000" stroke-width="1" /><polyline fill="none" opacity="100" points="227.0,414.0 227.0,391.0" stroke="#000" stroke-width="1" /><polyline fill="none" opacity="100" points="231.0,414.0 231.0,391.0" stroke="#000" stroke-width="1" /><polyline fill="none" opacity="100" points="235.0,414.0 235.0,391.0" stroke="#000" stroke-width="1" /><polyline fill="none" opacity="100" points="336.0,763.0 361.0,788.0" stroke="#7F7F7F" stroke-width="1" /><polyline fill="none" opacity="100" points="338.8284,760.1716 363.8284,785.1716" stroke="#7F7F7F" stroke-width="1" /><polyline fill="none" opacity="100" points="341.6569,757.3431 366.6569,782.3431" stroke="#7F7F7F" stroke-width="1" /><polyline fill="none" opacity="100" points="344.4853,754.5147 369.4853,779.5147" stroke="#7F7F7F" stroke-width="1" /><polyline fill="none" opacity="100" points="347.3137,751.6863 372.3137,776.6863" stroke="#7F7F7F" stroke-width="1" /><polyline fill="none" opacity="100" points="350.1421,748.8579 375.1421,773.8579" stroke="#7F7F7F" stroke-width="1" /><polyline fill="none" opacity="100" points="352.9706,746.0294 377.9706,771.0294" stroke="#7F7F7F" stroke-width="1" /><polyline fill="none" opacity="100" points="355.799,743.201 380.799,768.201" stroke="#7F7F7F" stroke-width="1" /><polyline fill="none" opacity="100" points="358.6274,740.3726 383.6274,765.3726" stroke="#7F7F7F" stroke-width="1" /><polyline fill="none" opacity="100" points="361.4558,737.5442 386.4558,762.5442" stroke="#7F7F7F" stroke-width="1" /><polyline fill="none" opacity="100" points="364.2843,734.7157 389.2843,759.7157" stroke="#7F7F7F" stroke-width="1" /><polyline fill="none" opacity="100" points="367.1127,731.8873 392.1127,756.8873" stroke="#7F7F7F" stroke-width="1" /><polyline fill="none" opacity="100" points="369.9411,729.0589 394.9411,754.0589" stroke="#7F7F7F" stroke-width="1" /><polyline fill="none" opacity="100" points="372.7696,726.2304 397.7696,751.2304" stroke="#7F7F7F" stroke-width="1" /><polyline fill="none" opacity="100" points="375.598,723.402 400.598,748.402" stroke="#7F7F7F" stroke-width="1" /><polygon fill="#9B5509" opacity="100" points="330.0,765.0 378.0,717.0 380.0,719.0 332.0,767.0" stroke="#000" stroke-width="1" /><polygon fill="#9B5509" opacity="100" points="336.0,771.0 384.0,723.0 387.0,726.0 339.0,774.0" stroke="#000" stroke-width="1" /><polygon fill="#9B5509" opacity="100" points="343.0,778.0 391.0,730.0 394.0,733.0 346.0,781.0" stroke="#000" stroke-width="1" /><polygon fill="#9B5509" opacity="100" points="350.0,785.0 398.0,737.0 401.0,740.0 353.0,788.0" stroke="#000" stroke-width="1" /><polygon fill="#9B5509" opacity="100" points="357.0,792.0 405.0,744.0 407.0,746.0 359.0,794.0" stroke="#000" stroke-width="1" /><polyline fill="none" opacity="100" points="276.0,839.0 276.0,866.0" stroke="#000" stroke-width="1" /><text fill="#FFF" font-family="Arial" font-size="10" font-weight="normal" opacity="100" transform="rotate(-90.0 263.0,865.0) translate(0 10)" x="263.0" y="865.0">кассы</text><polyline fill="none" opacity="100" points="344.0,780.0 322.0,802.0" stroke="#000" stroke-width="1" /><polygon fill="none" opacity="100" points="325.0,802.0 321.0,806.0 325.0,810.0 329.0,806.0" stroke="#000" stroke-width="1" /><polyline fill="none" opacity="100" points="328.0,812.0 331.0,809.0" stroke="#090" stroke-width="1" /><polyline fill="none" opacity="100" points="330.8284,814.8284 333.8284,811.8284" stroke="#090" stroke-width="1" /><polyline fill="none" opacity="100" points="333.6569,817.6569 336.6569,814.6569" stroke="#090" stroke-width="1" /><polyline fill="none" opacity="100" points="336.4853,820.4853 339.4853,817.4853" stroke="#090" stroke-width="1" /><polyline fill="none" opacity="100" points="339.3137,823.3137 342.3137,820.3137" stroke="#090" stroke-width="1" /><polyline fill="none" opacity="100" points="342.1421,826.1421 345.1421,823.1421" stroke="#090" stroke-width="1" /><polyline fill="none" opacity="100" points="344.9706,828.9706 347.9706,825.9706" stroke="#090" stroke-width="1" /><polyline fill="none" opacity="100" points="347.799,831.799 350.799,828.799" stroke="#090" stroke-width="1" /><polyline fill="none" opacity="100" points="350.6274,834.6274 353.6274,831.6274" stroke="#090" stroke-width="1" /><polyline fill="none" opacity="100" points="353.4558,837.4558 356.4558,834.4558" stroke="#090" stroke-width="1" /><polyline fill="none" opacity="100" points="356.2843,840.2843 359.2843,837.2843" stroke="#090" stroke-width="1" /><polyline fill="none" opacity="100" points="359.1127,843.1127 362.1127,840.1127" stroke="#090" stroke-width="1" /><polyline fill="none" opacity="100" points="361.9411,845.9411 364.9411,842.9411" stroke="#090" stroke-width="1" /><polyline fill="none" opacity="100" points="364.7696,848.7696 367.7696,845.7696" stroke="#090" stroke-width="1" /><polyline fill="none" opacity="100" points="367.598,851.598 370.598,848.598" stroke="#090" stroke-width="1" /><polyline fill="none" opacity="100" points="402.0,701.0 389.0,714.0" stroke="#F00" stroke-width="1" /><polygon fill="#F00" opacity="100" points="391.7577,709.2235 389.0,714.0 393.7765,711.2423" stroke="#F00" stroke-width="1" /><polyline fill="none" opacity="100" points="410.0,735.0 423.0,722.0" stroke="#090" stroke-width="1" /><polygon fill="#090" opacity="100" points="420.2423,726.7765 423.0,722.0 418.2235,724.7577" stroke="#090" stroke-width="1" /><polygon fill="#34349C" opacity="100" points="305.0,755.0 309.0,755.0 309.0,756.0 305.0,756.0" stroke="#34349C" stroke-width="1" /><polygon fill="#F00" opacity="100" points="301.0,755.0 305.0,755.0 305.0,756.0 301.0,756.0" stroke="#F00" stroke-width="1" /><polyline fill="none" opacity="100" points="968.0,630.0 968.0,619.0 918.0,619.0 918.0,609.0 986.0,609.0 986.0,602.0" stroke="#000" stroke-width="1" /><polyline fill="none" opacity="100" points="986.0,573.0 986.0,567.0 918.0,567.0 918.0,557.0 968.0,557.0 968.0,550.0" stroke="#000" stroke-width="1" /><polyline fill="none" opacity="100" points="968.0,478.0 968.0,469.0 916.0,469.0 916.0,459.0 986.0,459.0 986.0,453.0" stroke="#000" stroke-width="1" /><polyline fill="none" opacity="100" points="986.0,424.0 986.0,417.0 918.0,417.0 918.0,407.0 968.0,407.0 968.0,398.0" stroke="#000" stroke-width="1" /><polyline fill="none" opacity="100" points="1364.0,291.0 1390.0,291.0 1390.0,297.0 1342.0,297.0 1293.0,346.0 1204.0,346.0" stroke="#000" stroke-width="1" /><polyline fill="none" opacity="100" points="1204.0,369.0 1256.0,369.0 1212.0,413.0 1042.0,413.0 1042.0,424.0" stroke="#000" stroke-width="1" /><polyline fill="none" opacity="100" points="1042.0,453.0 1042.0,573.0" stroke="#000" stroke-width="1" /><polyline fill="none" opacity="100" points="1042.0,602.0 1042.0,612.0 1191.0,612.0 1298.0,702.0 1243.0,768.0" stroke="#000" stroke-width="1" /><polyline fill="none" opacity="100" points="1256.0,779.0 1282.0,748.0 1313.0,774.0" stroke="#000" stroke-width="1" /><polyline fill="none" opacity="100" points="1324.0,761.0 1293.0,735.0 1353.0,663.0 1384.0,689.0" stroke="#000" stroke-width="1" /><polyline fill="none" opacity="100" points="1395.0,676.0 1320.0,613.0" stroke="#000" stroke-width="1" /><polyline fill="none" opacity="100" points="1309.0,626.0 1340.0,652.0 1319.0,677.0 1203.0,579.0 1190.0,579.0 1190.0,526.0 1232.0,526.0 1246.0,512.0 1246.0,459.0" stroke="#000" stroke-width="1" /><polyline fill="none" opacity="100" points="1224.0,459.0 1224.0,505.0 1190.0,505.0 1190.0,453.0 1230.0,453.0 1361.0,322.0 1411.0,322.0 1411.0,267.0 1364.0,267.0" stroke="#000" stroke-width="1" /><polyline fill="none" opacity="100" points="1368.0,267.0 1368.0,291.0" stroke="#000" stroke-width="1" /><polyline fill="none" opacity="100" points="1372.0,267.0 1372.0,291.0" stroke="#000" stroke-width="1" /><polyline fill="none" opacity="100" points="1376.0,267.0 1376.0,291.0" stroke="#000" stroke-width="1" /><polyline fill="none" opacity="100" points="1380.0,267.0 1380.0,291.0" stroke="#000" stroke-width="1" /><polyline fill="none" opacity="100" points="1384.0,267.0 1384.0,291.0" stroke="#000" stroke-width="1" /><polyline fill="none" opacity="100" points="1368.0,322.0 1368.0,297.0" stroke="#000" stroke-width="1" /><polyline fill="none" opacity="100" points="1372.0,322.0 1372.0,297.0" stroke="#000" stroke-width="1" /><polyline fill="none" opacity="100" points="1376.0,322.0 1376.0,297.0" stroke="#000" stroke-width="1" /><polyline fill="none" opacity="100" points="1380.0,322.0 1380.0,297.0" stroke="#000" stroke-width="1" /><polyline fill="none" opacity="100" points="1384.0,322.0 1384.0,297.0" stroke="#000" stroke-width="1" /><polyline fill="none" opacity="100" points="1242.0,369.0 1242.0,346.0" stroke="#000" stroke-width="1" /><polyline fill="none" opacity="100" points="1238.0,369.0 1238.0,346.0" stroke="#000" stroke-width="1" /><polyline fill="none" opacity="100" points="1234.0,369.0 1234.0,346.0" stroke="#000" stroke-width="1" /><polyline fill="none" opacity="100" points="1230.0,369.0 1230.0,346.0" stroke="#000" stroke-width="1" /><polyline fill="none" opacity="100" points="1226.0,369.0 1226.0,346.0" stroke="#000" stroke-width="1" /><polyline fill="none" opacity="100" points="1222.0,369.0 1222.0,346.0" stroke="#000" stroke-width="1" /><polyline fill="none" opacity="100" points="1218.0,369.0 1218.0,346.0" stroke="#000" stroke-width="1" /><polyline fill="none" opacity="100" points="1214.0,369.0 1214.0,346.0" stroke="#000" stroke-width="1" /><polyline fill="none" opacity="100" points="1210.0,369.0 1210.0,346.0" stroke="#000" stroke-width="1" /><polyline fill="none" opacity="100" points="1206.0,369.0 1206.0,346.0" stroke="#000" stroke-width="1" /><polyline fill="none" opacity="100" points="1224.0,461.0 1246.0,461.0" stroke="#000" stroke-width="1" /><polyline fill="none" opacity="100" points="1224.0,465.0 1246.0,465.0" stroke="#000" stroke-width="1" /><polyline fill="none" opacity="100" points="1224.0,469.0 1246.0,469.0" stroke="#000" stroke-width="1" /><polyline fill="none" opacity="100" points="1224.0,473.0 1246.0,473.0" stroke="#000" stroke-width="1" /><polyline fill="none" opacity="100" points="1224.0,477.0 1246.0,477.0" stroke="#000" stroke-width="1" /><polyline fill="none" opacity="100" points="1224.0,481.0 1246.0,481.0" stroke="#000" stroke-width="1" /><polyline fill="none" opacity="100" points="1224.0,485.0 1246.0,485.0" stroke="#000" stroke-width="1" /><polyline fill="none" opacity="100" points="1224.0,489.0 1246.0,489.0" stroke="#000" stroke-width="1" /><polyline fill="none" opacity="100" points="1224.0,493.0 1246.0,493.0" stroke="#000" stroke-width="1" /><polyline fill="none" opacity="100" points="1224.0,497.0 1246.0,497.0" stroke="#000" stroke-width="1" /><polyline fill="none" opacity="100" points="1216.0,505.0 1216.0,526.0" stroke="#000" stroke-width="1" /><polyline fill="none" opacity="100" points="1212.0,505.0 1212.0,526.0" stroke="#000" stroke-width="1" /><polyline fill="none" opacity="100" points="1208.0,505.0 1208.0,526.0" stroke="#000" stroke-width="1" /><polyline fill="none" opacity="100" points="1321.0,614.0 1310.0,627.0" stroke="#000" stroke-width="1" /><polyline fill="none" opacity="100" points="1324.0816,616.5503 1313.0816,629.5503" stroke="#000" stroke-width="1" /><polyline fill="none" opacity="100" points="1327.1632,619.1005 1316.1632,632.1005" stroke="#000" stroke-width="1" /><polyline fill="none" opacity="100" points="1330.2447,621.6508 1319.2447,634.6508" stroke="#000" stroke-width="1" /><polyline fill="none" opacity="100" points="1333.3263,624.2011 1322.3263,637.2011" stroke="#000" stroke-width="1" /><polyline fill="none" opacity="100" points="1336.4079,626.7514 1325.4079,639.7514" stroke="#000" stroke-width="1" /><polyline fill="none" opacity="100" points="1339.4895,629.3016 1328.4895,642.3016" stroke="#000" stroke-width="1" /><polyline fill="none" opacity="100" points="1342.571,631.8519 1331.571,644.8519" stroke="#000" stroke-width="1" /><polyline fill="none" opacity="100" points="1345.6526,634.4022 1334.6526,647.4022" stroke="#000" stroke-width="1" /><polyline fill="none" opacity="100" points="1348.7342,636.9524 1337.7342,649.9524" stroke="#000" stroke-width="1" /><polyline fill="none" opacity="100" points="1394.0,675.0 1383.0,688.0" stroke="#000" stroke-width="1" /><polyline fill="none" opacity="100" points="1390.9184,672.4497 1379.9184,685.4497" stroke="#000" stroke-width="1" /><polyline fill="none" opacity="100" points="1387.8368,669.8995 1376.8368,682.8995" stroke="#000" stroke-width="1" /><polyline fill="none" opacity="100" points="1384.7553,667.3492 1373.7553,680.3492" stroke="#000" stroke-width="1" /><polyline fill="none" opacity="100" points="1381.6737,664.7989 1370.6737,677.7989" stroke="#000" stroke-width="1" /><polyline fill="none" opacity="100" points="1378.5921,662.2486 1367.5921,675.2486" stroke="#000" stroke-width="1" /><polyline fill="none" opacity="100" points="1375.5105,659.6984 1364.5105,672.6984" stroke="#000" stroke-width="1" /><polyline fill="none" opacity="100" points="1372.429,657.1481 1361.429,670.1481" stroke="#000" stroke-width="1" /><polyline fill="none" opacity="100" points="1369.3474,654.5978 1358.3474,667.5978" stroke="#000" stroke-width="1" /><polyline fill="none" opacity="100" points="1366.2658,652.0476 1355.2658,665.0476" stroke="#000" stroke-width="1" /><polyline fill="none" opacity="100" points="1323.0,760.0 1312.0,773.0" stroke="#000" stroke-width="1" /><polyline fill="none" opacity="100" points="1319.9184,757.4497 1308.9184,770.4497" stroke="#000" stroke-width="1" /><polyline fill="none" opacity="100" points="1316.8368,754.8995 1305.8368,767.8995" stroke="#000" stroke-width="1" /><polyline fill="none" opacity="100" points="1313.7553,752.3492 1302.7553,765.3492" stroke="#000" stroke-width="1" /><polyline fill="none" opacity="100" points="1310.6737,749.7989 1299.6737,762.7989" stroke="#000" stroke-width="1" /><polyline fill="none" opacity="100" points="1307.5921,747.2486 1296.5921,760.2486" stroke="#000" stroke-width="1" /><polyline fill="none" opacity="100" points="1304.5105,744.6984 1293.5105,757.6984" stroke="#000" stroke-width="1" /><polyline fill="none" opacity="100" points="1301.429,742.1481 1290.429,755.1481" stroke="#000" stroke-width="1" /><polyline fill="none" opacity="100" points="1298.3474,739.5978 1287.3474,752.5978" stroke="#000" stroke-width="1" /><polyline fill="none" opacity="100" points="1295.2658,737.0476 1284.2658,750.0476" stroke="#000" stroke-width="1" /><polyline fill="none" opacity="100" points="1280.0,750.0 1267.0,739.0" stroke="#000" stroke-width="1" /><polyline fill="none" opacity="100" points="1277.4497,753.0816 1264.4497,742.0816" stroke="#000" stroke-width="1" /><polyline fill="none" opacity="100" points="1274.8995,756.1632 1261.8995,745.1632" stroke="#000" stroke-width="1" /><polyline fill="none" opacity="100" points="1272.3492,759.2447 1259.3492,748.2447" stroke="#000" stroke-width="1" /><polyline fill="none" opacity="100" points="1269.7989,762.3263 1256.7989,751.3263" stroke="#000" stroke-width="1" /><polyline fill="none" opacity="100" points="1267.2486,765.4079 1254.2486,754.4079" stroke="#000" stroke-width="1" /><polyline fill="none" opacity="100" points="1264.6984,768.4895 1251.6984,757.4895" stroke="#000" stroke-width="1" /><polyline fill="none" opacity="100" points="1262.1481,771.571 1249.1481,760.571" stroke="#000" stroke-width="1" /><polyline fill="none" opacity="100" points="1259.5978,774.6526 1246.5978,763.6526" stroke="#000" stroke-width="1" /><polyline fill="none" opacity="100" points="1257.0476,777.7342 1244.0476,766.7342" stroke="#000" stroke-width="1" /><polygon fill="#D0D0D0" opacity="100" points="1133.0,459.0 1145.0,459.0 1145.0,496.0 1133.0,496.0" stroke="#000" stroke-width="1" /><polygon fill="#D0D0D0" opacity="100" points="1133.0,536.0 1145.0,536.0 1145.0,573.0 1133.0,573.0" stroke="#000" stroke-width="1" /><polyline fill="none" opacity="100" points="1044.0,450.0 1044.0,427.0" stroke="#7F7F7F" stroke-width="1" /><polyline fill="none" opacity="100" points="1040.0,450.0 1040.0,427.0" stroke="#7F7F7F" stroke-width="1" /><polyline fill="none" opacity="100" points="1036.0,450.0 1036.0,427.0" stroke="#7F7F7F" stroke-width="1" /><polyline fill="none" opacity="100" points="1032.0,450.0 1032.0,427.0" stroke="#7F7F7F" stroke-width="1" /><polyline fill="none" opacity="100" points="1028.0,450.0 1028.0,427.0" stroke="#7F7F7F" stroke-width="1" /><polyline fill="none" opacity="100" points="1024.0,450.0 1024.0,427.0" stroke="#7F7F7F" stroke-width="1" /><polyline fill="none" opacity="100" points="1020.0,450.0 1020.0,427.0" stroke="#7F7F7F" stroke-width="1" /><polyline fill="none" opacity="100" points="1016.0,450.0 1016.0,427.0" stroke="#7F7F7F" stroke-width="1" /><polyline fill="none" opacity="100" points="1012.0,450.0 1012.0,427.0" stroke="#7F7F7F" stroke-width="1" /><polyline fill="none" opacity="100" points="1008.0,450.0 1008.0,427.0" stroke="#7F7F7F" stroke-width="1" /><polyline fill="none" opacity="100" points="1004.0,450.0 1004.0,427.0" stroke="#7F7F7F" stroke-width="1" /><polyline fill="none" opacity="100" points="1000.0,450.0 1000.0,427.0" stroke="#7F7F7F" stroke-width="1" /><polyline fill="none" opacity="100" points="996.0,450.0 996.0,427.0" stroke="#7F7F7F" stroke-width="1" /><polyline fill="none" opacity="100" points="992.0,450.0 992.0,427.0" stroke="#7F7F7F" stroke-width="1" /><polyline fill="none" opacity="100" points="988.0,450.0 988.0,427.0" stroke="#7F7F7F" stroke-width="1" /><polygon fill="#9B5509" opacity="100" points="1051.0,427.0 980.0,427.0 980.0,424.0 1051.0,424.0" stroke="#000" stroke-width="1" /><polygon fill="#9B5509" opacity="100" points="1051.0,432.0 1051.0,436.0 980.0,436.0 980.0,432.0" stroke="#000" stroke-width="1" /><polygon fill="#9B5509" opacity="100" points="1051.0,441.0 1051.0,445.0 980.0,445.0 980.0,441.0" stroke="#000" stroke-width="1" /><polygon fill="#9B5509" opacity="100" points="1051.0,450.0 980.0,450.0 980.0,453.0 1051.0,453.0" stroke="#000" stroke-width="1" /><polyline fill="none" opacity="100" points="1044.0,599.0 1044.0,576.0" stroke="#7F7F7F" stroke-width="1" /><polyline fill="none" opacity="100" points="1040.0,599.0 1040.0,576.0" stroke="#7F7F7F" stroke-width="1" /><polyline fill="none" opacity="100" points="1036.0,599.0 1036.0,576.0" stroke="#7F7F7F" stroke-width="1" /><polyline fill="none" opacity="100" points="1032.0,599.0 1032.0,576.0" stroke="#7F7F7F" stroke-width="1" /><polyline fill="none" opacity="100" points="1028.0,599.0 1028.0,576.0" stroke="#7F7F7F" stroke-width="1" /><polyline fill="none" opacity="100" points="1024.0,599.0 1024.0,576.0" stroke="#7F7F7F" stroke-width="1" /><polyline fill="none" opacity="100" points="1020.0,599.0 1020.0,576.0" stroke="#7F7F7F" stroke-width="1" /><polyline fill="none" opacity="100" points="1016.0,599.0 1016.0,576.0" stroke="#7F7F7F" stroke-width="1" /><polyline fill="none" opacity="100" points="1012.0,599.0 1012.0,576.0" stroke="#7F7F7F" stroke-width="1" /><polyline fill="none" opacity="100" points="1008.0,599.0 1008.0,576.0" stroke="#7F7F7F" stroke-width="1" /><polyline fill="none" opacity="100" points="1004.0,599.0 1004.0,576.0" stroke="#7F7F7F" stroke-width="1" /><polyline fill="none" opacity="100" points="1000.0,599.0 1000.0,576.0" stroke="#7F7F7F" stroke-width="1" /><polyline fill="none" opacity="100" points="996.0,599.0 996.0,576.0" stroke="#7F7F7F" stroke-width="1" /><polyline fill="none" opacity="100" points="992.0,599.0 992.0,576.0" stroke="#7F7F7F" stroke-width="1" /><polyline fill="none" opacity="100" points="988.0,599.0 988.0,576.0" stroke="#7F7F7F" stroke-width="1" /><polygon fill="#9B5509" opacity="100" points="1051.0,576.0 980.0,576.0 980.0,573.0 1051.0,573.0" stroke="#000" stroke-width="1" /><polygon fill="#9B5509" opacity="100" points="1051.0,581.0 1051.0,585.0 980.0,585.0 980.0,581.0" stroke="#000" stroke-width="1" /><polygon fill="#9B5509" opacity="100" points="1051.0,590.0 1051.0,594.0 980.0,594.0 980.0,590.0" stroke="#000" stroke-width="1" /><polygon fill="#9B5509" opacity="100" points="1051.0,599.0 980.0,599.0 980.0,602.0 1051.0,602.0" stroke="#000" stroke-width="1" /><polyline fill="none" opacity="100" points="1042.0,473.0 1028.0,473.0 1028.0,551.0 1042.0,551.0" stroke="#000" stroke-width="1" /><text fill="#FFF" font-family="Arial" font-size="10" font-weight="normal" opacity="100" transform="rotate(-90.0 1028.0,521.0) translate(0 10)" x="1028.0" y="521.0">кассы</text><polyline fill="none" opacity="100" points="1051.0,434.0 1101.0,434.0" stroke="#000" stroke-width="0.5" /><polyline fill="none" opacity="100" points="1042.0,463.0 1073.0,463.0" stroke="#000" stroke-width="0.5" /><polyline fill="none" opacity="100" points="1042.0,563.0 1073.0,563.0" stroke="#000" stroke-width="0.5" /><polyline fill="none" opacity="100" points="1051.0,592.0 1101.0,592.0" stroke="#000" stroke-width="0.5" /><polygon fill="none" opacity="100" points="1072.0,460.0 1076.0,464.0 1080.0,460.0 1076.0,456.0" stroke="#000" stroke-width="1" /><polygon fill="none" opacity="100" points="1072.0,566.0 1076.0,562.0 1080.0,566.0 1076.0,570.0" stroke="#000" stroke-width="1" /><polyline fill="none" opacity="100" points="1082.0,457.0 1079.0,454.0" stroke="#090" stroke-width="1" /><polyline fill="none" opacity="100" points="1084.8284,454.1716 1081.8284,451.1716" stroke="#090" stroke-width="1" /><polyline fill="none" opacity="100" points="1087.6569,451.3431 1084.6569,448.3431" stroke="#090" stroke-width="1" /><polyline fill="none" opacity="100" points="1090.4853,448.5147 1087.4853,445.5147" stroke="#090" stroke-width="1" /><polyline fill="none" opacity="100" points="1093.3137,445.6863 1090.3137,442.6863" stroke="#090" stroke-width="1" /><polyline fill="none" opacity="100" points="1096.1421,442.8579 1093.1421,439.8579" stroke="#090" stroke-width="1" /><polyline fill="none" opacity="100" points="1098.9706,440.0294 1095.9706,437.0294" stroke="#090" stroke-width="1" /><polyline fill="none" opacity="100" points="1101.799,437.201 1098.799,434.201" stroke="#090" stroke-width="1" /><polyline fill="none" opacity="100" points="1082.0,569.0 1079.0,572.0" stroke="#090" stroke-width="1" /><polyline fill="none" opacity="100" points="1084.8284,571.8284 1081.8284,574.8284" stroke="#090" stroke-width="1" /><polyline fill="none" opacity="100" points="1087.6569,574.6569 1084.6569,577.6569" stroke="#090" stroke-width="1" /><polyline fill="none" opacity="100" points="1090.4853,577.4853 1087.4853,580.4853" stroke="#090" stroke-width="1" /><polyline fill="none" opacity="100" points="1093.3137,580.3137 1090.3137,583.3137" stroke="#090" stroke-width="1" /><polyline fill="none" opacity="100" points="1096.1421,583.1421 1093.1421,586.1421" stroke="#090" stroke-width="1" /><polyline fill="none" opacity="100" points="1098.9706,585.9706 1095.9706,588.9706" stroke="#090" stroke-width="1" /><polyline fill="none" opacity="100" points="1101.799,588.799 1098.799,591.799" stroke="#090" stroke-width="1" /><polyline fill="none" opacity="100" points="1133.0,435.0 1170.0,435.0" stroke="#F00" stroke-width="1" /><polygon fill="#F00" opacity="100" points="1159.2782,437.8729 1170.0,435.0 1159.2782,432.1271" stroke="#F00" stroke-width="1" /><polyline fill="none" opacity="100" points="1133.0,593.0 1170.0,593.0" stroke="#F00" stroke-width="1" /><polygon fill="#F00" opacity="100" points="1159.2782,595.8729 1170.0,593.0 1159.2782,590.1271" stroke="#F00" stroke-width="1" /><polyline fill="none" opacity="100" points="1156.0,516.0 1119.0,516.0" stroke="#090" stroke-width="1" /><polygon fill="#090" opacity="100" points="1129.7218,513.1271 1119.0,516.0 1129.7218,518.8729" stroke="#090" stroke-width="1" /><text fill="#00AFAF" font-family="Arial" font-size="15" font-weight="normal" opacity="100" transform="rotate(-0.0 36.0,610.0) translate(0 15)" x="36.0" y="610.0">Лубянский проезд</text><text fill="#00AFAF" font-family="Arial" font-size="15" font-weight="normal" opacity="100" transform="rotate(-0.0 556.0,840.0) translate(0 15)" x="556.0" y="840.0">Старая площадь</text><text fill="#00AFAF" font-family="Arial" font-size="15" font-weight="normal" opacity="100" transform="rotate(-0.0 -46.0,842.0) translate(0 15)" x="-46.0" y="842.0">Новая площадь</text><text fill="#00AFAF" font-family="Arial" font-size="15" font-weight="normal" opacity="100" transform="rotate(-90.0 167.0,462.0) translate(0 15)" x="167.0" y="462.0">улица Маросейка</text><text fill="#00AFAF" font-family="Arial" font-size="15" font-weight="normal" opacity="100" transform="rotate(-90.0 1266.0,555.0) translate(0 15)" x="1266.0" y="555.0">Славянская площадь</text><text fill="#00AFAF" font-family="Arial" font-size="15" font-weight="normal" opacity="100" transform="rotate(-0.0 1334.0,220.0) translate(0 15)" x="1334.0" y="220.0">Солянский тупик</text><text fill="#00AFAF" font-family="Arial" font-size="15" font-weight="normal" opacity="100" transform="rotate(-80.0 1190.0,833.0) translate(0 15)" x="1190.0" y="833.0">улица Варварка</text><text fill="#00AFAF" font-family="Arial" font-size="15" font-weight="normal" opacity="100" transform="rotate(-140.0 1397.0,785.0) translate(0 15)" x="1397.0" y="785.0">Китайгородский</text><text fill="#00AFAF" font-family="Arial" font-size="15" font-weight="normal" opacity="100" transform="rotate(-140.0 1404.0,773.0) translate(0 15)" x="1404.0" y="773.0">проезд</text><text fill="#00AFAF" font-family="Arial" font-size="15" font-weight="normal" opacity="100" transform="rotate(-90.0 172.0,1152.0) translate(0 15)" x="172.0" y="1152.0">улица Ильинка</text><polygon fill="#FFF" opacity="0.8" points="726.0,477.0 762.0,477.0 762.0,551.0 726.0,551.0" stroke="#FFF" stroke-width="1" /><polyline fill="none" opacity="0.8" points="762.0,571.0 762.0,456.0" stroke="#000" stroke-width="1" /><polyline fill="none" opacity="0.8" points="726.0,571.0 726.0,456.0" stroke="#000" stroke-width="1" /><polyline fill="none" opacity="0.8" points="762.0,459.0 726.0,459.0" stroke="#000" stroke-width="1" /><polyline fill="none" opacity="0.8" points="762.0,463.0 726.0,463.0" stroke="#000" stroke-width="1" /><polyline fill="none" opacity="0.8" points="762.0,467.0 726.0,467.0" stroke="#000" stroke-width="1" /><polyline fill="none" opacity="0.8" points="762.0,471.0 726.0,471.0" stroke="#000" stroke-width="1" /><polyline fill="none" opacity="0.8" points="762.0,475.0 726.0,475.0" stroke="#000" stroke-width="1" /><polyline fill="none" opacity="0.8" points="762.0,479.0 726.0,479.0" stroke="#000" stroke-width="1" /><polyline fill="none" opacity="0.8" points="762.0,483.0 726.0,483.0" stroke="#000" stroke-width="1" /><polyline fill="none" opacity="0.8" points="762.0,545.0 726.0,545.0" stroke="#000" stroke-width="1" /><polyline fill="none" opacity="0.8" points="762.0,549.0 726.0,549.0" stroke="#000" stroke-width="1" /><polyline fill="none" opacity="0.8" points="762.0,553.0 726.0,553.0" stroke="#000" stroke-width="1" /><polyline fill="none" opacity="0.8" points="762.0,557.0 726.0,557.0" stroke="#000" stroke-width="1" /><polyline fill="none" opacity="0.8" points="762.0,561.0 726.0,561.0" stroke="#000" stroke-width="1" /><polyline fill="none" opacity="0.8" points="762.0,565.0 726.0,565.0" stroke="#000" stroke-width="1" /><polyline fill="none" opacity="0.8" points="762.0,569.0 726.0,569.0" stroke="#000" stroke-width="1" /><g transform="rotate(-60.0,735.0,650.0)"><text fill="#FFD900" font-family="Arial" font-size="25" font-weight="normal" opacity="1.0" x="139.25" y="430.5">1</text><text fill="#FFD900" font-family="Arial" font-size="25" font-weight="normal" opacity="1.0" x="83.25" y="327.5">2</text><text fill="#FFD900" font-family="Arial" font-size="25" font-weight="normal" opacity="1.0" x="338.25" y="115.5">3</text><text fill="#FFD900" font-family="Arial" font-size="25" font-weight="normal" opacity="1.0" x="493.25" y="27.5">5</text><text fill="#FFD900" font-family="Arial" font-size="25" font-weight="normal" opacity="1.0" x="721.25" y="86.5">6</text><text fill="#FFD900" font-family="Arial" font-size="25" font-weight="normal" opacity="1.0" x="689.25" y="247.5">7</text><text fill="#FFD900" font-family="Arial" font-size="25" font-weight="normal" opacity="1.0" x="1394.25" y="1084.5">8</text><text fill="#FFD900" font-family="Arial" font-size="25" font-weight="normal" opacity="1.0" x="1255.25" y="914.5">9</text><text fill="#FFD900" font-family="Arial" font-size="25" font-weight="normal" opacity="1.0" x="1146.25" y="1047.5">10</text><text fill="#FFD900" font-family="Arial" font-size="25" font-weight="normal" opacity="1.0" x="1068.25" y="1162.5">11</text><text fill="#FFD900" font-family="Arial" font-size="25" font-weight="normal" opacity="1.0" x="1055.25" y="1222.5">12</text><text fill="#FFD900" font-family="Arial" font-size="25" font-weight="normal" opacity="1.0" x="912.25" y="1252.5">13</text><text fill="#FFD900" font-family="Arial" font-size="25" font-weight="normal" opacity="1.0" x="839.25" y="1175.5">14</text><text fill="#FFD900" font-family="Arial" font-size="25" font-weight="normal" opacity="1.0" x="448.25" y="325.5">4.1</text><text fill="#FFD900" font-family="Arial" font-size="25" font-weight="normal" opacity="1.0" x="509.25" y="288.5">4.2</text></g></g></g></svg>