<?xml version="1.0" encoding="utf-8" ?>
<svg baseProfile="tiny" height="430px" version="1.2" width="730px" xmlns="http://www.w3.org/2000/svg" xmlns:ev="http://www.w3.org/2001/xml-events" xmlns:xlink="http://www.w3.org/1999/xlink"><defs /><g><g transform="rotate(-25.0,365.0,215.0)"><polygon fill="#30D5C8" opacity="100" points="7.0,215.0 7.0,185.0 457.0,185.0 457.0,215.0" stroke="#000" stroke-width="1" /><polygon fill="#30D5C8" opacity="100" points="7.0,248.0 7.0,218.0 457.0,218.0 457.0,248.0" stroke="#000" stroke-width="1" /><polyline fill="none" opacity="100" points="7.0,215.0 7.0,218.0" stroke="#000" stroke-width="1" /><polyline fill="none" opacity="100" points="457.0,215.0 457.0,218.0" stroke="#000" stroke-width="1" /><polyline fill="none" opacity="100" points="452.0,135.0 452.0,167.0 457.0,167.0 457.0,185.0" stroke="#000" stroke-width="1" /><polyline fill="none" opacity="100" points="7.0,248.0 7.0,284.0 281.0,284.0 281.0,330.0 406.0,330.0 406.0,321.0" stroke="#000" stroke-width="1" /><polyline fill="none" opacity="100" points="294.0,284.0 294.0,312.0" stroke="#000" stroke-width="1" /><polyline fill="none" opacity="100" points="437.0,167.0 437.0,149.0 365.0,149.0 365.0,167.0 338.0,167.0" stroke="#000" stroke-width="1" /><polyline fill="none" opacity="100" points="502.0,266.0 457.0,266.0 457.0,248.0" stroke="#000" stroke-width="1" /><polyline fill="none" opacity="100" points="502.0,277.0 457.0,277.0 457.0,284.0 360.0,284.0" stroke="#000" stroke-width="1" /><polyline fill="none" opacity="100" points="300.0,284.0 300.0,266.0" stroke="#000" stroke-width="1" /><polyline fill="none" opacity="100" points="304.0,284.0 304.0,266.0" stroke="#000" stroke-width="1" /><polyline fill="none" opacity="100" points="308.0,284.0 308.0,266.0" stroke="#000" stroke-width="1" /><polyline fill="none" opacity="100" points="312.0,284.0 312.0,266.0" stroke="#000" stroke-width="1" /><polyline fill="none" opacity="100" points="316.0,284.0 316.0,266.0" stroke="#000" stroke-width="1" /><polyline fill="none" opacity="100" points="320.0,284.0 320.0,266.0" stroke="#000" stroke-width="1" /><polyline fill="none" opacity="100" points="324.0,284.0 324.0,266.0" stroke="#000" stroke-width="1" /><polyline fill="none" opacity="100" points="328.0,284.0 328.0,266.0" stroke="#000" stroke-width="1" /><polyline fill="none" opacity="100" points="332.0,284.0 332.0,266.0" stroke="#000" stroke-width="1" /><polyline fill="none" opacity="100" points="336.0,284.0 336.0,266.0" stroke="#000" stroke-width="1" /><polyline fill="none" opacity="100" points="417.0,284.0 417.0,266.0" stroke="#000" stroke-width="1" /><polyline fill="none" opacity="100" points="413.0,284.0 413.0,266.0" stroke="#000" stroke-width="1" /><polyline fill="none" opacity="100" points="409.0,284.0 409.0,266.0" stroke="#000" stroke-width="1" /><polyline fill="none" opacity="100" points="405.0,284.0 405.0,266.0" stroke="#000" stroke-width="1" /><polyline fill="none" opacity="100" points="401.0,284.0 401.0,266.0" stroke="#000" stroke-width="1" /><polyline fill="none" opacity="100" points="397.0,284.0 397.0,266.0" stroke="#000" stroke-width="1" /><polyline fill="none" opacity="100" points="393.0,284.0 393.0,266.0" stroke="#000" stroke-width="1" /><polyline fill="none" opacity="100" points="389.0,284.0 389.0,266.0" stroke="#000" stroke-width="1" /><polyline fill="none" opacity="100" points="385.0,284.0 385.0,266.0" stroke="#000" stroke-width="1" /><polyline fill="none" opacity="100" points="381.0,284.0 381.0,266.0" stroke="#000" stroke-width="1" /><polyline fill="none" opacity="100" points="416.0,149.0 416.0,167.0" stroke="#000" stroke-width="1" /><polyline fill="none" opacity="100" points="412.0,149.0 412.0,167.0" stroke="#000" stroke-width="1" /><polyline fill="none" opacity="100" points="408.0,149.0 408.0,167.0" stroke="#000" stroke-width="1" /><polyline fill="none" opacity="100" points="404.0,149.0 404.0,167.0" stroke="#000" stroke-width="1" /><polyline fill="none" opacity="100" points="400.0,149.0 400.0,167.0" stroke="#000" stroke-width="1" /><polyline fill="none" opacity="100" points="396.0,149.0 396.0,167.0" stroke="#000" stroke-width="1" /><polyline fill="none" opacity="100" points="392.0,149.0 392.0,167.0" stroke="#000" stroke-width="1" /><polyline fill="none" opacity="100" points="388.0,149.0 388.0,167.0" stroke="#000" stroke-width="1" /><polyline fill="none" opacity="100" points="384.0,149.0 384.0,167.0" stroke="#000" stroke-width="1" /><polyline fill="none" opacity="100" points="380.0,149.0 380.0,167.0" stroke="#000" stroke-width="1" /><polyline fill="none" opacity="100" points="240.0,139.0 265.0,139.0 265.0,154.0" stroke="#F00" stroke-width="1" /><polygon fill="#F00" opacity="100" points="263.8353,149.6533 265.0,154.0 266.1647,149.6533" stroke="#F00" stroke-width="1" /><polyline fill="none" opacity="100" points="447.0,169.0 447.0,141.0 439.0,141.0" stroke="#F00" stroke-width="1" /><polygon fill="#F00" opacity="100" points="441.3182,140.3788 439.0,141.0 441.3182,141.6212" stroke="#F00" stroke-width="1" /><polyline fill="none" opacity="100" points="542.0,291.0 542.0,275.0" stroke="#F00" stroke-width="1" /><polygon fill="#F00" opacity="100" points="543.2423,279.6364 542.0,275.0 540.7577,279.6364" stroke="#F00" stroke-width="1" /><polyline fill="none" opacity="100" points="316.0,298.0 331.0,298.0" stroke="#F00" stroke-width="1" /><polygon fill="#F00" opacity="100" points="326.6533,299.1647 331.0,298.0 326.6533,296.8353" stroke="#F00" stroke-width="1" /><polyline fill="none" opacity="100" points="289.0,280.0 289.0,320.0 304.0,320.0" stroke="#F00" stroke-width="1" /><polygon fill="#F00" opacity="100" points="299.6533,321.1647 304.0,320.0 299.6533,318.8353" stroke="#F00" stroke-width="1" /><polyline fill="none" opacity="100" points="311.0,139.0 286.0,139.0 286.0,154.0" stroke="#090" stroke-width="1" /><polygon fill="#090" opacity="100" points="284.8353,149.6533 286.0,154.0 287.1647,149.6533" stroke="#090" stroke-width="1" /><polyline fill="none" opacity="100" points="306.0,275.0 295.0,275.0" stroke="#090" stroke-width="1" /><polygon fill="#090" opacity="100" points="298.1876,274.1459 295.0,275.0 298.1876,275.8541" stroke="#090" stroke-width="1" /><polygon fill="#FFF" opacity="0.8" points="16.0,184.0 34.0,184.0 34.0,249.0 16.0,249.0" stroke="#FFF" stroke-width="1" /><polygon fill="#FFF" opacity="0.8" points="276.0,184.0 253.0,184.0 253.0,285.0 276.0,285.0" stroke="#FFF" stroke-width="1" /><polygon fill="#FFF" opacity="0.8" points="360.0,146.0 338.0,162.0 338.0,249.0 360.0,249.0" stroke="#FFF" stroke-width="1" /><polygon fill="#FFF" opacity="0.8" points="438.0,135.0 460.0,135.0 460.0,147.0 439.0,147.0" stroke="#FFF" stroke-width="1" /><polygon fill="#FFF" opacity="0.8" points="501.0,265.0 501.0,278.0 473.0,277.0 473.0,265.0" stroke="#FFF" stroke-width="1" /><polygon fill="#FFF" opacity="0.8" points="280.0,289.0 295.0,289.0 295.0,307.0 280.0,307.0" stroke="#FFF" stroke-width="1" /><polygon fill="#FFF" opacity="0.8" points="419.0,249.0 437.0,249.0 437.0,184.0 419.0,184.0" stroke="#FFF" stroke-width="1" /><polygon fill="#D0D0D0" opacity="0.8" points="276.0,284.0 338.0,284.0 338.0,289.0 276.0,289.0" stroke="#000" stroke-width="1" /><polygon fill="#D0D0D0" opacity="0.8" points="276.0,307.0 276.0,312.0 338.0,312.0 338.0,307.0" stroke="#000" stroke-width="1" /><polygon fill="#D0D0D0" opacity="0.8" points="360.0,284.0 360.0,289.0 419.0,289.0 419.0,284.0" stroke="#000" stroke-width="1" /><polygon fill="#D0D0D0" opacity="0.8" points="295.0,167.0 295.0,163.0 338.0,163.0 338.0,167.0" stroke="#000" stroke-width="1" /><polyline fill="none" opacity="1.0" points="16.0,149.0 16.0,284.0" stroke="#000" stroke-width="1" /><polyline fill="none" opacity="1.0" points="74.0,266.0 34.0,266.0 34.0,167.0 74.0,167.0" stroke="#000" stroke-width="1" /><polyline fill="none" opacity="1.0" points="72.0,149.0 72.0,167.0" stroke="#000" stroke-width="1" /><polyline fill="none" opacity="1.0" points="68.0,149.0 68.0,167.0" stroke="#000" stroke-width="1" /><polyline fill="none" opacity="1.0" points="64.0,149.0 64.0,167.0" stroke="#000" stroke-width="1" /><polyline fill="none" opacity="1.0" points="60.0,149.0 60.0,167.0" stroke="#000" stroke-width="1" /><polyline fill="none" opacity="1.0" points="56.0,149.0 56.0,167.0" stroke="#000" stroke-width="1" /><polyline fill="none" opacity="1.0" points="52.0,149.0 52.0,167.0" stroke="#000" stroke-width="1" /><polyline fill="none" opacity="1.0" points="48.0,149.0 48.0,167.0" stroke="#000" stroke-width="1" /><polyline fill="none" opacity="1.0" points="44.0,149.0 44.0,167.0" stroke="#000" stroke-width="1" /><polyline fill="none" opacity="1.0" points="40.0,149.0 40.0,167.0" stroke="#000" stroke-width="1" /><polyline fill="none" opacity="1.0" points="36.0,149.0 36.0,167.0" stroke="#000" stroke-width="1" /><polyline fill="none" opacity="1.0" points="72.0,284.0 72.0,266.0" stroke="#000" stroke-width="1" /><polyline fill="none" opacity="1.0" points="68.0,284.0 68.0,266.0" stroke="#000" stroke-width="1" /><polyline fill="none" opacity="1.0" points="64.0,284.0 64.0,266.0" stroke="#000" stroke-width="1" /><polyline fill="none" opacity="1.0" points="60.0,284.0 60.0,266.0" stroke="#000" stroke-width="1" /><polyline fill="none" opacity="1.0" points="56.0,284.0 56.0,266.0" stroke="#000" stroke-width="1" /><polyline fill="none" opacity="1.0" points="52.0,284.0 52.0,266.0" stroke="#000" stroke-width="1" /><polyline fill="none" opacity="1.0" points="48.0,284.0 48.0,266.0" stroke="#000" stroke-width="1" /><polyline fill="none" opacity="1.0" points="44.0,284.0 44.0,266.0" stroke="#000" stroke-width="1" /><polyline fill="none" opacity="1.0" points="40.0,284.0 40.0,266.0" stroke="#000" stroke-width="1" /><polyline fill="none" opacity="1.0" points="36.0,284.0 36.0,266.0" stroke="#000" stroke-width="1" /><polyline fill="none" opacity="1.0" points="7.0,185.0 7.0,149.0 195.0,149.0 195.0,130.0 276.0,130.0 276.0,284.0" stroke="#000" stroke-width="1" /><polyline fill="none" opacity="1.0" points="298.0,266.0 338.0,266.0 338.0,167.0" stroke="#000" stroke-width="1" /><polyline fill="none" opacity="1.0" points="276.0,130.0 360.0,130.0 360.0,135.0 423.0,135.0" stroke="#000" stroke-width="1" /><polyline fill="none" opacity="1.0" points="423.0,147.0 360.0,147.0 360.0,284.0" stroke="#000" stroke-width="1" /><polyline fill="none" opacity="1.0" points="213.0,149.0 253.0,149.0 253.0,307.0 276.0,307.0" stroke="#000" stroke-width="1" /><polyline fill="none" opacity="1.0" points="332.0,330.0 332.0,312.0" stroke="#000" stroke-width="1" /><polyline fill="none" opacity="1.0" points="328.0,330.0 328.0,312.0" stroke="#000" stroke-width="1" /><polyline fill="none" opacity="1.0" points="324.0,330.0 324.0,312.0" stroke="#000" stroke-width="1" /><polyline fill="none" opacity="1.0" points="320.0,330.0 320.0,312.0" stroke="#000" stroke-width="1" /><polyline fill="none" opacity="1.0" points="316.0,330.0 316.0,312.0" stroke="#000" stroke-width="1" /><polyline fill="none" opacity="1.0" points="312.0,330.0 312.0,312.0" stroke="#000" stroke-width="1" /><polyline fill="none" opacity="1.0" points="308.0,330.0 308.0,312.0" stroke="#000" stroke-width="1" /><polyline fill="none" opacity="1.0" points="304.0,330.0 304.0,312.0" stroke="#000" stroke-width="1" /><polyline fill="none" opacity="1.0" points="300.0,330.0 300.0,312.0" stroke="#000" stroke-width="1" /><polyline fill="none" opacity="1.0" points="296.0,330.0 296.0,312.0" stroke="#000" stroke-width="1" /><polyline fill="none" opacity="1.0" points="215.0,130.0 215.0,149.0" stroke="#000" stroke-width="1" /><polyline fill="none" opacity="1.0" points="219.0,130.0 219.0,149.0" stroke="#000" stroke-width="1" /><polyline fill="none" opacity="1.0" points="223.0,130.0 223.0,149.0" stroke="#000" stroke-width="1" /><polyline fill="none" opacity="1.0" points="227.0,130.0 227.0,149.0" stroke="#000" stroke-width="1" /><polyline fill="none" opacity="1.0" points="231.0,130.0 231.0,149.0" stroke="#000" stroke-width="1" /><polyline fill="none" opacity="1.0" points="235.0,130.0 235.0,149.0" stroke="#000" stroke-width="1" /><polyline fill="none" opacity="1.0" points="239.0,130.0 239.0,149.0" stroke="#000" stroke-width="1" /><polyline fill="none" opacity="1.0" points="243.0,130.0 243.0,149.0" stroke="#000" stroke-width="1" /><polyline fill="none" opacity="1.0" points="247.0,130.0 247.0,149.0" stroke="#000" stroke-width="1" /><polyline fill="none" opacity="1.0" points="251.0,130.0 251.0,149.0" stroke="#000" stroke-width="1" /><polyline fill="none" opacity="1.0" points="300.0,130.0 300.0,163.0" stroke="#000" stroke-width="1" /><polyline fill="none" opacity="1.0" points="304.0,130.0 304.0,163.0" stroke="#000" stroke-width="1" /><polyline fill="none" opacity="1.0" points="308.0,130.0 308.0,163.0" stroke="#000" stroke-width="1" /><polyline fill="none" opacity="1.0" points="312.0,130.0 312.0,163.0" stroke="#000" stroke-width="1" /><polyline fill="none" opacity="1.0" points="316.0,130.0 316.0,163.0" stroke="#000" stroke-width="1" /><polyline fill="none" opacity="1.0" points="320.0,130.0 320.0,163.0" stroke="#000" stroke-width="1" /><polyline fill="none" opacity="1.0" points="324.0,130.0 324.0,163.0" stroke="#000" stroke-width="1" /><polyline fill="none" opacity="1.0" points="328.0,130.0 328.0,163.0" stroke="#000" stroke-width="1" /><polyline fill="none" opacity="1.0" points="332.0,130.0 332.0,163.0" stroke="#000" stroke-width="1" /><polyline fill="none" opacity="1.0" points="336.0,130.0 336.0,163.0" stroke="#000" stroke-width="1" /><polyline fill="none" opacity="1.0" points="338.0,147.0 297.0,147.0" stroke="#000" stroke-width="0.5" /><polyline fill="none" opacity="1.0" points="379.0,266.0 419.0,266.0 419.0,167.0 378.0,167.0" stroke="#000" stroke-width="1" /><polyline fill="none" opacity="1.0" points="437.0,284.0 437.0,167.0" stroke="#000" stroke-width="1" /><text fill="#000" font-family="Arial" font-size="20" font-weight="normal" opacity="1.0" transform="rotate(-0.0 45.0,163.0) translate(0 20)" x="45.0" y="163.0">&lt;&lt; Каширская</text><text fill="#000" font-family="Arial" font-size="20" font-weight="normal" opacity="1.0" transform="rotate(-0.0 203.0,243.0) translate(0 20)" x="203.0" y="243.0">Нагатинский затон &gt;&gt;</text><text fill="#30D5C8" font-family="Arial" font-size="20" font-weight="normal" opacity="1.0" transform="rotate(-0.0 44.0,163.0) translate(0 20)" x="44.0" y="163.0">&lt;&lt; Каширская</text><text fill="#30D5C8" font-family="Arial" font-size="20" font-weight="normal" opacity="1.0" transform="rotate(-0.0 202.0,243.0) translate(0 20)" x="202.0" y="243.0">Нагатинский затон &gt;&gt;</text><text fill="#000" font-family="Arial" font-size="25" font-weight="bold" opacity="1.0" transform="rotate(-0.0 113.0,199.0) translate(0 25)" x="113.0" y="199.0">Кленовый бульвар</text><text fill="#FFF" font-family="Arial" font-size="25" font-weight="bold" opacity="1.0" transform="rotate(-0.0 111.0,198.0) translate(0 25)" x="111.0" y="198.0">Кленовый бульвар</text><polygon fill="#D0D0D0" opacity="1.0" points="564.0,242.0 564.0,224.0 572.0,224.0 572.0,242.0" stroke="#000" stroke-width="1" /><polygon fill="#D0D0D0" opacity="1.0" points="502.0,264.0 502.0,279.0 520.0,279.0 520.0,264.0" stroke="#000" stroke-width="1" /><polygon fill="#D0D0D0" opacity="1.0" points="537.0,236.0 537.0,230.0 502.0,230.0 502.0,236.0" stroke="#000" stroke-width="1" /><polygon fill="#D0D0D0" opacity="1.0" points="481.0,236.0 481.0,230.0 474.0,230.0 474.0,236.0" stroke="#000" stroke-width="1" /><polyline fill="none" opacity="1.0" points="564.0,233.0 537.0,233.0" stroke="#000" stroke-width="1" /><polyline fill="none" opacity="1.0" points="506.0,236.0 506.0,246.0" stroke="#000" stroke-width="1" /><polyline fill="none" opacity="1.0" points="496.0,264.0 495.0,264.0 495.0,279.0 496.0,279.0" stroke="#000" stroke-width="1" /><polyline fill="none" opacity="1.0" points="497.0,279.0 501.0,279.0" stroke="#D0D0D0" stroke-width="0.5" /><polyline fill="none" opacity="1.0" points="497.0,264.0 501.0,264.0" stroke="#D0D0D0" stroke-width="0.5" /><polyline fill="none" opacity="1.0" points="472.0,318.0 472.0,293.0" stroke="#7F7F7F" stroke-width="1" /><polyline fill="none" opacity="1.0" points="468.0,318.0 468.0,293.0" stroke="#7F7F7F" stroke-width="1" /><polyline fill="none" opacity="1.0" points="464.0,318.0 464.0,293.0" stroke="#7F7F7F" stroke-width="1" /><polyline fill="none" opacity="1.0" points="460.0,318.0 460.0,293.0" stroke="#7F7F7F" stroke-width="1" /><polyline fill="none" opacity="1.0" points="456.0,318.0 456.0,293.0" stroke="#7F7F7F" stroke-width="1" /><polyline fill="none" opacity="1.0" points="452.0,318.0 452.0,293.0" stroke="#7F7F7F" stroke-width="1" /><polyline fill="none" opacity="1.0" points="448.0,318.0 448.0,293.0" stroke="#7F7F7F" stroke-width="1" /><polyline fill="none" opacity="1.0" points="444.0,318.0 444.0,293.0" stroke="#7F7F7F" stroke-width="1" /><polyline fill="none" opacity="1.0" points="440.0,318.0 440.0,293.0" stroke="#7F7F7F" stroke-width="1" /><polyline fill="none" opacity="1.0" points="436.0,318.0 436.0,293.0" stroke="#7F7F7F" stroke-width="1" /><polyline fill="none" opacity="1.0" points="432.0,318.0 432.0,293.0" stroke="#7F7F7F" stroke-width="1" /><polyline fill="none" opacity="1.0" points="428.0,318.0 428.0,293.0" stroke="#7F7F7F" stroke-width="1" /><polyline fill="none" opacity="1.0" points="424.0,318.0 424.0,293.0" stroke="#7F7F7F" stroke-width="1" /><polyline fill="none" opacity="1.0" points="420.0,318.0 420.0,293.0" stroke="#7F7F7F" stroke-width="1" /><polyline fill="none" opacity="1.0" points="416.0,318.0 416.0,293.0" stroke="#7F7F7F" stroke-width="1" /><polyline fill="none" opacity="1.0" points="412.0,318.0 412.0,293.0" stroke="#7F7F7F" stroke-width="1" /><polyline fill="none" opacity="1.0" points="408.0,318.0 408.0,293.0" stroke="#7F7F7F" stroke-width="1" /><polyline fill="none" opacity="1.0" points="404.0,318.0 404.0,293.0" stroke="#7F7F7F" stroke-width="1" /><polygon fill="#9B5509" opacity="1.0" points="479.0,293.0 399.0,293.0 399.0,290.0 479.0,290.0" stroke="#000" stroke-width="1" /><polygon fill="#9B5509" opacity="1.0" points="479.0,297.0 479.0,300.0 399.0,300.0 399.0,297.0" stroke="#000" stroke-width="1" /><polygon fill="#9B5509" opacity="1.0" points="479.0,304.0 479.0,307.0 399.0,307.0 399.0,304.0" stroke="#000" stroke-width="1" /><polygon fill="#9B5509" opacity="1.0" points="479.0,311.0 479.0,314.0 399.0,314.0 399.0,311.0" stroke="#000" stroke-width="1" /><polygon fill="#9B5509" opacity="1.0" points="479.0,318.0 399.0,318.0 399.0,321.0 479.0,321.0" stroke="#000" stroke-width="1" /><polygon fill="#94949C" opacity="1.0" points="187.0,153.0 192.0,153.0 192.0,151.0 187.0,151.0" stroke="#94949C" stroke-width="1" /><polygon fill="#94949C" opacity="1.0" points="182.0,282.0 187.0,282.0 187.0,280.0 182.0,280.0" stroke="#94949C" stroke-width="1" /><polygon fill="#94949C" opacity="1.0" points="22.0,279.0 18.0,279.0 18.0,281.0 22.0,281.0" stroke="#000" stroke-width="1" /><polygon fill="#F00" opacity="1.0" points="182.0,153.0 187.0,153.0 187.0,151.0 182.0,151.0" stroke="#F00" stroke-width="1" /><polygon fill="#F00" opacity="1.0" points="187.0,282.0 192.0,282.0 192.0,280.0 187.0,280.0" stroke="#F00" stroke-width="1" /><polygon fill="#F00" opacity="1.0" points="26.0,279.0 22.0,279.0 22.0,281.0 26.0,281.0" stroke="#000" stroke-width="1" /><polyline fill="none" opacity="1.0" points="470.0,135.0 470.0,144.0" stroke="#000" stroke-width="0.5" /><polyline fill="none" opacity="1.0" points="468.0,144.0 472.0,144.0" stroke="#000" stroke-width="1" /><polyline fill="none" opacity="1.0" points="468.0,148.0 472.0,148.0" stroke="#000" stroke-width="1" /><polyline fill="none" opacity="1.0" points="468.0,152.0 472.0,152.0" stroke="#000" stroke-width="1" /><polygon fill="none" opacity="1.0" points="504.0,253.0 504.0,246.0 511.0,246.0 511.0,253.0" stroke="#000" stroke-width="1" /><polyline fill="none" opacity="1.0" points="479.0,247.0 479.0,252.0" stroke="#090" stroke-width="1" /><polyline fill="none" opacity="1.0" points="483.0,247.0 483.0,252.0" stroke="#090" stroke-width="1" /><polyline fill="none" opacity="1.0" points="487.0,247.0 487.0,252.0" stroke="#090" stroke-width="1" /><polyline fill="none" opacity="1.0" points="491.0,247.0 491.0,252.0" stroke="#090" stroke-width="1" /><polyline fill="none" opacity="1.0" points="495.0,247.0 495.0,252.0" stroke="#090" stroke-width="1" /><polyline fill="none" opacity="1.0" points="499.0,247.0 499.0,252.0" stroke="#090" stroke-width="1" /><polyline fill="none" opacity="1.0" points="515.0,283.0 512.0,286.0" stroke="#F00" stroke-width="1" /><polyline fill="none" opacity="1.0" points="517.8284,285.8284 514.8284,288.8284" stroke="#F00" stroke-width="1" /><polyline fill="none" opacity="1.0" points="520.6569,288.6569 517.6569,291.6569" stroke="#F00" stroke-width="1" /><polyline fill="none" opacity="1.0" points="523.4853,291.4853 520.4853,294.4853" stroke="#F00" stroke-width="1" /><polyline fill="none" opacity="1.0" points="526.3137,294.3137 523.3137,297.3137" stroke="#F00" stroke-width="1" /><polyline fill="none" opacity="1.0" points="529.1421,297.1421 526.1421,300.1421" stroke="#F00" stroke-width="1" /><polyline fill="none" opacity="1.0" points="531.9706,299.9706 528.9706,302.9706" stroke="#F00" stroke-width="1" /><polyline fill="none" opacity="1.0" points="534.799,302.799 531.799,305.799" stroke="#F00" stroke-width="1" /><polyline fill="none" opacity="1.0" points="537.6274,305.6274 534.6274,308.6274" stroke="#F00" stroke-width="1" /><polyline fill="none" opacity="1.0" points="540.4558,308.4558 537.4558,311.4558" stroke="#F00" stroke-width="1" /><polyline fill="none" opacity="1.0" points="543.2843,311.2843 540.2843,314.2843" stroke="#F00" stroke-width="1" /><polyline fill="none" opacity="1.0" points="546.1127,314.1127 543.1127,317.1127" stroke="#F00" stroke-width="1" /><polygon fill="none" opacity="1.0" points="474.0,221.0 474.0,188.0 465.0,188.0 465.0,221.0" stroke="#000" stroke-width="1" /><text fill="#000" font-family="Arial" font-size="10" font-weight="normal" opacity="1.0" transform="rotate(90.0 476.0,193.0) translate(0 10)" x="476.0" y="193.0">кассы</text><polygon fill="#D0EFFF" opacity="1.0" points="423.0,147.0 423.0,135.0 435.0,135.0 435.0,147.0" stroke="#000" stroke-width="1" /><text fill="#000" font-family="Arial" font-size="4" font-weight="normal" opacity="1.0" transform="rotate(-0.0 425.0,138.0) translate(0 4)" x="425.0" y="138.0">лифт</text><polygon fill="#D0EFFF" opacity="1.0" points="502.0,277.0 502.0,266.0 513.0,266.0 513.0,277.0" stroke="#000" stroke-width="1" /><text fill="#000" font-family="Arial" font-size="4" font-weight="normal" opacity="1.0" transform="rotate(-0.0 503.0,268.0) translate(0 4)" x="503.0" y="268.0">лифт</text><polygon fill="#D0EFFF" opacity="1.0" points="670.0,309.0 670.0,296.0 683.0,296.0 683.0,309.0" stroke="#000" stroke-width="1" /><text fill="#000" font-family="Arial" font-size="6" font-weight="normal" opacity="1.0" transform="rotate(-0.0 670.0,298.0) translate(0 6)" x="670.0" y="298.0">лифт</text><polygon fill="#D0EFFF" opacity="1.0" points="537.0,141.0 537.0,126.0 552.0,126.0 552.0,141.0" stroke="#000" stroke-width="1" /><text fill="#000" font-family="Arial" font-size="6" font-weight="normal" opacity="1.0" transform="rotate(-0.0 538.0,130.0) translate(0 6)" x="538.0" y="130.0">лифт</text><polyline fill="none" opacity="1.0" points="474.0,290.0 474.0,158.0 459.0,158.0 459.0,147.0 435.0,147.0" stroke="#000" stroke-width="1" /><polyline fill="none" opacity="1.0" points="435.0,135.0 488.0,135.0 488.0,151.0 564.0,151.0 564.0,203.0 574.0,203.0 574.0,126.0 478.0,126.0" stroke="#000" stroke-width="1" /><polyline fill="none" opacity="1.0" points="479.0,321.0 546.0,321.0 565.0,303.0 565.0,264.0 619.0,264.0 649.0,294.0 658.0,294.0 658.0,309.0 670.0,309.0" stroke="#000" stroke-width="1" /><polyline fill="none" opacity="1.0" points="670.0,296.0 670.0,294.0 724.0,294.0" stroke="#000" stroke-width="1" /><polyline fill="none" opacity="1.0" points="478.0,108.0 641.0,108.0 641.0,264.0 653.0,276.0 724.0,276.0" stroke="#000" stroke-width="1" /><polyline fill="none" opacity="1.0" points="724.0,280.0 684.0,280.0" stroke="#000" stroke-width="0.5" /><polyline fill="none" opacity="1.0" points="478.0,112.0 519.0,112.0" stroke="#000" stroke-width="0.5" /><polyline fill="none" opacity="1.0" points="722.0,280.0 722.0,294.0" stroke="#000" stroke-width="1" /><polyline fill="none" opacity="1.0" points="718.0,280.0 718.0,294.0" stroke="#000" stroke-width="1" /><polyline fill="none" opacity="1.0" points="714.0,280.0 714.0,294.0" stroke="#000" stroke-width="1" /><polyline fill="none" opacity="1.0" points="710.0,280.0 710.0,294.0" stroke="#000" stroke-width="1" /><polyline fill="none" opacity="1.0" points="706.0,280.0 706.0,294.0" stroke="#000" stroke-width="1" /><polyline fill="none" opacity="1.0" points="702.0,280.0 702.0,294.0" stroke="#000" stroke-width="1" /><polyline fill="none" opacity="1.0" points="698.0,280.0 698.0,294.0" stroke="#000" stroke-width="1" /><polyline fill="none" opacity="1.0" points="694.0,280.0 694.0,294.0" stroke="#000" stroke-width="1" /><polyline fill="none" opacity="1.0" points="690.0,280.0 690.0,294.0" stroke="#000" stroke-width="1" /><polyline fill="none" opacity="1.0" points="686.0,280.0 686.0,294.0" stroke="#000" stroke-width="1" /><polyline fill="none" opacity="1.0" points="480.0,126.0 480.0,112.0" stroke="#000" stroke-width="1" /><polyline fill="none" opacity="1.0" points="484.0,126.0 484.0,112.0" stroke="#000" stroke-width="1" /><polyline fill="none" opacity="1.0" points="488.0,126.0 488.0,112.0" stroke="#000" stroke-width="1" /><polyline fill="none" opacity="1.0" points="492.0,126.0 492.0,112.0" stroke="#000" stroke-width="1" /><polyline fill="none" opacity="1.0" points="496.0,126.0 496.0,112.0" stroke="#000" stroke-width="1" /><polyline fill="none" opacity="1.0" points="500.0,126.0 500.0,112.0" stroke="#000" stroke-width="1" /><polyline fill="none" opacity="1.0" points="504.0,126.0 504.0,112.0" stroke="#000" stroke-width="1" /><polyline fill="none" opacity="1.0" points="508.0,126.0 508.0,112.0" stroke="#000" stroke-width="1" /><polyline fill="none" opacity="1.0" points="512.0,126.0 512.0,112.0" stroke="#000" stroke-width="1" /><polyline fill="none" opacity="1.0" points="516.0,126.0 516.0,112.0" stroke="#000" stroke-width="1" /><polyline fill="none" opacity="1.0" points="480.0,307.0 489.0,303.0 496.0,292.0 496.0,279.0" stroke="#000" stroke-width="0.5" /><polyline fill="none" opacity="1.0" points="504.0,279.0 504.0,286.0 511.0,286.0" stroke="#000" stroke-width="0.5" /><polyline fill="none" opacity="1.0" points="509.0,264.0 509.0,253.0" stroke="#000" stroke-width="0.5" /><polyline fill="none" opacity="1.0" points="659.0,294.0 669.0,294.0" stroke="#D0D0D0" stroke-width="0.5" /><polyline fill="none" opacity="1.0" points="684.0,309.0 687.0,309.0" stroke="#D0D0D0" stroke-width="0.5" /><polyline fill="none" opacity="1.0" points="684.0,296.0 687.0,296.0" stroke="#D0D0D0" stroke-width="0.5" /><text fill="#00AFAF" font-family="Arial" font-size="15" font-weight="normal" opacity="1.0" transform="rotate(-0.0 651.0,183.0) translate(0 15)" x="651.0" y="183.0">Коломенская улица</text><text fill="#00AFAF" font-family="Arial" font-size="15" font-weight="normal" opacity="1.0" transform="rotate(60.0 354.0,-1.0) translate(0 15)" x="354.0" y="-1.0">Кленовый бульвар</text><g transform="rotate(25.0,365.0,215.0)"><text fill="#FFD900" font-family="Arial" font-size="25" font-weight="normal" opacity="1.0" x="398.25" y="56.5">1</text><text fill="#FFD900" font-family="Arial" font-size="25" font-weight="normal" opacity="1.0" x="686.25" y="115.5">2</text></g></g></g></svg>