<?xml version="1.0" encoding="utf-8" ?>
<svg baseProfile="tiny" height="1170px" version="1.2" width="680px" xmlns="http://www.w3.org/2000/svg" xmlns:ev="http://www.w3.org/2001/xml-events" xmlns:xlink="http://www.w3.org/1999/xlink"><defs /><g><g transform="rotate(90.0,340.0,585.0)"><polygon fill="#046434" opacity="100" points="98.0,521.0 548.0,521.0 548.0,551.0 98.0,551.0" stroke="#000" stroke-width="1" /><polygon fill="#046434" opacity="100" points="98.0,630.0 548.0,630.0 548.0,660.0 98.0,660.0" stroke="#000" stroke-width="1" /><text fill="#046434" font-family="Arial" font-size="20" font-weight="normal" opacity="100" transform="rotate(-0.0 98.0,497.0) translate(0 20)" x="98.0" y="497.0">&lt;&lt; Автозаводская</text><text fill="#046434" font-family="Arial" font-size="20" font-weight="normal" opacity="100" transform="rotate(-0.0 430.0,660.0) translate(0 20)" x="430.0" y="660.0">Каширская &gt;&gt;</text><text fill="#046434" font-family="Arial" font-size="25" font-weight="bold" opacity="100" transform="rotate(-0.0 254.0,582.0) translate(0 25)" x="254.0" y="582.0">Коломенская</text><polygon fill="#34349C" opacity="100" points="325.0,584.0 325.0,580.0 326.0,580.0 326.0,584.0" stroke="#34349C" stroke-width="1" /><polygon fill="#F00" opacity="100" points="325.0,588.0 325.0,584.0 326.0,584.0 326.0,588.0" stroke="#F00" stroke-width="1" /><polyline fill="none" opacity="100" points="98.0,551.0 98.0,562.0 46.0,562.0 46.0,532.0 -46.0,532.0 -46.0,535.0 -57.0,535.0 -57.0,532.0 -67.0,532.0 -67.0,433.0 -27.0,433.0" stroke="#000" stroke-width="1" /><polyline fill="none" opacity="100" points="-27.0,415.0 -136.0,415.0" stroke="#000" stroke-width="1" /><polyline fill="none" opacity="100" points="-136.0,433.0 -96.0,433.0 -96.0,730.0 -136.0,730.0" stroke="#000" stroke-width="1" /><polyline fill="none" opacity="100" points="-136.0,748.0 -27.0,748.0" stroke="#000" stroke-width="1" /><polyline fill="none" opacity="100" points="-27.0,730.0 -67.0,730.0 -67.0,648.0 -57.0,648.0 -57.0,645.0 -46.0,645.0 -46.0,648.0 46.0,648.0 46.0,619.0 98.0,619.0 98.0,630.0" stroke="#000" stroke-width="1" /><polyline fill="none" opacity="100" points="-136.0,419.0 -96.0,419.0" stroke="#000" stroke-width="0.5" /><polyline fill="none" opacity="100" points="-67.0,419.0 -27.0,419.0" stroke="#000" stroke-width="0.5" /><polyline fill="none" opacity="100" points="-136.0,744.0 -96.0,744.0" stroke="#000" stroke-width="0.5" /><polyline fill="none" opacity="100" points="-27.0,744.0 -67.0,744.0" stroke="#000" stroke-width="0.5" /><polyline fill="none" opacity="100" points="97.0,566.0 49.0,566.0" stroke="#000" stroke-width="0.5" /><polyline fill="none" opacity="100" points="95.0,619.0 95.0,566.0" stroke="#000" stroke-width="1" /><polyline fill="none" opacity="100" points="91.0,619.0 91.0,566.0" stroke="#000" stroke-width="1" /><polyline fill="none" opacity="100" points="87.0,619.0 87.0,566.0" stroke="#000" stroke-width="1" /><polyline fill="none" opacity="100" points="83.0,619.0 83.0,566.0" stroke="#000" stroke-width="1" /><polyline fill="none" opacity="100" points="79.0,619.0 79.0,566.0" stroke="#000" stroke-width="1" /><polyline fill="none" opacity="100" points="75.0,619.0 75.0,566.0" stroke="#000" stroke-width="1" /><polyline fill="none" opacity="100" points="71.0,619.0 71.0,566.0" stroke="#000" stroke-width="1" /><polyline fill="none" opacity="100" points="67.0,619.0 67.0,566.0" stroke="#000" stroke-width="1" /><polyline fill="none" opacity="100" points="63.0,619.0 63.0,566.0" stroke="#000" stroke-width="1" /><polyline fill="none" opacity="100" points="59.0,619.0 59.0,566.0" stroke="#000" stroke-width="1" /><polyline fill="none" opacity="100" points="55.0,619.0 55.0,566.0" stroke="#000" stroke-width="1" /><polyline fill="none" opacity="100" points="51.0,619.0 51.0,566.0" stroke="#000" stroke-width="1" /><polyline fill="none" opacity="100" points="-29.0,433.0 -29.0,419.0" stroke="#000" stroke-width="1" /><polyline fill="none" opacity="100" points="-33.0,433.0 -33.0,419.0" stroke="#000" stroke-width="1" /><polyline fill="none" opacity="100" points="-37.0,433.0 -37.0,419.0" stroke="#000" stroke-width="1" /><polyline fill="none" opacity="100" points="-41.0,433.0 -41.0,419.0" stroke="#000" stroke-width="1" /><polyline fill="none" opacity="100" points="-45.0,433.0 -45.0,419.0" stroke="#000" stroke-width="1" /><polyline fill="none" opacity="100" points="-49.0,433.0 -49.0,419.0" stroke="#000" stroke-width="1" /><polyline fill="none" opacity="100" points="-53.0,433.0 -53.0,419.0" stroke="#000" stroke-width="1" /><polyline fill="none" opacity="100" points="-57.0,433.0 -57.0,419.0" stroke="#000" stroke-width="1" /><polyline fill="none" opacity="100" points="-61.0,433.0 -61.0,419.0" stroke="#000" stroke-width="1" /><polyline fill="none" opacity="100" points="-65.0,433.0 -65.0,419.0" stroke="#000" stroke-width="1" /><polyline fill="none" opacity="100" points="-134.0,433.0 -134.0,419.0" stroke="#000" stroke-width="1" /><polyline fill="none" opacity="100" points="-130.0,433.0 -130.0,419.0" stroke="#000" stroke-width="1" /><polyline fill="none" opacity="100" points="-126.0,433.0 -126.0,419.0" stroke="#000" stroke-width="1" /><polyline fill="none" opacity="100" points="-122.0,433.0 -122.0,419.0" stroke="#000" stroke-width="1" /><polyline fill="none" opacity="100" points="-118.0,433.0 -118.0,419.0" stroke="#000" stroke-width="1" /><polyline fill="none" opacity="100" points="-114.0,433.0 -114.0,419.0" stroke="#000" stroke-width="1" /><polyline fill="none" opacity="100" points="-110.0,433.0 -110.0,419.0" stroke="#000" stroke-width="1" /><polyline fill="none" opacity="100" points="-106.0,433.0 -106.0,419.0" stroke="#000" stroke-width="1" /><polyline fill="none" opacity="100" points="-102.0,433.0 -102.0,419.0" stroke="#000" stroke-width="1" /><polyline fill="none" opacity="100" points="-98.0,433.0 -98.0,419.0" stroke="#000" stroke-width="1" /><polyline fill="none" opacity="100" points="-134.0,744.0 -134.0,730.0" stroke="#000" stroke-width="1" /><polyline fill="none" opacity="100" points="-130.0,744.0 -130.0,730.0" stroke="#000" stroke-width="1" /><polyline fill="none" opacity="100" points="-126.0,744.0 -126.0,730.0" stroke="#000" stroke-width="1" /><polyline fill="none" opacity="100" points="-122.0,744.0 -122.0,730.0" stroke="#000" stroke-width="1" /><polyline fill="none" opacity="100" points="-118.0,744.0 -118.0,730.0" stroke="#000" stroke-width="1" /><polyline fill="none" opacity="100" points="-114.0,744.0 -114.0,730.0" stroke="#000" stroke-width="1" /><polyline fill="none" opacity="100" points="-110.0,744.0 -110.0,730.0" stroke="#000" stroke-width="1" /><polyline fill="none" opacity="100" points="-106.0,744.0 -106.0,730.0" stroke="#000" stroke-width="1" /><polyline fill="none" opacity="100" points="-102.0,744.0 -102.0,730.0" stroke="#000" stroke-width="1" /><polyline fill="none" opacity="100" points="-98.0,744.0 -98.0,730.0" stroke="#000" stroke-width="1" /><polyline fill="none" opacity="100" points="-29.0,744.0 -29.0,730.0" stroke="#000" stroke-width="1" /><polyline fill="none" opacity="100" points="-33.0,744.0 -33.0,730.0" stroke="#000" stroke-width="1" /><polyline fill="none" opacity="100" points="-37.0,744.0 -37.0,730.0" stroke="#000" stroke-width="1" /><polyline fill="none" opacity="100" points="-41.0,744.0 -41.0,730.0" stroke="#000" stroke-width="1" /><polyline fill="none" opacity="100" points="-45.0,744.0 -45.0,730.0" stroke="#000" stroke-width="1" /><polyline fill="none" opacity="100" points="-49.0,744.0 -49.0,730.0" stroke="#000" stroke-width="1" /><polyline fill="none" opacity="100" points="-53.0,744.0 -53.0,730.0" stroke="#000" stroke-width="1" /><polyline fill="none" opacity="100" points="-57.0,744.0 -57.0,730.0" stroke="#000" stroke-width="1" /><polyline fill="none" opacity="100" points="-61.0,744.0 -61.0,730.0" stroke="#000" stroke-width="1" /><polyline fill="none" opacity="100" points="-65.0,744.0 -65.0,730.0" stroke="#000" stroke-width="1" /><polygon fill="#D0D0D0" opacity="100" points="-57.0,557.0 -46.0,557.0 -46.0,623.0 -57.0,623.0" stroke="#000" stroke-width="1" /><polyline fill="none" opacity="100" points="37.0,532.0 37.0,560.0 46.0,560.0" stroke="#000" stroke-width="1" /><text fill="#FFF" font-family="Arial" font-size="10" font-weight="normal" opacity="100" transform="rotate(-90.0 35.0,558.0) translate(0 10)" x="35.0" y="558.0">кассы</text><polyline fill="none" opacity="100" points="37.0,560.0 16.0,560.0" stroke="#000" stroke-width="0.5" /><polyline fill="none" opacity="100" points="9.0,568.0 13.0,570.0" stroke="#000" stroke-width="1" /><polyline fill="none" opacity="100" points="7.2111,571.5777 11.2111,573.5777" stroke="#000" stroke-width="1" /><polyline fill="none" opacity="100" points="5.4223,575.1554 9.4223,577.1554" stroke="#000" stroke-width="1" /><polyline fill="none" opacity="100" points="3.6334,578.7331 7.6334,580.7331" stroke="#000" stroke-width="1" /><polyline fill="none" opacity="100" points="1.8446,582.3108 5.8446,584.3108" stroke="#000" stroke-width="1" /><polyline fill="none" opacity="100" points="0.0557,585.8885 4.0557,587.8885" stroke="#000" stroke-width="1" /><polyline fill="none" opacity="100" points="-1.7331,589.4663 2.2669,591.4663" stroke="#000" stroke-width="1" /><polyline fill="none" opacity="100" points="-3.522,593.044 0.478,595.044" stroke="#000" stroke-width="1" /><polyline fill="none" opacity="100" points="-5.3108,596.6217 -1.3108,598.6217" stroke="#000" stroke-width="1" /><polyline fill="none" opacity="100" points="-7.0997,600.1994 -3.0997,602.1994" stroke="#000" stroke-width="1" /><polyline fill="none" opacity="100" points="-8.8885,603.7771 -4.8885,605.7771" stroke="#000" stroke-width="1" /><polyline fill="none" opacity="100" points="-10.6774,607.3548 -6.6774,609.3548" stroke="#000" stroke-width="1" /><polyline fill="none" opacity="100" points="-12.4663,610.9325 -8.4663,612.9325" stroke="#000" stroke-width="1" /><polyline fill="none" opacity="100" points="-14.2551,614.5102 -10.2551,616.5102" stroke="#000" stroke-width="1" /><polyline fill="none" opacity="100" points="-16.044,618.0879 -12.044,620.0879" stroke="#000" stroke-width="1" /><polyline fill="none" opacity="100" points="-17.8328,621.6656 -13.8328,623.6656" stroke="#000" stroke-width="1" /><polygon fill="none" opacity="100" points="13.0,559.0 18.0,562.0 15.0,567.0 10.0,564.0" stroke="#000" stroke-width="1" /><polyline fill="none" opacity="100" points="-16.0,623.0 -46.0,623.0" stroke="#000" stroke-width="0.5" /><polyline fill="none" opacity="100" points="9.0,568.0 13.0,570.0" stroke="#090" stroke-width="1" /><polyline fill="none" opacity="100" points="7.2111,571.5777 11.2111,573.5777" stroke="#090" stroke-width="1" /><polyline fill="none" opacity="100" points="5.4223,575.1554 9.4223,577.1554" stroke="#090" stroke-width="1" /><polyline fill="none" opacity="100" points="3.6334,578.7331 7.6334,580.7331" stroke="#090" stroke-width="1" /><polyline fill="none" opacity="100" points="1.8446,582.3108 5.8446,584.3108" stroke="#090" stroke-width="1" /><polyline fill="none" opacity="100" points="0.0557,585.8885 4.0557,587.8885" stroke="#090" stroke-width="1" /><polyline fill="none" opacity="100" points="-1.7331,589.4663 2.2669,591.4663" stroke="#090" stroke-width="1" /><polyline fill="none" opacity="100" points="-3.522,593.044 0.478,595.044" stroke="#090" stroke-width="1" /><polyline fill="none" opacity="100" points="-5.3108,596.6217 -1.3108,598.6217" stroke="#090" stroke-width="1" /><polyline fill="none" opacity="100" points="-7.0997,600.1994 -3.0997,602.1994" stroke="#090" stroke-width="1" /><polyline fill="none" opacity="100" points="-8.8885,603.7771 -4.8885,605.7771" stroke="#090" stroke-width="1" /><polyline fill="none" opacity="100" points="-10.6774,607.3548 -6.6774,609.3548" stroke="#090" stroke-width="1" /><polyline fill="none" opacity="100" points="-12.4663,610.9325 -8.4663,612.9325" stroke="#090" stroke-width="1" /><polyline fill="none" opacity="100" points="-14.2551,614.5102 -10.2551,616.5102" stroke="#090" stroke-width="1" /><polyline fill="none" opacity="100" points="-16.044,618.0879 -12.044,620.0879" stroke="#090" stroke-width="1" /><polyline fill="none" opacity="100" points="-17.8328,621.6656 -13.8328,623.6656" stroke="#090" stroke-width="1" /><polyline fill="none" opacity="100" points="-37.0,636.0 -59.0,636.0" stroke="#F00" stroke-width="1" /><polygon fill="#F00" opacity="100" points="-52.6249,634.2918 -59.0,636.0 -52.6249,637.7082" stroke="#F00" stroke-width="1" /><polyline fill="none" opacity="100" points="-18.0,566.0 -3.0,574.0" stroke="#090" stroke-width="1" /><polygon fill="#090" opacity="100" points="-7.9678,572.8465 -3.0,574.0 -6.7255,570.5171" stroke="#090" stroke-width="1" /><polygon fill="#34349C" opacity="100" points="-43.0,568.0 -43.0,564.0 -42.0,564.0 -42.0,568.0" stroke="#34349C" stroke-width="1" /><polygon fill="#F00" opacity="100" points="-43.0,572.0 -43.0,568.0 -42.0,568.0 -42.0,572.0" stroke="#F00" stroke-width="1" /><polygon fill="#34349C" opacity="100" points="-43.0,568.0 -43.0,564.0 -42.0,564.0 -42.0,568.0" stroke="#34349C" stroke-width="1" /><polygon fill="#F00" opacity="100" points="-43.0,572.0 -43.0,568.0 -42.0,568.0 -42.0,572.0" stroke="#F00" stroke-width="1" /><polyline fill="none" opacity="100" points="548.0,551.0 548.0,562.0 599.0,562.0 599.0,530.0 691.0,530.0 691.0,533.0 700.0,533.0 700.0,529.0 711.0,529.0 711.0,440.0 668.0,440.0" stroke="#000" stroke-width="1" /><polyline fill="none" opacity="100" points="668.0,422.0 884.0,422.0" stroke="#000" stroke-width="1" /><polyline fill="none" opacity="100" points="884.0,440.0 741.0,440.0 741.0,730.0 910.0,730.0" stroke="#000" stroke-width="1" /><polyline fill="none" opacity="100" points="910.0,748.0 671.0,748.0" stroke="#000" stroke-width="1" /><polyline fill="none" opacity="100" points="671.0,730.0 711.0,730.0 711.0,650.0 700.0,650.0 700.0,647.0 691.0,647.0 691.0,651.0 599.0,651.0 599.0,619.0 548.0,619.0 548.0,630.0" stroke="#000" stroke-width="1" /><polyline fill="none" opacity="100" points="668.0,426.0 708.0,426.0" stroke="#000" stroke-width="0.5" /><polyline fill="none" opacity="100" points="884.0,436.0 864.0,436.0" stroke="#000" stroke-width="0.5" /><polyline fill="none" opacity="100" points="671.0,744.0 711.0,744.0" stroke="#000" stroke-width="0.5" /><polyline fill="none" opacity="100" points="910.0,734.0 870.0,734.0" stroke="#000" stroke-width="0.5" /><polyline fill="none" opacity="100" points="598.0,566.0 550.0,566.0" stroke="#000" stroke-width="0.5" /><polyline fill="none" opacity="100" points="866.0,436.0 866.0,422.0" stroke="#000" stroke-width="1" /><polyline fill="none" opacity="100" points="870.0,436.0 870.0,422.0" stroke="#000" stroke-width="1" /><polyline fill="none" opacity="100" points="874.0,436.0 874.0,422.0" stroke="#000" stroke-width="1" /><polyline fill="none" opacity="100" points="878.0,436.0 878.0,422.0" stroke="#000" stroke-width="1" /><polyline fill="none" opacity="100" points="882.0,436.0 882.0,422.0" stroke="#000" stroke-width="1" /><polyline fill="none" opacity="100" points="670.0,440.0 670.0,426.0" stroke="#000" stroke-width="1" /><polyline fill="none" opacity="100" points="674.0,440.0 674.0,426.0" stroke="#000" stroke-width="1" /><polyline fill="none" opacity="100" points="678.0,440.0 678.0,426.0" stroke="#000" stroke-width="1" /><polyline fill="none" opacity="100" points="682.0,440.0 682.0,426.0" stroke="#000" stroke-width="1" /><polyline fill="none" opacity="100" points="686.0,440.0 686.0,426.0" stroke="#000" stroke-width="1" /><polyline fill="none" opacity="100" points="690.0,440.0 690.0,426.0" stroke="#000" stroke-width="1" /><polyline fill="none" opacity="100" points="694.0,440.0 694.0,426.0" stroke="#000" stroke-width="1" /><polyline fill="none" opacity="100" points="698.0,440.0 698.0,426.0" stroke="#000" stroke-width="1" /><polyline fill="none" opacity="100" points="702.0,440.0 702.0,426.0" stroke="#000" stroke-width="1" /><polyline fill="none" opacity="100" points="706.0,440.0 706.0,426.0" stroke="#000" stroke-width="1" /><polyline fill="none" opacity="100" points="908.0,748.0 908.0,734.0" stroke="#000" stroke-width="1" /><polyline fill="none" opacity="100" points="904.0,748.0 904.0,734.0" stroke="#000" stroke-width="1" /><polyline fill="none" opacity="100" points="900.0,748.0 900.0,734.0" stroke="#000" stroke-width="1" /><polyline fill="none" opacity="100" points="896.0,748.0 896.0,734.0" stroke="#000" stroke-width="1" /><polyline fill="none" opacity="100" points="892.0,748.0 892.0,734.0" stroke="#000" stroke-width="1" /><polyline fill="none" opacity="100" points="888.0,748.0 888.0,734.0" stroke="#000" stroke-width="1" /><polyline fill="none" opacity="100" points="884.0,748.0 884.0,734.0" stroke="#000" stroke-width="1" /><polyline fill="none" opacity="100" points="880.0,748.0 880.0,734.0" stroke="#000" stroke-width="1" /><polyline fill="none" opacity="100" points="876.0,748.0 876.0,734.0" stroke="#000" stroke-width="1" /><polyline fill="none" opacity="100" points="872.0,748.0 872.0,734.0" stroke="#000" stroke-width="1" /><polyline fill="none" opacity="100" points="673.0,744.0 673.0,730.0" stroke="#000" stroke-width="1" /><polyline fill="none" opacity="100" points="677.0,744.0 677.0,730.0" stroke="#000" stroke-width="1" /><polyline fill="none" opacity="100" points="681.0,744.0 681.0,730.0" stroke="#000" stroke-width="1" /><polyline fill="none" opacity="100" points="685.0,744.0 685.0,730.0" stroke="#000" stroke-width="1" /><polyline fill="none" opacity="100" points="689.0,744.0 689.0,730.0" stroke="#000" stroke-width="1" /><polyline fill="none" opacity="100" points="693.0,744.0 693.0,730.0" stroke="#000" stroke-width="1" /><polyline fill="none" opacity="100" points="697.0,744.0 697.0,730.0" stroke="#000" stroke-width="1" /><polyline fill="none" opacity="100" points="701.0,744.0 701.0,730.0" stroke="#000" stroke-width="1" /><polyline fill="none" opacity="100" points="705.0,744.0 705.0,730.0" stroke="#000" stroke-width="1" /><polyline fill="none" opacity="100" points="709.0,744.0 709.0,730.0" stroke="#000" stroke-width="1" /><polyline fill="none" opacity="100" points="596.0,619.0 596.0,566.0" stroke="#000" stroke-width="1" /><polyline fill="none" opacity="100" points="592.0,619.0 592.0,566.0" stroke="#000" stroke-width="1" /><polyline fill="none" opacity="100" points="588.0,619.0 588.0,566.0" stroke="#000" stroke-width="1" /><polyline fill="none" opacity="100" points="584.0,619.0 584.0,566.0" stroke="#000" stroke-width="1" /><polyline fill="none" opacity="100" points="580.0,619.0 580.0,566.0" stroke="#000" stroke-width="1" /><polyline fill="none" opacity="100" points="576.0,619.0 576.0,566.0" stroke="#000" stroke-width="1" /><polyline fill="none" opacity="100" points="572.0,619.0 572.0,566.0" stroke="#000" stroke-width="1" /><polyline fill="none" opacity="100" points="568.0,619.0 568.0,566.0" stroke="#000" stroke-width="1" /><polyline fill="none" opacity="100" points="564.0,619.0 564.0,566.0" stroke="#000" stroke-width="1" /><polyline fill="none" opacity="100" points="560.0,619.0 560.0,566.0" stroke="#000" stroke-width="1" /><polyline fill="none" opacity="100" points="556.0,619.0 556.0,566.0" stroke="#000" stroke-width="1" /><polyline fill="none" opacity="100" points="552.0,619.0 552.0,566.0" stroke="#000" stroke-width="1" /><polygon fill="#D0D0D0" opacity="100" points="691.0,560.0 700.0,560.0 700.0,621.0 691.0,621.0" stroke="#000" stroke-width="1" /><polyline fill="none" opacity="100" points="608.0,530.0 608.0,558.0 599.0,558.0" stroke="#000" stroke-width="1" /><text fill="#FFF" font-family="Arial" font-size="10" font-weight="normal" opacity="100" transform="rotate(-90.0 597.0,556.0) translate(0 10)" x="597.0" y="556.0">кассы</text><polyline fill="none" opacity="100" points="608.0,558.0 629.0,558.0" stroke="#000" stroke-width="0.5" /><polygon fill="none" opacity="100" points="632.0,557.0 627.0,560.0 630.0,565.0 635.0,562.0" stroke="#000" stroke-width="1" /><polyline fill="none" opacity="100" points="661.0,621.0 691.0,621.0" stroke="#000" stroke-width="0.5" /><polyline fill="none" opacity="100" points="636.0,566.0 632.0,568.0" stroke="#090" stroke-width="1" /><polyline fill="none" opacity="100" points="637.7889,569.5777 633.7889,571.5777" stroke="#090" stroke-width="1" /><polyline fill="none" opacity="100" points="639.5777,573.1554 635.5777,575.1554" stroke="#090" stroke-width="1" /><polyline fill="none" opacity="100" points="641.3666,576.7331 637.3666,578.7331" stroke="#090" stroke-width="1" /><polyline fill="none" opacity="100" points="643.1554,580.3108 639.1554,582.3108" stroke="#090" stroke-width="1" /><polyline fill="none" opacity="100" points="644.9443,583.8885 640.9443,585.8885" stroke="#090" stroke-width="1" /><polyline fill="none" opacity="100" points="646.7331,587.4663 642.7331,589.4663" stroke="#090" stroke-width="1" /><polyline fill="none" opacity="100" points="648.522,591.044 644.522,593.044" stroke="#090" stroke-width="1" /><polyline fill="none" opacity="100" points="650.3108,594.6217 646.3108,596.6217" stroke="#090" stroke-width="1" /><polyline fill="none" opacity="100" points="652.0997,598.1994 648.0997,600.1994" stroke="#090" stroke-width="1" /><polyline fill="none" opacity="100" points="653.8885,601.7771 649.8885,603.7771" stroke="#090" stroke-width="1" /><polyline fill="none" opacity="100" points="655.6774,605.3548 651.6774,607.3548" stroke="#090" stroke-width="1" /><polyline fill="none" opacity="100" points="657.4663,608.9325 653.4663,610.9325" stroke="#090" stroke-width="1" /><polyline fill="none" opacity="100" points="659.2551,612.5102 655.2551,614.5102" stroke="#090" stroke-width="1" /><polyline fill="none" opacity="100" points="661.044,616.0879 657.044,618.0879" stroke="#090" stroke-width="1" /><polyline fill="none" opacity="100" points="662.8328,619.6656 658.8328,621.6656" stroke="#090" stroke-width="1" /><polyline fill="none" opacity="100" points="686.0,634.0 706.0,634.0" stroke="#F00" stroke-width="1" /><polygon fill="#F00" opacity="100" points="700.2044,635.5529 706.0,634.0 700.2044,632.4471" stroke="#F00" stroke-width="1" /><polyline fill="none" opacity="100" points="704.0,546.0 685.0,546.0" stroke="#090" stroke-width="1" /><polygon fill="#090" opacity="100" points="690.5058,544.5247 685.0,546.0 690.5058,547.4753" stroke="#090" stroke-width="1" /><polygon fill="#34349C" opacity="100" points="687.0,596.0 687.0,600.0 688.0,600.0 688.0,596.0" stroke="#34349C" stroke-width="1" /><polygon fill="#F00" opacity="100" points="687.0,592.0 687.0,596.0 688.0,596.0 688.0,592.0" stroke="#F00" stroke-width="1" /><text fill="#00AFAF" font-family="Arial" font-size="15" font-weight="normal" opacity="100" transform="rotate(-90.0 780.0,351.0) translate(0 15)" x="780.0" y="351.0">улица Новинки</text><text fill="#00AFAF" font-family="Arial" font-size="15" font-weight="normal" opacity="100" transform="rotate(-90.0 780.0,914.0) translate(0 15)" x="780.0" y="914.0">улица Нагатинская</text><text fill="#00AFAF" font-family="Arial" font-size="15" font-weight="normal" opacity="100" transform="rotate(-0.0 750.0,580.0) translate(0 15)" x="750.0" y="580.0">проспект Андропова</text><text fill="#00AFAF" font-family="Arial" font-size="15" font-weight="normal" opacity="100" transform="rotate(-0.0 -234.0,581.0) translate(0 15)" x="-234.0" y="581.0">проспект Андропова</text><g transform="rotate(-90.0,340.0,585.0)"><text fill="#FFD900" font-family="Arial" font-size="25" font-weight="normal" opacity="100" x="455.25" y="938.5">1</text><text fill="#FFD900" font-family="Arial" font-size="25" font-weight="normal" opacity="100" x="453.25" y="1126.5">2</text><text fill="#FFD900" font-family="Arial" font-size="25" font-weight="normal" opacity="100" x="209.25" y="1153.5">3</text><text fill="#FFD900" font-family="Arial" font-size="25" font-weight="normal" opacity="100" x="205.25" y="944.5">4</text><text fill="#FFD900" font-family="Arial" font-size="25" font-weight="normal" opacity="100" x="147.25" y="213.5">5</text><text fill="#FFD900" font-family="Arial" font-size="25" font-weight="normal" opacity="100" x="148.25" y="139.5">6</text><text fill="#FFD900" font-family="Arial" font-size="25" font-weight="normal" opacity="100" x="463.25" y="133.5">7</text><text fill="#FFD900" font-family="Arial" font-size="25" font-weight="normal" opacity="100" x="462.25" y="214.5">8</text></g></g></g></svg>