<?xml version="1.0" encoding="utf-8" ?>
<svg baseProfile="tiny" height="790px" version="1.2" width="470px" xmlns="http://www.w3.org/2000/svg" xmlns:ev="http://www.w3.org/2001/xml-events" xmlns:xlink="http://www.w3.org/1999/xlink"><defs /><g><g transform="rotate(-70.0,235.0,395.0)"><polyline fill="none" opacity="100" points="-32.0,388.0 -32.0,354.0" stroke="#7F7F7F" stroke-width="1" /><polyline fill="none" opacity="100" points="-36.0,388.0 -36.0,354.0" stroke="#7F7F7F" stroke-width="1" /><polyline fill="none" opacity="100" points="-40.0,388.0 -40.0,354.0" stroke="#7F7F7F" stroke-width="1" /><polyline fill="none" opacity="100" points="-44.0,388.0 -44.0,354.0" stroke="#7F7F7F" stroke-width="1" /><polyline fill="none" opacity="100" points="-48.0,388.0 -48.0,354.0" stroke="#7F7F7F" stroke-width="1" /><polyline fill="none" opacity="100" points="-52.0,388.0 -52.0,354.0" stroke="#7F7F7F" stroke-width="1" /><polyline fill="none" opacity="100" points="-56.0,388.0 -56.0,354.0" stroke="#7F7F7F" stroke-width="1" /><polyline fill="none" opacity="100" points="-60.0,388.0 -60.0,354.0" stroke="#7F7F7F" stroke-width="1" /><polyline fill="none" opacity="100" points="-64.0,388.0 -64.0,354.0" stroke="#7F7F7F" stroke-width="1" /><polyline fill="none" opacity="100" points="-68.0,388.0 -68.0,354.0" stroke="#7F7F7F" stroke-width="1" /><polyline fill="none" opacity="100" points="-72.0,388.0 -72.0,354.0" stroke="#7F7F7F" stroke-width="1" /><polyline fill="none" opacity="100" points="-76.0,388.0 -76.0,354.0" stroke="#7F7F7F" stroke-width="1" /><polyline fill="none" opacity="100" points="-80.0,388.0 -80.0,354.0" stroke="#7F7F7F" stroke-width="1" /><polyline fill="none" opacity="100" points="-84.0,388.0 -84.0,354.0" stroke="#7F7F7F" stroke-width="1" /><polyline fill="none" opacity="100" points="-88.0,388.0 -88.0,354.0" stroke="#7F7F7F" stroke-width="1" /><polyline fill="none" opacity="100" points="-92.0,388.0 -92.0,354.0" stroke="#7F7F7F" stroke-width="1" /><polyline fill="none" opacity="100" points="-96.0,388.0 -96.0,354.0" stroke="#7F7F7F" stroke-width="1" /><polyline fill="none" opacity="100" points="-100.0,388.0 -100.0,354.0" stroke="#7F7F7F" stroke-width="1" /><polygon fill="#9B5509" opacity="100" points="-26.0,354.0 -106.0,354.0 -106.0,351.0 -26.0,351.0" stroke="#000" stroke-width="1" /><polygon fill="#9B5509" opacity="100" points="-26.0,362.0 -26.0,367.0 -106.0,367.0 -106.0,362.0" stroke="#000" stroke-width="1" /><polygon fill="#9B5509" opacity="100" points="-26.0,375.0 -26.0,380.0 -106.0,380.0 -106.0,375.0" stroke="#000" stroke-width="1" /><polygon fill="#9B5509" opacity="100" points="-26.0,388.0 -106.0,388.0 -106.0,391.0 -26.0,391.0" stroke="#000" stroke-width="1" /><polygon fill="#FFF" opacity="0.7" points="-66.0,350.0 -84.0,350.0 -84.0,392.0 -66.0,392.0" stroke="#FFF" stroke-width="1" /><polyline fill="none" opacity="1.0" points="408.0,391.0 394.0,391.0 394.0,393.0 435.0,393.0" stroke="#000" stroke-width="1" /><polyline fill="none" opacity="1.0" points="435.0,407.0 394.0,407.0 394.0,410.0" stroke="#000" stroke-width="1" /><polyline fill="none" opacity="1.0" points="394.0,332.0 394.0,351.0 408.0,351.0" stroke="#000" stroke-width="1" /><polyline fill="none" opacity="1.0" points="-106.0,351.0 -106.0,348.0 -84.0,348.0 -84.0,394.0 -106.0,394.0 -106.0,391.0" stroke="#000" stroke-width="1" /><polyline fill="none" opacity="1.0" points="-18.0,463.0 -66.0,463.0 -66.0,319.0 -154.0,319.0 -154.0,423.0 -84.0,423.0 -84.0,481.0 -18.0,481.0" stroke="#000" stroke-width="1" /><polyline fill="none" opacity="1.0" points="-55.0,332.0 -55.0,348.0 -26.0,348.0 -26.0,351.0" stroke="#000" stroke-width="1" /><polyline fill="none" opacity="1.0" points="-55.0,410.0 -55.0,394.0 -26.0,394.0 -26.0,391.0" stroke="#000" stroke-width="1" /><polyline fill="none" opacity="1.0" points="-18.0,477.0 -55.0,477.0" stroke="#000" stroke-width="0.5" /><polyline fill="none" opacity="1.0" points="-20.0,463.0 -20.0,477.0" stroke="#000" stroke-width="1" /><polyline fill="none" opacity="1.0" points="-24.0,463.0 -24.0,477.0" stroke="#000" stroke-width="1" /><polyline fill="none" opacity="1.0" points="-28.0,463.0 -28.0,477.0" stroke="#000" stroke-width="1" /><polyline fill="none" opacity="1.0" points="-32.0,463.0 -32.0,477.0" stroke="#000" stroke-width="1" /><polyline fill="none" opacity="1.0" points="-36.0,463.0 -36.0,477.0" stroke="#000" stroke-width="1" /><polyline fill="none" opacity="1.0" points="-40.0,463.0 -40.0,477.0" stroke="#000" stroke-width="1" /><polyline fill="none" opacity="1.0" points="-44.0,463.0 -44.0,477.0" stroke="#000" stroke-width="1" /><polyline fill="none" opacity="1.0" points="-48.0,463.0 -48.0,477.0" stroke="#000" stroke-width="1" /><polyline fill="none" opacity="1.0" points="-52.0,463.0 -52.0,477.0" stroke="#000" stroke-width="1" /><polyline fill="none" opacity="1.0" points="-108.0,394.0 -118.0,394.0" stroke="#000" stroke-width="0.5" /><polyline fill="none" opacity="1.0" points="-134.0,362.0 -134.0,319.0" stroke="#000" stroke-width="0.5" /><polygon fill="none" opacity="1.0" points="-121.0,391.0 -119.0,397.0 -125.0,399.0 -127.0,393.0" stroke="#000" stroke-width="1" /><polyline fill="none" opacity="1.0" points="-127.0,390.0 -123.0,389.0" stroke="#090" stroke-width="1" /><polyline fill="none" opacity="1.0" points="-127.9701,386.1194 -123.9701,385.1194" stroke="#090" stroke-width="1" /><polyline fill="none" opacity="1.0" points="-128.9403,382.2389 -124.9403,381.2389" stroke="#090" stroke-width="1" /><polyline fill="none" opacity="1.0" points="-129.9104,378.3583 -125.9104,377.3583" stroke="#090" stroke-width="1" /><polyline fill="none" opacity="1.0" points="-130.8806,374.4777 -126.8806,373.4777" stroke="#090" stroke-width="1" /><polyline fill="none" opacity="1.0" points="-131.8507,370.5971 -127.8507,369.5971" stroke="#090" stroke-width="1" /><polyline fill="none" opacity="1.0" points="-132.8209,366.7166 -128.8209,365.7166" stroke="#090" stroke-width="1" /><polyline fill="none" opacity="1.0" points="-133.791,362.836 -129.791,361.836" stroke="#090" stroke-width="1" /><polyline fill="none" opacity="1.0" points="-102.0,321.0 -98.0,321.0" stroke="#F00" stroke-width="1" /><polyline fill="none" opacity="1.0" points="-102.0,325.0 -98.0,325.0" stroke="#F00" stroke-width="1" /><polyline fill="none" opacity="1.0" points="-102.0,329.0 -98.0,329.0" stroke="#F00" stroke-width="1" /><polyline fill="none" opacity="1.0" points="-102.0,333.0 -98.0,333.0" stroke="#F00" stroke-width="1" /><polyline fill="none" opacity="1.0" points="-102.0,337.0 -98.0,337.0" stroke="#F00" stroke-width="1" /><polyline fill="none" opacity="1.0" points="-102.0,341.0 -98.0,341.0" stroke="#F00" stroke-width="1" /><polyline fill="none" opacity="1.0" points="-102.0,345.0 -98.0,345.0" stroke="#F00" stroke-width="1" /><polygon fill="#94949C" opacity="1.0" points="-123.0,324.0 -118.0,324.0 -118.0,322.0 -123.0,322.0" stroke="#94949C" stroke-width="1" /><polygon fill="#F00" opacity="1.0" points="-128.0,324.0 -123.0,324.0 -123.0,322.0 -128.0,322.0" stroke="#F00" stroke-width="1" /><polyline fill="none" opacity="1.0" points="-154.0,354.0 -162.0,354.0 -162.0,382.0 -154.0,382.0" stroke="#000" stroke-width="1" /><text fill="#000" font-family="Arial" font-size="10" font-weight="normal" opacity="1.0" transform="rotate(90.0 -151.0,356.0) translate(0 10)" x="-151.0" y="356.0">кассы</text><polyline fill="none" opacity="1.0" points="490.0,388.0 490.0,354.0" stroke="#7F7F7F" stroke-width="1" /><polyline fill="none" opacity="1.0" points="486.0,388.0 486.0,354.0" stroke="#7F7F7F" stroke-width="1" /><polyline fill="none" opacity="1.0" points="482.0,388.0 482.0,354.0" stroke="#7F7F7F" stroke-width="1" /><polyline fill="none" opacity="1.0" points="478.0,388.0 478.0,354.0" stroke="#7F7F7F" stroke-width="1" /><polyline fill="none" opacity="1.0" points="474.0,388.0 474.0,354.0" stroke="#7F7F7F" stroke-width="1" /><polyline fill="none" opacity="1.0" points="470.0,388.0 470.0,354.0" stroke="#7F7F7F" stroke-width="1" /><polyline fill="none" opacity="1.0" points="466.0,388.0 466.0,354.0" stroke="#7F7F7F" stroke-width="1" /><polyline fill="none" opacity="1.0" points="462.0,388.0 462.0,354.0" stroke="#7F7F7F" stroke-width="1" /><polyline fill="none" opacity="1.0" points="458.0,388.0 458.0,354.0" stroke="#7F7F7F" stroke-width="1" /><polyline fill="none" opacity="1.0" points="454.0,388.0 454.0,354.0" stroke="#7F7F7F" stroke-width="1" /><polyline fill="none" opacity="1.0" points="450.0,388.0 450.0,354.0" stroke="#7F7F7F" stroke-width="1" /><polyline fill="none" opacity="1.0" points="446.0,388.0 446.0,354.0" stroke="#7F7F7F" stroke-width="1" /><polyline fill="none" opacity="1.0" points="442.0,388.0 442.0,354.0" stroke="#7F7F7F" stroke-width="1" /><polyline fill="none" opacity="1.0" points="438.0,388.0 438.0,354.0" stroke="#7F7F7F" stroke-width="1" /><polyline fill="none" opacity="1.0" points="434.0,388.0 434.0,354.0" stroke="#7F7F7F" stroke-width="1" /><polyline fill="none" opacity="1.0" points="430.0,388.0 430.0,354.0" stroke="#7F7F7F" stroke-width="1" /><polyline fill="none" opacity="1.0" points="426.0,388.0 426.0,354.0" stroke="#7F7F7F" stroke-width="1" /><polyline fill="none" opacity="1.0" points="422.0,388.0 422.0,354.0" stroke="#7F7F7F" stroke-width="1" /><polyline fill="none" opacity="1.0" points="418.0,388.0 418.0,354.0" stroke="#7F7F7F" stroke-width="1" /><polyline fill="none" opacity="1.0" points="414.0,388.0 414.0,354.0" stroke="#7F7F7F" stroke-width="1" /><polygon fill="#9B5509" opacity="1.0" points="496.0,354.0 408.0,354.0 408.0,351.0 496.0,351.0" stroke="#000" stroke-width="1" /><polygon fill="#9B5509" opacity="1.0" points="496.0,362.0 496.0,367.0 408.0,367.0 408.0,362.0" stroke="#000" stroke-width="1" /><polygon fill="#9B5509" opacity="1.0" points="496.0,375.0 496.0,380.0 408.0,380.0 408.0,375.0" stroke="#000" stroke-width="1" /><polygon fill="#9B5509" opacity="1.0" points="496.0,388.0 408.0,388.0 408.0,391.0 496.0,391.0" stroke="#000" stroke-width="1" /><polyline fill="none" opacity="1.0" points="481.0,430.0 481.0,407.0 450.0,407.0" stroke="#000" stroke-width="1" /><polyline fill="none" opacity="1.0" points="450.0,393.0 481.0,393.0 481.0,323.0 554.0,323.0" stroke="#000" stroke-width="1" /><polyline fill="none" opacity="1.0" points="554.0,323.0 560.0234,323.1172 565.7188,323.5938 571.0859,324.4297 576.125,325.625 580.8359,327.1797 585.2188,329.0938 589.2734,331.3672 593.0,334.0 596.3984,336.9922 599.4688,340.3438 602.2109,344.0547 604.625,348.125 606.7109,352.5547 608.4688,357.3438 609.8984,362.4922 611.0,368.0" stroke="#000" stroke-width="1" /><polyline fill="none" opacity="1.0" points="611.0,368.0 611.0,489.0 548.0,489.0" stroke="#000" stroke-width="1" /><polyline fill="none" opacity="1.0" points="516.0,483.0 518.0,481.0" stroke="#000" stroke-width="1" /><polyline fill="none" opacity="1.0" points="492.0,462.0 494.0,460.0" stroke="#000" stroke-width="1" /><polyline fill="none" opacity="1.0" points="548.0,489.0 545.7656,488.8594 543.5625,488.6875 541.3906,488.4844 539.25,488.25 537.1406,487.9844 535.0625,487.6875 533.0156,487.3594 531.0,487.0 529.0156,486.6094 527.0625,486.1875 525.1406,485.7344 523.25,485.25 521.3906,484.7344 519.5625,484.1875 517.7656,483.6094 516.0,483.0" stroke="#000" stroke-width="1" /><polyline fill="none" opacity="1.0" points="492.0,462.0 490.9609,460.2344 489.9688,458.4375 489.0234,456.6094 488.125,454.75 487.2734,452.8594 486.4688,450.9375 485.7109,448.9844 485.0,447.0 484.3359,444.9844 483.7188,442.9375 483.1484,440.8594 482.625,438.75 482.1484,436.6094 481.7188,434.4375 481.3359,432.2344 481.0,430.0" stroke="#000" stroke-width="1" /><polyline fill="none" opacity="1.0" points="577.0,442.0 552.0,442.0 546.0,435.0 504.0,472.0" stroke="#000" stroke-width="0.5" /><polyline fill="none" opacity="1.0" points="481.0,407.0 525.0,407.0" stroke="#000" stroke-width="0.5" /><polygon fill="none" opacity="1.0" points="522.0,417.0 527.0,412.0 522.0,407.0 517.0,412.0" stroke="#000" stroke-width="1" /><polyline fill="none" opacity="1.0" points="547.0,433.0 544.0,436.0" stroke="#090" stroke-width="1" /><polyline fill="none" opacity="1.0" points="544.0962,430.249 541.0962,433.249" stroke="#090" stroke-width="1" /><polyline fill="none" opacity="1.0" points="541.1924,427.498 538.1924,430.498" stroke="#090" stroke-width="1" /><polyline fill="none" opacity="1.0" points="538.2886,424.7471 535.2886,427.7471" stroke="#090" stroke-width="1" /><polyline fill="none" opacity="1.0" points="535.3848,421.9961 532.3848,424.9961" stroke="#090" stroke-width="1" /><polyline fill="none" opacity="1.0" points="532.4809,419.2451 529.4809,422.2451" stroke="#090" stroke-width="1" /><polyline fill="none" opacity="1.0" points="529.5771,416.4941 526.5771,419.4941" stroke="#090" stroke-width="1" /><polyline fill="none" opacity="1.0" points="607.0,439.0 607.0,444.0" stroke="#F00" stroke-width="1" /><polyline fill="none" opacity="1.0" points="603.0,439.0 603.0,444.0" stroke="#F00" stroke-width="1" /><polyline fill="none" opacity="1.0" points="599.0,439.0 599.0,444.0" stroke="#F00" stroke-width="1" /><polyline fill="none" opacity="1.0" points="595.0,439.0 595.0,444.0" stroke="#F00" stroke-width="1" /><polyline fill="none" opacity="1.0" points="591.0,439.0 591.0,444.0" stroke="#F00" stroke-width="1" /><polyline fill="none" opacity="1.0" points="587.0,439.0 587.0,444.0" stroke="#F00" stroke-width="1" /><polyline fill="none" opacity="1.0" points="583.0,439.0 583.0,444.0" stroke="#F00" stroke-width="1" /><polyline fill="none" opacity="1.0" points="579.0,439.0 579.0,444.0" stroke="#F00" stroke-width="1" /><polyline fill="none" opacity="1.0" points="490.0,460.0 482.0,464.0 472.0,437.0 481.0,434.0" stroke="#000" stroke-width="1" /><text fill="#000" font-family="Arial" font-size="10" font-weight="normal" opacity="1.0" transform="rotate(70.0 484.0,435.0) translate(0 10)" x="484.0" y="435.0">кассы</text><polygon fill="#94949C" opacity="1.0" points="174.0,374.0 174.0,378.0 172.0,378.0 172.0,374.0" stroke="#94949C" stroke-width="1" /><polygon fill="#F00" opacity="1.0" points="174.0,370.0 174.0,374.0 172.0,374.0 172.0,370.0" stroke="#F00" stroke-width="1" /><polygon fill="#94949C" opacity="1.0" points="598.0,354.0 603.0,354.0 603.0,352.0 598.0,352.0" stroke="#94949C" stroke-width="1" /><polygon fill="#F00" opacity="1.0" points="593.0,354.0 598.0,354.0 598.0,352.0 593.0,352.0" stroke="#F00" stroke-width="1" /><polygon fill="#D0EFFF" opacity="1.0" points="435.0,407.0 435.0,393.0 450.0,393.0 450.0,407.0" stroke="#000" stroke-width="1" /><text fill="#000" font-family="Arial" font-size="6" font-weight="normal" opacity="1.0" transform="rotate(-0.0 436.0,397.0) translate(0 6)" x="436.0" y="397.0">лифт</text><text fill="#00AFAF" font-family="Arial" font-size="15" font-weight="normal" opacity="1.0" transform="rotate(-0.0 137.0,620.0) translate(0 15)" x="137.0" y="620.0">Калужское шоссе</text><polygon fill="#03795F" opacity="1.0" points="-55.0,332.0 -55.0,302.0 394.0,302.0 394.0,332.0" stroke="#000" stroke-width="1" /><polygon fill="#03795F" opacity="1.0" points="-55.0,440.0 -55.0,410.0 394.0,410.0 394.0,440.0" stroke="#000" stroke-width="1" /><text fill="#03795F" font-family="Arial" font-size="20" font-weight="normal" opacity="1.0" transform="rotate(-0.0 -52.0,278.0) translate(0 20)" x="-52.0" y="278.0">&lt;&lt; Коммунарка</text><text fill="#03795F" font-family="Arial" font-size="20" font-weight="normal" opacity="1.0" transform="rotate(-0.0 268.0,440.0) translate(0 20)" x="268.0" y="440.0">Тютчевская &gt;&gt;</text><text fill="#03795F" font-family="Arial" font-size="25" font-weight="bold" opacity="1.0" transform="rotate(-0.0 94.0,340.0) translate(0 25)" x="94.0" y="340.0">Корниловская</text><g transform="rotate(70.0,235.0,395.0)"><text fill="#FFD900" font-family="Arial" font-size="25" font-weight="normal" opacity="1.0" x="239.25" y="690.5">1</text><text fill="#FFD900" font-family="Arial" font-size="25" font-weight="normal" opacity="1.0" x="425.25" y="206.5">2</text></g></g></g></svg>