<?xml version="1.0" encoding="utf-8" ?>
<svg baseProfile="tiny" height="550px" version="1.2" width="930px" xmlns="http://www.w3.org/2000/svg" xmlns:ev="http://www.w3.org/2001/xml-events" xmlns:xlink="http://www.w3.org/1999/xlink"><defs /><g><g transform="rotate(-40.0,465.0,275.0)"><polygon fill="#E41C0C" opacity="100" points="314.0,260.0 764.0,260.0 764.0,290.0 314.0,290.0" stroke="#000" stroke-width="1" /><polygon fill="#E41C0C" opacity="100" points="314.0,400.0 764.0,400.0 764.0,370.0 314.0,370.0" stroke="#000" stroke-width="1" /><text fill="#E41C0C" font-family="Arial" font-size="20" font-weight="normal" opacity="100" transform="rotate(-0.0 638.0,400.0) translate(0 20)" x="638.0" y="400.0">Сокольники &gt;&gt;</text><text fill="#E41C0C" font-family="Arial" font-size="20" font-weight="normal" opacity="100" transform="rotate(-0.0 315.0,236.0) translate(0 20)" x="315.0" y="236.0">&lt;&lt; Комсомольская</text><text fill="#E41C0C" font-family="Arial" font-size="25" font-weight="bold" opacity="100" transform="rotate(-0.0 443.0,327.0) translate(0 25)" x="443.0" y="327.0">Красносельская</text><polygon fill="#34349C" opacity="100" points="540.0,332.0 540.0,336.0 541.0,336.0 541.0,332.0" stroke="#34349C" stroke-width="1" /><polygon fill="#F00" opacity="100" points="540.0,328.0 540.0,332.0 541.0,332.0 541.0,328.0" stroke="#F00" stroke-width="1" /><polyline fill="none" opacity="100" points="247.0,316.0 245.0234,316.4922 243.2188,317.0938 241.5859,317.8081 240.125,318.625 238.8359,319.5239 237.7188,320.5391 236.7734,321.6807 236.0,323.0 235.3984,324.5928 234.9688,326.3359 234.7109,328.1475 234.625,330.0 234.7109,331.8525 234.9688,333.6641 235.3984,335.4072 236.0,337.0 236.7734,338.3193 237.7188,339.4609 238.8359,340.4761 240.125,341.375 241.5859,342.1919 243.2188,342.9062 245.0234,343.5078 247.0,344.0" stroke="#E0E0E0" stroke-width="1" /><polyline fill="none" opacity="100" points="247.0,298.0 314.0,298.0 314.0,290.0" stroke="#000" stroke-width="1" /><polyline fill="none" opacity="100" points="314.0,370.0 314.0,363.0 247.0,363.0" stroke="#000" stroke-width="1" /><polyline fill="none" opacity="100" points="297.0,316.0 247.0,316.0 247.0,200.0" stroke="#000" stroke-width="1" /><polyline fill="none" opacity="100" points="199.0,317.0 204.0,317.0 204.0,344.0 199.0,344.0" stroke="#000" stroke-width="1" /><polyline fill="none" opacity="100" points="297.0,344.0 247.0,344.0 247.0,376.0 204.0,376.0 204.0,363.0 161.0,363.0 150.0,352.0 150.0,309.0 161.0,298.0 204.0,298.0 204.0,222.0" stroke="#000" stroke-width="1" /><polyline fill="none" opacity="100" points="295.0,344.0 295.0,316.0" stroke="#000" stroke-width="1" /><polyline fill="none" opacity="100" points="291.0,344.0 291.0,316.0" stroke="#000" stroke-width="1" /><polyline fill="none" opacity="100" points="287.0,344.0 287.0,316.0" stroke="#000" stroke-width="1" /><polyline fill="none" opacity="100" points="283.0,344.0 283.0,316.0" stroke="#000" stroke-width="1" /><polyline fill="none" opacity="100" points="279.0,344.0 279.0,316.0" stroke="#000" stroke-width="1" /><polyline fill="none" opacity="100" points="275.0,344.0 275.0,316.0" stroke="#000" stroke-width="1" /><polyline fill="none" opacity="100" points="271.0,344.0 271.0,316.0" stroke="#000" stroke-width="1" /><polyline fill="none" opacity="100" points="267.0,344.0 267.0,316.0" stroke="#000" stroke-width="1" /><polyline fill="none" opacity="100" points="263.0,344.0 263.0,316.0" stroke="#000" stroke-width="1" /><polyline fill="none" opacity="100" points="259.0,344.0 259.0,316.0" stroke="#000" stroke-width="1" /><polyline fill="none" opacity="100" points="255.0,344.0 255.0,316.0" stroke="#000" stroke-width="1" /><polyline fill="none" opacity="100" points="251.0,344.0 251.0,316.0" stroke="#000" stroke-width="1" /><polyline fill="none" opacity="100" points="199.0,363.0 199.0,344.0" stroke="#000" stroke-width="1" /><polyline fill="none" opacity="100" points="195.0,363.0 195.0,344.0" stroke="#000" stroke-width="1" /><polyline fill="none" opacity="100" points="191.0,363.0 191.0,344.0" stroke="#000" stroke-width="1" /><polyline fill="none" opacity="100" points="187.0,363.0 187.0,344.0" stroke="#000" stroke-width="1" /><polyline fill="none" opacity="100" points="183.0,363.0 183.0,344.0" stroke="#000" stroke-width="1" /><polyline fill="none" opacity="100" points="179.0,363.0 179.0,344.0" stroke="#000" stroke-width="1" /><polyline fill="none" opacity="100" points="175.0,363.0 175.0,344.0" stroke="#000" stroke-width="1" /><polyline fill="none" opacity="100" points="171.0,363.0 171.0,344.0" stroke="#000" stroke-width="1" /><polyline fill="none" opacity="100" points="197.0,341.0 197.0,320.0" stroke="#000" stroke-width="1" /><polyline fill="none" opacity="100" points="193.0,341.0 193.0,320.0" stroke="#000" stroke-width="1" /><polyline fill="none" opacity="100" points="189.0,341.0 189.0,320.0" stroke="#000" stroke-width="1" /><polyline fill="none" opacity="100" points="185.0,341.0 185.0,320.0" stroke="#000" stroke-width="1" /><polyline fill="none" opacity="100" points="181.0,341.0 181.0,320.0" stroke="#000" stroke-width="1" /><polyline fill="none" opacity="100" points="177.0,341.0 177.0,320.0" stroke="#000" stroke-width="1" /><polyline fill="none" opacity="100" points="173.0,341.0 173.0,320.0" stroke="#000" stroke-width="1" /><polyline fill="none" opacity="100" points="199.0,298.0 199.0,317.0" stroke="#000" stroke-width="1" /><polyline fill="none" opacity="100" points="195.0,298.0 195.0,317.0" stroke="#000" stroke-width="1" /><polyline fill="none" opacity="100" points="191.0,298.0 191.0,317.0" stroke="#000" stroke-width="1" /><polyline fill="none" opacity="100" points="187.0,298.0 187.0,317.0" stroke="#000" stroke-width="1" /><polyline fill="none" opacity="100" points="183.0,298.0 183.0,317.0" stroke="#000" stroke-width="1" /><polyline fill="none" opacity="100" points="179.0,298.0 179.0,317.0" stroke="#000" stroke-width="1" /><polyline fill="none" opacity="100" points="175.0,298.0 175.0,317.0" stroke="#000" stroke-width="1" /><polyline fill="none" opacity="100" points="171.0,298.0 171.0,317.0" stroke="#000" stroke-width="1" /><polygon fill="#D0D0D0" opacity="100" points="168.0,317.0 199.0,317.0 199.0,320.0 168.0,320.0" stroke="#000" stroke-width="1" /><polygon fill="#D0D0D0" opacity="100" points="199.0,344.0 199.0,341.0 168.0,341.0 168.0,344.0" stroke="#000" stroke-width="1" /><polygon fill="#D0D0D0" opacity="100" points="222.0,248.0 228.0,248.0 228.0,265.0 222.0,265.0" stroke="#000" stroke-width="1" /><polyline fill="none" opacity="100" points="321.0,329.0 304.0,329.0" stroke="#F00" stroke-width="1" /><polygon fill="#F00" opacity="100" points="308.9262,327.68 304.0,329.0 308.9262,330.32" stroke="#F00" stroke-width="1" /><polyline fill="none" opacity="100" points="205.0,306.0 189.0,306.0" stroke="#090" stroke-width="1" /><polygon fill="#090" opacity="100" points="193.6364,304.7577 189.0,306.0 193.6364,307.2423" stroke="#090" stroke-width="1" /><polyline fill="none" opacity="100" points="205.0,354.0 189.0,354.0" stroke="#090" stroke-width="1" /><polygon fill="#090" opacity="100" points="193.6364,352.7577 189.0,354.0 193.6364,355.2423" stroke="#090" stroke-width="1" /><polyline fill="none" opacity="100" points="248.0,306.0 267.0,306.0" stroke="#090" stroke-width="1" /><polygon fill="#090" opacity="100" points="261.4942,307.4753 267.0,306.0 261.4942,304.5247" stroke="#090" stroke-width="1" /><polyline fill="none" opacity="100" points="248.0,354.0 267.0,354.0" stroke="#090" stroke-width="1" /><polygon fill="#090" opacity="100" points="261.4942,355.4753 267.0,354.0 261.4942,352.5247" stroke="#090" stroke-width="1" /><polyline fill="none" opacity="100" points="188.0,330.0 203.0,330.0" stroke="#090" stroke-width="1" /><polyline fill="none" opacity="100" points="205.0,330.0 209.0,330.0" stroke="#BEB" stroke-width="1" /><polyline fill="none" opacity="100" points="209.0,330.0 210.4297,329.8672 211.8438,329.5938 213.2417,329.1753 214.625,328.625 215.9966,327.9692 217.3516,327.1641 218.6885,326.1963 220.0,325.0 221.2725,323.4521 222.5234,321.7109 223.7646,319.8818 225.0,318.0 226.2354,316.1182 227.4766,314.2891 228.7275,312.5479 230.0,311.0 231.3115,309.8037 232.6484,308.8359 234.0034,308.0308 235.375,307.375 236.7583,306.8247 238.1562,306.4062 239.5703,306.1328 241.0,306.0" stroke="#BEB" stroke-width="1" /><polyline fill="none" opacity="100" points="241.0,306.0 246.0,306.0" stroke="#BEB" stroke-width="1" /><polyline fill="none" opacity="100" points="209.0,330.0 210.4297,329.9531 211.8438,330.0625 213.2417,330.3325 214.625,330.75 215.9966,331.2886 217.3516,331.9922 218.6885,332.874 220.0,334.0 221.2725,335.4932 222.5234,337.1953 223.7646,339.001 225.0,340.875 226.2354,342.7646 227.4766,344.6172 228.7275,346.3975 230.0,348.0 231.3115,349.2666 232.6484,350.3203 234.0034,351.2271 235.375,352.0 236.7583,352.6831 238.1562,353.25 239.5703,353.6875 241.0,354.0" stroke="#BEB" stroke-width="1" /><polyline fill="none" opacity="100" points="241.0,354.0 246.0,354.0" stroke="#BEB" stroke-width="1" /><polygon fill="#D0D0D0" opacity="100" points="224.0,317.0 226.0,317.0 226.0,344.0 224.0,344.0" stroke="#000" stroke-width="1" /><polyline fill="none" opacity="100" points="247.0,200.0 246.8281,198.3203 246.5625,196.6562 246.2031,195.0078 245.75,193.375 245.2031,191.7578 244.5625,190.1562 243.8281,188.5703 243.0,187.0 242.0781,185.4453 241.0625,183.9062 239.9531,182.3828 238.75,180.875 237.4531,179.3828 236.0625,177.9062 234.5781,176.4453 233.0,175.0" stroke="#000" stroke-width="1" /><polyline fill="none" opacity="100" points="233.0,175.0 201.0,148.0" stroke="#000" stroke-width="1" /><polyline fill="none" opacity="100" points="201.0,148.0 199.8672,147.2344 198.8438,146.4375 197.9299,145.6084 197.125,144.75 196.4275,143.8682 195.8398,142.9531 195.3628,142.002 195.0,141.0 194.7583,139.9199 194.6289,138.7969 194.606,137.6543 194.6875,136.5 194.8706,135.3457 195.1523,134.2031 195.5308,133.0801 196.0,132.0 196.5513,130.998 197.1914,130.0469 197.9241,129.1318 198.75,128.25 199.6716,127.3916 200.6875,126.5625 201.7969,125.7656 203.0,125.0" stroke="#000" stroke-width="1" /><polyline fill="none" opacity="100" points="203.0,125.0 227.0,107.0 214.0,96.0 220.0,89.0" stroke="#000" stroke-width="1" /><polyline fill="none" opacity="100" points="204.0,222.0 203.8984,220.6953 203.7188,219.4062 203.4609,218.1328 203.125,216.875 202.7109,215.6328 202.2188,214.4062 201.6484,213.1953 201.0,212.0 200.2734,210.8203 199.4688,209.6562 198.5859,208.5078 197.625,207.375 196.5859,206.2578 195.4688,205.1562 194.2734,204.0703 193.0,203.0" stroke="#000" stroke-width="1" /><polyline fill="none" opacity="100" points="193.0,203.0 142.0,160.0" stroke="#000" stroke-width="1" /><polyline fill="none" opacity="100" points="142.0,160.0 141.2109,159.2344 140.4688,158.4375 139.7734,157.6091 139.125,156.75 138.5234,155.8616 137.9688,154.9414 137.4609,153.9888 137.0,153.0 136.5859,151.9683 136.2188,150.9023 135.8984,149.8081 135.625,148.6875 135.3984,147.5435 135.2188,146.3789 135.0859,145.1958 135.0,144.0 134.9609,142.8003 134.9688,141.5898 135.0234,140.365 135.125,139.125 135.2734,137.8674 135.4688,136.5938 135.7109,135.3047 136.0,134.0" stroke="#000" stroke-width="1" /><polyline fill="none" opacity="100" points="136.0,134.0 170.0,60.0 183.0,71.0 189.0,64.0" stroke="#000" stroke-width="1" /><polyline fill="none" opacity="100" points="166.0,67.0 157.0,63.0 145.0,89.0 154.0,93.0" stroke="#000" stroke-width="1" /><text fill="#FFF" font-family="Arial" font-size="10" font-weight="normal" opacity="100" transform="rotate(115.0 168.0,70.0) translate(0 10)" x="168.0" y="70.0">кассы</text><polyline fill="none" opacity="100" points="242.0,376.0 242.0,363.0 209.0,363.0 209.0,376.0" stroke="#000" stroke-width="1" /><text fill="#FFF" font-family="Arial" font-size="8" font-weight="normal" opacity="100" transform="rotate(-0.0 211.0,365.0) translate(0 8)" x="211.0" y="365.0">полиция</text><polygon fill="none" opacity="100" points="149.0,162.0 154.0,160.0 156.0,165.0 151.0,167.0" stroke="#000" stroke-width="1" /><polyline fill="none" opacity="100" points="175.0,146.0 180.0,161.0 213.0,189.0" stroke="#000" stroke-width="0.5" /><polyline fill="none" opacity="100" points="213.0,189.0 214.4531,190.3203 215.8125,191.6562 217.0781,193.0078 218.25,194.375 219.3281,195.7578 220.3125,197.1562 221.2031,198.5703 222.0,200.0 222.7031,201.4453 223.3125,202.9062 223.8281,204.3828 224.25,205.875 224.5781,207.3828 224.8125,208.9062 224.9531,210.4453 225.0,212.0" stroke="#000" stroke-width="0.5" /><polyline fill="none" opacity="100" points="225.0,212.0 225.0,248.0" stroke="#000" stroke-width="0.5" /><polyline fill="none" opacity="100" points="225.0,265.0 225.0,317.0" stroke="#000" stroke-width="0.5" /><polyline fill="none" opacity="100" points="226.0,344.0 247.0,344.0" stroke="#000" stroke-width="0.5" /><polyline fill="none" opacity="100" points="158.0,160.0 159.0,163.0" stroke="#090" stroke-width="1" /><polyline fill="none" opacity="100" points="161.7453,158.5955 162.7453,161.5955" stroke="#090" stroke-width="1" /><polyline fill="none" opacity="100" points="165.4906,157.191 166.4906,160.191" stroke="#090" stroke-width="1" /><polyline fill="none" opacity="100" points="169.236,155.7865 170.236,158.7865" stroke="#090" stroke-width="1" /><polyline fill="none" opacity="100" points="172.9813,154.382 173.9813,157.382" stroke="#090" stroke-width="1" /><polyline fill="none" opacity="100" points="236.0,234.0 236.0,222.0" stroke="#F00" stroke-width="1" /><polygon fill="#F00" opacity="100" points="236.9317,225.4773 236.0,222.0 235.0683,225.4773" stroke="#F00" stroke-width="1" /><polyline fill="none" opacity="100" points="156.0,138.0 161.0,152.0" stroke="#090" stroke-width="1" /><polygon fill="#090" opacity="100" points="158.4641,148.3313 161.0,152.0 160.6382,147.5549" stroke="#090" stroke-width="1" /><polygon fill="#34349C" opacity="100" points="139.0,142.0 139.0,138.0 140.0,138.0 140.0,142.0" stroke="#34349C" stroke-width="1" /><polygon fill="#F00" opacity="100" points="139.0,146.0 139.0,142.0 140.0,142.0 140.0,146.0" stroke="#F00" stroke-width="1" /><polygon fill="#FEFBF1" opacity="100" points="126.0,29.0 151.0,36.0 175.0,46.0 173.0,49.0 184.0,55.0 230.0,93.0 237.0,102.0 240.0,100.0 255.0,123.0 264.0,145.0 296.0,132.0 284.0,105.0 288.0,103.0 275.0,81.0 258.0,59.0 265.0,52.0 278.0,66.0 292.0,58.0 269.0,32.0 238.0,6.0 208.0,-12.0 202.0,3.0 219.0,14.0 213.0,22.0 187.0,8.0 162.0,-1.0 161.0,3.0 133.0,-4.0" stroke="#FEFBF1" stroke-width="1" /><polyline fill="none" opacity="100" points="264.0,36.0 234.0,11.0" stroke="#DDD" stroke-width="1" /><polyline fill="none" opacity="100" points="261.4832,39.109 231.4832,14.109" stroke="#DDD" stroke-width="1" /><polyline fill="none" opacity="100" points="258.9664,42.218 228.9664,17.218" stroke="#DDD" stroke-width="1" /><polyline fill="none" opacity="100" points="256.4496,45.3269 226.4496,20.3269" stroke="#DDD" stroke-width="1" /><polyline fill="none" opacity="100" points="253.9328,48.4359 223.9328,23.4359" stroke="#DDD" stroke-width="1" /><polyline fill="none" opacity="100" points="251.416,51.5449 221.416,26.5449" stroke="#DDD" stroke-width="1" /><polyline fill="none" opacity="100" points="248.8992,54.6539 218.8992,29.6539" stroke="#DDD" stroke-width="1" /><polyline fill="none" opacity="100" points="238.0,6.0 189.0,64.0" stroke="#DDD" stroke-width="1" /><polyline fill="none" opacity="100" points="269.0,32.0 220.0,89.0" stroke="#DDD" stroke-width="1" /><polyline fill="none" opacity="100" points="196.0,59.0 194.0,61.0" stroke="#000" stroke-width="1" /><polyline fill="none" opacity="100" points="194.0,61.0 192.8047,60.25 191.5938,59.5 190.3672,58.75 189.125,58.0 187.8672,57.25 186.5938,56.5 185.3047,55.75 184.0,55.0 182.6797,54.25 181.3438,53.5 179.9922,52.75 178.625,52.0 177.2422,51.25 175.8438,50.5 174.4297,49.75 173.0,49.0" stroke="#000" stroke-width="1" /><polyline fill="none" opacity="100" points="173.0,49.0 175.0,46.0" stroke="#000" stroke-width="1" /><polyline fill="none" opacity="100" points="175.0,46.0 172.0547,44.5859 169.0938,43.2188 166.1172,41.8984 163.125,40.625 160.1172,39.3984 157.0938,38.2188 154.0547,37.0859 151.0,36.0 147.9297,34.9609 144.8438,33.9688 141.7422,33.0234 138.625,32.125 135.4922,31.2734 132.3438,30.4688 129.1797,29.7109 126.0,29.0" stroke="#000" stroke-width="1" /><polyline fill="none" opacity="100" points="126.0,29.0 133.0,-4.0 161.0,3.0 162.0,-1.0" stroke="#000" stroke-width="1" /><polyline fill="none" opacity="100" points="162.0,-1.0 165.0703,-0.1484 168.1562,0.7812 171.2578,1.7891 174.375,2.875 177.5078,4.0391 180.6562,5.2812 183.8203,6.6016 187.0,8.0 190.1953,9.4766 193.4062,11.0312 196.6328,12.6641 199.875,14.375 203.1328,16.1641 206.4062,18.0312 209.6953,19.9766 213.0,22.0" stroke="#000" stroke-width="1" /><polyline fill="none" opacity="100" points="213.0,22.0 219.0,14.0" stroke="#000" stroke-width="1" /><polyline fill="none" opacity="100" points="219.0,14.0 214.9688,11.4219 210.875,8.9375 206.7188,6.5469 202.5,4.25 198.2188,2.0469 193.875,-0.0625 189.4688,-2.0781 185.0,-4.0 180.4688,-5.8281 175.875,-7.5625 171.2188,-9.2031 166.5,-10.75 161.7188,-12.2031 156.875,-13.5625 151.9688,-14.8281 147.0,-16.0" stroke="#000" stroke-width="1" /><polyline fill="none" opacity="100" points="147.0,-16.0 143.0,-22.0 151.0,-54.0 160.0,-61.0" stroke="#000" stroke-width="1" /><polyline fill="none" opacity="100" points="347.0,94.0 339.6484,79.2734 331.7188,65.2188 323.2109,51.8359 314.125,39.125 304.4609,27.0859 294.2188,15.7188 283.3984,5.0234 272.0,-5.0 260.0234,-14.3516 247.4688,-23.0312 234.3359,-31.0391 220.625,-38.375 206.3359,-45.0391 191.4688,-51.0312 176.0234,-56.3516 160.0,-61.0" stroke="#000" stroke-width="1" /><polyline fill="none" opacity="100" points="347.0,94.0 343.0,105.0 313.0,118.0 305.0,115.0" stroke="#000" stroke-width="1" /><polyline fill="none" opacity="100" points="305.0,115.0 303.2031,110.7109 301.3125,106.4688 299.3281,102.2734 297.25,98.125 295.0781,94.0234 292.8125,89.9688 290.4531,85.9609 288.0,82.0 285.4531,78.0859 282.8125,74.2188 280.0781,70.3984 277.25,66.625 274.3281,62.8984 271.3125,59.2188 268.2031,55.5859 265.0,52.0" stroke="#000" stroke-width="1" /><polyline fill="none" opacity="100" points="265.0,52.0 258.0,59.0" stroke="#000" stroke-width="1" /><polyline fill="none" opacity="100" points="258.0,59.0 260.3438,61.75 262.625,64.5 264.8438,67.25 267.0,70.0 269.0938,72.75 271.125,75.5 273.0938,78.25 275.0,81.0 276.8438,83.75 278.625,86.5 280.3438,89.25 282.0,92.0 283.5938,94.75 285.125,97.5 286.5938,100.25 288.0,103.0" stroke="#000" stroke-width="1" /><polyline fill="none" opacity="100" points="288.0,103.0 284.0,105.0 296.0,132.0 264.0,145.0" stroke="#000" stroke-width="1" /><polyline fill="none" opacity="100" points="264.0,145.0 263.2031,142.3047 262.3125,139.5938 261.3281,136.8672 260.25,134.125 259.0781,131.3672 257.8125,128.5938 256.4531,125.8047 255.0,123.0 253.4531,120.1797 251.8125,117.3438 250.0781,114.4922 248.25,111.625 246.3281,108.7422 244.3125,105.8438 242.2031,102.9297 240.0,100.0" stroke="#000" stroke-width="1" /><polyline fill="none" opacity="100" points="240.0,100.0 237.0,102.0" stroke="#000" stroke-width="1" /><polyline fill="none" opacity="100" points="237.0,102.0 236.1797,100.875 235.3438,99.75 234.4922,98.625 233.625,97.5 232.7422,96.375 231.8438,95.25 230.9297,94.125 230.0,93.0 229.0547,91.875 228.0938,90.75 227.1172,89.625 226.125,88.5 225.1172,87.375 224.0938,86.25 223.0547,85.125 222.0,84.0" stroke="#000" stroke-width="1" /><polyline fill="none" opacity="100" points="222.0,84.0 224.0,82.0" stroke="#000" stroke-width="1" /><polyline fill="none" opacity="100" points="238.0,6.0 269.0,32.0" stroke="#000" stroke-width="1" /><polyline fill="none" opacity="100" points="217.0,75.0 215.0,77.0 203.0,67.0 205.0,65.0" stroke="#000" stroke-width="1" /><polyline fill="none" opacity="100" points="292.0,58.0 278.0,66.0" stroke="#000" stroke-width="1" /><polyline fill="none" opacity="100" points="294.0712,61.422 280.0712,69.422" stroke="#000" stroke-width="1" /><polyline fill="none" opacity="100" points="296.1424,64.844 282.1424,72.844" stroke="#000" stroke-width="1" /><polyline fill="none" opacity="100" points="298.2136,68.266 284.2136,76.266" stroke="#000" stroke-width="1" /><polyline fill="none" opacity="100" points="300.2848,71.688 286.2848,79.688" stroke="#000" stroke-width="1" /><polyline fill="none" opacity="100" points="302.3561,75.11 288.3561,83.11" stroke="#000" stroke-width="1" /><polyline fill="none" opacity="100" points="304.4273,78.532 290.4273,86.532" stroke="#000" stroke-width="1" /><polyline fill="none" opacity="100" points="306.4985,81.954 292.4985,89.954" stroke="#000" stroke-width="1" /><polyline fill="none" opacity="100" points="308.5697,85.376 294.5697,93.376" stroke="#000" stroke-width="1" /><polyline fill="none" opacity="100" points="310.6409,88.798 296.6409,96.798" stroke="#000" stroke-width="1" /><polyline fill="none" opacity="100" points="312.7121,92.22 298.7121,100.22" stroke="#000" stroke-width="1" /><polyline fill="none" opacity="100" points="314.7833,95.642 300.7833,103.642" stroke="#000" stroke-width="1" /><polyline fill="none" opacity="100" points="208.0,-12.0 202.0,3.0" stroke="#000" stroke-width="1" /><polyline fill="none" opacity="100" points="204.2993,-13.5182 198.2993,1.4818" stroke="#000" stroke-width="1" /><polyline fill="none" opacity="100" points="200.5987,-15.0365 194.5987,-0.0365" stroke="#000" stroke-width="1" /><polyline fill="none" opacity="100" points="196.898,-16.5547 190.898,-1.5547" stroke="#000" stroke-width="1" /><polyline fill="none" opacity="100" points="193.1973,-18.0729 187.1973,-3.0729" stroke="#000" stroke-width="1" /><polyline fill="none" opacity="100" points="189.4966,-19.5911 183.4966,-4.5911" stroke="#000" stroke-width="1" /><polyline fill="none" opacity="100" points="185.796,-21.1094 179.796,-6.1094" stroke="#000" stroke-width="1" /><polyline fill="none" opacity="100" points="182.0953,-22.6276 176.0953,-7.6276" stroke="#000" stroke-width="1" /><polyline fill="none" opacity="100" points="178.3946,-24.1458 172.3946,-9.1458" stroke="#000" stroke-width="1" /><polyline fill="none" opacity="100" points="174.6939,-25.664 168.6939,-10.664" stroke="#000" stroke-width="1" /><polyline fill="none" opacity="100" points="170.9933,-27.1823 164.9933,-12.1823" stroke="#000" stroke-width="1" /><polyline fill="none" opacity="100" points="339.0,77.0 319.0,90.0" stroke="#000" stroke-width="1" /><polyline fill="none" opacity="100" points="336.837,73.6353 316.837,86.6353" stroke="#000" stroke-width="1" /><polyline fill="none" opacity="100" points="334.6739,70.2706 314.6739,83.2706" stroke="#000" stroke-width="1" /><polyline fill="none" opacity="100" points="332.5109,66.9059 312.5109,79.9059" stroke="#000" stroke-width="1" /><polyline fill="none" opacity="100" points="330.3479,63.5411 310.3479,76.5411" stroke="#000" stroke-width="1" /><polyline fill="none" opacity="100" points="328.1848,60.1764 308.1848,73.1764" stroke="#000" stroke-width="1" /><polyline fill="none" opacity="100" points="326.0218,56.8117 306.0218,69.8117" stroke="#000" stroke-width="1" /><polyline fill="none" opacity="100" points="323.8588,53.447 303.8588,66.447" stroke="#000" stroke-width="1" /><polyline fill="none" opacity="100" points="321.6958,50.0823 301.6958,63.0823" stroke="#000" stroke-width="1" /><polyline fill="none" opacity="100" points="312.0,36.0 294.0,51.0" stroke="#000" stroke-width="1" /><polyline fill="none" opacity="100" points="309.3535,33.0006 291.3535,48.0006" stroke="#000" stroke-width="1" /><polyline fill="none" opacity="100" points="306.707,30.0013 288.707,45.0013" stroke="#000" stroke-width="1" /><polyline fill="none" opacity="100" points="304.0605,27.0019 286.0605,42.0019" stroke="#000" stroke-width="1" /><polyline fill="none" opacity="100" points="301.4141,24.0026 283.4141,39.0026" stroke="#000" stroke-width="1" /><polyline fill="none" opacity="100" points="298.7676,21.0032 280.7676,36.0032" stroke="#000" stroke-width="1" /><polyline fill="none" opacity="100" points="178.0,-55.0 170.0,-33.0" stroke="#000" stroke-width="1" /><polyline fill="none" opacity="100" points="181.7497,-53.6073 173.7497,-31.6073" stroke="#000" stroke-width="1" /><polyline fill="none" opacity="100" points="185.4994,-52.2145 177.4994,-30.2145" stroke="#000" stroke-width="1" /><polyline fill="none" opacity="100" points="189.2491,-50.8218 181.2491,-28.8218" stroke="#000" stroke-width="1" /><polyline fill="none" opacity="100" points="192.9988,-49.429 184.9988,-27.429" stroke="#000" stroke-width="1" /><polyline fill="none" opacity="100" points="196.7485,-48.0363 188.7485,-26.0363" stroke="#000" stroke-width="1" /><polyline fill="none" opacity="100" points="200.4982,-46.6435 192.4982,-24.6435" stroke="#000" stroke-width="1" /><polyline fill="none" opacity="100" points="204.2479,-45.2508 196.2479,-23.2508" stroke="#000" stroke-width="1" /><polyline fill="none" opacity="100" points="207.9976,-43.858 199.9976,-21.858" stroke="#000" stroke-width="1" /><polyline fill="none" opacity="100" points="211.7473,-42.4653 203.7473,-20.4653" stroke="#000" stroke-width="1" /><polyline fill="none" opacity="100" points="225.0,-36.0 214.0,-15.0" stroke="#000" stroke-width="1" /><polyline fill="none" opacity="100" points="228.4617,-33.9959 217.4617,-12.9959" stroke="#000" stroke-width="1" /><polyline fill="none" opacity="100" points="231.9234,-31.9917 220.9234,-10.9917" stroke="#000" stroke-width="1" /><polyline fill="none" opacity="100" points="235.3851,-29.9876 224.3851,-8.9876" stroke="#000" stroke-width="1" /><polyline fill="none" opacity="100" points="238.8468,-27.9834 227.8468,-6.9834" stroke="#000" stroke-width="1" /><polyline fill="none" opacity="100" points="242.3085,-25.9793 231.3085,-4.9793" stroke="#000" stroke-width="1" /><polygon fill="#D0D0D0" opacity="100" points="210.0,66.0 215.0,70.0 227.0,56.0 222.0,52.0" stroke="#000" stroke-width="1" /><polygon fill="#D0D0D0" opacity="100" points="272.0,28.0 287.0,44.0 300.0,61.0 310.0,76.0 320.0,93.0 315.0,96.0 307.0,81.0 298.0,67.0 285.0,49.0 269.0,32.0" stroke="#D0D0D0" stroke-width="1" /><polygon fill="#D0D0D0" opacity="100" points="238.0,6.0 241.0,2.0 223.0,-10.0 205.0,-19.0 189.0,-26.0 167.0,-34.0 166.0,-29.0 185.0,-22.0 202.0,-15.0 221.0,-5.0" stroke="#D0D0D0" stroke-width="1" /><polyline fill="none" opacity="100" points="269.0,32.0 272.0,28.0" stroke="#000" stroke-width="1" /><polyline fill="none" opacity="100" points="272.0,28.0 273.9844,29.9453 275.9375,31.9062 277.8596,33.8835 279.75,35.875 281.6072,37.8762 283.4336,39.8945 285.23,41.9321 287.0,44.0 288.7505,46.1187 290.4727,48.2617 292.1599,50.4106 293.8125,52.5625 295.4319,54.7144 297.0078,56.8477 298.5361,58.9536 300.0,61.0 301.3701,62.9331 302.6797,64.8086 303.95,66.6609 305.1875,68.5 306.4036,70.345 307.6055,72.2031 308.7983,74.0801 310.0,76.0 311.2368,77.998 312.4883,80.0469 313.7434,82.1318 315.0,84.25 316.2507,86.3916 317.5,88.5625 318.75,90.7656 320.0,93.0" stroke="#000" stroke-width="1" /><polyline fill="none" opacity="100" points="320.0,93.0 315.0,96.0" stroke="#000" stroke-width="1" /><polyline fill="none" opacity="100" points="315.0,96.0 314.0547,94.0703 313.0938,92.1562 312.1179,90.259 311.125,88.375 310.1106,86.4968 309.082,84.6367 308.0415,82.7983 307.0,81.0 305.978,79.2759 304.9492,77.582 303.8958,75.8879 302.8125,74.1875 301.6921,72.4734 300.5234,70.7188 299.2998,68.9102 298.0,67.0 296.5908,64.9102 295.1016,62.7188 293.5491,60.4734 291.9375,58.1875 290.2771,55.8879 288.5664,53.582 286.8052,51.2759 285.0,49.0 283.1597,46.7983 281.2773,44.6367 279.3494,42.4968 277.375,40.375 275.3518,38.259 273.2812,36.1562 271.1641,34.0703 269.0,32.0" stroke="#000" stroke-width="1" /><polyline fill="none" opacity="100" points="238.0,6.0 241.0,2.0" stroke="#000" stroke-width="1" /><polyline fill="none" opacity="100" points="241.0,2.0 238.75,0.3359 236.5,-1.2812 234.2495,-2.8513 232.0,-4.375 229.7544,-5.8538 227.5078,-7.2852 225.2588,-8.6685 223.0,-10.0 220.7178,-11.2729 218.4297,-12.4961 216.1494,-13.6746 213.875,-14.8125 211.6006,-15.9172 209.3516,-16.9844 207.1377,-18.0137 205.0,-19.0 203.0107,-19.9316 201.0859,-20.8281 199.1714,-21.7034 197.25,-22.5625 195.2935,-23.4119 193.2812,-24.2617 191.1992,-25.1187 189.0,-26.0 186.6133,-26.9321 184.0938,-27.8945 181.4707,-28.8762 178.75,-29.875 175.9512,-30.8835 173.0625,-31.9062 170.0781,-32.9453 167.0,-34.0" stroke="#000" stroke-width="1" /><polyline fill="none" opacity="100" points="167.0,-34.0 166.0,-29.0" stroke="#000" stroke-width="1" /><polyline fill="none" opacity="100" points="166.0,-29.0 168.4844,-28.125 170.9375,-27.25 173.3584,-26.3757 175.75,-25.5 178.1182,-24.6184 180.4531,-23.7383 182.752,-22.8618 185.0,-22.0 187.1699,-21.1733 189.2969,-20.3555 191.4053,-19.5283 193.5,-18.6875 195.5869,-17.8271 197.6875,-16.9336 199.8125,-15.9995 202.0,-15.0 204.3125,-13.895 206.6875,-12.7227 209.0869,-11.5056 211.5,-10.25 213.9053,-8.969 216.2969,-7.6641 218.6699,-6.3369 221.0,-5.0 223.252,-3.6709 225.4531,-2.3359 227.6182,-0.9878 229.75,0.375 231.8584,1.7573 233.9375,3.1562 235.9844,4.5703 238.0,6.0" stroke="#000" stroke-width="1" /><polyline fill="none" opacity="100" points="275.0,51.0 265.0,41.0" stroke="#F00" stroke-width="1" /><polygon fill="#F00" opacity="100" points="268.6742,43.1213 265.0,41.0 267.1213,44.6742" stroke="#F00" stroke-width="1" /><polyline fill="none" opacity="100" points="308.0,48.0 320.0,68.0" stroke="#F00" stroke-width="1" /><polygon fill="#F00" opacity="100" points="314.9698,63.1362 320.0,68.0 318.0756,61.2727" stroke="#F00" stroke-width="1" /><polyline fill="none" opacity="100" points="225.0,75.0 219.0,82.0" stroke="#F00" stroke-width="1" /><polygon fill="#F00" opacity="100" points="220.1951,79.5057 219.0,82.0 221.2822,80.4374" stroke="#F00" stroke-width="1" /><polyline fill="none" opacity="100" points="202.0,88.0 212.0,76.0" stroke="#F00" stroke-width="1" /><polyline fill="none" opacity="100" points="259.0,21.0 269.0,9.0 283.0,21.0" stroke="#F00" stroke-width="1" /><polygon fill="#F00" opacity="100" points="278.0114,18.6097 283.0,21.0 279.8749,16.4356" stroke="#F00" stroke-width="1" /><polyline fill="none" opacity="100" points="214.0,74.0 257.0,23.0" stroke="#FBB" stroke-width="1" /><polyline fill="none" opacity="100" points="197.0,64.0 203.0,57.0" stroke="#090" stroke-width="1" /><polygon fill="#090" opacity="100" points="201.8049,59.4943 203.0,57.0 200.7178,58.5626" stroke="#090" stroke-width="1" /><polyline fill="none" opacity="100" points="227.0,10.0 215.0,3.0" stroke="#090" stroke-width="1" /><polygon fill="#090" opacity="100" points="219.0209,4.0967 215.0,3.0 217.9338,5.9602" stroke="#090" stroke-width="1" /><polyline fill="none" opacity="100" points="192.0,-38.0 217.0,-27.0" stroke="#090" stroke-width="1" /><polygon fill="#090" opacity="100" points="208.9015,-28.2464 217.0,-27.0 210.6097,-32.1287" stroke="#090" stroke-width="1" /><polyline fill="none" opacity="100" points="249.0,-7.0 261.0,3.0 251.0,15.0" stroke="#090" stroke-width="1" /><polyline fill="none" opacity="100" points="204.0,70.0 194.0,82.0" stroke="#090" stroke-width="1" /><polygon fill="#090" opacity="100" points="195.966,77.7462 194.0,82.0 197.8295,79.2991" stroke="#090" stroke-width="1" /><polyline fill="none" opacity="100" points="249.0,17.0 206.0,68.0" stroke="#ADA" stroke-width="1" /><polyline fill="none" opacity="100" points="764.0,290.0 764.0,370.0" stroke="#000" stroke-width="1" /><text fill="#00AFAF" font-family="Arial" font-size="15" font-weight="normal" opacity="100" transform="rotate(90.0 91.0,34.0) translate(0 15)" x="91.0" y="34.0">Верхняя Красносельская улица</text><text fill="#00AFAF" font-family="Arial" font-size="15" font-weight="normal" opacity="100" transform="rotate(90.0 809.0,233.0) translate(0 15)" x="809.0" y="233.0">улица Гаврикова</text><text fill="#00AFAF" font-family="Arial" font-size="15" font-weight="normal" opacity="100" transform="rotate(-0.0 276.0,418.0) translate(0 15)" x="276.0" y="418.0">Краснопрудная улица</text><text fill="#00AFAF" font-family="Arial" font-size="15" font-weight="normal" opacity="100" transform="rotate(-0.0 837.0,407.0) translate(0 15)" x="837.0" y="407.0">Русаковская</text><text fill="#00AFAF" font-family="Arial" font-size="15" font-weight="normal" opacity="100" transform="rotate(-0.0 837.0,421.0) translate(0 15)" x="837.0" y="421.0">улица</text><text fill="#000" font-family="Arial" font-size="8" font-weight="normal" opacity="100" transform="rotate(40.0 192.0,41.0) translate(0 8)" x="192.0" y="41.0">вход</text><text fill="#000" font-family="Arial" font-size="8" font-weight="normal" opacity="100" transform="rotate(40.0 231.0,75.0) translate(0 8)" x="231.0" y="75.0">выход</text><g transform="rotate(40.0,465.0,275.0)"><text fill="#FFD900" font-family="Arial" font-size="25" font-weight="normal" opacity="100" x="182.25" y="319.5">1</text></g></g></g></svg>