<?xml version="1.0" encoding="utf-8" ?>
<svg baseProfile="tiny" height="1240px" version="1.2" width="500px" xmlns="http://www.w3.org/2000/svg" xmlns:ev="http://www.w3.org/2001/xml-events" xmlns:xlink="http://www.w3.org/1999/xlink"><defs /><g><g transform="rotate(85.0,250.0,620.0)"><polygon fill="#34349C" opacity="100" points="27.0,612.0 27.0,582.0 477.0,582.0 477.0,612.0" stroke="#000" stroke-width="1" /><polygon fill="#34349C" opacity="100" points="27.0,692.0 477.0,692.0 477.0,722.0 27.0,722.0" stroke="#000" stroke-width="1" /><text fill="#34349C" font-family="Arial" font-size="25" font-weight="bold" opacity="100" transform="rotate(-0.0 171.0,634.0) translate(0 25)" x="171.0" y="634.0">Крылатское</text><text fill="#34349C" font-family="Arial" font-size="20" font-weight="normal" opacity="100" transform="rotate(-0.0 339.0,722.0) translate(0 20)" x="339.0" y="722.0">Молодёжная &gt;&gt;</text><text fill="#34349C" font-family="Arial" font-size="20" font-weight="normal" opacity="100" transform="rotate(-0.0 32.0,558.0) translate(0 20)" x="32.0" y="558.0">&lt;&lt; Строгино</text><polyline fill="none" opacity="100" points="27.0,692.0 27.0,678.0 16.0,678.0" stroke="#000" stroke-width="1" /><polyline fill="none" opacity="100" points="-52.0,678.0 -62.0,678.0 -62.0,721.0 -154.0,721.0 -154.0,778.0 -28.0,778.0" stroke="#000" stroke-width="1" /><polyline fill="none" opacity="100" points="-28.0,800.0 -218.0,800.0" stroke="#000" stroke-width="1" /><polyline fill="none" opacity="100" points="-218.0,778.0 -176.0,778.0 -176.0,720.0 -187.0,720.0 -187.0,582.0 -183.0,582.0 -267.0,472.0 -318.0,472.0" stroke="#000" stroke-width="1" /><polyline fill="none" opacity="100" points="-318.0,450.0 -178.0,450.0" stroke="#000" stroke-width="1" /><polyline fill="none" opacity="100" points="-178.0,472.0 -238.0,472.0 -154.0,582.0 -63.0,582.0 -63.0,626.0 27.0,626.0 27.0,612.0" stroke="#000" stroke-width="1" /><polyline fill="none" opacity="100" points="-316.0,472.0 -316.0,450.0" stroke="#000" stroke-width="1" /><polyline fill="none" opacity="100" points="-312.0,472.0 -312.0,450.0" stroke="#000" stroke-width="1" /><polyline fill="none" opacity="100" points="-308.0,472.0 -308.0,450.0" stroke="#000" stroke-width="1" /><polyline fill="none" opacity="100" points="-304.0,472.0 -304.0,450.0" stroke="#000" stroke-width="1" /><polyline fill="none" opacity="100" points="-300.0,472.0 -300.0,450.0" stroke="#000" stroke-width="1" /><polyline fill="none" opacity="100" points="-296.0,472.0 -296.0,450.0" stroke="#000" stroke-width="1" /><polyline fill="none" opacity="100" points="-292.0,472.0 -292.0,450.0" stroke="#000" stroke-width="1" /><polyline fill="none" opacity="100" points="-288.0,472.0 -288.0,450.0" stroke="#000" stroke-width="1" /><polyline fill="none" opacity="100" points="-284.0,472.0 -284.0,450.0" stroke="#000" stroke-width="1" /><polyline fill="none" opacity="100" points="-180.0,472.0 -180.0,450.0" stroke="#000" stroke-width="1" /><polyline fill="none" opacity="100" points="-184.0,472.0 -184.0,450.0" stroke="#000" stroke-width="1" /><polyline fill="none" opacity="100" points="-188.0,472.0 -188.0,450.0" stroke="#000" stroke-width="1" /><polyline fill="none" opacity="100" points="-192.0,472.0 -192.0,450.0" stroke="#000" stroke-width="1" /><polyline fill="none" opacity="100" points="-196.0,472.0 -196.0,450.0" stroke="#000" stroke-width="1" /><polyline fill="none" opacity="100" points="-207.0,472.0 -207.0,450.0" stroke="#000" stroke-width="1" /><polyline fill="none" opacity="100" points="-211.0,472.0 -211.0,450.0" stroke="#000" stroke-width="1" /><polyline fill="none" opacity="100" points="-215.0,472.0 -215.0,450.0" stroke="#000" stroke-width="1" /><polyline fill="none" opacity="100" points="-219.0,472.0 -219.0,450.0" stroke="#000" stroke-width="1" /><polyline fill="none" opacity="100" points="-223.0,472.0 -223.0,450.0" stroke="#000" stroke-width="1" /><polyline fill="none" opacity="100" points="-216.0,800.0 -216.0,778.0" stroke="#000" stroke-width="1" /><polyline fill="none" opacity="100" points="-212.0,800.0 -212.0,778.0" stroke="#000" stroke-width="1" /><polyline fill="none" opacity="100" points="-208.0,800.0 -208.0,778.0" stroke="#000" stroke-width="1" /><polyline fill="none" opacity="100" points="-204.0,800.0 -204.0,778.0" stroke="#000" stroke-width="1" /><polyline fill="none" opacity="100" points="-200.0,800.0 -200.0,778.0" stroke="#000" stroke-width="1" /><polyline fill="none" opacity="100" points="-196.0,800.0 -196.0,778.0" stroke="#000" stroke-width="1" /><polyline fill="none" opacity="100" points="-192.0,800.0 -192.0,778.0" stroke="#000" stroke-width="1" /><polyline fill="none" opacity="100" points="-188.0,800.0 -188.0,778.0" stroke="#000" stroke-width="1" /><polyline fill="none" opacity="100" points="-184.0,800.0 -184.0,778.0" stroke="#000" stroke-width="1" /><polyline fill="none" opacity="100" points="-30.0,800.0 -30.0,778.0" stroke="#000" stroke-width="1" /><polyline fill="none" opacity="100" points="-34.0,800.0 -34.0,778.0" stroke="#000" stroke-width="1" /><polyline fill="none" opacity="100" points="-38.0,800.0 -38.0,778.0" stroke="#000" stroke-width="1" /><polyline fill="none" opacity="100" points="-42.0,800.0 -42.0,778.0" stroke="#000" stroke-width="1" /><polyline fill="none" opacity="100" points="-46.0,800.0 -46.0,778.0" stroke="#000" stroke-width="1" /><polyline fill="none" opacity="100" points="-60.0,800.0 -60.0,778.0" stroke="#000" stroke-width="1" /><polyline fill="none" opacity="100" points="-64.0,800.0 -64.0,778.0" stroke="#000" stroke-width="1" /><polyline fill="none" opacity="100" points="-68.0,800.0 -68.0,778.0" stroke="#000" stroke-width="1" /><polyline fill="none" opacity="100" points="-72.0,800.0 -72.0,778.0" stroke="#000" stroke-width="1" /><polyline fill="none" opacity="100" points="-76.0,800.0 -76.0,778.0" stroke="#000" stroke-width="1" /><polyline fill="none" opacity="100" points="8.0,626.0 8.0,651.0" stroke="#000" stroke-width="1" /><polyline fill="none" opacity="100" points="4.0,626.0 4.0,651.0" stroke="#000" stroke-width="1" /><polyline fill="none" opacity="100" points="0.0,626.0 0.0,651.0" stroke="#000" stroke-width="1" /><polyline fill="none" opacity="100" points="-4.0,626.0 -4.0,651.0" stroke="#000" stroke-width="1" /><polyline fill="none" opacity="100" points="-8.0,626.0 -8.0,651.0" stroke="#000" stroke-width="1" /><polyline fill="none" opacity="100" points="-12.0,626.0 -12.0,651.0" stroke="#000" stroke-width="1" /><polyline fill="none" opacity="100" points="-16.0,626.0 -16.0,651.0" stroke="#000" stroke-width="1" /><polyline fill="none" opacity="100" points="-20.0,626.0 -20.0,651.0" stroke="#000" stroke-width="1" /><polyline fill="none" opacity="100" points="-24.0,626.0 -24.0,651.0" stroke="#000" stroke-width="1" /><polyline fill="none" opacity="100" points="-28.0,626.0 -28.0,651.0" stroke="#000" stroke-width="1" /><polyline fill="none" opacity="100" points="-32.0,626.0 -32.0,651.0" stroke="#000" stroke-width="1" /><polyline fill="none" opacity="100" points="-36.0,626.0 -36.0,651.0" stroke="#000" stroke-width="1" /><polyline fill="none" opacity="100" points="-40.0,626.0 -40.0,651.0" stroke="#000" stroke-width="1" /><polyline fill="none" opacity="100" points="-44.0,626.0 -44.0,651.0" stroke="#000" stroke-width="1" /><polygon fill="#D0D0D0" opacity="100" points="-154.0,622.0 -144.0,622.0 -144.0,681.0 -154.0,681.0" stroke="#000" stroke-width="1" /><polyline fill="none" opacity="100" points="10.0,675.0 10.0,654.0" stroke="#7F7F7F" stroke-width="1" /><polyline fill="none" opacity="100" points="6.0,675.0 6.0,654.0" stroke="#7F7F7F" stroke-width="1" /><polyline fill="none" opacity="100" points="2.0,675.0 2.0,654.0" stroke="#7F7F7F" stroke-width="1" /><polyline fill="none" opacity="100" points="-2.0,675.0 -2.0,654.0" stroke="#7F7F7F" stroke-width="1" /><polyline fill="none" opacity="100" points="-6.0,675.0 -6.0,654.0" stroke="#7F7F7F" stroke-width="1" /><polyline fill="none" opacity="100" points="-10.0,675.0 -10.0,654.0" stroke="#7F7F7F" stroke-width="1" /><polyline fill="none" opacity="100" points="-14.0,675.0 -14.0,654.0" stroke="#7F7F7F" stroke-width="1" /><polyline fill="none" opacity="100" points="-18.0,675.0 -18.0,654.0" stroke="#7F7F7F" stroke-width="1" /><polyline fill="none" opacity="100" points="-22.0,675.0 -22.0,654.0" stroke="#7F7F7F" stroke-width="1" /><polyline fill="none" opacity="100" points="-26.0,675.0 -26.0,654.0" stroke="#7F7F7F" stroke-width="1" /><polyline fill="none" opacity="100" points="-30.0,675.0 -30.0,654.0" stroke="#7F7F7F" stroke-width="1" /><polyline fill="none" opacity="100" points="-34.0,675.0 -34.0,654.0" stroke="#7F7F7F" stroke-width="1" /><polyline fill="none" opacity="100" points="-38.0,675.0 -38.0,654.0" stroke="#7F7F7F" stroke-width="1" /><polyline fill="none" opacity="100" points="-42.0,675.0 -42.0,654.0" stroke="#7F7F7F" stroke-width="1" /><polyline fill="none" opacity="100" points="-46.0,675.0 -46.0,654.0" stroke="#7F7F7F" stroke-width="1" /><polygon fill="#9B5509" opacity="100" points="16.0,654.0 -52.0,654.0 -52.0,651.0 16.0,651.0" stroke="#000" stroke-width="1" /><polygon fill="#9B5509" opacity="100" points="16.0,662.0 16.0,667.0 -52.0,667.0 -52.0,662.0" stroke="#000" stroke-width="1" /><polygon fill="#9B5509" opacity="100" points="16.0,675.0 -52.0,675.0 -52.0,678.0 16.0,678.0" stroke="#000" stroke-width="1" /><polyline fill="none" opacity="100" points="-63.0,609.0 -71.0,609.0 -71.0,582.0" stroke="#000" stroke-width="1" /><text fill="#FFF" font-family="Arial" font-size="10" font-weight="normal" opacity="100" transform="rotate(-90.0 -74.0,608.0) translate(0 10)" x="-74.0" y="608.0">кассы</text><polyline fill="none" opacity="100" points="-73.0,610.0 -98.0,610.0" stroke="#000" stroke-width="0.5" /><polygon fill="none" opacity="100" points="-101.0,668.0 -95.0,668.0 -95.0,674.0 -101.0,674.0" stroke="#000" stroke-width="1" /><polyline fill="none" opacity="100" points="-101.0,671.0 -144.0,671.0" stroke="#000" stroke-width="0.5" /><polyline fill="none" opacity="100" points="-100.0,612.0 -96.0,612.0" stroke="#090" stroke-width="1" /><polyline fill="none" opacity="100" points="-100.0,616.0 -96.0,616.0" stroke="#090" stroke-width="1" /><polyline fill="none" opacity="100" points="-100.0,620.0 -96.0,620.0" stroke="#090" stroke-width="1" /><polyline fill="none" opacity="100" points="-100.0,624.0 -96.0,624.0" stroke="#090" stroke-width="1" /><polyline fill="none" opacity="100" points="-100.0,628.0 -96.0,628.0" stroke="#090" stroke-width="1" /><polyline fill="none" opacity="100" points="-100.0,632.0 -96.0,632.0" stroke="#090" stroke-width="1" /><polyline fill="none" opacity="100" points="-100.0,636.0 -96.0,636.0" stroke="#090" stroke-width="1" /><polyline fill="none" opacity="100" points="-100.0,640.0 -96.0,640.0" stroke="#090" stroke-width="1" /><polyline fill="none" opacity="100" points="-100.0,644.0 -96.0,644.0" stroke="#090" stroke-width="1" /><polyline fill="none" opacity="100" points="-100.0,648.0 -96.0,648.0" stroke="#090" stroke-width="1" /><polyline fill="none" opacity="100" points="-100.0,652.0 -96.0,652.0" stroke="#090" stroke-width="1" /><polyline fill="none" opacity="100" points="-100.0,656.0 -96.0,656.0" stroke="#090" stroke-width="1" /><polyline fill="none" opacity="100" points="-100.0,660.0 -96.0,660.0" stroke="#090" stroke-width="1" /><polyline fill="none" opacity="100" points="-100.0,664.0 -96.0,664.0" stroke="#090" stroke-width="1" /><polyline fill="none" opacity="100" points="-100.0,678.0 -96.0,678.0" stroke="#F00" stroke-width="1" /><polyline fill="none" opacity="100" points="-100.0,682.0 -96.0,682.0" stroke="#F00" stroke-width="1" /><polyline fill="none" opacity="100" points="-100.0,686.0 -96.0,686.0" stroke="#F00" stroke-width="1" /><polyline fill="none" opacity="100" points="-100.0,690.0 -96.0,690.0" stroke="#F00" stroke-width="1" /><polyline fill="none" opacity="100" points="-100.0,694.0 -96.0,694.0" stroke="#F00" stroke-width="1" /><polyline fill="none" opacity="100" points="-100.0,698.0 -96.0,698.0" stroke="#F00" stroke-width="1" /><polyline fill="none" opacity="100" points="-100.0,702.0 -96.0,702.0" stroke="#F00" stroke-width="1" /><polyline fill="none" opacity="100" points="-100.0,706.0 -96.0,706.0" stroke="#F00" stroke-width="1" /><polyline fill="none" opacity="100" points="-100.0,710.0 -96.0,710.0" stroke="#F00" stroke-width="1" /><polyline fill="none" opacity="100" points="-100.0,714.0 -96.0,714.0" stroke="#F00" stroke-width="1" /><polyline fill="none" opacity="100" points="-100.0,718.0 -96.0,718.0" stroke="#F00" stroke-width="1" /><polyline fill="none" opacity="100" points="-109.0,700.0 -126.0,700.0" stroke="#F00" stroke-width="1" /><polygon fill="#F00" opacity="100" points="-121.0738,698.68 -126.0,700.0 -121.0738,701.32" stroke="#F00" stroke-width="1" /><polyline fill="none" opacity="100" points="40.0,663.0 24.0,663.0" stroke="#F00" stroke-width="1" /><polygon fill="#F00" opacity="100" points="28.6364,661.7577 24.0,663.0 28.6364,664.2423" stroke="#F00" stroke-width="1" /><polyline fill="none" opacity="100" points="-126.0,634.0 -111.0,634.0" stroke="#090" stroke-width="1" /><polygon fill="#090" opacity="100" points="-115.3467,635.1647 -111.0,634.0 -115.3467,632.8353" stroke="#090" stroke-width="1" /><polyline fill="none" opacity="100" points="24.0,640.0 40.0,640.0" stroke="#090" stroke-width="1" /><polygon fill="#090" opacity="100" points="35.3636,641.2423 40.0,640.0 35.3636,638.7577" stroke="#090" stroke-width="1" /><polyline fill="none" opacity="100" points="477.0,612.0 477.0,626.0 566.0,626.0 566.0,582.0 665.0,582.0 665.0,469.0 573.0,469.0" stroke="#000" stroke-width="1" /><polyline fill="none" opacity="100" points="573.0,447.0 687.0,447.0 687.0,551.0 747.0,551.0" stroke="#000" stroke-width="1" /><polyline fill="none" opacity="100" points="747.0,574.0 687.0,574.0 687.0,582.0 691.0,582.0 691.0,721.0 687.0,721.0 687.0,778.0 746.0,778.0" stroke="#000" stroke-width="1" /><polyline fill="none" opacity="100" points="746.0,800.0 578.0,800.0" stroke="#000" stroke-width="1" /><polyline fill="none" opacity="100" points="578.0,778.0 665.0,778.0 665.0,721.0 565.0,721.0 565.0,678.0 555.0,678.0" stroke="#000" stroke-width="1" /><polyline fill="none" opacity="100" points="487.0,678.0 477.0,678.0 477.0,692.0" stroke="#000" stroke-width="1" /><polyline fill="none" opacity="100" points="580.0,800.0 580.0,778.0" stroke="#000" stroke-width="1" /><polyline fill="none" opacity="100" points="584.0,800.0 584.0,778.0" stroke="#000" stroke-width="1" /><polyline fill="none" opacity="100" points="588.0,800.0 588.0,778.0" stroke="#000" stroke-width="1" /><polyline fill="none" opacity="100" points="592.0,800.0 592.0,778.0" stroke="#000" stroke-width="1" /><polyline fill="none" opacity="100" points="596.0,800.0 596.0,778.0" stroke="#000" stroke-width="1" /><polyline fill="none" opacity="100" points="744.0,800.0 744.0,778.0" stroke="#000" stroke-width="1" /><polyline fill="none" opacity="100" points="740.0,800.0 740.0,778.0" stroke="#000" stroke-width="1" /><polyline fill="none" opacity="100" points="736.0,800.0 736.0,778.0" stroke="#000" stroke-width="1" /><polyline fill="none" opacity="100" points="732.0,800.0 732.0,778.0" stroke="#000" stroke-width="1" /><polyline fill="none" opacity="100" points="728.0,800.0 728.0,778.0" stroke="#000" stroke-width="1" /><polyline fill="none" opacity="100" points="724.0,800.0 724.0,778.0" stroke="#000" stroke-width="1" /><polyline fill="none" opacity="100" points="720.0,800.0 720.0,778.0" stroke="#000" stroke-width="1" /><polyline fill="none" opacity="100" points="716.0,800.0 716.0,778.0" stroke="#000" stroke-width="1" /><polyline fill="none" opacity="100" points="712.0,800.0 712.0,778.0" stroke="#000" stroke-width="1" /><polyline fill="none" opacity="100" points="610.0,800.0 610.0,778.0" stroke="#000" stroke-width="1" /><polyline fill="none" opacity="100" points="614.0,800.0 614.0,778.0" stroke="#000" stroke-width="1" /><polyline fill="none" opacity="100" points="618.0,800.0 618.0,778.0" stroke="#000" stroke-width="1" /><polyline fill="none" opacity="100" points="622.0,800.0 622.0,778.0" stroke="#000" stroke-width="1" /><polyline fill="none" opacity="100" points="626.0,800.0 626.0,778.0" stroke="#000" stroke-width="1" /><polyline fill="none" opacity="100" points="745.0,574.0 745.0,551.0" stroke="#000" stroke-width="1" /><polyline fill="none" opacity="100" points="741.0,574.0 741.0,551.0" stroke="#000" stroke-width="1" /><polyline fill="none" opacity="100" points="737.0,574.0 737.0,551.0" stroke="#000" stroke-width="1" /><polyline fill="none" opacity="100" points="733.0,574.0 733.0,551.0" stroke="#000" stroke-width="1" /><polyline fill="none" opacity="100" points="729.0,574.0 729.0,551.0" stroke="#000" stroke-width="1" /><polyline fill="none" opacity="100" points="725.0,574.0 725.0,551.0" stroke="#000" stroke-width="1" /><polyline fill="none" opacity="100" points="721.0,574.0 721.0,551.0" stroke="#000" stroke-width="1" /><polyline fill="none" opacity="100" points="717.0,574.0 717.0,551.0" stroke="#000" stroke-width="1" /><polyline fill="none" opacity="100" points="713.0,574.0 713.0,551.0" stroke="#000" stroke-width="1" /><polyline fill="none" opacity="100" points="575.0,469.0 575.0,447.0" stroke="#000" stroke-width="1" /><polyline fill="none" opacity="100" points="579.0,469.0 579.0,447.0" stroke="#000" stroke-width="1" /><polyline fill="none" opacity="100" points="583.0,469.0 583.0,447.0" stroke="#000" stroke-width="1" /><polyline fill="none" opacity="100" points="587.0,469.0 587.0,447.0" stroke="#000" stroke-width="1" /><polyline fill="none" opacity="100" points="591.0,469.0 591.0,447.0" stroke="#000" stroke-width="1" /><polyline fill="none" opacity="100" points="606.0,469.0 606.0,447.0" stroke="#000" stroke-width="1" /><polyline fill="none" opacity="100" points="610.0,469.0 610.0,447.0" stroke="#000" stroke-width="1" /><polyline fill="none" opacity="100" points="614.0,469.0 614.0,447.0" stroke="#000" stroke-width="1" /><polyline fill="none" opacity="100" points="618.0,469.0 618.0,447.0" stroke="#000" stroke-width="1" /><polyline fill="none" opacity="100" points="622.0,469.0 622.0,447.0" stroke="#000" stroke-width="1" /><polyline fill="none" opacity="100" points="494.0,626.0 494.0,651.0" stroke="#000" stroke-width="1" /><polyline fill="none" opacity="100" points="498.0,626.0 498.0,651.0" stroke="#000" stroke-width="1" /><polyline fill="none" opacity="100" points="502.0,626.0 502.0,651.0" stroke="#000" stroke-width="1" /><polyline fill="none" opacity="100" points="506.0,626.0 506.0,651.0" stroke="#000" stroke-width="1" /><polyline fill="none" opacity="100" points="510.0,626.0 510.0,651.0" stroke="#000" stroke-width="1" /><polyline fill="none" opacity="100" points="514.0,626.0 514.0,651.0" stroke="#000" stroke-width="1" /><polyline fill="none" opacity="100" points="518.0,626.0 518.0,651.0" stroke="#000" stroke-width="1" /><polyline fill="none" opacity="100" points="522.0,626.0 522.0,651.0" stroke="#000" stroke-width="1" /><polyline fill="none" opacity="100" points="526.0,626.0 526.0,651.0" stroke="#000" stroke-width="1" /><polyline fill="none" opacity="100" points="530.0,626.0 530.0,651.0" stroke="#000" stroke-width="1" /><polyline fill="none" opacity="100" points="534.0,626.0 534.0,651.0" stroke="#000" stroke-width="1" /><polyline fill="none" opacity="100" points="538.0,626.0 538.0,651.0" stroke="#000" stroke-width="1" /><polyline fill="none" opacity="100" points="542.0,626.0 542.0,651.0" stroke="#000" stroke-width="1" /><polyline fill="none" opacity="100" points="546.0,626.0 546.0,651.0" stroke="#000" stroke-width="1" /><polygon fill="#D0D0D0" opacity="100" points="656.0,622.0 665.0,622.0 665.0,681.0 656.0,681.0" stroke="#000" stroke-width="1" /><polyline fill="none" opacity="100" points="548.0,675.0 548.0,654.0" stroke="#7F7F7F" stroke-width="1" /><polyline fill="none" opacity="100" points="544.0,675.0 544.0,654.0" stroke="#7F7F7F" stroke-width="1" /><polyline fill="none" opacity="100" points="540.0,675.0 540.0,654.0" stroke="#7F7F7F" stroke-width="1" /><polyline fill="none" opacity="100" points="536.0,675.0 536.0,654.0" stroke="#7F7F7F" stroke-width="1" /><polyline fill="none" opacity="100" points="532.0,675.0 532.0,654.0" stroke="#7F7F7F" stroke-width="1" /><polyline fill="none" opacity="100" points="528.0,675.0 528.0,654.0" stroke="#7F7F7F" stroke-width="1" /><polyline fill="none" opacity="100" points="524.0,675.0 524.0,654.0" stroke="#7F7F7F" stroke-width="1" /><polyline fill="none" opacity="100" points="520.0,675.0 520.0,654.0" stroke="#7F7F7F" stroke-width="1" /><polyline fill="none" opacity="100" points="516.0,675.0 516.0,654.0" stroke="#7F7F7F" stroke-width="1" /><polyline fill="none" opacity="100" points="512.0,675.0 512.0,654.0" stroke="#7F7F7F" stroke-width="1" /><polyline fill="none" opacity="100" points="508.0,675.0 508.0,654.0" stroke="#7F7F7F" stroke-width="1" /><polyline fill="none" opacity="100" points="504.0,675.0 504.0,654.0" stroke="#7F7F7F" stroke-width="1" /><polyline fill="none" opacity="100" points="500.0,675.0 500.0,654.0" stroke="#7F7F7F" stroke-width="1" /><polyline fill="none" opacity="100" points="496.0,675.0 496.0,654.0" stroke="#7F7F7F" stroke-width="1" /><polyline fill="none" opacity="100" points="492.0,675.0 492.0,654.0" stroke="#7F7F7F" stroke-width="1" /><polygon fill="#9B5509" opacity="100" points="555.0,654.0 487.0,654.0 487.0,651.0 555.0,651.0" stroke="#000" stroke-width="1" /><polygon fill="#9B5509" opacity="100" points="555.0,662.0 555.0,667.0 487.0,667.0 487.0,662.0" stroke="#000" stroke-width="1" /><polygon fill="#9B5509" opacity="100" points="555.0,675.0 487.0,675.0 487.0,678.0 555.0,678.0" stroke="#000" stroke-width="1" /><polyline fill="none" opacity="100" points="566.0,609.0 574.0,609.0 574.0,582.0" stroke="#000" stroke-width="1" /><text fill="#FFF" font-family="Arial" font-size="10" font-weight="normal" opacity="100" transform="rotate(-90.0 563.0,608.0) translate(0 10)" x="563.0" y="608.0">кассы</text><polyline fill="none" opacity="100" points="576.0,610.0 601.0,610.0" stroke="#000" stroke-width="0.5" /><polygon fill="none" opacity="100" points="604.0,668.0 598.0,668.0 598.0,674.0 604.0,674.0" stroke="#000" stroke-width="1" /><polyline fill="none" opacity="100" points="604.0,671.0 656.0,671.0" stroke="#000" stroke-width="0.5" /><polyline fill="none" opacity="100" points="603.0,612.0 599.0,612.0" stroke="#090" stroke-width="1" /><polyline fill="none" opacity="100" points="603.0,616.0 599.0,616.0" stroke="#090" stroke-width="1" /><polyline fill="none" opacity="100" points="603.0,620.0 599.0,620.0" stroke="#090" stroke-width="1" /><polyline fill="none" opacity="100" points="603.0,624.0 599.0,624.0" stroke="#090" stroke-width="1" /><polyline fill="none" opacity="100" points="603.0,628.0 599.0,628.0" stroke="#090" stroke-width="1" /><polyline fill="none" opacity="100" points="603.0,632.0 599.0,632.0" stroke="#090" stroke-width="1" /><polyline fill="none" opacity="100" points="603.0,636.0 599.0,636.0" stroke="#090" stroke-width="1" /><polyline fill="none" opacity="100" points="603.0,640.0 599.0,640.0" stroke="#090" stroke-width="1" /><polyline fill="none" opacity="100" points="603.0,644.0 599.0,644.0" stroke="#090" stroke-width="1" /><polyline fill="none" opacity="100" points="603.0,648.0 599.0,648.0" stroke="#090" stroke-width="1" /><polyline fill="none" opacity="100" points="603.0,652.0 599.0,652.0" stroke="#090" stroke-width="1" /><polyline fill="none" opacity="100" points="603.0,656.0 599.0,656.0" stroke="#090" stroke-width="1" /><polyline fill="none" opacity="100" points="603.0,660.0 599.0,660.0" stroke="#090" stroke-width="1" /><polyline fill="none" opacity="100" points="603.0,664.0 599.0,664.0" stroke="#090" stroke-width="1" /><polyline fill="none" opacity="100" points="603.0,678.0 599.0,678.0" stroke="#F00" stroke-width="1" /><polyline fill="none" opacity="100" points="603.0,682.0 599.0,682.0" stroke="#F00" stroke-width="1" /><polyline fill="none" opacity="100" points="603.0,686.0 599.0,686.0" stroke="#F00" stroke-width="1" /><polyline fill="none" opacity="100" points="603.0,690.0 599.0,690.0" stroke="#F00" stroke-width="1" /><polyline fill="none" opacity="100" points="603.0,694.0 599.0,694.0" stroke="#F00" stroke-width="1" /><polyline fill="none" opacity="100" points="603.0,698.0 599.0,698.0" stroke="#F00" stroke-width="1" /><polyline fill="none" opacity="100" points="603.0,702.0 599.0,702.0" stroke="#F00" stroke-width="1" /><polyline fill="none" opacity="100" points="603.0,706.0 599.0,706.0" stroke="#F00" stroke-width="1" /><polyline fill="none" opacity="100" points="603.0,710.0 599.0,710.0" stroke="#F00" stroke-width="1" /><polyline fill="none" opacity="100" points="603.0,714.0 599.0,714.0" stroke="#F00" stroke-width="1" /><polyline fill="none" opacity="100" points="603.0,718.0 599.0,718.0" stroke="#F00" stroke-width="1" /><polyline fill="none" opacity="100" points="621.0,700.0 636.0,700.0" stroke="#F00" stroke-width="1" /><polygon fill="#F00" opacity="100" points="631.6533,701.1647 636.0,700.0 631.6533,698.8353" stroke="#F00" stroke-width="1" /><polyline fill="none" opacity="100" points="463.0,663.0 479.0,663.0" stroke="#F00" stroke-width="1" /><polygon fill="#F00" opacity="100" points="474.3636,664.2423 479.0,663.0 474.3636,661.7577" stroke="#F00" stroke-width="1" /><polyline fill="none" opacity="100" points="636.0,633.0 621.0,633.0" stroke="#090" stroke-width="1" /><polygon fill="#090" opacity="100" points="625.3467,631.8353 621.0,633.0 625.3467,634.1647" stroke="#090" stroke-width="1" /><polyline fill="none" opacity="100" points="479.0,640.0 463.0,640.0" stroke="#090" stroke-width="1" /><polygon fill="#090" opacity="100" points="467.6364,638.7577 463.0,640.0 467.6364,641.2423" stroke="#090" stroke-width="1" /><text fill="#00AFAF" font-family="Arial" font-size="15" font-weight="normal" opacity="100" transform="rotate(-0.0 -355.0,643.0) translate(0 15)" x="-355.0" y="643.0">Осенний бульвар</text><text fill="#00AFAF" font-family="Arial" font-size="15" font-weight="normal" opacity="100" transform="rotate(-0.0 747.0,641.0) translate(0 15)" x="747.0" y="641.0">Осенний бульвар</text><g transform="rotate(-85.0,250.0,620.0)"><text fill="#FFD900" font-family="Arial" font-size="25" font-weight="normal" opacity="100" x="78.25" y="352.5">1</text><text fill="#FFD900" font-family="Arial" font-size="25" font-weight="normal" opacity="100" x="63.25" y="188.5">2</text><text fill="#FFD900" font-family="Arial" font-size="25" font-weight="normal" opacity="100" x="315.25" y="68.5">3</text><text fill="#FFD900" font-family="Arial" font-size="25" font-weight="normal" opacity="100" x="327.25" y="177.5">4</text><text fill="#FFD900" font-family="Arial" font-size="25" font-weight="normal" opacity="100" x="398.25" y="951.5">5</text><text fill="#FFD900" font-family="Arial" font-size="25" font-weight="normal" opacity="100" x="370.25" y="1103.5">6</text><text fill="#FFD900" font-family="Arial" font-size="25" font-weight="normal" opacity="100" x="145.25" y="1120.5">7</text><text fill="#FFD900" font-family="Arial" font-size="25" font-weight="normal" opacity="100" x="133.25" y="983.5">8</text></g></g></g></svg>