<?xml version="1.0" encoding="utf-8" ?>
<svg baseProfile="tiny" height="660px" version="1.2" width="1040px" xmlns="http://www.w3.org/2000/svg" xmlns:ev="http://www.w3.org/2001/xml-events" xmlns:xlink="http://www.w3.org/1999/xlink"><defs /><g><polyline fill="none" opacity="100" points="-37.0,219.0 28.3047,199.9375 93.8438,182.75 159.6172,167.4375 225.625,154.0 291.8672,142.4375 358.3438,132.75 425.0547,124.9375 492.0,119.0 559.1797,114.9375 626.5938,112.75 694.2422,112.4375 762.125,114.0 830.2422,117.4375 898.5938,122.75 967.1797,129.9375 1036.0,139.0" stroke="#F5F5F5" stroke-width="80" /><polyline fill="none" opacity="100" points="-47.0,138.0 25.7266,121.5391 97.7812,107.2812 169.1641,95.2266 239.875,85.375 309.9141,77.7266 379.2812,72.2812 447.9766,69.0391 516.0,68.0 583.3516,69.1641 650.0312,72.5312 716.0391,78.1016 781.375,85.875 846.0391,95.8516 910.0312,108.0312 973.3516,122.4141 1036.0,139.0" stroke="#F5F5F5" stroke-width="40" /><polyline fill="none" opacity="100" points="163.0,-75.0 140.4219,-13.8516 120.6875,45.2188 103.7969,102.2109 89.75,157.125 78.5469,209.9609 70.1875,260.7188 64.6719,309.3984 62.0,356.0 62.1719,400.5234 65.1875,442.9688 71.0469,483.3359 79.75,521.625 91.2969,557.8359 105.6875,591.9688 122.9219,624.0234 143.0,654.0" stroke="#F5F5F5" stroke-width="40" /><polygon fill="#DE64A1" opacity="100" points="865.0,314.0 415.0,314.0 415.0,284.0 865.0,284.0" stroke="#000" stroke-width="1" /><polygon fill="#DE64A1" opacity="100" points="415.0,424.0 415.0,394.0 865.0,394.0 865.0,424.0" stroke="#000" stroke-width="1" /><text fill="#DE64A1" font-family="Arial" font-size="20" font-weight="normal" opacity="100" transform="rotate(-0.0 415.0,260.0) translate(0 20)" x="415.0" y="260.0">&lt;&lt; Улица Дмитриевского</text><text fill="#DE64A1" font-family="Arial" font-size="20" font-weight="normal" opacity="100" transform="rotate(-0.0 741.0,424.0) translate(0 20)" x="741.0" y="424.0">Некрасовка &gt;&gt;</text><text fill="#DE64A1" font-family="Arial" font-size="25" font-weight="bold" opacity="100" transform="rotate(-0.0 550.0,328.0) translate(0 25)" x="550.0" y="328.0">Лухмановская</text><polygon fill="#34349C" opacity="100" points="642.0,358.0 642.0,362.0 643.0,362.0 643.0,358.0" stroke="#34349C" stroke-width="1" /><polygon fill="#F00" opacity="100" points="642.0,354.0 642.0,358.0 643.0,358.0 643.0,354.0" stroke="#F00" stroke-width="1" /><polyline fill="none" opacity="100" points="913.0,383.0 865.0,383.0 865.0,394.0" stroke="#000" stroke-width="1" /><polyline fill="none" opacity="100" points="913.0,325.0 865.0,325.0 865.0,314.0" stroke="#000" stroke-width="1" /><polyline fill="none" opacity="100" points="865.0,337.0 913.0,337.0" stroke="#000" stroke-width="1" /><polyline fill="none" opacity="100" points="905.0,325.0 939.0,291.0 1021.0,291.0 1021.0,532.0 1003.0,532.0 1003.0,516.0 943.0,516.0" stroke="#000" stroke-width="1" /><polyline fill="none" opacity="100" points="943.0,512.0 986.0,512.0" stroke="#000" stroke-width="1" /><polyline fill="none" opacity="100" points="986.0,486.0 984.0,486.0" stroke="#000" stroke-width="1" /><polyline fill="none" opacity="100" points="943.0,498.0 1000.0,498.0" stroke="#000" stroke-width="1" /><polyline fill="none" opacity="100" points="998.0,486.0 1003.0,486.0 1003.0,417.0 939.0,417.0 905.0,383.0" stroke="#000" stroke-width="1" /><polyline fill="none" opacity="100" points="945.0,512.0 945.0,498.0" stroke="#000" stroke-width="1" /><polyline fill="none" opacity="100" points="949.0,512.0 949.0,498.0" stroke="#000" stroke-width="1" /><polyline fill="none" opacity="100" points="953.0,512.0 953.0,498.0" stroke="#000" stroke-width="1" /><polyline fill="none" opacity="100" points="957.0,512.0 957.0,498.0" stroke="#000" stroke-width="1" /><polyline fill="none" opacity="100" points="961.0,512.0 961.0,498.0" stroke="#000" stroke-width="1" /><polyline fill="none" opacity="100" points="965.0,512.0 965.0,498.0" stroke="#000" stroke-width="1" /><polyline fill="none" opacity="100" points="969.0,512.0 969.0,498.0" stroke="#000" stroke-width="1" /><polyline fill="none" opacity="100" points="973.0,512.0 973.0,498.0" stroke="#000" stroke-width="1" /><polyline fill="none" opacity="100" points="977.0,512.0 977.0,498.0" stroke="#000" stroke-width="1" /><polyline fill="none" opacity="100" points="981.0,512.0 981.0,498.0" stroke="#000" stroke-width="1" /><polyline fill="none" opacity="100" points="911.0,337.0 911.0,383.0" stroke="#000" stroke-width="1" /><polyline fill="none" opacity="100" points="907.0,337.0 907.0,383.0" stroke="#000" stroke-width="1" /><polyline fill="none" opacity="100" points="903.0,337.0 903.0,383.0" stroke="#000" stroke-width="1" /><polyline fill="none" opacity="100" points="899.0,337.0 899.0,383.0" stroke="#000" stroke-width="1" /><polyline fill="none" opacity="100" points="895.0,337.0 895.0,383.0" stroke="#000" stroke-width="1" /><polyline fill="none" opacity="100" points="891.0,337.0 891.0,383.0" stroke="#000" stroke-width="1" /><polyline fill="none" opacity="100" points="887.0,337.0 887.0,383.0" stroke="#000" stroke-width="1" /><polyline fill="none" opacity="100" points="883.0,337.0 883.0,383.0" stroke="#000" stroke-width="1" /><polyline fill="none" opacity="100" points="879.0,337.0 879.0,383.0" stroke="#000" stroke-width="1" /><polyline fill="none" opacity="100" points="875.0,337.0 875.0,383.0" stroke="#000" stroke-width="1" /><polyline fill="none" opacity="100" points="871.0,337.0 871.0,383.0" stroke="#000" stroke-width="1" /><polyline fill="none" opacity="100" points="867.0,337.0 867.0,383.0" stroke="#000" stroke-width="1" /><ellipse cx="975.0" cy="353.5" fill="#D0D0D0" opacity="100" rx="15.0" ry="35.5" stroke="#000" stroke-width="1" /><polygon fill="#FFF" opacity="100" points="956.0,367.0 965.0,368.0 965.0,338.0 956.0,339.0" stroke="#FFF" stroke-width="1" /><polygon fill="#FFF" opacity="100" points="969.0,338.0 961.0,338.0 961.0,368.0 969.0,368.0" stroke="#000" stroke-width="1" /><text fill="#000" font-family="Arial" font-size="10" font-weight="normal" opacity="100" transform="rotate(-90.0 959.0,365.0) translate(0 10)" x="959.0" y="365.0">кассы</text><polyline fill="none" opacity="100" points="962.0,372.0 941.0,372.0" stroke="#000" stroke-width="1" /><polygon fill="none" opacity="100" points="941.0,372.0 936.0,372.0 936.0,367.0 941.0,367.0" stroke="#000" stroke-width="1" /><polyline fill="none" opacity="100" points="940.0,297.0 936.0,297.0" stroke="#090" stroke-width="1" /><polyline fill="none" opacity="100" points="940.0,301.0 936.0,301.0" stroke="#090" stroke-width="1" /><polyline fill="none" opacity="100" points="940.0,305.0 936.0,305.0" stroke="#090" stroke-width="1" /><polyline fill="none" opacity="100" points="940.0,309.0 936.0,309.0" stroke="#090" stroke-width="1" /><polyline fill="none" opacity="100" points="940.0,313.0 936.0,313.0" stroke="#090" stroke-width="1" /><polyline fill="none" opacity="100" points="940.0,317.0 936.0,317.0" stroke="#090" stroke-width="1" /><polyline fill="none" opacity="100" points="940.0,321.0 936.0,321.0" stroke="#090" stroke-width="1" /><polyline fill="none" opacity="100" points="940.0,325.0 936.0,325.0" stroke="#090" stroke-width="1" /><polyline fill="none" opacity="100" points="940.0,329.0 936.0,329.0" stroke="#090" stroke-width="1" /><polyline fill="none" opacity="100" points="940.0,333.0 936.0,333.0" stroke="#090" stroke-width="1" /><polyline fill="none" opacity="100" points="940.0,337.0 936.0,337.0" stroke="#090" stroke-width="1" /><polyline fill="none" opacity="100" points="940.0,341.0 936.0,341.0" stroke="#090" stroke-width="1" /><polyline fill="none" opacity="100" points="940.0,345.0 936.0,345.0" stroke="#090" stroke-width="1" /><polyline fill="none" opacity="100" points="940.0,349.0 936.0,349.0" stroke="#090" stroke-width="1" /><polyline fill="none" opacity="100" points="940.0,353.0 936.0,353.0" stroke="#090" stroke-width="1" /><polyline fill="none" opacity="100" points="940.0,357.0 936.0,357.0" stroke="#090" stroke-width="1" /><polyline fill="none" opacity="100" points="940.0,361.0 936.0,361.0" stroke="#090" stroke-width="1" /><polyline fill="none" opacity="100" points="937.0,413.0 941.0,413.0" stroke="#F00" stroke-width="1" /><polyline fill="none" opacity="100" points="937.0,409.0 941.0,409.0" stroke="#F00" stroke-width="1" /><polyline fill="none" opacity="100" points="937.0,405.0 941.0,405.0" stroke="#F00" stroke-width="1" /><polyline fill="none" opacity="100" points="937.0,401.0 941.0,401.0" stroke="#F00" stroke-width="1" /><polyline fill="none" opacity="100" points="937.0,397.0 941.0,397.0" stroke="#F00" stroke-width="1" /><polyline fill="none" opacity="100" points="937.0,393.0 941.0,393.0" stroke="#F00" stroke-width="1" /><polyline fill="none" opacity="100" points="937.0,389.0 941.0,389.0" stroke="#F00" stroke-width="1" /><polyline fill="none" opacity="100" points="937.0,385.0 941.0,385.0" stroke="#F00" stroke-width="1" /><polyline fill="none" opacity="100" points="937.0,381.0 941.0,381.0" stroke="#F00" stroke-width="1" /><polyline fill="none" opacity="100" points="937.0,377.0 941.0,377.0" stroke="#F00" stroke-width="1" /><polygon fill="#D0EFFF" opacity="100" points="998.0,486.0 986.0,486.0 986.0,498.0 998.0,498.0" stroke="#000" stroke-width="1" /><polygon fill="#D0EFFF" opacity="100" points="913.0,325.0 901.0,325.0 901.0,337.0 913.0,337.0" stroke="#000" stroke-width="1" /><text fill="#000" font-family="Arial" font-size="4" font-weight="normal" opacity="100" transform="rotate(-0.0 988.0,489.0) translate(0 4)" x="988.0" y="489.0">лифт</text><text fill="#000" font-family="Arial" font-size="4" font-weight="normal" opacity="100" transform="rotate(-0.0 903.0,328.0) translate(0 4)" x="903.0" y="328.0">лифт</text><polyline fill="none" opacity="100" points="964.0,402.0 975.0,402.0" stroke="#F00" stroke-width="1" /><polygon fill="#F00" opacity="100" points="971.8124,402.8541 975.0,402.0 971.8124,401.1459" stroke="#F00" stroke-width="1" /><polyline fill="none" opacity="100" points="979.0,304.0 968.0,304.0" stroke="#090" stroke-width="1" /><polygon fill="#090" opacity="100" points="971.1876,303.1459 968.0,304.0 971.1876,304.8541" stroke="#090" stroke-width="1" /><polyline fill="none" opacity="100" points="75.0,27.0 53.0,75.0 13.0,82.0" stroke="#000" stroke-width="1" /><polyline fill="none" opacity="100" points="79.0,29.0 62.0,66.0" stroke="#000" stroke-width="1" /><polyline fill="none" opacity="100" points="90.0,34.0 73.0,71.0 132.0,98.0 152.0,56.0" stroke="#000" stroke-width="1" /><polyline fill="none" opacity="100" points="16.0,100.0 72.0,90.0 128.0,116.0 257.0,244.0 257.0,417.0 375.0,417.0" stroke="#000" stroke-width="1" /><polyline fill="none" opacity="100" points="15.0,95.0 54.0,88.0" stroke="#000" stroke-width="1" /><polyline fill="none" opacity="100" points="367.0,382.0 415.0,382.0 415.0,394.0" stroke="#000" stroke-width="1" /><polyline fill="none" opacity="100" points="415.0,370.0 367.0,370.0" stroke="#000" stroke-width="1" /><polyline fill="none" opacity="100" points="375.0,327.0 375.0,291.0 275.0,291.0 275.0,238.0 157.0,120.0 160.0,114.0" stroke="#000" stroke-width="1" /><polyline fill="none" opacity="100" points="151.0,103.0 148.0,110.0 146.0,109.0 167.0,63.0" stroke="#000" stroke-width="1" /><polyline fill="none" opacity="100" points="163.0,61.0 145.0,100.0" stroke="#000" stroke-width="1" /><polyline fill="none" opacity="100" points="367.0,327.0 415.0,327.0 415.0,314.0" stroke="#000" stroke-width="1" /><polyline fill="none" opacity="100" points="375.0,417.0 375.0,382.0" stroke="#000" stroke-width="1" /><polyline fill="none" opacity="100" points="15.0,82.0 17.0,94.0" stroke="#000" stroke-width="1" /><polyline fill="none" opacity="100" points="18.9338,81.2754 20.9338,93.2754" stroke="#000" stroke-width="1" /><polyline fill="none" opacity="100" points="22.8676,80.5507 24.8676,92.5507" stroke="#000" stroke-width="1" /><polyline fill="none" opacity="100" points="26.8014,79.8261 28.8014,91.8261" stroke="#000" stroke-width="1" /><polyline fill="none" opacity="100" points="30.7353,79.1014 32.7353,91.1014" stroke="#000" stroke-width="1" /><polyline fill="none" opacity="100" points="34.6691,78.3768 36.6691,90.3768" stroke="#000" stroke-width="1" /><polyline fill="none" opacity="100" points="38.6029,77.6521 40.6029,89.6521" stroke="#000" stroke-width="1" /><polyline fill="none" opacity="100" points="42.5367,76.9275 44.5367,88.9275" stroke="#000" stroke-width="1" /><polyline fill="none" opacity="100" points="46.4705,76.2028 48.4705,88.2028" stroke="#000" stroke-width="1" /><polyline fill="none" opacity="100" points="50.4043,75.4782 52.4043,87.4782" stroke="#000" stroke-width="1" /><polyline fill="none" opacity="100" points="162.0,63.0 151.0,58.0" stroke="#000" stroke-width="1" /><polyline fill="none" opacity="100" points="160.337,66.6379 149.337,61.6379" stroke="#000" stroke-width="1" /><polyline fill="none" opacity="100" points="158.6739,70.2758 147.6739,65.2758" stroke="#000" stroke-width="1" /><polyline fill="none" opacity="100" points="157.0109,73.9137 146.0109,68.9137" stroke="#000" stroke-width="1" /><polyline fill="none" opacity="100" points="155.3478,77.5516 144.3478,72.5516" stroke="#000" stroke-width="1" /><polyline fill="none" opacity="100" points="153.6848,81.1895 142.6848,76.1895" stroke="#000" stroke-width="1" /><polyline fill="none" opacity="100" points="152.0218,84.8274 141.0218,79.8274" stroke="#000" stroke-width="1" /><polyline fill="none" opacity="100" points="150.3587,88.4653 139.3587,83.4653" stroke="#000" stroke-width="1" /><polyline fill="none" opacity="100" points="148.6957,92.1032 137.6957,87.1032" stroke="#000" stroke-width="1" /><polyline fill="none" opacity="100" points="147.0326,95.7411 136.0326,90.7411" stroke="#000" stroke-width="1" /><polyline fill="none" opacity="100" points="89.0,36.0 78.0,31.0" stroke="#000" stroke-width="1" /><polyline fill="none" opacity="100" points="87.337,39.6379 76.337,34.6379" stroke="#000" stroke-width="1" /><polyline fill="none" opacity="100" points="85.6739,43.2758 74.6739,38.2758" stroke="#000" stroke-width="1" /><polyline fill="none" opacity="100" points="84.0109,46.9137 73.0109,41.9137" stroke="#000" stroke-width="1" /><polyline fill="none" opacity="100" points="82.3478,50.5516 71.3478,45.5516" stroke="#000" stroke-width="1" /><polyline fill="none" opacity="100" points="80.6848,54.1895 69.6848,49.1895" stroke="#000" stroke-width="1" /><polyline fill="none" opacity="100" points="79.0218,57.8274 68.0218,52.8274" stroke="#000" stroke-width="1" /><polyline fill="none" opacity="100" points="77.3587,61.4653 66.3587,56.4653" stroke="#000" stroke-width="1" /><polyline fill="none" opacity="100" points="75.6957,65.1032 64.6957,60.1032" stroke="#000" stroke-width="1" /><polyline fill="none" opacity="100" points="74.0326,68.7411 63.0326,63.7411" stroke="#000" stroke-width="1" /><polyline fill="none" opacity="100" points="369.0,370.0 369.0,327.0" stroke="#000" stroke-width="1" /><polyline fill="none" opacity="100" points="373.0,370.0 373.0,327.0" stroke="#000" stroke-width="1" /><polyline fill="none" opacity="100" points="377.0,370.0 377.0,327.0" stroke="#000" stroke-width="1" /><polyline fill="none" opacity="100" points="381.0,370.0 381.0,327.0" stroke="#000" stroke-width="1" /><polyline fill="none" opacity="100" points="385.0,370.0 385.0,327.0" stroke="#000" stroke-width="1" /><polyline fill="none" opacity="100" points="389.0,370.0 389.0,327.0" stroke="#000" stroke-width="1" /><polyline fill="none" opacity="100" points="393.0,370.0 393.0,327.0" stroke="#000" stroke-width="1" /><polyline fill="none" opacity="100" points="397.0,370.0 397.0,327.0" stroke="#000" stroke-width="1" /><polyline fill="none" opacity="100" points="401.0,370.0 401.0,327.0" stroke="#000" stroke-width="1" /><polyline fill="none" opacity="100" points="405.0,370.0 405.0,327.0" stroke="#000" stroke-width="1" /><polyline fill="none" opacity="100" points="409.0,370.0 409.0,327.0" stroke="#000" stroke-width="1" /><polyline fill="none" opacity="100" points="413.0,370.0 413.0,327.0" stroke="#000" stroke-width="1" /><polyline fill="none" opacity="100" points="195.0,166.0 187.0,174.0" stroke="#000" stroke-width="1" /><polyline fill="none" opacity="100" points="192.1716,163.1716 184.1716,171.1716" stroke="#000" stroke-width="1" /><polyline fill="none" opacity="100" points="189.3431,160.3431 181.3431,168.3431" stroke="#000" stroke-width="1" /><polyline fill="none" opacity="100" points="188.0,159.0 209.0,180.0" stroke="#000" stroke-width="1" /><polyline fill="none" opacity="100" points="247.0,218.0 239.0,226.0" stroke="#000" stroke-width="1" /><polyline fill="none" opacity="100" points="244.1716,215.1716 236.1716,223.1716" stroke="#000" stroke-width="1" /><polyline fill="none" opacity="100" points="241.3431,212.3431 233.3431,220.3431" stroke="#000" stroke-width="1" /><polyline fill="none" opacity="100" points="240.0,211.0 262.0,233.0" stroke="#000" stroke-width="1" /><polyline fill="none" opacity="100" points="159.0,131.0 151.0,139.0" stroke="#000" stroke-width="1" /><polyline fill="none" opacity="100" points="156.1716,128.1716 148.1716,136.1716" stroke="#000" stroke-width="1" /><polyline fill="none" opacity="100" points="153.3431,125.3431 145.3431,133.3431" stroke="#000" stroke-width="1" /><polyline fill="none" opacity="100" points="152.0,124.0 174.0,146.0" stroke="#000" stroke-width="1" /><ellipse cx="290.0" cy="353.5" fill="#D0D0D0" opacity="100" rx="15.0" ry="35.5" stroke="#000" stroke-width="1" /><polygon fill="#FFF" opacity="100" points="297.0,368.0 306.0,367.0 307.0,339.0 298.0,338.0" stroke="#FFF" stroke-width="1" /><polygon fill="#FFF" opacity="100" points="303.0,338.0 295.0,338.0 295.0,368.0 303.0,368.0" stroke="#000" stroke-width="1" /><text fill="#000" font-family="Arial" font-size="10" font-weight="normal" opacity="100" transform="rotate(-90.0 293.0,365.0) translate(0 10)" x="293.0" y="365.0">кассы</text><polyline fill="none" opacity="100" points="298.0,325.0 331.0,333.0" stroke="#000" stroke-width="1" /><polygon fill="none" opacity="100" points="335.0,339.0 330.0,338.0 331.0,333.0 336.0,334.0" stroke="#000" stroke-width="1" /><polyline fill="none" opacity="100" points="313.0,413.0 318.0,414.0" stroke="#090" stroke-width="1" /><polyline fill="none" opacity="100" points="313.8051,409.0819 318.8051,410.0819" stroke="#090" stroke-width="1" /><polyline fill="none" opacity="100" points="314.6102,405.1637 319.6102,406.1637" stroke="#090" stroke-width="1" /><polyline fill="none" opacity="100" points="315.4153,401.2456 320.4153,402.2456" stroke="#090" stroke-width="1" /><polyline fill="none" opacity="100" points="316.2204,397.3274 321.2204,398.3274" stroke="#090" stroke-width="1" /><polyline fill="none" opacity="100" points="317.0255,393.4093 322.0255,394.4093" stroke="#090" stroke-width="1" /><polyline fill="none" opacity="100" points="317.8306,389.4912 322.8306,390.4912" stroke="#090" stroke-width="1" /><polyline fill="none" opacity="100" points="318.6357,385.573 323.6357,386.573" stroke="#090" stroke-width="1" /><polyline fill="none" opacity="100" points="319.4408,381.6549 324.4408,382.6549" stroke="#090" stroke-width="1" /><polyline fill="none" opacity="100" points="320.2459,377.7367 325.2459,378.7367" stroke="#090" stroke-width="1" /><polyline fill="none" opacity="100" points="321.051,373.8186 326.051,374.8186" stroke="#090" stroke-width="1" /><polyline fill="none" opacity="100" points="321.8561,369.9005 326.8561,370.9005" stroke="#090" stroke-width="1" /><polyline fill="none" opacity="100" points="322.6612,365.9823 327.6612,366.9823" stroke="#090" stroke-width="1" /><polyline fill="none" opacity="100" points="323.4663,362.0642 328.4663,363.0642" stroke="#090" stroke-width="1" /><polyline fill="none" opacity="100" points="324.2714,358.146 329.2714,359.146" stroke="#090" stroke-width="1" /><polyline fill="none" opacity="100" points="325.0765,354.2279 330.0765,355.2279" stroke="#090" stroke-width="1" /><polyline fill="none" opacity="100" points="325.8816,350.3098 330.8816,351.3098" stroke="#090" stroke-width="1" /><polyline fill="none" opacity="100" points="326.6867,346.3916 331.6867,347.3916" stroke="#090" stroke-width="1" /><polyline fill="none" opacity="100" points="327.4917,342.4735 332.4917,343.4735" stroke="#090" stroke-width="1" /><polyline fill="none" opacity="100" points="331.0,329.0 336.0,330.0" stroke="#F00" stroke-width="1" /><polyline fill="none" opacity="100" points="331.824,325.0858 336.824,326.0858" stroke="#F00" stroke-width="1" /><polyline fill="none" opacity="100" points="332.6481,321.1716 337.6481,322.1716" stroke="#F00" stroke-width="1" /><polyline fill="none" opacity="100" points="333.4721,317.2574 338.4721,318.2574" stroke="#F00" stroke-width="1" /><polyline fill="none" opacity="100" points="334.2962,313.3432 339.2962,314.3432" stroke="#F00" stroke-width="1" /><polyline fill="none" opacity="100" points="335.1202,309.429 340.1202,310.429" stroke="#F00" stroke-width="1" /><polyline fill="none" opacity="100" points="335.9443,305.5148 340.9443,306.5148" stroke="#F00" stroke-width="1" /><polyline fill="none" opacity="100" points="336.7683,301.6006 341.7683,302.6006" stroke="#F00" stroke-width="1" /><polyline fill="none" opacity="100" points="337.5923,297.6864 342.5923,298.6864" stroke="#F00" stroke-width="1" /><polyline fill="none" opacity="100" points="338.4164,293.7722 343.4164,294.7722" stroke="#F00" stroke-width="1" /><polygon fill="#D0EFFF" opacity="100" points="379.0,370.0 367.0,370.0 367.0,382.0 379.0,382.0" stroke="#000" stroke-width="1" /><polygon fill="#D0EFFF" opacity="100" points="165.0,103.0 154.0,98.0 149.0,109.0 160.0,114.0" stroke="#000" stroke-width="1" /><polygon fill="#D0EFFF" opacity="100" points="59.0,62.0 48.0,57.0 43.0,68.0 54.0,73.0" stroke="#000" stroke-width="1" /><text fill="#000" font-family="Arial" font-size="4" font-weight="normal" opacity="100" transform="rotate(-0.0 369.0,373.0) translate(0 4)" x="369.0" y="373.0">лифт</text><text fill="#000" font-family="Arial" font-size="4" font-weight="normal" opacity="100" transform="rotate(-0.0 153.0,103.0) translate(0 4)" x="153.0" y="103.0">лифт</text><text fill="#000" font-family="Arial" font-size="4" font-weight="normal" opacity="100" transform="rotate(-0.0 47.0,62.0) translate(0 4)" x="47.0" y="62.0">лифт</text><polyline fill="none" opacity="100" points="293.0,305.0 283.0,305.0" stroke="#F00" stroke-width="1" /><polygon fill="#F00" opacity="100" points="285.8978,304.2235 283.0,305.0 285.8978,305.7765" stroke="#F00" stroke-width="1" /><polyline fill="none" opacity="100" points="283.0,400.0 293.0,400.0" stroke="#090" stroke-width="1" /><polygon fill="#090" opacity="100" points="290.1022,400.7765 293.0,400.0 290.1022,399.2235" stroke="#090" stroke-width="1" /><text fill="#00AFAF" font-family="Arial" font-size="15" font-weight="normal" opacity="100" transform="rotate(-0.0 310.0,127.0) translate(0 15)" x="310.0" y="127.0">Косинское шоссе</text><text fill="#00AFAF" font-family="Arial" font-size="15" font-weight="normal" opacity="100" transform="rotate(-0.0 595.0,118.0) translate(0 15)" x="595.0" y="118.0">Северо-Восточная хорда</text><text fill="#00AFAF" font-family="Arial" font-size="15" font-weight="normal" opacity="100" transform="rotate(-70.0 96.0,74.0) translate(0 15)" x="96.0" y="74.0">Лухмановская улица</text><text fill="#00AFAF" font-family="Arial" font-size="15" font-weight="normal" opacity="100" transform="rotate(70.0 79.0,488.0) translate(0 15)" x="79.0" y="488.0">Красковская улица</text><text fill="#FFD900" font-family="Arial" font-size="25" font-weight="normal" opacity="100" x="946.25" y="486.5">1</text><text fill="#FFD900" font-family="Arial" font-size="25" font-weight="normal" opacity="100" x="178.25" y="64.5">2</text><text fill="#FFD900" font-family="Arial" font-size="25" font-weight="normal" opacity="100" x="37.25" y="29.5">3</text><text fill="#FFD900" font-family="Arial" font-size="25" font-weight="normal" opacity="100" x="10.25" y="68.5">4</text></g></svg>