<?xml version="1.0" encoding="utf-8" ?>
<svg baseProfile="tiny" height="880px" version="1.2" width="1080px" xmlns="http://www.w3.org/2000/svg" xmlns:ev="http://www.w3.org/2001/xml-events" xmlns:xlink="http://www.w3.org/1999/xlink"><defs /><g><g transform="rotate(-45.0,540.0,440.0)"><polygon fill="#FCDC04" opacity="100" points="199.0,72.0 199.0,42.0 648.0,42.0 648.0,72.0" stroke="#000" stroke-width="1" /><polygon fill="#FCDC04" opacity="100" points="199.0,180.0 199.0,150.0 648.0,150.0 648.0,180.0" stroke="#000" stroke-width="1" /><polyline fill="none" opacity="100" points="199.0,72.0 199.0,88.0 215.0,88.0 215.0,132.0 199.0,132.0 199.0,150.0" stroke="#000" stroke-width="1" /><polyline fill="none" opacity="100" points="559.0,205.0 559.0,208.0 724.0,208.0 724.0,15.0 559.0,15.0 559.0,18.0" stroke="#000" stroke-width="1" /><polyline fill="none" opacity="100" points="678.0,125.0 691.0,125.0 691.0,190.0 559.0,190.0 559.0,193.0" stroke="#000" stroke-width="1" /><polyline fill="none" opacity="100" points="559.0,30.0 559.0,33.0 691.0,33.0 691.0,101.0 678.0,101.0" stroke="#000" stroke-width="1" /><polyline fill="none" opacity="100" points="640.0,101.0 640.0,95.0 648.0,95.0 648.0,72.0" stroke="#000" stroke-width="1" /><polyline fill="none" opacity="100" points="640.0,125.0 640.0,137.0 648.0,137.0 648.0,150.0" stroke="#000" stroke-width="1" /><polyline fill="none" opacity="100" points="685.0,81.0 691.0,81.0 691.0,95.0 685.0,95.0" stroke="#D0D0D0" stroke-width="1" /><polyline fill="none" opacity="100" points="670.0,81.0 648.0,81.0 648.0,95.0 670.0,95.0" stroke="#D0D0D0" stroke-width="1" /><polyline fill="none" opacity="100" points="671.0,122.0 671.0,104.0" stroke="#7F7F7F" stroke-width="1" /><polyline fill="none" opacity="100" points="667.0,122.0 667.0,104.0" stroke="#7F7F7F" stroke-width="1" /><polyline fill="none" opacity="100" points="663.0,122.0 663.0,104.0" stroke="#7F7F7F" stroke-width="1" /><polyline fill="none" opacity="100" points="659.0,122.0 659.0,104.0" stroke="#7F7F7F" stroke-width="1" /><polyline fill="none" opacity="100" points="655.0,122.0 655.0,104.0" stroke="#7F7F7F" stroke-width="1" /><polyline fill="none" opacity="100" points="651.0,122.0 651.0,104.0" stroke="#7F7F7F" stroke-width="1" /><polyline fill="none" opacity="100" points="647.0,122.0 647.0,104.0" stroke="#7F7F7F" stroke-width="1" /><polygon fill="#9B5509" opacity="100" points="678.0,101.0 678.0,104.0 640.0,104.0 640.0,101.0" stroke="#000" stroke-width="1" /><polygon fill="#9B5509" opacity="100" points="678.0,108.0 678.0,111.0 640.0,111.0 640.0,108.0" stroke="#000" stroke-width="1" /><polygon fill="#9B5509" opacity="100" points="678.0,115.0 678.0,118.0 640.0,118.0 640.0,115.0" stroke="#000" stroke-width="1" /><polygon fill="#9B5509" opacity="100" points="678.0,122.0 640.0,122.0 640.0,125.0 678.0,125.0" stroke="#000" stroke-width="1" /><polygon fill="#94949C" opacity="100" points="555.0,110.0 555.0,106.0 553.0,106.0 553.0,110.0" stroke="#94949C" stroke-width="1" /><polygon fill="#94949C" opacity="100" points="218.0,109.0 218.0,105.0 220.0,105.0 220.0,109.0" stroke="#94949C" stroke-width="1" /><polygon fill="#94949C" opacity="100" points="721.0,115.0 721.0,111.0 719.0,111.0 719.0,115.0" stroke="#94949C" stroke-width="1" /><polygon fill="#F00" opacity="100" points="555.0,114.0 555.0,110.0 553.0,110.0 553.0,114.0" stroke="#F00" stroke-width="1" /><polygon fill="#F00" opacity="100" points="218.0,113.0 218.0,109.0 220.0,109.0 220.0,113.0" stroke="#F00" stroke-width="1" /><polygon fill="#F00" opacity="100" points="721.0,111.0 721.0,107.0 719.0,107.0 719.0,111.0" stroke="#F00" stroke-width="1" /><polyline fill="none" opacity="100" points="604.0,190.0 604.0,182.0 576.0,182.0 576.0,190.0" stroke="#000" stroke-width="1" /><text fill="#000" font-family="Arial" font-size="10" font-weight="normal" opacity="100" transform="rotate(-0.0 578.0,179.0) translate(0 10)" x="578.0" y="179.0">кассы</text><polyline fill="none" opacity="100" points="611.0,205.0 615.0,205.0" stroke="#090" stroke-width="1" /><polyline fill="none" opacity="100" points="611.0,201.0 615.0,201.0" stroke="#090" stroke-width="1" /><polyline fill="none" opacity="100" points="611.0,197.0 615.0,197.0" stroke="#090" stroke-width="1" /><polyline fill="none" opacity="100" points="611.0,193.0 615.0,193.0" stroke="#090" stroke-width="1" /><polyline fill="none" opacity="100" points="659.0,18.0 663.0,18.0" stroke="#F00" stroke-width="1" /><polyline fill="none" opacity="100" points="659.0,22.0 663.0,22.0" stroke="#F00" stroke-width="1" /><polyline fill="none" opacity="100" points="659.0,26.0 663.0,26.0" stroke="#F00" stroke-width="1" /><polyline fill="none" opacity="100" points="659.0,30.0 663.0,30.0" stroke="#F00" stroke-width="1" /><polygon fill="#D0EFFF" opacity="100" points="670.0,95.0 670.0,81.0 685.0,81.0 685.0,95.0" stroke="#000" stroke-width="1" /><text fill="#000" font-family="Arial" font-size="6" font-weight="normal" opacity="100" transform="rotate(-0.0 671.0,84.0) translate(0 6)" x="671.0" y="84.0">лифт</text><polyline fill="none" opacity="100" points="618.0,108.0 631.0,108.0" stroke="#F00" stroke-width="1" /><polygon fill="#F00" opacity="100" points="627.2329,109.0094 631.0,108.0 627.2329,106.9906" stroke="#F00" stroke-width="1" /><polyline fill="none" opacity="100" points="631.0,118.0 617.0,118.0" stroke="#090" stroke-width="1" /><polygon fill="#090" opacity="100" points="621.0569,116.913 617.0,118.0 621.0569,119.087" stroke="#090" stroke-width="1" /><polygon fill="#30D5C8" opacity="100" points="523.0,816.0 493.0,816.0 493.0,367.0 523.0,367.0" stroke="#000" stroke-width="1" /><polygon fill="#30D5C8" opacity="100" points="631.0,816.0 601.0,816.0 601.0,367.0 631.0,367.0" stroke="#000" stroke-width="1" /><polygon fill="#94949C" opacity="100" points="561.0,578.0 556.0,578.0 556.0,576.0 561.0,576.0" stroke="#94949C" stroke-width="1" /><polygon fill="#F00" opacity="100" points="566.0,578.0 561.0,578.0 561.0,576.0 566.0,576.0" stroke="#F00" stroke-width="1" /><polyline fill="none" opacity="100" points="601.0,816.0 590.0,816.0 590.0,720.0 580.0,720.0" stroke="#000" stroke-width="1" /><polyline fill="none" opacity="100" points="523.0,816.0 536.0,816.0 536.0,720.0 540.0,720.0" stroke="#000" stroke-width="1" /><polyline fill="none" opacity="100" points="580.0,823.0 603.0,823.0 603.0,993.0 697.0,993.0 697.0,904.0" stroke="#000" stroke-width="1" /><polyline fill="none" opacity="100" points="715.0,904.0 715.0,1011.0 603.0,1011.0 603.0,1016.0 505.0,1016.0 505.0,939.0 564.0,939.0" stroke="#000" stroke-width="1" /><polyline fill="none" opacity="100" points="564.0,957.0 523.0,957.0 523.0,998.0 584.0,998.0 584.0,905.0 521.0,905.0 521.0,823.0 540.0,823.0" stroke="#000" stroke-width="1" /><polyline fill="none" opacity="100" points="564.0,1012.0 564.0,998.0" stroke="#000" stroke-width="1" /><polyline fill="none" opacity="100" points="560.0,1012.0 560.0,998.0" stroke="#000" stroke-width="1" /><polyline fill="none" opacity="100" points="556.0,1012.0 556.0,998.0" stroke="#000" stroke-width="1" /><polyline fill="none" opacity="100" points="552.0,1012.0 552.0,998.0" stroke="#000" stroke-width="1" /><polyline fill="none" opacity="100" points="548.0,1012.0 548.0,998.0" stroke="#000" stroke-width="1" /><polyline fill="none" opacity="100" points="544.0,1012.0 544.0,998.0" stroke="#000" stroke-width="1" /><polyline fill="none" opacity="100" points="540.0,1012.0 540.0,998.0" stroke="#000" stroke-width="1" /><polyline fill="none" opacity="100" points="536.0,1012.0 536.0,998.0" stroke="#000" stroke-width="1" /><polyline fill="none" opacity="100" points="532.0,1012.0 532.0,998.0" stroke="#000" stroke-width="1" /><polyline fill="none" opacity="100" points="528.0,1012.0 528.0,998.0" stroke="#000" stroke-width="1" /><polyline fill="none" opacity="100" points="715.0,907.0 701.0,907.0" stroke="#000" stroke-width="1" /><polyline fill="none" opacity="100" points="715.0,911.0 701.0,911.0" stroke="#000" stroke-width="1" /><polyline fill="none" opacity="100" points="715.0,915.0 701.0,915.0" stroke="#000" stroke-width="1" /><polyline fill="none" opacity="100" points="715.0,919.0 701.0,919.0" stroke="#000" stroke-width="1" /><polyline fill="none" opacity="100" points="715.0,923.0 701.0,923.0" stroke="#000" stroke-width="1" /><polyline fill="none" opacity="100" points="715.0,927.0 701.0,927.0" stroke="#000" stroke-width="1" /><polyline fill="none" opacity="100" points="715.0,931.0 701.0,931.0" stroke="#000" stroke-width="1" /><polyline fill="none" opacity="100" points="715.0,935.0 701.0,935.0" stroke="#000" stroke-width="1" /><polyline fill="none" opacity="100" points="715.0,939.0 701.0,939.0" stroke="#000" stroke-width="1" /><polyline fill="none" opacity="100" points="715.0,943.0 701.0,943.0" stroke="#000" stroke-width="1" /><polyline fill="none" opacity="100" points="562.0,957.0 562.0,943.0" stroke="#000" stroke-width="1" /><polyline fill="none" opacity="100" points="558.0,957.0 558.0,943.0" stroke="#000" stroke-width="1" /><polyline fill="none" opacity="100" points="554.0,957.0 554.0,943.0" stroke="#000" stroke-width="1" /><polyline fill="none" opacity="100" points="550.0,957.0 550.0,943.0" stroke="#000" stroke-width="1" /><polyline fill="none" opacity="100" points="546.0,957.0 546.0,943.0" stroke="#000" stroke-width="1" /><polyline fill="none" opacity="100" points="542.0,957.0 542.0,943.0" stroke="#000" stroke-width="1" /><polyline fill="none" opacity="100" points="538.0,957.0 538.0,943.0" stroke="#000" stroke-width="1" /><polyline fill="none" opacity="100" points="534.0,957.0 534.0,943.0" stroke="#000" stroke-width="1" /><polyline fill="none" opacity="100" points="530.0,957.0 530.0,943.0" stroke="#000" stroke-width="1" /><polyline fill="none" opacity="100" points="526.0,957.0 526.0,943.0" stroke="#000" stroke-width="1" /><polyline fill="none" opacity="100" points="509.0,996.0 523.0,996.0" stroke="#000" stroke-width="1" /><polyline fill="none" opacity="100" points="509.0,992.0 523.0,992.0" stroke="#000" stroke-width="1" /><polyline fill="none" opacity="100" points="509.0,988.0 523.0,988.0" stroke="#000" stroke-width="1" /><polyline fill="none" opacity="100" points="509.0,984.0 523.0,984.0" stroke="#000" stroke-width="1" /><polyline fill="none" opacity="100" points="509.0,980.0 523.0,980.0" stroke="#000" stroke-width="1" /><polyline fill="none" opacity="100" points="509.0,976.0 523.0,976.0" stroke="#000" stroke-width="1" /><polyline fill="none" opacity="100" points="509.0,972.0 523.0,972.0" stroke="#000" stroke-width="1" /><polyline fill="none" opacity="100" points="509.0,968.0 523.0,968.0" stroke="#000" stroke-width="1" /><polyline fill="none" opacity="100" points="509.0,964.0 523.0,964.0" stroke="#000" stroke-width="1" /><polyline fill="none" opacity="100" points="509.0,960.0 523.0,960.0" stroke="#000" stroke-width="1" /><polyline fill="none" opacity="100" points="564.0,943.0 524.0,943.0" stroke="#000" stroke-width="0.5" /><polyline fill="none" opacity="100" points="701.0,945.0 701.0,905.0" stroke="#000" stroke-width="0.5" /><polyline fill="none" opacity="100" points="566.0,1012.0 524.0,1012.0" stroke="#000" stroke-width="0.5" /><polyline fill="none" opacity="100" points="509.0,998.0 509.0,956.0" stroke="#000" stroke-width="0.5" /><polygon fill="#D0D0D0" opacity="100" points="567.0,856.0 572.0,856.0 572.0,880.0 547.0,880.0 547.0,856.0 552.0,856.0 552.0,875.0 567.0,875.0" stroke="#000" stroke-width="1" /><polyline fill="none" opacity="100" points="570.0,971.0 584.0,971.0 584.0,985.0 570.0,985.0" stroke="#D0D0D0" stroke-width="1" /><polyline fill="none" opacity="100" points="567.0,856.0 552.0,856.0 552.0,849.0 523.0,849.0 523.0,816.0 536.0,816.0 536.0,836.0 567.0,836.0 567.0,856.0" stroke="#D0D0D0" stroke-width="1" /><polyline fill="none" opacity="100" points="543.0,825.0 577.0,825.0" stroke="#7F7F7F" stroke-width="1" /><polyline fill="none" opacity="100" points="543.0,821.0 577.0,821.0" stroke="#7F7F7F" stroke-width="1" /><polyline fill="none" opacity="100" points="543.0,817.0 577.0,817.0" stroke="#7F7F7F" stroke-width="1" /><polyline fill="none" opacity="100" points="543.0,813.0 577.0,813.0" stroke="#7F7F7F" stroke-width="1" /><polyline fill="none" opacity="100" points="543.0,809.0 577.0,809.0" stroke="#7F7F7F" stroke-width="1" /><polyline fill="none" opacity="100" points="543.0,805.0 577.0,805.0" stroke="#7F7F7F" stroke-width="1" /><polyline fill="none" opacity="100" points="543.0,801.0 577.0,801.0" stroke="#7F7F7F" stroke-width="1" /><polyline fill="none" opacity="100" points="543.0,797.0 577.0,797.0" stroke="#7F7F7F" stroke-width="1" /><polyline fill="none" opacity="100" points="543.0,793.0 577.0,793.0" stroke="#7F7F7F" stroke-width="1" /><polyline fill="none" opacity="100" points="543.0,789.0 577.0,789.0" stroke="#7F7F7F" stroke-width="1" /><polyline fill="none" opacity="100" points="543.0,785.0 577.0,785.0" stroke="#7F7F7F" stroke-width="1" /><polyline fill="none" opacity="100" points="543.0,781.0 577.0,781.0" stroke="#7F7F7F" stroke-width="1" /><polyline fill="none" opacity="100" points="543.0,777.0 577.0,777.0" stroke="#7F7F7F" stroke-width="1" /><polyline fill="none" opacity="100" points="543.0,773.0 577.0,773.0" stroke="#7F7F7F" stroke-width="1" /><polyline fill="none" opacity="100" points="543.0,769.0 577.0,769.0" stroke="#7F7F7F" stroke-width="1" /><polyline fill="none" opacity="100" points="543.0,765.0 577.0,765.0" stroke="#7F7F7F" stroke-width="1" /><polyline fill="none" opacity="100" points="543.0,761.0 577.0,761.0" stroke="#7F7F7F" stroke-width="1" /><polyline fill="none" opacity="100" points="543.0,757.0 577.0,757.0" stroke="#7F7F7F" stroke-width="1" /><polyline fill="none" opacity="100" points="543.0,753.0 577.0,753.0" stroke="#7F7F7F" stroke-width="1" /><polyline fill="none" opacity="100" points="543.0,749.0 577.0,749.0" stroke="#7F7F7F" stroke-width="1" /><polyline fill="none" opacity="100" points="543.0,745.0 577.0,745.0" stroke="#7F7F7F" stroke-width="1" /><polyline fill="none" opacity="100" points="543.0,741.0 577.0,741.0" stroke="#7F7F7F" stroke-width="1" /><polyline fill="none" opacity="100" points="543.0,737.0 577.0,737.0" stroke="#7F7F7F" stroke-width="1" /><polyline fill="none" opacity="100" points="543.0,733.0 577.0,733.0" stroke="#7F7F7F" stroke-width="1" /><polyline fill="none" opacity="100" points="543.0,729.0 577.0,729.0" stroke="#7F7F7F" stroke-width="1" /><polyline fill="none" opacity="100" points="543.0,725.0 577.0,725.0" stroke="#7F7F7F" stroke-width="1" /><polygon fill="#9B5509" opacity="100" points="540.0,831.0 540.0,720.0 543.0,720.0 543.0,831.0" stroke="#000" stroke-width="1" /><polygon fill="#9B5509" opacity="100" points="551.0,831.0 551.0,720.0 556.0,720.0 556.0,831.0" stroke="#000" stroke-width="1" /><polygon fill="#9B5509" opacity="100" points="564.0,831.0 564.0,720.0 569.0,720.0 569.0,831.0" stroke="#000" stroke-width="1" /><polygon fill="#9B5509" opacity="100" points="577.0,831.0 577.0,720.0 580.0,720.0 580.0,831.0" stroke="#000" stroke-width="1" /><polygon fill="#D0EFFF" opacity="100" points="555.0,985.0 555.0,971.0 570.0,971.0 570.0,985.0" stroke="#000" stroke-width="1" /><text fill="#000" font-family="Arial" font-size="6" font-weight="normal" opacity="100" transform="rotate(-0.0 556.0,975.0) translate(0 6)" x="556.0" y="975.0">лифт</text><polygon fill="#D0EFFF" opacity="100" points="552.0,875.0 552.0,861.0 567.0,861.0 567.0,875.0" stroke="#000" stroke-width="1" /><text fill="#000" font-family="Arial" font-size="6" font-weight="normal" opacity="100" transform="rotate(-0.0 553.0,865.0) translate(0 6)" x="553.0" y="865.0">лифт</text><polyline fill="none" opacity="100" points="527.0,905.0 527.0,914.0 556.0,914.0 556.0,905.0" stroke="#000" stroke-width="1" /><text fill="#FFF" font-family="Arial" font-size="10" font-weight="normal" opacity="100" transform="rotate(-0.0 529.0,902.0) translate(0 10)" x="529.0" y="902.0">кассы</text><polyline fill="none" opacity="100" points="586.0,854.0 586.0,867.0" stroke="#F00" stroke-width="1" /><polygon fill="#F00" opacity="100" points="584.9906,863.2329 586.0,867.0 587.0094,863.2329" stroke="#F00" stroke-width="1" /><polyline fill="none" opacity="100" points="537.0,890.0 537.0,877.0" stroke="#090" stroke-width="1" /><polygon fill="#090" opacity="100" points="538.0094,880.7671 537.0,877.0 535.9906,880.7671" stroke="#090" stroke-width="1" /><polyline fill="none" opacity="100" points="578.0,884.0 570.0,884.0 570.0,880.0" stroke="#000" stroke-width="0.5" /><polyline fill="none" opacity="100" points="543.0,864.0 543.0,869.0" stroke="#090" stroke-width="1" /><polyline fill="none" opacity="100" points="539.0,864.0 539.0,869.0" stroke="#090" stroke-width="1" /><polyline fill="none" opacity="100" points="535.0,864.0 535.0,869.0" stroke="#090" stroke-width="1" /><polyline fill="none" opacity="100" points="531.0,864.0 531.0,869.0" stroke="#090" stroke-width="1" /><polyline fill="none" opacity="100" points="527.0,864.0 527.0,869.0" stroke="#090" stroke-width="1" /><polyline fill="none" opacity="100" points="600.0,881.0 600.0,886.0" stroke="#F00" stroke-width="1" /><polyline fill="none" opacity="100" points="596.0,881.0 596.0,886.0" stroke="#F00" stroke-width="1" /><polyline fill="none" opacity="100" points="592.0,881.0 592.0,886.0" stroke="#F00" stroke-width="1" /><polyline fill="none" opacity="100" points="588.0,881.0 588.0,886.0" stroke="#F00" stroke-width="1" /><polyline fill="none" opacity="100" points="584.0,881.0 584.0,886.0" stroke="#F00" stroke-width="1" /><polyline fill="none" opacity="100" points="580.0,881.0 580.0,886.0" stroke="#F00" stroke-width="1" /><polygon fill="#FFF" opacity="0.8" points="373.0,149.0 414.0,149.0 414.0,181.0 373.0,181.0" stroke="#FFF" stroke-width="1" /><polyline fill="none" opacity="1.0" points="345.0,122.0 345.0,141.0 373.0,141.0 373.0,370.0 376.0,370.0" stroke="#000" stroke-width="1" /><polyline fill="none" opacity="1.0" points="474.0,410.0 477.0,410.0 477.0,314.0 541.0,314.0 541.0,333.0" stroke="#000" stroke-width="1" /><polyline fill="none" opacity="1.0" points="541.0,347.0 541.0,356.0 545.0,356.0" stroke="#000" stroke-width="1" /><polyline fill="none" opacity="1.0" points="445.0,122.0 445.0,141.0 414.0,141.0 414.0,286.0 662.0,286.0 662.0,407.0 659.0,407.0" stroke="#000" stroke-width="1" /><polyline fill="none" opacity="1.0" points="645.0,407.0 642.0,407.0 642.0,331.0 583.0,331.0 583.0,348.0" stroke="#000" stroke-width="1" /><polyline fill="none" opacity="1.0" points="394.0,124.0 394.0,292.0" stroke="#000" stroke-width="0.5" /><polyline fill="none" opacity="1.0" points="345.0,95.0 364.0,95.0 379.0,110.0 412.0,110.0 427.0,95.0 445.0,95.0" stroke="#000" stroke-width="1" /><polyline fill="none" opacity="1.0" points="601.0,367.0 591.0,367.0 591.0,402.0 583.0,402.0" stroke="#000" stroke-width="1" /><polyline fill="none" opacity="1.0" points="538.0,367.0 538.0,402.0 545.0,402.0" stroke="#000" stroke-width="1" /><polyline fill="none" opacity="1.0" points="394.0,96.0 381.0,96.0 381.0,110.0" stroke="#000" stroke-width="1" /><polygon fill="#D0D0D0" opacity="1.0" points="393.0,313.0 456.0,313.0 456.0,411.0 393.0,411.0" stroke="#000" stroke-width="1" /><polyline fill="none" opacity="1.0" points="523.0,331.0 523.0,367.0 538.0,367.0 538.0,331.0" stroke="#D0D0D0" stroke-width="1" /><polyline fill="none" opacity="1.0" points="381.0,110.0 394.0,110.0" stroke="#D0D0D0" stroke-width="1" /><polyline fill="none" opacity="1.0" points="523.0,347.0 541.0,347.0 541.0,333.0 538.0,333.0" stroke="#E0E0E0" stroke-width="1" /><polygon fill="#FFF" opacity="1.0" points="449.0,360.0 456.0,360.0 456.0,387.0 449.0,387.0" stroke="#000" stroke-width="1" /><text fill="#000" font-family="Arial" font-size="10" font-weight="normal" opacity="1.0" transform="rotate(90.0 460.0,362.0) translate(0 10)" x="460.0" y="362.0">кассы</text><polyline fill="none" opacity="1.0" points="452.0,98.0 452.0,119.0" stroke="#7F7F7F" stroke-width="1" /><polyline fill="none" opacity="1.0" points="456.0,98.0 456.0,119.0" stroke="#7F7F7F" stroke-width="1" /><polyline fill="none" opacity="1.0" points="460.0,98.0 460.0,119.0" stroke="#7F7F7F" stroke-width="1" /><polyline fill="none" opacity="1.0" points="464.0,98.0 464.0,119.0" stroke="#7F7F7F" stroke-width="1" /><polyline fill="none" opacity="1.0" points="468.0,98.0 468.0,119.0" stroke="#7F7F7F" stroke-width="1" /><polyline fill="none" opacity="1.0" points="472.0,98.0 472.0,119.0" stroke="#7F7F7F" stroke-width="1" /><polyline fill="none" opacity="1.0" points="476.0,98.0 476.0,119.0" stroke="#7F7F7F" stroke-width="1" /><polyline fill="none" opacity="1.0" points="480.0,98.0 480.0,119.0" stroke="#7F7F7F" stroke-width="1" /><polyline fill="none" opacity="1.0" points="484.0,98.0 484.0,119.0" stroke="#7F7F7F" stroke-width="1" /><polyline fill="none" opacity="1.0" points="488.0,98.0 488.0,119.0" stroke="#7F7F7F" stroke-width="1" /><polyline fill="none" opacity="1.0" points="492.0,98.0 492.0,119.0" stroke="#7F7F7F" stroke-width="1" /><polygon fill="#9B5509" opacity="1.0" points="445.0,119.0 498.0,119.0 498.0,122.0 445.0,122.0" stroke="#000" stroke-width="1" /><polygon fill="#9B5509" opacity="1.0" points="445.0,114.0 445.0,111.0 498.0,111.0 498.0,114.0" stroke="#000" stroke-width="1" /><polygon fill="#9B5509" opacity="1.0" points="445.0,106.0 445.0,103.0 498.0,103.0 498.0,106.0" stroke="#000" stroke-width="1" /><polygon fill="#9B5509" opacity="1.0" points="445.0,98.0 498.0,98.0 498.0,95.0 445.0,95.0" stroke="#000" stroke-width="1" /><polyline fill="none" opacity="1.0" points="299.0,98.0 299.0,119.0" stroke="#7F7F7F" stroke-width="1" /><polyline fill="none" opacity="1.0" points="303.0,98.0 303.0,119.0" stroke="#7F7F7F" stroke-width="1" /><polyline fill="none" opacity="1.0" points="307.0,98.0 307.0,119.0" stroke="#7F7F7F" stroke-width="1" /><polyline fill="none" opacity="1.0" points="311.0,98.0 311.0,119.0" stroke="#7F7F7F" stroke-width="1" /><polyline fill="none" opacity="1.0" points="315.0,98.0 315.0,119.0" stroke="#7F7F7F" stroke-width="1" /><polyline fill="none" opacity="1.0" points="319.0,98.0 319.0,119.0" stroke="#7F7F7F" stroke-width="1" /><polyline fill="none" opacity="1.0" points="323.0,98.0 323.0,119.0" stroke="#7F7F7F" stroke-width="1" /><polyline fill="none" opacity="1.0" points="327.0,98.0 327.0,119.0" stroke="#7F7F7F" stroke-width="1" /><polyline fill="none" opacity="1.0" points="331.0,98.0 331.0,119.0" stroke="#7F7F7F" stroke-width="1" /><polyline fill="none" opacity="1.0" points="335.0,98.0 335.0,119.0" stroke="#7F7F7F" stroke-width="1" /><polyline fill="none" opacity="1.0" points="339.0,98.0 339.0,119.0" stroke="#7F7F7F" stroke-width="1" /><polygon fill="#9B5509" opacity="1.0" points="292.0,119.0 345.0,119.0 345.0,122.0 292.0,122.0" stroke="#000" stroke-width="1" /><polygon fill="#9B5509" opacity="1.0" points="292.0,114.0 292.0,111.0 345.0,111.0 345.0,114.0" stroke="#000" stroke-width="1" /><polygon fill="#9B5509" opacity="1.0" points="292.0,106.0 292.0,103.0 345.0,103.0 345.0,106.0" stroke="#000" stroke-width="1" /><polygon fill="#9B5509" opacity="1.0" points="292.0,98.0 345.0,98.0 345.0,95.0 292.0,95.0" stroke="#000" stroke-width="1" /><polyline fill="none" opacity="1.0" points="548.0,396.0 580.0,396.0" stroke="#7F7F7F" stroke-width="1" /><polyline fill="none" opacity="1.0" points="548.0,392.0 580.0,392.0" stroke="#7F7F7F" stroke-width="1" /><polyline fill="none" opacity="1.0" points="548.0,388.0 580.0,388.0" stroke="#7F7F7F" stroke-width="1" /><polyline fill="none" opacity="1.0" points="548.0,384.0 580.0,384.0" stroke="#7F7F7F" stroke-width="1" /><polyline fill="none" opacity="1.0" points="548.0,380.0 580.0,380.0" stroke="#7F7F7F" stroke-width="1" /><polyline fill="none" opacity="1.0" points="548.0,376.0 580.0,376.0" stroke="#7F7F7F" stroke-width="1" /><polyline fill="none" opacity="1.0" points="548.0,372.0 580.0,372.0" stroke="#7F7F7F" stroke-width="1" /><polyline fill="none" opacity="1.0" points="548.0,368.0 580.0,368.0" stroke="#7F7F7F" stroke-width="1" /><polyline fill="none" opacity="1.0" points="548.0,364.0 580.0,364.0" stroke="#7F7F7F" stroke-width="1" /><polyline fill="none" opacity="1.0" points="548.0,360.0 580.0,360.0" stroke="#7F7F7F" stroke-width="1" /><polyline fill="none" opacity="1.0" points="548.0,356.0 580.0,356.0" stroke="#7F7F7F" stroke-width="1" /><polyline fill="none" opacity="1.0" points="548.0,352.0 580.0,352.0" stroke="#7F7F7F" stroke-width="1" /><polygon fill="#9B5509" opacity="1.0" points="545.0,402.0 545.0,348.0 548.0,348.0 548.0,402.0" stroke="#000" stroke-width="1" /><polygon fill="#9B5509" opacity="1.0" points="553.0,402.0 553.0,348.0 557.0,348.0 557.0,402.0" stroke="#000" stroke-width="1" /><polygon fill="#9B5509" opacity="1.0" points="562.0,402.0 562.0,348.0 566.0,348.0 566.0,402.0" stroke="#000" stroke-width="1" /><polygon fill="#9B5509" opacity="1.0" points="571.0,402.0 571.0,348.0 575.0,348.0 575.0,402.0" stroke="#000" stroke-width="1" /><polygon fill="#9B5509" opacity="1.0" points="580.0,402.0 580.0,348.0 583.0,348.0 583.0,402.0" stroke="#000" stroke-width="1" /><polyline fill="none" opacity="1.0" points="269.0,110.0 285.0,110.0" stroke="#F00" stroke-width="1" /><polygon fill="#F00" opacity="1.0" points="280.3636,111.2423 285.0,110.0 280.3636,108.7577" stroke="#F00" stroke-width="1" /><polyline fill="none" opacity="1.0" points="385.0,345.0 385.0,362.0" stroke="#F00" stroke-width="1" /><polygon fill="#F00" opacity="1.0" points="383.68,357.0738 385.0,362.0 386.32,357.0738" stroke="#F00" stroke-width="1" /><polyline fill="none" opacity="1.0" points="652.0,336.0 652.0,354.0" stroke="#F00" stroke-width="1" /><polygon fill="#F00" opacity="1.0" points="650.6024,348.784 652.0,354.0 653.3976,348.784" stroke="#F00" stroke-width="1" /><polyline fill="none" opacity="1.0" points="504.0,112.0 518.0,112.0" stroke="#090" stroke-width="1" /><polygon fill="#090" opacity="1.0" points="513.9431,113.087 518.0,112.0 513.9431,110.913" stroke="#090" stroke-width="1" /><polyline fill="none" opacity="1.0" points="465.0,361.0 465.0,345.0" stroke="#090" stroke-width="1" /><polygon fill="#090" opacity="1.0" points="466.2423,349.6364 465.0,345.0 463.7577,349.6364" stroke="#090" stroke-width="1" /><polyline fill="none" opacity="1.0" points="458.0,320.0 458.0,316.0" stroke="#090" stroke-width="1" /><polyline fill="none" opacity="1.0" points="462.0,320.0 462.0,316.0" stroke="#090" stroke-width="1" /><polyline fill="none" opacity="1.0" points="466.0,320.0 466.0,316.0" stroke="#090" stroke-width="1" /><polyline fill="none" opacity="1.0" points="470.0,320.0 470.0,316.0" stroke="#090" stroke-width="1" /><polyline fill="none" opacity="1.0" points="474.0,320.0 474.0,316.0" stroke="#090" stroke-width="1" /><polyline fill="none" opacity="1.0" points="391.0,320.0 391.0,316.0" stroke="#F00" stroke-width="1" /><polyline fill="none" opacity="1.0" points="387.0,320.0 387.0,316.0" stroke="#F00" stroke-width="1" /><polyline fill="none" opacity="1.0" points="383.0,320.0 383.0,316.0" stroke="#F00" stroke-width="1" /><polyline fill="none" opacity="1.0" points="379.0,320.0 379.0,316.0" stroke="#F00" stroke-width="1" /><polyline fill="none" opacity="1.0" points="375.0,320.0 375.0,316.0" stroke="#F00" stroke-width="1" /><polyline fill="none" opacity="1.0" points="658.0,371.0 658.0,367.0" stroke="#F00" stroke-width="1" /><polyline fill="none" opacity="1.0" points="654.0,371.0 654.0,367.0" stroke="#F00" stroke-width="1" /><polyline fill="none" opacity="1.0" points="650.0,371.0 650.0,367.0" stroke="#F00" stroke-width="1" /><polyline fill="none" opacity="1.0" points="646.0,371.0 646.0,367.0" stroke="#F00" stroke-width="1" /><polygon fill="#D0EFFF" opacity="1.0" points="394.0,110.0 394.0,96.0 409.0,96.0 409.0,110.0" stroke="#000" stroke-width="1" /><text fill="#000" font-family="Arial" font-size="6" font-weight="normal" opacity="1.0" transform="rotate(-0.0 395.0,99.0) translate(0 6)" x="395.0" y="99.0">лифт</text><polygon fill="#D0EFFF" opacity="1.0" points="523.0,331.0 523.0,317.0 538.0,317.0 538.0,331.0" stroke="#000" stroke-width="1" /><text fill="#000" font-family="Arial" font-size="6" font-weight="normal" opacity="1.0" transform="rotate(-0.0 524.0,321.0) translate(0 6)" x="524.0" y="321.0">лифт</text><polygon fill="#94949C" opacity="1.0" points="534.0,311.0 539.0,311.0 539.0,309.0 534.0,309.0" stroke="#94949C" stroke-width="1" /><polygon fill="#F00" opacity="1.0" points="529.0,311.0 534.0,311.0 534.0,309.0 529.0,309.0" stroke="#F00" stroke-width="1" /><text fill="#00AFAF" font-family="Arial" font-size="15" font-weight="normal" opacity="1.0" transform="rotate(-0.0 686.0,228.0) translate(0 15)" x="686.0" y="228.0">Мичуринский проспект</text><text fill="#00AFAF" font-family="Arial" font-size="15" font-weight="normal" opacity="1.0" transform="rotate(90.0 668.0,843.0) translate(0 15)" x="668.0" y="843.0">улица Удальцова</text><text fill="#000" font-family="Arial" font-size="20" font-weight="normal" opacity="1.0" transform="rotate(-0.0 203.0,19.0) translate(0 20)" x="203.0" y="19.0">&lt;&lt; Озёрная</text><text fill="#000" font-family="Arial" font-size="20" font-weight="normal" opacity="1.0" transform="rotate(-0.0 446.0,180.0) translate(0 20)" x="446.0" y="180.0">Раменки &gt;&gt;</text><text fill="#000" font-family="Arial" font-size="25" font-weight="bold" opacity="1.0" transform="rotate(-0.0 302.0,67.0) translate(0 25)" x="302.0" y="67.0">Мичуринский проспект</text><text fill="#FCDC04" font-family="Arial" font-size="20" font-weight="normal" opacity="1.0" transform="rotate(-0.0 202.0,18.0) translate(0 20)" x="202.0" y="18.0">&lt;&lt; Озёрная</text><text fill="#FCDC04" font-family="Arial" font-size="20" font-weight="normal" opacity="1.0" transform="rotate(-0.0 445.0,179.0) translate(0 20)" x="445.0" y="179.0">Раменки &gt;&gt;</text><text fill="#FCDC04" font-family="Arial" font-size="25" font-weight="bold" opacity="1.0" transform="rotate(-0.0 301.0,66.0) translate(0 25)" x="301.0" y="66.0">Мичуринский проспект</text><text fill="#000" font-family="Arial" font-size="25" font-weight="bold" opacity="1.0" transform="rotate(90.0 572.0,424.0) translate(0 25)" x="572.0" y="424.0">Мичуринский проспект (БКЛ)</text><text fill="#30D5C8" font-family="Arial" font-size="20" font-weight="normal" opacity="1.0" transform="rotate(90.0 489.0,589.0) translate(0 20)" x="489.0" y="589.0">Проспект Вернадского &gt;&gt;</text><text fill="#30D5C8" font-family="Arial" font-size="20" font-weight="normal" opacity="1.0" transform="rotate(90.0 655.0,424.0) translate(0 20)" x="655.0" y="424.0">&lt;&lt; Аминьевская</text><text fill="#30D5C8" font-family="Arial" font-size="25" font-weight="bold" opacity="1.0" transform="rotate(90.0 573.0,423.0) translate(0 25)" x="573.0" y="423.0">Мичуринский проспект (БКЛ)</text><g transform="rotate(45.0,540.0,440.0)"><text fill="#FFD900" font-family="Arial" font-size="25" font-weight="normal" opacity="1.0" x="225.25" y="110.5">1</text><text fill="#FFD900" font-family="Arial" font-size="25" font-weight="normal" opacity="1.0" x="368.25" y="540.5">2</text><text fill="#FFD900" font-family="Arial" font-size="25" font-weight="normal" opacity="1.0" x="609.25" y="344.5">3</text><text fill="#FFD900" font-family="Arial" font-size="25" font-weight="normal" opacity="1.0" x="472.25" y="495.5">3</text><text fill="#FFD900" font-family="Arial" font-size="25" font-weight="normal" opacity="1.0" x="1011.25" y="646.5">4</text><text fill="#FFD900" font-family="Arial" font-size="25" font-weight="normal" opacity="1.0" x="853.25" y="854.5">5</text></g></g></g></svg>