<?xml version="1.0" encoding="utf-8" ?>
<svg baseProfile="tiny" height="850px" version="1.2" width="600px" xmlns="http://www.w3.org/2000/svg" xmlns:ev="http://www.w3.org/2001/xml-events" xmlns:xlink="http://www.w3.org/1999/xlink"><defs /><g><g transform="rotate(-75.0,300.0,425.0)"><polygon fill="#30D5C8" opacity="100" points="526.0,365.0 76.0,365.0 76.0,335.0 526.0,335.0" stroke="#000" stroke-width="1" /><polygon fill="#30D5C8" opacity="100" points="526.0,255.0 76.0,255.0 76.0,225.0 526.0,225.0" stroke="#000" stroke-width="1" /><text fill="#30D5C8" font-family="Arial" font-size="25" font-weight="bold" opacity="100" transform="rotate(-0.0 216.0,284.0) translate(0 25)" x="216.0" y="284.0">Мнёвники</text><text fill="#30D5C8" font-family="Arial" font-size="20" font-weight="normal" opacity="100" transform="rotate(-0.0 87.0,198.0) translate(0 20)" x="87.0" y="198.0">&lt;&lt; Терехово</text><text fill="#30D5C8" font-family="Arial" font-size="20" font-weight="normal" opacity="100" transform="rotate(-0.0 318.0,366.0) translate(0 20)" x="318.0" y="366.0">Народное ополчение &gt;&gt;</text><polygon fill="#94949C" opacity="100" points="271.0,288.0 271.0,292.0 272.0,292.0 272.0,288.0" stroke="#94949C" stroke-width="1" /><polygon fill="#F00" opacity="100" points="271.0,284.0 271.0,288.0 272.0,288.0 272.0,284.0" stroke="#F00" stroke-width="1" /><polyline fill="none" opacity="100" points="613.0,575.0 678.0,575.0 678.0,240.0 659.0,240.0 659.0,265.0 649.0,265.0 649.0,240.0 611.0,240.0 588.0,263.0 588.0,278.0 526.0,278.0 526.0,255.0" stroke="#000" stroke-width="1" /><polyline fill="none" opacity="100" points="526.0,335.0 526.0,324.0 579.0,324.0 579.0,310.0 588.0,310.0 588.0,349.0 650.0,349.0 650.0,324.0 660.0,324.0 660.0,412.0 613.0,412.0" stroke="#000" stroke-width="1" /><polyline fill="none" opacity="100" points="613.0,430.0 660.0,430.0 660.0,556.0 613.0,556.0" stroke="#000" stroke-width="1" /><polyline fill="none" opacity="100" points="613.0,416.0 653.0,416.0" stroke="#000" stroke-width="0.5" /><polyline fill="none" opacity="100" points="613.0,560.0 653.0,560.0" stroke="#000" stroke-width="0.5" /><polyline fill="none" opacity="100" points="588.0,295.0 650.0,295.0" stroke="#000" stroke-width="1" /><polyline fill="none" opacity="100" points="615.0,560.0 615.0,575.0" stroke="#000" stroke-width="1" /><polyline fill="none" opacity="100" points="619.0,560.0 619.0,575.0" stroke="#000" stroke-width="1" /><polyline fill="none" opacity="100" points="623.0,560.0 623.0,575.0" stroke="#000" stroke-width="1" /><polyline fill="none" opacity="100" points="627.0,560.0 627.0,575.0" stroke="#000" stroke-width="1" /><polyline fill="none" opacity="100" points="631.0,560.0 631.0,575.0" stroke="#000" stroke-width="1" /><polyline fill="none" opacity="100" points="635.0,560.0 635.0,575.0" stroke="#000" stroke-width="1" /><polyline fill="none" opacity="100" points="639.0,560.0 639.0,575.0" stroke="#000" stroke-width="1" /><polyline fill="none" opacity="100" points="643.0,560.0 643.0,575.0" stroke="#000" stroke-width="1" /><polyline fill="none" opacity="100" points="647.0,560.0 647.0,575.0" stroke="#000" stroke-width="1" /><polyline fill="none" opacity="100" points="651.0,560.0 651.0,575.0" stroke="#000" stroke-width="1" /><polyline fill="none" opacity="100" points="615.0,416.0 615.0,430.0" stroke="#000" stroke-width="1" /><polyline fill="none" opacity="100" points="619.0,416.0 619.0,430.0" stroke="#000" stroke-width="1" /><polyline fill="none" opacity="100" points="623.0,416.0 623.0,430.0" stroke="#000" stroke-width="1" /><polyline fill="none" opacity="100" points="627.0,416.0 627.0,430.0" stroke="#000" stroke-width="1" /><polyline fill="none" opacity="100" points="631.0,416.0 631.0,430.0" stroke="#000" stroke-width="1" /><polyline fill="none" opacity="100" points="635.0,416.0 635.0,430.0" stroke="#000" stroke-width="1" /><polyline fill="none" opacity="100" points="639.0,416.0 639.0,430.0" stroke="#000" stroke-width="1" /><polyline fill="none" opacity="100" points="643.0,416.0 643.0,430.0" stroke="#000" stroke-width="1" /><polyline fill="none" opacity="100" points="647.0,416.0 647.0,430.0" stroke="#000" stroke-width="1" /><polyline fill="none" opacity="100" points="651.0,416.0 651.0,430.0" stroke="#000" stroke-width="1" /><polygon fill="#D0EFFF" opacity="100" points="548.0,324.0 548.0,310.0 563.0,310.0 563.0,324.0" stroke="#000" stroke-width="1" /><text fill="#000" font-family="Arial" font-size="6" font-weight="normal" opacity="100" transform="rotate(-0.0 549.0,314.0) translate(0 6)" x="549.0" y="314.0">лифт</text><polygon fill="none" opacity="100" points="590.0,261.0 584.0,255.0 603.0,236.0 609.0,242.0" stroke="#000" stroke-width="1" /><text fill="#FFF" font-family="Arial" font-size="10" font-weight="normal" opacity="100" transform="rotate(-45.0 583.0,252.0) translate(0 10)" x="583.0" y="252.0">кассы</text><polygon fill="none" opacity="100" points="587.0,292.0 581.0,292.0 581.0,298.0 587.0,298.0" stroke="#000" stroke-width="1" /><polyline fill="none" opacity="100" points="586.0,279.0 582.0,279.0" stroke="#090" stroke-width="1" /><polyline fill="none" opacity="100" points="586.0,283.0 582.0,283.0" stroke="#090" stroke-width="1" /><polyline fill="none" opacity="100" points="586.0,287.0 582.0,287.0" stroke="#090" stroke-width="1" /><polyline fill="none" opacity="100" points="586.0,302.0 582.0,302.0" stroke="#F00" stroke-width="1" /><polyline fill="none" opacity="100" points="586.0,306.0 582.0,306.0" stroke="#F00" stroke-width="1" /><polygon fill="#94949C" opacity="100" points="620.0,292.0 615.0,292.0 615.0,290.0 620.0,290.0" stroke="#94949C" stroke-width="1" /><polygon fill="#F00" opacity="100" points="625.0,292.0 620.0,292.0 620.0,290.0 625.0,290.0" stroke="#F00" stroke-width="1" /><polyline fill="none" opacity="100" points="76.0,255.0 76.0,260.0 46.0,260.0 26.0,240.0 -43.0,240.0 -43.0,259.0 -55.0,259.0 -55.0,240.0 -73.0,240.0 -73.0,574.0 -3.0,574.0" stroke="#000" stroke-width="1" /><polyline fill="none" opacity="100" points="46.0,278.0 46.0,274.0 116.0,274.0 116.0,279.0" stroke="#000" stroke-width="1" /><polyline fill="none" opacity="100" points="-3.0,556.0 -55.0,556.0 -55.0,431.0 -3.0,431.0" stroke="#000" stroke-width="1" /><polyline fill="none" opacity="100" points="116.0,308.0 116.0,312.0 76.0,312.0 76.0,335.0" stroke="#000" stroke-width="1" /><polyline fill="none" opacity="100" points="-3.0,413.0 -55.0,413.0 -55.0,324.0 -43.0,324.0 -43.0,349.0 46.0,349.0 46.0,308.0" stroke="#000" stroke-width="1" /><polyline fill="none" opacity="100" points="-1.0,295.0 -52.0,295.0" stroke="#000" stroke-width="1" /><polyline fill="none" opacity="100" points="-3.0,427.0 -44.0,427.0" stroke="#000" stroke-width="0.5" /><polyline fill="none" opacity="100" points="-3.0,570.0 -43.0,570.0" stroke="#000" stroke-width="0.5" /><polyline fill="none" opacity="100" points="-5.0,413.0 -5.0,427.0" stroke="#000" stroke-width="1" /><polyline fill="none" opacity="100" points="-9.0,413.0 -9.0,427.0" stroke="#000" stroke-width="1" /><polyline fill="none" opacity="100" points="-13.0,413.0 -13.0,427.0" stroke="#000" stroke-width="1" /><polyline fill="none" opacity="100" points="-17.0,413.0 -17.0,427.0" stroke="#000" stroke-width="1" /><polyline fill="none" opacity="100" points="-21.0,413.0 -21.0,427.0" stroke="#000" stroke-width="1" /><polyline fill="none" opacity="100" points="-25.0,413.0 -25.0,427.0" stroke="#000" stroke-width="1" /><polyline fill="none" opacity="100" points="-29.0,413.0 -29.0,427.0" stroke="#000" stroke-width="1" /><polyline fill="none" opacity="100" points="-33.0,413.0 -33.0,427.0" stroke="#000" stroke-width="1" /><polyline fill="none" opacity="100" points="-37.0,413.0 -37.0,427.0" stroke="#000" stroke-width="1" /><polyline fill="none" opacity="100" points="-41.0,413.0 -41.0,427.0" stroke="#000" stroke-width="1" /><polyline fill="none" opacity="100" points="-5.0,556.0 -5.0,570.0" stroke="#000" stroke-width="1" /><polyline fill="none" opacity="100" points="-9.0,556.0 -9.0,570.0" stroke="#000" stroke-width="1" /><polyline fill="none" opacity="100" points="-13.0,556.0 -13.0,570.0" stroke="#000" stroke-width="1" /><polyline fill="none" opacity="100" points="-17.0,556.0 -17.0,570.0" stroke="#000" stroke-width="1" /><polyline fill="none" opacity="100" points="-21.0,556.0 -21.0,570.0" stroke="#000" stroke-width="1" /><polyline fill="none" opacity="100" points="-25.0,556.0 -25.0,570.0" stroke="#000" stroke-width="1" /><polyline fill="none" opacity="100" points="-29.0,556.0 -29.0,570.0" stroke="#000" stroke-width="1" /><polyline fill="none" opacity="100" points="-33.0,556.0 -33.0,570.0" stroke="#000" stroke-width="1" /><polyline fill="none" opacity="100" points="-37.0,556.0 -37.0,570.0" stroke="#000" stroke-width="1" /><polyline fill="none" opacity="100" points="-41.0,556.0 -41.0,570.0" stroke="#000" stroke-width="1" /><polyline fill="none" opacity="100" points="541.0,306.0 541.0,282.0" stroke="#7F7F7F" stroke-width="1" /><polyline fill="none" opacity="100" points="537.0,306.0 537.0,282.0" stroke="#7F7F7F" stroke-width="1" /><polyline fill="none" opacity="100" points="533.0,306.0 533.0,282.0" stroke="#7F7F7F" stroke-width="1" /><polyline fill="none" opacity="100" points="529.0,306.0 529.0,282.0" stroke="#7F7F7F" stroke-width="1" /><polyline fill="none" opacity="100" points="525.0,306.0 525.0,282.0" stroke="#7F7F7F" stroke-width="1" /><polyline fill="none" opacity="100" points="521.0,306.0 521.0,282.0" stroke="#7F7F7F" stroke-width="1" /><polyline fill="none" opacity="100" points="517.0,306.0 517.0,282.0" stroke="#7F7F7F" stroke-width="1" /><polyline fill="none" opacity="100" points="513.0,306.0 513.0,282.0" stroke="#7F7F7F" stroke-width="1" /><polyline fill="none" opacity="100" points="509.0,306.0 509.0,282.0" stroke="#7F7F7F" stroke-width="1" /><polyline fill="none" opacity="100" points="505.0,306.0 505.0,282.0" stroke="#7F7F7F" stroke-width="1" /><polyline fill="none" opacity="100" points="501.0,306.0 501.0,282.0" stroke="#7F7F7F" stroke-width="1" /><polyline fill="none" opacity="100" points="497.0,306.0 497.0,282.0" stroke="#7F7F7F" stroke-width="1" /><polygon fill="#9B5509" opacity="100" points="548.0,279.0 548.0,282.0 491.0,282.0 491.0,279.0" stroke="#000" stroke-width="1" /><polygon fill="#9B5509" opacity="100" points="548.0,288.0 548.0,291.0 491.0,291.0 491.0,288.0" stroke="#000" stroke-width="1" /><polygon fill="#9B5509" opacity="100" points="548.0,297.0 548.0,300.0 491.0,300.0 491.0,297.0" stroke="#000" stroke-width="1" /><polygon fill="#9B5509" opacity="100" points="548.0,306.0 491.0,306.0 491.0,309.0 548.0,309.0" stroke="#000" stroke-width="1" /><polyline fill="none" opacity="100" points="109.0,305.0 109.0,281.0" stroke="#7F7F7F" stroke-width="1" /><polyline fill="none" opacity="100" points="105.0,305.0 105.0,281.0" stroke="#7F7F7F" stroke-width="1" /><polyline fill="none" opacity="100" points="101.0,305.0 101.0,281.0" stroke="#7F7F7F" stroke-width="1" /><polyline fill="none" opacity="100" points="97.0,305.0 97.0,281.0" stroke="#7F7F7F" stroke-width="1" /><polyline fill="none" opacity="100" points="93.0,305.0 93.0,281.0" stroke="#7F7F7F" stroke-width="1" /><polyline fill="none" opacity="100" points="89.0,305.0 89.0,281.0" stroke="#7F7F7F" stroke-width="1" /><polyline fill="none" opacity="100" points="85.0,305.0 85.0,281.0" stroke="#7F7F7F" stroke-width="1" /><polyline fill="none" opacity="100" points="81.0,305.0 81.0,281.0" stroke="#7F7F7F" stroke-width="1" /><polyline fill="none" opacity="100" points="77.0,305.0 77.0,281.0" stroke="#7F7F7F" stroke-width="1" /><polyline fill="none" opacity="100" points="73.0,305.0 73.0,281.0" stroke="#7F7F7F" stroke-width="1" /><polyline fill="none" opacity="100" points="69.0,305.0 69.0,281.0" stroke="#7F7F7F" stroke-width="1" /><polyline fill="none" opacity="100" points="65.0,305.0 65.0,281.0" stroke="#7F7F7F" stroke-width="1" /><polyline fill="none" opacity="100" points="61.0,305.0 61.0,281.0" stroke="#7F7F7F" stroke-width="1" /><polyline fill="none" opacity="100" points="57.0,305.0 57.0,281.0" stroke="#7F7F7F" stroke-width="1" /><polyline fill="none" opacity="100" points="53.0,305.0 53.0,281.0" stroke="#7F7F7F" stroke-width="1" /><polyline fill="none" opacity="100" points="49.0,305.0 49.0,281.0" stroke="#7F7F7F" stroke-width="1" /><polygon fill="#9B5509" opacity="100" points="116.0,278.0 116.0,281.0 43.0,281.0 43.0,278.0" stroke="#000" stroke-width="1" /><polygon fill="#9B5509" opacity="100" points="116.0,287.0 116.0,290.0 43.0,290.0 43.0,287.0" stroke="#000" stroke-width="1" /><polygon fill="#9B5509" opacity="100" points="116.0,296.0 116.0,299.0 43.0,299.0 43.0,296.0" stroke="#000" stroke-width="1" /><polygon fill="#9B5509" opacity="100" points="116.0,305.0 43.0,305.0 43.0,308.0 116.0,308.0" stroke="#000" stroke-width="1" /><polygon fill="none" opacity="100" points="45.0,259.0 50.0,254.0 32.0,236.0 27.0,241.0" stroke="#000" stroke-width="1" /><text fill="#FFF" font-family="Arial" font-size="10" font-weight="normal" opacity="100" transform="rotate(45.0 35.0,234.0) translate(0 10)" x="35.0" y="234.0">кассы</text><polyline fill="none" opacity="100" points="6.0,349.0 6.0,332.0" stroke="#000" stroke-width="1" /><polygon fill="none" opacity="100" points="3.0,295.0 9.0,295.0 9.0,289.0 3.0,289.0" stroke="#000" stroke-width="1" /><polyline fill="none" opacity="100" points="6.0,265.0 6.0,240.0" stroke="#000" stroke-width="1" /><polyline fill="none" opacity="100" points="4.0,285.0 8.0,285.0" stroke="#090" stroke-width="1" /><polyline fill="none" opacity="100" points="4.0,281.0 8.0,281.0" stroke="#090" stroke-width="1" /><polyline fill="none" opacity="100" points="4.0,277.0 8.0,277.0" stroke="#090" stroke-width="1" /><polyline fill="none" opacity="100" points="4.0,273.0 8.0,273.0" stroke="#090" stroke-width="1" /><polyline fill="none" opacity="100" points="4.0,269.0 8.0,269.0" stroke="#090" stroke-width="1" /><polyline fill="none" opacity="100" points="4.0,265.0 8.0,265.0" stroke="#090" stroke-width="1" /><polyline fill="none" opacity="100" points="4.0,332.0 8.0,332.0" stroke="#F00" stroke-width="1" /><polyline fill="none" opacity="100" points="4.0,328.0 8.0,328.0" stroke="#F00" stroke-width="1" /><polyline fill="none" opacity="100" points="4.0,324.0 8.0,324.0" stroke="#F00" stroke-width="1" /><polyline fill="none" opacity="100" points="4.0,320.0 8.0,320.0" stroke="#F00" stroke-width="1" /><polyline fill="none" opacity="100" points="4.0,316.0 8.0,316.0" stroke="#F00" stroke-width="1" /><polyline fill="none" opacity="100" points="4.0,312.0 8.0,312.0" stroke="#F00" stroke-width="1" /><polyline fill="none" opacity="100" points="4.0,308.0 8.0,308.0" stroke="#F00" stroke-width="1" /><polyline fill="none" opacity="100" points="4.0,304.0 8.0,304.0" stroke="#F00" stroke-width="1" /><polyline fill="none" opacity="100" points="4.0,300.0 8.0,300.0" stroke="#F00" stroke-width="1" /><polygon fill="#94949C" opacity="100" points="20.0,269.0 20.0,273.0 21.0,273.0 21.0,269.0" stroke="#94949C" stroke-width="1" /><polygon fill="#F00" opacity="100" points="20.0,265.0 20.0,269.0 21.0,269.0 21.0,265.0" stroke="#F00" stroke-width="1" /><polygon fill="#D0EFFF" opacity="100" points="54.0,274.0 54.0,260.0 69.0,260.0 69.0,274.0" stroke="#000" stroke-width="1" /><text fill="#000" font-family="Arial" font-size="6" font-weight="normal" opacity="100" transform="rotate(-0.0 55.0,263.0) translate(0 6)" x="55.0" y="263.0">лифт</text><polygon fill="#D0EFFF" opacity="100" points="-88.0,430.0 -88.0,416.0 -73.0,416.0 -73.0,430.0" stroke="#000" stroke-width="1" /><text fill="#000" font-family="Arial" font-size="6" font-weight="normal" opacity="100" transform="rotate(-0.0 -87.0,420.0) translate(0 6)" x="-87.0" y="420.0">лифт</text><polygon fill="#D0EFFF" opacity="100" points="-88.0,571.0 -88.0,557.0 -73.0,557.0 -73.0,571.0" stroke="#000" stroke-width="1" /><text fill="#000" font-family="Arial" font-size="6" font-weight="normal" opacity="100" transform="rotate(-0.0 -87.0,561.0) translate(0 6)" x="-87.0" y="561.0">лифт</text><polyline fill="none" opacity="100" points="-9.0,315.0 -26.0,315.0" stroke="#F00" stroke-width="1" /><polygon fill="#F00" opacity="100" points="-21.0738,313.68 -26.0,315.0 -21.0738,316.32" stroke="#F00" stroke-width="1" /><polyline fill="none" opacity="100" points="616.0,312.0 629.0,312.0" stroke="#F00" stroke-width="1" /><polygon fill="#F00" opacity="100" points="625.2329,313.0094 629.0,312.0 625.2329,310.9906" stroke="#F00" stroke-width="1" /><polyline fill="none" opacity="100" points="-31.0,271.0 -13.0,271.0" stroke="#090" stroke-width="1" /><polygon fill="#090" opacity="100" points="-18.216,272.3976 -13.0,271.0 -18.216,269.6024" stroke="#090" stroke-width="1" /><polyline fill="none" opacity="100" points="633.0,274.0 617.0,274.0" stroke="#090" stroke-width="1" /><polygon fill="#090" opacity="100" points="621.6364,272.7577 617.0,274.0 621.6364,275.2423" stroke="#090" stroke-width="1" /><g transform="rotate(75.0,300.0,425.0)"><text fill="#FFD900" font-family="Arial" font-size="25" font-weight="normal" opacity="100" x="171.25" y="736.5">1</text><text fill="#FFD900" font-family="Arial" font-size="25" font-weight="normal" opacity="100" x="309.25" y="765.5">2</text><text fill="#FFD900" font-family="Arial" font-size="25" font-weight="normal" opacity="100" x="406.25" y="125.5">3</text><text fill="#FFD900" font-family="Arial" font-size="25" font-weight="normal" opacity="100" x="543.25" y="161.5">4</text></g></g></g></svg>