<?xml version="1.0" encoding="utf-8" ?>
<svg baseProfile="tiny" height="380px" version="1.2" width="500px" xmlns="http://www.w3.org/2000/svg" xmlns:ev="http://www.w3.org/2001/xml-events" xmlns:xlink="http://www.w3.org/1999/xlink"><defs /><g><g transform="rotate(-30.0,250.0,190.0)"><polygon fill="#30D5C8" opacity="100" points="28.0,189.0 28.0,159.0 478.0,159.0 478.0,189.0" stroke="#000" stroke-width="1" /><polygon fill="#30D5C8" opacity="100" points="28.0,222.0 28.0,192.0 478.0,192.0 478.0,222.0" stroke="#000" stroke-width="1" /><polyline fill="none" opacity="100" points="28.0,189.0 28.0,192.0" stroke="#000" stroke-width="1" /><polyline fill="none" opacity="100" points="478.0,189.0 478.0,192.0" stroke="#000" stroke-width="1" /><polyline fill="none" opacity="100" points="194.0,136.0 457.0,136.0 457.0,129.0 472.0,129.0 472.0,136.0 478.0,136.0 478.0,159.0" stroke="#000" stroke-width="1" /><polyline fill="none" opacity="100" points="435.0,235.0 412.0,235.0 412.0,232.0 478.0,232.0 478.0,222.0" stroke="#000" stroke-width="1" /><polyline fill="none" opacity="100" points="311.0,97.0 311.0,95.0 168.0,95.0 168.0,131.0 84.0,131.0 84.0,119.0 8.0,119.0 8.0,260.0 84.0,260.0 84.0,251.0 194.0,251.0 194.0,263.0 328.0,263.0 328.0,251.0 412.0,251.0 412.0,249.0 435.0,249.0" stroke="#000" stroke-width="1" /><polygon fill="#FFF" opacity="0.8" points="273.0,135.0 249.0,135.0 249.0,223.0 273.0,223.0" stroke="#FFF" stroke-width="1" /><polygon fill="#FFF" opacity="0.8" points="450.0,172.0 459.0,172.0 459.0,144.0 450.0,144.0 457.0,135.0 388.0,135.0 388.0,252.0 450.0,252.0" stroke="#FFF" stroke-width="1" /><polyline fill="none" opacity="1.0" points="313.0,245.0 273.0,245.0 273.0,130.0 311.0,130.0 311.0,128.0" stroke="#000" stroke-width="1" /><polyline fill="none" opacity="1.0" points="366.0,128.0 366.0,130.0 388.0,130.0 388.0,272.0 270.0,272.0" stroke="#000" stroke-width="1" /><polyline fill="none" opacity="1.0" points="272.0,276.0 315.0,276.0" stroke="#000" stroke-width="0.5" /><polyline fill="none" opacity="1.0" points="315.0,294.0 272.0,294.0" stroke="#000" stroke-width="1" /><polyline fill="none" opacity="1.0" points="209.0,245.0 249.0,245.0 249.0,131.0 194.0,131.0 194.0,136.0" stroke="#000" stroke-width="1" /><polyline fill="none" opacity="1.0" points="366.0,97.0 366.0,95.0 450.0,95.0 450.0,115.0 457.0,115.0" stroke="#000" stroke-width="1" /><polyline fill="none" opacity="1.0" points="457.0,129.0 450.0,129.0 450.0,308.0 270.0,308.0" stroke="#000" stroke-width="1" /><polyline fill="none" opacity="1.0" points="194.0,113.0 237.0,113.0" stroke="#000" stroke-width="1" /><polyline fill="none" opacity="1.0" points="435.0,235.0 435.0,229.0" stroke="#000" stroke-width="1" /><polyline fill="none" opacity="1.0" points="275.0,294.0 275.0,276.0" stroke="#000" stroke-width="1" /><polyline fill="none" opacity="1.0" points="279.0,294.0 279.0,276.0" stroke="#000" stroke-width="1" /><polyline fill="none" opacity="1.0" points="283.0,294.0 283.0,276.0" stroke="#000" stroke-width="1" /><polyline fill="none" opacity="1.0" points="287.0,294.0 287.0,276.0" stroke="#000" stroke-width="1" /><polyline fill="none" opacity="1.0" points="291.0,294.0 291.0,276.0" stroke="#000" stroke-width="1" /><polyline fill="none" opacity="1.0" points="295.0,294.0 295.0,276.0" stroke="#000" stroke-width="1" /><polyline fill="none" opacity="1.0" points="299.0,294.0 299.0,276.0" stroke="#000" stroke-width="1" /><polyline fill="none" opacity="1.0" points="303.0,294.0 303.0,276.0" stroke="#000" stroke-width="1" /><polyline fill="none" opacity="1.0" points="307.0,294.0 307.0,276.0" stroke="#000" stroke-width="1" /><polyline fill="none" opacity="1.0" points="311.0,294.0 311.0,276.0" stroke="#000" stroke-width="1" /><polyline fill="none" opacity="1.0" points="311.0,263.0 311.0,245.0" stroke="#000" stroke-width="1" /><polyline fill="none" opacity="1.0" points="307.0,263.0 307.0,245.0" stroke="#000" stroke-width="1" /><polyline fill="none" opacity="1.0" points="303.0,263.0 303.0,245.0" stroke="#000" stroke-width="1" /><polyline fill="none" opacity="1.0" points="299.0,263.0 299.0,245.0" stroke="#000" stroke-width="1" /><polyline fill="none" opacity="1.0" points="295.0,263.0 295.0,245.0" stroke="#000" stroke-width="1" /><polyline fill="none" opacity="1.0" points="291.0,263.0 291.0,245.0" stroke="#000" stroke-width="1" /><polyline fill="none" opacity="1.0" points="287.0,263.0 287.0,245.0" stroke="#000" stroke-width="1" /><polyline fill="none" opacity="1.0" points="283.0,263.0 283.0,245.0" stroke="#000" stroke-width="1" /><polyline fill="none" opacity="1.0" points="279.0,263.0 279.0,245.0" stroke="#000" stroke-width="1" /><polyline fill="none" opacity="1.0" points="275.0,263.0 275.0,245.0" stroke="#000" stroke-width="1" /><polyline fill="none" opacity="1.0" points="211.0,263.0 211.0,245.0" stroke="#000" stroke-width="1" /><polyline fill="none" opacity="1.0" points="215.0,263.0 215.0,245.0" stroke="#000" stroke-width="1" /><polyline fill="none" opacity="1.0" points="219.0,263.0 219.0,245.0" stroke="#000" stroke-width="1" /><polyline fill="none" opacity="1.0" points="223.0,263.0 223.0,245.0" stroke="#000" stroke-width="1" /><polyline fill="none" opacity="1.0" points="227.0,263.0 227.0,245.0" stroke="#000" stroke-width="1" /><polyline fill="none" opacity="1.0" points="231.0,263.0 231.0,245.0" stroke="#000" stroke-width="1" /><polyline fill="none" opacity="1.0" points="235.0,263.0 235.0,245.0" stroke="#000" stroke-width="1" /><polyline fill="none" opacity="1.0" points="239.0,263.0 239.0,245.0" stroke="#000" stroke-width="1" /><polyline fill="none" opacity="1.0" points="243.0,263.0 243.0,245.0" stroke="#000" stroke-width="1" /><polyline fill="none" opacity="1.0" points="247.0,263.0 247.0,245.0" stroke="#000" stroke-width="1" /><polyline fill="none" opacity="1.0" points="197.0,95.0 197.0,131.0" stroke="#000" stroke-width="1" /><polyline fill="none" opacity="1.0" points="201.0,95.0 201.0,131.0" stroke="#000" stroke-width="1" /><polyline fill="none" opacity="1.0" points="205.0,95.0 205.0,131.0" stroke="#000" stroke-width="1" /><polyline fill="none" opacity="1.0" points="209.0,95.0 209.0,131.0" stroke="#000" stroke-width="1" /><polyline fill="none" opacity="1.0" points="213.0,95.0 213.0,131.0" stroke="#000" stroke-width="1" /><polyline fill="none" opacity="1.0" points="217.0,95.0 217.0,131.0" stroke="#000" stroke-width="1" /><polyline fill="none" opacity="1.0" points="221.0,95.0 221.0,131.0" stroke="#000" stroke-width="1" /><polyline fill="none" opacity="1.0" points="225.0,95.0 225.0,131.0" stroke="#000" stroke-width="1" /><polyline fill="none" opacity="1.0" points="229.0,95.0 229.0,131.0" stroke="#000" stroke-width="1" /><polyline fill="none" opacity="1.0" points="233.0,95.0 233.0,131.0" stroke="#000" stroke-width="1" /><text fill="#30D5C8" font-family="Arial" font-size="20" font-weight="normal" opacity="1.0" transform="rotate(-0.0 32.0,135.0) translate(0 20)" x="32.0" y="135.0">&lt;&lt; Кленовый бульвар</text><text fill="#30D5C8" font-family="Arial" font-size="20" font-weight="normal" opacity="1.0" transform="rotate(-0.0 275.0,218.0) translate(0 20)" x="275.0" y="218.0">Печатники &gt;&gt;</text><text fill="#000" font-family="Arial" font-size="25" font-weight="bold" opacity="1.0" transform="rotate(-0.0 109.0,172.0) translate(0 25)" x="109.0" y="172.0">Нагатинский затон</text><text fill="#FFF" font-family="Arial" font-size="25" font-weight="bold" opacity="1.0" transform="rotate(-0.0 107.0,171.0) translate(0 25)" x="107.0" y="171.0">Нагатинский затон</text><polyline fill="none" opacity="1.0" points="66.0,242.0 26.0,242.0 26.0,137.0 66.0,137.0" stroke="#000" stroke-width="1" /><polyline fill="none" opacity="1.0" points="64.0,260.0 64.0,242.0" stroke="#000" stroke-width="1" /><polyline fill="none" opacity="1.0" points="60.0,260.0 60.0,242.0" stroke="#000" stroke-width="1" /><polyline fill="none" opacity="1.0" points="56.0,260.0 56.0,242.0" stroke="#000" stroke-width="1" /><polyline fill="none" opacity="1.0" points="52.0,260.0 52.0,242.0" stroke="#000" stroke-width="1" /><polyline fill="none" opacity="1.0" points="48.0,260.0 48.0,242.0" stroke="#000" stroke-width="1" /><polyline fill="none" opacity="1.0" points="44.0,260.0 44.0,242.0" stroke="#000" stroke-width="1" /><polyline fill="none" opacity="1.0" points="40.0,260.0 40.0,242.0" stroke="#000" stroke-width="1" /><polyline fill="none" opacity="1.0" points="36.0,260.0 36.0,242.0" stroke="#000" stroke-width="1" /><polyline fill="none" opacity="1.0" points="32.0,260.0 32.0,242.0" stroke="#000" stroke-width="1" /><polyline fill="none" opacity="1.0" points="28.0,260.0 28.0,242.0" stroke="#000" stroke-width="1" /><polyline fill="none" opacity="1.0" points="64.0,119.0 64.0,137.0" stroke="#000" stroke-width="1" /><polyline fill="none" opacity="1.0" points="60.0,119.0 60.0,137.0" stroke="#000" stroke-width="1" /><polyline fill="none" opacity="1.0" points="56.0,119.0 56.0,137.0" stroke="#000" stroke-width="1" /><polyline fill="none" opacity="1.0" points="52.0,119.0 52.0,137.0" stroke="#000" stroke-width="1" /><polyline fill="none" opacity="1.0" points="48.0,119.0 48.0,137.0" stroke="#000" stroke-width="1" /><polyline fill="none" opacity="1.0" points="44.0,119.0 44.0,137.0" stroke="#000" stroke-width="1" /><polyline fill="none" opacity="1.0" points="40.0,119.0 40.0,137.0" stroke="#000" stroke-width="1" /><polyline fill="none" opacity="1.0" points="36.0,119.0 36.0,137.0" stroke="#000" stroke-width="1" /><polyline fill="none" opacity="1.0" points="32.0,119.0 32.0,137.0" stroke="#000" stroke-width="1" /><polyline fill="none" opacity="1.0" points="28.0,119.0 28.0,137.0" stroke="#000" stroke-width="1" /><polyline fill="none" opacity="1.0" points="362.0,125.0 362.0,100.0" stroke="#7F7F7F" stroke-width="1" /><polyline fill="none" opacity="1.0" points="358.0,125.0 358.0,100.0" stroke="#7F7F7F" stroke-width="1" /><polyline fill="none" opacity="1.0" points="354.0,125.0 354.0,100.0" stroke="#7F7F7F" stroke-width="1" /><polyline fill="none" opacity="1.0" points="350.0,125.0 350.0,100.0" stroke="#7F7F7F" stroke-width="1" /><polyline fill="none" opacity="1.0" points="346.0,125.0 346.0,100.0" stroke="#7F7F7F" stroke-width="1" /><polyline fill="none" opacity="1.0" points="342.0,125.0 342.0,100.0" stroke="#7F7F7F" stroke-width="1" /><polyline fill="none" opacity="1.0" points="338.0,125.0 338.0,100.0" stroke="#7F7F7F" stroke-width="1" /><polyline fill="none" opacity="1.0" points="334.0,125.0 334.0,100.0" stroke="#7F7F7F" stroke-width="1" /><polyline fill="none" opacity="1.0" points="330.0,125.0 330.0,100.0" stroke="#7F7F7F" stroke-width="1" /><polyline fill="none" opacity="1.0" points="326.0,125.0 326.0,100.0" stroke="#7F7F7F" stroke-width="1" /><polyline fill="none" opacity="1.0" points="322.0,125.0 322.0,100.0" stroke="#7F7F7F" stroke-width="1" /><polyline fill="none" opacity="1.0" points="318.0,125.0 318.0,100.0" stroke="#7F7F7F" stroke-width="1" /><polyline fill="none" opacity="1.0" points="314.0,125.0 314.0,100.0" stroke="#7F7F7F" stroke-width="1" /><polygon fill="#9B5509" opacity="1.0" points="369.0,100.0 308.0,100.0 308.0,97.0 369.0,97.0" stroke="#000" stroke-width="1" /><polygon fill="#9B5509" opacity="1.0" points="369.0,104.0 369.0,107.0 308.0,107.0 308.0,104.0" stroke="#000" stroke-width="1" /><polygon fill="#9B5509" opacity="1.0" points="369.0,111.0 369.0,114.0 308.0,114.0 308.0,111.0" stroke="#000" stroke-width="1" /><polygon fill="#9B5509" opacity="1.0" points="369.0,118.0 369.0,121.0 308.0,121.0 308.0,118.0" stroke="#000" stroke-width="1" /><polygon fill="#9B5509" opacity="1.0" points="369.0,125.0 308.0,125.0 308.0,128.0 369.0,128.0" stroke="#000" stroke-width="1" /><polygon fill="#94949C" opacity="1.0" points="262.0,99.0 267.0,99.0 267.0,97.0 262.0,97.0" stroke="#94949C" stroke-width="1" /><polygon fill="#94949C" opacity="1.0" points="338.0,249.0 343.0,249.0 343.0,247.0 338.0,247.0" stroke="#94949C" stroke-width="1" /><polygon fill="#94949C" opacity="1.0" points="340.0,140.0 345.0,140.0 345.0,138.0 340.0,138.0" stroke="#94949C" stroke-width="1" /><polygon fill="#F00" opacity="1.0" points="257.0,99.0 262.0,99.0 262.0,97.0 257.0,97.0" stroke="#F00" stroke-width="1" /><polygon fill="#F00" opacity="1.0" points="343.0,249.0 348.0,249.0 348.0,247.0 343.0,247.0" stroke="#F00" stroke-width="1" /><polygon fill="#F00" opacity="1.0" points="335.0,140.0 340.0,140.0 340.0,138.0 335.0,138.0" stroke="#F00" stroke-width="1" /><polygon fill="#FFF" opacity="1.0" points="421.0,131.0 421.0,127.0 417.0,127.0 417.0,131.0" stroke="#000" stroke-width="1" /><polyline fill="none" opacity="1.0" points="419.0,131.0 419.0,161.0" stroke="#000" stroke-width="0.5" /><polyline fill="none" opacity="1.0" points="417.0,123.0 421.0,123.0" stroke="#090" stroke-width="1" /><polyline fill="none" opacity="1.0" points="417.0,119.0 421.0,119.0" stroke="#090" stroke-width="1" /><polyline fill="none" opacity="1.0" points="417.0,115.0 421.0,115.0" stroke="#090" stroke-width="1" /><polyline fill="none" opacity="1.0" points="417.0,111.0 421.0,111.0" stroke="#090" stroke-width="1" /><polyline fill="none" opacity="1.0" points="417.0,107.0 421.0,107.0" stroke="#090" stroke-width="1" /><polyline fill="none" opacity="1.0" points="417.0,103.0 421.0,103.0" stroke="#090" stroke-width="1" /><polyline fill="none" opacity="1.0" points="417.0,99.0 421.0,99.0" stroke="#090" stroke-width="1" /><polyline fill="none" opacity="1.0" points="419.0,164.0 419.0,168.0" stroke="#F00" stroke-width="1" /><polyline fill="none" opacity="1.0" points="415.0,164.0 415.0,168.0" stroke="#F00" stroke-width="1" /><polyline fill="none" opacity="1.0" points="411.0,164.0 411.0,168.0" stroke="#F00" stroke-width="1" /><polyline fill="none" opacity="1.0" points="407.0,164.0 407.0,168.0" stroke="#F00" stroke-width="1" /><polyline fill="none" opacity="1.0" points="403.0,164.0 403.0,168.0" stroke="#F00" stroke-width="1" /><polyline fill="none" opacity="1.0" points="399.0,164.0 399.0,168.0" stroke="#F00" stroke-width="1" /><polyline fill="none" opacity="1.0" points="395.0,164.0 395.0,168.0" stroke="#F00" stroke-width="1" /><polyline fill="none" opacity="1.0" points="391.0,164.0 391.0,168.0" stroke="#F00" stroke-width="1" /><polyline fill="none" opacity="1.0" points="438.0,229.0 438.0,232.0" stroke="#000" stroke-width="1" /><polyline fill="none" opacity="1.0" points="442.0,229.0 442.0,232.0" stroke="#000" stroke-width="1" /><polyline fill="none" opacity="1.0" points="446.0,229.0 446.0,232.0" stroke="#000" stroke-width="1" /><polyline fill="none" opacity="1.0" points="450.0,118.0 454.0,118.0" stroke="#000" stroke-width="1" /><polyline fill="none" opacity="1.0" points="450.0,122.0 454.0,122.0" stroke="#000" stroke-width="1" /><polyline fill="none" opacity="1.0" points="450.0,126.0 454.0,126.0" stroke="#000" stroke-width="1" /><polygon fill="none" opacity="1.0" points="459.0,172.0 459.0,144.0 450.0,144.0 450.0,172.0" stroke="#000" stroke-width="1" /><text fill="#000" font-family="Arial" font-size="10" font-weight="normal" opacity="1.0" transform="rotate(90.0 461.0,146.0) translate(0 10)" x="461.0" y="146.0">кассы</text><polygon fill="#D0EFFF" opacity="1.0" points="281.0,308.0 281.0,294.0 296.0,294.0 296.0,308.0" stroke="#000" stroke-width="1" /><text fill="#000" font-family="Arial" font-size="6" font-weight="normal" opacity="1.0" transform="rotate(-0.0 282.0,298.0) translate(0 6)" x="282.0" y="298.0">лифт</text><polygon fill="#D0EFFF" opacity="1.0" points="435.0,249.0 435.0,235.0 450.0,235.0 450.0,249.0" stroke="#000" stroke-width="1" /><text fill="#000" font-family="Arial" font-size="6" font-weight="normal" opacity="1.0" transform="rotate(-0.0 436.0,239.0) translate(0 6)" x="436.0" y="239.0">лифт</text><polygon fill="#D0EFFF" opacity="1.0" points="457.0,129.0 457.0,115.0 472.0,115.0 472.0,129.0" stroke="#000" stroke-width="1" /><text fill="#000" font-family="Arial" font-size="6" font-weight="normal" opacity="1.0" transform="rotate(-0.0 458.0,119.0) translate(0 6)" x="458.0" y="119.0">лифт</text><polyline fill="none" opacity="1.0" points="282.0,118.0 296.0,118.0" stroke="#F00" stroke-width="1" /><polygon fill="#F00" opacity="1.0" points="291.9431,119.087 296.0,118.0 291.9431,116.913" stroke="#F00" stroke-width="1" /><polyline fill="none" opacity="1.0" points="296.0,106.0 282.0,106.0" stroke="#090" stroke-width="1" /><polygon fill="#090" opacity="1.0" points="286.0569,104.913 282.0,106.0 286.0569,107.087" stroke="#090" stroke-width="1" /><text fill="#00AFAF" font-family="Arial" font-size="15" font-weight="normal" opacity="1.0" transform="rotate(-0.0 208.0,332.0) translate(0 15)" x="208.0" y="332.0">Коломенская улица</text><g transform="rotate(30.0,250.0,190.0)"><text fill="#FFD900" font-family="Arial" font-size="25" font-weight="normal" opacity="1.0" x="290.25" y="295.5">1</text></g></g></g></svg>