<?xml version="1.0" encoding="utf-8" ?>
<svg baseProfile="tiny" height="1100px" version="1.2" width="720px" xmlns="http://www.w3.org/2000/svg" xmlns:ev="http://www.w3.org/2001/xml-events" xmlns:xlink="http://www.w3.org/1999/xlink"><defs /><g><g transform="rotate(-75.0,360.0,550.0)"><polygon fill="#9CA4A4" opacity="100" points="208.0,662.0 209.0,632.0 659.0,632.0 658.0,662.0" stroke="#000" stroke-width="1" /><polygon fill="#9CA4A4" opacity="100" points="659.0,552.0 659.0,522.0 209.0,522.0 209.0,552.0" stroke="#000" stroke-width="1" /><text fill="#4C4C4C" font-family="Arial" font-size="25" font-weight="bold" opacity="100" transform="rotate(-0.0 362.0,563.0) translate(0 25)" x="362.0" y="563.0">Нагатинская</text><text fill="#4C4C4C" font-family="Arial" font-size="20" font-weight="normal" opacity="100" transform="rotate(-0.0 212.0,499.0) translate(0 20)" x="212.0" y="499.0">&lt;&lt; Нагорная</text><text fill="#4C4C4C" font-family="Arial" font-size="20" font-weight="normal" opacity="100" transform="rotate(-0.0 547.0,662.0) translate(0 20)" x="547.0" y="662.0">Тульская &gt;&gt;</text><polyline fill="none" opacity="100" points="61.0,438.0 24.0,459.0 40.0,487.0 40.0,530.0 139.0,530.0 139.0,568.0 209.0,568.0 209.0,552.0" stroke="#000" stroke-width="1" /><polyline fill="none" opacity="100" points="-106.0,376.0 -69.0,355.0 13.0,497.0 13.0,653.0 139.0,653.0 139.0,616.0 209.0,616.0 209.0,632.0" stroke="#000" stroke-width="1" /><polyline fill="none" opacity="100" points="52.0,422.0 15.0,443.0 -4.0,410.0 33.0,389.0" stroke="#000" stroke-width="1" /><polyline fill="none" opacity="100" points="24.0,373.0 -13.0,394.0 -44.0,340.0 -7.0,319.0" stroke="#000" stroke-width="1" /><polyline fill="none" opacity="100" points="-16.0,303.0 -115.0,360.0" stroke="#000" stroke-width="1" /><polyline fill="none" opacity="100" points="59.0,439.0 50.0,423.0" stroke="#000" stroke-width="1" /><polyline fill="none" opacity="100" points="55.5335,440.9959 46.5335,424.9959" stroke="#000" stroke-width="1" /><polyline fill="none" opacity="100" points="52.067,442.9917 43.067,426.9917" stroke="#000" stroke-width="1" /><polyline fill="none" opacity="100" points="48.6005,444.9876 39.6005,428.9876" stroke="#000" stroke-width="1" /><polyline fill="none" opacity="100" points="45.134,446.9834 36.134,430.9834" stroke="#000" stroke-width="1" /><polyline fill="none" opacity="100" points="41.6676,448.9793 32.6676,432.9793" stroke="#000" stroke-width="1" /><polyline fill="none" opacity="100" points="38.2011,450.9751 29.2011,434.9751" stroke="#000" stroke-width="1" /><polyline fill="none" opacity="100" points="34.7346,452.971 25.7346,436.971" stroke="#000" stroke-width="1" /><polyline fill="none" opacity="100" points="31.2681,454.9669 22.2681,438.9669" stroke="#000" stroke-width="1" /><polyline fill="none" opacity="100" points="27.8016,456.9627 18.8016,440.9627" stroke="#000" stroke-width="1" /><polyline fill="none" opacity="100" points="31.0,390.0 22.0,374.0" stroke="#000" stroke-width="1" /><polyline fill="none" opacity="100" points="27.5335,391.9959 18.5335,375.9959" stroke="#000" stroke-width="1" /><polyline fill="none" opacity="100" points="24.067,393.9917 15.067,377.9917" stroke="#000" stroke-width="1" /><polyline fill="none" opacity="100" points="20.6005,395.9876 11.6005,379.9876" stroke="#000" stroke-width="1" /><polyline fill="none" opacity="100" points="17.134,397.9834 8.134,381.9834" stroke="#000" stroke-width="1" /><polyline fill="none" opacity="100" points="13.6676,399.9793 4.6676,383.9793" stroke="#000" stroke-width="1" /><polyline fill="none" opacity="100" points="10.2011,401.9751 1.2011,385.9751" stroke="#000" stroke-width="1" /><polyline fill="none" opacity="100" points="6.7346,403.971 -2.2654,387.971" stroke="#000" stroke-width="1" /><polyline fill="none" opacity="100" points="3.2681,405.9669 -5.7319,389.9669" stroke="#000" stroke-width="1" /><polyline fill="none" opacity="100" points="-0.1984,407.9627 -9.1984,391.9627" stroke="#000" stroke-width="1" /><polyline fill="none" opacity="100" points="-9.0,320.0 -18.0,304.0" stroke="#000" stroke-width="1" /><polyline fill="none" opacity="100" points="-12.4665,321.9959 -21.4665,305.9959" stroke="#000" stroke-width="1" /><polyline fill="none" opacity="100" points="-15.933,323.9917 -24.933,307.9917" stroke="#000" stroke-width="1" /><polyline fill="none" opacity="100" points="-19.3995,325.9876 -28.3995,309.9876" stroke="#000" stroke-width="1" /><polyline fill="none" opacity="100" points="-22.866,327.9834 -31.866,311.9834" stroke="#000" stroke-width="1" /><polyline fill="none" opacity="100" points="-26.3324,329.9793 -35.3324,313.9793" stroke="#000" stroke-width="1" /><polyline fill="none" opacity="100" points="-29.7989,331.9751 -38.7989,315.9751" stroke="#000" stroke-width="1" /><polyline fill="none" opacity="100" points="-33.2654,333.971 -42.2654,317.971" stroke="#000" stroke-width="1" /><polyline fill="none" opacity="100" points="-36.7319,335.9669 -45.7319,319.9669" stroke="#000" stroke-width="1" /><polyline fill="none" opacity="100" points="-40.1984,337.9627 -49.1984,321.9627" stroke="#000" stroke-width="1" /><polyline fill="none" opacity="100" points="-104.0,375.0 -113.0,359.0" stroke="#000" stroke-width="1" /><polyline fill="none" opacity="100" points="-100.5335,373.0041 -109.5335,357.0041" stroke="#000" stroke-width="1" /><polyline fill="none" opacity="100" points="-97.067,371.0083 -106.067,355.0083" stroke="#000" stroke-width="1" /><polyline fill="none" opacity="100" points="-93.6005,369.0124 -102.6005,353.0124" stroke="#000" stroke-width="1" /><polyline fill="none" opacity="100" points="-90.134,367.0166 -99.134,351.0166" stroke="#000" stroke-width="1" /><polyline fill="none" opacity="100" points="-86.6676,365.0207 -95.6676,349.0207" stroke="#000" stroke-width="1" /><polyline fill="none" opacity="100" points="-83.2011,363.0249 -92.2011,347.0249" stroke="#000" stroke-width="1" /><polyline fill="none" opacity="100" points="-79.7346,361.029 -88.7346,345.029" stroke="#000" stroke-width="1" /><polyline fill="none" opacity="100" points="-76.2681,359.0331 -85.2681,343.0331" stroke="#000" stroke-width="1" /><polyline fill="none" opacity="100" points="-72.8016,357.0373 -81.8016,341.0373" stroke="#000" stroke-width="1" /><polyline fill="none" opacity="100" points="-46.0,395.0 -21.0,381.0" stroke="#000" stroke-width="1" /><polyline fill="none" opacity="100" points="-43.9845,398.4551 -18.9845,384.4551" stroke="#000" stroke-width="1" /><polyline fill="none" opacity="100" points="-41.969,401.9102 -16.969,387.9102" stroke="#000" stroke-width="1" /><polyline fill="none" opacity="100" points="-39.9535,405.3653 -14.9535,391.3653" stroke="#000" stroke-width="1" /><polygon fill="#D0D0D0" opacity="100" points="50.0,563.0 42.0,563.0 42.0,620.0 50.0,620.0" stroke="#000" stroke-width="1" /><polyline fill="none" opacity="100" points="143.0,572.0 143.0,612.0" stroke="#7F7F7F" stroke-width="1" /><polyline fill="none" opacity="100" points="147.0,572.0 147.0,612.0" stroke="#7F7F7F" stroke-width="1" /><polyline fill="none" opacity="100" points="151.0,572.0 151.0,612.0" stroke="#7F7F7F" stroke-width="1" /><polyline fill="none" opacity="100" points="155.0,572.0 155.0,612.0" stroke="#7F7F7F" stroke-width="1" /><polyline fill="none" opacity="100" points="159.0,572.0 159.0,612.0" stroke="#7F7F7F" stroke-width="1" /><polyline fill="none" opacity="100" points="163.0,572.0 163.0,612.0" stroke="#7F7F7F" stroke-width="1" /><polyline fill="none" opacity="100" points="167.0,572.0 167.0,612.0" stroke="#7F7F7F" stroke-width="1" /><polyline fill="none" opacity="100" points="171.0,572.0 171.0,612.0" stroke="#7F7F7F" stroke-width="1" /><polyline fill="none" opacity="100" points="175.0,572.0 175.0,612.0" stroke="#7F7F7F" stroke-width="1" /><polyline fill="none" opacity="100" points="179.0,572.0 179.0,612.0" stroke="#7F7F7F" stroke-width="1" /><polyline fill="none" opacity="100" points="183.0,572.0 183.0,612.0" stroke="#7F7F7F" stroke-width="1" /><polyline fill="none" opacity="100" points="187.0,572.0 187.0,612.0" stroke="#7F7F7F" stroke-width="1" /><polyline fill="none" opacity="100" points="191.0,572.0 191.0,612.0" stroke="#7F7F7F" stroke-width="1" /><polyline fill="none" opacity="100" points="195.0,572.0 195.0,612.0" stroke="#7F7F7F" stroke-width="1" /><polyline fill="none" opacity="100" points="199.0,572.0 199.0,612.0" stroke="#7F7F7F" stroke-width="1" /><polyline fill="none" opacity="100" points="203.0,572.0 203.0,612.0" stroke="#7F7F7F" stroke-width="1" /><polyline fill="none" opacity="100" points="207.0,572.0 207.0,612.0" stroke="#7F7F7F" stroke-width="1" /><polygon fill="#9B5509" opacity="100" points="209.0,582.0 140.0,582.0 140.0,587.0 209.0,587.0" stroke="#000" stroke-width="1" /><polygon fill="#9B5509" opacity="100" points="209.0,597.0 140.0,597.0 140.0,602.0 209.0,602.0" stroke="#000" stroke-width="1" /><polygon fill="#9B5509" opacity="100" points="209.0,568.0 140.0,568.0 140.0,572.0 209.0,572.0" stroke="#000" stroke-width="1" /><polygon fill="#9B5509" opacity="100" points="209.0,612.0 140.0,612.0 140.0,616.0 209.0,616.0" stroke="#000" stroke-width="1" /><polyline fill="none" opacity="100" points="139.0,651.0 148.0,651.0 148.0,623.0 139.0,623.0" stroke="#000" stroke-width="1" /><text fill="#FFF" font-family="Arial" font-size="10" font-weight="normal" opacity="100" transform="rotate(90.0 150.0,625.0) translate(0 10)" x="150.0" y="625.0">кассы</text><polyline fill="none" opacity="100" points="139.0,619.0 107.0,619.0" stroke="#000" stroke-width="0.5" /><polygon fill="none" opacity="100" points="76.0,566.0 79.0,571.0 84.0,568.0 81.0,563.0" stroke="#000" stroke-width="1" /><polyline fill="none" opacity="100" points="81.0,563.0 50.0,563.0" stroke="#000" stroke-width="0.5" /><polyline fill="none" opacity="100" points="105.0,620.0 110.0,617.0" stroke="#090" stroke-width="1" /><polyline fill="none" opacity="100" points="103.1215,616.4685 108.1215,613.4685" stroke="#090" stroke-width="1" /><polyline fill="none" opacity="100" points="101.2431,612.937 106.2431,609.937" stroke="#090" stroke-width="1" /><polyline fill="none" opacity="100" points="99.3646,609.4055 104.3646,606.4055" stroke="#090" stroke-width="1" /><polyline fill="none" opacity="100" points="97.4862,605.874 102.4862,602.874" stroke="#090" stroke-width="1" /><polyline fill="none" opacity="100" points="95.6077,602.3426 100.6077,599.3426" stroke="#090" stroke-width="1" /><polyline fill="none" opacity="100" points="93.7293,598.8111 98.7293,595.8111" stroke="#090" stroke-width="1" /><polyline fill="none" opacity="100" points="91.8508,595.2796 96.8508,592.2796" stroke="#090" stroke-width="1" /><polyline fill="none" opacity="100" points="89.9724,591.7481 94.9724,588.7481" stroke="#090" stroke-width="1" /><polyline fill="none" opacity="100" points="88.0939,588.2166 93.0939,585.2166" stroke="#090" stroke-width="1" /><polyline fill="none" opacity="100" points="86.2155,584.6851 91.2155,581.6851" stroke="#090" stroke-width="1" /><polyline fill="none" opacity="100" points="84.337,581.1536 89.337,578.1536" stroke="#090" stroke-width="1" /><polyline fill="none" opacity="100" points="82.4586,577.6221 87.4586,574.6221" stroke="#090" stroke-width="1" /><polyline fill="none" opacity="100" points="80.5801,574.0906 85.5801,571.0906" stroke="#090" stroke-width="1" /><polyline fill="none" opacity="100" points="81.0,534.0 75.0,534.0" stroke="#F00" stroke-width="1" /><polyline fill="none" opacity="100" points="81.0,538.0 75.0,538.0" stroke="#F00" stroke-width="1" /><polyline fill="none" opacity="100" points="81.0,542.0 75.0,542.0" stroke="#F00" stroke-width="1" /><polyline fill="none" opacity="100" points="81.0,546.0 75.0,546.0" stroke="#F00" stroke-width="1" /><polyline fill="none" opacity="100" points="81.0,550.0 75.0,550.0" stroke="#F00" stroke-width="1" /><polyline fill="none" opacity="100" points="81.0,554.0 75.0,554.0" stroke="#F00" stroke-width="1" /><polyline fill="none" opacity="100" points="81.0,558.0 75.0,558.0" stroke="#F00" stroke-width="1" /><polyline fill="none" opacity="100" points="845.0,515.0 883.0,493.0 863.0,457.0 801.0,493.0 809.0,507.0 809.0,530.0 709.0,530.0 709.0,562.0 659.0,562.0 659.0,552.0" stroke="#000" stroke-width="1" /><polyline fill="none" opacity="100" points="777.0,773.0 811.0,753.0 808.0,748.0 808.0,653.0 709.0,653.0 709.0,622.0 659.0,622.0 659.0,632.0" stroke="#000" stroke-width="1" /><polyline fill="none" opacity="100" points="837.0,498.0 858.0,486.0 856.0,482.0 832.0,496.0 836.0,503.0 836.0,737.0 837.0,739.0 873.0,718.0" stroke="#000" stroke-width="1" /><polyline fill="none" opacity="100" points="882.0,734.0 786.0,790.0" stroke="#000" stroke-width="1" /><polyline fill="none" opacity="100" points="660.0,566.0 708.0,566.0" stroke="#000" stroke-width="0.5" /><polyline fill="none" opacity="100" points="825.0,483.0 844.0,472.0" stroke="#000" stroke-width="0.5" /><polyline fill="none" opacity="100" points="862.0,501.0 845.0,511.0" stroke="#000" stroke-width="0.5" /><polyline fill="none" opacity="100" points="784.0,785.0 818.0,765.0" stroke="#000" stroke-width="0.5" /><polyline fill="none" opacity="100" points="844.0,751.0 878.0,731.0" stroke="#000" stroke-width="0.5" /><polyline fill="none" opacity="100" points="839.0,738.0 846.0,750.0" stroke="#000" stroke-width="1" /><polyline fill="none" opacity="100" points="842.4394,735.9578 849.4394,747.9578" stroke="#000" stroke-width="1" /><polyline fill="none" opacity="100" points="845.8788,733.9157 852.8788,745.9157" stroke="#000" stroke-width="1" /><polyline fill="none" opacity="100" points="849.3183,731.8735 856.3183,743.8735" stroke="#000" stroke-width="1" /><polyline fill="none" opacity="100" points="852.7577,729.8314 859.7577,741.8314" stroke="#000" stroke-width="1" /><polyline fill="none" opacity="100" points="856.1971,727.7892 863.1971,739.7892" stroke="#000" stroke-width="1" /><polyline fill="none" opacity="100" points="859.6365,725.7471 866.6365,737.7471" stroke="#000" stroke-width="1" /><polyline fill="none" opacity="100" points="863.0759,723.7049 870.0759,735.7049" stroke="#000" stroke-width="1" /><polyline fill="none" opacity="100" points="866.5154,721.6628 873.5154,733.6628" stroke="#000" stroke-width="1" /><polyline fill="none" opacity="100" points="869.9548,719.6206 876.9548,731.6206" stroke="#000" stroke-width="1" /><polyline fill="none" opacity="100" points="810.0,754.0 817.0,766.0" stroke="#000" stroke-width="1" /><polyline fill="none" opacity="100" points="806.5335,755.9959 813.5335,767.9959" stroke="#000" stroke-width="1" /><polyline fill="none" opacity="100" points="803.067,757.9917 810.067,769.9917" stroke="#000" stroke-width="1" /><polyline fill="none" opacity="100" points="799.6005,759.9876 806.6005,771.9876" stroke="#000" stroke-width="1" /><polyline fill="none" opacity="100" points="796.134,761.9834 803.134,773.9834" stroke="#000" stroke-width="1" /><polyline fill="none" opacity="100" points="792.6676,763.9793 799.6676,775.9793" stroke="#000" stroke-width="1" /><polyline fill="none" opacity="100" points="789.2011,765.9751 796.2011,777.9751" stroke="#000" stroke-width="1" /><polyline fill="none" opacity="100" points="785.7346,767.971 792.7346,779.971" stroke="#000" stroke-width="1" /><polyline fill="none" opacity="100" points="782.2681,769.9669 789.2681,781.9669" stroke="#000" stroke-width="1" /><polyline fill="none" opacity="100" points="778.8016,771.9627 785.8016,783.9627" stroke="#000" stroke-width="1" /><polyline fill="none" opacity="100" points="827.0,482.0 834.0,495.0" stroke="#000" stroke-width="1" /><polyline fill="none" opacity="100" points="830.4863,480.039 837.4863,493.039" stroke="#000" stroke-width="1" /><polyline fill="none" opacity="100" points="833.9726,478.0779 840.9726,491.0779" stroke="#000" stroke-width="1" /><polyline fill="none" opacity="100" points="837.4589,476.1169 844.4589,489.1169" stroke="#000" stroke-width="1" /><polyline fill="none" opacity="100" points="840.9452,474.1558 847.9452,487.1558" stroke="#000" stroke-width="1" /><polyline fill="none" opacity="100" points="839.0,497.0 846.0,510.0" stroke="#000" stroke-width="1" /><polyline fill="none" opacity="100" points="842.4863,495.039 849.4863,508.039" stroke="#000" stroke-width="1" /><polyline fill="none" opacity="100" points="845.9726,493.0779 852.9726,506.0779" stroke="#000" stroke-width="1" /><polyline fill="none" opacity="100" points="849.4589,491.1169 856.4589,504.1169" stroke="#000" stroke-width="1" /><polyline fill="none" opacity="100" points="852.9452,489.1558 859.9452,502.1558" stroke="#000" stroke-width="1" /><polyline fill="none" opacity="100" points="706.0,566.0 706.0,622.0" stroke="#000" stroke-width="1" /><polyline fill="none" opacity="100" points="702.0,566.0 702.0,622.0" stroke="#000" stroke-width="1" /><polyline fill="none" opacity="100" points="698.0,566.0 698.0,622.0" stroke="#000" stroke-width="1" /><polyline fill="none" opacity="100" points="694.0,566.0 694.0,622.0" stroke="#000" stroke-width="1" /><polyline fill="none" opacity="100" points="690.0,566.0 690.0,622.0" stroke="#000" stroke-width="1" /><polyline fill="none" opacity="100" points="686.0,566.0 686.0,622.0" stroke="#000" stroke-width="1" /><polyline fill="none" opacity="100" points="682.0,566.0 682.0,622.0" stroke="#000" stroke-width="1" /><polyline fill="none" opacity="100" points="678.0,566.0 678.0,622.0" stroke="#000" stroke-width="1" /><polyline fill="none" opacity="100" points="674.0,566.0 674.0,622.0" stroke="#000" stroke-width="1" /><polyline fill="none" opacity="100" points="670.0,566.0 670.0,622.0" stroke="#000" stroke-width="1" /><polyline fill="none" opacity="100" points="666.0,566.0 666.0,622.0" stroke="#000" stroke-width="1" /><polyline fill="none" opacity="100" points="662.0,566.0 662.0,622.0" stroke="#000" stroke-width="1" /><polygon fill="#D0D0D0" opacity="100" points="808.0,563.0 800.0,563.0 800.0,620.0 808.0,620.0" stroke="#000" stroke-width="1" /><polyline fill="none" opacity="100" points="709.0,623.0 739.0,623.0" stroke="#000" stroke-width="0.5" /><polygon fill="none" opacity="100" points="770.0,565.0 768.0,570.0 763.0,568.0 765.0,563.0" stroke="#000" stroke-width="1" /><polyline fill="none" opacity="100" points="765.0,563.0 800.0,563.0" stroke="#000" stroke-width="0.5" /><polyline fill="none" opacity="100" points="761.0,571.0 766.0,573.0" stroke="#090" stroke-width="1" /><polyline fill="none" opacity="100" points="759.2668,574.605 764.2668,576.605" stroke="#090" stroke-width="1" /><polyline fill="none" opacity="100" points="757.5336,578.21 762.5336,580.21" stroke="#090" stroke-width="1" /><polyline fill="none" opacity="100" points="755.8005,581.815 760.8005,583.815" stroke="#090" stroke-width="1" /><polyline fill="none" opacity="100" points="754.0673,585.42 759.0673,587.42" stroke="#090" stroke-width="1" /><polyline fill="none" opacity="100" points="752.3341,589.025 757.3341,591.025" stroke="#090" stroke-width="1" /><polyline fill="none" opacity="100" points="750.6009,592.6301 755.6009,594.6301" stroke="#090" stroke-width="1" /><polyline fill="none" opacity="100" points="748.8678,596.2351 753.8678,598.2351" stroke="#090" stroke-width="1" /><polyline fill="none" opacity="100" points="747.1346,599.8401 752.1346,601.8401" stroke="#090" stroke-width="1" /><polyline fill="none" opacity="100" points="745.4014,603.4451 750.4014,605.4451" stroke="#090" stroke-width="1" /><polyline fill="none" opacity="100" points="743.6682,607.0501 748.6682,609.0501" stroke="#090" stroke-width="1" /><polyline fill="none" opacity="100" points="741.935,610.6551 746.935,612.6551" stroke="#090" stroke-width="1" /><polyline fill="none" opacity="100" points="740.2019,614.2601 745.2019,616.2601" stroke="#090" stroke-width="1" /><polyline fill="none" opacity="100" points="738.4687,617.8651 743.4687,619.8651" stroke="#090" stroke-width="1" /><polyline fill="none" opacity="100" points="736.7355,621.4701 741.7355,623.4701" stroke="#090" stroke-width="1" /><polyline fill="none" opacity="100" points="770.0,534.0 764.0,534.0" stroke="#F00" stroke-width="1" /><polyline fill="none" opacity="100" points="770.0,538.0 764.0,538.0" stroke="#F00" stroke-width="1" /><polyline fill="none" opacity="100" points="770.0,542.0 764.0,542.0" stroke="#F00" stroke-width="1" /><polyline fill="none" opacity="100" points="770.0,546.0 764.0,546.0" stroke="#F00" stroke-width="1" /><polyline fill="none" opacity="100" points="770.0,550.0 764.0,550.0" stroke="#F00" stroke-width="1" /><polyline fill="none" opacity="100" points="770.0,554.0 764.0,554.0" stroke="#F00" stroke-width="1" /><polyline fill="none" opacity="100" points="770.0,558.0 764.0,558.0" stroke="#F00" stroke-width="1" /><polyline fill="none" opacity="100" points="709.0,624.0 701.0,624.0 701.0,651.0 709.0,651.0" stroke="#000" stroke-width="1" /><text fill="#000" font-family="Arial" font-size="10" font-weight="normal" opacity="100" transform="rotate(90.0 712.0,625.0) translate(0 10)" x="712.0" y="625.0">кассы</text><polyline fill="none" opacity="100" points="795.0,547.0 807.0,547.0" stroke="#F00" stroke-width="1" /><polygon fill="#F00" opacity="100" points="803.5227,547.9317 807.0,547.0 803.5227,546.0683" stroke="#F00" stroke-width="1" /><polyline fill="none" opacity="100" points="59.0,547.0 45.0,547.0" stroke="#F00" stroke-width="1" /><polygon fill="#F00" opacity="100" points="49.0569,545.913 45.0,547.0 49.0569,548.087" stroke="#F00" stroke-width="1" /><polyline fill="none" opacity="100" points="150.0,577.0 139.0,577.0" stroke="#F00" stroke-width="1" /><polygon fill="#F00" opacity="100" points="142.1876,576.1459 139.0,577.0 142.1876,577.8541" stroke="#F00" stroke-width="1" /><polyline fill="none" opacity="100" points="808.0,636.0 789.0,636.0" stroke="#090" stroke-width="1" /><polygon fill="#090" opacity="100" points="794.5058,634.5247 789.0,636.0 794.5058,637.4753" stroke="#090" stroke-width="1" /><polyline fill="none" opacity="100" points="46.0,637.0 60.0,637.0" stroke="#090" stroke-width="1" /><polygon fill="#090" opacity="100" points="55.9431,638.087 60.0,637.0 55.9431,635.913" stroke="#090" stroke-width="1" /><polyline fill="none" opacity="100" points="140.0,607.0 150.0,607.0" stroke="#090" stroke-width="1" /><polygon fill="#090" opacity="100" points="147.1022,607.7765 150.0,607.0 147.1022,606.2235" stroke="#090" stroke-width="1" /><polygon fill="#34349C" opacity="100" points="732.0,561.0 737.0,561.0 737.0,559.0 732.0,559.0" stroke="#34349C" stroke-width="1" /><polygon fill="#34349C" opacity="100" points="419.0,595.0 419.0,590.0 417.0,590.0 417.0,595.0" stroke="#34349C" stroke-width="1" /><polygon fill="#34349C" opacity="100" points="67.0,618.0 72.0,618.0 72.0,616.0 67.0,616.0" stroke="#34349C" stroke-width="1" /><polygon fill="#F00" opacity="100" points="727.0,561.0 732.0,561.0 732.0,559.0 727.0,559.0" stroke="#F00" stroke-width="1" /><polygon fill="#F00" opacity="100" points="419.0,600.0 419.0,595.0 417.0,595.0 417.0,600.0" stroke="#F00" stroke-width="1" /><polygon fill="#F00" opacity="100" points="62.0,618.0 67.0,618.0 67.0,616.0 62.0,616.0" stroke="#F00" stroke-width="1" /><text fill="#00AFAF" font-family="Arial" font-size="15" font-weight="normal" opacity="100" transform="rotate(-210.0 757.0,701.0) translate(0 15)" x="757.0" y="701.0">Варшавское шоссе</text><text fill="#00AFAF" font-family="Arial" font-size="15" font-weight="normal" opacity="100" transform="rotate(-210.0 -50.0,401.0) translate(0 15)" x="-50.0" y="401.0">платформа "Нагатинская"\nПавелецкого направления</text><text fill="#00AFAF" font-family="Arial" font-size="15" font-weight="normal" opacity="100" transform="rotate(-210.0 887.0,426.0) translate(0 15)" x="887.0" y="426.0">&lt;&lt; к станции МЦК</text><text fill="#00AFAF" font-family="Arial" font-size="15" font-weight="normal" opacity="100" transform="rotate(-210.0 864.0,419.0) translate(0 15)" x="864.0" y="419.0">"Верхние Котлы"</text><g transform="rotate(75.0,360.0,550.0)"><text fill="#FFD900" font-family="Arial" font-size="25" font-weight="normal" opacity="100" x="159.25" y="797.5">1</text><text fill="#FFD900" font-family="Arial" font-size="25" font-weight="normal" opacity="100" x="99.25" y="810.5">1</text><text fill="#FFD900" font-family="Arial" font-size="25" font-weight="normal" opacity="100" x="7.25" y="966.5">2</text><text fill="#FFD900" font-family="Arial" font-size="25" font-weight="normal" opacity="100" x="17.25" y="831.5">3</text><text fill="#FFD900" font-family="Arial" font-size="25" font-weight="normal" opacity="100" x="464.25" y="54.5">4</text><text fill="#FFD900" font-family="Arial" font-size="25" font-weight="normal" opacity="100" x="621.25" y="115.5">5</text><text fill="#FFD900" font-family="Arial" font-size="25" font-weight="normal" opacity="100" x="647.25" y="206.5">6</text></g></g></g></svg>