<?xml version="1.0" encoding="utf-8" ?>
<svg baseProfile="tiny" height="300px" version="1.2" width="810px" xmlns="http://www.w3.org/2000/svg" xmlns:ev="http://www.w3.org/2001/xml-events" xmlns:xlink="http://www.w3.org/1999/xlink"><defs /><g><polygon fill="#EEE" opacity="100" points="672.0,136.0 683.0,136.0 683.0,123.0 648.0,123.0 648.0,118.0 660.0,118.0 660.0,76.0 648.0,76.0 648.0,68.0 672.0,68.0 672.0,58.0 223.0,58.0 223.0,70.0 251.0,70.0 251.0,77.0 234.0,77.0 234.0,117.0 251.0,117.0 251.0,124.0 223.0,124.0 223.0,136.0" stroke="#EEE" stroke-width="1" /><polygon fill="#30D5C8" opacity="100" points="223.0,58.0 223.0,28.0 672.0,28.0 672.0,58.0" stroke="#000" stroke-width="1" /><polygon fill="#30D5C8" opacity="100" points="223.0,166.0 223.0,136.0 672.0,136.0 672.0,166.0" stroke="#000" stroke-width="1" /><text fill="#30D5C8" font-family="Arial" font-size="20" font-weight="normal" opacity="100" transform="rotate(-0.0 226.0,4.0) translate(0 20)" x="226.0" y="4.0">&lt;&lt; Мнёвники</text><text fill="#30D5C8" font-family="Arial" font-size="20" font-weight="normal" opacity="100" transform="rotate(-0.0 500.0,166.0) translate(0 20)" x="500.0" y="166.0">Хорошёвская &gt;&gt;</text><text fill="#30D5C8" font-family="Arial" font-size="25" font-weight="bold" opacity="100" transform="rotate(-0.0 340.0,74.0) translate(0 25)" x="340.0" y="74.0">Народное Ополчение</text><polygon fill="#94949C" opacity="100" points="450.0,103.0 450.0,107.0 448.0,107.0 448.0,103.0" stroke="#94949C" stroke-width="1" /><polygon fill="#F00" opacity="100" points="450.0,99.0 450.0,103.0 448.0,103.0 448.0,99.0" stroke="#F00" stroke-width="1" /><polyline fill="none" opacity="100" points="166.0,77.0 166.0,45.0 58.0,45.0 58.0,102.0 16.0,102.0" stroke="#000" stroke-width="1" /><polyline fill="none" opacity="100" points="16.0,120.0 76.0,120.0 76.0,63.0 84.0,63.0 84.0,243.0 122.0,243.0 122.0,247.0 82.0,247.0" stroke="#000" stroke-width="1" /><polyline fill="none" opacity="100" points="82.0,265.0 137.0,265.0 137.0,225.0 102.0,225.0 102.0,108.0 106.0,108.0 106.0,149.0 166.0,149.0 166.0,117.0" stroke="#000" stroke-width="1" /><polyline fill="none" opacity="100" points="223.0,136.0 223.0,124.0 251.0,124.0 251.0,117.0 234.0,117.0" stroke="#000" stroke-width="1" /><polyline fill="none" opacity="100" points="234.0,77.0 251.0,77.0 251.0,70.0 223.0,70.0 223.0,58.0" stroke="#000" stroke-width="1" /><polyline fill="none" opacity="100" points="57.0,116.0 16.0,116.0" stroke="#000" stroke-width="0.5" /><polyline fill="none" opacity="100" points="71.0,102.0 71.0,63.0" stroke="#000" stroke-width="0.5" /><polyline fill="none" opacity="100" points="122.0,251.0 82.0,251.0" stroke="#000" stroke-width="0.5" /><polyline fill="none" opacity="100" points="102.0,239.0 122.0,239.0" stroke="#000" stroke-width="0.5" /><polyline fill="none" opacity="100" points="89.0,225.0 89.0,213.0" stroke="#000" stroke-width="0.5" /><polyline fill="none" opacity="100" points="55.0,102.0 55.0,116.0" stroke="#000" stroke-width="1" /><polyline fill="none" opacity="100" points="51.0,102.0 51.0,116.0" stroke="#000" stroke-width="1" /><polyline fill="none" opacity="100" points="47.0,102.0 47.0,116.0" stroke="#000" stroke-width="1" /><polyline fill="none" opacity="100" points="43.0,102.0 43.0,116.0" stroke="#000" stroke-width="1" /><polyline fill="none" opacity="100" points="39.0,102.0 39.0,116.0" stroke="#000" stroke-width="1" /><polyline fill="none" opacity="100" points="35.0,102.0 35.0,116.0" stroke="#000" stroke-width="1" /><polyline fill="none" opacity="100" points="31.0,102.0 31.0,116.0" stroke="#000" stroke-width="1" /><polyline fill="none" opacity="100" points="27.0,102.0 27.0,116.0" stroke="#000" stroke-width="1" /><polyline fill="none" opacity="100" points="23.0,102.0 23.0,116.0" stroke="#000" stroke-width="1" /><polyline fill="none" opacity="100" points="19.0,102.0 19.0,116.0" stroke="#000" stroke-width="1" /><polyline fill="none" opacity="100" points="71.0,65.0 58.0,65.0" stroke="#000" stroke-width="1" /><polyline fill="none" opacity="100" points="71.0,69.0 58.0,69.0" stroke="#000" stroke-width="1" /><polyline fill="none" opacity="100" points="71.0,73.0 58.0,73.0" stroke="#000" stroke-width="1" /><polyline fill="none" opacity="100" points="71.0,77.0 58.0,77.0" stroke="#000" stroke-width="1" /><polyline fill="none" opacity="100" points="71.0,81.0 58.0,81.0" stroke="#000" stroke-width="1" /><polyline fill="none" opacity="100" points="71.0,85.0 58.0,85.0" stroke="#000" stroke-width="1" /><polyline fill="none" opacity="100" points="71.0,89.0 58.0,89.0" stroke="#000" stroke-width="1" /><polyline fill="none" opacity="100" points="71.0,93.0 58.0,93.0" stroke="#000" stroke-width="1" /><polyline fill="none" opacity="100" points="71.0,97.0 58.0,97.0" stroke="#000" stroke-width="1" /><polyline fill="none" opacity="100" points="71.0,101.0 58.0,101.0" stroke="#000" stroke-width="1" /><polyline fill="none" opacity="100" points="120.0,251.0 120.0,265.0" stroke="#000" stroke-width="1" /><polyline fill="none" opacity="100" points="116.0,251.0 116.0,265.0" stroke="#000" stroke-width="1" /><polyline fill="none" opacity="100" points="112.0,251.0 112.0,265.0" stroke="#000" stroke-width="1" /><polyline fill="none" opacity="100" points="108.0,251.0 108.0,265.0" stroke="#000" stroke-width="1" /><polyline fill="none" opacity="100" points="104.0,251.0 104.0,265.0" stroke="#000" stroke-width="1" /><polyline fill="none" opacity="100" points="100.0,251.0 100.0,265.0" stroke="#000" stroke-width="1" /><polyline fill="none" opacity="100" points="96.0,251.0 96.0,265.0" stroke="#000" stroke-width="1" /><polyline fill="none" opacity="100" points="92.0,251.0 92.0,265.0" stroke="#000" stroke-width="1" /><polyline fill="none" opacity="100" points="88.0,251.0 88.0,265.0" stroke="#000" stroke-width="1" /><polyline fill="none" opacity="100" points="84.0,251.0 84.0,265.0" stroke="#000" stroke-width="1" /><polyline fill="none" opacity="100" points="120.0,225.0 120.0,239.0" stroke="#000" stroke-width="1" /><polyline fill="none" opacity="100" points="116.0,225.0 116.0,239.0" stroke="#000" stroke-width="1" /><polyline fill="none" opacity="100" points="112.0,225.0 112.0,239.0" stroke="#000" stroke-width="1" /><polyline fill="none" opacity="100" points="108.0,225.0 108.0,239.0" stroke="#000" stroke-width="1" /><polyline fill="none" opacity="100" points="104.0,225.0 104.0,239.0" stroke="#000" stroke-width="1" /><polyline fill="none" opacity="100" points="89.0,215.0 102.0,215.0" stroke="#000" stroke-width="1" /><polyline fill="none" opacity="100" points="89.0,219.0 102.0,219.0" stroke="#000" stroke-width="1" /><polyline fill="none" opacity="100" points="89.0,223.0 102.0,223.0" stroke="#000" stroke-width="1" /><polygon fill="#D0D0D0" opacity="100" points="102.0,62.0 106.0,62.0 106.0,85.0 102.0,85.0" stroke="#000" stroke-width="1" /><polyline fill="none" opacity="100" points="164.0,80.0 164.0,114.0" stroke="#7F7F7F" stroke-width="1" /><polyline fill="none" opacity="100" points="168.0,80.0 168.0,114.0" stroke="#7F7F7F" stroke-width="1" /><polyline fill="none" opacity="100" points="172.0,80.0 172.0,114.0" stroke="#7F7F7F" stroke-width="1" /><polyline fill="none" opacity="100" points="176.0,80.0 176.0,114.0" stroke="#7F7F7F" stroke-width="1" /><polyline fill="none" opacity="100" points="180.0,80.0 180.0,114.0" stroke="#7F7F7F" stroke-width="1" /><polyline fill="none" opacity="100" points="184.0,80.0 184.0,114.0" stroke="#7F7F7F" stroke-width="1" /><polyline fill="none" opacity="100" points="188.0,80.0 188.0,114.0" stroke="#7F7F7F" stroke-width="1" /><polyline fill="none" opacity="100" points="192.0,80.0 192.0,114.0" stroke="#7F7F7F" stroke-width="1" /><polyline fill="none" opacity="100" points="196.0,80.0 196.0,114.0" stroke="#7F7F7F" stroke-width="1" /><polyline fill="none" opacity="100" points="200.0,80.0 200.0,114.0" stroke="#7F7F7F" stroke-width="1" /><polyline fill="none" opacity="100" points="204.0,80.0 204.0,114.0" stroke="#7F7F7F" stroke-width="1" /><polyline fill="none" opacity="100" points="208.0,80.0 208.0,114.0" stroke="#7F7F7F" stroke-width="1" /><polyline fill="none" opacity="100" points="212.0,80.0 212.0,114.0" stroke="#7F7F7F" stroke-width="1" /><polyline fill="none" opacity="100" points="216.0,80.0 216.0,114.0" stroke="#7F7F7F" stroke-width="1" /><polyline fill="none" opacity="100" points="220.0,80.0 220.0,114.0" stroke="#7F7F7F" stroke-width="1" /><polyline fill="none" opacity="100" points="224.0,80.0 224.0,114.0" stroke="#7F7F7F" stroke-width="1" /><polyline fill="none" opacity="100" points="228.0,80.0 228.0,114.0" stroke="#7F7F7F" stroke-width="1" /><polygon fill="#9B5509" opacity="100" points="158.0,114.0 234.0,114.0 234.0,117.0 158.0,117.0" stroke="#000" stroke-width="1" /><polygon fill="#9B5509" opacity="100" points="158.0,106.0 158.0,101.0 234.0,101.0 234.0,106.0" stroke="#000" stroke-width="1" /><polygon fill="#9B5509" opacity="100" points="158.0,93.0 158.0,88.0 234.0,88.0 234.0,93.0" stroke="#000" stroke-width="1" /><polygon fill="#9B5509" opacity="100" points="158.0,80.0 234.0,80.0 234.0,77.0 158.0,77.0" stroke="#000" stroke-width="1" /><polygon fill="#FFF" opacity="100" points="174.0,120.0 166.0,120.0 166.0,147.0 174.0,147.0" stroke="#000" stroke-width="1" /><text fill="#FFF" font-family="Arial" font-size="10" font-weight="normal" opacity="100" transform="rotate(-90.0 164.0,145.0) translate(0 10)" x="164.0" y="145.0">кассы</text><polyline fill="none" opacity="100" points="123.0,73.0 106.0,73.0" stroke="#000" stroke-width="0.5" /><polyline fill="none" opacity="100" points="157.0,117.0 125.0,117.0" stroke="#000" stroke-width="0.5" /><polyline fill="none" opacity="100" points="123.0,76.0 127.0,76.0" stroke="#090" stroke-width="1" /><polyline fill="none" opacity="100" points="123.0,80.0 127.0,80.0" stroke="#090" stroke-width="1" /><polyline fill="none" opacity="100" points="123.0,84.0 127.0,84.0" stroke="#090" stroke-width="1" /><polyline fill="none" opacity="100" points="123.0,88.0 127.0,88.0" stroke="#090" stroke-width="1" /><polyline fill="none" opacity="100" points="123.0,92.0 127.0,92.0" stroke="#090" stroke-width="1" /><polyline fill="none" opacity="100" points="123.0,96.0 127.0,96.0" stroke="#090" stroke-width="1" /><polyline fill="none" opacity="100" points="123.0,100.0 127.0,100.0" stroke="#090" stroke-width="1" /><polyline fill="none" opacity="100" points="123.0,104.0 127.0,104.0" stroke="#090" stroke-width="1" /><polyline fill="none" opacity="100" points="123.0,108.0 127.0,108.0" stroke="#090" stroke-width="1" /><polyline fill="none" opacity="100" points="123.0,112.0 127.0,112.0" stroke="#090" stroke-width="1" /><polyline fill="none" opacity="100" points="123.0,116.0 127.0,116.0" stroke="#090" stroke-width="1" /><polyline fill="none" opacity="100" points="123.0,71.0 127.0,71.0" stroke="#F00" stroke-width="1" /><polyline fill="none" opacity="100" points="123.0,67.0 127.0,67.0" stroke="#F00" stroke-width="1" /><polyline fill="none" opacity="100" points="123.0,63.0 127.0,63.0" stroke="#F00" stroke-width="1" /><polyline fill="none" opacity="100" points="123.0,59.0 127.0,59.0" stroke="#F00" stroke-width="1" /><polyline fill="none" opacity="100" points="123.0,55.0 127.0,55.0" stroke="#F00" stroke-width="1" /><polyline fill="none" opacity="100" points="123.0,51.0 127.0,51.0" stroke="#F00" stroke-width="1" /><polyline fill="none" opacity="100" points="123.0,47.0 127.0,47.0" stroke="#F00" stroke-width="1" /><polyline fill="none" opacity="100" points="150.0,57.0 134.0,57.0" stroke="#F00" stroke-width="1" /><polygon fill="#F00" opacity="100" points="138.6364,55.7577 134.0,57.0 138.6364,58.2423" stroke="#F00" stroke-width="1" /><polyline fill="none" opacity="100" points="102.0,95.0 118.0,95.0" stroke="#090" stroke-width="1" /><polygon fill="#090" opacity="100" points="113.3636,96.2423 118.0,95.0 113.3636,93.7577" stroke="#090" stroke-width="1" /><polyline fill="none" opacity="100" points="672.0,58.0 672.0,68.0 648.0,68.0 648.0,76.0 660.0,76.0" stroke="#000" stroke-width="1" /><polyline fill="none" opacity="100" points="660.0,118.0 648.0,118.0 648.0,123.0 683.0,123.0 683.0,136.0 672.0,136.0" stroke="#000" stroke-width="1" /><polyline fill="none" opacity="100" points="667.0,79.0 667.0,115.0" stroke="#7F7F7F" stroke-width="1" /><polyline fill="none" opacity="100" points="671.0,79.0 671.0,115.0" stroke="#7F7F7F" stroke-width="1" /><polyline fill="none" opacity="100" points="675.0,79.0 675.0,115.0" stroke="#7F7F7F" stroke-width="1" /><polyline fill="none" opacity="100" points="679.0,79.0 679.0,115.0" stroke="#7F7F7F" stroke-width="1" /><polyline fill="none" opacity="100" points="683.0,79.0 683.0,115.0" stroke="#7F7F7F" stroke-width="1" /><polyline fill="none" opacity="100" points="687.0,79.0 687.0,115.0" stroke="#7F7F7F" stroke-width="1" /><polyline fill="none" opacity="100" points="691.0,79.0 691.0,115.0" stroke="#7F7F7F" stroke-width="1" /><polyline fill="none" opacity="100" points="695.0,79.0 695.0,115.0" stroke="#7F7F7F" stroke-width="1" /><polyline fill="none" opacity="100" points="699.0,79.0 699.0,115.0" stroke="#7F7F7F" stroke-width="1" /><polyline fill="none" opacity="100" points="703.0,79.0 703.0,115.0" stroke="#7F7F7F" stroke-width="1" /><polyline fill="none" opacity="100" points="707.0,79.0 707.0,115.0" stroke="#7F7F7F" stroke-width="1" /><polyline fill="none" opacity="100" points="711.0,79.0 711.0,115.0" stroke="#7F7F7F" stroke-width="1" /><polyline fill="none" opacity="100" points="715.0,79.0 715.0,115.0" stroke="#7F7F7F" stroke-width="1" /><polyline fill="none" opacity="100" points="719.0,79.0 719.0,115.0" stroke="#7F7F7F" stroke-width="1" /><polyline fill="none" opacity="100" points="723.0,79.0 723.0,115.0" stroke="#7F7F7F" stroke-width="1" /><polyline fill="none" opacity="100" points="727.0,79.0 727.0,115.0" stroke="#7F7F7F" stroke-width="1" /><polyline fill="none" opacity="100" points="731.0,79.0 731.0,115.0" stroke="#7F7F7F" stroke-width="1" /><polyline fill="none" opacity="100" points="735.0,79.0 735.0,115.0" stroke="#7F7F7F" stroke-width="1" /><polygon fill="#9B5509" opacity="100" points="660.0,115.0 743.0,115.0 743.0,118.0 660.0,118.0" stroke="#000" stroke-width="1" /><polygon fill="#9B5509" opacity="100" points="660.0,99.0 660.0,95.0 743.0,95.0 743.0,99.0" stroke="#000" stroke-width="1" /><polygon fill="#9B5509" opacity="100" points="660.0,109.0 660.0,105.0 743.0,105.0 743.0,109.0" stroke="#000" stroke-width="1" /><polygon fill="#9B5509" opacity="100" points="660.0,89.0 660.0,85.0 743.0,85.0 743.0,89.0" stroke="#000" stroke-width="1" /><polygon fill="#9B5509" opacity="100" points="660.0,79.0 743.0,79.0 743.0,76.0 660.0,76.0" stroke="#000" stroke-width="1" /><polygon fill="#FFF" opacity="0.8" points="674.0,28.0 643.0,28.0 643.0,40.0 620.0,40.0 620.0,54.0 642.0,54.0 642.0,61.0 591.0,61.0 591.0,82.0 643.0,82.0 643.0,171.0 674.0,171.0" stroke="#FFF" stroke-width="1" /><polygon fill="#FFF" opacity="0.8" points="729.0,75.0 686.0,75.0 686.0,119.0 729.0,119.0" stroke="#FFF" stroke-width="1" /><polyline fill="none" opacity="1.0" points="743.0,76.0 751.0,76.0 751.0,73.0 729.0,73.0 729.0,121.0 751.0,121.0 751.0,118.0 743.0,118.0" stroke="#000" stroke-width="1" /><polyline fill="none" opacity="1.0" points="721.0,247.0 674.0,247.0 674.0,43.0 710.0,43.0 710.0,52.0 686.0,52.0 686.0,118.0 705.0,118.0 705.0,123.0 697.0,123.0 697.0,136.0 705.0,136.0 705.0,143.0 758.0,143.0 758.0,158.0 779.0,158.0 779.0,52.0 739.0,52.0 739.0,43.0 779.0,43.0 779.0,16.0 652.0,16.0 643.0,25.0 643.0,40.0 620.0,40.0" stroke="#000" stroke-width="1" /><polyline fill="none" opacity="1.0" points="721.0,261.0 681.0,261.0" stroke="#000" stroke-width="0.5" /><polyline fill="none" opacity="1.0" points="638.0,78.0 591.0,78.0" stroke="#000" stroke-width="0.5" /><polyline fill="none" opacity="1.0" points="721.0,265.0 628.0,265.0 628.0,247.0 643.0,247.0 643.0,82.0 591.0,82.0" stroke="#000" stroke-width="1" /><polyline fill="none" opacity="1.0" points="620.0,54.0 642.0,54.0 642.0,61.0 591.0,61.0" stroke="#000" stroke-width="1" /><polyline fill="none" opacity="1.0" points="729.0,73.0 724.0,73.0 724.0,53.0" stroke="#000" stroke-width="0.5" /><polyline fill="none" opacity="1.0" points="593.0,61.0 593.0,78.0" stroke="#000" stroke-width="1" /><polyline fill="none" opacity="1.0" points="597.0,61.0 597.0,78.0" stroke="#000" stroke-width="1" /><polyline fill="none" opacity="1.0" points="601.0,61.0 601.0,78.0" stroke="#000" stroke-width="1" /><polyline fill="none" opacity="1.0" points="605.0,61.0 605.0,78.0" stroke="#000" stroke-width="1" /><polyline fill="none" opacity="1.0" points="609.0,61.0 609.0,78.0" stroke="#000" stroke-width="1" /><polyline fill="none" opacity="1.0" points="613.0,61.0 613.0,78.0" stroke="#000" stroke-width="1" /><polyline fill="none" opacity="1.0" points="617.0,61.0 617.0,78.0" stroke="#000" stroke-width="1" /><polyline fill="none" opacity="1.0" points="621.0,61.0 621.0,78.0" stroke="#000" stroke-width="1" /><polyline fill="none" opacity="1.0" points="625.0,61.0 625.0,78.0" stroke="#000" stroke-width="1" /><polyline fill="none" opacity="1.0" points="629.0,61.0 629.0,78.0" stroke="#000" stroke-width="1" /><polyline fill="none" opacity="1.0" points="633.0,61.0 633.0,78.0" stroke="#000" stroke-width="1" /><polyline fill="none" opacity="1.0" points="637.0,61.0 637.0,78.0" stroke="#000" stroke-width="1" /><polyline fill="none" opacity="1.0" points="719.0,261.0 719.0,247.0" stroke="#000" stroke-width="1" /><polyline fill="none" opacity="1.0" points="715.0,261.0 715.0,247.0" stroke="#000" stroke-width="1" /><polyline fill="none" opacity="1.0" points="711.0,261.0 711.0,247.0" stroke="#000" stroke-width="1" /><polyline fill="none" opacity="1.0" points="707.0,261.0 707.0,247.0" stroke="#000" stroke-width="1" /><polyline fill="none" opacity="1.0" points="703.0,261.0 703.0,247.0" stroke="#000" stroke-width="1" /><polyline fill="none" opacity="1.0" points="699.0,261.0 699.0,247.0" stroke="#000" stroke-width="1" /><polyline fill="none" opacity="1.0" points="695.0,261.0 695.0,247.0" stroke="#000" stroke-width="1" /><polyline fill="none" opacity="1.0" points="691.0,261.0 691.0,247.0" stroke="#000" stroke-width="1" /><polyline fill="none" opacity="1.0" points="687.0,261.0 687.0,247.0" stroke="#000" stroke-width="1" /><polyline fill="none" opacity="1.0" points="683.0,261.0 683.0,247.0" stroke="#000" stroke-width="1" /><polyline fill="none" opacity="1.0" points="591.0,83.0 642.0,83.0 642.0,167.0" stroke="#888" stroke-width="1" /><polyline fill="none" opacity="1.0" points="591.0,60.0 641.0,60.0 641.0,55.0 604.0,55.0 604.0,39.0 642.0,39.0 642.0,27.0" stroke="#888" stroke-width="1" /><polyline fill="none" opacity="1.0" points="675.0,137.0 675.0,44.0 709.0,44.0 709.0,51.0 685.0,51.0 685.0,83.0 676.0,83.0 676.0,110.0 685.0,110.0 685.0,119.0 704.0,119.0" stroke="#888" stroke-width="1" /><polyline fill="none" opacity="1.0" points="730.0,74.0 730.0,120.0" stroke="#888" stroke-width="1" /><polygon fill="#D0EFFF" opacity="1.0" points="683.0,136.0 683.0,123.0 697.0,123.0 697.0,136.0" stroke="#000" stroke-width="1" /><text fill="#000" font-family="Arial" font-size="6" font-weight="normal" opacity="1.0" transform="rotate(-0.0 684.0,127.0) translate(0 6)" x="684.0" y="127.0">лифт</text><polygon fill="#D0EFFF" opacity="1.0" points="628.0,279.0 628.0,265.0 643.0,265.0 643.0,279.0" stroke="#000" stroke-width="1" /><text fill="#000" font-family="Arial" font-size="6" font-weight="normal" opacity="1.0" transform="rotate(-0.0 629.0,269.0) translate(0 6)" x="629.0" y="269.0">лифт</text><polygon fill="#D0EFFF" opacity="1.0" points="605.0,54.0 605.0,40.0 620.0,40.0 620.0,54.0" stroke="#000" stroke-width="1" /><text fill="#000" font-family="Arial" font-size="6" font-weight="normal" opacity="1.0" transform="rotate(-0.0 606.0,44.0) translate(0 6)" x="606.0" y="44.0">лифт</text><polygon fill="#FFF" opacity="1.0" points="677.0,84.0 686.0,84.0 686.0,109.0 677.0,109.0" stroke="#000" stroke-width="1" /><text fill="#FFF" font-family="Arial" font-size="10" font-weight="normal" opacity="1.0" transform="rotate(-90.0 675.0,109.0) translate(0 10)" x="675.0" y="109.0">кассы</text><polyline fill="none" opacity="1.0" points="707.0,117.0 707.0,121.0" stroke="#090" stroke-width="1" /><polyline fill="none" opacity="1.0" points="711.0,117.0 711.0,121.0" stroke="#090" stroke-width="1" /><polyline fill="none" opacity="1.0" points="715.0,117.0 715.0,121.0" stroke="#090" stroke-width="1" /><polyline fill="none" opacity="1.0" points="719.0,117.0 719.0,121.0" stroke="#090" stroke-width="1" /><polyline fill="none" opacity="1.0" points="723.0,117.0 723.0,121.0" stroke="#090" stroke-width="1" /><polyline fill="none" opacity="1.0" points="727.0,117.0 727.0,121.0" stroke="#090" stroke-width="1" /><polyline fill="none" opacity="1.0" points="743.0,55.0 739.0,55.0" stroke="#F00" stroke-width="1" /><polyline fill="none" opacity="1.0" points="743.0,59.0 739.0,59.0" stroke="#F00" stroke-width="1" /><polyline fill="none" opacity="1.0" points="743.0,63.0 739.0,63.0" stroke="#F00" stroke-width="1" /><polyline fill="none" opacity="1.0" points="743.0,67.0 739.0,67.0" stroke="#F00" stroke-width="1" /><polyline fill="none" opacity="1.0" points="743.0,71.0 739.0,71.0" stroke="#F00" stroke-width="1" /><polyline fill="none" opacity="1.0" points="765.0,81.0 770.0,81.0 770.0,65.0 757.0,65.0" stroke="#F00" stroke-width="1" /><polygon fill="#F00" opacity="1.0" points="760.7671,63.9906 757.0,65.0 760.7671,66.0094" stroke="#F00" stroke-width="1" /><polyline fill="none" opacity="1.0" points="712.0,68.0 712.0,86.0" stroke="#090" stroke-width="1" /><polygon fill="#090" opacity="1.0" points="710.6024,80.784 712.0,86.0 713.3976,80.784" stroke="#090" stroke-width="1" /><polyline fill="none" opacity="1.0" points="765.0,131.0 770.0,131.0 770.0,113.0 758.0,113.0" stroke="#090" stroke-width="1" /><polygon fill="#090" opacity="1.0" points="761.4773,112.0683 758.0,113.0 761.4773,113.9317" stroke="#090" stroke-width="1" /><text fill="#00AFAF" font-family="Arial" font-size="15" font-weight="normal" opacity="1.0" transform="rotate(-0.0 689.0,183.0) translate(0 15)" x="689.0" y="183.0">проспект маршала Жукова</text><text fill="#00AFAF" font-family="Arial" font-size="15" font-weight="normal" opacity="1.0" transform="rotate(-0.0 119.0,182.0) translate(0 15)" x="119.0" y="182.0">проспект маршала Жукова</text><text fill="#00AFAF" font-family="Arial" font-size="15" font-weight="normal" opacity="1.0" transform="rotate(-90.0 -123.0,136.0) translate(0 15)" x="-123.0" y="136.0">улица Народного Ополчения</text><text fill="#00AFAF" font-family="Arial" font-size="15" font-weight="normal" opacity="1.0" transform="rotate(15.0 59.0,384.0) translate(0 15)" x="59.0" y="384.0">улица Мнёвники</text><text fill="#FFD900" font-family="Arial" font-size="25" font-weight="normal" opacity="1.0" x="88.25" y="292.5">1</text><text fill="#FFD900" font-family="Arial" font-size="25" font-weight="normal" opacity="1.0" x="5.25" y="82.5">2</text><text fill="#FFD900" font-family="Arial" font-size="25" font-weight="normal" opacity="1.0" x="568.25" y="40.5">3</text><text fill="#FFD900" font-family="Arial" font-size="25" font-weight="normal" opacity="1.0" x="702.25" y="292.5">4</text></g></svg>