<?xml version="1.0" encoding="utf-8" ?>
<svg baseProfile="tiny" height="720px" version="1.2" width="1230px" xmlns="http://www.w3.org/2000/svg" xmlns:ev="http://www.w3.org/2001/xml-events" xmlns:xlink="http://www.w3.org/1999/xlink"><defs /><g><g transform="rotate(30.0,615.0,360.0)"><polygon fill="#FC9C54" opacity="100" points="242.0,499.0 242.0,469.0 692.0,469.0 692.0,499.0" stroke="#000" stroke-width="1" /><polygon fill="#FC9C54" opacity="100" points="692.0,389.0 692.0,359.0 242.0,359.0 242.0,389.0" stroke="#000" stroke-width="1" /><text fill="#F7782E" font-family="Arial" font-size="25" font-weight="bold" opacity="100" transform="rotate(-0.0 364.0,400.0) translate(0 25)" x="364.0" y="400.0">Новоясеневская</text><text fill="#F7782E" font-family="Arial" font-size="20" font-weight="normal" opacity="100" transform="rotate(-0.0 246.0,337.0) translate(0 20)" x="246.0" y="337.0">&lt;&lt; Ясенево</text><text fill="#F7782E" font-family="Arial" font-size="20" font-weight="normal" opacity="100" transform="rotate(-0.0 564.0,499.0) translate(0 20)" x="564.0" y="499.0">посадки нет &gt;&gt;</text><polyline fill="none" opacity="100" points="18.0,285.0 94.0,285.0 94.0,367.0 192.0,367.0 192.0,399.0 242.0,399.0 242.0,389.0" stroke="#000" stroke-width="1" /><polyline fill="none" opacity="100" points="142.0,497.0 94.0,510.0 94.0,490.0 192.0,490.0 192.0,459.0 242.0,459.0 242.0,469.0" stroke="#000" stroke-width="1" /><polyline fill="none" opacity="100" points="148.0,515.0 92.0,530.0 69.0,530.0 69.0,309.0 18.0,309.0" stroke="#000" stroke-width="1" /><polyline fill="none" opacity="100" points="196.0,399.0 196.0,459.0" stroke="#000" stroke-width="1" /><polyline fill="none" opacity="100" points="200.0,399.0 200.0,459.0" stroke="#000" stroke-width="1" /><polyline fill="none" opacity="100" points="204.0,399.0 204.0,459.0" stroke="#000" stroke-width="1" /><polyline fill="none" opacity="100" points="208.0,399.0 208.0,459.0" stroke="#000" stroke-width="1" /><polyline fill="none" opacity="100" points="212.0,399.0 212.0,459.0" stroke="#000" stroke-width="1" /><polyline fill="none" opacity="100" points="216.0,399.0 216.0,459.0" stroke="#000" stroke-width="1" /><polyline fill="none" opacity="100" points="220.0,399.0 220.0,459.0" stroke="#000" stroke-width="1" /><polyline fill="none" opacity="100" points="224.0,399.0 224.0,459.0" stroke="#000" stroke-width="1" /><polyline fill="none" opacity="100" points="228.0,399.0 228.0,459.0" stroke="#000" stroke-width="1" /><polyline fill="none" opacity="100" points="232.0,399.0 232.0,459.0" stroke="#000" stroke-width="1" /><polyline fill="none" opacity="100" points="236.0,399.0 236.0,459.0" stroke="#000" stroke-width="1" /><polyline fill="none" opacity="100" points="240.0,399.0 240.0,459.0" stroke="#000" stroke-width="1" /><polyline fill="none" opacity="100" points="97.0,509.0 103.0,527.0" stroke="#000" stroke-width="1" /><polyline fill="none" opacity="100" points="100.8649,507.9693 106.8649,525.9693" stroke="#000" stroke-width="1" /><polyline fill="none" opacity="100" points="104.7299,506.9387 110.7299,524.9387" stroke="#000" stroke-width="1" /><polyline fill="none" opacity="100" points="108.5948,505.908 114.5948,523.908" stroke="#000" stroke-width="1" /><polyline fill="none" opacity="100" points="112.4598,504.8774 118.4598,522.8774" stroke="#000" stroke-width="1" /><polyline fill="none" opacity="100" points="116.3247,503.8467 122.3247,521.8467" stroke="#000" stroke-width="1" /><polyline fill="none" opacity="100" points="120.1896,502.8161 126.1896,520.8161" stroke="#000" stroke-width="1" /><polyline fill="none" opacity="100" points="124.0546,501.7854 130.0546,519.7854" stroke="#000" stroke-width="1" /><polyline fill="none" opacity="100" points="127.9195,500.7548 133.9195,518.7548" stroke="#000" stroke-width="1" /><polyline fill="none" opacity="100" points="131.7845,499.7241 137.7845,517.7241" stroke="#000" stroke-width="1" /><polyline fill="none" opacity="100" points="135.6494,498.6935 141.6494,516.6935" stroke="#000" stroke-width="1" /><polyline fill="none" opacity="100" points="139.5143,497.6628 145.5143,515.6628" stroke="#000" stroke-width="1" /><polyline fill="none" opacity="100" points="21.0,285.0 21.0,309.0" stroke="#000" stroke-width="1" /><polyline fill="none" opacity="100" points="25.0,285.0 25.0,309.0" stroke="#000" stroke-width="1" /><polyline fill="none" opacity="100" points="29.0,285.0 29.0,309.0" stroke="#000" stroke-width="1" /><polyline fill="none" opacity="100" points="33.0,285.0 33.0,309.0" stroke="#000" stroke-width="1" /><polyline fill="none" opacity="100" points="37.0,285.0 37.0,309.0" stroke="#000" stroke-width="1" /><polyline fill="none" opacity="100" points="41.0,285.0 41.0,309.0" stroke="#000" stroke-width="1" /><polyline fill="none" opacity="100" points="45.0,285.0 45.0,309.0" stroke="#000" stroke-width="1" /><polyline fill="none" opacity="100" points="49.0,285.0 49.0,309.0" stroke="#000" stroke-width="1" /><polyline fill="none" opacity="100" points="53.0,285.0 53.0,309.0" stroke="#000" stroke-width="1" /><polyline fill="none" opacity="100" points="57.0,285.0 57.0,309.0" stroke="#000" stroke-width="1" /><polyline fill="none" opacity="100" points="69.0,313.0 94.0,313.0" stroke="#000" stroke-width="1" /><polyline fill="none" opacity="100" points="69.0,317.0 94.0,317.0" stroke="#000" stroke-width="1" /><polyline fill="none" opacity="100" points="69.0,321.0 94.0,321.0" stroke="#000" stroke-width="1" /><polyline fill="none" opacity="100" points="69.0,325.0 94.0,325.0" stroke="#000" stroke-width="1" /><polyline fill="none" opacity="100" points="69.0,329.0 94.0,329.0" stroke="#000" stroke-width="1" /><polyline fill="none" opacity="100" points="69.0,333.0 94.0,333.0" stroke="#000" stroke-width="1" /><polygon fill="#D0D0D0" opacity="100" points="104.0,400.0 95.0,400.0 95.0,457.0 104.0,457.0" stroke="#000" stroke-width="1" /><polyline fill="none" opacity="100" points="192.0,461.0 201.0,461.0 201.0,488.0 192.0,488.0" stroke="#000" stroke-width="1" /><text fill="#FFF" font-family="Arial" font-size="10" font-weight="normal" opacity="100" transform="rotate(-90.0 190.0,487.0) translate(0 10)" x="190.0" y="487.0">кассы</text><polygon fill="none" opacity="100" points="143.0,414.0 139.0,418.0 135.0,414.0 139.0,410.0" stroke="#000" stroke-width="1" /><polyline fill="none" opacity="100" points="146.0,417.0 142.0,421.0" stroke="#090" stroke-width="1" /><polyline fill="none" opacity="100" points="148.8934,419.7619 144.8934,423.7619" stroke="#090" stroke-width="1" /><polyline fill="none" opacity="100" points="151.7868,422.5238 147.7868,426.5238" stroke="#090" stroke-width="1" /><polyline fill="none" opacity="100" points="154.6803,425.2857 150.6803,429.2857" stroke="#090" stroke-width="1" /><polyline fill="none" opacity="100" points="157.5737,428.0476 153.5737,432.0476" stroke="#090" stroke-width="1" /><polyline fill="none" opacity="100" points="160.4671,430.8095 156.4671,434.8095" stroke="#090" stroke-width="1" /><polyline fill="none" opacity="100" points="163.3605,433.5714 159.3605,437.5714" stroke="#090" stroke-width="1" /><polyline fill="none" opacity="100" points="166.254,436.3333 162.254,440.3333" stroke="#090" stroke-width="1" /><polyline fill="none" opacity="100" points="169.1474,439.0952 165.1474,443.0952" stroke="#090" stroke-width="1" /><polyline fill="none" opacity="100" points="172.0408,441.8571 168.0408,445.8571" stroke="#090" stroke-width="1" /><polyline fill="none" opacity="100" points="174.9342,444.619 170.9342,448.619" stroke="#090" stroke-width="1" /><polyline fill="none" opacity="100" points="177.8276,447.3809 173.8276,451.3809" stroke="#090" stroke-width="1" /><polyline fill="none" opacity="100" points="180.7211,450.1428 176.7211,454.1428" stroke="#090" stroke-width="1" /><polyline fill="none" opacity="100" points="183.6145,452.9047 179.6145,456.9047" stroke="#090" stroke-width="1" /><polyline fill="none" opacity="100" points="186.5079,455.6666 182.5079,459.6666" stroke="#090" stroke-width="1" /><polyline fill="none" opacity="100" points="189.4013,458.4285 185.4013,462.4285" stroke="#090" stroke-width="1" /><polyline fill="none" opacity="100" points="141.0,371.0 136.0,371.0" stroke="#F00" stroke-width="1" /><polyline fill="none" opacity="100" points="141.1081,374.9985 136.1081,374.9985" stroke="#F00" stroke-width="1" /><polyline fill="none" opacity="100" points="141.2161,378.9971 136.2161,378.9971" stroke="#F00" stroke-width="1" /><polyline fill="none" opacity="100" points="141.3242,382.9956 136.3242,382.9956" stroke="#F00" stroke-width="1" /><polyline fill="none" opacity="100" points="141.4323,386.9942 136.4323,386.9942" stroke="#F00" stroke-width="1" /><polyline fill="none" opacity="100" points="141.5403,390.9927 136.5403,390.9927" stroke="#F00" stroke-width="1" /><polyline fill="none" opacity="100" points="141.6484,394.9912 136.6484,394.9912" stroke="#F00" stroke-width="1" /><polyline fill="none" opacity="100" points="141.7565,398.9898 136.7565,398.9898" stroke="#F00" stroke-width="1" /><polyline fill="none" opacity="100" points="141.8645,402.9883 136.8645,402.9883" stroke="#F00" stroke-width="1" /><polyline fill="none" opacity="100" points="141.9726,406.9869 136.9726,406.9869" stroke="#F00" stroke-width="1" /><polyline fill="none" opacity="100" points="112.0,383.0 100.0,383.0" stroke="#F00" stroke-width="1" /><polygon fill="#F00" opacity="100" points="103.4773,382.0683 100.0,383.0 103.4773,383.9317" stroke="#F00" stroke-width="1" /><polyline fill="none" opacity="100" points="100.0,473.0 112.0,473.0" stroke="#090" stroke-width="1" /><polygon fill="#090" opacity="100" points="108.5227,473.9317 112.0,473.0 108.5227,472.0683" stroke="#090" stroke-width="1" /><polygon fill="#34349C" opacity="100" points="452.0,431.0 452.0,441.0 451.0,441.0 451.0,431.0" stroke="#34349C" stroke-width="1" /><polygon fill="#34349C" opacity="100" points="108.0,411.0 108.0,406.0 106.0,406.0 106.0,411.0" stroke="#34349C" stroke-width="1" /><polygon fill="#F00" opacity="100" points="452.0,436.0 452.0,431.0 451.0,431.0 451.0,436.0" stroke="#F00" stroke-width="1" /><polygon fill="#F00" opacity="100" points="108.0,416.0 108.0,411.0 106.0,411.0 106.0,416.0" stroke="#F00" stroke-width="1" /><polygon fill="#8CBCFC" opacity="100" points="1197.0,278.0 1197.0,308.0 748.0,308.0 748.0,278.0" stroke="#000" stroke-width="1" /><polygon fill="#8CBCFC" opacity="100" points="1197.0,168.0 1197.0,198.0 748.0,198.0 748.0,168.0" stroke="#000" stroke-width="1" /><text fill="#2D69FC" font-family="Arial" font-size="25" font-weight="normal" opacity="100" transform="rotate(-0.0 889.0,128.0) translate(0 25)" x="889.0" y="128.0">Битцевский парк</text><text fill="#2D69FC" font-family="Arial" font-size="20" font-weight="normal" opacity="100" transform="rotate(-0.0 748.0,144.0) translate(0 20)" x="748.0" y="144.0">&lt;&lt; посадки нет</text><text fill="#2D69FC" font-family="Arial" font-size="20" font-weight="normal" opacity="100" transform="rotate(-0.0 1122.0,308.0) translate(0 20)" x="1122.0" y="308.0">Лесопарковая &gt;&gt;</text><polyline fill="none" opacity="100" points="1197.0,198.0 1197.0,278.0" stroke="#000" stroke-width="1" /><polyline fill="none" opacity="100" points="1044.0,225.0 1169.0,225.0" stroke="#000" stroke-width="1" /><polyline fill="none" opacity="100" points="780.0,263.0 748.0,263.0 748.0,278.0" stroke="#000" stroke-width="1" /><polygon fill="#FFF" opacity="0.85" points="1094.0,309.0 1094.0,277.0 1118.0,277.0 1119.0,309.0" stroke="#FFF" stroke-width="1" /><polygon fill="#FFF" opacity="0.85" points="754.0,262.0 780.0,262.0 780.0,309.0 754.0,309.0" stroke="#FFF" stroke-width="1" /><polygon fill="#D0D0D0" opacity="1.0" points="830.0,400.0 821.0,400.0 821.0,458.0 830.0,458.0" stroke="#000" stroke-width="1" /><polygon fill="#D0D0D0" opacity="1.0" points="780.0,258.0 780.0,263.0 830.0,263.0 830.0,258.0" stroke="#000" stroke-width="1" /><polyline fill="none" opacity="1.0" points="922.0,311.0 830.0,311.0 830.0,348.0 820.0,348.0" stroke="#000" stroke-width="1" /><polyline fill="none" opacity="1.0" points="820.0,362.0 830.0,362.0 830.0,371.0 821.0,371.0 821.0,367.0 780.0,367.0 780.0,263.0" stroke="#000" stroke-width="1" /><polyline fill="none" opacity="1.0" points="748.0,198.0 748.0,212.0 830.0,212.0 830.0,217.0 754.0,217.0 754.0,367.0 743.0,367.0 743.0,399.0 692.0,399.0 692.0,389.0" stroke="#000" stroke-width="1" /><polyline fill="none" opacity="1.0" points="1169.0,249.0 1119.0,249.0 1119.0,334.0 1038.0,334.0" stroke="#000" stroke-width="1" /><polyline fill="none" opacity="1.0" points="908.0,334.0 854.0,334.0 854.0,490.0 830.0,490.0 830.0,486.0 821.0,486.0 821.0,490.0 743.0,490.0 743.0,459.0 692.0,459.0 692.0,469.0" stroke="#000" stroke-width="1" /><polyline fill="none" opacity="1.0" points="1023.0,311.0 1094.0,311.0 1094.0,249.0 1044.0,249.0" stroke="#000" stroke-width="1" /><polyline fill="none" opacity="1.0" points="743.0,452.0 692.0,452.0" stroke="#000" stroke-width="0.5" /><polyline fill="none" opacity="1.0" points="1167.0,249.0 1167.0,225.0" stroke="#000" stroke-width="1" /><polyline fill="none" opacity="1.0" points="1163.0,249.0 1163.0,225.0" stroke="#000" stroke-width="1" /><polyline fill="none" opacity="1.0" points="1159.0,249.0 1159.0,225.0" stroke="#000" stroke-width="1" /><polyline fill="none" opacity="1.0" points="1155.0,249.0 1155.0,225.0" stroke="#000" stroke-width="1" /><polyline fill="none" opacity="1.0" points="1151.0,249.0 1151.0,225.0" stroke="#000" stroke-width="1" /><polyline fill="none" opacity="1.0" points="1147.0,249.0 1147.0,225.0" stroke="#000" stroke-width="1" /><polyline fill="none" opacity="1.0" points="1143.0,249.0 1143.0,225.0" stroke="#000" stroke-width="1" /><polyline fill="none" opacity="1.0" points="1139.0,249.0 1139.0,225.0" stroke="#000" stroke-width="1" /><polyline fill="none" opacity="1.0" points="1135.0,249.0 1135.0,225.0" stroke="#000" stroke-width="1" /><polyline fill="none" opacity="1.0" points="1131.0,249.0 1131.0,225.0" stroke="#000" stroke-width="1" /><polyline fill="none" opacity="1.0" points="1127.0,249.0 1127.0,225.0" stroke="#000" stroke-width="1" /><polyline fill="none" opacity="1.0" points="1123.0,249.0 1123.0,225.0" stroke="#000" stroke-width="1" /><polyline fill="none" opacity="1.0" points="1046.0,249.0 1046.0,225.0" stroke="#000" stroke-width="1" /><polyline fill="none" opacity="1.0" points="1050.0,249.0 1050.0,225.0" stroke="#000" stroke-width="1" /><polyline fill="none" opacity="1.0" points="1054.0,249.0 1054.0,225.0" stroke="#000" stroke-width="1" /><polyline fill="none" opacity="1.0" points="1058.0,249.0 1058.0,225.0" stroke="#000" stroke-width="1" /><polyline fill="none" opacity="1.0" points="1062.0,249.0 1062.0,225.0" stroke="#000" stroke-width="1" /><polyline fill="none" opacity="1.0" points="1066.0,249.0 1066.0,225.0" stroke="#000" stroke-width="1" /><polyline fill="none" opacity="1.0" points="1070.0,249.0 1070.0,225.0" stroke="#000" stroke-width="1" /><polyline fill="none" opacity="1.0" points="1074.0,249.0 1074.0,225.0" stroke="#000" stroke-width="1" /><polyline fill="none" opacity="1.0" points="1078.0,249.0 1078.0,225.0" stroke="#000" stroke-width="1" /><polyline fill="none" opacity="1.0" points="1082.0,249.0 1082.0,225.0" stroke="#000" stroke-width="1" /><polyline fill="none" opacity="1.0" points="1086.0,249.0 1086.0,225.0" stroke="#000" stroke-width="1" /><polyline fill="none" opacity="1.0" points="1090.0,249.0 1090.0,225.0" stroke="#000" stroke-width="1" /><polyline fill="none" opacity="1.0" points="740.0,399.0 740.0,452.0" stroke="#000" stroke-width="1" /><polyline fill="none" opacity="1.0" points="736.0,399.0 736.0,452.0" stroke="#000" stroke-width="1" /><polyline fill="none" opacity="1.0" points="732.0,399.0 732.0,452.0" stroke="#000" stroke-width="1" /><polyline fill="none" opacity="1.0" points="728.0,399.0 728.0,452.0" stroke="#000" stroke-width="1" /><polyline fill="none" opacity="1.0" points="724.0,399.0 724.0,452.0" stroke="#000" stroke-width="1" /><polyline fill="none" opacity="1.0" points="720.0,399.0 720.0,452.0" stroke="#000" stroke-width="1" /><polyline fill="none" opacity="1.0" points="716.0,399.0 716.0,452.0" stroke="#000" stroke-width="1" /><polyline fill="none" opacity="1.0" points="712.0,399.0 712.0,452.0" stroke="#000" stroke-width="1" /><polyline fill="none" opacity="1.0" points="708.0,399.0 708.0,452.0" stroke="#000" stroke-width="1" /><polyline fill="none" opacity="1.0" points="704.0,399.0 704.0,452.0" stroke="#000" stroke-width="1" /><polyline fill="none" opacity="1.0" points="700.0,399.0 700.0,452.0" stroke="#000" stroke-width="1" /><polyline fill="none" opacity="1.0" points="696.0,399.0 696.0,452.0" stroke="#000" stroke-width="1" /><polyline fill="none" opacity="1.0" points="828.0,258.0 828.0,217.0" stroke="#000" stroke-width="1" /><polyline fill="none" opacity="1.0" points="824.0,258.0 824.0,217.0" stroke="#000" stroke-width="1" /><polyline fill="none" opacity="1.0" points="820.0,258.0 820.0,217.0" stroke="#000" stroke-width="1" /><polyline fill="none" opacity="1.0" points="816.0,258.0 816.0,217.0" stroke="#000" stroke-width="1" /><polyline fill="none" opacity="1.0" points="812.0,258.0 812.0,217.0" stroke="#000" stroke-width="1" /><polyline fill="none" opacity="1.0" points="808.0,258.0 808.0,217.0" stroke="#000" stroke-width="1" /><polyline fill="none" opacity="1.0" points="804.0,258.0 804.0,217.0" stroke="#000" stroke-width="1" /><polyline fill="none" opacity="1.0" points="800.0,258.0 800.0,217.0" stroke="#000" stroke-width="1" /><polyline fill="none" opacity="1.0" points="796.0,258.0 796.0,217.0" stroke="#000" stroke-width="1" /><polyline fill="none" opacity="1.0" points="792.0,258.0 792.0,217.0" stroke="#000" stroke-width="1" /><polyline fill="none" opacity="1.0" points="788.0,258.0 788.0,217.0" stroke="#000" stroke-width="1" /><polyline fill="none" opacity="1.0" points="784.0,258.0 784.0,217.0" stroke="#000" stroke-width="1" /><polyline fill="none" opacity="1.0" points="1040.0,311.0 1040.0,334.0" stroke="#000" stroke-width="1" /><polyline fill="none" opacity="1.0" points="1044.0,311.0 1044.0,334.0" stroke="#000" stroke-width="1" /><polyline fill="none" opacity="1.0" points="1048.0,311.0 1048.0,334.0" stroke="#000" stroke-width="1" /><polyline fill="none" opacity="1.0" points="1052.0,311.0 1052.0,334.0" stroke="#000" stroke-width="1" /><polyline fill="none" opacity="1.0" points="1056.0,311.0 1056.0,334.0" stroke="#000" stroke-width="1" /><polyline fill="none" opacity="1.0" points="1060.0,311.0 1060.0,334.0" stroke="#000" stroke-width="1" /><polyline fill="none" opacity="1.0" points="906.0,311.0 906.0,334.0" stroke="#000" stroke-width="1" /><polyline fill="none" opacity="1.0" points="902.0,311.0 902.0,334.0" stroke="#000" stroke-width="1" /><polyline fill="none" opacity="1.0" points="898.0,311.0 898.0,334.0" stroke="#000" stroke-width="1" /><polyline fill="none" opacity="1.0" points="894.0,311.0 894.0,334.0" stroke="#000" stroke-width="1" /><polyline fill="none" opacity="1.0" points="890.0,311.0 890.0,334.0" stroke="#000" stroke-width="1" /><polyline fill="none" opacity="1.0" points="886.0,311.0 886.0,334.0" stroke="#000" stroke-width="1" /><polyline fill="none" opacity="1.0" points="830.0,336.0 854.0,336.0" stroke="#000" stroke-width="1" /><polyline fill="none" opacity="1.0" points="830.0,340.0 854.0,340.0" stroke="#000" stroke-width="1" /><polyline fill="none" opacity="1.0" points="830.0,344.0 854.0,344.0" stroke="#000" stroke-width="1" /><ellipse cx="974.0" cy="254.5" fill="#FEFBF1" opacity="0.85" rx="142.0" ry="-100.5" stroke="#DFDFDF" stroke-width="1" /><polygon fill="#D0D0D0" opacity="0.85" points="875.0,181.0 984.0,181.0 984.0,153.0 956.0,154.0 928.0,158.0 901.0,167.0" stroke="#D0D0D0" stroke-width="1" /><polygon fill="#D0D0D0" opacity="0.85" points="1014.0,181.0 1014.0,157.0 1039.0,164.0 1064.0,176.0 1087.0,194.0 1100.0,209.0 1110.0,228.0 1114.0,249.0 1113.0,271.0 1105.0,291.0 1092.0,310.0 1073.0,327.0 1049.0,340.0 1012.0,351.0 970.0,355.0 934.0,351.0 897.0,340.0 875.0,327.0 856.0,310.0 844.0,295.0 835.0,273.0 832.0,247.0 840.0,221.0 904.0,221.0 904.0,337.0 1042.0,337.0 1042.0,220.0 1050.0,220.0 1050.0,193.0 1042.0,193.0 1042.0,181.0" stroke="#D0D0D0" stroke-width="1" /><polyline fill="none" opacity="0.85" points="875.0,181.0 878.1953,178.9766 881.4062,177.0312 884.6328,175.1641 887.875,173.375 891.1328,171.6641 894.4062,170.0312 897.6953,168.4766 901.0,167.0 904.3203,165.6016 907.6562,164.2812 911.0081,163.0396 914.375,161.875 917.7556,160.7847 921.1523,159.7734 924.5659,158.8428 928.0,158.0 931.4614,157.2588 934.9414,156.6016 938.4341,156.0166 941.9375,155.5 945.4487,155.0459 948.9648,154.6484 952.4839,154.3037 956.0,154.0 959.5044,153.7197 963.0039,153.4766 966.5022,153.2778 970.0,153.125 973.4998,153.0229 977.0,152.9688 980.5,152.9609 984.0,153.0" stroke="#000" stroke-width="1" /><polyline fill="none" opacity="0.85" points="840.0,221.0 838.3984,224.1953 836.9688,227.4062 835.7122,230.6345 834.625,233.875 833.7,237.1174 832.9492,240.3789 832.3765,243.6646 832.0,247.0 831.854,250.4331 831.8945,253.9023 832.093,257.3667 832.4375,260.8125 832.9089,264.2192 833.5,267.5664 834.2031,270.8403 835.0,274.0 835.8672,276.9839 836.8125,279.8398 837.8357,282.5916 838.9375,285.25 840.1272,287.844 841.3789,290.3438 842.6802,292.7383 844.0,295.0 845.2847,297.0742 846.5898,299.0312 847.9509,300.9194 849.375,302.75 850.8752,304.5376 852.4688,306.3203 854.1641,308.1182 856.0,310.0 858.0391,312.0771 860.2188,314.2422 862.498,316.4302 864.875,318.625 867.3457,320.7925 869.875,322.9219 872.4492,325.0059 875.0,327.0 877.4102,328.8379 879.8125,330.5781 882.2959,332.2556 884.875,333.875 887.5713,335.4495 890.4531,336.9883 893.5527,338.4946 897.0,340.0 901.0098,341.5562 905.3594,343.1055 909.9094,344.6116 914.625,346.0625 919.4402,347.4373 924.3086,348.7266 929.2026,349.9229 934.0,351.0 938.5122,351.9209 942.9102,352.7109 947.2961,353.3823 951.6875,353.9375 956.1277,354.3872 960.6406,354.7188 965.2363,354.9258 970.0,355.0 975.0684,354.9258 980.2969,354.7188 985.5974,354.3872 990.9375,353.9375 996.2561,353.3823 1001.5508,352.7109 1006.811,351.9209 1012.0,351.0 1017.0757,349.9229 1022.043,348.7266 1026.8933,347.4373 1031.625,346.0625 1036.2532,344.6116 1040.7188,343.1055 1044.9922,341.5562 1049.0,340.0 1052.6172,338.4946 1055.9688,336.9883 1059.1311,335.4504 1062.125,333.875 1064.9919,332.2468 1067.7461,330.5625 1070.3979,328.8203 1073.0,327.0 1075.6294,325.0703 1078.2227,323.0625 1080.7444,320.9954 1083.1875,318.875 1085.531,316.7136 1087.7812,314.5117 1089.9414,312.271 1092.0,310.0 1093.9414,307.7095 1095.7812,305.3945 1097.5295,303.054 1099.1875,300.6875 1100.7576,298.2917 1102.2461,295.875 1103.6558,293.4414 1105.0,291.0 1106.3013,288.5664 1107.5352,286.125 1108.6858,283.6655 1109.75,281.1875 1110.7224,278.6899 1111.5938,276.1641 1112.3594,273.6064 1113.0,271.0 1113.4844,268.3154 1113.8438,265.5859 1114.0974,262.8325 1114.25,260.0625 1114.3108,257.2886 1114.2852,254.5156 1114.1763,251.748 1114.0,249.0 1113.7808,246.291 1113.4961,243.6094 1113.1321,240.9495 1112.6875,238.3125 1112.1589,235.697 1111.5391,233.1055 1110.8252,230.5405 1110.0,228.0 1109.0342,225.479 1107.9609,222.9883 1106.8032,220.5376 1105.5625,218.125 1104.2397,215.7437 1102.8594,213.418 1101.4316,211.1577 1100.0,209.0 1098.6387,207.0103 1097.2656,205.1133 1095.8269,203.2585 1094.3125,201.4375 1092.7063,199.6379 1090.9727,197.8203 1089.0942,195.9658 1087.0,194.0 1084.5737,191.7998 1081.9336,189.4922 1079.1516,187.1558 1076.25,184.8125 1073.2722,182.5044 1070.2266,180.25 1067.1221,178.0625 1064.0,176.0 1060.917,174.1484 1057.8359,172.4375 1054.7393,170.8284 1051.625,169.3125 1048.4795,167.865 1045.3203,166.4961 1042.1572,165.2104 1039.0,164.0 1035.8662,162.856 1032.7422,161.7852 1029.6206,160.7913 1026.5,159.875 1023.3755,159.0388 1020.25,158.2812 1017.125,157.6016 1014.0,157.0" stroke="#000" stroke-width="1" /><polyline fill="none" opacity="0.85" points="840.0,221.0 904.0,221.0 904.0,337.0 1042.0,337.0 1042.0,181.0 1014.0,181.0 1014.0,157.0" stroke="#000" stroke-width="1" /><polyline fill="none" opacity="0.85" points="984.0,153.0 984.0,181.0 875.0,181.0" stroke="#000" stroke-width="1" /><polyline fill="none" opacity="0.85" points="1014.0,334.0 1038.0,334.0 1038.0,311.0 1014.0,311.0" stroke="#000" stroke-width="1" /><polyline fill="none" opacity="0.85" points="932.0,334.0 908.0,334.0 908.0,311.0 932.0,311.0" stroke="#000" stroke-width="1" /><polyline fill="none" opacity="0.85" points="1016.0,334.0 1016.0,311.0" stroke="#000" stroke-width="1" /><polyline fill="none" opacity="0.85" points="1020.0,334.0 1020.0,311.0" stroke="#000" stroke-width="1" /><polyline fill="none" opacity="0.85" points="1024.0,334.0 1024.0,311.0" stroke="#000" stroke-width="1" /><polyline fill="none" opacity="0.85" points="1028.0,334.0 1028.0,311.0" stroke="#000" stroke-width="1" /><polyline fill="none" opacity="0.85" points="1032.0,334.0 1032.0,311.0" stroke="#000" stroke-width="1" /><polyline fill="none" opacity="0.85" points="1036.0,334.0 1036.0,311.0" stroke="#000" stroke-width="1" /><polyline fill="none" opacity="0.85" points="930.0,334.0 930.0,311.0" stroke="#000" stroke-width="1" /><polyline fill="none" opacity="0.85" points="926.0,334.0 926.0,311.0" stroke="#000" stroke-width="1" /><polyline fill="none" opacity="0.85" points="922.0,334.0 922.0,311.0" stroke="#000" stroke-width="1" /><polyline fill="none" opacity="0.85" points="918.0,334.0 918.0,311.0" stroke="#000" stroke-width="1" /><polyline fill="none" opacity="0.85" points="914.0,334.0 914.0,311.0" stroke="#000" stroke-width="1" /><polyline fill="none" opacity="0.85" points="910.0,334.0 910.0,311.0" stroke="#000" stroke-width="1" /><polyline fill="none" opacity="0.85" points="1042.0,193.0 1050.0,193.0 1050.0,220.0 1042.0,220.0" stroke="#000" stroke-width="1" /><text fill="#FFF" font-family="Arial" font-size="10" font-weight="normal" opacity="0.85" transform="rotate(-90.0 1039.0,219.0) translate(0 10)" x="1039.0" y="219.0">кассы</text><polyline fill="none" opacity="0.85" points="982.0,237.0 982.0,244.0" stroke="#090" stroke-width="1" /><polyline fill="none" opacity="0.85" points="986.0,237.0 986.0,244.0" stroke="#090" stroke-width="1" /><polyline fill="none" opacity="0.85" points="990.0,237.0 990.0,244.0" stroke="#090" stroke-width="1" /><polyline fill="none" opacity="0.85" points="994.0,237.0 994.0,244.0" stroke="#090" stroke-width="1" /><polyline fill="none" opacity="0.85" points="998.0,237.0 998.0,244.0" stroke="#090" stroke-width="1" /><polyline fill="none" opacity="0.85" points="1002.0,237.0 1002.0,244.0" stroke="#090" stroke-width="1" /><polyline fill="none" opacity="0.85" points="1006.0,237.0 1006.0,244.0" stroke="#090" stroke-width="1" /><polyline fill="none" opacity="0.85" points="1010.0,237.0 1010.0,244.0" stroke="#090" stroke-width="1" /><polyline fill="none" opacity="0.85" points="1014.0,237.0 1014.0,244.0" stroke="#090" stroke-width="1" /><polyline fill="none" opacity="0.85" points="1018.0,237.0 1018.0,244.0" stroke="#090" stroke-width="1" /><polyline fill="none" opacity="0.85" points="1022.0,237.0 1022.0,244.0" stroke="#090" stroke-width="1" /><polyline fill="none" opacity="0.85" points="1026.0,237.0 1026.0,244.0" stroke="#090" stroke-width="1" /><polyline fill="none" opacity="0.85" points="1030.0,237.0 1030.0,244.0" stroke="#090" stroke-width="1" /><polyline fill="none" opacity="0.85" points="1034.0,237.0 1034.0,244.0" stroke="#090" stroke-width="1" /><polyline fill="none" opacity="0.85" points="1038.0,237.0 1038.0,244.0" stroke="#090" stroke-width="1" /><polyline fill="none" opacity="0.85" points="952.0,237.0 952.0,244.0" stroke="#F00" stroke-width="1" /><polyline fill="none" opacity="0.85" points="948.0,237.0 948.0,244.0" stroke="#F00" stroke-width="1" /><polyline fill="none" opacity="0.85" points="944.0,237.0 944.0,244.0" stroke="#F00" stroke-width="1" /><polyline fill="none" opacity="0.85" points="940.0,237.0 940.0,244.0" stroke="#F00" stroke-width="1" /><polyline fill="none" opacity="0.85" points="936.0,237.0 936.0,244.0" stroke="#F00" stroke-width="1" /><polyline fill="none" opacity="0.85" points="932.0,237.0 932.0,244.0" stroke="#F00" stroke-width="1" /><polyline fill="none" opacity="0.85" points="928.0,237.0 928.0,244.0" stroke="#F00" stroke-width="1" /><polyline fill="none" opacity="0.85" points="924.0,237.0 924.0,244.0" stroke="#F00" stroke-width="1" /><polyline fill="none" opacity="0.85" points="920.0,237.0 920.0,244.0" stroke="#F00" stroke-width="1" /><polyline fill="none" opacity="0.85" points="916.0,237.0 916.0,244.0" stroke="#F00" stroke-width="1" /><polyline fill="none" opacity="0.85" points="912.0,237.0 912.0,244.0" stroke="#F00" stroke-width="1" /><polyline fill="none" opacity="0.85" points="908.0,237.0 908.0,244.0" stroke="#F00" stroke-width="1" /><polyline fill="none" opacity="0.85" points="910.0,202.0 887.0,202.0" stroke="#F00" stroke-width="1" /><polygon fill="#F00" opacity="0.85" points="893.6649,200.2141 887.0,202.0 893.6649,203.7859" stroke="#F00" stroke-width="1" /><polyline fill="none" opacity="0.85" points="1000.0,174.0 1000.0,197.0" stroke="#090" stroke-width="1" /><polygon fill="#090" opacity="0.85" points="998.2141,190.3351 1000.0,197.0 1001.7859,190.3351" stroke="#090" stroke-width="1" /><text fill="#000" font-family="Arial" font-size="8" font-weight="normal" opacity="0.85" transform="rotate(-0.0 992.0,159.0) translate(0 8)" x="992.0" y="159.0">вход</text><text fill="#000" font-family="Arial" font-size="8" font-weight="normal" opacity="0.85" transform="rotate(-90.0 869.0,214.0) translate(0 8)" x="869.0" y="214.0">выход</text><polygon fill="#D0EFFF" opacity="1.0" points="957.0,229.0 977.0,229.0 977.0,250.0 957.0,250.0" stroke="#000" stroke-width="1" /><text fill="#000" font-family="Arial" font-size="8" font-weight="normal" opacity="1.0" transform="rotate(-45.0 957.0,242.0) translate(0 8)" x="957.0" y="242.0">лифт</text><polyline fill="none" opacity="1.0" points="825.0,351.0 829.0,351.0" stroke="#000" stroke-width="1" /><polyline fill="none" opacity="1.0" points="825.0,355.0 829.0,355.0" stroke="#000" stroke-width="1" /><polyline fill="none" opacity="1.0" points="825.0,359.0 829.0,359.0" stroke="#000" stroke-width="1" /><polygon fill="#D0EFFF" opacity="1.0" points="806.0,348.0 820.0,348.0 820.0,362.0 806.0,362.0" stroke="#000" stroke-width="1" /><text fill="#000" font-family="Arial" font-size="6" font-weight="normal" opacity="1.0" transform="rotate(-45.0 805.0,357.0) translate(0 6)" x="805.0" y="357.0">лифт</text><text fill="#00AFAF" font-family="Arial" font-size="20" font-weight="normal" opacity="1.0" transform="rotate(-15.0 -74.0,380.0) translate(0 20)" x="-74.0" y="380.0">Новоясеневский</text><text fill="#00AFAF" font-family="Arial" font-size="20" font-weight="normal" opacity="1.0" transform="rotate(-15.0 -51.0,397.0) translate(0 20)" x="-51.0" y="397.0">проспект</text><text fill="#00AFAF" font-family="Arial" font-size="20" font-weight="normal" opacity="1.0" transform="rotate(20.0 909.0,378.0) translate(0 20)" x="909.0" y="378.0">Новоясеневский проспект</text><text fill="#00AFAF" font-family="Arial" font-size="20" font-weight="normal" opacity="1.0" transform="rotate(-15.0 130.0,629.0) translate(0 20)" x="130.0" y="629.0">Ясеневское кладбище</text><text fill="#00AFAF" font-family="Arial" font-size="20" font-weight="normal" opacity="1.0" transform="rotate(-0.0 820.0,0.0) translate(0 20)" x="820.0" y="0.0">Битцевский лесопарк</text><g transform="rotate(-30.0,615.0,360.0)"><text fill="#FFD900" font-family="Arial" font-size="25" font-weight="normal" opacity="1.0" x="973.25" y="397.5">1</text><text fill="#FFD900" font-family="Arial" font-size="25" font-weight="normal" opacity="1.0" x="97.25" y="287.5">2</text><text fill="#FFD900" font-family="Arial" font-size="25" font-weight="normal" opacity="1.0" x="81.25" y="28.5">3</text></g></g></g></svg>