<?xml version="1.0" encoding="utf-8" ?>
<svg baseProfile="tiny" height="670px" version="1.2" width="1100px" xmlns="http://www.w3.org/2000/svg" xmlns:ev="http://www.w3.org/2001/xml-events" xmlns:xlink="http://www.w3.org/1999/xlink"><defs /><g><g transform="rotate(15.0,550.0,335.0)"><polygon fill="#FCDC04" opacity="100" points="778.0,241.0 328.0,241.0 328.0,211.0 778.0,211.0" stroke="#000" stroke-width="1" /><polygon fill="#FCDC04" opacity="100" points="328.0,361.0 328.0,331.0 778.0,331.0 778.0,361.0" stroke="#000" stroke-width="1" /><text fill="#000" font-family="Arial" font-size="20" font-weight="normal" opacity="100" transform="rotate(-0.0 330.0,188.0) translate(0 20)" x="330.0" y="188.0">&lt;&lt; Перово</text><text fill="#000" font-family="Arial" font-size="20" font-weight="normal" opacity="100" transform="rotate(-0.0 644.0,361.0) translate(0 20)" x="644.0" y="361.0">Новокосино &gt;&gt;</text><text fill="#000" font-family="Arial" font-size="25" font-weight="bold" opacity="100" transform="rotate(-0.0 484.0,283.0) translate(0 25)" x="484.0" y="283.0">Новогиреево</text><text fill="#FCDC04" font-family="Arial" font-size="20" font-weight="normal" opacity="100" transform="rotate(-0.0 329.0,187.0) translate(0 20)" x="329.0" y="187.0">&lt;&lt; Перово</text><text fill="#FCDC04" font-family="Arial" font-size="20" font-weight="normal" opacity="100" transform="rotate(-0.0 643.0,360.0) translate(0 20)" x="643.0" y="360.0">Новокосино &gt;&gt;</text><text fill="#FCDC04" font-family="Arial" font-size="25" font-weight="bold" opacity="100" transform="rotate(-0.0 482.0,281.0) translate(0 25)" x="482.0" y="281.0">Новогиреево</text><polygon fill="#34349C" opacity="100" points="555.0,287.0 559.0,287.0 559.0,288.0 555.0,288.0" stroke="#34349C" stroke-width="1" /><polygon fill="#F00" opacity="100" points="551.0,287.0 555.0,287.0 555.0,288.0 551.0,288.0" stroke="#F00" stroke-width="1" /><polyline fill="none" opacity="100" points="778.0,331.0 778.0,323.0 828.0,323.0 828.0,365.0 939.0,365.0 939.0,414.0 897.0,414.0" stroke="#000" stroke-width="1" /><polyline fill="none" opacity="100" points="897.0,436.0 1003.0,436.0" stroke="#000" stroke-width="1" /><polyline fill="none" opacity="100" points="1003.0,414.0 961.0,414.0 961.0,159.0 1003.0,159.0" stroke="#000" stroke-width="1" /><polyline fill="none" opacity="100" points="1003.0,137.0 896.0,137.0" stroke="#000" stroke-width="1" /><polyline fill="none" opacity="100" points="896.0,159.0 938.0,159.0 938.0,207.0 828.0,207.0 828.0,248.0 778.0,248.0 778.0,241.0" stroke="#000" stroke-width="1" /><polyline fill="none" opacity="100" points="899.0,414.0 899.0,436.0" stroke="#000" stroke-width="1" /><polyline fill="none" opacity="100" points="903.0,414.0 903.0,436.0" stroke="#000" stroke-width="1" /><polyline fill="none" opacity="100" points="907.0,414.0 907.0,436.0" stroke="#000" stroke-width="1" /><polyline fill="none" opacity="100" points="911.0,414.0 911.0,436.0" stroke="#000" stroke-width="1" /><polyline fill="none" opacity="100" points="915.0,414.0 915.0,436.0" stroke="#000" stroke-width="1" /><polyline fill="none" opacity="100" points="919.0,414.0 919.0,436.0" stroke="#000" stroke-width="1" /><polyline fill="none" opacity="100" points="923.0,414.0 923.0,436.0" stroke="#000" stroke-width="1" /><polyline fill="none" opacity="100" points="927.0,414.0 927.0,436.0" stroke="#000" stroke-width="1" /><polyline fill="none" opacity="100" points="931.0,414.0 931.0,436.0" stroke="#000" stroke-width="1" /><polyline fill="none" opacity="100" points="935.0,414.0 935.0,436.0" stroke="#000" stroke-width="1" /><polyline fill="none" opacity="100" points="1001.0,414.0 1001.0,436.0" stroke="#000" stroke-width="1" /><polyline fill="none" opacity="100" points="997.0,414.0 997.0,436.0" stroke="#000" stroke-width="1" /><polyline fill="none" opacity="100" points="993.0,414.0 993.0,436.0" stroke="#000" stroke-width="1" /><polyline fill="none" opacity="100" points="989.0,414.0 989.0,436.0" stroke="#000" stroke-width="1" /><polyline fill="none" opacity="100" points="985.0,414.0 985.0,436.0" stroke="#000" stroke-width="1" /><polyline fill="none" opacity="100" points="981.0,414.0 981.0,436.0" stroke="#000" stroke-width="1" /><polyline fill="none" opacity="100" points="977.0,414.0 977.0,436.0" stroke="#000" stroke-width="1" /><polyline fill="none" opacity="100" points="973.0,414.0 973.0,436.0" stroke="#000" stroke-width="1" /><polyline fill="none" opacity="100" points="969.0,414.0 969.0,436.0" stroke="#000" stroke-width="1" /><polyline fill="none" opacity="100" points="965.0,414.0 965.0,436.0" stroke="#000" stroke-width="1" /><polyline fill="none" opacity="100" points="1001.0,159.0 1001.0,137.0" stroke="#000" stroke-width="1" /><polyline fill="none" opacity="100" points="997.0,159.0 997.0,137.0" stroke="#000" stroke-width="1" /><polyline fill="none" opacity="100" points="993.0,159.0 993.0,137.0" stroke="#000" stroke-width="1" /><polyline fill="none" opacity="100" points="989.0,159.0 989.0,137.0" stroke="#000" stroke-width="1" /><polyline fill="none" opacity="100" points="985.0,159.0 985.0,137.0" stroke="#000" stroke-width="1" /><polyline fill="none" opacity="100" points="981.0,159.0 981.0,137.0" stroke="#000" stroke-width="1" /><polyline fill="none" opacity="100" points="977.0,159.0 977.0,137.0" stroke="#000" stroke-width="1" /><polyline fill="none" opacity="100" points="973.0,159.0 973.0,137.0" stroke="#000" stroke-width="1" /><polyline fill="none" opacity="100" points="969.0,159.0 969.0,137.0" stroke="#000" stroke-width="1" /><polyline fill="none" opacity="100" points="965.0,159.0 965.0,137.0" stroke="#000" stroke-width="1" /><polyline fill="none" opacity="100" points="898.0,159.0 898.0,137.0" stroke="#000" stroke-width="1" /><polyline fill="none" opacity="100" points="902.0,159.0 902.0,137.0" stroke="#000" stroke-width="1" /><polyline fill="none" opacity="100" points="906.0,159.0 906.0,137.0" stroke="#000" stroke-width="1" /><polyline fill="none" opacity="100" points="910.0,159.0 910.0,137.0" stroke="#000" stroke-width="1" /><polyline fill="none" opacity="100" points="914.0,159.0 914.0,137.0" stroke="#000" stroke-width="1" /><polyline fill="none" opacity="100" points="918.0,159.0 918.0,137.0" stroke="#000" stroke-width="1" /><polyline fill="none" opacity="100" points="922.0,159.0 922.0,137.0" stroke="#000" stroke-width="1" /><polyline fill="none" opacity="100" points="926.0,159.0 926.0,137.0" stroke="#000" stroke-width="1" /><polyline fill="none" opacity="100" points="930.0,159.0 930.0,137.0" stroke="#000" stroke-width="1" /><polyline fill="none" opacity="100" points="934.0,159.0 934.0,137.0" stroke="#000" stroke-width="1" /><polyline fill="none" opacity="100" points="780.0,248.0 780.0,323.0" stroke="#000" stroke-width="1" /><polyline fill="none" opacity="100" points="784.0,248.0 784.0,323.0" stroke="#000" stroke-width="1" /><polyline fill="none" opacity="100" points="788.0,248.0 788.0,323.0" stroke="#000" stroke-width="1" /><polyline fill="none" opacity="100" points="792.0,248.0 792.0,323.0" stroke="#000" stroke-width="1" /><polyline fill="none" opacity="100" points="796.0,248.0 796.0,323.0" stroke="#000" stroke-width="1" /><polyline fill="none" opacity="100" points="800.0,248.0 800.0,323.0" stroke="#000" stroke-width="1" /><polyline fill="none" opacity="100" points="804.0,248.0 804.0,323.0" stroke="#000" stroke-width="1" /><polyline fill="none" opacity="100" points="808.0,248.0 808.0,323.0" stroke="#000" stroke-width="1" /><polyline fill="none" opacity="100" points="812.0,248.0 812.0,323.0" stroke="#000" stroke-width="1" /><polyline fill="none" opacity="100" points="816.0,248.0 816.0,323.0" stroke="#000" stroke-width="1" /><polyline fill="none" opacity="100" points="820.0,248.0 820.0,323.0" stroke="#000" stroke-width="1" /><polyline fill="none" opacity="100" points="824.0,248.0 824.0,323.0" stroke="#000" stroke-width="1" /><polygon fill="#D0D0D0" opacity="100" points="924.0,238.0 938.0,238.0 938.0,335.0 924.0,335.0" stroke="#000" stroke-width="1" /><polyline fill="none" opacity="100" points="839.0,207.0 839.0,234.0 828.0,234.0" stroke="#000" stroke-width="1" /><text fill="#FFF" font-family="Arial" font-size="10" font-weight="normal" opacity="100" transform="rotate(-90.0 827.0,233.0) translate(0 10)" x="827.0" y="233.0">кассы</text><polyline fill="none" opacity="100" points="839.0,234.0 856.0,234.0" stroke="#000" stroke-width="1" /><polygon fill="none" opacity="100" points="856.0,231.0 856.0,237.0 862.0,237.0 862.0,231.0" stroke="#000" stroke-width="1" /><polyline fill="none" opacity="100" points="896.0,271.0 904.0,279.0 904.0,307.0" stroke="#000" stroke-width="1" /><polyline fill="none" opacity="100" points="904.0,355.0 904.0,365.0" stroke="#000" stroke-width="1" /><polyline fill="none" opacity="100" points="866.0,239.0 864.0,241.0" stroke="#090" stroke-width="1" /><polyline fill="none" opacity="100" points="868.8284,241.8284 866.8284,243.8284" stroke="#090" stroke-width="1" /><polyline fill="none" opacity="100" points="871.6569,244.6569 869.6569,246.6569" stroke="#090" stroke-width="1" /><polyline fill="none" opacity="100" points="874.4853,247.4853 872.4853,249.4853" stroke="#090" stroke-width="1" /><polyline fill="none" opacity="100" points="877.3137,250.3137 875.3137,252.3137" stroke="#090" stroke-width="1" /><polyline fill="none" opacity="100" points="880.1421,253.1421 878.1421,255.1421" stroke="#090" stroke-width="1" /><polyline fill="none" opacity="100" points="882.9706,255.9706 880.9706,257.9706" stroke="#090" stroke-width="1" /><polyline fill="none" opacity="100" points="885.799,258.799 883.799,260.799" stroke="#090" stroke-width="1" /><polyline fill="none" opacity="100" points="888.6274,261.6274 886.6274,263.6274" stroke="#090" stroke-width="1" /><polyline fill="none" opacity="100" points="891.4558,264.4558 889.4558,266.4558" stroke="#090" stroke-width="1" /><polyline fill="none" opacity="100" points="894.2843,267.2843 892.2843,269.2843" stroke="#090" stroke-width="1" /><polyline fill="none" opacity="100" points="897.1127,270.1127 895.1127,272.1127" stroke="#090" stroke-width="1" /><polyline fill="none" opacity="100" points="906.0,307.0 902.0,307.0" stroke="#F00" stroke-width="1" /><polyline fill="none" opacity="100" points="906.0,311.0 902.0,311.0" stroke="#F00" stroke-width="1" /><polyline fill="none" opacity="100" points="906.0,315.0 902.0,315.0" stroke="#F00" stroke-width="1" /><polyline fill="none" opacity="100" points="906.0,319.0 902.0,319.0" stroke="#F00" stroke-width="1" /><polyline fill="none" opacity="100" points="906.0,323.0 902.0,323.0" stroke="#F00" stroke-width="1" /><polyline fill="none" opacity="100" points="906.0,327.0 902.0,327.0" stroke="#F00" stroke-width="1" /><polyline fill="none" opacity="100" points="906.0,331.0 902.0,331.0" stroke="#F00" stroke-width="1" /><polyline fill="none" opacity="100" points="906.0,335.0 902.0,335.0" stroke="#F00" stroke-width="1" /><polyline fill="none" opacity="100" points="906.0,339.0 902.0,339.0" stroke="#F00" stroke-width="1" /><polyline fill="none" opacity="100" points="906.0,343.0 902.0,343.0" stroke="#F00" stroke-width="1" /><polyline fill="none" opacity="100" points="906.0,347.0 902.0,347.0" stroke="#F00" stroke-width="1" /><polyline fill="none" opacity="100" points="906.0,351.0 902.0,351.0" stroke="#F00" stroke-width="1" /><polyline fill="none" opacity="100" points="906.0,355.0 902.0,355.0" stroke="#F00" stroke-width="1" /><polygon fill="#34349C" opacity="100" points="919.0,252.0 919.0,256.0 920.0,256.0 920.0,252.0" stroke="#34349C" stroke-width="1" /><polygon fill="#F00" opacity="100" points="919.0,248.0 919.0,252.0 920.0,252.0 920.0,248.0" stroke="#F00" stroke-width="1" /><polyline fill="none" opacity="100" points="41.0,137.0 172.0,137.0" stroke="#000" stroke-width="1" /><polyline fill="none" opacity="100" points="41.0,159.0 107.0,159.0 107.0,414.0 65.0,414.0" stroke="#000" stroke-width="1" /><polyline fill="none" opacity="100" points="65.0,436.0 172.0,436.0" stroke="#000" stroke-width="1" /><polyline fill="none" opacity="100" points="172.0,414.0 130.0,414.0 130.0,365.0 242.0,365.0 242.0,318.0 247.0,318.0" stroke="#000" stroke-width="1" /><polyline fill="none" opacity="100" points="319.0,318.0 328.0,318.0 328.0,331.0" stroke="#000" stroke-width="1" /><polyline fill="none" opacity="100" points="328.0,241.0 328.0,254.0 243.0,254.0 243.0,207.0 130.0,207.0 130.0,159.0 172.0,159.0" stroke="#000" stroke-width="1" /><polyline fill="none" opacity="100" points="43.0,159.0 43.0,137.0" stroke="#000" stroke-width="1" /><polyline fill="none" opacity="100" points="47.0,159.0 47.0,137.0" stroke="#000" stroke-width="1" /><polyline fill="none" opacity="100" points="51.0,159.0 51.0,137.0" stroke="#000" stroke-width="1" /><polyline fill="none" opacity="100" points="55.0,159.0 55.0,137.0" stroke="#000" stroke-width="1" /><polyline fill="none" opacity="100" points="59.0,159.0 59.0,137.0" stroke="#000" stroke-width="1" /><polyline fill="none" opacity="100" points="63.0,159.0 63.0,137.0" stroke="#000" stroke-width="1" /><polyline fill="none" opacity="100" points="67.0,159.0 67.0,137.0" stroke="#000" stroke-width="1" /><polyline fill="none" opacity="100" points="71.0,159.0 71.0,137.0" stroke="#000" stroke-width="1" /><polyline fill="none" opacity="100" points="75.0,159.0 75.0,137.0" stroke="#000" stroke-width="1" /><polyline fill="none" opacity="100" points="79.0,159.0 79.0,137.0" stroke="#000" stroke-width="1" /><polyline fill="none" opacity="100" points="170.0,159.0 170.0,137.0" stroke="#000" stroke-width="1" /><polyline fill="none" opacity="100" points="166.0,159.0 166.0,137.0" stroke="#000" stroke-width="1" /><polyline fill="none" opacity="100" points="162.0,159.0 162.0,137.0" stroke="#000" stroke-width="1" /><polyline fill="none" opacity="100" points="158.0,159.0 158.0,137.0" stroke="#000" stroke-width="1" /><polyline fill="none" opacity="100" points="154.0,159.0 154.0,137.0" stroke="#000" stroke-width="1" /><polyline fill="none" opacity="100" points="150.0,159.0 150.0,137.0" stroke="#000" stroke-width="1" /><polyline fill="none" opacity="100" points="146.0,159.0 146.0,137.0" stroke="#000" stroke-width="1" /><polyline fill="none" opacity="100" points="142.0,159.0 142.0,137.0" stroke="#000" stroke-width="1" /><polyline fill="none" opacity="100" points="138.0,159.0 138.0,137.0" stroke="#000" stroke-width="1" /><polyline fill="none" opacity="100" points="134.0,159.0 134.0,137.0" stroke="#000" stroke-width="1" /><polyline fill="none" opacity="100" points="67.0,414.0 67.0,436.0" stroke="#000" stroke-width="1" /><polyline fill="none" opacity="100" points="71.0,414.0 71.0,436.0" stroke="#000" stroke-width="1" /><polyline fill="none" opacity="100" points="75.0,414.0 75.0,436.0" stroke="#000" stroke-width="1" /><polyline fill="none" opacity="100" points="79.0,414.0 79.0,436.0" stroke="#000" stroke-width="1" /><polyline fill="none" opacity="100" points="83.0,414.0 83.0,436.0" stroke="#000" stroke-width="1" /><polyline fill="none" opacity="100" points="87.0,414.0 87.0,436.0" stroke="#000" stroke-width="1" /><polyline fill="none" opacity="100" points="91.0,414.0 91.0,436.0" stroke="#000" stroke-width="1" /><polyline fill="none" opacity="100" points="95.0,414.0 95.0,436.0" stroke="#000" stroke-width="1" /><polyline fill="none" opacity="100" points="99.0,414.0 99.0,436.0" stroke="#000" stroke-width="1" /><polyline fill="none" opacity="100" points="103.0,414.0 103.0,436.0" stroke="#000" stroke-width="1" /><polyline fill="none" opacity="100" points="170.0,414.0 170.0,436.0" stroke="#000" stroke-width="1" /><polyline fill="none" opacity="100" points="166.0,414.0 166.0,436.0" stroke="#000" stroke-width="1" /><polyline fill="none" opacity="100" points="162.0,414.0 162.0,436.0" stroke="#000" stroke-width="1" /><polyline fill="none" opacity="100" points="158.0,414.0 158.0,436.0" stroke="#000" stroke-width="1" /><polyline fill="none" opacity="100" points="154.0,414.0 154.0,436.0" stroke="#000" stroke-width="1" /><polyline fill="none" opacity="100" points="150.0,414.0 150.0,436.0" stroke="#000" stroke-width="1" /><polyline fill="none" opacity="100" points="146.0,414.0 146.0,436.0" stroke="#000" stroke-width="1" /><polyline fill="none" opacity="100" points="142.0,414.0 142.0,436.0" stroke="#000" stroke-width="1" /><polyline fill="none" opacity="100" points="138.0,414.0 138.0,436.0" stroke="#000" stroke-width="1" /><polyline fill="none" opacity="100" points="134.0,414.0 134.0,436.0" stroke="#000" stroke-width="1" /><polyline fill="none" opacity="100" points="263.0,299.0 263.0,254.0" stroke="#000" stroke-width="1" /><polyline fill="none" opacity="100" points="267.0,299.0 267.0,254.0" stroke="#000" stroke-width="1" /><polyline fill="none" opacity="100" points="271.0,299.0 271.0,254.0" stroke="#000" stroke-width="1" /><polyline fill="none" opacity="100" points="275.0,299.0 275.0,254.0" stroke="#000" stroke-width="1" /><polyline fill="none" opacity="100" points="279.0,299.0 279.0,254.0" stroke="#000" stroke-width="1" /><polyline fill="none" opacity="100" points="283.0,299.0 283.0,254.0" stroke="#000" stroke-width="1" /><polyline fill="none" opacity="100" points="287.0,299.0 287.0,254.0" stroke="#000" stroke-width="1" /><polyline fill="none" opacity="100" points="291.0,299.0 291.0,254.0" stroke="#000" stroke-width="1" /><polyline fill="none" opacity="100" points="295.0,299.0 295.0,254.0" stroke="#000" stroke-width="1" /><polyline fill="none" opacity="100" points="299.0,299.0 299.0,254.0" stroke="#000" stroke-width="1" /><polyline fill="none" opacity="100" points="303.0,299.0 303.0,254.0" stroke="#000" stroke-width="1" /><polyline fill="none" opacity="100" points="307.0,299.0 307.0,254.0" stroke="#000" stroke-width="1" /><polygon fill="#D0D0D0" opacity="100" points="130.0,237.0 144.0,237.0 144.0,335.0 130.0,335.0" stroke="#000" stroke-width="1" /><polyline fill="none" opacity="100" points="233.0,207.0 233.0,235.0 243.0,235.0" stroke="#000" stroke-width="1" /><text fill="#FFF" font-family="Arial" font-size="10" font-weight="normal" opacity="100" transform="rotate(-90.0 232.0,234.0) translate(0 10)" x="232.0" y="234.0">кассы</text><polyline fill="none" opacity="100" points="233.0,235.0 216.0,235.0" stroke="#000" stroke-width="1" /><polygon fill="none" opacity="100" points="216.0,232.0 216.0,238.0 210.0,238.0 210.0,232.0" stroke="#000" stroke-width="1" /><polyline fill="none" opacity="100" points="178.0,269.0 171.0,276.0 171.0,307.0" stroke="#000" stroke-width="1" /><polyline fill="none" opacity="100" points="171.0,355.0 171.0,365.0" stroke="#000" stroke-width="1" /><polyline fill="none" opacity="100" points="206.0,239.0 208.0,241.0" stroke="#090" stroke-width="1" /><polyline fill="none" opacity="100" points="203.1716,241.8284 205.1716,243.8284" stroke="#090" stroke-width="1" /><polyline fill="none" opacity="100" points="200.3431,244.6569 202.3431,246.6569" stroke="#090" stroke-width="1" /><polyline fill="none" opacity="100" points="197.5147,247.4853 199.5147,249.4853" stroke="#090" stroke-width="1" /><polyline fill="none" opacity="100" points="194.6863,250.3137 196.6863,252.3137" stroke="#090" stroke-width="1" /><polyline fill="none" opacity="100" points="191.8579,253.1421 193.8579,255.1421" stroke="#090" stroke-width="1" /><polyline fill="none" opacity="100" points="189.0294,255.9706 191.0294,257.9706" stroke="#090" stroke-width="1" /><polyline fill="none" opacity="100" points="186.201,258.799 188.201,260.799" stroke="#090" stroke-width="1" /><polyline fill="none" opacity="100" points="183.3726,261.6274 185.3726,263.6274" stroke="#090" stroke-width="1" /><polyline fill="none" opacity="100" points="180.5442,264.4558 182.5442,266.4558" stroke="#090" stroke-width="1" /><polyline fill="none" opacity="100" points="177.7157,267.2843 179.7157,269.2843" stroke="#090" stroke-width="1" /><polyline fill="none" opacity="100" points="169.0,307.0 173.0,307.0" stroke="#F00" stroke-width="1" /><polyline fill="none" opacity="100" points="169.0,311.0 173.0,311.0" stroke="#F00" stroke-width="1" /><polyline fill="none" opacity="100" points="169.0,315.0 173.0,315.0" stroke="#F00" stroke-width="1" /><polyline fill="none" opacity="100" points="169.0,319.0 173.0,319.0" stroke="#F00" stroke-width="1" /><polyline fill="none" opacity="100" points="169.0,323.0 173.0,323.0" stroke="#F00" stroke-width="1" /><polyline fill="none" opacity="100" points="169.0,327.0 173.0,327.0" stroke="#F00" stroke-width="1" /><polyline fill="none" opacity="100" points="169.0,331.0 173.0,331.0" stroke="#F00" stroke-width="1" /><polyline fill="none" opacity="100" points="169.0,335.0 173.0,335.0" stroke="#F00" stroke-width="1" /><polyline fill="none" opacity="100" points="169.0,339.0 173.0,339.0" stroke="#F00" stroke-width="1" /><polyline fill="none" opacity="100" points="169.0,343.0 173.0,343.0" stroke="#F00" stroke-width="1" /><polyline fill="none" opacity="100" points="169.0,347.0 173.0,347.0" stroke="#F00" stroke-width="1" /><polyline fill="none" opacity="100" points="169.0,351.0 173.0,351.0" stroke="#F00" stroke-width="1" /><polyline fill="none" opacity="100" points="169.0,355.0 173.0,355.0" stroke="#F00" stroke-width="1" /><polyline fill="none" opacity="100" points="253.0,303.0 253.0,314.0" stroke="#7F7F7F" stroke-width="1" /><polyline fill="none" opacity="100" points="257.0,303.0 257.0,314.0" stroke="#7F7F7F" stroke-width="1" /><polyline fill="none" opacity="100" points="261.0,303.0 261.0,314.0" stroke="#7F7F7F" stroke-width="1" /><polyline fill="none" opacity="100" points="265.0,303.0 265.0,314.0" stroke="#7F7F7F" stroke-width="1" /><polyline fill="none" opacity="100" points="269.0,303.0 269.0,314.0" stroke="#7F7F7F" stroke-width="1" /><polyline fill="none" opacity="100" points="273.0,303.0 273.0,314.0" stroke="#7F7F7F" stroke-width="1" /><polyline fill="none" opacity="100" points="277.0,303.0 277.0,314.0" stroke="#7F7F7F" stroke-width="1" /><polyline fill="none" opacity="100" points="281.0,303.0 281.0,314.0" stroke="#7F7F7F" stroke-width="1" /><polyline fill="none" opacity="100" points="285.0,303.0 285.0,314.0" stroke="#7F7F7F" stroke-width="1" /><polyline fill="none" opacity="100" points="289.0,303.0 289.0,314.0" stroke="#7F7F7F" stroke-width="1" /><polyline fill="none" opacity="100" points="293.0,303.0 293.0,314.0" stroke="#7F7F7F" stroke-width="1" /><polyline fill="none" opacity="100" points="297.0,303.0 297.0,314.0" stroke="#7F7F7F" stroke-width="1" /><polyline fill="none" opacity="100" points="301.0,303.0 301.0,314.0" stroke="#7F7F7F" stroke-width="1" /><polyline fill="none" opacity="100" points="305.0,303.0 305.0,314.0" stroke="#7F7F7F" stroke-width="1" /><polyline fill="none" opacity="100" points="309.0,303.0 309.0,314.0" stroke="#7F7F7F" stroke-width="1" /><polyline fill="none" opacity="100" points="313.0,303.0 313.0,314.0" stroke="#7F7F7F" stroke-width="1" /><polygon fill="#9B5509" opacity="100" points="247.0,299.0 319.0,299.0 319.0,303.0 247.0,303.0" stroke="#000" stroke-width="1" /><polygon fill="#9B5509" opacity="100" points="247.0,314.0 319.0,314.0 319.0,318.0 247.0,318.0" stroke="#000" stroke-width="1" /><text fill="#00AFAF" font-family="Arial" font-size="15" font-weight="normal" opacity="100" transform="rotate(-0.0 -26.0,272.0) translate(0 15)" x="-26.0" y="272.0">Зеленый проспект</text><text fill="#00AFAF" font-family="Arial" font-size="15" font-weight="normal" opacity="100" transform="rotate(-90.0 813.0,92.0) translate(0 15)" x="813.0" y="92.0">Свободный проспект</text><text fill="#00AFAF" font-family="Arial" font-size="15" font-weight="normal" opacity="100" transform="rotate(-90.0 107.0,577.0) translate(0 15)" x="107.0" y="577.0">5-й проспект</text><text fill="#00AFAF" font-family="Arial" font-size="15" font-weight="normal" opacity="100" transform="rotate(-0.0 981.0,280.0) translate(0 15)" x="981.0" y="280.0">Зеленый проспект</text><text fill="#00AFAF" font-family="Arial" font-size="15" font-weight="normal" opacity="100" transform="rotate(-90.0 1058.0,533.0) translate(0 15)" x="1058.0" y="533.0">3-й проспект</text><polygon fill="#34349C" opacity="100" points="148.0,325.0 148.0,321.0 149.0,321.0 149.0,325.0" stroke="#34349C" stroke-width="1" /><polygon fill="#F00" opacity="100" points="148.0,329.0 148.0,325.0 149.0,325.0 149.0,329.0" stroke="#F00" stroke-width="1" /><polyline fill="none" opacity="100" points="205.0,339.0 187.0,339.0" stroke="#F00" stroke-width="1" /><polygon fill="#F00" opacity="100" points="192.216,337.6024 187.0,339.0 192.216,340.3976" stroke="#F00" stroke-width="1" /><polyline fill="none" opacity="100" points="866.0,342.0 880.0,342.0" stroke="#F00" stroke-width="1" /><polygon fill="#F00" opacity="100" points="875.9431,343.087 880.0,342.0 875.9431,340.913" stroke="#F00" stroke-width="1" /><polyline fill="none" opacity="100" points="161.0,234.0 173.0,246.0" stroke="#090" stroke-width="1" /><polygon fill="#090" opacity="100" points="168.5909,243.4544 173.0,246.0 170.4544,241.5909" stroke="#090" stroke-width="1" /><polyline fill="none" opacity="100" points="904.0,233.0 894.0,243.0" stroke="#090" stroke-width="1" /><polygon fill="#090" opacity="100" points="896.1213,239.3258 894.0,243.0 897.6742,240.8787" stroke="#090" stroke-width="1" /><g transform="rotate(-15.0,550.0,335.0)"><text fill="#FFD900" font-family="Arial" font-size="25" font-weight="normal" opacity="100" x="895.25" y="243.5">1</text><text fill="#FFD900" font-family="Arial" font-size="25" font-weight="normal" opacity="100" x="1052.25" y="290.5">2</text><text fill="#FFD900" font-family="Arial" font-size="25" font-weight="normal" opacity="100" x="982.25" y="559.5">3</text><text fill="#FFD900" font-family="Arial" font-size="25" font-weight="normal" opacity="100" x="826.25" y="510.5">4</text><text fill="#FFD900" font-family="Arial" font-size="25" font-weight="normal" opacity="100" x="181.25" y="341.5">5</text><text fill="#FFD900" font-family="Arial" font-size="25" font-weight="normal" opacity="100" x="23.25" y="298.5">6</text><text fill="#FFD900" font-family="Arial" font-size="25" font-weight="normal" opacity="100" x="66.25" y="25.5">7</text><text fill="#FFD900" font-family="Arial" font-size="25" font-weight="normal" opacity="100" x="248.25" y="70.5">8</text></g></g></g></svg>