<?xml version="1.0" encoding="utf-8" ?>
<svg baseProfile="tiny" height="880px" version="1.2" width="650px" xmlns="http://www.w3.org/2000/svg" xmlns:ev="http://www.w3.org/2001/xml-events" xmlns:xlink="http://www.w3.org/1999/xlink"><defs /><g><g transform="rotate(55.0,325.0,440.0)"><polygon fill="#046434" opacity="100" points="151.0,381.0 601.0,381.0 601.0,411.0 151.0,411.0" stroke="#000" stroke-width="1" /><polygon fill="#046434" opacity="100" points="151.0,491.0 601.0,491.0 601.0,521.0 151.0,521.0" stroke="#000" stroke-width="1" /><text fill="#046434" font-family="Arial" font-size="20" font-weight="normal" opacity="100" transform="rotate(-0.0 153.0,356.0) translate(0 20)" x="153.0" y="356.0">&lt;&lt; Царицыно</text><text fill="#046434" font-family="Arial" font-size="20" font-weight="normal" opacity="100" transform="rotate(-0.0 441.0,521.0) translate(0 20)" x="441.0" y="521.0">Домодедовская &gt;&gt;</text><text fill="#046434" font-family="Arial" font-size="25" font-weight="bold" opacity="100" transform="rotate(-0.0 327.0,444.0) translate(0 25)" x="327.0" y="444.0">Орехово</text><polygon fill="#34349C" opacity="100" points="375.0,442.0 375.0,438.0 376.0,438.0 376.0,442.0" stroke="#34349C" stroke-width="1" /><polygon fill="#F00" opacity="100" points="375.0,446.0 375.0,442.0 376.0,442.0 376.0,446.0" stroke="#F00" stroke-width="1" /><polyline fill="none" opacity="100" points="151.0,411.0 151.0,422.0 102.0,422.0 102.0,392.0 3.0,392.0 -29.0,336.0" stroke="#000" stroke-width="1" /><polyline fill="none" opacity="100" points="-44.0,346.0 -17.0,392.0 -28.0,392.0 -28.0,414.0 -21.0,414.0 -21.0,486.0 -28.0,486.0 -28.0,508.0 -14.0,508.0 -14.0,573.0" stroke="#000" stroke-width="1" /><polyline fill="none" opacity="100" points="4.0,573.0 4.0,508.0 102.0,508.0 102.0,482.0 151.0,482.0 151.0,491.0" stroke="#000" stroke-width="1" /><polyline fill="none" opacity="100" points="150.0,482.0 150.0,422.0" stroke="#000" stroke-width="1" /><polyline fill="none" opacity="100" points="146.0,482.0 146.0,422.0" stroke="#000" stroke-width="1" /><polyline fill="none" opacity="100" points="142.0,482.0 142.0,422.0" stroke="#000" stroke-width="1" /><polyline fill="none" opacity="100" points="138.0,482.0 138.0,422.0" stroke="#000" stroke-width="1" /><polyline fill="none" opacity="100" points="134.0,482.0 134.0,422.0" stroke="#000" stroke-width="1" /><polyline fill="none" opacity="100" points="130.0,482.0 130.0,422.0" stroke="#000" stroke-width="1" /><polyline fill="none" opacity="100" points="126.0,482.0 126.0,422.0" stroke="#000" stroke-width="1" /><polyline fill="none" opacity="100" points="122.0,482.0 122.0,422.0" stroke="#000" stroke-width="1" /><polyline fill="none" opacity="100" points="118.0,482.0 118.0,422.0" stroke="#000" stroke-width="1" /><polyline fill="none" opacity="100" points="114.0,482.0 114.0,422.0" stroke="#000" stroke-width="1" /><polyline fill="none" opacity="100" points="110.0,482.0 110.0,422.0" stroke="#000" stroke-width="1" /><polyline fill="none" opacity="100" points="106.0,482.0 106.0,422.0" stroke="#000" stroke-width="1" /><polyline fill="none" opacity="100" points="-43.0,347.0 -28.0,338.0" stroke="#000" stroke-width="1" /><polyline fill="none" opacity="100" points="-41.0041,350.4665 -26.0041,341.4665" stroke="#000" stroke-width="1" /><polyline fill="none" opacity="100" points="-39.0083,353.933 -24.0083,344.933" stroke="#000" stroke-width="1" /><polyline fill="none" opacity="100" points="-37.0124,357.3995 -22.0124,348.3995" stroke="#000" stroke-width="1" /><polyline fill="none" opacity="100" points="-35.0166,360.866 -20.0166,351.866" stroke="#000" stroke-width="1" /><polyline fill="none" opacity="100" points="-33.0207,364.3324 -18.0207,355.3324" stroke="#000" stroke-width="1" /><polyline fill="none" opacity="100" points="-31.0249,367.7989 -16.0249,358.7989" stroke="#000" stroke-width="1" /><polyline fill="none" opacity="100" points="-29.029,371.2654 -14.029,362.2654" stroke="#000" stroke-width="1" /><polyline fill="none" opacity="100" points="-27.0331,374.7319 -12.0331,365.7319" stroke="#000" stroke-width="1" /><polyline fill="none" opacity="100" points="-25.0373,378.1984 -10.0373,369.1984" stroke="#000" stroke-width="1" /><polyline fill="none" opacity="100" points="-14.0,533.0 4.0,533.0" stroke="#000" stroke-width="1" /><polyline fill="none" opacity="100" points="-14.0,537.0 4.0,537.0" stroke="#000" stroke-width="1" /><polyline fill="none" opacity="100" points="-14.0,541.0 4.0,541.0" stroke="#000" stroke-width="1" /><polyline fill="none" opacity="100" points="-14.0,545.0 4.0,545.0" stroke="#000" stroke-width="1" /><polyline fill="none" opacity="100" points="-14.0,549.0 4.0,549.0" stroke="#000" stroke-width="1" /><polyline fill="none" opacity="100" points="-14.0,553.0 4.0,553.0" stroke="#000" stroke-width="1" /><polyline fill="none" opacity="100" points="-14.0,557.0 4.0,557.0" stroke="#000" stroke-width="1" /><polyline fill="none" opacity="100" points="-14.0,561.0 4.0,561.0" stroke="#000" stroke-width="1" /><polyline fill="none" opacity="100" points="-14.0,565.0 4.0,565.0" stroke="#000" stroke-width="1" /><polyline fill="none" opacity="100" points="-14.0,569.0 4.0,569.0" stroke="#000" stroke-width="1" /><polygon fill="#D0D0D0" opacity="100" points="3.0,414.0 12.0,414.0 12.0,486.0 3.0,486.0" stroke="#000" stroke-width="1" /><polyline fill="none" opacity="100" points="93.0,392.0 93.0,420.0 102.0,420.0" stroke="#000" stroke-width="1" /><text fill="#FFF" font-family="Arial" font-size="10" font-weight="normal" opacity="100" transform="rotate(-90.0 91.0,417.0) translate(0 10)" x="91.0" y="417.0">кассы</text><polyline fill="none" opacity="100" points="93.0,420.0 72.0,420.0" stroke="#000" stroke-width="0.5" /><polygon fill="none" opacity="100" points="41.0,447.0 45.0,451.0 41.0,455.0 37.0,451.0" stroke="#000" stroke-width="1" /><polyline fill="none" opacity="100" points="41.0,498.0 41.0,508.0" stroke="#000" stroke-width="0.5" /><polyline fill="none" opacity="100" points="70.0,419.0 73.0,422.0" stroke="#090" stroke-width="1" /><polyline fill="none" opacity="100" points="67.1716,421.8284 70.1716,424.8284" stroke="#090" stroke-width="1" /><polyline fill="none" opacity="100" points="64.3431,424.6569 67.3431,427.6569" stroke="#090" stroke-width="1" /><polyline fill="none" opacity="100" points="61.5147,427.4853 64.5147,430.4853" stroke="#090" stroke-width="1" /><polyline fill="none" opacity="100" points="58.6863,430.3137 61.6863,433.3137" stroke="#090" stroke-width="1" /><polyline fill="none" opacity="100" points="55.8579,433.1421 58.8579,436.1421" stroke="#090" stroke-width="1" /><polyline fill="none" opacity="100" points="53.0294,435.9706 56.0294,438.9706" stroke="#090" stroke-width="1" /><polyline fill="none" opacity="100" points="50.201,438.799 53.201,441.799" stroke="#090" stroke-width="1" /><polyline fill="none" opacity="100" points="47.3726,441.6274 50.3726,444.6274" stroke="#090" stroke-width="1" /><polyline fill="none" opacity="100" points="44.5442,444.4558 47.5442,447.4558" stroke="#090" stroke-width="1" /><polyline fill="none" opacity="100" points="39.0,457.0 43.0,457.0" stroke="#F00" stroke-width="1" /><polyline fill="none" opacity="100" points="39.0,461.0 43.0,461.0" stroke="#F00" stroke-width="1" /><polyline fill="none" opacity="100" points="39.0,465.0 43.0,465.0" stroke="#F00" stroke-width="1" /><polyline fill="none" opacity="100" points="39.0,469.0 43.0,469.0" stroke="#F00" stroke-width="1" /><polyline fill="none" opacity="100" points="39.0,473.0 43.0,473.0" stroke="#F00" stroke-width="1" /><polyline fill="none" opacity="100" points="39.0,477.0 43.0,477.0" stroke="#F00" stroke-width="1" /><polyline fill="none" opacity="100" points="39.0,481.0 43.0,481.0" stroke="#F00" stroke-width="1" /><polyline fill="none" opacity="100" points="39.0,485.0 43.0,485.0" stroke="#F00" stroke-width="1" /><polyline fill="none" opacity="100" points="39.0,489.0 43.0,489.0" stroke="#F00" stroke-width="1" /><polyline fill="none" opacity="100" points="39.0,493.0 43.0,493.0" stroke="#F00" stroke-width="1" /><polyline fill="none" opacity="100" points="39.0,497.0 43.0,497.0" stroke="#F00" stroke-width="1" /><polyline fill="none" opacity="100" points="69.0,484.0 50.0,484.0" stroke="#F00" stroke-width="1" /><polygon fill="#F00" opacity="100" points="55.5058,482.5247 50.0,484.0 55.5058,485.4753" stroke="#F00" stroke-width="1" /><polyline fill="none" opacity="100" points="37.0,418.0 50.0,431.0" stroke="#090" stroke-width="1" /><polygon fill="#090" opacity="100" points="45.2235,428.2423 50.0,431.0 47.2423,426.2235" stroke="#090" stroke-width="1" /><polygon fill="#34349C" opacity="100" points="76.0,474.0 72.0,474.0 72.0,475.0 76.0,475.0" stroke="#34349C" stroke-width="1" /><polygon fill="#F00" opacity="100" points="80.0,474.0 76.0,474.0 76.0,475.0 80.0,475.0" stroke="#F00" stroke-width="1" /><ellipse cx="722.5" cy="451.0" fill="#FEFBF1" opacity="100" rx="93.5" ry="93.0" stroke="#DFDFDF" stroke-width="1" /><polygon fill="#D0D0D0" opacity="100" points="634.0,420.0 684.0,420.0 684.0,366.0 666.0,377.0 653.0,389.0 643.0,403.0" stroke="#D0D0D0" stroke-width="1" /><polygon fill="#D0D0D0" opacity="100" points="704.0,360.0 704.0,420.0 744.0,420.0 744.0,361.0 733.0,359.0 723.0,358.0 714.0,359.0" stroke="#D0D0D0" stroke-width="1" /><polygon fill="#D0D0D0" opacity="100" points="760.0,366.0 760.0,477.0 811.0,477.0 814.0,461.0 815.0,447.0 811.0,424.0 805.0,410.0 795.0,394.0 786.0,384.0 775.0,375.0" stroke="#D0D0D0" stroke-width="1" /><polygon fill="#D0D0D0" opacity="100" points="806.0,490.0 762.0,490.0 762.0,511.0 771.0,515.0 780.0,522.0 787.0,516.0 794.0,508.0 799.0,501.0" stroke="#D0D0D0" stroke-width="1" /><polygon fill="#D0D0D0" opacity="100" points="738.0,503.0 738.0,490.0 745.0,490.0 745.0,505.0" stroke="#D0D0D0" stroke-width="1" /><polygon fill="#D0D0D0" opacity="100" points="704.0,504.0 704.0,490.0 711.0,490.0 711.0,502.0" stroke="#D0D0D0" stroke-width="1" /><polygon fill="#D0D0D0" opacity="100" points="664.0,522.0 676.0,513.0 688.0,508.0 688.0,490.0 638.0,490.0 644.0,500.0 650.0,509.0 657.0,516.0" stroke="#D0D0D0" stroke-width="1" /><polyline fill="none" opacity="100" points="601.0,411.0 601.0,426.0 607.0,426.0 607.0,431.0" stroke="#000" stroke-width="1" /><polyline fill="none" opacity="100" points="601.0,491.0 601.0,476.0 607.0,476.0 607.0,471.0" stroke="#000" stroke-width="1" /><polyline fill="none" opacity="100" points="634.0,420.0 684.0,420.0 684.0,366.0" stroke="#000" stroke-width="1" /><polyline fill="none" opacity="100" points="704.0,360.0 704.0,420.0 744.0,420.0 744.0,361.0" stroke="#000" stroke-width="1" /><polyline fill="none" opacity="100" points="760.0,366.0 760.0,477.0 811.0,477.0" stroke="#000" stroke-width="1" /><polyline fill="none" opacity="100" points="806.0,490.0 762.0,490.0 762.0,511.0" stroke="#000" stroke-width="1" /><polyline fill="none" opacity="100" points="745.0,505.0 745.0,490.0 738.0,490.0 738.0,503.0" stroke="#000" stroke-width="1" /><polyline fill="none" opacity="100" points="711.0,502.0 711.0,490.0 704.0,490.0 704.0,504.0" stroke="#000" stroke-width="1" /><polyline fill="none" opacity="100" points="638.0,490.0 688.0,490.0 688.0,508.0" stroke="#000" stroke-width="1" /><polyline fill="none" opacity="100" points="762.0,511.0 763.125,511.5703 764.25,512.1562 765.375,512.7578 766.5,513.375 767.625,514.0078 768.75,514.6562 769.875,515.3203 771.0,516.0 772.125,516.6953 773.25,517.4062 774.375,518.1328 775.5,518.875 776.625,519.6328 777.75,520.4062 778.875,521.1953 780.0,522.0" stroke="#000" stroke-width="1" /><polyline fill="none" opacity="100" points="704.0,504.0 706.6797,503.4766 709.3438,503.0312 711.9922,502.6641 714.625,502.375 717.2422,502.1641 719.8438,502.0312 722.4297,501.9766 725.0,502.0 727.5547,502.1016 730.0938,502.2812 732.6172,502.5391 735.125,502.875 737.6172,503.2891 740.0938,503.7812 742.5547,504.3516 745.0,505.0" stroke="#000" stroke-width="1" /><polyline fill="none" opacity="100" points="688.0,508.0 686.5,508.6406 685.0,509.3125 683.5,510.0156 682.0,510.75 680.5,511.5156 679.0,512.3125 677.5,513.1406 676.0,514.0 674.5,514.8906 673.0,515.8125 671.5,516.7656 670.0,517.75 668.5,518.7656 667.0,519.8125 665.5,520.8906 664.0,522.0" stroke="#000" stroke-width="1" /><polyline fill="none" opacity="100" points="664.0,522.0 662.1406,520.7031 660.3125,519.3125 658.5149,517.8267 656.75,516.25 655.0222,514.5913 653.3242,512.8359 651.6538,510.9795 650.0,509.0 648.3423,506.8564 646.707,504.6016 645.1118,502.2705 643.5625,499.875 642.0679,497.4326 640.6367,494.9609 639.2749,492.4717 638.0,490.0 636.8384,487.5986 635.7695,485.2266 634.7825,482.8618 633.875,480.5 633.0398,478.1265 632.2812,475.75 631.6016,473.375 631.0,471.0" stroke="#000" stroke-width="1" /><polyline fill="none" opacity="100" points="631.0,430.0 632.1953,425.0078 633.6562,420.1562 635.3853,415.4431 637.375,410.875 639.6108,406.4651 642.1172,402.1914 644.9014,398.0474 648.0,394.0 651.4814,389.9878 655.2578,386.0898 659.2708,382.3579 663.5,378.8125 667.9148,375.4858 672.4883,372.3945 677.2017,369.5532 682.0,367.0 686.8022,364.7866 691.668,362.8867 696.6326,361.2905 701.6875,360.0 706.8264,359.0063 712.0781,358.332 717.4473,357.9907 723.0,358.0 728.8574,358.3882 734.8594,359.1367 740.9006,360.2415 746.9375,361.6875 752.9021,363.4402 758.7617,365.5547 764.4858,368.0498 770.0,371.0 775.2056,374.5439 780.1445,378.5078 784.8271,382.7769 789.25,387.3125 793.4346,392.0552 797.3164,396.9531 800.8599,401.9707 804.0,407.0 806.6284,411.8809 808.8398,416.7344 810.6877,421.6277 812.1875,426.5625 813.3767,431.5618 814.2422,436.6289 814.7803,441.7583 815.0,447.0 814.9072,452.4409 814.5078,457.9648 813.8083,463.4934 812.8125,469.0 811.5217,474.446 809.9492,479.7891 808.103,485.001 806.0,490.0 803.6665,494.6631 801.082,499.0859 798.2356,503.3198 795.125,507.375 791.7429,511.2856 788.0938,515.0312 784.1797,518.6016 780.0,522.0" stroke="#000" stroke-width="1" /><polyline fill="none" opacity="100" points="671.0,468.0 671.0,434.0" stroke="#7F7F7F" stroke-width="1" /><polyline fill="none" opacity="100" points="667.0,468.0 667.0,434.0" stroke="#7F7F7F" stroke-width="1" /><polyline fill="none" opacity="100" points="663.0,468.0 663.0,434.0" stroke="#7F7F7F" stroke-width="1" /><polyline fill="none" opacity="100" points="659.0,468.0 659.0,434.0" stroke="#7F7F7F" stroke-width="1" /><polyline fill="none" opacity="100" points="655.0,468.0 655.0,434.0" stroke="#7F7F7F" stroke-width="1" /><polyline fill="none" opacity="100" points="651.0,468.0 651.0,434.0" stroke="#7F7F7F" stroke-width="1" /><polyline fill="none" opacity="100" points="647.0,468.0 647.0,434.0" stroke="#7F7F7F" stroke-width="1" /><polyline fill="none" opacity="100" points="643.0,468.0 643.0,434.0" stroke="#7F7F7F" stroke-width="1" /><polyline fill="none" opacity="100" points="639.0,468.0 639.0,434.0" stroke="#7F7F7F" stroke-width="1" /><polyline fill="none" opacity="100" points="635.0,468.0 635.0,434.0" stroke="#7F7F7F" stroke-width="1" /><polyline fill="none" opacity="100" points="631.0,468.0 631.0,434.0" stroke="#7F7F7F" stroke-width="1" /><polyline fill="none" opacity="100" points="627.0,468.0 627.0,434.0" stroke="#7F7F7F" stroke-width="1" /><polyline fill="none" opacity="100" points="623.0,468.0 623.0,434.0" stroke="#7F7F7F" stroke-width="1" /><polyline fill="none" opacity="100" points="619.0,468.0 619.0,434.0" stroke="#7F7F7F" stroke-width="1" /><polyline fill="none" opacity="100" points="615.0,468.0 615.0,434.0" stroke="#7F7F7F" stroke-width="1" /><polyline fill="none" opacity="100" points="611.0,468.0 611.0,434.0" stroke="#7F7F7F" stroke-width="1" /><polyline fill="none" opacity="100" points="607.0,468.0 607.0,434.0" stroke="#7F7F7F" stroke-width="1" /><polyline fill="none" opacity="100" points="603.0,468.0 603.0,434.0" stroke="#7F7F7F" stroke-width="1" /><polygon fill="#9B5509" opacity="100" points="678.0,434.0 596.0,434.0 596.0,431.0 678.0,431.0" stroke="#000" stroke-width="1" /><polygon fill="#9B5509" opacity="100" points="678.0,442.0 678.0,447.0 596.0,447.0 596.0,442.0" stroke="#000" stroke-width="1" /><polygon fill="#9B5509" opacity="100" points="678.0,455.0 678.0,460.0 596.0,460.0 596.0,455.0" stroke="#000" stroke-width="1" /><polygon fill="#9B5509" opacity="100" points="678.0,468.0 596.0,468.0 596.0,471.0 678.0,471.0" stroke="#000" stroke-width="1" /><polygon fill="#FFF" opacity="100" points="760.0,420.0 769.0,420.0 769.0,447.0 760.0,447.0" stroke="#000" stroke-width="1" /><text fill="#FFF" font-family="Arial" font-size="10" font-weight="normal" opacity="100" transform="rotate(-90.0 758.0,446.0) translate(0 10)" x="758.0" y="446.0">кассы</text><polyline fill="none" opacity="100" points="678.0,432.0 718.0,432.0" stroke="#000" stroke-width="0.5" /><polygon fill="none" opacity="100" points="722.0,470.0 715.0,470.0 715.0,477.0 722.0,477.0" stroke="#000" stroke-width="1" /><polyline fill="none" opacity="100" points="720.0,434.0 716.0,434.0" stroke="#090" stroke-width="1" /><polyline fill="none" opacity="100" points="720.0,438.0 716.0,438.0" stroke="#090" stroke-width="1" /><polyline fill="none" opacity="100" points="720.0,442.0 716.0,442.0" stroke="#090" stroke-width="1" /><polyline fill="none" opacity="100" points="720.0,446.0 716.0,446.0" stroke="#090" stroke-width="1" /><polyline fill="none" opacity="100" points="720.0,450.0 716.0,450.0" stroke="#090" stroke-width="1" /><polyline fill="none" opacity="100" points="720.0,454.0 716.0,454.0" stroke="#090" stroke-width="1" /><polyline fill="none" opacity="100" points="720.0,458.0 716.0,458.0" stroke="#090" stroke-width="1" /><polyline fill="none" opacity="100" points="720.0,462.0 716.0,462.0" stroke="#090" stroke-width="1" /><polyline fill="none" opacity="100" points="720.0,466.0 716.0,466.0" stroke="#090" stroke-width="1" /><polyline fill="none" opacity="100" points="710.0,476.0 710.0,472.0" stroke="#F00" stroke-width="1" /><polyline fill="none" opacity="100" points="706.0,476.0 706.0,472.0" stroke="#F00" stroke-width="1" /><polyline fill="none" opacity="100" points="702.0,476.0 702.0,472.0" stroke="#F00" stroke-width="1" /><polyline fill="none" opacity="100" points="698.0,476.0 698.0,472.0" stroke="#F00" stroke-width="1" /><polyline fill="none" opacity="100" points="694.0,476.0 694.0,472.0" stroke="#F00" stroke-width="1" /><polyline fill="none" opacity="100" points="690.0,476.0 690.0,472.0" stroke="#F00" stroke-width="1" /><polyline fill="none" opacity="100" points="686.0,476.0 686.0,472.0" stroke="#F00" stroke-width="1" /><polyline fill="none" opacity="100" points="682.0,476.0 682.0,472.0" stroke="#F00" stroke-width="1" /><polyline fill="none" opacity="100" points="678.0,476.0 678.0,472.0" stroke="#F00" stroke-width="1" /><polyline fill="none" opacity="100" points="692.0,457.0 692.0,468.0" stroke="#F00" stroke-width="1" /><polygon fill="#F00" opacity="100" points="691.1459,464.8124 692.0,468.0 692.8541,464.8124" stroke="#F00" stroke-width="1" /><polyline fill="none" opacity="100" points="696.0,498.0 696.0,516.0" stroke="#F00" stroke-width="1" /><polygon fill="#F00" opacity="100" points="694.6024,510.784 696.0,516.0 697.3976,510.784" stroke="#F00" stroke-width="1" /><polyline fill="none" opacity="100" points="740.0,440.0 725.0,440.0" stroke="#090" stroke-width="1" /><polygon fill="#090" opacity="100" points="729.3467,438.8353 725.0,440.0 729.3467,441.1647" stroke="#090" stroke-width="1" /><polyline fill="none" opacity="100" points="753.0,502.0 753.0,483.0" stroke="#090" stroke-width="1" /><polygon fill="#090" opacity="100" points="754.4753,488.5058 753.0,483.0 751.5247,488.5058" stroke="#090" stroke-width="1" /><polygon fill="#34349C" opacity="100" points="756.0,460.0 756.0,464.0 757.0,464.0 757.0,460.0" stroke="#34349C" stroke-width="1" /><polygon fill="#F00" opacity="100" points="756.0,456.0 756.0,460.0 757.0,460.0 757.0,456.0" stroke="#F00" stroke-width="1" /><text fill="#00AFAF" font-family="Arial" font-size="15" font-weight="normal" opacity="100" transform="rotate(-0.0 227.0,595.0) translate(0 15)" x="227.0" y="595.0">улица Баженова</text><text fill="#00AFAF" font-family="Arial" font-size="15" font-weight="normal" opacity="100" transform="rotate(30.0 -144.0,370.0) translate(0 15)" x="-144.0" y="370.0">Шипиловский проезд</text><g transform="rotate(-55.0,325.0,440.0)"><text fill="#FFD900" font-family="Arial" font-size="25" font-weight="normal" opacity="100" x="429.25" y="840.5">1</text><text fill="#FFD900" font-family="Arial" font-size="25" font-weight="normal" opacity="100" x="45.25" y="284.5">2</text><text fill="#FFD900" font-family="Arial" font-size="25" font-weight="normal" opacity="100" x="221.25" y="118.5">3</text></g></g></g></svg>