<?xml version="1.0" encoding="utf-8" ?>
<svg baseProfile="tiny" height="1010px" version="1.2" width="770px" xmlns="http://www.w3.org/2000/svg" xmlns:ev="http://www.w3.org/2001/xml-events" xmlns:xlink="http://www.w3.org/1999/xlink"><defs /><g><g transform="rotate(-63.0,385.0,505.0)"><polygon fill="#9CA4A4" opacity="100" points="120.0,554.0 120.0,524.0 570.0,524.0 570.0,554.0" stroke="#000" stroke-width="1" /><polygon fill="#9CA4A4" opacity="100" points="570.0,444.0 570.0,414.0 120.0,414.0 120.0,444.0" stroke="#000" stroke-width="1" /><text fill="#4C4C4C" font-family="Arial" font-size="25" font-weight="bold" opacity="100" transform="rotate(-0.0 298.0,454.0) translate(0 25)" x="298.0" y="454.0">Отрадное</text><text fill="#4C4C4C" font-family="Arial" font-size="20" font-weight="normal" opacity="100" transform="rotate(-0.0 122.0,393.0) translate(0 20)" x="122.0" y="393.0">&lt;&lt; Владыкино</text><text fill="#4C4C4C" font-family="Arial" font-size="20" font-weight="normal" opacity="100" transform="rotate(-0.0 461.0,554.0) translate(0 20)" x="461.0" y="554.0">Бибирево &gt;&gt;</text><polyline fill="none" opacity="100" points="60.0,463.0 120.0,463.0 120.0,444.0" stroke="#000" stroke-width="1" /><polyline fill="none" opacity="100" points="154.0,565.0 118.0,565.0 118.0,371.0 154.0,371.0" stroke="#000" stroke-width="1" /><polyline fill="none" opacity="100" points="52.0,371.0 88.0,371.0 88.0,430.0 -28.0,430.0 -28.0,538.0 88.0,538.0 88.0,565.0 52.0,565.0" stroke="#000" stroke-width="1" /><polyline fill="none" opacity="100" points="52.0,347.0 154.0,347.0" stroke="#000" stroke-width="1" /><polyline fill="none" opacity="100" points="120.0,589.0 120.0,565.0" stroke="#000" stroke-width="1" /><polyline fill="none" opacity="100" points="124.0,589.0 124.0,565.0" stroke="#000" stroke-width="1" /><polyline fill="none" opacity="100" points="128.0,589.0 128.0,565.0" stroke="#000" stroke-width="1" /><polyline fill="none" opacity="100" points="132.0,589.0 132.0,565.0" stroke="#000" stroke-width="1" /><polyline fill="none" opacity="100" points="136.0,589.0 136.0,565.0" stroke="#000" stroke-width="1" /><polyline fill="none" opacity="100" points="140.0,589.0 140.0,565.0" stroke="#000" stroke-width="1" /><polyline fill="none" opacity="100" points="144.0,589.0 144.0,565.0" stroke="#000" stroke-width="1" /><polyline fill="none" opacity="100" points="148.0,589.0 148.0,565.0" stroke="#000" stroke-width="1" /><polyline fill="none" opacity="100" points="152.0,589.0 152.0,565.0" stroke="#000" stroke-width="1" /><polyline fill="none" opacity="100" points="60.0,505.0 120.0,505.0 120.0,524.0" stroke="#000" stroke-width="1" /><polyline fill="none" opacity="100" points="52.0,589.0 154.0,589.0" stroke="#000" stroke-width="1" /><polyline fill="none" opacity="100" points="120.0,371.0 120.0,347.0" stroke="#000" stroke-width="1" /><polyline fill="none" opacity="100" points="124.0,371.0 124.0,347.0" stroke="#000" stroke-width="1" /><polyline fill="none" opacity="100" points="128.0,371.0 128.0,347.0" stroke="#000" stroke-width="1" /><polyline fill="none" opacity="100" points="132.0,371.0 132.0,347.0" stroke="#000" stroke-width="1" /><polyline fill="none" opacity="100" points="136.0,371.0 136.0,347.0" stroke="#000" stroke-width="1" /><polyline fill="none" opacity="100" points="140.0,371.0 140.0,347.0" stroke="#000" stroke-width="1" /><polyline fill="none" opacity="100" points="144.0,371.0 144.0,347.0" stroke="#000" stroke-width="1" /><polyline fill="none" opacity="100" points="148.0,371.0 148.0,347.0" stroke="#000" stroke-width="1" /><polyline fill="none" opacity="100" points="152.0,371.0 152.0,347.0" stroke="#000" stroke-width="1" /><polyline fill="none" opacity="100" points="54.0,347.0 54.0,371.0" stroke="#000" stroke-width="1" /><polyline fill="none" opacity="100" points="58.0,347.0 58.0,371.0" stroke="#000" stroke-width="1" /><polyline fill="none" opacity="100" points="62.0,347.0 62.0,371.0" stroke="#000" stroke-width="1" /><polyline fill="none" opacity="100" points="66.0,347.0 66.0,371.0" stroke="#000" stroke-width="1" /><polyline fill="none" opacity="100" points="70.0,347.0 70.0,371.0" stroke="#000" stroke-width="1" /><polyline fill="none" opacity="100" points="74.0,347.0 74.0,371.0" stroke="#000" stroke-width="1" /><polyline fill="none" opacity="100" points="78.0,347.0 78.0,371.0" stroke="#000" stroke-width="1" /><polyline fill="none" opacity="100" points="82.0,347.0 82.0,371.0" stroke="#000" stroke-width="1" /><polyline fill="none" opacity="100" points="86.0,347.0 86.0,371.0" stroke="#000" stroke-width="1" /><polyline fill="none" opacity="100" points="54.0,589.0 54.0,565.0" stroke="#000" stroke-width="1" /><polyline fill="none" opacity="100" points="58.0,589.0 58.0,565.0" stroke="#000" stroke-width="1" /><polyline fill="none" opacity="100" points="62.0,589.0 62.0,565.0" stroke="#000" stroke-width="1" /><polyline fill="none" opacity="100" points="66.0,589.0 66.0,565.0" stroke="#000" stroke-width="1" /><polyline fill="none" opacity="100" points="70.0,589.0 70.0,565.0" stroke="#000" stroke-width="1" /><polyline fill="none" opacity="100" points="74.0,589.0 74.0,565.0" stroke="#000" stroke-width="1" /><polyline fill="none" opacity="100" points="78.0,589.0 78.0,565.0" stroke="#000" stroke-width="1" /><polyline fill="none" opacity="100" points="82.0,589.0 82.0,565.0" stroke="#000" stroke-width="1" /><polyline fill="none" opacity="100" points="86.0,589.0 86.0,565.0" stroke="#000" stroke-width="1" /><polyline fill="none" opacity="100" points="62.0,463.0 62.0,505.0" stroke="#000" stroke-width="1" /><polyline fill="none" opacity="100" points="66.0,463.0 66.0,505.0" stroke="#000" stroke-width="1" /><polyline fill="none" opacity="100" points="70.0,463.0 70.0,505.0" stroke="#000" stroke-width="1" /><polyline fill="none" opacity="100" points="74.0,463.0 74.0,505.0" stroke="#000" stroke-width="1" /><polyline fill="none" opacity="100" points="78.0,463.0 78.0,505.0" stroke="#000" stroke-width="1" /><polyline fill="none" opacity="100" points="82.0,463.0 82.0,505.0" stroke="#000" stroke-width="1" /><polyline fill="none" opacity="100" points="86.0,463.0 86.0,505.0" stroke="#000" stroke-width="1" /><polyline fill="none" opacity="100" points="90.0,463.0 90.0,505.0" stroke="#000" stroke-width="1" /><polyline fill="none" opacity="100" points="94.0,463.0 94.0,505.0" stroke="#000" stroke-width="1" /><polyline fill="none" opacity="100" points="98.0,463.0 98.0,505.0" stroke="#000" stroke-width="1" /><polyline fill="none" opacity="100" points="102.0,463.0 102.0,505.0" stroke="#000" stroke-width="1" /><polyline fill="none" opacity="100" points="106.0,463.0 106.0,505.0" stroke="#000" stroke-width="1" /><polyline fill="none" opacity="100" points="110.0,463.0 110.0,505.0" stroke="#000" stroke-width="1" /><polyline fill="none" opacity="100" points="114.0,463.0 114.0,505.0" stroke="#000" stroke-width="1" /><polygon fill="#D0D0D0" opacity="100" points="88.0,458.0 58.0,458.0 58.0,463.0 84.0,463.0 84.0,505.0 58.0,505.0 58.0,510.0 88.0,510.0" stroke="#000" stroke-width="1" /><polyline fill="none" opacity="100" points="-28.0,492.0 -42.0,492.0 -42.0,461.0 -28.0,461.0" stroke="#000" stroke-width="1" /><text fill="#FFF" font-family="Arial" font-size="10" font-weight="normal" opacity="100" transform="rotate(90.0 -29.0,465.0) translate(0 10)" x="-29.0" y="465.0">кассы</text><polygon fill="none" opacity="100" points="51.0,455.0 48.0,460.0 53.0,463.0 56.0,458.0" stroke="#000" stroke-width="1" /><polyline fill="none" opacity="100" points="26.0,504.0 -27.0,504.0" stroke="#000" stroke-width="0.5" /><polyline fill="none" opacity="100" points="21.0,499.0 26.0,502.0" stroke="#090" stroke-width="1" /><polyline fill="none" opacity="100" points="23.2998,495.7272 28.2998,498.7272" stroke="#090" stroke-width="1" /><polyline fill="none" opacity="100" points="25.5996,492.4545 30.5996,495.4545" stroke="#090" stroke-width="1" /><polyline fill="none" opacity="100" points="27.8993,489.1817 32.8993,492.1817" stroke="#090" stroke-width="1" /><polyline fill="none" opacity="100" points="30.1991,485.9089 35.1991,488.9089" stroke="#090" stroke-width="1" /><polyline fill="none" opacity="100" points="32.4989,482.6362 37.4989,485.6362" stroke="#090" stroke-width="1" /><polyline fill="none" opacity="100" points="34.7987,479.3634 39.7987,482.3634" stroke="#090" stroke-width="1" /><polyline fill="none" opacity="100" points="37.0985,476.0906 42.0985,479.0906" stroke="#090" stroke-width="1" /><polyline fill="none" opacity="100" points="39.3983,472.8179 44.3983,475.8179" stroke="#090" stroke-width="1" /><polyline fill="none" opacity="100" points="41.698,469.5451 46.698,472.5451" stroke="#090" stroke-width="1" /><polyline fill="none" opacity="100" points="43.9978,466.2723 48.9978,469.2723" stroke="#090" stroke-width="1" /><polyline fill="none" opacity="100" points="46.2976,462.9996 51.2976,465.9996" stroke="#090" stroke-width="1" /><polyline fill="none" opacity="100" points="55.0,510.0 55.0,505.0" stroke="#F00" stroke-width="1" /><polyline fill="none" opacity="100" points="51.0,510.0 51.0,505.0" stroke="#F00" stroke-width="1" /><polyline fill="none" opacity="100" points="47.0,510.0 47.0,505.0" stroke="#F00" stroke-width="1" /><polyline fill="none" opacity="100" points="43.0,510.0 43.0,505.0" stroke="#F00" stroke-width="1" /><polyline fill="none" opacity="100" points="39.0,510.0 39.0,505.0" stroke="#F00" stroke-width="1" /><polyline fill="none" opacity="100" points="35.0,510.0 35.0,505.0" stroke="#F00" stroke-width="1" /><polyline fill="none" opacity="100" points="31.0,510.0 31.0,505.0" stroke="#F00" stroke-width="1" /><polyline fill="none" opacity="100" points="27.0,510.0 27.0,505.0" stroke="#F00" stroke-width="1" /><polygon fill="#FFF" opacity="0.85" points="89.0,458.0 117.0,458.0 117.0,510.0 89.0,510.0" stroke="#FFF" stroke-width="1" /><polyline fill="none" opacity="1.0" points="718.0,225.0 718.0,422.0 619.0,422.0 619.0,454.0 570.0,454.0 570.0,444.0" stroke="#000" stroke-width="1" /><polyline fill="none" opacity="1.0" points="718.0,701.0 718.0,545.0 619.0,545.0 619.0,514.0 570.0,514.0 570.0,524.0" stroke="#000" stroke-width="1" /><polyline fill="none" opacity="1.0" points="749.0,225.0 749.0,347.0 854.0,347.0" stroke="#000" stroke-width="1" /><polyline fill="none" opacity="1.0" points="854.0,371.0 749.0,371.0 749.0,565.0 854.0,565.0" stroke="#000" stroke-width="1" /><polyline fill="none" opacity="1.0" points="749.0,700.0 749.0,589.0 854.0,589.0" stroke="#000" stroke-width="1" /><polyline fill="none" opacity="1.0" points="755.0,700.0 755.0,620.0" stroke="#000" stroke-width="1" /><polyline fill="none" opacity="1.0" points="786.0,620.0 786.0,701.0" stroke="#000" stroke-width="1" /><polyline fill="none" opacity="1.0" points="749.0,700.0 749.375,700.4688 749.75,700.875 750.125,701.2188 750.5,701.5 750.875,701.7188 751.25,701.875 751.625,701.9688 752.0,702.0 752.375,701.9688 752.75,701.875 753.125,701.7188 753.5,701.5 753.875,701.2188 754.25,700.875 754.625,700.4688 755.0,700.0" stroke="#000" stroke-width="1" /><polyline fill="none" opacity="1.0" points="718.0,701.0 719.7188,705.8516 721.625,710.2812 723.7249,714.2891 726.0,717.875 728.4138,721.0391 731.0273,723.7812 733.8589,726.1016 737.0,728.0 740.6216,729.4766 744.5039,730.5312 748.5005,731.1641 752.5625,731.375 756.6167,731.1641 760.5898,730.5312 764.4331,729.4766 768.0,728.0 771.0708,726.1016 773.8164,723.7812 776.3284,721.0391 778.625,717.875 780.7673,714.2891 782.7188,710.2812 784.4609,705.8516 786.0,701.0" stroke="#000" stroke-width="1" /><polyline fill="none" opacity="1.0" points="572.0,454.0 572.0,514.0" stroke="#000" stroke-width="1" /><polyline fill="none" opacity="1.0" points="576.0,454.0 576.0,514.0" stroke="#000" stroke-width="1" /><polyline fill="none" opacity="1.0" points="580.0,454.0 580.0,514.0" stroke="#000" stroke-width="1" /><polyline fill="none" opacity="1.0" points="584.0,454.0 584.0,514.0" stroke="#000" stroke-width="1" /><polyline fill="none" opacity="1.0" points="588.0,454.0 588.0,514.0" stroke="#000" stroke-width="1" /><polyline fill="none" opacity="1.0" points="592.0,454.0 592.0,514.0" stroke="#000" stroke-width="1" /><polyline fill="none" opacity="1.0" points="596.0,454.0 596.0,514.0" stroke="#000" stroke-width="1" /><polyline fill="none" opacity="1.0" points="600.0,454.0 600.0,514.0" stroke="#000" stroke-width="1" /><polyline fill="none" opacity="1.0" points="604.0,454.0 604.0,514.0" stroke="#000" stroke-width="1" /><polyline fill="none" opacity="1.0" points="608.0,454.0 608.0,514.0" stroke="#000" stroke-width="1" /><polyline fill="none" opacity="1.0" points="612.0,454.0 612.0,514.0" stroke="#000" stroke-width="1" /><polyline fill="none" opacity="1.0" points="616.0,454.0 616.0,514.0" stroke="#000" stroke-width="1" /><polyline fill="none" opacity="1.0" points="820.0,371.0 820.0,347.0" stroke="#000" stroke-width="1" /><polyline fill="none" opacity="1.0" points="824.0,371.0 824.0,347.0" stroke="#000" stroke-width="1" /><polyline fill="none" opacity="1.0" points="828.0,371.0 828.0,347.0" stroke="#000" stroke-width="1" /><polyline fill="none" opacity="1.0" points="832.0,371.0 832.0,347.0" stroke="#000" stroke-width="1" /><polyline fill="none" opacity="1.0" points="836.0,371.0 836.0,347.0" stroke="#000" stroke-width="1" /><polyline fill="none" opacity="1.0" points="840.0,371.0 840.0,347.0" stroke="#000" stroke-width="1" /><polyline fill="none" opacity="1.0" points="844.0,371.0 844.0,347.0" stroke="#000" stroke-width="1" /><polyline fill="none" opacity="1.0" points="848.0,371.0 848.0,347.0" stroke="#000" stroke-width="1" /><polyline fill="none" opacity="1.0" points="852.0,371.0 852.0,347.0" stroke="#000" stroke-width="1" /><polyline fill="none" opacity="1.0" points="820.0,589.0 820.0,565.0" stroke="#000" stroke-width="1" /><polyline fill="none" opacity="1.0" points="824.0,589.0 824.0,565.0" stroke="#000" stroke-width="1" /><polyline fill="none" opacity="1.0" points="828.0,589.0 828.0,565.0" stroke="#000" stroke-width="1" /><polyline fill="none" opacity="1.0" points="832.0,589.0 832.0,565.0" stroke="#000" stroke-width="1" /><polyline fill="none" opacity="1.0" points="836.0,589.0 836.0,565.0" stroke="#000" stroke-width="1" /><polyline fill="none" opacity="1.0" points="840.0,589.0 840.0,565.0" stroke="#000" stroke-width="1" /><polyline fill="none" opacity="1.0" points="844.0,589.0 844.0,565.0" stroke="#000" stroke-width="1" /><polyline fill="none" opacity="1.0" points="848.0,589.0 848.0,565.0" stroke="#000" stroke-width="1" /><polyline fill="none" opacity="1.0" points="852.0,589.0 852.0,565.0" stroke="#000" stroke-width="1" /><polygon fill="#D0D0D0" opacity="1.0" points="718.0,455.0 710.0,455.0 710.0,512.0 718.0,512.0" stroke="#000" stroke-width="1" /><polyline fill="none" opacity="1.0" points="619.0,453.0 650.0,453.0" stroke="#000" stroke-width="0.5" /><polygon fill="none" opacity="1.0" points="680.0,510.0 678.0,505.0 673.0,507.0 675.0,512.0" stroke="#000" stroke-width="1" /><polyline fill="none" opacity="1.0" points="672.0,503.0 677.0,501.0" stroke="#090" stroke-width="1" /><polyline fill="none" opacity="1.0" points="670.4884,499.2966 675.4884,497.2966" stroke="#090" stroke-width="1" /><polyline fill="none" opacity="1.0" points="668.9768,495.5932 673.9768,493.5932" stroke="#090" stroke-width="1" /><polyline fill="none" opacity="1.0" points="667.4652,491.8898 672.4652,489.8898" stroke="#090" stroke-width="1" /><polyline fill="none" opacity="1.0" points="665.9536,488.1864 670.9536,486.1864" stroke="#090" stroke-width="1" /><polyline fill="none" opacity="1.0" points="664.4421,484.483 669.4421,482.483" stroke="#090" stroke-width="1" /><polyline fill="none" opacity="1.0" points="662.9305,480.7797 667.9305,478.7797" stroke="#090" stroke-width="1" /><polyline fill="none" opacity="1.0" points="661.4189,477.0763 666.4189,475.0763" stroke="#090" stroke-width="1" /><polyline fill="none" opacity="1.0" points="659.9073,473.3729 664.9073,471.3729" stroke="#090" stroke-width="1" /><polyline fill="none" opacity="1.0" points="658.3957,469.6695 663.3957,467.6695" stroke="#090" stroke-width="1" /><polyline fill="none" opacity="1.0" points="656.8841,465.9661 661.8841,463.9661" stroke="#090" stroke-width="1" /><polyline fill="none" opacity="1.0" points="655.3725,462.2627 660.3725,460.2627" stroke="#090" stroke-width="1" /><polyline fill="none" opacity="1.0" points="653.8609,458.5593 658.8609,456.5593" stroke="#090" stroke-width="1" /><polyline fill="none" opacity="1.0" points="652.3494,454.8559 657.3494,452.8559" stroke="#090" stroke-width="1" /><polyline fill="none" opacity="1.0" points="680.0,516.0 675.0,516.0" stroke="#F00" stroke-width="1" /><polyline fill="none" opacity="1.0" points="680.0,520.0 675.0,520.0" stroke="#F00" stroke-width="1" /><polyline fill="none" opacity="1.0" points="680.0,524.0 675.0,524.0" stroke="#F00" stroke-width="1" /><polyline fill="none" opacity="1.0" points="680.0,528.0 675.0,528.0" stroke="#F00" stroke-width="1" /><polyline fill="none" opacity="1.0" points="680.0,532.0 675.0,532.0" stroke="#F00" stroke-width="1" /><polyline fill="none" opacity="1.0" points="680.0,536.0 675.0,536.0" stroke="#F00" stroke-width="1" /><polyline fill="none" opacity="1.0" points="680.0,540.0 675.0,540.0" stroke="#F00" stroke-width="1" /><polyline fill="none" opacity="1.0" points="619.0,424.0 606.0,424.0 606.0,452.0 619.0,452.0" stroke="#000" stroke-width="1" /><text fill="#000" font-family="Arial" font-size="10" font-weight="normal" opacity="1.0" transform="rotate(90.0 619.0,427.0) translate(0 10)" x="619.0" y="427.0">кассы</text><polyline fill="none" opacity="1.0" points="698.0,530.0 711.0,530.0" stroke="#F00" stroke-width="1" /><polygon fill="#F00" opacity="1.0" points="707.2329,531.0094 711.0,530.0 707.2329,528.9906" stroke="#F00" stroke-width="1" /><polyline fill="none" opacity="1.0" points="45.0,519.0 45.0,524.0 64.0,524.0" stroke="#F00" stroke-width="1" /><polygon fill="#F00" opacity="1.0" points="58.4942,525.4753 64.0,524.0 58.4942,522.5247" stroke="#F00" stroke-width="1" /><polyline fill="none" opacity="1.0" points="687.0,459.0 675.0,464.0" stroke="#090" stroke-width="1" /><polygon fill="#090" opacity="1.0" points="678.0891,461.6194 675.0,464.0 678.8656,463.4829" stroke="#090" stroke-width="1" /><polyline fill="none" opacity="1.0" points="16.0,470.0 29.0,478.0" stroke="#090" stroke-width="1" /><polygon fill="#090" opacity="1.0" points="24.6117,476.6912 29.0,478.0 25.8541,474.6724" stroke="#090" stroke-width="1" /><polygon fill="#34349C" opacity="1.0" points="632.0,516.0 627.0,516.0 627.0,514.0 632.0,514.0" stroke="#34349C" stroke-width="1" /><polygon fill="#34349C" opacity="1.0" points="349.0,487.0 349.0,492.0 347.0,492.0 347.0,487.0" stroke="#34349C" stroke-width="1" /><polygon fill="#34349C" opacity="1.0" points="63.0,456.0 68.0,456.0 68.0,454.0 63.0,454.0" stroke="#34349C" stroke-width="1" /><polygon fill="#F00" opacity="1.0" points="637.0,516.0 632.0,516.0 632.0,514.0 637.0,514.0" stroke="#F00" stroke-width="1" /><polygon fill="#F00" opacity="1.0" points="349.0,482.0 349.0,487.0 347.0,487.0 347.0,482.0" stroke="#F00" stroke-width="1" /><polygon fill="#F00" opacity="1.0" points="58.0,456.0 63.0,456.0 63.0,454.0 58.0,454.0" stroke="#F00" stroke-width="1" /><text fill="#00AFAF" font-family="Arial" font-size="15" font-weight="normal" opacity="1.0" transform="rotate(-0.0 790.0,466.0) translate(0 15)" x="790.0" y="466.0">Северный бульвар</text><text fill="#00AFAF" font-family="Arial" font-size="15" font-weight="normal" opacity="1.0" transform="rotate(-0.0 -180.0,473.0) translate(0 15)" x="-180.0" y="473.0">улица Хачатуряна</text><text fill="#00AFAF" font-family="Arial" font-size="15" font-weight="normal" opacity="1.0" transform="rotate(90.0 648.0,218.0) translate(0 15)" x="648.0" y="218.0">улица Декабристов</text><text fill="#00AFAF" font-family="Arial" font-size="15" font-weight="normal" opacity="1.0" transform="rotate(90.0 648.0,658.0) translate(0 15)" x="648.0" y="658.0">улица Декабристов</text><text fill="#00AFAF" font-family="Arial" font-size="15" font-weight="normal" opacity="1.0" transform="rotate(-0.0 428.0,65.0) translate(0 15)" x="428.0" y="65.0">улица Санникова</text><g transform="rotate(63.0,385.0,505.0)"><text fill="#FFD900" font-family="Arial" font-size="25" font-weight="normal" opacity="1.0" x="278.25" y="122.5">1</text><text fill="#FFD900" font-family="Arial" font-size="25" font-weight="normal" opacity="1.0" x="413.25" y="26.5">2</text><text fill="#FFD900" font-family="Arial" font-size="25" font-weight="normal" opacity="1.0" x="682.25" y="151.5">3</text><text fill="#FFD900" font-family="Arial" font-size="25" font-weight="normal" opacity="1.0" x="690.25" y="198.5">4</text><text fill="#FFD900" font-family="Arial" font-size="25" font-weight="normal" opacity="1.0" x="364.25" y="775.5">5</text><text fill="#FFD900" font-family="Arial" font-size="25" font-weight="normal" opacity="1.0" x="335.25" y="838.5">6</text><text fill="#FFD900" font-family="Arial" font-size="25" font-weight="normal" opacity="1.0" x="68.25" y="710.5">7</text><text fill="#FFD900" font-family="Arial" font-size="25" font-weight="normal" opacity="1.0" x="99.25" y="653.5">8</text></g></g></g></svg>