<?xml version="1.0" encoding="utf-8" ?>
<svg baseProfile="tiny" height="580px" version="1.2" width="810px" xmlns="http://www.w3.org/2000/svg" xmlns:ev="http://www.w3.org/2001/xml-events" xmlns:xlink="http://www.w3.org/1999/xlink"><defs /><g><g transform="rotate(-30.0,405.0,290.0)"><polygon fill="#FCDC04" opacity="100" points="80.0,285.0 80.0,255.0 529.0,255.0 529.0,285.0" stroke="#000" stroke-width="1" /><polygon fill="#FCDC04" opacity="100" points="80.0,393.0 80.0,363.0 529.0,363.0 529.0,393.0" stroke="#000" stroke-width="1" /><text fill="#000" font-family="Arial" font-size="20" font-weight="normal" opacity="100" transform="rotate(-0.0 139.0,231.0) translate(0 20)" x="139.0" y="231.0">&lt;&lt; Говорово</text><text fill="#000" font-family="Arial" font-size="20" font-weight="normal" opacity="100" transform="rotate(-0.0 310.0,394.0) translate(0 20)" x="310.0" y="394.0">Мичуринский проспект &gt;&gt;</text><text fill="#000" font-family="Arial" font-size="25" font-weight="bold" opacity="100" transform="rotate(-0.0 262.0,316.0) translate(0 25)" x="262.0" y="316.0">Озёрная</text><text fill="#FCDC04" font-family="Arial" font-size="20" font-weight="normal" opacity="100" transform="rotate(-0.0 138.0,230.0) translate(0 20)" x="138.0" y="230.0">&lt;&lt; Говорово</text><text fill="#FCDC04" font-family="Arial" font-size="20" font-weight="normal" opacity="100" transform="rotate(-0.0 309.0,393.0) translate(0 20)" x="309.0" y="393.0">Мичуринский проспект &gt;&gt;</text><text fill="#FCDC04" font-family="Arial" font-size="25" font-weight="bold" opacity="100" transform="rotate(-0.0 261.0,315.0) translate(0 25)" x="261.0" y="315.0">Озёрная</text><polygon fill="#94949C" opacity="100" points="315.0,324.0 315.0,320.0 316.0,320.0 316.0,324.0" stroke="#94949C" stroke-width="1" /><polygon fill="#F00" opacity="100" points="315.0,328.0 315.0,324.0 316.0,324.0 316.0,328.0" stroke="#F00" stroke-width="1" /><polyline fill="none" opacity="100" points="529.0,285.0 529.0,291.0 619.0,291.0 619.0,270.0 675.0,270.0 675.0,235.0 678.0,235.0" stroke="#000" stroke-width="1" /><polyline fill="none" opacity="100" points="694.0,235.0 697.0,235.0 697.0,242.0 747.0,242.0 747.0,202.0" stroke="#000" stroke-width="1" /><polyline fill="none" opacity="100" points="618.0,305.0 549.0,305.0" stroke="#000" stroke-width="1" /><polyline fill="none" opacity="100" points="827.0,202.0 827.0,257.0 728.0,257.0 728.0,440.0 768.0,440.0" stroke="#000" stroke-width="1" /><polyline fill="none" opacity="100" points="809.0,202.0 809.0,242.0 765.0,242.0 765.0,202.0" stroke="#000" stroke-width="1" /><polyline fill="none" opacity="100" points="768.0,458.0 714.0,458.0 714.0,257.0 697.0,257.0 697.0,366.0 617.0,366.0 617.0,343.0 529.0,343.0 529.0,363.0" stroke="#000" stroke-width="1" /><polyline fill="none" opacity="100" points="768.0,444.0 728.0,444.0" stroke="#000" stroke-width="0.5" /><polyline fill="none" opacity="100" points="751.0,202.0 751.0,242.0" stroke="#000" stroke-width="0.5" /><polyline fill="none" opacity="100" points="813.0,202.0 813.0,242.0" stroke="#000" stroke-width="0.5" /><polyline fill="none" opacity="100" points="702.0,245.0 723.0,245.0" stroke="#000" stroke-width="0.5" /><polyline fill="none" opacity="100" points="766.0,458.0 766.0,444.0" stroke="#000" stroke-width="1" /><polyline fill="none" opacity="100" points="762.0,458.0 762.0,444.0" stroke="#000" stroke-width="1" /><polyline fill="none" opacity="100" points="758.0,458.0 758.0,444.0" stroke="#000" stroke-width="1" /><polyline fill="none" opacity="100" points="754.0,458.0 754.0,444.0" stroke="#000" stroke-width="1" /><polyline fill="none" opacity="100" points="750.0,458.0 750.0,444.0" stroke="#000" stroke-width="1" /><polyline fill="none" opacity="100" points="746.0,458.0 746.0,444.0" stroke="#000" stroke-width="1" /><polyline fill="none" opacity="100" points="742.0,458.0 742.0,444.0" stroke="#000" stroke-width="1" /><polyline fill="none" opacity="100" points="738.0,458.0 738.0,444.0" stroke="#000" stroke-width="1" /><polyline fill="none" opacity="100" points="734.0,458.0 734.0,444.0" stroke="#000" stroke-width="1" /><polyline fill="none" opacity="100" points="730.0,458.0 730.0,444.0" stroke="#000" stroke-width="1" /><polyline fill="none" opacity="100" points="614.0,305.0 614.0,343.0" stroke="#000" stroke-width="1" /><polyline fill="none" opacity="100" points="610.0,305.0 610.0,343.0" stroke="#000" stroke-width="1" /><polyline fill="none" opacity="100" points="606.0,305.0 606.0,343.0" stroke="#000" stroke-width="1" /><polyline fill="none" opacity="100" points="602.0,305.0 602.0,343.0" stroke="#000" stroke-width="1" /><polyline fill="none" opacity="100" points="598.0,305.0 598.0,343.0" stroke="#000" stroke-width="1" /><polyline fill="none" opacity="100" points="594.0,305.0 594.0,343.0" stroke="#000" stroke-width="1" /><polyline fill="none" opacity="100" points="590.0,305.0 590.0,343.0" stroke="#000" stroke-width="1" /><polyline fill="none" opacity="100" points="586.0,305.0 586.0,343.0" stroke="#000" stroke-width="1" /><polyline fill="none" opacity="100" points="582.0,305.0 582.0,343.0" stroke="#000" stroke-width="1" /><polyline fill="none" opacity="100" points="578.0,305.0 578.0,343.0" stroke="#000" stroke-width="1" /><polyline fill="none" opacity="100" points="574.0,305.0 574.0,343.0" stroke="#000" stroke-width="1" /><polyline fill="none" opacity="100" points="570.0,305.0 570.0,343.0" stroke="#000" stroke-width="1" /><polyline fill="none" opacity="100" points="566.0,305.0 566.0,343.0" stroke="#000" stroke-width="1" /><polyline fill="none" opacity="100" points="562.0,305.0 562.0,343.0" stroke="#000" stroke-width="1" /><polyline fill="none" opacity="100" points="558.0,305.0 558.0,343.0" stroke="#000" stroke-width="1" /><polyline fill="none" opacity="100" points="554.0,305.0 554.0,343.0" stroke="#000" stroke-width="1" /><polyline fill="none" opacity="100" points="827.0,204.0 813.0,204.0" stroke="#000" stroke-width="1" /><polyline fill="none" opacity="100" points="827.0,208.0 813.0,208.0" stroke="#000" stroke-width="1" /><polyline fill="none" opacity="100" points="827.0,212.0 813.0,212.0" stroke="#000" stroke-width="1" /><polyline fill="none" opacity="100" points="827.0,216.0 813.0,216.0" stroke="#000" stroke-width="1" /><polyline fill="none" opacity="100" points="827.0,220.0 813.0,220.0" stroke="#000" stroke-width="1" /><polyline fill="none" opacity="100" points="827.0,224.0 813.0,224.0" stroke="#000" stroke-width="1" /><polyline fill="none" opacity="100" points="827.0,228.0 813.0,228.0" stroke="#000" stroke-width="1" /><polyline fill="none" opacity="100" points="827.0,232.0 813.0,232.0" stroke="#000" stroke-width="1" /><polyline fill="none" opacity="100" points="827.0,236.0 813.0,236.0" stroke="#000" stroke-width="1" /><polyline fill="none" opacity="100" points="827.0,240.0 813.0,240.0" stroke="#000" stroke-width="1" /><polyline fill="none" opacity="100" points="751.0,204.0 765.0,204.0" stroke="#000" stroke-width="1" /><polyline fill="none" opacity="100" points="751.0,208.0 765.0,208.0" stroke="#000" stroke-width="1" /><polyline fill="none" opacity="100" points="751.0,212.0 765.0,212.0" stroke="#000" stroke-width="1" /><polyline fill="none" opacity="100" points="751.0,216.0 765.0,216.0" stroke="#000" stroke-width="1" /><polyline fill="none" opacity="100" points="751.0,220.0 765.0,220.0" stroke="#000" stroke-width="1" /><polyline fill="none" opacity="100" points="751.0,224.0 765.0,224.0" stroke="#000" stroke-width="1" /><polyline fill="none" opacity="100" points="751.0,228.0 765.0,228.0" stroke="#000" stroke-width="1" /><polyline fill="none" opacity="100" points="751.0,232.0 765.0,232.0" stroke="#000" stroke-width="1" /><polyline fill="none" opacity="100" points="751.0,236.0 765.0,236.0" stroke="#000" stroke-width="1" /><polyline fill="none" opacity="100" points="751.0,240.0 765.0,240.0" stroke="#000" stroke-width="1" /><polyline fill="none" opacity="100" points="712.0,257.0 712.0,245.0" stroke="#000" stroke-width="1" /><polyline fill="none" opacity="100" points="708.0,257.0 708.0,245.0" stroke="#000" stroke-width="1" /><polyline fill="none" opacity="100" points="704.0,257.0 704.0,245.0" stroke="#000" stroke-width="1" /><polyline fill="none" opacity="100" points="698.0,303.0 704.0,303.0 704.0,331.0 698.0,331.0" stroke="#000" stroke-width="1" /><text fill="#000" font-family="Arial" font-size="10" font-weight="normal" opacity="100" transform="rotate(90.0 708.0,305.0) translate(0 10)" x="708.0" y="305.0">кассы</text><polyline fill="none" opacity="100" points="657.0,300.0 686.0,300.0 686.0,270.0" stroke="#000" stroke-width="0.5" /><polygon fill="none" opacity="100" points="652.0,305.0 657.0,305.0 657.0,300.0 652.0,300.0" stroke="#000" stroke-width="1" /><polyline fill="none" opacity="100" points="656.0,362.0 652.0,362.0" stroke="#090" stroke-width="1" /><polyline fill="none" opacity="100" points="656.0,358.0 652.0,358.0" stroke="#090" stroke-width="1" /><polyline fill="none" opacity="100" points="656.0,354.0 652.0,354.0" stroke="#090" stroke-width="1" /><polyline fill="none" opacity="100" points="656.0,350.0 652.0,350.0" stroke="#090" stroke-width="1" /><polyline fill="none" opacity="100" points="656.0,346.0 652.0,346.0" stroke="#090" stroke-width="1" /><polyline fill="none" opacity="100" points="656.0,342.0 652.0,342.0" stroke="#090" stroke-width="1" /><polyline fill="none" opacity="100" points="656.0,338.0 652.0,338.0" stroke="#090" stroke-width="1" /><polyline fill="none" opacity="100" points="656.0,334.0 652.0,334.0" stroke="#090" stroke-width="1" /><polyline fill="none" opacity="100" points="656.0,330.0 652.0,330.0" stroke="#090" stroke-width="1" /><polyline fill="none" opacity="100" points="656.0,326.0 652.0,326.0" stroke="#090" stroke-width="1" /><polyline fill="none" opacity="100" points="656.0,322.0 652.0,322.0" stroke="#090" stroke-width="1" /><polyline fill="none" opacity="100" points="656.0,318.0 652.0,318.0" stroke="#090" stroke-width="1" /><polyline fill="none" opacity="100" points="656.0,314.0 652.0,314.0" stroke="#090" stroke-width="1" /><polyline fill="none" opacity="100" points="656.0,310.0 652.0,310.0" stroke="#090" stroke-width="1" /><polyline fill="none" opacity="100" points="652.0,275.0 657.0,275.0" stroke="#F00" stroke-width="1" /><polyline fill="none" opacity="100" points="652.0,279.0 657.0,279.0" stroke="#F00" stroke-width="1" /><polyline fill="none" opacity="100" points="652.0,283.0 657.0,283.0" stroke="#F00" stroke-width="1" /><polyline fill="none" opacity="100" points="652.0,287.0 657.0,287.0" stroke="#F00" stroke-width="1" /><polyline fill="none" opacity="100" points="652.0,291.0 657.0,291.0" stroke="#F00" stroke-width="1" /><polyline fill="none" opacity="100" points="652.0,295.0 657.0,295.0" stroke="#F00" stroke-width="1" /><polygon fill="#FFF" opacity="100" points="48.0,264.0 56.0,264.0 56.0,292.0 48.0,292.0" stroke="#000" stroke-width="1" /><text fill="#000" font-family="Arial" font-size="10" font-weight="normal" opacity="100" transform="rotate(-90.0 45.0,290.0) translate(0 10)" x="45.0" y="290.0">кассы</text><polyline fill="none" opacity="100" points="662.0,284.0 671.0,284.0" stroke="#F00" stroke-width="1" /><polygon fill="#F00" opacity="100" points="668.392,284.6988 671.0,284.0 668.392,283.3012" stroke="#F00" stroke-width="1" /><polyline fill="none" opacity="100" points="645.0,348.0 634.0,348.0" stroke="#090" stroke-width="1" /><polygon fill="#090" opacity="100" points="637.1876,347.1459 634.0,348.0 637.1876,348.8541" stroke="#090" stroke-width="1" /><polygon fill="#D0EFFF" opacity="100" points="602.0,305.0 602.0,291.0 617.0,291.0 617.0,305.0" stroke="#000" stroke-width="1" /><text fill="#000" font-family="Arial" font-size="6" font-weight="normal" opacity="100" transform="rotate(-0.0 603.0,295.0) translate(0 6)" x="603.0" y="295.0">лифт</text><polygon fill="#D0EFFF" opacity="100" points="699.0,456.0 699.0,441.0 714.0,441.0 714.0,456.0" stroke="#000" stroke-width="1" /><text fill="#000" font-family="Arial" font-size="6" font-weight="normal" opacity="100" transform="rotate(-0.0 700.0,445.0) translate(0 6)" x="700.0" y="445.0">лифт</text><polygon fill="#D0EFFF" opacity="100" points="810.0,271.0 810.0,257.0 825.0,257.0 825.0,271.0" stroke="#000" stroke-width="1" /><text fill="#000" font-family="Arial" font-size="6" font-weight="normal" opacity="100" transform="rotate(-0.0 811.0,261.0) translate(0 6)" x="811.0" y="261.0">лифт</text><polygon fill="#D0EFFF" opacity="100" points="728.0,242.0 728.0,228.0 743.0,228.0 743.0,242.0" stroke="#000" stroke-width="1" /><text fill="#000" font-family="Arial" font-size="6" font-weight="normal" opacity="100" transform="rotate(-0.0 729.0,232.0) translate(0 6)" x="729.0" y="232.0">лифт</text><polygon fill="#94949C" opacity="100" points="664.0,363.0 669.0,363.0 669.0,361.0 664.0,361.0" stroke="#94949C" stroke-width="1" /><polygon fill="#F00" opacity="100" points="659.0,363.0 664.0,363.0 664.0,361.0 659.0,361.0" stroke="#F00" stroke-width="1" /><polyline fill="none" opacity="100" points="93.0,210.0 93.0,223.0" stroke="#000" stroke-width="1" /><polyline fill="none" opacity="100" points="97.0,210.0 97.0,223.0" stroke="#000" stroke-width="1" /><polyline fill="none" opacity="100" points="101.0,210.0 101.0,223.0" stroke="#000" stroke-width="1" /><polyline fill="none" opacity="100" points="105.0,210.0 105.0,223.0" stroke="#000" stroke-width="1" /><polyline fill="none" opacity="100" points="109.0,210.0 109.0,223.0" stroke="#000" stroke-width="1" /><polyline fill="none" opacity="100" points="113.0,210.0 113.0,223.0" stroke="#000" stroke-width="1" /><polyline fill="none" opacity="100" points="117.0,210.0 117.0,223.0" stroke="#000" stroke-width="1" /><polyline fill="none" opacity="100" points="121.0,210.0 121.0,223.0" stroke="#000" stroke-width="1" /><polyline fill="none" opacity="100" points="125.0,210.0 125.0,223.0" stroke="#000" stroke-width="1" /><polyline fill="none" opacity="100" points="129.0,210.0 129.0,223.0" stroke="#000" stroke-width="1" /><polyline fill="none" opacity="100" points="80.0,363.0 80.0,338.0 70.0,338.0" stroke="#000" stroke-width="1" /><polyline fill="none" opacity="100" points="80.0,285.0 80.0,295.0 7.0,295.0" stroke="#000" stroke-width="1" /><polyline fill="none" opacity="100" points="6.0,307.0 80.0,307.0 80.0,310.0 70.0,310.0" stroke="#000" stroke-width="1" /><polyline fill="none" opacity="100" points="91.0,228.0 131.0,228.0" stroke="#000" stroke-width="1" /><polyline fill="none" opacity="100" points="91.0,223.0 131.0,223.0" stroke="#000" stroke-width="0.5" /><polyline fill="none" opacity="100" points="-10.0,313.0 -10.0,335.0" stroke="#7F7F7F" stroke-width="1" /><polyline fill="none" opacity="100" points="-6.0,313.0 -6.0,335.0" stroke="#7F7F7F" stroke-width="1" /><polyline fill="none" opacity="100" points="-2.0,313.0 -2.0,335.0" stroke="#7F7F7F" stroke-width="1" /><polyline fill="none" opacity="100" points="2.0,313.0 2.0,335.0" stroke="#7F7F7F" stroke-width="1" /><polyline fill="none" opacity="100" points="6.0,313.0 6.0,335.0" stroke="#7F7F7F" stroke-width="1" /><polyline fill="none" opacity="100" points="10.0,313.0 10.0,335.0" stroke="#7F7F7F" stroke-width="1" /><polyline fill="none" opacity="100" points="14.0,313.0 14.0,335.0" stroke="#7F7F7F" stroke-width="1" /><polyline fill="none" opacity="100" points="18.0,313.0 18.0,335.0" stroke="#7F7F7F" stroke-width="1" /><polyline fill="none" opacity="100" points="22.0,313.0 22.0,335.0" stroke="#7F7F7F" stroke-width="1" /><polyline fill="none" opacity="100" points="26.0,313.0 26.0,335.0" stroke="#7F7F7F" stroke-width="1" /><polyline fill="none" opacity="100" points="30.0,313.0 30.0,335.0" stroke="#7F7F7F" stroke-width="1" /><polyline fill="none" opacity="100" points="34.0,313.0 34.0,335.0" stroke="#7F7F7F" stroke-width="1" /><polyline fill="none" opacity="100" points="38.0,313.0 38.0,335.0" stroke="#7F7F7F" stroke-width="1" /><polyline fill="none" opacity="100" points="42.0,313.0 42.0,335.0" stroke="#7F7F7F" stroke-width="1" /><polyline fill="none" opacity="100" points="46.0,313.0 46.0,335.0" stroke="#7F7F7F" stroke-width="1" /><polyline fill="none" opacity="100" points="50.0,313.0 50.0,335.0" stroke="#7F7F7F" stroke-width="1" /><polyline fill="none" opacity="100" points="54.0,313.0 54.0,335.0" stroke="#7F7F7F" stroke-width="1" /><polyline fill="none" opacity="100" points="58.0,313.0 58.0,335.0" stroke="#7F7F7F" stroke-width="1" /><polyline fill="none" opacity="100" points="62.0,313.0 62.0,335.0" stroke="#7F7F7F" stroke-width="1" /><polygon fill="#9B5509" opacity="100" points="70.0,335.0 -16.0,335.0 -16.0,338.0 70.0,338.0" stroke="#000" stroke-width="1" /><polygon fill="#9B5509" opacity="100" points="70.0,319.0 -16.0,319.0 -16.0,322.0 70.0,322.0" stroke="#000" stroke-width="1" /><polygon fill="#9B5509" opacity="100" points="70.0,327.0 -16.0,327.0 -16.0,330.0 70.0,330.0" stroke="#000" stroke-width="1" /><polygon fill="#9B5509" opacity="100" points="70.0,310.0 -16.0,310.0 -16.0,313.0 70.0,313.0" stroke="#000" stroke-width="1" /><polygon fill="#FFF" opacity="0.8" points="3.0,294.0 2.0,339.0 48.0,339.0 48.0,294.0" stroke="#FFF" stroke-width="1" /><polyline fill="none" opacity="1.0" points="131.0,210.0 24.0,210.0 24.0,267.0 -45.0,267.0 -45.0,362.0 48.0,362.0 48.0,228.0 78.0,228.0 78.0,242.0 124.0,242.0" stroke="#000" stroke-width="1" /><polyline fill="none" opacity="1.0" points="-16.0,310.0 -16.0,309.0 2.0,309.0 2.0,339.0 -16.0,339.0" stroke="#000" stroke-width="1" /><polyline fill="none" opacity="1.0" points="6.0,309.0 36.0,309.0 36.0,264.0" stroke="#000" stroke-width="0.5" /><polyline fill="none" opacity="1.0" points="-8.0,359.0 -4.0,359.0" stroke="#090" stroke-width="1" /><polyline fill="none" opacity="1.0" points="-8.0,355.0 -4.0,355.0" stroke="#090" stroke-width="1" /><polyline fill="none" opacity="1.0" points="-8.0,351.0 -4.0,351.0" stroke="#090" stroke-width="1" /><polyline fill="none" opacity="1.0" points="-8.0,347.0 -4.0,347.0" stroke="#090" stroke-width="1" /><polyline fill="none" opacity="1.0" points="-8.0,343.0 -4.0,343.0" stroke="#090" stroke-width="1" /><polyline fill="none" opacity="1.0" points="-8.0,339.0 -4.0,339.0" stroke="#090" stroke-width="1" /><polyline fill="none" opacity="1.0" points="-3.0,291.0 -7.0,291.0" stroke="#F00" stroke-width="1" /><polyline fill="none" opacity="1.0" points="-3.0,287.0 -7.0,287.0" stroke="#F00" stroke-width="1" /><polyline fill="none" opacity="1.0" points="-3.0,283.0 -7.0,283.0" stroke="#F00" stroke-width="1" /><polyline fill="none" opacity="1.0" points="-3.0,279.0 -7.0,279.0" stroke="#F00" stroke-width="1" /><polyline fill="none" opacity="1.0" points="-3.0,275.0 -7.0,275.0" stroke="#F00" stroke-width="1" /><polyline fill="none" opacity="1.0" points="-3.0,271.0 -7.0,271.0" stroke="#F00" stroke-width="1" /><polygon fill="#D0EFFF" opacity="1.0" points="107.0,242.0 107.0,228.0 122.0,228.0 122.0,242.0" stroke="#000" stroke-width="1" /><text fill="#000" font-family="Arial" font-size="6" font-weight="normal" opacity="1.0" transform="rotate(-0.0 108.0,232.0) translate(0 6)" x="108.0" y="232.0">лифт</text><polygon fill="#D0EFFF" opacity="1.0" points="-9.0,309.0 -9.0,295.0 6.0,295.0 6.0,309.0" stroke="#000" stroke-width="1" /><text fill="#000" font-family="Arial" font-size="6" font-weight="normal" opacity="1.0" transform="rotate(-0.0 -8.0,299.0) translate(0 6)" x="-8.0" y="299.0">лифт</text><polygon fill="#94949C" opacity="1.0" points="-32.0,360.0 -37.0,360.0 -37.0,358.0 -32.0,358.0" stroke="#94949C" stroke-width="1" /><polygon fill="#F00" opacity="1.0" points="-27.0,360.0 -32.0,360.0 -32.0,358.0 -27.0,358.0" stroke="#F00" stroke-width="1" /><text fill="#00AFAF" font-family="Arial" font-size="15" font-weight="normal" opacity="1.0" transform="rotate(-0.0 561.0,415.0) translate(0 15)" x="561.0" y="415.0">Мичуринский проспект</text><text fill="#00AFAF" font-family="Arial" font-size="15" font-weight="normal" opacity="1.0" transform="rotate(90.0 802.0,271.0) translate(0 15)" x="802.0" y="271.0">Никулинская улица</text><text fill="#00AFAF" font-family="Arial" font-size="15" font-weight="normal" opacity="1.0" transform="rotate(90.0 694.0,121.0) translate(0 15)" x="694.0" y="121.0">&lt;&lt; ТЦ "Кувшинка"</text><text fill="#00AFAF" font-family="Arial" font-size="15" font-weight="normal" opacity="1.0" transform="rotate(-40.0 70.0,90.0) translate(0 15)" x="70.0" y="90.0">Озёрная улица</text><g transform="rotate(30.0,405.0,290.0)"><text fill="#FFF" font-family="Arial" font-size="25" font-weight="normal" opacity="1.0" transform="rotate(-0.0 99.0,332.0) translate(0 25)" x="99.0" y="332.0">1</text><text fill="#FFF" font-family="Arial" font-size="25" font-weight="normal" opacity="1.0" transform="rotate(-0.0 771.0,206.0) translate(0 25)" x="771.0" y="206.0">2</text><text fill="#FFF" font-family="Arial" font-size="25" font-weight="normal" opacity="1.0" transform="rotate(-0.0 633.0,39.0) translate(0 25)" x="633.0" y="39.0">3</text><text fill="#FFF" font-family="Arial" font-size="25" font-weight="normal" opacity="1.0" transform="rotate(-0.0 754.0,3.0) translate(0 25)" x="754.0" y="3.0">4</text></g></g></g></svg>