<?xml version="1.0" encoding="utf-8" ?>
<svg baseProfile="tiny" height="900px" version="1.2" width="1410px" xmlns="http://www.w3.org/2000/svg" xmlns:ev="http://www.w3.org/2001/xml-events" xmlns:xlink="http://www.w3.org/1999/xlink"><defs /><g><g transform="rotate(20.0,705.0,450.0)"><polygon fill="#FEFBF1" opacity="100" points="800.0,431.0 800.0,568.0 688.0,568.0 688.0,580.0 640.0,580.0 640.0,531.0 626.0,527.0 615.0,517.0 611.0,501.0 615.0,485.0 626.0,476.0 640.0,472.0 640.0,418.0 773.0,418.0 773.0,431.0" stroke="#FEFBF1" stroke-width="1" /><polyline fill="none" opacity="100" points="615.0,485.0 614.0625,487.0 613.25,489.0 612.5625,491.0 612.0,493.0 611.5625,495.0 611.25,497.0 611.0625,499.0 611.0,501.0 611.0625,503.0 611.25,505.0 611.5625,507.0 612.0,509.0 612.5625,511.0 613.25,513.0 614.0625,515.0 615.0,517.0" stroke="#DDD" stroke-width="1" /><polyline fill="none" opacity="100" points="688.0,418.0 730.0,418.0" stroke="#DDD" stroke-width="1" /><polyline fill="none" opacity="100" points="640.0,539.0 640.0,566.0" stroke="#DDD" stroke-width="1" /><polyline fill="none" opacity="100" points="800.0,471.0 800.0,522.0" stroke="#DDD" stroke-width="1" /><polygon fill="#FC310B" opacity="100" points="1011.0,529.0 981.0,529.0 981.0,80.0 1011.0,80.0" stroke="#000" stroke-width="1" /><polygon fill="#FC310B" opacity="100" points="1121.0,529.0 1091.0,529.0 1091.0,80.0 1121.0,80.0" stroke="#000" stroke-width="1" /><text fill="#E41C0C" font-family="Arial" font-size="20" font-weight="normal" opacity="100" transform="rotate(-90.0 953.0,399.0) translate(0 20)" x="953.0" y="399.0">&lt;&lt; Фрунзенская</text><text fill="#E41C0C" font-family="Arial" font-size="20" font-weight="normal" opacity="100" transform="rotate(-90.0 1121.0,361.0) translate(0 20)" x="1121.0" y="361.0">Кропоткинская &gt;&gt;</text><text fill="#E41C0C" font-family="Arial" font-size="25" font-weight="bold" opacity="100" transform="rotate(-90.0 910.0,357.0) translate(0 25)" x="910.0" y="357.0">Парк Культуры</text><polygon fill="#34349C" opacity="100" points="1052.0,310.0 1048.0,310.0 1048.0,311.0 1052.0,311.0" stroke="#34349C" stroke-width="1" /><polygon fill="#F00" opacity="100" points="1056.0,310.0 1052.0,310.0 1052.0,311.0 1056.0,311.0" stroke="#F00" stroke-width="1" /><ellipse cx="1248.0" cy="41.0" fill="#FEFBF1" opacity="100" rx="37.0" ry="37.0" stroke="#000" stroke-width="1" /><polyline fill="none" opacity="100" points="1218.0,19.0 1217.2109,20.1406 1216.4688,21.3125 1215.7732,22.5161 1215.125,23.75 1214.5256,25.0112 1213.9727,26.3047 1213.4653,27.6318 1213.0,29.0 1212.5698,30.4229 1212.1836,31.8828 1211.8474,33.3687 1211.5625,34.875 1211.3303,36.3931 1211.1562,37.9219 1211.043,39.459 1211.0,41.0 1211.043,42.541 1211.1562,44.0781 1211.3303,45.6069 1211.5625,47.125 1211.8474,48.6313 1212.1836,50.1172 1212.5698,51.5771 1213.0,53.0 1213.4653,54.3682 1213.9727,55.6953 1214.5256,56.9888 1215.125,58.25 1215.7732,59.4839 1216.4688,60.6875 1217.2109,61.8594 1218.0,63.0" stroke="#DDD" stroke-width="1" /><polygon fill="#D0D0D0" opacity="100" points="1230.0,26.0 1267.0,26.0 1257.0,19.0 1252.0,17.0 1247.0,17.0 1242.0,18.0 1237.0,20.0" stroke="#D0D0D0" stroke-width="1" /><polygon fill="#D0D0D0" opacity="100" points="1230.0,56.0 1267.0,56.0 1257.0,63.0 1252.0,65.0 1247.0,65.0 1242.0,64.0 1237.0,62.0" stroke="#D0D0D0" stroke-width="1" /><polygon fill="#FFF" opacity="0.8" points="1090.0,171.0 1122.0,171.0 1122.0,208.0 1090.0,208.0" stroke="#FFF" stroke-width="1" /><polygon fill="#FFF" opacity="0.8" points="981.0,171.0 1012.0,171.0 1012.0,208.0 981.0,208.0" stroke="#FFF" stroke-width="1" /><polygon fill="#FFF" opacity="0.8" points="1090.0,408.0 1121.0,408.0 1121.0,440.0 1090.0,440.0" stroke="#FFF" stroke-width="1" /><polygon fill="#FFF" opacity="0.8" points="980.0,408.0 1011.0,408.0 1011.0,440.0 980.0,440.0" stroke="#FFF" stroke-width="1" /><polyline fill="none" opacity="1.0" points="1211.0,39.0 1211.0,43.0" stroke="#000" stroke-width="1" /><polyline fill="none" opacity="1.0" points="1213.0,29.0 1214.0,26.0 1267.0,26.0" stroke="#000" stroke-width="1" /><polyline fill="none" opacity="1.0" points="1213.0,53.0 1214.0,56.0 1267.0,56.0" stroke="#000" stroke-width="1" /><polyline fill="none" opacity="1.0" points="1218.0,63.0 1219.6562,64.9922 1221.375,66.8438 1223.158,68.5547 1225.0,70.125 1226.8909,71.5547 1228.8477,72.8438 1230.8755,73.9922 1233.0,75.0 1235.269,75.8672 1237.6211,76.5938 1240.0151,77.1794 1242.4375,77.625 1244.8677,77.9319 1247.2852,78.0977 1249.6763,78.1216 1252.0,78.0 1254.1948,77.7261 1256.3086,77.3086 1258.3684,76.7522 1260.375,76.0625 1262.3367,75.2498 1264.2578,74.3047 1266.1377,73.2256 1268.0,72.0 1269.8857,70.6025 1271.7422,69.0703 1273.5339,67.4282 1275.25,65.6875 1276.8743,63.8647 1278.3867,61.9688 1279.7749,60.0078 1281.0,58.0 1282.0024,55.9688 1282.832,53.9062 1283.5168,51.811 1284.0625,49.6875 1284.4851,47.5366 1284.7812,45.3672 1284.9492,43.1865 1285.0,41.0 1284.9492,38.8135 1284.7812,36.6328 1284.4851,34.4634 1284.0625,32.3125 1283.5168,30.189 1282.832,28.0938 1282.0024,26.0312 1281.0,24.0 1279.7749,21.9922 1278.3867,20.0312 1276.8743,18.1353 1275.25,16.3125 1273.5339,14.5718 1271.7422,12.9297 1269.8857,11.3975 1268.0,10.0 1266.1377,8.7744 1264.2578,7.6953 1262.3367,6.7502 1260.375,5.9375 1258.3684,5.2478 1256.3086,4.6914 1254.1948,4.2739 1252.0,4.0 1249.6763,3.8784 1247.2852,3.9023 1244.8677,4.0681 1242.4375,4.375 1240.0151,4.8206 1237.6211,5.4062 1235.269,6.1328 1233.0,7.0 1230.8755,8.0078 1228.8477,9.1562 1226.8909,10.4453 1225.0,11.875 1223.158,13.4453 1221.375,15.1562 1219.6562,17.0078 1218.0,19.0" stroke="#000" stroke-width="1" /><polyline fill="none" opacity="1.0" points="1218.0,19.0 1138.0,19.0 1138.0,44.0 1092.0,44.0 1092.0,-15.0 1011.0,-15.0 1011.0,44.0 981.0,44.0 981.0,74.0 1138.0,74.0" stroke="#000" stroke-width="1" /><polyline fill="none" opacity="1.0" points="1230.0,56.0 1231.4453,57.4375 1232.9062,58.75 1234.3833,59.9375 1235.875,61.0 1237.3784,61.9375 1238.8984,62.75 1240.4365,63.4375 1242.0,64.0 1243.6025,64.4375 1245.2266,64.75 1246.8604,64.9375 1248.5,65.0 1250.1396,64.9375 1251.7734,64.75 1253.3975,64.4375 1255.0,64.0 1256.5635,63.4375 1258.1016,62.75 1259.6216,61.9375 1261.125,61.0 1262.6167,59.9375 1264.0938,58.75 1265.5547,57.4375 1267.0,56.0" stroke="#000" stroke-width="1" /><polyline fill="none" opacity="1.0" points="1267.0,26.0 1265.5547,24.5625 1264.0938,23.25 1262.6167,22.0625 1261.125,21.0 1259.6216,20.0625 1258.1016,19.25 1256.5635,18.5625 1255.0,18.0 1253.3975,17.5625 1251.7734,17.25 1250.1396,17.0625 1248.5,17.0 1246.8604,17.0625 1245.2266,17.25 1243.6025,17.5625 1242.0,18.0 1240.4365,18.5625 1238.8984,19.25 1237.3784,20.0625 1235.875,21.0 1234.3833,22.0625 1232.9062,23.25 1231.4453,24.5625 1230.0,26.0" stroke="#000" stroke-width="1" /><polyline fill="none" opacity="1.0" points="1064.0,41.0 1037.0,41.0" stroke="#000" stroke-width="1" /><polyline fill="none" opacity="1.0" points="1037.0,76.0 1037.0,80.0 1011.0,80.0" stroke="#000" stroke-width="1" /><polyline fill="none" opacity="1.0" points="1064.0,76.0 1064.0,80.0 1091.0,80.0" stroke="#000" stroke-width="1" /><polyline fill="none" opacity="1.0" points="1034.0,37.0 1011.0,37.0" stroke="#000" stroke-width="1" /><polyline fill="none" opacity="1.0" points="1034.0,33.0 1011.0,33.0" stroke="#000" stroke-width="1" /><polyline fill="none" opacity="1.0" points="1034.0,29.0 1011.0,29.0" stroke="#000" stroke-width="1" /><polyline fill="none" opacity="1.0" points="1034.0,25.0 1011.0,25.0" stroke="#000" stroke-width="1" /><polyline fill="none" opacity="1.0" points="1034.0,21.0 1011.0,21.0" stroke="#000" stroke-width="1" /><polyline fill="none" opacity="1.0" points="1034.0,17.0 1011.0,17.0" stroke="#000" stroke-width="1" /><polyline fill="none" opacity="1.0" points="1064.0,35.0 1037.0,35.0" stroke="#000" stroke-width="1" /><polyline fill="none" opacity="1.0" points="1064.0,31.0 1037.0,31.0" stroke="#000" stroke-width="1" /><polyline fill="none" opacity="1.0" points="1064.0,27.0 1037.0,27.0" stroke="#000" stroke-width="1" /><polyline fill="none" opacity="1.0" points="1064.0,23.0 1037.0,23.0" stroke="#000" stroke-width="1" /><polyline fill="none" opacity="1.0" points="1064.0,19.0 1037.0,19.0" stroke="#000" stroke-width="1" /><polyline fill="none" opacity="1.0" points="1064.0,15.0 1037.0,15.0" stroke="#000" stroke-width="1" /><polyline fill="none" opacity="1.0" points="1092.0,37.0 1067.0,37.0" stroke="#000" stroke-width="1" /><polyline fill="none" opacity="1.0" points="1092.0,33.0 1067.0,33.0" stroke="#000" stroke-width="1" /><polyline fill="none" opacity="1.0" points="1092.0,29.0 1067.0,29.0" stroke="#000" stroke-width="1" /><polyline fill="none" opacity="1.0" points="1092.0,25.0 1067.0,25.0" stroke="#000" stroke-width="1" /><polyline fill="none" opacity="1.0" points="1092.0,21.0 1067.0,21.0" stroke="#000" stroke-width="1" /><polyline fill="none" opacity="1.0" points="1092.0,17.0 1067.0,17.0" stroke="#000" stroke-width="1" /><polyline fill="none" opacity="1.0" points="1177.0,63.0 1177.0,19.0" stroke="#000" stroke-width="1" /><polyline fill="none" opacity="1.0" points="1181.0,63.0 1181.0,19.0" stroke="#000" stroke-width="1" /><polyline fill="none" opacity="1.0" points="1185.0,63.0 1185.0,19.0" stroke="#000" stroke-width="1" /><polyline fill="none" opacity="1.0" points="1189.0,63.0 1189.0,19.0" stroke="#000" stroke-width="1" /><polyline fill="none" opacity="1.0" points="1193.0,63.0 1193.0,19.0" stroke="#000" stroke-width="1" /><polyline fill="none" opacity="1.0" points="1197.0,63.0 1197.0,19.0" stroke="#000" stroke-width="1" /><polyline fill="none" opacity="1.0" points="1201.0,63.0 1201.0,19.0" stroke="#000" stroke-width="1" /><polyline fill="none" opacity="1.0" points="1064.0,73.0 1064.0,41.0" stroke="#EEE" stroke-width="1" /><polyline fill="none" opacity="1.0" points="1037.0,73.0 1037.0,41.0" stroke="#EEE" stroke-width="1" /><polygon fill="#D0D0D0" opacity="1.0" points="1034.0,41.0 1037.0,41.0 1037.0,12.0 1034.0,12.0" stroke="#000" stroke-width="1" /><polygon fill="#D0D0D0" opacity="1.0" points="1067.0,12.0 1064.0,12.0 1064.0,41.0 1067.0,41.0" stroke="#000" stroke-width="1" /><polyline fill="none" opacity="1.0" points="1264.0,26.0 1264.0,56.0" stroke="#000" stroke-width="1" /><polyline fill="none" opacity="1.0" points="1259.0,26.0 1259.0,56.0" stroke="#000" stroke-width="1" /><polyline fill="none" opacity="1.0" points="1254.0,26.0 1254.0,56.0" stroke="#000" stroke-width="1" /><polyline fill="none" opacity="1.0" points="1249.0,26.0 1249.0,56.0" stroke="#000" stroke-width="1" /><polyline fill="none" opacity="1.0" points="1244.0,26.0 1244.0,56.0" stroke="#000" stroke-width="1" /><polyline fill="none" opacity="1.0" points="1239.0,26.0 1239.0,56.0" stroke="#000" stroke-width="1" /><polyline fill="none" opacity="1.0" points="1234.0,26.0 1234.0,56.0" stroke="#000" stroke-width="1" /><polyline fill="none" opacity="1.0" points="1257.0,5.0 1257.0,19.0" stroke="#000" stroke-width="1" /><polyline fill="none" opacity="1.0" points="1252.0,4.0 1252.0,17.0" stroke="#000" stroke-width="1" /><polyline fill="none" opacity="1.0" points="1247.0,4.0 1247.0,17.0" stroke="#000" stroke-width="1" /><polyline fill="none" opacity="1.0" points="1242.0,5.0 1242.0,18.0" stroke="#000" stroke-width="1" /><polyline fill="none" opacity="1.0" points="1237.0,6.0 1237.0,20.0" stroke="#000" stroke-width="1" /><polyline fill="none" opacity="1.0" points="1257.0,63.0 1257.0,77.0" stroke="#000" stroke-width="1" /><polyline fill="none" opacity="1.0" points="1252.0,65.0 1252.0,78.0" stroke="#000" stroke-width="1" /><polyline fill="none" opacity="1.0" points="1247.0,65.0 1247.0,78.0" stroke="#000" stroke-width="1" /><polyline fill="none" opacity="1.0" points="1242.0,64.0 1242.0,77.0" stroke="#000" stroke-width="1" /><polyline fill="none" opacity="1.0" points="1237.0,62.0 1237.0,76.0" stroke="#000" stroke-width="1" /><polyline fill="none" opacity="1.0" points="1168.0,19.0 1168.0,11.0 1141.0,11.0 1141.0,19.0" stroke="#000" stroke-width="1" /><text fill="#FFF" font-family="Arial" font-size="10" font-weight="normal" opacity="1.0" transform="rotate(-0.0 1142.0,8.0) translate(0 10)" x="1142.0" y="8.0">кассы</text><polygon fill="none" opacity="1.0" points="1132.0,72.0 1137.0,72.0 1137.0,67.0 1132.0,67.0" stroke="#000" stroke-width="1" /><polyline fill="none" opacity="1.0" points="1136.0,64.0 1133.0,64.0" stroke="#090" stroke-width="1" /><polyline fill="none" opacity="1.0" points="1136.0,60.0 1133.0,60.0" stroke="#090" stroke-width="1" /><polyline fill="none" opacity="1.0" points="1136.0,56.0 1133.0,56.0" stroke="#090" stroke-width="1" /><polyline fill="none" opacity="1.0" points="1136.0,52.0 1133.0,52.0" stroke="#090" stroke-width="1" /><polyline fill="none" opacity="1.0" points="1136.0,48.0 1133.0,48.0" stroke="#090" stroke-width="1" /><polyline fill="none" opacity="1.0" points="1142.0,80.0 1142.0,77.0" stroke="#F00" stroke-width="1" /><polyline fill="none" opacity="1.0" points="1146.0,80.0 1146.0,77.0" stroke="#F00" stroke-width="1" /><polyline fill="none" opacity="1.0" points="1150.0,80.0 1150.0,77.0" stroke="#F00" stroke-width="1" /><polyline fill="none" opacity="1.0" points="1154.0,80.0 1154.0,77.0" stroke="#F00" stroke-width="1" /><polyline fill="none" opacity="1.0" points="1175.0,56.0 1191.0,56.0" stroke="#F00" stroke-width="1" /><polygon fill="#F00" opacity="1.0" points="1186.3636,57.2423 1191.0,56.0 1186.3636,54.7577" stroke="#F00" stroke-width="1" /><polyline fill="none" opacity="1.0" points="1230.0,48.0 1218.0,48.0" stroke="#F00" stroke-width="1" /><polygon fill="#F00" opacity="1.0" points="1221.4773,47.0683 1218.0,48.0 1221.4773,48.9317" stroke="#F00" stroke-width="1" /><polyline fill="none" opacity="1.0" points="1265.0,67.0 1274.0,57.0" stroke="#F00" stroke-width="1" /><polygon fill="#F00" opacity="1.0" points="1272.1685,60.5966 1274.0,57.0 1270.6155,59.199" stroke="#F00" stroke-width="1" /><polyline fill="none" opacity="1.0" points="1274.0,25.0 1264.0,15.0" stroke="#090" stroke-width="1" /><polygon fill="#090" opacity="1.0" points="1267.6742,17.1213 1264.0,15.0 1266.1213,18.6742" stroke="#090" stroke-width="1" /><polyline fill="none" opacity="1.0" points="1218.0,34.0 1230.0,34.0" stroke="#090" stroke-width="1" /><polygon fill="#090" opacity="1.0" points="1226.5227,34.9317 1230.0,34.0 1226.5227,33.0683" stroke="#090" stroke-width="1" /><polyline fill="none" opacity="1.0" points="1203.0,27.0 1186.0,27.0" stroke="#090" stroke-width="1" /><polygon fill="#090" opacity="1.0" points="1190.9262,25.68 1186.0,27.0 1190.9262,28.32" stroke="#090" stroke-width="1" /><polyline fill="none" opacity="1.0" points="1124.0,58.0 1108.0,58.0" stroke="#090" stroke-width="1" /><polygon fill="#090" opacity="1.0" points="1112.6364,56.7577 1108.0,58.0 1112.6364,59.2423" stroke="#090" stroke-width="1" /><polyline fill="none" opacity="1.0" points="1019.0,44.0 1019.0,27.0" stroke="#090" stroke-width="1" /><polygon fill="#090" opacity="1.0" points="1020.32,31.9262 1019.0,27.0 1017.68,31.9262" stroke="#090" stroke-width="1" /><polyline fill="none" opacity="1.0" points="1081.0,45.0 1081.0,27.0" stroke="#090" stroke-width="1" /><polygon fill="#090" opacity="1.0" points="1082.3976,32.216 1081.0,27.0 1079.6024,32.216" stroke="#090" stroke-width="1" /><polyline fill="none" opacity="1.0" points="1050.0,1.0 1050.0,21.0" stroke="#090" stroke-width="1" /><polygon fill="#090" opacity="1.0" points="1048.4471,15.2044 1050.0,21.0 1051.5529,15.2044" stroke="#090" stroke-width="1" /><polygon fill="#34349C" opacity="1.0" points="1078.0,204.0 1074.0,204.0 1074.0,205.0 1078.0,205.0" stroke="#34349C" stroke-width="1" /><polygon fill="#F00" opacity="1.0" points="1082.0,204.0 1078.0,204.0 1078.0,205.0 1082.0,205.0" stroke="#F00" stroke-width="1" /><polyline fill="none" opacity="1.0" points="884.0,459.0 884.0,511.0 913.0,511.0" stroke="#000" stroke-width="1" /><polyline fill="none" opacity="1.0" points="922.0,514.0 953.0,532.0" stroke="#000" stroke-width="1" /><polyline fill="none" opacity="1.0" points="963.0,535.0 1122.0,535.0 1122.0,556.0 1092.0,556.0 1092.0,619.0 1011.0,619.0 1011.0,555.0 954.0,555.0" stroke="#000" stroke-width="1" /><polyline fill="none" opacity="1.0" points="944.0,552.0 917.0,537.0" stroke="#000" stroke-width="1" /><polyline fill="none" opacity="1.0" points="907.0,534.0 844.0,534.0 815.0,563.0" stroke="#000" stroke-width="1" /><polyline fill="none" opacity="1.0" points="844.0,459.0 855.0,459.0 855.0,511.0 835.0,511.0 804.0,542.0" stroke="#000" stroke-width="1" /><polyline fill="none" opacity="1.0" points="1037.0,556.0 1064.0,556.0" stroke="#000" stroke-width="1" /><polyline fill="none" opacity="1.0" points="1011.0,529.0 1037.0,529.0 1037.0,533.0" stroke="#000" stroke-width="1" /><polyline fill="none" opacity="1.0" points="1064.0,533.0 1064.0,529.0 1091.0,529.0" stroke="#000" stroke-width="1" /><polyline fill="none" opacity="1.0" points="907.0,437.0 907.625,436.9297 908.25,436.8438 908.875,436.7422 909.5,436.625 910.125,436.4922 910.75,436.3438 911.375,436.1797 912.0,436.0 912.625,435.8047 913.25,435.5938 913.875,435.3672 914.5,435.125 915.125,434.8672 915.75,434.5938 916.375,434.3047 917.0,434.0" stroke="#000" stroke-width="1" /><polyline fill="none" opacity="1.0" points="944.0,419.0 944.625,418.6953 945.25,418.4062 945.875,418.1328 946.5,417.875 947.125,417.6328 947.75,417.4062 948.375,417.1953 949.0,417.0 949.625,416.8203 950.25,416.6562 950.875,416.5078 951.5,416.375 952.125,416.2578 952.75,416.1562 953.375,416.0703 954.0,416.0" stroke="#000" stroke-width="1" /><polyline fill="none" opacity="1.0" points="963.0,435.0 962.375,435.0703 961.75,435.1562 961.125,435.2578 960.5,435.375 959.875,435.5078 959.25,435.6562 958.625,435.8203 958.0,436.0 957.375,436.1953 956.75,436.4062 956.125,436.6328 955.5,436.875 954.875,437.1328 954.25,437.4062 953.625,437.6953 953.0,438.0" stroke="#000" stroke-width="1" /><polyline fill="none" opacity="1.0" points="922.0,456.0 921.5547,456.3047 921.0938,456.5938 920.6172,456.8672 920.125,457.125 919.6172,457.3672 919.0938,457.5938 918.5547,457.8047 918.0,458.0 917.4297,458.1797 916.8438,458.3438 916.2422,458.4922 915.625,458.625 914.9922,458.7422 914.3438,458.8438 913.6797,458.9297 913.0,459.0" stroke="#000" stroke-width="1" /><polyline fill="none" opacity="1.0" points="913.0,511.0 913.6797,511.0703 914.3438,511.1562 914.9922,511.2578 915.625,511.375 916.2422,511.5078 916.8438,511.6562 917.4297,511.8203 918.0,512.0 918.5547,512.1953 919.0938,512.4062 919.6172,512.6328 920.125,512.875 920.6172,513.1328 921.0938,513.4062 921.5547,513.6953 922.0,514.0" stroke="#000" stroke-width="1" /><polyline fill="none" opacity="1.0" points="907.0,534.0 907.625,534.0703 908.25,534.1562 908.875,534.2578 909.5,534.375 910.125,534.5078 910.75,534.6562 911.375,534.8203 912.0,535.0 912.625,535.1953 913.25,535.4062 913.875,535.6328 914.5,535.875 915.125,536.1328 915.75,536.4062 916.375,536.6953 917.0,537.0" stroke="#000" stroke-width="1" /><polyline fill="none" opacity="1.0" points="953.0,532.0 953.625,532.3047 954.25,532.5938 954.875,532.8672 955.5,533.125 956.125,533.3672 956.75,533.5938 957.375,533.8047 958.0,534.0 958.625,534.1797 959.25,534.3438 959.875,534.4922 960.5,534.625 961.125,534.7422 961.75,534.8438 962.375,534.9297 963.0,535.0" stroke="#000" stroke-width="1" /><polyline fill="none" opacity="1.0" points="944.0,552.0 944.625,552.3047 945.25,552.5938 945.875,552.8672 946.5,553.125 947.125,553.3672 947.75,553.5938 948.375,553.8047 949.0,554.0 949.625,554.1797 950.25,554.3438 950.875,554.4922 951.5,554.625 952.125,554.7422 952.75,554.8438 953.375,554.9297 954.0,555.0" stroke="#000" stroke-width="1" /><polyline fill="none" opacity="1.0" points="1034.0,580.0 1011.0,580.0" stroke="#000" stroke-width="1" /><polyline fill="none" opacity="1.0" points="1034.0,576.0 1011.0,576.0" stroke="#000" stroke-width="1" /><polyline fill="none" opacity="1.0" points="1034.0,572.0 1011.0,572.0" stroke="#000" stroke-width="1" /><polyline fill="none" opacity="1.0" points="1034.0,568.0 1011.0,568.0" stroke="#000" stroke-width="1" /><polyline fill="none" opacity="1.0" points="1034.0,564.0 1011.0,564.0" stroke="#000" stroke-width="1" /><polyline fill="none" opacity="1.0" points="1034.0,560.0 1011.0,560.0" stroke="#000" stroke-width="1" /><polyline fill="none" opacity="1.0" points="1064.0,582.0 1037.0,582.0" stroke="#000" stroke-width="1" /><polyline fill="none" opacity="1.0" points="1064.0,578.0 1037.0,578.0" stroke="#000" stroke-width="1" /><polyline fill="none" opacity="1.0" points="1064.0,574.0 1037.0,574.0" stroke="#000" stroke-width="1" /><polyline fill="none" opacity="1.0" points="1064.0,570.0 1037.0,570.0" stroke="#000" stroke-width="1" /><polyline fill="none" opacity="1.0" points="1064.0,566.0 1037.0,566.0" stroke="#000" stroke-width="1" /><polyline fill="none" opacity="1.0" points="1064.0,562.0 1037.0,562.0" stroke="#000" stroke-width="1" /><polyline fill="none" opacity="1.0" points="1092.0,580.0 1067.0,580.0" stroke="#000" stroke-width="1" /><polyline fill="none" opacity="1.0" points="1092.0,576.0 1067.0,576.0" stroke="#000" stroke-width="1" /><polyline fill="none" opacity="1.0" points="1092.0,572.0 1067.0,572.0" stroke="#000" stroke-width="1" /><polyline fill="none" opacity="1.0" points="1092.0,568.0 1067.0,568.0" stroke="#000" stroke-width="1" /><polyline fill="none" opacity="1.0" points="1092.0,564.0 1067.0,564.0" stroke="#000" stroke-width="1" /><polyline fill="none" opacity="1.0" points="1092.0,560.0 1067.0,560.0" stroke="#000" stroke-width="1" /><polyline fill="none" opacity="1.0" points="1064.0,536.0 1064.0,556.0" stroke="#EEE" stroke-width="1" /><polyline fill="none" opacity="1.0" points="1037.0,536.0 1037.0,556.0" stroke="#EEE" stroke-width="1" /><polyline fill="none" opacity="1.0" points="884.0,475.0 855.0,475.0" stroke="#000" stroke-width="0.5" /><polygon fill="#D0D0D0" opacity="1.0" points="1034.0,556.0 1037.0,556.0 1037.0,592.0 1034.0,592.0" stroke="#000" stroke-width="1" /><polygon fill="#D0D0D0" opacity="1.0" points="1067.0,556.0 1064.0,556.0 1064.0,592.0 1067.0,592.0" stroke="#000" stroke-width="1" /><polyline fill="none" opacity="1.0" points="1115.0,535.0 1115.0,556.0" stroke="#000" stroke-width="1" /><text fill="#FFF" font-family="Arial" font-size="5" font-weight="normal" opacity="1.0" transform="rotate(-90.0 1115.0,555.0) translate(0 5)" x="1115.0" y="555.0">полиция</text><polyline fill="none" opacity="1.0" points="1023.0,425.0 993.0,425.0" stroke="#F00" stroke-width="1" /><polygon fill="#F00" opacity="1.0" points="1001.6933,422.6706 993.0,425.0 1001.6933,427.3294" stroke="#F00" stroke-width="1" /><polyline fill="none" opacity="1.0" points="1019.0,551.0 1019.0,570.0" stroke="#090" stroke-width="1" /><polygon fill="#090" opacity="1.0" points="1017.5247,564.4942 1019.0,570.0 1020.4753,564.4942" stroke="#090" stroke-width="1" /><polyline fill="none" opacity="1.0" points="1081.0,551.0 1081.0,570.0" stroke="#090" stroke-width="1" /><polygon fill="#090" opacity="1.0" points="1079.5247,564.4942 1081.0,570.0 1082.4753,564.4942" stroke="#090" stroke-width="1" /><polyline fill="none" opacity="1.0" points="1055.0,596.0 1055.0,574.0" stroke="#090" stroke-width="1" /><polygon fill="#090" opacity="1.0" points="1056.7082,580.3751 1055.0,574.0 1053.2918,580.3751" stroke="#090" stroke-width="1" /><polygon fill="#34349C" opacity="1.0" points="870.0,439.0 874.0,439.0 874.0,440.0 870.0,440.0" stroke="#34349C" stroke-width="1" /><polygon fill="#F00" opacity="1.0" points="866.0,439.0 870.0,439.0 870.0,440.0 866.0,440.0" stroke="#F00" stroke-width="1" /><polyline fill="none" opacity="1.0" points="1037.0,130.0 1037.0,171.0 981.0,171.0 981.0,208.0 1037.0,208.0 1037.0,249.0" stroke="#000" stroke-width="1" /><polyline fill="none" opacity="1.0" points="1064.0,249.0 1064.0,208.0 1121.0,208.0" stroke="#000" stroke-width="1" /><polyline fill="none" opacity="1.0" points="1121.0,208.0 1121.0,199.0 1158.0,199.0 1158.0,63.0 1218.0,63.0" stroke="#000" stroke-width="1" /><polyline fill="none" opacity="1.0" points="1064.0,130.0 1064.0,171.0 1121.0,171.0" stroke="#000" stroke-width="1" /><polyline fill="none" opacity="1.0" points="1121.0,171.0 1121.0,180.0 1138.0,180.0 1138.0,74.0" stroke="#000" stroke-width="1" /><polyline fill="none" opacity="1.0" points="1064.0,245.0 1037.0,245.0" stroke="#000" stroke-width="1" /><polyline fill="none" opacity="1.0" points="1064.0,241.0 1037.0,241.0" stroke="#000" stroke-width="1" /><polyline fill="none" opacity="1.0" points="1064.0,237.0 1037.0,237.0" stroke="#000" stroke-width="1" /><polyline fill="none" opacity="1.0" points="1064.0,233.0 1037.0,233.0" stroke="#000" stroke-width="1" /><polyline fill="none" opacity="1.0" points="1064.0,229.0 1037.0,229.0" stroke="#000" stroke-width="1" /><polyline fill="none" opacity="1.0" points="1064.0,225.0 1037.0,225.0" stroke="#000" stroke-width="1" /><polyline fill="none" opacity="1.0" points="1064.0,221.0 1037.0,221.0" stroke="#000" stroke-width="1" /><polyline fill="none" opacity="1.0" points="1037.0,134.0 1064.0,134.0" stroke="#000" stroke-width="1" /><polyline fill="none" opacity="1.0" points="1037.0,138.0 1064.0,138.0" stroke="#000" stroke-width="1" /><polyline fill="none" opacity="1.0" points="1037.0,142.0 1064.0,142.0" stroke="#000" stroke-width="1" /><polyline fill="none" opacity="1.0" points="1037.0,146.0 1064.0,146.0" stroke="#000" stroke-width="1" /><polyline fill="none" opacity="1.0" points="1037.0,150.0 1064.0,150.0" stroke="#000" stroke-width="1" /><polyline fill="none" opacity="1.0" points="1037.0,154.0 1064.0,154.0" stroke="#000" stroke-width="1" /><polyline fill="none" opacity="1.0" points="1037.0,158.0 1064.0,158.0" stroke="#000" stroke-width="1" /><polyline fill="none" opacity="1.0" points="1148.0,100.0 1148.0,87.0" stroke="#F00" stroke-width="1" /><polygon fill="#F00" opacity="1.0" points="1149.0094,90.7671 1148.0,87.0 1146.9906,90.7671" stroke="#F00" stroke-width="1" /><polyline fill="none" opacity="1.0" points="1093.0,190.0 1121.0,190.0" stroke="#F00" stroke-width="1" /><polygon fill="#F00" opacity="1.0" points="1112.8862,192.1741 1121.0,190.0 1112.8862,187.8259" stroke="#F00" stroke-width="1" /><polyline fill="none" opacity="1.0" points="1064.0,408.0 1064.0,412.0 1037.0,412.0 1037.0,408.0" stroke="#EEE" stroke-width="1" /><polyline fill="none" opacity="1.0" points="1064.0,440.0 1064.0,436.0 1037.0,436.0 1037.0,440.0" stroke="#EEE" stroke-width="1" /><polyline fill="none" opacity="1.0" points="1064.0,367.0 1064.0,408.0 1121.0,408.0 1121.0,440.0 1064.0,440.0 1064.0,481.0" stroke="#000" stroke-width="1" /><polyline fill="none" opacity="1.0" points="1037.0,481.0 1037.0,440.0 981.0,440.0" stroke="#000" stroke-width="1" /><polyline fill="none" opacity="1.0" points="981.0,440.0 981.0,435.0 963.0,435.0" stroke="#000" stroke-width="1" /><polyline fill="none" opacity="1.0" points="953.0,438.0 922.0,456.0" stroke="#000" stroke-width="1" /><polyline fill="none" opacity="1.0" points="913.0,459.0 884.0,459.0" stroke="#000" stroke-width="1" /><polyline fill="none" opacity="1.0" points="1037.0,367.0 1037.0,408.0 981.0,408.0" stroke="#000" stroke-width="1" /><polyline fill="none" opacity="1.0" points="981.0,408.0 981.0,416.0 954.0,416.0" stroke="#000" stroke-width="1" /><polyline fill="none" opacity="1.0" points="944.0,419.0 917.0,434.0" stroke="#000" stroke-width="1" /><polyline fill="none" opacity="1.0" points="907.0,437.0 844.0,437.0" stroke="#000" stroke-width="1" /><polyline fill="none" opacity="1.0" points="1064.0,477.0 1037.0,477.0" stroke="#000" stroke-width="1" /><polyline fill="none" opacity="1.0" points="1064.0,473.0 1037.0,473.0" stroke="#000" stroke-width="1" /><polyline fill="none" opacity="1.0" points="1064.0,469.0 1037.0,469.0" stroke="#000" stroke-width="1" /><polyline fill="none" opacity="1.0" points="1064.0,465.0 1037.0,465.0" stroke="#000" stroke-width="1" /><polyline fill="none" opacity="1.0" points="1064.0,461.0 1037.0,461.0" stroke="#000" stroke-width="1" /><polyline fill="none" opacity="1.0" points="1064.0,457.0 1037.0,457.0" stroke="#000" stroke-width="1" /><polyline fill="none" opacity="1.0" points="1064.0,453.0 1037.0,453.0" stroke="#000" stroke-width="1" /><polyline fill="none" opacity="1.0" points="1064.0,371.0 1037.0,371.0" stroke="#000" stroke-width="1" /><polyline fill="none" opacity="1.0" points="1064.0,375.0 1037.0,375.0" stroke="#000" stroke-width="1" /><polyline fill="none" opacity="1.0" points="1064.0,379.0 1037.0,379.0" stroke="#000" stroke-width="1" /><polyline fill="none" opacity="1.0" points="1064.0,383.0 1037.0,383.0" stroke="#000" stroke-width="1" /><polyline fill="none" opacity="1.0" points="1064.0,387.0 1037.0,387.0" stroke="#000" stroke-width="1" /><polyline fill="none" opacity="1.0" points="1064.0,391.0 1037.0,391.0" stroke="#000" stroke-width="1" /><polyline fill="none" opacity="1.0" points="1064.0,395.0 1037.0,395.0" stroke="#000" stroke-width="1" /><polyline fill="none" opacity="1.0" points="837.0,456.0 837.0,440.0" stroke="#7F7F7F" stroke-width="1" /><polyline fill="none" opacity="1.0" points="833.0,456.0 833.0,440.0" stroke="#7F7F7F" stroke-width="1" /><polyline fill="none" opacity="1.0" points="829.0,456.0 829.0,440.0" stroke="#7F7F7F" stroke-width="1" /><polyline fill="none" opacity="1.0" points="825.0,456.0 825.0,440.0" stroke="#7F7F7F" stroke-width="1" /><polyline fill="none" opacity="1.0" points="821.0,456.0 821.0,440.0" stroke="#7F7F7F" stroke-width="1" /><polyline fill="none" opacity="1.0" points="817.0,456.0 817.0,440.0" stroke="#7F7F7F" stroke-width="1" /><polyline fill="none" opacity="1.0" points="813.0,456.0 813.0,440.0" stroke="#7F7F7F" stroke-width="1" /><polyline fill="none" opacity="1.0" points="809.0,456.0 809.0,440.0" stroke="#7F7F7F" stroke-width="1" /><polyline fill="none" opacity="1.0" points="805.0,456.0 805.0,440.0" stroke="#7F7F7F" stroke-width="1" /><polyline fill="none" opacity="1.0" points="801.0,456.0 801.0,440.0" stroke="#7F7F7F" stroke-width="1" /><polyline fill="none" opacity="1.0" points="797.0,456.0 797.0,440.0" stroke="#7F7F7F" stroke-width="1" /><polyline fill="none" opacity="1.0" points="793.0,456.0 793.0,440.0" stroke="#7F7F7F" stroke-width="1" /><polyline fill="none" opacity="1.0" points="789.0,456.0 789.0,440.0" stroke="#7F7F7F" stroke-width="1" /><polyline fill="none" opacity="1.0" points="785.0,456.0 785.0,440.0" stroke="#7F7F7F" stroke-width="1" /><polyline fill="none" opacity="1.0" points="781.0,456.0 781.0,440.0" stroke="#7F7F7F" stroke-width="1" /><polyline fill="none" opacity="1.0" points="777.0,456.0 777.0,440.0" stroke="#7F7F7F" stroke-width="1" /><polyline fill="none" opacity="1.0" points="773.0,456.0 773.0,440.0" stroke="#7F7F7F" stroke-width="1" /><polyline fill="none" opacity="1.0" points="769.0,456.0 769.0,440.0" stroke="#7F7F7F" stroke-width="1" /><polyline fill="none" opacity="1.0" points="765.0,456.0 765.0,440.0" stroke="#7F7F7F" stroke-width="1" /><polyline fill="none" opacity="1.0" points="761.0,456.0 761.0,440.0" stroke="#7F7F7F" stroke-width="1" /><polygon fill="#9B5509" opacity="1.0" points="844.0,440.0 754.0,440.0 754.0,437.0 844.0,437.0" stroke="#000" stroke-width="1" /><polygon fill="#9B5509" opacity="1.0" points="844.0,446.0 844.0,450.0 754.0,450.0 754.0,446.0" stroke="#000" stroke-width="1" /><polygon fill="#9B5509" opacity="1.0" points="844.0,456.0 754.0,456.0 754.0,459.0 844.0,459.0" stroke="#000" stroke-width="1" /><polygon fill="#9B5509" opacity="1.0" points="500.0,461.0 500.0,431.0 50.0,431.0 50.0,461.0" stroke="#000" stroke-width="1" /><polygon fill="#9B5509" opacity="1.0" points="500.0,541.0 500.0,571.0 50.0,571.0 50.0,541.0" stroke="#000" stroke-width="1" /><text fill="#543C04" font-family="Arial" font-size="20" font-weight="normal" opacity="1.0" transform="rotate(-0.0 54.0,409.0) translate(0 20)" x="54.0" y="409.0">&lt;&lt; Киевская</text><text fill="#543C04" font-family="Arial" font-size="20" font-weight="normal" opacity="1.0" transform="rotate(-0.0 368.0,573.0) translate(0 20)" x="368.0" y="573.0">Октябрьская &gt;&gt;</text><text fill="#543C04" font-family="Arial" font-size="25" font-weight="bold" opacity="1.0" transform="rotate(-0.0 184.0,495.0) translate(0 25)" x="184.0" y="495.0">Парк Культуры</text><polygon fill="#34349C" opacity="1.0" points="271.0,498.0 271.0,494.0 272.0,494.0 272.0,498.0" stroke="#34349C" stroke-width="1" /><polygon fill="#F00" opacity="1.0" points="271.0,502.0 271.0,498.0 272.0,498.0 272.0,502.0" stroke="#F00" stroke-width="1" /><polyline fill="none" opacity="1.0" points="50.0,541.0 50.0,526.0 135.0,526.0 135.0,517.0 129.0,517.0 129.0,482.0 135.0,482.0 135.0,473.0 50.0,473.0 50.0,461.0" stroke="#000" stroke-width="1" /><polyline fill="none" opacity="1.0" points="500.0,461.0 500.0,474.0 394.0,474.0 394.0,483.0 452.0,483.0" stroke="#000" stroke-width="1" /><polyline fill="none" opacity="1.0" points="500.0,541.0 500.0,528.0 394.0,528.0 394.0,519.0 452.0,519.0" stroke="#000" stroke-width="1" /><polyline fill="none" opacity="1.0" points="451.0,506.0 429.0,501.0 400.0,501.0" stroke="#000" stroke-width="0.5" /><polyline fill="none" opacity="1.0" points="659.0,514.0 659.0,488.0" stroke="#7F7F7F" stroke-width="1" /><polyline fill="none" opacity="1.0" points="655.0,514.0 655.0,488.0" stroke="#7F7F7F" stroke-width="1" /><polyline fill="none" opacity="1.0" points="651.0,514.0 651.0,488.0" stroke="#7F7F7F" stroke-width="1" /><polyline fill="none" opacity="1.0" points="647.0,514.0 647.0,488.0" stroke="#7F7F7F" stroke-width="1" /><polyline fill="none" opacity="1.0" points="643.0,514.0 643.0,488.0" stroke="#7F7F7F" stroke-width="1" /><polyline fill="none" opacity="1.0" points="639.0,514.0 639.0,488.0" stroke="#7F7F7F" stroke-width="1" /><polyline fill="none" opacity="1.0" points="635.0,514.0 635.0,488.0" stroke="#7F7F7F" stroke-width="1" /><polyline fill="none" opacity="1.0" points="631.0,514.0 631.0,488.0" stroke="#7F7F7F" stroke-width="1" /><polyline fill="none" opacity="1.0" points="627.0,514.0 627.0,488.0" stroke="#7F7F7F" stroke-width="1" /><polyline fill="none" opacity="1.0" points="623.0,514.0 623.0,488.0" stroke="#7F7F7F" stroke-width="1" /><polyline fill="none" opacity="1.0" points="619.0,514.0 619.0,488.0" stroke="#7F7F7F" stroke-width="1" /><polyline fill="none" opacity="1.0" points="615.0,514.0 615.0,488.0" stroke="#7F7F7F" stroke-width="1" /><polyline fill="none" opacity="1.0" points="611.0,514.0 611.0,488.0" stroke="#7F7F7F" stroke-width="1" /><polyline fill="none" opacity="1.0" points="607.0,514.0 607.0,488.0" stroke="#7F7F7F" stroke-width="1" /><polyline fill="none" opacity="1.0" points="603.0,514.0 603.0,488.0" stroke="#7F7F7F" stroke-width="1" /><polyline fill="none" opacity="1.0" points="599.0,514.0 599.0,488.0" stroke="#7F7F7F" stroke-width="1" /><polyline fill="none" opacity="1.0" points="595.0,514.0 595.0,488.0" stroke="#7F7F7F" stroke-width="1" /><polyline fill="none" opacity="1.0" points="591.0,514.0 591.0,488.0" stroke="#7F7F7F" stroke-width="1" /><polyline fill="none" opacity="1.0" points="587.0,514.0 587.0,488.0" stroke="#7F7F7F" stroke-width="1" /><polyline fill="none" opacity="1.0" points="583.0,514.0 583.0,488.0" stroke="#7F7F7F" stroke-width="1" /><polyline fill="none" opacity="1.0" points="579.0,514.0 579.0,488.0" stroke="#7F7F7F" stroke-width="1" /><polyline fill="none" opacity="1.0" points="575.0,514.0 575.0,488.0" stroke="#7F7F7F" stroke-width="1" /><polyline fill="none" opacity="1.0" points="571.0,514.0 571.0,488.0" stroke="#7F7F7F" stroke-width="1" /><polyline fill="none" opacity="1.0" points="567.0,514.0 567.0,488.0" stroke="#7F7F7F" stroke-width="1" /><polyline fill="none" opacity="1.0" points="563.0,514.0 563.0,488.0" stroke="#7F7F7F" stroke-width="1" /><polyline fill="none" opacity="1.0" points="559.0,514.0 559.0,488.0" stroke="#7F7F7F" stroke-width="1" /><polyline fill="none" opacity="1.0" points="555.0,514.0 555.0,488.0" stroke="#7F7F7F" stroke-width="1" /><polyline fill="none" opacity="1.0" points="551.0,514.0 551.0,488.0" stroke="#7F7F7F" stroke-width="1" /><polyline fill="none" opacity="1.0" points="547.0,514.0 547.0,488.0" stroke="#7F7F7F" stroke-width="1" /><polyline fill="none" opacity="1.0" points="543.0,514.0 543.0,488.0" stroke="#7F7F7F" stroke-width="1" /><polyline fill="none" opacity="1.0" points="539.0,514.0 539.0,488.0" stroke="#7F7F7F" stroke-width="1" /><polyline fill="none" opacity="1.0" points="535.0,514.0 535.0,488.0" stroke="#7F7F7F" stroke-width="1" /><polyline fill="none" opacity="1.0" points="531.0,514.0 531.0,488.0" stroke="#7F7F7F" stroke-width="1" /><polyline fill="none" opacity="1.0" points="527.0,514.0 527.0,488.0" stroke="#7F7F7F" stroke-width="1" /><polyline fill="none" opacity="1.0" points="523.0,514.0 523.0,488.0" stroke="#7F7F7F" stroke-width="1" /><polyline fill="none" opacity="1.0" points="519.0,514.0 519.0,488.0" stroke="#7F7F7F" stroke-width="1" /><polyline fill="none" opacity="1.0" points="515.0,514.0 515.0,488.0" stroke="#7F7F7F" stroke-width="1" /><polyline fill="none" opacity="1.0" points="511.0,514.0 511.0,488.0" stroke="#7F7F7F" stroke-width="1" /><polyline fill="none" opacity="1.0" points="507.0,514.0 507.0,488.0" stroke="#7F7F7F" stroke-width="1" /><polyline fill="none" opacity="1.0" points="503.0,514.0 503.0,488.0" stroke="#7F7F7F" stroke-width="1" /><polyline fill="none" opacity="1.0" points="499.0,514.0 499.0,488.0" stroke="#7F7F7F" stroke-width="1" /><polyline fill="none" opacity="1.0" points="495.0,514.0 495.0,488.0" stroke="#7F7F7F" stroke-width="1" /><polyline fill="none" opacity="1.0" points="491.0,514.0 491.0,488.0" stroke="#7F7F7F" stroke-width="1" /><polyline fill="none" opacity="1.0" points="487.0,514.0 487.0,488.0" stroke="#7F7F7F" stroke-width="1" /><polyline fill="none" opacity="1.0" points="483.0,514.0 483.0,488.0" stroke="#7F7F7F" stroke-width="1" /><polyline fill="none" opacity="1.0" points="479.0,514.0 479.0,488.0" stroke="#7F7F7F" stroke-width="1" /><polyline fill="none" opacity="1.0" points="475.0,514.0 475.0,488.0" stroke="#7F7F7F" stroke-width="1" /><polyline fill="none" opacity="1.0" points="471.0,514.0 471.0,488.0" stroke="#7F7F7F" stroke-width="1" /><polyline fill="none" opacity="1.0" points="467.0,514.0 467.0,488.0" stroke="#7F7F7F" stroke-width="1" /><polyline fill="none" opacity="1.0" points="463.0,514.0 463.0,488.0" stroke="#7F7F7F" stroke-width="1" /><polyline fill="none" opacity="1.0" points="459.0,514.0 459.0,488.0" stroke="#7F7F7F" stroke-width="1" /><polygon fill="#9B5509" opacity="1.0" points="666.0,488.0 452.0,488.0 452.0,485.0 666.0,485.0" stroke="#000" stroke-width="1" /><polygon fill="#9B5509" opacity="1.0" points="666.0,494.0 666.0,498.0 452.0,498.0 452.0,494.0" stroke="#000" stroke-width="1" /><polygon fill="#9B5509" opacity="1.0" points="666.0,504.0 666.0,508.0 452.0,508.0 452.0,504.0" stroke="#000" stroke-width="1" /><polygon fill="#9B5509" opacity="1.0" points="666.0,514.0 452.0,514.0 452.0,517.0 666.0,517.0" stroke="#000" stroke-width="1" /><polyline fill="none" opacity="1.0" points="800.0,563.0 815.0,563.0" stroke="#000" stroke-width="1" /><polyline fill="none" opacity="1.0" points="800.0,542.0 804.0,542.0" stroke="#000" stroke-width="1" /><polyline fill="none" opacity="1.0" points="800.0,492.0 800.0,501.0" stroke="#000" stroke-width="1" /><polyline fill="none" opacity="1.0" points="719.0,418.0 714.0,418.0" stroke="#000" stroke-width="1" /><polyline fill="none" opacity="1.0" points="703.0,418.0 698.0,418.0" stroke="#000" stroke-width="1" /><polyline fill="none" opacity="1.0" points="640.0,566.0 640.0,539.0" stroke="#000" stroke-width="1" /><polyline fill="none" opacity="1.0" points="643.0,539.0 643.0,566.0" stroke="#000" stroke-width="1" /><polyline fill="none" opacity="1.0" points="785.0,542.0 785.0,563.0" stroke="#000" stroke-width="1" /><polyline fill="none" opacity="1.0" points="789.0,542.0 789.0,563.0" stroke="#000" stroke-width="1" /><polyline fill="none" opacity="1.0" points="793.0,542.0 793.0,563.0" stroke="#000" stroke-width="1" /><polyline fill="none" opacity="1.0" points="797.0,542.0 797.0,563.0" stroke="#000" stroke-width="1" /><polyline fill="none" opacity="1.0" points="806.0,540.0 822.0,556.0" stroke="#000" stroke-width="1" /><polyline fill="none" opacity="1.0" points="808.8284,537.1716 824.8284,553.1716" stroke="#000" stroke-width="1" /><polyline fill="none" opacity="1.0" points="811.6569,534.3431 827.6569,550.3431" stroke="#000" stroke-width="1" /><polyline fill="none" opacity="1.0" points="814.4853,531.5147 830.4853,547.5147" stroke="#000" stroke-width="1" /><polyline fill="none" opacity="1.0" points="817.3137,528.6863 833.3137,544.6863" stroke="#000" stroke-width="1" /><polyline fill="none" opacity="1.0" points="820.1421,525.8579 836.1421,541.8579" stroke="#000" stroke-width="1" /><polyline fill="none" opacity="1.0" points="822.9706,523.0294 838.9706,539.0294" stroke="#000" stroke-width="1" /><polyline fill="none" opacity="1.0" points="825.799,520.201 841.799,536.201" stroke="#000" stroke-width="1" /><polygon fill="#D0D0D0" opacity="1.0" points="800.0,459.0 800.0,471.0 744.0,471.0 744.0,459.0" stroke="#000" stroke-width="1" /><polygon fill="#D0D0D0" opacity="1.0" points="792.0,527.0 792.0,522.0 800.0,522.0 800.0,542.0 744.0,542.0 744.0,527.0" stroke="#000" stroke-width="1" /><polygon fill="#D0D0D0" opacity="1.0" points="800.0,437.0 800.0,431.0 773.0,431.0 773.0,418.0 730.0,418.0 730.0,429.0 744.0,429.0 744.0,437.0" stroke="#000" stroke-width="1" /><polygon fill="#D0D0D0" opacity="1.0" points="800.0,568.0 800.0,563.0 682.0,563.0 682.0,566.0 640.0,566.0 640.0,580.0 688.0,580.0 688.0,568.0" stroke="#000" stroke-width="1" /><polygon fill="#D0D0D0" opacity="1.0" points="666.0,517.0 666.0,519.0 688.0,519.0 688.0,539.0 640.0,539.0 640.0,531.0 626.0,527.0 615.0,517.0" stroke="#D0D0D0" stroke-width="1" /><polygon fill="#D0D0D0" opacity="1.0" points="615.0,485.0 626.0,476.0 640.0,472.0 640.0,418.0 688.0,418.0 688.0,432.0 669.0,432.0 669.0,466.0 688.0,466.0 688.0,483.0 666.0,483.0 666.0,485.0" stroke="#D0D0D0" stroke-width="1" /><polyline fill="none" opacity="1.0" points="640.0,472.0 640.0,418.0 688.0,418.0 688.0,432.0 669.0,432.0 669.0,466.0 688.0,466.0 688.0,483.0 666.0,483.0 666.0,485.0 615.0,485.0" stroke="#000" stroke-width="1" /><polyline fill="none" opacity="1.0" points="615.0,517.0 666.0,517.0 666.0,519.0 688.0,519.0 688.0,539.0 640.0,539.0 640.0,531.0" stroke="#000" stroke-width="1" /><polyline fill="none" opacity="1.0" points="640.0,472.0 638.0859,472.2266 636.2188,472.5312 634.3984,472.9141 632.625,473.375 630.8984,473.9141 629.2188,474.5312 627.5859,475.2266 626.0,476.0 624.4609,476.8516 622.9688,477.7812 621.5234,478.7891 620.125,479.875 618.7734,481.0391 617.4688,482.2812 616.2109,483.6016 615.0,485.0" stroke="#000" stroke-width="1" /><polyline fill="none" opacity="1.0" points="640.0,531.0 638.0859,530.8281 636.2188,530.5625 634.3984,530.2031 632.625,529.75 630.8984,529.2031 629.2188,528.5625 627.5859,527.8281 626.0,527.0 624.4609,526.0781 622.9688,525.0625 621.5234,523.9531 620.125,522.75 618.7734,521.4531 617.4688,520.0625 616.2109,518.5781 615.0,517.0" stroke="#000" stroke-width="1" /><polygon fill="#FFF" opacity="1.0" points="782.0,527.0 782.0,536.0 752.0,536.0 752.0,527.0" stroke="#000" stroke-width="1" /><text fill="#FFF" font-family="Arial" font-size="10" font-weight="normal" opacity="1.0" transform="rotate(-0.0 755.0,525.0) translate(0 10)" x="755.0" y="525.0">кассы</text><polygon fill="none" opacity="1.0" points="743.0,525.0 749.0,525.0 749.0,519.0 743.0,519.0" stroke="#000" stroke-width="1" /><polyline fill="none" opacity="1.0" points="699.0,450.0 688.0,432.0" stroke="#000" stroke-width="0.5" /><polyline fill="none" opacity="1.0" points="748.0,515.0 744.0,515.0" stroke="#090" stroke-width="1" /><polyline fill="none" opacity="1.0" points="748.0,511.0 744.0,511.0" stroke="#090" stroke-width="1" /><polyline fill="none" opacity="1.0" points="748.0,507.0 744.0,507.0" stroke="#090" stroke-width="1" /><polyline fill="none" opacity="1.0" points="748.0,503.0 744.0,503.0" stroke="#090" stroke-width="1" /><polyline fill="none" opacity="1.0" points="748.0,499.0 744.0,499.0" stroke="#090" stroke-width="1" /><polyline fill="none" opacity="1.0" points="748.0,495.0 744.0,495.0" stroke="#090" stroke-width="1" /><polyline fill="none" opacity="1.0" points="748.0,491.0 744.0,491.0" stroke="#090" stroke-width="1" /><polyline fill="none" opacity="1.0" points="748.0,487.0 744.0,487.0" stroke="#090" stroke-width="1" /><polyline fill="none" opacity="1.0" points="748.0,483.0 744.0,483.0" stroke="#090" stroke-width="1" /><polyline fill="none" opacity="1.0" points="748.0,479.0 744.0,479.0" stroke="#090" stroke-width="1" /><polyline fill="none" opacity="1.0" points="748.0,475.0 744.0,475.0" stroke="#090" stroke-width="1" /><polyline fill="none" opacity="1.0" points="701.0,451.0 699.0,448.0" stroke="#F00" stroke-width="1" /><polyline fill="none" opacity="1.0" points="704.3099,448.754 702.3099,445.754" stroke="#F00" stroke-width="1" /><polyline fill="none" opacity="1.0" points="707.6198,446.508 705.6198,443.508" stroke="#F00" stroke-width="1" /><polyline fill="none" opacity="1.0" points="710.9297,444.262 708.9297,441.262" stroke="#F00" stroke-width="1" /><polyline fill="none" opacity="1.0" points="714.2396,442.016 712.2396,439.016" stroke="#F00" stroke-width="1" /><polyline fill="none" opacity="1.0" points="717.5495,439.77 715.5495,436.77" stroke="#F00" stroke-width="1" /><polyline fill="none" opacity="1.0" points="720.8594,437.524 718.8594,434.524" stroke="#F00" stroke-width="1" /><polyline fill="none" opacity="1.0" points="724.1693,435.278 722.1693,432.278" stroke="#F00" stroke-width="1" /><polyline fill="none" opacity="1.0" points="727.4792,433.032 725.4792,430.032" stroke="#F00" stroke-width="1" /><polyline fill="none" opacity="1.0" points="710.0,435.0 710.0,420.0" stroke="#F00" stroke-width="1" /><polygon fill="#F00" opacity="1.0" points="711.1647,424.3467 710.0,420.0 708.8353,424.3467" stroke="#F00" stroke-width="1" /><polyline fill="none" opacity="1.0" points="748.0,449.0 733.0,449.0" stroke="#F00" stroke-width="1" /><polygon fill="#F00" opacity="1.0" points="737.3467,447.8353 733.0,449.0 737.3467,450.1647" stroke="#F00" stroke-width="1" /><polyline fill="none" opacity="1.0" points="747.0,552.0 767.0,552.0" stroke="#090" stroke-width="1" /><polygon fill="#090" opacity="1.0" points="761.2044,553.5529 767.0,552.0 761.2044,550.4471" stroke="#090" stroke-width="1" /><polyline fill="none" opacity="1.0" points="750.0,497.0 733.0,497.0" stroke="#090" stroke-width="1" /><polygon fill="#090" opacity="1.0" points="737.9262,495.68 733.0,497.0 737.9262,498.32" stroke="#090" stroke-width="1" /><text fill="#00AFAF" font-family="Arial" font-size="15" font-weight="normal" opacity="1.0" transform="rotate(-90.0 1036.0,795.0) translate(0 15)" x="1036.0" y="795.0">Комсомольский проспект</text><text fill="#00AFAF" font-family="Arial" font-size="15" font-weight="normal" opacity="1.0" transform="rotate(-90.0 1069.0,-36.0) translate(0 15)" x="1069.0" y="-36.0">улица Остоженка</text><text fill="#00AFAF" font-family="Arial" font-size="15" font-weight="normal" opacity="1.0" transform="rotate(-0.0 387.0,294.0) translate(0 15)" x="387.0" y="294.0">Зубовский бульвар (Садовое кольцо)</text><text fill="#00AFAF" font-family="Arial" font-size="15" font-weight="normal" opacity="1.0" transform="rotate(-90.0 891.0,745.0) translate(0 15)" x="891.0" y="745.0">Крымская площадь</text><text fill="#00AFAF" font-family="Arial" font-size="15" font-weight="normal" opacity="1.0" transform="rotate(-0.0 727.0,381.0) translate(0 15)" x="727.0" y="381.0">ЦПКиО &gt;&gt;</text><text fill="#00AFAF" font-family="Arial" font-size="15" font-weight="normal" opacity="1.0" transform="rotate(-0.0 1251.0,389.0) translate(0 15)" x="1251.0" y="389.0">ЦПКиО &gt;&gt;</text><text fill="#000" font-family="Arial" font-size="8" font-weight="normal" opacity="1.0" transform="rotate(-0.0 780.0,491.0) translate(0 8)" x="780.0" y="491.0">вход</text><text fill="#000" font-family="Arial" font-size="8" font-weight="normal" opacity="1.0" transform="rotate(-0.0 1215.0,36.0) translate(0 8)" x="1215.0" y="36.0">вход</text><text fill="#FFF" font-family="Arial" font-size="8" font-weight="normal" opacity="1.0" transform="rotate(-0.0 1215.0,83.0) translate(0 8)" x="1215.0" y="83.0">вестибюль работает</text><text fill="#FFF" font-family="Arial" font-size="8" font-weight="normal" opacity="1.0" transform="rotate(-0.0 1220.0,93.0) translate(0 8)" x="1220.0" y="93.0">с 6-30 до 22-30</text><g transform="rotate(-20.0,705.0,450.0)"><text fill="#FFD900" font-family="Arial" font-size="25" font-weight="normal" opacity="1.0" x="694.25" y="479.5">1</text><text fill="#FFD900" font-family="Arial" font-size="25" font-weight="normal" opacity="1.0" x="571.25" y="530.5">2</text><text fill="#FFD900" font-family="Arial" font-size="25" font-weight="normal" opacity="1.0" x="1350.25" y="202.5">3</text></g></g></g></svg>