<?xml version="1.0" encoding="utf-8" ?>
<svg baseProfile="tiny" height="450px" version="1.2" width="730px" xmlns="http://www.w3.org/2000/svg" xmlns:ev="http://www.w3.org/2001/xml-events" xmlns:xlink="http://www.w3.org/1999/xlink"><defs /><g><polygon fill="#34349C" opacity="100" points="266.0,53.0 266.0,23.0 716.0,23.0 716.0,53.0" stroke="#000" stroke-width="1" /><polygon fill="#34349C" opacity="100" points="266.0,227.0 266.0,197.0 716.0,197.0 716.0,227.0" stroke="#000" stroke-width="1" /><polygon fill="#D0D0D0" opacity="100" points="279.0,140.0 279.0,110.0 716.0,110.0 716.0,140.0" stroke="#000" stroke-width="1" /><text fill="#34349C" font-family="Arial" font-size="20" font-weight="normal" opacity="100" transform="rotate(-0.0 270.0,3.0) translate(0 20)" x="270.0" y="3.0">&lt;&lt; Семёновская</text><text fill="#34349C" font-family="Arial" font-size="20" font-weight="normal" opacity="100" transform="rotate(-0.0 568.0,228.0) translate(0 20)" x="568.0" y="228.0">Измайловская &gt;&gt;</text><text fill="#34349C" font-family="Arial" font-size="25" font-weight="bold" opacity="100" transform="rotate(-0.0 436.0,79.0) translate(0 25)" x="436.0" y="79.0">Партизанская</text><polygon fill="#FEFBF1" opacity="100" points="14.0,36.0 234.0,36.0 234.0,213.0 14.0,213.0" stroke="#DDD" stroke-width="1" /><polyline fill="none" opacity="100" points="266.0,197.0 266.0,191.0 279.0,191.0" stroke="#000" stroke-width="1" /><polyline fill="none" opacity="100" points="279.0,191.0 279.0,140.0" stroke="#000" stroke-width="1" /><polyline fill="none" opacity="100" points="279.0,149.0 325.0,149.0" stroke="#000" stroke-width="1" /><polyline fill="none" opacity="100" points="279.0,110.0 279.0,59.0" stroke="#000" stroke-width="1" /><polyline fill="none" opacity="100" points="279.0,100.0 325.0,100.0" stroke="#000" stroke-width="1" /><polyline fill="none" opacity="100" points="279.0,59.0 266.0,59.0 266.0,53.0" stroke="#000" stroke-width="1" /><polyline fill="none" opacity="100" points="63.0,36.0 63.0,36.0 42.0,36.0 42.0,70.0 23.0,70.0 23.0,198.0 42.0,198.0 42.0,213.0 63.0,213.0" stroke="#000" stroke-width="1" /><polyline fill="none" opacity="100" points="63.0,38.0 42.0,38.0" stroke="#000" stroke-width="1" /><polyline fill="none" opacity="100" points="63.0,211.0 42.0,211.0" stroke="#000" stroke-width="1" /><polyline fill="none" opacity="100" points="325.0,149.0 325.0,177.0" stroke="#000" stroke-width="1" /><polyline fill="none" opacity="100" points="321.0,149.0 321.0,177.0" stroke="#000" stroke-width="1" /><polyline fill="none" opacity="100" points="317.0,149.0 317.0,177.0" stroke="#000" stroke-width="1" /><polyline fill="none" opacity="100" points="313.0,149.0 313.0,177.0" stroke="#000" stroke-width="1" /><polyline fill="none" opacity="100" points="309.0,149.0 309.0,177.0" stroke="#000" stroke-width="1" /><polyline fill="none" opacity="100" points="325.0,100.0 325.0,72.0" stroke="#000" stroke-width="1" /><polyline fill="none" opacity="100" points="321.0,100.0 321.0,72.0" stroke="#000" stroke-width="1" /><polyline fill="none" opacity="100" points="317.0,100.0 317.0,72.0" stroke="#000" stroke-width="1" /><polyline fill="none" opacity="100" points="313.0,100.0 313.0,72.0" stroke="#000" stroke-width="1" /><polyline fill="none" opacity="100" points="309.0,100.0 309.0,72.0" stroke="#000" stroke-width="1" /><polyline fill="none" opacity="100" points="141.0,184.0 141.0,206.0" stroke="#000" stroke-width="1" /><polyline fill="none" opacity="100" points="145.0,184.0 145.0,206.0" stroke="#000" stroke-width="1" /><polyline fill="none" opacity="100" points="149.0,184.0 149.0,206.0" stroke="#000" stroke-width="1" /><polyline fill="none" opacity="100" points="153.0,184.0 153.0,206.0" stroke="#000" stroke-width="1" /><polyline fill="none" opacity="100" points="157.0,184.0 157.0,206.0" stroke="#000" stroke-width="1" /><polyline fill="none" opacity="100" points="161.0,184.0 161.0,206.0" stroke="#000" stroke-width="1" /><polyline fill="none" opacity="100" points="165.0,184.0 165.0,206.0" stroke="#000" stroke-width="1" /><polyline fill="none" opacity="100" points="169.0,184.0 169.0,206.0" stroke="#000" stroke-width="1" /><polyline fill="none" opacity="100" points="90.0,206.0 90.0,184.0" stroke="#000" stroke-width="1" /><polyline fill="none" opacity="100" points="94.0,206.0 94.0,184.0" stroke="#000" stroke-width="1" /><polyline fill="none" opacity="100" points="98.0,206.0 98.0,184.0" stroke="#000" stroke-width="1" /><polyline fill="none" opacity="100" points="102.0,206.0 102.0,184.0" stroke="#000" stroke-width="1" /><polyline fill="none" opacity="100" points="106.0,206.0 106.0,184.0" stroke="#000" stroke-width="1" /><polyline fill="none" opacity="100" points="110.0,206.0 110.0,184.0" stroke="#000" stroke-width="1" /><polyline fill="none" opacity="100" points="114.0,206.0 114.0,184.0" stroke="#000" stroke-width="1" /><polyline fill="none" opacity="100" points="118.0,206.0 118.0,184.0" stroke="#000" stroke-width="1" /><polyline fill="none" opacity="100" points="114.0,177.0 114.0,149.0" stroke="#000" stroke-width="1" /><polyline fill="none" opacity="100" points="118.0,177.0 118.0,149.0" stroke="#000" stroke-width="1" /><polyline fill="none" opacity="100" points="122.0,177.0 122.0,149.0" stroke="#000" stroke-width="1" /><polyline fill="none" opacity="100" points="126.0,177.0 126.0,149.0" stroke="#000" stroke-width="1" /><polyline fill="none" opacity="100" points="130.0,177.0 130.0,149.0" stroke="#000" stroke-width="1" /><polyline fill="none" opacity="100" points="134.0,177.0 134.0,149.0" stroke="#000" stroke-width="1" /><polyline fill="none" opacity="100" points="138.0,177.0 138.0,149.0" stroke="#000" stroke-width="1" /><polyline fill="none" opacity="100" points="142.0,177.0 142.0,149.0" stroke="#000" stroke-width="1" /><polyline fill="none" opacity="100" points="192.0,177.0 192.0,149.0" stroke="#000" stroke-width="1" /><polyline fill="none" opacity="100" points="188.0,177.0 188.0,149.0" stroke="#000" stroke-width="1" /><polyline fill="none" opacity="100" points="184.0,177.0 184.0,149.0" stroke="#000" stroke-width="1" /><polyline fill="none" opacity="100" points="180.0,177.0 180.0,149.0" stroke="#000" stroke-width="1" /><polyline fill="none" opacity="100" points="176.0,177.0 176.0,149.0" stroke="#000" stroke-width="1" /><polyline fill="none" opacity="100" points="172.0,177.0 172.0,149.0" stroke="#000" stroke-width="1" /><polyline fill="none" opacity="100" points="168.0,177.0 168.0,149.0" stroke="#000" stroke-width="1" /><polyline fill="none" opacity="100" points="164.0,177.0 164.0,149.0" stroke="#000" stroke-width="1" /><polyline fill="none" opacity="100" points="160.0,177.0 160.0,149.0" stroke="#000" stroke-width="1" /><polyline fill="none" opacity="100" points="192.0,100.0 192.0,72.0" stroke="#000" stroke-width="1" /><polyline fill="none" opacity="100" points="188.0,100.0 188.0,72.0" stroke="#000" stroke-width="1" /><polyline fill="none" opacity="100" points="184.0,100.0 184.0,72.0" stroke="#000" stroke-width="1" /><polyline fill="none" opacity="100" points="180.0,100.0 180.0,72.0" stroke="#000" stroke-width="1" /><polyline fill="none" opacity="100" points="176.0,100.0 176.0,72.0" stroke="#000" stroke-width="1" /><polyline fill="none" opacity="100" points="172.0,100.0 172.0,72.0" stroke="#000" stroke-width="1" /><polyline fill="none" opacity="100" points="168.0,100.0 168.0,72.0" stroke="#000" stroke-width="1" /><polyline fill="none" opacity="100" points="164.0,100.0 164.0,72.0" stroke="#000" stroke-width="1" /><polyline fill="none" opacity="100" points="160.0,100.0 160.0,72.0" stroke="#000" stroke-width="1" /><polyline fill="none" opacity="100" points="145.0,100.0 145.0,72.0" stroke="#000" stroke-width="1" /><polyline fill="none" opacity="100" points="141.0,100.0 141.0,72.0" stroke="#000" stroke-width="1" /><polyline fill="none" opacity="100" points="137.0,100.0 137.0,72.0" stroke="#000" stroke-width="1" /><polyline fill="none" opacity="100" points="133.0,100.0 133.0,72.0" stroke="#000" stroke-width="1" /><polyline fill="none" opacity="100" points="129.0,100.0 129.0,72.0" stroke="#000" stroke-width="1" /><polyline fill="none" opacity="100" points="125.0,100.0 125.0,72.0" stroke="#000" stroke-width="1" /><polyline fill="none" opacity="100" points="121.0,100.0 121.0,72.0" stroke="#000" stroke-width="1" /><polyline fill="none" opacity="100" points="117.0,100.0 117.0,72.0" stroke="#000" stroke-width="1" /><polyline fill="none" opacity="100" points="172.0,65.0 172.0,43.0" stroke="#000" stroke-width="1" /><polyline fill="none" opacity="100" points="168.0,65.0 168.0,43.0" stroke="#000" stroke-width="1" /><polyline fill="none" opacity="100" points="164.0,65.0 164.0,43.0" stroke="#000" stroke-width="1" /><polyline fill="none" opacity="100" points="160.0,65.0 160.0,43.0" stroke="#000" stroke-width="1" /><polyline fill="none" opacity="100" points="156.0,65.0 156.0,43.0" stroke="#000" stroke-width="1" /><polyline fill="none" opacity="100" points="152.0,65.0 152.0,43.0" stroke="#000" stroke-width="1" /><polyline fill="none" opacity="100" points="148.0,65.0 148.0,43.0" stroke="#000" stroke-width="1" /><polyline fill="none" opacity="100" points="144.0,65.0 144.0,43.0" stroke="#000" stroke-width="1" /><polyline fill="none" opacity="100" points="121.0,65.0 121.0,43.0" stroke="#000" stroke-width="1" /><polyline fill="none" opacity="100" points="117.0,65.0 117.0,43.0" stroke="#000" stroke-width="1" /><polyline fill="none" opacity="100" points="113.0,65.0 113.0,43.0" stroke="#000" stroke-width="1" /><polyline fill="none" opacity="100" points="109.0,65.0 109.0,43.0" stroke="#000" stroke-width="1" /><polyline fill="none" opacity="100" points="105.0,65.0 105.0,43.0" stroke="#000" stroke-width="1" /><polyline fill="none" opacity="100" points="101.0,65.0 101.0,43.0" stroke="#000" stroke-width="1" /><polyline fill="none" opacity="100" points="97.0,65.0 97.0,43.0" stroke="#000" stroke-width="1" /><polyline fill="none" opacity="100" points="93.0,65.0 93.0,43.0" stroke="#000" stroke-width="1" /><polyline fill="none" opacity="100" points="325.0,72.0 279.0,72.0" stroke="#000" stroke-width="1" /><polyline fill="none" opacity="100" points="325.0,177.0 279.0,177.0" stroke="#000" stroke-width="1" /><polygon fill="#BBB" opacity="100" points="227.0,167.0 227.0,206.0 63.0,206.0 63.0,213.0 234.0,213.0 234.0,167.0" stroke="#000" stroke-width="1" /><polygon fill="#BBB" opacity="100" points="227.0,152.0 227.0,136.0 234.0,136.0 234.0,152.0" stroke="#000" stroke-width="1" /><polygon fill="#BBB" opacity="100" points="227.0,114.0 227.0,97.0 234.0,97.0 234.0,114.0" stroke="#000" stroke-width="1" /><polygon fill="#BBB" opacity="100" points="234.0,82.0 227.0,82.0 227.0,43.0 63.0,43.0 63.0,36.0 234.0,36.0" stroke="#000" stroke-width="1" /><polygon fill="#BBB" opacity="100" points="70.0,177.0 70.0,169.0 63.0,169.0 63.0,184.0 198.0,184.0 198.0,65.0 63.0,65.0 63.0,80.0 70.0,80.0 70.0,72.0 192.0,72.0 192.0,177.0" stroke="#000" stroke-width="1" /><polygon fill="#BBB" opacity="100" points="192.0,149.0 109.0,149.0 109.0,100.0 192.0,100.0" stroke="#000" stroke-width="1" /><polygon fill="#BBB" opacity="100" points="63.0,152.0 63.0,97.0 70.0,97.0 70.0,107.0 94.0,107.0 94.0,142.0 70.0,142.0 70.0,152.0" stroke="#000" stroke-width="1" /><polygon fill="#BBB" opacity="100" points="42.0,213.0 14.0,213.0 14.0,36.0 42.0,36.0 42.0,70.0 23.0,70.0 23.0,198.0 42.0,198.0" stroke="#000" stroke-width="1" /><polygon fill="#FFF" opacity="100" points="23.0,138.0 14.0,138.0 14.0,111.0 23.0,111.0" stroke="#000" stroke-width="1" /><text fill="#FFF" font-family="Arial" font-size="10" font-weight="normal" opacity="100" transform="rotate(-90.0 12.0,137.0) translate(0 10)" x="12.0" y="137.0">кассы</text><polyline fill="none" opacity="100" points="63.0,148.0 49.0,148.0" stroke="#000" stroke-width="0.5" /><polygon fill="none" opacity="100" points="55.0,73.0 60.0,74.0 61.0,69.0 56.0,68.0" stroke="#000" stroke-width="1" /><polyline fill="none" opacity="100" points="54.0,77.0 58.0,78.0" stroke="#090" stroke-width="1" /><polyline fill="none" opacity="100" points="52.8506,80.8313 56.8506,81.8313" stroke="#090" stroke-width="1" /><polyline fill="none" opacity="100" points="51.7012,84.6626 55.7012,85.6626" stroke="#090" stroke-width="1" /><polyline fill="none" opacity="100" points="50.5518,88.4939 54.5518,89.4939" stroke="#090" stroke-width="1" /><polyline fill="none" opacity="100" points="49.4024,92.3252 53.4024,93.3252" stroke="#090" stroke-width="1" /><polyline fill="none" opacity="100" points="48.253,96.1565 52.253,97.1565" stroke="#090" stroke-width="1" /><polyline fill="none" opacity="100" points="47.0,101.0 51.0,101.0" stroke="#090" stroke-width="1" /><polyline fill="none" opacity="100" points="47.0,105.0 51.0,105.0" stroke="#090" stroke-width="1" /><polyline fill="none" opacity="100" points="47.0,109.0 51.0,109.0" stroke="#090" stroke-width="1" /><polyline fill="none" opacity="100" points="47.0,113.0 51.0,113.0" stroke="#090" stroke-width="1" /><polyline fill="none" opacity="100" points="47.0,117.0 51.0,117.0" stroke="#090" stroke-width="1" /><polyline fill="none" opacity="100" points="47.0,121.0 51.0,121.0" stroke="#090" stroke-width="1" /><polyline fill="none" opacity="100" points="47.0,125.0 51.0,125.0" stroke="#090" stroke-width="1" /><polyline fill="none" opacity="100" points="47.0,129.0 51.0,129.0" stroke="#090" stroke-width="1" /><polyline fill="none" opacity="100" points="47.0,133.0 51.0,133.0" stroke="#090" stroke-width="1" /><polyline fill="none" opacity="100" points="47.0,137.0 51.0,137.0" stroke="#090" stroke-width="1" /><polyline fill="none" opacity="100" points="47.0,141.0 51.0,141.0" stroke="#090" stroke-width="1" /><polyline fill="none" opacity="100" points="47.0,145.0 51.0,145.0" stroke="#090" stroke-width="1" /><polyline fill="none" opacity="100" points="74.0,161.0 54.0,161.0 54.0,193.0 70.0,193.0" stroke="#F00" stroke-width="1" /><polygon fill="#F00" opacity="100" points="65.3636,194.2423 70.0,193.0 65.3636,191.7577" stroke="#F00" stroke-width="1" /><polyline fill="none" opacity="100" points="291.0,92.0 280.0,92.0" stroke="#F00" stroke-width="1" /><polyline fill="none" opacity="100" points="191.0,92.0 169.0,92.0" stroke="#F00" stroke-width="1" /><polygon fill="#F00" opacity="100" points="175.3751,90.2918 169.0,92.0 175.3751,93.7082" stroke="#F00" stroke-width="1" /><polyline fill="none" opacity="100" points="291.0,168.0 280.0,168.0" stroke="#F00" stroke-width="1" /><polyline fill="none" opacity="100" points="191.0,168.0 172.0,168.0" stroke="#F00" stroke-width="1" /><polygon fill="#F00" opacity="100" points="177.5058,166.5247 172.0,168.0 177.5058,169.4753" stroke="#F00" stroke-width="1" /><polyline fill="none" opacity="100" points="190.0,195.0 212.0,195.0 212.0,160.0 238.0,160.0" stroke="#F00" stroke-width="1" /><polygon fill="#F00" opacity="100" points="230.4658,162.0188 238.0,160.0 230.4658,157.9812" stroke="#F00" stroke-width="1" /><polyline fill="none" opacity="100" points="223.0,128.0 236.0,128.0" stroke="#F00" stroke-width="1" /><polygon fill="#F00" opacity="100" points="232.2329,129.0094 236.0,128.0 232.2329,126.9906" stroke="#F00" stroke-width="1" /><polyline fill="none" opacity="100" points="49.0,86.0 64.0,90.0" stroke="#090" stroke-width="1" /><polygon fill="#090" opacity="100" points="59.3428,90.0056 64.0,90.0 59.9639,87.6762" stroke="#090" stroke-width="1" /><polyline fill="none" opacity="100" points="86.0,80.0 109.0,80.0" stroke="#090" stroke-width="1" /><polygon fill="#090" opacity="100" points="102.3351,81.7859 109.0,80.0 102.3351,78.2141" stroke="#090" stroke-width="1" /><polyline fill="none" opacity="100" points="103.0,138.0 103.0,156.0 116.0,156.0" stroke="#090" stroke-width="1" /><polygon fill="#090" opacity="100" points="112.2329,157.0094 116.0,156.0 112.2329,154.9906" stroke="#090" stroke-width="1" /><polyline fill="none" opacity="100" points="236.0,121.0 223.0,121.0" stroke="#090" stroke-width="1" /><polygon fill="#090" opacity="100" points="226.7671,119.9906 223.0,121.0 226.7671,122.0094" stroke="#090" stroke-width="1" /><polyline fill="none" opacity="100" points="238.0,86.0 212.0,86.0 212.0,55.0 193.0,55.0" stroke="#090" stroke-width="1" /><polygon fill="#090" opacity="100" points="198.5058,53.5247 193.0,55.0 198.5058,56.4753" stroke="#090" stroke-width="1" /><polyline fill="none" opacity="100" points="716.0,53.0 716.0,110.0" stroke="#000" stroke-width="1" /><polyline fill="none" opacity="100" points="716.0,140.0 716.0,197.0" stroke="#000" stroke-width="1" /><text fill="#00AFAF" font-family="Arial" font-size="15" font-weight="normal" opacity="100" transform="rotate(-0.0 186.0,259.0) translate(0 15)" x="186.0" y="259.0">Измайловское шоссе</text><text fill="#00AFAF" font-family="Arial" font-size="15" font-weight="normal" opacity="100" transform="rotate(90.0 48.0,321.0) translate(0 15)" x="48.0" y="321.0">Народный проспект</text><text fill="#00AFAF" font-family="Arial" font-size="15" font-weight="normal" opacity="100" transform="rotate(-0.0 176.0,333.0) translate(0 15)" x="176.0" y="333.0">Измайловский парк</text><text fill="#000" font-family="Arial" font-size="8" font-weight="normal" opacity="100" transform="rotate(-0.0 206.0,94.0) translate(0 8)" x="206.0" y="94.0">вход</text><text fill="#000" font-family="Arial" font-size="8" font-weight="normal" opacity="100" transform="rotate(-0.0 202.0,150.0) translate(0 8)" x="202.0" y="150.0">выход</text><polyline fill="none" opacity="0.1" points="280.0,92.0 191.0,92.0" stroke="#F00" stroke-width="1" /><polyline fill="none" opacity="0.1" points="280.0,168.0 191.0,168.0" stroke="#F00" stroke-width="1" /><text fill="#FFD900" font-family="Arial" font-size="25" font-weight="normal" opacity="1.0" x="245.25" y="132.5">1</text></g></svg>