<?xml version="1.0" encoding="utf-8" ?>
<svg baseProfile="tiny" height="1080px" version="1.2" width="980px" xmlns="http://www.w3.org/2000/svg" xmlns:ev="http://www.w3.org/2001/xml-events" xmlns:xlink="http://www.w3.org/1999/xlink"><defs /><g><g transform="rotate(-30.0,490.0,540.0)"><polygon fill="#F5F5F5" opacity="100" points="1087.0,261.0 1147.0,296.0 784.0,499.0 187.0,500.0 187.0,634.0 178.0,649.0 789.0,1002.0 769.0,1036.0 158.0,684.0 32.0,900.0 -2.0,880.0 147.0,623.0 147.0,500.0 -53.0,500.0 -18.0,440.0 103.0,441.0 103.0,230.0 143.0,161.0 142.0,440.0 768.0,440.0" stroke="#F5F5F5" stroke-width="1" /><polyline fill="none" opacity="100" points="657.0,260.0 657.0,352.0 413.0,605.0 316.0,605.0" stroke="#000" stroke-width="1" /><polyline fill="none" opacity="100" points="316.0,651.0 443.0,651.0 706.0,374.0 706.0,260.0" stroke="#000" stroke-width="1" /><polyline fill="none" opacity="100" points="657.0,242.0 706.0,242.0" stroke="#000" stroke-width="1" /><polyline fill="none" opacity="100" points="298.0,605.0 298.0,651.0" stroke="#000" stroke-width="1" /><polyline fill="none" opacity="100" points="709.0,260.0 709.0,242.0" stroke="#000" stroke-width="1" /><polyline fill="none" opacity="100" points="713.0,260.0 713.0,242.0" stroke="#000" stroke-width="1" /><polyline fill="none" opacity="100" points="717.0,260.0 717.0,242.0" stroke="#000" stroke-width="1" /><polyline fill="none" opacity="100" points="721.0,260.0 721.0,242.0" stroke="#000" stroke-width="1" /><polyline fill="none" opacity="100" points="725.0,260.0 725.0,242.0" stroke="#000" stroke-width="1" /><polyline fill="none" opacity="100" points="729.0,260.0 729.0,242.0" stroke="#000" stroke-width="1" /><polyline fill="none" opacity="100" points="733.0,260.0 733.0,242.0" stroke="#000" stroke-width="1" /><polyline fill="none" opacity="100" points="737.0,260.0 737.0,242.0" stroke="#000" stroke-width="1" /><polyline fill="none" opacity="100" points="654.0,260.0 654.0,242.0" stroke="#000" stroke-width="1" /><polyline fill="none" opacity="100" points="650.0,260.0 650.0,242.0" stroke="#000" stroke-width="1" /><polyline fill="none" opacity="100" points="646.0,260.0 646.0,242.0" stroke="#000" stroke-width="1" /><polyline fill="none" opacity="100" points="642.0,260.0 642.0,242.0" stroke="#000" stroke-width="1" /><polyline fill="none" opacity="100" points="638.0,260.0 638.0,242.0" stroke="#000" stroke-width="1" /><polyline fill="none" opacity="100" points="634.0,260.0 634.0,242.0" stroke="#000" stroke-width="1" /><polyline fill="none" opacity="100" points="630.0,260.0 630.0,242.0" stroke="#000" stroke-width="1" /><polyline fill="none" opacity="100" points="626.0,260.0 626.0,242.0" stroke="#000" stroke-width="1" /><polyline fill="none" opacity="100" points="298.0,602.0 316.0,602.0" stroke="#000" stroke-width="1" /><polyline fill="none" opacity="100" points="298.0,598.0 316.0,598.0" stroke="#000" stroke-width="1" /><polyline fill="none" opacity="100" points="298.0,594.0 316.0,594.0" stroke="#000" stroke-width="1" /><polyline fill="none" opacity="100" points="298.0,590.0 316.0,590.0" stroke="#000" stroke-width="1" /><polyline fill="none" opacity="100" points="298.0,586.0 316.0,586.0" stroke="#000" stroke-width="1" /><polyline fill="none" opacity="100" points="298.0,582.0 316.0,582.0" stroke="#000" stroke-width="1" /><polyline fill="none" opacity="100" points="298.0,578.0 316.0,578.0" stroke="#000" stroke-width="1" /><polyline fill="none" opacity="100" points="298.0,574.0 316.0,574.0" stroke="#000" stroke-width="1" /><polyline fill="none" opacity="100" points="298.0,654.0 316.0,654.0" stroke="#000" stroke-width="1" /><polyline fill="none" opacity="100" points="298.0,658.0 316.0,658.0" stroke="#000" stroke-width="1" /><polyline fill="none" opacity="100" points="298.0,662.0 316.0,662.0" stroke="#000" stroke-width="1" /><polyline fill="none" opacity="100" points="298.0,666.0 316.0,666.0" stroke="#000" stroke-width="1" /><polyline fill="none" opacity="100" points="298.0,670.0 316.0,670.0" stroke="#000" stroke-width="1" /><polyline fill="none" opacity="100" points="298.0,674.0 316.0,674.0" stroke="#000" stroke-width="1" /><polyline fill="none" opacity="100" points="298.0,678.0 316.0,678.0" stroke="#000" stroke-width="1" /><polyline fill="none" opacity="100" points="298.0,682.0 316.0,682.0" stroke="#000" stroke-width="1" /><polyline fill="none" opacity="100" points="298.0,686.0 316.0,686.0" stroke="#000" stroke-width="1" /><polygon fill="#D0D0D0" opacity="100" points="688.0,260.0 688.0,366.0 675.0,360.0 675.0,260.0" stroke="#000" stroke-width="1" /><polygon fill="#D0D0D0" opacity="100" points="316.0,620.0 422.0,620.0 432.0,635.0 316.0,635.0" stroke="#000" stroke-width="1" /><polyline fill="none" opacity="100" points="551.0,518.0 576.0,491.0" stroke="#000" stroke-width="1" /><polygon fill="#000" opacity="100" points="570.852,500.7651 576.0,491.0 566.6591,496.8829" stroke="#000" stroke-width="1" /><polyline fill="none" opacity="100" points="751.0,250.0 778.0,250.0" stroke="#000" stroke-width="1" /><polygon fill="#000" opacity="100" points="770.176,252.0964 778.0,250.0 770.176,247.9036" stroke="#000" stroke-width="1" /><polyline fill="none" opacity="100" points="307.0,727.0 307.0,701.0" stroke="#000" stroke-width="1" /><polygon fill="#000" opacity="100" points="309.0188,708.5342 307.0,701.0 304.9812,708.5342" stroke="#000" stroke-width="1" /><polyline fill="none" opacity="100" points="581.0,250.0 608.0,250.0" stroke="#000" stroke-width="1" /><polygon fill="#000" opacity="100" points="600.176,252.0964 608.0,250.0 600.176,247.9036" stroke="#000" stroke-width="1" /><polyline fill="none" opacity="100" points="307.0,559.0 307.0,532.0" stroke="#000" stroke-width="1" /><polygon fill="#000" opacity="100" points="309.0964,539.824 307.0,532.0 304.9036,539.824" stroke="#000" stroke-width="1" /><polyline fill="none" opacity="100" points="556.0,475.0 530.0,502.0" stroke="#000" stroke-width="1" /><polygon fill="#000" opacity="100" points="535.4378,492.1572 530.0,502.0 539.6307,496.1948" stroke="#000" stroke-width="1" /><polygon fill="#FFF" opacity="0.8" points="656.0,290.0 707.0,290.0 707.0,241.0 656.0,241.0" stroke="#FFF" stroke-width="1" /><polygon fill="#FFF" opacity="0.8" points="345.0,652.0 297.0,652.0 297.0,604.0 345.0,604.0" stroke="#FFF" stroke-width="1" /><polyline fill="none" opacity="1.0" points="740.0,242.0 706.0,242.0 706.0,260.0 740.0,260.0" stroke="#000" stroke-width="1" /><polyline fill="none" opacity="1.0" points="623.0,242.0 657.0,242.0 657.0,260.0 623.0,260.0" stroke="#000" stroke-width="1" /><polyline fill="none" opacity="1.0" points="316.0,571.0 316.0,605.0 298.0,605.0 298.0,571.0" stroke="#000" stroke-width="1" /><polyline fill="none" opacity="1.0" points="316.0,689.0 316.0,651.0 298.0,651.0 298.0,689.0" stroke="#000" stroke-width="1" /><polygon fill="#FEFBF1" opacity="1.0" points="730.0,1082.0 156.0,751.0 96.0,855.0 231.0,933.0 206.0,976.0 645.0,1229.0" stroke="#CCC" stroke-width="1" /><text fill="#000" font-family="Arial" font-size="15" font-weight="normal" opacity="1.0" transform="rotate(30.0 475.0,1017.0) translate(0 15)" x="475.0" y="1017.0">Павелецкий вокзал</text><polyline fill="none" opacity="1.0" points="345.0,862.0 336.0,862.0 336.0,810.0 328.0,810.0 328.0,840.0 325.0,840.0" stroke="#000" stroke-width="1" /><polyline fill="none" opacity="1.0" points="265.0,862.0 274.0,862.0 274.0,810.0 282.0,810.0 282.0,840.0 285.0,840.0" stroke="#000" stroke-width="1" /><polyline fill="none" opacity="1.0" points="285.0,908.0 273.0,901.0 234.0,968.0 386.0,1056.0" stroke="#000" stroke-width="1" /><polyline fill="none" opacity="1.0" points="368.0,943.0 362.0,953.0 324.0,931.0" stroke="#000" stroke-width="1" /><polyline fill="none" opacity="1.0" points="393.0,957.0 387.0,967.0 425.0,989.0" stroke="#000" stroke-width="1" /><polyline fill="none" opacity="1.0" points="379.0,1052.0 375.0,1059.0 351.0,1045.0 355.0,1038.0" stroke="#000" stroke-width="1" /><polyline fill="none" opacity="1.0" points="285.0,908.0 324.0,931.0" stroke="#C0C0C0" stroke-width="1" /><polyline fill="none" opacity="1.0" points="322.0,838.0 288.0,838.0" stroke="#7F7F7F" stroke-width="1" /><polyline fill="none" opacity="1.0" points="322.0,842.0 288.0,842.0" stroke="#7F7F7F" stroke-width="1" /><polyline fill="none" opacity="1.0" points="322.0,846.0 288.0,846.0" stroke="#7F7F7F" stroke-width="1" /><polyline fill="none" opacity="1.0" points="322.0,850.0 288.0,850.0" stroke="#7F7F7F" stroke-width="1" /><polyline fill="none" opacity="1.0" points="322.0,854.0 288.0,854.0" stroke="#7F7F7F" stroke-width="1" /><polyline fill="none" opacity="1.0" points="322.0,858.0 288.0,858.0" stroke="#7F7F7F" stroke-width="1" /><polyline fill="none" opacity="1.0" points="322.0,862.0 288.0,862.0" stroke="#7F7F7F" stroke-width="1" /><polyline fill="none" opacity="1.0" points="322.0,866.0 288.0,866.0" stroke="#7F7F7F" stroke-width="1" /><polyline fill="none" opacity="1.0" points="322.0,870.0 288.0,870.0" stroke="#7F7F7F" stroke-width="1" /><polyline fill="none" opacity="1.0" points="322.0,874.0 288.0,874.0" stroke="#7F7F7F" stroke-width="1" /><polyline fill="none" opacity="1.0" points="322.0,878.0 288.0,878.0" stroke="#7F7F7F" stroke-width="1" /><polyline fill="none" opacity="1.0" points="322.0,882.0 288.0,882.0" stroke="#7F7F7F" stroke-width="1" /><polyline fill="none" opacity="1.0" points="322.0,886.0 288.0,886.0" stroke="#7F7F7F" stroke-width="1" /><polyline fill="none" opacity="1.0" points="322.0,890.0 288.0,890.0" stroke="#7F7F7F" stroke-width="1" /><polyline fill="none" opacity="1.0" points="322.0,894.0 288.0,894.0" stroke="#7F7F7F" stroke-width="1" /><polyline fill="none" opacity="1.0" points="322.0,898.0 288.0,898.0" stroke="#7F7F7F" stroke-width="1" /><polyline fill="none" opacity="1.0" points="322.0,902.0 288.0,902.0" stroke="#7F7F7F" stroke-width="1" /><polyline fill="none" opacity="1.0" points="322.0,906.0 288.0,906.0" stroke="#7F7F7F" stroke-width="1" /><polyline fill="none" opacity="1.0" points="322.0,910.0 288.0,910.0" stroke="#7F7F7F" stroke-width="1" /><polyline fill="none" opacity="1.0" points="322.0,914.0 288.0,914.0" stroke="#7F7F7F" stroke-width="1" /><polyline fill="none" opacity="1.0" points="322.0,918.0 288.0,918.0" stroke="#7F7F7F" stroke-width="1" /><polyline fill="none" opacity="1.0" points="322.0,922.0 288.0,922.0" stroke="#7F7F7F" stroke-width="1" /><polyline fill="none" opacity="1.0" points="322.0,926.0 288.0,926.0" stroke="#7F7F7F" stroke-width="1" /><polyline fill="none" opacity="1.0" points="322.0,930.0 288.0,930.0" stroke="#7F7F7F" stroke-width="1" /><polygon fill="#9B5509" opacity="1.0" points="288.0,831.0 288.0,939.0 285.0,939.0 285.0,831.0" stroke="#000" stroke-width="1" /><polygon fill="#9B5509" opacity="1.0" points="296.0,831.0 301.0,831.0 301.0,939.0 296.0,939.0" stroke="#000" stroke-width="1" /><polygon fill="#9B5509" opacity="1.0" points="309.0,831.0 314.0,831.0 314.0,939.0 309.0,939.0" stroke="#000" stroke-width="1" /><polygon fill="#9B5509" opacity="1.0" points="322.0,831.0 322.0,939.0 325.0,939.0 325.0,831.0" stroke="#000" stroke-width="1" /><text fill="#FFF" font-family="Arial" font-size="10" font-weight="normal" opacity="1.0" transform="rotate(30.0 357.0,1037.0) translate(0 10)" x="357.0" y="1037.0">кассы</text><polygon fill="none" opacity="1.0" points="374.0,1003.0 369.0,1000.0 366.0,1005.0 371.0,1008.0" stroke="#000" stroke-width="1" /><polyline fill="none" opacity="1.0" points="369.0,1011.0 365.0,1009.0" stroke="#090" stroke-width="1" /><polyline fill="none" opacity="1.0" points="366.942,1014.43 362.942,1012.43" stroke="#090" stroke-width="1" /><polyline fill="none" opacity="1.0" points="364.884,1017.8599 360.884,1015.8599" stroke="#090" stroke-width="1" /><polyline fill="none" opacity="1.0" points="362.8261,1021.2899 358.8261,1019.2899" stroke="#090" stroke-width="1" /><polyline fill="none" opacity="1.0" points="360.7681,1024.7199 356.7681,1022.7199" stroke="#090" stroke-width="1" /><polyline fill="none" opacity="1.0" points="358.7101,1028.1499 354.7101,1026.1499" stroke="#090" stroke-width="1" /><polyline fill="none" opacity="1.0" points="356.6521,1031.5798 352.6521,1029.5798" stroke="#090" stroke-width="1" /><polyline fill="none" opacity="1.0" points="354.5941,1035.0098 350.5941,1033.0098" stroke="#090" stroke-width="1" /><polyline fill="none" opacity="1.0" points="390.0,973.0 386.0,971.0" stroke="#F00" stroke-width="1" /><polyline fill="none" opacity="1.0" points="388.0011,976.4647 384.0011,974.4647" stroke="#F00" stroke-width="1" /><polyline fill="none" opacity="1.0" points="386.0022,979.9295 382.0022,977.9295" stroke="#F00" stroke-width="1" /><polyline fill="none" opacity="1.0" points="384.0033,983.3942 380.0033,981.3942" stroke="#F00" stroke-width="1" /><polyline fill="none" opacity="1.0" points="382.0044,986.859 378.0044,984.859" stroke="#F00" stroke-width="1" /><polyline fill="none" opacity="1.0" points="380.0056,990.3237 376.0056,988.3237" stroke="#F00" stroke-width="1" /><polyline fill="none" opacity="1.0" points="378.0067,993.7885 374.0067,991.7885" stroke="#F00" stroke-width="1" /><polyline fill="none" opacity="1.0" points="376.0078,997.2532 372.0078,995.2532" stroke="#F00" stroke-width="1" /><polyline fill="none" opacity="1.0" points="367.0,953.0 369.0,950.0" stroke="#F00" stroke-width="1" /><polyline fill="none" opacity="1.0" points="370.4131,955.0858 372.4131,952.0858" stroke="#F00" stroke-width="1" /><polyline fill="none" opacity="1.0" points="373.8263,957.1716 375.8263,954.1716" stroke="#F00" stroke-width="1" /><polyline fill="none" opacity="1.0" points="377.2394,959.2574 379.2394,956.2574" stroke="#F00" stroke-width="1" /><polyline fill="none" opacity="1.0" points="380.6525,961.3432 382.6525,958.3432" stroke="#F00" stroke-width="1" /><polyline fill="none" opacity="1.0" points="384.0656,963.429 386.0656,960.429" stroke="#F00" stroke-width="1" /><polyline fill="none" opacity="1.0" points="318.0,801.0 318.0,821.0" stroke="#F00" stroke-width="1" /><polygon fill="#F00" opacity="1.0" points="316.4471,815.2044 318.0,821.0 319.5529,815.2044" stroke="#F00" stroke-width="1" /><polyline fill="none" opacity="1.0" points="377.0,982.0 390.0,989.0" stroke="#F00" stroke-width="1" /><polygon fill="#F00" opacity="1.0" points="385.6894,987.981 390.0,989.0 386.7764,985.9622" stroke="#F00" stroke-width="1" /><polyline fill="none" opacity="1.0" points="374.0,961.0 382.0,948.0" stroke="#F00" stroke-width="1" /><polygon fill="#F00" opacity="1.0" points="380.6912,952.3883 382.0,948.0 378.6724,951.1459" stroke="#F00" stroke-width="1" /><polyline fill="none" opacity="1.0" points="364.0,1024.0 350.0,1017.0" stroke="#090" stroke-width="1" /><polygon fill="#090" opacity="1.0" points="354.6004,1017.9414 350.0,1017.0 353.5134,1020.1155" stroke="#090" stroke-width="1" /><polyline fill="none" opacity="1.0" points="292.0,957.0 292.0,945.0" stroke="#090" stroke-width="1" /><polygon fill="#090" opacity="1.0" points="292.9317,948.4773 292.0,945.0 291.0683,948.4773" stroke="#090" stroke-width="1" /><polygon fill="#34349C" opacity="1.0" points="333.0,943.0 337.0,943.0 337.0,944.0 333.0,944.0" stroke="#34349C" stroke-width="1" /><polygon fill="#F00" opacity="1.0" points="329.0,943.0 333.0,943.0 333.0,944.0 329.0,944.0" stroke="#F00" stroke-width="1" /><polygon fill="#047C54" opacity="1.0" points="265.0,862.0 235.0,862.0 235.0,412.0 265.0,412.0" stroke="#000" stroke-width="1" /><polygon fill="#047C54" opacity="1.0" points="345.0,862.0 345.0,412.0 375.0,412.0 375.0,862.0" stroke="#000" stroke-width="1" /><text fill="#047C54" font-family="Arial" font-size="20" font-weight="normal" opacity="1.0" transform="rotate(90.0 235.0,684.0) translate(0 20)" x="235.0" y="684.0">Автозаводская &gt;&gt;</text><text fill="#047C54" font-family="Arial" font-size="20" font-weight="normal" opacity="1.0" transform="rotate(90.0 399.0,412.0) translate(0 20)" x="399.0" y="412.0">&lt;&lt; Новокузнецкая</text><text fill="#047C54" font-family="Arial" font-size="25" font-weight="bold" opacity="1.0" transform="rotate(90.0 296.0,555.0) translate(0 25)" x="296.0" y="555.0">Павелецкая</text><polygon fill="#34349C" opacity="1.0" points="306.0,627.0 302.0,627.0 302.0,628.0 306.0,628.0" stroke="#34349C" stroke-width="1" /><polygon fill="#F00" opacity="1.0" points="310.0,627.0 306.0,627.0 306.0,628.0 310.0,628.0" stroke="#F00" stroke-width="1" /><polyline fill="none" opacity="1.0" points="265.0,412.0 275.0,412.0 275.0,473.0 282.0,473.0 282.0,439.0 285.0,439.0" stroke="#000" stroke-width="1" /><polyline fill="none" opacity="1.0" points="345.0,412.0 335.0,412.0 335.0,473.0 328.0,473.0 328.0,439.0 325.0,439.0" stroke="#000" stroke-width="1" /><polyline fill="none" opacity="1.0" points="322.0,313.0 288.0,313.0" stroke="#7F7F7F" stroke-width="1" /><polyline fill="none" opacity="1.0" points="322.0,317.0 288.0,317.0" stroke="#7F7F7F" stroke-width="1" /><polyline fill="none" opacity="1.0" points="322.0,321.0 288.0,321.0" stroke="#7F7F7F" stroke-width="1" /><polyline fill="none" opacity="1.0" points="322.0,325.0 288.0,325.0" stroke="#7F7F7F" stroke-width="1" /><polyline fill="none" opacity="1.0" points="322.0,329.0 288.0,329.0" stroke="#7F7F7F" stroke-width="1" /><polyline fill="none" opacity="1.0" points="322.0,333.0 288.0,333.0" stroke="#7F7F7F" stroke-width="1" /><polyline fill="none" opacity="1.0" points="322.0,337.0 288.0,337.0" stroke="#7F7F7F" stroke-width="1" /><polyline fill="none" opacity="1.0" points="322.0,341.0 288.0,341.0" stroke="#7F7F7F" stroke-width="1" /><polyline fill="none" opacity="1.0" points="322.0,345.0 288.0,345.0" stroke="#7F7F7F" stroke-width="1" /><polyline fill="none" opacity="1.0" points="322.0,349.0 288.0,349.0" stroke="#7F7F7F" stroke-width="1" /><polyline fill="none" opacity="1.0" points="322.0,353.0 288.0,353.0" stroke="#7F7F7F" stroke-width="1" /><polyline fill="none" opacity="1.0" points="322.0,357.0 288.0,357.0" stroke="#7F7F7F" stroke-width="1" /><polyline fill="none" opacity="1.0" points="322.0,361.0 288.0,361.0" stroke="#7F7F7F" stroke-width="1" /><polyline fill="none" opacity="1.0" points="322.0,365.0 288.0,365.0" stroke="#7F7F7F" stroke-width="1" /><polyline fill="none" opacity="1.0" points="322.0,369.0 288.0,369.0" stroke="#7F7F7F" stroke-width="1" /><polyline fill="none" opacity="1.0" points="322.0,373.0 288.0,373.0" stroke="#7F7F7F" stroke-width="1" /><polyline fill="none" opacity="1.0" points="322.0,377.0 288.0,377.0" stroke="#7F7F7F" stroke-width="1" /><polyline fill="none" opacity="1.0" points="322.0,381.0 288.0,381.0" stroke="#7F7F7F" stroke-width="1" /><polyline fill="none" opacity="1.0" points="322.0,385.0 288.0,385.0" stroke="#7F7F7F" stroke-width="1" /><polyline fill="none" opacity="1.0" points="322.0,389.0 288.0,389.0" stroke="#7F7F7F" stroke-width="1" /><polyline fill="none" opacity="1.0" points="322.0,393.0 288.0,393.0" stroke="#7F7F7F" stroke-width="1" /><polyline fill="none" opacity="1.0" points="322.0,397.0 288.0,397.0" stroke="#7F7F7F" stroke-width="1" /><polyline fill="none" opacity="1.0" points="322.0,401.0 288.0,401.0" stroke="#7F7F7F" stroke-width="1" /><polyline fill="none" opacity="1.0" points="322.0,405.0 288.0,405.0" stroke="#7F7F7F" stroke-width="1" /><polyline fill="none" opacity="1.0" points="322.0,409.0 288.0,409.0" stroke="#7F7F7F" stroke-width="1" /><polyline fill="none" opacity="1.0" points="322.0,413.0 288.0,413.0" stroke="#7F7F7F" stroke-width="1" /><polyline fill="none" opacity="1.0" points="322.0,417.0 288.0,417.0" stroke="#7F7F7F" stroke-width="1" /><polyline fill="none" opacity="1.0" points="322.0,421.0 288.0,421.0" stroke="#7F7F7F" stroke-width="1" /><polyline fill="none" opacity="1.0" points="322.0,425.0 288.0,425.0" stroke="#7F7F7F" stroke-width="1" /><polyline fill="none" opacity="1.0" points="322.0,429.0 288.0,429.0" stroke="#7F7F7F" stroke-width="1" /><polyline fill="none" opacity="1.0" points="322.0,433.0 288.0,433.0" stroke="#7F7F7F" stroke-width="1" /><polyline fill="none" opacity="1.0" points="322.0,437.0 288.0,437.0" stroke="#7F7F7F" stroke-width="1" /><polyline fill="none" opacity="1.0" points="322.0,441.0 288.0,441.0" stroke="#7F7F7F" stroke-width="1" /><polygon fill="#9B5509" opacity="1.0" points="288.0,306.0 288.0,448.0 285.0,448.0 285.0,306.0" stroke="#000" stroke-width="1" /><polygon fill="#9B5509" opacity="1.0" points="296.0,306.0 301.0,306.0 301.0,448.0 296.0,448.0" stroke="#000" stroke-width="1" /><polygon fill="#9B5509" opacity="1.0" points="309.0,306.0 314.0,306.0 314.0,448.0 309.0,448.0" stroke="#000" stroke-width="1" /><polygon fill="#9B5509" opacity="1.0" points="322.0,306.0 322.0,448.0 325.0,448.0 325.0,306.0" stroke="#000" stroke-width="1" /><polyline fill="none" opacity="1.0" points="318.0,481.0 318.0,456.0" stroke="#F00" stroke-width="1" /><polygon fill="#F00" opacity="1.0" points="319.9411,463.2444 318.0,456.0 316.0589,463.2444" stroke="#F00" stroke-width="1" /><polyline fill="none" opacity="1.0" points="292.0,289.0 292.0,303.0" stroke="#090" stroke-width="1" /><polygon fill="#090" opacity="1.0" points="290.913,298.9431 292.0,303.0 293.087,298.9431" stroke="#090" stroke-width="1" /><polygon fill="#9B5509" opacity="1.0" points="457.0,180.0 907.0,180.0 907.0,210.0 457.0,210.0" stroke="#000" stroke-width="1" /><polygon fill="#9B5509" opacity="1.0" points="457.0,290.0 907.0,290.0 907.0,320.0 457.0,320.0" stroke="#000" stroke-width="1" /><text fill="#543C04" font-family="Arial" font-size="20" font-weight="normal" opacity="1.0" transform="rotate(-0.0 458.0,155.0) translate(0 20)" x="458.0" y="155.0">&lt;&lt; Добрынинская</text><text fill="#543C04" font-family="Arial" font-size="20" font-weight="normal" opacity="1.0" transform="rotate(-0.0 795.0,320.0) translate(0 20)" x="795.0" y="320.0">Таганская &gt;&gt;</text><text fill="#543C04" font-family="Arial" font-size="25" font-weight="bold" opacity="1.0" transform="rotate(-0.0 619.0,213.0) translate(0 25)" x="619.0" y="213.0">Павелецкая</text><polygon fill="#34349C" opacity="1.0" points="681.0,250.0 681.0,254.0 682.0,254.0 682.0,250.0" stroke="#34349C" stroke-width="1" /><polygon fill="#F00" opacity="1.0" points="681.0,246.0 681.0,250.0 682.0,250.0 682.0,246.0" stroke="#F00" stroke-width="1" /><polyline fill="none" opacity="1.0" points="491.0,230.0 491.0,227.0 526.0,227.0 526.0,220.0 457.0,220.0 457.0,210.0" stroke="#000" stroke-width="1" /><polyline fill="none" opacity="1.0" points="457.0,290.0 457.0,280.0 526.0,280.0 526.0,273.0 491.0,273.0 491.0,270.0" stroke="#000" stroke-width="1" /><polyline fill="none" opacity="1.0" points="357.0,273.0 367.0,273.0 367.0,270.0" stroke="#000" stroke-width="1" /><polyline fill="none" opacity="1.0" points="367.0,230.0 367.0,227.0 345.0,227.0" stroke="#000" stroke-width="1" /><polyline fill="none" opacity="1.0" points="497.0,267.0 497.0,233.0" stroke="#7F7F7F" stroke-width="1" /><polyline fill="none" opacity="1.0" points="493.0,267.0 493.0,233.0" stroke="#7F7F7F" stroke-width="1" /><polyline fill="none" opacity="1.0" points="489.0,267.0 489.0,233.0" stroke="#7F7F7F" stroke-width="1" /><polyline fill="none" opacity="1.0" points="485.0,267.0 485.0,233.0" stroke="#7F7F7F" stroke-width="1" /><polyline fill="none" opacity="1.0" points="481.0,267.0 481.0,233.0" stroke="#7F7F7F" stroke-width="1" /><polyline fill="none" opacity="1.0" points="477.0,267.0 477.0,233.0" stroke="#7F7F7F" stroke-width="1" /><polyline fill="none" opacity="1.0" points="473.0,267.0 473.0,233.0" stroke="#7F7F7F" stroke-width="1" /><polyline fill="none" opacity="1.0" points="469.0,267.0 469.0,233.0" stroke="#7F7F7F" stroke-width="1" /><polyline fill="none" opacity="1.0" points="465.0,267.0 465.0,233.0" stroke="#7F7F7F" stroke-width="1" /><polyline fill="none" opacity="1.0" points="461.0,267.0 461.0,233.0" stroke="#7F7F7F" stroke-width="1" /><polyline fill="none" opacity="1.0" points="457.0,267.0 457.0,233.0" stroke="#7F7F7F" stroke-width="1" /><polyline fill="none" opacity="1.0" points="453.0,267.0 453.0,233.0" stroke="#7F7F7F" stroke-width="1" /><polyline fill="none" opacity="1.0" points="449.0,267.0 449.0,233.0" stroke="#7F7F7F" stroke-width="1" /><polyline fill="none" opacity="1.0" points="445.0,267.0 445.0,233.0" stroke="#7F7F7F" stroke-width="1" /><polyline fill="none" opacity="1.0" points="441.0,267.0 441.0,233.0" stroke="#7F7F7F" stroke-width="1" /><polyline fill="none" opacity="1.0" points="437.0,267.0 437.0,233.0" stroke="#7F7F7F" stroke-width="1" /><polyline fill="none" opacity="1.0" points="433.0,267.0 433.0,233.0" stroke="#7F7F7F" stroke-width="1" /><polyline fill="none" opacity="1.0" points="429.0,267.0 429.0,233.0" stroke="#7F7F7F" stroke-width="1" /><polyline fill="none" opacity="1.0" points="425.0,267.0 425.0,233.0" stroke="#7F7F7F" stroke-width="1" /><polyline fill="none" opacity="1.0" points="421.0,267.0 421.0,233.0" stroke="#7F7F7F" stroke-width="1" /><polyline fill="none" opacity="1.0" points="417.0,267.0 417.0,233.0" stroke="#7F7F7F" stroke-width="1" /><polyline fill="none" opacity="1.0" points="413.0,267.0 413.0,233.0" stroke="#7F7F7F" stroke-width="1" /><polyline fill="none" opacity="1.0" points="409.0,267.0 409.0,233.0" stroke="#7F7F7F" stroke-width="1" /><polyline fill="none" opacity="1.0" points="405.0,267.0 405.0,233.0" stroke="#7F7F7F" stroke-width="1" /><polyline fill="none" opacity="1.0" points="401.0,267.0 401.0,233.0" stroke="#7F7F7F" stroke-width="1" /><polyline fill="none" opacity="1.0" points="397.0,267.0 397.0,233.0" stroke="#7F7F7F" stroke-width="1" /><polyline fill="none" opacity="1.0" points="393.0,267.0 393.0,233.0" stroke="#7F7F7F" stroke-width="1" /><polyline fill="none" opacity="1.0" points="389.0,267.0 389.0,233.0" stroke="#7F7F7F" stroke-width="1" /><polyline fill="none" opacity="1.0" points="385.0,267.0 385.0,233.0" stroke="#7F7F7F" stroke-width="1" /><polyline fill="none" opacity="1.0" points="381.0,267.0 381.0,233.0" stroke="#7F7F7F" stroke-width="1" /><polyline fill="none" opacity="1.0" points="377.0,267.0 377.0,233.0" stroke="#7F7F7F" stroke-width="1" /><polyline fill="none" opacity="1.0" points="373.0,267.0 373.0,233.0" stroke="#7F7F7F" stroke-width="1" /><polyline fill="none" opacity="1.0" points="369.0,267.0 369.0,233.0" stroke="#7F7F7F" stroke-width="1" /><polyline fill="none" opacity="1.0" points="365.0,267.0 365.0,233.0" stroke="#7F7F7F" stroke-width="1" /><polygon fill="#9B5509" opacity="1.0" points="504.0,233.0 357.0,233.0 357.0,230.0 504.0,230.0" stroke="#000" stroke-width="1" /><polygon fill="#9B5509" opacity="1.0" points="504.0,241.0 504.0,246.0 357.0,246.0 357.0,241.0" stroke="#000" stroke-width="1" /><polygon fill="#9B5509" opacity="1.0" points="504.0,254.0 504.0,259.0 357.0,259.0 357.0,254.0" stroke="#000" stroke-width="1" /><polygon fill="#9B5509" opacity="1.0" points="504.0,267.0 357.0,267.0 357.0,270.0 504.0,270.0" stroke="#000" stroke-width="1" /><polyline fill="none" opacity="1.0" points="527.0,236.0 510.0,236.0" stroke="#F00" stroke-width="1" /><polygon fill="#F00" opacity="1.0" points="514.9262,234.68 510.0,236.0 514.9262,237.32" stroke="#F00" stroke-width="1" /><polyline fill="none" opacity="1.0" points="337.0,263.0 352.0,263.0" stroke="#090" stroke-width="1" /><polygon fill="#090" opacity="1.0" points="347.6533,264.1647 352.0,263.0 347.6533,261.8353" stroke="#090" stroke-width="1" /><polyline fill="none" opacity="1.0" points="907.0,210.0 907.0,220.0 868.0,220.0 868.0,228.0 874.0,228.0 874.0,271.0 868.0,271.0 868.0,280.0 907.0,280.0 907.0,290.0" stroke="#000" stroke-width="1" /><polyline fill="none" opacity="1.0" points="226.0,343.0 222.0,343.0 222.0,269.0 210.0,269.0 210.0,265.0" stroke="#000" stroke-width="1" /><polyline fill="none" opacity="1.0" points="210.0,241.0 210.0,237.0 222.0,237.0 222.0,211.0 210.0,211.0 210.0,207.0" stroke="#000" stroke-width="1" /><polyline fill="none" opacity="1.0" points="210.0,189.0 210.0,185.0 263.0,185.0 297.0,200.0" stroke="#000" stroke-width="1" /><polyline fill="none" opacity="1.0" points="249.0,343.0 253.0,343.0 253.0,306.0 285.0,306.0" stroke="#000" stroke-width="1" /><polyline fill="none" opacity="1.0" points="325.0,306.0 335.0,306.0 355.0,326.0 355.0,343.0 359.0,343.0" stroke="#000" stroke-width="1" /><polyline fill="none" opacity="1.0" points="379.0,343.0 383.0,343.0 383.0,311.0 357.0,285.0 357.0,273.0" stroke="#000" stroke-width="1" /><polyline fill="none" opacity="1.0" points="345.0,227.0 344.0234,224.6172 342.9688,222.3438 341.8367,220.1797 340.625,218.125 339.3293,216.1797 337.957,214.3438 336.5103,212.6172 335.0,211.0 333.4468,209.4922 331.8242,208.0938 330.1147,206.8047 328.3125,205.625 326.4087,204.5547 324.3945,203.5938 322.2642,202.7422 320.0,202.0 317.5757,201.3672 315.0117,200.8438 312.3191,200.4297 309.5,200.125 306.5618,199.9297 303.5,199.8438 300.3125,199.8672 297.0,200.0" stroke="#000" stroke-width="1" /><polygon fill="#D0D0D0" opacity="1.0" points="253.0,283.0 253.0,263.0 260.0,263.0 260.0,283.0" stroke="#000" stroke-width="1" /><polygon fill="#D0D0D0" opacity="1.0" points="253.0,215.0 253.0,237.0 260.0,237.0 260.0,215.0" stroke="#000" stroke-width="1" /><polyline fill="none" opacity="1.0" points="222.0,280.0 213.0,280.0 213.0,306.0 222.0,306.0" stroke="#000" stroke-width="1" /><text fill="#FFF" font-family="Arial" font-size="10" font-weight="normal" opacity="1.0" transform="rotate(90.0 225.0,281.0) translate(0 10)" x="225.0" y="281.0">кассы</text><polygon fill="none" opacity="1.0" points="262.0,228.0 263.0,234.0 269.0,233.0 268.0,227.0" stroke="#000" stroke-width="1" /><polyline fill="none" opacity="1.0" points="265.0,239.0 269.0,238.0" stroke="#090" stroke-width="1" /><polyline fill="none" opacity="1.0" points="266.1066,242.8439 270.1066,241.8439" stroke="#090" stroke-width="1" /><polyline fill="none" opacity="1.0" points="267.2131,246.6878 271.2131,245.6878" stroke="#090" stroke-width="1" /><polyline fill="none" opacity="1.0" points="268.3197,250.5317 272.3197,249.5317" stroke="#090" stroke-width="1" /><polyline fill="none" opacity="1.0" points="269.4263,254.3756 273.4263,253.3756" stroke="#090" stroke-width="1" /><polyline fill="none" opacity="1.0" points="270.5329,258.2195 274.5329,257.2195" stroke="#090" stroke-width="1" /><polyline fill="none" opacity="1.0" points="271.6394,262.0633 275.6394,261.0633" stroke="#090" stroke-width="1" /><polyline fill="none" opacity="1.0" points="272.746,265.9072 276.746,264.9072" stroke="#090" stroke-width="1" /><polyline fill="none" opacity="1.0" points="273.8526,269.7511 277.8526,268.7511" stroke="#090" stroke-width="1" /><polyline fill="none" opacity="1.0" points="274.9592,273.595 278.9592,272.595" stroke="#090" stroke-width="1" /><polyline fill="none" opacity="1.0" points="276.0657,277.4389 280.0657,276.4389" stroke="#090" stroke-width="1" /><polyline fill="none" opacity="1.0" points="277.1723,281.2828 281.1723,280.2828" stroke="#090" stroke-width="1" /><polyline fill="none" opacity="1.0" points="278.2789,285.1267 282.2789,284.1267" stroke="#090" stroke-width="1" /><polyline fill="none" opacity="1.0" points="279.3855,288.9706 283.3855,287.9706" stroke="#090" stroke-width="1" /><polyline fill="none" opacity="1.0" points="280.492,292.8145 284.492,291.8145" stroke="#090" stroke-width="1" /><polyline fill="none" opacity="1.0" points="281.5986,296.6584 285.5986,295.6584" stroke="#090" stroke-width="1" /><polyline fill="none" opacity="1.0" points="282.7052,300.5022 286.7052,299.5022" stroke="#090" stroke-width="1" /><polyline fill="none" opacity="1.0" points="283.8118,304.3461 287.8118,303.3461" stroke="#090" stroke-width="1" /><polyline fill="none" opacity="1.0" points="266.0,221.0 270.0,222.0" stroke="#F00" stroke-width="1" /><polyline fill="none" opacity="1.0" points="266.9701,217.1194 270.9701,218.1194" stroke="#F00" stroke-width="1" /><polyline fill="none" opacity="1.0" points="267.9403,213.2389 271.9403,214.2389" stroke="#F00" stroke-width="1" /><polyline fill="none" opacity="1.0" points="268.9104,209.3583 272.9104,210.3583" stroke="#F00" stroke-width="1" /><polyline fill="none" opacity="1.0" points="269.8806,205.4777 273.8806,206.4777" stroke="#F00" stroke-width="1" /><polyline fill="none" opacity="1.0" points="270.8507,201.5971 274.8507,202.5971" stroke="#F00" stroke-width="1" /><polyline fill="none" opacity="1.0" points="271.8209,197.7166 275.8209,198.7166" stroke="#F00" stroke-width="1" /><polyline fill="none" opacity="1.0" points="272.791,193.836 276.791,194.836" stroke="#F00" stroke-width="1" /><polyline fill="none" opacity="1.0" points="338.0,305.0 341.0,308.0" stroke="#F00" stroke-width="1" /><polyline fill="none" opacity="1.0" points="340.8284,302.1716 343.8284,305.1716" stroke="#F00" stroke-width="1" /><polyline fill="none" opacity="1.0" points="343.6569,299.3431 346.6569,302.3431" stroke="#F00" stroke-width="1" /><polyline fill="none" opacity="1.0" points="346.4853,296.5147 349.4853,299.5147" stroke="#F00" stroke-width="1" /><polyline fill="none" opacity="1.0" points="349.3137,293.6863 352.3137,296.6863" stroke="#F00" stroke-width="1" /><polyline fill="none" opacity="1.0" points="352.1421,290.8579 355.1421,293.8579" stroke="#F00" stroke-width="1" /><polyline fill="none" opacity="1.0" points="354.9706,288.0294 357.9706,291.0294" stroke="#F00" stroke-width="1" /><polyline fill="none" opacity="1.0" points="346.0,293.0 357.0,304.0" stroke="#F00" stroke-width="1" /><polygon fill="#F00" opacity="1.0" points="352.9583,301.6665 357.0,304.0 354.6665,299.9583" stroke="#F00" stroke-width="1" /><polyline fill="none" opacity="1.0" points="264.0,200.0 251.0,200.0" stroke="#F00" stroke-width="1" /><polygon fill="#F00" opacity="1.0" points="254.7671,198.9906 251.0,200.0 254.7671,201.0094" stroke="#F00" stroke-width="1" /><polyline fill="none" opacity="1.0" points="238.0,346.0 238.0,329.0" stroke="#090" stroke-width="1" /><polygon fill="#090" opacity="1.0" points="239.32,333.9262 238.0,329.0 236.68,333.9262" stroke="#090" stroke-width="1" /><polyline fill="none" opacity="1.0" points="207.0,252.0 224.0,252.0" stroke="#090" stroke-width="1" /><polygon fill="#090" opacity="1.0" points="219.0738,253.32 224.0,252.0 219.0738,250.68" stroke="#090" stroke-width="1" /><polyline fill="none" opacity="1.0" points="254.0,295.0 268.0,295.0" stroke="#090" stroke-width="1" /><polygon fill="#090" opacity="1.0" points="263.9431,296.087 268.0,295.0 263.9431,293.913" stroke="#090" stroke-width="1" /><polygon fill="#34349C" opacity="1.0" points="329.0,302.0 325.0,302.0 325.0,303.0 329.0,303.0" stroke="#34349C" stroke-width="1" /><polygon fill="#F00" opacity="1.0" points="333.0,302.0 329.0,302.0 329.0,303.0 333.0,303.0" stroke="#F00" stroke-width="1" /><text fill="#00AFAF" font-family="Arial" font-size="15" font-weight="normal" opacity="1.0" transform="rotate(90.0 131.0,245.0) translate(0 15)" x="131.0" y="245.0">Новокузнецкая улица</text><text fill="#00AFAF" font-family="Arial" font-size="15" font-weight="normal" opacity="1.0" transform="rotate(90.0 176.0,507.0) translate(0 15)" x="176.0" y="507.0">Дубининская улица</text><text fill="#00AFAF" font-family="Arial" font-size="15" font-weight="normal" opacity="1.0" transform="rotate(-0.0 641.0,450.0) translate(0 15)" x="641.0" y="450.0">улица Зацепский вал</text><text fill="#00AFAF" font-family="Arial" font-size="15" font-weight="normal" opacity="1.0" transform="rotate(-0.0 641.0,465.0) translate(0 15)" x="641.0" y="465.0">(Садовое кольцо)</text><text fill="#00AFAF" font-family="Arial" font-size="15" font-weight="normal" opacity="1.0" transform="rotate(30.0 477.0,836.0) translate(0 15)" x="477.0" y="836.0">Павелецкая площадь</text><g transform="rotate(30.0,490.0,540.0)"><text fill="#FFD900" font-family="Arial" font-size="25" font-weight="normal" opacity="1.0" x="32.25" y="394.5">1</text><text fill="#FFD900" font-family="Arial" font-size="25" font-weight="normal" opacity="1.0" x="274.25" y="468.5">2</text><text fill="#FFD900" font-family="Arial" font-size="25" font-weight="normal" opacity="1.0" x="661.25" y="1015.5">3.1</text><text fill="#FFD900" font-family="Arial" font-size="25" font-weight="normal" opacity="1.0" x="583.25" y="932.5">3.2</text></g></g></g></svg>