<?xml version="1.0" encoding="utf-8" ?>
<svg baseProfile="tiny" height="820px" version="1.2" width="1170px" xmlns="http://www.w3.org/2000/svg" xmlns:ev="http://www.w3.org/2001/xml-events" xmlns:xlink="http://www.w3.org/1999/xlink"><defs /><g><g transform="rotate(-10.0,585.0,410.0)"><polygon fill="#FCDC04" opacity="100" points="364.0,335.0 814.0,335.0 814.0,365.0 364.0,365.0" stroke="#000" stroke-width="1" /><polygon fill="#FCDC04" opacity="100" points="364.0,485.0 364.0,455.0 814.0,455.0 814.0,485.0" stroke="#000" stroke-width="1" /><text fill="#000" font-family="Arial" font-size="20" font-weight="normal" opacity="100" transform="rotate(-0.0 365.0,312.0) translate(0 20)" x="365.0" y="312.0">&lt;&lt; Шоссе Энтузиастов</text><text fill="#000" font-family="Arial" font-size="20" font-weight="normal" opacity="100" transform="rotate(-0.0 681.0,485.0) translate(0 20)" x="681.0" y="485.0">Новогиреево &gt;&gt;</text><text fill="#000" font-family="Arial" font-size="25" font-weight="bold" opacity="100" transform="rotate(-0.0 544.0,382.0) translate(0 25)" x="544.0" y="382.0">Перово</text><text fill="#FCDC04" font-family="Arial" font-size="20" font-weight="normal" opacity="100" transform="rotate(-0.0 363.0,311.0) translate(0 20)" x="363.0" y="311.0">&lt;&lt; Шоссе Энтузиастов</text><text fill="#FCDC04" font-family="Arial" font-size="20" font-weight="normal" opacity="100" transform="rotate(-0.0 679.0,484.0) translate(0 20)" x="679.0" y="484.0">Новогиреево &gt;&gt;</text><text fill="#FCDC04" font-family="Arial" font-size="25" font-weight="bold" opacity="100" transform="rotate(-0.0 542.0,380.0) translate(0 25)" x="542.0" y="380.0">Перово</text><polygon fill="#34349C" opacity="100" points="589.0,412.0 589.0,408.0 590.0,408.0 590.0,412.0" stroke="#34349C" stroke-width="1" /><polygon fill="#F00" opacity="100" points="589.0,416.0 589.0,412.0 590.0,412.0 590.0,416.0" stroke="#F00" stroke-width="1" /><polyline fill="none" opacity="100" points="364.0,455.0 364.0,449.0 314.0,449.0 314.0,487.0 201.0,487.0 201.0,497.0 217.0,497.0 217.0,574.0" stroke="#000" stroke-width="1" /><polyline fill="none" opacity="100" points="195.0,574.0 195.0,521.0 129.0,521.0 129.0,574.0" stroke="#000" stroke-width="1" /><polyline fill="none" opacity="100" points="106.0,574.0 106.0,497.0 151.0,497.0 151.0,334.0 165.0,334.0 165.0,307.0 52.0,307.0" stroke="#000" stroke-width="1" /><polyline fill="none" opacity="100" points="52.0,284.0 106.0,284.0 106.0,229.0" stroke="#000" stroke-width="1" /><polyline fill="none" opacity="100" points="129.0,229.0 129.0,284.0 195.0,284.0 195.0,229.0" stroke="#000" stroke-width="1" /><polyline fill="none" opacity="100" points="218.0,229.0 218.0,284.0 260.0,284.0" stroke="#000" stroke-width="1" /><polyline fill="none" opacity="100" points="260.0,307.0 202.0,307.0 202.0,334.0 314.0,334.0 314.0,372.0 364.0,372.0 364.0,365.0" stroke="#000" stroke-width="1" /><polyline fill="none" opacity="100" points="217.0,572.0 195.0,572.0" stroke="#000" stroke-width="1" /><polyline fill="none" opacity="100" points="217.0,568.0 195.0,568.0" stroke="#000" stroke-width="1" /><polyline fill="none" opacity="100" points="217.0,564.0 195.0,564.0" stroke="#000" stroke-width="1" /><polyline fill="none" opacity="100" points="217.0,560.0 195.0,560.0" stroke="#000" stroke-width="1" /><polyline fill="none" opacity="100" points="217.0,556.0 195.0,556.0" stroke="#000" stroke-width="1" /><polyline fill="none" opacity="100" points="217.0,552.0 195.0,552.0" stroke="#000" stroke-width="1" /><polyline fill="none" opacity="100" points="217.0,548.0 195.0,548.0" stroke="#000" stroke-width="1" /><polyline fill="none" opacity="100" points="217.0,544.0 195.0,544.0" stroke="#000" stroke-width="1" /><polyline fill="none" opacity="100" points="217.0,540.0 195.0,540.0" stroke="#000" stroke-width="1" /><polyline fill="none" opacity="100" points="217.0,536.0 195.0,536.0" stroke="#000" stroke-width="1" /><polyline fill="none" opacity="100" points="129.0,572.0 106.0,572.0" stroke="#000" stroke-width="1" /><polyline fill="none" opacity="100" points="129.0,568.0 106.0,568.0" stroke="#000" stroke-width="1" /><polyline fill="none" opacity="100" points="129.0,564.0 106.0,564.0" stroke="#000" stroke-width="1" /><polyline fill="none" opacity="100" points="129.0,560.0 106.0,560.0" stroke="#000" stroke-width="1" /><polyline fill="none" opacity="100" points="129.0,556.0 106.0,556.0" stroke="#000" stroke-width="1" /><polyline fill="none" opacity="100" points="129.0,552.0 106.0,552.0" stroke="#000" stroke-width="1" /><polyline fill="none" opacity="100" points="129.0,548.0 106.0,548.0" stroke="#000" stroke-width="1" /><polyline fill="none" opacity="100" points="129.0,544.0 106.0,544.0" stroke="#000" stroke-width="1" /><polyline fill="none" opacity="100" points="129.0,540.0 106.0,540.0" stroke="#000" stroke-width="1" /><polyline fill="none" opacity="100" points="129.0,536.0 106.0,536.0" stroke="#000" stroke-width="1" /><polyline fill="none" opacity="100" points="54.0,307.0 54.0,284.0" stroke="#000" stroke-width="1" /><polyline fill="none" opacity="100" points="58.0,307.0 58.0,284.0" stroke="#000" stroke-width="1" /><polyline fill="none" opacity="100" points="62.0,307.0 62.0,284.0" stroke="#000" stroke-width="1" /><polyline fill="none" opacity="100" points="66.0,307.0 66.0,284.0" stroke="#000" stroke-width="1" /><polyline fill="none" opacity="100" points="70.0,307.0 70.0,284.0" stroke="#000" stroke-width="1" /><polyline fill="none" opacity="100" points="74.0,307.0 74.0,284.0" stroke="#000" stroke-width="1" /><polyline fill="none" opacity="100" points="78.0,307.0 78.0,284.0" stroke="#000" stroke-width="1" /><polyline fill="none" opacity="100" points="82.0,307.0 82.0,284.0" stroke="#000" stroke-width="1" /><polyline fill="none" opacity="100" points="86.0,307.0 86.0,284.0" stroke="#000" stroke-width="1" /><polyline fill="none" opacity="100" points="90.0,307.0 90.0,284.0" stroke="#000" stroke-width="1" /><polyline fill="none" opacity="100" points="106.0,231.0 129.0,231.0" stroke="#000" stroke-width="1" /><polyline fill="none" opacity="100" points="106.0,235.0 129.0,235.0" stroke="#000" stroke-width="1" /><polyline fill="none" opacity="100" points="106.0,239.0 129.0,239.0" stroke="#000" stroke-width="1" /><polyline fill="none" opacity="100" points="106.0,243.0 129.0,243.0" stroke="#000" stroke-width="1" /><polyline fill="none" opacity="100" points="106.0,247.0 129.0,247.0" stroke="#000" stroke-width="1" /><polyline fill="none" opacity="100" points="106.0,251.0 129.0,251.0" stroke="#000" stroke-width="1" /><polyline fill="none" opacity="100" points="106.0,255.0 129.0,255.0" stroke="#000" stroke-width="1" /><polyline fill="none" opacity="100" points="106.0,259.0 129.0,259.0" stroke="#000" stroke-width="1" /><polyline fill="none" opacity="100" points="106.0,263.0 129.0,263.0" stroke="#000" stroke-width="1" /><polyline fill="none" opacity="100" points="106.0,267.0 129.0,267.0" stroke="#000" stroke-width="1" /><polyline fill="none" opacity="100" points="195.0,231.0 218.0,231.0" stroke="#000" stroke-width="1" /><polyline fill="none" opacity="100" points="195.0,235.0 218.0,235.0" stroke="#000" stroke-width="1" /><polyline fill="none" opacity="100" points="195.0,239.0 218.0,239.0" stroke="#000" stroke-width="1" /><polyline fill="none" opacity="100" points="195.0,243.0 218.0,243.0" stroke="#000" stroke-width="1" /><polyline fill="none" opacity="100" points="195.0,247.0 218.0,247.0" stroke="#000" stroke-width="1" /><polyline fill="none" opacity="100" points="195.0,251.0 218.0,251.0" stroke="#000" stroke-width="1" /><polyline fill="none" opacity="100" points="195.0,255.0 218.0,255.0" stroke="#000" stroke-width="1" /><polyline fill="none" opacity="100" points="195.0,259.0 218.0,259.0" stroke="#000" stroke-width="1" /><polyline fill="none" opacity="100" points="195.0,263.0 218.0,263.0" stroke="#000" stroke-width="1" /><polyline fill="none" opacity="100" points="195.0,267.0 218.0,267.0" stroke="#000" stroke-width="1" /><polyline fill="none" opacity="100" points="258.0,284.0 258.0,307.0" stroke="#000" stroke-width="1" /><polyline fill="none" opacity="100" points="254.0,284.0 254.0,307.0" stroke="#000" stroke-width="1" /><polyline fill="none" opacity="100" points="250.0,284.0 250.0,307.0" stroke="#000" stroke-width="1" /><polyline fill="none" opacity="100" points="246.0,284.0 246.0,307.0" stroke="#000" stroke-width="1" /><polyline fill="none" opacity="100" points="242.0,284.0 242.0,307.0" stroke="#000" stroke-width="1" /><polyline fill="none" opacity="100" points="238.0,284.0 238.0,307.0" stroke="#000" stroke-width="1" /><polyline fill="none" opacity="100" points="234.0,284.0 234.0,307.0" stroke="#000" stroke-width="1" /><polyline fill="none" opacity="100" points="230.0,284.0 230.0,307.0" stroke="#000" stroke-width="1" /><polyline fill="none" opacity="100" points="226.0,284.0 226.0,307.0" stroke="#000" stroke-width="1" /><polyline fill="none" opacity="100" points="222.0,284.0 222.0,307.0" stroke="#000" stroke-width="1" /><polyline fill="none" opacity="100" points="316.0,372.0 316.0,449.0" stroke="#000" stroke-width="1" /><polyline fill="none" opacity="100" points="320.0,372.0 320.0,449.0" stroke="#000" stroke-width="1" /><polyline fill="none" opacity="100" points="324.0,372.0 324.0,449.0" stroke="#000" stroke-width="1" /><polyline fill="none" opacity="100" points="328.0,372.0 328.0,449.0" stroke="#000" stroke-width="1" /><polyline fill="none" opacity="100" points="332.0,372.0 332.0,449.0" stroke="#000" stroke-width="1" /><polyline fill="none" opacity="100" points="336.0,372.0 336.0,449.0" stroke="#000" stroke-width="1" /><polyline fill="none" opacity="100" points="340.0,372.0 340.0,449.0" stroke="#000" stroke-width="1" /><polyline fill="none" opacity="100" points="344.0,372.0 344.0,449.0" stroke="#000" stroke-width="1" /><polyline fill="none" opacity="100" points="348.0,372.0 348.0,449.0" stroke="#000" stroke-width="1" /><polyline fill="none" opacity="100" points="352.0,372.0 352.0,449.0" stroke="#000" stroke-width="1" /><polyline fill="none" opacity="100" points="356.0,372.0 356.0,449.0" stroke="#000" stroke-width="1" /><polyline fill="none" opacity="100" points="360.0,372.0 360.0,449.0" stroke="#000" stroke-width="1" /><polygon fill="#D0D0D0" opacity="100" points="206.0,455.0 206.0,365.0 227.0,365.0 227.0,455.0" stroke="#000" stroke-width="1" /><polyline fill="none" opacity="100" points="305.0,334.0 305.0,362.0 314.0,362.0" stroke="#000" stroke-width="1" /><text fill="#FFF" font-family="Arial" font-size="10" font-weight="normal" opacity="100" transform="rotate(90.0 317.0,336.0) translate(0 10)" x="317.0" y="336.0">кассы</text><polyline fill="none" opacity="100" points="305.0,362.0 297.0,362.0" stroke="#000" stroke-width="1" /><polygon fill="none" opacity="100" points="295.0,360.0 299.0,364.0 295.0,368.0 291.0,364.0" stroke="#000" stroke-width="1" /><polyline fill="none" opacity="100" points="251.0,408.0 227.0,408.0" stroke="#000" stroke-width="1" /><polyline fill="none" opacity="100" points="289.0,368.0 291.0,370.0" stroke="#090" stroke-width="1" /><polyline fill="none" opacity="100" points="286.1716,370.8284 288.1716,372.8284" stroke="#090" stroke-width="1" /><polyline fill="none" opacity="100" points="283.3431,373.6569 285.3431,375.6569" stroke="#090" stroke-width="1" /><polyline fill="none" opacity="100" points="280.5147,376.4853 282.5147,378.4853" stroke="#090" stroke-width="1" /><polyline fill="none" opacity="100" points="277.6863,379.3137 279.6863,381.3137" stroke="#090" stroke-width="1" /><polyline fill="none" opacity="100" points="274.8579,382.1421 276.8579,384.1421" stroke="#090" stroke-width="1" /><polyline fill="none" opacity="100" points="272.0294,384.9706 274.0294,386.9706" stroke="#090" stroke-width="1" /><polyline fill="none" opacity="100" points="269.201,387.799 271.201,389.799" stroke="#090" stroke-width="1" /><polyline fill="none" opacity="100" points="266.3726,390.6274 268.3726,392.6274" stroke="#090" stroke-width="1" /><polyline fill="none" opacity="100" points="263.5442,393.4558 265.5442,395.4558" stroke="#090" stroke-width="1" /><polyline fill="none" opacity="100" points="260.7157,396.2843 262.7157,398.2843" stroke="#090" stroke-width="1" /><polyline fill="none" opacity="100" points="257.8873,399.1127 259.8873,401.1127" stroke="#090" stroke-width="1" /><polyline fill="none" opacity="100" points="255.0589,401.9411 257.0589,403.9411" stroke="#090" stroke-width="1" /><polyline fill="none" opacity="100" points="252.2304,404.7696 254.2304,406.7696" stroke="#090" stroke-width="1" /><polyline fill="none" opacity="100" points="249.402,407.598 251.402,409.598" stroke="#090" stroke-width="1" /><polygon fill="#34349C" opacity="100" points="294.0,449.0 290.0,449.0 290.0,450.0 294.0,450.0" stroke="#34349C" stroke-width="1" /><polygon fill="#F00" opacity="100" points="298.0,449.0 294.0,449.0 294.0,450.0 298.0,450.0" stroke="#F00" stroke-width="1" /><polygon fill="#34349C" opacity="100" points="882.0,448.0 886.0,448.0 886.0,449.0 882.0,449.0" stroke="#34349C" stroke-width="1" /><polygon fill="#F00" opacity="100" points="878.0,448.0 882.0,448.0 882.0,449.0 878.0,449.0" stroke="#F00" stroke-width="1" /><polyline fill="none" opacity="100" points="1055.0,286.0 1002.0,286.0 1002.0,333.0 1011.0,333.0 1011.0,487.0 1002.0,487.0 1002.0,593.0 954.0,593.0 954.0,534.0" stroke="#000" stroke-width="1" /><polyline fill="none" opacity="100" points="977.0,534.0 977.0,577.0 980.0,577.0 980.0,487.0 864.0,487.0 864.0,448.0 814.0,448.0 814.0,455.0" stroke="#000" stroke-width="1" /><polyline fill="none" opacity="100" points="1055.0,264.0 974.0,264.0 974.0,334.0 864.0,334.0 864.0,372.0 814.0,372.0 814.0,365.0" stroke="#000" stroke-width="1" /><polyline fill="none" opacity="100" points="1053.0,286.0 1053.0,264.0" stroke="#000" stroke-width="1" /><polyline fill="none" opacity="100" points="1049.0,286.0 1049.0,264.0" stroke="#000" stroke-width="1" /><polyline fill="none" opacity="100" points="1045.0,286.0 1045.0,264.0" stroke="#000" stroke-width="1" /><polyline fill="none" opacity="100" points="1041.0,286.0 1041.0,264.0" stroke="#000" stroke-width="1" /><polyline fill="none" opacity="100" points="1037.0,286.0 1037.0,264.0" stroke="#000" stroke-width="1" /><polyline fill="none" opacity="100" points="1033.0,286.0 1033.0,264.0" stroke="#000" stroke-width="1" /><polyline fill="none" opacity="100" points="1029.0,286.0 1029.0,264.0" stroke="#000" stroke-width="1" /><polyline fill="none" opacity="100" points="1025.0,286.0 1025.0,264.0" stroke="#000" stroke-width="1" /><polyline fill="none" opacity="100" points="1021.0,286.0 1021.0,264.0" stroke="#000" stroke-width="1" /><polyline fill="none" opacity="100" points="1017.0,286.0 1017.0,264.0" stroke="#000" stroke-width="1" /><polyline fill="none" opacity="100" points="1002.0,536.0 980.0,536.0" stroke="#000" stroke-width="1" /><polyline fill="none" opacity="100" points="1002.0,540.0 980.0,540.0" stroke="#000" stroke-width="1" /><polyline fill="none" opacity="100" points="1002.0,544.0 980.0,544.0" stroke="#000" stroke-width="1" /><polyline fill="none" opacity="100" points="1002.0,548.0 980.0,548.0" stroke="#000" stroke-width="1" /><polyline fill="none" opacity="100" points="1002.0,552.0 980.0,552.0" stroke="#000" stroke-width="1" /><polyline fill="none" opacity="100" points="1002.0,556.0 980.0,556.0" stroke="#000" stroke-width="1" /><polyline fill="none" opacity="100" points="1002.0,560.0 980.0,560.0" stroke="#000" stroke-width="1" /><polyline fill="none" opacity="100" points="1002.0,564.0 980.0,564.0" stroke="#000" stroke-width="1" /><polyline fill="none" opacity="100" points="1002.0,568.0 980.0,568.0" stroke="#000" stroke-width="1" /><polyline fill="none" opacity="100" points="1002.0,572.0 980.0,572.0" stroke="#000" stroke-width="1" /><polyline fill="none" opacity="100" points="977.0,536.0 954.0,536.0" stroke="#000" stroke-width="1" /><polyline fill="none" opacity="100" points="977.0,540.0 954.0,540.0" stroke="#000" stroke-width="1" /><polyline fill="none" opacity="100" points="977.0,544.0 954.0,544.0" stroke="#000" stroke-width="1" /><polyline fill="none" opacity="100" points="977.0,548.0 954.0,548.0" stroke="#000" stroke-width="1" /><polyline fill="none" opacity="100" points="977.0,552.0 954.0,552.0" stroke="#000" stroke-width="1" /><polyline fill="none" opacity="100" points="977.0,556.0 954.0,556.0" stroke="#000" stroke-width="1" /><polyline fill="none" opacity="100" points="977.0,560.0 954.0,560.0" stroke="#000" stroke-width="1" /><polyline fill="none" opacity="100" points="977.0,564.0 954.0,564.0" stroke="#000" stroke-width="1" /><polyline fill="none" opacity="100" points="977.0,568.0 954.0,568.0" stroke="#000" stroke-width="1" /><polyline fill="none" opacity="100" points="977.0,572.0 954.0,572.0" stroke="#000" stroke-width="1" /><polyline fill="none" opacity="100" points="862.0,372.0 862.0,448.0" stroke="#000" stroke-width="1" /><polyline fill="none" opacity="100" points="858.0,372.0 858.0,448.0" stroke="#000" stroke-width="1" /><polyline fill="none" opacity="100" points="854.0,372.0 854.0,448.0" stroke="#000" stroke-width="1" /><polyline fill="none" opacity="100" points="850.0,372.0 850.0,448.0" stroke="#000" stroke-width="1" /><polyline fill="none" opacity="100" points="846.0,372.0 846.0,448.0" stroke="#000" stroke-width="1" /><polyline fill="none" opacity="100" points="842.0,372.0 842.0,448.0" stroke="#000" stroke-width="1" /><polyline fill="none" opacity="100" points="838.0,372.0 838.0,448.0" stroke="#000" stroke-width="1" /><polyline fill="none" opacity="100" points="834.0,372.0 834.0,448.0" stroke="#000" stroke-width="1" /><polyline fill="none" opacity="100" points="830.0,372.0 830.0,448.0" stroke="#000" stroke-width="1" /><polyline fill="none" opacity="100" points="826.0,372.0 826.0,448.0" stroke="#000" stroke-width="1" /><polyline fill="none" opacity="100" points="822.0,372.0 822.0,448.0" stroke="#000" stroke-width="1" /><polyline fill="none" opacity="100" points="818.0,372.0 818.0,448.0" stroke="#000" stroke-width="1" /><polygon fill="#D0D0D0" opacity="100" points="951.0,362.0 972.0,362.0 972.0,456.0 951.0,456.0" stroke="#000" stroke-width="1" /><polyline fill="none" opacity="100" points="873.0,334.0 873.0,362.0 864.0,362.0" stroke="#000" stroke-width="1" /><text fill="#FFF" font-family="Arial" font-size="10" font-weight="normal" opacity="100" transform="rotate(-90.0 862.0,360.0) translate(0 10)" x="862.0" y="360.0">кассы</text><polyline fill="none" opacity="100" points="873.0,362.0 882.0,362.0" stroke="#000" stroke-width="1" /><polygon fill="none" opacity="100" points="881.0,364.0 884.0,361.0 887.0,364.0 884.0,367.0" stroke="#000" stroke-width="1" /><polyline fill="none" opacity="100" points="931.0,411.0 951.0,411.0" stroke="#000" stroke-width="1" /><polyline fill="none" opacity="100" points="889.0,367.0 887.0,369.0" stroke="#090" stroke-width="1" /><polyline fill="none" opacity="100" points="891.8284,369.8284 889.8284,371.8284" stroke="#090" stroke-width="1" /><polyline fill="none" opacity="100" points="894.6569,372.6569 892.6569,374.6569" stroke="#090" stroke-width="1" /><polyline fill="none" opacity="100" points="897.4853,375.4853 895.4853,377.4853" stroke="#090" stroke-width="1" /><polyline fill="none" opacity="100" points="900.3137,378.3137 898.3137,380.3137" stroke="#090" stroke-width="1" /><polyline fill="none" opacity="100" points="903.1421,381.1421 901.1421,383.1421" stroke="#090" stroke-width="1" /><polyline fill="none" opacity="100" points="905.9706,383.9706 903.9706,385.9706" stroke="#090" stroke-width="1" /><polyline fill="none" opacity="100" points="908.799,386.799 906.799,388.799" stroke="#090" stroke-width="1" /><polyline fill="none" opacity="100" points="911.6274,389.6274 909.6274,391.6274" stroke="#090" stroke-width="1" /><polyline fill="none" opacity="100" points="914.4558,392.4558 912.4558,394.4558" stroke="#090" stroke-width="1" /><polyline fill="none" opacity="100" points="917.2843,395.2843 915.2843,397.2843" stroke="#090" stroke-width="1" /><polyline fill="none" opacity="100" points="920.1127,398.1127 918.1127,400.1127" stroke="#090" stroke-width="1" /><polyline fill="none" opacity="100" points="922.9411,400.9411 920.9411,402.9411" stroke="#090" stroke-width="1" /><polyline fill="none" opacity="100" points="925.7696,403.7696 923.7696,405.7696" stroke="#090" stroke-width="1" /><polyline fill="none" opacity="100" points="928.598,406.598 926.598,408.598" stroke="#090" stroke-width="1" /><polyline fill="none" opacity="100" points="931.4264,409.4264 929.4264,411.4264" stroke="#090" stroke-width="1" /><text fill="#00AFAF" font-family="Arial" font-size="15" font-weight="normal" opacity="100" transform="rotate(-0.0 1037.0,392.0) translate(0 15)" x="1037.0" y="392.0">Зелёный проспект</text><text fill="#00AFAF" font-family="Arial" font-size="15" font-weight="normal" opacity="100" transform="rotate(-0.0 15.0,392.0) translate(0 15)" x="15.0" y="392.0">Зелёный проспект</text><text fill="#00AFAF" font-family="Arial" font-size="15" font-weight="normal" opacity="100" transform="rotate(-270.0 1143.0,103.0) translate(0 15)" x="1143.0" y="103.0">3-я Владимирская улица</text><text fill="#00AFAF" font-family="Arial" font-size="15" font-weight="normal" opacity="100" transform="rotate(-270.0 171.0,577.0) translate(0 15)" x="171.0" y="577.0">2-я Владимирская улица</text><text fill="#00AFAF" font-family="Arial" font-size="15" font-weight="normal" opacity="100" transform="rotate(-270.0 171.0,104.0) translate(0 15)" x="171.0" y="104.0">2-я Владимирская улица</text><text fill="#000" font-family="Arial" font-size="15" font-weight="normal" opacity="100" transform="rotate(-0.0 1072.0,735.0) translate(0 15)" x="1072.0" y="735.0">"Лента"</text><text fill="#000" font-family="Arial" font-size="15" font-weight="normal" opacity="100" transform="rotate(-0.0 42.0,712.0) translate(0 15)" x="42.0" y="712.0">"Магнит"</text><polyline fill="none" opacity="100" points="954.0,471.0 968.0,471.0" stroke="#F00" stroke-width="1" /><polygon fill="#F00" opacity="100" points="963.9431,472.087 968.0,471.0 963.9431,469.913" stroke="#F00" stroke-width="1" /><polyline fill="none" opacity="100" points="224.0,470.0 209.0,470.0" stroke="#F00" stroke-width="1" /><polygon fill="#F00" opacity="100" points="213.3467,468.8353 209.0,470.0 213.3467,471.1647" stroke="#F00" stroke-width="1" /><polyline fill="none" opacity="100" points="926.0,366.0 915.0,377.0" stroke="#090" stroke-width="1" /><polygon fill="#090" opacity="100" points="917.3335,372.9583 915.0,377.0 919.0417,374.6665" stroke="#090" stroke-width="1" /><polyline fill="none" opacity="100" points="244.0,352.0 255.0,363.0" stroke="#090" stroke-width="1" /><polygon fill="#090" opacity="100" points="250.9583,360.6665 255.0,363.0 252.6665,358.9583" stroke="#090" stroke-width="1" /><text fill="#000" font-family="Arial" font-size="15" font-weight="normal" opacity="100" transform="rotate(-0.0 1057.0,489.0) translate(0 15)" x="1057.0" y="489.0">А: 587к &gt;&gt;</text><text fill="#000" font-family="Arial" font-size="15" font-weight="normal" opacity="100" transform="rotate(-0.0 1111.0,314.0) translate(0 15)" x="1111.0" y="314.0">&lt;&lt; А: 886к</text><text fill="#000" font-family="Arial" font-size="15" font-weight="normal" opacity="100" transform="rotate(-0.0 420.0,502.0) translate(0 15)" x="420.0" y="502.0">"А: 141 617 619 659 787 н4 т77 &gt;&gt;"</text><text fill="#000" font-family="Arial" font-size="15" font-weight="normal" opacity="100" transform="rotate(-0.0 419.0,521.0) translate(0 15)" x="419.0" y="521.0">М: 473к (МаксСити) &gt;&gt;</text><g transform="rotate(10.0,585.0,410.0)"><text fill="#FFD900" font-family="Arial" font-size="25" font-weight="normal" opacity="100" x="992.25" y="172.5">1</text><text fill="#FFD900" font-family="Arial" font-size="25" font-weight="normal" opacity="100" x="937.25" y="497.5">2</text><text fill="#FFD900" font-family="Arial" font-size="25" font-weight="normal" opacity="100" x="261.25" y="641.5">3</text><text fill="#FFD900" font-family="Arial" font-size="25" font-weight="normal" opacity="100" x="104.25" y="652.5">4</text><text fill="#FFD900" font-family="Arial" font-size="25" font-weight="normal" opacity="100" x="52.25" y="433.5">5</text><text fill="#FFD900" font-family="Arial" font-size="25" font-weight="normal" opacity="100" x="76.25" y="296.5">6</text><text fill="#FFD900" font-family="Arial" font-size="25" font-weight="normal" opacity="100" x="165.25" y="281.5">7</text><text fill="#FFD900" font-family="Arial" font-size="25" font-weight="normal" opacity="100" x="261.25" y="356.5">8</text></g></g></g></svg>