<?xml version="1.0" encoding="utf-8" ?>
<svg baseProfile="tiny" height="300px" version="1.2" width="522px" xmlns="http://www.w3.org/2000/svg" xmlns:ev="http://www.w3.org/2001/xml-events" xmlns:xlink="http://www.w3.org/1999/xlink"><defs /><g><g transform="rotate(-16.0,261.0,150.0)"><polygon fill="#F5F5F5" opacity="100" points="36.0,-9.0 252.0,-9.0 444.0,46.0 298.0,46.0 298.0,317.0 238.0,300.0 238.0,46.0 20.0,46.0" stroke="#000" stroke-width="1" /><polygon fill="#2C7CAC" opacity="100" points="39.0,112.0 39.0,82.0 489.0,82.0 489.0,112.0" stroke="#000" stroke-width="1" /><polygon fill="#2C7CAC" opacity="100" points="39.0,222.0 39.0,192.0 489.0,192.0 489.0,222.0" stroke="#000" stroke-width="1" /><text fill="#2C7CAC" font-family="Arial" font-size="20" font-weight="normal" opacity="100" transform="rotate(-0.0 41.0,59.0) translate(0 20)" x="41.0" y="59.0">&lt;&lt; Кунцевская</text><text fill="#2C7CAC" font-family="Arial" font-size="25" font-weight="bold" opacity="100" transform="rotate(-0.0 192.0,247.0) translate(0 25)" x="192.0" y="247.0">Пионерская</text><text fill="#2C7CAC" font-family="Arial" font-size="20" font-weight="normal" opacity="100" transform="rotate(-0.0 330.0,222.0) translate(0 20)" x="330.0" y="222.0">Филёвский парк &gt;&gt;</text><polyline fill="none" opacity="100" points="489.0,112.0 489.0,192.0" stroke="#000" stroke-width="1" /><polyline fill="none" opacity="100" points="39.0,192.0 39.0,112.0" stroke="#000" stroke-width="1" /><polyline fill="none" opacity="100" points="141.0,168.0 86.0,168.0 86.0,134.0 141.0,134.0" stroke="#000" stroke-width="1" /><polyline fill="none" opacity="100" points="394.0,134.0 451.0,134.0 451.0,168.0 394.0,168.0" stroke="#000" stroke-width="1" /><polyline fill="none" opacity="100" points="177.0,164.0 177.0,138.0" stroke="#000" stroke-width="1" /><polyline fill="none" opacity="100" points="173.0,164.0 173.0,138.0" stroke="#000" stroke-width="1" /><polyline fill="none" opacity="100" points="169.0,164.0 169.0,138.0" stroke="#000" stroke-width="1" /><polyline fill="none" opacity="100" points="165.0,164.0 165.0,138.0" stroke="#000" stroke-width="1" /><polyline fill="none" opacity="100" points="161.0,164.0 161.0,138.0" stroke="#000" stroke-width="1" /><polyline fill="none" opacity="100" points="157.0,164.0 157.0,138.0" stroke="#000" stroke-width="1" /><polyline fill="none" opacity="100" points="153.0,164.0 153.0,138.0" stroke="#000" stroke-width="1" /><polyline fill="none" opacity="100" points="149.0,164.0 149.0,138.0" stroke="#000" stroke-width="1" /><polyline fill="none" opacity="100" points="145.0,164.0 145.0,138.0" stroke="#000" stroke-width="1" /><polyline fill="none" opacity="100" points="362.0,164.0 362.0,138.0" stroke="#000" stroke-width="1" /><polyline fill="none" opacity="100" points="366.0,164.0 366.0,138.0" stroke="#000" stroke-width="1" /><polyline fill="none" opacity="100" points="370.0,164.0 370.0,138.0" stroke="#000" stroke-width="1" /><polyline fill="none" opacity="100" points="374.0,164.0 374.0,138.0" stroke="#000" stroke-width="1" /><polyline fill="none" opacity="100" points="378.0,164.0 378.0,138.0" stroke="#000" stroke-width="1" /><polyline fill="none" opacity="100" points="382.0,164.0 382.0,138.0" stroke="#000" stroke-width="1" /><polyline fill="none" opacity="100" points="386.0,164.0 386.0,138.0" stroke="#000" stroke-width="1" /><polyline fill="none" opacity="100" points="390.0,164.0 390.0,138.0" stroke="#000" stroke-width="1" /><polygon fill="#D0D0D0" opacity="100" points="394.0,134.0 394.0,138.0 358.0,138.0 358.0,134.0" stroke="#000" stroke-width="1" /><polygon fill="#D0D0D0" opacity="100" points="358.0,168.0 358.0,164.0 394.0,164.0 394.0,168.0" stroke="#000" stroke-width="1" /><polygon fill="#D0D0D0" opacity="100" points="180.0,168.0 180.0,164.0 141.0,164.0 141.0,168.0" stroke="#000" stroke-width="1" /><polygon fill="#D0D0D0" opacity="100" points="180.0,134.0 180.0,138.0 141.0,138.0 141.0,134.0" stroke="#000" stroke-width="1" /><polygon fill="#FFF" opacity="0.8" points="229.0,109.0 229.0,81.0 307.0,81.0 307.0,109.0 451.0,109.0 451.0,195.0 307.0,195.0 307.0,223.0 229.0,223.0 229.0,195.0 86.0,195.0 86.0,109.0" stroke="#FFF" stroke-width="0.5" /><polyline fill="none" opacity="0.8" points="206.0,114.0 206.0,109.0 86.0,109.0 86.0,195.0 206.0,195.0 206.0,188.0" stroke="#000" stroke-width="1" /><polyline fill="none" opacity="0.8" points="206.0,172.0 206.0,130.0" stroke="#000" stroke-width="1" /><polyline fill="none" opacity="0.8" points="330.0,189.0 330.0,195.0 451.0,195.0 451.0,109.0 330.0,109.0 330.0,114.0" stroke="#000" stroke-width="1" /><polyline fill="none" opacity="0.8" points="330.0,130.0 330.0,172.0" stroke="#000" stroke-width="1" /><polyline fill="none" opacity="0.8" points="141.0,134.0 149.0,134.0 154.0,139.0 180.0,139.0 185.0,134.0 189.0,134.0 189.0,168.0 141.0,168.0" stroke="#000" stroke-width="1" /><polyline fill="none" opacity="0.8" points="394.0,134.0 346.0,134.0 346.0,168.0 350.0,168.0 355.0,163.0 381.0,163.0 386.0,168.0 394.0,168.0" stroke="#000" stroke-width="1" /><polyline fill="none" opacity="0.8" points="129.0,164.0 129.0,138.0" stroke="#000" stroke-width="1" /><polyline fill="none" opacity="0.8" points="125.0,164.0 125.0,138.0" stroke="#000" stroke-width="1" /><polyline fill="none" opacity="0.8" points="121.0,164.0 121.0,138.0" stroke="#000" stroke-width="1" /><polyline fill="none" opacity="0.8" points="117.0,164.0 117.0,138.0" stroke="#000" stroke-width="1" /><polyline fill="none" opacity="0.8" points="113.0,164.0 113.0,138.0" stroke="#000" stroke-width="1" /><polyline fill="none" opacity="0.8" points="109.0,164.0 109.0,138.0" stroke="#000" stroke-width="1" /><polyline fill="none" opacity="0.8" points="105.0,164.0 105.0,138.0" stroke="#000" stroke-width="1" /><polyline fill="none" opacity="0.8" points="101.0,164.0 101.0,138.0" stroke="#000" stroke-width="1" /><polyline fill="none" opacity="0.8" points="406.0,163.0 406.0,138.0" stroke="#000" stroke-width="1" /><polyline fill="none" opacity="0.8" points="410.0,163.0 410.0,138.0" stroke="#000" stroke-width="1" /><polyline fill="none" opacity="0.8" points="414.0,163.0 414.0,138.0" stroke="#000" stroke-width="1" /><polyline fill="none" opacity="0.8" points="418.0,163.0 418.0,138.0" stroke="#000" stroke-width="1" /><polyline fill="none" opacity="0.8" points="422.0,163.0 422.0,138.0" stroke="#000" stroke-width="1" /><polyline fill="none" opacity="0.8" points="426.0,163.0 426.0,138.0" stroke="#000" stroke-width="1" /><polyline fill="none" opacity="0.8" points="430.0,163.0 430.0,138.0" stroke="#000" stroke-width="1" /><polyline fill="none" opacity="0.8" points="434.0,163.0 434.0,138.0" stroke="#000" stroke-width="1" /><polygon fill="#D0D0D0" opacity="0.8" points="99.0,138.0 99.0,134.0 141.0,134.0 141.0,168.0 98.0,168.0 98.0,164.0 136.0,164.0 136.0,138.0" stroke="#000" stroke-width="1" /><polygon fill="#D0D0D0" opacity="0.8" points="437.0,168.0 437.0,163.0 399.0,163.0 399.0,138.0 437.0,138.0 437.0,134.0 394.0,134.0 394.0,168.0" stroke="#000" stroke-width="1" /><polyline fill="none" opacity="0.8" points="355.0,163.0 355.0,154.0 381.0,154.0 381.0,163.0" stroke="#000" stroke-width="1" /><text fill="#FFF" font-family="Arial" font-size="10" font-weight="normal" opacity="0.8" transform="rotate(-0.0 356.0,152.0) translate(0 10)" x="356.0" y="152.0">кассы</text><polyline fill="none" opacity="0.8" points="154.0,139.0 154.0,147.0 180.0,147.0 180.0,139.0" stroke="#000" stroke-width="1" /><text fill="#FFF" font-family="Arial" font-size="10" font-weight="normal" opacity="0.8" transform="rotate(-0.0 155.0,136.0) translate(0 10)" x="155.0" y="136.0">кассы</text><polygon fill="none" opacity="0.8" points="389.0,169.0 386.0,172.0 389.0,175.0 392.0,172.0" stroke="#000" stroke-width="1" /><polygon fill="none" opacity="0.8" points="147.0,128.0 144.0,131.0 147.0,134.0 150.0,131.0" stroke="#000" stroke-width="1" /><polyline fill="none" opacity="0.8" points="389.0,179.0 393.0,179.0" stroke="#090" stroke-width="1" /><polyline fill="none" opacity="0.8" points="389.0,183.0 393.0,183.0" stroke="#090" stroke-width="1" /><polyline fill="none" opacity="0.8" points="389.0,187.0 393.0,187.0" stroke="#090" stroke-width="1" /><polyline fill="none" opacity="0.8" points="389.0,191.0 393.0,191.0" stroke="#090" stroke-width="1" /><polyline fill="none" opacity="0.8" points="145.0,113.0 149.0,113.0" stroke="#090" stroke-width="1" /><polyline fill="none" opacity="0.8" points="145.0,117.0 149.0,117.0" stroke="#090" stroke-width="1" /><polyline fill="none" opacity="0.8" points="145.0,121.0 149.0,121.0" stroke="#090" stroke-width="1" /><polyline fill="none" opacity="0.8" points="145.0,125.0 149.0,125.0" stroke="#090" stroke-width="1" /><polyline fill="none" opacity="0.8" points="389.0,130.0 393.0,130.0" stroke="#F00" stroke-width="1" /><polyline fill="none" opacity="0.8" points="389.0,126.0 393.0,126.0" stroke="#F00" stroke-width="1" /><polyline fill="none" opacity="0.8" points="389.0,122.0 393.0,122.0" stroke="#F00" stroke-width="1" /><polyline fill="none" opacity="0.8" points="389.0,118.0 393.0,118.0" stroke="#F00" stroke-width="1" /><polyline fill="none" opacity="0.8" points="389.0,114.0 393.0,114.0" stroke="#F00" stroke-width="1" /><polyline fill="none" opacity="0.8" points="149.0,172.0 145.0,172.0" stroke="#F00" stroke-width="1" /><polyline fill="none" opacity="0.8" points="149.0,176.0 145.0,176.0" stroke="#F00" stroke-width="1" /><polyline fill="none" opacity="0.8" points="149.0,180.0 145.0,180.0" stroke="#F00" stroke-width="1" /><polyline fill="none" opacity="0.8" points="149.0,184.0 145.0,184.0" stroke="#F00" stroke-width="1" /><polyline fill="none" opacity="0.8" points="149.0,188.0 145.0,188.0" stroke="#F00" stroke-width="1" /><polyline fill="none" opacity="0.8" points="149.0,192.0 145.0,192.0" stroke="#F00" stroke-width="1" /><polyline fill="none" opacity="0.8" points="339.0,123.0 320.0,123.0" stroke="#F00" stroke-width="1" /><polygon fill="#F00" opacity="0.8" points="325.5058,121.5247 320.0,123.0 325.5058,124.4753" stroke="#F00" stroke-width="1" /><polyline fill="none" opacity="0.8" points="195.0,180.0 215.0,180.0" stroke="#F00" stroke-width="1" /><polygon fill="#F00" opacity="0.8" points="209.2044,181.5529 215.0,180.0 209.2044,178.4471" stroke="#F00" stroke-width="1" /><polyline fill="none" opacity="0.8" points="115.0,157.0 95.0,157.0" stroke="#F00" stroke-width="1" /><polygon fill="#F00" opacity="0.8" points="100.7956,155.4471 95.0,157.0 100.7956,158.5529" stroke="#F00" stroke-width="1" /><polyline fill="none" opacity="0.8" points="424.0,145.0 441.0,145.0" stroke="#F00" stroke-width="1" /><polygon fill="#F00" opacity="0.8" points="436.0738,146.32 441.0,145.0 436.0738,143.68" stroke="#F00" stroke-width="1" /><polyline fill="none" opacity="0.8" points="214.0,123.0 196.0,123.0" stroke="#090" stroke-width="1" /><polygon fill="#090" opacity="0.8" points="201.216,121.6024 196.0,123.0 201.216,124.3976" stroke="#090" stroke-width="1" /><polyline fill="none" opacity="0.8" points="320.0,181.0 339.0,181.0" stroke="#090" stroke-width="1" /><polygon fill="#090" opacity="0.8" points="333.4942,182.4753 339.0,181.0 333.4942,179.5247" stroke="#090" stroke-width="1" /><polyline fill="none" opacity="0.8" points="96.0,145.0 115.0,145.0" stroke="#090" stroke-width="1" /><polygon fill="#090" opacity="0.8" points="109.4942,146.4753 115.0,145.0 109.4942,143.5247" stroke="#090" stroke-width="1" /><polyline fill="none" opacity="0.8" points="441.0,157.0 424.0,157.0" stroke="#090" stroke-width="1" /><polygon fill="#090" opacity="0.8" points="428.9262,155.68 424.0,157.0 428.9262,158.32" stroke="#090" stroke-width="1" /><text fill="#00AFAF" font-family="Arial" font-size="15" font-weight="normal" opacity="1.0" transform="rotate(-0.0 194.0,19.0) translate(0 15)" x="194.0" y="19.0">Малая Филёвская улица</text><text fill="#000" font-family="Arial" font-size="8" font-weight="normal" opacity="1.0" x="90.8" y="119.2">верхний ярус</text><text fill="#000" font-family="Arial" font-size="8" font-weight="normal" opacity="1.0" x="38.8" y="119.2">нижний ярус</text><g transform="rotate(16.0,261.0,150.0)"><text fill="#FFD900" font-family="Arial" font-size="25" font-weight="normal" opacity="1.0" x="219.25" y="170.5">1</text><text fill="#FFD900" font-family="Arial" font-size="25" font-weight="normal" opacity="1.0" x="293.25" y="147.5">2</text></g></g></g></svg>