<?xml version="1.0" encoding="utf-8" ?>
<svg baseProfile="tiny" height="670px" version="1.2" width="1190px" xmlns="http://www.w3.org/2000/svg" xmlns:ev="http://www.w3.org/2001/xml-events" xmlns:xlink="http://www.w3.org/1999/xlink"><defs /><g><polygon fill="#EEE" opacity="100" points="296.0,382.0 296.0,341.0 313.0,341.0 313.0,382.0" stroke="#EEE" stroke-width="1" /><polygon fill="#EEE" opacity="100" points="397.0,341.0 711.0,341.0 711.0,363.0 671.0,363.0 671.0,396.0 711.0,396.0 711.0,419.0 397.0,419.0 397.0,395.0 437.0,395.0 437.0,365.0 397.0,365.0" stroke="#EEE" stroke-width="1" /><polygon fill="#E41C0C" opacity="100" points="296.0,341.0 296.0,311.0 745.0,311.0 745.0,341.0" stroke="#000" stroke-width="1" /><polygon fill="#E41C0C" opacity="100" points="296.0,449.0 296.0,419.0 745.0,419.0 745.0,449.0" stroke="#000" stroke-width="1" /><polyline fill="none" opacity="100" points="296.0,419.0 296.0,341.0" stroke="#000" stroke-width="1" /><polyline fill="none" opacity="100" points="745.0,419.0 745.0,341.0" stroke="#000" stroke-width="1" /><polygon fill="#FFF" opacity="0.7" points="711.0,431.0 711.0,329.0 746.0,329.0 746.0,431.0" stroke="#FFF" stroke-width="1" /><polygon fill="#FFF" opacity="0.7" points="313.0,382.0 313.0,325.0 397.0,325.0 397.0,428.0 295.0,428.0 295.0,382.0" stroke="#FFF" stroke-width="1" /><polyline fill="none" opacity="1.0" points="437.0,365.0 397.0,365.0 397.0,325.0 313.0,325.0 313.0,382.0 243.0,382.0 243.0,281.0 106.0,144.0 142.0,108.0" stroke="#000" stroke-width="1" /><polyline fill="none" opacity="1.0" points="119.0,85.0 91.0,113.0 31.0,53.0" stroke="#000" stroke-width="1" /><polyline fill="none" opacity="1.0" points="19.0,65.0 79.0,125.0 70.0,134.0 225.0,289.0 225.0,515.0 119.0,515.0" stroke="#000" stroke-width="1" /><polyline fill="none" opacity="1.0" points="119.0,548.0 243.0,548.0 243.0,428.0 397.0,428.0 397.0,395.0 437.0,395.0" stroke="#000" stroke-width="1" /><polyline fill="none" opacity="1.0" points="159.0,529.0 119.0,529.0" stroke="#000" stroke-width="0.5" /><polyline fill="none" opacity="1.0" points="159.0,533.0 119.0,533.0" stroke="#000" stroke-width="0.5" /><polyline fill="none" opacity="1.0" points="129.0,95.0 101.0,123.0" stroke="#000" stroke-width="0.5" /><polyline fill="none" opacity="1.0" points="132.0,98.0 104.0,126.0" stroke="#000" stroke-width="0.5" /><polyline fill="none" opacity="1.0" points="435.0,365.0 435.0,391.0" stroke="#000" stroke-width="1" /><polyline fill="none" opacity="1.0" points="431.0,365.0 431.0,391.0" stroke="#000" stroke-width="1" /><polyline fill="none" opacity="1.0" points="427.0,365.0 427.0,391.0" stroke="#000" stroke-width="1" /><polyline fill="none" opacity="1.0" points="423.0,365.0 423.0,391.0" stroke="#000" stroke-width="1" /><polyline fill="none" opacity="1.0" points="419.0,365.0 419.0,391.0" stroke="#000" stroke-width="1" /><polyline fill="none" opacity="1.0" points="415.0,365.0 415.0,391.0" stroke="#000" stroke-width="1" /><polyline fill="none" opacity="1.0" points="411.0,365.0 411.0,391.0" stroke="#000" stroke-width="1" /><polyline fill="none" opacity="1.0" points="407.0,365.0 407.0,391.0" stroke="#000" stroke-width="1" /><polyline fill="none" opacity="1.0" points="403.0,365.0 403.0,391.0" stroke="#000" stroke-width="1" /><polyline fill="none" opacity="1.0" points="399.0,365.0 399.0,391.0" stroke="#000" stroke-width="1" /><polyline fill="none" opacity="1.0" points="131.0,99.0 141.0,109.0" stroke="#000" stroke-width="1" /><polyline fill="none" opacity="1.0" points="128.1716,101.8284 138.1716,111.8284" stroke="#000" stroke-width="1" /><polyline fill="none" opacity="1.0" points="125.3431,104.6569 135.3431,114.6569" stroke="#000" stroke-width="1" /><polyline fill="none" opacity="1.0" points="122.5147,107.4853 132.5147,117.4853" stroke="#000" stroke-width="1" /><polyline fill="none" opacity="1.0" points="119.6863,110.3137 129.6863,120.3137" stroke="#000" stroke-width="1" /><polyline fill="none" opacity="1.0" points="116.8579,113.1421 126.8579,123.1421" stroke="#000" stroke-width="1" /><polyline fill="none" opacity="1.0" points="114.0294,115.9706 124.0294,125.9706" stroke="#000" stroke-width="1" /><polyline fill="none" opacity="1.0" points="111.201,118.799 121.201,128.799" stroke="#000" stroke-width="1" /><polyline fill="none" opacity="1.0" points="108.3726,121.6274 118.3726,131.6274" stroke="#000" stroke-width="1" /><polyline fill="none" opacity="1.0" points="105.5442,124.4558 115.5442,134.4558" stroke="#000" stroke-width="1" /><polyline fill="none" opacity="1.0" points="128.0,96.0 118.0,86.0" stroke="#000" stroke-width="1" /><polyline fill="none" opacity="1.0" points="125.1716,98.8284 115.1716,88.8284" stroke="#000" stroke-width="1" /><polyline fill="none" opacity="1.0" points="122.3431,101.6569 112.3431,91.6569" stroke="#000" stroke-width="1" /><polyline fill="none" opacity="1.0" points="119.5147,104.4853 109.5147,94.4853" stroke="#000" stroke-width="1" /><polyline fill="none" opacity="1.0" points="116.6863,107.3137 106.6863,97.3137" stroke="#000" stroke-width="1" /><polyline fill="none" opacity="1.0" points="113.8579,110.1421 103.8579,100.1421" stroke="#000" stroke-width="1" /><polyline fill="none" opacity="1.0" points="111.0294,112.9706 101.0294,102.9706" stroke="#000" stroke-width="1" /><polyline fill="none" opacity="1.0" points="108.201,115.799 98.201,105.799" stroke="#000" stroke-width="1" /><polyline fill="none" opacity="1.0" points="105.3726,118.6274 95.3726,108.6274" stroke="#000" stroke-width="1" /><polyline fill="none" opacity="1.0" points="102.5442,121.4558 92.5442,111.4558" stroke="#000" stroke-width="1" /><polyline fill="none" opacity="1.0" points="121.0,515.0 121.0,529.0" stroke="#000" stroke-width="1" /><polyline fill="none" opacity="1.0" points="125.0,515.0 125.0,529.0" stroke="#000" stroke-width="1" /><polyline fill="none" opacity="1.0" points="129.0,515.0 129.0,529.0" stroke="#000" stroke-width="1" /><polyline fill="none" opacity="1.0" points="133.0,515.0 133.0,529.0" stroke="#000" stroke-width="1" /><polyline fill="none" opacity="1.0" points="137.0,515.0 137.0,529.0" stroke="#000" stroke-width="1" /><polyline fill="none" opacity="1.0" points="141.0,515.0 141.0,529.0" stroke="#000" stroke-width="1" /><polyline fill="none" opacity="1.0" points="145.0,515.0 145.0,529.0" stroke="#000" stroke-width="1" /><polyline fill="none" opacity="1.0" points="149.0,515.0 149.0,529.0" stroke="#000" stroke-width="1" /><polyline fill="none" opacity="1.0" points="153.0,515.0 153.0,529.0" stroke="#000" stroke-width="1" /><polyline fill="none" opacity="1.0" points="157.0,515.0 157.0,529.0" stroke="#000" stroke-width="1" /><polyline fill="none" opacity="1.0" points="121.0,548.0 121.0,533.0" stroke="#000" stroke-width="1" /><polyline fill="none" opacity="1.0" points="125.0,548.0 125.0,533.0" stroke="#000" stroke-width="1" /><polyline fill="none" opacity="1.0" points="129.0,548.0 129.0,533.0" stroke="#000" stroke-width="1" /><polyline fill="none" opacity="1.0" points="133.0,548.0 133.0,533.0" stroke="#000" stroke-width="1" /><polyline fill="none" opacity="1.0" points="137.0,548.0 137.0,533.0" stroke="#000" stroke-width="1" /><polyline fill="none" opacity="1.0" points="141.0,548.0 141.0,533.0" stroke="#000" stroke-width="1" /><polyline fill="none" opacity="1.0" points="145.0,548.0 145.0,533.0" stroke="#000" stroke-width="1" /><polyline fill="none" opacity="1.0" points="149.0,548.0 149.0,533.0" stroke="#000" stroke-width="1" /><polyline fill="none" opacity="1.0" points="153.0,548.0 153.0,533.0" stroke="#000" stroke-width="1" /><polyline fill="none" opacity="1.0" points="157.0,548.0 157.0,533.0" stroke="#000" stroke-width="1" /><polyline fill="none" opacity="1.0" points="47.0,54.0 47.0,63.0 79.0,95.0 88.0,95.0" stroke="#000" stroke-width="2" /><polyline fill="none" opacity="1.0" points="20.0,81.0 29.0,81.0 61.0,113.0 61.0,122.0" stroke="#000" stroke-width="2" /><polygon fill="#D0D0D0" opacity="1.0" points="369.0,393.0 343.0,393.0 343.0,362.0 369.0,362.0" stroke="#000" stroke-width="1" /><polygon fill="#D0EFFF" opacity="1.0" points="355.0,381.0 355.0,367.0 369.0,367.0 369.0,381.0" stroke="#000" stroke-width="1" /><text fill="#000" font-family="Arial" font-size="6" font-weight="normal" opacity="1.0" transform="rotate(-0.0 356.0,371.0) translate(0 6)" x="356.0" y="371.0">лифт</text><polygon fill="#D0EFFF" opacity="1.0" points="79.0,143.0 70.0,134.0 79.0,125.0 88.0,134.0" stroke="#000" stroke-width="1" /><text fill="#000" font-family="Arial" font-size="6" font-weight="normal" opacity="1.0" transform="rotate(-0.0 72.0,130.0) translate(0 6)" x="72.0" y="130.0">лифт</text><polygon fill="#D0EFFF" opacity="1.0" points="243.0,542.0 243.0,528.0 258.0,528.0 258.0,542.0" stroke="#000" stroke-width="1" /><text fill="#000" font-family="Arial" font-size="6" font-weight="normal" opacity="1.0" transform="rotate(-0.0 244.0,532.0) translate(0 6)" x="244.0" y="532.0">лифт</text><polyline fill="none" opacity="1.0" points="354.0,395.0 330.0,405.0 243.0,405.0" stroke="#000" stroke-width="0.5" /><polygon fill="none" opacity="1.0" points="362.0,334.0 368.0,334.0 368.0,328.0 362.0,328.0" stroke="#000" stroke-width="1" /><polyline fill="none" opacity="1.0" points="363.0,358.0 367.0,358.0" stroke="#090" stroke-width="1" /><polyline fill="none" opacity="1.0" points="363.0,354.0 367.0,354.0" stroke="#090" stroke-width="1" /><polyline fill="none" opacity="1.0" points="363.0,350.0 367.0,350.0" stroke="#090" stroke-width="1" /><polyline fill="none" opacity="1.0" points="363.0,346.0 367.0,346.0" stroke="#090" stroke-width="1" /><polyline fill="none" opacity="1.0" points="363.0,342.0 367.0,342.0" stroke="#090" stroke-width="1" /><polyline fill="none" opacity="1.0" points="363.0,338.0 367.0,338.0" stroke="#090" stroke-width="1" /><polyline fill="none" opacity="1.0" points="355.0,398.0 359.0,397.0" stroke="#F00" stroke-width="1" /><polyline fill="none" opacity="1.0" points="356.0307,401.8649 360.0307,400.8649" stroke="#F00" stroke-width="1" /><polyline fill="none" opacity="1.0" points="357.0613,405.7299 361.0613,404.7299" stroke="#F00" stroke-width="1" /><polyline fill="none" opacity="1.0" points="358.092,409.5948 362.092,408.5948" stroke="#F00" stroke-width="1" /><polyline fill="none" opacity="1.0" points="359.1226,413.4598 363.1226,412.4598" stroke="#F00" stroke-width="1" /><polyline fill="none" opacity="1.0" points="360.1533,417.3247 364.1533,416.3247" stroke="#F00" stroke-width="1" /><polyline fill="none" opacity="1.0" points="361.1839,421.1896 365.1839,420.1896" stroke="#F00" stroke-width="1" /><polyline fill="none" opacity="1.0" points="362.2146,425.0546 366.2146,424.0546" stroke="#F00" stroke-width="1" /><polyline fill="none" opacity="1.0" points="671.0,363.0 711.0,363.0 711.0,329.0 774.0,329.0 774.0,371.0 854.0,371.0 854.0,245.0 912.0,245.0 912.0,200.0 995.0,117.0 945.0,117.0" stroke="#000" stroke-width="1" /><polyline fill="none" opacity="1.0" points="872.0,263.0 934.0,263.0" stroke="#000" stroke-width="1" /><polyline fill="none" opacity="1.0" points="945.0,99.0 999.0,99.0 999.0,30.0" stroke="#000" stroke-width="1" /><polyline fill="none" opacity="1.0" points="985.0,77.0 963.0,77.0 963.0,12.0" stroke="#000" stroke-width="1" /><polyline fill="none" opacity="1.0" points="981.0,59.0 981.0,12.0 1017.0,12.0 1017.0,99.0 1095.0,99.0 1095.0,12.0 1131.0,12.0 1131.0,59.0" stroke="#000" stroke-width="1" /><polyline fill="none" opacity="1.0" points="1113.0,30.0 1113.0,99.0 1158.0,99.0" stroke="#000" stroke-width="1" /><polyline fill="none" opacity="1.0" points="1127.0,77.0 1149.0,77.0 1149.0,12.0" stroke="#000" stroke-width="1" /><polyline fill="none" opacity="1.0" points="1158.0,117.0 1020.0,117.0 930.0,207.0 930.0,245.0 952.0,245.0 952.0,281.0 872.0,281.0 872.0,444.0 952.0,444.0 952.0,479.0 931.0,479.0 931.0,550.0 1058.0,550.0" stroke="#000" stroke-width="1" /><polyline fill="none" opacity="1.0" points="872.0,462.0 934.0,462.0" stroke="#000" stroke-width="1" /><polyline fill="none" opacity="1.0" points="1058.0,568.0 1012.0,568.0 1012.0,633.0" stroke="#000" stroke-width="1" /><polyline fill="none" opacity="1.0" points="1030.0,606.0 1030.0,651.0 994.0,651.0 994.0,568.0 915.0,568.0 915.0,651.0 879.0,651.0 879.0,606.0" stroke="#000" stroke-width="1" /><polyline fill="none" opacity="1.0" points="1048.0,651.0 1048.0,588.0 1026.0,588.0" stroke="#000" stroke-width="1" /><polyline fill="none" opacity="1.0" points="897.0,633.0 897.0,568.0 848.0,568.0" stroke="#000" stroke-width="1" /><polyline fill="none" opacity="1.0" points="883.0,588.0 861.0,588.0 861.0,651.0" stroke="#000" stroke-width="1" /><polyline fill="none" opacity="1.0" points="848.0,550.0 913.0,550.0 913.0,480.0 854.0,480.0 854.0,431.0 711.0,431.0 711.0,396.0 671.0,396.0" stroke="#000" stroke-width="1" /><polyline fill="none" opacity="1.0" points="671.0,391.0 711.0,391.0" stroke="#000" stroke-width="0.5" /><polyline fill="none" opacity="1.0" points="437.0,391.0 397.0,391.0" stroke="#000" stroke-width="0.5" /><polyline fill="none" opacity="1.0" points="747.0,394.0 769.0,401.0 854.0,401.0" stroke="#000" stroke-width="0.5" /><polyline fill="none" opacity="1.0" points="673.0,391.0 673.0,363.0" stroke="#000" stroke-width="1" /><polyline fill="none" opacity="1.0" points="677.0,391.0 677.0,363.0" stroke="#000" stroke-width="1" /><polyline fill="none" opacity="1.0" points="681.0,391.0 681.0,363.0" stroke="#000" stroke-width="1" /><polyline fill="none" opacity="1.0" points="685.0,391.0 685.0,363.0" stroke="#000" stroke-width="1" /><polyline fill="none" opacity="1.0" points="689.0,391.0 689.0,363.0" stroke="#000" stroke-width="1" /><polyline fill="none" opacity="1.0" points="693.0,391.0 693.0,363.0" stroke="#000" stroke-width="1" /><polyline fill="none" opacity="1.0" points="697.0,391.0 697.0,363.0" stroke="#000" stroke-width="1" /><polyline fill="none" opacity="1.0" points="701.0,391.0 701.0,363.0" stroke="#000" stroke-width="1" /><polyline fill="none" opacity="1.0" points="705.0,391.0 705.0,363.0" stroke="#000" stroke-width="1" /><polyline fill="none" opacity="1.0" points="709.0,391.0 709.0,363.0" stroke="#000" stroke-width="1" /><polyline fill="none" opacity="1.0" points="874.0,263.0 874.0,245.0" stroke="#000" stroke-width="1" /><polyline fill="none" opacity="1.0" points="878.0,263.0 878.0,245.0" stroke="#000" stroke-width="1" /><polyline fill="none" opacity="1.0" points="882.0,263.0 882.0,245.0" stroke="#000" stroke-width="1" /><polyline fill="none" opacity="1.0" points="886.0,263.0 886.0,245.0" stroke="#000" stroke-width="1" /><polyline fill="none" opacity="1.0" points="890.0,263.0 890.0,245.0" stroke="#000" stroke-width="1" /><polyline fill="none" opacity="1.0" points="894.0,263.0 894.0,245.0" stroke="#000" stroke-width="1" /><polyline fill="none" opacity="1.0" points="898.0,263.0 898.0,245.0" stroke="#000" stroke-width="1" /><polyline fill="none" opacity="1.0" points="902.0,263.0 902.0,245.0" stroke="#000" stroke-width="1" /><polyline fill="none" opacity="1.0" points="906.0,263.0 906.0,245.0" stroke="#000" stroke-width="1" /><polyline fill="none" opacity="1.0" points="910.0,263.0 910.0,245.0" stroke="#000" stroke-width="1" /><polyline fill="none" opacity="1.0" points="874.0,462.0 874.0,480.0" stroke="#000" stroke-width="1" /><polyline fill="none" opacity="1.0" points="878.0,462.0 878.0,480.0" stroke="#000" stroke-width="1" /><polyline fill="none" opacity="1.0" points="882.0,462.0 882.0,480.0" stroke="#000" stroke-width="1" /><polyline fill="none" opacity="1.0" points="886.0,462.0 886.0,480.0" stroke="#000" stroke-width="1" /><polyline fill="none" opacity="1.0" points="890.0,462.0 890.0,480.0" stroke="#000" stroke-width="1" /><polyline fill="none" opacity="1.0" points="894.0,462.0 894.0,480.0" stroke="#000" stroke-width="1" /><polyline fill="none" opacity="1.0" points="898.0,462.0 898.0,480.0" stroke="#000" stroke-width="1" /><polyline fill="none" opacity="1.0" points="902.0,462.0 902.0,480.0" stroke="#000" stroke-width="1" /><polyline fill="none" opacity="1.0" points="906.0,462.0 906.0,480.0" stroke="#000" stroke-width="1" /><polyline fill="none" opacity="1.0" points="910.0,462.0 910.0,480.0" stroke="#000" stroke-width="1" /><polyline fill="none" opacity="1.0" points="947.0,99.0 947.0,117.0" stroke="#000" stroke-width="1" /><polyline fill="none" opacity="1.0" points="951.0,99.0 951.0,117.0" stroke="#000" stroke-width="1" /><polyline fill="none" opacity="1.0" points="955.0,99.0 955.0,117.0" stroke="#000" stroke-width="1" /><polyline fill="none" opacity="1.0" points="959.0,99.0 959.0,117.0" stroke="#000" stroke-width="1" /><polyline fill="none" opacity="1.0" points="963.0,99.0 963.0,117.0" stroke="#000" stroke-width="1" /><polyline fill="none" opacity="1.0" points="967.0,99.0 967.0,117.0" stroke="#000" stroke-width="1" /><polyline fill="none" opacity="1.0" points="971.0,99.0 971.0,117.0" stroke="#000" stroke-width="1" /><polyline fill="none" opacity="1.0" points="975.0,99.0 975.0,117.0" stroke="#000" stroke-width="1" /><polyline fill="none" opacity="1.0" points="979.0,99.0 979.0,117.0" stroke="#000" stroke-width="1" /><polyline fill="none" opacity="1.0" points="983.0,99.0 983.0,117.0" stroke="#000" stroke-width="1" /><polyline fill="none" opacity="1.0" points="1156.0,117.0 1156.0,99.0" stroke="#000" stroke-width="1" /><polyline fill="none" opacity="1.0" points="1152.0,117.0 1152.0,99.0" stroke="#000" stroke-width="1" /><polyline fill="none" opacity="1.0" points="1148.0,117.0 1148.0,99.0" stroke="#000" stroke-width="1" /><polyline fill="none" opacity="1.0" points="1144.0,117.0 1144.0,99.0" stroke="#000" stroke-width="1" /><polyline fill="none" opacity="1.0" points="1140.0,117.0 1140.0,99.0" stroke="#000" stroke-width="1" /><polyline fill="none" opacity="1.0" points="1136.0,117.0 1136.0,99.0" stroke="#000" stroke-width="1" /><polyline fill="none" opacity="1.0" points="1132.0,117.0 1132.0,99.0" stroke="#000" stroke-width="1" /><polyline fill="none" opacity="1.0" points="1128.0,117.0 1128.0,99.0" stroke="#000" stroke-width="1" /><polyline fill="none" opacity="1.0" points="1124.0,117.0 1124.0,99.0" stroke="#000" stroke-width="1" /><polyline fill="none" opacity="1.0" points="1120.0,117.0 1120.0,99.0" stroke="#000" stroke-width="1" /><polyline fill="none" opacity="1.0" points="850.0,568.0 850.0,550.0" stroke="#000" stroke-width="1" /><polyline fill="none" opacity="1.0" points="854.0,568.0 854.0,550.0" stroke="#000" stroke-width="1" /><polyline fill="none" opacity="1.0" points="858.0,568.0 858.0,550.0" stroke="#000" stroke-width="1" /><polyline fill="none" opacity="1.0" points="862.0,568.0 862.0,550.0" stroke="#000" stroke-width="1" /><polyline fill="none" opacity="1.0" points="866.0,568.0 866.0,550.0" stroke="#000" stroke-width="1" /><polyline fill="none" opacity="1.0" points="870.0,568.0 870.0,550.0" stroke="#000" stroke-width="1" /><polyline fill="none" opacity="1.0" points="874.0,568.0 874.0,550.0" stroke="#000" stroke-width="1" /><polyline fill="none" opacity="1.0" points="878.0,568.0 878.0,550.0" stroke="#000" stroke-width="1" /><polyline fill="none" opacity="1.0" points="882.0,568.0 882.0,550.0" stroke="#000" stroke-width="1" /><polyline fill="none" opacity="1.0" points="886.0,568.0 886.0,550.0" stroke="#000" stroke-width="1" /><polyline fill="none" opacity="1.0" points="1056.0,550.0 1056.0,568.0" stroke="#000" stroke-width="1" /><polyline fill="none" opacity="1.0" points="1052.0,550.0 1052.0,568.0" stroke="#000" stroke-width="1" /><polyline fill="none" opacity="1.0" points="1048.0,550.0 1048.0,568.0" stroke="#000" stroke-width="1" /><polyline fill="none" opacity="1.0" points="1044.0,550.0 1044.0,568.0" stroke="#000" stroke-width="1" /><polyline fill="none" opacity="1.0" points="1040.0,550.0 1040.0,568.0" stroke="#000" stroke-width="1" /><polyline fill="none" opacity="1.0" points="1036.0,550.0 1036.0,568.0" stroke="#000" stroke-width="1" /><polyline fill="none" opacity="1.0" points="1032.0,550.0 1032.0,568.0" stroke="#000" stroke-width="1" /><polyline fill="none" opacity="1.0" points="1028.0,550.0 1028.0,568.0" stroke="#000" stroke-width="1" /><polyline fill="none" opacity="1.0" points="1024.0,550.0 1024.0,568.0" stroke="#000" stroke-width="1" /><polyline fill="none" opacity="1.0" points="1020.0,550.0 1020.0,568.0" stroke="#000" stroke-width="1" /><polygon fill="#D0D0D0" opacity="1.0" points="726.0,363.0 745.0,363.0 745.0,393.0 726.0,393.0" stroke="#000" stroke-width="1" /><text fill="#00AFAF" font-family="Arial" font-size="15" font-weight="normal" opacity="1.0" transform="rotate(-0.0 1065.0,332.0) translate(0 15)" x="1065.0" y="332.0">Варшавское шоссе</text><text fill="#00AFAF" font-family="Arial" font-size="15" font-weight="normal" opacity="1.0" transform="rotate(-0.0 56.0,390.0) translate(0 15)" x="56.0" y="390.0">Варшавское шоссе</text><text fill="#00AFAF" font-family="Arial" font-size="15" font-weight="normal" opacity="1.0" transform="rotate(-80.0 996.0,396.0) translate(0 15)" x="996.0" y="396.0">проспект Куприна</text><text fill="#00AFAF" font-family="Arial" font-size="15" font-weight="normal" opacity="1.0" transform="rotate(-45.0 -21.0,147.0) translate(0 15)" x="-21.0" y="147.0">улица Александры Монаховой (дублёр)</text><polygon fill="#D0EFFF" opacity="1.0" points="726.0,384.0 726.0,370.0 740.0,370.0 740.0,384.0" stroke="#000" stroke-width="1" /><text fill="#000" font-family="Arial" font-size="6" font-weight="normal" opacity="1.0" transform="rotate(-0.0 727.0,374.0) translate(0 6)" x="727.0" y="374.0">лифт</text><polygon fill="#D0EFFF" opacity="1.0" points="883.0,588.0 883.0,574.0 897.0,574.0 897.0,588.0" stroke="#000" stroke-width="1" /><text fill="#000" font-family="Arial" font-size="6" font-weight="normal" opacity="1.0" transform="rotate(-0.0 884.0,578.0) translate(0 6)" x="884.0" y="578.0">лифт</text><polygon fill="#D0EFFF" opacity="1.0" points="1012.0,588.0 1012.0,574.0 1026.0,574.0 1026.0,588.0" stroke="#000" stroke-width="1" /><text fill="#000" font-family="Arial" font-size="6" font-weight="normal" opacity="1.0" transform="rotate(-0.0 1013.0,578.0) translate(0 6)" x="1013.0" y="578.0">лифт</text><polygon fill="#D0EFFF" opacity="1.0" points="985.0,91.0 985.0,77.0 999.0,77.0 999.0,91.0" stroke="#000" stroke-width="1" /><text fill="#000" font-family="Arial" font-size="6" font-weight="normal" opacity="1.0" transform="rotate(-0.0 986.0,81.0) translate(0 6)" x="986.0" y="81.0">лифт</text><polygon fill="#D0EFFF" opacity="1.0" points="1113.0,91.0 1113.0,77.0 1127.0,77.0 1127.0,91.0" stroke="#000" stroke-width="1" /><text fill="#000" font-family="Arial" font-size="6" font-weight="normal" opacity="1.0" transform="rotate(-0.0 1114.0,81.0) translate(0 6)" x="1114.0" y="81.0">лифт</text><polygon fill="#94949C" opacity="1.0" points="321.0,403.0 316.0,403.0 316.0,401.0 321.0,401.0" stroke="#94949C" stroke-width="1" /><polygon fill="#F00" opacity="1.0" points="326.0,403.0 321.0,403.0 321.0,401.0 326.0,401.0" stroke="#F00" stroke-width="1" /><polygon fill="#94949C" opacity="1.0" points="565.0,376.0 565.0,380.0 563.0,380.0 563.0,376.0" stroke="#94949C" stroke-width="1" /><polygon fill="#F00" opacity="1.0" points="565.0,372.0 565.0,376.0 563.0,376.0 563.0,372.0" stroke="#F00" stroke-width="1" /><polyline fill="none" opacity="1.0" points="737.0,358.0 741.0,358.0" stroke="#090" stroke-width="1" /><polyline fill="none" opacity="1.0" points="737.0,354.0 741.0,354.0" stroke="#090" stroke-width="1" /><polyline fill="none" opacity="1.0" points="737.0,350.0 741.0,350.0" stroke="#090" stroke-width="1" /><polyline fill="none" opacity="1.0" points="737.0,346.0 741.0,346.0" stroke="#090" stroke-width="1" /><polyline fill="none" opacity="1.0" points="737.0,342.0 741.0,342.0" stroke="#090" stroke-width="1" /><polyline fill="none" opacity="1.0" points="737.0,338.0 741.0,338.0" stroke="#090" stroke-width="1" /><polyline fill="none" opacity="1.0" points="737.0,334.0 741.0,334.0" stroke="#090" stroke-width="1" /><polyline fill="none" opacity="1.0" points="733.0,396.0 737.0,397.0" stroke="#F00" stroke-width="1" /><polyline fill="none" opacity="1.0" points="731.9475,399.8591 735.9475,400.8591" stroke="#F00" stroke-width="1" /><polyline fill="none" opacity="1.0" points="730.8951,403.7181 734.8951,404.7181" stroke="#F00" stroke-width="1" /><polyline fill="none" opacity="1.0" points="729.8426,407.5772 733.8426,408.5772" stroke="#F00" stroke-width="1" /><polyline fill="none" opacity="1.0" points="728.7901,411.4362 732.7901,412.4362" stroke="#F00" stroke-width="1" /><polyline fill="none" opacity="1.0" points="727.7377,415.2953 731.7377,416.2953" stroke="#F00" stroke-width="1" /><polyline fill="none" opacity="1.0" points="726.6852,419.1543 730.6852,420.1543" stroke="#F00" stroke-width="1" /><polyline fill="none" opacity="1.0" points="725.6327,423.0134 729.6327,424.0134" stroke="#F00" stroke-width="1" /><polyline fill="none" opacity="1.0" points="724.5802,426.8724 728.5802,427.8724" stroke="#F00" stroke-width="1" /><polyline fill="none" opacity="1.0" points="807.0,415.0 821.0,415.0" stroke="#F00" stroke-width="1" /><polygon fill="#F00" opacity="1.0" points="816.9431,416.087 821.0,415.0 816.9431,413.913" stroke="#F00" stroke-width="1" /><polyline fill="none" opacity="1.0" points="822.0,387.0 808.0,387.0" stroke="#090" stroke-width="1" /><polygon fill="#090" opacity="1.0" points="812.0569,385.913 808.0,387.0 812.0569,388.087" stroke="#090" stroke-width="1" /><text fill="#E41C0C" font-family="Arial" font-size="20" font-weight="normal" opacity="1.0" transform="rotate(-0.0 296.0,290.0) translate(0 20)" x="296.0" y="290.0">&lt;&lt; Новомосковская</text><text fill="#E41C0C" font-family="Arial" font-size="20" font-weight="normal" opacity="1.0" transform="rotate(-0.0 615.0,449.0) translate(0 20)" x="615.0" y="449.0">посадки нет &gt;&gt;</text><text fill="#E41C0C" font-family="Arial" font-size="25" font-weight="bold" opacity="1.0" transform="rotate(-0.0 505.0,350.0) translate(0 25)" x="505.0" y="350.0">Потапово</text><text fill="#FFD900" font-family="Arial" font-size="25" font-weight="normal" opacity="1.0" x="930.25" y="88.5">1</text><text fill="#FFD900" font-family="Arial" font-size="25" font-weight="normal" opacity="1.0" x="1160.25" y="88.5">2</text><text fill="#FFD900" font-family="Arial" font-size="25" font-weight="normal" opacity="1.0" x="832.25" y="596.5">3</text><text fill="#FFD900" font-family="Arial" font-size="25" font-weight="normal" opacity="1.0" x="1055.25" y="596.5">4</text><text fill="#FFD900" font-family="Arial" font-size="25" font-weight="normal" opacity="1.0" x="111.25" y="499.5">5</text><text fill="#FFD900" font-family="Arial" font-size="25" font-weight="normal" opacity="1.0" x="156.25" y="120.5">6</text><text fill="#FFD900" font-family="Arial" font-size="25" font-weight="normal" opacity="1.0" x="19.25" y="33.5">7</text></g></svg>