<?xml version="1.0" encoding="utf-8" ?>
<svg baseProfile="tiny" height="1000px" version="1.2" width="1200px" xmlns="http://www.w3.org/2000/svg" xmlns:ev="http://www.w3.org/2001/xml-events" xmlns:xlink="http://www.w3.org/1999/xlink"><defs /><g><g transform="rotate(-15.0,600.0,500.0)"><polygon fill="#E41C0C" opacity="100" points="801.0,453.0 351.0,453.0 351.0,423.0 801.0,423.0" stroke="#000" stroke-width="1" /><polygon fill="#E41C0C" opacity="100" points="801.0,343.0 351.0,343.0 351.0,313.0 801.0,313.0" stroke="#000" stroke-width="1" /><text fill="#E41C0C" font-family="Arial" font-size="20" font-weight="normal" opacity="100" transform="rotate(-0.0 651.0,453.0) translate(0 20)" x="651.0" y="453.0">Черкизовская &gt;&gt;</text><text fill="#E41C0C" font-family="Arial" font-size="20" font-weight="normal" opacity="100" transform="rotate(-0.0 356.0,287.0) translate(0 20)" x="356.0" y="287.0">&lt;&lt; Сокольники</text><text fill="#E41C0C" font-family="Arial" font-size="25" font-weight="bold" opacity="100" transform="rotate(-0.0 430.0,359.0) translate(0 25)" x="430.0" y="359.0">Преображенская площадь</text><polygon fill="#34349C" opacity="100" points="577.0,389.0 577.0,385.0 578.0,385.0 578.0,389.0" stroke="#34349C" stroke-width="1" /><polygon fill="#F00" opacity="100" points="577.0,393.0 577.0,389.0 578.0,389.0 578.0,393.0" stroke="#F00" stroke-width="1" /><polyline fill="none" opacity="100" points="102.0,244.0 228.0,244.0" stroke="#000" stroke-width="1" /><polyline fill="none" opacity="100" points="228.0,266.0 186.0,266.0 186.0,316.0 301.0,316.0 301.0,355.0 351.0,355.0 351.0,343.0" stroke="#000" stroke-width="1" /><polyline fill="none" opacity="100" points="351.0,423.0 351.0,410.0 302.0,410.0 302.0,450.0 186.0,450.0 186.0,475.0 198.0,475.0 198.0,694.0 415.0,752.0 426.0,711.0" stroke="#000" stroke-width="1" /><polyline fill="none" opacity="100" points="102.0,475.0 144.0,475.0 144.0,266.0 102.0,266.0" stroke="#000" stroke-width="1" /><polyline fill="none" opacity="100" points="102.0,498.0 144.0,498.0 144.0,697.0 98.0,697.0" stroke="#000" stroke-width="1" /><polyline fill="none" opacity="100" points="98.0,719.0 144.0,719.0 144.0,725.0 131.0,774.0" stroke="#000" stroke-width="1" /><polyline fill="none" opacity="100" points="153.0,780.0 169.0,720.0 407.0,783.0 396.0,824.0" stroke="#000" stroke-width="1" /><polyline fill="none" opacity="100" points="418.0,830.0 448.0,717.0" stroke="#000" stroke-width="1" /><polyline fill="none" opacity="100" points="226.0,244.0 226.0,266.0" stroke="#000" stroke-width="1" /><polyline fill="none" opacity="100" points="222.0,244.0 222.0,266.0" stroke="#000" stroke-width="1" /><polyline fill="none" opacity="100" points="218.0,244.0 218.0,266.0" stroke="#000" stroke-width="1" /><polyline fill="none" opacity="100" points="214.0,244.0 214.0,266.0" stroke="#000" stroke-width="1" /><polyline fill="none" opacity="100" points="210.0,244.0 210.0,266.0" stroke="#000" stroke-width="1" /><polyline fill="none" opacity="100" points="206.0,244.0 206.0,266.0" stroke="#000" stroke-width="1" /><polyline fill="none" opacity="100" points="202.0,244.0 202.0,266.0" stroke="#000" stroke-width="1" /><polyline fill="none" opacity="100" points="198.0,244.0 198.0,266.0" stroke="#000" stroke-width="1" /><polyline fill="none" opacity="100" points="194.0,244.0 194.0,266.0" stroke="#000" stroke-width="1" /><polyline fill="none" opacity="100" points="190.0,244.0 190.0,266.0" stroke="#000" stroke-width="1" /><polyline fill="none" opacity="100" points="104.0,244.0 104.0,266.0" stroke="#000" stroke-width="1" /><polyline fill="none" opacity="100" points="108.0,244.0 108.0,266.0" stroke="#000" stroke-width="1" /><polyline fill="none" opacity="100" points="112.0,244.0 112.0,266.0" stroke="#000" stroke-width="1" /><polyline fill="none" opacity="100" points="116.0,244.0 116.0,266.0" stroke="#000" stroke-width="1" /><polyline fill="none" opacity="100" points="120.0,244.0 120.0,266.0" stroke="#000" stroke-width="1" /><polyline fill="none" opacity="100" points="124.0,244.0 124.0,266.0" stroke="#000" stroke-width="1" /><polyline fill="none" opacity="100" points="128.0,244.0 128.0,266.0" stroke="#000" stroke-width="1" /><polyline fill="none" opacity="100" points="132.0,244.0 132.0,266.0" stroke="#000" stroke-width="1" /><polyline fill="none" opacity="100" points="136.0,244.0 136.0,266.0" stroke="#000" stroke-width="1" /><polyline fill="none" opacity="100" points="140.0,244.0 140.0,266.0" stroke="#000" stroke-width="1" /><polyline fill="none" opacity="100" points="303.0,355.0 303.0,410.0" stroke="#000" stroke-width="1" /><polyline fill="none" opacity="100" points="307.0,355.0 307.0,410.0" stroke="#000" stroke-width="1" /><polyline fill="none" opacity="100" points="311.0,355.0 311.0,410.0" stroke="#000" stroke-width="1" /><polyline fill="none" opacity="100" points="315.0,355.0 315.0,410.0" stroke="#000" stroke-width="1" /><polyline fill="none" opacity="100" points="319.0,355.0 319.0,410.0" stroke="#000" stroke-width="1" /><polyline fill="none" opacity="100" points="323.0,355.0 323.0,410.0" stroke="#000" stroke-width="1" /><polyline fill="none" opacity="100" points="327.0,355.0 327.0,410.0" stroke="#000" stroke-width="1" /><polyline fill="none" opacity="100" points="331.0,355.0 331.0,410.0" stroke="#000" stroke-width="1" /><polyline fill="none" opacity="100" points="335.0,355.0 335.0,410.0" stroke="#000" stroke-width="1" /><polyline fill="none" opacity="100" points="339.0,355.0 339.0,410.0" stroke="#000" stroke-width="1" /><polyline fill="none" opacity="100" points="343.0,355.0 343.0,410.0" stroke="#000" stroke-width="1" /><polyline fill="none" opacity="100" points="347.0,355.0 347.0,410.0" stroke="#000" stroke-width="1" /><polyline fill="none" opacity="100" points="104.0,475.0 104.0,498.0" stroke="#000" stroke-width="1" /><polyline fill="none" opacity="100" points="108.0,475.0 108.0,498.0" stroke="#000" stroke-width="1" /><polyline fill="none" opacity="100" points="112.0,475.0 112.0,498.0" stroke="#000" stroke-width="1" /><polyline fill="none" opacity="100" points="116.0,475.0 116.0,498.0" stroke="#000" stroke-width="1" /><polyline fill="none" opacity="100" points="120.0,475.0 120.0,498.0" stroke="#000" stroke-width="1" /><polyline fill="none" opacity="100" points="124.0,475.0 124.0,498.0" stroke="#000" stroke-width="1" /><polyline fill="none" opacity="100" points="128.0,475.0 128.0,498.0" stroke="#000" stroke-width="1" /><polyline fill="none" opacity="100" points="132.0,475.0 132.0,498.0" stroke="#000" stroke-width="1" /><polyline fill="none" opacity="100" points="136.0,475.0 136.0,498.0" stroke="#000" stroke-width="1" /><polyline fill="none" opacity="100" points="140.0,475.0 140.0,498.0" stroke="#000" stroke-width="1" /><polyline fill="none" opacity="100" points="154.0,776.0 132.0,770.0" stroke="#000" stroke-width="1" /><polyline fill="none" opacity="100" points="155.0525,772.1409 133.0525,766.1409" stroke="#000" stroke-width="1" /><polyline fill="none" opacity="100" points="156.1049,768.2819 134.1049,762.2819" stroke="#000" stroke-width="1" /><polyline fill="none" opacity="100" points="157.1574,764.4228 135.1574,758.4228" stroke="#000" stroke-width="1" /><polyline fill="none" opacity="100" points="158.2099,760.5638 136.2099,754.5638" stroke="#000" stroke-width="1" /><polyline fill="none" opacity="100" points="159.2623,756.7047 137.2623,750.7047" stroke="#000" stroke-width="1" /><polyline fill="none" opacity="100" points="160.3148,752.8457 138.3148,746.8457" stroke="#000" stroke-width="1" /><polyline fill="none" opacity="100" points="161.3673,748.9866 139.3673,742.9866" stroke="#000" stroke-width="1" /><polyline fill="none" opacity="100" points="162.4198,745.1276 140.4198,739.1276" stroke="#000" stroke-width="1" /><polyline fill="none" opacity="100" points="163.4722,741.2685 141.4722,735.2685" stroke="#000" stroke-width="1" /><polyline fill="none" opacity="100" points="164.5247,737.4094 142.5247,731.4094" stroke="#000" stroke-width="1" /><polyline fill="none" opacity="100" points="165.5772,733.5504 143.5772,727.5504" stroke="#000" stroke-width="1" /><polyline fill="none" opacity="100" points="100.0,719.0 100.0,697.0" stroke="#000" stroke-width="1" /><polyline fill="none" opacity="100" points="104.0,719.0 104.0,697.0" stroke="#000" stroke-width="1" /><polyline fill="none" opacity="100" points="108.0,719.0 108.0,697.0" stroke="#000" stroke-width="1" /><polyline fill="none" opacity="100" points="112.0,719.0 112.0,697.0" stroke="#000" stroke-width="1" /><polyline fill="none" opacity="100" points="116.0,719.0 116.0,697.0" stroke="#000" stroke-width="1" /><polyline fill="none" opacity="100" points="120.0,719.0 120.0,697.0" stroke="#000" stroke-width="1" /><polyline fill="none" opacity="100" points="124.0,719.0 124.0,697.0" stroke="#000" stroke-width="1" /><polyline fill="none" opacity="100" points="128.0,719.0 128.0,697.0" stroke="#000" stroke-width="1" /><polyline fill="none" opacity="100" points="132.0,719.0 132.0,697.0" stroke="#000" stroke-width="1" /><polyline fill="none" opacity="100" points="136.0,719.0 136.0,697.0" stroke="#000" stroke-width="1" /><polyline fill="none" opacity="100" points="425.0,715.0 447.0,721.0" stroke="#000" stroke-width="1" /><polyline fill="none" opacity="100" points="423.9564,718.8615 445.9564,724.8615" stroke="#000" stroke-width="1" /><polyline fill="none" opacity="100" points="422.9127,722.7229 444.9127,728.7229" stroke="#000" stroke-width="1" /><polyline fill="none" opacity="100" points="421.8691,726.5844 443.8691,732.5844" stroke="#000" stroke-width="1" /><polyline fill="none" opacity="100" points="420.8255,730.4458 442.8255,736.4458" stroke="#000" stroke-width="1" /><polyline fill="none" opacity="100" points="419.7818,734.3073 441.7818,740.3073" stroke="#000" stroke-width="1" /><polyline fill="none" opacity="100" points="418.7382,738.1687 440.7382,744.1687" stroke="#000" stroke-width="1" /><polyline fill="none" opacity="100" points="417.6945,742.0302 439.6945,748.0302" stroke="#000" stroke-width="1" /><polyline fill="none" opacity="100" points="416.6509,745.8916 438.6509,751.8916" stroke="#000" stroke-width="1" /><polyline fill="none" opacity="100" points="415.6073,749.7531 437.6073,755.7531" stroke="#000" stroke-width="1" /><polyline fill="none" opacity="100" points="397.0,820.0 419.0,826.0" stroke="#000" stroke-width="1" /><polyline fill="none" opacity="100" points="398.0436,816.1385 420.0436,822.1385" stroke="#000" stroke-width="1" /><polyline fill="none" opacity="100" points="399.0873,812.2771 421.0873,818.2771" stroke="#000" stroke-width="1" /><polyline fill="none" opacity="100" points="400.1309,808.4156 422.1309,814.4156" stroke="#000" stroke-width="1" /><polyline fill="none" opacity="100" points="401.1745,804.5542 423.1745,810.5542" stroke="#000" stroke-width="1" /><polyline fill="none" opacity="100" points="402.2182,800.6927 424.2182,806.6927" stroke="#000" stroke-width="1" /><polyline fill="none" opacity="100" points="403.2618,796.8313 425.2618,802.8313" stroke="#000" stroke-width="1" /><polyline fill="none" opacity="100" points="404.3055,792.9698 426.3055,798.9698" stroke="#000" stroke-width="1" /><polyline fill="none" opacity="100" points="405.3491,789.1084 427.3491,795.1084" stroke="#000" stroke-width="1" /><polyline fill="none" opacity="100" points="406.3927,785.2469 428.3927,791.2469" stroke="#000" stroke-width="1" /><polygon fill="#D0D0D0" opacity="100" points="186.0,346.0 186.0,421.0 196.0,421.0 196.0,346.0" stroke="#000" stroke-width="1" /><polygon fill="#FFF" opacity="100" points="196.0,399.0 188.0,399.0 188.0,367.0 196.0,367.0" stroke="#000" stroke-width="1" /><text fill="#FFF" font-family="Arial" font-size="10" font-weight="normal" opacity="100" transform="rotate(90.0 200.0,372.0) translate(0 10)" x="200.0" y="372.0">кассы</text><polyline fill="none" opacity="100" points="196.0,421.0 214.0,421.0 225.0,410.0" stroke="#000" stroke-width="0.5" /><polygon fill="none" opacity="100" points="283.0,348.0 287.0,352.0 291.0,348.0 287.0,344.0" stroke="#000" stroke-width="1" /><polyline fill="none" opacity="100" points="289.0,346.0 301.0,346.0" stroke="#000" stroke-width="0.5" /><polyline fill="none" opacity="100" points="224.0,409.0 226.0,411.0" stroke="#090" stroke-width="1" /><polyline fill="none" opacity="100" points="226.8284,406.1716 228.8284,408.1716" stroke="#090" stroke-width="1" /><polyline fill="none" opacity="100" points="229.6569,403.3431 231.6569,405.3431" stroke="#090" stroke-width="1" /><polyline fill="none" opacity="100" points="232.4853,400.5147 234.4853,402.5147" stroke="#090" stroke-width="1" /><polyline fill="none" opacity="100" points="235.3137,397.6863 237.3137,399.6863" stroke="#090" stroke-width="1" /><polyline fill="none" opacity="100" points="238.1421,394.8579 240.1421,396.8579" stroke="#090" stroke-width="1" /><polyline fill="none" opacity="100" points="240.9706,392.0294 242.9706,394.0294" stroke="#090" stroke-width="1" /><polyline fill="none" opacity="100" points="243.799,389.201 245.799,391.201" stroke="#090" stroke-width="1" /><polyline fill="none" opacity="100" points="246.6274,386.3726 248.6274,388.3726" stroke="#090" stroke-width="1" /><polyline fill="none" opacity="100" points="249.4558,383.5442 251.4558,385.5442" stroke="#090" stroke-width="1" /><polyline fill="none" opacity="100" points="252.2843,380.7157 254.2843,382.7157" stroke="#090" stroke-width="1" /><polyline fill="none" opacity="100" points="255.1127,377.8873 257.1127,379.8873" stroke="#090" stroke-width="1" /><polyline fill="none" opacity="100" points="257.9411,375.0589 259.9411,377.0589" stroke="#090" stroke-width="1" /><polyline fill="none" opacity="100" points="260.7696,372.2304 262.7696,374.2304" stroke="#090" stroke-width="1" /><polyline fill="none" opacity="100" points="263.598,369.402 265.598,371.402" stroke="#090" stroke-width="1" /><polyline fill="none" opacity="100" points="266.4264,366.5736 268.4264,368.5736" stroke="#090" stroke-width="1" /><polyline fill="none" opacity="100" points="269.2548,363.7452 271.2548,365.7452" stroke="#090" stroke-width="1" /><polyline fill="none" opacity="100" points="272.0833,360.9167 274.0833,362.9167" stroke="#090" stroke-width="1" /><polyline fill="none" opacity="100" points="274.9117,358.0883 276.9117,360.0883" stroke="#090" stroke-width="1" /><polyline fill="none" opacity="100" points="277.7401,355.2599 279.7401,357.2599" stroke="#090" stroke-width="1" /><polyline fill="none" opacity="100" points="280.5685,352.4315 282.5685,354.4315" stroke="#090" stroke-width="1" /><polyline fill="none" opacity="100" points="200.0,435.0 184.0,435.0" stroke="#F00" stroke-width="1" /><polygon fill="#F00" opacity="100" points="188.6364,433.7577 184.0,435.0 188.6364,436.2423" stroke="#F00" stroke-width="1" /><polyline fill="none" opacity="100" points="225.0,345.0 235.0,355.0" stroke="#090" stroke-width="1" /><polygon fill="#090" opacity="100" points="231.3258,352.8787 235.0,355.0 232.8787,351.3258" stroke="#090" stroke-width="1" /><polygon fill="#34349C" opacity="100" points="260.0,418.0 256.0,418.0 256.0,419.0 260.0,419.0" stroke="#34349C" stroke-width="1" /><polygon fill="#F00" opacity="100" points="264.0,418.0 260.0,418.0 260.0,419.0 264.0,419.0" stroke="#F00" stroke-width="1" /><polyline fill="none" opacity="100" points="1051.0,710.0 923.0,710.0" stroke="#000" stroke-width="1" /><polyline fill="none" opacity="100" points="1051.0,690.0 1009.0,690.0 1009.0,546.0 1051.0,546.0" stroke="#000" stroke-width="1" /><polyline fill="none" opacity="100" points="1051.0,528.0 1009.0,528.0 1009.0,490.0 1051.0,490.0" stroke="#000" stroke-width="1" /><polyline fill="none" opacity="100" points="1051.0,472.0 1009.0,472.0 1009.0,266.0 1051.0,266.0" stroke="#000" stroke-width="1" /><polyline fill="none" opacity="100" points="1051.0,244.0 922.0,244.0" stroke="#000" stroke-width="1" /><polyline fill="none" opacity="100" points="922.0,266.0 964.0,266.0 964.0,316.0 851.0,316.0 851.0,357.0 801.0,357.0 801.0,343.0" stroke="#000" stroke-width="1" /><polyline fill="none" opacity="100" points="923.0,688.0 965.0,688.0 965.0,450.0 851.0,450.0 851.0,411.0 801.0,411.0 801.0,423.0" stroke="#000" stroke-width="1" /><polyline fill="none" opacity="100" points="1049.0,690.0 1049.0,710.0" stroke="#000" stroke-width="1" /><polyline fill="none" opacity="100" points="1045.0,690.0 1045.0,710.0" stroke="#000" stroke-width="1" /><polyline fill="none" opacity="100" points="1041.0,690.0 1041.0,710.0" stroke="#000" stroke-width="1" /><polyline fill="none" opacity="100" points="1037.0,690.0 1037.0,710.0" stroke="#000" stroke-width="1" /><polyline fill="none" opacity="100" points="1033.0,690.0 1033.0,710.0" stroke="#000" stroke-width="1" /><polyline fill="none" opacity="100" points="1029.0,690.0 1029.0,710.0" stroke="#000" stroke-width="1" /><polyline fill="none" opacity="100" points="1025.0,690.0 1025.0,710.0" stroke="#000" stroke-width="1" /><polyline fill="none" opacity="100" points="1021.0,690.0 1021.0,710.0" stroke="#000" stroke-width="1" /><polyline fill="none" opacity="100" points="1017.0,690.0 1017.0,710.0" stroke="#000" stroke-width="1" /><polyline fill="none" opacity="100" points="1013.0,690.0 1013.0,710.0" stroke="#000" stroke-width="1" /><polyline fill="none" opacity="100" points="925.0,688.0 925.0,710.0" stroke="#000" stroke-width="1" /><polyline fill="none" opacity="100" points="929.0,688.0 929.0,710.0" stroke="#000" stroke-width="1" /><polyline fill="none" opacity="100" points="933.0,688.0 933.0,710.0" stroke="#000" stroke-width="1" /><polyline fill="none" opacity="100" points="937.0,688.0 937.0,710.0" stroke="#000" stroke-width="1" /><polyline fill="none" opacity="100" points="941.0,688.0 941.0,710.0" stroke="#000" stroke-width="1" /><polyline fill="none" opacity="100" points="945.0,688.0 945.0,710.0" stroke="#000" stroke-width="1" /><polyline fill="none" opacity="100" points="949.0,688.0 949.0,710.0" stroke="#000" stroke-width="1" /><polyline fill="none" opacity="100" points="953.0,688.0 953.0,710.0" stroke="#000" stroke-width="1" /><polyline fill="none" opacity="100" points="957.0,688.0 957.0,710.0" stroke="#000" stroke-width="1" /><polyline fill="none" opacity="100" points="961.0,688.0 961.0,710.0" stroke="#000" stroke-width="1" /><polyline fill="none" opacity="100" points="1049.0,528.0 1049.0,546.0" stroke="#000" stroke-width="1" /><polyline fill="none" opacity="100" points="1045.0,528.0 1045.0,546.0" stroke="#000" stroke-width="1" /><polyline fill="none" opacity="100" points="1041.0,528.0 1041.0,546.0" stroke="#000" stroke-width="1" /><polyline fill="none" opacity="100" points="1037.0,528.0 1037.0,546.0" stroke="#000" stroke-width="1" /><polyline fill="none" opacity="100" points="1033.0,528.0 1033.0,546.0" stroke="#000" stroke-width="1" /><polyline fill="none" opacity="100" points="1029.0,528.0 1029.0,546.0" stroke="#000" stroke-width="1" /><polyline fill="none" opacity="100" points="1025.0,528.0 1025.0,546.0" stroke="#000" stroke-width="1" /><polyline fill="none" opacity="100" points="1021.0,528.0 1021.0,546.0" stroke="#000" stroke-width="1" /><polyline fill="none" opacity="100" points="1017.0,528.0 1017.0,546.0" stroke="#000" stroke-width="1" /><polyline fill="none" opacity="100" points="1013.0,528.0 1013.0,546.0" stroke="#000" stroke-width="1" /><polyline fill="none" opacity="100" points="1049.0,472.0 1049.0,490.0" stroke="#000" stroke-width="1" /><polyline fill="none" opacity="100" points="1045.0,472.0 1045.0,490.0" stroke="#000" stroke-width="1" /><polyline fill="none" opacity="100" points="1041.0,472.0 1041.0,490.0" stroke="#000" stroke-width="1" /><polyline fill="none" opacity="100" points="1037.0,472.0 1037.0,490.0" stroke="#000" stroke-width="1" /><polyline fill="none" opacity="100" points="1033.0,472.0 1033.0,490.0" stroke="#000" stroke-width="1" /><polyline fill="none" opacity="100" points="1029.0,472.0 1029.0,490.0" stroke="#000" stroke-width="1" /><polyline fill="none" opacity="100" points="1025.0,472.0 1025.0,490.0" stroke="#000" stroke-width="1" /><polyline fill="none" opacity="100" points="1021.0,472.0 1021.0,490.0" stroke="#000" stroke-width="1" /><polyline fill="none" opacity="100" points="1017.0,472.0 1017.0,490.0" stroke="#000" stroke-width="1" /><polyline fill="none" opacity="100" points="1013.0,472.0 1013.0,490.0" stroke="#000" stroke-width="1" /><polyline fill="none" opacity="100" points="1049.0,244.0 1049.0,266.0" stroke="#000" stroke-width="1" /><polyline fill="none" opacity="100" points="1045.0,244.0 1045.0,266.0" stroke="#000" stroke-width="1" /><polyline fill="none" opacity="100" points="1041.0,244.0 1041.0,266.0" stroke="#000" stroke-width="1" /><polyline fill="none" opacity="100" points="1037.0,244.0 1037.0,266.0" stroke="#000" stroke-width="1" /><polyline fill="none" opacity="100" points="1033.0,244.0 1033.0,266.0" stroke="#000" stroke-width="1" /><polyline fill="none" opacity="100" points="1029.0,244.0 1029.0,266.0" stroke="#000" stroke-width="1" /><polyline fill="none" opacity="100" points="1025.0,244.0 1025.0,266.0" stroke="#000" stroke-width="1" /><polyline fill="none" opacity="100" points="1021.0,244.0 1021.0,266.0" stroke="#000" stroke-width="1" /><polyline fill="none" opacity="100" points="1017.0,244.0 1017.0,266.0" stroke="#000" stroke-width="1" /><polyline fill="none" opacity="100" points="1013.0,244.0 1013.0,266.0" stroke="#000" stroke-width="1" /><polyline fill="none" opacity="100" points="924.0,244.0 924.0,266.0" stroke="#000" stroke-width="1" /><polyline fill="none" opacity="100" points="928.0,244.0 928.0,266.0" stroke="#000" stroke-width="1" /><polyline fill="none" opacity="100" points="932.0,244.0 932.0,266.0" stroke="#000" stroke-width="1" /><polyline fill="none" opacity="100" points="936.0,244.0 936.0,266.0" stroke="#000" stroke-width="1" /><polyline fill="none" opacity="100" points="940.0,244.0 940.0,266.0" stroke="#000" stroke-width="1" /><polyline fill="none" opacity="100" points="944.0,244.0 944.0,266.0" stroke="#000" stroke-width="1" /><polyline fill="none" opacity="100" points="948.0,244.0 948.0,266.0" stroke="#000" stroke-width="1" /><polyline fill="none" opacity="100" points="952.0,244.0 952.0,266.0" stroke="#000" stroke-width="1" /><polyline fill="none" opacity="100" points="956.0,244.0 956.0,266.0" stroke="#000" stroke-width="1" /><polyline fill="none" opacity="100" points="960.0,244.0 960.0,266.0" stroke="#000" stroke-width="1" /><polyline fill="none" opacity="100" points="1009.0,283.0 964.0,283.0" stroke="#000" stroke-width="1" /><polyline fill="none" opacity="100" points="1009.0,287.0 964.0,287.0" stroke="#000" stroke-width="1" /><polyline fill="none" opacity="100" points="1009.0,291.0 964.0,291.0" stroke="#000" stroke-width="1" /><polyline fill="none" opacity="100" points="849.0,357.0 849.0,411.0" stroke="#000" stroke-width="1" /><polyline fill="none" opacity="100" points="845.0,357.0 845.0,411.0" stroke="#000" stroke-width="1" /><polyline fill="none" opacity="100" points="841.0,357.0 841.0,411.0" stroke="#000" stroke-width="1" /><polyline fill="none" opacity="100" points="837.0,357.0 837.0,411.0" stroke="#000" stroke-width="1" /><polyline fill="none" opacity="100" points="833.0,357.0 833.0,411.0" stroke="#000" stroke-width="1" /><polyline fill="none" opacity="100" points="829.0,357.0 829.0,411.0" stroke="#000" stroke-width="1" /><polyline fill="none" opacity="100" points="825.0,357.0 825.0,411.0" stroke="#000" stroke-width="1" /><polyline fill="none" opacity="100" points="821.0,357.0 821.0,411.0" stroke="#000" stroke-width="1" /><polyline fill="none" opacity="100" points="817.0,357.0 817.0,411.0" stroke="#000" stroke-width="1" /><polyline fill="none" opacity="100" points="813.0,357.0 813.0,411.0" stroke="#000" stroke-width="1" /><polyline fill="none" opacity="100" points="809.0,357.0 809.0,411.0" stroke="#000" stroke-width="1" /><polyline fill="none" opacity="100" points="805.0,357.0 805.0,411.0" stroke="#000" stroke-width="1" /><polygon fill="#D0D0D0" opacity="100" points="955.0,346.0 955.0,421.0 965.0,421.0 965.0,346.0" stroke="#000" stroke-width="1" /><polygon fill="#FFF" opacity="100" points="955.0,400.0 963.0,400.0 963.0,369.0 955.0,369.0" stroke="#000" stroke-width="1" /><text fill="#FFF" font-family="Arial" font-size="10" font-weight="normal" opacity="100" transform="rotate(90.0 966.0,372.0) translate(0 10)" x="966.0" y="372.0">кассы</text><polyline fill="none" opacity="100" points="955.0,421.0 940.0,421.0 926.0,407.0" stroke="#000" stroke-width="0.5" /><polygon fill="none" opacity="100" points="870.0,348.0 866.0,352.0 862.0,348.0 866.0,344.0" stroke="#000" stroke-width="1" /><polyline fill="none" opacity="100" points="864.0,346.0 851.0,346.0" stroke="#000" stroke-width="0.5" /><polyline fill="none" opacity="100" points="927.0,405.0 924.0,408.0" stroke="#090" stroke-width="1" /><polyline fill="none" opacity="100" points="924.1462,402.1972 921.1462,405.1972" stroke="#090" stroke-width="1" /><polyline fill="none" opacity="100" points="921.2924,399.3943 918.2924,402.3943" stroke="#090" stroke-width="1" /><polyline fill="none" opacity="100" points="918.4386,396.5915 915.4386,399.5915" stroke="#090" stroke-width="1" /><polyline fill="none" opacity="100" points="915.5848,393.7887 912.5848,396.7887" stroke="#090" stroke-width="1" /><polyline fill="none" opacity="100" points="912.731,390.9858 909.731,393.9858" stroke="#090" stroke-width="1" /><polyline fill="none" opacity="100" points="909.8772,388.183 906.8772,391.183" stroke="#090" stroke-width="1" /><polyline fill="none" opacity="100" points="907.0235,385.3802 904.0235,388.3802" stroke="#090" stroke-width="1" /><polyline fill="none" opacity="100" points="904.1697,382.5773 901.1697,385.5773" stroke="#090" stroke-width="1" /><polyline fill="none" opacity="100" points="901.3159,379.7745 898.3159,382.7745" stroke="#090" stroke-width="1" /><polyline fill="none" opacity="100" points="898.4621,376.9717 895.4621,379.9717" stroke="#090" stroke-width="1" /><polyline fill="none" opacity="100" points="895.6083,374.1688 892.6083,377.1688" stroke="#090" stroke-width="1" /><polyline fill="none" opacity="100" points="892.7545,371.366 889.7545,374.366" stroke="#090" stroke-width="1" /><polyline fill="none" opacity="100" points="889.9007,368.5632 886.9007,371.5632" stroke="#090" stroke-width="1" /><polyline fill="none" opacity="100" points="887.0469,365.7604 884.0469,368.7604" stroke="#090" stroke-width="1" /><polyline fill="none" opacity="100" points="884.1931,362.9575 881.1931,365.9575" stroke="#090" stroke-width="1" /><polyline fill="none" opacity="100" points="881.3393,360.1547 878.3393,363.1547" stroke="#090" stroke-width="1" /><polyline fill="none" opacity="100" points="878.4855,357.3519 875.4855,360.3519" stroke="#090" stroke-width="1" /><polyline fill="none" opacity="100" points="875.6317,354.549 872.6317,357.549" stroke="#090" stroke-width="1" /><polyline fill="none" opacity="100" points="872.7779,351.7462 869.7779,354.7462" stroke="#090" stroke-width="1" /><polyline fill="none" opacity="100" points="953.0,435.0 967.0,435.0" stroke="#F00" stroke-width="1" /><polygon fill="#F00" opacity="100" points="962.9431,436.087 967.0,435.0 962.9431,433.913" stroke="#F00" stroke-width="1" /><polyline fill="none" opacity="100" points="932.0,342.0 923.0,351.0" stroke="#090" stroke-width="1" /><polygon fill="#090" opacity="100" points="924.9092,347.6932 923.0,351.0 926.3068,349.0908" stroke="#090" stroke-width="1" /><polygon fill="#34349C" opacity="100" points="906.0,421.0 902.0,421.0 902.0,422.0 906.0,422.0" stroke="#34349C" stroke-width="1" /><polygon fill="#F00" opacity="100" points="910.0,421.0 906.0,421.0 906.0,422.0 910.0,422.0" stroke="#F00" stroke-width="1" /><text fill="#00AFAF" font-family="Arial" font-size="15" font-weight="normal" opacity="100" transform="rotate(-0.0 1042.0,502.0) translate(0 15)" x="1042.0" y="502.0">к трамваям</text><text fill="#00AFAF" font-family="Arial" font-size="15" font-weight="normal" opacity="100" transform="rotate(-0.0 1119.0,367.0) translate(0 15)" x="1119.0" y="367.0">Большая</text><text fill="#00AFAF" font-family="Arial" font-size="15" font-weight="normal" opacity="100" transform="rotate(-0.0 1119.0,383.0) translate(0 15)" x="1119.0" y="383.0">Черкизовская</text><text fill="#00AFAF" font-family="Arial" font-size="15" font-weight="normal" opacity="100" transform="rotate(-0.0 1119.0,397.0) translate(0 15)" x="1119.0" y="397.0">улица</text><text fill="#00AFAF" font-family="Arial" font-size="15" font-weight="normal" opacity="100" transform="rotate(90.0 1230.0,169.0) translate(0 15)" x="1230.0" y="169.0">Малая Черкизовская улица</text><text fill="#00AFAF" font-family="Arial" font-size="15" font-weight="normal" opacity="100" transform="rotate(-0.0 533.0,561.0) translate(0 15)" x="533.0" y="561.0">Преображенская площадь</text><text fill="#00AFAF" font-family="Arial" font-size="15" font-weight="normal" opacity="100" transform="rotate(-75.0 393.0,222.0) translate(0 15)" x="393.0" y="222.0">улица Краснобогатырская</text><text fill="#00AFAF" font-family="Arial" font-size="15" font-weight="normal" opacity="100" transform="rotate(-75.0 264.0,791.0) translate(0 15)" x="264.0" y="791.0">улица Преображенский Вал</text><text fill="#00AFAF" font-family="Arial" font-size="15" font-weight="normal" opacity="100" transform="rotate(-75.0 80.0,856.0) translate(0 15)" x="80.0" y="856.0">&lt;&lt; к/т им.Моссовета</text><text fill="#00AFAF" font-family="Arial" font-size="15" font-weight="normal" opacity="100" transform="rotate(15.0 522.0,755.0) translate(0 15)" x="522.0" y="755.0">памятник</text><text fill="#00AFAF" font-family="Arial" font-size="15" font-weight="normal" opacity="100" transform="rotate(15.0 518.0,769.0) translate(0 15)" x="518.0" y="769.0">С.Л. Бухвостову</text><polygon fill="#FEEDB9" opacity="100" points="532.0,755.0 566.0,764.0 567.0,760.0 563.0,759.0 566.0,733.0 547.0,728.0 537.0,752.0 533.0,751.0" stroke="#000" stroke-width="1" /><g transform="rotate(15.0,600.0,500.0)"><text fill="#FFD900" font-family="Arial" font-size="25" font-weight="normal" opacity="100" x="839.25" y="149.5">1</text><text fill="#FFD900" font-family="Arial" font-size="25" font-weight="normal" opacity="100" x="935.25" y="124.5">2</text><text fill="#FFD900" font-family="Arial" font-size="25" font-weight="normal" opacity="100" x="1003.25" y="346.5">3</text><text fill="#FFD900" font-family="Arial" font-size="25" font-weight="normal" opacity="100" x="1048.25" y="456.5">4</text><text fill="#FFD900" font-family="Arial" font-size="25" font-weight="normal" opacity="100" x="1050.25" y="560.5">5</text><text fill="#FFD900" font-family="Arial" font-size="25" font-weight="normal" opacity="100" x="951.25" y="582.5">6</text><text fill="#FFD900" font-family="Arial" font-size="25" font-weight="normal" opacity="100" x="138.25" y="339.5">7</text><text fill="#FFD900" font-family="Arial" font-size="25" font-weight="normal" opacity="100" x="49.25" y="364.5">8</text><text fill="#FFD900" font-family="Arial" font-size="25" font-weight="normal" opacity="100" x="113.25" y="588.5">9</text><text fill="#FFD900" font-family="Arial" font-size="25" font-weight="normal" opacity="100" x="163.25" y="801.5">10</text><text fill="#FFD900" font-family="Arial" font-size="25" font-weight="normal" opacity="100" x="245.25" y="871.5">11</text><text fill="#FFD900" font-family="Arial" font-size="25" font-weight="normal" opacity="100" x="449.25" y="860.5">12</text><text fill="#FFD900" font-family="Arial" font-size="25" font-weight="normal" opacity="100" x="451.25" y="768.5">13</text></g></g></g></svg>