<?xml version="1.0" encoding="utf-8" ?>
<svg baseProfile="tiny" height="1030px" version="1.2" width="1230px" xmlns="http://www.w3.org/2000/svg" xmlns:ev="http://www.w3.org/2001/xml-events" xmlns:xlink="http://www.w3.org/1999/xlink"><defs /><g><g transform="rotate(5.0,615.0,515.0)"><polygon fill="#AC1CAC" opacity="100" points="278.0,631.0 278.0,601.0 728.0,601.0 728.0,631.0" stroke="#000" stroke-width="1" /><polygon fill="#AC1CAC" opacity="100" points="278.0,741.0 278.0,711.0 728.0,711.0 728.0,741.0" stroke="#000" stroke-width="1" /><text fill="#AC24AC" font-family="Arial" font-size="20" font-weight="normal" opacity="100" transform="rotate(-0.0 285.0,575.0) translate(0 20)" x="285.0" y="575.0">&lt;&lt; Таганская</text><text fill="#AC24AC" font-family="Arial" font-size="20" font-weight="normal" opacity="100" transform="rotate(-0.0 490.0,741.0) translate(0 20)" x="490.0" y="741.0">Волгоградский проспект &gt;&gt;</text><text fill="#AC24AC" font-family="Arial" font-size="25" font-weight="bold" opacity="100" transform="rotate(-0.0 420.0,674.0) translate(0 25)" x="420.0" y="674.0">Пролетарская</text><polygon fill="#34349C" opacity="100" points="432.0,667.0 432.0,663.0 433.0,663.0 433.0,667.0" stroke="#34349C" stroke-width="1" /><polygon fill="#F00" opacity="100" points="432.0,671.0 432.0,667.0 433.0,667.0 433.0,671.0" stroke="#F00" stroke-width="1" /><polyline fill="none" opacity="100" points="1006.0,549.0 975.0,518.0 1043.0,450.0 1073.0,480.0" stroke="#000" stroke-width="1" /><polyline fill="none" opacity="100" points="1087.0,466.0 1005.0,384.0" stroke="#000" stroke-width="1" /><polyline fill="none" opacity="100" points="728.0,711.0 728.0,696.0 793.0,696.0 793.0,735.0 943.0,735.0 943.0,552.0 962.0,533.0 992.0,563.0" stroke="#000" stroke-width="1" /><polyline fill="none" opacity="100" points="991.0,398.0 1021.0,428.0 898.0,551.0 898.0,607.0 793.0,607.0 793.0,645.0 728.0,645.0 728.0,631.0" stroke="#000" stroke-width="1" /><polyline fill="none" opacity="100" points="991.0,562.0 1005.0,548.0" stroke="#000" stroke-width="1" /><polyline fill="none" opacity="100" points="988.1716,559.1716 1002.1716,545.1716" stroke="#000" stroke-width="1" /><polyline fill="none" opacity="100" points="985.3431,556.3431 999.3431,542.3431" stroke="#000" stroke-width="1" /><polyline fill="none" opacity="100" points="982.5147,553.5147 996.5147,539.5147" stroke="#000" stroke-width="1" /><polyline fill="none" opacity="100" points="979.6863,550.6863 993.6863,536.6863" stroke="#000" stroke-width="1" /><polyline fill="none" opacity="100" points="976.8579,547.8579 990.8579,533.8579" stroke="#000" stroke-width="1" /><polyline fill="none" opacity="100" points="974.0294,545.0294 988.0294,531.0294" stroke="#000" stroke-width="1" /><polyline fill="none" opacity="100" points="971.201,542.201 985.201,528.201" stroke="#000" stroke-width="1" /><polyline fill="none" opacity="100" points="968.3726,539.3726 982.3726,525.3726" stroke="#000" stroke-width="1" /><polyline fill="none" opacity="100" points="965.5442,536.5442 979.5442,522.5442" stroke="#000" stroke-width="1" /><polyline fill="none" opacity="100" points="1072.0,479.0 1086.0,465.0" stroke="#000" stroke-width="1" /><polyline fill="none" opacity="100" points="1069.1716,476.1716 1083.1716,462.1716" stroke="#000" stroke-width="1" /><polyline fill="none" opacity="100" points="1066.3431,473.3431 1080.3431,459.3431" stroke="#000" stroke-width="1" /><polyline fill="none" opacity="100" points="1063.5147,470.5147 1077.5147,456.5147" stroke="#000" stroke-width="1" /><polyline fill="none" opacity="100" points="1060.6863,467.6863 1074.6863,453.6863" stroke="#000" stroke-width="1" /><polyline fill="none" opacity="100" points="1057.8579,464.8579 1071.8579,450.8579" stroke="#000" stroke-width="1" /><polyline fill="none" opacity="100" points="1055.0294,462.0294 1069.0294,448.0294" stroke="#000" stroke-width="1" /><polyline fill="none" opacity="100" points="1052.201,459.201 1066.201,445.201" stroke="#000" stroke-width="1" /><polyline fill="none" opacity="100" points="1049.3726,456.3726 1063.3726,442.3726" stroke="#000" stroke-width="1" /><polyline fill="none" opacity="100" points="1046.5442,453.5442 1060.5442,439.5442" stroke="#000" stroke-width="1" /><polyline fill="none" opacity="100" points="992.0,399.0 1006.0,385.0" stroke="#000" stroke-width="1" /><polyline fill="none" opacity="100" points="994.8284,401.8284 1008.8284,387.8284" stroke="#000" stroke-width="1" /><polyline fill="none" opacity="100" points="997.6569,404.6569 1011.6569,390.6569" stroke="#000" stroke-width="1" /><polyline fill="none" opacity="100" points="1000.4853,407.4853 1014.4853,393.4853" stroke="#000" stroke-width="1" /><polyline fill="none" opacity="100" points="1003.3137,410.3137 1017.3137,396.3137" stroke="#000" stroke-width="1" /><polyline fill="none" opacity="100" points="1006.1421,413.1421 1020.1421,399.1421" stroke="#000" stroke-width="1" /><polyline fill="none" opacity="100" points="1008.9706,415.9706 1022.9706,401.9706" stroke="#000" stroke-width="1" /><polyline fill="none" opacity="100" points="1011.799,418.799 1025.799,404.799" stroke="#000" stroke-width="1" /><polyline fill="none" opacity="100" points="1014.6274,421.6274 1028.6274,407.6274" stroke="#000" stroke-width="1" /><polyline fill="none" opacity="100" points="1017.4558,424.4558 1031.4558,410.4558" stroke="#000" stroke-width="1" /><polyline fill="none" opacity="100" points="898.0,585.0 943.0,585.0" stroke="#000" stroke-width="1" /><polyline fill="none" opacity="100" points="898.0,589.0 943.0,589.0" stroke="#000" stroke-width="1" /><polyline fill="none" opacity="100" points="898.0,593.0 943.0,593.0" stroke="#000" stroke-width="1" /><polyline fill="none" opacity="100" points="898.0,597.0 943.0,597.0" stroke="#000" stroke-width="1" /><polyline fill="none" opacity="100" points="898.0,601.0 943.0,601.0" stroke="#000" stroke-width="1" /><polyline fill="none" opacity="100" points="786.0,696.0 786.0,645.0" stroke="#000" stroke-width="1" /><polyline fill="none" opacity="100" points="782.0,696.0 782.0,645.0" stroke="#000" stroke-width="1" /><polyline fill="none" opacity="100" points="778.0,696.0 778.0,645.0" stroke="#000" stroke-width="1" /><polyline fill="none" opacity="100" points="774.0,696.0 774.0,645.0" stroke="#000" stroke-width="1" /><polyline fill="none" opacity="100" points="770.0,696.0 770.0,645.0" stroke="#000" stroke-width="1" /><polyline fill="none" opacity="100" points="766.0,696.0 766.0,645.0" stroke="#000" stroke-width="1" /><polyline fill="none" opacity="100" points="762.0,696.0 762.0,645.0" stroke="#000" stroke-width="1" /><polyline fill="none" opacity="100" points="758.0,696.0 758.0,645.0" stroke="#000" stroke-width="1" /><polyline fill="none" opacity="100" points="754.0,696.0 754.0,645.0" stroke="#000" stroke-width="1" /><polyline fill="none" opacity="100" points="750.0,696.0 750.0,645.0" stroke="#000" stroke-width="1" /><polyline fill="none" opacity="100" points="746.0,696.0 746.0,645.0" stroke="#000" stroke-width="1" /><polyline fill="none" opacity="100" points="742.0,696.0 742.0,645.0" stroke="#000" stroke-width="1" /><polyline fill="none" opacity="100" points="738.0,696.0 738.0,645.0" stroke="#000" stroke-width="1" /><polyline fill="none" opacity="100" points="734.0,696.0 734.0,645.0" stroke="#000" stroke-width="1" /><polygon fill="#D0D0D0" opacity="100" points="887.0,634.0 899.0,634.0 899.0,708.0 887.0,708.0" stroke="#000" stroke-width="1" /><polyline fill="none" opacity="100" points="802.0,607.0 802.0,636.0 793.0,636.0" stroke="#000" stroke-width="1" /><text fill="#FFF" font-family="Arial" font-size="10" font-weight="normal" opacity="100" transform="rotate(-90.0 791.0,633.0) translate(0 10)" x="791.0" y="633.0">кассы</text><polyline fill="none" opacity="100" points="802.0,636.0 813.0,636.0" stroke="#000" stroke-width="1" /><polygon fill="none" opacity="100" points="844.0,702.0 850.0,702.0 850.0,708.0 844.0,708.0" stroke="#000" stroke-width="1" /><polyline fill="none" opacity="100" points="850.0,708.0 887.0,708.0" stroke="#000" stroke-width="1" /><polyline fill="none" opacity="100" points="811.0,637.0 815.0,635.0" stroke="#090" stroke-width="1" /><polyline fill="none" opacity="100" points="812.6977,640.6218 816.6977,638.6218" stroke="#090" stroke-width="1" /><polyline fill="none" opacity="100" points="814.3955,644.2437 818.3955,642.2437" stroke="#090" stroke-width="1" /><polyline fill="none" opacity="100" points="816.0932,647.8655 820.0932,645.8655" stroke="#090" stroke-width="1" /><polyline fill="none" opacity="100" points="817.7909,651.4873 821.7909,649.4873" stroke="#090" stroke-width="1" /><polyline fill="none" opacity="100" points="819.4887,655.1092 823.4887,653.1092" stroke="#090" stroke-width="1" /><polyline fill="none" opacity="100" points="821.1864,658.731 825.1864,656.731" stroke="#090" stroke-width="1" /><polyline fill="none" opacity="100" points="822.8841,662.3529 826.8841,660.3529" stroke="#090" stroke-width="1" /><polyline fill="none" opacity="100" points="824.5819,665.9747 828.5819,663.9747" stroke="#090" stroke-width="1" /><polyline fill="none" opacity="100" points="826.2796,669.5965 830.2796,667.5965" stroke="#090" stroke-width="1" /><polyline fill="none" opacity="100" points="827.9774,673.2184 831.9774,671.2184" stroke="#090" stroke-width="1" /><polyline fill="none" opacity="100" points="829.6751,676.8402 833.6751,674.8402" stroke="#090" stroke-width="1" /><polyline fill="none" opacity="100" points="831.3728,680.462 835.3728,678.462" stroke="#090" stroke-width="1" /><polyline fill="none" opacity="100" points="833.0706,684.0839 837.0706,682.0839" stroke="#090" stroke-width="1" /><polyline fill="none" opacity="100" points="834.7683,687.7057 838.7683,685.7057" stroke="#090" stroke-width="1" /><polyline fill="none" opacity="100" points="836.466,691.3275 840.466,689.3275" stroke="#090" stroke-width="1" /><polyline fill="none" opacity="100" points="838.1638,694.9494 842.1638,692.9494" stroke="#090" stroke-width="1" /><polyline fill="none" opacity="100" points="839.8615,698.5712 843.8615,696.5712" stroke="#090" stroke-width="1" /><polygon fill="#34349C" opacity="100" points="803.0,647.0 807.0,647.0 807.0,648.0 803.0,648.0" stroke="#34349C" stroke-width="1" /><polygon fill="#F00" opacity="100" points="799.0,647.0 803.0,647.0 803.0,648.0 799.0,648.0" stroke="#F00" stroke-width="1" /><polyline fill="none" opacity="100" points="278.0,631.0 278.0,645.0 224.0,645.0 224.0,607.0 74.0,607.0 74.0,781.0 83.0,804.0 42.0,819.0" stroke="#000" stroke-width="1" /><polyline fill="none" opacity="100" points="278.0,711.0 278.0,696.0 224.0,696.0 224.0,735.0 117.0,735.0 117.0,770.0 124.0,789.0 169.0,773.0" stroke="#000" stroke-width="1" /><polyline fill="none" opacity="100" points="238.0,922.0 113.0,967.0" stroke="#000" stroke-width="1" /><polyline fill="none" opacity="100" points="175.0,790.0 131.0,806.0 134.0,815.0 184.0,903.0 190.0,920.0 232.0,905.0" stroke="#000" stroke-width="1" /><polyline fill="none" opacity="100" points="48.0,836.0 89.0,821.0 93.0,833.0 100.0,845.0 78.0,851.0" stroke="#000" stroke-width="1" /><polyline fill="none" opacity="100" points="81.0,863.0 107.0,856.0 119.0,876.0 87.0,884.0" stroke="#000" stroke-width="1" /><polyline fill="none" opacity="100" points="91.0,898.0 126.0,889.0 145.0,922.0 150.0,935.0 107.0,950.0" stroke="#000" stroke-width="1" /><polyline fill="none" opacity="100" points="230.0,696.0 230.0,645.0" stroke="#000" stroke-width="1" /><polyline fill="none" opacity="100" points="234.0,696.0 234.0,645.0" stroke="#000" stroke-width="1" /><polyline fill="none" opacity="100" points="238.0,696.0 238.0,645.0" stroke="#000" stroke-width="1" /><polyline fill="none" opacity="100" points="242.0,696.0 242.0,645.0" stroke="#000" stroke-width="1" /><polyline fill="none" opacity="100" points="246.0,696.0 246.0,645.0" stroke="#000" stroke-width="1" /><polyline fill="none" opacity="100" points="250.0,696.0 250.0,645.0" stroke="#000" stroke-width="1" /><polyline fill="none" opacity="100" points="254.0,696.0 254.0,645.0" stroke="#000" stroke-width="1" /><polyline fill="none" opacity="100" points="258.0,696.0 258.0,645.0" stroke="#000" stroke-width="1" /><polyline fill="none" opacity="100" points="262.0,696.0 262.0,645.0" stroke="#000" stroke-width="1" /><polyline fill="none" opacity="100" points="266.0,696.0 266.0,645.0" stroke="#000" stroke-width="1" /><polyline fill="none" opacity="100" points="270.0,696.0 270.0,645.0" stroke="#000" stroke-width="1" /><polyline fill="none" opacity="100" points="274.0,696.0 274.0,645.0" stroke="#000" stroke-width="1" /><polyline fill="none" opacity="100" points="94.0,847.0 97.0,859.0" stroke="#000" stroke-width="1" /><polyline fill="none" opacity="100" points="90.1194,847.9701 93.1194,859.9701" stroke="#000" stroke-width="1" /><polyline fill="none" opacity="100" points="86.2389,848.9403 89.2389,860.9403" stroke="#000" stroke-width="1" /><polyline fill="none" opacity="100" points="82.3583,849.9104 85.3583,861.9104" stroke="#000" stroke-width="1" /><polyline fill="none" opacity="100" points="166.0,774.0 172.0,791.0" stroke="#000" stroke-width="1" /><polyline fill="none" opacity="100" points="162.2378,775.3586 168.2378,792.3586" stroke="#000" stroke-width="1" /><polyline fill="none" opacity="100" points="158.4756,776.7172 164.4756,793.7172" stroke="#000" stroke-width="1" /><polyline fill="none" opacity="100" points="154.7134,778.0757 160.7134,795.0757" stroke="#000" stroke-width="1" /><polyline fill="none" opacity="100" points="150.9511,779.4343 156.9511,796.4343" stroke="#000" stroke-width="1" /><polyline fill="none" opacity="100" points="147.1889,780.7929 153.1889,797.7929" stroke="#000" stroke-width="1" /><polyline fill="none" opacity="100" points="143.4267,782.1515 149.4267,799.1515" stroke="#000" stroke-width="1" /><polyline fill="none" opacity="100" points="139.6645,783.51 145.6645,800.51" stroke="#000" stroke-width="1" /><polyline fill="none" opacity="100" points="135.9023,784.8686 141.9023,801.8686" stroke="#000" stroke-width="1" /><polyline fill="none" opacity="100" points="132.1401,786.2272 138.1401,803.2272" stroke="#000" stroke-width="1" /><polyline fill="none" opacity="100" points="103.0,880.0 107.0,894.0" stroke="#000" stroke-width="1" /><polyline fill="none" opacity="100" points="99.1194,880.9701 103.1194,894.9701" stroke="#000" stroke-width="1" /><polyline fill="none" opacity="100" points="95.2389,881.9403 99.2389,895.9403" stroke="#000" stroke-width="1" /><polyline fill="none" opacity="100" points="91.3583,882.9104 95.3583,896.9104" stroke="#000" stroke-width="1" /><polyline fill="none" opacity="100" points="229.0,906.0 235.0,923.0" stroke="#000" stroke-width="1" /><polyline fill="none" opacity="100" points="225.2378,907.3586 231.2378,924.3586" stroke="#000" stroke-width="1" /><polyline fill="none" opacity="100" points="221.4756,908.7172 227.4756,925.7172" stroke="#000" stroke-width="1" /><polyline fill="none" opacity="100" points="217.7134,910.0757 223.7134,927.0757" stroke="#000" stroke-width="1" /><polyline fill="none" opacity="100" points="213.9511,911.4343 219.9511,928.4343" stroke="#000" stroke-width="1" /><polyline fill="none" opacity="100" points="210.1889,912.7929 216.1889,929.7929" stroke="#000" stroke-width="1" /><polyline fill="none" opacity="100" points="206.4267,914.1515 212.4267,931.1515" stroke="#000" stroke-width="1" /><polyline fill="none" opacity="100" points="202.6645,915.51 208.6645,932.51" stroke="#000" stroke-width="1" /><polyline fill="none" opacity="100" points="198.9023,916.8686 204.9023,933.8686" stroke="#000" stroke-width="1" /><polyline fill="none" opacity="100" points="195.1401,918.2272 201.1401,935.2272" stroke="#000" stroke-width="1" /><polyline fill="none" opacity="100" points="80.0,805.0 86.0,822.0" stroke="#000" stroke-width="1" /><polyline fill="none" opacity="100" points="76.2503,806.3927 82.2503,823.3927" stroke="#000" stroke-width="1" /><polyline fill="none" opacity="100" points="72.5006,807.7855 78.5006,824.7855" stroke="#000" stroke-width="1" /><polyline fill="none" opacity="100" points="68.7509,809.1782 74.7509,826.1782" stroke="#000" stroke-width="1" /><polyline fill="none" opacity="100" points="65.0012,810.571 71.0012,827.571" stroke="#000" stroke-width="1" /><polyline fill="none" opacity="100" points="61.2515,811.9637 67.2515,828.9637" stroke="#000" stroke-width="1" /><polyline fill="none" opacity="100" points="57.5018,813.3565 63.5018,830.3565" stroke="#000" stroke-width="1" /><polyline fill="none" opacity="100" points="53.7521,814.7492 59.7521,831.7492" stroke="#000" stroke-width="1" /><polyline fill="none" opacity="100" points="50.0024,816.142 56.0024,833.142" stroke="#000" stroke-width="1" /><polyline fill="none" opacity="100" points="46.2527,817.5347 52.2527,834.5347" stroke="#000" stroke-width="1" /><polyline fill="none" opacity="100" points="151.0,953.0 145.0,937.0" stroke="#000" stroke-width="1" /><polyline fill="none" opacity="100" points="147.2378,954.3586 141.2378,938.3586" stroke="#000" stroke-width="1" /><polyline fill="none" opacity="100" points="143.4756,955.7172 137.4756,939.7172" stroke="#000" stroke-width="1" /><polyline fill="none" opacity="100" points="139.7134,957.0757 133.7134,941.0757" stroke="#000" stroke-width="1" /><polyline fill="none" opacity="100" points="135.9511,958.4343 129.9511,942.4343" stroke="#000" stroke-width="1" /><polyline fill="none" opacity="100" points="132.1889,959.7929 126.1889,943.7929" stroke="#000" stroke-width="1" /><polyline fill="none" opacity="100" points="128.4267,961.1515 122.4267,945.1515" stroke="#000" stroke-width="1" /><polyline fill="none" opacity="100" points="124.6645,962.51 118.6645,946.51" stroke="#000" stroke-width="1" /><polyline fill="none" opacity="100" points="120.9023,963.8686 114.9023,947.8686" stroke="#000" stroke-width="1" /><polyline fill="none" opacity="100" points="117.1401,965.2272 111.1401,949.2272" stroke="#000" stroke-width="1" /><polygon fill="#D0D0D0" opacity="100" points="117.0,633.0 131.0,633.0 131.0,708.0 117.0,708.0" stroke="#000" stroke-width="1" /><polyline fill="none" opacity="100" points="214.0,607.0 214.0,636.0 224.0,636.0" stroke="#000" stroke-width="1" /><text fill="#FFF" font-family="Arial" font-size="10" font-weight="normal" opacity="100" transform="rotate(-90.0 212.0,634.0) translate(0 10)" x="212.0" y="634.0">кассы</text><polyline fill="none" opacity="100" points="214.0,636.0 195.0,636.0" stroke="#000" stroke-width="1" /><polygon fill="none" opacity="100" points="167.0,702.0 161.0,702.0 161.0,708.0 167.0,708.0" stroke="#000" stroke-width="1" /><polyline fill="none" opacity="100" points="161.0,708.0 131.0,708.0" stroke="#000" stroke-width="1" /><polyline fill="none" opacity="100" points="197.0,638.0 193.0,636.0" stroke="#090" stroke-width="1" /><polyline fill="none" opacity="100" points="195.3053,641.6232 191.3053,639.6232" stroke="#090" stroke-width="1" /><polyline fill="none" opacity="100" points="193.6105,645.2465 189.6105,643.2465" stroke="#090" stroke-width="1" /><polyline fill="none" opacity="100" points="191.9158,648.8697 187.9158,646.8697" stroke="#090" stroke-width="1" /><polyline fill="none" opacity="100" points="190.221,652.493 186.221,650.493" stroke="#090" stroke-width="1" /><polyline fill="none" opacity="100" points="188.5263,656.1162 184.5263,654.1162" stroke="#090" stroke-width="1" /><polyline fill="none" opacity="100" points="186.8316,659.7394 182.8316,657.7394" stroke="#090" stroke-width="1" /><polyline fill="none" opacity="100" points="185.1368,663.3627 181.1368,661.3627" stroke="#090" stroke-width="1" /><polyline fill="none" opacity="100" points="183.4421,666.9859 179.4421,664.9859" stroke="#090" stroke-width="1" /><polyline fill="none" opacity="100" points="181.7473,670.6091 177.7473,668.6091" stroke="#090" stroke-width="1" /><polyline fill="none" opacity="100" points="180.0526,674.2324 176.0526,672.2324" stroke="#090" stroke-width="1" /><polyline fill="none" opacity="100" points="178.3579,677.8556 174.3579,675.8556" stroke="#090" stroke-width="1" /><polyline fill="none" opacity="100" points="176.6631,681.4789 172.6631,679.4789" stroke="#090" stroke-width="1" /><polyline fill="none" opacity="100" points="174.9684,685.1021 170.9684,683.1021" stroke="#090" stroke-width="1" /><polyline fill="none" opacity="100" points="173.2736,688.7253 169.2736,686.7253" stroke="#090" stroke-width="1" /><polyline fill="none" opacity="100" points="171.5789,692.3486 167.5789,690.3486" stroke="#090" stroke-width="1" /><polyline fill="none" opacity="100" points="169.8842,695.9718 165.8842,693.9718" stroke="#090" stroke-width="1" /><polyline fill="none" opacity="100" points="168.1894,699.595 164.1894,697.595" stroke="#090" stroke-width="1" /><polygon fill="#34349C" opacity="100" points="210.0,695.0 206.0,695.0 206.0,696.0 210.0,696.0" stroke="#34349C" stroke-width="1" /><polygon fill="#F00" opacity="100" points="214.0,695.0 210.0,695.0 210.0,696.0 214.0,696.0" stroke="#F00" stroke-width="1" /><polygon fill="#7CBC54" opacity="100" points="609.0,325.0 588.0,304.0 906.0,-14.0 927.0,7.0" stroke="#000" stroke-width="1" /><polygon fill="#7CBC54" opacity="100" points="686.0,402.0 665.0,381.0 983.0,63.0 1004.0,84.0" stroke="#000" stroke-width="1" /><text fill="#5C9F2E" font-family="Arial" font-size="25" font-weight="bold" opacity="100" transform="rotate(-45.0 690.0,273.0) translate(0 25)" x="690.0" y="273.0">Крестьянская застава</text><text fill="#5C9F2E" font-family="Arial" font-size="20" font-weight="normal" opacity="100" transform="rotate(-45.0 571.0,285.0) translate(0 20)" x="571.0" y="285.0">&lt;&lt; Дубровка</text><text fill="#5C9F2E" font-family="Arial" font-size="20" font-weight="normal" opacity="100" transform="rotate(-45.0 936.0,152.0) translate(0 20)" x="936.0" y="152.0">Римская &gt;&gt;</text><polygon fill="#34349C" opacity="100" points="853.0,161.0 850.0,164.0 851.0,165.0 854.0,162.0" stroke="#34349C" stroke-width="1" /><polygon fill="#F00" opacity="100" points="856.0,158.0 853.0,161.0 854.0,162.0 857.0,159.0" stroke="#F00" stroke-width="1" /><polyline fill="none" opacity="100" points="927.0,7.0 935.0,15.0 892.0,58.0 900.0,66.0 909.0,57.0 933.0,81.0 924.0,90.0 932.0,98.0 975.0,55.0 983.0,63.0" stroke="#000" stroke-width="1" /><polygon fill="#FFF" opacity="0.8" points="538.0,600.0 572.0,600.0 539.0,632.0 506.0,632.0" stroke="#FFF" stroke-width="1" /><polyline fill="none" opacity="1.0" points="665.0,381.0 661.0,377.0 698.0,340.0 695.0,337.0 684.0,348.0" stroke="#000" stroke-width="1" /><polyline fill="none" opacity="1.0" points="609.0,325.0 613.0,329.0 650.0,292.0 653.0,295.0 642.0,306.0" stroke="#000" stroke-width="1" /><polyline fill="none" opacity="1.0" points="583.0,365.0 552.0,334.0 454.0,432.0 452.0,430.0 450.0,432.0 420.0,402.0" stroke="#000" stroke-width="1" /><polyline fill="none" opacity="1.0" points="405.0,417.0 435.0,447.0 433.0,449.0 435.0,451.0 431.0,455.0 539.0,563.0 600.0,502.0 595.0,497.0 609.0,483.0 632.0,506.0 480.0,658.0 448.0,658.0" stroke="#000" stroke-width="1" /><polyline fill="none" opacity="1.0" points="625.0,407.0 639.0,421.0 639.0,427.0 633.0,433.0 686.0,486.0 514.0,658.0 550.0,658.0" stroke="#000" stroke-width="1" /><polyline fill="none" opacity="1.0" points="448.0,679.0 550.0,679.0" stroke="#000" stroke-width="1" /><polyline fill="none" opacity="1.0" points="453.0,679.0 453.0,658.0" stroke="#000" stroke-width="1" /><polyline fill="none" opacity="1.0" points="457.0,679.0 457.0,658.0" stroke="#000" stroke-width="1" /><polyline fill="none" opacity="1.0" points="461.0,679.0 461.0,658.0" stroke="#000" stroke-width="1" /><polyline fill="none" opacity="1.0" points="465.0,679.0 465.0,658.0" stroke="#000" stroke-width="1" /><polyline fill="none" opacity="1.0" points="469.0,679.0 469.0,658.0" stroke="#000" stroke-width="1" /><polyline fill="none" opacity="1.0" points="473.0,679.0 473.0,658.0" stroke="#000" stroke-width="1" /><polyline fill="none" opacity="1.0" points="525.0,679.0 525.0,658.0" stroke="#000" stroke-width="1" /><polyline fill="none" opacity="1.0" points="529.0,679.0 529.0,658.0" stroke="#000" stroke-width="1" /><polyline fill="none" opacity="1.0" points="533.0,679.0 533.0,658.0" stroke="#000" stroke-width="1" /><polyline fill="none" opacity="1.0" points="537.0,679.0 537.0,658.0" stroke="#000" stroke-width="1" /><polyline fill="none" opacity="1.0" points="541.0,679.0 541.0,658.0" stroke="#000" stroke-width="1" /><polyline fill="none" opacity="1.0" points="545.0,679.0 545.0,658.0" stroke="#000" stroke-width="1" /><polyline fill="none" opacity="1.0" points="561.0,611.0 544.0,594.0" stroke="#000" stroke-width="1" /><polyline fill="none" opacity="1.0" points="563.8284,608.1716 546.8284,591.1716" stroke="#000" stroke-width="1" /><polyline fill="none" opacity="1.0" points="566.6569,605.3431 549.6569,588.3431" stroke="#000" stroke-width="1" /><polyline fill="none" opacity="1.0" points="569.4853,602.5147 552.4853,585.5147" stroke="#000" stroke-width="1" /><polyline fill="none" opacity="1.0" points="572.3137,599.6863 555.3137,582.6863" stroke="#000" stroke-width="1" /><polyline fill="none" opacity="1.0" points="608.0,564.0 591.0,547.0" stroke="#000" stroke-width="1" /><polyline fill="none" opacity="1.0" points="605.1716,566.8284 588.1716,549.8284" stroke="#000" stroke-width="1" /><polyline fill="none" opacity="1.0" points="602.3431,569.6569 585.3431,552.6569" stroke="#000" stroke-width="1" /><polyline fill="none" opacity="1.0" points="573.0,529.0 465.0,421.0" stroke="#000" stroke-width="1" /><polyline fill="none" opacity="1.0" points="570.1716,531.8284 462.1716,423.8284" stroke="#000" stroke-width="1" /><polyline fill="none" opacity="1.0" points="567.3431,534.6569 459.3431,426.6569" stroke="#000" stroke-width="1" /><polyline fill="none" opacity="1.0" points="407.0,419.0 422.0,404.0" stroke="#000" stroke-width="1" /><polyline fill="none" opacity="1.0" points="409.8284,421.8284 424.8284,406.8284" stroke="#000" stroke-width="1" /><polyline fill="none" opacity="1.0" points="412.6569,424.6569 427.6569,409.6569" stroke="#000" stroke-width="1" /><polyline fill="none" opacity="1.0" points="415.4853,427.4853 430.4853,412.4853" stroke="#000" stroke-width="1" /><polyline fill="none" opacity="1.0" points="418.3137,430.3137 433.3137,415.3137" stroke="#000" stroke-width="1" /><polyline fill="none" opacity="1.0" points="421.1421,433.1421 436.1421,418.1421" stroke="#000" stroke-width="1" /><polyline fill="none" opacity="1.0" points="423.9706,435.9706 438.9706,420.9706" stroke="#000" stroke-width="1" /><polyline fill="none" opacity="1.0" points="426.799,438.799 441.799,423.799" stroke="#000" stroke-width="1" /><polyline fill="none" opacity="1.0" points="429.6274,441.6274 444.6274,426.6274" stroke="#000" stroke-width="1" /><polyline fill="none" opacity="1.0" points="432.4558,444.4558 447.4558,429.4558" stroke="#000" stroke-width="1" /><polygon fill="#D0D0D0" opacity="1.0" points="509.0,451.0 541.0,483.0 538.0,486.0 546.0,494.0 557.0,483.0 549.0,475.0 546.0,478.0 514.0,446.0 517.0,443.0 509.0,435.0 498.0,446.0 506.0,454.0" stroke="#000" stroke-width="1" /><polyline fill="none" opacity="1.0" points="590.0,364.0 626.0,400.0" stroke="#7F7F7F" stroke-width="1" /><polyline fill="none" opacity="1.0" points="592.8284,361.1716 628.8284,397.1716" stroke="#7F7F7F" stroke-width="1" /><polyline fill="none" opacity="1.0" points="595.6569,358.3431 631.6569,394.3431" stroke="#7F7F7F" stroke-width="1" /><polyline fill="none" opacity="1.0" points="598.4853,355.5147 634.4853,391.5147" stroke="#7F7F7F" stroke-width="1" /><polyline fill="none" opacity="1.0" points="601.3137,352.6863 637.3137,388.6863" stroke="#7F7F7F" stroke-width="1" /><polyline fill="none" opacity="1.0" points="604.1421,349.8579 640.1421,385.8579" stroke="#7F7F7F" stroke-width="1" /><polyline fill="none" opacity="1.0" points="606.9706,347.0294 642.9706,383.0294" stroke="#7F7F7F" stroke-width="1" /><polyline fill="none" opacity="1.0" points="609.799,344.201 645.799,380.201" stroke="#7F7F7F" stroke-width="1" /><polyline fill="none" opacity="1.0" points="612.6274,341.3726 648.6274,377.3726" stroke="#7F7F7F" stroke-width="1" /><polyline fill="none" opacity="1.0" points="615.4558,338.5442 651.4558,374.5442" stroke="#7F7F7F" stroke-width="1" /><polyline fill="none" opacity="1.0" points="618.2843,335.7157 654.2843,371.7157" stroke="#7F7F7F" stroke-width="1" /><polyline fill="none" opacity="1.0" points="621.1127,332.8873 657.1127,368.8873" stroke="#7F7F7F" stroke-width="1" /><polyline fill="none" opacity="1.0" points="623.9411,330.0589 659.9411,366.0589" stroke="#7F7F7F" stroke-width="1" /><polyline fill="none" opacity="1.0" points="626.7696,327.2304 662.7696,363.2304" stroke="#7F7F7F" stroke-width="1" /><polyline fill="none" opacity="1.0" points="629.598,324.402 665.598,360.402" stroke="#7F7F7F" stroke-width="1" /><polyline fill="none" opacity="1.0" points="632.4264,321.5736 668.4264,357.5736" stroke="#7F7F7F" stroke-width="1" /><polyline fill="none" opacity="1.0" points="635.2548,318.7452 671.2548,354.7452" stroke="#7F7F7F" stroke-width="1" /><polyline fill="none" opacity="1.0" points="638.0833,315.9167 674.0833,351.9167" stroke="#7F7F7F" stroke-width="1" /><polyline fill="none" opacity="1.0" points="640.9117,313.0883 676.9117,349.0883" stroke="#7F7F7F" stroke-width="1" /><polygon fill="#9B5509" opacity="1.0" points="583.0,365.0 642.0,306.0 645.0,309.0 586.0,368.0" stroke="#000" stroke-width="1" /><polygon fill="#9B5509" opacity="1.0" points="592.0,374.0 651.0,315.0 655.0,319.0 596.0,378.0" stroke="#000" stroke-width="1" /><polygon fill="#9B5509" opacity="1.0" points="602.0,384.0 661.0,325.0 665.0,329.0 606.0,388.0" stroke="#000" stroke-width="1" /><polygon fill="#9B5509" opacity="1.0" points="612.0,394.0 671.0,335.0 675.0,339.0 616.0,398.0" stroke="#000" stroke-width="1" /><polygon fill="#9B5509" opacity="1.0" points="622.0,404.0 681.0,345.0 684.0,348.0 625.0,407.0" stroke="#000" stroke-width="1" /><polyline fill="none" opacity="1.0" points="572.0,354.0 565.0,361.0 545.0,341.0" stroke="#000" stroke-width="1" /><text fill="#FFF" font-family="Arial" font-size="10" font-weight="normal" opacity="1.0" transform="rotate(45.0 555.0,334.0) translate(0 10)" x="555.0" y="334.0">кассы</text><polyline fill="none" opacity="1.0" points="565.0,361.0 549.0,377.0" stroke="#000" stroke-width="1" /><polygon fill="none" opacity="1.0" points="549.0,440.0 553.0,436.0 557.0,440.0 553.0,444.0" stroke="#000" stroke-width="1" /><polyline fill="none" opacity="1.0" points="595.0,482.0 602.0,489.0" stroke="#000" stroke-width="1" /><polyline fill="none" opacity="1.0" points="547.0,377.0 551.0,377.0" stroke="#090" stroke-width="1" /><polyline fill="none" opacity="1.0" points="547.0,381.0 551.0,381.0" stroke="#090" stroke-width="1" /><polyline fill="none" opacity="1.0" points="547.0,385.0 551.0,385.0" stroke="#090" stroke-width="1" /><polyline fill="none" opacity="1.0" points="547.0,389.0 551.0,389.0" stroke="#090" stroke-width="1" /><polyline fill="none" opacity="1.0" points="547.0,393.0 551.0,393.0" stroke="#090" stroke-width="1" /><polyline fill="none" opacity="1.0" points="547.0,397.0 551.0,397.0" stroke="#090" stroke-width="1" /><polyline fill="none" opacity="1.0" points="547.0,401.0 551.0,401.0" stroke="#090" stroke-width="1" /><polyline fill="none" opacity="1.0" points="547.0,405.0 551.0,405.0" stroke="#090" stroke-width="1" /><polyline fill="none" opacity="1.0" points="547.0,409.0 551.0,409.0" stroke="#090" stroke-width="1" /><polyline fill="none" opacity="1.0" points="547.0,413.0 551.0,413.0" stroke="#090" stroke-width="1" /><polyline fill="none" opacity="1.0" points="547.0,417.0 551.0,417.0" stroke="#090" stroke-width="1" /><polyline fill="none" opacity="1.0" points="547.0,421.0 551.0,421.0" stroke="#090" stroke-width="1" /><polyline fill="none" opacity="1.0" points="547.0,425.0 551.0,425.0" stroke="#090" stroke-width="1" /><polyline fill="none" opacity="1.0" points="547.0,429.0 551.0,429.0" stroke="#090" stroke-width="1" /><polyline fill="none" opacity="1.0" points="547.0,433.0 551.0,433.0" stroke="#090" stroke-width="1" /><polyline fill="none" opacity="1.0" points="556.0,446.0 559.0,443.0" stroke="#F00" stroke-width="1" /><polyline fill="none" opacity="1.0" points="558.8284,448.8284 561.8284,445.8284" stroke="#F00" stroke-width="1" /><polyline fill="none" opacity="1.0" points="561.6569,451.6569 564.6569,448.6569" stroke="#F00" stroke-width="1" /><polyline fill="none" opacity="1.0" points="564.4853,454.4853 567.4853,451.4853" stroke="#F00" stroke-width="1" /><polyline fill="none" opacity="1.0" points="567.3137,457.3137 570.3137,454.3137" stroke="#F00" stroke-width="1" /><polyline fill="none" opacity="1.0" points="570.1421,460.1421 573.1421,457.1421" stroke="#F00" stroke-width="1" /><polyline fill="none" opacity="1.0" points="572.9706,462.9706 575.9706,459.9706" stroke="#F00" stroke-width="1" /><polyline fill="none" opacity="1.0" points="575.799,465.799 578.799,462.799" stroke="#F00" stroke-width="1" /><polyline fill="none" opacity="1.0" points="578.6274,468.6274 581.6274,465.6274" stroke="#F00" stroke-width="1" /><polyline fill="none" opacity="1.0" points="581.4558,471.4558 584.4558,468.4558" stroke="#F00" stroke-width="1" /><polyline fill="none" opacity="1.0" points="584.2843,474.2843 587.2843,471.2843" stroke="#F00" stroke-width="1" /><polyline fill="none" opacity="1.0" points="587.1127,477.1127 590.1127,474.1127" stroke="#F00" stroke-width="1" /><polyline fill="none" opacity="1.0" points="589.9411,479.9411 592.9411,476.9411" stroke="#F00" stroke-width="1" /><polyline fill="none" opacity="1.0" points="592.7696,482.7696 595.7696,479.7696" stroke="#F00" stroke-width="1" /><polygon fill="#34349C" opacity="1.0" points="625.0,440.0 628.0,437.0 629.0,438.0 626.0,441.0" stroke="#34349C" stroke-width="1" /><polygon fill="#F00" opacity="1.0" points="622.0,443.0 625.0,440.0 626.0,441.0 623.0,444.0" stroke="#F00" stroke-width="1" /><text fill="#00AFAF" font-family="Arial" font-size="15" font-weight="normal" opacity="1.0" transform="rotate(10.0 1016.0,493.0) translate(0 15)" x="1016.0" y="493.0">площадь Крестьянской заставы</text><text fill="#00AFAF" font-family="Arial" font-size="15" font-weight="normal" opacity="1.0" transform="rotate(-70.0 243.0,1046.0) translate(0 15)" x="243.0" y="1046.0">улица Крутицкий вал</text><text fill="#00AFAF" font-family="Arial" font-size="15" font-weight="normal" opacity="1.0" transform="rotate(45.0 1073.0,38.0) translate(0 15)" x="1073.0" y="38.0">Волгоградский проспект</text><text fill="#00AFAF" font-family="Arial" font-size="15" font-weight="normal" opacity="1.0" transform="rotate(-50.0 1099.0,702.0) translate(0 15)" x="1099.0" y="702.0">1-я Дубровская улица</text><text fill="#00AFAF" font-family="Arial" font-size="15" font-weight="normal" opacity="1.0" transform="rotate(-20.0 191.0,849.0) translate(0 15)" x="191.0" y="849.0">3-й Крутицкий переулок</text><text fill="#00AFAF" font-family="Arial" font-size="15" font-weight="normal" opacity="1.0" transform="rotate(10.0 303.0,282.0) translate(0 15)" x="303.0" y="282.0">Воронцовская улица</text><polyline fill="none" opacity="1.0" points="145.0,721.0 108.0,721.0" stroke="#F00" stroke-width="1" /><polygon fill="#F00" opacity="1.0" points="118.7218,718.1271 108.0,721.0 118.7218,723.8729" stroke="#F00" stroke-width="1" /><polyline fill="none" opacity="1.0" points="870.0,720.0 903.0,720.0" stroke="#F00" stroke-width="1" /><polygon fill="#F00" opacity="1.0" points="893.4373,722.5623 903.0,720.0 893.4373,717.4377" stroke="#F00" stroke-width="1" /><polyline fill="none" opacity="1.0" points="559.0,508.0 546.0,521.0" stroke="#F00" stroke-width="1" /><polygon fill="#F00" opacity="1.0" points="548.7577,516.2235 546.0,521.0 550.7765,518.2423" stroke="#F00" stroke-width="1" /><polyline fill="none" opacity="1.0" points="583.0,461.0 571.0,473.0" stroke="#F00" stroke-width="1" /><polygon fill="#F00" opacity="1.0" points="573.5456,468.5909 571.0,473.0 575.4091,470.4544" stroke="#F00" stroke-width="1" /><polyline fill="none" opacity="1.0" points="639.0,490.0 621.0,472.0" stroke="#F00" stroke-width="1" /><polygon fill="#F00" opacity="1.0" points="627.6136,475.8184 621.0,472.0 624.8184,478.6136" stroke="#F00" stroke-width="1" /><polyline fill="none" opacity="1.0" points="512.0,637.0 530.0,619.0" stroke="#F00" stroke-width="1" /><polygon fill="#F00" opacity="1.0" points="526.1816,625.6136 530.0,619.0 523.3864,622.8184" stroke="#F00" stroke-width="1" /><polyline fill="none" opacity="1.0" points="115.0,620.0 151.0,620.0" stroke="#090" stroke-width="1" /><polygon fill="#090" opacity="1.0" points="140.568,622.7952 151.0,620.0 140.568,617.2048" stroke="#090" stroke-width="1" /><polyline fill="none" opacity="1.0" points="902.0,621.0 869.0,621.0" stroke="#090" stroke-width="1" /><polygon fill="#090" opacity="1.0" points="878.5627,618.4377 869.0,621.0 878.5627,623.5623" stroke="#090" stroke-width="1" /><polyline fill="none" opacity="1.0" points="544.0,399.0 559.0,399.0" stroke="#090" stroke-width="1" /><polygon fill="#090" opacity="1.0" points="554.6533,400.1647 559.0,399.0 554.6533,397.8353" stroke="#090" stroke-width="1" /><polyline fill="none" opacity="1.0" points="639.0,462.0 657.0,480.0" stroke="#090" stroke-width="1" /><polygon fill="#090" opacity="1.0" points="650.3864,476.1816 657.0,480.0 653.1816,473.3864" stroke="#090" stroke-width="1" /><polyline fill="none" opacity="1.0" points="537.0,625.0 519.0,643.0" stroke="#090" stroke-width="1" /><polygon fill="#090" opacity="1.0" points="522.8184,636.3864 519.0,643.0 525.6136,639.1816" stroke="#090" stroke-width="1" /><polyline fill="none" opacity="1.0" points="470.0,443.0 485.0,428.0" stroke="#090" stroke-width="1" /><polygon fill="#090" opacity="1.0" points="481.818,433.5114 485.0,428.0 479.4886,431.182" stroke="#090" stroke-width="1" /><g transform="rotate(-5.0,615.0,515.0)"><text fill="#FFD900" font-family="Arial" font-size="25" font-weight="normal" opacity="1.0" x="1011.25" y="574.5">1</text><text fill="#FFD900" font-family="Arial" font-size="25" font-weight="normal" opacity="1.0" x="1031.25" y="418.5">2</text><text fill="#FFD900" font-family="Arial" font-size="25" font-weight="normal" opacity="1.0" x="1089.25" y="491.5">3</text><text fill="#FFD900" font-family="Arial" font-size="25" font-weight="normal" opacity="1.0" x="139.25" y="784.5">4</text><text fill="#FFD900" font-family="Arial" font-size="25" font-weight="normal" opacity="1.0" x="6.25" y="751.5">5</text><text fill="#FFD900" font-family="Arial" font-size="25" font-weight="normal" opacity="1.0" x="14.25" y="821.5">6</text><text fill="#FFD900" font-family="Arial" font-size="25" font-weight="normal" opacity="1.0" x="45.25" y="882.5">7</text><text fill="#FFD900" font-family="Arial" font-size="25" font-weight="normal" opacity="1.0" x="179.25" y="922.5">8</text><text fill="#FFD900" font-family="Arial" font-size="25" font-weight="normal" opacity="1.0" x="82.25" y="953.5">9</text><text fill="#FFD900" font-family="Arial" font-size="25" font-weight="normal" opacity="1.0" x="440.25" y="383.5">10</text></g></g></g></svg>