<?xml version="1.0" encoding="utf-8" ?>
<svg baseProfile="tiny" height="1370px" version="1.2" width="930px" xmlns="http://www.w3.org/2000/svg" xmlns:ev="http://www.w3.org/2001/xml-events" xmlns:xlink="http://www.w3.org/1999/xlink"><defs /><g><g transform="rotate(10.0,465.0,685.0)"><polygon fill="#FC9C54" opacity="100" points="68.0,360.0 98.0,360.0 98.0,810.0 68.0,810.0" stroke="#000" stroke-width="1" /><polygon fill="#FC9C54" opacity="100" points="178.0,360.0 208.0,360.0 208.0,810.0 178.0,810.0" stroke="#000" stroke-width="1" /><text fill="#F7782E" font-family="Arial" font-size="20" font-weight="normal" opacity="100" transform="rotate(-90.0 208.0,463.0) translate(0 20)" x="208.0" y="463.0">Рижская &gt;&gt;</text><text fill="#F7782E" font-family="Arial" font-size="20" font-weight="normal" opacity="100" transform="rotate(-90.0 43.0,809.0) translate(0 20)" x="43.0" y="809.0">&lt;&lt; Сухаревская</text><text fill="#F7782E" font-family="Arial" font-size="25" font-weight="bold" opacity="100" transform="rotate(-90.0 130.0,723.0) translate(0 25)" x="130.0" y="723.0">Проспект Мира</text><polygon fill="#34349C" opacity="100" points="132.0,630.0 128.0,630.0 128.0,631.0 132.0,631.0" stroke="#34349C" stroke-width="1" /><polygon fill="#F00" opacity="100" points="136.0,630.0 132.0,630.0 132.0,631.0 136.0,631.0" stroke="#F00" stroke-width="1" /><polygon fill="#9B5509" opacity="100" points="270.0,1125.0 270.0,1095.0 720.0,1095.0 720.0,1125.0" stroke="#000" stroke-width="1" /><polygon fill="#9B5509" opacity="100" points="270.0,1205.0 270.0,1235.0 720.0,1235.0 720.0,1205.0" stroke="#000" stroke-width="1" /><text fill="#543C04" font-family="Arial" font-size="20" font-weight="normal" opacity="100" transform="rotate(-0.0 271.0,1070.0) translate(0 20)" x="271.0" y="1070.0">&lt;&lt; Новослободская</text><text fill="#543C04" font-family="Arial" font-size="20" font-weight="normal" opacity="100" transform="rotate(-0.0 561.0,1235.0) translate(0 20)" x="561.0" y="1235.0">Комсомольская &gt;&gt;</text><text fill="#543C04" font-family="Arial" font-size="25" font-weight="bold" opacity="100" transform="rotate(-0.0 417.0,1153.0) translate(0 25)" x="417.0" y="1153.0">Проспект Мира</text><polygon fill="#34349C" opacity="100" points="494.0,1155.0 494.0,1151.0 495.0,1151.0 495.0,1155.0" stroke="#34349C" stroke-width="1" /><polygon fill="#F00" opacity="100" points="494.0,1159.0 494.0,1155.0 495.0,1155.0 495.0,1159.0" stroke="#F00" stroke-width="1" /><polygon fill="#FEFBF1" opacity="100" points="312.0,79.0 42.0,79.0 42.0,340.0 312.0,270.0" stroke="#BBB" stroke-width="1" /><polygon fill="#D0D0D0" opacity="100" points="150.0,312.0 258.0,284.0 258.0,263.0 254.0,263.0 254.0,223.0 218.0,212.0 212.0,224.0 203.0,235.0 193.0,245.0 180.0,253.0 166.0,260.0 152.0,263.0" stroke="#D0D0D0" stroke-width="1" /><polygon fill="#D0D0D0" opacity="100" points="123.0,263.0 123.0,319.0 42.0,340.0 42.0,79.0 312.0,79.0 312.0,92.0 285.0,92.0 285.0,84.0 254.0,84.0 254.0,127.0 217.0,136.0 211.0,125.0 203.0,116.0 196.0,108.0 185.0,101.0 174.0,95.0 161.0,90.0 147.0,87.0 136.0,87.0 120.0,88.0 106.0,93.0 94.0,97.0 83.0,105.0 72.0,115.0 63.0,128.0 56.0,141.0 51.0,155.0 49.0,165.0 49.0,181.0 51.0,195.0 55.0,208.0 60.0,219.0 66.0,228.0 74.0,237.0 83.0,245.0 91.0,251.0 101.0,256.0 112.0,261.0" stroke="#D0D0D0" stroke-width="1" /><polygon fill="#D0D0D0" opacity="100" points="285.0,123.0 312.0,123.0 312.0,218.0 285.0,218.0" stroke="#000" stroke-width="1" /><polygon fill="#D0D0D0" opacity="100" points="312.0,249.0 287.0,249.0 287.0,263.0 282.0,263.0 282.0,278.0 312.0,270.0" stroke="#000" stroke-width="1" /><polygon fill="#D0D0D0" opacity="100" points="216.0,169.0 245.0,164.0 245.0,188.0 216.0,183.0" stroke="#000" stroke-width="1" /><polygon fill="#D0D0D0" opacity="100" points="254.0,197.0 254.0,152.0 260.0,158.0 260.0,191.0" stroke="#000" stroke-width="1" /><polyline fill="none" opacity="100" points="312.0,96.0 312.0,92.0" stroke="#000" stroke-width="1" /><polyline fill="none" opacity="100" points="312.0,119.0 312.0,123.0" stroke="#000" stroke-width="1" /><polyline fill="none" opacity="100" points="312.0,218.0 312.0,222.0" stroke="#000" stroke-width="1" /><polyline fill="none" opacity="100" points="312.0,245.0 312.0,249.0" stroke="#000" stroke-width="1" /><polyline fill="none" opacity="100" points="282.0,278.0 278.0,279.0" stroke="#000" stroke-width="1" /><polyline fill="none" opacity="100" points="262.0,283.0 258.0,284.0" stroke="#000" stroke-width="1" /><polyline fill="none" opacity="100" points="217.0,136.0 254.0,127.0 254.0,84.0 285.0,84.0 285.0,92.0 312.0,92.0 312.0,79.0 42.0,79.0 42.0,340.0 123.0,319.0" stroke="#000" stroke-width="1" /><polyline fill="none" opacity="100" points="150.0,312.0 258.0,284.0 258.0,263.0 254.0,263.0 254.0,223.0 218.0,212.0" stroke="#000" stroke-width="1" /><polyline fill="none" opacity="100" points="152.0,478.0 158.0,478.0 158.0,576.0 168.0,576.0 168.0,360.0 178.0,360.0" stroke="#000" stroke-width="1" /><polyline fill="none" opacity="100" points="123.0,478.0 117.0,478.0 117.0,576.0 107.0,576.0 107.0,360.0 98.0,360.0" stroke="#000" stroke-width="1" /><polyline fill="none" opacity="100" points="217.0,136.0 213.9297,130.4766 210.5938,125.2812 206.989,120.4114 203.125,115.875 199.0208,111.6882 194.6445,107.8242 189.9868,104.2749 185.0,101.0 179.5952,97.9243 173.8867,95.1445 167.9446,92.7251 161.8125,90.6875 155.5652,89.064 149.1797,87.8867 142.6631,87.1772 136.0,87.0 129.1338,87.4517 122.1953,88.457 115.2798,89.9829 108.4375,92.0 101.7319,94.439 95.2188,97.3867 88.9453,100.8726 83.0,105.0 77.5,109.9673 72.4062,115.5195 67.718,121.4915 63.4375,127.8125 59.53,134.3699 56.1055,141.125 53.2202,148.0352 51.0,155.0 49.6587,161.8945 48.9883,168.75 48.8665,175.562 49.25,182.3125 50.0496,189.0122 51.2812,195.5703 52.9414,201.9307 55.0,208.0 57.4336,213.6318 60.2188,218.9297 63.3291,223.9456 66.75,228.6875 70.4756,233.1931 74.4531,237.4258 78.6504,241.3657 83.0,245.0 87.3965,248.3022 91.9219,251.293 96.6201,253.9832 101.5,256.375 106.5908,258.4758 111.875,260.2812 117.3438,261.7891 123.0,263.0" stroke="#000" stroke-width="1" /><polyline fill="none" opacity="100" points="152.0,263.0 155.7734,262.1875 159.4688,261.25 163.0867,260.1868 166.625,259.0 170.0793,257.6941 173.457,256.2617 176.7603,254.7007 180.0,253.0 183.1968,251.1392 186.3242,249.1445 189.3647,247.0337 192.3125,244.8125 195.1587,242.4897 197.8945,240.0742 200.5142,237.5718 203.0,235.0 205.3257,232.3853 207.5117,229.707 209.5691,226.9543 211.5,224.125 213.3118,221.2117 215.0,218.2188 216.5625,215.1484 218.0,212.0" stroke="#000" stroke-width="1" /><polyline fill="none" opacity="100" points="126.0,480.0 149.0,480.0" stroke="#7F7F7F" stroke-width="1" /><polyline fill="none" opacity="100" points="126.0,476.0 149.0,476.0" stroke="#7F7F7F" stroke-width="1" /><polyline fill="none" opacity="100" points="126.0,472.0 149.0,472.0" stroke="#7F7F7F" stroke-width="1" /><polyline fill="none" opacity="100" points="126.0,468.0 149.0,468.0" stroke="#7F7F7F" stroke-width="1" /><polyline fill="none" opacity="100" points="126.0,464.0 149.0,464.0" stroke="#7F7F7F" stroke-width="1" /><polyline fill="none" opacity="100" points="126.0,460.0 149.0,460.0" stroke="#7F7F7F" stroke-width="1" /><polyline fill="none" opacity="100" points="126.0,456.0 149.0,456.0" stroke="#7F7F7F" stroke-width="1" /><polyline fill="none" opacity="100" points="126.0,452.0 149.0,452.0" stroke="#7F7F7F" stroke-width="1" /><polyline fill="none" opacity="100" points="126.0,448.0 149.0,448.0" stroke="#7F7F7F" stroke-width="1" /><polyline fill="none" opacity="100" points="126.0,444.0 149.0,444.0" stroke="#7F7F7F" stroke-width="1" /><polyline fill="none" opacity="100" points="126.0,440.0 149.0,440.0" stroke="#7F7F7F" stroke-width="1" /><polyline fill="none" opacity="100" points="126.0,436.0 149.0,436.0" stroke="#7F7F7F" stroke-width="1" /><polyline fill="none" opacity="100" points="126.0,432.0 149.0,432.0" stroke="#7F7F7F" stroke-width="1" /><polyline fill="none" opacity="100" points="126.0,428.0 149.0,428.0" stroke="#7F7F7F" stroke-width="1" /><polyline fill="none" opacity="100" points="126.0,424.0 149.0,424.0" stroke="#7F7F7F" stroke-width="1" /><polyline fill="none" opacity="100" points="126.0,420.0 149.0,420.0" stroke="#7F7F7F" stroke-width="1" /><polyline fill="none" opacity="100" points="126.0,416.0 149.0,416.0" stroke="#7F7F7F" stroke-width="1" /><polyline fill="none" opacity="100" points="126.0,412.0 149.0,412.0" stroke="#7F7F7F" stroke-width="1" /><polyline fill="none" opacity="100" points="126.0,408.0 149.0,408.0" stroke="#7F7F7F" stroke-width="1" /><polyline fill="none" opacity="100" points="126.0,404.0 149.0,404.0" stroke="#7F7F7F" stroke-width="1" /><polyline fill="none" opacity="100" points="126.0,400.0 149.0,400.0" stroke="#7F7F7F" stroke-width="1" /><polyline fill="none" opacity="100" points="126.0,396.0 149.0,396.0" stroke="#7F7F7F" stroke-width="1" /><polyline fill="none" opacity="100" points="126.0,392.0 149.0,392.0" stroke="#7F7F7F" stroke-width="1" /><polyline fill="none" opacity="100" points="126.0,388.0 149.0,388.0" stroke="#7F7F7F" stroke-width="1" /><polyline fill="none" opacity="100" points="126.0,384.0 149.0,384.0" stroke="#7F7F7F" stroke-width="1" /><polyline fill="none" opacity="100" points="126.0,380.0 149.0,380.0" stroke="#7F7F7F" stroke-width="1" /><polyline fill="none" opacity="100" points="126.0,376.0 149.0,376.0" stroke="#7F7F7F" stroke-width="1" /><polyline fill="none" opacity="100" points="126.0,372.0 149.0,372.0" stroke="#7F7F7F" stroke-width="1" /><polyline fill="none" opacity="100" points="126.0,368.0 149.0,368.0" stroke="#7F7F7F" stroke-width="1" /><polyline fill="none" opacity="100" points="126.0,364.0 149.0,364.0" stroke="#7F7F7F" stroke-width="1" /><polyline fill="none" opacity="100" points="126.0,360.0 149.0,360.0" stroke="#7F7F7F" stroke-width="1" /><polyline fill="none" opacity="100" points="126.0,356.0 149.0,356.0" stroke="#7F7F7F" stroke-width="1" /><polyline fill="none" opacity="100" points="126.0,352.0 149.0,352.0" stroke="#7F7F7F" stroke-width="1" /><polyline fill="none" opacity="100" points="126.0,348.0 149.0,348.0" stroke="#7F7F7F" stroke-width="1" /><polyline fill="none" opacity="100" points="126.0,344.0 149.0,344.0" stroke="#7F7F7F" stroke-width="1" /><polyline fill="none" opacity="100" points="126.0,340.0 149.0,340.0" stroke="#7F7F7F" stroke-width="1" /><polyline fill="none" opacity="100" points="126.0,336.0 149.0,336.0" stroke="#7F7F7F" stroke-width="1" /><polyline fill="none" opacity="100" points="126.0,332.0 149.0,332.0" stroke="#7F7F7F" stroke-width="1" /><polyline fill="none" opacity="100" points="126.0,328.0 149.0,328.0" stroke="#7F7F7F" stroke-width="1" /><polyline fill="none" opacity="100" points="126.0,324.0 149.0,324.0" stroke="#7F7F7F" stroke-width="1" /><polyline fill="none" opacity="100" points="126.0,320.0 149.0,320.0" stroke="#7F7F7F" stroke-width="1" /><polyline fill="none" opacity="100" points="126.0,316.0 149.0,316.0" stroke="#7F7F7F" stroke-width="1" /><polyline fill="none" opacity="100" points="126.0,312.0 149.0,312.0" stroke="#7F7F7F" stroke-width="1" /><polyline fill="none" opacity="100" points="126.0,308.0 149.0,308.0" stroke="#7F7F7F" stroke-width="1" /><polyline fill="none" opacity="100" points="126.0,304.0 149.0,304.0" stroke="#7F7F7F" stroke-width="1" /><polyline fill="none" opacity="100" points="126.0,300.0 149.0,300.0" stroke="#7F7F7F" stroke-width="1" /><polyline fill="none" opacity="100" points="126.0,296.0 149.0,296.0" stroke="#7F7F7F" stroke-width="1" /><polyline fill="none" opacity="100" points="126.0,292.0 149.0,292.0" stroke="#7F7F7F" stroke-width="1" /><polyline fill="none" opacity="100" points="126.0,288.0 149.0,288.0" stroke="#7F7F7F" stroke-width="1" /><polyline fill="none" opacity="100" points="126.0,284.0 149.0,284.0" stroke="#7F7F7F" stroke-width="1" /><polyline fill="none" opacity="100" points="126.0,280.0 149.0,280.0" stroke="#7F7F7F" stroke-width="1" /><polyline fill="none" opacity="100" points="126.0,276.0 149.0,276.0" stroke="#7F7F7F" stroke-width="1" /><polyline fill="none" opacity="100" points="126.0,272.0 149.0,272.0" stroke="#7F7F7F" stroke-width="1" /><polyline fill="none" opacity="100" points="126.0,268.0 149.0,268.0" stroke="#7F7F7F" stroke-width="1" /><polyline fill="none" opacity="100" points="126.0,264.0 149.0,264.0" stroke="#7F7F7F" stroke-width="1" /><polyline fill="none" opacity="100" points="126.0,260.0 149.0,260.0" stroke="#7F7F7F" stroke-width="1" /><polygon fill="#9B5509" opacity="100" points="123.0,486.0 123.0,254.0 126.0,254.0 126.0,486.0" stroke="#000" stroke-width="1" /><polygon fill="#9B5509" opacity="100" points="131.0,486.0 131.0,254.0 135.0,254.0 135.0,486.0" stroke="#000" stroke-width="1" /><polygon fill="#9B5509" opacity="100" points="140.0,486.0 140.0,254.0 144.0,254.0 144.0,486.0" stroke="#000" stroke-width="1" /><polygon fill="#9B5509" opacity="100" points="149.0,486.0 149.0,254.0 152.0,254.0 152.0,486.0" stroke="#000" stroke-width="1" /><polygon fill="#FFF" opacity="100" points="285.0,152.0 295.0,152.0 295.0,181.0 285.0,181.0" stroke="#000" stroke-width="1" /><text fill="#FFF" font-family="Arial" font-size="10" font-weight="normal" opacity="100" transform="rotate(-90.0 283.0,178.0) translate(0 10)" x="283.0" y="178.0">кассы</text><polygon fill="none" opacity="100" points="54.0,179.0 54.0,172.0 61.0,172.0 61.0,179.0" stroke="#000" stroke-width="1" /><polyline fill="none" opacity="100" points="216.0,176.0 170.0,176.0 133.0,213.0 133.0,254.0" stroke="#000" stroke-width="0.5" /><polyline fill="none" opacity="100" points="65.0,173.0 65.0,178.0" stroke="#090" stroke-width="1" /><polyline fill="none" opacity="100" points="69.0,173.0 69.0,178.0" stroke="#090" stroke-width="1" /><polyline fill="none" opacity="100" points="73.0,173.0 73.0,178.0" stroke="#090" stroke-width="1" /><polyline fill="none" opacity="100" points="77.0,173.0 77.0,178.0" stroke="#090" stroke-width="1" /><polyline fill="none" opacity="100" points="81.0,173.0 81.0,178.0" stroke="#090" stroke-width="1" /><polyline fill="none" opacity="100" points="85.0,173.0 85.0,178.0" stroke="#090" stroke-width="1" /><polyline fill="none" opacity="100" points="89.0,173.0 89.0,178.0" stroke="#090" stroke-width="1" /><polyline fill="none" opacity="100" points="93.0,173.0 93.0,178.0" stroke="#090" stroke-width="1" /><polyline fill="none" opacity="100" points="97.0,173.0 97.0,178.0" stroke="#090" stroke-width="1" /><polyline fill="none" opacity="100" points="101.0,173.0 101.0,178.0" stroke="#090" stroke-width="1" /><polyline fill="none" opacity="100" points="105.0,173.0 105.0,178.0" stroke="#090" stroke-width="1" /><polyline fill="none" opacity="100" points="109.0,173.0 109.0,178.0" stroke="#090" stroke-width="1" /><polyline fill="none" opacity="100" points="113.0,173.0 113.0,178.0" stroke="#090" stroke-width="1" /><polyline fill="none" opacity="100" points="117.0,173.0 117.0,178.0" stroke="#090" stroke-width="1" /><polyline fill="none" opacity="100" points="121.0,173.0 121.0,178.0" stroke="#090" stroke-width="1" /><polyline fill="none" opacity="100" points="125.0,173.0 125.0,178.0" stroke="#090" stroke-width="1" /><polyline fill="none" opacity="100" points="129.0,173.0 129.0,178.0" stroke="#090" stroke-width="1" /><polyline fill="none" opacity="100" points="133.0,173.0 133.0,178.0" stroke="#090" stroke-width="1" /><polyline fill="none" opacity="100" points="137.0,173.0 137.0,178.0" stroke="#090" stroke-width="1" /><polyline fill="none" opacity="100" points="141.0,173.0 141.0,178.0" stroke="#090" stroke-width="1" /><polyline fill="none" opacity="100" points="145.0,173.0 145.0,178.0" stroke="#090" stroke-width="1" /><polyline fill="none" opacity="100" points="149.0,173.0 149.0,178.0" stroke="#090" stroke-width="1" /><polyline fill="none" opacity="100" points="153.0,173.0 153.0,178.0" stroke="#090" stroke-width="1" /><polyline fill="none" opacity="100" points="157.0,173.0 157.0,178.0" stroke="#090" stroke-width="1" /><polyline fill="none" opacity="100" points="161.0,173.0 161.0,178.0" stroke="#090" stroke-width="1" /><polyline fill="none" opacity="100" points="165.0,173.0 165.0,178.0" stroke="#090" stroke-width="1" /><polyline fill="none" opacity="100" points="210.0,212.0 215.0,212.0" stroke="#F00" stroke-width="1" /><polyline fill="none" opacity="100" points="210.0,208.0 215.0,208.0" stroke="#F00" stroke-width="1" /><polyline fill="none" opacity="100" points="210.0,204.0 215.0,204.0" stroke="#F00" stroke-width="1" /><polyline fill="none" opacity="100" points="210.0,200.0 215.0,200.0" stroke="#F00" stroke-width="1" /><polyline fill="none" opacity="100" points="210.0,196.0 215.0,196.0" stroke="#F00" stroke-width="1" /><polyline fill="none" opacity="100" points="210.0,192.0 215.0,192.0" stroke="#F00" stroke-width="1" /><polyline fill="none" opacity="100" points="210.0,188.0 215.0,188.0" stroke="#F00" stroke-width="1" /><polyline fill="none" opacity="100" points="210.0,184.0 215.0,184.0" stroke="#F00" stroke-width="1" /><polyline fill="none" opacity="100" points="290.0,233.0 309.0,233.0" stroke="#F00" stroke-width="1" /><polygon fill="#F00" opacity="100" points="303.4942,234.4753 309.0,233.0 303.4942,231.5247" stroke="#F00" stroke-width="1" /><polyline fill="none" opacity="100" points="188.0,202.0 206.0,202.0" stroke="#F00" stroke-width="1" /><polygon fill="#F00" opacity="100" points="200.784,203.3976 206.0,202.0 200.784,200.6024" stroke="#F00" stroke-width="1" /><polyline fill="none" opacity="100" points="128.0,511.0 128.0,495.0" stroke="#F00" stroke-width="1" /><polygon fill="#F00" opacity="100" points="129.2423,499.6364 128.0,495.0 126.7577,499.6364" stroke="#F00" stroke-width="1" /><polyline fill="none" opacity="100" points="307.0,107.0 288.0,107.0" stroke="#090" stroke-width="1" /><polygon fill="#090" opacity="100" points="293.5058,105.5247 288.0,107.0 293.5058,108.4753" stroke="#090" stroke-width="1" /><polyline fill="none" opacity="100" points="115.0,150.0 115.0,168.0" stroke="#090" stroke-width="1" /><polygon fill="#090" opacity="100" points="113.6024,162.784 115.0,168.0 116.3976,162.784" stroke="#090" stroke-width="1" /><polyline fill="none" opacity="100" points="147.0,495.0 147.0,511.0" stroke="#090" stroke-width="1" /><polygon fill="#090" opacity="100" points="145.7577,506.3636 147.0,511.0 148.2423,506.3636" stroke="#090" stroke-width="1" /><polygon fill="#34349C" opacity="100" points="137.0,91.0 141.0,91.0 141.0,92.0 137.0,92.0" stroke="#34349C" stroke-width="1" /><polygon fill="#F00" opacity="100" points="133.0,91.0 137.0,91.0 137.0,92.0 133.0,92.0" stroke="#F00" stroke-width="1" /><polygon fill="#FEFBF1" opacity="100" points="807.0,1068.0 976.0,1068.0 976.0,1261.0 807.0,1261.0" stroke="#BBB" stroke-width="1" /><polygon fill="#D0D0D0" opacity="100" points="807.0,1116.0 807.0,1150.0 888.0,1150.0 888.0,1116.0" stroke="#000" stroke-width="1" /><polygon fill="#D0D0D0" opacity="100" points="807.0,1179.0 807.0,1212.0 888.0,1212.0 888.0,1179.0" stroke="#000" stroke-width="1" /><polygon fill="#D0D0D0" opacity="100" points="807.0,1261.0 946.0,1261.0 946.0,1246.0 976.0,1246.0 976.0,1068.0 807.0,1068.0 807.0,1062.0 983.0,1062.0 983.0,1277.0 807.0,1277.0" stroke="#000" stroke-width="1" /><polyline fill="none" opacity="100" points="720.0,1205.0 720.0,1197.0 676.0,1197.0 676.0,1189.0 734.0,1189.0 734.0,1179.0" stroke="#000" stroke-width="1" /><polyline fill="none" opacity="100" points="734.0,1150.0 734.0,1140.0 676.0,1140.0 676.0,1132.0 720.0,1132.0 720.0,1125.0" stroke="#000" stroke-width="1" /><polyline fill="none" opacity="100" points="807.0,1068.0 807.0,1073.0" stroke="#000" stroke-width="1" /><polyline fill="none" opacity="100" points="807.0,1261.0 807.0,1256.0" stroke="#000" stroke-width="1" /><polyline fill="none" opacity="100" points="807.0,1116.0 807.0,1110.0" stroke="#000" stroke-width="1" /><polyline fill="none" opacity="100" points="807.0,1212.0 807.0,1217.0" stroke="#000" stroke-width="1" /><polyline fill="none" opacity="100" points="905.0,1176.0 905.0,1153.0" stroke="#7F7F7F" stroke-width="1" /><polyline fill="none" opacity="100" points="901.0,1176.0 901.0,1153.0" stroke="#7F7F7F" stroke-width="1" /><polyline fill="none" opacity="100" points="897.0,1176.0 897.0,1153.0" stroke="#7F7F7F" stroke-width="1" /><polyline fill="none" opacity="100" points="893.0,1176.0 893.0,1153.0" stroke="#7F7F7F" stroke-width="1" /><polyline fill="none" opacity="100" points="889.0,1176.0 889.0,1153.0" stroke="#7F7F7F" stroke-width="1" /><polyline fill="none" opacity="100" points="885.0,1176.0 885.0,1153.0" stroke="#7F7F7F" stroke-width="1" /><polyline fill="none" opacity="100" points="881.0,1176.0 881.0,1153.0" stroke="#7F7F7F" stroke-width="1" /><polyline fill="none" opacity="100" points="877.0,1176.0 877.0,1153.0" stroke="#7F7F7F" stroke-width="1" /><polyline fill="none" opacity="100" points="873.0,1176.0 873.0,1153.0" stroke="#7F7F7F" stroke-width="1" /><polyline fill="none" opacity="100" points="869.0,1176.0 869.0,1153.0" stroke="#7F7F7F" stroke-width="1" /><polyline fill="none" opacity="100" points="865.0,1176.0 865.0,1153.0" stroke="#7F7F7F" stroke-width="1" /><polyline fill="none" opacity="100" points="861.0,1176.0 861.0,1153.0" stroke="#7F7F7F" stroke-width="1" /><polyline fill="none" opacity="100" points="857.0,1176.0 857.0,1153.0" stroke="#7F7F7F" stroke-width="1" /><polyline fill="none" opacity="100" points="853.0,1176.0 853.0,1153.0" stroke="#7F7F7F" stroke-width="1" /><polyline fill="none" opacity="100" points="849.0,1176.0 849.0,1153.0" stroke="#7F7F7F" stroke-width="1" /><polyline fill="none" opacity="100" points="845.0,1176.0 845.0,1153.0" stroke="#7F7F7F" stroke-width="1" /><polyline fill="none" opacity="100" points="841.0,1176.0 841.0,1153.0" stroke="#7F7F7F" stroke-width="1" /><polyline fill="none" opacity="100" points="837.0,1176.0 837.0,1153.0" stroke="#7F7F7F" stroke-width="1" /><polyline fill="none" opacity="100" points="833.0,1176.0 833.0,1153.0" stroke="#7F7F7F" stroke-width="1" /><polyline fill="none" opacity="100" points="829.0,1176.0 829.0,1153.0" stroke="#7F7F7F" stroke-width="1" /><polyline fill="none" opacity="100" points="825.0,1176.0 825.0,1153.0" stroke="#7F7F7F" stroke-width="1" /><polyline fill="none" opacity="100" points="821.0,1176.0 821.0,1153.0" stroke="#7F7F7F" stroke-width="1" /><polyline fill="none" opacity="100" points="817.0,1176.0 817.0,1153.0" stroke="#7F7F7F" stroke-width="1" /><polyline fill="none" opacity="100" points="813.0,1176.0 813.0,1153.0" stroke="#7F7F7F" stroke-width="1" /><polyline fill="none" opacity="100" points="809.0,1176.0 809.0,1153.0" stroke="#7F7F7F" stroke-width="1" /><polyline fill="none" opacity="100" points="805.0,1176.0 805.0,1153.0" stroke="#7F7F7F" stroke-width="1" /><polyline fill="none" opacity="100" points="801.0,1176.0 801.0,1153.0" stroke="#7F7F7F" stroke-width="1" /><polyline fill="none" opacity="100" points="797.0,1176.0 797.0,1153.0" stroke="#7F7F7F" stroke-width="1" /><polyline fill="none" opacity="100" points="793.0,1176.0 793.0,1153.0" stroke="#7F7F7F" stroke-width="1" /><polyline fill="none" opacity="100" points="789.0,1176.0 789.0,1153.0" stroke="#7F7F7F" stroke-width="1" /><polyline fill="none" opacity="100" points="785.0,1176.0 785.0,1153.0" stroke="#7F7F7F" stroke-width="1" /><polyline fill="none" opacity="100" points="781.0,1176.0 781.0,1153.0" stroke="#7F7F7F" stroke-width="1" /><polyline fill="none" opacity="100" points="777.0,1176.0 777.0,1153.0" stroke="#7F7F7F" stroke-width="1" /><polyline fill="none" opacity="100" points="773.0,1176.0 773.0,1153.0" stroke="#7F7F7F" stroke-width="1" /><polyline fill="none" opacity="100" points="769.0,1176.0 769.0,1153.0" stroke="#7F7F7F" stroke-width="1" /><polyline fill="none" opacity="100" points="765.0,1176.0 765.0,1153.0" stroke="#7F7F7F" stroke-width="1" /><polyline fill="none" opacity="100" points="761.0,1176.0 761.0,1153.0" stroke="#7F7F7F" stroke-width="1" /><polyline fill="none" opacity="100" points="757.0,1176.0 757.0,1153.0" stroke="#7F7F7F" stroke-width="1" /><polyline fill="none" opacity="100" points="753.0,1176.0 753.0,1153.0" stroke="#7F7F7F" stroke-width="1" /><polyline fill="none" opacity="100" points="749.0,1176.0 749.0,1153.0" stroke="#7F7F7F" stroke-width="1" /><polyline fill="none" opacity="100" points="745.0,1176.0 745.0,1153.0" stroke="#7F7F7F" stroke-width="1" /><polyline fill="none" opacity="100" points="741.0,1176.0 741.0,1153.0" stroke="#7F7F7F" stroke-width="1" /><polyline fill="none" opacity="100" points="737.0,1176.0 737.0,1153.0" stroke="#7F7F7F" stroke-width="1" /><polyline fill="none" opacity="100" points="733.0,1176.0 733.0,1153.0" stroke="#7F7F7F" stroke-width="1" /><polyline fill="none" opacity="100" points="729.0,1176.0 729.0,1153.0" stroke="#7F7F7F" stroke-width="1" /><polygon fill="#9B5509" opacity="100" points="912.0,1153.0 722.0,1153.0 722.0,1150.0 912.0,1150.0" stroke="#000" stroke-width="1" /><polygon fill="#9B5509" opacity="100" points="912.0,1158.0 912.0,1162.0 722.0,1162.0 722.0,1158.0" stroke="#000" stroke-width="1" /><polygon fill="#9B5509" opacity="100" points="912.0,1167.0 912.0,1171.0 722.0,1171.0 722.0,1167.0" stroke="#000" stroke-width="1" /><polygon fill="#9B5509" opacity="100" points="912.0,1176.0 722.0,1176.0 722.0,1179.0 912.0,1179.0" stroke="#000" stroke-width="1" /><polygon fill="#FFF" opacity="100" points="941.0,1261.0 941.0,1270.0 900.0,1270.0 900.0,1261.0" stroke="#000" stroke-width="1" /><text fill="#FFF" font-family="Arial" font-size="10" font-weight="normal" opacity="100" transform="rotate(-0.0 909.0,1259.0) translate(0 10)" x="909.0" y="1259.0">кассы</text><polygon fill="none" opacity="100" points="944.0,1242.0 944.0,1235.0 951.0,1235.0 951.0,1242.0" stroke="#000" stroke-width="1" /><polyline fill="none" opacity="100" points="912.0,1160.0 976.0,1160.0" stroke="#000" stroke-width="0.5" /><polyline fill="none" opacity="100" points="945.0,1230.0 950.0,1230.0" stroke="#090" stroke-width="1" /><polyline fill="none" opacity="100" points="945.0,1226.0 950.0,1226.0" stroke="#090" stroke-width="1" /><polyline fill="none" opacity="100" points="945.0,1222.0 950.0,1222.0" stroke="#090" stroke-width="1" /><polyline fill="none" opacity="100" points="945.0,1218.0 950.0,1218.0" stroke="#090" stroke-width="1" /><polyline fill="none" opacity="100" points="945.0,1214.0 950.0,1214.0" stroke="#090" stroke-width="1" /><polyline fill="none" opacity="100" points="945.0,1210.0 950.0,1210.0" stroke="#090" stroke-width="1" /><polyline fill="none" opacity="100" points="945.0,1206.0 950.0,1206.0" stroke="#090" stroke-width="1" /><polyline fill="none" opacity="100" points="945.0,1202.0 950.0,1202.0" stroke="#090" stroke-width="1" /><polyline fill="none" opacity="100" points="945.0,1198.0 950.0,1198.0" stroke="#090" stroke-width="1" /><polyline fill="none" opacity="100" points="945.0,1194.0 950.0,1194.0" stroke="#090" stroke-width="1" /><polyline fill="none" opacity="100" points="945.0,1190.0 950.0,1190.0" stroke="#090" stroke-width="1" /><polyline fill="none" opacity="100" points="942.0,1187.0 942.0,1182.0" stroke="#090" stroke-width="1" /><polyline fill="none" opacity="100" points="938.0,1187.0 938.0,1182.0" stroke="#090" stroke-width="1" /><polyline fill="none" opacity="100" points="934.0,1187.0 934.0,1182.0" stroke="#090" stroke-width="1" /><polyline fill="none" opacity="100" points="930.0,1187.0 930.0,1182.0" stroke="#090" stroke-width="1" /><polyline fill="none" opacity="100" points="926.0,1187.0 926.0,1182.0" stroke="#090" stroke-width="1" /><polyline fill="none" opacity="100" points="922.0,1187.0 922.0,1182.0" stroke="#090" stroke-width="1" /><polyline fill="none" opacity="100" points="918.0,1187.0 918.0,1182.0" stroke="#090" stroke-width="1" /><polyline fill="none" opacity="100" points="914.0,1187.0 914.0,1182.0" stroke="#090" stroke-width="1" /><polyline fill="none" opacity="100" points="838.0,1085.0 818.0,1085.0" stroke="#F00" stroke-width="1" /><polygon fill="#F00" opacity="100" points="823.7956,1083.4471 818.0,1085.0 823.7956,1086.5529" stroke="#F00" stroke-width="1" /><polyline fill="none" opacity="100" points="686.0,1155.0 702.0,1155.0" stroke="#F00" stroke-width="1" /><polygon fill="#F00" opacity="100" points="697.3636,1156.2423 702.0,1155.0 697.3636,1153.7577" stroke="#F00" stroke-width="1" /><polyline fill="none" opacity="100" points="702.0,1175.0 686.0,1175.0" stroke="#090" stroke-width="1" /><polygon fill="#090" opacity="100" points="690.6364,1173.7577 686.0,1175.0 690.6364,1176.2423" stroke="#090" stroke-width="1" /><polyline fill="none" opacity="100" points="818.0,1243.0 837.0,1243.0" stroke="#090" stroke-width="1" /><polygon fill="#090" opacity="100" points="831.4942,1244.4753 837.0,1243.0 831.4942,1241.5247" stroke="#090" stroke-width="1" /><polygon fill="#34349C" opacity="100" points="970.0,1169.0 970.0,1173.0 971.0,1173.0 971.0,1169.0" stroke="#34349C" stroke-width="1" /><polygon fill="#F00" opacity="100" points="970.0,1165.0 970.0,1169.0 971.0,1169.0 971.0,1165.0" stroke="#F00" stroke-width="1" /><polyline fill="none" opacity="100" points="98.0,810.0 107.0,810.0 107.0,703.0 117.0,703.0 117.0,817.0 114.0,817.0 114.0,866.0 119.0,866.0" stroke="#000" stroke-width="1" /><polyline fill="none" opacity="100" points="157.0,866.0 162.0,866.0 162.0,817.0 159.0,817.0 159.0,702.0 169.0,702.0 169.0,810.0 178.0,810.0" stroke="#000" stroke-width="1" /><polyline fill="none" opacity="100" points="157.0,938.0 167.0,938.0 167.0,1141.0 314.0,1141.0 314.0,1132.0 270.0,1132.0 270.0,1125.0" stroke="#000" stroke-width="1" /><polyline fill="none" opacity="100" points="119.0,938.0 102.0,938.0 102.0,1188.0 314.0,1188.0 314.0,1199.0 270.0,1199.0 270.0,1205.0" stroke="#000" stroke-width="1" /><polyline fill="none" opacity="100" points="263.0,1141.0 263.0,1188.0" stroke="#000" stroke-width="1" /><polyline fill="none" opacity="100" points="259.0,1141.0 259.0,1188.0" stroke="#000" stroke-width="1" /><polyline fill="none" opacity="100" points="255.0,1141.0 255.0,1188.0" stroke="#000" stroke-width="1" /><polyline fill="none" opacity="100" points="251.0,1141.0 251.0,1188.0" stroke="#000" stroke-width="1" /><polyline fill="none" opacity="100" points="247.0,1141.0 247.0,1188.0" stroke="#000" stroke-width="1" /><polyline fill="none" opacity="100" points="243.0,1141.0 243.0,1188.0" stroke="#000" stroke-width="1" /><polyline fill="none" opacity="100" points="239.0,1141.0 239.0,1188.0" stroke="#000" stroke-width="1" /><polyline fill="none" opacity="100" points="215.0,1141.0 215.0,1188.0" stroke="#000" stroke-width="1" /><polyline fill="none" opacity="100" points="211.0,1141.0 211.0,1188.0" stroke="#000" stroke-width="1" /><polyline fill="none" opacity="100" points="207.0,1141.0 207.0,1188.0" stroke="#000" stroke-width="1" /><polyline fill="none" opacity="100" points="203.0,1141.0 203.0,1188.0" stroke="#000" stroke-width="1" /><polyline fill="none" opacity="100" points="199.0,1141.0 199.0,1188.0" stroke="#000" stroke-width="1" /><polyline fill="none" opacity="100" points="195.0,1141.0 195.0,1188.0" stroke="#000" stroke-width="1" /><polyline fill="none" opacity="100" points="191.0,1141.0 191.0,1188.0" stroke="#000" stroke-width="1" /><polygon fill="#D0D0D0" opacity="100" points="124.0,985.0 148.0,985.0 148.0,1020.0 144.0,1020.0 144.0,1140.0 128.0,1140.0 128.0,1020.0 124.0,1020.0" stroke="#000" stroke-width="1" /><polyline fill="none" opacity="100" points="122.0,942.0 154.0,942.0" stroke="#7F7F7F" stroke-width="1" /><polyline fill="none" opacity="100" points="122.0,938.0 154.0,938.0" stroke="#7F7F7F" stroke-width="1" /><polyline fill="none" opacity="100" points="122.0,934.0 154.0,934.0" stroke="#7F7F7F" stroke-width="1" /><polyline fill="none" opacity="100" points="122.0,930.0 154.0,930.0" stroke="#7F7F7F" stroke-width="1" /><polyline fill="none" opacity="100" points="122.0,926.0 154.0,926.0" stroke="#7F7F7F" stroke-width="1" /><polyline fill="none" opacity="100" points="122.0,922.0 154.0,922.0" stroke="#7F7F7F" stroke-width="1" /><polyline fill="none" opacity="100" points="122.0,918.0 154.0,918.0" stroke="#7F7F7F" stroke-width="1" /><polyline fill="none" opacity="100" points="122.0,914.0 154.0,914.0" stroke="#7F7F7F" stroke-width="1" /><polyline fill="none" opacity="100" points="122.0,910.0 154.0,910.0" stroke="#7F7F7F" stroke-width="1" /><polyline fill="none" opacity="100" points="122.0,906.0 154.0,906.0" stroke="#7F7F7F" stroke-width="1" /><polyline fill="none" opacity="100" points="122.0,902.0 154.0,902.0" stroke="#7F7F7F" stroke-width="1" /><polyline fill="none" opacity="100" points="122.0,898.0 154.0,898.0" stroke="#7F7F7F" stroke-width="1" /><polyline fill="none" opacity="100" points="122.0,894.0 154.0,894.0" stroke="#7F7F7F" stroke-width="1" /><polyline fill="none" opacity="100" points="122.0,890.0 154.0,890.0" stroke="#7F7F7F" stroke-width="1" /><polyline fill="none" opacity="100" points="122.0,886.0 154.0,886.0" stroke="#7F7F7F" stroke-width="1" /><polyline fill="none" opacity="100" points="122.0,882.0 154.0,882.0" stroke="#7F7F7F" stroke-width="1" /><polyline fill="none" opacity="100" points="122.0,878.0 154.0,878.0" stroke="#7F7F7F" stroke-width="1" /><polyline fill="none" opacity="100" points="122.0,874.0 154.0,874.0" stroke="#7F7F7F" stroke-width="1" /><polyline fill="none" opacity="100" points="122.0,870.0 154.0,870.0" stroke="#7F7F7F" stroke-width="1" /><polyline fill="none" opacity="100" points="122.0,866.0 154.0,866.0" stroke="#7F7F7F" stroke-width="1" /><polyline fill="none" opacity="100" points="122.0,862.0 154.0,862.0" stroke="#7F7F7F" stroke-width="1" /><polygon fill="#9B5509" opacity="100" points="119.0,948.0 119.0,858.0 122.0,858.0 122.0,948.0" stroke="#000" stroke-width="1" /><polygon fill="#9B5509" opacity="100" points="127.0,948.0 127.0,858.0 131.0,858.0 131.0,948.0" stroke="#000" stroke-width="1" /><polygon fill="#9B5509" opacity="100" points="136.0,948.0 136.0,858.0 140.0,858.0 140.0,948.0" stroke="#000" stroke-width="1" /><polygon fill="#9B5509" opacity="100" points="145.0,948.0 145.0,858.0 149.0,858.0 149.0,948.0" stroke="#000" stroke-width="1" /><polygon fill="#9B5509" opacity="100" points="154.0,948.0 154.0,858.0 157.0,858.0 157.0,948.0" stroke="#000" stroke-width="1" /><text fill="#00AFAF" font-family="Arial" font-size="15" font-weight="normal" opacity="100" transform="rotate(-90.0 474.0,716.0) translate(0 15)" x="474.0" y="716.0">проспект Мира</text><g transform="rotate(-10.0,465.0,685.0)"><text fill="#FFD900" font-family="Arial" font-size="25" font-weight="normal" opacity="100" x="841.25" y="1202.5">1</text><text fill="#FFD900" font-family="Arial" font-size="25" font-weight="normal" opacity="100" x="423.25" y="167.5">2</text><text fill="#FFD900" font-family="Arial" font-size="25" font-weight="normal" opacity="100" x="329.25" y="288.5">3</text></g></g></g></svg>