<?xml version="1.0" encoding="utf-8" ?>
<svg baseProfile="tiny" height="410px" version="1.2" width="620px" xmlns="http://www.w3.org/2000/svg" xmlns:ev="http://www.w3.org/2001/xml-events" xmlns:xlink="http://www.w3.org/1999/xlink"><defs /><g><g transform="rotate(-30.0,310.0,205.0)"><polygon fill="#FCDC04" opacity="100" points="14.0,155.0 14.0,125.0 463.0,125.0 463.0,155.0" stroke="#000" stroke-width="1" /><polygon fill="#FCDC04" opacity="100" points="14.0,263.0 14.0,233.0 463.0,233.0 463.0,263.0" stroke="#000" stroke-width="1" /><text fill="#000" font-family="Arial" font-size="20" font-weight="normal" opacity="100" transform="rotate(-0.0 17.0,101.0) translate(0 20)" x="17.0" y="101.0">&lt;&lt; Аэропорт Внуково</text><text fill="#000" font-family="Arial" font-size="20" font-weight="normal" opacity="100" transform="rotate(-0.0 333.0,262.0) translate(0 20)" x="333.0" y="262.0">Рассказовка &gt;&gt;</text><text fill="#000" font-family="Arial" font-size="25" font-weight="bold" opacity="100" transform="rotate(-0.0 205.0,169.0) translate(0 25)" x="205.0" y="169.0">Пыхтино</text><text fill="#FCDC04" font-family="Arial" font-size="20" font-weight="normal" opacity="100" transform="rotate(-0.0 16.0,100.0) translate(0 20)" x="16.0" y="100.0">&lt;&lt; Аэропорт Внуково</text><text fill="#FCDC04" font-family="Arial" font-size="20" font-weight="normal" opacity="100" transform="rotate(-0.0 332.0,261.0) translate(0 20)" x="332.0" y="261.0">Рассказовка &gt;&gt;</text><text fill="#FCDC04" font-family="Arial" font-size="25" font-weight="bold" opacity="100" transform="rotate(-0.0 204.0,168.0) translate(0 25)" x="204.0" y="168.0">Пыхтино</text><polyline fill="none" opacity="100" points="14.0,155.0 14.0,233.0" stroke="#000" stroke-width="1" /><polygon fill="#94949C" opacity="100" points="244.0,199.0 244.0,195.0 242.0,195.0 242.0,199.0" stroke="#94949C" stroke-width="1" /><polygon fill="#F00" opacity="100" points="244.0,203.0 244.0,199.0 242.0,199.0 242.0,203.0" stroke="#F00" stroke-width="1" /><polygon fill="#D0D0D0" opacity="100" points="49.0,184.0 72.0,184.0 72.0,206.0 49.0,206.0" stroke="#000" stroke-width="1" /><polyline fill="none" opacity="100" points="463.0,155.0 463.0,176.0 471.0,176.0" stroke="#000" stroke-width="1" /><polyline fill="none" opacity="100" points="463.0,233.0 463.0,212.0 471.0,212.0" stroke="#000" stroke-width="1" /><polyline fill="none" opacity="100" points="565.0,190.0 588.0,190.0 608.0,190.0 617.0,199.0 631.0,199.0" stroke="#000" stroke-width="0.5" /><polyline fill="none" opacity="100" points="593.0,223.0 578.0,223.0" stroke="#000" stroke-width="0.5" /><polygon fill="#D0D0D0" opacity="100" points="418.0,184.0 441.0,184.0 441.0,206.0 418.0,206.0" stroke="#000" stroke-width="1" /><polygon fill="#D0D0D0" opacity="100" points="385.0,184.0 408.0,184.0 408.0,206.0 385.0,206.0" stroke="#000" stroke-width="1" /><polyline fill="none" opacity="100" points="595.0,192.0 599.0,192.0" stroke="#090" stroke-width="1" /><polyline fill="none" opacity="100" points="595.0,196.0 599.0,196.0" stroke="#090" stroke-width="1" /><polyline fill="none" opacity="100" points="595.0,200.0 599.0,200.0" stroke="#090" stroke-width="1" /><polyline fill="none" opacity="100" points="595.0,204.0 599.0,204.0" stroke="#090" stroke-width="1" /><polyline fill="none" opacity="100" points="595.0,208.0 599.0,208.0" stroke="#090" stroke-width="1" /><polyline fill="none" opacity="100" points="595.0,212.0 599.0,212.0" stroke="#090" stroke-width="1" /><polyline fill="none" opacity="100" points="595.0,216.0 599.0,216.0" stroke="#090" stroke-width="1" /><polyline fill="none" opacity="100" points="595.0,220.0 599.0,220.0" stroke="#090" stroke-width="1" /><polyline fill="none" opacity="100" points="595.0,188.0 599.0,188.0" stroke="#F00" stroke-width="1" /><polyline fill="none" opacity="100" points="595.0,184.0 599.0,184.0" stroke="#F00" stroke-width="1" /><polyline fill="none" opacity="100" points="595.0,180.0 599.0,180.0" stroke="#F00" stroke-width="1" /><polyline fill="none" opacity="100" points="595.0,176.0 599.0,176.0" stroke="#F00" stroke-width="1" /><polyline fill="none" opacity="100" points="595.0,172.0 599.0,172.0" stroke="#F00" stroke-width="1" /><polyline fill="none" opacity="100" points="595.0,168.0 599.0,168.0" stroke="#F00" stroke-width="1" /><polyline fill="none" opacity="100" points="595.0,164.0 599.0,164.0" stroke="#F00" stroke-width="1" /><polyline fill="none" opacity="100" points="576.0,227.0 568.0,227.0 568.0,255.0 576.0,255.0" stroke="#000" stroke-width="1" /><text fill="#000" font-family="Arial" font-size="10" font-weight="normal" opacity="100" transform="rotate(90.0 579.0,229.0) translate(0 10)" x="579.0" y="229.0">кассы</text><polyline fill="none" opacity="100" points="554.0,209.0 554.0,179.0" stroke="#7F7F7F" stroke-width="1" /><polyline fill="none" opacity="100" points="550.0,209.0 550.0,179.0" stroke="#7F7F7F" stroke-width="1" /><polyline fill="none" opacity="100" points="546.0,209.0 546.0,179.0" stroke="#7F7F7F" stroke-width="1" /><polyline fill="none" opacity="100" points="542.0,209.0 542.0,179.0" stroke="#7F7F7F" stroke-width="1" /><polyline fill="none" opacity="100" points="538.0,209.0 538.0,179.0" stroke="#7F7F7F" stroke-width="1" /><polyline fill="none" opacity="100" points="534.0,209.0 534.0,179.0" stroke="#7F7F7F" stroke-width="1" /><polyline fill="none" opacity="100" points="530.0,209.0 530.0,179.0" stroke="#7F7F7F" stroke-width="1" /><polyline fill="none" opacity="100" points="526.0,209.0 526.0,179.0" stroke="#7F7F7F" stroke-width="1" /><polyline fill="none" opacity="100" points="522.0,209.0 522.0,179.0" stroke="#7F7F7F" stroke-width="1" /><polyline fill="none" opacity="100" points="518.0,209.0 518.0,179.0" stroke="#7F7F7F" stroke-width="1" /><polyline fill="none" opacity="100" points="514.0,209.0 514.0,179.0" stroke="#7F7F7F" stroke-width="1" /><polyline fill="none" opacity="100" points="510.0,209.0 510.0,179.0" stroke="#7F7F7F" stroke-width="1" /><polyline fill="none" opacity="100" points="506.0,209.0 506.0,179.0" stroke="#7F7F7F" stroke-width="1" /><polyline fill="none" opacity="100" points="502.0,209.0 502.0,179.0" stroke="#7F7F7F" stroke-width="1" /><polyline fill="none" opacity="100" points="498.0,209.0 498.0,179.0" stroke="#7F7F7F" stroke-width="1" /><polyline fill="none" opacity="100" points="494.0,209.0 494.0,179.0" stroke="#7F7F7F" stroke-width="1" /><polyline fill="none" opacity="100" points="490.0,209.0 490.0,179.0" stroke="#7F7F7F" stroke-width="1" /><polyline fill="none" opacity="100" points="486.0,209.0 486.0,179.0" stroke="#7F7F7F" stroke-width="1" /><polyline fill="none" opacity="100" points="482.0,209.0 482.0,179.0" stroke="#7F7F7F" stroke-width="1" /><polyline fill="none" opacity="100" points="478.0,209.0 478.0,179.0" stroke="#7F7F7F" stroke-width="1" /><polygon fill="#9B5509" opacity="100" points="561.0,179.0 471.0,179.0 471.0,176.0 561.0,176.0" stroke="#000" stroke-width="1" /><polygon fill="#9B5509" opacity="100" points="561.0,187.0 561.0,190.0 471.0,190.0 471.0,187.0" stroke="#000" stroke-width="1" /><polygon fill="#9B5509" opacity="100" points="561.0,198.0 561.0,201.0 471.0,201.0 471.0,198.0" stroke="#000" stroke-width="1" /><polygon fill="#9B5509" opacity="100" points="561.0,209.0 471.0,209.0 471.0,212.0 561.0,212.0" stroke="#000" stroke-width="1" /><polygon fill="#D0EFFF" opacity="100" points="418.0,202.0 418.0,188.0 433.0,188.0 433.0,202.0" stroke="#000" stroke-width="1" /><text fill="#000" font-family="Arial" font-size="6" font-weight="normal" opacity="100" transform="rotate(-0.0 419.0,192.0) translate(0 6)" x="419.0" y="192.0">лифт</text><polygon fill="#94949C" opacity="100" points="590.0,230.0 595.0,230.0 595.0,228.0 590.0,228.0" stroke="#94949C" stroke-width="1" /><polygon fill="#F00" opacity="100" points="585.0,230.0 590.0,230.0 590.0,228.0 585.0,228.0" stroke="#F00" stroke-width="1" /><polygon fill="#FFF" opacity="0.7" points="462.0,162.0 492.0,162.0 493.0,224.0 462.0,224.0" stroke="#FFF" stroke-width="1" /><polyline fill="none" opacity="1.0" points="418.0,206.0 418.0,224.0 576.0,224.0 576.0,258.0 632.0,258.0 632.0,213.0" stroke="#000" stroke-width="1" /><polyline fill="none" opacity="1.0" points="418.0,184.0 418.0,162.0 632.0,162.0 632.0,184.0" stroke="#000" stroke-width="1" /><polyline fill="none" opacity="1.0" points="561.0,212.0 561.0,214.0 493.0,214.0 493.0,174.0 561.0,174.0 561.0,176.0" stroke="#000" stroke-width="1" /><text fill="#00AFAF" font-family="Arial" font-size="15" font-weight="normal" opacity="1.0" transform="rotate(-0.0 242.0,33.0) translate(0 15)" x="242.0" y="33.0">Боровское шоссе</text><g transform="rotate(30.0,310.0,205.0)"><text fill="#FFD900" font-family="Arial" font-size="25" font-weight="normal" opacity="1.0" x="592.25" y="25.5">1</text></g></g></g></svg>