<?xml version="1.0" encoding="utf-8" ?>
<svg baseProfile="tiny" height="800px" version="1.2" width="600px" xmlns="http://www.w3.org/2000/svg" xmlns:ev="http://www.w3.org/2001/xml-events" xmlns:xlink="http://www.w3.org/1999/xlink"><defs /><g><g transform="rotate(-67.0,300.0,400.0)"><polygon fill="#FEFBF1" opacity="100" points="-95.0,293.0 34.0,293.0 34.0,320.0 -3.0,320.0 -3.0,416.0 33.0,416.0 33.0,443.0 -95.0,443.0" stroke="#BBB" stroke-width="1" /><polygon fill="#FEFBF1" opacity="100" points="678.0,293.0 678.0,443.0 542.0,443.0 542.0,416.0 586.0,416.0 586.0,320.0 542.0,320.0 542.0,293.0" stroke="#BBB" stroke-width="1" /><polygon fill="#AC24AC" opacity="100" points="62.0,299.0 512.0,299.0 512.0,329.0 62.0,329.0" stroke="#000" stroke-width="1" /><polygon fill="#AC24AC" opacity="100" points="62.0,409.0 512.0,409.0 512.0,439.0 62.0,439.0" stroke="#000" stroke-width="1" /><text fill="#AC24AC" font-family="Arial" font-size="20" font-weight="normal" opacity="100" transform="rotate(-0.0 62.0,273.0) translate(0 20)" x="62.0" y="273.0">&lt;&lt; Кузьминки</text><text fill="#AC24AC" font-family="Arial" font-size="20" font-weight="normal" opacity="100" transform="rotate(-0.0 416.0,439.0) translate(0 20)" x="416.0" y="439.0">Выхино &gt;&gt;</text><text fill="#AC24AC" font-family="Arial" font-size="25" font-weight="bold" opacity="100" transform="rotate(-0.0 175.0,353.0) translate(0 25)" x="175.0" y="353.0">Рязанский проспект</text><polygon fill="#34349C" opacity="100" points="286.0,380.0 286.0,384.0 287.0,384.0 287.0,380.0" stroke="#34349C" stroke-width="1" /><polygon fill="#F00" opacity="100" points="286.0,376.0 286.0,380.0 287.0,380.0 287.0,376.0" stroke="#F00" stroke-width="1" /><polyline fill="none" opacity="100" points="34.0,320.0 -3.0,320.0 -3.0,331.0 56.0,331.0 56.0,337.0 62.0,337.0 62.0,329.0" stroke="#000" stroke-width="1" /><polyline fill="none" opacity="100" points="46.0,397.0 46.0,406.0 56.0,406.0 56.0,400.0 62.0,400.0 62.0,409.0" stroke="#000" stroke-width="1" /><polyline fill="none" opacity="100" points="-3.0,397.0 -3.0,416.0 33.0,416.0" stroke="#000" stroke-width="1" /><polyline fill="none" opacity="100" points="33.0,443.0 -95.0,443.0 -95.0,429.0 -86.0,429.0 -86.0,306.0 -95.0,306.0 -95.0,293.0 34.0,293.0" stroke="#000" stroke-width="1" /><polyline fill="none" opacity="100" points="2.0,331.0 2.0,378.0" stroke="#000" stroke-width="1" /><polyline fill="none" opacity="100" points="6.0,331.0 6.0,378.0" stroke="#000" stroke-width="1" /><polyline fill="none" opacity="100" points="10.0,331.0 10.0,378.0" stroke="#000" stroke-width="1" /><polyline fill="none" opacity="100" points="14.0,331.0 14.0,378.0" stroke="#000" stroke-width="1" /><polyline fill="none" opacity="100" points="18.0,331.0 18.0,378.0" stroke="#000" stroke-width="1" /><polyline fill="none" opacity="100" points="22.0,331.0 22.0,378.0" stroke="#000" stroke-width="1" /><polyline fill="none" opacity="100" points="26.0,331.0 26.0,378.0" stroke="#000" stroke-width="1" /><polyline fill="none" opacity="100" points="30.0,331.0 30.0,378.0" stroke="#000" stroke-width="1" /><polyline fill="none" opacity="100" points="34.0,331.0 34.0,378.0" stroke="#000" stroke-width="1" /><polyline fill="none" opacity="100" points="38.0,331.0 38.0,378.0" stroke="#000" stroke-width="1" /><polyline fill="none" opacity="100" points="42.0,331.0 42.0,378.0" stroke="#000" stroke-width="1" /><polyline fill="none" opacity="100" points="46.0,331.0 46.0,378.0" stroke="#000" stroke-width="1" /><polyline fill="none" opacity="100" points="42.0,393.0 42.0,382.0" stroke="#7F7F7F" stroke-width="1" /><polyline fill="none" opacity="100" points="38.0,393.0 38.0,382.0" stroke="#7F7F7F" stroke-width="1" /><polyline fill="none" opacity="100" points="34.0,393.0 34.0,382.0" stroke="#7F7F7F" stroke-width="1" /><polyline fill="none" opacity="100" points="30.0,393.0 30.0,382.0" stroke="#7F7F7F" stroke-width="1" /><polyline fill="none" opacity="100" points="26.0,393.0 26.0,382.0" stroke="#7F7F7F" stroke-width="1" /><polyline fill="none" opacity="100" points="22.0,393.0 22.0,382.0" stroke="#7F7F7F" stroke-width="1" /><polyline fill="none" opacity="100" points="18.0,393.0 18.0,382.0" stroke="#7F7F7F" stroke-width="1" /><polyline fill="none" opacity="100" points="14.0,393.0 14.0,382.0" stroke="#7F7F7F" stroke-width="1" /><polyline fill="none" opacity="100" points="10.0,393.0 10.0,382.0" stroke="#7F7F7F" stroke-width="1" /><polyline fill="none" opacity="100" points="6.0,393.0 6.0,382.0" stroke="#7F7F7F" stroke-width="1" /><polyline fill="none" opacity="100" points="2.0,393.0 2.0,382.0" stroke="#7F7F7F" stroke-width="1" /><polygon fill="#9B5509" opacity="100" points="49.0,382.0 -5.0,382.0 -5.0,378.0 49.0,378.0" stroke="#000" stroke-width="1" /><polygon fill="#9B5509" opacity="100" points="49.0,393.0 -5.0,393.0 -5.0,397.0 49.0,397.0" stroke="#000" stroke-width="1" /><polygon fill="#FFF" opacity="100" points="-86.0,331.0 -95.0,331.0 -95.0,359.0 -86.0,359.0" stroke="#000" stroke-width="1" /><text fill="#FFF" font-family="Arial" font-size="10" font-weight="normal" opacity="100" transform="rotate(90.0 -83.0,333.0) translate(0 10)" x="-83.0" y="333.0">кассы</text><polyline fill="none" opacity="100" points="-3.0,331.0 -24.0,331.0" stroke="#000" stroke-width="0.5" /><polygon fill="none" opacity="100" points="-55.0,387.0 -50.0,390.0 -53.0,395.0 -58.0,392.0" stroke="#000" stroke-width="1" /><polyline fill="none" opacity="100" points="-56.0,394.0 -86.0,394.0" stroke="#000" stroke-width="0.5" /><polyline fill="none" opacity="100" points="-26.0,330.0 -22.0,332.0" stroke="#090" stroke-width="1" /><polyline fill="none" opacity="100" points="-27.7889,333.5777 -23.7889,335.5777" stroke="#090" stroke-width="1" /><polyline fill="none" opacity="100" points="-29.5777,337.1554 -25.5777,339.1554" stroke="#090" stroke-width="1" /><polyline fill="none" opacity="100" points="-31.3666,340.7331 -27.3666,342.7331" stroke="#090" stroke-width="1" /><polyline fill="none" opacity="100" points="-33.1554,344.3108 -29.1554,346.3108" stroke="#090" stroke-width="1" /><polyline fill="none" opacity="100" points="-34.9443,347.8885 -30.9443,349.8885" stroke="#090" stroke-width="1" /><polyline fill="none" opacity="100" points="-36.7331,351.4663 -32.7331,353.4663" stroke="#090" stroke-width="1" /><polyline fill="none" opacity="100" points="-38.522,355.044 -34.522,357.044" stroke="#090" stroke-width="1" /><polyline fill="none" opacity="100" points="-40.3108,358.6217 -36.3108,360.6217" stroke="#090" stroke-width="1" /><polyline fill="none" opacity="100" points="-42.0997,362.1994 -38.0997,364.1994" stroke="#090" stroke-width="1" /><polyline fill="none" opacity="100" points="-43.8885,365.7771 -39.8885,367.7771" stroke="#090" stroke-width="1" /><polyline fill="none" opacity="100" points="-45.6774,369.3548 -41.6774,371.3548" stroke="#090" stroke-width="1" /><polyline fill="none" opacity="100" points="-47.4663,372.9325 -43.4663,374.9325" stroke="#090" stroke-width="1" /><polyline fill="none" opacity="100" points="-49.2551,376.5102 -45.2551,378.5102" stroke="#090" stroke-width="1" /><polyline fill="none" opacity="100" points="-51.044,380.0879 -47.044,382.0879" stroke="#090" stroke-width="1" /><polyline fill="none" opacity="100" points="-52.8328,383.6656 -48.8328,385.6656" stroke="#090" stroke-width="1" /><polyline fill="none" opacity="100" points="73.0,390.0 55.0,390.0" stroke="#F00" stroke-width="1" /><polygon fill="#F00" opacity="100" points="60.216,388.6024 55.0,390.0 60.216,391.3976" stroke="#F00" stroke-width="1" /><polyline fill="none" opacity="100" points="24.0,430.0 44.0,430.0" stroke="#F00" stroke-width="1" /><polygon fill="#F00" opacity="100" points="38.2044,431.5529 44.0,430.0 38.2044,428.4471" stroke="#F00" stroke-width="1" /><polyline fill="none" opacity="100" points="-21.0,357.0 -2.0,357.0" stroke="#090" stroke-width="1" /><polygon fill="#090" opacity="100" points="-7.5058,358.4753 -2.0,357.0 -7.5058,355.5247" stroke="#090" stroke-width="1" /><polyline fill="none" opacity="100" points="42.0,307.0 21.0,307.0" stroke="#090" stroke-width="1" /><polygon fill="#090" opacity="100" points="27.0853,305.3694 21.0,307.0 27.0853,308.6306" stroke="#090" stroke-width="1" /><polygon fill="#34349C" opacity="100" points="-82.0,383.0 -82.0,379.0 -83.0,379.0 -83.0,383.0" stroke="#34349C" stroke-width="1" /><polygon fill="#F00" opacity="100" points="-82.0,387.0 -82.0,383.0 -83.0,383.0 -83.0,387.0" stroke="#F00" stroke-width="1" /><polyline fill="none" opacity="100" points="542.0,320.0 586.0,320.0 586.0,331.0 518.0,331.0 518.0,337.0 512.0,337.0 512.0,329.0" stroke="#000" stroke-width="1" /><polyline fill="none" opacity="100" points="535.0,397.0 535.0,406.0 518.0,406.0 518.0,400.0 512.0,400.0 512.0,409.0" stroke="#000" stroke-width="1" /><polyline fill="none" opacity="100" points="542.0,416.0 586.0,416.0 586.0,397.0" stroke="#000" stroke-width="1" /><polyline fill="none" opacity="100" points="542.0,443.0 678.0,443.0 678.0,429.0 669.0,429.0 669.0,306.0 678.0,306.0 678.0,293.0 542.0,293.0" stroke="#000" stroke-width="1" /><polyline fill="none" opacity="100" points="535.0,331.0 535.0,378.0" stroke="#000" stroke-width="1" /><polyline fill="none" opacity="100" points="539.0,331.0 539.0,378.0" stroke="#000" stroke-width="1" /><polyline fill="none" opacity="100" points="543.0,331.0 543.0,378.0" stroke="#000" stroke-width="1" /><polyline fill="none" opacity="100" points="547.0,331.0 547.0,378.0" stroke="#000" stroke-width="1" /><polyline fill="none" opacity="100" points="551.0,331.0 551.0,378.0" stroke="#000" stroke-width="1" /><polyline fill="none" opacity="100" points="555.0,331.0 555.0,378.0" stroke="#000" stroke-width="1" /><polyline fill="none" opacity="100" points="559.0,331.0 559.0,378.0" stroke="#000" stroke-width="1" /><polyline fill="none" opacity="100" points="563.0,331.0 563.0,378.0" stroke="#000" stroke-width="1" /><polyline fill="none" opacity="100" points="567.0,331.0 567.0,378.0" stroke="#000" stroke-width="1" /><polyline fill="none" opacity="100" points="571.0,331.0 571.0,378.0" stroke="#000" stroke-width="1" /><polyline fill="none" opacity="100" points="575.0,331.0 575.0,378.0" stroke="#000" stroke-width="1" /><polyline fill="none" opacity="100" points="579.0,331.0 579.0,378.0" stroke="#000" stroke-width="1" /><polyline fill="none" opacity="100" points="583.0,393.0 583.0,382.0" stroke="#7F7F7F" stroke-width="1" /><polyline fill="none" opacity="100" points="579.0,393.0 579.0,382.0" stroke="#7F7F7F" stroke-width="1" /><polyline fill="none" opacity="100" points="575.0,393.0 575.0,382.0" stroke="#7F7F7F" stroke-width="1" /><polyline fill="none" opacity="100" points="571.0,393.0 571.0,382.0" stroke="#7F7F7F" stroke-width="1" /><polyline fill="none" opacity="100" points="567.0,393.0 567.0,382.0" stroke="#7F7F7F" stroke-width="1" /><polyline fill="none" opacity="100" points="563.0,393.0 563.0,382.0" stroke="#7F7F7F" stroke-width="1" /><polyline fill="none" opacity="100" points="559.0,393.0 559.0,382.0" stroke="#7F7F7F" stroke-width="1" /><polyline fill="none" opacity="100" points="555.0,393.0 555.0,382.0" stroke="#7F7F7F" stroke-width="1" /><polyline fill="none" opacity="100" points="551.0,393.0 551.0,382.0" stroke="#7F7F7F" stroke-width="1" /><polyline fill="none" opacity="100" points="547.0,393.0 547.0,382.0" stroke="#7F7F7F" stroke-width="1" /><polyline fill="none" opacity="100" points="543.0,393.0 543.0,382.0" stroke="#7F7F7F" stroke-width="1" /><polyline fill="none" opacity="100" points="539.0,393.0 539.0,382.0" stroke="#7F7F7F" stroke-width="1" /><polyline fill="none" opacity="100" points="535.0,393.0 535.0,382.0" stroke="#7F7F7F" stroke-width="1" /><polyline fill="none" opacity="100" points="531.0,393.0 531.0,382.0" stroke="#7F7F7F" stroke-width="1" /><polygon fill="#9B5509" opacity="100" points="590.0,382.0 525.0,382.0 525.0,378.0 590.0,378.0" stroke="#000" stroke-width="1" /><polygon fill="#9B5509" opacity="100" points="590.0,393.0 525.0,393.0 525.0,397.0 590.0,397.0" stroke="#000" stroke-width="1" /><polygon fill="#FFF" opacity="100" points="669.0,331.0 678.0,331.0 678.0,359.0 669.0,359.0" stroke="#000" stroke-width="1" /><text fill="#FFF" font-family="Arial" font-size="10" font-weight="normal" opacity="100" transform="rotate(90.0 681.0,333.0) translate(0 10)" x="681.0" y="333.0">кассы</text><polyline fill="none" opacity="100" points="586.0,331.0 608.0,331.0" stroke="#000" stroke-width="0.5" /><polygon fill="none" opacity="100" points="639.0,386.0 634.0,389.0 637.0,394.0 642.0,391.0" stroke="#000" stroke-width="1" /><polyline fill="none" opacity="100" points="641.0,394.0 669.0,394.0" stroke="#000" stroke-width="0.5" /><polyline fill="none" opacity="100" points="611.0,331.0 607.0,333.0" stroke="#090" stroke-width="1" /><polyline fill="none" opacity="100" points="612.7332,334.605 608.7332,336.605" stroke="#090" stroke-width="1" /><polyline fill="none" opacity="100" points="614.4664,338.21 610.4664,340.21" stroke="#090" stroke-width="1" /><polyline fill="none" opacity="100" points="616.1995,341.815 612.1995,343.815" stroke="#090" stroke-width="1" /><polyline fill="none" opacity="100" points="617.9327,345.42 613.9327,347.42" stroke="#090" stroke-width="1" /><polyline fill="none" opacity="100" points="619.6659,349.025 615.6659,351.025" stroke="#090" stroke-width="1" /><polyline fill="none" opacity="100" points="621.3991,352.6301 617.3991,354.6301" stroke="#090" stroke-width="1" /><polyline fill="none" opacity="100" points="623.1322,356.2351 619.1322,358.2351" stroke="#090" stroke-width="1" /><polyline fill="none" opacity="100" points="624.8654,359.8401 620.8654,361.8401" stroke="#090" stroke-width="1" /><polyline fill="none" opacity="100" points="626.5986,363.4451 622.5986,365.4451" stroke="#090" stroke-width="1" /><polyline fill="none" opacity="100" points="628.3318,367.0501 624.3318,369.0501" stroke="#090" stroke-width="1" /><polyline fill="none" opacity="100" points="630.065,370.6551 626.065,372.6551" stroke="#090" stroke-width="1" /><polyline fill="none" opacity="100" points="631.7981,374.2601 627.7981,376.2601" stroke="#090" stroke-width="1" /><polyline fill="none" opacity="100" points="633.5313,377.8651 629.5313,379.8651" stroke="#090" stroke-width="1" /><polyline fill="none" opacity="100" points="635.2645,381.4701 631.2645,383.4701" stroke="#090" stroke-width="1" /><polyline fill="none" opacity="100" points="506.0,388.0 525.0,388.0" stroke="#F00" stroke-width="1" /><polygon fill="#F00" opacity="100" points="519.4942,389.4753 525.0,388.0 519.4942,386.5247" stroke="#F00" stroke-width="1" /><polyline fill="none" opacity="100" points="552.0,430.0 529.0,430.0" stroke="#F00" stroke-width="1" /><polygon fill="#F00" opacity="100" points="535.6649,428.2141 529.0,430.0 535.6649,431.7859" stroke="#F00" stroke-width="1" /><polyline fill="none" opacity="100" points="604.0,354.0 584.0,354.0" stroke="#090" stroke-width="1" /><polygon fill="#090" opacity="100" points="589.7956,352.4471 584.0,354.0 589.7956,355.5529" stroke="#090" stroke-width="1" /><polyline fill="none" opacity="100" points="533.0,306.0 561.0,306.0" stroke="#090" stroke-width="1" /><polygon fill="#090" opacity="100" points="552.8862,308.1741 561.0,306.0 552.8862,303.8259" stroke="#090" stroke-width="1" /><polygon fill="#34349C" opacity="100" points="629.0,398.0 625.0,398.0 625.0,399.0 629.0,399.0" stroke="#34349C" stroke-width="1" /><polygon fill="#F00" opacity="100" points="633.0,398.0 629.0,398.0 629.0,399.0 633.0,399.0" stroke="#F00" stroke-width="1" /><text fill="#00AFAF" font-family="Arial" font-size="15" font-weight="normal" opacity="100" transform="rotate(87.0 352.0,479.0) translate(0 15)" x="352.0" y="479.0">Рязанский проспект</text><text fill="#00AFAF" font-family="Arial" font-size="15" font-weight="normal" opacity="100" transform="rotate(87.0 243.0,110.0) translate(0 15)" x="243.0" y="110.0">&lt;&lt; Станция метро ''Окская</text><text fill="#00AFAF" font-family="Arial" font-size="15" font-weight="normal" opacity="100" transform="rotate(-10.0 565.0,533.0) translate(0 15)" x="565.0" y="533.0">4-й Вешняковский проезд</text><text fill="#00AFAF" font-family="Arial" font-size="15" font-weight="normal" opacity="100" transform="rotate(-13.0 659.0,876.0) translate(0 15)" x="659.0" y="876.0">улица Вострухина</text><text fill="#00AFAF" font-family="Arial" font-size="15" font-weight="normal" opacity="100" transform="rotate(-13.0 171.0,1019.0) translate(0 15)" x="171.0" y="1019.0">улица Скрябина</text><g transform="rotate(67.0,300.0,400.0)"><text fill="#FFD900" font-family="Arial" font-size="25" font-weight="normal" opacity="100" x="248.25" y="694.5">2</text><text fill="#FFD900" font-family="Arial" font-size="25" font-weight="normal" opacity="100" x="458.25" y="195.5">1</text></g></g></g></svg>