<?xml version="1.0" encoding="utf-8" ?>
<svg baseProfile="tiny" height="540px" version="1.2" width="770px" xmlns="http://www.w3.org/2000/svg" xmlns:ev="http://www.w3.org/2001/xml-events" xmlns:xlink="http://www.w3.org/1999/xlink"><defs /><g><g transform="rotate(-50.0,385.0,270.0)"><polygon fill="#EEE" opacity="100" points="279.0,288.0 264.0,288.0 264.0,351.0 279.0,351.0 279.0,340.0 271.0,340.0 271.0,304.0 279.0,304.0" stroke="#EEE" stroke-width="1" /><polygon fill="#EEE" opacity="100" points="382.0,288.0 466.0,288.0 466.0,368.0 382.0,368.0 382.0,358.0 417.0,358.0 417.0,298.0 382.0,298.0" stroke="#EEE" stroke-width="1" /><polygon fill="#EEE" opacity="100" points="509.0,288.0 509.0,368.0 596.0,368.0 596.0,358.0 560.0,358.0 560.0,298.0 596.0,298.0 596.0,288.0" stroke="#EEE" stroke-width="1" /><polygon fill="#EEE" opacity="100" points="699.0,288.0 699.0,305.0 707.0,305.0 707.0,341.0 699.0,341.0 699.0,350.0 714.0,350.0 714.0,288.0" stroke="#EEE" stroke-width="1" /><polygon fill="#FEFBF1" opacity="100" points="84.0,76.0 31.0,76.0 31.0,257.0 84.0,257.0" stroke="#DFDFDF" stroke-width="1" /><polygon fill="#E41C0C" opacity="100" points="264.0,288.0 264.0,258.0 714.0,258.0 714.0,288.0" stroke="#000" stroke-width="1" /><polygon fill="#E41C0C" opacity="100" points="264.0,398.0 264.0,368.0 714.0,368.0 714.0,398.0" stroke="#000" stroke-width="1" /><polygon fill="#34349C" opacity="100" points="489.0,333.0 489.0,329.0 490.0,329.0 490.0,333.0" stroke="#34349C" stroke-width="1" /><polygon fill="#F00" opacity="100" points="489.0,337.0 489.0,333.0 490.0,333.0 490.0,337.0" stroke="#F00" stroke-width="1" /><polyline fill="none" opacity="100" points="288.0,358.0 275.0,358.0" stroke="#F00" stroke-width="1" /><polygon fill="#F00" opacity="100" points="278.7671,356.9906 275.0,358.0 278.7671,359.0094" stroke="#F00" stroke-width="1" /><polygon fill="#FFF" opacity="0.8" points="382.0,267.0 279.0,267.0 279.0,304.0 271.0,304.0 271.0,340.0 279.0,340.0 279.0,351.0 255.0,351.0 255.0,366.0 264.0,366.0 264.0,389.0 279.0,389.0 279.0,399.0 316.0,399.0 316.0,389.0 382.0,389.0" stroke="#FFF" stroke-width="1" /><polygon fill="#FFF" opacity="0.8" points="509.0,399.0 509.0,257.0 466.0,257.0 466.0,399.0" stroke="#FFF" stroke-width="1" /><polyline fill="none" opacity="1.0" points="417.0,358.0 382.0,358.0 382.0,389.0 316.0,389.0 316.0,412.0 356.0,412.0" stroke="#000" stroke-width="1" /><polyline fill="none" opacity="1.0" points="356.0,467.0 279.0,467.0 279.0,427.0 261.0,427.0 261.0,430.0 246.0,430.0 246.0,416.0 279.0,416.0 279.0,389.0 264.0,389.0 264.0,366.0 255.0,366.0 255.0,351.0 279.0,351.0 279.0,267.0 382.0,267.0 382.0,298.0 417.0,298.0" stroke="#000" stroke-width="1" /><polygon fill="#D0D0D0" opacity="1.0" points="316.0,412.0 356.0,412.0 356.0,410.0 316.0,410.0" stroke="#000" stroke-width="1" /><polygon fill="#D0D0D0" opacity="1.0" points="279.0,427.0 277.0,427.0 277.0,469.0 356.0,469.0 356.0,467.0 279.0,467.0" stroke="#000" stroke-width="1" /><polygon fill="#FFF" opacity="0.8" points="320.0,410.0 320.0,400.0 264.0,400.0 264.0,479.0 382.0,479.0 382.0,469.0 277.0,469.0 277.0,410.0" stroke="#000" stroke-width="1" /><polyline fill="none" opacity="1.0" points="356.0,412.0 356.0,410.0 277.0,410.0 277.0,469.0 356.0,469.0 356.0,467.0" stroke="#000" stroke-width="1" /><polyline fill="none" opacity="1.0" points="417.0,424.0 382.0,424.0 383.0,422.0 596.0,422.0 596.0,425.0 554.0,425.0" stroke="#000" stroke-width="1" /><polyline fill="none" opacity="1.0" points="255.0,217.0 255.0,177.0 269.0,177.0 370.0,232.0 370.0,250.0 466.0,250.0 466.0,404.0 382.0,404.0 382.0,400.0 264.0,400.0 264.0,479.0 382.0,479.0 382.0,454.0 417.0,454.0" stroke="#000" stroke-width="1" /><polyline fill="none" opacity="1.0" points="264.0,288.0 264.0,351.0" stroke="#000" stroke-width="1" /><polyline fill="none" opacity="1.0" points="414.0,298.0 414.0,358.0" stroke="#000" stroke-width="1" /><polyline fill="none" opacity="1.0" points="410.0,298.0 410.0,358.0" stroke="#000" stroke-width="1" /><polyline fill="none" opacity="1.0" points="406.0,298.0 406.0,358.0" stroke="#000" stroke-width="1" /><polyline fill="none" opacity="1.0" points="402.0,298.0 402.0,358.0" stroke="#000" stroke-width="1" /><polyline fill="none" opacity="1.0" points="398.0,298.0 398.0,358.0" stroke="#000" stroke-width="1" /><polyline fill="none" opacity="1.0" points="394.0,298.0 394.0,358.0" stroke="#000" stroke-width="1" /><polyline fill="none" opacity="1.0" points="390.0,298.0 390.0,358.0" stroke="#000" stroke-width="1" /><polyline fill="none" opacity="1.0" points="386.0,298.0 386.0,358.0" stroke="#000" stroke-width="1" /><polyline fill="none" opacity="1.0" points="414.0,424.0 414.0,454.0" stroke="#000" stroke-width="1" /><polyline fill="none" opacity="1.0" points="410.0,424.0 410.0,454.0" stroke="#000" stroke-width="1" /><polyline fill="none" opacity="1.0" points="406.0,424.0 406.0,454.0" stroke="#000" stroke-width="1" /><polyline fill="none" opacity="1.0" points="402.0,424.0 402.0,454.0" stroke="#000" stroke-width="1" /><polyline fill="none" opacity="1.0" points="398.0,424.0 398.0,454.0" stroke="#000" stroke-width="1" /><polyline fill="none" opacity="1.0" points="394.0,424.0 394.0,454.0" stroke="#000" stroke-width="1" /><polyline fill="none" opacity="1.0" points="390.0,424.0 390.0,454.0" stroke="#000" stroke-width="1" /><polyline fill="none" opacity="1.0" points="386.0,424.0 386.0,454.0" stroke="#000" stroke-width="1" /><polyline fill="none" opacity="1.0" points="352.0,412.0 352.0,440.0" stroke="#000" stroke-width="1" /><polyline fill="none" opacity="1.0" points="348.0,412.0 348.0,440.0" stroke="#000" stroke-width="1" /><polyline fill="none" opacity="1.0" points="344.0,412.0 344.0,440.0" stroke="#000" stroke-width="1" /><polyline fill="none" opacity="1.0" points="340.0,412.0 340.0,440.0" stroke="#000" stroke-width="1" /><polyline fill="none" opacity="1.0" points="336.0,412.0 336.0,440.0" stroke="#000" stroke-width="1" /><polyline fill="none" opacity="1.0" points="332.0,412.0 332.0,440.0" stroke="#000" stroke-width="1" /><polyline fill="none" opacity="1.0" points="352.0,464.0 352.0,441.0" stroke="#7F7F7F" stroke-width="1" /><polyline fill="none" opacity="1.0" points="348.0,464.0 348.0,441.0" stroke="#7F7F7F" stroke-width="1" /><polyline fill="none" opacity="1.0" points="344.0,464.0 344.0,441.0" stroke="#7F7F7F" stroke-width="1" /><polyline fill="none" opacity="1.0" points="340.0,464.0 340.0,441.0" stroke="#7F7F7F" stroke-width="1" /><polyline fill="none" opacity="1.0" points="336.0,464.0 336.0,441.0" stroke="#7F7F7F" stroke-width="1" /><polyline fill="none" opacity="1.0" points="332.0,464.0 332.0,441.0" stroke="#7F7F7F" stroke-width="1" /><polygon fill="#9B5509" opacity="1.0" points="356.0,440.0 356.0,443.0 327.0,443.0 327.0,440.0" stroke="#000" stroke-width="1" /><polygon fill="#9B5509" opacity="1.0" points="356.0,451.0 356.0,456.0 327.0,456.0 327.0,451.0" stroke="#000" stroke-width="1" /><polygon fill="#9B5509" opacity="1.0" points="356.0,464.0 327.0,464.0 327.0,467.0 356.0,467.0" stroke="#000" stroke-width="1" /><polyline fill="none" opacity="1.0" points="279.0,304.0 271.0,304.0 271.0,340.0 279.0,340.0" stroke="#000" stroke-width="1" /><text fill="#FFF" font-family="Arial" font-size="10" font-weight="normal" opacity="1.0" transform="rotate(90.0 281.0,310.0) translate(0 10)" x="281.0" y="310.0">кассы</text><polyline fill="none" opacity="1.0" points="266.0,356.0 259.0,356.0" stroke="#F00" stroke-width="1" /><polyline fill="none" opacity="1.0" points="266.0,360.0 259.0,360.0" stroke="#F00" stroke-width="1" /><polyline fill="none" opacity="1.0" points="344.0,381.0 348.0,381.0" stroke="#F00" stroke-width="1" /><polyline fill="none" opacity="1.0" points="344.0,377.0 348.0,377.0" stroke="#F00" stroke-width="1" /><polyline fill="none" opacity="1.0" points="344.0,373.0 348.0,373.0" stroke="#F00" stroke-width="1" /><polyline fill="none" opacity="1.0" points="344.0,369.0 348.0,369.0" stroke="#F00" stroke-width="1" /><polyline fill="none" opacity="1.0" points="344.0,365.0 348.0,365.0" stroke="#F00" stroke-width="1" /><polyline fill="none" opacity="1.0" points="344.0,361.0 348.0,361.0" stroke="#F00" stroke-width="1" /><polyline fill="none" opacity="1.0" points="344.0,357.0 348.0,357.0" stroke="#F00" stroke-width="1" /><polyline fill="none" opacity="1.0" points="344.0,353.0 348.0,353.0" stroke="#F00" stroke-width="1" /><polyline fill="none" opacity="1.0" points="344.0,349.0 348.0,349.0" stroke="#F00" stroke-width="1" /><polyline fill="none" opacity="1.0" points="344.0,345.0 348.0,345.0" stroke="#F00" stroke-width="1" /><polyline fill="none" opacity="1.0" points="344.0,341.0 348.0,341.0" stroke="#F00" stroke-width="1" /><polyline fill="none" opacity="1.0" points="344.0,337.0 348.0,337.0" stroke="#F00" stroke-width="1" /><polyline fill="none" opacity="1.0" points="344.0,333.0 348.0,333.0" stroke="#F00" stroke-width="1" /><polyline fill="none" opacity="1.0" points="344.0,329.0 348.0,329.0" stroke="#F00" stroke-width="1" /><polyline fill="none" opacity="1.0" points="344.0,325.0 348.0,325.0" stroke="#F00" stroke-width="1" /><polyline fill="none" opacity="1.0" points="344.0,321.0 348.0,321.0" stroke="#F00" stroke-width="1" /><polyline fill="none" opacity="1.0" points="344.0,317.0 348.0,317.0" stroke="#F00" stroke-width="1" /><polyline fill="none" opacity="1.0" points="344.0,313.0 348.0,313.0" stroke="#F00" stroke-width="1" /><polyline fill="none" opacity="1.0" points="344.0,309.0 348.0,309.0" stroke="#F00" stroke-width="1" /><polyline fill="none" opacity="1.0" points="344.0,305.0 348.0,305.0" stroke="#F00" stroke-width="1" /><polyline fill="none" opacity="1.0" points="344.0,301.0 348.0,301.0" stroke="#F00" stroke-width="1" /><polyline fill="none" opacity="1.0" points="344.0,297.0 348.0,297.0" stroke="#F00" stroke-width="1" /><polyline fill="none" opacity="1.0" points="344.0,293.0 348.0,293.0" stroke="#F00" stroke-width="1" /><polyline fill="none" opacity="1.0" points="344.0,289.0 348.0,289.0" stroke="#F00" stroke-width="1" /><polygon fill="none" opacity="1.0" points="349.0,275.0 340.0,275.0 340.0,284.0 349.0,284.0" stroke="#000" stroke-width="1" /><polyline fill="none" opacity="1.0" points="322.0,331.0 309.0,331.0 309.0,342.0" stroke="#F00" stroke-width="1" /><polygon fill="#F00" opacity="1.0" points="308.1459,338.8124 309.0,342.0 309.8541,338.8124" stroke="#F00" stroke-width="1" /><polyline fill="none" opacity="1.0" points="301.0,422.0 301.0,435.0 311.0,435.0" stroke="#F00" stroke-width="1" /><polygon fill="#F00" opacity="1.0" points="308.1022,435.7765 311.0,435.0 308.1022,434.2235" stroke="#F00" stroke-width="1" /><polyline fill="none" opacity="1.0" points="419.0,439.0 432.0,439.0" stroke="#F00" stroke-width="1" /><polygon fill="#F00" opacity="1.0" points="428.2329,440.0094 432.0,439.0 428.2329,437.9906" stroke="#F00" stroke-width="1" /><polygon fill="#D0EFFF" opacity="1.0" points="240.0,351.0 255.0,351.0 255.0,366.0 240.0,366.0" stroke="#000" stroke-width="1" /><text fill="#000" font-family="Arial" font-size="6" font-weight="normal" opacity="1.0" transform="rotate(-0.0 241.0,355.0) translate(0 6)" x="241.0" y="355.0">лифт</text><polygon fill="#D0EFFF" opacity="1.0" points="246.0,430.0 261.0,430.0 261.0,445.0 246.0,445.0" stroke="#000" stroke-width="1" /><text fill="#000" font-family="Arial" font-size="6" font-weight="normal" opacity="1.0" transform="rotate(-0.0 247.0,434.0) translate(0 6)" x="247.0" y="434.0">лифт</text><polygon fill="#FFF" opacity="0.8" points="699.0,267.0 596.0,267.0 596.0,389.0 662.0,389.0 662.0,399.0 699.0,399.0 699.0,389.0 714.0,389.0 714.0,366.0 722.0,366.0 722.0,350.0 699.0,350.0" stroke="#FFF" stroke-width="1" /><polyline fill="none" opacity="1.0" points="560.0,358.0 596.0,358.0 596.0,389.0 662.0,389.0 662.0,412.0 621.0,412.0" stroke="#000" stroke-width="1" /><polyline fill="none" opacity="1.0" points="620.0,467.0 699.0,467.0 699.0,427.0 717.0,427.0 717.0,431.0 733.0,431.0 733.0,416.0 699.0,416.0 699.0,389.0 714.0,389.0 714.0,366.0 722.0,366.0 722.0,350.0 699.0,350.0 699.0,267.0 596.0,267.0 596.0,298.0 560.0,298.0" stroke="#000" stroke-width="1" /><polygon fill="#FFF" opacity="0.8" points="658.0,400.0 714.0,400.0 714.0,479.0 596.0,479.0 596.0,470.0 701.0,469.0 701.0,410.0 658.0,410.0" stroke="#FFF" stroke-width="1" /><polyline fill="none" opacity="1.0" points="621.0,412.0 621.0,410.0 701.0,410.0 701.0,469.0 620.0,469.0 620.0,467.0" stroke="#000" stroke-width="1" /><polyline fill="none" opacity="1.0" points="255.0,119.0 255.0,159.0 281.0,159.0 389.0,221.0 530.0,221.0 530.0,250.0 509.0,250.0 509.0,404.0 596.0,404.0 596.0,400.0 714.0,400.0 714.0,479.0 596.0,479.0 596.0,455.0 554.0,455.0" stroke="#000" stroke-width="1" /><polyline fill="none" opacity="1.0" points="237.0,119.0 237.0,159.0 215.0,159.0 215.0,119.0" stroke="#000" stroke-width="1" /><polyline fill="none" opacity="1.0" points="197.0,119.0 197.0,159.0 175.0,159.0 175.0,119.0" stroke="#000" stroke-width="1" /><polyline fill="none" opacity="1.0" points="157.0,119.0 157.0,159.0 135.0,159.0 135.0,119.0" stroke="#000" stroke-width="1" /><polyline fill="none" opacity="1.0" points="117.0,119.0 117.0,159.0 84.0,159.0 84.0,76.0 31.0,76.0 31.0,257.0 84.0,257.0 84.0,177.0 117.0,177.0 117.0,217.0" stroke="#000" stroke-width="1" /><polyline fill="none" opacity="1.0" points="135.0,217.0 135.0,177.0 156.0,177.0 156.0,217.0" stroke="#000" stroke-width="1" /><polyline fill="none" opacity="1.0" points="175.0,217.0 175.0,177.0 197.0,177.0 197.0,217.0" stroke="#000" stroke-width="1" /><polyline fill="none" opacity="1.0" points="215.0,217.0 215.0,177.0 237.0,177.0 237.0,217.0" stroke="#000" stroke-width="1" /><polyline fill="none" opacity="1.0" points="714.0,288.0 714.0,350.0" stroke="#000" stroke-width="1" /><polyline fill="none" opacity="1.0" points="593.0,298.0 593.0,358.0" stroke="#000" stroke-width="1" /><polyline fill="none" opacity="1.0" points="589.0,298.0 589.0,358.0" stroke="#000" stroke-width="1" /><polyline fill="none" opacity="1.0" points="585.0,298.0 585.0,358.0" stroke="#000" stroke-width="1" /><polyline fill="none" opacity="1.0" points="581.0,298.0 581.0,358.0" stroke="#000" stroke-width="1" /><polyline fill="none" opacity="1.0" points="577.0,298.0 577.0,358.0" stroke="#000" stroke-width="1" /><polyline fill="none" opacity="1.0" points="573.0,298.0 573.0,358.0" stroke="#000" stroke-width="1" /><polyline fill="none" opacity="1.0" points="569.0,298.0 569.0,358.0" stroke="#000" stroke-width="1" /><polyline fill="none" opacity="1.0" points="565.0,298.0 565.0,358.0" stroke="#000" stroke-width="1" /><polyline fill="none" opacity="1.0" points="593.0,425.0 593.0,455.0" stroke="#000" stroke-width="1" /><polyline fill="none" opacity="1.0" points="589.0,425.0 589.0,455.0" stroke="#000" stroke-width="1" /><polyline fill="none" opacity="1.0" points="585.0,425.0 585.0,455.0" stroke="#000" stroke-width="1" /><polyline fill="none" opacity="1.0" points="581.0,425.0 581.0,455.0" stroke="#000" stroke-width="1" /><polyline fill="none" opacity="1.0" points="577.0,425.0 577.0,455.0" stroke="#000" stroke-width="1" /><polyline fill="none" opacity="1.0" points="573.0,425.0 573.0,455.0" stroke="#000" stroke-width="1" /><polyline fill="none" opacity="1.0" points="569.0,425.0 569.0,455.0" stroke="#000" stroke-width="1" /><polyline fill="none" opacity="1.0" points="565.0,425.0 565.0,455.0" stroke="#000" stroke-width="1" /><polyline fill="none" opacity="1.0" points="561.0,425.0 561.0,455.0" stroke="#000" stroke-width="1" /><polyline fill="none" opacity="1.0" points="557.0,425.0 557.0,455.0" stroke="#000" stroke-width="1" /><polyline fill="none" opacity="1.0" points="647.0,412.0 647.0,440.0" stroke="#000" stroke-width="1" /><polyline fill="none" opacity="1.0" points="643.0,412.0 643.0,440.0" stroke="#000" stroke-width="1" /><polyline fill="none" opacity="1.0" points="639.0,412.0 639.0,440.0" stroke="#000" stroke-width="1" /><polyline fill="none" opacity="1.0" points="635.0,412.0 635.0,440.0" stroke="#000" stroke-width="1" /><polyline fill="none" opacity="1.0" points="631.0,412.0 631.0,440.0" stroke="#000" stroke-width="1" /><polyline fill="none" opacity="1.0" points="627.0,412.0 627.0,440.0" stroke="#000" stroke-width="1" /><polyline fill="none" opacity="1.0" points="623.0,412.0 623.0,440.0" stroke="#000" stroke-width="1" /><polyline fill="none" opacity="1.0" points="117.0,121.0 135.0,121.0" stroke="#000" stroke-width="1" /><polyline fill="none" opacity="1.0" points="117.0,125.0 135.0,125.0" stroke="#000" stroke-width="1" /><polyline fill="none" opacity="1.0" points="117.0,129.0 135.0,129.0" stroke="#000" stroke-width="1" /><polyline fill="none" opacity="1.0" points="117.0,133.0 135.0,133.0" stroke="#000" stroke-width="1" /><polyline fill="none" opacity="1.0" points="117.0,137.0 135.0,137.0" stroke="#000" stroke-width="1" /><polyline fill="none" opacity="1.0" points="117.0,141.0 135.0,141.0" stroke="#000" stroke-width="1" /><polyline fill="none" opacity="1.0" points="117.0,145.0 135.0,145.0" stroke="#000" stroke-width="1" /><polyline fill="none" opacity="1.0" points="117.0,149.0 135.0,149.0" stroke="#000" stroke-width="1" /><polyline fill="none" opacity="1.0" points="117.0,153.0 135.0,153.0" stroke="#000" stroke-width="1" /><polyline fill="none" opacity="1.0" points="117.0,157.0 135.0,157.0" stroke="#000" stroke-width="1" /><polyline fill="none" opacity="1.0" points="157.0,121.0 175.0,121.0" stroke="#000" stroke-width="1" /><polyline fill="none" opacity="1.0" points="157.0,125.0 175.0,125.0" stroke="#000" stroke-width="1" /><polyline fill="none" opacity="1.0" points="157.0,129.0 175.0,129.0" stroke="#000" stroke-width="1" /><polyline fill="none" opacity="1.0" points="157.0,133.0 175.0,133.0" stroke="#000" stroke-width="1" /><polyline fill="none" opacity="1.0" points="157.0,137.0 175.0,137.0" stroke="#000" stroke-width="1" /><polyline fill="none" opacity="1.0" points="157.0,141.0 175.0,141.0" stroke="#000" stroke-width="1" /><polyline fill="none" opacity="1.0" points="157.0,145.0 175.0,145.0" stroke="#000" stroke-width="1" /><polyline fill="none" opacity="1.0" points="157.0,149.0 175.0,149.0" stroke="#000" stroke-width="1" /><polyline fill="none" opacity="1.0" points="157.0,153.0 175.0,153.0" stroke="#000" stroke-width="1" /><polyline fill="none" opacity="1.0" points="157.0,157.0 175.0,157.0" stroke="#000" stroke-width="1" /><polyline fill="none" opacity="1.0" points="197.0,121.0 215.0,121.0" stroke="#000" stroke-width="1" /><polyline fill="none" opacity="1.0" points="197.0,125.0 215.0,125.0" stroke="#000" stroke-width="1" /><polyline fill="none" opacity="1.0" points="197.0,129.0 215.0,129.0" stroke="#000" stroke-width="1" /><polyline fill="none" opacity="1.0" points="197.0,133.0 215.0,133.0" stroke="#000" stroke-width="1" /><polyline fill="none" opacity="1.0" points="197.0,137.0 215.0,137.0" stroke="#000" stroke-width="1" /><polyline fill="none" opacity="1.0" points="197.0,141.0 215.0,141.0" stroke="#000" stroke-width="1" /><polyline fill="none" opacity="1.0" points="197.0,145.0 215.0,145.0" stroke="#000" stroke-width="1" /><polyline fill="none" opacity="1.0" points="197.0,149.0 215.0,149.0" stroke="#000" stroke-width="1" /><polyline fill="none" opacity="1.0" points="197.0,153.0 215.0,153.0" stroke="#000" stroke-width="1" /><polyline fill="none" opacity="1.0" points="197.0,157.0 215.0,157.0" stroke="#000" stroke-width="1" /><polyline fill="none" opacity="1.0" points="237.0,121.0 255.0,121.0" stroke="#000" stroke-width="1" /><polyline fill="none" opacity="1.0" points="237.0,125.0 255.0,125.0" stroke="#000" stroke-width="1" /><polyline fill="none" opacity="1.0" points="237.0,129.0 255.0,129.0" stroke="#000" stroke-width="1" /><polyline fill="none" opacity="1.0" points="237.0,133.0 255.0,133.0" stroke="#000" stroke-width="1" /><polyline fill="none" opacity="1.0" points="237.0,137.0 255.0,137.0" stroke="#000" stroke-width="1" /><polyline fill="none" opacity="1.0" points="237.0,141.0 255.0,141.0" stroke="#000" stroke-width="1" /><polyline fill="none" opacity="1.0" points="237.0,145.0 255.0,145.0" stroke="#000" stroke-width="1" /><polyline fill="none" opacity="1.0" points="237.0,149.0 255.0,149.0" stroke="#000" stroke-width="1" /><polyline fill="none" opacity="1.0" points="237.0,153.0 255.0,153.0" stroke="#000" stroke-width="1" /><polyline fill="none" opacity="1.0" points="237.0,157.0 255.0,157.0" stroke="#000" stroke-width="1" /><polyline fill="none" opacity="1.0" points="117.0,215.0 135.0,215.0" stroke="#000" stroke-width="1" /><polyline fill="none" opacity="1.0" points="117.0,211.0 135.0,211.0" stroke="#000" stroke-width="1" /><polyline fill="none" opacity="1.0" points="117.0,207.0 135.0,207.0" stroke="#000" stroke-width="1" /><polyline fill="none" opacity="1.0" points="117.0,203.0 135.0,203.0" stroke="#000" stroke-width="1" /><polyline fill="none" opacity="1.0" points="117.0,199.0 135.0,199.0" stroke="#000" stroke-width="1" /><polyline fill="none" opacity="1.0" points="117.0,195.0 135.0,195.0" stroke="#000" stroke-width="1" /><polyline fill="none" opacity="1.0" points="117.0,191.0 135.0,191.0" stroke="#000" stroke-width="1" /><polyline fill="none" opacity="1.0" points="117.0,187.0 135.0,187.0" stroke="#000" stroke-width="1" /><polyline fill="none" opacity="1.0" points="117.0,183.0 135.0,183.0" stroke="#000" stroke-width="1" /><polyline fill="none" opacity="1.0" points="117.0,179.0 135.0,179.0" stroke="#000" stroke-width="1" /><polyline fill="none" opacity="1.0" points="156.0,215.0 175.0,215.0" stroke="#000" stroke-width="1" /><polyline fill="none" opacity="1.0" points="156.0,211.0 175.0,211.0" stroke="#000" stroke-width="1" /><polyline fill="none" opacity="1.0" points="156.0,207.0 175.0,207.0" stroke="#000" stroke-width="1" /><polyline fill="none" opacity="1.0" points="156.0,203.0 175.0,203.0" stroke="#000" stroke-width="1" /><polyline fill="none" opacity="1.0" points="156.0,199.0 175.0,199.0" stroke="#000" stroke-width="1" /><polyline fill="none" opacity="1.0" points="156.0,195.0 175.0,195.0" stroke="#000" stroke-width="1" /><polyline fill="none" opacity="1.0" points="156.0,191.0 175.0,191.0" stroke="#000" stroke-width="1" /><polyline fill="none" opacity="1.0" points="156.0,187.0 175.0,187.0" stroke="#000" stroke-width="1" /><polyline fill="none" opacity="1.0" points="156.0,183.0 175.0,183.0" stroke="#000" stroke-width="1" /><polyline fill="none" opacity="1.0" points="156.0,179.0 175.0,179.0" stroke="#000" stroke-width="1" /><polyline fill="none" opacity="1.0" points="197.0,215.0 215.0,215.0" stroke="#000" stroke-width="1" /><polyline fill="none" opacity="1.0" points="197.0,211.0 215.0,211.0" stroke="#000" stroke-width="1" /><polyline fill="none" opacity="1.0" points="197.0,207.0 215.0,207.0" stroke="#000" stroke-width="1" /><polyline fill="none" opacity="1.0" points="197.0,203.0 215.0,203.0" stroke="#000" stroke-width="1" /><polyline fill="none" opacity="1.0" points="197.0,199.0 215.0,199.0" stroke="#000" stroke-width="1" /><polyline fill="none" opacity="1.0" points="197.0,195.0 215.0,195.0" stroke="#000" stroke-width="1" /><polyline fill="none" opacity="1.0" points="197.0,191.0 215.0,191.0" stroke="#000" stroke-width="1" /><polyline fill="none" opacity="1.0" points="197.0,187.0 215.0,187.0" stroke="#000" stroke-width="1" /><polyline fill="none" opacity="1.0" points="197.0,183.0 215.0,183.0" stroke="#000" stroke-width="1" /><polyline fill="none" opacity="1.0" points="197.0,179.0 215.0,179.0" stroke="#000" stroke-width="1" /><polyline fill="none" opacity="1.0" points="237.0,215.0 255.0,215.0" stroke="#000" stroke-width="1" /><polyline fill="none" opacity="1.0" points="237.0,211.0 255.0,211.0" stroke="#000" stroke-width="1" /><polyline fill="none" opacity="1.0" points="237.0,207.0 255.0,207.0" stroke="#000" stroke-width="1" /><polyline fill="none" opacity="1.0" points="237.0,203.0 255.0,203.0" stroke="#000" stroke-width="1" /><polyline fill="none" opacity="1.0" points="237.0,199.0 255.0,199.0" stroke="#000" stroke-width="1" /><polyline fill="none" opacity="1.0" points="237.0,195.0 255.0,195.0" stroke="#000" stroke-width="1" /><polyline fill="none" opacity="1.0" points="237.0,191.0 255.0,191.0" stroke="#000" stroke-width="1" /><polyline fill="none" opacity="1.0" points="237.0,187.0 255.0,187.0" stroke="#000" stroke-width="1" /><polyline fill="none" opacity="1.0" points="237.0,183.0 255.0,183.0" stroke="#000" stroke-width="1" /><polyline fill="none" opacity="1.0" points="237.0,179.0 255.0,179.0" stroke="#000" stroke-width="1" /><polygon fill="#D0D0D0" opacity="1.0" points="662.0,412.0 662.0,410.0 621.0,410.0 621.0,412.0" stroke="#000" stroke-width="1" /><polygon fill="#D0D0D0" opacity="1.0" points="620.0,469.0 620.0,467.0 699.0,467.0 699.0,427.0 701.0,427.0 701.0,469.0" stroke="#000" stroke-width="1" /><polyline fill="none" opacity="1.0" points="647.0,464.0 647.0,442.0" stroke="#7F7F7F" stroke-width="1" /><polyline fill="none" opacity="1.0" points="643.0,464.0 643.0,442.0" stroke="#7F7F7F" stroke-width="1" /><polyline fill="none" opacity="1.0" points="639.0,464.0 639.0,442.0" stroke="#7F7F7F" stroke-width="1" /><polyline fill="none" opacity="1.0" points="635.0,464.0 635.0,442.0" stroke="#7F7F7F" stroke-width="1" /><polyline fill="none" opacity="1.0" points="631.0,464.0 631.0,442.0" stroke="#7F7F7F" stroke-width="1" /><polyline fill="none" opacity="1.0" points="627.0,464.0 627.0,442.0" stroke="#7F7F7F" stroke-width="1" /><polyline fill="none" opacity="1.0" points="623.0,464.0 623.0,442.0" stroke="#7F7F7F" stroke-width="1" /><polygon fill="#9B5509" opacity="1.0" points="652.0,440.0 652.0,443.0 620.0,443.0 620.0,440.0" stroke="#000" stroke-width="1" /><polygon fill="#9B5509" opacity="1.0" points="652.0,451.0 652.0,456.0 620.0,456.0 620.0,451.0" stroke="#000" stroke-width="1" /><polygon fill="#9B5509" opacity="1.0" points="652.0,464.0 620.0,464.0 620.0,467.0 652.0,467.0" stroke="#000" stroke-width="1" /><polyline fill="none" opacity="1.0" points="699.0,305.0 707.0,305.0 707.0,341.0 699.0,341.0" stroke="#000" stroke-width="1" /><text fill="#FFF" font-family="Arial" font-size="10" font-weight="normal" opacity="1.0" transform="rotate(90.0 709.0,310.0) translate(0 10)" x="709.0" y="310.0">кассы</text><polyline fill="none" opacity="1.0" points="636.0,365.0 632.0,365.0" stroke="#090" stroke-width="1" /><polyline fill="none" opacity="1.0" points="636.0,361.0 632.0,361.0" stroke="#090" stroke-width="1" /><polyline fill="none" opacity="1.0" points="636.0,357.0 632.0,357.0" stroke="#090" stroke-width="1" /><polyline fill="none" opacity="1.0" points="636.0,353.0 632.0,353.0" stroke="#090" stroke-width="1" /><polyline fill="none" opacity="1.0" points="636.0,349.0 632.0,349.0" stroke="#090" stroke-width="1" /><polyline fill="none" opacity="1.0" points="636.0,345.0 632.0,345.0" stroke="#090" stroke-width="1" /><polyline fill="none" opacity="1.0" points="636.0,341.0 632.0,341.0" stroke="#090" stroke-width="1" /><polyline fill="none" opacity="1.0" points="636.0,337.0 632.0,337.0" stroke="#090" stroke-width="1" /><polyline fill="none" opacity="1.0" points="636.0,333.0 632.0,333.0" stroke="#090" stroke-width="1" /><polyline fill="none" opacity="1.0" points="636.0,329.0 632.0,329.0" stroke="#090" stroke-width="1" /><polyline fill="none" opacity="1.0" points="636.0,325.0 632.0,325.0" stroke="#090" stroke-width="1" /><polyline fill="none" opacity="1.0" points="636.0,321.0 632.0,321.0" stroke="#090" stroke-width="1" /><polyline fill="none" opacity="1.0" points="636.0,317.0 632.0,317.0" stroke="#090" stroke-width="1" /><polyline fill="none" opacity="1.0" points="636.0,313.0 632.0,313.0" stroke="#090" stroke-width="1" /><polyline fill="none" opacity="1.0" points="636.0,309.0 632.0,309.0" stroke="#090" stroke-width="1" /><polyline fill="none" opacity="1.0" points="636.0,305.0 632.0,305.0" stroke="#090" stroke-width="1" /><polyline fill="none" opacity="1.0" points="636.0,301.0 632.0,301.0" stroke="#090" stroke-width="1" /><polyline fill="none" opacity="1.0" points="636.0,297.0 632.0,297.0" stroke="#090" stroke-width="1" /><polyline fill="none" opacity="1.0" points="636.0,293.0 632.0,293.0" stroke="#090" stroke-width="1" /><polyline fill="none" opacity="1.0" points="636.0,289.0 632.0,289.0" stroke="#090" stroke-width="1" /><polyline fill="none" opacity="1.0" points="636.0,285.0 632.0,285.0" stroke="#090" stroke-width="1" /><polyline fill="none" opacity="1.0" points="636.0,281.0 632.0,281.0" stroke="#090" stroke-width="1" /><polyline fill="none" opacity="1.0" points="636.0,277.0 632.0,277.0" stroke="#090" stroke-width="1" /><polyline fill="none" opacity="1.0" points="636.0,273.0 632.0,273.0" stroke="#090" stroke-width="1" /><polyline fill="none" opacity="1.0" points="711.0,356.0 717.0,356.0" stroke="#090" stroke-width="1" /><polyline fill="none" opacity="1.0" points="711.0,360.0 717.0,360.0" stroke="#090" stroke-width="1" /><polygon fill="none" opacity="1.0" points="643.0,371.0 643.0,381.0 633.0,381.0 633.0,371.0" stroke="#000" stroke-width="1" /><polyline fill="none" opacity="1.0" points="667.0,325.0 652.0,325.0" stroke="#090" stroke-width="1" /><polygon fill="#090" opacity="1.0" points="656.3467,323.8353 652.0,325.0 656.3467,326.1647" stroke="#090" stroke-width="1" /><polyline fill="none" opacity="1.0" points="672.0,433.0 682.0,433.0 682.0,416.0" stroke="#090" stroke-width="1" /><polygon fill="#090" opacity="1.0" points="683.32,420.9262 682.0,416.0 680.68,420.9262" stroke="#090" stroke-width="1" /><polyline fill="none" opacity="1.0" points="532.0,440.0 549.0,440.0" stroke="#090" stroke-width="1" /><polygon fill="#090" opacity="1.0" points="544.0738,441.32 549.0,440.0 544.0738,438.68" stroke="#090" stroke-width="1" /><polygon fill="#D0EFFF" opacity="1.0" points="738.0,350.0 722.0,350.0 722.0,366.0 738.0,366.0" stroke="#000" stroke-width="1" /><text fill="#000" font-family="Arial" font-size="6" font-weight="normal" opacity="1.0" transform="rotate(-0.0 724.0,355.0) translate(0 6)" x="724.0" y="355.0">лифт</text><polygon fill="#D0EFFF" opacity="1.0" points="733.0,431.0 717.0,431.0 717.0,447.0 733.0,447.0" stroke="#000" stroke-width="1" /><text fill="#000" font-family="Arial" font-size="6" font-weight="normal" opacity="1.0" transform="rotate(-0.0 719.0,436.0) translate(0 6)" x="719.0" y="436.0">лифт</text><polygon fill="#FFD0D0" opacity="0.7" points="271.0,304.0 271.0,340.0 279.0,340.0 279.0,304.0" stroke="#FFD0D0" stroke-width="1" /><polyline fill="none" opacity="1.0" points="271.0,304.0 271.0,340.0 279.0,340.0 279.0,304.0 271.0,304.0" stroke="#FF4040" stroke-dasharray="5,5" stroke-width="1" /><text fill="#000" font-family="Arial" font-size="15" font-weight="normal" opacity="1.0" transform="rotate(90.0 68.0,84.0) translate(0 15)" x="68.0" y="84.0">Автовокзал "Саларьево"</text><text fill="#E41C0C" font-family="Arial" font-size="20" font-weight="normal" opacity="1.0" transform="rotate(-0.0 271.0,233.0) translate(0 20)" x="271.0" y="233.0">&lt;&lt; тупик</text><text fill="#E41C0C" font-family="Arial" font-size="20" font-weight="normal" opacity="1.0" transform="rotate(-0.0 612.0,362.0) translate(0 20)" x="612.0" y="362.0">Румянцево &gt;&gt;</text><text fill="#E41C0C" font-family="Arial" font-size="25" font-weight="bold" opacity="1.0" transform="rotate(-0.0 428.0,298.0) translate(0 25)" x="428.0" y="298.0">Саларьево</text><g transform="rotate(50.0,385.0,270.0)"><text fill="#FFD900" font-family="Arial" font-size="25" font-weight="normal" opacity="1.0" x="576.25" y="314.5">1</text><text fill="#FFD900" font-family="Arial" font-size="25" font-weight="normal" opacity="1.0" x="255.25" y="366.5">2a</text><text fill="#FFD900" font-family="Arial" font-size="25" font-weight="normal" opacity="1.0" x="148.25" y="274.5">2b</text><text fill="#FFD900" font-family="Arial" font-size="25" font-weight="normal" opacity="1.0" x="228.25" y="397.5">3a</text><text fill="#FFD900" font-family="Arial" font-size="25" font-weight="normal" opacity="1.0" x="123.25" y="305.5">3b</text><text fill="#FFD900" font-family="Arial" font-size="25" font-weight="normal" opacity="1.0" x="203.25" y="428.5">4a</text><text fill="#FFD900" font-family="Arial" font-size="25" font-weight="normal" opacity="1.0" x="97.25" y="336.5">4b</text><text fill="#FFD900" font-family="Arial" font-size="25" font-weight="normal" opacity="1.0" x="177.25" y="459.5">5a</text><text fill="#FFD900" font-family="Arial" font-size="25" font-weight="normal" opacity="1.0" x="71.25" y="367.5">5b</text><text fill="#FFD900" font-family="Arial" font-size="25" font-weight="normal" opacity="1.0" x="129.25" y="465.5">6</text></g></g></g></svg>