<?xml version="1.0" encoding="utf-8" ?>
<svg baseProfile="tiny" height="1100px" version="1.2" width="460px" xmlns="http://www.w3.org/2000/svg" xmlns:ev="http://www.w3.org/2001/xml-events" xmlns:xlink="http://www.w3.org/1999/xlink"><defs /><g><g transform="rotate(-90.0,230.0,550.0)"><polygon fill="#34349C" opacity="100" points="9.0,425.0 9.0,395.0 459.0,395.0 459.0,425.0" stroke="#000" stroke-width="1" /><polygon fill="#34349C" opacity="100" points="9.0,535.0 9.0,505.0 459.0,505.0 459.0,535.0" stroke="#000" stroke-width="1" /><text fill="#34349C" font-family="Arial" font-size="20" font-weight="normal" opacity="100" transform="rotate(-0.0 14.0,372.0) translate(0 20)" x="14.0" y="372.0">&lt;&lt; Первомайская</text><text fill="#34349C" font-family="Arial" font-size="20" font-weight="normal" opacity="100" transform="rotate(-0.0 329.0,535.0) translate(0 20)" x="329.0" y="535.0">посадки нет &gt;&gt;</text><text fill="#34349C" font-family="Arial" font-size="25" font-weight="bold" opacity="100" transform="rotate(-0.0 161.0,441.0) translate(0 25)" x="161.0" y="441.0">Щёлковская</text><polygon fill="#34349C" opacity="100" points="253.0,467.0 253.0,471.0 251.0,471.0 251.0,467.0" stroke="#34349C" stroke-width="1" /><polygon fill="#F00" opacity="100" points="253.0,463.0 253.0,467.0 251.0,467.0 251.0,463.0" stroke="#F00" stroke-width="1" /><polyline fill="none" opacity="100" points="9.0,506.0 9.0,492.0 -48.0,492.0 -48.0,523.0 -131.0,523.0 -131.0,589.0 -189.0,589.0" stroke="#000" stroke-width="1" /><polyline fill="none" opacity="100" points="-189.0,571.0 -149.0,571.0 -149.0,362.0 -189.0,362.0" stroke="#000" stroke-width="1" /><polyline fill="none" opacity="100" points="-189.0,344.0 -131.0,344.0 -131.0,407.0 -48.0,407.0 -48.0,438.0 9.0,438.0 9.0,425.0" stroke="#000" stroke-width="1" /><polyline fill="none" opacity="100" points="-189.0,585.0 -149.0,585.0" stroke="#000" stroke-width="0.5" /><polyline fill="none" opacity="100" points="-187.0,362.0 -187.0,344.0" stroke="#000" stroke-width="1" /><polyline fill="none" opacity="100" points="-183.0,362.0 -183.0,344.0" stroke="#000" stroke-width="1" /><polyline fill="none" opacity="100" points="-179.0,362.0 -179.0,344.0" stroke="#000" stroke-width="1" /><polyline fill="none" opacity="100" points="-175.0,362.0 -175.0,344.0" stroke="#000" stroke-width="1" /><polyline fill="none" opacity="100" points="-171.0,362.0 -171.0,344.0" stroke="#000" stroke-width="1" /><polyline fill="none" opacity="100" points="-167.0,362.0 -167.0,344.0" stroke="#000" stroke-width="1" /><polyline fill="none" opacity="100" points="-163.0,362.0 -163.0,344.0" stroke="#000" stroke-width="1" /><polyline fill="none" opacity="100" points="-159.0,362.0 -159.0,344.0" stroke="#000" stroke-width="1" /><polyline fill="none" opacity="100" points="-155.0,362.0 -155.0,344.0" stroke="#000" stroke-width="1" /><polyline fill="none" opacity="100" points="-151.0,362.0 -151.0,344.0" stroke="#000" stroke-width="1" /><polyline fill="none" opacity="100" points="-187.0,571.0 -187.0,585.0" stroke="#000" stroke-width="1" /><polyline fill="none" opacity="100" points="-183.0,571.0 -183.0,585.0" stroke="#000" stroke-width="1" /><polyline fill="none" opacity="100" points="-179.0,571.0 -179.0,585.0" stroke="#000" stroke-width="1" /><polyline fill="none" opacity="100" points="-175.0,571.0 -175.0,585.0" stroke="#000" stroke-width="1" /><polyline fill="none" opacity="100" points="-171.0,571.0 -171.0,585.0" stroke="#000" stroke-width="1" /><polyline fill="none" opacity="100" points="-167.0,571.0 -167.0,585.0" stroke="#000" stroke-width="1" /><polyline fill="none" opacity="100" points="-163.0,571.0 -163.0,585.0" stroke="#000" stroke-width="1" /><polyline fill="none" opacity="100" points="-159.0,571.0 -159.0,585.0" stroke="#000" stroke-width="1" /><polyline fill="none" opacity="100" points="-155.0,571.0 -155.0,585.0" stroke="#000" stroke-width="1" /><polyline fill="none" opacity="100" points="-151.0,571.0 -151.0,585.0" stroke="#000" stroke-width="1" /><polyline fill="none" opacity="100" points="-33.0,438.0 -33.0,492.0" stroke="#000" stroke-width="1" /><polyline fill="none" opacity="100" points="-29.0,438.0 -29.0,492.0" stroke="#000" stroke-width="1" /><polyline fill="none" opacity="100" points="-25.0,438.0 -25.0,492.0" stroke="#000" stroke-width="1" /><polyline fill="none" opacity="100" points="-21.0,438.0 -21.0,492.0" stroke="#000" stroke-width="1" /><polyline fill="none" opacity="100" points="-17.0,438.0 -17.0,492.0" stroke="#000" stroke-width="1" /><polyline fill="none" opacity="100" points="-13.0,438.0 -13.0,492.0" stroke="#000" stroke-width="1" /><polyline fill="none" opacity="100" points="-9.0,438.0 -9.0,492.0" stroke="#000" stroke-width="1" /><polyline fill="none" opacity="100" points="-5.0,438.0 -5.0,492.0" stroke="#000" stroke-width="1" /><polyline fill="none" opacity="100" points="-1.0,438.0 -1.0,492.0" stroke="#000" stroke-width="1" /><polyline fill="none" opacity="100" points="3.0,438.0 3.0,492.0" stroke="#000" stroke-width="1" /><polygon fill="#D0D0D0" opacity="100" points="-131.0,433.0 -118.0,433.0 -118.0,501.0 -131.0,501.0" stroke="#000" stroke-width="1" /><polygon fill="#FFF" opacity="100" points="-126.0,454.0 -126.0,482.0 -118.0,482.0 -118.0,454.0" stroke="#000" stroke-width="1" /><text fill="#FFF" font-family="Arial" font-size="10" font-weight="normal" opacity="100" transform="rotate(90.0 -116.0,456.0) translate(0 10)" x="-116.0" y="456.0">кассы</text><polyline fill="none" opacity="100" points="-48.0,435.0 -78.0,435.0" stroke="#000" stroke-width="0.5" /><polygon fill="none" opacity="100" points="-81.0,434.0 -76.0,437.0 -79.0,442.0 -84.0,439.0" stroke="#000" stroke-width="1" /><polyline fill="none" opacity="100" points="-102.0,520.0 -102.0,523.0" stroke="#000" stroke-width="0.5" /><polyline fill="none" opacity="100" points="-118.0,484.0 -104.0,484.0" stroke="#000" stroke-width="0.5" /><polyline fill="none" opacity="100" points="-86.0,443.0 -82.0,445.0" stroke="#090" stroke-width="1" /><polyline fill="none" opacity="100" points="-87.6762,446.6318 -83.6762,448.6318" stroke="#090" stroke-width="1" /><polyline fill="none" opacity="100" points="-89.3525,450.2637 -85.3525,452.2637" stroke="#090" stroke-width="1" /><polyline fill="none" opacity="100" points="-91.0287,453.8955 -87.0287,455.8955" stroke="#090" stroke-width="1" /><polyline fill="none" opacity="100" points="-92.7049,457.5274 -88.7049,459.5274" stroke="#090" stroke-width="1" /><polyline fill="none" opacity="100" points="-94.3812,461.1592 -90.3812,463.1592" stroke="#090" stroke-width="1" /><polyline fill="none" opacity="100" points="-96.0574,464.791 -92.0574,466.791" stroke="#090" stroke-width="1" /><polyline fill="none" opacity="100" points="-97.7336,468.4229 -93.7336,470.4229" stroke="#090" stroke-width="1" /><polyline fill="none" opacity="100" points="-99.4099,472.0547 -95.4099,474.0547" stroke="#090" stroke-width="1" /><polyline fill="none" opacity="100" points="-101.0861,475.6865 -97.0861,477.6865" stroke="#090" stroke-width="1" /><polyline fill="none" opacity="100" points="-102.7623,479.3184 -98.7623,481.3184" stroke="#090" stroke-width="1" /><polyline fill="none" opacity="100" points="-104.0,484.0 -100.0,484.0" stroke="#F00" stroke-width="1" /><polyline fill="none" opacity="100" points="-104.0,488.0 -100.0,488.0" stroke="#F00" stroke-width="1" /><polyline fill="none" opacity="100" points="-104.0,492.0 -100.0,492.0" stroke="#F00" stroke-width="1" /><polyline fill="none" opacity="100" points="-104.0,496.0 -100.0,496.0" stroke="#F00" stroke-width="1" /><polyline fill="none" opacity="100" points="-104.0,500.0 -100.0,500.0" stroke="#F00" stroke-width="1" /><polyline fill="none" opacity="100" points="-104.0,504.0 -100.0,504.0" stroke="#F00" stroke-width="1" /><polyline fill="none" opacity="100" points="-104.0,508.0 -100.0,508.0" stroke="#F00" stroke-width="1" /><polyline fill="none" opacity="100" points="-104.0,512.0 -100.0,512.0" stroke="#F00" stroke-width="1" /><polyline fill="none" opacity="100" points="-104.0,516.0 -100.0,516.0" stroke="#F00" stroke-width="1" /><polyline fill="none" opacity="100" points="-104.0,520.0 -100.0,520.0" stroke="#F00" stroke-width="1" /><polyline fill="none" opacity="100" points="-118.0,512.0 -133.0,512.0" stroke="#F00" stroke-width="1" /><polygon fill="#F00" opacity="100" points="-128.6533,510.8353 -133.0,512.0 -128.6533,513.1647" stroke="#F00" stroke-width="1" /><polyline fill="none" opacity="100" points="-133.0,420.0 -118.0,420.0" stroke="#090" stroke-width="1" /><polygon fill="#090" opacity="100" points="-122.3467,421.1647 -118.0,420.0 -122.3467,418.8353" stroke="#090" stroke-width="1" /><polygon fill="#34349C" opacity="100" points="33.0,438.0 38.0,438.0 38.0,436.0 33.0,436.0" stroke="#34349C" stroke-width="1" /><polygon fill="#F00" opacity="100" points="28.0,438.0 33.0,438.0 33.0,436.0 28.0,436.0" stroke="#F00" stroke-width="1" /><polyline fill="none" opacity="100" points="429.0,344.0 489.0,344.0 489.0,338.0 583.0,338.0 583.0,344.0 643.0,344.0" stroke="#000" stroke-width="1" /><polyline fill="none" opacity="100" points="429.0,362.0 502.0,362.0 512.0,372.0 512.0,395.0 508.0,395.0 508.0,437.0 459.0,437.0 459.0,425.0" stroke="#000" stroke-width="1" /><polyline fill="none" opacity="100" points="459.0,506.0 459.0,492.0 508.0,492.0 508.0,536.0 512.0,536.0 512.0,560.0 502.0,570.0 451.0,570.0 438.0,583.0 438.0,634.0" stroke="#000" stroke-width="1" /><polyline fill="none" opacity="100" points="456.0,634.0 456.0,591.0 459.0,588.0 489.0,588.0 489.0,594.0 583.0,594.0 583.0,588.0 643.0,588.0" stroke="#000" stroke-width="1" /><polyline fill="none" opacity="100" points="643.0,570.0 572.0,570.0 562.0,560.0 562.0,495.0 573.0,495.0 573.0,434.0 562.0,434.0 562.0,372.0 572.0,362.0 643.0,362.0" stroke="#000" stroke-width="1" /><polyline fill="none" opacity="100" points="429.0,358.0 469.0,358.0" stroke="#000" stroke-width="0.5" /><polyline fill="none" opacity="100" points="643.0,348.0 603.0,348.0" stroke="#000" stroke-width="0.5" /><polyline fill="none" opacity="100" points="643.0,574.0 603.0,574.0" stroke="#000" stroke-width="0.5" /><polyline fill="none" opacity="100" points="442.0,634.0 442.0,594.0" stroke="#000" stroke-width="0.5" /><polyline fill="none" opacity="100" points="462.0,574.0 482.0,574.0" stroke="#000" stroke-width="0.5" /><polyline fill="none" opacity="100" points="456.0,632.0 442.0,632.0" stroke="#000" stroke-width="1" /><polyline fill="none" opacity="100" points="456.0,628.0 442.0,628.0" stroke="#000" stroke-width="1" /><polyline fill="none" opacity="100" points="456.0,624.0 442.0,624.0" stroke="#000" stroke-width="1" /><polyline fill="none" opacity="100" points="456.0,620.0 442.0,620.0" stroke="#000" stroke-width="1" /><polyline fill="none" opacity="100" points="456.0,616.0 442.0,616.0" stroke="#000" stroke-width="1" /><polyline fill="none" opacity="100" points="456.0,612.0 442.0,612.0" stroke="#000" stroke-width="1" /><polyline fill="none" opacity="100" points="456.0,608.0 442.0,608.0" stroke="#000" stroke-width="1" /><polyline fill="none" opacity="100" points="456.0,604.0 442.0,604.0" stroke="#000" stroke-width="1" /><polyline fill="none" opacity="100" points="456.0,600.0 442.0,600.0" stroke="#000" stroke-width="1" /><polyline fill="none" opacity="100" points="456.0,596.0 442.0,596.0" stroke="#000" stroke-width="1" /><polyline fill="none" opacity="100" points="464.0,574.0 464.0,588.0" stroke="#000" stroke-width="1" /><polyline fill="none" opacity="100" points="468.0,574.0 468.0,588.0" stroke="#000" stroke-width="1" /><polyline fill="none" opacity="100" points="472.0,574.0 472.0,588.0" stroke="#000" stroke-width="1" /><polyline fill="none" opacity="100" points="476.0,574.0 476.0,588.0" stroke="#000" stroke-width="1" /><polyline fill="none" opacity="100" points="480.0,574.0 480.0,588.0" stroke="#000" stroke-width="1" /><polyline fill="none" opacity="100" points="641.0,574.0 641.0,588.0" stroke="#000" stroke-width="1" /><polyline fill="none" opacity="100" points="637.0,574.0 637.0,588.0" stroke="#000" stroke-width="1" /><polyline fill="none" opacity="100" points="633.0,574.0 633.0,588.0" stroke="#000" stroke-width="1" /><polyline fill="none" opacity="100" points="629.0,574.0 629.0,588.0" stroke="#000" stroke-width="1" /><polyline fill="none" opacity="100" points="625.0,574.0 625.0,588.0" stroke="#000" stroke-width="1" /><polyline fill="none" opacity="100" points="621.0,574.0 621.0,588.0" stroke="#000" stroke-width="1" /><polyline fill="none" opacity="100" points="617.0,574.0 617.0,588.0" stroke="#000" stroke-width="1" /><polyline fill="none" opacity="100" points="613.0,574.0 613.0,588.0" stroke="#000" stroke-width="1" /><polyline fill="none" opacity="100" points="609.0,574.0 609.0,588.0" stroke="#000" stroke-width="1" /><polyline fill="none" opacity="100" points="605.0,574.0 605.0,588.0" stroke="#000" stroke-width="1" /><polyline fill="none" opacity="100" points="465.0,437.0 465.0,492.0" stroke="#000" stroke-width="1" /><polyline fill="none" opacity="100" points="469.0,437.0 469.0,492.0" stroke="#000" stroke-width="1" /><polyline fill="none" opacity="100" points="473.0,437.0 473.0,492.0" stroke="#000" stroke-width="1" /><polyline fill="none" opacity="100" points="477.0,437.0 477.0,492.0" stroke="#000" stroke-width="1" /><polyline fill="none" opacity="100" points="481.0,437.0 481.0,492.0" stroke="#000" stroke-width="1" /><polyline fill="none" opacity="100" points="485.0,437.0 485.0,492.0" stroke="#000" stroke-width="1" /><polyline fill="none" opacity="100" points="489.0,437.0 489.0,492.0" stroke="#000" stroke-width="1" /><polyline fill="none" opacity="100" points="493.0,437.0 493.0,492.0" stroke="#000" stroke-width="1" /><polyline fill="none" opacity="100" points="497.0,437.0 497.0,492.0" stroke="#000" stroke-width="1" /><polyline fill="none" opacity="100" points="501.0,437.0 501.0,492.0" stroke="#000" stroke-width="1" /><polyline fill="none" opacity="100" points="431.0,344.0 431.0,358.0" stroke="#000" stroke-width="1" /><polyline fill="none" opacity="100" points="435.0,344.0 435.0,358.0" stroke="#000" stroke-width="1" /><polyline fill="none" opacity="100" points="439.0,344.0 439.0,358.0" stroke="#000" stroke-width="1" /><polyline fill="none" opacity="100" points="443.0,344.0 443.0,358.0" stroke="#000" stroke-width="1" /><polyline fill="none" opacity="100" points="447.0,344.0 447.0,358.0" stroke="#000" stroke-width="1" /><polyline fill="none" opacity="100" points="451.0,344.0 451.0,358.0" stroke="#000" stroke-width="1" /><polyline fill="none" opacity="100" points="455.0,344.0 455.0,358.0" stroke="#000" stroke-width="1" /><polyline fill="none" opacity="100" points="459.0,344.0 459.0,358.0" stroke="#000" stroke-width="1" /><polyline fill="none" opacity="100" points="463.0,344.0 463.0,358.0" stroke="#000" stroke-width="1" /><polyline fill="none" opacity="100" points="467.0,344.0 467.0,358.0" stroke="#000" stroke-width="1" /><polyline fill="none" opacity="100" points="641.0,348.0 641.0,362.0" stroke="#000" stroke-width="1" /><polyline fill="none" opacity="100" points="637.0,348.0 637.0,362.0" stroke="#000" stroke-width="1" /><polyline fill="none" opacity="100" points="633.0,348.0 633.0,362.0" stroke="#000" stroke-width="1" /><polyline fill="none" opacity="100" points="629.0,348.0 629.0,362.0" stroke="#000" stroke-width="1" /><polyline fill="none" opacity="100" points="625.0,348.0 625.0,362.0" stroke="#000" stroke-width="1" /><polyline fill="none" opacity="100" points="621.0,348.0 621.0,362.0" stroke="#000" stroke-width="1" /><polyline fill="none" opacity="100" points="617.0,348.0 617.0,362.0" stroke="#000" stroke-width="1" /><polyline fill="none" opacity="100" points="613.0,348.0 613.0,362.0" stroke="#000" stroke-width="1" /><polyline fill="none" opacity="100" points="609.0,348.0 609.0,362.0" stroke="#000" stroke-width="1" /><polyline fill="none" opacity="100" points="605.0,348.0 605.0,362.0" stroke="#000" stroke-width="1" /><polyline fill="none" opacity="100" points="573.0,446.0 585.0,446.0 585.0,485.0 573.0,485.0" stroke="#000" stroke-width="1" /><text fill="#FFF" font-family="Arial" font-size="15" font-weight="normal" opacity="100" transform="rotate(90.0 588.0,447.0) translate(0 15)" x="588.0" y="447.0">кассы</text><polyline fill="none" opacity="100" points="536.0,373.0 536.0,449.0" stroke="#000" stroke-width="0.5" /><polyline fill="none" opacity="100" points="536.0,560.0 536.0,491.0" stroke="#000" stroke-width="0.5" /><polygon fill="none" opacity="100" points="539.0,490.0 532.0,490.0 532.0,483.0 539.0,483.0" stroke="#000" stroke-width="1" /><polyline fill="none" opacity="100" points="538.0,478.0 533.0,478.0" stroke="#090" stroke-width="1" /><polyline fill="none" opacity="100" points="538.0,474.0 533.0,474.0" stroke="#090" stroke-width="1" /><polyline fill="none" opacity="100" points="538.0,470.0 533.0,470.0" stroke="#090" stroke-width="1" /><polyline fill="none" opacity="100" points="538.0,466.0 533.0,466.0" stroke="#090" stroke-width="1" /><polyline fill="none" opacity="100" points="538.0,462.0 533.0,462.0" stroke="#090" stroke-width="1" /><polyline fill="none" opacity="100" points="538.0,458.0 533.0,458.0" stroke="#090" stroke-width="1" /><polyline fill="none" opacity="100" points="538.0,454.0 533.0,454.0" stroke="#090" stroke-width="1" /><polyline fill="none" opacity="100" points="538.0,450.0 533.0,450.0" stroke="#090" stroke-width="1" /><polyline fill="none" opacity="100" points="535.0,444.0 532.0,447.0" stroke="#F00" stroke-width="1" /><polyline fill="none" opacity="100" points="532.1716,441.1716 529.1716,444.1716" stroke="#F00" stroke-width="1" /><polyline fill="none" opacity="100" points="529.3431,438.3431 526.3431,441.3431" stroke="#F00" stroke-width="1" /><polyline fill="none" opacity="100" points="526.5147,435.5147 523.5147,438.5147" stroke="#F00" stroke-width="1" /><polyline fill="none" opacity="100" points="523.6863,432.6863 520.6863,435.6863" stroke="#F00" stroke-width="1" /><polyline fill="none" opacity="100" points="520.8579,429.8579 517.8579,432.8579" stroke="#F00" stroke-width="1" /><polyline fill="none" opacity="100" points="518.0294,427.0294 515.0294,430.0294" stroke="#F00" stroke-width="1" /><polyline fill="none" opacity="100" points="515.201,424.201 512.201,427.201" stroke="#F00" stroke-width="1" /><polyline fill="none" opacity="100" points="512.3726,421.3726 509.3726,424.3726" stroke="#F00" stroke-width="1" /><polyline fill="none" opacity="100" points="511.0,514.0 508.0,511.0" stroke="#F00" stroke-width="1" /><polyline fill="none" opacity="100" points="513.8284,511.1716 510.8284,508.1716" stroke="#F00" stroke-width="1" /><polyline fill="none" opacity="100" points="516.6569,508.3431 513.6569,505.3431" stroke="#F00" stroke-width="1" /><polyline fill="none" opacity="100" points="519.4853,505.5147 516.4853,502.5147" stroke="#F00" stroke-width="1" /><polyline fill="none" opacity="100" points="522.3137,502.6863 519.3137,499.6863" stroke="#F00" stroke-width="1" /><polyline fill="none" opacity="100" points="525.1421,499.8579 522.1421,496.8579" stroke="#F00" stroke-width="1" /><polyline fill="none" opacity="100" points="527.9706,497.0294 524.9706,494.0294" stroke="#F00" stroke-width="1" /><polyline fill="none" opacity="100" points="530.799,494.201 527.799,491.201" stroke="#F00" stroke-width="1" /><polyline fill="none" opacity="100" points="518.0,436.0 528.0,426.0" stroke="#F00" stroke-width="1" /><polygon fill="#F00" opacity="100" points="525.8787,429.6742 528.0,426.0 524.3258,428.1213" stroke="#F00" stroke-width="1" /><polyline fill="none" opacity="100" points="516.0,499.0 528.0,511.0" stroke="#F00" stroke-width="1" /><polygon fill="#F00" opacity="100" points="523.5909,508.4544 528.0,511.0 525.4544,506.5909" stroke="#F00" stroke-width="1" /><polyline fill="none" opacity="100" points="549.0,373.0 549.0,396.0" stroke="#090" stroke-width="1" /><polygon fill="#090" opacity="100" points="547.2141,389.3351 549.0,396.0 550.7859,389.3351" stroke="#090" stroke-width="1" /><polyline fill="none" opacity="100" points="540.0,464.0 525.0,464.0" stroke="#090" stroke-width="1" /><polygon fill="#090" opacity="100" points="529.3467,462.8353 525.0,464.0 529.3467,465.1647" stroke="#090" stroke-width="1" /><polyline fill="none" opacity="100" points="549.0,560.0 549.0,537.0" stroke="#090" stroke-width="1" /><polygon fill="#090" opacity="100" points="550.7859,543.6649 549.0,537.0 547.2141,543.6649" stroke="#090" stroke-width="1" /><text fill="#00AFAF" font-family="Arial" font-size="15" font-weight="normal" opacity="100" transform="rotate(90.0 770.0,628.0) translate(0 15)" x="770.0" y="628.0">Центральный автовокзал</text><text fill="#00AFAF" font-family="Arial" font-size="15" font-weight="normal" opacity="100" transform="rotate(90.0 540.0,634.0) translate(0 15)" x="540.0" y="634.0">Щёлковское шоссе</text><text fill="#00AFAF" font-family="Arial" font-size="15" font-weight="normal" opacity="100" transform="rotate(-0.0 -303.0,462.0) translate(0 15)" x="-303.0" y="462.0">9-я Парковая улица</text><text fill="#00AFAF" font-family="Arial" font-size="15" font-weight="normal" opacity="100" transform="rotate(-0.0 639.0,461.0) translate(0 15)" x="639.0" y="461.0">Уральская улица</text><text fill="#00AFAF" font-family="Arial" font-size="15" font-weight="normal" opacity="100" transform="rotate(-0.0 -301.0,599.0) translate(0 15)" x="-301.0" y="599.0">&lt;&lt; Кинотеатр "София"</text><text fill="#00AFAF" font-family="Arial" font-size="15" font-weight="normal" opacity="100" transform="rotate(-0.0 -302.0,619.0) translate(0 15)" x="-302.0" y="619.0">&lt;&lt;Универмаг "Первомайский"</text><g transform="rotate(90.0,230.0,550.0)"><text fill="#FFD900" font-family="Arial" font-size="25" font-weight="normal" opacity="100" x="25.25" y="387.5">1</text><text fill="#FFD900" font-family="Arial" font-size="25" font-weight="normal" opacity="100" x="56.25" y="164.5">2</text><text fill="#FFD900" font-family="Arial" font-size="25" font-weight="normal" opacity="100" x="216.25" y="159.5">3</text><text fill="#FFD900" font-family="Arial" font-size="25" font-weight="normal" opacity="100" x="285.25" y="368.5">4</text><text fill="#FFD900" font-family="Arial" font-size="25" font-weight="normal" opacity="100" x="52.25" y="972.5">5</text><text fill="#FFD900" font-family="Arial" font-size="25" font-weight="normal" opacity="100" x="219.25" y="970.5">6</text></g></g></g></svg>