<?xml version="1.0" encoding="utf-8" ?>
<svg baseProfile="tiny" height="370px" version="1.2" width="730px" xmlns="http://www.w3.org/2000/svg" xmlns:ev="http://www.w3.org/2001/xml-events" xmlns:xlink="http://www.w3.org/1999/xlink"><defs /><g><polygon fill="#34349C" opacity="100" points="241.0,67.0 241.0,37.0 691.0,37.0 691.0,67.0" stroke="#000" stroke-width="1" /><polygon fill="#34349C" opacity="100" points="241.0,167.0 241.0,137.0 691.0,137.0 691.0,167.0" stroke="#000" stroke-width="1" /><text fill="#34349C" font-family="Arial" font-size="20" font-weight="normal" opacity="100" transform="rotate(-0.0 242.0,14.0) translate(0 20)" x="242.0" y="14.0">&lt;&lt; Электрозаводская</text><text fill="#34349C" font-family="Arial" font-size="20" font-weight="normal" opacity="100" transform="rotate(-0.0 548.0,167.0) translate(0 20)" x="548.0" y="167.0">Партизанская &gt;&gt;</text><text fill="#34349C" font-family="Arial" font-size="25" font-weight="bold" opacity="100" transform="rotate(-0.0 398.0,91.0) translate(0 25)" x="398.0" y="91.0">Семёновская</text><polyline fill="none" opacity="100" points="241.0,67.0 241.0,75.0 389.0,75.0 389.0,82.0 325.0,82.0" stroke="#000" stroke-width="1" /><polyline fill="none" opacity="100" points="325.0,122.0 389.0,122.0 389.0,129.0 241.0,129.0 241.0,137.0" stroke="#000" stroke-width="1" /><polyline fill="none" opacity="100" points="174.0,82.0 174.0,63.0 51.0,63.0 51.0,87.0 53.0,87.0" stroke="#000" stroke-width="1" /><polyline fill="none" opacity="100" points="53.0,103.0 51.0,103.0 51.0,108.0 53.0,108.0" stroke="#000" stroke-width="1" /><polyline fill="none" opacity="100" points="53.0,125.0 51.0,125.0 51.0,149.0 94.0,149.0 94.0,157.0 60.0,157.0 60.0,219.0 95.0,219.0 95.0,211.0 99.0,211.0 99.0,207.0" stroke="#000" stroke-width="1" /><polyline fill="none" opacity="100" points="128.0,207.0 128.0,211.0 132.0,211.0 132.0,219.0 174.0,219.0 174.0,157.0 132.0,157.0 132.0,149.0 174.0,149.0 174.0,122.0" stroke="#000" stroke-width="1" /><polyline fill="none" opacity="100" points="318.0,119.0 318.0,85.0" stroke="#7F7F7F" stroke-width="1" /><polyline fill="none" opacity="100" points="314.0,119.0 314.0,85.0" stroke="#7F7F7F" stroke-width="1" /><polyline fill="none" opacity="100" points="310.0,119.0 310.0,85.0" stroke="#7F7F7F" stroke-width="1" /><polyline fill="none" opacity="100" points="306.0,119.0 306.0,85.0" stroke="#7F7F7F" stroke-width="1" /><polyline fill="none" opacity="100" points="302.0,119.0 302.0,85.0" stroke="#7F7F7F" stroke-width="1" /><polyline fill="none" opacity="100" points="298.0,119.0 298.0,85.0" stroke="#7F7F7F" stroke-width="1" /><polyline fill="none" opacity="100" points="294.0,119.0 294.0,85.0" stroke="#7F7F7F" stroke-width="1" /><polyline fill="none" opacity="100" points="290.0,119.0 290.0,85.0" stroke="#7F7F7F" stroke-width="1" /><polyline fill="none" opacity="100" points="286.0,119.0 286.0,85.0" stroke="#7F7F7F" stroke-width="1" /><polyline fill="none" opacity="100" points="282.0,119.0 282.0,85.0" stroke="#7F7F7F" stroke-width="1" /><polyline fill="none" opacity="100" points="278.0,119.0 278.0,85.0" stroke="#7F7F7F" stroke-width="1" /><polyline fill="none" opacity="100" points="274.0,119.0 274.0,85.0" stroke="#7F7F7F" stroke-width="1" /><polyline fill="none" opacity="100" points="270.0,119.0 270.0,85.0" stroke="#7F7F7F" stroke-width="1" /><polyline fill="none" opacity="100" points="266.0,119.0 266.0,85.0" stroke="#7F7F7F" stroke-width="1" /><polyline fill="none" opacity="100" points="262.0,119.0 262.0,85.0" stroke="#7F7F7F" stroke-width="1" /><polyline fill="none" opacity="100" points="258.0,119.0 258.0,85.0" stroke="#7F7F7F" stroke-width="1" /><polyline fill="none" opacity="100" points="254.0,119.0 254.0,85.0" stroke="#7F7F7F" stroke-width="1" /><polyline fill="none" opacity="100" points="250.0,119.0 250.0,85.0" stroke="#7F7F7F" stroke-width="1" /><polyline fill="none" opacity="100" points="246.0,119.0 246.0,85.0" stroke="#7F7F7F" stroke-width="1" /><polyline fill="none" opacity="100" points="242.0,119.0 242.0,85.0" stroke="#7F7F7F" stroke-width="1" /><polyline fill="none" opacity="100" points="238.0,119.0 238.0,85.0" stroke="#7F7F7F" stroke-width="1" /><polyline fill="none" opacity="100" points="234.0,119.0 234.0,85.0" stroke="#7F7F7F" stroke-width="1" /><polyline fill="none" opacity="100" points="230.0,119.0 230.0,85.0" stroke="#7F7F7F" stroke-width="1" /><polyline fill="none" opacity="100" points="226.0,119.0 226.0,85.0" stroke="#7F7F7F" stroke-width="1" /><polyline fill="none" opacity="100" points="222.0,119.0 222.0,85.0" stroke="#7F7F7F" stroke-width="1" /><polyline fill="none" opacity="100" points="218.0,119.0 218.0,85.0" stroke="#7F7F7F" stroke-width="1" /><polyline fill="none" opacity="100" points="214.0,119.0 214.0,85.0" stroke="#7F7F7F" stroke-width="1" /><polyline fill="none" opacity="100" points="210.0,119.0 210.0,85.0" stroke="#7F7F7F" stroke-width="1" /><polyline fill="none" opacity="100" points="206.0,119.0 206.0,85.0" stroke="#7F7F7F" stroke-width="1" /><polyline fill="none" opacity="100" points="202.0,119.0 202.0,85.0" stroke="#7F7F7F" stroke-width="1" /><polyline fill="none" opacity="100" points="198.0,119.0 198.0,85.0" stroke="#7F7F7F" stroke-width="1" /><polyline fill="none" opacity="100" points="194.0,119.0 194.0,85.0" stroke="#7F7F7F" stroke-width="1" /><polyline fill="none" opacity="100" points="190.0,119.0 190.0,85.0" stroke="#7F7F7F" stroke-width="1" /><polyline fill="none" opacity="100" points="186.0,119.0 186.0,85.0" stroke="#7F7F7F" stroke-width="1" /><polyline fill="none" opacity="100" points="182.0,119.0 182.0,85.0" stroke="#7F7F7F" stroke-width="1" /><polyline fill="none" opacity="100" points="178.0,119.0 178.0,85.0" stroke="#7F7F7F" stroke-width="1" /><polyline fill="none" opacity="100" points="174.0,119.0 174.0,85.0" stroke="#7F7F7F" stroke-width="1" /><polyline fill="none" opacity="100" points="170.0,119.0 170.0,85.0" stroke="#7F7F7F" stroke-width="1" /><polyline fill="none" opacity="100" points="166.0,119.0 166.0,85.0" stroke="#7F7F7F" stroke-width="1" /><polyline fill="none" opacity="100" points="162.0,119.0 162.0,85.0" stroke="#7F7F7F" stroke-width="1" /><polyline fill="none" opacity="100" points="158.0,119.0 158.0,85.0" stroke="#7F7F7F" stroke-width="1" /><polygon fill="#9B5509" opacity="100" points="325.0,85.0 152.0,85.0 152.0,82.0 325.0,82.0" stroke="#000" stroke-width="1" /><polygon fill="#9B5509" opacity="100" points="325.0,93.0 325.0,98.0 152.0,98.0 152.0,93.0" stroke="#000" stroke-width="1" /><polygon fill="#9B5509" opacity="100" points="325.0,106.0 325.0,111.0 152.0,111.0 152.0,106.0" stroke="#000" stroke-width="1" /><polygon fill="#9B5509" opacity="100" points="325.0,119.0 152.0,119.0 152.0,122.0 325.0,122.0" stroke="#000" stroke-width="1" /><polyline fill="none" opacity="100" points="60.0,166.0 51.0,166.0 51.0,202.0 60.0,202.0" stroke="#000" stroke-width="1" /><text fill="#FFF" font-family="Arial" font-size="10" font-weight="normal" opacity="100" transform="rotate(-90.0 49.0,196.0) translate(0 10)" x="49.0" y="196.0">кассы</text><polyline fill="none" opacity="100" points="95.0,164.0 95.0,160.0" stroke="#090" stroke-width="1" /><polyline fill="none" opacity="100" points="99.0,164.0 99.0,160.0" stroke="#090" stroke-width="1" /><polyline fill="none" opacity="100" points="103.0,164.0 103.0,160.0" stroke="#090" stroke-width="1" /><polyline fill="none" opacity="100" points="107.0,164.0 107.0,160.0" stroke="#090" stroke-width="1" /><polyline fill="none" opacity="100" points="111.0,164.0 111.0,160.0" stroke="#090" stroke-width="1" /><polyline fill="none" opacity="100" points="115.0,164.0 115.0,160.0" stroke="#090" stroke-width="1" /><polyline fill="none" opacity="100" points="119.0,164.0 119.0,160.0" stroke="#090" stroke-width="1" /><polyline fill="none" opacity="100" points="123.0,164.0 123.0,160.0" stroke="#090" stroke-width="1" /><polyline fill="none" opacity="100" points="127.0,164.0 127.0,160.0" stroke="#090" stroke-width="1" /><polyline fill="none" opacity="100" points="131.0,164.0 131.0,160.0" stroke="#090" stroke-width="1" /><polyline fill="none" opacity="100" points="58.0,88.0 62.0,88.0" stroke="#F00" stroke-width="1" /><polyline fill="none" opacity="100" points="58.0,92.0 62.0,92.0" stroke="#F00" stroke-width="1" /><polyline fill="none" opacity="100" points="58.0,96.0 62.0,96.0" stroke="#F00" stroke-width="1" /><polyline fill="none" opacity="100" points="58.0,100.0 62.0,100.0" stroke="#F00" stroke-width="1" /><polyline fill="none" opacity="100" points="58.0,104.0 62.0,104.0" stroke="#F00" stroke-width="1" /><polyline fill="none" opacity="100" points="58.0,108.0 62.0,108.0" stroke="#F00" stroke-width="1" /><polyline fill="none" opacity="100" points="58.0,112.0 62.0,112.0" stroke="#F00" stroke-width="1" /><polyline fill="none" opacity="100" points="58.0,116.0 62.0,116.0" stroke="#F00" stroke-width="1" /><polyline fill="none" opacity="100" points="58.0,120.0 62.0,120.0" stroke="#F00" stroke-width="1" /><polyline fill="none" opacity="100" points="58.0,124.0 62.0,124.0" stroke="#F00" stroke-width="1" /><polyline fill="none" opacity="100" points="96.0,97.0 83.0,97.0" stroke="#F00" stroke-width="1" /><polygon fill="#F00" opacity="100" points="86.7671,95.9906 83.0,97.0 86.7671,98.0094" stroke="#F00" stroke-width="1" /><polyline fill="none" opacity="100" points="114.0,191.0 114.0,176.0" stroke="#090" stroke-width="1" /><polygon fill="#090" opacity="100" points="115.1647,180.3467 114.0,176.0 112.8353,180.3467" stroke="#090" stroke-width="1" /><polyline fill="none" opacity="100" points="691.0,67.0 691.0,75.0 568.0,75.0 568.0,83.0 577.0,83.0 577.0,121.0 568.0,121.0 568.0,129.0 691.0,129.0 691.0,137.0" stroke="#000" stroke-width="1" /><text fill="#00AFAF" font-family="Arial" font-size="15" font-weight="normal" opacity="100" transform="rotate(90.0 21.0,63.0) translate(0 15)" x="21.0" y="63.0">улица Измайловский Вал</text><text fill="#00AFAF" font-family="Arial" font-size="15" font-weight="normal" opacity="100" transform="rotate(90.0 723.0,48.0) translate(0 15)" x="723.0" y="48.0">Вельяминовская улица</text><text fill="#00AFAF" font-family="Arial" font-size="15" font-weight="normal" opacity="100" transform="rotate(-0.0 52.0,347.0) translate(0 15)" x="52.0" y="347.0">Семёновская площадь</text><text fill="#00AFAF" font-family="Arial" font-size="15" font-weight="normal" opacity="100" transform="rotate(-0.0 68.0,291.0) translate(0 15)" x="68.0" y="291.0">Щербаковская улица</text><text fill="#FFD900" font-family="Arial" font-size="25" font-weight="normal" opacity="100" x="75.25" y="133.5">1</text></g></svg>