<?xml version="1.0" encoding="utf-8" ?>
<svg baseProfile="tiny" height="720px" version="1.2" width="480px" xmlns="http://www.w3.org/2000/svg" xmlns:ev="http://www.w3.org/2001/xml-events" xmlns:xlink="http://www.w3.org/1999/xlink"><defs /><g><g transform="rotate(-75.0,240.0,360.0)"><polygon fill="#FC9C54" opacity="100" points="150.0,343.0 600.0,343.0 600.0,373.0 150.0,373.0" stroke="#000" stroke-width="1" /><polygon fill="#FC9C54" opacity="100" points="150.0,453.0 600.0,453.0 600.0,483.0 150.0,483.0" stroke="#000" stroke-width="1" /><text fill="#F7782E" font-family="Arial" font-size="25" font-weight="bold" opacity="100" transform="rotate(-0.0 275.0,384.0) translate(0 25)" x="275.0" y="384.0">Шаболовская</text><text fill="#F7782E" font-family="Arial" font-size="20" font-weight="normal" opacity="100" transform="rotate(-0.0 149.0,320.0) translate(0 20)" x="149.0" y="320.0">&lt;&lt; Ленинский проспект</text><text fill="#F7782E" font-family="Arial" font-size="20" font-weight="normal" opacity="100" transform="rotate(-0.0 472.0,484.0) translate(0 20)" x="472.0" y="484.0">Октябрьская &gt;&gt;</text><polyline fill="none" opacity="100" points="1.0,389.0 1.0,438.0" stroke="#7F7F7F" stroke-width="1" /><polyline fill="none" opacity="100" points="5.0,389.0 5.0,438.0" stroke="#7F7F7F" stroke-width="1" /><polyline fill="none" opacity="100" points="9.0,389.0 9.0,438.0" stroke="#7F7F7F" stroke-width="1" /><polyline fill="none" opacity="100" points="13.0,389.0 13.0,438.0" stroke="#7F7F7F" stroke-width="1" /><polyline fill="none" opacity="100" points="17.0,389.0 17.0,438.0" stroke="#7F7F7F" stroke-width="1" /><polyline fill="none" opacity="100" points="21.0,389.0 21.0,438.0" stroke="#7F7F7F" stroke-width="1" /><polyline fill="none" opacity="100" points="25.0,389.0 25.0,438.0" stroke="#7F7F7F" stroke-width="1" /><polyline fill="none" opacity="100" points="29.0,389.0 29.0,438.0" stroke="#7F7F7F" stroke-width="1" /><polyline fill="none" opacity="100" points="33.0,389.0 33.0,438.0" stroke="#7F7F7F" stroke-width="1" /><polyline fill="none" opacity="100" points="37.0,389.0 37.0,438.0" stroke="#7F7F7F" stroke-width="1" /><polyline fill="none" opacity="100" points="41.0,389.0 41.0,438.0" stroke="#7F7F7F" stroke-width="1" /><polyline fill="none" opacity="100" points="45.0,389.0 45.0,438.0" stroke="#7F7F7F" stroke-width="1" /><polyline fill="none" opacity="100" points="49.0,389.0 49.0,438.0" stroke="#7F7F7F" stroke-width="1" /><polyline fill="none" opacity="100" points="53.0,389.0 53.0,438.0" stroke="#7F7F7F" stroke-width="1" /><polyline fill="none" opacity="100" points="57.0,389.0 57.0,438.0" stroke="#7F7F7F" stroke-width="1" /><polyline fill="none" opacity="100" points="61.0,389.0 61.0,438.0" stroke="#7F7F7F" stroke-width="1" /><polyline fill="none" opacity="100" points="65.0,389.0 65.0,438.0" stroke="#7F7F7F" stroke-width="1" /><polyline fill="none" opacity="100" points="69.0,389.0 69.0,438.0" stroke="#7F7F7F" stroke-width="1" /><polyline fill="none" opacity="100" points="73.0,389.0 73.0,438.0" stroke="#7F7F7F" stroke-width="1" /><polyline fill="none" opacity="100" points="77.0,389.0 77.0,438.0" stroke="#7F7F7F" stroke-width="1" /><polyline fill="none" opacity="100" points="81.0,389.0 81.0,438.0" stroke="#7F7F7F" stroke-width="1" /><polyline fill="none" opacity="100" points="85.0,389.0 85.0,438.0" stroke="#7F7F7F" stroke-width="1" /><polyline fill="none" opacity="100" points="89.0,389.0 89.0,438.0" stroke="#7F7F7F" stroke-width="1" /><polyline fill="none" opacity="100" points="93.0,389.0 93.0,438.0" stroke="#7F7F7F" stroke-width="1" /><polyline fill="none" opacity="100" points="97.0,389.0 97.0,438.0" stroke="#7F7F7F" stroke-width="1" /><polyline fill="none" opacity="100" points="101.0,389.0 101.0,438.0" stroke="#7F7F7F" stroke-width="1" /><polyline fill="none" opacity="100" points="105.0,389.0 105.0,438.0" stroke="#7F7F7F" stroke-width="1" /><polyline fill="none" opacity="100" points="109.0,389.0 109.0,438.0" stroke="#7F7F7F" stroke-width="1" /><polyline fill="none" opacity="100" points="113.0,389.0 113.0,438.0" stroke="#7F7F7F" stroke-width="1" /><polyline fill="none" opacity="100" points="117.0,389.0 117.0,438.0" stroke="#7F7F7F" stroke-width="1" /><polyline fill="none" opacity="100" points="121.0,389.0 121.0,438.0" stroke="#7F7F7F" stroke-width="1" /><polyline fill="none" opacity="100" points="125.0,389.0 125.0,438.0" stroke="#7F7F7F" stroke-width="1" /><polyline fill="none" opacity="100" points="129.0,389.0 129.0,438.0" stroke="#7F7F7F" stroke-width="1" /><polyline fill="none" opacity="100" points="133.0,389.0 133.0,438.0" stroke="#7F7F7F" stroke-width="1" /><polyline fill="none" opacity="100" points="137.0,389.0 137.0,438.0" stroke="#7F7F7F" stroke-width="1" /><polyline fill="none" opacity="100" points="141.0,389.0 141.0,438.0" stroke="#7F7F7F" stroke-width="1" /><polyline fill="none" opacity="100" points="145.0,389.0 145.0,438.0" stroke="#7F7F7F" stroke-width="1" /><polyline fill="none" opacity="100" points="149.0,389.0 149.0,438.0" stroke="#7F7F7F" stroke-width="1" /><polyline fill="none" opacity="100" points="153.0,389.0 153.0,438.0" stroke="#7F7F7F" stroke-width="1" /><polyline fill="none" opacity="100" points="157.0,389.0 157.0,438.0" stroke="#7F7F7F" stroke-width="1" /><polyline fill="none" opacity="100" points="161.0,389.0 161.0,438.0" stroke="#7F7F7F" stroke-width="1" /><polyline fill="none" opacity="100" points="165.0,389.0 165.0,438.0" stroke="#7F7F7F" stroke-width="1" /><polyline fill="none" opacity="100" points="169.0,389.0 169.0,438.0" stroke="#7F7F7F" stroke-width="1" /><polyline fill="none" opacity="100" points="173.0,389.0 173.0,438.0" stroke="#7F7F7F" stroke-width="1" /><polyline fill="none" opacity="100" points="177.0,389.0 177.0,438.0" stroke="#7F7F7F" stroke-width="1" /><polyline fill="none" opacity="100" points="181.0,389.0 181.0,438.0" stroke="#7F7F7F" stroke-width="1" /><polyline fill="none" opacity="100" points="185.0,389.0 185.0,438.0" stroke="#7F7F7F" stroke-width="1" /><polyline fill="none" opacity="100" points="189.0,389.0 189.0,438.0" stroke="#7F7F7F" stroke-width="1" /><polyline fill="none" opacity="100" points="193.0,389.0 193.0,438.0" stroke="#7F7F7F" stroke-width="1" /><polygon fill="#9B5509" opacity="100" points="199.0,387.0 -2.0,387.0 -2.0,391.0 199.0,391.0" stroke="#000" stroke-width="1" /><polygon fill="#9B5509" opacity="100" points="199.0,402.0 -2.0,402.0 -2.0,408.0 199.0,408.0" stroke="#000" stroke-width="1" /><polygon fill="#9B5509" opacity="100" points="199.0,419.0 -2.0,419.0 -2.0,425.0 199.0,425.0" stroke="#000" stroke-width="1" /><polygon fill="#9B5509" opacity="100" points="199.0,436.0 -2.0,436.0 -2.0,440.0 199.0,440.0" stroke="#000" stroke-width="1" /><polyline fill="none" opacity="100" points="150.0,373.0 150.0,382.0 236.0,382.0 236.0,393.0 230.0,393.0 230.0,387.0 199.0,387.0" stroke="#000" stroke-width="1" /><polyline fill="none" opacity="100" points="24.0,387.0 23.0,369.0 -97.0,380.0 -96.0,391.0 -93.0,391.0" stroke="#000" stroke-width="1" /><polyline fill="none" opacity="100" points="150.0,453.0 150.0,445.0 236.0,445.0 236.0,434.0 230.0,434.0 230.0,440.0 28.0,440.0 32.0,485.0 -36.0,491.0 -36.0,488.0" stroke="#000" stroke-width="1" /><polyline fill="none" opacity="100" points="-90.0,418.0 -93.0,418.0 -86.0,496.0 -58.0,493.0 -58.0,490.0" stroke="#000" stroke-width="1" /><polyline fill="none" opacity="100" points="600.0,373.0 600.0,385.0 459.0,385.0 459.0,397.0 465.0,397.0 465.0,428.0 459.0,428.0 459.0,441.0 600.0,441.0 600.0,453.0" stroke="#000" stroke-width="1" /><polyline fill="none" opacity="100" points="29.0,449.0 42.0,448.0 45.0,480.0 32.0,481.0" stroke="#000" stroke-width="1" /><text fill="#FFF" font-family="Arial" font-size="10" font-weight="normal" opacity="100" transform="rotate(85.0 42.0,452.0) translate(0 10)" x="42.0" y="452.0">кассы</text><polyline fill="none" opacity="100" points="-1.0,441.0 -34.0,452.0" stroke="#000" stroke-width="0.5" /><polyline fill="none" opacity="100" points="-2.0,410.0 -42.0,411.0" stroke="#000" stroke-width="0.5" /><polygon fill="none" opacity="100" points="-32.0,450.0 -33.0,445.0 -38.0,446.0 -37.0,451.0" stroke="#000" stroke-width="1" /><polyline fill="none" opacity="100" points="-46.0,413.0 -41.0,412.0" stroke="#090" stroke-width="1" /><polyline fill="none" opacity="100" points="-45.0005,416.8731 -40.0005,415.8731" stroke="#090" stroke-width="1" /><polyline fill="none" opacity="100" points="-44.001,420.7462 -39.001,419.7462" stroke="#090" stroke-width="1" /><polyline fill="none" opacity="100" points="-43.0015,424.6193 -38.0015,423.6193" stroke="#090" stroke-width="1" /><polyline fill="none" opacity="100" points="-42.002,428.4924 -37.002,427.4924" stroke="#090" stroke-width="1" /><polyline fill="none" opacity="100" points="-41.0024,432.3655 -36.0024,431.3655" stroke="#090" stroke-width="1" /><polyline fill="none" opacity="100" points="-40.0029,436.2387 -35.0029,435.2387" stroke="#090" stroke-width="1" /><polyline fill="none" opacity="100" points="-39.0034,440.1118 -34.0034,439.1118" stroke="#090" stroke-width="1" /><polyline fill="none" opacity="100" points="-38.0039,443.9849 -33.0039,442.9849" stroke="#090" stroke-width="1" /><polyline fill="none" opacity="100" points="-41.0,409.0 -47.0,409.0" stroke="#F00" stroke-width="1" /><polyline fill="none" opacity="100" points="-41.3416,405.0146 -47.3416,405.0146" stroke="#F00" stroke-width="1" /><polyline fill="none" opacity="100" points="-41.6832,401.0292 -47.6832,401.0292" stroke="#F00" stroke-width="1" /><polyline fill="none" opacity="100" points="-42.0248,397.0438 -48.0248,397.0438" stroke="#F00" stroke-width="1" /><polyline fill="none" opacity="100" points="-42.3664,393.0585 -48.3664,393.0585" stroke="#F00" stroke-width="1" /><polyline fill="none" opacity="100" points="-42.708,389.0731 -48.708,389.0731" stroke="#F00" stroke-width="1" /><polyline fill="none" opacity="100" points="-43.0496,385.0877 -49.0496,385.0877" stroke="#F00" stroke-width="1" /><polyline fill="none" opacity="100" points="-43.3912,381.1023 -49.3912,381.1023" stroke="#F00" stroke-width="1" /><polyline fill="none" opacity="100" points="-43.7328,377.1169 -49.7328,377.1169" stroke="#F00" stroke-width="1" /><polyline fill="none" opacity="100" points="-13.0,372.0 -14.0,362.0 -41.0,364.0 -40.0,375.0" stroke="#000" stroke-width="1" /><text fill="#000" font-family="Arial" font-size="7" font-weight="normal" opacity="100" transform="rotate(-5.0 -40.0,365.0) translate(0 7)" x="-40.0" y="365.0">полиция</text><polyline fill="none" opacity="100" points="-8.0,397.0 -23.0,397.0" stroke="#F00" stroke-width="1" /><polygon fill="#F00" opacity="100" points="-18.6533,395.8353 -23.0,397.0 -18.6533,398.1647" stroke="#F00" stroke-width="1" /><polyline fill="none" opacity="100" points="220.0,396.0 202.0,396.0" stroke="#F00" stroke-width="1" /><polygon fill="#F00" opacity="100" points="207.216,394.6024 202.0,396.0 207.216,397.3976" stroke="#F00" stroke-width="1" /><polyline fill="none" opacity="100" points="-89.0,405.0 -101.0,406.0" stroke="#F00" stroke-width="1" /><polygon fill="#F00" opacity="100" points="-97.6003,404.7785 -101.0,406.0 -97.445,406.642" stroke="#F00" stroke-width="1" /><polyline fill="none" opacity="100" points="-46.0,496.0 -47.0,484.0" stroke="#090" stroke-width="1" /><polygon fill="#090" opacity="100" points="-45.7785,487.3997 -47.0,484.0 -47.642,487.555" stroke="#090" stroke-width="1" /><polyline fill="none" opacity="100" points="-22.0,431.0 -7.0,431.0" stroke="#090" stroke-width="1" /><polygon fill="#090" opacity="100" points="-11.3467,432.1647 -7.0,431.0 -11.3467,429.8353" stroke="#090" stroke-width="1" /><polyline fill="none" opacity="100" points="202.0,430.0 221.0,430.0" stroke="#090" stroke-width="1" /><polygon fill="#090" opacity="100" points="215.4942,431.4753 221.0,430.0 215.4942,428.5247" stroke="#090" stroke-width="1" /><polygon fill="#34349C" opacity="100" points="359.0,420.0 357.0,420.0 357.0,415.0 359.0,415.0" stroke="#34349C" stroke-width="1" /><polygon fill="#34349C" opacity="100" points="-2.0,376.0 -2.0,374.0 -7.0,374.0 -7.0,376.0" stroke="#34349C" stroke-width="1" /><polygon fill="#F00" opacity="100" points="359.0,415.0 357.0,415.0 357.0,410.0 359.0,410.0" stroke="#F00" stroke-width="1" /><polygon fill="#F00" opacity="100" points="-7.0,376.0 -7.0,374.0 -12.0,374.0 -12.0,376.0" stroke="#F00" stroke-width="1" /><text fill="#00AFAF" font-family="Arial" font-size="15" font-weight="normal" opacity="100" transform="rotate(-5.0 -25.0,587.0) translate(0 15)" x="-25.0" y="587.0">улица Шаболовка</text><text fill="#00AFAF" font-family="Arial" font-size="15" font-weight="normal" opacity="100" transform="rotate(85.0 350.0,98.0) translate(0 15)" x="350.0" y="98.0">улица Академика Петровского</text><g transform="rotate(75.0,240.0,360.0)"><text fill="#FFD900" font-family="Arial" font-size="25" font-weight="normal" opacity="100" x="141.25" y="669.5">1</text></g></g></g></svg>