<?xml version="1.0" encoding="utf-8" ?>
<svg baseProfile="tiny" height="850px" version="1.2" width="520px" xmlns="http://www.w3.org/2000/svg" xmlns:ev="http://www.w3.org/2001/xml-events" xmlns:xlink="http://www.w3.org/1999/xlink"><defs /><g><g transform="rotate(-90.0,260.0,425.0)"><polygon fill="#84BC54" opacity="100" points="5.0,514.0 5.0,484.0 455.0,484.0 455.0,514.0" stroke="#000" stroke-width="1" /><polygon fill="#84BC54" opacity="100" points="455.0,404.0 455.0,374.0 5.0,374.0 5.0,404.0" stroke="#000" stroke-width="1" /><text fill="#5C9F2E" font-family="Arial" font-size="25" font-weight="bold" opacity="100" transform="rotate(-0.0 149.0,418.0) translate(0 25)" x="149.0" y="418.0">Шипиловская</text><text fill="#5C9F2E" font-family="Arial" font-size="20" font-weight="normal" opacity="100" transform="rotate(-0.0 345.0,514.0) translate(0 20)" x="345.0" y="514.0">Борисово &gt;&gt;</text><text fill="#5C9F2E" font-family="Arial" font-size="20" font-weight="normal" opacity="100" transform="rotate(-0.0 6.0,352.0) translate(0 20)" x="6.0" y="352.0">&lt;&lt; Зябликово</text><polyline fill="none" opacity="100" points="-83.0,421.0 -83.0,465.0" stroke="#7F7F7F" stroke-width="1" /><polyline fill="none" opacity="100" points="-79.0011,421.0919 -79.0011,465.0919" stroke="#7F7F7F" stroke-width="1" /><polyline fill="none" opacity="100" points="-75.0021,421.1839 -75.0021,465.1839" stroke="#7F7F7F" stroke-width="1" /><polyline fill="none" opacity="100" points="-71.0032,421.2758 -71.0032,465.2758" stroke="#7F7F7F" stroke-width="1" /><polyline fill="none" opacity="100" points="-67.0042,421.3677 -67.0042,465.3677" stroke="#7F7F7F" stroke-width="1" /><polyline fill="none" opacity="100" points="-63.0053,421.4596 -63.0053,465.4596" stroke="#7F7F7F" stroke-width="1" /><polyline fill="none" opacity="100" points="-59.0063,421.5516 -59.0063,465.5516" stroke="#7F7F7F" stroke-width="1" /><polyline fill="none" opacity="100" points="-55.0074,421.6435 -55.0074,465.6435" stroke="#7F7F7F" stroke-width="1" /><polyline fill="none" opacity="100" points="-51.0085,421.7354 -51.0085,465.7354" stroke="#7F7F7F" stroke-width="1" /><polyline fill="none" opacity="100" points="-47.0095,421.8274 -47.0095,465.8274" stroke="#7F7F7F" stroke-width="1" /><polyline fill="none" opacity="100" points="-43.0106,421.9193 -43.0106,465.9193" stroke="#7F7F7F" stroke-width="1" /><polyline fill="none" opacity="100" points="-39.0116,422.0112 -39.0116,466.0112" stroke="#7F7F7F" stroke-width="1" /><polyline fill="none" opacity="100" points="-35.0127,422.1032 -35.0127,466.1032" stroke="#7F7F7F" stroke-width="1" /><polyline fill="none" opacity="100" points="-31.0137,422.1951 -31.0137,466.1951" stroke="#7F7F7F" stroke-width="1" /><polyline fill="none" opacity="100" points="-27.0148,422.287 -27.0148,466.287" stroke="#7F7F7F" stroke-width="1" /><polyline fill="none" opacity="100" points="-23.0158,422.3789 -23.0158,466.3789" stroke="#7F7F7F" stroke-width="1" /><polyline fill="none" opacity="100" points="-19.0169,422.4709 -19.0169,466.4709" stroke="#7F7F7F" stroke-width="1" /><polyline fill="none" opacity="100" points="-15.018,422.5628 -15.018,466.5628" stroke="#7F7F7F" stroke-width="1" /><polyline fill="none" opacity="100" points="-11.019,422.6547 -11.019,466.6547" stroke="#7F7F7F" stroke-width="1" /><polyline fill="none" opacity="100" points="-7.0201,422.7467 -7.0201,466.7467" stroke="#7F7F7F" stroke-width="1" /><polyline fill="none" opacity="100" points="-3.0211,422.8386 -3.0211,466.8386" stroke="#7F7F7F" stroke-width="1" /><polyline fill="none" opacity="100" points="0.9778,422.9305 0.9778,466.9305" stroke="#7F7F7F" stroke-width="1" /><polygon fill="#9B5509" opacity="100" points="5.0,434.0 -85.0,434.0 -85.0,439.0 5.0,439.0" stroke="#000" stroke-width="1" /><polygon fill="#9B5509" opacity="100" points="5.0,449.0 -85.0,449.0 -85.0,454.0 5.0,454.0" stroke="#000" stroke-width="1" /><polygon fill="#9B5509" opacity="100" points="5.0,420.0 -85.0,420.0 -85.0,424.0 5.0,424.0" stroke="#000" stroke-width="1" /><polygon fill="#9B5509" opacity="100" points="5.0,464.0 -85.0,464.0 -85.0,468.0 5.0,468.0" stroke="#000" stroke-width="1" /><polyline fill="none" opacity="100" points="5.0,468.0 5.0,484.0" stroke="#000" stroke-width="1" /><polygon fill="#34349C" opacity="100" points="230.0,446.0 230.0,449.0 231.0,449.0 231.0,446.0" stroke="#34349C" stroke-width="1" /><polygon fill="#F00" opacity="100" points="230.0,443.0 230.0,446.0 231.0,446.0 231.0,443.0" stroke="#F00" stroke-width="1" /><polygon fill="#FFF" opacity="0.85" points="-55.0,461.0 -52.0,452.0 -52.0,444.0 -52.0,437.0 -55.0,428.0 -60.0,419.0 -14.0,418.0 -14.0,469.0 -59.0,469.0" stroke="#FFF" stroke-width="1" /><polyline fill="none" opacity="1.0" points="5.0,420.0 5.0,404.0" stroke="#000" stroke-width="1" /><polyline fill="none" opacity="1.0" points="14.0,532.0 -26.0,532.0 -26.0,498.0 -19.0,498.0 -19.0,482.0 -13.0,482.0 -13.0,419.0 -9.0,420.0" stroke="#000" stroke-width="1" /><polyline fill="none" opacity="1.0" points="-9.0,406.0 -19.0,406.0 -19.0,390.0 -26.0,390.0 -26.0,376.0 -13.0,278.0 23.0,278.0" stroke="#000" stroke-width="1" /><polyline fill="none" opacity="1.0" points="23.0,254.0 -37.0,254.0" stroke="#000" stroke-width="1" /><polyline fill="none" opacity="1.0" points="-37.0,268.0 -37.0,278.0 -51.0,372.0 -51.0,390.0 -134.0,390.0 -134.0,498.0 -51.0,498.0 -51.0,532.0 -91.0,532.0" stroke="#000" stroke-width="1" /><polyline fill="none" opacity="1.0" points="-91.0,554.0 14.0,554.0" stroke="#000" stroke-width="1" /><polyline fill="none" opacity="1.0" points="-24.0,554.0 -24.0,532.0" stroke="#000" stroke-width="1" /><polyline fill="none" opacity="1.0" points="-20.0,554.0 -20.0,532.0" stroke="#000" stroke-width="1" /><polyline fill="none" opacity="1.0" points="-16.0,554.0 -16.0,532.0" stroke="#000" stroke-width="1" /><polyline fill="none" opacity="1.0" points="-12.0,554.0 -12.0,532.0" stroke="#000" stroke-width="1" /><polyline fill="none" opacity="1.0" points="-8.0,554.0 -8.0,532.0" stroke="#000" stroke-width="1" /><polyline fill="none" opacity="1.0" points="-4.0,554.0 -4.0,532.0" stroke="#000" stroke-width="1" /><polyline fill="none" opacity="1.0" points="0.0,554.0 0.0,532.0" stroke="#000" stroke-width="1" /><polyline fill="none" opacity="1.0" points="4.0,554.0 4.0,532.0" stroke="#000" stroke-width="1" /><polyline fill="none" opacity="1.0" points="8.0,554.0 8.0,532.0" stroke="#000" stroke-width="1" /><polyline fill="none" opacity="1.0" points="12.0,554.0 12.0,532.0" stroke="#000" stroke-width="1" /><polyline fill="none" opacity="1.0" points="-53.0,532.0 -53.0,554.0" stroke="#000" stroke-width="1" /><polyline fill="none" opacity="1.0" points="-57.0,532.0 -57.0,554.0" stroke="#000" stroke-width="1" /><polyline fill="none" opacity="1.0" points="-61.0,532.0 -61.0,554.0" stroke="#000" stroke-width="1" /><polyline fill="none" opacity="1.0" points="-65.0,532.0 -65.0,554.0" stroke="#000" stroke-width="1" /><polyline fill="none" opacity="1.0" points="-69.0,532.0 -69.0,554.0" stroke="#000" stroke-width="1" /><polyline fill="none" opacity="1.0" points="-73.0,532.0 -73.0,554.0" stroke="#000" stroke-width="1" /><polyline fill="none" opacity="1.0" points="-77.0,532.0 -77.0,554.0" stroke="#000" stroke-width="1" /><polyline fill="none" opacity="1.0" points="-81.0,532.0 -81.0,554.0" stroke="#000" stroke-width="1" /><polyline fill="none" opacity="1.0" points="-85.0,532.0 -85.0,554.0" stroke="#000" stroke-width="1" /><polyline fill="none" opacity="1.0" points="-89.0,532.0 -89.0,554.0" stroke="#000" stroke-width="1" /><polyline fill="none" opacity="1.0" points="5.0,468.0 5.0,484.0" stroke="#000" stroke-width="1" /><polyline fill="none" opacity="1.0" points="-11.0,278.0 -11.0,254.0" stroke="#000" stroke-width="1" /><polyline fill="none" opacity="1.0" points="-7.0,278.0 -7.0,254.0" stroke="#000" stroke-width="1" /><polyline fill="none" opacity="1.0" points="-3.0,278.0 -3.0,254.0" stroke="#000" stroke-width="1" /><polyline fill="none" opacity="1.0" points="1.0,278.0 1.0,254.0" stroke="#000" stroke-width="1" /><polyline fill="none" opacity="1.0" points="5.0,278.0 5.0,254.0" stroke="#000" stroke-width="1" /><polyline fill="none" opacity="1.0" points="9.0,278.0 9.0,254.0" stroke="#000" stroke-width="1" /><polyline fill="none" opacity="1.0" points="13.0,278.0 13.0,254.0" stroke="#000" stroke-width="1" /><polyline fill="none" opacity="1.0" points="17.0,278.0 17.0,254.0" stroke="#000" stroke-width="1" /><polyline fill="none" opacity="1.0" points="21.0,278.0 21.0,254.0" stroke="#000" stroke-width="1" /><polygon fill="#FFF" opacity="1.0" points="-13.0,430.0 -5.0,430.0 -5.0,457.0 -13.0,457.0" stroke="#000" stroke-width="1" /><text fill="#FFF" font-family="Arial" font-size="10" font-weight="normal" opacity="1.0" transform="rotate(90.0 -3.0,431.0) translate(0 10)" x="-3.0" y="431.0">кассы</text><polygon fill="none" opacity="1.0" points="-118.0,426.0 -119.0,421.0 -114.0,420.0 -113.0,425.0" stroke="#000" stroke-width="1" /><polyline fill="none" opacity="1.0" points="-116.0,420.0 -116.0,390.0" stroke="#000" stroke-width="0.5" /><polyline fill="none" opacity="1.0" points="-113.0,423.0 -85.0,436.0" stroke="#000" stroke-width="0.5" /><polyline fill="none" opacity="1.0" points="-103.0,468.0 -85.0,468.0" stroke="#000" stroke-width="0.5" /><polyline fill="none" opacity="1.0" points="-116.0,430.0 -112.0,429.0" stroke="#090" stroke-width="1" /><polyline fill="none" opacity="1.0" points="-114.8764,433.8389 -110.8764,432.8389" stroke="#090" stroke-width="1" /><polyline fill="none" opacity="1.0" points="-113.7528,437.6779 -109.7528,436.6779" stroke="#090" stroke-width="1" /><polyline fill="none" opacity="1.0" points="-112.6292,441.5168 -108.6292,440.5168" stroke="#090" stroke-width="1" /><polyline fill="none" opacity="1.0" points="-111.5056,445.3558 -107.5056,444.3558" stroke="#090" stroke-width="1" /><polyline fill="none" opacity="1.0" points="-110.382,449.1947 -106.382,448.1947" stroke="#090" stroke-width="1" /><polyline fill="none" opacity="1.0" points="-109.2584,453.0337 -105.2584,452.0337" stroke="#090" stroke-width="1" /><polyline fill="none" opacity="1.0" points="-108.1348,456.8726 -104.1348,455.8726" stroke="#090" stroke-width="1" /><polyline fill="none" opacity="1.0" points="-107.0112,460.7116 -103.0112,459.7116" stroke="#090" stroke-width="1" /><polyline fill="none" opacity="1.0" points="-105.8876,464.5505 -101.8876,463.5505" stroke="#090" stroke-width="1" /><polyline fill="none" opacity="1.0" points="-104.764,468.3895 -100.764,467.3895" stroke="#090" stroke-width="1" /><polyline fill="none" opacity="1.0" points="-75.0,417.0 -71.0,417.0" stroke="#F00" stroke-width="1" /><polyline fill="none" opacity="1.0" points="-75.0,413.0 -71.0,413.0" stroke="#F00" stroke-width="1" /><polyline fill="none" opacity="1.0" points="-75.0,409.0 -71.0,409.0" stroke="#F00" stroke-width="1" /><polyline fill="none" opacity="1.0" points="-75.0,405.0 -71.0,405.0" stroke="#F00" stroke-width="1" /><polyline fill="none" opacity="1.0" points="-75.0,401.0 -71.0,401.0" stroke="#F00" stroke-width="1" /><polyline fill="none" opacity="1.0" points="-75.0,397.0 -71.0,397.0" stroke="#F00" stroke-width="1" /><polyline fill="none" opacity="1.0" points="-75.0,393.0 -71.0,393.0" stroke="#F00" stroke-width="1" /><polyline fill="none" opacity="1.0" points="-67.0,405.0 -52.0,405.0" stroke="#F00" stroke-width="1" /><polygon fill="#F00" opacity="1.0" points="-56.3467,406.1647 -52.0,405.0 -56.3467,403.8353" stroke="#F00" stroke-width="1" /><polyline fill="none" opacity="1.0" points="-52.0,483.0 -67.0,483.0" stroke="#090" stroke-width="1" /><polygon fill="#090" opacity="1.0" points="-62.6533,481.8353 -67.0,483.0 -62.6533,484.1647" stroke="#090" stroke-width="1" /><polygon fill="#34349C" opacity="1.0" points="-131.0,445.0 -131.0,448.0 -130.0,448.0 -130.0,445.0" stroke="#34349C" stroke-width="1" /><polygon fill="#F00" opacity="1.0" points="-131.0,442.0 -131.0,445.0 -130.0,445.0 -130.0,442.0" stroke="#F00" stroke-width="1" /><polygon fill="#D0EFFF" opacity="1.0" points="-51.0,254.0 -37.0,254.0 -37.0,268.0 -51.0,268.0" stroke="#000" stroke-width="1" /><text fill="#000" font-family="Arial" font-size="6" font-weight="normal" opacity="1.0" transform="rotate(90.0 -41.0,255.0) translate(0 6)" x="-41.0" y="255.0">лифт</text><polygon fill="#D0EFFF" opacity="1.0" points="-9.0,406.0 5.0,406.0 5.0,420.0 -9.0,420.0" stroke="#000" stroke-width="1" /><text fill="#000" font-family="Arial" font-size="6" font-weight="normal" opacity="1.0" transform="rotate(90.0 2.0,407.0) translate(0 6)" x="2.0" y="407.0">лифт</text><polygon fill="#D0EFFF" opacity="1.0" points="-44.0,554.0 -30.0,554.0 -30.0,568.0 -44.0,568.0" stroke="#000" stroke-width="1" /><text fill="#000" font-family="Arial" font-size="6" font-weight="normal" opacity="1.0" transform="rotate(90.0 -34.0,555.0) translate(0 6)" x="-34.0" y="555.0">лифт</text><polyline fill="none" opacity="1.0" points="-60.0,420.0 -58.1797,423.0 -56.5938,426.0 -55.2422,429.0 -54.125,432.0 -53.2422,435.0 -52.5938,438.0 -52.1797,441.0 -52.0,444.0 -52.0547,447.0 -52.3438,450.0 -52.8672,453.0 -53.625,456.0 -54.6172,459.0 -55.8438,462.0 -57.3047,465.0 -59.0,468.0" stroke="#000" stroke-width="1" /><polyline fill="none" opacity="1.0" points="636.0,234.0 636.0,270.0 604.0,356.0 604.0,382.0 597.0,382.0 597.0,408.0 590.0,408.0 590.0,382.0 504.0,382.0 504.0,414.0 455.0,414.0 455.0,404.0" stroke="#000" stroke-width="1" /><polyline fill="none" opacity="1.0" points="666.0,554.0 603.0,554.0 603.0,505.0 597.0,505.0 597.0,479.0 590.0,479.0 590.0,505.0 504.0,505.0 504.0,474.0 455.0,474.0 455.0,484.0" stroke="#000" stroke-width="1" /><polyline fill="none" opacity="1.0" points="666.0,532.0 630.0,532.0 630.0,505.0 637.0,505.0 637.0,479.0 644.0,479.0 644.0,408.0 637.0,408.0 637.0,382.0 630.0,382.0 630.0,361.0 661.0,279.0 661.0,234.0" stroke="#000" stroke-width="1" /><polyline fill="none" opacity="1.0" points="661.0,268.0 636.0,268.0" stroke="#000" stroke-width="1" /><polyline fill="none" opacity="1.0" points="661.0,264.0 636.0,264.0" stroke="#000" stroke-width="1" /><polyline fill="none" opacity="1.0" points="661.0,260.0 636.0,260.0" stroke="#000" stroke-width="1" /><polyline fill="none" opacity="1.0" points="661.0,256.0 636.0,256.0" stroke="#000" stroke-width="1" /><polyline fill="none" opacity="1.0" points="661.0,252.0 636.0,252.0" stroke="#000" stroke-width="1" /><polyline fill="none" opacity="1.0" points="661.0,248.0 636.0,248.0" stroke="#000" stroke-width="1" /><polyline fill="none" opacity="1.0" points="661.0,244.0 636.0,244.0" stroke="#000" stroke-width="1" /><polyline fill="none" opacity="1.0" points="661.0,240.0 636.0,240.0" stroke="#000" stroke-width="1" /><polyline fill="none" opacity="1.0" points="661.0,236.0 636.0,236.0" stroke="#000" stroke-width="1" /><polyline fill="none" opacity="1.0" points="664.0,532.0 664.0,554.0" stroke="#000" stroke-width="1" /><polyline fill="none" opacity="1.0" points="660.0,532.0 660.0,554.0" stroke="#000" stroke-width="1" /><polyline fill="none" opacity="1.0" points="656.0,532.0 656.0,554.0" stroke="#000" stroke-width="1" /><polyline fill="none" opacity="1.0" points="652.0,532.0 652.0,554.0" stroke="#000" stroke-width="1" /><polyline fill="none" opacity="1.0" points="648.0,532.0 648.0,554.0" stroke="#000" stroke-width="1" /><polyline fill="none" opacity="1.0" points="644.0,532.0 644.0,554.0" stroke="#000" stroke-width="1" /><polyline fill="none" opacity="1.0" points="640.0,532.0 640.0,554.0" stroke="#000" stroke-width="1" /><polyline fill="none" opacity="1.0" points="636.0,532.0 636.0,554.0" stroke="#000" stroke-width="1" /><polyline fill="none" opacity="1.0" points="632.0,532.0 632.0,554.0" stroke="#000" stroke-width="1" /><polyline fill="none" opacity="1.0" points="501.0,414.0 501.0,468.0" stroke="#000" stroke-width="1" /><polyline fill="none" opacity="1.0" points="497.0,414.0 497.0,468.0" stroke="#000" stroke-width="1" /><polyline fill="none" opacity="1.0" points="493.0,414.0 493.0,468.0" stroke="#000" stroke-width="1" /><polyline fill="none" opacity="1.0" points="489.0,414.0 489.0,468.0" stroke="#000" stroke-width="1" /><polyline fill="none" opacity="1.0" points="485.0,414.0 485.0,468.0" stroke="#000" stroke-width="1" /><polyline fill="none" opacity="1.0" points="481.0,414.0 481.0,468.0" stroke="#000" stroke-width="1" /><polyline fill="none" opacity="1.0" points="477.0,414.0 477.0,468.0" stroke="#000" stroke-width="1" /><polyline fill="none" opacity="1.0" points="473.0,414.0 473.0,468.0" stroke="#000" stroke-width="1" /><polyline fill="none" opacity="1.0" points="469.0,414.0 469.0,468.0" stroke="#000" stroke-width="1" /><polyline fill="none" opacity="1.0" points="465.0,414.0 465.0,468.0" stroke="#000" stroke-width="1" /><polyline fill="none" opacity="1.0" points="461.0,414.0 461.0,468.0" stroke="#000" stroke-width="1" /><polyline fill="none" opacity="1.0" points="457.0,414.0 457.0,468.0" stroke="#000" stroke-width="1" /><polyline fill="none" opacity="1.0" points="504.0,468.0 455.0,468.0" stroke="#000" stroke-width="1" /><polygon fill="#D0D0D0" opacity="1.0" points="597.0,440.0 597.0,447.0 590.0,447.0 590.0,440.0" stroke="#000" stroke-width="1" /><polyline fill="none" opacity="1.0" points="644.0,440.0 653.0,440.0 653.0,472.0 644.0,472.0" stroke="#000" stroke-width="1" /><text fill="#FFF" font-family="Arial" font-size="10" font-weight="normal" opacity="1.0" transform="rotate(90.0 654.0,445.0) translate(0 10)" x="654.0" y="445.0">кассы</text><polygon fill="none" opacity="1.0" points="569.0,440.0 569.0,447.0 562.0,447.0 562.0,440.0" stroke="#000" stroke-width="1" /><polyline fill="none" opacity="1.0" points="568.0,451.0 563.0,451.0" stroke="#090" stroke-width="1" /><polyline fill="none" opacity="1.0" points="568.0,455.0 563.0,455.0" stroke="#090" stroke-width="1" /><polyline fill="none" opacity="1.0" points="568.0,459.0 563.0,459.0" stroke="#090" stroke-width="1" /><polyline fill="none" opacity="1.0" points="568.0,463.0 563.0,463.0" stroke="#090" stroke-width="1" /><polyline fill="none" opacity="1.0" points="568.0,467.0 563.0,467.0" stroke="#090" stroke-width="1" /><polyline fill="none" opacity="1.0" points="568.0,471.0 563.0,471.0" stroke="#090" stroke-width="1" /><polyline fill="none" opacity="1.0" points="568.0,475.0 563.0,475.0" stroke="#090" stroke-width="1" /><polyline fill="none" opacity="1.0" points="568.0,479.0 563.0,479.0" stroke="#090" stroke-width="1" /><polyline fill="none" opacity="1.0" points="568.0,483.0 563.0,483.0" stroke="#090" stroke-width="1" /><polyline fill="none" opacity="1.0" points="568.0,487.0 563.0,487.0" stroke="#090" stroke-width="1" /><polyline fill="none" opacity="1.0" points="568.0,491.0 563.0,491.0" stroke="#090" stroke-width="1" /><polyline fill="none" opacity="1.0" points="568.0,495.0 563.0,495.0" stroke="#090" stroke-width="1" /><polyline fill="none" opacity="1.0" points="568.0,499.0 563.0,499.0" stroke="#090" stroke-width="1" /><polyline fill="none" opacity="1.0" points="568.0,503.0 563.0,503.0" stroke="#090" stroke-width="1" /><polyline fill="none" opacity="1.0" points="568.0,436.0 563.0,436.0" stroke="#F00" stroke-width="1" /><polyline fill="none" opacity="1.0" points="568.0,432.0 563.0,432.0" stroke="#F00" stroke-width="1" /><polyline fill="none" opacity="1.0" points="568.0,428.0 563.0,428.0" stroke="#F00" stroke-width="1" /><polyline fill="none" opacity="1.0" points="568.0,424.0 563.0,424.0" stroke="#F00" stroke-width="1" /><polyline fill="none" opacity="1.0" points="568.0,420.0 563.0,420.0" stroke="#F00" stroke-width="1" /><polyline fill="none" opacity="1.0" points="568.0,416.0 563.0,416.0" stroke="#F00" stroke-width="1" /><polyline fill="none" opacity="1.0" points="568.0,412.0 563.0,412.0" stroke="#F00" stroke-width="1" /><polyline fill="none" opacity="1.0" points="568.0,408.0 563.0,408.0" stroke="#F00" stroke-width="1" /><polyline fill="none" opacity="1.0" points="568.0,404.0 563.0,404.0" stroke="#F00" stroke-width="1" /><polyline fill="none" opacity="1.0" points="568.0,400.0 563.0,400.0" stroke="#F00" stroke-width="1" /><polyline fill="none" opacity="1.0" points="568.0,396.0 563.0,396.0" stroke="#F00" stroke-width="1" /><polyline fill="none" opacity="1.0" points="568.0,392.0 563.0,392.0" stroke="#F00" stroke-width="1" /><polyline fill="none" opacity="1.0" points="568.0,388.0 563.0,388.0" stroke="#F00" stroke-width="1" /><polyline fill="none" opacity="1.0" points="568.0,384.0 563.0,384.0" stroke="#F00" stroke-width="1" /><polyline fill="none" opacity="1.0" points="586.0,424.0 599.0,424.0" stroke="#F00" stroke-width="1" /><polygon fill="#F00" opacity="1.0" points="595.2329,425.0094 599.0,424.0 595.2329,422.9906" stroke="#F00" stroke-width="1" /><polyline fill="none" opacity="1.0" points="599.0,463.0 586.0,463.0" stroke="#090" stroke-width="1" /><polygon fill="#090" opacity="1.0" points="589.7671,461.9906 586.0,463.0 589.7671,464.0094" stroke="#090" stroke-width="1" /><polygon fill="#34349C" opacity="1.0" points="586.0,397.0 586.0,400.0 587.0,400.0 587.0,397.0" stroke="#34349C" stroke-width="1" /><polygon fill="#F00" opacity="1.0" points="586.0,394.0 586.0,397.0 587.0,397.0 587.0,394.0" stroke="#F00" stroke-width="1" /><text fill="#00AFAF" font-family="Arial" font-size="15" font-weight="normal" opacity="1.0" transform="rotate(-0.0 206.0,336.0) translate(0 15)" x="206.0" y="336.0">улица Мусы Джалиля</text><text fill="#00AFAF" font-family="Arial" font-size="15" font-weight="normal" opacity="1.0" transform="rotate(90.0 600.0,186.0) translate(0 15)" x="600.0" y="186.0">Шипиловская улица</text><text fill="#00AFAF" font-family="Arial" font-size="15" font-weight="normal" opacity="1.0" transform="rotate(90.0 600.0,573.0) translate(0 15)" x="600.0" y="573.0">Шипиловская улица</text><g transform="rotate(90.0,260.0,425.0)"><text fill="#FFD900" font-family="Arial" font-size="25" font-weight="normal" opacity="1.0" x="397.25" y="695.5">1</text><text fill="#FFD900" font-family="Arial" font-size="25" font-weight="normal" opacity="1.0" x="397.25" y="768.5">2</text><text fill="#FFD900" font-family="Arial" font-size="25" font-weight="normal" opacity="1.0" x="58.25" y="688.5">3</text><text fill="#FFD900" font-family="Arial" font-size="25" font-weight="normal" opacity="1.0" x="75.25" y="75.5">4</text><text fill="#FFD900" font-family="Arial" font-size="25" font-weight="normal" opacity="1.0" x="398.25" y="43.5">5</text></g></g></g></svg>