<?xml version="1.0" encoding="utf-8" ?>
<svg baseProfile="tiny" height="420px" version="1.2" width="500px" xmlns="http://www.w3.org/2000/svg" xmlns:ev="http://www.w3.org/2001/xml-events" xmlns:xlink="http://www.w3.org/1999/xlink"><defs /><g><g transform="rotate(-7.0,250.0,210.0)"><polyline fill="none" opacity="100" points="329.0,1.0 213.0,425.0" stroke="#F5F5F5" stroke-width="60" /><polygon fill="#2C7CAC" opacity="100" points="27.0,157.0 27.0,187.0 477.0,187.0 477.0,157.0" stroke="#000" stroke-width="1" /><polygon fill="#2C7CAC" opacity="100" points="27.0,267.0 27.0,297.0 477.0,297.0 477.0,267.0" stroke="#000" stroke-width="1" /><polygon fill="#FFF" opacity="0.85" points="118.0,156.0 160.0,156.0 160.0,297.0 118.0,297.0" stroke="#FFF" stroke-width="1" /><polygon fill="#FFF" opacity="0.85" points="342.0,157.0 384.0,157.0 383.0,296.0 342.0,297.0" stroke="#FFF" stroke-width="1" /><polygon fill="#D0D0D0" opacity="0.85" points="118.0,239.0 160.0,239.0 160.0,297.0 118.0,297.0" stroke="#000" stroke-width="1" /><polygon fill="#FEFBF1" opacity="1.0" points="52.0,-15.0 32.0,58.0 253.0,117.0 273.0,44.0" stroke="#DFDFDF" stroke-width="1" /><polyline fill="none" opacity="1.0" points="118.0,157.0 123.0,157.0 123.0,61.0 82.0,50.0 77.0,69.0 81.0,70.0" stroke="#000" stroke-width="1" /><polyline fill="none" opacity="1.0" points="160.0,157.0 155.0,157.0 155.0,69.0 199.0,81.0 198.0,85.0 217.0,90.0 213.0,105.0 205.0,103.0" stroke="#000" stroke-width="1" /><polyline fill="none" opacity="1.0" points="244.0,113.0 236.0,111.0 240.0,96.0 251.0,99.0 263.0,53.0 211.0,39.0 210.0,43.0 57.0,2.0 47.0,41.0 51.0,42.0 46.0,61.0 42.0,60.0" stroke="#000" stroke-width="1" /><polyline fill="none" opacity="1.0" points="118.0,187.0 118.0,215.0 80.0,215.0" stroke="#000" stroke-width="1" /><polyline fill="none" opacity="1.0" points="80.0,239.0 118.0,239.0" stroke="#000" stroke-width="1" /><polyline fill="none" opacity="1.0" points="160.0,239.0 197.0,239.0" stroke="#000" stroke-width="1" /><polyline fill="none" opacity="1.0" points="197.0,215.0 160.0,215.0 160.0,187.0" stroke="#000" stroke-width="1" /><polyline fill="none" opacity="1.0" points="27.0,187.0 27.0,267.0" stroke="#000" stroke-width="1" /><polyline fill="none" opacity="1.0" points="118.0,157.0 118.0,187.0" stroke="#000" stroke-width="1" /><polyline fill="none" opacity="1.0" points="160.0,157.0 160.0,187.0" stroke="#000" stroke-width="1" /><polyline fill="none" opacity="1.0" points="123.0,112.0 155.0,112.0" stroke="#000" stroke-width="1" /><polyline fill="none" opacity="1.0" points="123.0,108.0 155.0,108.0" stroke="#000" stroke-width="1" /><polyline fill="none" opacity="1.0" points="123.0,104.0 155.0,104.0" stroke="#000" stroke-width="1" /><polyline fill="none" opacity="1.0" points="123.0,100.0 155.0,100.0" stroke="#000" stroke-width="1" /><polyline fill="none" opacity="1.0" points="123.0,96.0 155.0,96.0" stroke="#000" stroke-width="1" /><polyline fill="none" opacity="1.0" points="123.0,88.0 155.0,88.0" stroke="#000" stroke-width="1" /><polyline fill="none" opacity="1.0" points="123.0,84.0 155.0,84.0" stroke="#000" stroke-width="1" /><polyline fill="none" opacity="1.0" points="123.0,80.0 155.0,80.0" stroke="#000" stroke-width="1" /><polyline fill="none" opacity="1.0" points="123.0,76.0 155.0,76.0" stroke="#000" stroke-width="1" /><polyline fill="none" opacity="1.0" points="111.0,17.0 101.0,55.0" stroke="#000" stroke-width="1" /><polyline fill="none" opacity="1.0" points="107.1769,15.8237 97.1769,53.8237" stroke="#000" stroke-width="1" /><polyline fill="none" opacity="1.0" points="103.3538,14.6473 93.3538,52.6473" stroke="#000" stroke-width="1" /><polyline fill="none" opacity="1.0" points="99.5307,13.471 89.5307,51.471" stroke="#000" stroke-width="1" /><polyline fill="none" opacity="1.0" points="120.0,19.0 110.0,57.0" stroke="#000" stroke-width="1" /><polyline fill="none" opacity="1.0" points="123.8461,20.0989 113.8461,58.0989" stroke="#000" stroke-width="1" /><polyline fill="none" opacity="1.0" points="127.6922,21.1978 117.6922,59.1978" stroke="#000" stroke-width="1" /><polyline fill="none" opacity="1.0" points="131.5383,22.2967 121.5383,60.2967" stroke="#000" stroke-width="1" /><polyline fill="none" opacity="1.0" points="169.0,32.0 159.0,70.0" stroke="#000" stroke-width="1" /><polyline fill="none" opacity="1.0" points="172.8461,33.0989 162.8461,71.0989" stroke="#000" stroke-width="1" /><polyline fill="none" opacity="1.0" points="176.6922,34.1978 166.6922,72.1978" stroke="#000" stroke-width="1" /><polyline fill="none" opacity="1.0" points="180.5383,35.2967 170.5383,73.2967" stroke="#000" stroke-width="1" /><polyline fill="none" opacity="1.0" points="191.0,38.0 181.0,76.0" stroke="#000" stroke-width="1" /><polyline fill="none" opacity="1.0" points="194.8649,39.0307 184.8649,77.0307" stroke="#000" stroke-width="1" /><polyline fill="none" opacity="1.0" points="198.7299,40.0613 188.7299,78.0613" stroke="#000" stroke-width="1" /><polyline fill="none" opacity="1.0" points="202.5948,41.092 192.5948,79.092" stroke="#000" stroke-width="1" /><polyline fill="none" opacity="1.0" points="82.0,215.0 82.0,239.0" stroke="#000" stroke-width="1" /><polyline fill="none" opacity="1.0" points="86.0,215.0 86.0,239.0" stroke="#000" stroke-width="1" /><polyline fill="none" opacity="1.0" points="90.0,215.0 90.0,239.0" stroke="#000" stroke-width="1" /><polyline fill="none" opacity="1.0" points="94.0,215.0 94.0,239.0" stroke="#000" stroke-width="1" /><polyline fill="none" opacity="1.0" points="103.0,215.0 103.0,239.0" stroke="#000" stroke-width="1" /><polyline fill="none" opacity="1.0" points="107.0,215.0 107.0,239.0" stroke="#000" stroke-width="1" /><polyline fill="none" opacity="1.0" points="111.0,215.0 111.0,239.0" stroke="#000" stroke-width="1" /><polyline fill="none" opacity="1.0" points="115.0,215.0 115.0,239.0" stroke="#000" stroke-width="1" /><polyline fill="none" opacity="1.0" points="162.0,215.0 162.0,239.0" stroke="#000" stroke-width="1" /><polyline fill="none" opacity="1.0" points="166.0,215.0 166.0,239.0" stroke="#000" stroke-width="1" /><polyline fill="none" opacity="1.0" points="170.0,215.0 170.0,239.0" stroke="#000" stroke-width="1" /><polyline fill="none" opacity="1.0" points="174.0,215.0 174.0,239.0" stroke="#000" stroke-width="1" /><polyline fill="none" opacity="1.0" points="195.0,215.0 195.0,239.0" stroke="#000" stroke-width="1" /><polyline fill="none" opacity="1.0" points="191.0,215.0 191.0,239.0" stroke="#000" stroke-width="1" /><polyline fill="none" opacity="1.0" points="187.0,215.0 187.0,239.0" stroke="#000" stroke-width="1" /><polyline fill="none" opacity="1.0" points="183.0,215.0 183.0,239.0" stroke="#000" stroke-width="1" /><polygon fill="#D0D0D0" opacity="1.0" points="58.0,64.0 63.0,45.0 70.0,47.0 65.0,66.0" stroke="#000" stroke-width="1" /><polygon fill="none" opacity="1.0" points="135.0,148.0 135.0,120.0 143.0,120.0 143.0,148.0" stroke="#000" stroke-width="1" /><text fill="#FFF" font-family="Arial" font-size="10" font-weight="normal" opacity="1.0" transform="rotate(90.0 146.0,123.0) translate(0 10)" x="146.0" y="123.0">касса</text><polygon fill="none" opacity="1.0" points="137.0,173.0 141.0,173.0 141.0,177.0 137.0,177.0" stroke="#000" stroke-width="1" /><polyline fill="none" opacity="1.0" points="139.0,148.0 139.0,173.0" stroke="#000" stroke-width="0.5" /><polyline fill="none" opacity="1.0" points="139.0,177.0 139.0,215.0" stroke="#000" stroke-width="0.5" /><polyline fill="none" opacity="1.0" points="139.0,120.0 139.0,68.0 150.0,27.0" stroke="#000" stroke-width="0.5" /><polyline fill="none" opacity="1.0" points="135.0,152.0 135.0,155.0" stroke="#F00" stroke-width="1" /><polyline fill="none" opacity="1.0" points="131.0,152.0 131.0,155.0" stroke="#F00" stroke-width="1" /><polyline fill="none" opacity="1.0" points="127.0,152.0 127.0,155.0" stroke="#F00" stroke-width="1" /><polyline fill="none" opacity="1.0" points="143.0,159.0 143.0,162.0" stroke="#090" stroke-width="1" /><polyline fill="none" opacity="1.0" points="147.0,159.0 147.0,162.0" stroke="#090" stroke-width="1" /><polyline fill="none" opacity="1.0" points="151.0,159.0 151.0,162.0" stroke="#090" stroke-width="1" /><polyline fill="none" opacity="1.0" points="155.0,159.0 155.0,162.0" stroke="#090" stroke-width="1" /><polyline fill="none" opacity="1.0" points="300.0,215.0 342.0,215.0 342.0,157.0" stroke="#000" stroke-width="1" /><polyline fill="none" opacity="1.0" points="384.0,157.0 384.0,215.0 427.0,215.0" stroke="#000" stroke-width="1" /><polyline fill="none" opacity="1.0" points="427.0,240.0 384.0,240.0 384.0,297.0" stroke="#000" stroke-width="1" /><polyline fill="none" opacity="1.0" points="300.0,240.0 342.0,240.0 342.0,297.0" stroke="#000" stroke-width="1" /><polyline fill="none" opacity="1.0" points="342.0,157.0 384.0,157.0" stroke="#000" stroke-width="1" /><polyline fill="none" opacity="1.0" points="342.0,297.0 384.0,297.0" stroke="#000" stroke-width="1" /><polyline fill="none" opacity="1.0" points="477.0,187.0 477.0,267.0" stroke="#000" stroke-width="1" /><polyline fill="none" opacity="1.0" points="302.0,215.0 302.0,240.0" stroke="#000" stroke-width="1" /><polyline fill="none" opacity="1.0" points="306.0,215.0 306.0,240.0" stroke="#000" stroke-width="1" /><polyline fill="none" opacity="1.0" points="310.0,215.0 310.0,240.0" stroke="#000" stroke-width="1" /><polyline fill="none" opacity="1.0" points="314.0,215.0 314.0,240.0" stroke="#000" stroke-width="1" /><polyline fill="none" opacity="1.0" points="322.0,215.0 322.0,240.0" stroke="#000" stroke-width="1" /><polyline fill="none" opacity="1.0" points="326.0,215.0 326.0,240.0" stroke="#000" stroke-width="1" /><polyline fill="none" opacity="1.0" points="330.0,215.0 330.0,240.0" stroke="#000" stroke-width="1" /><polyline fill="none" opacity="1.0" points="334.0,215.0 334.0,240.0" stroke="#000" stroke-width="1" /><polyline fill="none" opacity="1.0" points="405.0,215.0 405.0,240.0" stroke="#000" stroke-width="1" /><polyline fill="none" opacity="1.0" points="401.0,215.0 401.0,240.0" stroke="#000" stroke-width="1" /><polyline fill="none" opacity="1.0" points="397.0,215.0 397.0,240.0" stroke="#000" stroke-width="1" /><polyline fill="none" opacity="1.0" points="393.0,215.0 393.0,240.0" stroke="#000" stroke-width="1" /><polyline fill="none" opacity="1.0" points="425.0,215.0 425.0,240.0" stroke="#000" stroke-width="1" /><polyline fill="none" opacity="1.0" points="421.0,215.0 421.0,240.0" stroke="#000" stroke-width="1" /><polyline fill="none" opacity="1.0" points="417.0,215.0 417.0,240.0" stroke="#000" stroke-width="1" /><polyline fill="none" opacity="1.0" points="413.0,215.0 413.0,240.0" stroke="#000" stroke-width="1" /><text fill="#00AFAF" font-family="Arial" font-size="15" font-weight="normal" opacity="1.0" transform="rotate(-75.0 277.0,147.0) translate(0 15)" x="277.0" y="147.0">Смоленская площадь</text><text fill="#00AFAF" font-family="Arial" font-size="15" font-weight="normal" opacity="1.0" transform="rotate(-75.0 295.0,135.0) translate(0 15)" x="295.0" y="135.0">(Садовое кольцо)</text><polyline fill="none" opacity="1.0" points="129.0,183.0 129.0,169.0" stroke="#F00" stroke-width="1" /><polygon fill="#F00" opacity="1.0" points="130.087,173.0569 129.0,169.0 127.913,173.0569" stroke="#F00" stroke-width="1" /><polyline fill="none" opacity="1.0" points="129.0,42.0 108.0,36.0" stroke="#F00" stroke-width="1" /><polygon fill="#F00" opacity="1.0" points="114.5512,36.1081 108.0,36.0 113.6195,39.3692" stroke="#F00" stroke-width="1" /><polyline fill="none" opacity="1.0" points="225.0,107.0 228.0,96.0" stroke="#090" stroke-width="1" /><polygon fill="#090" opacity="1.0" points="227.9848,99.4205 228.0,96.0 226.2766,98.9546" stroke="#090" stroke-width="1" /><polyline fill="none" opacity="1.0" points="205.0,62.0 182.0,56.0" stroke="#090" stroke-width="1" /><polygon fill="#090" opacity="1.0" points="189.1308,55.9528 182.0,56.0 188.199,59.5245" stroke="#090" stroke-width="1" /><polyline fill="none" opacity="1.0" points="149.0,169.0 149.0,183.0" stroke="#090" stroke-width="1" /><polygon fill="#090" opacity="1.0" points="147.913,178.9431 149.0,183.0 150.087,178.9431" stroke="#090" stroke-width="1" /><text fill="#000" font-family="Arial" font-size="25" font-weight="bold" opacity="1.0" transform="rotate(-0.0 148.0,211.0) translate(0 25)" x="148.0" y="211.0">Смоленская</text><text fill="#FFF" font-family="Arial" font-size="25" font-weight="bold" opacity="1.0" transform="rotate(-0.0 146.0,209.0) translate(0 25)" x="146.0" y="209.0">Смоленская</text><text fill="#2C7CAC" font-family="Arial" font-size="20" font-weight="normal" opacity="1.0" transform="rotate(-0.0 18.0,133.0) translate(0 20)" x="18.0" y="133.0">&lt;&lt; Киевская</text><text fill="#2C7CAC" font-family="Arial" font-size="20" font-weight="normal" opacity="1.0" transform="rotate(-0.0 364.0,298.0) translate(0 20)" x="364.0" y="298.0">Арбатская &gt;&gt;</text><text fill="#2C7CAC" font-family="Arial" font-size="25" font-weight="bold" opacity="1.0" transform="rotate(-0.0 147.0,210.0) translate(0 25)" x="147.0" y="210.0">Смоленская</text><polyline fill="none" opacity="1.0" points="118.0,325.0 118.0,367.0 197.0,367.0" stroke="#000" stroke-width="1" /><polyline fill="none" opacity="1.0" points="260.0,367.0 394.0,367.0 394.0,345.0 372.0,345.0" stroke="#000" stroke-width="1" /><polyline fill="none" opacity="1.0" points="372.0,327.0 412.0,327.0 412.0,393.0 253.0,393.0" stroke="#000" stroke-width="1" /><polyline fill="none" opacity="1.0" points="190.0,393.0 100.0,393.0 100.0,325.0" stroke="#000" stroke-width="1" /><polyline fill="none" opacity="1.0" points="118.0,327.0 100.0,327.0" stroke="#000" stroke-width="1" /><polyline fill="none" opacity="1.0" points="118.0,331.0 100.0,331.0" stroke="#000" stroke-width="1" /><polyline fill="none" opacity="1.0" points="118.0,335.0 100.0,335.0" stroke="#000" stroke-width="1" /><polyline fill="none" opacity="1.0" points="118.0,339.0 100.0,339.0" stroke="#000" stroke-width="1" /><polyline fill="none" opacity="1.0" points="118.0,343.0 100.0,343.0" stroke="#000" stroke-width="1" /><polyline fill="none" opacity="1.0" points="118.0,347.0 100.0,347.0" stroke="#000" stroke-width="1" /><polyline fill="none" opacity="1.0" points="118.0,351.0 100.0,351.0" stroke="#000" stroke-width="1" /><polyline fill="none" opacity="1.0" points="118.0,355.0 100.0,355.0" stroke="#000" stroke-width="1" /><polyline fill="none" opacity="1.0" points="118.0,359.0 100.0,359.0" stroke="#000" stroke-width="1" /><polyline fill="none" opacity="1.0" points="118.0,363.0 100.0,363.0" stroke="#000" stroke-width="1" /><polyline fill="none" opacity="1.0" points="374.0,345.0 374.0,327.0" stroke="#000" stroke-width="1" /><polyline fill="none" opacity="1.0" points="378.0,345.0 378.0,327.0" stroke="#000" stroke-width="1" /><polyline fill="none" opacity="1.0" points="382.0,345.0 382.0,327.0" stroke="#000" stroke-width="1" /><polyline fill="none" opacity="1.0" points="386.0,345.0 386.0,327.0" stroke="#000" stroke-width="1" /><polyline fill="none" opacity="1.0" points="390.0,345.0 390.0,327.0" stroke="#000" stroke-width="1" /><polyline fill="none" opacity="1.0" points="394.0,347.0 412.0,347.0" stroke="#000" stroke-width="1" /><polyline fill="none" opacity="1.0" points="394.0,351.0 412.0,351.0" stroke="#000" stroke-width="1" /><polyline fill="none" opacity="1.0" points="394.0,355.0 412.0,355.0" stroke="#000" stroke-width="1" /><polyline fill="none" opacity="1.0" points="394.0,359.0 412.0,359.0" stroke="#000" stroke-width="1" /><polyline fill="none" opacity="1.0" points="394.0,363.0 412.0,363.0" stroke="#000" stroke-width="1" /><polyline fill="none" opacity="1.0" points="197.0,367.0 260.0,367.0" stroke="#DDD" stroke-width="1" /><polyline fill="none" opacity="1.0" points="190.0,393.0 253.0,393.0" stroke="#DDD" stroke-width="1" /><polygon fill="#FFD0D0" opacity="0.7" points="298.0,242.0 298.0,213.0 340.0,213.0 340.0,155.0 386.0,155.0 386.0,213.0 429.0,213.0 429.0,242.0 386.0,242.0 386.0,299.0 340.0,299.0 340.0,242.0" stroke="#FFD0D0" stroke-width="1" /><text fill="#FF4040" font-family="Arial" font-size="15" font-weight="normal" opacity="1.0" transform="rotate(-0.0 334.0,218.0) translate(0 15)" x="334.0" y="218.0">Закрыто</text><polyline fill="none" opacity="1.0" points="298.0,242.0 298.0,213.0 340.0,213.0 340.0,155.0 386.0,155.0 386.0,213.0 429.0,213.0 429.0,242.0 386.0,242.0 386.0,299.0 340.0,299.0 340.0,242.0 298.0,242.0" stroke="#FF4040" stroke-dasharray="5,5" stroke-width="1" /><g transform="rotate(7.0,250.0,210.0)"><text fill="#FFD900" font-family="Arial" font-size="25" font-weight="normal" opacity="1.0" x="153.25" y="132.5">1</text></g></g></g></svg>