<?xml version="1.0" encoding="utf-8" ?>
<svg baseProfile="tiny" height="870px" version="1.2" width="700px" xmlns="http://www.w3.org/2000/svg" xmlns:ev="http://www.w3.org/2001/xml-events" xmlns:xlink="http://www.w3.org/1999/xlink"><defs /><g><g transform="rotate(-60.0,350.0,435.0)"><polygon fill="#FCDC04" opacity="100" points="203.0,413.0 203.0,383.0 652.0,383.0 652.0,413.0" stroke="#000" stroke-width="1" /><polygon fill="#FCDC04" opacity="100" points="203.0,521.0 203.0,491.0 652.0,491.0 652.0,521.0" stroke="#000" stroke-width="1" /><polygon fill="#94949C" opacity="100" points="433.0,442.0 433.0,446.0 431.0,446.0 431.0,442.0" stroke="#94949C" stroke-width="1" /><polygon fill="#F00" opacity="100" points="433.0,438.0 433.0,442.0 431.0,442.0 431.0,438.0" stroke="#F00" stroke-width="1" /><text fill="#000" font-family="Arial" font-size="20" font-weight="normal" opacity="100" transform="rotate(-0.0 205.0,358.0) translate(0 20)" x="205.0" y="358.0">&lt;&lt; Боровское шоссе</text><text fill="#000" font-family="Arial" font-size="20" font-weight="normal" opacity="100" transform="rotate(-0.0 543.0,521.0) translate(0 20)" x="543.0" y="521.0">Говорово &gt;&gt;</text><text fill="#000" font-family="Arial" font-size="25" font-weight="bold" opacity="100" transform="rotate(-0.0 365.0,436.0) translate(0 25)" x="365.0" y="436.0">Солнцево</text><text fill="#FCDC04" font-family="Arial" font-size="20" font-weight="normal" opacity="100" transform="rotate(-0.0 204.0,357.0) translate(0 20)" x="204.0" y="357.0">&lt;&lt; Боровское шоссе</text><text fill="#FCDC04" font-family="Arial" font-size="20" font-weight="normal" opacity="100" transform="rotate(-0.0 542.0,520.0) translate(0 20)" x="542.0" y="520.0">Говорово &gt;&gt;</text><text fill="#FCDC04" font-family="Arial" font-size="25" font-weight="bold" opacity="100" transform="rotate(-0.0 364.0,435.0) translate(0 25)" x="364.0" y="435.0">Солнцево</text><polyline fill="none" opacity="100" points="773.0,520.0 749.0,520.0 749.0,504.0 724.0,504.0 724.0,517.0" stroke="#D0D0D0" stroke-width="1" /><polyline fill="none" opacity="100" points="750.0,531.0 740.0,531.0" stroke="#D0D0D0" stroke-width="1" /><polyline fill="none" opacity="100" points="739.0,531.0 739.0,516.0 738.0,516.0 738.0,517.0" stroke="#D0D0D0" stroke-width="1" /><polyline fill="none" opacity="100" points="652.0,413.0 652.0,420.0 821.0,420.0 821.0,502.0 861.0,502.0" stroke="#000" stroke-width="1" /><polyline fill="none" opacity="100" points="652.0,434.0 660.0,434.0" stroke="#000" stroke-width="1" /><polyline fill="none" opacity="100" points="652.0,491.0 652.0,470.0 660.0,470.0" stroke="#000" stroke-width="1" /><polyline fill="none" opacity="100" points="744.0,470.0 744.0,482.0 793.0,482.0 793.0,502.0 722.0,502.0 722.0,531.0 740.0,531.0 740.0,529.0" stroke="#000" stroke-width="1" /><polyline fill="none" opacity="100" points="750.0,529.0 750.0,531.0 773.0,531.0 773.0,520.0" stroke="#000" stroke-width="1" /><polyline fill="none" opacity="100" points="774.0,531.0 809.0,531.0 809.0,520.0 861.0,520.0" stroke="#000" stroke-width="1" /><polyline fill="none" opacity="100" points="793.0,520.0 773.0,520.0" stroke="#000" stroke-width="1" /><polyline fill="none" opacity="100" points="754.0,448.0 777.0,452.0 806.0,452.0 806.0,481.0" stroke="#000" stroke-width="0.5" /><polyline fill="none" opacity="100" points="821.0,506.0 861.0,506.0" stroke="#000" stroke-width="0.5" /><polyline fill="none" opacity="100" points="782.0,475.0 744.0,475.0" stroke="#000" stroke-width="0.5" /><polyline fill="none" opacity="100" points="859.0,520.0 859.0,506.0" stroke="#000" stroke-width="1" /><polyline fill="none" opacity="100" points="855.0,520.0 855.0,506.0" stroke="#000" stroke-width="1" /><polyline fill="none" opacity="100" points="851.0,520.0 851.0,506.0" stroke="#000" stroke-width="1" /><polyline fill="none" opacity="100" points="847.0,520.0 847.0,506.0" stroke="#000" stroke-width="1" /><polyline fill="none" opacity="100" points="843.0,520.0 843.0,506.0" stroke="#000" stroke-width="1" /><polyline fill="none" opacity="100" points="839.0,520.0 839.0,506.0" stroke="#000" stroke-width="1" /><polyline fill="none" opacity="100" points="835.0,520.0 835.0,506.0" stroke="#000" stroke-width="1" /><polyline fill="none" opacity="100" points="831.0,520.0 831.0,506.0" stroke="#000" stroke-width="1" /><polyline fill="none" opacity="100" points="827.0,520.0 827.0,506.0" stroke="#000" stroke-width="1" /><polyline fill="none" opacity="100" points="823.0,520.0 823.0,506.0" stroke="#000" stroke-width="1" /><polyline fill="none" opacity="100" points="775.0,520.0 775.0,502.0" stroke="#000" stroke-width="1" /><polyline fill="none" opacity="100" points="779.0,520.0 779.0,502.0" stroke="#000" stroke-width="1" /><polyline fill="none" opacity="100" points="783.0,520.0 783.0,502.0" stroke="#000" stroke-width="1" /><polyline fill="none" opacity="100" points="787.0,520.0 787.0,502.0" stroke="#000" stroke-width="1" /><polyline fill="none" opacity="100" points="791.0,520.0 791.0,502.0" stroke="#000" stroke-width="1" /><polyline fill="none" opacity="100" points="768.0,502.0 768.0,531.0" stroke="#000" stroke-width="1" /><polyline fill="none" opacity="100" points="764.0,502.0 764.0,531.0" stroke="#000" stroke-width="1" /><polyline fill="none" opacity="100" points="760.0,502.0 760.0,531.0" stroke="#000" stroke-width="1" /><polyline fill="none" opacity="100" points="756.0,502.0 756.0,531.0" stroke="#000" stroke-width="1" /><polyline fill="none" opacity="100" points="752.0,502.0 752.0,531.0" stroke="#000" stroke-width="1" /><polygon fill="none" opacity="100" points="783.0,422.0 789.0,422.0 789.0,428.0 783.0,428.0" stroke="#000" stroke-width="1" /><polyline fill="none" opacity="100" points="784.0,451.0 788.0,451.0" stroke="#090" stroke-width="1" /><polyline fill="none" opacity="100" points="784.0,447.0 788.0,447.0" stroke="#090" stroke-width="1" /><polyline fill="none" opacity="100" points="784.0,443.0 788.0,443.0" stroke="#090" stroke-width="1" /><polyline fill="none" opacity="100" points="784.0,439.0 788.0,439.0" stroke="#090" stroke-width="1" /><polyline fill="none" opacity="100" points="784.0,435.0 788.0,435.0" stroke="#090" stroke-width="1" /><polyline fill="none" opacity="100" points="784.0,431.0 788.0,431.0" stroke="#090" stroke-width="1" /><polyline fill="none" opacity="100" points="784.0,455.0 788.0,455.0" stroke="#F00" stroke-width="1" /><polyline fill="none" opacity="100" points="784.0,459.0 788.0,459.0" stroke="#F00" stroke-width="1" /><polyline fill="none" opacity="100" points="784.0,463.0 788.0,463.0" stroke="#F00" stroke-width="1" /><polyline fill="none" opacity="100" points="784.0,467.0 788.0,467.0" stroke="#F00" stroke-width="1" /><polyline fill="none" opacity="100" points="784.0,471.0 788.0,471.0" stroke="#F00" stroke-width="1" /><polyline fill="none" opacity="100" points="784.0,475.0 788.0,475.0" stroke="#F00" stroke-width="1" /><polyline fill="none" opacity="100" points="821.0,436.0 828.0,436.0 828.0,464.0 821.0,464.0" stroke="#000" stroke-width="1" /><text fill="#000" font-family="Arial" font-size="10" font-weight="normal" opacity="100" transform="rotate(90.0 832.0,438.0) translate(0 10)" x="832.0" y="438.0">кассы</text><polyline fill="none" opacity="100" points="743.0,467.0 743.0,437.0" stroke="#7F7F7F" stroke-width="1" /><polyline fill="none" opacity="100" points="739.0,467.0 739.0,437.0" stroke="#7F7F7F" stroke-width="1" /><polyline fill="none" opacity="100" points="735.0,467.0 735.0,437.0" stroke="#7F7F7F" stroke-width="1" /><polyline fill="none" opacity="100" points="731.0,467.0 731.0,437.0" stroke="#7F7F7F" stroke-width="1" /><polyline fill="none" opacity="100" points="727.0,467.0 727.0,437.0" stroke="#7F7F7F" stroke-width="1" /><polyline fill="none" opacity="100" points="723.0,467.0 723.0,437.0" stroke="#7F7F7F" stroke-width="1" /><polyline fill="none" opacity="100" points="719.0,467.0 719.0,437.0" stroke="#7F7F7F" stroke-width="1" /><polyline fill="none" opacity="100" points="715.0,467.0 715.0,437.0" stroke="#7F7F7F" stroke-width="1" /><polyline fill="none" opacity="100" points="711.0,467.0 711.0,437.0" stroke="#7F7F7F" stroke-width="1" /><polyline fill="none" opacity="100" points="707.0,467.0 707.0,437.0" stroke="#7F7F7F" stroke-width="1" /><polyline fill="none" opacity="100" points="703.0,467.0 703.0,437.0" stroke="#7F7F7F" stroke-width="1" /><polyline fill="none" opacity="100" points="699.0,467.0 699.0,437.0" stroke="#7F7F7F" stroke-width="1" /><polyline fill="none" opacity="100" points="695.0,467.0 695.0,437.0" stroke="#7F7F7F" stroke-width="1" /><polyline fill="none" opacity="100" points="691.0,467.0 691.0,437.0" stroke="#7F7F7F" stroke-width="1" /><polyline fill="none" opacity="100" points="687.0,467.0 687.0,437.0" stroke="#7F7F7F" stroke-width="1" /><polyline fill="none" opacity="100" points="683.0,467.0 683.0,437.0" stroke="#7F7F7F" stroke-width="1" /><polyline fill="none" opacity="100" points="679.0,467.0 679.0,437.0" stroke="#7F7F7F" stroke-width="1" /><polyline fill="none" opacity="100" points="675.0,467.0 675.0,437.0" stroke="#7F7F7F" stroke-width="1" /><polyline fill="none" opacity="100" points="671.0,467.0 671.0,437.0" stroke="#7F7F7F" stroke-width="1" /><polyline fill="none" opacity="100" points="667.0,467.0 667.0,437.0" stroke="#7F7F7F" stroke-width="1" /><polygon fill="#9B5509" opacity="100" points="750.0,437.0 660.0,437.0 660.0,434.0 750.0,434.0" stroke="#000" stroke-width="1" /><polygon fill="#9B5509" opacity="100" points="750.0,445.0 750.0,448.0 660.0,448.0 660.0,445.0" stroke="#000" stroke-width="1" /><polygon fill="#9B5509" opacity="100" points="750.0,456.0 750.0,459.0 660.0,459.0 660.0,456.0" stroke="#000" stroke-width="1" /><polygon fill="#9B5509" opacity="100" points="750.0,467.0 660.0,467.0 660.0,470.0 750.0,470.0" stroke="#000" stroke-width="1" /><polygon fill="#D0EFFF" opacity="100" points="711.0,434.0 711.0,420.0 726.0,420.0 726.0,434.0" stroke="#000" stroke-width="1" /><text fill="#000" font-family="Arial" font-size="6" font-weight="normal" opacity="100" transform="rotate(-0.0 712.0,424.0) translate(0 6)" x="712.0" y="424.0">лифт</text><polygon fill="#D0EFFF" opacity="100" points="724.0,531.0 724.0,517.0 738.0,517.0 738.0,531.0" stroke="#000" stroke-width="1" /><text fill="#000" font-family="Arial" font-size="6" font-weight="normal" opacity="100" transform="rotate(-0.0 725.0,521.0) translate(0 6)" x="725.0" y="521.0">лифт</text><polygon fill="#94949C" opacity="100" points="805.0,433.0 810.0,433.0 810.0,431.0 805.0,431.0" stroke="#94949C" stroke-width="1" /><polygon fill="#F00" opacity="100" points="800.0,433.0 805.0,433.0 805.0,431.0 800.0,431.0" stroke="#F00" stroke-width="1" /><polyline fill="none" opacity="100" points="203.0,413.0 203.0,432.0" stroke="#000" stroke-width="1" /><polyline fill="none" opacity="100" points="203.0,491.0 203.0,471.0" stroke="#000" stroke-width="1" /><polyline fill="none" opacity="100" points="135.0,432.0 135.0,403.0 74.0,403.0 74.0,383.0 -42.0,383.0" stroke="#000" stroke-width="1" /><polyline fill="none" opacity="100" points="135.0,471.0 135.0,497.0 79.0,497.0 79.0,518.0 -42.0,518.0" stroke="#000" stroke-width="1" /><polyline fill="none" opacity="100" points="-42.0,401.0 -2.0,401.0 -2.0,500.0 -42.0,500.0" stroke="#000" stroke-width="1" /><polyline fill="none" opacity="100" points="-42.0,387.0 -2.0,387.0" stroke="#000" stroke-width="0.5" /><polyline fill="none" opacity="100" points="16.0,387.0 56.0,387.0" stroke="#000" stroke-width="0.5" /><polyline fill="none" opacity="100" points="-42.0,514.0 -2.0,514.0" stroke="#000" stroke-width="0.5" /><polyline fill="none" opacity="100" points="16.0,514.0 56.0,514.0" stroke="#000" stroke-width="0.5" /><polyline fill="none" opacity="100" points="58.0,475.0 96.0,452.0" stroke="#000" stroke-width="0.5" /><polyline fill="none" opacity="100" points="101.0,486.0 135.0,486.0" stroke="#000" stroke-width="0.5" /><polyline fill="none" opacity="100" points="104.0,414.0 135.0,414.0" stroke="#000" stroke-width="0.5" /><polyline fill="none" opacity="100" points="-40.0,514.0 -40.0,500.0" stroke="#000" stroke-width="1" /><polyline fill="none" opacity="100" points="-36.0,514.0 -36.0,500.0" stroke="#000" stroke-width="1" /><polyline fill="none" opacity="100" points="-32.0,514.0 -32.0,500.0" stroke="#000" stroke-width="1" /><polyline fill="none" opacity="100" points="-28.0,514.0 -28.0,500.0" stroke="#000" stroke-width="1" /><polyline fill="none" opacity="100" points="-24.0,514.0 -24.0,500.0" stroke="#000" stroke-width="1" /><polyline fill="none" opacity="100" points="-20.0,514.0 -20.0,500.0" stroke="#000" stroke-width="1" /><polyline fill="none" opacity="100" points="-16.0,514.0 -16.0,500.0" stroke="#000" stroke-width="1" /><polyline fill="none" opacity="100" points="-12.0,514.0 -12.0,500.0" stroke="#000" stroke-width="1" /><polyline fill="none" opacity="100" points="-8.0,514.0 -8.0,500.0" stroke="#000" stroke-width="1" /><polyline fill="none" opacity="100" points="-4.0,514.0 -4.0,500.0" stroke="#000" stroke-width="1" /><polyline fill="none" opacity="100" points="-40.0,387.0 -40.0,401.0" stroke="#000" stroke-width="1" /><polyline fill="none" opacity="100" points="-36.0,387.0 -36.0,401.0" stroke="#000" stroke-width="1" /><polyline fill="none" opacity="100" points="-32.0,387.0 -32.0,401.0" stroke="#000" stroke-width="1" /><polyline fill="none" opacity="100" points="-28.0,387.0 -28.0,401.0" stroke="#000" stroke-width="1" /><polyline fill="none" opacity="100" points="-24.0,387.0 -24.0,401.0" stroke="#000" stroke-width="1" /><polyline fill="none" opacity="100" points="-20.0,387.0 -20.0,401.0" stroke="#000" stroke-width="1" /><polyline fill="none" opacity="100" points="-16.0,387.0 -16.0,401.0" stroke="#000" stroke-width="1" /><polyline fill="none" opacity="100" points="-12.0,387.0 -12.0,401.0" stroke="#000" stroke-width="1" /><polyline fill="none" opacity="100" points="-8.0,387.0 -8.0,401.0" stroke="#000" stroke-width="1" /><polyline fill="none" opacity="100" points="-4.0,387.0 -4.0,401.0" stroke="#000" stroke-width="1" /><polyline fill="none" opacity="100" points="18.0,514.0 18.0,500.0" stroke="#000" stroke-width="1" /><polyline fill="none" opacity="100" points="22.0,514.0 22.0,500.0" stroke="#000" stroke-width="1" /><polyline fill="none" opacity="100" points="26.0,514.0 26.0,500.0" stroke="#000" stroke-width="1" /><polyline fill="none" opacity="100" points="30.0,514.0 30.0,500.0" stroke="#000" stroke-width="1" /><polyline fill="none" opacity="100" points="34.0,514.0 34.0,500.0" stroke="#000" stroke-width="1" /><polyline fill="none" opacity="100" points="38.0,514.0 38.0,500.0" stroke="#000" stroke-width="1" /><polyline fill="none" opacity="100" points="42.0,514.0 42.0,500.0" stroke="#000" stroke-width="1" /><polyline fill="none" opacity="100" points="46.0,514.0 46.0,500.0" stroke="#000" stroke-width="1" /><polyline fill="none" opacity="100" points="50.0,514.0 50.0,500.0" stroke="#000" stroke-width="1" /><polyline fill="none" opacity="100" points="54.0,514.0 54.0,500.0" stroke="#000" stroke-width="1" /><polyline fill="none" opacity="100" points="18.0,387.0 18.0,401.0" stroke="#000" stroke-width="1" /><polyline fill="none" opacity="100" points="22.0,387.0 22.0,401.0" stroke="#000" stroke-width="1" /><polyline fill="none" opacity="100" points="26.0,387.0 26.0,401.0" stroke="#000" stroke-width="1" /><polyline fill="none" opacity="100" points="30.0,387.0 30.0,401.0" stroke="#000" stroke-width="1" /><polyline fill="none" opacity="100" points="34.0,387.0 34.0,401.0" stroke="#000" stroke-width="1" /><polyline fill="none" opacity="100" points="38.0,387.0 38.0,401.0" stroke="#000" stroke-width="1" /><polyline fill="none" opacity="100" points="42.0,387.0 42.0,401.0" stroke="#000" stroke-width="1" /><polyline fill="none" opacity="100" points="46.0,387.0 46.0,401.0" stroke="#000" stroke-width="1" /><polyline fill="none" opacity="100" points="50.0,387.0 50.0,401.0" stroke="#000" stroke-width="1" /><polyline fill="none" opacity="100" points="54.0,387.0 54.0,401.0" stroke="#000" stroke-width="1" /><polyline fill="none" opacity="100" points="16.0,498.0 -2.0,498.0" stroke="#000" stroke-width="1" /><polyline fill="none" opacity="100" points="16.0,494.0 -2.0,494.0" stroke="#000" stroke-width="1" /><polyline fill="none" opacity="100" points="16.0,490.0 -2.0,490.0" stroke="#000" stroke-width="1" /><polyline fill="none" opacity="100" points="-2.0,403.0 16.0,403.0" stroke="#000" stroke-width="1" /><polyline fill="none" opacity="100" points="-2.0,407.0 16.0,407.0" stroke="#000" stroke-width="1" /><polyline fill="none" opacity="100" points="-2.0,411.0 16.0,411.0" stroke="#000" stroke-width="1" /><polygon fill="#D0D0D0" opacity="100" points="16.0,500.0 16.0,401.0 56.0,401.0 56.0,500.0" stroke="#000" stroke-width="1" /><polygon fill="none" opacity="100" points="98.0,414.0 98.0,420.0 104.0,420.0 104.0,414.0" stroke="#000" stroke-width="1" /><polyline fill="none" opacity="100" points="99.0,452.0 103.0,452.0" stroke="#090" stroke-width="1" /><polyline fill="none" opacity="100" points="99.0,448.0 103.0,448.0" stroke="#090" stroke-width="1" /><polyline fill="none" opacity="100" points="99.0,444.0 103.0,444.0" stroke="#090" stroke-width="1" /><polyline fill="none" opacity="100" points="99.0,440.0 103.0,440.0" stroke="#090" stroke-width="1" /><polyline fill="none" opacity="100" points="99.0,436.0 103.0,436.0" stroke="#090" stroke-width="1" /><polyline fill="none" opacity="100" points="99.0,432.0 103.0,432.0" stroke="#090" stroke-width="1" /><polyline fill="none" opacity="100" points="99.0,428.0 103.0,428.0" stroke="#090" stroke-width="1" /><polyline fill="none" opacity="100" points="99.0,424.0 103.0,424.0" stroke="#090" stroke-width="1" /><polyline fill="none" opacity="100" points="99.0,456.0 103.0,456.0" stroke="#F00" stroke-width="1" /><polyline fill="none" opacity="100" points="99.1333,459.9978 103.1333,459.9978" stroke="#F00" stroke-width="1" /><polyline fill="none" opacity="100" points="99.2665,463.9956 103.2665,463.9956" stroke="#F00" stroke-width="1" /><polyline fill="none" opacity="100" points="99.3998,467.9933 103.3998,467.9933" stroke="#F00" stroke-width="1" /><polyline fill="none" opacity="100" points="99.533,471.9911 103.533,471.9911" stroke="#F00" stroke-width="1" /><polyline fill="none" opacity="100" points="99.6663,475.9889 103.6663,475.9889" stroke="#F00" stroke-width="1" /><polyline fill="none" opacity="100" points="99.7996,479.9867 103.7996,479.9867" stroke="#F00" stroke-width="1" /><polyline fill="none" opacity="100" points="99.9328,483.9845 103.9328,483.9845" stroke="#F00" stroke-width="1" /><polygon fill="#FFF" opacity="100" points="56.0,436.0 48.0,436.0 48.0,464.0 56.0,464.0" stroke="#000" stroke-width="1" /><text fill="#000" font-family="Arial" font-size="10" font-weight="normal" opacity="100" transform="rotate(90.0 59.0,437.0) translate(0 10)" x="59.0" y="437.0">кассы</text><polyline fill="none" opacity="100" points="133.0,435.0 133.0,468.0" stroke="#7F7F7F" stroke-width="1" /><polyline fill="none" opacity="100" points="137.0,435.0 137.0,468.0" stroke="#7F7F7F" stroke-width="1" /><polyline fill="none" opacity="100" points="141.0,435.0 141.0,468.0" stroke="#7F7F7F" stroke-width="1" /><polyline fill="none" opacity="100" points="145.0,435.0 145.0,468.0" stroke="#7F7F7F" stroke-width="1" /><polyline fill="none" opacity="100" points="149.0,435.0 149.0,468.0" stroke="#7F7F7F" stroke-width="1" /><polyline fill="none" opacity="100" points="153.0,435.0 153.0,468.0" stroke="#7F7F7F" stroke-width="1" /><polyline fill="none" opacity="100" points="157.0,435.0 157.0,468.0" stroke="#7F7F7F" stroke-width="1" /><polyline fill="none" opacity="100" points="161.0,435.0 161.0,468.0" stroke="#7F7F7F" stroke-width="1" /><polyline fill="none" opacity="100" points="165.0,435.0 165.0,468.0" stroke="#7F7F7F" stroke-width="1" /><polyline fill="none" opacity="100" points="169.0,435.0 169.0,468.0" stroke="#7F7F7F" stroke-width="1" /><polyline fill="none" opacity="100" points="173.0,435.0 173.0,468.0" stroke="#7F7F7F" stroke-width="1" /><polyline fill="none" opacity="100" points="177.0,435.0 177.0,468.0" stroke="#7F7F7F" stroke-width="1" /><polyline fill="none" opacity="100" points="181.0,435.0 181.0,468.0" stroke="#7F7F7F" stroke-width="1" /><polyline fill="none" opacity="100" points="185.0,435.0 185.0,468.0" stroke="#7F7F7F" stroke-width="1" /><polyline fill="none" opacity="100" points="189.0,435.0 189.0,468.0" stroke="#7F7F7F" stroke-width="1" /><polyline fill="none" opacity="100" points="193.0,435.0 193.0,468.0" stroke="#7F7F7F" stroke-width="1" /><polyline fill="none" opacity="100" points="197.0,435.0 197.0,468.0" stroke="#7F7F7F" stroke-width="1" /><polyline fill="none" opacity="100" points="201.0,435.0 201.0,468.0" stroke="#7F7F7F" stroke-width="1" /><polyline fill="none" opacity="100" points="205.0,435.0 205.0,468.0" stroke="#7F7F7F" stroke-width="1" /><polygon fill="#9B5509" opacity="100" points="212.0,432.0 127.0,432.0 127.0,435.0 212.0,435.0" stroke="#000" stroke-width="1" /><polygon fill="#9B5509" opacity="100" points="212.0,441.0 127.0,441.0 127.0,444.0 212.0,444.0" stroke="#000" stroke-width="1" /><polygon fill="#9B5509" opacity="100" points="212.0,450.0 127.0,450.0 127.0,453.0 212.0,453.0" stroke="#000" stroke-width="1" /><polygon fill="#9B5509" opacity="100" points="212.0,459.0 127.0,459.0 127.0,462.0 212.0,462.0" stroke="#000" stroke-width="1" /><polygon fill="#9B5509" opacity="100" points="212.0,468.0 127.0,468.0 127.0,471.0 212.0,471.0" stroke="#000" stroke-width="1" /><polygon fill="#D0EFFF" opacity="100" points="79.0,515.0 79.0,501.0 94.0,501.0 94.0,515.0" stroke="#000" stroke-width="1" /><text fill="#000" font-family="Arial" font-size="6" font-weight="normal" opacity="100" transform="rotate(-0.0 80.0,505.0) translate(0 6)" x="80.0" y="505.0">лифт</text><polygon fill="#D0EFFF" opacity="100" points="74.0,400.0 74.0,386.0 89.0,386.0 89.0,400.0" stroke="#000" stroke-width="1" /><text fill="#000" font-family="Arial" font-size="6" font-weight="normal" opacity="100" transform="rotate(-0.0 75.0,390.0) translate(0 6)" x="75.0" y="390.0">лифт</text><polygon fill="#94949C" opacity="100" points="74.0,419.0 69.0,419.0 69.0,417.0 74.0,417.0" stroke="#94949C" stroke-width="1" /><polygon fill="#F00" opacity="100" points="79.0,419.0 74.0,419.0 74.0,417.0 79.0,417.0" stroke="#F00" stroke-width="1" /><text fill="#00AFAF" font-family="Arial" font-size="15" font-weight="normal" opacity="100" transform="rotate(-0.0 -142.0,434.0) translate(0 15)" x="-142.0" y="434.0">улица Богданова</text><text fill="#00AFAF" font-family="Arial" font-size="15" font-weight="normal" opacity="100" transform="rotate(130.0 -24.0,274.0) translate(0 15)" x="-24.0" y="274.0">Попутная улица</text><g transform="rotate(60.0,350.0,435.0)"><text fill="#FFD900" font-family="Arial" font-size="25" font-weight="normal" opacity="100" x="242.25" y="821.5">1</text><text fill="#FFD900" font-family="Arial" font-size="25" font-weight="normal" opacity="100" x="73.25" y="735.5">2</text><text fill="#FFD900" font-family="Arial" font-size="25" font-weight="normal" opacity="100" x="625.25" y="27.5">3</text><text fill="#FFD900" font-family="Arial" font-size="25" font-weight="normal" opacity="100" x="642.25" y="158.5">4</text></g></g></g></svg>