<?xml version="1.0" encoding="utf-8" ?>
<svg baseProfile="tiny" height="1130px" version="1.2" width="800px" xmlns="http://www.w3.org/2000/svg" xmlns:ev="http://www.w3.org/2001/xml-events" xmlns:xlink="http://www.w3.org/1999/xlink"><defs /><g><g transform="rotate(83.0,400.0,565.0)"><polygon fill="#AC24AC" opacity="100" points="255.0,242.0 255.0,212.0 705.0,212.0 705.0,242.0" stroke="#000" stroke-width="1" /><polygon fill="#AC24AC" opacity="100" points="255.0,352.0 255.0,322.0 705.0,322.0 705.0,352.0" stroke="#000" stroke-width="1" /><text fill="#AC24AC" font-family="Arial" font-size="20" font-weight="normal" opacity="100" transform="rotate(-0.0 256.0,188.0) translate(0 20)" x="256.0" y="188.0">&lt;&lt; Тушинская</text><text fill="#AC24AC" font-family="Arial" font-size="20" font-weight="normal" opacity="100" transform="rotate(-0.0 589.0,351.0) translate(0 20)" x="589.0" y="351.0">Щукинская &gt;&gt;</text><text fill="#AC24AC" font-family="Arial" font-size="25" font-weight="bold" opacity="100" transform="rotate(-0.0 428.0,263.0) translate(0 25)" x="428.0" y="263.0">Спартак</text><polygon fill="#FEFBF1" opacity="100" points="102.0,203.0 -114.0,203.0 -114.0,361.0 103.0,361.0" stroke="#FEFBF1" stroke-width="1" /><polygon fill="#D0D0D0" opacity="100" points="-114.0,253.0 -114.0,203.0 102.0,203.0 102.0,262.0 90.0,262.0 90.0,252.0 19.0,252.0 10.0,240.0 -2.0,232.0 -16.0,226.0 -30.0,225.0 -45.0,226.0 -58.0,232.0 -69.0,239.0 -79.0,253.0" stroke="#D0D0D0" stroke-width="1" /><polygon fill="#D0D0D0" opacity="100" points="-114.0,311.0 -114.0,361.0 103.0,361.0 103.0,302.0 90.0,302.0 90.0,312.0 19.0,312.0 10.0,324.0 -2.0,332.0 -17.0,338.0 -30.0,339.0 -43.0,338.0 -57.0,332.0 -69.0,324.0 -79.0,311.0" stroke="#D0D0D0" stroke-width="1" /><polygon fill="#D0D0D0" opacity="100" points="-114.0,279.0 -114.0,285.0 -86.0,285.0 -86.0,279.0" stroke="#000" stroke-width="1" /><polygon fill="#FFF" opacity="100" points="-75.0,316.0 -75.0,340.0 -50.0,340.0 -50.0,335.0" stroke="#FFF" stroke-width="1" /><polyline fill="none" opacity="100" points="255.0,242.0 255.0,257.0 180.0,257.0 180.0,262.0" stroke="#000" stroke-width="1" /><polyline fill="none" opacity="100" points="90.0,262.0 90.0,252.0 19.0,252.0" stroke="#000" stroke-width="1" /><polyline fill="none" opacity="100" points="255.0,322.0 255.0,307.0 180.0,307.0 180.0,302.0" stroke="#000" stroke-width="1" /><polyline fill="none" opacity="100" points="90.0,302.0 90.0,312.0 19.0,312.0" stroke="#000" stroke-width="1" /><polyline fill="none" opacity="100" points="-79.0,253.0 -114.0,253.0 -114.0,203.0 102.0,203.0 102.0,262.0" stroke="#000" stroke-width="1" /><polyline fill="none" opacity="100" points="-79.0,311.0 -114.0,311.0 -114.0,361.0 103.0,361.0 103.0,302.0" stroke="#000" stroke-width="1" /><polyline fill="none" opacity="100" points="19.0,252.0 16.7578,248.7891 14.4062,245.7812 11.9436,242.9763 9.375,240.375 6.7107,237.9788 3.9336,235.7852 1.0386,233.7935 -2.0,232.0 -5.23,230.3979 -8.5898,228.9961 -12.0403,227.8003 -15.5625,226.8125 -19.1257,226.0356 -22.7266,225.4727 -26.3564,225.1255 -30.0,225.0 -33.6436,225.105 -37.2734,225.4336 -40.8743,225.9822 -44.4375,226.75 -47.9597,227.7346 -51.4102,228.9375 -54.77,230.3594 -58.0,232.0 -61.0386,233.8594 -63.9336,235.9375 -66.7107,238.2344 -69.375,240.75 -71.9436,243.4844 -74.4062,246.4375 -76.7578,249.6094 -79.0,253.0" stroke="#000" stroke-width="1" /><polyline fill="none" opacity="100" points="-79.0,311.0 -76.5234,314.3906 -73.9688,317.5625 -71.335,320.5156 -68.625,323.25 -65.8447,325.7656 -62.9844,328.0625 -60.041,330.1406 -57.0,332.0 -53.834,333.6406 -50.5781,335.0625 -47.2539,336.2654 -43.875,337.25 -40.4648,338.0178 -37.0156,338.5664 -33.5293,338.895 -30.0,339.0 -26.4082,338.8745 -22.7969,338.5273 -19.1982,337.9644 -15.625,337.1875 -12.0908,336.1997 -8.625,335.0039 -5.2461,333.6021 -2.0,332.0 1.043,330.2065 3.9375,328.2148 6.7129,326.0212 9.375,323.625 11.9434,321.0237 14.4062,318.2188 16.7578,315.2109 19.0,312.0" stroke="#000" stroke-width="1" /><polyline fill="none" opacity="100" points="88.0,265.0 88.0,299.0" stroke="#7F7F7F" stroke-width="1" /><polyline fill="none" opacity="100" points="92.0,265.0 92.0,299.0" stroke="#7F7F7F" stroke-width="1" /><polyline fill="none" opacity="100" points="96.0,265.0 96.0,299.0" stroke="#7F7F7F" stroke-width="1" /><polyline fill="none" opacity="100" points="100.0,265.0 100.0,299.0" stroke="#7F7F7F" stroke-width="1" /><polyline fill="none" opacity="100" points="104.0,265.0 104.0,299.0" stroke="#7F7F7F" stroke-width="1" /><polyline fill="none" opacity="100" points="108.0,265.0 108.0,299.0" stroke="#7F7F7F" stroke-width="1" /><polyline fill="none" opacity="100" points="112.0,265.0 112.0,299.0" stroke="#7F7F7F" stroke-width="1" /><polyline fill="none" opacity="100" points="116.0,265.0 116.0,299.0" stroke="#7F7F7F" stroke-width="1" /><polyline fill="none" opacity="100" points="120.0,265.0 120.0,299.0" stroke="#7F7F7F" stroke-width="1" /><polyline fill="none" opacity="100" points="124.0,265.0 124.0,299.0" stroke="#7F7F7F" stroke-width="1" /><polyline fill="none" opacity="100" points="128.0,265.0 128.0,299.0" stroke="#7F7F7F" stroke-width="1" /><polyline fill="none" opacity="100" points="132.0,265.0 132.0,299.0" stroke="#7F7F7F" stroke-width="1" /><polyline fill="none" opacity="100" points="136.0,265.0 136.0,299.0" stroke="#7F7F7F" stroke-width="1" /><polyline fill="none" opacity="100" points="140.0,265.0 140.0,299.0" stroke="#7F7F7F" stroke-width="1" /><polyline fill="none" opacity="100" points="144.0,265.0 144.0,299.0" stroke="#7F7F7F" stroke-width="1" /><polyline fill="none" opacity="100" points="148.0,265.0 148.0,299.0" stroke="#7F7F7F" stroke-width="1" /><polyline fill="none" opacity="100" points="152.0,265.0 152.0,299.0" stroke="#7F7F7F" stroke-width="1" /><polyline fill="none" opacity="100" points="156.0,265.0 156.0,299.0" stroke="#7F7F7F" stroke-width="1" /><polyline fill="none" opacity="100" points="160.0,265.0 160.0,299.0" stroke="#7F7F7F" stroke-width="1" /><polyline fill="none" opacity="100" points="164.0,265.0 164.0,299.0" stroke="#7F7F7F" stroke-width="1" /><polyline fill="none" opacity="100" points="168.0,265.0 168.0,299.0" stroke="#7F7F7F" stroke-width="1" /><polyline fill="none" opacity="100" points="172.0,265.0 172.0,299.0" stroke="#7F7F7F" stroke-width="1" /><polyline fill="none" opacity="100" points="176.0,265.0 176.0,299.0" stroke="#7F7F7F" stroke-width="1" /><polyline fill="none" opacity="100" points="180.0,265.0 180.0,299.0" stroke="#7F7F7F" stroke-width="1" /><polyline fill="none" opacity="100" points="184.0,265.0 184.0,299.0" stroke="#7F7F7F" stroke-width="1" /><polygon fill="#9B5509" opacity="100" points="81.0,299.0 190.0,299.0 190.0,302.0 81.0,302.0" stroke="#000" stroke-width="1" /><polygon fill="#9B5509" opacity="100" points="81.0,291.0 81.0,286.0 190.0,286.0 190.0,291.0" stroke="#000" stroke-width="1" /><polygon fill="#9B5509" opacity="100" points="81.0,278.0 81.0,273.0 190.0,273.0 190.0,278.0" stroke="#000" stroke-width="1" /><polygon fill="#9B5509" opacity="100" points="81.0,265.0 190.0,265.0 190.0,262.0 81.0,262.0" stroke="#000" stroke-width="1" /><polyline fill="none" opacity="100" points="-50.0,335.0 -50.0,340.0 -75.0,340.0 -75.0,316.0" stroke="#000" stroke-width="1" /><text fill="#FFF" font-family="Arial" font-size="10" font-weight="normal" opacity="100" transform="rotate(-140.0 -60.0,344.0) translate(0 10)" x="-60.0" y="344.0">кассы</text><polygon fill="none" opacity="100" points="-32.0,289.0 -25.0,289.0 -25.0,282.0 -32.0,282.0" stroke="#000" stroke-width="1" /><polyline fill="none" opacity="100" points="-26.0,278.0 -31.0,278.0" stroke="#F00" stroke-width="1" /><polyline fill="none" opacity="100" points="-26.0,274.0 -31.0,274.0" stroke="#F00" stroke-width="1" /><polyline fill="none" opacity="100" points="-26.0,270.0 -31.0,270.0" stroke="#F00" stroke-width="1" /><polyline fill="none" opacity="100" points="-26.0,266.0 -31.0,266.0" stroke="#F00" stroke-width="1" /><polyline fill="none" opacity="100" points="-26.0,262.0 -31.0,262.0" stroke="#F00" stroke-width="1" /><polyline fill="none" opacity="100" points="-26.0,258.0 -31.0,258.0" stroke="#F00" stroke-width="1" /><polyline fill="none" opacity="100" points="-26.0,254.0 -31.0,254.0" stroke="#F00" stroke-width="1" /><polyline fill="none" opacity="100" points="-26.0,250.0 -31.0,250.0" stroke="#F00" stroke-width="1" /><polyline fill="none" opacity="100" points="-26.0,246.0 -31.0,246.0" stroke="#F00" stroke-width="1" /><polyline fill="none" opacity="100" points="-26.0,242.0 -31.0,242.0" stroke="#F00" stroke-width="1" /><polyline fill="none" opacity="100" points="-26.0,238.0 -31.0,238.0" stroke="#F00" stroke-width="1" /><polyline fill="none" opacity="100" points="-26.0,234.0 -31.0,234.0" stroke="#F00" stroke-width="1" /><polyline fill="none" opacity="100" points="-26.0,230.0 -31.0,230.0" stroke="#F00" stroke-width="1" /><polyline fill="none" opacity="100" points="-23.0,293.0 -19.0,289.0" stroke="#090" stroke-width="1" /><polyline fill="none" opacity="100" points="-20.1716,295.8284 -16.1716,291.8284" stroke="#090" stroke-width="1" /><polyline fill="none" opacity="100" points="-17.3431,298.6569 -13.3431,294.6569" stroke="#090" stroke-width="1" /><polyline fill="none" opacity="100" points="-14.5147,301.4853 -10.5147,297.4853" stroke="#090" stroke-width="1" /><polyline fill="none" opacity="100" points="-11.6863,304.3137 -7.6863,300.3137" stroke="#090" stroke-width="1" /><polyline fill="none" opacity="100" points="-8.8579,307.1421 -4.8579,303.1421" stroke="#090" stroke-width="1" /><polyline fill="none" opacity="100" points="-6.0294,309.9706 -2.0294,305.9706" stroke="#090" stroke-width="1" /><polyline fill="none" opacity="100" points="-3.201,312.799 0.799,308.799" stroke="#090" stroke-width="1" /><polyline fill="none" opacity="100" points="-0.3726,315.6274 3.6274,311.6274" stroke="#090" stroke-width="1" /><polyline fill="none" opacity="100" points="2.4558,318.4558 6.4558,314.4558" stroke="#090" stroke-width="1" /><polyline fill="none" opacity="100" points="5.2843,321.2843 9.2843,317.2843" stroke="#090" stroke-width="1" /><polyline fill="none" opacity="100" points="-108.0,298.0 -92.0,298.0" stroke="#090" stroke-width="1" /><polygon fill="#090" opacity="100" points="-96.6364,299.2423 -92.0,298.0 -96.6364,296.7577" stroke="#090" stroke-width="1" /><polyline fill="none" opacity="100" points="-93.0,266.0 -108.0,266.0" stroke="#F00" stroke-width="1" /><polygon fill="#F00" opacity="100" points="-103.6533,264.8353 -108.0,266.0 -103.6533,267.1647" stroke="#F00" stroke-width="1" /><polyline fill="none" opacity="100" points="705.0,322.0 705.0,312.0 836.0,312.0 836.0,442.0 829.0,442.0 829.0,545.0" stroke="#000" stroke-width="1" /><polyline fill="none" opacity="100" points="829.0,631.0 829.0,818.0 809.0,892.0 760.0,879.0" stroke="#000" stroke-width="1" /><polyline fill="none" opacity="100" points="756.0,894.0 805.0,907.0 789.0,967.0 740.0,954.0" stroke="#000" stroke-width="1" /><polyline fill="none" opacity="100" points="736.0,969.0 892.0,1011.0" stroke="#000" stroke-width="1" /><polyline fill="none" opacity="100" points="896.0,996.0 847.0,983.0 863.0,921.0 912.0,934.0" stroke="#000" stroke-width="1" /><polyline fill="none" opacity="100" points="916.0,919.0 867.0,906.0 902.0,775.0 902.0,632.0" stroke="#000" stroke-width="1" /><polyline fill="none" opacity="100" points="902.0,544.0 902.0,442.0 895.0,442.0 895.0,252.0 705.0,252.0 705.0,242.0" stroke="#000" stroke-width="1" /><polyline fill="none" opacity="100" points="718.0,273.0 769.0,273.0" stroke="#000" stroke-width="1" /><polyline fill="none" opacity="100" points="902.0,544.0 902.0,575.0 901.0,580.0" stroke="#000" stroke-width="0.5" /><polyline fill="none" opacity="100" points="902.0,544.0 904.3672,546.0469 906.5938,548.1875 908.6804,550.4233 910.625,552.75 912.4231,555.1587 914.082,557.6641 915.604,560.2705 917.0,563.0 918.2905,565.8936 919.4492,568.8984 920.4578,571.981 921.3125,575.125 922.009,578.3042 922.5312,581.5156 922.8711,584.752 923.0,588.0 922.8711,591.248 922.5312,594.4844 922.009,597.6958 921.3125,600.875 920.4578,604.019 919.4492,607.1016 918.2905,610.1064 917.0,613.0 915.604,615.7295 914.082,618.3359 912.4231,620.8413 910.625,623.25 908.6804,625.5767 906.5938,627.8125 904.3672,629.9531 902.0,632.0" stroke="#000" stroke-width="1" /><polyline fill="none" opacity="100" points="829.0,545.0 826.5781,546.8672 824.3125,548.8438 822.2031,550.9316 820.25,553.125 818.4531,555.4121 816.8125,557.8125 815.3281,560.332 814.0,563.0 812.8281,565.8711 811.8125,568.875 810.9531,571.9658 810.25,575.125 809.7031,578.3232 809.3125,581.5469 809.0781,584.7832 809.0,588.0 809.0781,591.1543 809.3125,594.2656 809.7031,597.3398 810.25,600.375 810.9531,603.3789 811.8125,606.3281 812.8281,609.209 814.0,612.0 815.3281,614.666 816.8125,617.2344 818.4531,619.7197 820.25,622.125 822.2031,624.46 824.3125,626.7188 826.5781,628.8984 829.0,631.0" stroke="#000" stroke-width="1" /><polyline fill="none" opacity="100" points="744.0,955.0 740.0,970.0" stroke="#000" stroke-width="1" /><polyline fill="none" opacity="100" points="747.8649,956.0307 743.8649,971.0307" stroke="#000" stroke-width="1" /><polyline fill="none" opacity="100" points="751.7299,957.0613 747.7299,972.0613" stroke="#000" stroke-width="1" /><polyline fill="none" opacity="100" points="755.5948,958.092 751.5948,973.092" stroke="#000" stroke-width="1" /><polyline fill="none" opacity="100" points="759.4598,959.1226 755.4598,974.1226" stroke="#000" stroke-width="1" /><polyline fill="none" opacity="100" points="763.3247,960.1533 759.3247,975.1533" stroke="#000" stroke-width="1" /><polyline fill="none" opacity="100" points="767.1896,961.1839 763.1896,976.1839" stroke="#000" stroke-width="1" /><polyline fill="none" opacity="100" points="771.0546,962.2146 767.0546,977.2146" stroke="#000" stroke-width="1" /><polyline fill="none" opacity="100" points="774.9195,963.2452 770.9195,978.2452" stroke="#000" stroke-width="1" /><polyline fill="none" opacity="100" points="778.7845,964.2759 774.7845,979.2759" stroke="#000" stroke-width="1" /><polyline fill="none" opacity="100" points="782.6494,965.3065 778.6494,980.3065" stroke="#000" stroke-width="1" /><polyline fill="none" opacity="100" points="786.5143,966.3372 782.5143,981.3372" stroke="#000" stroke-width="1" /><polyline fill="none" opacity="100" points="764.0,880.0 760.0,895.0" stroke="#000" stroke-width="1" /><polyline fill="none" opacity="100" points="767.8649,881.0307 763.8649,896.0307" stroke="#000" stroke-width="1" /><polyline fill="none" opacity="100" points="771.7299,882.0613 767.7299,897.0613" stroke="#000" stroke-width="1" /><polyline fill="none" opacity="100" points="775.5948,883.092 771.5948,898.092" stroke="#000" stroke-width="1" /><polyline fill="none" opacity="100" points="779.4598,884.1226 775.4598,899.1226" stroke="#000" stroke-width="1" /><polyline fill="none" opacity="100" points="783.3247,885.1533 779.3247,900.1533" stroke="#000" stroke-width="1" /><polyline fill="none" opacity="100" points="787.1896,886.1839 783.1896,901.1839" stroke="#000" stroke-width="1" /><polyline fill="none" opacity="100" points="791.0546,887.2146 787.0546,902.2146" stroke="#000" stroke-width="1" /><polyline fill="none" opacity="100" points="794.9195,888.2452 790.9195,903.2452" stroke="#000" stroke-width="1" /><polyline fill="none" opacity="100" points="798.7845,889.2759 794.7845,904.2759" stroke="#000" stroke-width="1" /><polyline fill="none" opacity="100" points="802.6494,890.3065 798.6494,905.3065" stroke="#000" stroke-width="1" /><polyline fill="none" opacity="100" points="806.5143,891.3372 802.5143,906.3372" stroke="#000" stroke-width="1" /><polyline fill="none" opacity="100" points="912.0,918.0 908.0,933.0" stroke="#000" stroke-width="1" /><polyline fill="none" opacity="100" points="908.1351,916.9693 904.1351,931.9693" stroke="#000" stroke-width="1" /><polyline fill="none" opacity="100" points="904.2701,915.9387 900.2701,930.9387" stroke="#000" stroke-width="1" /><polyline fill="none" opacity="100" points="900.4052,914.908 896.4052,929.908" stroke="#000" stroke-width="1" /><polyline fill="none" opacity="100" points="896.5402,913.8774 892.5402,928.8774" stroke="#000" stroke-width="1" /><polyline fill="none" opacity="100" points="892.6753,912.8467 888.6753,927.8467" stroke="#000" stroke-width="1" /><polyline fill="none" opacity="100" points="888.8104,911.8161 884.8104,926.8161" stroke="#000" stroke-width="1" /><polyline fill="none" opacity="100" points="884.9454,910.7854 880.9454,925.7854" stroke="#000" stroke-width="1" /><polyline fill="none" opacity="100" points="881.0805,909.7548 877.0805,924.7548" stroke="#000" stroke-width="1" /><polyline fill="none" opacity="100" points="877.2155,908.7241 873.2155,923.7241" stroke="#000" stroke-width="1" /><polyline fill="none" opacity="100" points="873.3506,907.6935 869.3506,922.6935" stroke="#000" stroke-width="1" /><polyline fill="none" opacity="100" points="869.4857,906.6628 865.4857,921.6628" stroke="#000" stroke-width="1" /><polyline fill="none" opacity="100" points="892.0,995.0 888.0,1010.0" stroke="#000" stroke-width="1" /><polyline fill="none" opacity="100" points="888.1351,993.9693 884.1351,1008.9693" stroke="#000" stroke-width="1" /><polyline fill="none" opacity="100" points="884.2701,992.9387 880.2701,1007.9387" stroke="#000" stroke-width="1" /><polyline fill="none" opacity="100" points="880.4052,991.908 876.4052,1006.908" stroke="#000" stroke-width="1" /><polyline fill="none" opacity="100" points="876.5402,990.8774 872.5402,1005.8774" stroke="#000" stroke-width="1" /><polyline fill="none" opacity="100" points="872.6753,989.8467 868.6753,1004.8467" stroke="#000" stroke-width="1" /><polyline fill="none" opacity="100" points="868.8104,988.8161 864.8104,1003.8161" stroke="#000" stroke-width="1" /><polyline fill="none" opacity="100" points="864.9454,987.7854 860.9454,1002.7854" stroke="#000" stroke-width="1" /><polyline fill="none" opacity="100" points="861.0805,986.7548 857.0805,1001.7548" stroke="#000" stroke-width="1" /><polyline fill="none" opacity="100" points="857.2155,985.7241 853.2155,1000.7241" stroke="#000" stroke-width="1" /><polyline fill="none" opacity="100" points="853.3506,984.6935 849.3506,999.6935" stroke="#000" stroke-width="1" /><polyline fill="none" opacity="100" points="849.4857,983.6628 845.4857,998.6628" stroke="#000" stroke-width="1" /><polyline fill="none" opacity="100" points="721.0,312.0 721.0,273.0" stroke="#000" stroke-width="1" /><polyline fill="none" opacity="100" points="725.0,312.0 725.0,273.0" stroke="#000" stroke-width="1" /><polyline fill="none" opacity="100" points="729.0,312.0 729.0,273.0" stroke="#000" stroke-width="1" /><polyline fill="none" opacity="100" points="733.0,312.0 733.0,273.0" stroke="#000" stroke-width="1" /><polyline fill="none" opacity="100" points="737.0,312.0 737.0,273.0" stroke="#000" stroke-width="1" /><polyline fill="none" opacity="100" points="741.0,312.0 741.0,273.0" stroke="#000" stroke-width="1" /><polyline fill="none" opacity="100" points="745.0,312.0 745.0,273.0" stroke="#000" stroke-width="1" /><polyline fill="none" opacity="100" points="749.0,312.0 749.0,273.0" stroke="#000" stroke-width="1" /><polyline fill="none" opacity="100" points="753.0,312.0 753.0,273.0" stroke="#000" stroke-width="1" /><polyline fill="none" opacity="100" points="757.0,312.0 757.0,273.0" stroke="#000" stroke-width="1" /><polyline fill="none" opacity="100" points="761.0,312.0 761.0,273.0" stroke="#000" stroke-width="1" /><polyline fill="none" opacity="100" points="765.0,312.0 765.0,273.0" stroke="#000" stroke-width="1" /><polyline fill="none" opacity="100" points="829.0,744.0 902.0,744.0" stroke="#000" stroke-width="1" /><polyline fill="none" opacity="100" points="829.0,748.0 902.0,748.0" stroke="#000" stroke-width="1" /><polyline fill="none" opacity="100" points="829.0,752.0 902.0,752.0" stroke="#000" stroke-width="1" /><polyline fill="none" opacity="100" points="829.0,756.0 902.0,756.0" stroke="#000" stroke-width="1" /><polyline fill="none" opacity="100" points="829.0,760.0 902.0,760.0" stroke="#000" stroke-width="1" /><polyline fill="none" opacity="100" points="829.0,764.0 902.0,764.0" stroke="#000" stroke-width="1" /><polyline fill="none" opacity="100" points="829.0,768.0 902.0,768.0" stroke="#000" stroke-width="1" /><polyline fill="none" opacity="100" points="829.0,772.0 902.0,772.0" stroke="#000" stroke-width="1" /><polyline fill="none" opacity="100" points="829.0,776.0 902.0,776.0" stroke="#000" stroke-width="1" /><polygon fill="#D0D0D0" opacity="100" points="862.0,721.0 870.0,721.0 870.0,692.0 862.0,692.0" stroke="#000" stroke-width="1" /><polyline fill="none" opacity="100" points="811.0,604.0 801.0,604.0 801.0,630.0 828.0,630.0" stroke="#000" stroke-width="1" /><text fill="#FFF" font-family="Arial" font-size="10" font-weight="normal" opacity="100" transform="rotate(-120.0 812.0,632.0) translate(0 10)" x="812.0" y="632.0">кассы</text><polygon fill="none" opacity="100" points="863.0,589.0 863.0,582.0 870.0,582.0 870.0,589.0" stroke="#000" stroke-width="1" /><polyline fill="none" opacity="100" points="875.0,583.0 875.0,588.0" stroke="#F00" stroke-width="1" /><polyline fill="none" opacity="100" points="879.0,583.0 879.0,588.0" stroke="#F00" stroke-width="1" /><polyline fill="none" opacity="100" points="883.0,583.0 883.0,588.0" stroke="#F00" stroke-width="1" /><polyline fill="none" opacity="100" points="887.0,583.0 887.0,588.0" stroke="#F00" stroke-width="1" /><polyline fill="none" opacity="100" points="891.0,583.0 891.0,588.0" stroke="#F00" stroke-width="1" /><polyline fill="none" opacity="100" points="895.0,583.0 895.0,588.0" stroke="#F00" stroke-width="1" /><polyline fill="none" opacity="100" points="899.0,583.0 899.0,588.0" stroke="#F00" stroke-width="1" /><polyline fill="none" opacity="100" points="859.0,583.0 859.0,588.0" stroke="#090" stroke-width="1" /><polyline fill="none" opacity="100" points="855.0,583.0 855.0,588.0" stroke="#090" stroke-width="1" /><polyline fill="none" opacity="100" points="851.0,583.0 851.0,588.0" stroke="#090" stroke-width="1" /><polyline fill="none" opacity="100" points="847.0,583.0 847.0,588.0" stroke="#090" stroke-width="1" /><polyline fill="none" opacity="100" points="843.0,583.0 843.0,588.0" stroke="#090" stroke-width="1" /><polyline fill="none" opacity="100" points="839.0,583.0 839.0,588.0" stroke="#090" stroke-width="1" /><polyline fill="none" opacity="100" points="835.0,583.0 835.0,588.0" stroke="#090" stroke-width="1" /><polyline fill="none" opacity="100" points="831.0,583.0 831.0,588.0" stroke="#090" stroke-width="1" /><polyline fill="none" opacity="100" points="827.0,583.0 827.0,588.0" stroke="#090" stroke-width="1" /><polyline fill="none" opacity="100" points="823.0,583.0 823.0,588.0" stroke="#090" stroke-width="1" /><polyline fill="none" opacity="100" points="819.0,583.0 819.0,588.0" stroke="#090" stroke-width="1" /><polyline fill="none" opacity="100" points="815.0,583.0 815.0,588.0" stroke="#090" stroke-width="1" /><polyline fill="none" opacity="100" points="811.0,583.0 811.0,588.0" stroke="#090" stroke-width="1" /><polygon fill="#D0EFFF" opacity="100" points="795.0,868.0 814.0,873.0 809.0,892.0 790.0,887.0" stroke="#000" stroke-width="1" /><text fill="#000" font-family="Arial" font-size="8" font-weight="normal" opacity="100" transform="rotate(-45.0 791.0,882.0) translate(0 8)" x="791.0" y="882.0">лифт</text><polygon fill="#D0EFFF" opacity="100" points="806.0,988.0 825.0,993.0 820.0,1012.0 801.0,1007.0" stroke="#000" stroke-width="1" /><text fill="#000" font-family="Arial" font-size="8" font-weight="normal" opacity="100" transform="rotate(-45.0 802.0,1002.0) translate(0 8)" x="802.0" y="1002.0">лифт</text><polygon fill="#D0EFFF" opacity="100" points="729.0,252.0 749.0,252.0 749.0,273.0 729.0,273.0" stroke="#000" stroke-width="1" /><text fill="#000" font-family="Arial" font-size="8" font-weight="normal" opacity="100" transform="rotate(-45.0 729.0,265.0) translate(0 8)" x="729.0" y="265.0">лифт</text><polyline fill="none" opacity="100" points="845.0,717.0 845.0,696.0" stroke="#090" stroke-width="1" /><polygon fill="#090" opacity="100" points="846.6306,702.0853 845.0,696.0 843.3694,702.0853" stroke="#090" stroke-width="1" /><polyline fill="none" opacity="100" points="886.0,694.0 886.0,717.0" stroke="#F00" stroke-width="1" /><polygon fill="#F00" opacity="100" points="884.2141,710.3351 886.0,717.0 887.7859,710.3351" stroke="#F00" stroke-width="1" /><text fill="#00AFAF" font-family="Arial" font-size="15" font-weight="normal" opacity="100" transform="rotate(-165.0 739.0,931.0) translate(0 15)" x="739.0" y="931.0">пр.проезд 5219</text><g transform="rotate(-83.0,400.0,565.0)"><text fill="#FFD900" font-family="Arial" font-size="25" font-weight="normal" opacity="100" x="604.25" y="-1.5">1</text><text fill="#FFD900" font-family="Arial" font-size="25" font-weight="normal" opacity="100" x="123.25" y="1111.5">2</text><text fill="#FFD900" font-family="Arial" font-size="25" font-weight="normal" opacity="100" x="141.25" y="980.5">3</text><text fill="#FFD900" font-family="Arial" font-size="25" font-weight="normal" opacity="100" x="44.25" y="1100.5">4</text><text fill="#FFD900" font-family="Arial" font-size="25" font-weight="normal" opacity="100" x="64.25" y="978.5">5</text></g></g></g></svg>