<?xml version="1.0" encoding="utf-8" ?>
<svg baseProfile="tiny" height="800px" version="1.2" width="1000px" xmlns="http://www.w3.org/2000/svg" xmlns:ev="http://www.w3.org/2001/xml-events" xmlns:xlink="http://www.w3.org/1999/xlink"><defs /><g><g transform="rotate(-42.0,500.0,400.0)"><polygon fill="#FC9C54" opacity="100" points="206.0,414.0 206.0,384.0 656.0,384.0 656.0,414.0" stroke="#000" stroke-width="1" /><polygon fill="#FC9C54" opacity="100" points="656.0,304.0 656.0,274.0 206.0,274.0 206.0,304.0" stroke="#000" stroke-width="1" /><text fill="#F7782E" font-family="Arial" font-size="25" font-weight="bold" opacity="100" transform="rotate(-0.0 362.0,319.0) translate(0 25)" x="362.0" y="319.0">Свиблово</text><text fill="#F7782E" font-family="Arial" font-size="20" font-weight="normal" opacity="100" transform="rotate(-0.0 209.0,251.0) translate(0 20)" x="209.0" y="251.0">&lt;&lt; Ботанический сад</text><text fill="#F7782E" font-family="Arial" font-size="20" font-weight="normal" opacity="100" transform="rotate(-0.0 508.0,414.0) translate(0 20)" x="508.0" y="414.0">Бабушкинская &gt;&gt;</text><polyline fill="none" opacity="100" points="86.0,230.0 55.0,252.0 55.0,282.0 154.0,282.0 154.0,314.0 206.0,314.0 206.0,304.0" stroke="#000" stroke-width="1" /><polyline fill="none" opacity="100" points="-9.0,459.0 55.0,459.0 55.0,405.0 154.0,405.0 154.0,374.0 206.0,374.0 206.0,384.0" stroke="#000" stroke-width="1" /><polyline fill="none" opacity="100" points="-9.0,255.0 27.0,255.0 27.0,431.0 -9.0,431.0" stroke="#000" stroke-width="1" /><polyline fill="none" opacity="100" points="-9.0,232.0 43.0,232.0 73.0,211.0" stroke="#000" stroke-width="1" /><polyline fill="none" opacity="100" points="25.0,232.0 25.0,255.0" stroke="#000" stroke-width="1" /><polyline fill="none" opacity="100" points="21.0,232.0 21.0,255.0" stroke="#000" stroke-width="1" /><polyline fill="none" opacity="100" points="17.0,232.0 17.0,255.0" stroke="#000" stroke-width="1" /><polyline fill="none" opacity="100" points="13.0,232.0 13.0,255.0" stroke="#000" stroke-width="1" /><polyline fill="none" opacity="100" points="9.0,232.0 9.0,255.0" stroke="#000" stroke-width="1" /><polyline fill="none" opacity="100" points="5.0,232.0 5.0,255.0" stroke="#000" stroke-width="1" /><polyline fill="none" opacity="100" points="1.0,232.0 1.0,255.0" stroke="#000" stroke-width="1" /><polyline fill="none" opacity="100" points="-3.0,232.0 -3.0,255.0" stroke="#000" stroke-width="1" /><polyline fill="none" opacity="100" points="-7.0,232.0 -7.0,255.0" stroke="#000" stroke-width="1" /><polyline fill="none" opacity="100" points="25.0,459.0 25.0,431.0" stroke="#000" stroke-width="1" /><polyline fill="none" opacity="100" points="21.0,459.0 21.0,431.0" stroke="#000" stroke-width="1" /><polyline fill="none" opacity="100" points="17.0,459.0 17.0,431.0" stroke="#000" stroke-width="1" /><polyline fill="none" opacity="100" points="13.0,459.0 13.0,431.0" stroke="#000" stroke-width="1" /><polyline fill="none" opacity="100" points="9.0,459.0 9.0,431.0" stroke="#000" stroke-width="1" /><polyline fill="none" opacity="100" points="5.0,459.0 5.0,431.0" stroke="#000" stroke-width="1" /><polyline fill="none" opacity="100" points="1.0,459.0 1.0,431.0" stroke="#000" stroke-width="1" /><polyline fill="none" opacity="100" points="-3.0,459.0 -3.0,431.0" stroke="#000" stroke-width="1" /><polyline fill="none" opacity="100" points="-7.0,459.0 -7.0,431.0" stroke="#000" stroke-width="1" /><polyline fill="none" opacity="100" points="59.0,249.0 46.0,230.0" stroke="#000" stroke-width="1" /><polyline fill="none" opacity="100" points="62.2712,246.698 49.2712,227.698" stroke="#000" stroke-width="1" /><polyline fill="none" opacity="100" points="65.5425,244.3961 52.5425,225.3961" stroke="#000" stroke-width="1" /><polyline fill="none" opacity="100" points="68.8137,242.0941 55.8137,223.0941" stroke="#000" stroke-width="1" /><polyline fill="none" opacity="100" points="72.0849,239.7921 59.0849,220.7921" stroke="#000" stroke-width="1" /><polyline fill="none" opacity="100" points="75.3561,237.4901 62.3561,218.4901" stroke="#000" stroke-width="1" /><polyline fill="none" opacity="100" points="78.6274,235.1882 65.6274,216.1882" stroke="#000" stroke-width="1" /><polyline fill="none" opacity="100" points="81.8986,232.8862 68.8986,213.8862" stroke="#000" stroke-width="1" /><polyline fill="none" opacity="100" points="85.1698,230.5842 72.1698,211.5842" stroke="#000" stroke-width="1" /><polyline fill="none" opacity="100" points="158.0,314.0 158.0,374.0" stroke="#000" stroke-width="1" /><polyline fill="none" opacity="100" points="162.0,314.0 162.0,374.0" stroke="#000" stroke-width="1" /><polyline fill="none" opacity="100" points="166.0,314.0 166.0,374.0" stroke="#000" stroke-width="1" /><polyline fill="none" opacity="100" points="170.0,314.0 170.0,374.0" stroke="#000" stroke-width="1" /><polyline fill="none" opacity="100" points="174.0,314.0 174.0,374.0" stroke="#000" stroke-width="1" /><polyline fill="none" opacity="100" points="178.0,314.0 178.0,374.0" stroke="#000" stroke-width="1" /><polyline fill="none" opacity="100" points="182.0,314.0 182.0,374.0" stroke="#000" stroke-width="1" /><polyline fill="none" opacity="100" points="186.0,314.0 186.0,374.0" stroke="#000" stroke-width="1" /><polyline fill="none" opacity="100" points="190.0,314.0 190.0,374.0" stroke="#000" stroke-width="1" /><polyline fill="none" opacity="100" points="194.0,314.0 194.0,374.0" stroke="#000" stroke-width="1" /><polyline fill="none" opacity="100" points="198.0,314.0 198.0,374.0" stroke="#000" stroke-width="1" /><polyline fill="none" opacity="100" points="202.0,314.0 202.0,374.0" stroke="#000" stroke-width="1" /><polygon fill="#D0D0D0" opacity="100" points="65.0,315.0 57.0,315.0 57.0,372.0 65.0,372.0" stroke="#000" stroke-width="1" /><polyline fill="none" opacity="100" points="154.0,284.0 167.0,284.0 167.0,312.0 154.0,312.0" stroke="#000" stroke-width="1" /><text fill="#FFF" font-family="Arial" font-size="10" font-weight="normal" opacity="100" transform="rotate(90.0 167.0,286.0) translate(0 10)" x="167.0" y="286.0">кассы</text><polyline fill="none" opacity="100" points="154.0,313.0 115.0,313.0" stroke="#000" stroke-width="0.5" /><polygon fill="none" opacity="100" points="87.0,369.0 90.0,364.0 95.0,367.0 92.0,372.0" stroke="#000" stroke-width="1" /><polyline fill="none" opacity="100" points="92.0,372.0 65.0,372.0" stroke="#000" stroke-width="0.5" /><polyline fill="none" opacity="100" points="92.0,360.0 97.0,363.0" stroke="#090" stroke-width="1" /><polyline fill="none" opacity="100" points="93.7285,356.3927 98.7285,359.3927" stroke="#090" stroke-width="1" /><polyline fill="none" opacity="100" points="95.457,352.7855 100.457,355.7855" stroke="#090" stroke-width="1" /><polyline fill="none" opacity="100" points="97.1854,349.1782 102.1854,352.1782" stroke="#090" stroke-width="1" /><polyline fill="none" opacity="100" points="98.9139,345.5709 103.9139,348.5709" stroke="#090" stroke-width="1" /><polyline fill="none" opacity="100" points="100.6424,341.9637 105.6424,344.9637" stroke="#090" stroke-width="1" /><polyline fill="none" opacity="100" points="102.3709,338.3564 107.3709,341.3564" stroke="#090" stroke-width="1" /><polyline fill="none" opacity="100" points="104.0994,334.7492 109.0994,337.7492" stroke="#090" stroke-width="1" /><polyline fill="none" opacity="100" points="105.8278,331.1419 110.8278,334.1419" stroke="#090" stroke-width="1" /><polyline fill="none" opacity="100" points="107.5563,327.5346 112.5563,330.5346" stroke="#090" stroke-width="1" /><polyline fill="none" opacity="100" points="109.2848,323.9274 114.2848,326.9274" stroke="#090" stroke-width="1" /><polyline fill="none" opacity="100" points="111.0133,320.3201 116.0133,323.3201" stroke="#090" stroke-width="1" /><polyline fill="none" opacity="100" points="112.7418,316.7128 117.7418,319.7128" stroke="#090" stroke-width="1" /><polyline fill="none" opacity="100" points="114.4702,313.1056 119.4702,316.1056" stroke="#090" stroke-width="1" /><polyline fill="none" opacity="100" points="846.0,202.0 804.0,244.0 804.0,282.0 705.0,282.0 705.0,314.0 656.0,314.0 656.0,304.0" stroke="#000" stroke-width="1" /><polyline fill="none" opacity="100" points="866.0,221.0 838.0,249.0 838.0,434.0 874.0,470.0" stroke="#000" stroke-width="1" /><polyline fill="none" opacity="100" points="855.0,489.0 804.0,438.0 804.0,405.0 705.0,405.0 705.0,374.0 656.0,374.0 656.0,384.0" stroke="#000" stroke-width="1" /><polyline fill="none" opacity="100" points="658.0,314.0 658.0,374.0" stroke="#000" stroke-width="1" /><polyline fill="none" opacity="100" points="662.0,314.0 662.0,374.0" stroke="#000" stroke-width="1" /><polyline fill="none" opacity="100" points="666.0,314.0 666.0,374.0" stroke="#000" stroke-width="1" /><polyline fill="none" opacity="100" points="670.0,314.0 670.0,374.0" stroke="#000" stroke-width="1" /><polyline fill="none" opacity="100" points="674.0,314.0 674.0,374.0" stroke="#000" stroke-width="1" /><polyline fill="none" opacity="100" points="678.0,314.0 678.0,374.0" stroke="#000" stroke-width="1" /><polyline fill="none" opacity="100" points="682.0,314.0 682.0,374.0" stroke="#000" stroke-width="1" /><polyline fill="none" opacity="100" points="686.0,314.0 686.0,374.0" stroke="#000" stroke-width="1" /><polyline fill="none" opacity="100" points="690.0,314.0 690.0,374.0" stroke="#000" stroke-width="1" /><polyline fill="none" opacity="100" points="694.0,314.0 694.0,374.0" stroke="#000" stroke-width="1" /><polyline fill="none" opacity="100" points="698.0,314.0 698.0,374.0" stroke="#000" stroke-width="1" /><polyline fill="none" opacity="100" points="702.0,314.0 702.0,374.0" stroke="#000" stroke-width="1" /><polyline fill="none" opacity="100" points="842.0,245.0 823.0,226.0" stroke="#000" stroke-width="1" /><polyline fill="none" opacity="100" points="844.8284,242.1716 825.8284,223.1716" stroke="#000" stroke-width="1" /><polyline fill="none" opacity="100" points="847.6569,239.3431 828.6569,220.3431" stroke="#000" stroke-width="1" /><polyline fill="none" opacity="100" points="850.4853,236.5147 831.4853,217.5147" stroke="#000" stroke-width="1" /><polyline fill="none" opacity="100" points="853.3137,233.6863 834.3137,214.6863" stroke="#000" stroke-width="1" /><polyline fill="none" opacity="100" points="856.1421,230.8579 837.1421,211.8579" stroke="#000" stroke-width="1" /><polyline fill="none" opacity="100" points="858.9706,228.0294 839.9706,209.0294" stroke="#000" stroke-width="1" /><polyline fill="none" opacity="100" points="861.799,225.201 842.799,206.201" stroke="#000" stroke-width="1" /><polyline fill="none" opacity="100" points="864.6274,222.3726 845.6274,203.3726" stroke="#000" stroke-width="1" /><polyline fill="none" opacity="100" points="831.0,465.0 850.0,446.0" stroke="#000" stroke-width="1" /><polyline fill="none" opacity="100" points="833.8284,467.8284 852.8284,448.8284" stroke="#000" stroke-width="1" /><polyline fill="none" opacity="100" points="836.6569,470.6569 855.6569,451.6569" stroke="#000" stroke-width="1" /><polyline fill="none" opacity="100" points="839.4853,473.4853 858.4853,454.4853" stroke="#000" stroke-width="1" /><polyline fill="none" opacity="100" points="842.3137,476.3137 861.3137,457.3137" stroke="#000" stroke-width="1" /><polyline fill="none" opacity="100" points="845.1421,479.1421 864.1421,460.1421" stroke="#000" stroke-width="1" /><polyline fill="none" opacity="100" points="847.9706,481.9706 866.9706,462.9706" stroke="#000" stroke-width="1" /><polyline fill="none" opacity="100" points="850.799,484.799 869.799,465.799" stroke="#000" stroke-width="1" /><polyline fill="none" opacity="100" points="853.6274,487.6274 872.6274,468.6274" stroke="#000" stroke-width="1" /><polygon fill="#D0D0D0" opacity="100" points="804.0,315.0 796.0,315.0 796.0,372.0 804.0,372.0" stroke="#000" stroke-width="1" /><polyline fill="none" opacity="100" points="705.0,313.0 736.0,313.0" stroke="#000" stroke-width="0.5" /><polygon fill="none" opacity="100" points="766.0,370.0 764.0,365.0 759.0,367.0 761.0,372.0" stroke="#000" stroke-width="1" /><polyline fill="none" opacity="100" points="761.0,372.0 796.0,372.0" stroke="#000" stroke-width="0.5" /><polyline fill="none" opacity="100" points="758.0,363.0 763.0,361.0" stroke="#090" stroke-width="1" /><polyline fill="none" opacity="100" points="756.4884,359.2966 761.4884,357.2966" stroke="#090" stroke-width="1" /><polyline fill="none" opacity="100" points="754.9768,355.5932 759.9768,353.5932" stroke="#090" stroke-width="1" /><polyline fill="none" opacity="100" points="753.4652,351.8898 758.4652,349.8898" stroke="#090" stroke-width="1" /><polyline fill="none" opacity="100" points="751.9536,348.1864 756.9536,346.1864" stroke="#090" stroke-width="1" /><polyline fill="none" opacity="100" points="750.4421,344.483 755.4421,342.483" stroke="#090" stroke-width="1" /><polyline fill="none" opacity="100" points="748.9305,340.7797 753.9305,338.7797" stroke="#090" stroke-width="1" /><polyline fill="none" opacity="100" points="747.4189,337.0763 752.4189,335.0763" stroke="#090" stroke-width="1" /><polyline fill="none" opacity="100" points="745.9073,333.3729 750.9073,331.3729" stroke="#090" stroke-width="1" /><polyline fill="none" opacity="100" points="744.3957,329.6695 749.3957,327.6695" stroke="#090" stroke-width="1" /><polyline fill="none" opacity="100" points="742.8841,325.9661 747.8841,323.9661" stroke="#090" stroke-width="1" /><polyline fill="none" opacity="100" points="741.3725,322.2627 746.3725,320.2627" stroke="#090" stroke-width="1" /><polyline fill="none" opacity="100" points="739.8609,318.5593 744.8609,316.5593" stroke="#090" stroke-width="1" /><polyline fill="none" opacity="100" points="738.3494,314.8559 743.3494,312.8559" stroke="#090" stroke-width="1" /><polyline fill="none" opacity="100" points="705.0,284.0 692.0,284.0 692.0,312.0 705.0,312.0" stroke="#000" stroke-width="1" /><text fill="#000" font-family="Arial" font-size="10" font-weight="normal" opacity="100" transform="rotate(90.0 705.0,287.0) translate(0 10)" x="705.0" y="287.0">кассы</text><polyline fill="none" opacity="100" points="791.0,389.0 809.0,389.0" stroke="#F00" stroke-width="1" /><polygon fill="#F00" opacity="100" points="803.784,390.3976 809.0,389.0 803.784,387.6024" stroke="#F00" stroke-width="1" /><polyline fill="none" opacity="100" points="69.0,389.0 55.0,389.0" stroke="#F00" stroke-width="1" /><polygon fill="#F00" opacity="100" points="59.0569,387.913 55.0,389.0 59.0569,390.087" stroke="#F00" stroke-width="1" /><polyline fill="none" opacity="100" points="779.0,309.0 764.0,316.0" stroke="#090" stroke-width="1" /><polygon fill="#090" opacity="100" points="767.8031,312.8069 764.0,316.0 768.8902,315.1362" stroke="#090" stroke-width="1" /><polyline fill="none" opacity="100" points="80.0,305.0 93.0,313.0" stroke="#090" stroke-width="1" /><polygon fill="#090" opacity="100" points="88.6117,311.6912 93.0,313.0 89.8541,309.6724" stroke="#090" stroke-width="1" /><polygon fill="#34349C" opacity="100" points="723.0,376.0 717.0,376.0 717.0,374.0 723.0,374.0" stroke="#34349C" stroke-width="1" /><polygon fill="#34349C" opacity="100" points="416.0,356.0 416.0,346.0 414.0,346.0 414.0,356.0" stroke="#34349C" stroke-width="1" /><polygon fill="#34349C" opacity="100" points="130.0,376.0 124.0,376.0 124.0,374.0 130.0,374.0" stroke="#34349C" stroke-width="1" /><polygon fill="#F00" opacity="100" points="729.0,376.0 723.0,376.0 723.0,374.0 729.0,374.0" stroke="#F00" stroke-width="1" /><polygon fill="#F00" opacity="100" points="416.0,351.0 416.0,356.0 414.0,356.0 414.0,351.0" stroke="#F00" stroke-width="1" /><polygon fill="#F00" opacity="100" points="136.0,376.0 130.0,376.0 130.0,374.0 136.0,374.0" stroke="#F00" stroke-width="1" /><text fill="#00AFAF" font-family="Arial" font-size="15" font-weight="normal" opacity="100" transform="rotate(110.0 1076.0,439.0) translate(0 15)" x="1076.0" y="439.0">улица Амундсена</text><text fill="#00AFAF" font-family="Arial" font-size="15" font-weight="normal" opacity="100" transform="rotate(-0.0 872.0,344.0) translate(0 15)" x="872.0" y="344.0">Снежная улица</text><text fill="#00AFAF" font-family="Arial" font-size="15" font-weight="normal" opacity="100" transform="rotate(-0.0 -87.0,343.0) translate(0 15)" x="-87.0" y="343.0">Снежная улица</text><text fill="#00AFAF" font-family="Arial" font-size="15" font-weight="normal" opacity="100" transform="rotate(90.0 211.0,76.0) translate(0 15)" x="211.0" y="76.0">проезд Русанова</text><g transform="rotate(42.0,500.0,400.0)"><text fill="#FFD900" font-family="Arial" font-size="25" font-weight="normal" opacity="100" x="587.25" y="43.5">1</text><text fill="#FFD900" font-family="Arial" font-size="25" font-weight="normal" opacity="100" x="800.25" y="267.5">2</text><text fill="#FFD900" font-family="Arial" font-size="25" font-weight="normal" opacity="100" x="123.25" y="744.5">3</text><text fill="#FFD900" font-family="Arial" font-size="25" font-weight="normal" opacity="100" x="41.25" y="653.5">4</text><text fill="#FFD900" font-family="Arial" font-size="25" font-weight="normal" opacity="100" x="91.25" y="572.5">5</text></g></g></g></svg>