<?xml version="1.0" encoding="utf-8" ?>
<svg baseProfile="tiny" height="680px" version="1.2" width="580px" xmlns="http://www.w3.org/2000/svg" xmlns:ev="http://www.w3.org/2001/xml-events" xmlns:xlink="http://www.w3.org/1999/xlink"><defs /><g><g transform="rotate(85.0,290.0,340.0)"><polygon fill="#046434" opacity="100" points="98.0,401.0 548.0,401.0 548.0,431.0 98.0,431.0" stroke="#000" stroke-width="1" /><polygon fill="#046434" opacity="100" points="98.0,433.0 548.0,433.0 548.0,463.0 98.0,463.0" stroke="#000" stroke-width="1" /><text fill="#000" font-family="Arial" font-size="25" font-weight="bold" opacity="100" transform="rotate(-0.0 330.0,403.0) translate(0 25)" x="330.0" y="403.0">Технопарк</text><text fill="#FFF" font-family="Arial" font-size="25" font-weight="bold" opacity="100" transform="rotate(-0.0 329.0,402.0) translate(0 25)" x="329.0" y="402.0">Технопарк</text><text fill="#046434" font-family="Arial" font-size="20" font-weight="normal" opacity="100" transform="rotate(-0.0 396.0,459.0) translate(0 20)" x="396.0" y="459.0">Коломенская &gt;&gt;</text><text fill="#046434" font-family="Arial" font-size="20" font-weight="normal" opacity="100" transform="rotate(-0.0 104.0,379.0) translate(0 20)" x="104.0" y="379.0">&lt;&lt; Автозаводская</text><text fill="#00AFAF" font-family="Arial" font-size="15" font-weight="normal" opacity="100" transform="rotate(-0.0 218.0,162.0) translate(0 15)" x="218.0" y="162.0">проспект Андропова</text><text fill="#00AFAF" font-family="Arial" font-size="15" font-weight="normal" opacity="100" transform="rotate(-90.0 161.0,169.0) translate(0 15)" x="161.0" y="169.0">Остров Мечты &gt;&gt;</text><text fill="#C07777" font-family="Arial" font-size="15" font-weight="normal" opacity="100" transform="rotate(-90.0 594.0,487.0) translate(0 15)" x="594.0" y="487.0">будущий переход на Бирюлёвскую линию</text><polyline fill="none" opacity="100" points="589.0,360.0 589.0,401.0 548.0,401.0" stroke="#000" stroke-width="1" /><polyline fill="none" opacity="100" points="571.0,360.0 530.0,360.0" stroke="#000" stroke-width="1" /><polyline fill="none" opacity="100" points="313.0,360.0 289.0,360.0" stroke="#000" stroke-width="1" /><polygon fill="#CCC" opacity="100" points="530.0,360.0 530.0,368.0 526.0,371.0 513.0,371.0 513.0,381.0 313.0,381.0 313.0,360.0" stroke="#000" stroke-width="1" /><polyline fill="none" opacity="100" points="263.0,381.0 289.0,381.0 289.0,371.0 224.0,371.0" stroke="#000" stroke-width="1" /><polyline fill="none" opacity="100" points="224.0,381.0 210.0,381.0" stroke="#000" stroke-width="1" /><polygon fill="#CCC" opacity="100" points="210.0,360.0 210.0,381.0 189.0,381.0 189.0,371.0 124.0,371.0 119.0,366.0 119.0,360.0" stroke="#000" stroke-width="1" /><polygon fill="#CCC" opacity="100" points="39.0,360.0 39.0,368.0 -13.0,368.0 -13.0,360.0" stroke="#000" stroke-width="1" /><polyline fill="none" opacity="100" points="119.0,360.0 59.0,360.0 59.0,320.0 71.0,294.0 71.0,237.0 89.0,237.0 89.0,276.0" stroke="#000" stroke-width="1" /><polyline fill="none" opacity="100" points="71.0,282.0 107.0,282.0 107.0,219.0 70.0,219.0 70.0,116.0 141.0,116.0 141.0,75.0 76.0,75.0 76.0,93.0" stroke="#000" stroke-width="1" /><polyline fill="none" opacity="100" points="46.0,93.0 46.0,75.0 -22.0,75.0 -22.0,116.0 52.0,116.0 52.0,291.0 39.0,315.0 39.0,360.0" stroke="#000" stroke-width="1" /><polyline fill="none" opacity="100" points="-22.0,129.0 46.0,129.0 46.0,116.0" stroke="#000" stroke-width="1" /><polyline fill="none" opacity="100" points="141.0,129.0 76.0,129.0 76.0,116.0" stroke="#000" stroke-width="1" /><polyline fill="none" opacity="100" points="-29.0,360.0 -29.0,401.0 39.0,401.0" stroke="#000" stroke-width="1" /><polygon fill="#CCC" opacity="100" points="39.0,401.0 39.0,385.0 98.0,385.0 98.0,401.0" stroke="#000" stroke-width="1" /><polygon fill="#CCC" opacity="100" points="-10.0,98.0 -10.0,93.0 129.0,93.0 129.0,98.0" stroke="#000" stroke-width="1" /><polyline fill="none" opacity="100" points="29.0,385.0 -13.0,385.0" stroke="#000" stroke-width="1" /><polyline fill="none" opacity="100" points="280.0,371.0 280.0,381.0" stroke="#000" stroke-width="1" /><polyline fill="none" opacity="100" points="276.0,371.0 276.0,381.0" stroke="#000" stroke-width="1" /><polyline fill="none" opacity="100" points="272.0,371.0 272.0,381.0" stroke="#000" stroke-width="1" /><polyline fill="none" opacity="100" points="268.0,371.0 268.0,381.0" stroke="#000" stroke-width="1" /><polyline fill="none" opacity="100" points="264.0,371.0 264.0,381.0" stroke="#000" stroke-width="1" /><polyline fill="none" opacity="100" points="-13.0,385.0 -13.0,401.0" stroke="#000" stroke-width="1" /><polyline fill="none" opacity="100" points="-9.0,385.0 -9.0,401.0" stroke="#000" stroke-width="1" /><polyline fill="none" opacity="100" points="-5.0,385.0 -5.0,401.0" stroke="#000" stroke-width="1" /><polyline fill="none" opacity="100" points="-1.0,385.0 -1.0,401.0" stroke="#000" stroke-width="1" /><polyline fill="none" opacity="100" points="3.0,385.0 3.0,401.0" stroke="#000" stroke-width="1" /><polyline fill="none" opacity="100" points="7.0,385.0 7.0,401.0" stroke="#000" stroke-width="1" /><polyline fill="none" opacity="100" points="11.0,385.0 11.0,401.0" stroke="#000" stroke-width="1" /><polyline fill="none" opacity="100" points="15.0,385.0 15.0,401.0" stroke="#000" stroke-width="1" /><polyline fill="none" opacity="100" points="19.0,385.0 19.0,401.0" stroke="#000" stroke-width="1" /><polyline fill="none" opacity="100" points="23.0,385.0 23.0,401.0" stroke="#000" stroke-width="1" /><polyline fill="none" opacity="100" points="27.0,385.0 27.0,401.0" stroke="#000" stroke-width="1" /><polyline fill="none" opacity="100" points="71.0,241.0 89.0,241.0" stroke="#000" stroke-width="1" /><polyline fill="none" opacity="100" points="71.0,245.0 89.0,245.0" stroke="#000" stroke-width="1" /><polyline fill="none" opacity="100" points="71.0,249.0 89.0,249.0" stroke="#000" stroke-width="1" /><polyline fill="none" opacity="100" points="71.0,253.0 89.0,253.0" stroke="#000" stroke-width="1" /><polyline fill="none" opacity="100" points="71.0,257.0 89.0,257.0" stroke="#000" stroke-width="1" /><polyline fill="none" opacity="100" points="71.0,261.0 89.0,261.0" stroke="#000" stroke-width="1" /><polyline fill="none" opacity="100" points="71.0,265.0 89.0,265.0" stroke="#000" stroke-width="1" /><polyline fill="none" opacity="100" points="71.0,269.0 89.0,269.0" stroke="#000" stroke-width="1" /><polyline fill="none" opacity="100" points="71.0,273.0 89.0,273.0" stroke="#000" stroke-width="1" /><polyline fill="none" opacity="100" points="107.0,271.0 89.0,271.0" stroke="#000" stroke-width="1" /><polyline fill="none" opacity="100" points="107.0,267.0 89.0,267.0" stroke="#000" stroke-width="1" /><polyline fill="none" opacity="100" points="107.0,263.0 89.0,263.0" stroke="#000" stroke-width="1" /><polyline fill="none" opacity="100" points="107.0,259.0 89.0,259.0" stroke="#000" stroke-width="1" /><polyline fill="none" opacity="100" points="107.0,255.0 89.0,255.0" stroke="#000" stroke-width="1" /><polyline fill="none" opacity="100" points="107.0,251.0 89.0,251.0" stroke="#000" stroke-width="1" /><polyline fill="none" opacity="100" points="107.0,247.0 89.0,247.0" stroke="#000" stroke-width="1" /><polyline fill="none" opacity="100" points="107.0,243.0 89.0,243.0" stroke="#000" stroke-width="1" /><polyline fill="none" opacity="100" points="107.0,239.0 89.0,239.0" stroke="#000" stroke-width="1" /><polyline fill="none" opacity="100" points="28.0,116.0 28.0,98.0" stroke="#000" stroke-width="1" /><polyline fill="none" opacity="100" points="24.0,116.0 24.0,98.0" stroke="#000" stroke-width="1" /><polyline fill="none" opacity="100" points="20.0,116.0 20.0,98.0" stroke="#000" stroke-width="1" /><polyline fill="none" opacity="100" points="16.0,116.0 16.0,98.0" stroke="#000" stroke-width="1" /><polyline fill="none" opacity="100" points="12.0,116.0 12.0,98.0" stroke="#000" stroke-width="1" /><polyline fill="none" opacity="100" points="8.0,116.0 8.0,98.0" stroke="#000" stroke-width="1" /><polyline fill="none" opacity="100" points="4.0,116.0 4.0,98.0" stroke="#000" stroke-width="1" /><polyline fill="none" opacity="100" points="0.0,116.0 0.0,98.0" stroke="#000" stroke-width="1" /><polyline fill="none" opacity="100" points="-4.0,116.0 -4.0,98.0" stroke="#000" stroke-width="1" /><polyline fill="none" opacity="100" points="-8.0,116.0 -8.0,98.0" stroke="#000" stroke-width="1" /><polyline fill="none" opacity="100" points="91.0,116.0 91.0,98.0" stroke="#000" stroke-width="1" /><polyline fill="none" opacity="100" points="95.0,116.0 95.0,98.0" stroke="#000" stroke-width="1" /><polyline fill="none" opacity="100" points="99.0,116.0 99.0,98.0" stroke="#000" stroke-width="1" /><polyline fill="none" opacity="100" points="103.0,116.0 103.0,98.0" stroke="#000" stroke-width="1" /><polyline fill="none" opacity="100" points="107.0,116.0 107.0,98.0" stroke="#000" stroke-width="1" /><polyline fill="none" opacity="100" points="111.0,116.0 111.0,98.0" stroke="#000" stroke-width="1" /><polyline fill="none" opacity="100" points="115.0,116.0 115.0,98.0" stroke="#000" stroke-width="1" /><polyline fill="none" opacity="100" points="119.0,116.0 119.0,98.0" stroke="#000" stroke-width="1" /><polyline fill="none" opacity="100" points="123.0,116.0 123.0,98.0" stroke="#000" stroke-width="1" /><polyline fill="none" opacity="100" points="127.0,116.0 127.0,98.0" stroke="#000" stroke-width="1" /><polyline fill="none" opacity="100" points="125.0,93.0 125.0,75.0" stroke="#000" stroke-width="1" /><polyline fill="none" opacity="100" points="121.0,93.0 121.0,75.0" stroke="#000" stroke-width="1" /><polyline fill="none" opacity="100" points="117.0,93.0 117.0,75.0" stroke="#000" stroke-width="1" /><polyline fill="none" opacity="100" points="113.0,93.0 113.0,75.0" stroke="#000" stroke-width="1" /><polyline fill="none" opacity="100" points="109.0,93.0 109.0,75.0" stroke="#000" stroke-width="1" /><polyline fill="none" opacity="100" points="105.0,93.0 105.0,75.0" stroke="#000" stroke-width="1" /><polyline fill="none" opacity="100" points="101.0,93.0 101.0,75.0" stroke="#000" stroke-width="1" /><polyline fill="none" opacity="100" points="97.0,93.0 97.0,75.0" stroke="#000" stroke-width="1" /><polyline fill="none" opacity="100" points="93.0,93.0 93.0,75.0" stroke="#000" stroke-width="1" /><polyline fill="none" opacity="100" points="89.0,93.0 89.0,75.0" stroke="#000" stroke-width="1" /><polyline fill="none" opacity="100" points="-6.0,93.0 -6.0,75.0" stroke="#000" stroke-width="1" /><polyline fill="none" opacity="100" points="-2.0,93.0 -2.0,75.0" stroke="#000" stroke-width="1" /><polyline fill="none" opacity="100" points="2.0,93.0 2.0,75.0" stroke="#000" stroke-width="1" /><polyline fill="none" opacity="100" points="6.0,93.0 6.0,75.0" stroke="#000" stroke-width="1" /><polyline fill="none" opacity="100" points="10.0,93.0 10.0,75.0" stroke="#000" stroke-width="1" /><polyline fill="none" opacity="100" points="14.0,93.0 14.0,75.0" stroke="#000" stroke-width="1" /><polyline fill="none" opacity="100" points="18.0,93.0 18.0,75.0" stroke="#000" stroke-width="1" /><polyline fill="none" opacity="100" points="22.0,93.0 22.0,75.0" stroke="#000" stroke-width="1" /><polyline fill="none" opacity="100" points="26.0,93.0 26.0,75.0" stroke="#000" stroke-width="1" /><polyline fill="none" opacity="100" points="30.0,93.0 30.0,75.0" stroke="#000" stroke-width="1" /><polygon fill="#D0EFFF" opacity="100" points="39.0,360.0 39.0,368.0 29.0,368.0 29.0,360.0" stroke="#000" stroke-width="1" /><polygon fill="#D0EFFF" opacity="100" points="56.0,88.0 56.0,98.0 66.0,98.0 66.0,88.0" stroke="#000" stroke-width="1" /><text fill="#FFF" font-family="Arial" font-size="4" font-weight="normal" opacity="100" transform="rotate(-0.0 57.0,90.0) translate(0 4)" x="57.0" y="90.0">лифт</text><text fill="#FFF" font-family="Arial" font-size="4" font-weight="normal" opacity="100" transform="rotate(-0.0 30.0,361.0) translate(0 4)" x="30.0" y="361.0">лифт</text><polygon fill="#FFF" opacity="100" points="54.0,385.0 54.0,397.0 81.0,397.0 81.0,385.0" stroke="#000" stroke-width="1" /><text fill="#FFF" font-family="Arial" font-size="9" font-weight="normal" opacity="100" x="54.65" y="393.1">кассы</text><polyline fill="none" opacity="100" points="311.0,381.0 311.0,377.0" stroke="#F00" stroke-width="1" /><polyline fill="none" opacity="100" points="307.0,381.0 307.0,377.0" stroke="#F00" stroke-width="1" /><polyline fill="none" opacity="100" points="303.0,381.0 303.0,377.0" stroke="#F00" stroke-width="1" /><polyline fill="none" opacity="100" points="299.0,381.0 299.0,377.0" stroke="#F00" stroke-width="1" /><polyline fill="none" opacity="100" points="295.0,381.0 295.0,377.0" stroke="#F00" stroke-width="1" /><polyline fill="none" opacity="100" points="291.0,381.0 291.0,377.0" stroke="#F00" stroke-width="1" /><polyline fill="none" opacity="100" points="230.0,381.0 226.0,381.0" stroke="#F00" stroke-width="1" /><polyline fill="none" opacity="100" points="230.0,377.0 226.0,377.0" stroke="#F00" stroke-width="1" /><polyline fill="none" opacity="100" points="230.0,373.0 226.0,373.0" stroke="#F00" stroke-width="1" /><polyline fill="none" opacity="100" points="245.0,381.0 245.0,376.0 236.0,376.0" stroke="#F00" stroke-width="1" /><polygon fill="#F00" opacity="100" points="238.608,375.3012 236.0,376.0 238.608,376.6988" stroke="#F00" stroke-width="1" /><polyline fill="none" opacity="100" points="301.0,392.0 301.0,385.0" stroke="#F00" stroke-width="1" /><polygon fill="#F00" opacity="100" points="301.5435,387.0284 301.0,385.0 300.4565,387.0284" stroke="#F00" stroke-width="1" /><polyline fill="none" opacity="100" points="553.0,363.0 556.0,398.0" stroke="#F00" stroke-width="1" /><polyline fill="none" opacity="100" points="556.0,363.0 553.0,398.0" stroke="#F00" stroke-width="1" /><polyline fill="none" opacity="100" points="118.0,368.0 121.0,371.0" stroke="#090" stroke-width="1" /><polyline fill="none" opacity="100" points="115.0919,370.7465 118.0919,373.7465" stroke="#090" stroke-width="1" /><polyline fill="none" opacity="100" points="112.1839,373.493 115.1839,376.493" stroke="#090" stroke-width="1" /><polyline fill="none" opacity="100" points="109.2758,376.2395 112.2758,379.2395" stroke="#090" stroke-width="1" /><polyline fill="none" opacity="100" points="106.3678,378.986 109.3678,381.986" stroke="#090" stroke-width="1" /><polyline fill="none" opacity="100" points="103.4597,381.7325 106.4597,384.7325" stroke="#090" stroke-width="1" /><polyline fill="none" opacity="100" points="100.5517,384.479 103.5517,387.479" stroke="#090" stroke-width="1" /><polyline fill="none" opacity="100" points="-21.0,353.0 -21.0,376.0 -14.0,376.0" stroke="#090" stroke-width="1" /><polygon fill="#090" opacity="100" points="-16.0284,376.5435 -14.0,376.0 -16.0284,375.4565" stroke="#090" stroke-width="1" /><polyline fill="none" opacity="100" points="548.0,463.0 590.0,463.0 590.0,504.0" stroke="#000" stroke-width="1" /><polyline fill="none" opacity="100" points="571.0,504.0 530.0,504.0" stroke="#000" stroke-width="1" /><polyline fill="none" opacity="100" points="313.0,504.0 289.0,504.0" stroke="#000" stroke-width="1" /><polygon fill="#CCC" opacity="100" points="530.0,504.0 530.0,497.0 526.0,493.0 513.0,493.0 513.0,483.0 313.0,483.0 313.0,504.0" stroke="#000" stroke-width="1" /><polyline fill="none" opacity="100" points="263.0,483.0 289.0,483.0 289.0,494.0 224.0,494.0" stroke="#000" stroke-width="1" /><polyline fill="none" opacity="100" points="119.0,504.0 39.0,504.0" stroke="#000" stroke-width="1" /><polygon fill="#CCC" opacity="100" points="210.0,504.0 210.0,484.0 189.0,484.0 189.0,494.0 123.0,494.0 119.0,498.0 119.0,504.0" stroke="#000" stroke-width="1" /><polygon fill="#CCC" opacity="100" points="39.0,504.0 39.0,496.0 -13.0,496.0 -13.0,504.0" stroke="#000" stroke-width="1" /><polyline fill="none" opacity="100" points="-29.0,504.0 -29.0,463.0 39.0,463.0" stroke="#000" stroke-width="1" /><polygon fill="#CCC" opacity="100" points="39.0,463.0 39.0,479.0 98.0,479.0 98.0,463.0" stroke="#000" stroke-width="1" /><polyline fill="none" opacity="100" points="29.0,479.0 -13.0,479.0" stroke="#000" stroke-width="1" /><polyline fill="none" opacity="100" points="224.0,484.0 210.0,484.0" stroke="#000" stroke-width="1" /><polyline fill="none" opacity="100" points="-13.0,463.0 -13.0,479.0" stroke="#000" stroke-width="1" /><polyline fill="none" opacity="100" points="-9.0,463.0 -9.0,479.0" stroke="#000" stroke-width="1" /><polyline fill="none" opacity="100" points="-5.0,463.0 -5.0,479.0" stroke="#000" stroke-width="1" /><polyline fill="none" opacity="100" points="-1.0,463.0 -1.0,479.0" stroke="#000" stroke-width="1" /><polyline fill="none" opacity="100" points="3.0,463.0 3.0,479.0" stroke="#000" stroke-width="1" /><polyline fill="none" opacity="100" points="7.0,463.0 7.0,479.0" stroke="#000" stroke-width="1" /><polyline fill="none" opacity="100" points="11.0,463.0 11.0,479.0" stroke="#000" stroke-width="1" /><polyline fill="none" opacity="100" points="15.0,463.0 15.0,479.0" stroke="#000" stroke-width="1" /><polyline fill="none" opacity="100" points="19.0,463.0 19.0,479.0" stroke="#000" stroke-width="1" /><polyline fill="none" opacity="100" points="23.0,463.0 23.0,479.0" stroke="#000" stroke-width="1" /><polyline fill="none" opacity="100" points="27.0,463.0 27.0,479.0" stroke="#000" stroke-width="1" /><polyline fill="none" opacity="100" points="280.0,494.0 280.0,483.0" stroke="#000" stroke-width="1" /><polyline fill="none" opacity="100" points="276.0,494.0 276.0,483.0" stroke="#000" stroke-width="1" /><polyline fill="none" opacity="100" points="272.0,494.0 272.0,483.0" stroke="#000" stroke-width="1" /><polyline fill="none" opacity="100" points="268.0,494.0 268.0,483.0" stroke="#000" stroke-width="1" /><polyline fill="none" opacity="100" points="264.0,494.0 264.0,483.0" stroke="#000" stroke-width="1" /><polygon fill="#D0EFFF" opacity="100" points="39.0,504.0 39.0,496.0 29.0,496.0 29.0,504.0" stroke="#000" stroke-width="1" /><text fill="#FFF" font-family="Arial" font-size="4" font-weight="normal" opacity="100" transform="rotate(-0.0 30.0,497.0) translate(0 4)" x="30.0" y="497.0">лифт</text><polygon fill="#FFF" opacity="100" points="81.0,479.0 81.0,467.0 54.0,467.0 54.0,479.0" stroke="#000" stroke-width="1" /><text fill="#FFF" font-family="Arial" font-size="9" font-weight="normal" opacity="100" x="54.65" y="475.1">кассы</text><polyline fill="none" opacity="100" points="311.0,483.0 311.0,487.0" stroke="#F00" stroke-width="1" /><polyline fill="none" opacity="100" points="307.0,483.0 307.0,487.0" stroke="#F00" stroke-width="1" /><polyline fill="none" opacity="100" points="303.0,483.0 303.0,487.0" stroke="#F00" stroke-width="1" /><polyline fill="none" opacity="100" points="299.0,483.0 299.0,487.0" stroke="#F00" stroke-width="1" /><polyline fill="none" opacity="100" points="295.0,483.0 295.0,487.0" stroke="#F00" stroke-width="1" /><polyline fill="none" opacity="100" points="291.0,483.0 291.0,487.0" stroke="#F00" stroke-width="1" /><polyline fill="none" opacity="100" points="230.0,484.0 226.0,484.0" stroke="#F00" stroke-width="1" /><polyline fill="none" opacity="100" points="230.0,488.0 226.0,488.0" stroke="#F00" stroke-width="1" /><polyline fill="none" opacity="100" points="230.0,492.0 226.0,492.0" stroke="#F00" stroke-width="1" /><polyline fill="none" opacity="100" points="245.0,482.0 245.0,488.0 236.0,488.0" stroke="#F00" stroke-width="1" /><polygon fill="#F00" opacity="100" points="238.608,487.3012 236.0,488.0 238.608,488.6988" stroke="#F00" stroke-width="1" /><polyline fill="none" opacity="100" points="301.0,472.0 301.0,479.0" stroke="#F00" stroke-width="1" /><polygon fill="#F00" opacity="100" points="300.4565,476.9716 301.0,479.0 301.5435,476.9716" stroke="#F00" stroke-width="1" /><polyline fill="none" opacity="100" points="553.0,466.0 556.0,501.0" stroke="#F00" stroke-width="1" /><polyline fill="none" opacity="100" points="556.0,466.0 553.0,501.0" stroke="#F00" stroke-width="1" /><polyline fill="none" opacity="100" points="118.0,496.0 121.0,493.0" stroke="#090" stroke-width="1" /><polyline fill="none" opacity="100" points="115.0919,493.2535 118.0919,490.2535" stroke="#090" stroke-width="1" /><polyline fill="none" opacity="100" points="112.1839,490.507 115.1839,487.507" stroke="#090" stroke-width="1" /><polyline fill="none" opacity="100" points="109.2758,487.7605 112.2758,484.7605" stroke="#090" stroke-width="1" /><polyline fill="none" opacity="100" points="106.3678,485.014 109.3678,482.014" stroke="#090" stroke-width="1" /><polyline fill="none" opacity="100" points="103.4597,482.2675 106.4597,479.2675" stroke="#090" stroke-width="1" /><polyline fill="none" opacity="100" points="100.5517,479.521 103.5517,476.521" stroke="#090" stroke-width="1" /><polyline fill="none" opacity="100" points="-22.0,509.0 -22.0,487.0 -14.0,487.0" stroke="#090" stroke-width="1" /><polygon fill="#090" opacity="100" points="-16.3182,487.6212 -14.0,487.0 -16.3182,486.3788" stroke="#090" stroke-width="1" /><polygon fill="#FFF" opacity="0.8" points="280.0,371.0 289.0,371.0 289.0,391.0 296.0,391.0 296.0,473.0 289.0,473.0 289.0,494.0 280.0,494.0 280.0,473.0 273.0,473.0 273.0,456.0 59.0,456.0 59.0,504.0 39.0,504.0 39.0,496.0 -29.0,496.0 -29.0,479.0 29.0,479.0 29.0,385.0 -29.0,385.0 -29.0,368.0 39.0,368.0 39.0,360.0 59.0,360.0 59.0,408.0 273.0,408.0 273.0,391.0 280.0,391.0" stroke="#FFF" stroke-width="1" /><polyline fill="none" opacity="1.0" points="280.0,371.0 289.0,371.0 289.0,391.0 296.0,391.0 296.0,473.0 289.0,473.0 289.0,494.0 280.0,494.0" stroke="#000" stroke-width="1" /><polyline fill="none" opacity="1.0" points="280.0,381.0 280.0,391.0 273.0,391.0 273.0,408.0 59.0,408.0 59.0,360.0" stroke="#000" stroke-width="1" /><polyline fill="none" opacity="1.0" points="39.0,360.0 39.0,368.0 -29.0,368.0 -29.0,385.0" stroke="#000" stroke-width="1" /><polyline fill="none" opacity="1.0" points="-13.0,385.0 29.0,385.0 29.0,479.0 -13.0,479.0" stroke="#000" stroke-width="1" /><polyline fill="none" opacity="1.0" points="-29.0,479.0 -29.0,496.0 39.0,496.0 39.0,529.0 78.0,568.0 75.0,571.0 46.0,542.0" stroke="#000" stroke-width="1" /><polyline fill="none" opacity="1.0" points="34.0,554.0 76.0,596.0 103.0,569.0 59.0,525.0 59.0,456.0 273.0,456.0 273.0,473.0 280.0,473.0 280.0,483.0" stroke="#000" stroke-width="1" /><polyline fill="none" opacity="1.0" points="289.0,391.0 280.0,391.0" stroke="#000" stroke-width="1" /><polyline fill="none" opacity="1.0" points="289.0,387.0 280.0,387.0" stroke="#000" stroke-width="1" /><polyline fill="none" opacity="1.0" points="289.0,383.0 280.0,383.0" stroke="#000" stroke-width="1" /><polyline fill="none" opacity="1.0" points="289.0,473.0 280.0,473.0" stroke="#000" stroke-width="1" /><polyline fill="none" opacity="1.0" points="289.0,477.0 280.0,477.0" stroke="#000" stroke-width="1" /><polyline fill="none" opacity="1.0" points="289.0,481.0 280.0,481.0" stroke="#000" stroke-width="1" /><polyline fill="none" opacity="1.0" points="29.0,368.0 29.0,385.0" stroke="#000" stroke-width="1" /><polyline fill="none" opacity="1.0" points="25.0,368.0 25.0,385.0" stroke="#000" stroke-width="1" /><polyline fill="none" opacity="1.0" points="21.0,368.0 21.0,385.0" stroke="#000" stroke-width="1" /><polyline fill="none" opacity="1.0" points="17.0,368.0 17.0,385.0" stroke="#000" stroke-width="1" /><polyline fill="none" opacity="1.0" points="13.0,368.0 13.0,385.0" stroke="#000" stroke-width="1" /><polyline fill="none" opacity="1.0" points="9.0,368.0 9.0,385.0" stroke="#000" stroke-width="1" /><polyline fill="none" opacity="1.0" points="5.0,368.0 5.0,385.0" stroke="#000" stroke-width="1" /><polyline fill="none" opacity="1.0" points="1.0,368.0 1.0,385.0" stroke="#000" stroke-width="1" /><polyline fill="none" opacity="1.0" points="-3.0,368.0 -3.0,385.0" stroke="#000" stroke-width="1" /><polyline fill="none" opacity="1.0" points="-7.0,368.0 -7.0,385.0" stroke="#000" stroke-width="1" /><polyline fill="none" opacity="1.0" points="-11.0,368.0 -11.0,385.0" stroke="#000" stroke-width="1" /><polyline fill="none" opacity="1.0" points="29.0,479.0 29.0,496.0" stroke="#000" stroke-width="1" /><polyline fill="none" opacity="1.0" points="25.0,479.0 25.0,496.0" stroke="#000" stroke-width="1" /><polyline fill="none" opacity="1.0" points="21.0,479.0 21.0,496.0" stroke="#000" stroke-width="1" /><polyline fill="none" opacity="1.0" points="17.0,479.0 17.0,496.0" stroke="#000" stroke-width="1" /><polyline fill="none" opacity="1.0" points="13.0,479.0 13.0,496.0" stroke="#000" stroke-width="1" /><polyline fill="none" opacity="1.0" points="9.0,479.0 9.0,496.0" stroke="#000" stroke-width="1" /><polyline fill="none" opacity="1.0" points="5.0,479.0 5.0,496.0" stroke="#000" stroke-width="1" /><polyline fill="none" opacity="1.0" points="1.0,479.0 1.0,496.0" stroke="#000" stroke-width="1" /><polyline fill="none" opacity="1.0" points="-3.0,479.0 -3.0,496.0" stroke="#000" stroke-width="1" /><polyline fill="none" opacity="1.0" points="-7.0,479.0 -7.0,496.0" stroke="#000" stroke-width="1" /><polyline fill="none" opacity="1.0" points="-11.0,479.0 -11.0,496.0" stroke="#000" stroke-width="1" /><polyline fill="none" opacity="1.0" points="36.0,556.0 48.0,544.0" stroke="#000" stroke-width="1" /><polyline fill="none" opacity="1.0" points="38.8284,558.8284 50.8284,546.8284" stroke="#000" stroke-width="1" /><polyline fill="none" opacity="1.0" points="41.6569,561.6569 53.6569,549.6569" stroke="#000" stroke-width="1" /><polyline fill="none" opacity="1.0" points="44.4853,564.4853 56.4853,552.4853" stroke="#000" stroke-width="1" /><polyline fill="none" opacity="1.0" points="47.3137,567.3137 59.3137,555.3137" stroke="#000" stroke-width="1" /><polyline fill="none" opacity="1.0" points="50.1421,570.1421 62.1421,558.1421" stroke="#000" stroke-width="1" /><polyline fill="none" opacity="1.0" points="52.9706,572.9706 64.9706,560.9706" stroke="#000" stroke-width="1" /><polyline fill="none" opacity="1.0" points="55.799,575.799 67.799,563.799" stroke="#000" stroke-width="1" /><polyline fill="none" opacity="1.0" points="58.6274,578.6274 70.6274,566.6274" stroke="#000" stroke-width="1" /><polyline fill="none" opacity="1.0" points="61.4558,581.4558 73.4558,569.4558" stroke="#000" stroke-width="1" /><polyline fill="none" opacity="1.0" points="76.0,566.0 88.0,554.0" stroke="#000" stroke-width="1" /><polyline fill="none" opacity="1.0" points="73.1716,563.1716 85.1716,551.1716" stroke="#000" stroke-width="1" /><polyline fill="none" opacity="1.0" points="70.3431,560.3431 82.3431,548.3431" stroke="#000" stroke-width="1" /><polyline fill="none" opacity="1.0" points="67.5147,557.5147 79.5147,545.5147" stroke="#000" stroke-width="1" /><polyline fill="none" opacity="1.0" points="64.6863,554.6863 76.6863,542.6863" stroke="#000" stroke-width="1" /><polyline fill="none" opacity="1.0" points="61.8579,551.8579 73.8579,539.8579" stroke="#000" stroke-width="1" /><polyline fill="none" opacity="1.0" points="59.0294,549.0294 71.0294,537.0294" stroke="#000" stroke-width="1" /><polyline fill="none" opacity="1.0" points="56.201,546.201 68.201,534.201" stroke="#000" stroke-width="1" /><polyline fill="none" opacity="1.0" points="53.3726,543.3726 65.3726,531.3726" stroke="#000" stroke-width="1" /><polyline fill="none" opacity="1.0" points="50.5442,540.5442 62.5442,528.5442" stroke="#000" stroke-width="1" /><polyline fill="none" opacity="1.0" points="96.0,412.0 100.0,412.0" stroke="#F00" stroke-width="1" /><polyline fill="none" opacity="1.0" points="96.0,416.0 100.0,416.0" stroke="#F00" stroke-width="1" /><polyline fill="none" opacity="1.0" points="96.0,420.0 100.0,420.0" stroke="#F00" stroke-width="1" /><polyline fill="none" opacity="1.0" points="96.0,424.0 100.0,424.0" stroke="#F00" stroke-width="1" /><polyline fill="none" opacity="1.0" points="96.0,428.0 100.0,428.0" stroke="#F00" stroke-width="1" /><polyline fill="none" opacity="1.0" points="96.0,432.0 100.0,432.0" stroke="#F00" stroke-width="1" /><polyline fill="none" opacity="1.0" points="96.0,436.0 100.0,436.0" stroke="#F00" stroke-width="1" /><polyline fill="none" opacity="1.0" points="96.0,440.0 100.0,440.0" stroke="#F00" stroke-width="1" /><polyline fill="none" opacity="1.0" points="96.0,444.0 100.0,444.0" stroke="#F00" stroke-width="1" /><polyline fill="none" opacity="1.0" points="96.0,448.0 100.0,448.0" stroke="#F00" stroke-width="1" /><polyline fill="none" opacity="1.0" points="96.0,452.0 100.0,452.0" stroke="#F00" stroke-width="1" /><g transform="rotate(-82.0,290.0,340.0)"><text fill="#FFD900" font-family="Arial" font-size="25" font-weight="normal" opacity="1.0" x="91.25" y="325.5">1</text><text fill="#FFD900" font-family="Arial" font-size="25" font-weight="normal" opacity="1.0" x="47.25" y="44.5">2</text><text fill="#FFD900" font-family="Arial" font-size="25" font-weight="normal" opacity="1.0" x="-0.75" y="124.5">3</text><text fill="#FFD900" font-family="Arial" font-size="25" font-weight="normal" opacity="1.0" x="248.25" y="52.5">4</text><text fill="#FFD900" font-family="Arial" font-size="25" font-weight="normal" opacity="1.0" x="271.25" y="310.5">5</text><text fill="#FFD900" font-family="Arial" font-size="25" font-weight="normal" opacity="1.0" x="359.25" y="173.5">6</text><text fill="#FFD900" font-family="Arial" font-size="25" font-weight="normal" opacity="1.0" x="422.25" y="24.5">7</text><text fill="#FFD900" font-family="Arial" font-size="25" font-weight="normal" opacity="1.0" x="443.25" y="159.5">8</text></g></g></g></svg>