<?xml version="1.0" encoding="utf-8" ?>
<svg baseProfile="tiny" height="850px" version="1.2" width="400px" xmlns="http://www.w3.org/2000/svg" xmlns:ev="http://www.w3.org/2001/xml-events" xmlns:xlink="http://www.w3.org/1999/xlink"><defs /><g><g transform="rotate(-85.0,200.0,425.0)"><polygon fill="#9CA4A4" opacity="100" points="-18.0,576.0 -18.0,551.0 432.0,551.0 432.0,576.0" stroke="#000" stroke-width="1" /><polygon fill="#9CA4A4" opacity="100" points="432.0,471.0 432.0,445.0 -18.0,445.0 -18.0,471.0" stroke="#000" stroke-width="1" /><text fill="#4C4C4C" font-family="Arial" font-size="25" font-weight="bold" opacity="100" transform="rotate(-0.0 146.0,485.0) translate(0 25)" x="146.0" y="485.0">Тульская</text><text fill="#4C4C4C" font-family="Arial" font-size="20" font-weight="normal" opacity="100" transform="rotate(-0.0 -17.0,422.0) translate(0 20)" x="-17.0" y="422.0">&lt;&lt; Нагатинская</text><text fill="#4C4C4C" font-family="Arial" font-size="20" font-weight="normal" opacity="100" transform="rotate(-0.0 284.0,576.0) translate(0 20)" x="284.0" y="576.0">Серпуховская &gt;&gt;</text><polyline fill="none" opacity="100" points="-126.0,419.0 -168.0,419.0 -168.0,449.0 -69.0,449.0 -69.0,481.0 -18.0,481.0 -18.0,471.0" stroke="#000" stroke-width="1" /><polyline fill="none" opacity="100" points="-126.0,399.0 -198.0,399.0 -198.0,572.0 -69.0,572.0 -69.0,541.0 -18.0,541.0 -18.0,551.0" stroke="#000" stroke-width="1" /><polyline fill="none" opacity="100" points="-66.0,510.0 -66.0,541.0" stroke="#000" stroke-width="1" /><polyline fill="none" opacity="100" points="-62.0,510.0 -62.0,541.0" stroke="#000" stroke-width="1" /><polyline fill="none" opacity="100" points="-58.0,510.0 -58.0,541.0" stroke="#000" stroke-width="1" /><polyline fill="none" opacity="100" points="-54.0,510.0 -54.0,541.0" stroke="#000" stroke-width="1" /><polyline fill="none" opacity="100" points="-50.0,510.0 -50.0,541.0" stroke="#000" stroke-width="1" /><polyline fill="none" opacity="100" points="-46.0,510.0 -46.0,541.0" stroke="#000" stroke-width="1" /><polyline fill="none" opacity="100" points="-42.0,510.0 -42.0,541.0" stroke="#000" stroke-width="1" /><polyline fill="none" opacity="100" points="-38.0,510.0 -38.0,541.0" stroke="#000" stroke-width="1" /><polyline fill="none" opacity="100" points="-34.0,510.0 -34.0,541.0" stroke="#000" stroke-width="1" /><polyline fill="none" opacity="100" points="-30.0,510.0 -30.0,541.0" stroke="#000" stroke-width="1" /><polyline fill="none" opacity="100" points="-26.0,510.0 -26.0,541.0" stroke="#000" stroke-width="1" /><polyline fill="none" opacity="100" points="-22.0,510.0 -22.0,541.0" stroke="#000" stroke-width="1" /><polyline fill="none" opacity="100" points="-128.0,419.0 -128.0,399.0" stroke="#000" stroke-width="1" /><polyline fill="none" opacity="100" points="-132.0,419.0 -132.0,399.0" stroke="#000" stroke-width="1" /><polyline fill="none" opacity="100" points="-136.0,419.0 -136.0,399.0" stroke="#000" stroke-width="1" /><polyline fill="none" opacity="100" points="-140.0,419.0 -140.0,399.0" stroke="#000" stroke-width="1" /><polyline fill="none" opacity="100" points="-144.0,419.0 -144.0,399.0" stroke="#000" stroke-width="1" /><polyline fill="none" opacity="100" points="-148.0,419.0 -148.0,399.0" stroke="#000" stroke-width="1" /><polyline fill="none" opacity="100" points="-152.0,419.0 -152.0,399.0" stroke="#000" stroke-width="1" /><polyline fill="none" opacity="100" points="-156.0,419.0 -156.0,399.0" stroke="#000" stroke-width="1" /><polyline fill="none" opacity="100" points="-160.0,419.0 -160.0,399.0" stroke="#000" stroke-width="1" /><polyline fill="none" opacity="100" points="-164.0,419.0 -164.0,399.0" stroke="#000" stroke-width="1" /><polygon fill="#D0D0D0" opacity="100" points="-158.0,482.0 -166.0,482.0 -166.0,539.0 -158.0,539.0" stroke="#000" stroke-width="1" /><polyline fill="none" opacity="100" points="-64.0,484.0 -64.0,508.0" stroke="#7F7F7F" stroke-width="1" /><polyline fill="none" opacity="100" points="-60.0,484.0 -60.0,508.0" stroke="#7F7F7F" stroke-width="1" /><polyline fill="none" opacity="100" points="-56.0,484.0 -56.0,508.0" stroke="#7F7F7F" stroke-width="1" /><polyline fill="none" opacity="100" points="-52.0,484.0 -52.0,508.0" stroke="#7F7F7F" stroke-width="1" /><polyline fill="none" opacity="100" points="-48.0,484.0 -48.0,508.0" stroke="#7F7F7F" stroke-width="1" /><polyline fill="none" opacity="100" points="-44.0,484.0 -44.0,508.0" stroke="#7F7F7F" stroke-width="1" /><polyline fill="none" opacity="100" points="-40.0,484.0 -40.0,508.0" stroke="#7F7F7F" stroke-width="1" /><polyline fill="none" opacity="100" points="-36.0,484.0 -36.0,508.0" stroke="#7F7F7F" stroke-width="1" /><polyline fill="none" opacity="100" points="-32.0,484.0 -32.0,508.0" stroke="#7F7F7F" stroke-width="1" /><polyline fill="none" opacity="100" points="-28.0,484.0 -28.0,508.0" stroke="#7F7F7F" stroke-width="1" /><polyline fill="none" opacity="100" points="-24.0,484.0 -24.0,508.0" stroke="#7F7F7F" stroke-width="1" /><polygon fill="#9B5509" opacity="100" points="-18.0,493.0 -68.0,493.0 -68.0,498.0 -18.0,498.0" stroke="#000" stroke-width="1" /><polygon fill="#9B5509" opacity="100" points="-18.0,507.0 -68.0,507.0 -68.0,510.0 -18.0,510.0" stroke="#000" stroke-width="1" /><polygon fill="#9B5509" opacity="100" points="-18.0,481.0 -68.0,481.0 -68.0,484.0 -18.0,484.0" stroke="#000" stroke-width="1" /><polyline fill="none" opacity="100" points="-69.0,543.0 -60.0,543.0 -60.0,570.0 -69.0,570.0" stroke="#000" stroke-width="1" /><text fill="#FFF" font-family="Arial" font-size="10" font-weight="normal" opacity="100" transform="rotate(90.0 -57.0,544.0) translate(0 10)" x="-57.0" y="544.0">кассы</text><polyline fill="none" opacity="100" points="-69.0,542.0 -100.0,542.0" stroke="#000" stroke-width="0.5" /><polygon fill="none" opacity="100" points="-128.0,484.0 -126.0,489.0 -121.0,487.0 -123.0,482.0" stroke="#000" stroke-width="1" /><polyline fill="none" opacity="100" points="-123.0,482.0 -158.0,482.0" stroke="#000" stroke-width="0.5" /><polyline fill="none" opacity="100" points="-125.0,493.0 -120.0,491.0" stroke="#090" stroke-width="1" /><polyline fill="none" opacity="100" points="-123.2691,496.6061 -118.2691,494.6061" stroke="#090" stroke-width="1" /><polyline fill="none" opacity="100" points="-121.5382,500.2122 -116.5382,498.2122" stroke="#090" stroke-width="1" /><polyline fill="none" opacity="100" points="-119.8072,503.8183 -114.8072,501.8183" stroke="#090" stroke-width="1" /><polyline fill="none" opacity="100" points="-118.0763,507.4244 -113.0763,505.4244" stroke="#090" stroke-width="1" /><polyline fill="none" opacity="100" points="-116.3454,511.0305 -111.3454,509.0305" stroke="#090" stroke-width="1" /><polyline fill="none" opacity="100" points="-114.6145,514.6366 -109.6145,512.6366" stroke="#090" stroke-width="1" /><polyline fill="none" opacity="100" points="-112.8835,518.2426 -107.8835,516.2426" stroke="#090" stroke-width="1" /><polyline fill="none" opacity="100" points="-111.1526,521.8487 -106.1526,519.8487" stroke="#090" stroke-width="1" /><polyline fill="none" opacity="100" points="-109.4217,525.4548 -104.4217,523.4548" stroke="#090" stroke-width="1" /><polyline fill="none" opacity="100" points="-107.6908,529.0609 -102.6908,527.0609" stroke="#090" stroke-width="1" /><polyline fill="none" opacity="100" points="-105.9598,532.667 -100.9598,530.667" stroke="#090" stroke-width="1" /><polyline fill="none" opacity="100" points="-104.2289,536.2731 -99.2289,534.2731" stroke="#090" stroke-width="1" /><polyline fill="none" opacity="100" points="-102.498,539.8792 -97.498,537.8792" stroke="#090" stroke-width="1" /><polyline fill="none" opacity="100" points="-122.0,453.0 -128.0,453.0" stroke="#F00" stroke-width="1" /><polyline fill="none" opacity="100" points="-122.0,457.0 -128.0,457.0" stroke="#F00" stroke-width="1" /><polyline fill="none" opacity="100" points="-122.0,461.0 -128.0,461.0" stroke="#F00" stroke-width="1" /><polyline fill="none" opacity="100" points="-122.0,465.0 -128.0,465.0" stroke="#F00" stroke-width="1" /><polyline fill="none" opacity="100" points="-122.0,469.0 -128.0,469.0" stroke="#F00" stroke-width="1" /><polyline fill="none" opacity="100" points="-122.0,473.0 -128.0,473.0" stroke="#F00" stroke-width="1" /><polyline fill="none" opacity="100" points="-122.0,477.0 -128.0,477.0" stroke="#F00" stroke-width="1" /><polyline fill="none" opacity="100" points="538.0,419.0 580.0,419.0 580.0,449.0 481.0,449.0 481.0,481.0 432.0,481.0 432.0,471.0" stroke="#000" stroke-width="1" /><polyline fill="none" opacity="100" points="538.0,399.0 612.0,399.0 612.0,572.0 481.0,572.0 481.0,541.0 432.0,541.0 432.0,551.0" stroke="#000" stroke-width="1" /><polyline fill="none" opacity="100" points="434.0,481.0 434.0,512.0" stroke="#000" stroke-width="1" /><polyline fill="none" opacity="100" points="438.0,481.0 438.0,512.0" stroke="#000" stroke-width="1" /><polyline fill="none" opacity="100" points="442.0,481.0 442.0,512.0" stroke="#000" stroke-width="1" /><polyline fill="none" opacity="100" points="446.0,481.0 446.0,512.0" stroke="#000" stroke-width="1" /><polyline fill="none" opacity="100" points="450.0,481.0 450.0,512.0" stroke="#000" stroke-width="1" /><polyline fill="none" opacity="100" points="454.0,481.0 454.0,512.0" stroke="#000" stroke-width="1" /><polyline fill="none" opacity="100" points="458.0,481.0 458.0,512.0" stroke="#000" stroke-width="1" /><polyline fill="none" opacity="100" points="462.0,481.0 462.0,512.0" stroke="#000" stroke-width="1" /><polyline fill="none" opacity="100" points="466.0,481.0 466.0,512.0" stroke="#000" stroke-width="1" /><polyline fill="none" opacity="100" points="470.0,481.0 470.0,512.0" stroke="#000" stroke-width="1" /><polyline fill="none" opacity="100" points="474.0,481.0 474.0,512.0" stroke="#000" stroke-width="1" /><polyline fill="none" opacity="100" points="478.0,481.0 478.0,512.0" stroke="#000" stroke-width="1" /><polyline fill="none" opacity="100" points="540.0,419.0 540.0,399.0" stroke="#000" stroke-width="1" /><polyline fill="none" opacity="100" points="544.0,419.0 544.0,399.0" stroke="#000" stroke-width="1" /><polyline fill="none" opacity="100" points="548.0,419.0 548.0,399.0" stroke="#000" stroke-width="1" /><polyline fill="none" opacity="100" points="552.0,419.0 552.0,399.0" stroke="#000" stroke-width="1" /><polyline fill="none" opacity="100" points="556.0,419.0 556.0,399.0" stroke="#000" stroke-width="1" /><polyline fill="none" opacity="100" points="560.0,419.0 560.0,399.0" stroke="#000" stroke-width="1" /><polyline fill="none" opacity="100" points="564.0,419.0 564.0,399.0" stroke="#000" stroke-width="1" /><polyline fill="none" opacity="100" points="568.0,419.0 568.0,399.0" stroke="#000" stroke-width="1" /><polyline fill="none" opacity="100" points="572.0,419.0 572.0,399.0" stroke="#000" stroke-width="1" /><polyline fill="none" opacity="100" points="576.0,419.0 576.0,399.0" stroke="#000" stroke-width="1" /><polygon fill="#D0D0D0" opacity="100" points="580.0,482.0 572.0,482.0 572.0,539.0 580.0,539.0" stroke="#000" stroke-width="1" /><polyline fill="none" opacity="100" points="476.0,538.0 476.0,513.0" stroke="#7F7F7F" stroke-width="1" /><polyline fill="none" opacity="100" points="472.0012,538.0975 472.0012,513.0975" stroke="#7F7F7F" stroke-width="1" /><polyline fill="none" opacity="100" points="468.0024,538.1951 468.0024,513.1951" stroke="#7F7F7F" stroke-width="1" /><polyline fill="none" opacity="100" points="464.0036,538.2926 464.0036,513.2926" stroke="#7F7F7F" stroke-width="1" /><polyline fill="none" opacity="100" points="460.0048,538.3901 460.0048,513.3901" stroke="#7F7F7F" stroke-width="1" /><polyline fill="none" opacity="100" points="456.0059,538.4877 456.0059,513.4877" stroke="#7F7F7F" stroke-width="1" /><polyline fill="none" opacity="100" points="452.0071,538.5852 452.0071,513.5852" stroke="#7F7F7F" stroke-width="1" /><polyline fill="none" opacity="100" points="448.0083,538.6827 448.0083,513.6827" stroke="#7F7F7F" stroke-width="1" /><polyline fill="none" opacity="100" points="444.0095,538.7803 444.0095,513.7803" stroke="#7F7F7F" stroke-width="1" /><polyline fill="none" opacity="100" points="440.0107,538.8778 440.0107,513.8778" stroke="#7F7F7F" stroke-width="1" /><polyline fill="none" opacity="100" points="436.0119,538.9753 436.0119,513.9753" stroke="#7F7F7F" stroke-width="1" /><polygon fill="#9B5509" opacity="100" points="433.0,524.0 479.0,524.0 479.0,529.0 433.0,529.0" stroke="#000" stroke-width="1" /><polygon fill="#9B5509" opacity="100" points="433.0,538.0 479.0,538.0 479.0,541.0 433.0,541.0" stroke="#000" stroke-width="1" /><polygon fill="#9B5509" opacity="100" points="433.0,512.0 479.0,512.0 479.0,515.0 433.0,515.0" stroke="#000" stroke-width="1" /><polyline fill="none" opacity="100" points="481.0,480.0 516.0,480.0" stroke="#000" stroke-width="0.5" /><polygon fill="none" opacity="100" points="542.0,537.0 540.0,532.0 535.0,534.0 537.0,539.0" stroke="#000" stroke-width="1" /><polyline fill="none" opacity="100" points="537.0,539.0 572.0,539.0" stroke="#000" stroke-width="0.5" /><polyline fill="none" opacity="100" points="534.0,530.0 539.0,528.0" stroke="#090" stroke-width="1" /><polyline fill="none" opacity="100" points="532.4884,526.2966 537.4884,524.2966" stroke="#090" stroke-width="1" /><polyline fill="none" opacity="100" points="530.9768,522.5932 535.9768,520.5932" stroke="#090" stroke-width="1" /><polyline fill="none" opacity="100" points="529.4652,518.8898 534.4652,516.8898" stroke="#090" stroke-width="1" /><polyline fill="none" opacity="100" points="527.9536,515.1864 532.9536,513.1864" stroke="#090" stroke-width="1" /><polyline fill="none" opacity="100" points="526.4421,511.483 531.4421,509.483" stroke="#090" stroke-width="1" /><polyline fill="none" opacity="100" points="524.9305,507.7797 529.9305,505.7797" stroke="#090" stroke-width="1" /><polyline fill="none" opacity="100" points="523.4189,504.0763 528.4189,502.0763" stroke="#090" stroke-width="1" /><polyline fill="none" opacity="100" points="521.9073,500.3729 526.9073,498.3729" stroke="#090" stroke-width="1" /><polyline fill="none" opacity="100" points="520.3957,496.6695 525.3957,494.6695" stroke="#090" stroke-width="1" /><polyline fill="none" opacity="100" points="518.8841,492.9661 523.8841,490.9661" stroke="#090" stroke-width="1" /><polyline fill="none" opacity="100" points="517.3725,489.2627 522.3725,487.2627" stroke="#090" stroke-width="1" /><polyline fill="none" opacity="100" points="515.8609,485.5593 520.8609,483.5593" stroke="#090" stroke-width="1" /><polyline fill="none" opacity="100" points="514.3494,481.8559 519.3494,479.8559" stroke="#090" stroke-width="1" /><polyline fill="none" opacity="100" points="542.0,543.0 536.0,543.0" stroke="#F00" stroke-width="1" /><polyline fill="none" opacity="100" points="542.0,547.0 536.0,547.0" stroke="#F00" stroke-width="1" /><polyline fill="none" opacity="100" points="542.0,551.0 536.0,551.0" stroke="#F00" stroke-width="1" /><polyline fill="none" opacity="100" points="542.0,555.0 536.0,555.0" stroke="#F00" stroke-width="1" /><polyline fill="none" opacity="100" points="542.0,559.0 536.0,559.0" stroke="#F00" stroke-width="1" /><polyline fill="none" opacity="100" points="542.0,563.0 536.0,563.0" stroke="#F00" stroke-width="1" /><polyline fill="none" opacity="100" points="542.0,567.0 536.0,567.0" stroke="#F00" stroke-width="1" /><polyline fill="none" opacity="100" points="481.0,451.0 472.0,451.0 472.0,479.0 481.0,479.0" stroke="#000" stroke-width="1" /><text fill="#000" font-family="Arial" font-size="10" font-weight="normal" opacity="100" transform="rotate(90.0 484.0,453.0) translate(0 10)" x="484.0" y="453.0">кассы</text><polyline fill="none" opacity="100" points="564.0,557.0 577.0,557.0" stroke="#F00" stroke-width="1" /><polygon fill="#F00" opacity="100" points="573.2329,558.0094 577.0,557.0 573.2329,555.9906" stroke="#F00" stroke-width="1" /><polyline fill="none" opacity="100" points="488.0,526.0 499.0,530.0" stroke="#F00" stroke-width="1" /><polygon fill="#F00" opacity="100" points="495.5019,529.695 499.0,530.0 496.123,527.9868" stroke="#F00" stroke-width="1" /><polyline fill="none" opacity="100" points="-150.0,466.0 -164.0,466.0" stroke="#F00" stroke-width="1" /><polygon fill="#F00" opacity="100" points="-159.9431,464.913 -164.0,466.0 -159.9431,467.087" stroke="#F00" stroke-width="1" /><polyline fill="none" opacity="100" points="-77.0,496.0 -88.0,492.0" stroke="#F00" stroke-width="1" /><polygon fill="#F00" opacity="100" points="-84.5019,492.305 -88.0,492.0 -85.123,494.0132" stroke="#F00" stroke-width="1" /><polyline fill="none" opacity="100" points="497.0,497.0 486.0,497.0" stroke="#090" stroke-width="1" /><polygon fill="#090" opacity="100" points="489.1876,496.1459 486.0,497.0 489.1876,497.8541" stroke="#090" stroke-width="1" /><polyline fill="none" opacity="100" points="563.0,472.0 551.0,477.0" stroke="#090" stroke-width="1" /><polygon fill="#090" opacity="100" points="554.0891,474.6194 551.0,477.0 554.8656,476.4829" stroke="#090" stroke-width="1" /><polyline fill="none" opacity="100" points="-150.0,546.0 -138.0,541.0" stroke="#090" stroke-width="1" /><polygon fill="#090" opacity="100" points="-141.0891,543.3806 -138.0,541.0 -141.8656,541.5171" stroke="#090" stroke-width="1" /><polyline fill="none" opacity="100" points="-80.0,525.0 -69.0,525.0" stroke="#090" stroke-width="1" /><polygon fill="#090" opacity="100" points="-72.1876,525.8541 -69.0,525.0 -72.1876,524.1459" stroke="#090" stroke-width="1" /><polygon fill="#34349C" opacity="100" points="502.0,546.0 497.0,546.0 497.0,544.0 502.0,544.0" stroke="#34349C" stroke-width="1" /><polygon fill="#34349C" opacity="100" points="192.0,514.0 192.0,509.0 190.0,509.0 190.0,514.0" stroke="#34349C" stroke-width="1" /><polygon fill="#34349C" opacity="100" points="-90.0,478.0 -85.0,478.0 -85.0,476.0 -90.0,476.0" stroke="#34349C" stroke-width="1" /><polygon fill="#F00" opacity="100" points="507.0,546.0 502.0,546.0 502.0,544.0 507.0,544.0" stroke="#F00" stroke-width="1" /><polygon fill="#F00" opacity="100" points="192.0,519.0 192.0,514.0 190.0,514.0 190.0,519.0" stroke="#F00" stroke-width="1" /><polygon fill="#F00" opacity="100" points="-95.0,478.0 -90.0,478.0 -90.0,476.0 -95.0,476.0" stroke="#F00" stroke-width="1" /><text fill="#00AFAF" font-family="Arial" font-size="15" font-weight="normal" opacity="100" transform="rotate(-0.0 145.0,242.0) translate(0 15)" x="145.0" y="242.0">Большая Тульская улица</text><g transform="rotate(85.0,200.0,425.0)"><text fill="#FFD900" font-family="Arial" font-size="25" font-weight="normal" opacity="100" x="110.25" y="773.5">1</text><text fill="#FFD900" font-family="Arial" font-size="25" font-weight="normal" opacity="100" x="169.25" y="80.5">2</text></g></g></g></svg>