<?xml version="1.0" encoding="utf-8" ?>
<svg baseProfile="tiny" height="600px" version="1.2" width="720px" xmlns="http://www.w3.org/2000/svg" xmlns:ev="http://www.w3.org/2001/xml-events" xmlns:xlink="http://www.w3.org/1999/xlink"><defs /><g><g transform="rotate(-25.0,360.0,300.0)"><polyline fill="none" opacity="100" points="335.0,168.0 293.0,168.0 293.0,150.0" stroke="#000" stroke-width="1" /><polyline fill="none" opacity="100" points="262.0,168.0 262.0,-67.0 138.0,-67.0 138.0,-31.0 227.0,-31.0" stroke="#000" stroke-width="1" /><polyline fill="none" opacity="100" points="156.0,-49.0 198.0,-49.0" stroke="#000" stroke-width="1" /><polyline fill="none" opacity="100" points="227.0,-49.0 227.0,370.0 237.0,370.0 237.0,442.0" stroke="#000" stroke-width="1" /><polyline fill="none" opacity="100" points="245.0,301.0 245.0,349.0" stroke="#000" stroke-width="1" /><polyline fill="none" opacity="100" points="292.0,251.0 332.0,251.0" stroke="#000" stroke-width="1" /><polyline fill="none" opacity="100" points="292.0,269.0 332.0,269.0" stroke="#000" stroke-width="1" /><polyline fill="none" opacity="100" points="281.0,291.0 281.0,229.0 754.0,229.0 754.0,291.0 281.0,291.0" stroke="#000" stroke-width="1" /><polyline fill="none" opacity="100" points="249.0,374.0 249.0,442.0" stroke="#000" stroke-width="0.5" /><polyline fill="none" opacity="100" points="250.0,346.0 250.0,306.0" stroke="#000" stroke-width="0.5" /><polyline fill="none" opacity="100" points="240.0,344.0 240.0,304.0" stroke="#000" stroke-width="0.5" /><polyline fill="none" opacity="100" points="294.0,172.0 335.0,172.0" stroke="#000" stroke-width="0.5" /><polyline fill="none" opacity="100" points="333.0,164.0 293.0,164.0" stroke="#000" stroke-width="0.5" /><polyline fill="none" opacity="100" points="198.0,-45.0 156.0,-45.0" stroke="#000" stroke-width="0.5" /><polyline fill="none" opacity="100" points="198.0,-53.0 156.0,-53.0" stroke="#000" stroke-width="0.5" /><polyline fill="none" opacity="100" points="250.0,344.0 263.0,344.0" stroke="#000" stroke-width="1" /><polyline fill="none" opacity="100" points="250.0,340.0 263.0,340.0" stroke="#000" stroke-width="1" /><polyline fill="none" opacity="100" points="250.0,336.0 263.0,336.0" stroke="#000" stroke-width="1" /><polyline fill="none" opacity="100" points="250.0,332.0 263.0,332.0" stroke="#000" stroke-width="1" /><polyline fill="none" opacity="100" points="250.0,328.0 263.0,328.0" stroke="#000" stroke-width="1" /><polyline fill="none" opacity="100" points="250.0,324.0 263.0,324.0" stroke="#000" stroke-width="1" /><polyline fill="none" opacity="100" points="250.0,320.0 263.0,320.0" stroke="#000" stroke-width="1" /><polyline fill="none" opacity="100" points="250.0,316.0 263.0,316.0" stroke="#000" stroke-width="1" /><polyline fill="none" opacity="100" points="250.0,312.0 263.0,312.0" stroke="#000" stroke-width="1" /><polyline fill="none" opacity="100" points="250.0,308.0 263.0,308.0" stroke="#000" stroke-width="1" /><polyline fill="none" opacity="100" points="227.0,342.0 240.0,342.0" stroke="#000" stroke-width="1" /><polyline fill="none" opacity="100" points="227.0,338.0 240.0,338.0" stroke="#000" stroke-width="1" /><polyline fill="none" opacity="100" points="227.0,334.0 240.0,334.0" stroke="#000" stroke-width="1" /><polyline fill="none" opacity="100" points="227.0,330.0 240.0,330.0" stroke="#000" stroke-width="1" /><polyline fill="none" opacity="100" points="227.0,326.0 240.0,326.0" stroke="#000" stroke-width="1" /><polyline fill="none" opacity="100" points="227.0,322.0 240.0,322.0" stroke="#000" stroke-width="1" /><polyline fill="none" opacity="100" points="227.0,318.0 240.0,318.0" stroke="#000" stroke-width="1" /><polyline fill="none" opacity="100" points="227.0,314.0 240.0,314.0" stroke="#000" stroke-width="1" /><polyline fill="none" opacity="100" points="227.0,310.0 240.0,310.0" stroke="#000" stroke-width="1" /><polyline fill="none" opacity="100" points="227.0,306.0 240.0,306.0" stroke="#000" stroke-width="1" /><polyline fill="none" opacity="100" points="237.0,376.0 249.0,376.0" stroke="#000" stroke-width="1" /><polyline fill="none" opacity="100" points="237.0,380.0 249.0,380.0" stroke="#000" stroke-width="1" /><polyline fill="none" opacity="100" points="237.0,384.0 249.0,384.0" stroke="#000" stroke-width="1" /><polyline fill="none" opacity="100" points="237.0,388.0 249.0,388.0" stroke="#000" stroke-width="1" /><polyline fill="none" opacity="100" points="237.0,392.0 249.0,392.0" stroke="#000" stroke-width="1" /><polyline fill="none" opacity="100" points="237.0,396.0 249.0,396.0" stroke="#000" stroke-width="1" /><polyline fill="none" opacity="100" points="237.0,400.0 249.0,400.0" stroke="#000" stroke-width="1" /><polyline fill="none" opacity="100" points="237.0,404.0 249.0,404.0" stroke="#000" stroke-width="1" /><polyline fill="none" opacity="100" points="237.0,408.0 249.0,408.0" stroke="#000" stroke-width="1" /><polyline fill="none" opacity="100" points="237.0,412.0 249.0,412.0" stroke="#000" stroke-width="1" /><polyline fill="none" opacity="100" points="237.0,416.0 249.0,416.0" stroke="#000" stroke-width="1" /><polyline fill="none" opacity="100" points="237.0,420.0 249.0,420.0" stroke="#000" stroke-width="1" /><polyline fill="none" opacity="100" points="237.0,424.0 249.0,424.0" stroke="#000" stroke-width="1" /><polyline fill="none" opacity="100" points="237.0,428.0 249.0,428.0" stroke="#000" stroke-width="1" /><polyline fill="none" opacity="100" points="237.0,432.0 249.0,432.0" stroke="#000" stroke-width="1" /><polyline fill="none" opacity="100" points="237.0,436.0 249.0,436.0" stroke="#000" stroke-width="1" /><polyline fill="none" opacity="100" points="237.0,440.0 249.0,440.0" stroke="#000" stroke-width="1" /><polyline fill="none" opacity="100" points="297.0,186.0 297.0,172.0" stroke="#000" stroke-width="1" /><polyline fill="none" opacity="100" points="301.0,186.0 301.0,172.0" stroke="#000" stroke-width="1" /><polyline fill="none" opacity="100" points="305.0,186.0 305.0,172.0" stroke="#000" stroke-width="1" /><polyline fill="none" opacity="100" points="309.0,186.0 309.0,172.0" stroke="#000" stroke-width="1" /><polyline fill="none" opacity="100" points="313.0,186.0 313.0,172.0" stroke="#000" stroke-width="1" /><polyline fill="none" opacity="100" points="317.0,186.0 317.0,172.0" stroke="#000" stroke-width="1" /><polyline fill="none" opacity="100" points="321.0,186.0 321.0,172.0" stroke="#000" stroke-width="1" /><polyline fill="none" opacity="100" points="325.0,186.0 325.0,172.0" stroke="#000" stroke-width="1" /><polyline fill="none" opacity="100" points="329.0,186.0 329.0,172.0" stroke="#000" stroke-width="1" /><polyline fill="none" opacity="100" points="333.0,186.0 333.0,172.0" stroke="#000" stroke-width="1" /><polyline fill="none" opacity="100" points="331.0,150.0 331.0,164.0" stroke="#000" stroke-width="1" /><polyline fill="none" opacity="100" points="327.0,150.0 327.0,164.0" stroke="#000" stroke-width="1" /><polyline fill="none" opacity="100" points="323.0,150.0 323.0,164.0" stroke="#000" stroke-width="1" /><polyline fill="none" opacity="100" points="319.0,150.0 319.0,164.0" stroke="#000" stroke-width="1" /><polyline fill="none" opacity="100" points="315.0,150.0 315.0,164.0" stroke="#000" stroke-width="1" /><polyline fill="none" opacity="100" points="311.0,150.0 311.0,164.0" stroke="#000" stroke-width="1" /><polyline fill="none" opacity="100" points="307.0,150.0 307.0,164.0" stroke="#000" stroke-width="1" /><polyline fill="none" opacity="100" points="303.0,150.0 303.0,164.0" stroke="#000" stroke-width="1" /><polyline fill="none" opacity="100" points="299.0,150.0 299.0,164.0" stroke="#000" stroke-width="1" /><polyline fill="none" opacity="100" points="295.0,150.0 295.0,164.0" stroke="#000" stroke-width="1" /><polyline fill="none" opacity="100" points="160.0,-45.0 160.0,-31.0" stroke="#000" stroke-width="1" /><polyline fill="none" opacity="100" points="164.0,-45.0 164.0,-31.0" stroke="#000" stroke-width="1" /><polyline fill="none" opacity="100" points="168.0,-45.0 168.0,-31.0" stroke="#000" stroke-width="1" /><polyline fill="none" opacity="100" points="172.0,-45.0 172.0,-31.0" stroke="#000" stroke-width="1" /><polyline fill="none" opacity="100" points="176.0,-45.0 176.0,-31.0" stroke="#000" stroke-width="1" /><polyline fill="none" opacity="100" points="180.0,-45.0 180.0,-31.0" stroke="#000" stroke-width="1" /><polyline fill="none" opacity="100" points="184.0,-45.0 184.0,-31.0" stroke="#000" stroke-width="1" /><polyline fill="none" opacity="100" points="188.0,-45.0 188.0,-31.0" stroke="#000" stroke-width="1" /><polyline fill="none" opacity="100" points="192.0,-45.0 192.0,-31.0" stroke="#000" stroke-width="1" /><polyline fill="none" opacity="100" points="196.0,-45.0 196.0,-31.0" stroke="#000" stroke-width="1" /><polyline fill="none" opacity="100" points="158.0,-67.0 158.0,-53.0" stroke="#000" stroke-width="1" /><polyline fill="none" opacity="100" points="162.0,-67.0 162.0,-53.0" stroke="#000" stroke-width="1" /><polyline fill="none" opacity="100" points="166.0,-67.0 166.0,-53.0" stroke="#000" stroke-width="1" /><polyline fill="none" opacity="100" points="170.0,-67.0 170.0,-53.0" stroke="#000" stroke-width="1" /><polyline fill="none" opacity="100" points="174.0,-67.0 174.0,-53.0" stroke="#000" stroke-width="1" /><polyline fill="none" opacity="100" points="178.0,-67.0 178.0,-53.0" stroke="#000" stroke-width="1" /><polyline fill="none" opacity="100" points="182.0,-67.0 182.0,-53.0" stroke="#000" stroke-width="1" /><polyline fill="none" opacity="100" points="186.0,-67.0 186.0,-53.0" stroke="#000" stroke-width="1" /><polyline fill="none" opacity="100" points="190.0,-67.0 190.0,-53.0" stroke="#000" stroke-width="1" /><polyline fill="none" opacity="100" points="194.0,-67.0 194.0,-53.0" stroke="#000" stroke-width="1" /><polyline fill="none" opacity="100" points="330.0,251.0 330.0,269.0" stroke="#000" stroke-width="1" /><polyline fill="none" opacity="100" points="326.0,251.0 326.0,269.0" stroke="#000" stroke-width="1" /><polyline fill="none" opacity="100" points="322.0,251.0 322.0,269.0" stroke="#000" stroke-width="1" /><polyline fill="none" opacity="100" points="318.0,251.0 318.0,269.0" stroke="#000" stroke-width="1" /><polyline fill="none" opacity="100" points="314.0,251.0 314.0,269.0" stroke="#000" stroke-width="1" /><polyline fill="none" opacity="100" points="310.0,251.0 310.0,269.0" stroke="#000" stroke-width="1" /><polyline fill="none" opacity="100" points="306.0,251.0 306.0,269.0" stroke="#000" stroke-width="1" /><polyline fill="none" opacity="100" points="302.0,251.0 302.0,269.0" stroke="#000" stroke-width="1" /><polyline fill="none" opacity="100" points="298.0,251.0 298.0,269.0" stroke="#000" stroke-width="1" /><polyline fill="none" opacity="100" points="294.0,251.0 294.0,269.0" stroke="#000" stroke-width="1" /><polygon fill="#FFF" opacity="0.7" points="334.0,250.0 312.0,250.0 312.0,270.0 334.0,270.0" stroke="#FFF" stroke-width="1" /><polygon fill="#FFF" opacity="0.7" points="278.0,234.0 284.0,234.0 283.0,284.0 279.0,284.0" stroke="#FFF" stroke-width="1" /><polyline fill="none" opacity="1.0" points="292.0,251.0 292.0,248.0 312.0,248.0 312.0,272.0 292.0,272.0 292.0,269.0" stroke="#000" stroke-width="1" /><polyline fill="none" opacity="1.0" points="353.0,251.0 339.0,234.0 262.0,234.0 262.0,186.0 352.0,186.0 352.0,150.0 262.0,150.0" stroke="#000" stroke-width="1" /><polyline fill="none" opacity="1.0" points="255.0,442.0 255.0,370.0 263.0,370.0 263.0,284.0 339.0,284.0 353.0,268.0" stroke="#000" stroke-width="1" /><polygon fill="#D0D0D0" opacity="1.0" points="227.0,271.0 245.0,271.0 245.0,289.0 242.0,289.0 242.0,274.0 227.0,274.0" stroke="#000" stroke-width="1" /><polygon fill="#D0D0D0" opacity="1.0" points="281.0,249.0 263.0,249.0 263.0,270.0 281.0,270.0" stroke="#000" stroke-width="1" /><polyline fill="none" opacity="1.0" points="744.0,219.0 389.0,219.0" stroke="#DE7272" stroke-width="20" /><polyline fill="none" opacity="1.0" points="744.0,301.0 389.0,301.0" stroke="#DE7272" stroke-width="20" /><polyline fill="none" opacity="1.0" points="744.0,219.0 389.0,219.0" stroke="#D56060" stroke-dasharray="5,5" stroke-width="13" /><polyline fill="none" opacity="1.0" points="744.0,301.0 389.0,301.0" stroke="#D56060" stroke-dasharray="5,5" stroke-width="13" /><text fill="#DE7272" font-family="Arial" font-size="25" font-weight="bold" opacity="1.0" transform="rotate(-0.0 483.0,240.0) translate(0 25)" x="483.0" y="240.0">Угрешская (МЦК)</text><text fill="#DE7272" font-family="Arial" font-size="20" font-weight="normal" opacity="1.0" transform="rotate(-0.0 380.0,225.0) translate(0 20)" x="380.0" y="225.0">&lt;&lt; Дубровка</text><text fill="#DE7272" font-family="Arial" font-size="20" font-weight="normal" opacity="1.0" transform="rotate(-0.0 586.0,269.0) translate(0 20)" x="586.0" y="269.0">Новохохловская &gt;&gt;</text><polyline fill="none" opacity="1.0" points="375.0,265.0 375.0,254.0" stroke="#7F7F7F" stroke-width="1" /><polyline fill="none" opacity="1.0" points="371.0,265.0 371.0,254.0" stroke="#7F7F7F" stroke-width="1" /><polyline fill="none" opacity="1.0" points="367.0,265.0 367.0,254.0" stroke="#7F7F7F" stroke-width="1" /><polyline fill="none" opacity="1.0" points="363.0,265.0 363.0,254.0" stroke="#7F7F7F" stroke-width="1" /><polyline fill="none" opacity="1.0" points="359.0,265.0 359.0,254.0" stroke="#7F7F7F" stroke-width="1" /><polyline fill="none" opacity="1.0" points="355.0,265.0 355.0,254.0" stroke="#7F7F7F" stroke-width="1" /><polyline fill="none" opacity="1.0" points="351.0,265.0 351.0,254.0" stroke="#7F7F7F" stroke-width="1" /><polyline fill="none" opacity="1.0" points="347.0,265.0 347.0,254.0" stroke="#7F7F7F" stroke-width="1" /><polygon fill="#9B5509" opacity="1.0" points="379.0,254.0 342.0,254.0 342.0,251.0 379.0,251.0" stroke="#000" stroke-width="1" /><polygon fill="#9B5509" opacity="1.0" points="379.0,258.0 379.0,261.0 342.0,261.0 342.0,258.0" stroke="#000" stroke-width="1" /><polygon fill="#9B5509" opacity="1.0" points="379.0,265.0 342.0,265.0 342.0,268.0 379.0,268.0" stroke="#000" stroke-width="1" /><polygon fill="#D0EFFF" opacity="1.0" points="266.0,267.0 266.0,252.0 281.0,252.0 281.0,267.0" stroke="#000" stroke-width="1" /><text fill="#000" font-family="Arial" font-size="6" font-weight="normal" opacity="1.0" transform="rotate(-0.0 267.0,256.0) translate(0 6)" x="267.0" y="256.0">лифт</text><polygon fill="#D0EFFF" opacity="1.0" points="227.0,289.0 227.0,274.0 242.0,274.0 242.0,289.0" stroke="#000" stroke-width="1" /><text fill="#000" font-family="Arial" font-size="6" font-weight="normal" opacity="1.0" transform="rotate(-0.0 228.0,278.0) translate(0 6)" x="228.0" y="278.0">лифт</text><polygon fill="#D0EFFF" opacity="1.0" points="262.0,165.0 262.0,150.0 277.0,150.0 277.0,165.0" stroke="#000" stroke-width="1" /><text fill="#000" font-family="Arial" font-size="6" font-weight="normal" opacity="1.0" transform="rotate(-0.0 263.0,154.0) translate(0 6)" x="263.0" y="154.0">лифт</text><polygon fill="#D0EFFF" opacity="1.0" points="212.0,-31.0 212.0,-46.0 227.0,-46.0 227.0,-31.0" stroke="#000" stroke-width="1" /><text fill="#000" font-family="Arial" font-size="6" font-weight="normal" opacity="1.0" transform="rotate(-0.0 213.0,-42.0) translate(0 6)" x="213.0" y="-42.0">лифт</text><polyline fill="none" opacity="1.0" points="271.0,281.0 275.0,281.0" stroke="#090" stroke-width="1" /><polyline fill="none" opacity="1.0" points="271.0,277.0 275.0,277.0" stroke="#090" stroke-width="1" /><polyline fill="none" opacity="1.0" points="271.0,273.0 275.0,273.0" stroke="#090" stroke-width="1" /><polyline fill="none" opacity="1.0" points="269.0,238.0 273.0,238.0" stroke="#F00" stroke-width="1" /><polyline fill="none" opacity="1.0" points="269.0,242.0 273.0,242.0" stroke="#F00" stroke-width="1" /><polyline fill="none" opacity="1.0" points="269.0,246.0 273.0,246.0" stroke="#F00" stroke-width="1" /><polyline fill="none" opacity="1.0" points="290.0,242.0 278.0,242.0" stroke="#F00" stroke-width="1" /><polygon fill="#F00" opacity="1.0" points="281.4773,241.0683 278.0,242.0 281.4773,242.9317" stroke="#F00" stroke-width="1" /><polyline fill="none" opacity="1.0" points="277.0,278.0 289.0,278.0" stroke="#090" stroke-width="1" /><polygon fill="#090" opacity="1.0" points="285.5227,278.9317 289.0,278.0 285.5227,277.0683" stroke="#090" stroke-width="1" /><polygon fill="#94949C" opacity="1.0" points="461.0,260.0 461.0,256.0 459.0,256.0 459.0,260.0" stroke="#94949C" stroke-width="1" /><polygon fill="#F00" opacity="1.0" points="461.0,264.0 461.0,260.0 459.0,260.0 459.0,264.0" stroke="#F00" stroke-width="1" /><text fill="#00AFAF" font-family="Arial" font-size="15" font-weight="normal" opacity="1.0" transform="rotate(-0.0 309.0,62.0) translate(0 15)" x="309.0" y="62.0">Третье транспортное кольцо</text><text fill="#00AFAF" font-family="Arial" font-size="15" font-weight="normal" opacity="1.0" transform="rotate(-0.0 149.0,505.0) translate(0 15)" x="149.0" y="505.0">Угрешская улица</text><text fill="#00AFAF" font-family="Arial" font-size="15" font-weight="normal" opacity="1.0" transform="rotate(90.0 185.0,-335.0) translate(0 15)" x="185.0" y="-335.0">&lt;&lt; к метро "Волгоградский проспект"</text><g transform="rotate(25.0,360.0,300.0)"><text fill="#FFD900" font-family="Arial" font-size="25" font-weight="normal" opacity="1.0" x="334.25" y="469.5">1</text><text fill="#FFD900" font-family="Arial" font-size="25" font-weight="normal" opacity="1.0" x="210.25" y="181.5">2</text><text fill="#FFD900" font-family="Arial" font-size="25" font-weight="normal" opacity="1.0" x="45.25" y="22.5">3</text></g></g></g></svg>