<?xml version="1.0" encoding="utf-8" ?>
<svg baseProfile="tiny" height="660px" version="1.2" width="1200px" xmlns="http://www.w3.org/2000/svg" xmlns:ev="http://www.w3.org/2001/xml-events" xmlns:xlink="http://www.w3.org/1999/xlink"><defs /><g><g transform="rotate(15.0,600.0,330.0)"><polygon fill="#DE64A1" opacity="100" points="897.0,391.0 447.0,391.0 447.0,361.0 897.0,361.0" stroke="#000" stroke-width="1" /><polygon fill="#DE64A1" opacity="100" points="447.0,501.0 447.0,471.0 897.0,471.0 897.0,501.0" stroke="#000" stroke-width="1" /><text fill="#DE64A1" font-family="Arial" font-size="20" font-weight="normal" opacity="100" transform="rotate(-0.0 447.0,337.0) translate(0 20)" x="447.0" y="337.0">&lt;&lt; Косино</text><text fill="#DE64A1" font-family="Arial" font-size="20" font-weight="normal" opacity="100" transform="rotate(-0.0 746.0,501.0) translate(0 20)" x="746.0" y="501.0">Лухмановская &gt;&gt;</text><text fill="#DE64A1" font-family="Arial" font-size="25" font-weight="bold" opacity="100" transform="rotate(-0.0 582.0,403.0) translate(0 25)" x="582.0" y="403.0">Улица Дмитриевского</text><polygon fill="#34349C" opacity="100" points="691.0,434.0 691.0,438.0 692.0,438.0 692.0,434.0" stroke="#34349C" stroke-width="1" /><polygon fill="#F00" opacity="100" points="691.0,430.0 691.0,434.0 692.0,434.0 692.0,430.0" stroke="#F00" stroke-width="1" /><polyline fill="none" opacity="100" points="897.0,471.0 897.0,460.0 945.0,460.0 945.0,495.0 1076.0,495.0 1076.0,301.0 903.0,301.0" stroke="#000" stroke-width="1" /><polyline fill="none" opacity="100" points="897.0,391.0 897.0,404.0 945.0,404.0 945.0,368.0 1055.0,368.0 1055.0,322.0 903.0,322.0" stroke="#000" stroke-width="1" /><polyline fill="none" opacity="100" points="897.0,416.0 944.0,416.0" stroke="#000" stroke-width="1" /><polyline fill="none" opacity="100" points="905.0,322.0 905.0,301.0" stroke="#000" stroke-width="1" /><polyline fill="none" opacity="100" points="909.0,322.0 909.0,301.0" stroke="#000" stroke-width="1" /><polyline fill="none" opacity="100" points="913.0,322.0 913.0,301.0" stroke="#000" stroke-width="1" /><polyline fill="none" opacity="100" points="917.0,322.0 917.0,301.0" stroke="#000" stroke-width="1" /><polyline fill="none" opacity="100" points="921.0,322.0 921.0,301.0" stroke="#000" stroke-width="1" /><polyline fill="none" opacity="100" points="925.0,322.0 925.0,301.0" stroke="#000" stroke-width="1" /><polyline fill="none" opacity="100" points="929.0,322.0 929.0,301.0" stroke="#000" stroke-width="1" /><polyline fill="none" opacity="100" points="933.0,322.0 933.0,301.0" stroke="#000" stroke-width="1" /><polyline fill="none" opacity="100" points="937.0,322.0 937.0,301.0" stroke="#000" stroke-width="1" /><polyline fill="none" opacity="100" points="941.0,322.0 941.0,301.0" stroke="#000" stroke-width="1" /><polyline fill="none" opacity="100" points="899.0,416.0 899.0,460.0" stroke="#000" stroke-width="1" /><polyline fill="none" opacity="100" points="903.0,416.0 903.0,460.0" stroke="#000" stroke-width="1" /><polyline fill="none" opacity="100" points="907.0,416.0 907.0,460.0" stroke="#000" stroke-width="1" /><polyline fill="none" opacity="100" points="911.0,416.0 911.0,460.0" stroke="#000" stroke-width="1" /><polyline fill="none" opacity="100" points="915.0,416.0 915.0,460.0" stroke="#000" stroke-width="1" /><polyline fill="none" opacity="100" points="919.0,416.0 919.0,460.0" stroke="#000" stroke-width="1" /><polyline fill="none" opacity="100" points="923.0,416.0 923.0,460.0" stroke="#000" stroke-width="1" /><polyline fill="none" opacity="100" points="927.0,416.0 927.0,460.0" stroke="#000" stroke-width="1" /><polyline fill="none" opacity="100" points="931.0,416.0 931.0,460.0" stroke="#000" stroke-width="1" /><polyline fill="none" opacity="100" points="935.0,416.0 935.0,460.0" stroke="#000" stroke-width="1" /><polyline fill="none" opacity="100" points="939.0,416.0 939.0,460.0" stroke="#000" stroke-width="1" /><polyline fill="none" opacity="100" points="943.0,416.0 943.0,460.0" stroke="#000" stroke-width="1" /><polygon fill="#D0D0D0" opacity="100" points="1055.0,391.0 1027.0,391.0 1027.0,472.0 1055.0,472.0" stroke="#000" stroke-width="1" /><polygon fill="#FFD0D0" opacity="0.7" points="899.0,298.0 899.0,498.0 1079.0,498.0 1079.0,298.0" stroke="#FFD0D0" stroke-width="1" /><text fill="#FF4040" font-family="Arial" font-size="15" font-weight="normal" opacity="1.0" transform="rotate(-0.0 958.0,399.0) translate(0 15)" x="958.0" y="399.0">Строится</text><polyline fill="none" opacity="1.0" points="899.0,298.0 899.0,498.0 1079.0,498.0 1079.0,298.0 899.0,298.0" stroke="#FF4040" stroke-dasharray="5,5" stroke-width="1" /><polyline fill="none" opacity="1.0" points="500.0,425.0 500.0,423.0 349.0,423.0" stroke="#000" stroke-width="1" /><polyline fill="none" opacity="1.0" points="314.0,386.0 249.0,386.0 234.0,401.0 234.0,480.0 347.0,480.0 360.0,460.0 354.0,439.0 500.0,439.0 500.0,437.0" stroke="#000" stroke-width="1" /><polyline fill="none" opacity="1.0" points="277.0,402.0 277.0,399.0 318.0,399.0 328.0,438.0 312.0,462.0 262.0,462.0 262.0,460.0 277.0,460.0" stroke="#000" stroke-width="1" /><polyline fill="none" opacity="1.0" points="447.0,391.0 447.0,402.0" stroke="#000" stroke-width="1" /><polyline fill="none" opacity="1.0" points="447.0,471.0 447.0,460.0" stroke="#000" stroke-width="1" /><polyline fill="none" opacity="1.0" points="280.0,406.0 280.0,456.0" stroke="#7F7F7F" stroke-width="1" /><polyline fill="none" opacity="1.0" points="284.0,406.0 284.0,456.0" stroke="#7F7F7F" stroke-width="1" /><polyline fill="none" opacity="1.0" points="288.0,406.0 288.0,456.0" stroke="#7F7F7F" stroke-width="1" /><polyline fill="none" opacity="1.0" points="292.0,406.0 292.0,456.0" stroke="#7F7F7F" stroke-width="1" /><polyline fill="none" opacity="1.0" points="296.0,406.0 296.0,456.0" stroke="#7F7F7F" stroke-width="1" /><polyline fill="none" opacity="1.0" points="300.0,406.0 300.0,456.0" stroke="#7F7F7F" stroke-width="1" /><polyline fill="none" opacity="1.0" points="304.0,406.0 304.0,456.0" stroke="#7F7F7F" stroke-width="1" /><polyline fill="none" opacity="1.0" points="308.0,406.0 308.0,456.0" stroke="#7F7F7F" stroke-width="1" /><polyline fill="none" opacity="1.0" points="312.0,406.0 312.0,456.0" stroke="#7F7F7F" stroke-width="1" /><polyline fill="none" opacity="1.0" points="316.0,406.0 316.0,456.0" stroke="#7F7F7F" stroke-width="1" /><polyline fill="none" opacity="1.0" points="320.0,406.0 320.0,456.0" stroke="#7F7F7F" stroke-width="1" /><polyline fill="none" opacity="1.0" points="324.0,406.0 324.0,456.0" stroke="#7F7F7F" stroke-width="1" /><polyline fill="none" opacity="1.0" points="328.0,406.0 328.0,456.0" stroke="#7F7F7F" stroke-width="1" /><polyline fill="none" opacity="1.0" points="332.0,406.0 332.0,456.0" stroke="#7F7F7F" stroke-width="1" /><polyline fill="none" opacity="1.0" points="336.0,406.0 336.0,456.0" stroke="#7F7F7F" stroke-width="1" /><polyline fill="none" opacity="1.0" points="340.0,406.0 340.0,456.0" stroke="#7F7F7F" stroke-width="1" /><polyline fill="none" opacity="1.0" points="344.0,406.0 344.0,456.0" stroke="#7F7F7F" stroke-width="1" /><polyline fill="none" opacity="1.0" points="348.0,406.0 348.0,456.0" stroke="#7F7F7F" stroke-width="1" /><polyline fill="none" opacity="1.0" points="352.0,406.0 352.0,456.0" stroke="#7F7F7F" stroke-width="1" /><polyline fill="none" opacity="1.0" points="356.0,406.0 356.0,456.0" stroke="#7F7F7F" stroke-width="1" /><polyline fill="none" opacity="1.0" points="360.0,406.0 360.0,456.0" stroke="#7F7F7F" stroke-width="1" /><polyline fill="none" opacity="1.0" points="364.0,406.0 364.0,456.0" stroke="#7F7F7F" stroke-width="1" /><polyline fill="none" opacity="1.0" points="368.0,406.0 368.0,456.0" stroke="#7F7F7F" stroke-width="1" /><polyline fill="none" opacity="1.0" points="372.0,406.0 372.0,456.0" stroke="#7F7F7F" stroke-width="1" /><polyline fill="none" opacity="1.0" points="376.0,406.0 376.0,456.0" stroke="#7F7F7F" stroke-width="1" /><polyline fill="none" opacity="1.0" points="380.0,406.0 380.0,456.0" stroke="#7F7F7F" stroke-width="1" /><polyline fill="none" opacity="1.0" points="384.0,406.0 384.0,456.0" stroke="#7F7F7F" stroke-width="1" /><polyline fill="none" opacity="1.0" points="388.0,406.0 388.0,456.0" stroke="#7F7F7F" stroke-width="1" /><polyline fill="none" opacity="1.0" points="392.0,406.0 392.0,456.0" stroke="#7F7F7F" stroke-width="1" /><polyline fill="none" opacity="1.0" points="396.0,406.0 396.0,456.0" stroke="#7F7F7F" stroke-width="1" /><polyline fill="none" opacity="1.0" points="400.0,406.0 400.0,456.0" stroke="#7F7F7F" stroke-width="1" /><polyline fill="none" opacity="1.0" points="404.0,406.0 404.0,456.0" stroke="#7F7F7F" stroke-width="1" /><polyline fill="none" opacity="1.0" points="408.0,406.0 408.0,456.0" stroke="#7F7F7F" stroke-width="1" /><polyline fill="none" opacity="1.0" points="412.0,406.0 412.0,456.0" stroke="#7F7F7F" stroke-width="1" /><polyline fill="none" opacity="1.0" points="416.0,406.0 416.0,456.0" stroke="#7F7F7F" stroke-width="1" /><polyline fill="none" opacity="1.0" points="420.0,406.0 420.0,456.0" stroke="#7F7F7F" stroke-width="1" /><polyline fill="none" opacity="1.0" points="424.0,406.0 424.0,456.0" stroke="#7F7F7F" stroke-width="1" /><polyline fill="none" opacity="1.0" points="428.0,406.0 428.0,456.0" stroke="#7F7F7F" stroke-width="1" /><polyline fill="none" opacity="1.0" points="432.0,406.0 432.0,456.0" stroke="#7F7F7F" stroke-width="1" /><polyline fill="none" opacity="1.0" points="436.0,406.0 436.0,456.0" stroke="#7F7F7F" stroke-width="1" /><polyline fill="none" opacity="1.0" points="440.0,406.0 440.0,456.0" stroke="#7F7F7F" stroke-width="1" /><polygon fill="#9B5509" opacity="1.0" points="447.0,402.0 277.0,402.0 277.0,406.0 447.0,406.0" stroke="#000" stroke-width="1" /><polygon fill="#9B5509" opacity="1.0" points="447.0,414.0 277.0,414.0 277.0,420.0 447.0,420.0" stroke="#000" stroke-width="1" /><polygon fill="#9B5509" opacity="1.0" points="447.0,428.0 277.0,428.0 277.0,434.0 447.0,434.0" stroke="#000" stroke-width="1" /><polygon fill="#9B5509" opacity="1.0" points="447.0,442.0 277.0,442.0 277.0,448.0 447.0,448.0" stroke="#000" stroke-width="1" /><polygon fill="#9B5509" opacity="1.0" points="447.0,456.0 277.0,456.0 277.0,460.0 447.0,460.0" stroke="#000" stroke-width="1" /><polygon fill="#FFF" opacity="0.8" points="447.0,423.0 349.0,423.0 343.0,400.0 318.0,399.0 328.0,438.0 312.0,462.0 360.0,460.0 354.0,439.0 448.0,439.0" stroke="#FFF" stroke-width="1" /><polyline fill="none" opacity="1.0" points="318.0,399.0 328.0,438.0 312.0,462.0" stroke="#FFF" stroke-width="1" /><polyline fill="none" opacity="1.0" points="360.0,460.0 354.0,439.0 448.0,439.0" stroke="#FFF" stroke-width="1" /><polyline fill="none" opacity="1.0" points="349.0,423.0 447.0,423.0" stroke="#FFF" stroke-width="1" /><polygon fill="#FFF" opacity="1.0" points="242.0,440.0 239.0,444.0 235.0,441.0 238.0,437.0" stroke="#000" stroke-width="1" /><polyline fill="none" opacity="1.0" points="277.0,431.0 269.0,431.0 259.0,422.0 259.0,408.0" stroke="#777" stroke-width="0.5" /><polyline fill="none" opacity="1.0" points="258.0,459.0 261.0,455.0" stroke="#090" stroke-width="1" /><polyline fill="none" opacity="1.0" points="254.7573,456.658 257.7573,452.658" stroke="#090" stroke-width="1" /><polyline fill="none" opacity="1.0" points="251.5146,454.3161 254.5146,450.3161" stroke="#090" stroke-width="1" /><polyline fill="none" opacity="1.0" points="248.2718,451.9741 251.2718,447.9741" stroke="#090" stroke-width="1" /><polyline fill="none" opacity="1.0" points="245.0291,449.6322 248.0291,445.6322" stroke="#090" stroke-width="1" /><polyline fill="none" opacity="1.0" points="241.7864,447.2902 244.7864,443.2902" stroke="#090" stroke-width="1" /><polyline fill="none" opacity="1.0" points="294.0,396.0 299.0,396.0" stroke="#F00" stroke-width="1" /><polyline fill="none" opacity="1.0" points="294.0,392.0 299.0,392.0" stroke="#F00" stroke-width="1" /><polyline fill="none" opacity="1.0" points="294.0,388.0 299.0,388.0" stroke="#F00" stroke-width="1" /><polyline fill="none" opacity="1.0" points="267.0,399.0 267.0,392.0 284.0,392.0" stroke="#F00" stroke-width="1" /><polygon fill="#F00" opacity="1.0" points="279.0738,393.32 284.0,392.0 279.0738,390.68" stroke="#F00" stroke-width="1" /><polyline fill="none" opacity="1.0" points="296.0,471.0 280.0,471.0" stroke="#090" stroke-width="1" /><polygon fill="#090" opacity="1.0" points="284.6364,469.7577 280.0,471.0 284.6364,472.2423" stroke="#090" stroke-width="1" /><polygon fill="#D0EFFF" opacity="1.0" points="500.0,425.0 488.0,425.0 488.0,437.0 500.0,437.0" stroke="#000" stroke-width="1" /><text fill="#000" font-family="Arial" font-size="4" font-weight="normal" opacity="1.0" transform="rotate(-0.0 490.0,428.0) translate(0 4)" x="490.0" y="428.0">лифт</text><text fill="#00AFAF" font-family="Arial" font-size="15" font-weight="normal" opacity="1.0" transform="rotate(-0.0 1101.0,421.0) translate(0 15)" x="1101.0" y="421.0">улица Дмитриевского</text><text fill="#00AFAF" font-family="Arial" font-size="15" font-weight="normal" opacity="1.0" transform="rotate(-0.0 539.0,633.0) translate(0 15)" x="539.0" y="633.0">Косинское шоссе</text><g transform="rotate(-15.0,600.0,330.0)"><polyline fill="none" opacity="1.0" points="430.0,168.0 430.0,208.0 161.0,208.0 161.0,168.0" stroke="#000" stroke-width="1" /><polyline fill="none" opacity="1.0" points="143.0,168.0 143.0,208.0 66.0,208.0 66.0,168.0" stroke="#000" stroke-width="1" /><polyline fill="none" opacity="1.0" points="48.0,168.0 48.0,226.0 310.0,226.0 310.0,310.0" stroke="#000" stroke-width="1" /><polyline fill="none" opacity="1.0" points="334.0,355.0 334.0,226.0 448.0,226.0 448.0,168.0" stroke="#000" stroke-width="1" /><polyline fill="none" opacity="1.0" points="62.0,168.0 62.0,208.0" stroke="#000" stroke-width="1" /><polyline fill="none" opacity="1.0" points="157.0,168.0 157.0,208.0" stroke="#000" stroke-width="1" /><polyline fill="none" opacity="1.0" points="444.0,168.0 444.0,208.0" stroke="#000" stroke-width="1" /><polyline fill="none" opacity="1.0" points="252.0,221.0 285.0,221.0" stroke="#000" stroke-width="1" /><polyline fill="none" opacity="1.0" points="347.0,221.0 381.0,221.0" stroke="#000" stroke-width="1" /><polyline fill="none" opacity="1.0" points="48.0,170.0 62.0,170.0" stroke="#000" stroke-width="1" /><polyline fill="none" opacity="1.0" points="48.0,174.0 62.0,174.0" stroke="#000" stroke-width="1" /><polyline fill="none" opacity="1.0" points="48.0,178.0 62.0,178.0" stroke="#000" stroke-width="1" /><polyline fill="none" opacity="1.0" points="48.0,182.0 62.0,182.0" stroke="#000" stroke-width="1" /><polyline fill="none" opacity="1.0" points="48.0,186.0 62.0,186.0" stroke="#000" stroke-width="1" /><polyline fill="none" opacity="1.0" points="48.0,190.0 62.0,190.0" stroke="#000" stroke-width="1" /><polyline fill="none" opacity="1.0" points="48.0,194.0 62.0,194.0" stroke="#000" stroke-width="1" /><polyline fill="none" opacity="1.0" points="48.0,198.0 62.0,198.0" stroke="#000" stroke-width="1" /><polyline fill="none" opacity="1.0" points="48.0,202.0 62.0,202.0" stroke="#000" stroke-width="1" /><polyline fill="none" opacity="1.0" points="48.0,206.0 62.0,206.0" stroke="#000" stroke-width="1" /><polyline fill="none" opacity="1.0" points="143.0,170.0 157.0,170.0" stroke="#000" stroke-width="1" /><polyline fill="none" opacity="1.0" points="143.0,174.0 157.0,174.0" stroke="#000" stroke-width="1" /><polyline fill="none" opacity="1.0" points="143.0,178.0 157.0,178.0" stroke="#000" stroke-width="1" /><polyline fill="none" opacity="1.0" points="143.0,182.0 157.0,182.0" stroke="#000" stroke-width="1" /><polyline fill="none" opacity="1.0" points="143.0,186.0 157.0,186.0" stroke="#000" stroke-width="1" /><polyline fill="none" opacity="1.0" points="143.0,190.0 157.0,190.0" stroke="#000" stroke-width="1" /><polyline fill="none" opacity="1.0" points="143.0,194.0 157.0,194.0" stroke="#000" stroke-width="1" /><polyline fill="none" opacity="1.0" points="143.0,198.0 157.0,198.0" stroke="#000" stroke-width="1" /><polyline fill="none" opacity="1.0" points="143.0,202.0 157.0,202.0" stroke="#000" stroke-width="1" /><polyline fill="none" opacity="1.0" points="143.0,206.0 157.0,206.0" stroke="#000" stroke-width="1" /><polyline fill="none" opacity="1.0" points="444.0,170.0 430.0,170.0" stroke="#000" stroke-width="1" /><polyline fill="none" opacity="1.0" points="444.0,174.0 430.0,174.0" stroke="#000" stroke-width="1" /><polyline fill="none" opacity="1.0" points="444.0,178.0 430.0,178.0" stroke="#000" stroke-width="1" /><polyline fill="none" opacity="1.0" points="444.0,182.0 430.0,182.0" stroke="#000" stroke-width="1" /><polyline fill="none" opacity="1.0" points="444.0,186.0 430.0,186.0" stroke="#000" stroke-width="1" /><polyline fill="none" opacity="1.0" points="444.0,190.0 430.0,190.0" stroke="#000" stroke-width="1" /><polyline fill="none" opacity="1.0" points="444.0,194.0 430.0,194.0" stroke="#000" stroke-width="1" /><polyline fill="none" opacity="1.0" points="444.0,198.0 430.0,198.0" stroke="#000" stroke-width="1" /><polyline fill="none" opacity="1.0" points="444.0,202.0 430.0,202.0" stroke="#000" stroke-width="1" /><polyline fill="none" opacity="1.0" points="444.0,206.0 430.0,206.0" stroke="#000" stroke-width="1" /><polyline fill="none" opacity="1.0" points="256.0,208.0 256.0,221.0" stroke="#000" stroke-width="1" /><polyline fill="none" opacity="1.0" points="260.0,208.0 260.0,221.0" stroke="#000" stroke-width="1" /><polyline fill="none" opacity="1.0" points="264.0,208.0 264.0,221.0" stroke="#000" stroke-width="1" /><polyline fill="none" opacity="1.0" points="268.0,208.0 268.0,221.0" stroke="#000" stroke-width="1" /><polyline fill="none" opacity="1.0" points="376.0,208.0 376.0,221.0" stroke="#000" stroke-width="1" /><polyline fill="none" opacity="1.0" points="372.0,208.0 372.0,221.0" stroke="#000" stroke-width="1" /><polyline fill="none" opacity="1.0" points="368.0,208.0 368.0,221.0" stroke="#000" stroke-width="1" /><polyline fill="none" opacity="1.0" points="364.0,208.0 364.0,221.0" stroke="#000" stroke-width="1" /><polyline fill="none" opacity="1.0" points="322.0,226.0 322.0,326.0 310.0,323.0" stroke="#777" stroke-width="0.5" /><polygon fill="#D0EFFF" opacity="1.0" points="80.0,226.0 68.0,226.0 68.0,238.0 80.0,238.0" stroke="#000" stroke-width="1" /><polygon fill="#D0EFFF" opacity="1.0" points="427.0,196.0 415.0,196.0 415.0,208.0 427.0,208.0" stroke="#000" stroke-width="1" /><text fill="#000" font-family="Arial" font-size="4" font-weight="normal" opacity="1.0" transform="rotate(-0.0 70.0,229.0) translate(0 4)" x="70.0" y="229.0">лифт</text><text fill="#000" font-family="Arial" font-size="4" font-weight="normal" opacity="1.0" transform="rotate(-0.0 417.0,199.0) translate(0 4)" x="417.0" y="199.0">лифт</text><polygon fill="#FFF" opacity="1.0" points="346.0,321.0 334.0,321.0 334.0,350.0 346.0,350.0" stroke="#000" stroke-width="1" /><text fill="#FFF" font-family="Arial" font-size="10" font-weight="normal" opacity="1.0" transform="rotate(90.0 346.0,324.0) translate(0 10)" x="346.0" y="324.0">кассы</text><text fill="#FFF" font-family="Arial" font-size="25" font-weight="normal" opacity="1.0" x="7.25" y="194.5">1</text><text fill="#FFF" font-family="Arial" font-size="25" font-weight="normal" opacity="1.0" x="174.25" y="191.5">2</text><text fill="#FFF" font-family="Arial" font-size="25" font-weight="normal" opacity="1.0" x="393.25" y="182.5">3</text><text fill="#00AFAF" font-family="Arial" font-size="15" font-weight="normal" opacity="1.0" transform="rotate(-90.0 99.0,174.0) translate(0 15)" x="99.0" y="174.0">Салтыковская улица</text><text fill="#00AFAF" font-family="Arial" font-size="15" font-weight="normal" opacity="1.0" transform="rotate(-90.0 467.0,173.0) translate(0 15)" x="467.0" y="173.0">улица Наташи Каучевской</text></g></g></g></svg>