<?xml version="1.0" encoding="utf-8" ?>
<svg baseProfile="tiny" height="530px" version="1.2" width="770px" xmlns="http://www.w3.org/2000/svg" xmlns:ev="http://www.w3.org/2001/xml-events" xmlns:xlink="http://www.w3.org/1999/xlink"><defs /><g><g transform="rotate(-30.0,385.0,265.0)"><text fill="#2D69FC" font-family="Arial" font-size="25" font-weight="bold" opacity="100" transform="rotate(-0.0 133.0,246.0) translate(0 25)" x="133.0" y="246.0">Улица Горчакова</text><text fill="#2D69FC" font-family="Arial" font-size="20" font-weight="normal" opacity="100" transform="rotate(-0.0 190.0,332.0) translate(0 20)" x="190.0" y="332.0">Бульвар адмирала Ушакова &gt;&gt;</text><text fill="#2D69FC" font-family="Arial" font-size="20" font-weight="normal" opacity="100" transform="rotate(-0.0 5.0,167.0) translate(0 20)" x="5.0" y="167.0">&lt;&lt; Бунинская аллея</text><text fill="#00AFAF" font-family="Arial" font-size="15" font-weight="normal" opacity="100" transform="rotate(90.0 790.0,207.0) translate(0 15)" x="790.0" y="207.0">улица Горчакова</text><text fill="#00AFAF" font-family="Arial" font-size="15" font-weight="normal" opacity="100" transform="rotate(-0.0 471.0,422.0) translate(0 15)" x="471.0" y="422.0">Черневская улица</text><text fill="#000" font-family="Arial" font-size="10" font-weight="normal" opacity="100" transform="rotate(-0.0 647.0,338.0) translate(0 10)" x="647.0" y="338.0">кассы</text><polygon fill="#8CBCFC" opacity="100" points="4.0,222.0 4.0,192.0 454.0,192.0 454.0,222.0" stroke="#000" stroke-width="1" /><polygon fill="#8CBCFC" opacity="100" points="4.0,332.0 4.0,302.0 454.0,302.0 454.0,332.0" stroke="#000" stroke-width="1" /><polyline fill="none" opacity="100" points="454.0,222.0 454.0,229.0 527.0,229.0 527.0,207.0 553.0,207.0 553.0,187.0 593.0,187.0" stroke="#000" stroke-width="1" /><polyline fill="none" opacity="100" points="593.0,187.0 594.0938,186.8438 595.125,186.625 596.0938,186.3438 597.0,186.0 597.8438,185.5938 598.625,185.125 599.3438,184.5938 600.0,184.0 600.5938,183.3438 601.125,182.625 601.5938,181.8438 602.0,181.0 602.3438,180.0938 602.625,179.125 602.8438,178.0938 603.0,177.0" stroke="#000" stroke-width="1" /><polyline fill="none" opacity="100" points="603.0,177.0 683.0,177.0 683.0,188.0" stroke="#000" stroke-width="1" /><polyline fill="none" opacity="100" points="454.0,302.0 454.0,294.0 527.0,294.0 527.0,313.0 611.0,313.0" stroke="#000" stroke-width="1" /><polyline fill="none" opacity="100" points="611.0,313.0 613.9766,313.3984 616.7812,313.9688 619.4141,314.7109 621.875,315.625 624.1641,316.7109 626.2812,317.9688 628.2266,319.3984 630.0,321.0 631.6016,322.7734 633.0312,324.7188 634.2891,326.8359 635.375,329.125 636.2891,331.5859 637.0312,334.2188 637.6016,337.0234 638.0,340.0" stroke="#000" stroke-width="1" /><polyline fill="none" opacity="100" points="638.0,340.0 683.0,340.0 683.0,288.0" stroke="#000" stroke-width="1" /><polyline fill="none" opacity="100" points="641.0,340.0 641.0,350.0 681.0,350.0 681.0,340.0" stroke="#000" stroke-width="1" /><polygon fill="#D0D0D0" opacity="100" points="605.0,251.0 683.0,251.0 683.0,225.0 605.0,225.0 599.0,226.0 595.0,229.0 592.0,233.0 591.0,238.0 592.0,243.0 595.0,247.0 599.0,250.0" stroke="#D0D0D0" stroke-width="1" /><polyline fill="none" opacity="100" points="605.0,251.0 683.0,251.0 683.0,225.0 605.0,225.0" stroke="#000" stroke-width="1" /><polyline fill="none" opacity="100" points="605.0,225.0 604.1406,225.0156 603.3125,225.0625 602.5159,225.1409 601.75,225.25 601.0134,225.3884 600.3086,225.5586 599.6362,225.7612 599.0,226.0 598.4067,226.2817 597.8477,226.5977 597.3167,226.9419 596.8125,227.3125 596.3337,227.7065 595.875,228.1211 595.4336,228.5542 595.0,229.0 594.5586,229.4497 594.125,229.9102 593.7087,230.3853 593.3125,230.875 592.9417,231.3804 592.5977,231.9023 592.2817,232.4409 592.0,233.0 591.7612,233.5864 591.5586,234.1914 591.3884,234.8093 591.25,235.4375 591.1409,236.0715 591.0625,236.7109 591.0156,237.3545 591.0,238.0 591.0156,238.6455 591.0625,239.2891 591.1409,239.9285 591.25,240.5625 591.3884,241.1907 591.5586,241.8086 591.7612,242.4136 592.0,243.0 592.2817,243.5591 592.5977,244.0977 592.9417,244.6196 593.3125,245.125 593.7087,245.6147 594.125,246.0898 594.5586,246.5503 595.0,247.0 595.4336,247.4458 595.875,247.8789 596.3337,248.2935 596.8125,248.6875 597.3167,249.0581 597.8477,249.4023 598.4067,249.7183 599.0,250.0 599.6362,250.2388 600.3086,250.4414 601.0134,250.6116 601.75,250.75 602.5159,250.8591 603.3125,250.9375 604.1406,250.9844 605.0,251.0" stroke="#000" stroke-width="1" /><polyline fill="none" opacity="100" points="524.0,233.0 524.0,290.0" stroke="#7F7F7F" stroke-width="1" /><polyline fill="none" opacity="100" points="520.0,233.0 520.0,290.0" stroke="#7F7F7F" stroke-width="1" /><polyline fill="none" opacity="100" points="516.0,233.0 516.0,290.0" stroke="#7F7F7F" stroke-width="1" /><polyline fill="none" opacity="100" points="512.0,233.0 512.0,290.0" stroke="#7F7F7F" stroke-width="1" /><polyline fill="none" opacity="100" points="508.0,233.0 508.0,290.0" stroke="#7F7F7F" stroke-width="1" /><polyline fill="none" opacity="100" points="504.0,233.0 504.0,290.0" stroke="#7F7F7F" stroke-width="1" /><polyline fill="none" opacity="100" points="500.0,233.0 500.0,290.0" stroke="#7F7F7F" stroke-width="1" /><polyline fill="none" opacity="100" points="496.0,233.0 496.0,290.0" stroke="#7F7F7F" stroke-width="1" /><polyline fill="none" opacity="100" points="492.0,233.0 492.0,290.0" stroke="#7F7F7F" stroke-width="1" /><polyline fill="none" opacity="100" points="488.0,233.0 488.0,290.0" stroke="#7F7F7F" stroke-width="1" /><polyline fill="none" opacity="100" points="484.0,233.0 484.0,290.0" stroke="#7F7F7F" stroke-width="1" /><polyline fill="none" opacity="100" points="480.0,233.0 480.0,290.0" stroke="#7F7F7F" stroke-width="1" /><polyline fill="none" opacity="100" points="476.0,233.0 476.0,290.0" stroke="#7F7F7F" stroke-width="1" /><polyline fill="none" opacity="100" points="472.0,233.0 472.0,290.0" stroke="#7F7F7F" stroke-width="1" /><polyline fill="none" opacity="100" points="468.0,233.0 468.0,290.0" stroke="#7F7F7F" stroke-width="1" /><polyline fill="none" opacity="100" points="464.0,233.0 464.0,290.0" stroke="#7F7F7F" stroke-width="1" /><polygon fill="#9B5509" opacity="100" points="457.0,247.0 530.0,247.0 530.0,254.0 457.0,254.0" stroke="#000" stroke-width="1" /><polygon fill="#9B5509" opacity="100" points="457.0,269.0 530.0,269.0 530.0,276.0 457.0,276.0" stroke="#000" stroke-width="1" /><polygon fill="#9B5509" opacity="100" points="457.0,229.0 530.0,229.0 530.0,233.0 457.0,233.0" stroke="#000" stroke-width="1" /><polygon fill="#9B5509" opacity="100" points="457.0,290.0 530.0,290.0 530.0,294.0 457.0,294.0" stroke="#000" stroke-width="1" /><polyline fill="none" opacity="100" points="624.0,206.0 640.0,206.0" stroke="#F00" stroke-width="1" /><polygon fill="#F00" opacity="100" points="635.3636,207.2423 640.0,206.0 635.3636,204.7577" stroke="#F00" stroke-width="1" /><polyline fill="none" opacity="100" points="640.0,279.0 624.0,279.0" stroke="#090" stroke-width="1" /><polygon fill="#090" opacity="100" points="628.6364,277.7577 624.0,279.0 628.6364,280.2423" stroke="#090" stroke-width="1" /><polyline fill="none" opacity="100" points="610.0,308.0 605.0,308.0" stroke="#090" stroke-width="1" /><polyline fill="none" opacity="100" points="610.0,304.0 605.0,304.0" stroke="#090" stroke-width="1" /><polyline fill="none" opacity="100" points="610.0,300.0 605.0,300.0" stroke="#090" stroke-width="1" /><polyline fill="none" opacity="100" points="610.0,296.0 605.0,296.0" stroke="#090" stroke-width="1" /><polyline fill="none" opacity="100" points="610.0,292.0 605.0,292.0" stroke="#090" stroke-width="1" /><polyline fill="none" opacity="100" points="610.0,288.0 605.0,288.0" stroke="#090" stroke-width="1" /><polyline fill="none" opacity="100" points="610.0,284.0 605.0,284.0" stroke="#090" stroke-width="1" /><polyline fill="none" opacity="100" points="610.0,280.0 605.0,280.0" stroke="#090" stroke-width="1" /><polyline fill="none" opacity="100" points="610.0,276.0 605.0,276.0" stroke="#090" stroke-width="1" /><polyline fill="none" opacity="100" points="610.0,272.0 605.0,272.0" stroke="#090" stroke-width="1" /><polyline fill="none" opacity="100" points="610.0,268.0 605.0,268.0" stroke="#090" stroke-width="1" /><polyline fill="none" opacity="100" points="610.0,264.0 605.0,264.0" stroke="#090" stroke-width="1" /><polyline fill="none" opacity="100" points="610.0,260.0 605.0,260.0" stroke="#090" stroke-width="1" /><polyline fill="none" opacity="100" points="610.0,256.0 605.0,256.0" stroke="#090" stroke-width="1" /><polyline fill="none" opacity="100" points="560.0,190.0 556.0,194.0" stroke="#F00" stroke-width="1" /><polyline fill="none" opacity="100" points="562.8284,192.8284 558.8284,196.8284" stroke="#F00" stroke-width="1" /><polyline fill="none" opacity="100" points="565.6569,195.6569 561.6569,199.6569" stroke="#F00" stroke-width="1" /><polyline fill="none" opacity="100" points="568.4853,198.4853 564.4853,202.4853" stroke="#F00" stroke-width="1" /><polyline fill="none" opacity="100" points="571.3137,201.3137 567.3137,205.3137" stroke="#F00" stroke-width="1" /><polyline fill="none" opacity="100" points="574.1421,204.1421 570.1421,208.1421" stroke="#F00" stroke-width="1" /><polyline fill="none" opacity="100" points="576.9706,206.9706 572.9706,210.9706" stroke="#F00" stroke-width="1" /><polyline fill="none" opacity="100" points="579.799,209.799 575.799,213.799" stroke="#F00" stroke-width="1" /><polyline fill="none" opacity="100" points="582.6274,212.6274 578.6274,216.6274" stroke="#F00" stroke-width="1" /><polyline fill="none" opacity="100" points="585.4558,215.4558 581.4558,219.4558" stroke="#F00" stroke-width="1" /><polyline fill="none" opacity="100" points="588.2843,218.2843 584.2843,222.2843" stroke="#F00" stroke-width="1" /><polyline fill="none" opacity="100" points="591.1127,221.1127 587.1127,225.1127" stroke="#F00" stroke-width="1" /><polyline fill="none" opacity="100" points="593.9411,223.9411 589.9411,227.9411" stroke="#F00" stroke-width="1" /><polygon fill="#34349C" opacity="100" points="565.0,310.0 565.0,308.0 570.0,308.0 570.0,310.0" stroke="#34349C" stroke-width="1" /><polygon fill="#F00" opacity="100" points="570.0,310.0 570.0,308.0 575.0,308.0 575.0,310.0" stroke="#F00" stroke-width="1" /><polyline fill="none" opacity="100" points="4.0,222.0 4.0,233.0" stroke="#000" stroke-width="1" /><polyline fill="none" opacity="100" points="4.0,290.0 4.0,302.0" stroke="#000" stroke-width="1" /><polygon fill="#D0EFFF" opacity="100" points="-11.0,233.0 4.0,233.0 4.0,290.0 -11.0,290.0" stroke="#000" stroke-width="1" /><text fill="#000" font-family="Arial" font-size="15" font-weight="normal" opacity="100" transform="rotate(90.0 7.0,241.0) translate(0 15)" x="7.0" y="241.0">лифты</text><g transform="rotate(30.0,385.0,265.0)"><text fill="#FFD900" font-family="Arial" font-size="25" font-weight="normal" opacity="100" x="644.25" y="85.5">1</text></g></g></g></svg>