<?xml version="1.0" encoding="utf-8" ?>
<svg baseProfile="tiny" height="630px" version="1.2" width="900px" xmlns="http://www.w3.org/2000/svg" xmlns:ev="http://www.w3.org/2001/xml-events" xmlns:xlink="http://www.w3.org/1999/xlink"><defs /><g><g transform="rotate(-30.0,450.0,315.0)"><text fill="#2D69FC" font-family="Arial" font-size="25" font-weight="bold" opacity="100" transform="rotate(-0.0 331.0,271.0) translate(0 25)" x="331.0" y="271.0">Улица Скобелевская</text><text fill="#2D69FC" font-family="Arial" font-size="20" font-weight="normal" opacity="100" transform="rotate(-0.0 430.0,378.0) translate(0 20)" x="430.0" y="378.0">Улица Старокачаловская &gt;&gt;</text><text fill="#2D69FC" font-family="Arial" font-size="20" font-weight="normal" opacity="100" transform="rotate(-0.0 224.0,213.0) translate(0 20)" x="224.0" y="213.0">&lt;&lt; Бульвар адмирала Ушакова</text><text fill="#00AFAF" font-family="Arial" font-size="15" font-weight="normal" opacity="100" transform="rotate(90.0 598.0,436.0) translate(0 15)" x="598.0" y="436.0">улица Скобелевская</text><text fill="#00AFAF" font-family="Arial" font-size="15" font-weight="normal" opacity="100" transform="rotate(-0.0 368.0,145.0) translate(0 15)" x="368.0" y="145.0">Бульвар адмирала Ушакова</text><text fill="#000" font-family="Arial" font-size="15" font-weight="normal" opacity="100" transform="rotate(-0.0 -1.0,386.0) translate(0 15)" x="-1.0" y="386.0">кассы</text><text fill="#000" font-family="Arial" font-size="15" font-weight="normal" opacity="100" transform="rotate(-0.0 863.0,386.0) translate(0 15)" x="863.0" y="386.0">кассы</text><polygon fill="#8CBCFC" opacity="100" points="223.0,268.0 223.0,238.0 674.0,238.0 674.0,268.0" stroke="#000" stroke-width="1" /><polygon fill="#8CBCFC" opacity="100" points="223.0,378.0 223.0,348.0 674.0,348.0 674.0,378.0" stroke="#000" stroke-width="1" /><polyline fill="none" opacity="100" points="223.0,268.0 223.0,275.0 151.0,275.0 151.0,253.0 125.0,253.0 125.0,233.0 87.0,233.0" stroke="#000" stroke-width="1" /><polyline fill="none" opacity="100" points="87.0,233.0 85.9609,232.8438 84.9688,232.625 84.0234,232.3438 83.125,232.0 82.2734,231.5938 81.4688,231.125 80.7109,230.5938 80.0,230.0 79.3359,229.3438 78.7188,228.625 78.1484,227.8438 77.625,227.0 77.1484,226.0938 76.7188,225.125 76.3359,224.0938 76.0,223.0" stroke="#000" stroke-width="1" /><polyline fill="none" opacity="100" points="76.0,223.0 -6.0,223.0 -5.0,234.0" stroke="#000" stroke-width="1" /><polyline fill="none" opacity="100" points="223.0,348.0 223.0,340.0 151.0,340.0 151.0,359.0 67.0,359.0" stroke="#000" stroke-width="1" /><polyline fill="none" opacity="100" points="67.0,359.0 64.0234,359.3984 61.2188,359.9688 58.5859,360.7109 56.125,361.625 53.8359,362.7109 51.7188,363.9688 49.7734,365.3984 48.0,367.0 46.3984,368.7734 44.9688,370.7188 43.7109,372.8359 42.625,375.125 41.7109,377.5859 40.9688,380.2188 40.3984,383.0234 40.0,386.0" stroke="#000" stroke-width="1" /><polyline fill="none" opacity="100" points="40.0,386.0 -6.0,386.0 -6.0,334.0" stroke="#000" stroke-width="1" /><polyline fill="none" opacity="100" points="37.0,386.0 37.0,402.0 -3.0,402.0 -4.0,386.0" stroke="#000" stroke-width="1" /><polygon fill="#D0D0D0" opacity="100" points="74.0,297.0 -5.0,297.0 -5.0,271.0 74.0,271.0 78.0,272.0 83.0,275.0 85.0,279.0 86.0,284.0 85.0,289.0 83.0,293.0 79.0,296.0" stroke="#D0D0D0" stroke-width="1" /><polyline fill="none" opacity="100" points="74.0,297.0 -5.0,297.0 -5.0,271.0 74.0,271.0" stroke="#000" stroke-width="1" /><polyline fill="none" opacity="100" points="74.0,271.0 74.4453,271.0156 74.9062,271.0625 75.3838,271.1409 75.875,271.25 76.374,271.3884 76.8906,271.5586 77.4277,271.7612 78.0,272.0 78.6348,272.2817 79.2969,272.5977 79.9624,272.9419 80.625,273.3125 81.2759,273.7065 81.8984,274.1211 82.4834,274.5542 83.0,275.0 83.3994,275.4497 83.7266,275.9102 84.0081,276.3853 84.25,276.875 84.4666,277.3804 84.6602,277.9023 84.8325,278.4409 85.0,279.0 85.187,279.5864 85.3711,280.1914 85.5388,280.8093 85.6875,281.4375 85.8108,282.0715 85.9062,282.7109 85.9727,283.3545 86.0,284.0 85.9727,284.6455 85.9062,285.2891 85.8105,285.9285 85.6875,286.5625 85.541,287.1907 85.375,287.8086 85.1914,288.4136 85.0,289.0 84.8164,289.5591 84.625,290.0977 84.416,290.6196 84.1875,291.125 83.9355,291.6147 83.6562,292.0898 83.3477,292.5503 83.0,293.0 82.5977,293.4458 82.1562,293.8789 81.6853,294.2935 81.1875,294.6875 80.6682,295.0581 80.1289,295.4023 79.5708,295.7183 79.0,296.0 78.4253,296.2388 77.8398,296.4414 77.24,296.6116 76.625,296.75 75.9924,296.8591 75.3438,296.9375 74.6797,296.9844 74.0,297.0" stroke="#000" stroke-width="1" /><polyline fill="none" opacity="100" points="153.0,279.0 153.0,336.0" stroke="#7F7F7F" stroke-width="1" /><polyline fill="none" opacity="100" points="157.0,279.0 157.0,336.0" stroke="#7F7F7F" stroke-width="1" /><polyline fill="none" opacity="100" points="161.0,279.0 161.0,336.0" stroke="#7F7F7F" stroke-width="1" /><polyline fill="none" opacity="100" points="165.0,279.0 165.0,336.0" stroke="#7F7F7F" stroke-width="1" /><polyline fill="none" opacity="100" points="169.0,279.0 169.0,336.0" stroke="#7F7F7F" stroke-width="1" /><polyline fill="none" opacity="100" points="173.0,279.0 173.0,336.0" stroke="#7F7F7F" stroke-width="1" /><polyline fill="none" opacity="100" points="177.0,279.0 177.0,336.0" stroke="#7F7F7F" stroke-width="1" /><polyline fill="none" opacity="100" points="181.0,279.0 181.0,336.0" stroke="#7F7F7F" stroke-width="1" /><polyline fill="none" opacity="100" points="185.0,279.0 185.0,336.0" stroke="#7F7F7F" stroke-width="1" /><polyline fill="none" opacity="100" points="189.0,279.0 189.0,336.0" stroke="#7F7F7F" stroke-width="1" /><polyline fill="none" opacity="100" points="193.0,279.0 193.0,336.0" stroke="#7F7F7F" stroke-width="1" /><polyline fill="none" opacity="100" points="197.0,279.0 197.0,336.0" stroke="#7F7F7F" stroke-width="1" /><polyline fill="none" opacity="100" points="201.0,279.0 201.0,336.0" stroke="#7F7F7F" stroke-width="1" /><polyline fill="none" opacity="100" points="205.0,279.0 205.0,336.0" stroke="#7F7F7F" stroke-width="1" /><polyline fill="none" opacity="100" points="209.0,279.0 209.0,336.0" stroke="#7F7F7F" stroke-width="1" /><polyline fill="none" opacity="100" points="213.0,279.0 213.0,336.0" stroke="#7F7F7F" stroke-width="1" /><polygon fill="#9B5509" opacity="100" points="220.0,293.0 148.0,293.0 148.0,300.0 220.0,300.0" stroke="#000" stroke-width="1" /><polygon fill="#9B5509" opacity="100" points="220.0,315.0 148.0,315.0 148.0,322.0 220.0,322.0" stroke="#000" stroke-width="1" /><polygon fill="#9B5509" opacity="100" points="220.0,275.0 148.0,275.0 148.0,279.0 220.0,279.0" stroke="#000" stroke-width="1" /><polygon fill="#9B5509" opacity="100" points="220.0,336.0 148.0,336.0 148.0,340.0 220.0,340.0" stroke="#000" stroke-width="1" /><polyline fill="none" opacity="100" points="68.0,354.0 73.0,354.0" stroke="#090" stroke-width="1" /><polyline fill="none" opacity="100" points="68.0,350.0 73.0,350.0" stroke="#090" stroke-width="1" /><polyline fill="none" opacity="100" points="68.0,346.0 73.0,346.0" stroke="#090" stroke-width="1" /><polyline fill="none" opacity="100" points="68.0,342.0 73.0,342.0" stroke="#090" stroke-width="1" /><polyline fill="none" opacity="100" points="68.0,338.0 73.0,338.0" stroke="#090" stroke-width="1" /><polyline fill="none" opacity="100" points="68.0,334.0 73.0,334.0" stroke="#090" stroke-width="1" /><polyline fill="none" opacity="100" points="68.0,330.0 73.0,330.0" stroke="#090" stroke-width="1" /><polyline fill="none" opacity="100" points="68.0,326.0 73.0,326.0" stroke="#090" stroke-width="1" /><polyline fill="none" opacity="100" points="68.0,322.0 73.0,322.0" stroke="#090" stroke-width="1" /><polyline fill="none" opacity="100" points="68.0,318.0 73.0,318.0" stroke="#090" stroke-width="1" /><polyline fill="none" opacity="100" points="68.0,314.0 73.0,314.0" stroke="#090" stroke-width="1" /><polyline fill="none" opacity="100" points="68.0,310.0 73.0,310.0" stroke="#090" stroke-width="1" /><polyline fill="none" opacity="100" points="68.0,306.0 73.0,306.0" stroke="#090" stroke-width="1" /><polyline fill="none" opacity="100" points="68.0,302.0 73.0,302.0" stroke="#090" stroke-width="1" /><polyline fill="none" opacity="100" points="118.0,236.0 121.0,239.0" stroke="#F00" stroke-width="1" /><polyline fill="none" opacity="100" points="115.2129,238.8691 118.2129,241.8691" stroke="#F00" stroke-width="1" /><polyline fill="none" opacity="100" points="112.4257,241.7382 115.4257,244.7382" stroke="#F00" stroke-width="1" /><polyline fill="none" opacity="100" points="109.6386,244.6074 112.6386,247.6074" stroke="#F00" stroke-width="1" /><polyline fill="none" opacity="100" points="106.8514,247.4765 109.8514,250.4765" stroke="#F00" stroke-width="1" /><polyline fill="none" opacity="100" points="104.0643,250.3456 107.0643,253.3456" stroke="#F00" stroke-width="1" /><polyline fill="none" opacity="100" points="101.2771,253.2147 104.2771,256.2147" stroke="#F00" stroke-width="1" /><polyline fill="none" opacity="100" points="98.49,256.0838 101.49,259.0838" stroke="#F00" stroke-width="1" /><polyline fill="none" opacity="100" points="95.7029,258.9529 98.7029,261.9529" stroke="#F00" stroke-width="1" /><polyline fill="none" opacity="100" points="92.9157,261.8221 95.9157,264.8221" stroke="#F00" stroke-width="1" /><polyline fill="none" opacity="100" points="90.1286,264.6912 93.1286,267.6912" stroke="#F00" stroke-width="1" /><polyline fill="none" opacity="100" points="87.3414,267.5603 90.3414,270.5603" stroke="#F00" stroke-width="1" /><polyline fill="none" opacity="100" points="84.5543,270.4294 87.5543,273.4294" stroke="#F00" stroke-width="1" /><polyline fill="none" opacity="100" points="674.0,268.0 674.0,275.0 746.0,275.0 746.0,253.0 772.0,253.0 772.0,233.0 810.0,233.0" stroke="#000" stroke-width="1" /><polyline fill="none" opacity="100" points="810.0,233.0 811.3281,232.8438 812.5625,232.625 813.7031,232.3438 814.75,232.0 815.7031,231.5938 816.5625,231.125 817.3281,230.5938 818.0,230.0 818.5781,229.3438 819.0625,228.625 819.4531,227.8438 819.75,227.0 819.9531,226.0938 820.0625,225.125 820.0781,224.0938 820.0,223.0" stroke="#000" stroke-width="1" /><polyline fill="none" opacity="100" points="820.0,223.0 903.0,223.0 903.0,234.0" stroke="#000" stroke-width="1" /><polyline fill="none" opacity="100" points="674.0,348.0 674.0,340.0 746.0,340.0 746.0,359.0 830.0,359.0" stroke="#000" stroke-width="1" /><polyline fill="none" opacity="100" points="830.0,359.0 833.1562,359.1641 836.125,359.5312 838.9062,360.1016 841.5,360.875 843.9062,361.8516 846.125,363.0312 848.1562,364.4141 850.0,366.0 851.6562,367.7891 853.125,369.7812 854.4062,371.9766 855.5,374.375 856.4062,376.9766 857.125,379.7812 857.6562,382.7891 858.0,386.0" stroke="#000" stroke-width="1" /><polyline fill="none" opacity="100" points="858.0,386.0 903.0,386.0 903.0,334.0" stroke="#000" stroke-width="1" /><polyline fill="none" opacity="100" points="860.0,386.0 860.0,402.0 900.0,402.0 900.0,386.0" stroke="#000" stroke-width="1" /><polygon fill="#D0D0D0" opacity="100" points="824.0,297.0 903.0,297.0 903.0,271.0 824.0,271.0 819.0,272.0 814.0,275.0 811.0,279.0 810.0,284.0 812.0,289.0 815.0,293.0 819.0,296.0" stroke="#D0D0D0" stroke-width="1" /><polyline fill="none" opacity="100" points="824.0,297.0 903.0,297.0 903.0,271.0 824.0,271.0" stroke="#000" stroke-width="1" /><polyline fill="none" opacity="100" points="824.0,271.0 823.375,271.0156 822.75,271.0625 822.1245,271.1409 821.5,271.25 820.8794,271.3884 820.2578,271.5586 819.6338,271.7612 819.0,272.0 818.3428,272.2817 817.6797,272.5977 817.0225,272.9419 816.375,273.3125 815.7432,273.7065 815.1328,274.1211 814.5479,274.5542 814.0,275.0 813.5068,275.4497 813.0547,275.9102 812.636,276.3853 812.25,276.875 811.8933,277.3804 811.5664,277.9023 811.27,278.4409 811.0,279.0 810.7495,279.5864 810.5273,280.1914 810.3398,280.8093 810.1875,281.4375 810.0703,282.0715 809.9961,282.7109 809.9683,283.3545 810.0,284.0 810.1138,284.6455 810.2852,285.2891 810.4988,285.9285 810.75,286.5625 811.0305,287.1907 811.3359,287.8086 811.6631,288.4136 812.0,289.0 812.3291,289.5591 812.6641,290.0977 813.0122,290.6196 813.375,291.125 813.7573,291.6147 814.1562,292.0898 814.5703,292.5503 815.0,293.0 815.4453,293.4458 815.9062,293.8789 816.3828,294.2935 816.875,294.6875 817.3828,295.0581 817.9062,295.4023 818.4453,295.7183 819.0,296.0 819.5703,296.2388 820.1562,296.4414 820.7578,296.6116 821.375,296.75 822.0078,296.8591 822.6562,296.9375 823.3203,296.9844 824.0,297.0" stroke="#000" stroke-width="1" /><polyline fill="none" opacity="100" points="745.0,279.0 745.0,336.0" stroke="#7F7F7F" stroke-width="1" /><polyline fill="none" opacity="100" points="741.0,279.0 741.0,336.0" stroke="#7F7F7F" stroke-width="1" /><polyline fill="none" opacity="100" points="737.0,279.0 737.0,336.0" stroke="#7F7F7F" stroke-width="1" /><polyline fill="none" opacity="100" points="733.0,279.0 733.0,336.0" stroke="#7F7F7F" stroke-width="1" /><polyline fill="none" opacity="100" points="729.0,279.0 729.0,336.0" stroke="#7F7F7F" stroke-width="1" /><polyline fill="none" opacity="100" points="725.0,279.0 725.0,336.0" stroke="#7F7F7F" stroke-width="1" /><polyline fill="none" opacity="100" points="721.0,279.0 721.0,336.0" stroke="#7F7F7F" stroke-width="1" /><polyline fill="none" opacity="100" points="717.0,279.0 717.0,336.0" stroke="#7F7F7F" stroke-width="1" /><polyline fill="none" opacity="100" points="713.0,279.0 713.0,336.0" stroke="#7F7F7F" stroke-width="1" /><polyline fill="none" opacity="100" points="709.0,279.0 709.0,336.0" stroke="#7F7F7F" stroke-width="1" /><polyline fill="none" opacity="100" points="705.0,279.0 705.0,336.0" stroke="#7F7F7F" stroke-width="1" /><polyline fill="none" opacity="100" points="701.0,279.0 701.0,336.0" stroke="#7F7F7F" stroke-width="1" /><polyline fill="none" opacity="100" points="697.0,279.0 697.0,336.0" stroke="#7F7F7F" stroke-width="1" /><polyline fill="none" opacity="100" points="693.0,279.0 693.0,336.0" stroke="#7F7F7F" stroke-width="1" /><polyline fill="none" opacity="100" points="689.0,279.0 689.0,336.0" stroke="#7F7F7F" stroke-width="1" /><polyline fill="none" opacity="100" points="685.0,279.0 685.0,336.0" stroke="#7F7F7F" stroke-width="1" /><polyline fill="none" opacity="100" points="681.0,279.0 681.0,336.0" stroke="#7F7F7F" stroke-width="1" /><polygon fill="#9B5509" opacity="100" points="677.0,293.0 750.0,293.0 750.0,300.0 677.0,300.0" stroke="#000" stroke-width="1" /><polygon fill="#9B5509" opacity="100" points="677.0,315.0 750.0,315.0 750.0,322.0 677.0,322.0" stroke="#000" stroke-width="1" /><polygon fill="#9B5509" opacity="100" points="677.0,275.0 750.0,275.0 750.0,279.0 677.0,279.0" stroke="#000" stroke-width="1" /><polygon fill="#9B5509" opacity="100" points="677.0,336.0 750.0,336.0 750.0,340.0 677.0,340.0" stroke="#000" stroke-width="1" /><polyline fill="none" opacity="100" points="830.0,354.0 824.0,354.0" stroke="#090" stroke-width="1" /><polyline fill="none" opacity="100" points="829.9245,350.0007 823.9245,350.0007" stroke="#090" stroke-width="1" /><polyline fill="none" opacity="100" points="829.8491,346.0014 823.8491,346.0014" stroke="#090" stroke-width="1" /><polyline fill="none" opacity="100" points="829.7736,342.0021 823.7736,342.0021" stroke="#090" stroke-width="1" /><polyline fill="none" opacity="100" points="829.6982,338.0028 823.6982,338.0028" stroke="#090" stroke-width="1" /><polyline fill="none" opacity="100" points="829.6227,334.0036 823.6227,334.0036" stroke="#090" stroke-width="1" /><polyline fill="none" opacity="100" points="829.5473,330.0043 823.5473,330.0043" stroke="#090" stroke-width="1" /><polyline fill="none" opacity="100" points="829.4718,326.005 823.4718,326.005" stroke="#090" stroke-width="1" /><polyline fill="none" opacity="100" points="829.3963,322.0057 823.3963,322.0057" stroke="#090" stroke-width="1" /><polyline fill="none" opacity="100" points="829.3209,318.0064 823.3209,318.0064" stroke="#090" stroke-width="1" /><polyline fill="none" opacity="100" points="829.2454,314.0071 823.2454,314.0071" stroke="#090" stroke-width="1" /><polyline fill="none" opacity="100" points="829.17,310.0078 823.17,310.0078" stroke="#090" stroke-width="1" /><polyline fill="none" opacity="100" points="829.0945,306.0085 823.0945,306.0085" stroke="#090" stroke-width="1" /><polyline fill="none" opacity="100" points="829.019,302.0093 823.019,302.0093" stroke="#090" stroke-width="1" /><polyline fill="none" opacity="100" points="780.0,236.0 776.0,240.0" stroke="#F00" stroke-width="1" /><polyline fill="none" opacity="100" points="782.9104,238.7441 778.9104,242.7441" stroke="#F00" stroke-width="1" /><polyline fill="none" opacity="100" points="785.8207,241.4881 781.8207,245.4881" stroke="#F00" stroke-width="1" /><polyline fill="none" opacity="100" points="788.7311,244.2322 784.7311,248.2322" stroke="#F00" stroke-width="1" /><polyline fill="none" opacity="100" points="791.6414,246.9762 787.6414,250.9762" stroke="#F00" stroke-width="1" /><polyline fill="none" opacity="100" points="794.5518,249.7203 790.5518,253.7203" stroke="#F00" stroke-width="1" /><polyline fill="none" opacity="100" points="797.4621,252.4643 793.4621,256.4643" stroke="#F00" stroke-width="1" /><polyline fill="none" opacity="100" points="800.3725,255.2084 796.3725,259.2084" stroke="#F00" stroke-width="1" /><polyline fill="none" opacity="100" points="803.2829,257.9524 799.2829,261.9524" stroke="#F00" stroke-width="1" /><polyline fill="none" opacity="100" points="806.1932,260.6965 802.1932,264.6965" stroke="#F00" stroke-width="1" /><polyline fill="none" opacity="100" points="809.1036,263.4405 805.1036,267.4405" stroke="#F00" stroke-width="1" /><polyline fill="none" opacity="100" points="812.0139,266.1846 808.0139,270.1846" stroke="#F00" stroke-width="1" /><polyline fill="none" opacity="100" points="814.9243,268.9286 810.9243,272.9286" stroke="#F00" stroke-width="1" /><polyline fill="none" opacity="100" points="852.0,251.0 868.0,251.0" stroke="#F00" stroke-width="1" /><polygon fill="#F00" opacity="100" points="863.3636,252.2423 868.0,251.0 863.3636,249.7577" stroke="#F00" stroke-width="1" /><polyline fill="none" opacity="100" points="43.0,252.0 25.0,252.0" stroke="#F00" stroke-width="1" /><polygon fill="#F00" opacity="100" points="30.216,250.6024 25.0,252.0 30.216,253.3976" stroke="#F00" stroke-width="1" /><polyline fill="none" opacity="100" points="868.0,316.0 852.0,316.0" stroke="#090" stroke-width="1" /><polygon fill="#090" opacity="100" points="856.6364,314.7577 852.0,316.0 856.6364,317.2423" stroke="#090" stroke-width="1" /><polyline fill="none" opacity="100" points="25.0,316.0 43.0,316.0" stroke="#090" stroke-width="1" /><polygon fill="#090" opacity="100" points="37.784,317.3976 43.0,316.0 37.784,314.6024" stroke="#090" stroke-width="1" /><polygon fill="#34349C" opacity="100" points="102.0,356.0 102.0,354.0 107.0,354.0 107.0,356.0" stroke="#34349C" stroke-width="1" /><polygon fill="#34349C" opacity="100" points="786.0,356.0 786.0,354.0 790.0,354.0 790.0,356.0" stroke="#34349C" stroke-width="1" /><polygon fill="#F00" opacity="100" points="107.0,356.0 107.0,354.0 112.0,354.0 112.0,356.0" stroke="#F00" stroke-width="1" /><polygon fill="#F00" opacity="100" points="790.0,356.0 790.0,354.0 794.0,354.0 794.0,356.0" stroke="#F00" stroke-width="1" /><polygon fill="#D0EFFF" opacity="100" points="501.0,297.0 479.0,297.0 479.0,318.0 501.0,318.0" stroke="#000" stroke-width="1" /><text fill="#000" font-family="Arial" font-size="9" font-weight="normal" opacity="100" transform="rotate(-0.0 480.0,302.0) translate(0 9)" x="480.0" y="302.0">лифт</text><g transform="rotate(30.0,450.0,315.0)"><text fill="#FFD900" font-family="Arial" font-size="25" font-weight="normal" opacity="100" x="839.25" y="58.5">1</text><text fill="#FFD900" font-family="Arial" font-size="25" font-weight="normal" opacity="100" x="10.25" y="543.5">2</text></g></g></g></svg>