<?xml version="1.0" encoding="utf-8" ?>
<svg baseProfile="tiny" height="650px" version="1.2" width="440px" xmlns="http://www.w3.org/2000/svg" xmlns:ev="http://www.w3.org/2001/xml-events" xmlns:xlink="http://www.w3.org/1999/xlink"><defs /><g><g transform="rotate(-55.0,220.0,325.0)"><polygon fill="#03795F" opacity="100" points="-98.0,318.0 -98.0,288.0 351.0,288.0 351.0,318.0" stroke="#000" stroke-width="1" /><polygon fill="#03795F" opacity="100" points="-98.0,426.0 -98.0,396.0 351.0,396.0 351.0,426.0" stroke="#000" stroke-width="1" /><polyline fill="none" opacity="100" points="351.0,320.0 379.0,320.0" stroke="#D0D0D0" stroke-width="1" /><polyline fill="none" opacity="100" points="351.0,330.0 379.0,330.0" stroke="#D0D0D0" stroke-width="1" /><polyline fill="none" opacity="100" points="351.0,318.0 351.0,332.0 293.0,332.0 293.0,341.0" stroke="#000" stroke-width="1" /><polyline fill="none" opacity="100" points="351.0,396.0 351.0,384.0 293.0,384.0 293.0,372.0" stroke="#000" stroke-width="1" /><polyline fill="none" opacity="100" points="-98.0,396.0 -98.0,318.0" stroke="#000" stroke-width="1" /><polyline fill="none" opacity="100" points="-96.0,375.0 21.0,375.0" stroke="#000" stroke-width="1" /><polyline fill="none" opacity="100" points="-96.0,335.0 21.0,335.0" stroke="#000" stroke-width="1" /><polyline fill="none" opacity="100" points="19.0,375.0 19.0,335.0" stroke="#000" stroke-width="1" /><polyline fill="none" opacity="100" points="15.0,375.0 15.0,335.0" stroke="#000" stroke-width="1" /><polyline fill="none" opacity="100" points="11.0,375.0 11.0,335.0" stroke="#000" stroke-width="1" /><polyline fill="none" opacity="100" points="7.0,375.0 7.0,335.0" stroke="#000" stroke-width="1" /><polyline fill="none" opacity="100" points="3.0,375.0 3.0,335.0" stroke="#000" stroke-width="1" /><polyline fill="none" opacity="100" points="-1.0,375.0 -1.0,335.0" stroke="#000" stroke-width="1" /><polyline fill="none" opacity="100" points="-5.0,375.0 -5.0,335.0" stroke="#000" stroke-width="1" /><polyline fill="none" opacity="100" points="-9.0,375.0 -9.0,335.0" stroke="#000" stroke-width="1" /><polyline fill="none" opacity="100" points="-13.0,375.0 -13.0,335.0" stroke="#000" stroke-width="1" /><polyline fill="none" opacity="100" points="-17.0,375.0 -17.0,335.0" stroke="#000" stroke-width="1" /><polyline fill="none" opacity="100" points="-94.0,375.0 -94.0,335.0" stroke="#000" stroke-width="1" /><polyline fill="none" opacity="100" points="-90.0,375.0 -90.0,335.0" stroke="#000" stroke-width="1" /><polyline fill="none" opacity="100" points="-86.0,375.0 -86.0,335.0" stroke="#000" stroke-width="1" /><polyline fill="none" opacity="100" points="-82.0,375.0 -82.0,335.0" stroke="#000" stroke-width="1" /><polyline fill="none" opacity="100" points="-78.0,375.0 -78.0,335.0" stroke="#000" stroke-width="1" /><polyline fill="none" opacity="100" points="-74.0,375.0 -74.0,335.0" stroke="#000" stroke-width="1" /><polyline fill="none" opacity="100" points="-70.0,375.0 -70.0,335.0" stroke="#000" stroke-width="1" /><polyline fill="none" opacity="100" points="-66.0,375.0 -66.0,335.0" stroke="#000" stroke-width="1" /><polyline fill="none" opacity="100" points="-62.0,375.0 -62.0,335.0" stroke="#000" stroke-width="1" /><polyline fill="none" opacity="100" points="-58.0,375.0 -58.0,335.0" stroke="#000" stroke-width="1" /><polygon fill="#94949C" opacity="100" points="55.0,354.0 55.0,350.0 53.0,350.0 53.0,354.0" stroke="#94949C" stroke-width="1" /><polygon fill="#F00" opacity="100" points="55.0,358.0 55.0,354.0 53.0,354.0 53.0,358.0" stroke="#F00" stroke-width="1" /><polyline fill="none" opacity="100" points="360.0,369.0 360.0,344.0" stroke="#7F7F7F" stroke-width="1" /><polyline fill="none" opacity="100" points="356.0,369.0 356.0,344.0" stroke="#7F7F7F" stroke-width="1" /><polyline fill="none" opacity="100" points="352.0,369.0 352.0,344.0" stroke="#7F7F7F" stroke-width="1" /><polyline fill="none" opacity="100" points="348.0,369.0 348.0,344.0" stroke="#7F7F7F" stroke-width="1" /><polyline fill="none" opacity="100" points="344.0,369.0 344.0,344.0" stroke="#7F7F7F" stroke-width="1" /><polyline fill="none" opacity="100" points="340.0,369.0 340.0,344.0" stroke="#7F7F7F" stroke-width="1" /><polyline fill="none" opacity="100" points="336.0,369.0 336.0,344.0" stroke="#7F7F7F" stroke-width="1" /><polyline fill="none" opacity="100" points="332.0,369.0 332.0,344.0" stroke="#7F7F7F" stroke-width="1" /><polyline fill="none" opacity="100" points="328.0,369.0 328.0,344.0" stroke="#7F7F7F" stroke-width="1" /><polyline fill="none" opacity="100" points="324.0,369.0 324.0,344.0" stroke="#7F7F7F" stroke-width="1" /><polyline fill="none" opacity="100" points="320.0,369.0 320.0,344.0" stroke="#7F7F7F" stroke-width="1" /><polyline fill="none" opacity="100" points="316.0,369.0 316.0,344.0" stroke="#7F7F7F" stroke-width="1" /><polyline fill="none" opacity="100" points="312.0,369.0 312.0,344.0" stroke="#7F7F7F" stroke-width="1" /><polyline fill="none" opacity="100" points="308.0,369.0 308.0,344.0" stroke="#7F7F7F" stroke-width="1" /><polyline fill="none" opacity="100" points="304.0,369.0 304.0,344.0" stroke="#7F7F7F" stroke-width="1" /><polyline fill="none" opacity="100" points="300.0,369.0 300.0,344.0" stroke="#7F7F7F" stroke-width="1" /><polygon fill="#9B5509" opacity="100" points="367.0,344.0 293.0,344.0 293.0,341.0 367.0,341.0" stroke="#000" stroke-width="1" /><polygon fill="#9B5509" opacity="100" points="367.0,348.0 367.0,351.0 293.0,351.0 293.0,348.0" stroke="#000" stroke-width="1" /><polygon fill="#9B5509" opacity="100" points="367.0,355.0 367.0,358.0 293.0,358.0 293.0,355.0" stroke="#000" stroke-width="1" /><polygon fill="#9B5509" opacity="100" points="367.0,362.0 367.0,365.0 293.0,365.0 293.0,362.0" stroke="#000" stroke-width="1" /><polygon fill="#9B5509" opacity="100" points="367.0,369.0 293.0,369.0 293.0,372.0 367.0,372.0" stroke="#000" stroke-width="1" /><polyline fill="none" opacity="100" points="358.0,341.0 358.0,332.0 417.0,332.0 417.0,339.0" stroke="#000" stroke-width="1" /><polyline fill="none" opacity="100" points="358.0,372.0 358.0,382.0 417.0,382.0 417.0,373.0" stroke="#000" stroke-width="1" /><polyline fill="none" opacity="100" points="417.0,352.0 417.0,360.0" stroke="#000" stroke-width="1" /><polyline fill="none" opacity="100" points="367.0,357.0 388.0,353.0 416.0,353.0" stroke="#000" stroke-width="0.5" /><polygon fill="none" opacity="100" points="390.0,374.0 384.0,374.0 384.0,380.0 390.0,380.0" stroke="#000" stroke-width="1" /><polyline fill="none" opacity="100" points="385.0,370.0 389.0,370.0" stroke="#090" stroke-width="1" /><polyline fill="none" opacity="100" points="385.0,366.0 389.0,366.0" stroke="#090" stroke-width="1" /><polyline fill="none" opacity="100" points="385.0,362.0 389.0,362.0" stroke="#090" stroke-width="1" /><polyline fill="none" opacity="100" points="385.0,358.0 389.0,358.0" stroke="#090" stroke-width="1" /><polyline fill="none" opacity="100" points="385.0,354.0 389.0,354.0" stroke="#090" stroke-width="1" /><polyline fill="none" opacity="100" points="405.0,350.0 401.0,350.0" stroke="#F00" stroke-width="1" /><polyline fill="none" opacity="100" points="405.0,346.0 401.0,346.0" stroke="#F00" stroke-width="1" /><polyline fill="none" opacity="100" points="405.0,342.0 401.0,342.0" stroke="#F00" stroke-width="1" /><polyline fill="none" opacity="100" points="405.0,338.0 401.0,338.0" stroke="#F00" stroke-width="1" /><polyline fill="none" opacity="100" points="405.0,334.0 401.0,334.0" stroke="#F00" stroke-width="1" /><polygon fill="#D0EFFF" opacity="100" points="379.0,332.0 379.0,318.0 394.0,318.0 394.0,332.0" stroke="#000" stroke-width="1" /><text fill="#000" font-family="Arial" font-size="6" font-weight="normal" opacity="100" transform="rotate(-0.0 380.0,322.0) translate(0 6)" x="380.0" y="322.0">лифт</text><polyline fill="none" opacity="100" points="505.0,195.0 446.0,195.0 446.0,339.0 450.0,339.0 450.0,387.0 446.0,387.0 446.0,393.0" stroke="#000" stroke-width="1" /><polyline fill="none" opacity="100" points="417.0,373.0 424.0,373.0 424.0,387.0 428.0,387.0 428.0,393.0" stroke="#000" stroke-width="1" /><polyline fill="none" opacity="100" points="417.0,339.0 424.0,339.0 424.0,177.0 444.0,177.0 444.0,163.0 474.0,163.0" stroke="#000" stroke-width="1" /><polyline fill="none" opacity="100" points="505.0,177.0 471.0,177.0" stroke="#000" stroke-width="1" /><polyline fill="none" opacity="100" points="505.0,181.0 465.0,181.0" stroke="#000" stroke-width="0.5" /><polyline fill="none" opacity="100" points="503.0,195.0 503.0,181.0" stroke="#000" stroke-width="1" /><polyline fill="none" opacity="100" points="499.0,195.0 499.0,181.0" stroke="#000" stroke-width="1" /><polyline fill="none" opacity="100" points="495.0,195.0 495.0,181.0" stroke="#000" stroke-width="1" /><polyline fill="none" opacity="100" points="491.0,195.0 491.0,181.0" stroke="#000" stroke-width="1" /><polyline fill="none" opacity="100" points="487.0,195.0 487.0,181.0" stroke="#000" stroke-width="1" /><polyline fill="none" opacity="100" points="483.0,195.0 483.0,181.0" stroke="#000" stroke-width="1" /><polyline fill="none" opacity="100" points="479.0,195.0 479.0,181.0" stroke="#000" stroke-width="1" /><polyline fill="none" opacity="100" points="475.0,195.0 475.0,181.0" stroke="#000" stroke-width="1" /><polyline fill="none" opacity="100" points="471.0,195.0 471.0,181.0" stroke="#000" stroke-width="1" /><polyline fill="none" opacity="100" points="467.0,195.0 467.0,181.0" stroke="#000" stroke-width="1" /><polyline fill="none" opacity="100" points="430.0,387.0 444.0,393.0" stroke="#F00" stroke-width="1" /><polyline fill="none" opacity="100" points="444.0,387.0 430.0,393.0" stroke="#F00" stroke-width="1" /><polygon fill="#D0EFFF" opacity="100" points="456.0,177.0 456.0,163.0 471.0,163.0 471.0,177.0" stroke="#000" stroke-width="1" /><text fill="#000" font-family="Arial" font-size="6" font-weight="normal" opacity="100" transform="rotate(-0.0 458.0,167.0) translate(0 6)" x="458.0" y="167.0">лифт</text><text fill="#00AFAF" font-family="Arial" font-size="15" font-weight="normal" opacity="100" transform="rotate(-0.0 216.0,219.0) translate(0 15)" x="216.0" y="219.0">улица академика Опарина</text><polygon fill="#FFD0D0" opacity="0.7" points="-104.0,328.0 24.0,328.0 24.0,382.0 -104.0,382.0" stroke="#FFD0D0" stroke-width="1" /><polygon fill="#FFD0D0" opacity="0.7" points="411.0,389.0 464.0,389.0 464.0,409.0 411.0,409.0" stroke="#FFD0D0" stroke-width="1" /><text fill="#FF4040" font-family="Arial" font-size="15" font-weight="normal" opacity="1.0" transform="rotate(-0.0 -75.0,357.0) translate(0 15)" x="-75.0" y="357.0">закрыто</text><polyline fill="none" opacity="1.0" points="-104.0,328.0 24.0,328.0 24.0,382.0 -104.0,382.0 -104.0,328.0" stroke="#FF4040" stroke-dasharray="5,5" stroke-width="1" /><text fill="#FF4040" font-family="Arial" font-size="15" font-weight="normal" opacity="1.0" transform="rotate(-0.0 412.0,391.0) translate(0 15)" x="412.0" y="391.0">закрыто</text><polyline fill="none" opacity="1.0" points="411.0,389.0 464.0,389.0 464.0,409.0 411.0,409.0 411.0,389.0" stroke="#FF4040" stroke-dasharray="5,5" stroke-width="1" /><text fill="#03795F" font-family="Arial" font-size="20" font-weight="normal" opacity="1.0" transform="rotate(-0.0 -95.0,264.0) translate(0 20)" x="-95.0" y="264.0">&lt;&lt; Генерала Тюленева</text><text fill="#03795F" font-family="Arial" font-size="20" font-weight="normal" opacity="1.0" transform="rotate(-0.0 215.0,426.0) translate(0 20)" x="215.0" y="426.0">Новаторская &gt;&gt;</text><text fill="#03795F" font-family="Arial" font-size="25" font-weight="bold" opacity="1.0" transform="rotate(-0.0 -62.0,327.0) translate(0 25)" x="-62.0" y="327.0">Университет дружбы народов</text><g transform="rotate(55.0,220.0,325.0)"><text fill="#FFD900" font-family="Arial" font-size="25" font-weight="normal" opacity="1.0" x="287.25" y="42.5">1</text></g></g></g></svg>