<?xml version="1.0" encoding="utf-8" ?>
<svg baseProfile="tiny" height="680px" version="1.2" width="650px" xmlns="http://www.w3.org/2000/svg" xmlns:ev="http://www.w3.org/2001/xml-events" xmlns:xlink="http://www.w3.org/1999/xlink"><defs /><g><g transform="rotate(-50.0,325.0,340.0)"><polygon fill="#94949C" opacity="100" points="339.0,339.0 339.0,343.0 337.0,343.0 337.0,339.0" stroke="#94949C" stroke-width="1" /><polygon fill="#F00" opacity="100" points="339.0,335.0 339.0,339.0 337.0,339.0 337.0,335.0" stroke="#F00" stroke-width="1" /><polyline fill="none" opacity="100" points="737.0,391.0 697.0,391.0 697.0,295.0 626.0,295.0 626.0,312.0 575.0,312.0 575.0,293.0" stroke="#000" stroke-width="1" /><polyline fill="none" opacity="100" points="575.0,371.0 575.0,352.0 626.0,352.0 626.0,390.0 676.0,390.0 676.0,409.0 737.0,409.0" stroke="#000" stroke-width="1" /><polyline fill="none" opacity="100" points="575.0,347.0 624.0,347.0" stroke="#000" stroke-width="0.5" /><polyline fill="none" opacity="100" points="737.0,395.0 697.0,395.0" stroke="#000" stroke-width="0.5" /><polyline fill="none" opacity="100" points="580.0,312.0 580.0,347.0" stroke="#000" stroke-width="1" /><polyline fill="none" opacity="100" points="584.0,312.0 584.0,347.0" stroke="#000" stroke-width="1" /><polyline fill="none" opacity="100" points="588.0,312.0 588.0,347.0" stroke="#000" stroke-width="1" /><polyline fill="none" opacity="100" points="592.0,312.0 592.0,347.0" stroke="#000" stroke-width="1" /><polyline fill="none" opacity="100" points="596.0,312.0 596.0,347.0" stroke="#000" stroke-width="1" /><polyline fill="none" opacity="100" points="600.0,312.0 600.0,347.0" stroke="#000" stroke-width="1" /><polyline fill="none" opacity="100" points="604.0,312.0 604.0,347.0" stroke="#000" stroke-width="1" /><polyline fill="none" opacity="100" points="608.0,312.0 608.0,347.0" stroke="#000" stroke-width="1" /><polyline fill="none" opacity="100" points="612.0,312.0 612.0,347.0" stroke="#000" stroke-width="1" /><polyline fill="none" opacity="100" points="616.0,312.0 616.0,347.0" stroke="#000" stroke-width="1" /><polyline fill="none" opacity="100" points="620.0,312.0 620.0,347.0" stroke="#000" stroke-width="1" /><polyline fill="none" opacity="100" points="735.0,409.0 735.0,395.0" stroke="#000" stroke-width="1" /><polyline fill="none" opacity="100" points="731.0,409.0 731.0,395.0" stroke="#000" stroke-width="1" /><polyline fill="none" opacity="100" points="727.0,409.0 727.0,395.0" stroke="#000" stroke-width="1" /><polyline fill="none" opacity="100" points="723.0,409.0 723.0,395.0" stroke="#000" stroke-width="1" /><polyline fill="none" opacity="100" points="719.0,409.0 719.0,395.0" stroke="#000" stroke-width="1" /><polyline fill="none" opacity="100" points="715.0,409.0 715.0,395.0" stroke="#000" stroke-width="1" /><polyline fill="none" opacity="100" points="711.0,409.0 711.0,395.0" stroke="#000" stroke-width="1" /><polyline fill="none" opacity="100" points="707.0,409.0 707.0,395.0" stroke="#000" stroke-width="1" /><polyline fill="none" opacity="100" points="703.0,409.0 703.0,395.0" stroke="#000" stroke-width="1" /><polyline fill="none" opacity="100" points="699.0,409.0 699.0,395.0" stroke="#000" stroke-width="1" /><polyline fill="none" opacity="100" points="667.0,354.0 667.0,360.0 662.0,360.0" stroke="#000" stroke-width="0.5" /><polyline fill="none" opacity="100" points="667.0,297.0 667.0,309.0" stroke="#000" stroke-width="0.5" /><polyline fill="none" opacity="100" points="640.0,360.0 627.0,360.0" stroke="#000" stroke-width="0.5" /><polyline fill="none" opacity="100" points="665.0,352.0 669.0,352.0" stroke="#090" stroke-width="1" /><polyline fill="none" opacity="100" points="665.0,348.0 669.0,348.0" stroke="#090" stroke-width="1" /><polyline fill="none" opacity="100" points="665.0,344.0 669.0,344.0" stroke="#090" stroke-width="1" /><polyline fill="none" opacity="100" points="665.0,340.0 669.0,340.0" stroke="#090" stroke-width="1" /><polyline fill="none" opacity="100" points="665.0,336.0 669.0,336.0" stroke="#090" stroke-width="1" /><polyline fill="none" opacity="100" points="665.0,332.0 669.0,332.0" stroke="#090" stroke-width="1" /><polyline fill="none" opacity="100" points="665.0,328.0 669.0,328.0" stroke="#090" stroke-width="1" /><polyline fill="none" opacity="100" points="665.0,324.0 669.0,324.0" stroke="#090" stroke-width="1" /><polyline fill="none" opacity="100" points="665.0,320.0 669.0,320.0" stroke="#090" stroke-width="1" /><polyline fill="none" opacity="100" points="665.0,316.0 669.0,316.0" stroke="#090" stroke-width="1" /><polyline fill="none" opacity="100" points="665.0,312.0 669.0,312.0" stroke="#090" stroke-width="1" /><polyline fill="none" opacity="100" points="661.0,358.0 661.0,362.0" stroke="#F00" stroke-width="1" /><polyline fill="none" opacity="100" points="657.0,358.0 657.0,362.0" stroke="#F00" stroke-width="1" /><polyline fill="none" opacity="100" points="653.0,358.0 653.0,362.0" stroke="#F00" stroke-width="1" /><polyline fill="none" opacity="100" points="649.0,358.0 649.0,362.0" stroke="#F00" stroke-width="1" /><polyline fill="none" opacity="100" points="645.0,358.0 645.0,362.0" stroke="#F00" stroke-width="1" /><polyline fill="none" opacity="100" points="641.0,358.0 641.0,362.0" stroke="#F00" stroke-width="1" /><polyline fill="none" opacity="100" points="126.0,293.0 126.0,308.0 69.0,308.0 69.0,292.0 -6.0,292.0" stroke="#000" stroke-width="1" /><polyline fill="none" opacity="100" points="84.0,354.0 126.0,354.0 126.0,352.0 69.0,352.0 69.0,368.0 12.0,368.0 12.0,425.0 84.0,425.0" stroke="#000" stroke-width="1" /><polyline fill="none" opacity="100" points="126.0,371.0 126.0,369.0 84.0,369.0" stroke="#000" stroke-width="1" /><polyline fill="none" opacity="100" points="84.0,443.0 44.0,443.0 44.0,448.0 93.0,448.0 142.0,425.0 189.0,425.0" stroke="#000" stroke-width="1" /><polyline fill="none" opacity="100" points="189.0,443.0 145.0,443.0 96.0,466.0 -6.0,466.0 -6.0,292.0" stroke="#000" stroke-width="1" /><polyline fill="none" opacity="100" points="189.0,439.0 149.0,439.0" stroke="#000" stroke-width="0.5" /><polyline fill="none" opacity="100" points="84.0,439.0 44.0,439.0" stroke="#000" stroke-width="0.5" /><polyline fill="none" opacity="100" points="122.0,347.0 74.0,347.0" stroke="#000" stroke-width="0.5" /><polyline fill="none" opacity="100" points="120.0,308.0 120.0,347.0" stroke="#000" stroke-width="1" /><polyline fill="none" opacity="100" points="116.0,308.0 116.0,347.0" stroke="#000" stroke-width="1" /><polyline fill="none" opacity="100" points="112.0,308.0 112.0,347.0" stroke="#000" stroke-width="1" /><polyline fill="none" opacity="100" points="108.0,308.0 108.0,347.0" stroke="#000" stroke-width="1" /><polyline fill="none" opacity="100" points="104.0,308.0 104.0,347.0" stroke="#000" stroke-width="1" /><polyline fill="none" opacity="100" points="100.0,308.0 100.0,347.0" stroke="#000" stroke-width="1" /><polyline fill="none" opacity="100" points="96.0,308.0 96.0,347.0" stroke="#000" stroke-width="1" /><polyline fill="none" opacity="100" points="92.0,308.0 92.0,347.0" stroke="#000" stroke-width="1" /><polyline fill="none" opacity="100" points="88.0,308.0 88.0,347.0" stroke="#000" stroke-width="1" /><polyline fill="none" opacity="100" points="84.0,308.0 84.0,347.0" stroke="#000" stroke-width="1" /><polyline fill="none" opacity="100" points="80.0,308.0 80.0,347.0" stroke="#000" stroke-width="1" /><polyline fill="none" opacity="100" points="76.0,308.0 76.0,347.0" stroke="#000" stroke-width="1" /><polyline fill="none" opacity="100" points="82.0,425.0 82.0,439.0" stroke="#000" stroke-width="1" /><polyline fill="none" opacity="100" points="78.0,425.0 78.0,439.0" stroke="#000" stroke-width="1" /><polyline fill="none" opacity="100" points="74.0,425.0 74.0,439.0" stroke="#000" stroke-width="1" /><polyline fill="none" opacity="100" points="70.0,425.0 70.0,439.0" stroke="#000" stroke-width="1" /><polyline fill="none" opacity="100" points="66.0,425.0 66.0,439.0" stroke="#000" stroke-width="1" /><polyline fill="none" opacity="100" points="62.0,425.0 62.0,439.0" stroke="#000" stroke-width="1" /><polyline fill="none" opacity="100" points="58.0,425.0 58.0,439.0" stroke="#000" stroke-width="1" /><polyline fill="none" opacity="100" points="54.0,425.0 54.0,439.0" stroke="#000" stroke-width="1" /><polyline fill="none" opacity="100" points="50.0,425.0 50.0,439.0" stroke="#000" stroke-width="1" /><polyline fill="none" opacity="100" points="46.0,425.0 46.0,439.0" stroke="#000" stroke-width="1" /><polyline fill="none" opacity="100" points="187.0,439.0 187.0,425.0" stroke="#000" stroke-width="1" /><polyline fill="none" opacity="100" points="183.0,439.0 183.0,425.0" stroke="#000" stroke-width="1" /><polyline fill="none" opacity="100" points="179.0,439.0 179.0,425.0" stroke="#000" stroke-width="1" /><polyline fill="none" opacity="100" points="175.0,439.0 175.0,425.0" stroke="#000" stroke-width="1" /><polyline fill="none" opacity="100" points="171.0,439.0 171.0,425.0" stroke="#000" stroke-width="1" /><polyline fill="none" opacity="100" points="167.0,439.0 167.0,425.0" stroke="#000" stroke-width="1" /><polyline fill="none" opacity="100" points="163.0,439.0 163.0,425.0" stroke="#000" stroke-width="1" /><polyline fill="none" opacity="100" points="159.0,439.0 159.0,425.0" stroke="#000" stroke-width="1" /><polyline fill="none" opacity="100" points="155.0,439.0 155.0,425.0" stroke="#000" stroke-width="1" /><polyline fill="none" opacity="100" points="151.0,439.0 151.0,425.0" stroke="#000" stroke-width="1" /><polygon fill="#D0D0D0" opacity="100" points="20.0,319.0 20.0,337.0 12.0,337.0 12.0,319.0" stroke="#000" stroke-width="1" /><polyline fill="none" opacity="100" points="50.0,324.0 50.0,319.0 22.0,319.0" stroke="#000" stroke-width="0.5" /><polyline fill="none" opacity="100" points="48.0,364.0 52.0,364.0" stroke="#090" stroke-width="1" /><polyline fill="none" opacity="100" points="48.0,360.0 52.0,360.0" stroke="#090" stroke-width="1" /><polyline fill="none" opacity="100" points="48.0,356.0 52.0,356.0" stroke="#090" stroke-width="1" /><polyline fill="none" opacity="100" points="48.0,352.0 52.0,352.0" stroke="#090" stroke-width="1" /><polyline fill="none" opacity="100" points="48.0,348.0 52.0,348.0" stroke="#090" stroke-width="1" /><polyline fill="none" opacity="100" points="48.0,344.0 52.0,344.0" stroke="#090" stroke-width="1" /><polyline fill="none" opacity="100" points="48.0,340.0 52.0,340.0" stroke="#090" stroke-width="1" /><polyline fill="none" opacity="100" points="48.0,336.0 52.0,336.0" stroke="#090" stroke-width="1" /><polyline fill="none" opacity="100" points="48.0,332.0 52.0,332.0" stroke="#090" stroke-width="1" /><polyline fill="none" opacity="100" points="48.0,328.0 52.0,328.0" stroke="#090" stroke-width="1" /><polyline fill="none" opacity="100" points="48.0,324.0 52.0,324.0" stroke="#090" stroke-width="1" /><polyline fill="none" opacity="100" points="33.0,294.0 37.0,294.0" stroke="#F00" stroke-width="1" /><polyline fill="none" opacity="100" points="33.0,298.0 37.0,298.0" stroke="#F00" stroke-width="1" /><polyline fill="none" opacity="100" points="33.0,302.0 37.0,302.0" stroke="#F00" stroke-width="1" /><polyline fill="none" opacity="100" points="33.0,306.0 37.0,306.0" stroke="#F00" stroke-width="1" /><polyline fill="none" opacity="100" points="33.0,310.0 37.0,310.0" stroke="#F00" stroke-width="1" /><polyline fill="none" opacity="100" points="33.0,314.0 37.0,314.0" stroke="#F00" stroke-width="1" /><polygon fill="#94949C" opacity="100" points="40.0,324.0 45.0,324.0 45.0,322.0 40.0,322.0" stroke="#94949C" stroke-width="1" /><polygon fill="#F00" opacity="100" points="35.0,324.0 40.0,324.0 40.0,322.0 35.0,322.0" stroke="#F00" stroke-width="1" /><polygon fill="#D0EFFF" opacity="100" points="-21.0,453.0 -21.0,438.0 -6.0,438.0 -6.0,453.0" stroke="#000" stroke-width="1" /><text fill="#000" font-family="Arial" font-size="6" font-weight="normal" opacity="100" transform="rotate(-0.0 -20.0,442.0) translate(0 6)" x="-20.0" y="442.0">лифт</text><polygon fill="#D0EFFF" opacity="100" points="69.0,369.0 69.0,354.0 84.0,354.0 84.0,369.0" stroke="#000" stroke-width="1" /><text fill="#000" font-family="Arial" font-size="6" font-weight="normal" opacity="100" transform="rotate(-0.0 70.0,358.0) translate(0 6)" x="70.0" y="358.0">лифт</text><text fill="#00AFAF" font-family="Arial" font-size="15" font-weight="normal" opacity="100" transform="rotate(-0.0 269.0,171.0) translate(0 15)" x="269.0" y="171.0">Ленинский проспект</text><text fill="#00AFAF" font-family="Arial" font-size="15" font-weight="normal" opacity="100" transform="rotate(90.0 117.0,115.0) translate(0 15)" x="117.0" y="115.0">улица Строителей</text><text fill="#00AFAF" font-family="Arial" font-size="15" font-weight="normal" opacity="100" transform="rotate(90.0 132.0,477.0) translate(0 15)" x="132.0" y="477.0">улица Панфёрова</text><polygon fill="#03795F" opacity="100" points="126.0,293.0 126.0,263.0 575.0,263.0 575.0,293.0" stroke="#000" stroke-width="1" /><polygon fill="#03795F" opacity="100" points="126.0,401.0 126.0,371.0 575.0,371.0 575.0,401.0" stroke="#000" stroke-width="1" /><text fill="#03795F" font-family="Arial" font-size="20" font-weight="normal" opacity="100" transform="rotate(-0.0 129.0,239.0) translate(0 20)" x="129.0" y="239.0">&lt;&lt; Новаторская</text><text fill="#03795F" font-family="Arial" font-size="20" font-weight="normal" opacity="100" transform="rotate(-0.0 420.0,401.0) translate(0 20)" x="420.0" y="401.0">Академическая &gt;&gt;</text><text fill="#03795F" font-family="Arial" font-size="25" font-weight="bold" opacity="100" transform="rotate(-0.0 275.0,310.0) translate(0 25)" x="275.0" y="310.0">Вавиловская</text><g transform="rotate(50.0,325.0,340.0)"><text fill="#FFD900" font-family="Arial" font-size="25" font-weight="normal" opacity="100" x="207.25" y="572.5">1</text><text fill="#FFD900" font-family="Arial" font-size="25" font-weight="normal" opacity="100" x="339.25" y="560.5">2</text><text fill="#FFD900" font-family="Arial" font-size="25" font-weight="normal" opacity="100" x="602.25" y="45.5">4</text></g></g></g></svg>