<?xml version="1.0" encoding="utf-8" ?>
<svg baseProfile="tiny" height="1220px" version="1.2" width="1100px" xmlns="http://www.w3.org/2000/svg" xmlns:ev="http://www.w3.org/2001/xml-events" xmlns:xlink="http://www.w3.org/1999/xlink"><defs /><g><g transform="rotate(-45.0,550.0,610.0)"><polygon fill="#E41C0C" opacity="100" points="446.0,711.0 446.0,681.0 896.0,681.0 896.0,711.0" stroke="#000" stroke-width="1" /><polygon fill="#E41C0C" opacity="100" points="446.0,831.0 446.0,801.0 896.0,801.0 896.0,831.0" stroke="#000" stroke-width="1" /><text fill="#E41C0C" font-family="Arial" font-size="20" font-weight="normal" opacity="100" transform="rotate(-0.0 450.0,657.0) translate(0 20)" x="450.0" y="657.0">&lt;&lt; Юго-Западная</text><text fill="#E41C0C" font-family="Arial" font-size="20" font-weight="normal" opacity="100" transform="rotate(-0.0 758.0,831.0) translate(0 20)" x="758.0" y="831.0">Университет &gt;&gt;</text><text fill="#E41C0C" font-family="Arial" font-size="25" font-weight="bold" opacity="100" transform="rotate(-0.0 503.0,719.0) translate(0 25)" x="503.0" y="719.0">Проспект Вернадского</text><polygon fill="#34349C" opacity="100" points="671.0,758.0 671.0,754.0 672.0,754.0 672.0,758.0" stroke="#34349C" stroke-width="1" /><polygon fill="#F00" opacity="100" points="671.0,762.0 671.0,758.0 672.0,758.0 672.0,762.0" stroke="#F00" stroke-width="1" /><polyline fill="none" opacity="100" points="446.0,711.0 446.0,728.0 396.0,728.0 396.0,685.0 283.0,685.0 283.0,678.0 325.0,678.0" stroke="#000" stroke-width="1" /><polyline fill="none" opacity="100" points="325.0,656.0 205.0,656.0" stroke="#000" stroke-width="1" /><polyline fill="none" opacity="100" points="205.0,678.0 247.0,678.0 247.0,936.0 205.0,936.0" stroke="#000" stroke-width="1" /><polyline fill="none" opacity="100" points="205.0,956.0 246.0,956.0 246.0,1068.0 204.0,1068.0" stroke="#000" stroke-width="1" /><polyline fill="none" opacity="100" points="204.0,1089.0 325.0,1089.0" stroke="#000" stroke-width="1" /><polyline fill="none" opacity="100" points="325.0,1068.0 283.0,1068.0 283.0,957.0 325.0,957.0" stroke="#000" stroke-width="1" /><polyline fill="none" opacity="100" points="325.0,936.0 283.0,936.0 283.0,828.0 396.0,828.0 396.0,784.0 446.0,784.0 446.0,801.0" stroke="#000" stroke-width="1" /><polyline fill="none" opacity="100" points="396.0,732.0 446.0,732.0" stroke="#000" stroke-width="0.5" /><polyline fill="none" opacity="100" points="205.0,952.0 246.0,952.0" stroke="#000" stroke-width="0.5" /><polyline fill="none" opacity="100" points="204.0,1085.0 245.0,1085.0" stroke="#000" stroke-width="0.5" /><polyline fill="none" opacity="100" points="323.0,678.0 323.0,656.0" stroke="#000" stroke-width="1" /><polyline fill="none" opacity="100" points="319.0,678.0 319.0,656.0" stroke="#000" stroke-width="1" /><polyline fill="none" opacity="100" points="315.0,678.0 315.0,656.0" stroke="#000" stroke-width="1" /><polyline fill="none" opacity="100" points="311.0,678.0 311.0,656.0" stroke="#000" stroke-width="1" /><polyline fill="none" opacity="100" points="307.0,678.0 307.0,656.0" stroke="#000" stroke-width="1" /><polyline fill="none" opacity="100" points="303.0,678.0 303.0,656.0" stroke="#000" stroke-width="1" /><polyline fill="none" opacity="100" points="299.0,678.0 299.0,656.0" stroke="#000" stroke-width="1" /><polyline fill="none" opacity="100" points="295.0,678.0 295.0,656.0" stroke="#000" stroke-width="1" /><polyline fill="none" opacity="100" points="291.0,678.0 291.0,656.0" stroke="#000" stroke-width="1" /><polyline fill="none" opacity="100" points="287.0,678.0 287.0,656.0" stroke="#000" stroke-width="1" /><polyline fill="none" opacity="100" points="207.0,678.0 207.0,656.0" stroke="#000" stroke-width="1" /><polyline fill="none" opacity="100" points="211.0,678.0 211.0,656.0" stroke="#000" stroke-width="1" /><polyline fill="none" opacity="100" points="215.0,678.0 215.0,656.0" stroke="#000" stroke-width="1" /><polyline fill="none" opacity="100" points="219.0,678.0 219.0,656.0" stroke="#000" stroke-width="1" /><polyline fill="none" opacity="100" points="223.0,678.0 223.0,656.0" stroke="#000" stroke-width="1" /><polyline fill="none" opacity="100" points="227.0,678.0 227.0,656.0" stroke="#000" stroke-width="1" /><polyline fill="none" opacity="100" points="231.0,678.0 231.0,656.0" stroke="#000" stroke-width="1" /><polyline fill="none" opacity="100" points="235.0,678.0 235.0,656.0" stroke="#000" stroke-width="1" /><polyline fill="none" opacity="100" points="239.0,678.0 239.0,656.0" stroke="#000" stroke-width="1" /><polyline fill="none" opacity="100" points="243.0,678.0 243.0,656.0" stroke="#000" stroke-width="1" /><polyline fill="none" opacity="100" points="207.0,936.0 207.0,952.0" stroke="#000" stroke-width="1" /><polyline fill="none" opacity="100" points="211.0,936.0 211.0,952.0" stroke="#000" stroke-width="1" /><polyline fill="none" opacity="100" points="215.0,936.0 215.0,952.0" stroke="#000" stroke-width="1" /><polyline fill="none" opacity="100" points="219.0,936.0 219.0,952.0" stroke="#000" stroke-width="1" /><polyline fill="none" opacity="100" points="223.0,936.0 223.0,952.0" stroke="#000" stroke-width="1" /><polyline fill="none" opacity="100" points="227.0,936.0 227.0,952.0" stroke="#000" stroke-width="1" /><polyline fill="none" opacity="100" points="231.0,936.0 231.0,952.0" stroke="#000" stroke-width="1" /><polyline fill="none" opacity="100" points="235.0,936.0 235.0,952.0" stroke="#000" stroke-width="1" /><polyline fill="none" opacity="100" points="239.0,936.0 239.0,952.0" stroke="#000" stroke-width="1" /><polyline fill="none" opacity="100" points="243.0,936.0 243.0,952.0" stroke="#000" stroke-width="1" /><polyline fill="none" opacity="100" points="323.0,936.0 323.0,957.0" stroke="#000" stroke-width="1" /><polyline fill="none" opacity="100" points="319.0,936.0 319.0,957.0" stroke="#000" stroke-width="1" /><polyline fill="none" opacity="100" points="315.0,936.0 315.0,957.0" stroke="#000" stroke-width="1" /><polyline fill="none" opacity="100" points="311.0,936.0 311.0,957.0" stroke="#000" stroke-width="1" /><polyline fill="none" opacity="100" points="307.0,936.0 307.0,957.0" stroke="#000" stroke-width="1" /><polyline fill="none" opacity="100" points="303.0,936.0 303.0,957.0" stroke="#000" stroke-width="1" /><polyline fill="none" opacity="100" points="299.0,936.0 299.0,957.0" stroke="#000" stroke-width="1" /><polyline fill="none" opacity="100" points="295.0,936.0 295.0,957.0" stroke="#000" stroke-width="1" /><polyline fill="none" opacity="100" points="291.0,936.0 291.0,957.0" stroke="#000" stroke-width="1" /><polyline fill="none" opacity="100" points="287.0,936.0 287.0,957.0" stroke="#000" stroke-width="1" /><polyline fill="none" opacity="100" points="323.0,1068.0 323.0,1089.0" stroke="#000" stroke-width="1" /><polyline fill="none" opacity="100" points="319.0,1068.0 319.0,1089.0" stroke="#000" stroke-width="1" /><polyline fill="none" opacity="100" points="315.0,1068.0 315.0,1089.0" stroke="#000" stroke-width="1" /><polyline fill="none" opacity="100" points="311.0,1068.0 311.0,1089.0" stroke="#000" stroke-width="1" /><polyline fill="none" opacity="100" points="307.0,1068.0 307.0,1089.0" stroke="#000" stroke-width="1" /><polyline fill="none" opacity="100" points="303.0,1068.0 303.0,1089.0" stroke="#000" stroke-width="1" /><polyline fill="none" opacity="100" points="299.0,1068.0 299.0,1089.0" stroke="#000" stroke-width="1" /><polyline fill="none" opacity="100" points="295.0,1068.0 295.0,1089.0" stroke="#000" stroke-width="1" /><polyline fill="none" opacity="100" points="291.0,1068.0 291.0,1089.0" stroke="#000" stroke-width="1" /><polyline fill="none" opacity="100" points="287.0,1068.0 287.0,1089.0" stroke="#000" stroke-width="1" /><polyline fill="none" opacity="100" points="206.0,1068.0 206.0,1085.0" stroke="#000" stroke-width="1" /><polyline fill="none" opacity="100" points="210.0,1068.0 210.0,1085.0" stroke="#000" stroke-width="1" /><polyline fill="none" opacity="100" points="214.0,1068.0 214.0,1085.0" stroke="#000" stroke-width="1" /><polyline fill="none" opacity="100" points="218.0,1068.0 218.0,1085.0" stroke="#000" stroke-width="1" /><polyline fill="none" opacity="100" points="222.0,1068.0 222.0,1085.0" stroke="#000" stroke-width="1" /><polyline fill="none" opacity="100" points="226.0,1068.0 226.0,1085.0" stroke="#000" stroke-width="1" /><polyline fill="none" opacity="100" points="230.0,1068.0 230.0,1085.0" stroke="#000" stroke-width="1" /><polyline fill="none" opacity="100" points="234.0,1068.0 234.0,1085.0" stroke="#000" stroke-width="1" /><polyline fill="none" opacity="100" points="238.0,1068.0 238.0,1085.0" stroke="#000" stroke-width="1" /><polyline fill="none" opacity="100" points="242.0,1068.0 242.0,1085.0" stroke="#000" stroke-width="1" /><polyline fill="none" opacity="100" points="398.0,732.0 398.0,784.0" stroke="#000" stroke-width="1" /><polyline fill="none" opacity="100" points="402.0,732.0 402.0,784.0" stroke="#000" stroke-width="1" /><polyline fill="none" opacity="100" points="406.0,732.0 406.0,784.0" stroke="#000" stroke-width="1" /><polyline fill="none" opacity="100" points="410.0,732.0 410.0,784.0" stroke="#000" stroke-width="1" /><polyline fill="none" opacity="100" points="414.0,732.0 414.0,784.0" stroke="#000" stroke-width="1" /><polyline fill="none" opacity="100" points="418.0,732.0 418.0,784.0" stroke="#000" stroke-width="1" /><polyline fill="none" opacity="100" points="422.0,732.0 422.0,784.0" stroke="#000" stroke-width="1" /><polyline fill="none" opacity="100" points="426.0,732.0 426.0,784.0" stroke="#000" stroke-width="1" /><polyline fill="none" opacity="100" points="430.0,732.0 430.0,784.0" stroke="#000" stroke-width="1" /><polyline fill="none" opacity="100" points="434.0,732.0 434.0,784.0" stroke="#000" stroke-width="1" /><polyline fill="none" opacity="100" points="438.0,732.0 438.0,784.0" stroke="#000" stroke-width="1" /><polyline fill="none" opacity="100" points="442.0,732.0 442.0,784.0" stroke="#000" stroke-width="1" /><polygon fill="#D0D0D0" opacity="100" points="283.0,719.0 293.0,719.0 293.0,795.0 283.0,795.0" stroke="#000" stroke-width="1" /><polygon fill="#FFF" opacity="100" points="293.0,772.0 285.0,772.0 285.0,742.0 293.0,742.0" stroke="#000" stroke-width="1" /><text fill="#FFF" font-family="Arial" font-size="10" font-weight="normal" opacity="100" transform="rotate(90.0 296.0,745.0) translate(0 10)" x="296.0" y="745.0">кассы</text><polyline fill="none" opacity="100" points="396.0,784.0 373.0,784.0" stroke="#000" stroke-width="0.5" /><polygon fill="none" opacity="100" points="328.0,726.0 332.0,723.0 329.0,719.0 325.0,722.0" stroke="#000" stroke-width="1" /><polyline fill="none" opacity="100" points="329.0,719.0 293.0,719.0" stroke="#000" stroke-width="0.5" /><polyline fill="none" opacity="100" points="322.0,716.0 327.0,716.0" stroke="#F00" stroke-width="1" /><polyline fill="none" opacity="100" points="322.0,712.0 327.0,712.0" stroke="#F00" stroke-width="1" /><polyline fill="none" opacity="100" points="322.0,708.0 327.0,708.0" stroke="#F00" stroke-width="1" /><polyline fill="none" opacity="100" points="322.0,704.0 327.0,704.0" stroke="#F00" stroke-width="1" /><polyline fill="none" opacity="100" points="322.0,700.0 327.0,700.0" stroke="#F00" stroke-width="1" /><polyline fill="none" opacity="100" points="322.0,696.0 327.0,696.0" stroke="#F00" stroke-width="1" /><polyline fill="none" opacity="100" points="322.0,692.0 327.0,692.0" stroke="#F00" stroke-width="1" /><polyline fill="none" opacity="100" points="322.0,688.0 327.0,688.0" stroke="#F00" stroke-width="1" /><polyline fill="none" opacity="100" points="371.0,785.0 374.0,783.0" stroke="#090" stroke-width="1" /><polyline fill="none" opacity="100" points="368.7023,781.7258 371.7023,779.7258" stroke="#090" stroke-width="1" /><polyline fill="none" opacity="100" points="366.4046,778.4515 369.4046,776.4515" stroke="#090" stroke-width="1" /><polyline fill="none" opacity="100" points="364.1069,775.1773 367.1069,773.1773" stroke="#090" stroke-width="1" /><polyline fill="none" opacity="100" points="361.8092,771.9031 364.8092,769.9031" stroke="#090" stroke-width="1" /><polyline fill="none" opacity="100" points="359.5115,768.6289 362.5115,766.6289" stroke="#090" stroke-width="1" /><polyline fill="none" opacity="100" points="357.2138,765.3546 360.2138,763.3546" stroke="#090" stroke-width="1" /><polyline fill="none" opacity="100" points="354.9161,762.0804 357.9161,760.0804" stroke="#090" stroke-width="1" /><polyline fill="none" opacity="100" points="352.6184,758.8062 355.6184,756.8062" stroke="#090" stroke-width="1" /><polyline fill="none" opacity="100" points="350.3207,755.532 353.3207,753.532" stroke="#090" stroke-width="1" /><polyline fill="none" opacity="100" points="348.023,752.2577 351.023,750.2577" stroke="#090" stroke-width="1" /><polyline fill="none" opacity="100" points="345.7253,748.9835 348.7253,746.9835" stroke="#090" stroke-width="1" /><polyline fill="none" opacity="100" points="343.4276,745.7093 346.4276,743.7093" stroke="#090" stroke-width="1" /><polyline fill="none" opacity="100" points="341.1299,742.4351 344.1299,740.4351" stroke="#090" stroke-width="1" /><polyline fill="none" opacity="100" points="338.8322,739.1608 341.8322,737.1608" stroke="#090" stroke-width="1" /><polyline fill="none" opacity="100" points="336.5345,735.8866 339.5345,733.8866" stroke="#090" stroke-width="1" /><polyline fill="none" opacity="100" points="334.2368,732.6124 337.2368,730.6124" stroke="#090" stroke-width="1" /><polyline fill="none" opacity="100" points="331.939,729.3381 334.939,727.3381" stroke="#090" stroke-width="1" /><polyline fill="none" opacity="100" points="302.0,703.0 287.0,703.0" stroke="#F00" stroke-width="1" /><polygon fill="#F00" opacity="100" points="291.3467,701.8353 287.0,703.0 291.3467,704.1647" stroke="#F00" stroke-width="1" /><polyline fill="none" opacity="100" points="319.0,796.0 332.0,787.0" stroke="#090" stroke-width="1" /><polygon fill="#090" opacity="100" points="328.9317,790.6174 332.0,787.0 327.5341,788.5986" stroke="#090" stroke-width="1" /><polygon fill="#34349C" opacity="100" points="385.0,787.0 389.0,787.0 389.0,788.0 385.0,788.0" stroke="#34349C" stroke-width="1" /><polygon fill="#F00" opacity="100" points="381.0,787.0 385.0,787.0 385.0,788.0 381.0,788.0" stroke="#F00" stroke-width="1" /><polyline fill="none" opacity="100" points="896.0,711.0 896.0,728.0 946.0,728.0 946.0,709.0 975.0,709.0 975.0,699.0 1022.0,699.0 1022.0,709.0" stroke="#000" stroke-width="1" /><polyline fill="none" opacity="100" points="896.0,801.0 896.0,784.0 946.0,784.0 946.0,799.0 974.0,799.0 974.0,809.0 1022.0,809.0 1022.0,799.0" stroke="#000" stroke-width="1" /><polyline fill="none" opacity="100" points="1022.0,740.0 1022.0,769.0" stroke="#000" stroke-width="1" /><polyline fill="none" opacity="100" points="898.0,733.0 946.0,733.0" stroke="#000" stroke-width="0.5" /><polyline fill="none" opacity="100" points="944.0,784.0 944.0,733.0" stroke="#000" stroke-width="1" /><polyline fill="none" opacity="100" points="940.0,784.0 940.0,733.0" stroke="#000" stroke-width="1" /><polyline fill="none" opacity="100" points="936.0,784.0 936.0,733.0" stroke="#000" stroke-width="1" /><polyline fill="none" opacity="100" points="932.0,784.0 932.0,733.0" stroke="#000" stroke-width="1" /><polyline fill="none" opacity="100" points="928.0,784.0 928.0,733.0" stroke="#000" stroke-width="1" /><polyline fill="none" opacity="100" points="924.0,784.0 924.0,733.0" stroke="#000" stroke-width="1" /><polyline fill="none" opacity="100" points="920.0,784.0 920.0,733.0" stroke="#000" stroke-width="1" /><polyline fill="none" opacity="100" points="916.0,784.0 916.0,733.0" stroke="#000" stroke-width="1" /><polyline fill="none" opacity="100" points="912.0,784.0 912.0,733.0" stroke="#000" stroke-width="1" /><polyline fill="none" opacity="100" points="908.0,784.0 908.0,733.0" stroke="#000" stroke-width="1" /><polyline fill="none" opacity="100" points="904.0,784.0 904.0,733.0" stroke="#000" stroke-width="1" /><polyline fill="none" opacity="100" points="900.0,784.0 900.0,733.0" stroke="#000" stroke-width="1" /><polygon fill="#D0D0D0" opacity="100" points="1004.0,750.0 1004.0,759.0 1022.0,759.0 1022.0,750.0" stroke="#000" stroke-width="1" /><polyline fill="none" opacity="100" points="974.0,799.0 1003.0,799.0 1003.0,809.0" stroke="#000" stroke-width="1" /><text fill="#FFF" font-family="Arial" font-size="10" font-weight="normal" opacity="100" transform="rotate(-0.0 977.0,797.0) translate(0 10)" x="977.0" y="797.0">кассы</text><polyline fill="none" opacity="100" points="1004.0,756.0 962.0,756.0" stroke="#000" stroke-width="0.5" /><polygon fill="none" opacity="100" points="955.0,753.0 961.0,753.0 961.0,759.0 955.0,759.0" stroke="#000" stroke-width="1" /><polyline fill="none" opacity="100" points="960.0,763.0 956.0,763.0" stroke="#090" stroke-width="1" /><polyline fill="none" opacity="100" points="960.0,767.0 956.0,767.0" stroke="#090" stroke-width="1" /><polyline fill="none" opacity="100" points="960.0,771.0 956.0,771.0" stroke="#090" stroke-width="1" /><polyline fill="none" opacity="100" points="960.0,775.0 956.0,775.0" stroke="#090" stroke-width="1" /><polyline fill="none" opacity="100" points="960.0,779.0 956.0,779.0" stroke="#090" stroke-width="1" /><polyline fill="none" opacity="100" points="960.0,783.0 956.0,783.0" stroke="#090" stroke-width="1" /><polyline fill="none" opacity="100" points="960.0,787.0 956.0,787.0" stroke="#090" stroke-width="1" /><polyline fill="none" opacity="100" points="960.0,791.0 956.0,791.0" stroke="#090" stroke-width="1" /><polyline fill="none" opacity="100" points="960.0,795.0 956.0,795.0" stroke="#090" stroke-width="1" /><polyline fill="none" opacity="100" points="956.0,749.0 960.0,749.0" stroke="#F00" stroke-width="1" /><polyline fill="none" opacity="100" points="956.0,745.0 960.0,745.0" stroke="#F00" stroke-width="1" /><polyline fill="none" opacity="100" points="956.0,741.0 960.0,741.0" stroke="#F00" stroke-width="1" /><polyline fill="none" opacity="100" points="956.0,737.0 960.0,737.0" stroke="#F00" stroke-width="1" /><polyline fill="none" opacity="100" points="956.0,733.0 960.0,733.0" stroke="#F00" stroke-width="1" /><polyline fill="none" opacity="100" points="956.0,729.0 960.0,729.0" stroke="#F00" stroke-width="1" /><polyline fill="none" opacity="100" points="956.0,725.0 960.0,725.0" stroke="#F00" stroke-width="1" /><polyline fill="none" opacity="100" points="956.0,721.0 960.0,721.0" stroke="#F00" stroke-width="1" /><polyline fill="none" opacity="100" points="956.0,717.0 960.0,717.0" stroke="#F00" stroke-width="1" /><polyline fill="none" opacity="100" points="956.0,713.0 960.0,713.0" stroke="#F00" stroke-width="1" /><polyline fill="none" opacity="100" points="995.0,722.0 1016.0,722.0" stroke="#F00" stroke-width="1" /><polygon fill="#F00" opacity="100" points="1009.9147,723.6306 1016.0,722.0 1009.9147,720.3694" stroke="#F00" stroke-width="1" /><polyline fill="none" opacity="100" points="1016.0,788.0 996.0,788.0" stroke="#090" stroke-width="1" /><polygon fill="#090" opacity="100" points="1001.7956,786.4471 996.0,788.0 1001.7956,789.5529" stroke="#090" stroke-width="1" /><polygon fill="#34349C" opacity="100" points="968.0,794.0 964.0,794.0 964.0,795.0 968.0,795.0" stroke="#34349C" stroke-width="1" /><polygon fill="#F00" opacity="100" points="972.0,794.0 968.0,794.0 968.0,795.0 972.0,795.0" stroke="#F00" stroke-width="1" /><polygon fill="#30D5C8" opacity="100" points="706.0,425.0 676.0,425.0 676.0,-25.0 706.0,-25.0" stroke="#000" stroke-width="1" /><polygon fill="#30D5C8" opacity="100" points="596.0,-25.0 566.0,-25.0 566.0,425.0 596.0,425.0" stroke="#000" stroke-width="1" /><polyline fill="none" opacity="100" points="596.0,-25.0 676.0,-25.0" stroke="#000" stroke-width="1" /><polyline fill="none" opacity="100" points="596.0,425.0 676.0,425.0" stroke="#000" stroke-width="1" /><polygon fill="#EEE" opacity="100" points="672.0,334.0 676.0,334.0 676.0,425.0 596.0,425.0 596.0,334.0 600.0,334.0 600.0,410.0 672.0,410.0" stroke="#000" stroke-width="1" /><polygon fill="#EEE" opacity="100" points="676.0,320.0 676.0,233.0 653.0,233.0 653.0,271.0 619.0,271.0 619.0,233.0 596.0,233.0 596.0,320.0" stroke="#000" stroke-width="1" /><polygon fill="#EEE" opacity="100" points="676.0,204.0 676.0,50.0 649.0,50.0 649.0,116.0 625.0,116.0 625.0,50.0 596.0,50.0 596.0,204.0 619.0,204.0 619.0,166.0 654.0,166.0 654.0,204.0" stroke="#000" stroke-width="1" /><polygon fill="#FFF" opacity="0.8" points="707.0,426.0 709.0,204.0 675.0,205.0 675.0,232.0 690.0,233.0 690.0,426.0" stroke="#FFF" stroke-width="1" /><polygon fill="#FFF" opacity="0.8" points="583.0,426.0 583.0,233.0 597.0,232.0 597.0,205.0 565.0,204.0 565.0,426.0" stroke="#FFF" stroke-width="1" /><polygon fill="#FFF" opacity="0.8" points="687.0,-26.0 687.0,50.0 584.0,50.0 584.0,3.0 565.0,3.0 565.0,-17.0 584.0,-17.0 584.0,-26.0" stroke="#FFF" stroke-width="1" /><polyline fill="none" opacity="1.0" points="479.0,-47.0 479.0,3.0 584.0,3.0 584.0,50.0 625.0,50.0" stroke="#000" stroke-width="1" /><polyline fill="none" opacity="1.0" points="649.0,50.0 687.0,50.0 687.0,-45.0 584.0,-45.0 584.0,-17.0 512.0,-17.0 512.0,-57.0" stroke="#000" stroke-width="1" /><polyline fill="none" opacity="1.0" points="494.0,-57.0 494.0,-17.0" stroke="#000" stroke-width="1" /><polyline fill="none" opacity="1.0" points="494.0,-7.0 494.0,-2.0 541.0,-2.0" stroke="#000" stroke-width="0.5" /><polyline fill="none" opacity="1.0" points="625.0,-7.0 584.0,-7.0" stroke="#000" stroke-width="0.5" /><polyline fill="none" opacity="1.0" points="498.0,-57.0 498.0,-17.0" stroke="#000" stroke-width="0.5" /><polyline fill="none" opacity="1.0" points="498.0,-55.0 512.0,-55.0" stroke="#000" stroke-width="1" /><polyline fill="none" opacity="1.0" points="498.0,-51.0 512.0,-51.0" stroke="#000" stroke-width="1" /><polyline fill="none" opacity="1.0" points="498.0,-47.0 512.0,-47.0" stroke="#000" stroke-width="1" /><polyline fill="none" opacity="1.0" points="498.0,-43.0 512.0,-43.0" stroke="#000" stroke-width="1" /><polyline fill="none" opacity="1.0" points="498.0,-39.0 512.0,-39.0" stroke="#000" stroke-width="1" /><polyline fill="none" opacity="1.0" points="498.0,-35.0 512.0,-35.0" stroke="#000" stroke-width="1" /><polyline fill="none" opacity="1.0" points="498.0,-31.0 512.0,-31.0" stroke="#000" stroke-width="1" /><polyline fill="none" opacity="1.0" points="498.0,-27.0 512.0,-27.0" stroke="#000" stroke-width="1" /><polyline fill="none" opacity="1.0" points="498.0,-23.0 512.0,-23.0" stroke="#000" stroke-width="1" /><polyline fill="none" opacity="1.0" points="498.0,-19.0 512.0,-19.0" stroke="#000" stroke-width="1" /><polyline fill="none" opacity="1.0" points="520.0,-17.0 520.0,-2.0" stroke="#000" stroke-width="1" /><polyline fill="none" opacity="1.0" points="524.0,-17.0 524.0,-2.0" stroke="#000" stroke-width="1" /><polyline fill="none" opacity="1.0" points="528.0,-17.0 528.0,-2.0" stroke="#000" stroke-width="1" /><polyline fill="none" opacity="1.0" points="532.0,-17.0 532.0,-2.0" stroke="#000" stroke-width="1" /><polyline fill="none" opacity="1.0" points="536.0,-17.0 536.0,-2.0" stroke="#000" stroke-width="1" /><polygon fill="#D0D0D0" opacity="1.0" points="625.0,-13.0 625.0,8.0 629.0,8.0 629.0,-9.0 642.0,-9.0 642.0,8.0 646.0,8.0 646.0,-13.0" stroke="#000" stroke-width="1" /><polyline fill="none" opacity="1.0" points="630.0,8.0 641.0,8.0" stroke="#D0D0D0" stroke-width="1" /><polyline fill="none" opacity="1.0" points="646.0,53.0 628.0,53.0" stroke="#7F7F7F" stroke-width="1" /><polyline fill="none" opacity="1.0" points="646.0,57.0 628.0,57.0" stroke="#7F7F7F" stroke-width="1" /><polyline fill="none" opacity="1.0" points="646.0,61.0 628.0,61.0" stroke="#7F7F7F" stroke-width="1" /><polyline fill="none" opacity="1.0" points="646.0,65.0 628.0,65.0" stroke="#7F7F7F" stroke-width="1" /><polyline fill="none" opacity="1.0" points="646.0,69.0 628.0,69.0" stroke="#7F7F7F" stroke-width="1" /><polyline fill="none" opacity="1.0" points="646.0,73.0 628.0,73.0" stroke="#7F7F7F" stroke-width="1" /><polyline fill="none" opacity="1.0" points="646.0,77.0 628.0,77.0" stroke="#7F7F7F" stroke-width="1" /><polyline fill="none" opacity="1.0" points="646.0,81.0 628.0,81.0" stroke="#7F7F7F" stroke-width="1" /><polyline fill="none" opacity="1.0" points="646.0,85.0 628.0,85.0" stroke="#7F7F7F" stroke-width="1" /><polyline fill="none" opacity="1.0" points="646.0,89.0 628.0,89.0" stroke="#7F7F7F" stroke-width="1" /><polyline fill="none" opacity="1.0" points="646.0,93.0 628.0,93.0" stroke="#7F7F7F" stroke-width="1" /><polyline fill="none" opacity="1.0" points="646.0,97.0 628.0,97.0" stroke="#7F7F7F" stroke-width="1" /><polyline fill="none" opacity="1.0" points="646.0,101.0 628.0,101.0" stroke="#7F7F7F" stroke-width="1" /><polyline fill="none" opacity="1.0" points="646.0,105.0 628.0,105.0" stroke="#7F7F7F" stroke-width="1" /><polyline fill="none" opacity="1.0" points="646.0,109.0 628.0,109.0" stroke="#7F7F7F" stroke-width="1" /><polygon fill="#9B5509" opacity="1.0" points="625.0,46.0 628.0,46.0 628.0,114.0 625.0,114.0" stroke="#000" stroke-width="1" /><polygon fill="#9B5509" opacity="1.0" points="632.0,46.0 635.0,46.0 635.0,114.0 632.0,114.0" stroke="#000" stroke-width="1" /><polygon fill="#9B5509" opacity="1.0" points="639.0,46.0 642.0,46.0 642.0,114.0 639.0,114.0" stroke="#000" stroke-width="1" /><polygon fill="#9B5509" opacity="1.0" points="646.0,46.0 646.0,114.0 649.0,114.0 649.0,46.0" stroke="#000" stroke-width="1" /><polygon fill="#D0EFFF" opacity="1.0" points="479.0,-26.0 479.0,-40.0 494.0,-40.0 494.0,-26.0" stroke="#000" stroke-width="1" /><text fill="#000" font-family="Arial" font-size="6" font-weight="normal" opacity="1.0" transform="rotate(-0.0 480.0,-36.0) translate(0 6)" x="480.0" y="-36.0">лифт</text><polygon fill="#D0EFFF" opacity="1.0" points="629.0,3.0 629.0,-9.0 642.0,-9.0 642.0,3.0" stroke="#000" stroke-width="1" /><text fill="#000" font-family="Arial" font-size="6" font-weight="normal" opacity="1.0" transform="rotate(-0.0 629.0,-6.0) translate(0 6)" x="629.0" y="-6.0">лифт</text><polygon fill="#94949C" opacity="1.0" points="671.0,-28.0 671.0,-32.0 669.0,-32.0 669.0,-28.0" stroke="#94949C" stroke-width="1" /><polygon fill="#94949C" opacity="1.0" points="637.0,133.0 632.0,133.0 632.0,131.0 637.0,131.0" stroke="#94949C" stroke-width="1" /><polygon fill="#F00" opacity="1.0" points="671.0,-32.0 671.0,-36.0 669.0,-36.0 669.0,-32.0" stroke="#F00" stroke-width="1" /><polygon fill="#F00" opacity="1.0" points="642.0,133.0 637.0,133.0 637.0,131.0 642.0,131.0" stroke="#F00" stroke-width="1" /><polyline fill="none" opacity="1.0" points="622.0,-45.0 622.0,-53.0 660.0,-53.0 660.0,-45.0" stroke="#000" stroke-width="1" /><text fill="#000" font-family="Arial" font-size="10" font-weight="normal" opacity="1.0" transform="rotate(-0.0 629.0,-56.0) translate(0 10)" x="629.0" y="-56.0">кассы</text><polyline fill="none" opacity="1.0" points="608.0,31.0 608.0,20.0" stroke="#F00" stroke-width="1" /><polygon fill="#F00" opacity="1.0" points="608.8541,23.1876 608.0,20.0 607.1459,23.1876" stroke="#F00" stroke-width="1" /><polyline fill="none" opacity="1.0" points="670.0,9.0 670.0,21.0" stroke="#090" stroke-width="1" /><polygon fill="#090" opacity="1.0" points="669.0683,17.5227 670.0,21.0 670.9317,17.5227" stroke="#090" stroke-width="1" /><polygon fill="#FFF" opacity="1.0" points="649.0,-12.0 655.0,-12.0 655.0,-6.0 649.0,-6.0" stroke="#000" stroke-width="1" /><polyline fill="none" opacity="1.0" points="659.0,-11.0 659.0,-7.0" stroke="#090" stroke-width="1" /><polyline fill="none" opacity="1.0" points="663.0,-11.0 663.0,-7.0" stroke="#090" stroke-width="1" /><polyline fill="none" opacity="1.0" points="667.0,-11.0 667.0,-7.0" stroke="#090" stroke-width="1" /><polyline fill="none" opacity="1.0" points="671.0,-11.0 671.0,-7.0" stroke="#090" stroke-width="1" /><polyline fill="none" opacity="1.0" points="675.0,-11.0 675.0,-7.0" stroke="#090" stroke-width="1" /><polyline fill="none" opacity="1.0" points="679.0,-11.0 679.0,-7.0" stroke="#090" stroke-width="1" /><polyline fill="none" opacity="1.0" points="683.0,-11.0 683.0,-7.0" stroke="#090" stroke-width="1" /><polyline fill="none" opacity="1.0" points="621.0,7.0 621.0,11.0" stroke="#F00" stroke-width="1" /><polyline fill="none" opacity="1.0" points="617.0,7.0 617.0,11.0" stroke="#F00" stroke-width="1" /><polyline fill="none" opacity="1.0" points="613.0,7.0 613.0,11.0" stroke="#F00" stroke-width="1" /><polyline fill="none" opacity="1.0" points="609.0,7.0 609.0,11.0" stroke="#F00" stroke-width="1" /><polyline fill="none" opacity="1.0" points="605.0,7.0 605.0,11.0" stroke="#F00" stroke-width="1" /><polyline fill="none" opacity="1.0" points="601.0,7.0 601.0,11.0" stroke="#F00" stroke-width="1" /><polyline fill="none" opacity="1.0" points="597.0,7.0 597.0,11.0" stroke="#F00" stroke-width="1" /><polyline fill="none" opacity="1.0" points="593.0,7.0 593.0,11.0" stroke="#F00" stroke-width="1" /><polyline fill="none" opacity="1.0" points="589.0,7.0 589.0,11.0" stroke="#F00" stroke-width="1" /><polyline fill="none" opacity="1.0" points="719.0,764.0 817.0,764.0" stroke="#000" stroke-width="1" /><polyline fill="none" opacity="1.0" points="719.0,746.0 759.0,746.0" stroke="#000" stroke-width="1" /><polyline fill="none" opacity="1.0" points="759.0,679.0 759.0,653.0 748.0,630.0 748.0,609.0 729.0,590.0 563.0,590.0" stroke="#000" stroke-width="1" /><polyline fill="none" opacity="1.0" points="591.0,430.0 591.0,493.0" stroke="#000" stroke-width="1" /><polyline fill="none" opacity="1.0" points="682.0,430.0 682.0,492.0" stroke="#000" stroke-width="1" /><polyline fill="none" opacity="1.0" points="709.0,516.0 720.0,516.0 766.0,562.0 766.0,627.0 777.0,650.0 777.0,679.0" stroke="#000" stroke-width="1" /><polyline fill="none" opacity="1.0" points="777.0,746.0 817.0,746.0" stroke="#000" stroke-width="1" /><polyline fill="none" opacity="1.0" points="562.0,451.0 591.0,451.0" stroke="#000" stroke-width="1" /><polyline fill="none" opacity="1.0" points="562.0,455.0 591.0,455.0" stroke="#000" stroke-width="1" /><polyline fill="none" opacity="1.0" points="562.0,459.0 591.0,459.0" stroke="#000" stroke-width="1" /><polyline fill="none" opacity="1.0" points="562.0,463.0 591.0,463.0" stroke="#000" stroke-width="1" /><polyline fill="none" opacity="1.0" points="562.0,467.0 591.0,467.0" stroke="#000" stroke-width="1" /><polyline fill="none" opacity="1.0" points="562.0,471.0 591.0,471.0" stroke="#000" stroke-width="1" /><polyline fill="none" opacity="1.0" points="562.0,475.0 591.0,475.0" stroke="#000" stroke-width="1" /><polyline fill="none" opacity="1.0" points="562.0,479.0 591.0,479.0" stroke="#000" stroke-width="1" /><polyline fill="none" opacity="1.0" points="562.0,483.0 591.0,483.0" stroke="#000" stroke-width="1" /><polyline fill="none" opacity="1.0" points="562.0,487.0 591.0,487.0" stroke="#000" stroke-width="1" /><polyline fill="none" opacity="1.0" points="562.0,491.0 591.0,491.0" stroke="#000" stroke-width="1" /><polyline fill="none" opacity="1.0" points="682.0,451.0 709.0,451.0" stroke="#000" stroke-width="1" /><polyline fill="none" opacity="1.0" points="682.0,455.0 709.0,455.0" stroke="#000" stroke-width="1" /><polyline fill="none" opacity="1.0" points="682.0,459.0 709.0,459.0" stroke="#000" stroke-width="1" /><polyline fill="none" opacity="1.0" points="682.0,463.0 709.0,463.0" stroke="#000" stroke-width="1" /><polyline fill="none" opacity="1.0" points="682.0,467.0 709.0,467.0" stroke="#000" stroke-width="1" /><polyline fill="none" opacity="1.0" points="682.0,471.0 709.0,471.0" stroke="#000" stroke-width="1" /><polyline fill="none" opacity="1.0" points="682.0,475.0 709.0,475.0" stroke="#000" stroke-width="1" /><polyline fill="none" opacity="1.0" points="682.0,479.0 709.0,479.0" stroke="#000" stroke-width="1" /><polyline fill="none" opacity="1.0" points="682.0,483.0 709.0,483.0" stroke="#000" stroke-width="1" /><polyline fill="none" opacity="1.0" points="682.0,487.0 709.0,487.0" stroke="#000" stroke-width="1" /><polyline fill="none" opacity="1.0" points="682.0,491.0 709.0,491.0" stroke="#000" stroke-width="1" /><polyline fill="none" opacity="1.0" points="815.0,764.0 815.0,746.0" stroke="#000" stroke-width="1" /><polyline fill="none" opacity="1.0" points="811.0,764.0 811.0,746.0" stroke="#000" stroke-width="1" /><polyline fill="none" opacity="1.0" points="807.0,764.0 807.0,746.0" stroke="#000" stroke-width="1" /><polyline fill="none" opacity="1.0" points="803.0,764.0 803.0,746.0" stroke="#000" stroke-width="1" /><polyline fill="none" opacity="1.0" points="799.0,764.0 799.0,746.0" stroke="#000" stroke-width="1" /><polyline fill="none" opacity="1.0" points="795.0,764.0 795.0,746.0" stroke="#000" stroke-width="1" /><polyline fill="none" opacity="1.0" points="791.0,764.0 791.0,746.0" stroke="#000" stroke-width="1" /><polyline fill="none" opacity="1.0" points="787.0,764.0 787.0,746.0" stroke="#000" stroke-width="1" /><polyline fill="none" opacity="1.0" points="783.0,764.0 783.0,746.0" stroke="#000" stroke-width="1" /><polyline fill="none" opacity="1.0" points="779.0,764.0 779.0,746.0" stroke="#000" stroke-width="1" /><polyline fill="none" opacity="1.0" points="721.0,764.0 721.0,746.0" stroke="#000" stroke-width="1" /><polyline fill="none" opacity="1.0" points="725.0,764.0 725.0,746.0" stroke="#000" stroke-width="1" /><polyline fill="none" opacity="1.0" points="729.0,764.0 729.0,746.0" stroke="#000" stroke-width="1" /><polyline fill="none" opacity="1.0" points="733.0,764.0 733.0,746.0" stroke="#000" stroke-width="1" /><polyline fill="none" opacity="1.0" points="737.0,764.0 737.0,746.0" stroke="#000" stroke-width="1" /><polyline fill="none" opacity="1.0" points="741.0,764.0 741.0,746.0" stroke="#000" stroke-width="1" /><polyline fill="none" opacity="1.0" points="745.0,764.0 745.0,746.0" stroke="#000" stroke-width="1" /><polyline fill="none" opacity="1.0" points="749.0,764.0 749.0,746.0" stroke="#000" stroke-width="1" /><polyline fill="none" opacity="1.0" points="753.0,764.0 753.0,746.0" stroke="#000" stroke-width="1" /><polyline fill="none" opacity="1.0" points="757.0,764.0 757.0,746.0" stroke="#000" stroke-width="1" /><polygon fill="#D0D0D0" opacity="1.0" points="682.0,572.0 682.0,538.0 591.0,538.0 591.0,572.0" stroke="#000" stroke-width="1" /><polygon fill="#D0D0D0" opacity="1.0" points="591.0,516.0 591.0,430.0 682.0,430.0 682.0,516.0 675.0,516.0 675.0,493.0 598.0,493.0 598.0,516.0" stroke="#000" stroke-width="1" /><polyline fill="none" opacity="1.0" points="562.0,590.0 562.0,204.0 596.0,204.0" stroke="#000" stroke-width="1" /><polyline fill="none" opacity="1.0" points="676.0,204.0 709.0,204.0 709.0,516.0" stroke="#000" stroke-width="1" /><polyline fill="none" opacity="1.0" points="583.0,430.0 583.0,233.0 596.0,233.0" stroke="#000" stroke-width="1" /><polyline fill="none" opacity="1.0" points="676.0,233.0 690.0,233.0 690.0,430.0 583.0,430.0" stroke="#000" stroke-width="1" /><polyline fill="none" opacity="1.0" points="653.0,267.0 619.0,267.0" stroke="#000" stroke-width="1" /><polyline fill="none" opacity="1.0" points="653.0,263.0 619.0,263.0" stroke="#000" stroke-width="1" /><polyline fill="none" opacity="1.0" points="653.0,259.0 619.0,259.0" stroke="#000" stroke-width="1" /><polyline fill="none" opacity="1.0" points="653.0,255.0 619.0,255.0" stroke="#000" stroke-width="1" /><polyline fill="none" opacity="1.0" points="653.0,251.0 619.0,251.0" stroke="#000" stroke-width="1" /><polyline fill="none" opacity="1.0" points="653.0,247.0 619.0,247.0" stroke="#000" stroke-width="1" /><polyline fill="none" opacity="1.0" points="653.0,243.0 619.0,243.0" stroke="#000" stroke-width="1" /><polyline fill="none" opacity="1.0" points="653.0,239.0 619.0,239.0" stroke="#000" stroke-width="1" /><polyline fill="none" opacity="1.0" points="653.0,235.0 619.0,235.0" stroke="#000" stroke-width="1" /><polyline fill="none" opacity="1.0" points="619.0,170.0 654.0,170.0" stroke="#000" stroke-width="1" /><polyline fill="none" opacity="1.0" points="619.0,174.0 654.0,174.0" stroke="#000" stroke-width="1" /><polyline fill="none" opacity="1.0" points="619.0,178.0 654.0,178.0" stroke="#000" stroke-width="1" /><polyline fill="none" opacity="1.0" points="619.0,182.0 654.0,182.0" stroke="#000" stroke-width="1" /><polyline fill="none" opacity="1.0" points="619.0,186.0 654.0,186.0" stroke="#000" stroke-width="1" /><polyline fill="none" opacity="1.0" points="619.0,190.0 654.0,190.0" stroke="#000" stroke-width="1" /><polyline fill="none" opacity="1.0" points="619.0,194.0 654.0,194.0" stroke="#000" stroke-width="1" /><polyline fill="none" opacity="1.0" points="619.0,198.0 654.0,198.0" stroke="#000" stroke-width="1" /><polyline fill="none" opacity="1.0" points="619.0,202.0 654.0,202.0" stroke="#000" stroke-width="1" /><polyline fill="none" opacity="1.0" points="654.0,205.0 654.0,210.0 619.0,210.0 619.0,205.0" stroke="#EEE" stroke-width="1" /><polyline fill="none" opacity="1.0" points="653.0,232.0 653.0,227.0 619.0,227.0 619.0,232.0" stroke="#EEE" stroke-width="1" /><polyline fill="none" opacity="1.0" points="759.0,746.0 759.0,712.0" stroke="#D0D0D0" stroke-width="1" /><polyline fill="none" opacity="1.0" points="777.0,712.0 777.0,746.0" stroke="#D0D0D0" stroke-width="1" /><polyline fill="none" opacity="1.0" points="777.0,744.0 759.0,744.0" stroke="#D0D0D0" stroke-width="1" /><polyline fill="none" opacity="1.0" points="777.0,740.0 759.0,740.0" stroke="#D0D0D0" stroke-width="1" /><polyline fill="none" opacity="1.0" points="777.0,736.0 759.0,736.0" stroke="#D0D0D0" stroke-width="1" /><polygon fill="#FFF" opacity="0.8" points="675.0,334.0 675.0,320.0 710.0,320.0 710.0,334.0" stroke="#FFF" stroke-width="1" /><polygon fill="#FFF" opacity="0.8" points="561.0,334.0 561.0,320.0 597.0,320.0 597.0,334.0" stroke="#FFF" stroke-width="1" /><polyline fill="none" opacity="1.0" points="493.0,457.0 493.0,421.0 526.0,388.0 526.0,320.0 750.0,320.0 750.0,377.0" stroke="#000" stroke-width="1" /><polyline fill="none" opacity="1.0" points="506.0,424.0 506.0,465.0" stroke="#000" stroke-width="1" /><polyline fill="none" opacity="1.0" points="737.0,354.0 737.0,395.0" stroke="#000" stroke-width="1" /><polyline fill="none" opacity="1.0" points="719.0,395.0 719.0,334.0 672.0,334.0 672.0,410.0 600.0,410.0 600.0,334.0 545.0,334.0 545.0,374.0 552.0,374.0 552.0,397.0 524.0,425.0 524.0,465.0" stroke="#000" stroke-width="1" /><polyline fill="none" opacity="1.0" points="732.0,354.0 732.0,395.0" stroke="#000" stroke-width="0.5" /><polyline fill="none" opacity="1.0" points="510.0,465.0 510.0,424.0" stroke="#000" stroke-width="0.5" /><polyline fill="none" opacity="1.0" points="732.0,393.0 719.0,393.0" stroke="#000" stroke-width="1" /><polyline fill="none" opacity="1.0" points="732.0,389.0 719.0,389.0" stroke="#000" stroke-width="1" /><polyline fill="none" opacity="1.0" points="732.0,385.0 719.0,385.0" stroke="#000" stroke-width="1" /><polyline fill="none" opacity="1.0" points="732.0,381.0 719.0,381.0" stroke="#000" stroke-width="1" /><polyline fill="none" opacity="1.0" points="732.0,377.0 719.0,377.0" stroke="#000" stroke-width="1" /><polyline fill="none" opacity="1.0" points="732.0,373.0 719.0,373.0" stroke="#000" stroke-width="1" /><polyline fill="none" opacity="1.0" points="732.0,369.0 719.0,369.0" stroke="#000" stroke-width="1" /><polyline fill="none" opacity="1.0" points="732.0,365.0 719.0,365.0" stroke="#000" stroke-width="1" /><polyline fill="none" opacity="1.0" points="732.0,361.0 719.0,361.0" stroke="#000" stroke-width="1" /><polyline fill="none" opacity="1.0" points="732.0,357.0 719.0,357.0" stroke="#000" stroke-width="1" /><polyline fill="none" opacity="1.0" points="510.0,463.0 524.0,463.0" stroke="#000" stroke-width="1" /><polyline fill="none" opacity="1.0" points="510.0,459.0 524.0,459.0" stroke="#000" stroke-width="1" /><polyline fill="none" opacity="1.0" points="510.0,455.0 524.0,455.0" stroke="#000" stroke-width="1" /><polyline fill="none" opacity="1.0" points="510.0,451.0 524.0,451.0" stroke="#000" stroke-width="1" /><polyline fill="none" opacity="1.0" points="510.0,447.0 524.0,447.0" stroke="#000" stroke-width="1" /><polyline fill="none" opacity="1.0" points="510.0,443.0 524.0,443.0" stroke="#000" stroke-width="1" /><polyline fill="none" opacity="1.0" points="510.0,439.0 524.0,439.0" stroke="#000" stroke-width="1" /><polyline fill="none" opacity="1.0" points="510.0,435.0 524.0,435.0" stroke="#000" stroke-width="1" /><polyline fill="none" opacity="1.0" points="510.0,431.0 524.0,431.0" stroke="#000" stroke-width="1" /><polyline fill="none" opacity="1.0" points="510.0,427.0 524.0,427.0" stroke="#000" stroke-width="1" /><polygon fill="#D0D0D0" opacity="1.0" points="620.0,334.0 620.0,343.0 652.0,343.0 652.0,334.0" stroke="#000" stroke-width="1" /><polyline fill="none" opacity="1.0" points="644.0,362.0 626.0,362.0" stroke="#7F7F7F" stroke-width="1" /><polyline fill="none" opacity="1.0" points="644.0,366.0 626.0,366.0" stroke="#7F7F7F" stroke-width="1" /><polyline fill="none" opacity="1.0" points="644.0,370.0 626.0,370.0" stroke="#7F7F7F" stroke-width="1" /><polyline fill="none" opacity="1.0" points="644.0,374.0 626.0,374.0" stroke="#7F7F7F" stroke-width="1" /><polyline fill="none" opacity="1.0" points="644.0,378.0 626.0,378.0" stroke="#7F7F7F" stroke-width="1" /><polyline fill="none" opacity="1.0" points="644.0,382.0 626.0,382.0" stroke="#7F7F7F" stroke-width="1" /><polyline fill="none" opacity="1.0" points="644.0,386.0 626.0,386.0" stroke="#7F7F7F" stroke-width="1" /><polyline fill="none" opacity="1.0" points="644.0,390.0 626.0,390.0" stroke="#7F7F7F" stroke-width="1" /><polygon fill="#9B5509" opacity="1.0" points="623.0,355.0 626.0,355.0 626.0,397.0 623.0,397.0" stroke="#000" stroke-width="1" /><polygon fill="#9B5509" opacity="1.0" points="630.0,355.0 633.0,355.0 633.0,397.0 630.0,397.0" stroke="#000" stroke-width="1" /><polygon fill="#9B5509" opacity="1.0" points="637.0,355.0 640.0,355.0 640.0,397.0 637.0,397.0" stroke="#000" stroke-width="1" /><polygon fill="#9B5509" opacity="1.0" points="644.0,355.0 644.0,397.0 647.0,397.0 647.0,355.0" stroke="#000" stroke-width="1" /><polygon fill="#FFF" opacity="0.8" points="622.0,354.0 648.0,354.0 648.0,367.0 622.0,367.0" stroke="#FFF" stroke-width="1" /><polyline fill="none" opacity="1.0" points="621.0,378.0 621.0,368.0 649.0,368.0 649.0,378.0" stroke="#FFF" stroke-width="1" /><polygon fill="#94949C" opacity="1.0" points="637.0,292.0 642.0,292.0 642.0,290.0 637.0,290.0" stroke="#94949C" stroke-width="1" /><polygon fill="#F00" opacity="1.0" points="632.0,292.0 637.0,292.0 637.0,290.0 632.0,290.0" stroke="#F00" stroke-width="1" /><polygon fill="#D0EFFF" opacity="1.0" points="628.0,422.0 628.0,410.0 641.0,410.0 641.0,422.0" stroke="#000" stroke-width="1" /><text fill="#000" font-family="Arial" font-size="6" font-weight="normal" opacity="1.0" transform="rotate(-0.0 628.0,413.0) translate(0 6)" x="628.0" y="413.0">лифт</text><polygon fill="#D0EFFF" opacity="1.0" points="737.0,371.0 737.0,359.0 750.0,359.0 750.0,371.0" stroke="#000" stroke-width="1" /><text fill="#000" font-family="Arial" font-size="6" font-weight="normal" opacity="1.0" transform="rotate(-0.0 737.0,362.0) translate(0 6)" x="737.0" y="362.0">лифт</text><polygon fill="#D0EFFF" opacity="1.0" points="493.0,451.0 493.0,439.0 506.0,439.0 506.0,451.0" stroke="#000" stroke-width="1" /><text fill="#000" font-family="Arial" font-size="6" font-weight="normal" opacity="1.0" transform="rotate(-0.0 493.0,441.0) translate(0 6)" x="493.0" y="441.0">лифт</text><polyline fill="none" opacity="1.0" points="615.0,399.0 615.0,389.0" stroke="#F00" stroke-width="1" /><polygon fill="#F00" opacity="1.0" points="615.7765,391.8978 615.0,389.0 614.2235,391.8978" stroke="#F00" stroke-width="1" /><polyline fill="none" opacity="1.0" points="664.0,350.0 664.0,361.0" stroke="#090" stroke-width="1" /><polygon fill="#090" opacity="1.0" points="663.1459,357.8124 664.0,361.0 664.8541,357.8124" stroke="#090" stroke-width="1" /><polygon fill="none" opacity="1.0" points="664.0,386.0 664.0,380.0 670.0,380.0 670.0,386.0" stroke="#000" stroke-width="1" /><polyline fill="none" opacity="1.0" points="650.0,381.0 650.0,385.0" stroke="#090" stroke-width="1" /><polyline fill="none" opacity="1.0" points="654.0,381.0 654.0,385.0" stroke="#090" stroke-width="1" /><polyline fill="none" opacity="1.0" points="658.0,381.0 658.0,385.0" stroke="#090" stroke-width="1" /><polyline fill="none" opacity="1.0" points="662.0,381.0 662.0,385.0" stroke="#090" stroke-width="1" /><polyline fill="none" opacity="1.0" points="666.0,381.0 666.0,385.0" stroke="#090" stroke-width="1" /><polyline fill="none" opacity="1.0" points="622.0,381.0 622.0,385.0" stroke="#F00" stroke-width="1" /><polyline fill="none" opacity="1.0" points="618.0,381.0 618.0,385.0" stroke="#F00" stroke-width="1" /><polyline fill="none" opacity="1.0" points="614.0,381.0 614.0,385.0" stroke="#F00" stroke-width="1" /><polyline fill="none" opacity="1.0" points="610.0,381.0 610.0,385.0" stroke="#F00" stroke-width="1" /><polyline fill="none" opacity="1.0" points="606.0,381.0 606.0,385.0" stroke="#F00" stroke-width="1" /><polyline fill="none" opacity="1.0" points="602.0,381.0 602.0,385.0" stroke="#F00" stroke-width="1" /><polygon fill="#FFF" opacity="1.0" points="672.0,346.0 679.0,346.0 679.0,373.0 672.0,373.0" stroke="#000" stroke-width="1" /><text fill="#000" font-family="Arial" font-size="10" font-weight="normal" opacity="1.0" transform="rotate(90.0 683.0,347.0) translate(0 10)" x="683.0" y="347.0">кассы</text><text fill="#30D5C8" font-family="Arial" font-size="25" font-weight="bold" opacity="1.0" transform="rotate(90.0 812.0,23.0) translate(0 25)" x="812.0" y="23.0">Проспект Вернадского (БКЛ)</text><text fill="#30D5C8" font-family="Arial" font-size="20" font-weight="normal" opacity="1.0" transform="rotate(90.0 567.0,176.0) translate(0 20)" x="567.0" y="176.0">Новаторская &gt;&gt;</text><text fill="#30D5C8" font-family="Arial" font-size="20" font-weight="normal" opacity="1.0" transform="rotate(90.0 730.0,-24.0) translate(0 20)" x="730.0" y="-24.0">&lt;&lt; Мичуринский проспект</text><text fill="#00AFAF" font-family="Arial" font-size="15" font-weight="normal" opacity="1.0" transform="rotate(-0.0 414.0,1002.0) translate(0 15)" x="414.0" y="1002.0">проспект Вернадского</text><text fill="#00AFAF" font-family="Arial" font-size="15" font-weight="normal" opacity="1.0" transform="rotate(90.0 675.0,900.0) translate(0 15)" x="675.0" y="900.0">улица Удальцова</text><text fill="#00AFAF" font-family="Arial" font-size="15" font-weight="normal" opacity="1.0" transform="rotate(90.0 600.0,-180.0) translate(0 15)" x="600.0" y="-180.0">улица Удальцова</text><text fill="#00AFAF" font-family="Arial" font-size="15" font-weight="normal" opacity="1.0" transform="rotate(90.0 1040.0,398.0) translate(0 15)" x="1040.0" y="398.0">&lt;&lt; парк 50-летия Октября</text><text fill="#00AFAF" font-family="Arial" font-size="15" font-weight="normal" opacity="1.0" x="338.75" y="619.5">к/т "Звёздный"</text><text fill="#00AFAF" font-family="Arial" font-size="15" font-weight="normal" opacity="1.0" x="1047.75" y="727.5">ТЦ "Обувь Сити"</text><g transform="rotate(45.0,550.0,610.0)"><text fill="#FFD900" font-family="Arial" font-size="25" font-weight="normal" opacity="1.0" x="324.25" y="864.5">1</text><text fill="#FFD900" font-family="Arial" font-size="25" font-weight="normal" opacity="1.0" x="383.25" y="797.5">2</text><text fill="#FFD900" font-family="Arial" font-size="25" font-weight="normal" opacity="1.0" x="586.25" y="998.5">3</text><text fill="#FFD900" font-family="Arial" font-size="25" font-weight="normal" opacity="1.0" x="513.25" y="1068.5">4</text><text fill="#FFD900" font-family="Arial" font-size="25" font-weight="normal" opacity="1.0" x="740.25" y="1140.5">5</text><text fill="#FFD900" font-family="Arial" font-size="25" font-weight="normal" opacity="1.0" x="669.25" y="1205.5">6</text><text fill="#FFD900" font-family="Arial" font-size="25" font-weight="normal" opacity="1.0" x="1011.25" y="364.5">7</text><text fill="#FFD900" font-family="Arial" font-size="25" font-weight="normal" opacity="1.0" x="550.25" y="303.5">8</text><text fill="#FFD900" font-family="Arial" font-size="25" font-weight="normal" opacity="1.0" x="378.25" y="578.5">9</text><text fill="#FFD900" font-family="Arial" font-size="25" font-weight="normal" opacity="1.0" x="57.25" y="150.5">10</text></g></g></g></svg>