<?xml version="1.0" encoding="utf-8" ?>
<svg baseProfile="tiny" height="650px" version="1.2" width="850px" xmlns="http://www.w3.org/2000/svg" xmlns:ev="http://www.w3.org/2001/xml-events" xmlns:xlink="http://www.w3.org/1999/xlink"><defs /><g><g transform="rotate(30.0,425.0,325.0)"><polygon fill="#AC24AC" opacity="100" points="215.0,211.0 665.0,211.0 665.0,241.0 215.0,241.0" stroke="#000" stroke-width="1" /><polygon fill="#AC24AC" opacity="100" points="215.0,321.0 665.0,321.0 665.0,351.0 215.0,351.0" stroke="#000" stroke-width="1" /><text fill="#AC24AC" font-family="Arial" font-size="20" font-weight="normal" opacity="100" transform="rotate(-0.0 219.0,186.0) translate(0 20)" x="219.0" y="186.0">&lt;&lt; Пролетарская</text><text fill="#AC24AC" font-family="Arial" font-size="20" font-weight="normal" opacity="100" transform="rotate(-0.0 516.0,351.0) translate(0 20)" x="516.0" y="351.0">Текстильщики &gt;&gt;</text><text fill="#AC24AC" font-family="Arial" font-size="25" font-weight="bold" opacity="100" transform="rotate(-0.0 304.0,276.0) translate(0 25)" x="304.0" y="276.0">Волгоградский проспект</text><polygon fill="#34349C" opacity="100" points="445.0,281.0 445.0,277.0 446.0,277.0 446.0,281.0" stroke="#34349C" stroke-width="1" /><polygon fill="#F00" opacity="100" points="445.0,285.0 445.0,281.0 446.0,281.0 446.0,285.0" stroke="#F00" stroke-width="1" /><polyline fill="none" opacity="100" points="170.0,226.0 47.0,226.0 47.0,405.0 7.0,405.0" stroke="#000" stroke-width="1" /><polyline fill="none" opacity="100" points="170.0,338.0 95.0,338.0 95.0,405.0 135.0,405.0" stroke="#000" stroke-width="1" /><polyline fill="none" opacity="100" points="135.0,428.0 7.0,428.0" stroke="#000" stroke-width="1" /><polyline fill="none" opacity="100" points="170.0,251.0 170.0,313.0" stroke="#000" stroke-width="1" /><polyline fill="none" opacity="100" points="174.0,251.0 174.0,313.0" stroke="#000" stroke-width="1" /><polyline fill="none" opacity="100" points="178.0,251.0 178.0,313.0" stroke="#000" stroke-width="1" /><polyline fill="none" opacity="100" points="182.0,251.0 182.0,313.0" stroke="#000" stroke-width="1" /><polyline fill="none" opacity="100" points="186.0,251.0 186.0,313.0" stroke="#000" stroke-width="1" /><polyline fill="none" opacity="100" points="190.0,251.0 190.0,313.0" stroke="#000" stroke-width="1" /><polyline fill="none" opacity="100" points="194.0,251.0 194.0,313.0" stroke="#000" stroke-width="1" /><polyline fill="none" opacity="100" points="198.0,251.0 198.0,313.0" stroke="#000" stroke-width="1" /><polyline fill="none" opacity="100" points="202.0,251.0 202.0,313.0" stroke="#000" stroke-width="1" /><polyline fill="none" opacity="100" points="206.0,251.0 206.0,313.0" stroke="#000" stroke-width="1" /><polyline fill="none" opacity="100" points="210.0,251.0 210.0,313.0" stroke="#000" stroke-width="1" /><polyline fill="none" opacity="100" points="214.0,251.0 214.0,313.0" stroke="#000" stroke-width="1" /><polyline fill="none" opacity="100" points="9.0,405.0 9.0,428.0" stroke="#000" stroke-width="1" /><polyline fill="none" opacity="100" points="13.0,405.0 13.0,428.0" stroke="#000" stroke-width="1" /><polyline fill="none" opacity="100" points="17.0,405.0 17.0,428.0" stroke="#000" stroke-width="1" /><polyline fill="none" opacity="100" points="21.0,405.0 21.0,428.0" stroke="#000" stroke-width="1" /><polyline fill="none" opacity="100" points="25.0,405.0 25.0,428.0" stroke="#000" stroke-width="1" /><polyline fill="none" opacity="100" points="29.0,405.0 29.0,428.0" stroke="#000" stroke-width="1" /><polyline fill="none" opacity="100" points="33.0,405.0 33.0,428.0" stroke="#000" stroke-width="1" /><polyline fill="none" opacity="100" points="37.0,405.0 37.0,428.0" stroke="#000" stroke-width="1" /><polyline fill="none" opacity="100" points="41.0,405.0 41.0,428.0" stroke="#000" stroke-width="1" /><polyline fill="none" opacity="100" points="45.0,405.0 45.0,428.0" stroke="#000" stroke-width="1" /><polyline fill="none" opacity="100" points="133.0,405.0 133.0,428.0" stroke="#000" stroke-width="1" /><polyline fill="none" opacity="100" points="129.0,405.0 129.0,428.0" stroke="#000" stroke-width="1" /><polyline fill="none" opacity="100" points="125.0,405.0 125.0,428.0" stroke="#000" stroke-width="1" /><polyline fill="none" opacity="100" points="121.0,405.0 121.0,428.0" stroke="#000" stroke-width="1" /><polyline fill="none" opacity="100" points="117.0,405.0 117.0,428.0" stroke="#000" stroke-width="1" /><polyline fill="none" opacity="100" points="113.0,405.0 113.0,428.0" stroke="#000" stroke-width="1" /><polyline fill="none" opacity="100" points="109.0,405.0 109.0,428.0" stroke="#000" stroke-width="1" /><polyline fill="none" opacity="100" points="105.0,405.0 105.0,428.0" stroke="#000" stroke-width="1" /><polyline fill="none" opacity="100" points="101.0,405.0 101.0,428.0" stroke="#000" stroke-width="1" /><polyline fill="none" opacity="100" points="97.0,405.0 97.0,428.0" stroke="#000" stroke-width="1" /><polyline fill="none" opacity="100" points="70.0,226.0 70.0,216.0 108.0,216.0 108.0,226.0" stroke="#000" stroke-width="1" /><text fill="#FFF" font-family="Arial" font-size="10" font-weight="normal" opacity="100" transform="rotate(-0.0 77.0,214.0) translate(0 10)" x="77.0" y="214.0">кассы</text><polyline fill="none" opacity="100" points="123.0,292.0 123.0,294.0 89.0,294.0 72.0,311.0 72.0,340.0" stroke="#000" stroke-width="0.5" /><polygon fill="none" opacity="100" points="126.0,236.0 119.0,236.0 119.0,229.0 126.0,229.0" stroke="#000" stroke-width="1" /><polyline fill="none" opacity="100" points="120.0,240.0 125.0,240.0" stroke="#090" stroke-width="1" /><polyline fill="none" opacity="100" points="120.0,244.0 125.0,244.0" stroke="#090" stroke-width="1" /><polyline fill="none" opacity="100" points="120.0,248.0 125.0,248.0" stroke="#090" stroke-width="1" /><polyline fill="none" opacity="100" points="120.0,252.0 125.0,252.0" stroke="#090" stroke-width="1" /><polyline fill="none" opacity="100" points="120.0,256.0 125.0,256.0" stroke="#090" stroke-width="1" /><polyline fill="none" opacity="100" points="120.0,260.0 125.0,260.0" stroke="#090" stroke-width="1" /><polyline fill="none" opacity="100" points="120.0,264.0 125.0,264.0" stroke="#090" stroke-width="1" /><polyline fill="none" opacity="100" points="120.0,268.0 125.0,268.0" stroke="#090" stroke-width="1" /><polyline fill="none" opacity="100" points="120.0,272.0 125.0,272.0" stroke="#090" stroke-width="1" /><polyline fill="none" opacity="100" points="120.0,276.0 125.0,276.0" stroke="#090" stroke-width="1" /><polyline fill="none" opacity="100" points="120.0,280.0 125.0,280.0" stroke="#090" stroke-width="1" /><polyline fill="none" opacity="100" points="120.0,284.0 125.0,284.0" stroke="#090" stroke-width="1" /><polyline fill="none" opacity="100" points="120.0,288.0 125.0,288.0" stroke="#090" stroke-width="1" /><polyline fill="none" opacity="100" points="120.0,292.0 125.0,292.0" stroke="#090" stroke-width="1" /><polyline fill="none" opacity="100" points="82.0,338.0 82.0,354.0" stroke="#F00" stroke-width="1" /><polygon fill="#F00" opacity="100" points="80.7577,349.3636 82.0,354.0 83.2423,349.3636" stroke="#F00" stroke-width="1" /><polyline fill="none" opacity="100" points="60.0,354.0 60.0,338.0" stroke="#090" stroke-width="1" /><polygon fill="#090" opacity="100" points="61.2423,342.6364 60.0,338.0 58.7577,342.6364" stroke="#090" stroke-width="1" /><polyline fill="none" opacity="100" points="96.0,262.0 111.0,262.0" stroke="#090" stroke-width="1" /><polygon fill="#090" opacity="100" points="106.6533,263.1647 111.0,262.0 106.6533,260.8353" stroke="#090" stroke-width="1" /><polygon fill="#34349C" opacity="100" points="140.0,320.0 136.0,320.0 136.0,321.0 140.0,321.0" stroke="#34349C" stroke-width="1" /><polygon fill="#F00" opacity="100" points="144.0,320.0 140.0,320.0 140.0,321.0 144.0,321.0" stroke="#F00" stroke-width="1" /><polyline fill="none" opacity="100" points="714.0,226.0 714.0,252.0 665.0,252.0 665.0,211.0" stroke="#000" stroke-width="1" /><polyline fill="none" opacity="100" points="665.0,351.0 665.0,311.0 714.0,311.0 714.0,338.0" stroke="#000" stroke-width="1" /><polyline fill="none" opacity="100" points="170.0,226.0 170.0,251.0 215.0,251.0 215.0,211.0" stroke="#000" stroke-width="1" /><polyline fill="none" opacity="100" points="215.0,351.0 215.0,313.0 170.0,313.0 170.0,338.0" stroke="#000" stroke-width="1" /><polyline fill="none" opacity="100" points="714.0,226.0 837.0,226.0 837.0,405.0 877.0,405.0" stroke="#000" stroke-width="1" /><polyline fill="none" opacity="100" points="714.0,338.0 789.0,338.0 789.0,405.0 768.0,405.0 768.0,414.0 739.0,443.0" stroke="#000" stroke-width="1" /><polyline fill="none" opacity="100" points="877.0,428.0 784.0,428.0 754.0,458.0" stroke="#000" stroke-width="1" /><polyline fill="none" opacity="100" points="714.0,252.0 714.0,311.0" stroke="#000" stroke-width="1" /><polyline fill="none" opacity="100" points="710.0,252.0 710.0,311.0" stroke="#000" stroke-width="1" /><polyline fill="none" opacity="100" points="706.0,252.0 706.0,311.0" stroke="#000" stroke-width="1" /><polyline fill="none" opacity="100" points="702.0,252.0 702.0,311.0" stroke="#000" stroke-width="1" /><polyline fill="none" opacity="100" points="698.0,252.0 698.0,311.0" stroke="#000" stroke-width="1" /><polyline fill="none" opacity="100" points="694.0,252.0 694.0,311.0" stroke="#000" stroke-width="1" /><polyline fill="none" opacity="100" points="690.0,252.0 690.0,311.0" stroke="#000" stroke-width="1" /><polyline fill="none" opacity="100" points="686.0,252.0 686.0,311.0" stroke="#000" stroke-width="1" /><polyline fill="none" opacity="100" points="682.0,252.0 682.0,311.0" stroke="#000" stroke-width="1" /><polyline fill="none" opacity="100" points="678.0,252.0 678.0,311.0" stroke="#000" stroke-width="1" /><polyline fill="none" opacity="100" points="674.0,252.0 674.0,311.0" stroke="#000" stroke-width="1" /><polyline fill="none" opacity="100" points="670.0,252.0 670.0,311.0" stroke="#000" stroke-width="1" /><polyline fill="none" opacity="100" points="666.0,252.0 666.0,311.0" stroke="#000" stroke-width="1" /><polyline fill="none" opacity="100" points="875.0,405.0 875.0,428.0" stroke="#000" stroke-width="1" /><polyline fill="none" opacity="100" points="871.0,405.0 871.0,428.0" stroke="#000" stroke-width="1" /><polyline fill="none" opacity="100" points="867.0,405.0 867.0,428.0" stroke="#000" stroke-width="1" /><polyline fill="none" opacity="100" points="863.0,405.0 863.0,428.0" stroke="#000" stroke-width="1" /><polyline fill="none" opacity="100" points="859.0,405.0 859.0,428.0" stroke="#000" stroke-width="1" /><polyline fill="none" opacity="100" points="855.0,405.0 855.0,428.0" stroke="#000" stroke-width="1" /><polyline fill="none" opacity="100" points="851.0,405.0 851.0,428.0" stroke="#000" stroke-width="1" /><polyline fill="none" opacity="100" points="847.0,405.0 847.0,428.0" stroke="#000" stroke-width="1" /><polyline fill="none" opacity="100" points="843.0,405.0 843.0,428.0" stroke="#000" stroke-width="1" /><polyline fill="none" opacity="100" points="839.0,405.0 839.0,428.0" stroke="#000" stroke-width="1" /><polyline fill="none" opacity="100" points="741.0,441.0 756.0,456.0" stroke="#000" stroke-width="1" /><polyline fill="none" opacity="100" points="743.8284,438.1716 758.8284,453.1716" stroke="#000" stroke-width="1" /><polyline fill="none" opacity="100" points="746.6569,435.3431 761.6569,450.3431" stroke="#000" stroke-width="1" /><polyline fill="none" opacity="100" points="749.4853,432.5147 764.4853,447.5147" stroke="#000" stroke-width="1" /><polyline fill="none" opacity="100" points="752.3137,429.6863 767.3137,444.6863" stroke="#000" stroke-width="1" /><polyline fill="none" opacity="100" points="755.1421,426.8579 770.1421,441.8579" stroke="#000" stroke-width="1" /><polyline fill="none" opacity="100" points="757.9706,424.0294 772.9706,439.0294" stroke="#000" stroke-width="1" /><polyline fill="none" opacity="100" points="760.799,421.201 775.799,436.201" stroke="#000" stroke-width="1" /><polyline fill="none" opacity="100" points="763.6274,418.3726 778.6274,433.3726" stroke="#000" stroke-width="1" /><polyline fill="none" opacity="100" points="766.4558,415.5442 781.4558,430.5442" stroke="#000" stroke-width="1" /><polyline fill="none" opacity="100" points="776.0,226.0 776.0,217.0 809.0,217.0 809.0,226.0" stroke="#000" stroke-width="1" /><text fill="#FFF" font-family="Arial" font-size="10" font-weight="normal" opacity="100" transform="rotate(-0.0 781.0,214.0) translate(0 10)" x="781.0" y="214.0">кассы</text><polyline fill="none" opacity="100" points="813.0,339.0 813.0,313.0 789.0,294.0 756.0,294.0 756.0,292.0" stroke="#000" stroke-width="0.5" /><polygon fill="none" opacity="100" points="753.0,236.0 760.0,236.0 760.0,229.0 753.0,229.0" stroke="#000" stroke-width="1" /><polyline fill="none" opacity="100" points="753.0,240.0 760.0,240.0" stroke="#090" stroke-width="1" /><polyline fill="none" opacity="100" points="753.0,244.0 760.0,244.0" stroke="#090" stroke-width="1" /><polyline fill="none" opacity="100" points="753.0,248.0 760.0,248.0" stroke="#090" stroke-width="1" /><polyline fill="none" opacity="100" points="753.0,252.0 760.0,252.0" stroke="#090" stroke-width="1" /><polyline fill="none" opacity="100" points="753.0,256.0 760.0,256.0" stroke="#090" stroke-width="1" /><polyline fill="none" opacity="100" points="753.0,260.0 760.0,260.0" stroke="#090" stroke-width="1" /><polyline fill="none" opacity="100" points="753.0,264.0 760.0,264.0" stroke="#090" stroke-width="1" /><polyline fill="none" opacity="100" points="753.0,268.0 760.0,268.0" stroke="#090" stroke-width="1" /><polyline fill="none" opacity="100" points="753.0,272.0 760.0,272.0" stroke="#090" stroke-width="1" /><polyline fill="none" opacity="100" points="753.0,276.0 760.0,276.0" stroke="#090" stroke-width="1" /><polyline fill="none" opacity="100" points="753.0,280.0 760.0,280.0" stroke="#090" stroke-width="1" /><polyline fill="none" opacity="100" points="753.0,284.0 760.0,284.0" stroke="#090" stroke-width="1" /><polyline fill="none" opacity="100" points="753.0,288.0 760.0,288.0" stroke="#090" stroke-width="1" /><polyline fill="none" opacity="100" points="753.0,292.0 760.0,292.0" stroke="#090" stroke-width="1" /><polyline fill="none" opacity="100" points="802.0,342.0 802.0,355.0" stroke="#F00" stroke-width="1" /><polygon fill="#F00" opacity="100" points="800.9906,351.2329 802.0,355.0 803.0094,351.2329" stroke="#F00" stroke-width="1" /><polyline fill="none" opacity="100" points="824.0,355.0 824.0,342.0" stroke="#090" stroke-width="1" /><polygon fill="#090" opacity="100" points="825.0094,345.7671 824.0,342.0 822.9906,345.7671" stroke="#090" stroke-width="1" /><polyline fill="none" opacity="100" points="790.0,262.0 773.0,262.0" stroke="#090" stroke-width="1" /><polygon fill="#090" opacity="100" points="777.9262,260.68 773.0,262.0 777.9262,263.32" stroke="#090" stroke-width="1" /><polygon fill="#34349C" opacity="100" points="753.0,335.0 749.0,335.0 749.0,336.0 753.0,336.0" stroke="#34349C" stroke-width="1" /><polygon fill="#F00" opacity="100" points="757.0,335.0 753.0,335.0 753.0,336.0 757.0,336.0" stroke="#F00" stroke-width="1" /><text fill="#00AFAF" font-family="Arial" font-size="15" font-weight="normal" opacity="100" transform="rotate(-0.0 159.0,103.0) translate(0 15)" x="159.0" y="103.0">Волгоградский</text><text fill="#00AFAF" font-family="Arial" font-size="15" font-weight="normal" opacity="100" transform="rotate(-0.0 170.0,114.0) translate(0 15)" x="170.0" y="114.0">проспект</text><text fill="#00AFAF" font-family="Arial" font-size="15" font-weight="normal" opacity="100" transform="rotate(-0.0 679.0,103.0) translate(0 15)" x="679.0" y="103.0">Волгоградский</text><text fill="#00AFAF" font-family="Arial" font-size="15" font-weight="normal" opacity="100" transform="rotate(-0.0 688.0,116.0) translate(0 15)" x="688.0" y="116.0">проспект</text><text fill="#00AFAF" font-family="Arial" font-size="15" font-weight="normal" opacity="100" transform="rotate(-46.0 634.0,484.0) translate(0 15)" x="634.0" y="484.0">Новоостаповская улица</text><g transform="rotate(-30.0,425.0,325.0)"><text fill="#FFD900" font-family="Arial" font-size="25" font-weight="normal" opacity="100" x="772.25" y="602.5">1</text><text fill="#FFD900" font-family="Arial" font-size="25" font-weight="normal" opacity="100" x="638.25" y="637.5">2</text><text fill="#FFD900" font-family="Arial" font-size="25" font-weight="normal" opacity="100" x="99.25" y="299.5">3</text><text fill="#FFD900" font-family="Arial" font-size="25" font-weight="normal" opacity="100" x="11.25" y="246.5">4</text></g></g></g></svg>