<?xml version="1.0" encoding="utf-8" ?>
<svg baseProfile="tiny" height="910px" version="1.2" width="750px" xmlns="http://www.w3.org/2000/svg" xmlns:ev="http://www.w3.org/2001/xml-events" xmlns:xlink="http://www.w3.org/1999/xlink"><defs /><g><g transform="rotate(-50.0,375.0,455.0)"><polygon fill="#B4E3EB" opacity="100" points="270.0,397.0 247.0,363.0 217.0,311.0 190.0,258.0 168.0,207.0 149.0,155.0 315.0,16.0 328.0,75.0 346.0,139.0 371.0,206.0 402.0,269.0 430.0,317.0 459.0,360.0 488.0,398.0" stroke="#B4E3EB" stroke-width="1" /><polygon fill="#B4E3EB" opacity="100" points="639.0,572.0 657.0,589.0 675.0,605.0 701.0,628.0 727.0,649.0 595.0,760.0 573.0,741.0 549.0,719.0 524.0,695.0 493.0,665.0 461.0,631.0 429.0,597.0 408.0,572.0" stroke="#B4E3EB" stroke-width="1" /><polyline fill="none" opacity="100" points="270.0,397.0 267.5078,393.7344 264.9062,390.1875 262.1929,386.3552 259.375,382.25 256.4673,377.8967 253.4453,373.2539 250.3018,368.3091 247.0,363.0 243.4717,357.2104 239.8047,351.0898 236.0571,344.7371 232.25,338.1875 228.4155,331.4954 224.5781,324.7031 220.7559,317.8418 217.0,311.0 213.3848,304.3066 209.8594,297.6719 206.3994,291.0518 203.0,284.4375 199.6396,277.792 196.3438,271.1562 193.125,264.5508 190.0,258.0 187.0,251.5508 184.0938,245.1562 181.2622,238.7878 178.5,232.4375 175.7964,226.0891 173.1484,219.7383 170.5537,213.3813 168.0,207.0 165.4697,200.5679 162.9766,194.1055 160.5278,187.6238 158.125,181.125 155.7729,174.6165 153.4688,168.0938 151.2109,161.5547 149.0,155.0" stroke="#34949C" stroke-width="1" /><polyline fill="none" opacity="100" points="315.0,16.0 316.3516,23.1016 317.7812,30.2812 319.2886,37.5396 320.875,44.875 322.5435,52.2847 324.2891,59.7734 326.1104,67.3428 328.0,75.0 329.9443,82.7588 331.9609,90.6016 334.0618,98.5183 336.25,106.5 338.53,114.5305 340.9102,122.6211 343.395,130.7729 346.0,139.0 348.7495,147.3325 351.6211,155.7227 354.6038,164.1394 357.6875,172.5625 360.8513,180.9602 364.1172,189.3359 367.4912,197.6826 371.0,206.0 374.6963,214.3018 378.5078,222.5391 382.3845,230.6707 386.3125,238.6875 390.2737,246.5891 394.2305,254.3086 398.1616,261.812 402.0,269.0 405.6392,275.7075 409.1758,282.0977 412.6665,288.2693 416.125,294.25 419.5835,300.0959 423.043,305.8203 426.5054,311.4346 430.0,317.0 433.5688,322.6045 437.1758,328.1797 440.8003,333.689 444.4375,339.125 448.0747,344.4634 451.7148,349.7188 455.3589,354.8984 459.0,360.0 462.6294,365.0234 466.2539,369.9688 469.8772,374.8359 473.5,379.625 477.1248,384.3359 480.75,388.9688 484.375,393.5234 488.0,398.0" stroke="#34949C" stroke-width="1" /><polyline fill="none" opacity="100" points="639.0,572.0 641.25,574.1797 643.5,576.3438 645.748,578.4902 648.0,580.625 650.2676,582.7598 652.5312,584.875 654.7852,586.9648 657.0,589.0 659.1211,590.9258 661.2188,592.8125 663.3418,594.7092 665.5,596.625 667.7051,598.5701 670.0,600.5898 672.4062,602.7065 675.0,605.0 677.9062,607.6021 681.0,610.3789 684.2051,613.2485 687.5,616.1875 690.8418,619.1499 694.2188,622.1211 697.6211,625.0894 701.0,628.0 704.2852,630.7739 707.5312,633.4727 710.7676,636.1292 714.0,638.75 717.248,641.3572 720.5,643.9375 723.75,646.4844 727.0,649.0" stroke="#34949C" stroke-width="1" /><polyline fill="none" opacity="100" points="595.0,760.0 592.3594,757.7891 589.6875,755.5312 586.9841,753.2263 584.25,750.875 581.4866,748.4788 578.6914,746.0352 575.8638,743.5435 573.0,741.0 570.0933,738.3979 567.1523,735.7461 564.1843,733.0513 561.1875,730.3125 558.1575,727.5269 555.1094,724.707 552.0488,721.8579 549.0,719.0 546.0059,716.1694 543.0156,713.3242 539.9951,710.4368 536.9375,707.5 533.833,704.5027 530.6562,701.4297 527.3945,698.2725 524.0,695.0 520.3945,691.5635 516.6562,688.0078 512.8325,684.3584 508.9375,680.625 504.9995,676.8291 501.0234,672.9609 497.0146,669.0186 493.0,665.0 489.0166,660.8955 485.0391,656.7266 481.0522,652.5071 477.0625,648.25 473.0767,643.9753 469.0781,639.6758 465.0645,635.354 461.0,631.0 456.8184,626.5874 452.6094,622.168 448.4338,617.7798 444.3125,613.4375 440.2751,609.1577 436.3555,604.9727 432.5757,600.9028 429.0,597.0 425.7251,593.3433 422.6758,589.8711 419.8118,586.5505 417.125,583.375 414.5886,580.3225 412.2188,577.4062 410.0234,574.6328 408.0,572.0" stroke="#34949C" stroke-width="1" /><text fill="#34949C" font-family="Arial" font-size="15" font-weight="normal" opacity="100" transform="rotate(65.0 282.0,213.0) translate(0 15)" x="282.0" y="213.0">р.Москва</text><polyline fill="none" opacity="100" points="260.0,227.0 280.0,266.0" stroke="#34949C" stroke-width="2" /><polygon fill="#34949C" opacity="100" points="271.1763,256.2516 280.0,266.0 277.2326,253.1458" stroke="#34949C" stroke-width="2" /><polygon fill="#E41C0C" opacity="100" points="241.0,446.0 241.0,416.0 691.0,416.0 691.0,446.0" stroke="#000" stroke-width="1" /><polygon fill="#E41C0C" opacity="100" points="241.0,556.0 241.0,526.0 691.0,526.0 691.0,556.0" stroke="#000" stroke-width="1" /><text fill="#E41C0C" font-family="Arial" font-size="25" font-weight="bold" opacity="100" transform="rotate(-0.0 373.0,458.0) translate(0 25)" x="373.0" y="458.0">Воробьёвы горы</text><text fill="#000" font-family="Arial" font-size="20" font-weight="normal" opacity="100" transform="rotate(-0.0 248.0,416.0) translate(0 20)" x="248.0" y="416.0">&lt;&lt; Университет</text><text fill="#000" font-family="Arial" font-size="20" font-weight="normal" opacity="100" transform="rotate(-0.0 555.0,526.0) translate(0 20)" x="555.0" y="526.0">Спортивная &gt;&gt;</text><text fill="#FFF" font-family="Arial" font-size="20" font-weight="normal" opacity="100" transform="rotate(-0.0 247.0,416.0) translate(0 20)" x="247.0" y="416.0">&lt;&lt; Университет</text><text fill="#FFF" font-family="Arial" font-size="20" font-weight="normal" opacity="100" transform="rotate(-0.0 553.0,526.0) translate(0 20)" x="553.0" y="526.0">Спортивная &gt;&gt;</text><polygon fill="#34349C" opacity="100" points="465.0,488.0 465.0,492.0 466.0,492.0 466.0,488.0" stroke="#34349C" stroke-width="1" /><polygon fill="#F00" opacity="100" points="465.0,484.0 465.0,488.0 466.0,488.0 466.0,484.0" stroke="#F00" stroke-width="1" /><polyline fill="none" opacity="100" points="203.0,398.0 671.0,398.0" stroke="#000" stroke-width="1" /><polyline fill="none" opacity="100" points="203.0,416.0 241.0,416.0" stroke="#000" stroke-width="1" /><polyline fill="none" opacity="100" points="241.0,572.0 710.0,572.0" stroke="#000" stroke-width="1" /><polyline fill="none" opacity="100" points="710.0,556.0 691.0,556.0" stroke="#000" stroke-width="1" /><polyline fill="none" opacity="100" points="204.0,398.0 204.0,416.0" stroke="#000" stroke-width="1" /><polyline fill="none" opacity="100" points="208.0,398.0 208.0,416.0" stroke="#000" stroke-width="1" /><polyline fill="none" opacity="100" points="212.0,398.0 212.0,416.0" stroke="#000" stroke-width="1" /><polyline fill="none" opacity="100" points="216.0,398.0 216.0,416.0" stroke="#000" stroke-width="1" /><polyline fill="none" opacity="100" points="220.0,398.0 220.0,416.0" stroke="#000" stroke-width="1" /><polyline fill="none" opacity="100" points="206.0,380.0 206.0,398.0" stroke="#000" stroke-width="1" /><polyline fill="none" opacity="100" points="210.0,380.0 210.0,398.0" stroke="#000" stroke-width="1" /><polyline fill="none" opacity="100" points="214.0,380.0 214.0,398.0" stroke="#000" stroke-width="1" /><polyline fill="none" opacity="100" points="218.0,380.0 218.0,398.0" stroke="#000" stroke-width="1" /><polyline fill="none" opacity="100" points="222.0,380.0 222.0,398.0" stroke="#000" stroke-width="1" /><polyline fill="none" opacity="100" points="242.0,572.0 242.0,556.0" stroke="#000" stroke-width="1" /><polyline fill="none" opacity="100" points="246.0,572.0 246.0,556.0" stroke="#000" stroke-width="1" /><polyline fill="none" opacity="100" points="250.0,572.0 250.0,556.0" stroke="#000" stroke-width="1" /><polyline fill="none" opacity="100" points="254.0,572.0 254.0,556.0" stroke="#000" stroke-width="1" /><polyline fill="none" opacity="100" points="258.0,572.0 258.0,556.0" stroke="#000" stroke-width="1" /><polyline fill="none" opacity="100" points="288.0,572.0 288.0,587.0" stroke="#000" stroke-width="1" /><polyline fill="none" opacity="100" points="292.0,572.0 292.0,587.0" stroke="#000" stroke-width="1" /><polyline fill="none" opacity="100" points="296.0,572.0 296.0,587.0" stroke="#000" stroke-width="1" /><polyline fill="none" opacity="100" points="300.0,572.0 300.0,587.0" stroke="#000" stroke-width="1" /><polyline fill="none" opacity="100" points="304.0,572.0 304.0,587.0" stroke="#000" stroke-width="1" /><polyline fill="none" opacity="100" points="668.0,398.0 668.0,416.0" stroke="#000" stroke-width="1" /><polyline fill="none" opacity="100" points="664.0,398.0 664.0,416.0" stroke="#000" stroke-width="1" /><polyline fill="none" opacity="100" points="660.0,398.0 660.0,416.0" stroke="#000" stroke-width="1" /><polyline fill="none" opacity="100" points="656.0,398.0 656.0,416.0" stroke="#000" stroke-width="1" /><polyline fill="none" opacity="100" points="708.0,572.0 708.0,556.0" stroke="#000" stroke-width="1" /><polyline fill="none" opacity="100" points="704.0,572.0 704.0,556.0" stroke="#000" stroke-width="1" /><polyline fill="none" opacity="100" points="700.0,572.0 700.0,556.0" stroke="#000" stroke-width="1" /><polyline fill="none" opacity="100" points="696.0,572.0 696.0,556.0" stroke="#000" stroke-width="1" /><polyline fill="none" opacity="100" points="692.0,572.0 692.0,556.0" stroke="#000" stroke-width="1" /><polyline fill="none" opacity="100" points="169.0,470.0 169.0,501.0" stroke="#D0D0D0" stroke-width="1" /><polyline fill="none" opacity="100" points="165.0,470.0 165.0,501.0" stroke="#D0D0D0" stroke-width="1" /><polyline fill="none" opacity="100" points="161.0,470.0 161.0,501.0" stroke="#D0D0D0" stroke-width="1" /><polyline fill="none" opacity="100" points="157.0,470.0 157.0,501.0" stroke="#D0D0D0" stroke-width="1" /><polyline fill="none" opacity="100" points="153.0,470.0 153.0,501.0" stroke="#D0D0D0" stroke-width="1" /><polyline fill="none" opacity="100" points="149.0,470.0 149.0,501.0" stroke="#D0D0D0" stroke-width="1" /><polyline fill="none" opacity="100" points="145.0,470.0 145.0,501.0" stroke="#D0D0D0" stroke-width="1" /><polyline fill="none" opacity="100" points="241.0,526.0 241.0,510.0 287.0,510.0 287.0,501.0 233.0,501.0 233.0,532.0 120.0,532.0 120.0,501.0" stroke="#000" stroke-width="1" /><polyline fill="none" opacity="100" points="174.0,501.0 108.0,501.0 108.0,532.0 8.0,532.0 8.0,500.0 -4.0,500.0 -4.0,532.0 -59.0,532.0 -59.0,548.0 109.0,548.0" stroke="#000" stroke-width="1" /><polyline fill="none" opacity="100" points="109.0,564.0 -107.0,564.0 -123.0,548.0 -123.0,498.0 -142.0,498.0" stroke="#000" stroke-width="1" /><polyline fill="none" opacity="100" points="-142.0,473.0 -123.0,473.0 -123.0,422.0 -107.0,406.0 107.0,406.0" stroke="#000" stroke-width="1" /><polyline fill="none" opacity="100" points="-59.0,451.0 -59.0,521.0" stroke="#000" stroke-width="1" /><polyline fill="none" opacity="100" points="107.0,424.0 -59.0,424.0 -59.0,441.0 -5.0,441.0 -5.0,471.0 8.0,471.0 8.0,441.0 108.0,441.0 108.0,470.0 174.0,470.0" stroke="#000" stroke-width="1" /><polyline fill="none" opacity="100" points="120.0,470.0 120.0,441.0 233.0,441.0 233.0,470.0 287.0,470.0 287.0,461.0 241.0,461.0 241.0,446.0" stroke="#000" stroke-width="1" /><polyline fill="none" opacity="100" points="32.0,441.0 32.0,458.0 67.0,458.0" stroke="#000" stroke-width="1" /><polyline fill="none" opacity="100" points="67.0,516.0 32.0,516.0 32.0,532.0" stroke="#000" stroke-width="1" /><polyline fill="none" opacity="100" points="205.0,380.0 232.0,380.0 219.0,360.0" stroke="#000" stroke-width="1" /><polyline fill="none" opacity="100" points="285.0,587.0 374.0,587.0 393.0,609.0" stroke="#000" stroke-width="1" /><polyline fill="none" opacity="100" points="171.0,441.0 171.0,466.0" stroke="#000" stroke-width="1" /><polyline fill="none" opacity="100" points="167.0,441.0 167.0,466.0" stroke="#000" stroke-width="1" /><polyline fill="none" opacity="100" points="163.0,441.0 163.0,466.0" stroke="#000" stroke-width="1" /><polyline fill="none" opacity="100" points="159.0,441.0 159.0,466.0" stroke="#000" stroke-width="1" /><polyline fill="none" opacity="100" points="155.0,441.0 155.0,466.0" stroke="#000" stroke-width="1" /><polyline fill="none" opacity="100" points="151.0,441.0 151.0,466.0" stroke="#000" stroke-width="1" /><polyline fill="none" opacity="100" points="147.0,441.0 147.0,466.0" stroke="#000" stroke-width="1" /><polyline fill="none" opacity="100" points="143.0,441.0 143.0,466.0" stroke="#000" stroke-width="1" /><polyline fill="none" opacity="100" points="171.0,532.0 171.0,505.0" stroke="#000" stroke-width="1" /><polyline fill="none" opacity="100" points="167.0,532.0 167.0,505.0" stroke="#000" stroke-width="1" /><polyline fill="none" opacity="100" points="163.0,532.0 163.0,505.0" stroke="#000" stroke-width="1" /><polyline fill="none" opacity="100" points="159.0,532.0 159.0,505.0" stroke="#000" stroke-width="1" /><polyline fill="none" opacity="100" points="155.0,532.0 155.0,505.0" stroke="#000" stroke-width="1" /><polyline fill="none" opacity="100" points="151.0,532.0 151.0,505.0" stroke="#000" stroke-width="1" /><polyline fill="none" opacity="100" points="147.0,532.0 147.0,505.0" stroke="#000" stroke-width="1" /><polyline fill="none" opacity="100" points="143.0,532.0 143.0,505.0" stroke="#000" stroke-width="1" /><polyline fill="none" opacity="100" points="33.0,458.0 33.0,473.0" stroke="#000" stroke-width="1" /><polyline fill="none" opacity="100" points="37.0,458.0 37.0,473.0" stroke="#000" stroke-width="1" /><polyline fill="none" opacity="100" points="41.0,458.0 41.0,473.0" stroke="#000" stroke-width="1" /><polyline fill="none" opacity="100" points="45.0,458.0 45.0,473.0" stroke="#000" stroke-width="1" /><polyline fill="none" opacity="100" points="49.0,458.0 49.0,473.0" stroke="#000" stroke-width="1" /><polyline fill="none" opacity="100" points="53.0,458.0 53.0,473.0" stroke="#000" stroke-width="1" /><polyline fill="none" opacity="100" points="57.0,458.0 57.0,473.0" stroke="#000" stroke-width="1" /><polyline fill="none" opacity="100" points="61.0,458.0 61.0,473.0" stroke="#000" stroke-width="1" /><polyline fill="none" opacity="100" points="65.0,458.0 65.0,473.0" stroke="#000" stroke-width="1" /><polyline fill="none" opacity="100" points="33.0,516.0 33.0,500.0" stroke="#000" stroke-width="1" /><polyline fill="none" opacity="100" points="37.0,516.0 37.0,500.0" stroke="#000" stroke-width="1" /><polyline fill="none" opacity="100" points="41.0,516.0 41.0,500.0" stroke="#000" stroke-width="1" /><polyline fill="none" opacity="100" points="45.0,516.0 45.0,500.0" stroke="#000" stroke-width="1" /><polyline fill="none" opacity="100" points="49.0,516.0 49.0,500.0" stroke="#000" stroke-width="1" /><polyline fill="none" opacity="100" points="53.0,516.0 53.0,500.0" stroke="#000" stroke-width="1" /><polyline fill="none" opacity="100" points="57.0,516.0 57.0,500.0" stroke="#000" stroke-width="1" /><polyline fill="none" opacity="100" points="61.0,516.0 61.0,500.0" stroke="#000" stroke-width="1" /><polyline fill="none" opacity="100" points="65.0,516.0 65.0,500.0" stroke="#000" stroke-width="1" /><polyline fill="none" opacity="100" points="107.0,406.0 107.0,424.0" stroke="#000" stroke-width="1" /><polyline fill="none" opacity="100" points="103.0,406.0 103.0,424.0" stroke="#000" stroke-width="1" /><polyline fill="none" opacity="100" points="99.0,406.0 99.0,424.0" stroke="#000" stroke-width="1" /><polyline fill="none" opacity="100" points="95.0,406.0 95.0,424.0" stroke="#000" stroke-width="1" /><polyline fill="none" opacity="100" points="91.0,406.0 91.0,424.0" stroke="#000" stroke-width="1" /><polyline fill="none" opacity="100" points="87.0,406.0 87.0,424.0" stroke="#000" stroke-width="1" /><polyline fill="none" opacity="100" points="83.0,406.0 83.0,424.0" stroke="#000" stroke-width="1" /><polyline fill="none" opacity="100" points="79.0,406.0 79.0,424.0" stroke="#000" stroke-width="1" /><polyline fill="none" opacity="100" points="75.0,406.0 75.0,424.0" stroke="#000" stroke-width="1" /><polyline fill="none" opacity="100" points="71.0,406.0 71.0,424.0" stroke="#000" stroke-width="1" /><polyline fill="none" opacity="100" points="67.0,406.0 67.0,424.0" stroke="#000" stroke-width="1" /><polyline fill="none" opacity="100" points="63.0,406.0 63.0,424.0" stroke="#000" stroke-width="1" /><polyline fill="none" opacity="100" points="59.0,406.0 59.0,424.0" stroke="#000" stroke-width="1" /><polyline fill="none" opacity="100" points="55.0,406.0 55.0,424.0" stroke="#000" stroke-width="1" /><polyline fill="none" opacity="100" points="32.0,406.0 32.0,424.0" stroke="#000" stroke-width="1" /><polyline fill="none" opacity="100" points="28.0,406.0 28.0,424.0" stroke="#000" stroke-width="1" /><polyline fill="none" opacity="100" points="24.0,406.0 24.0,424.0" stroke="#000" stroke-width="1" /><polyline fill="none" opacity="100" points="20.0,406.0 20.0,424.0" stroke="#000" stroke-width="1" /><polyline fill="none" opacity="100" points="16.0,406.0 16.0,424.0" stroke="#000" stroke-width="1" /><polyline fill="none" opacity="100" points="12.0,406.0 12.0,424.0" stroke="#000" stroke-width="1" /><polyline fill="none" opacity="100" points="8.0,406.0 8.0,424.0" stroke="#000" stroke-width="1" /><polyline fill="none" opacity="100" points="4.0,406.0 4.0,424.0" stroke="#000" stroke-width="1" /><polyline fill="none" opacity="100" points="0.0,406.0 0.0,424.0" stroke="#000" stroke-width="1" /><polyline fill="none" opacity="100" points="-20.0,406.0 -20.0,424.0" stroke="#000" stroke-width="1" /><polyline fill="none" opacity="100" points="-24.0,406.0 -24.0,424.0" stroke="#000" stroke-width="1" /><polyline fill="none" opacity="100" points="-28.0,406.0 -28.0,424.0" stroke="#000" stroke-width="1" /><polyline fill="none" opacity="100" points="-32.0,406.0 -32.0,424.0" stroke="#000" stroke-width="1" /><polyline fill="none" opacity="100" points="-36.0,406.0 -36.0,424.0" stroke="#000" stroke-width="1" /><polyline fill="none" opacity="100" points="-40.0,406.0 -40.0,424.0" stroke="#000" stroke-width="1" /><polyline fill="none" opacity="100" points="-44.0,406.0 -44.0,424.0" stroke="#000" stroke-width="1" /><polyline fill="none" opacity="100" points="-48.0,406.0 -48.0,424.0" stroke="#000" stroke-width="1" /><polyline fill="none" opacity="100" points="-52.0,406.0 -52.0,424.0" stroke="#000" stroke-width="1" /><polyline fill="none" opacity="100" points="-56.0,406.0 -56.0,424.0" stroke="#000" stroke-width="1" /><polyline fill="none" opacity="100" points="-79.0,406.0 -79.0,424.0" stroke="#000" stroke-width="1" /><polyline fill="none" opacity="100" points="-83.0,406.0 -83.0,424.0" stroke="#000" stroke-width="1" /><polyline fill="none" opacity="100" points="-87.0,406.0 -87.0,424.0" stroke="#000" stroke-width="1" /><polyline fill="none" opacity="100" points="-91.0,406.0 -91.0,424.0" stroke="#000" stroke-width="1" /><polyline fill="none" opacity="100" points="-95.0,406.0 -95.0,424.0" stroke="#000" stroke-width="1" /><polyline fill="none" opacity="100" points="-59.0,451.0 -79.0,451.0" stroke="#000" stroke-width="1" /><polyline fill="none" opacity="100" points="-59.0,455.0 -79.0,455.0" stroke="#000" stroke-width="1" /><polyline fill="none" opacity="100" points="-59.0,459.0 -79.0,459.0" stroke="#000" stroke-width="1" /><polyline fill="none" opacity="100" points="-59.0,521.0 -79.0,521.0" stroke="#000" stroke-width="1" /><polyline fill="none" opacity="100" points="-59.0,517.0 -79.0,517.0" stroke="#000" stroke-width="1" /><polyline fill="none" opacity="100" points="-59.0,513.0 -79.0,513.0" stroke="#000" stroke-width="1" /><polyline fill="none" opacity="100" points="-79.0,548.0 -79.0,564.0" stroke="#000" stroke-width="1" /><polyline fill="none" opacity="100" points="-83.0,548.0 -83.0,564.0" stroke="#000" stroke-width="1" /><polyline fill="none" opacity="100" points="-87.0,548.0 -87.0,564.0" stroke="#000" stroke-width="1" /><polyline fill="none" opacity="100" points="-91.0,548.0 -91.0,564.0" stroke="#000" stroke-width="1" /><polyline fill="none" opacity="100" points="-95.0,548.0 -95.0,564.0" stroke="#000" stroke-width="1" /><polyline fill="none" opacity="100" points="109.0,548.0 109.0,564.0" stroke="#000" stroke-width="1" /><polyline fill="none" opacity="100" points="105.0,548.0 105.0,564.0" stroke="#000" stroke-width="1" /><polyline fill="none" opacity="100" points="101.0,548.0 101.0,564.0" stroke="#000" stroke-width="1" /><polyline fill="none" opacity="100" points="97.0,548.0 97.0,564.0" stroke="#000" stroke-width="1" /><polyline fill="none" opacity="100" points="93.0,548.0 93.0,564.0" stroke="#000" stroke-width="1" /><polyline fill="none" opacity="100" points="89.0,548.0 89.0,564.0" stroke="#000" stroke-width="1" /><polyline fill="none" opacity="100" points="85.0,548.0 85.0,564.0" stroke="#000" stroke-width="1" /><polyline fill="none" opacity="100" points="81.0,548.0 81.0,564.0" stroke="#000" stroke-width="1" /><polyline fill="none" opacity="100" points="77.0,548.0 77.0,564.0" stroke="#000" stroke-width="1" /><polyline fill="none" opacity="100" points="73.0,548.0 73.0,564.0" stroke="#000" stroke-width="1" /><polyline fill="none" opacity="100" points="69.0,548.0 69.0,564.0" stroke="#000" stroke-width="1" /><polyline fill="none" opacity="100" points="65.0,548.0 65.0,564.0" stroke="#000" stroke-width="1" /><polyline fill="none" opacity="100" points="61.0,548.0 61.0,564.0" stroke="#000" stroke-width="1" /><polyline fill="none" opacity="100" points="57.0,548.0 57.0,564.0" stroke="#000" stroke-width="1" /><polyline fill="none" opacity="100" points="32.0,548.0 32.0,564.0" stroke="#000" stroke-width="1" /><polyline fill="none" opacity="100" points="28.0,548.0 28.0,564.0" stroke="#000" stroke-width="1" /><polyline fill="none" opacity="100" points="24.0,548.0 24.0,564.0" stroke="#000" stroke-width="1" /><polyline fill="none" opacity="100" points="20.0,548.0 20.0,564.0" stroke="#000" stroke-width="1" /><polyline fill="none" opacity="100" points="16.0,548.0 16.0,564.0" stroke="#000" stroke-width="1" /><polyline fill="none" opacity="100" points="12.0,548.0 12.0,564.0" stroke="#000" stroke-width="1" /><polyline fill="none" opacity="100" points="8.0,548.0 8.0,564.0" stroke="#000" stroke-width="1" /><polyline fill="none" opacity="100" points="4.0,548.0 4.0,564.0" stroke="#000" stroke-width="1" /><polyline fill="none" opacity="100" points="-20.0,548.0 -20.0,564.0" stroke="#000" stroke-width="1" /><polyline fill="none" opacity="100" points="-24.0,548.0 -24.0,564.0" stroke="#000" stroke-width="1" /><polyline fill="none" opacity="100" points="-28.0,548.0 -28.0,564.0" stroke="#000" stroke-width="1" /><polyline fill="none" opacity="100" points="-32.0,548.0 -32.0,564.0" stroke="#000" stroke-width="1" /><polyline fill="none" opacity="100" points="-36.0,548.0 -36.0,564.0" stroke="#000" stroke-width="1" /><polyline fill="none" opacity="100" points="-40.0,548.0 -40.0,564.0" stroke="#000" stroke-width="1" /><polyline fill="none" opacity="100" points="-44.0,548.0 -44.0,564.0" stroke="#000" stroke-width="1" /><polyline fill="none" opacity="100" points="-48.0,548.0 -48.0,564.0" stroke="#000" stroke-width="1" /><polyline fill="none" opacity="100" points="-52.0,548.0 -52.0,564.0" stroke="#000" stroke-width="1" /><polyline fill="none" opacity="100" points="-56.0,548.0 -56.0,564.0" stroke="#000" stroke-width="1" /><polyline fill="none" opacity="100" points="-59.0,496.0 -59.0,474.0" stroke="#000" stroke-width="1" /><polyline fill="none" opacity="100" points="-55.0,496.0 -55.0,474.0" stroke="#000" stroke-width="1" /><polyline fill="none" opacity="100" points="-51.0,496.0 -51.0,474.0" stroke="#000" stroke-width="1" /><polygon fill="#D0D0D0" opacity="100" points="-59.0,474.0 -59.0,460.0 -43.0,460.0 -43.0,474.0" stroke="#000" stroke-width="1" /><polygon fill="#D0D0D0" opacity="100" points="-59.0,511.0 -59.0,496.0 -43.0,496.0 -43.0,511.0" stroke="#000" stroke-width="1" /><polygon fill="#D0D0D0" opacity="100" points="-79.0,473.0 -79.0,424.0 -96.0,424.0 -104.0,432.0 -104.0,473.0" stroke="#000" stroke-width="1" /><polygon fill="#D0D0D0" opacity="100" points="-79.0,498.0 -79.0,548.0 -96.0,548.0 -104.0,540.0 -104.0,498.0" stroke="#000" stroke-width="1" /><polygon fill="#D0D0D0" opacity="100" points="174.0,470.0 174.0,466.0 140.0,466.0 140.0,470.0" stroke="#000" stroke-width="1" /><polygon fill="#D0D0D0" opacity="100" points="174.0,501.0 174.0,505.0 140.0,505.0 140.0,501.0" stroke="#000" stroke-width="1" /><polyline fill="none" opacity="100" points="59.0,497.0 59.0,476.0" stroke="#7F7F7F" stroke-width="1" /><polyline fill="none" opacity="100" points="55.0,497.0 55.0,476.0" stroke="#7F7F7F" stroke-width="1" /><polyline fill="none" opacity="100" points="51.0,497.0 51.0,476.0" stroke="#7F7F7F" stroke-width="1" /><polyline fill="none" opacity="100" points="47.0,497.0 47.0,476.0" stroke="#7F7F7F" stroke-width="1" /><polyline fill="none" opacity="100" points="43.0,497.0 43.0,476.0" stroke="#7F7F7F" stroke-width="1" /><polyline fill="none" opacity="100" points="39.0,497.0 39.0,476.0" stroke="#7F7F7F" stroke-width="1" /><polygon fill="#9B5509" opacity="100" points="67.0,476.0 32.0,476.0 32.0,473.0 67.0,473.0" stroke="#000" stroke-width="1" /><polygon fill="#9B5509" opacity="100" points="67.0,484.0 67.0,489.0 32.0,489.0 32.0,484.0" stroke="#000" stroke-width="1" /><polygon fill="#9B5509" opacity="100" points="67.0,497.0 32.0,497.0 32.0,500.0 67.0,500.0" stroke="#000" stroke-width="1" /><polyline fill="none" opacity="100" points="-4.0,532.0 8.0,532.0" stroke="#000" stroke-width="1" /><text fill="#FFF" font-family="Arial" font-size="12" font-weight="normal" opacity="100" transform="rotate(90.0 10.0,501.0) translate(0 12)" x="10.0" y="501.0">кассы</text><polygon fill="none" opacity="100" points="208.0,524.0 214.0,524.0 214.0,530.0 208.0,530.0" stroke="#000" stroke-width="1" /><polyline fill="none" opacity="100" points="211.0,490.0 211.0,481.0" stroke="#000" stroke-width="0.5" /><polyline fill="none" opacity="100" points="209.0,520.0 213.0,520.0" stroke="#090" stroke-width="1" /><polyline fill="none" opacity="100" points="209.0,516.0 213.0,516.0" stroke="#090" stroke-width="1" /><polyline fill="none" opacity="100" points="209.0,512.0 213.0,512.0" stroke="#090" stroke-width="1" /><polyline fill="none" opacity="100" points="209.0,508.0 213.0,508.0" stroke="#090" stroke-width="1" /><polyline fill="none" opacity="100" points="209.0,504.0 213.0,504.0" stroke="#090" stroke-width="1" /><polyline fill="none" opacity="100" points="209.0,500.0 213.0,500.0" stroke="#090" stroke-width="1" /><polyline fill="none" opacity="100" points="209.0,496.0 213.0,496.0" stroke="#090" stroke-width="1" /><polyline fill="none" opacity="100" points="209.0,492.0 213.0,492.0" stroke="#090" stroke-width="1" /><polyline fill="none" opacity="100" points="209.0,481.0 213.0,481.0" stroke="#F00" stroke-width="1" /><polyline fill="none" opacity="100" points="209.0,477.0 213.0,477.0" stroke="#F00" stroke-width="1" /><polyline fill="none" opacity="100" points="209.0,473.0 213.0,473.0" stroke="#F00" stroke-width="1" /><polyline fill="none" opacity="100" points="209.0,469.0 213.0,469.0" stroke="#F00" stroke-width="1" /><polyline fill="none" opacity="100" points="209.0,465.0 213.0,465.0" stroke="#F00" stroke-width="1" /><polyline fill="none" opacity="100" points="209.0,461.0 213.0,461.0" stroke="#F00" stroke-width="1" /><polyline fill="none" opacity="100" points="209.0,457.0 213.0,457.0" stroke="#F00" stroke-width="1" /><polyline fill="none" opacity="100" points="209.0,453.0 213.0,453.0" stroke="#F00" stroke-width="1" /><polyline fill="none" opacity="100" points="209.0,449.0 213.0,449.0" stroke="#F00" stroke-width="1" /><polyline fill="none" opacity="100" points="209.0,445.0 213.0,445.0" stroke="#F00" stroke-width="1" /><polyline fill="none" opacity="100" points="89.0,486.0 74.0,486.0" stroke="#F00" stroke-width="1" /><polygon fill="#F00" opacity="100" points="78.3467,484.8353 74.0,486.0 78.3467,487.1647" stroke="#F00" stroke-width="1" /><polyline fill="none" opacity="100" points="216.0,467.0 203.0,467.0" stroke="#F00" stroke-width="1" /><polygon fill="#F00" opacity="100" points="206.7671,465.9906 203.0,467.0 206.7671,468.0094" stroke="#F00" stroke-width="1" /><polyline fill="none" opacity="100" points="180.0,455.0 130.0,455.0 130.0,469.0" stroke="#F00" stroke-width="1" /><polyline fill="none" opacity="100" points="188.0,440.0 188.0,423.0" stroke="#F00" stroke-width="1" /><polygon fill="#F00" opacity="100" points="189.32,427.9262 188.0,423.0 186.68,427.9262" stroke="#F00" stroke-width="1" /><polyline fill="none" opacity="100" points="206.0,510.0 220.0,510.0" stroke="#090" stroke-width="1" /><polygon fill="#090" opacity="100" points="215.9431,511.087 220.0,510.0 215.9431,508.913" stroke="#090" stroke-width="1" /><polyline fill="none" opacity="100" points="59.0,466.0 77.0,466.0" stroke="#090" stroke-width="1" /><polygon fill="#090" opacity="100" points="71.784,467.3976 77.0,466.0 71.784,464.6024" stroke="#090" stroke-width="1" /><polyline fill="none" opacity="100" points="59.0,508.0 77.0,508.0" stroke="#090" stroke-width="1" /><polygon fill="#090" opacity="100" points="71.784,509.3976 77.0,508.0 71.784,506.6024" stroke="#090" stroke-width="1" /><polyline fill="none" opacity="100" points="197.0,423.0 197.0,440.0" stroke="#090" stroke-width="1" /><polyline fill="none" opacity="100" points="130.0,502.0 130.0,518.0 165.0,518.0 180.0,518.0" stroke="#090" stroke-width="1" /><polygon fill="#090" opacity="100" points="175.6533,519.1647 180.0,518.0 175.6533,516.8353" stroke="#090" stroke-width="1" /><polyline fill="none" opacity="100" points="130.0,471.0 130.0,477.0 188.0,477.0 188.0,442.0" stroke="#FDD" stroke-width="1" /><polyline fill="none" opacity="100" points="197.0,442.0 197.0,496.0 130.0,496.0 130.0,500.0" stroke="#CEC" stroke-width="1" /><polygon fill="#34349C" opacity="100" points="20.0,457.0 24.0,457.0 24.0,458.0 20.0,458.0" stroke="#34349C" stroke-width="1" /><polygon fill="#F00" opacity="100" points="16.0,457.0 20.0,457.0 20.0,458.0 16.0,458.0" stroke="#F00" stroke-width="1" /><polyline fill="none" opacity="100" points="691.0,446.0 691.0,453.0 640.0,453.0 640.0,460.0 705.0,460.0 705.0,463.0" stroke="#000" stroke-width="1" /><polyline fill="none" opacity="100" points="691.0,526.0 691.0,519.0 640.0,519.0 640.0,512.0 705.0,512.0 705.0,509.0" stroke="#000" stroke-width="1" /><polyline fill="none" opacity="100" points="769.0,438.0 762.0,438.0 762.0,457.0 729.0,457.0 729.0,463.0" stroke="#000" stroke-width="1" /><polyline fill="none" opacity="100" points="788.0,438.0 800.0,438.0" stroke="#000" stroke-width="1" /><polyline fill="none" opacity="100" points="823.0,438.0 832.0,438.0 832.0,534.0 823.0,534.0" stroke="#000" stroke-width="1" /><polyline fill="none" opacity="100" points="788.0,534.0 800.0,534.0" stroke="#000" stroke-width="1" /><polyline fill="none" opacity="100" points="769.0,534.0 762.0,534.0 762.0,516.0 729.0,516.0 729.0,509.0" stroke="#000" stroke-width="1" /><polyline fill="none" opacity="100" points="703.0,466.0 703.0,506.0" stroke="#7F7F7F" stroke-width="1" /><polyline fill="none" opacity="100" points="707.0,466.0 707.0,506.0" stroke="#7F7F7F" stroke-width="1" /><polyline fill="none" opacity="100" points="711.0,466.0 711.0,506.0" stroke="#7F7F7F" stroke-width="1" /><polyline fill="none" opacity="100" points="715.0,466.0 715.0,506.0" stroke="#7F7F7F" stroke-width="1" /><polyline fill="none" opacity="100" points="719.0,466.0 719.0,506.0" stroke="#7F7F7F" stroke-width="1" /><polyline fill="none" opacity="100" points="723.0,466.0 723.0,506.0" stroke="#7F7F7F" stroke-width="1" /><polyline fill="none" opacity="100" points="727.0,466.0 727.0,506.0" stroke="#7F7F7F" stroke-width="1" /><polyline fill="none" opacity="100" points="731.0,466.0 731.0,506.0" stroke="#7F7F7F" stroke-width="1" /><polygon fill="#9B5509" opacity="100" points="697.0,463.0 736.0,463.0 736.0,466.0 697.0,466.0" stroke="#000" stroke-width="1" /><polygon fill="#9B5509" opacity="100" points="697.0,473.0 736.0,473.0 736.0,477.0 697.0,477.0" stroke="#000" stroke-width="1" /><polygon fill="#9B5509" opacity="100" points="697.0,484.0 736.0,484.0 736.0,488.0 697.0,488.0" stroke="#000" stroke-width="1" /><polygon fill="#9B5509" opacity="100" points="697.0,495.0 736.0,495.0 736.0,499.0 697.0,499.0" stroke="#000" stroke-width="1" /><polygon fill="#9B5509" opacity="100" points="697.0,506.0 736.0,506.0 736.0,509.0 697.0,509.0" stroke="#000" stroke-width="1" /><polyline fill="none" opacity="100" points="832.0,471.0 840.0,471.0 840.0,501.0 832.0,501.0" stroke="#000" stroke-width="1" /><text fill="#FFF" font-family="Arial" font-size="10" font-weight="normal" opacity="100" transform="rotate(90.0 843.0,473.0) translate(0 10)" x="843.0" y="473.0">кассы</text><polygon fill="none" opacity="100" points="753.0,459.0 759.0,459.0 759.0,465.0 753.0,465.0" stroke="#000" stroke-width="1" /><polygon fill="none" opacity="100" points="739.0,489.0 739.0,483.0 745.0,483.0 745.0,489.0" stroke="#000" stroke-width="1" /><polyline fill="none" opacity="100" points="756.0,485.0 756.0,492.0" stroke="#000" stroke-width="0.5" /><polyline fill="none" opacity="100" points="758.0,469.0 754.0,469.0" stroke="#090" stroke-width="1" /><polyline fill="none" opacity="100" points="758.0,473.0 754.0,473.0" stroke="#090" stroke-width="1" /><polyline fill="none" opacity="100" points="758.0,477.0 754.0,477.0" stroke="#090" stroke-width="1" /><polyline fill="none" opacity="100" points="758.0,481.0 754.0,481.0" stroke="#090" stroke-width="1" /><polyline fill="none" opacity="100" points="758.0,485.0 754.0,485.0" stroke="#090" stroke-width="1" /><polyline fill="none" opacity="100" points="758.0,492.0 754.0,492.0" stroke="#F00" stroke-width="1" /><polyline fill="none" opacity="100" points="758.0,496.0 754.0,496.0" stroke="#F00" stroke-width="1" /><polyline fill="none" opacity="100" points="758.0,500.0 754.0,500.0" stroke="#F00" stroke-width="1" /><polyline fill="none" opacity="100" points="758.0,504.0 754.0,504.0" stroke="#F00" stroke-width="1" /><polyline fill="none" opacity="100" points="758.0,508.0 754.0,508.0" stroke="#F00" stroke-width="1" /><polyline fill="none" opacity="100" points="758.0,512.0 754.0,512.0" stroke="#F00" stroke-width="1" /><polyline fill="none" opacity="100" points="778.0,451.0 778.0,434.0" stroke="#F00" stroke-width="1" /><polygon fill="#F00" opacity="100" points="779.32,438.9262 778.0,434.0 776.68,438.9262" stroke="#F00" stroke-width="1" /><polyline fill="none" opacity="100" points="751.0,502.0 767.0,502.0" stroke="#F00" stroke-width="1" /><polygon fill="#F00" opacity="100" points="762.3636,503.2423 767.0,502.0 762.3636,500.7577" stroke="#F00" stroke-width="1" /><polyline fill="none" opacity="100" points="778.0,520.0 778.0,537.0" stroke="#F00" stroke-width="1" /><polygon fill="#F00" opacity="100" points="776.68,532.0738 778.0,537.0 779.32,532.0738" stroke="#F00" stroke-width="1" /><polyline fill="none" opacity="100" points="811.0,435.0 811.0,451.0" stroke="#090" stroke-width="1" /><polygon fill="#090" opacity="100" points="809.7577,446.3636 811.0,451.0 812.2423,446.3636" stroke="#090" stroke-width="1" /><polyline fill="none" opacity="100" points="762.0,475.0 746.0,475.0" stroke="#090" stroke-width="1" /><polygon fill="#090" opacity="100" points="750.6364,473.7577 746.0,475.0 750.6364,476.2423" stroke="#090" stroke-width="1" /><polyline fill="none" opacity="100" points="812.0,537.0 812.0,520.0" stroke="#090" stroke-width="1" /><polygon fill="#090" opacity="100" points="813.32,524.9262 812.0,520.0 810.68,524.9262" stroke="#090" stroke-width="1" /><polygon fill="#34349C" opacity="100" points="794.0,530.0 790.0,530.0 790.0,531.0 794.0,531.0" stroke="#34349C" stroke-width="1" /><polygon fill="#F00" opacity="100" points="798.0,530.0 794.0,530.0 794.0,531.0 798.0,531.0" stroke="#F00" stroke-width="1" /><text fill="#00AFAF" font-family="Arial" font-size="15" font-weight="normal" opacity="100" transform="rotate(90.0 879.0,351.0) translate(0 15)" x="879.0" y="351.0">спорт.комплекс "Лужники"</text><text fill="#00AFAF" font-family="Arial" font-size="15" font-weight="normal" opacity="100" transform="rotate(62.0 171.0,226.0) translate(0 15)" x="171.0" y="226.0">Воробьёвская набережная</text><text fill="#00AFAF" font-family="Arial" font-size="15" font-weight="normal" opacity="100" transform="rotate(62.0 -174.0,445.0) translate(0 15)" x="-174.0" y="445.0">Воробьёвы горы</text><g transform="rotate(50.0,375.0,455.0)"><text fill="#FFD900" font-family="Arial" font-size="25" font-weight="normal" opacity="100" x="193.25" y="608.5">1</text><text fill="#FFD900" font-family="Arial" font-size="25" font-weight="normal" opacity="100" x="27.25" y="861.5">2</text><text fill="#FFD900" font-family="Arial" font-size="25" font-weight="normal" opacity="100" x="595.25" y="115.5">3</text><text fill="#FFD900" font-family="Arial" font-size="25" font-weight="normal" opacity="100" x="717.25" y="214.5">4</text></g></g></g></svg>