<?xml version="1.0" encoding="utf-8" ?>
<svg baseProfile="tiny" height="800px" version="1.2" width="1280px" xmlns="http://www.w3.org/2000/svg" xmlns:ev="http://www.w3.org/2001/xml-events" xmlns:xlink="http://www.w3.org/1999/xlink"><defs /><g><g transform="rotate(17.0,640.0,400.0)"><polygon fill="#FC9C54" opacity="100" points="413.0,411.0 413.0,381.0 863.0,381.0 863.0,411.0" stroke="#000" stroke-width="1" /><polygon fill="#FC9C54" opacity="100" points="863.0,301.0 863.0,271.0 413.0,271.0 413.0,301.0" stroke="#000" stroke-width="1" /><text fill="#F7782E" font-family="Arial" font-size="25" font-weight="bold" opacity="100" transform="rotate(-0.0 576.0,318.0) translate(0 25)" x="576.0" y="318.0">Ясенево</text><text fill="#F7782E" font-family="Arial" font-size="20" font-weight="normal" opacity="100" transform="rotate(-0.0 416.0,248.0) translate(0 20)" x="416.0" y="248.0">&lt;&lt; Тёплый стан</text><text fill="#F7782E" font-family="Arial" font-size="20" font-weight="normal" opacity="100" transform="rotate(-0.0 707.0,411.0) translate(0 20)" x="707.0" y="411.0">Новоясеневская &gt;&gt;</text><polyline fill="none" opacity="100" points="472.0,222.0 264.0,222.0 264.0,279.0 363.0,279.0 363.0,311.0 413.0,311.0 413.0,301.0" stroke="#000" stroke-width="1" /><polyline fill="none" opacity="100" points="270.0,521.0 264.0,521.0 264.0,402.0 363.0,402.0 363.0,371.0 413.0,371.0 413.0,381.0" stroke="#000" stroke-width="1" /><polyline fill="none" opacity="100" points="472.0,197.0 197.0,197.0" stroke="#000" stroke-width="1" /><polyline fill="none" opacity="100" points="180.0,556.0 219.0,556.0" stroke="#000" stroke-width="1" /><polyline fill="none" opacity="100" points="180.0,531.0 219.0,531.0 219.0,521.0 235.0,521.0 235.0,427.0 197.0,427.0" stroke="#000" stroke-width="1" /><polyline fill="none" opacity="100" points="197.0,402.0 235.0,402.0 235.0,222.0 197.0,222.0" stroke="#000" stroke-width="1" /><polyline fill="none" opacity="100" points="366.0,311.0 366.0,371.0" stroke="#000" stroke-width="1" /><polyline fill="none" opacity="100" points="370.0,311.0 370.0,371.0" stroke="#000" stroke-width="1" /><polyline fill="none" opacity="100" points="374.0,311.0 374.0,371.0" stroke="#000" stroke-width="1" /><polyline fill="none" opacity="100" points="378.0,311.0 378.0,371.0" stroke="#000" stroke-width="1" /><polyline fill="none" opacity="100" points="382.0,311.0 382.0,371.0" stroke="#000" stroke-width="1" /><polyline fill="none" opacity="100" points="386.0,311.0 386.0,371.0" stroke="#000" stroke-width="1" /><polyline fill="none" opacity="100" points="390.0,311.0 390.0,371.0" stroke="#000" stroke-width="1" /><polyline fill="none" opacity="100" points="394.0,311.0 394.0,371.0" stroke="#000" stroke-width="1" /><polyline fill="none" opacity="100" points="398.0,311.0 398.0,371.0" stroke="#000" stroke-width="1" /><polyline fill="none" opacity="100" points="402.0,311.0 402.0,371.0" stroke="#000" stroke-width="1" /><polyline fill="none" opacity="100" points="406.0,311.0 406.0,371.0" stroke="#000" stroke-width="1" /><polyline fill="none" opacity="100" points="410.0,311.0 410.0,371.0" stroke="#000" stroke-width="1" /><polyline fill="none" opacity="100" points="200.0,402.0 200.0,427.0" stroke="#000" stroke-width="1" /><polyline fill="none" opacity="100" points="204.0,402.0 204.0,427.0" stroke="#000" stroke-width="1" /><polyline fill="none" opacity="100" points="208.0,402.0 208.0,427.0" stroke="#000" stroke-width="1" /><polyline fill="none" opacity="100" points="212.0,402.0 212.0,427.0" stroke="#000" stroke-width="1" /><polyline fill="none" opacity="100" points="216.0,402.0 216.0,427.0" stroke="#000" stroke-width="1" /><polyline fill="none" opacity="100" points="220.0,402.0 220.0,427.0" stroke="#000" stroke-width="1" /><polyline fill="none" opacity="100" points="224.0,402.0 224.0,427.0" stroke="#000" stroke-width="1" /><polyline fill="none" opacity="100" points="228.0,402.0 228.0,427.0" stroke="#000" stroke-width="1" /><polyline fill="none" opacity="100" points="232.0,402.0 232.0,427.0" stroke="#000" stroke-width="1" /><polyline fill="none" opacity="100" points="200.0,197.0 200.0,222.0" stroke="#000" stroke-width="1" /><polyline fill="none" opacity="100" points="204.0,197.0 204.0,222.0" stroke="#000" stroke-width="1" /><polyline fill="none" opacity="100" points="208.0,197.0 208.0,222.0" stroke="#000" stroke-width="1" /><polyline fill="none" opacity="100" points="212.0,197.0 212.0,222.0" stroke="#000" stroke-width="1" /><polyline fill="none" opacity="100" points="216.0,197.0 216.0,222.0" stroke="#000" stroke-width="1" /><polyline fill="none" opacity="100" points="220.0,197.0 220.0,222.0" stroke="#000" stroke-width="1" /><polyline fill="none" opacity="100" points="224.0,197.0 224.0,222.0" stroke="#000" stroke-width="1" /><polyline fill="none" opacity="100" points="228.0,197.0 228.0,222.0" stroke="#000" stroke-width="1" /><polyline fill="none" opacity="100" points="232.0,197.0 232.0,222.0" stroke="#000" stroke-width="1" /><polyline fill="none" opacity="100" points="438.0,197.0 438.0,222.0" stroke="#000" stroke-width="1" /><polyline fill="none" opacity="100" points="442.0,197.0 442.0,222.0" stroke="#000" stroke-width="1" /><polyline fill="none" opacity="100" points="446.0,197.0 446.0,222.0" stroke="#000" stroke-width="1" /><polyline fill="none" opacity="100" points="450.0,197.0 450.0,222.0" stroke="#000" stroke-width="1" /><polyline fill="none" opacity="100" points="454.0,197.0 454.0,222.0" stroke="#000" stroke-width="1" /><polyline fill="none" opacity="100" points="458.0,197.0 458.0,222.0" stroke="#000" stroke-width="1" /><polyline fill="none" opacity="100" points="462.0,197.0 462.0,222.0" stroke="#000" stroke-width="1" /><polyline fill="none" opacity="100" points="466.0,197.0 466.0,222.0" stroke="#000" stroke-width="1" /><polyline fill="none" opacity="100" points="470.0,197.0 470.0,222.0" stroke="#000" stroke-width="1" /><polyline fill="none" opacity="100" points="183.0,531.0 183.0,556.0" stroke="#000" stroke-width="1" /><polyline fill="none" opacity="100" points="187.0,531.0 187.0,556.0" stroke="#000" stroke-width="1" /><polyline fill="none" opacity="100" points="191.0,531.0 191.0,556.0" stroke="#000" stroke-width="1" /><polyline fill="none" opacity="100" points="195.0,531.0 195.0,556.0" stroke="#000" stroke-width="1" /><polyline fill="none" opacity="100" points="199.0,531.0 199.0,556.0" stroke="#000" stroke-width="1" /><polyline fill="none" opacity="100" points="203.0,531.0 203.0,556.0" stroke="#000" stroke-width="1" /><polyline fill="none" opacity="100" points="207.0,531.0 207.0,556.0" stroke="#000" stroke-width="1" /><polyline fill="none" opacity="100" points="211.0,531.0 211.0,556.0" stroke="#000" stroke-width="1" /><polyline fill="none" opacity="100" points="215.0,531.0 215.0,556.0" stroke="#000" stroke-width="1" /><polygon fill="#D0D0D0" opacity="100" points="274.0,312.0 266.0,312.0 266.0,369.0 274.0,369.0" stroke="#000" stroke-width="1" /><polyline fill="none" opacity="100" points="363.0,373.0 376.0,373.0 376.0,400.0 363.0,400.0" stroke="#000" stroke-width="1" /><text fill="#FFF" font-family="Arial" font-size="10" font-weight="normal" opacity="100" transform="rotate(-90.0 363.0,399.0) translate(0 10)" x="363.0" y="399.0">кассы</text><polygon fill="none" opacity="100" points="314.0,326.0 310.0,330.0 306.0,326.0 310.0,322.0" stroke="#000" stroke-width="1" /><polyline fill="none" opacity="100" points="316.0,329.0 313.0,332.0" stroke="#090" stroke-width="1" /><polyline fill="none" opacity="100" points="318.9242,331.7293 315.9242,334.7293" stroke="#090" stroke-width="1" /><polyline fill="none" opacity="100" points="321.8484,334.4585 318.8484,337.4585" stroke="#090" stroke-width="1" /><polyline fill="none" opacity="100" points="324.7727,337.1878 321.7727,340.1878" stroke="#090" stroke-width="1" /><polyline fill="none" opacity="100" points="327.6969,339.9171 324.6969,342.9171" stroke="#090" stroke-width="1" /><polyline fill="none" opacity="100" points="330.6211,342.6464 327.6211,345.6464" stroke="#090" stroke-width="1" /><polyline fill="none" opacity="100" points="333.5453,345.3756 330.5453,348.3756" stroke="#090" stroke-width="1" /><polyline fill="none" opacity="100" points="336.4695,348.1049 333.4695,351.1049" stroke="#090" stroke-width="1" /><polyline fill="none" opacity="100" points="339.3938,350.8342 336.3938,353.8342" stroke="#090" stroke-width="1" /><polyline fill="none" opacity="100" points="342.318,353.5635 339.318,356.5635" stroke="#090" stroke-width="1" /><polyline fill="none" opacity="100" points="345.2422,356.2927 342.2422,359.2927" stroke="#090" stroke-width="1" /><polyline fill="none" opacity="100" points="348.1664,359.022 345.1664,362.022" stroke="#090" stroke-width="1" /><polyline fill="none" opacity="100" points="351.0907,361.7513 348.0907,364.7513" stroke="#090" stroke-width="1" /><polyline fill="none" opacity="100" points="354.0149,364.4805 351.0149,367.4805" stroke="#090" stroke-width="1" /><polyline fill="none" opacity="100" points="356.9391,367.2098 353.9391,370.2098" stroke="#090" stroke-width="1" /><polyline fill="none" opacity="100" points="359.8633,369.9391 356.8633,372.9391" stroke="#090" stroke-width="1" /><polyline fill="none" opacity="100" points="313.0,283.0 308.0,283.0" stroke="#F00" stroke-width="1" /><polyline fill="none" opacity="100" points="313.0,287.0 308.0,287.0" stroke="#F00" stroke-width="1" /><polyline fill="none" opacity="100" points="313.0,291.0 308.0,291.0" stroke="#F00" stroke-width="1" /><polyline fill="none" opacity="100" points="313.0,295.0 308.0,295.0" stroke="#F00" stroke-width="1" /><polyline fill="none" opacity="100" points="313.0,299.0 308.0,299.0" stroke="#F00" stroke-width="1" /><polyline fill="none" opacity="100" points="313.0,303.0 308.0,303.0" stroke="#F00" stroke-width="1" /><polyline fill="none" opacity="100" points="313.0,307.0 308.0,307.0" stroke="#F00" stroke-width="1" /><polyline fill="none" opacity="100" points="313.0,311.0 308.0,311.0" stroke="#F00" stroke-width="1" /><polyline fill="none" opacity="100" points="313.0,315.0 308.0,315.0" stroke="#F00" stroke-width="1" /><polyline fill="none" opacity="100" points="313.0,319.0 308.0,319.0" stroke="#F00" stroke-width="1" /><polyline fill="none" opacity="100" points="908.0,222.0 962.0,222.0 1028.0,256.0 1085.0,256.0 1085.0,312.0 1047.0,312.0 1047.0,279.0 914.0,279.0 914.0,311.0 863.0,311.0 863.0,301.0" stroke="#000" stroke-width="1" /><polyline fill="none" opacity="100" points="907.0,521.0 962.0,521.0 1028.0,487.0 1085.0,487.0 1085.0,369.0 1047.0,369.0 1047.0,402.0 914.0,402.0 914.0,371.0 863.0,371.0 863.0,381.0" stroke="#000" stroke-width="1" /><polyline fill="none" opacity="100" points="908.0,197.0 969.0,197.0 1031.0,227.0 1082.0,227.0 1082.0,222.0 1045.0,222.0" stroke="#000" stroke-width="1" /><polyline fill="none" opacity="100" points="1045.0,197.0 1117.0,197.0 1117.0,546.0 1045.0,546.0" stroke="#000" stroke-width="1" /><polyline fill="none" opacity="100" points="907.0,546.0 969.0,546.0 1031.0,516.0 1082.0,516.0 1082.0,521.0 1045.0,521.0" stroke="#000" stroke-width="1" /><polyline fill="none" opacity="100" points="910.0,521.0 910.0,546.0" stroke="#000" stroke-width="1" /><polyline fill="none" opacity="100" points="914.0,521.0 914.0,546.0" stroke="#000" stroke-width="1" /><polyline fill="none" opacity="100" points="918.0,521.0 918.0,546.0" stroke="#000" stroke-width="1" /><polyline fill="none" opacity="100" points="922.0,521.0 922.0,546.0" stroke="#000" stroke-width="1" /><polyline fill="none" opacity="100" points="926.0,521.0 926.0,546.0" stroke="#000" stroke-width="1" /><polyline fill="none" opacity="100" points="930.0,521.0 930.0,546.0" stroke="#000" stroke-width="1" /><polyline fill="none" opacity="100" points="934.0,521.0 934.0,546.0" stroke="#000" stroke-width="1" /><polyline fill="none" opacity="100" points="938.0,521.0 938.0,546.0" stroke="#000" stroke-width="1" /><polyline fill="none" opacity="100" points="942.0,521.0 942.0,546.0" stroke="#000" stroke-width="1" /><polyline fill="none" opacity="100" points="1048.0,521.0 1048.0,546.0" stroke="#000" stroke-width="1" /><polyline fill="none" opacity="100" points="1052.0,521.0 1052.0,546.0" stroke="#000" stroke-width="1" /><polyline fill="none" opacity="100" points="1056.0,521.0 1056.0,546.0" stroke="#000" stroke-width="1" /><polyline fill="none" opacity="100" points="1060.0,521.0 1060.0,546.0" stroke="#000" stroke-width="1" /><polyline fill="none" opacity="100" points="1064.0,521.0 1064.0,546.0" stroke="#000" stroke-width="1" /><polyline fill="none" opacity="100" points="1068.0,521.0 1068.0,546.0" stroke="#000" stroke-width="1" /><polyline fill="none" opacity="100" points="1072.0,521.0 1072.0,546.0" stroke="#000" stroke-width="1" /><polyline fill="none" opacity="100" points="1076.0,521.0 1076.0,546.0" stroke="#000" stroke-width="1" /><polyline fill="none" opacity="100" points="1080.0,521.0 1080.0,546.0" stroke="#000" stroke-width="1" /><polyline fill="none" opacity="100" points="942.0,197.0 942.0,222.0" stroke="#000" stroke-width="1" /><polyline fill="none" opacity="100" points="938.0,197.0 938.0,222.0" stroke="#000" stroke-width="1" /><polyline fill="none" opacity="100" points="934.0,197.0 934.0,222.0" stroke="#000" stroke-width="1" /><polyline fill="none" opacity="100" points="930.0,197.0 930.0,222.0" stroke="#000" stroke-width="1" /><polyline fill="none" opacity="100" points="926.0,197.0 926.0,222.0" stroke="#000" stroke-width="1" /><polyline fill="none" opacity="100" points="922.0,197.0 922.0,222.0" stroke="#000" stroke-width="1" /><polyline fill="none" opacity="100" points="918.0,197.0 918.0,222.0" stroke="#000" stroke-width="1" /><polyline fill="none" opacity="100" points="914.0,197.0 914.0,222.0" stroke="#000" stroke-width="1" /><polyline fill="none" opacity="100" points="910.0,197.0 910.0,222.0" stroke="#000" stroke-width="1" /><polyline fill="none" opacity="100" points="1048.0,197.0 1048.0,222.0" stroke="#000" stroke-width="1" /><polyline fill="none" opacity="100" points="1052.0,197.0 1052.0,222.0" stroke="#000" stroke-width="1" /><polyline fill="none" opacity="100" points="1056.0,197.0 1056.0,222.0" stroke="#000" stroke-width="1" /><polyline fill="none" opacity="100" points="1060.0,197.0 1060.0,222.0" stroke="#000" stroke-width="1" /><polyline fill="none" opacity="100" points="1064.0,197.0 1064.0,222.0" stroke="#000" stroke-width="1" /><polyline fill="none" opacity="100" points="1068.0,197.0 1068.0,222.0" stroke="#000" stroke-width="1" /><polyline fill="none" opacity="100" points="1072.0,197.0 1072.0,222.0" stroke="#000" stroke-width="1" /><polyline fill="none" opacity="100" points="1076.0,197.0 1076.0,222.0" stroke="#000" stroke-width="1" /><polyline fill="none" opacity="100" points="1080.0,197.0 1080.0,222.0" stroke="#000" stroke-width="1" /><polyline fill="none" opacity="100" points="1065.0,312.0 1065.0,369.0" stroke="#000" stroke-width="1" /><polyline fill="none" opacity="100" points="1061.0,312.0 1061.0,369.0" stroke="#000" stroke-width="1" /><polyline fill="none" opacity="100" points="1057.0,312.0 1057.0,369.0" stroke="#000" stroke-width="1" /><polyline fill="none" opacity="100" points="1053.0,312.0 1053.0,369.0" stroke="#000" stroke-width="1" /><polyline fill="none" opacity="100" points="1049.0,312.0 1049.0,369.0" stroke="#000" stroke-width="1" /><polyline fill="none" opacity="100" points="911.0,311.0 911.0,371.0" stroke="#000" stroke-width="1" /><polyline fill="none" opacity="100" points="907.0,311.0 907.0,371.0" stroke="#000" stroke-width="1" /><polyline fill="none" opacity="100" points="903.0,311.0 903.0,371.0" stroke="#000" stroke-width="1" /><polyline fill="none" opacity="100" points="899.0,311.0 899.0,371.0" stroke="#000" stroke-width="1" /><polyline fill="none" opacity="100" points="895.0,311.0 895.0,371.0" stroke="#000" stroke-width="1" /><polyline fill="none" opacity="100" points="891.0,311.0 891.0,371.0" stroke="#000" stroke-width="1" /><polyline fill="none" opacity="100" points="887.0,311.0 887.0,371.0" stroke="#000" stroke-width="1" /><polyline fill="none" opacity="100" points="883.0,311.0 883.0,371.0" stroke="#000" stroke-width="1" /><polyline fill="none" opacity="100" points="879.0,311.0 879.0,371.0" stroke="#000" stroke-width="1" /><polyline fill="none" opacity="100" points="875.0,311.0 875.0,371.0" stroke="#000" stroke-width="1" /><polyline fill="none" opacity="100" points="871.0,311.0 871.0,371.0" stroke="#000" stroke-width="1" /><polyline fill="none" opacity="100" points="867.0,311.0 867.0,371.0" stroke="#000" stroke-width="1" /><polygon fill="#D0D0D0" opacity="100" points="1013.0,312.0 1005.0,312.0 1005.0,369.0 1013.0,369.0" stroke="#000" stroke-width="1" /><polygon fill="none" opacity="100" points="978.0,326.0 974.0,330.0 970.0,326.0 974.0,322.0" stroke="#000" stroke-width="1" /><polyline fill="none" opacity="100" points="967.0,329.0 971.0,333.0" stroke="#090" stroke-width="1" /><polyline fill="none" opacity="100" points="963.9123,331.5428 967.9123,335.5428" stroke="#090" stroke-width="1" /><polyline fill="none" opacity="100" points="960.8246,334.0857 964.8246,338.0857" stroke="#090" stroke-width="1" /><polyline fill="none" opacity="100" points="957.7368,336.6285 961.7368,340.6285" stroke="#090" stroke-width="1" /><polyline fill="none" opacity="100" points="954.6491,339.1713 958.6491,343.1713" stroke="#090" stroke-width="1" /><polyline fill="none" opacity="100" points="951.5614,341.7141 955.5614,345.7141" stroke="#090" stroke-width="1" /><polyline fill="none" opacity="100" points="948.4737,344.257 952.4737,348.257" stroke="#090" stroke-width="1" /><polyline fill="none" opacity="100" points="945.386,346.7998 949.386,350.7998" stroke="#090" stroke-width="1" /><polyline fill="none" opacity="100" points="942.2982,349.3426 946.2982,353.3426" stroke="#090" stroke-width="1" /><polyline fill="none" opacity="100" points="939.2105,351.8855 943.2105,355.8855" stroke="#090" stroke-width="1" /><polyline fill="none" opacity="100" points="936.1228,354.4283 940.1228,358.4283" stroke="#090" stroke-width="1" /><polyline fill="none" opacity="100" points="933.0351,356.9711 937.0351,360.9711" stroke="#090" stroke-width="1" /><polyline fill="none" opacity="100" points="929.9473,359.5139 933.9473,363.5139" stroke="#090" stroke-width="1" /><polyline fill="none" opacity="100" points="926.8596,362.0568 930.8596,366.0568" stroke="#090" stroke-width="1" /><polyline fill="none" opacity="100" points="923.7719,364.5996 927.7719,368.5996" stroke="#090" stroke-width="1" /><polyline fill="none" opacity="100" points="920.6842,367.1424 924.6842,371.1424" stroke="#090" stroke-width="1" /><polyline fill="none" opacity="100" points="917.5965,369.6853 921.5965,373.6853" stroke="#090" stroke-width="1" /><polyline fill="none" opacity="100" points="977.0,283.0 972.0,283.0" stroke="#F00" stroke-width="1" /><polyline fill="none" opacity="100" points="977.0,287.0 972.0,287.0" stroke="#F00" stroke-width="1" /><polyline fill="none" opacity="100" points="977.0,291.0 972.0,291.0" stroke="#F00" stroke-width="1" /><polyline fill="none" opacity="100" points="977.0,295.0 972.0,295.0" stroke="#F00" stroke-width="1" /><polyline fill="none" opacity="100" points="977.0,299.0 972.0,299.0" stroke="#F00" stroke-width="1" /><polyline fill="none" opacity="100" points="977.0,303.0 972.0,303.0" stroke="#F00" stroke-width="1" /><polyline fill="none" opacity="100" points="977.0,307.0 972.0,307.0" stroke="#F00" stroke-width="1" /><polyline fill="none" opacity="100" points="977.0,311.0 972.0,311.0" stroke="#F00" stroke-width="1" /><polyline fill="none" opacity="100" points="977.0,315.0 972.0,315.0" stroke="#F00" stroke-width="1" /><polyline fill="none" opacity="100" points="977.0,319.0 972.0,319.0" stroke="#F00" stroke-width="1" /><polyline fill="none" opacity="100" points="914.0,373.0 901.0,373.0 901.0,400.0 914.0,400.0" stroke="#000" stroke-width="1" /><text fill="#000" font-family="Arial" font-size="10" font-weight="normal" opacity="100" transform="rotate(-90.0 901.0,399.0) translate(0 10)" x="901.0" y="399.0">кассы</text><polyline fill="none" opacity="100" points="993.0,295.0 1005.0,295.0" stroke="#F00" stroke-width="1" /><polygon fill="#F00" opacity="100" points="1001.5227,295.9317 1005.0,295.0 1001.5227,294.0683" stroke="#F00" stroke-width="1" /><polyline fill="none" opacity="100" points="299.0,296.0 287.0,296.0" stroke="#F00" stroke-width="1" /><polygon fill="#F00" opacity="100" points="290.4773,295.0683 287.0,296.0 290.4773,296.9317" stroke="#F00" stroke-width="1" /><polyline fill="none" opacity="100" points="976.0,382.0 967.0,373.0" stroke="#090" stroke-width="1" /><polygon fill="#090" opacity="100" points="970.3068,374.9092 967.0,373.0 968.9092,376.3068" stroke="#090" stroke-width="1" /><polyline fill="none" opacity="100" points="295.0,380.0 304.0,371.0" stroke="#090" stroke-width="1" /><polygon fill="#090" opacity="100" points="302.0908,374.3068 304.0,371.0 300.6932,372.9092" stroke="#090" stroke-width="1" /><polygon fill="#34349C" opacity="100" points="999.0,360.0 999.0,365.0 1001.0,365.0 1001.0,360.0" stroke="#34349C" stroke-width="1" /><polygon fill="#34349C" opacity="100" points="623.0,343.0 623.0,353.0 621.0,353.0 621.0,343.0" stroke="#34349C" stroke-width="1" /><polygon fill="#34349C" opacity="100" points="337.0,309.0 342.0,309.0 342.0,311.0 337.0,311.0" stroke="#34349C" stroke-width="1" /><polygon fill="#F00" opacity="100" points="999.0,355.0 999.0,360.0 1001.0,360.0 1001.0,355.0" stroke="#F00" stroke-width="1" /><polygon fill="#F00" opacity="100" points="623.0,348.0 623.0,343.0 621.0,343.0 621.0,348.0" stroke="#F00" stroke-width="1" /><polygon fill="#F00" opacity="100" points="332.0,309.0 337.0,309.0 337.0,311.0 332.0,311.0" stroke="#F00" stroke-width="1" /><text fill="#00AFAF" font-family="Arial" font-size="15" font-weight="normal" opacity="100" transform="rotate(-0.0 1139.0,457.0) translate(0 15)" x="1139.0" y="457.0">Новоясеневский проспект</text><text fill="#00AFAF" font-family="Arial" font-size="15" font-weight="normal" opacity="100" transform="rotate(-0.0 17.0,458.0) translate(0 15)" x="17.0" y="458.0">Новоясеневский проспект</text><text fill="#00AFAF" font-family="Arial" font-size="15" font-weight="normal" opacity="100" transform="rotate(-90.0 987.0,175.0) translate(0 15)" x="987.0" y="175.0">Ясногорская улица</text><text fill="#00AFAF" font-family="Arial" font-size="15" font-weight="normal" opacity="100" transform="rotate(-90.0 991.0,685.0) translate(0 15)" x="991.0" y="685.0">Ясногорская улица</text><text fill="#00AFAF" font-family="Arial" font-size="15" font-weight="normal" opacity="100" transform="rotate(-90.0 390.0,675.0) translate(0 15)" x="390.0" y="675.0">Тарусская улица</text><text fill="#00AFAF" font-family="Arial" font-size="15" font-weight="normal" opacity="100" transform="rotate(-90.0 406.0,175.0) translate(0 15)" x="406.0" y="175.0">Тарусская улица</text><polyline fill="none" opacity="100" points="474.0,521.0 436.0,521.0 430.0,546.0 460.0,574.0" stroke="#000" stroke-width="1" /><polyline fill="none" opacity="100" points="325.0,521.0 363.0,521.0 369.0,546.0 339.0,574.0" stroke="#000" stroke-width="1" /><polyline fill="none" opacity="100" points="363.0,521.0 436.0,521.0" stroke="#D8D8D8" stroke-width="1" /><polyline fill="none" opacity="100" points="369.0,546.0 430.0,546.0" stroke="#D8D8D8" stroke-width="1" /><g transform="rotate(-17.0,640.0,400.0)"><text fill="#FFD900" font-family="Arial" font-size="25" font-weight="normal" opacity="100" x="966.25" y="272.5">1</text><text fill="#FFD900" font-family="Arial" font-size="25" font-weight="normal" opacity="100" x="1101.25" y="317.5">2</text><text fill="#FFD900" font-family="Arial" font-size="25" font-weight="normal" opacity="100" x="987.25" y="695.5">3</text><text fill="#FFD900" font-family="Arial" font-size="25" font-weight="normal" opacity="100" x="853.25" y="656.5">4</text><text fill="#FFD900" font-family="Arial" font-size="25" font-weight="normal" opacity="100" x="156.25" y="455.5">5</text><text fill="#FFD900" font-family="Arial" font-size="25" font-weight="normal" opacity="100" x="221.25" y="259.5">6</text><text fill="#FFD900" font-family="Arial" font-size="25" font-weight="normal" opacity="100" x="263.25" y="136.5">7</text><text fill="#FFD900" font-family="Arial" font-size="25" font-weight="normal" opacity="100" x="523.25" y="139.5">8</text></g></g></g></svg>