<?xml version="1.0" encoding="utf-8" ?>
<svg baseProfile="tiny" height="670px" version="1.2" width="870px" xmlns="http://www.w3.org/2000/svg" xmlns:ev="http://www.w3.org/2001/xml-events" xmlns:xlink="http://www.w3.org/1999/xlink"><defs /><g><g transform="rotate(30.0,435.0,335.0)"><polygon fill="#30D5C8" opacity="100" points="196.0,296.0 196.0,266.0 645.0,266.0 645.0,296.0" stroke="#000" stroke-width="1" /><polygon fill="#30D5C8" opacity="100" points="196.0,404.0 196.0,374.0 645.0,374.0 645.0,404.0" stroke="#000" stroke-width="1" /><text fill="#30D5C8" font-family="Arial" font-size="20" font-weight="normal" opacity="100" transform="rotate(-0.0 199.0,242.0) translate(0 20)" x="199.0" y="242.0">&lt;&lt; Воронцовская</text><text fill="#30D5C8" font-family="Arial" font-size="20" font-weight="normal" opacity="100" transform="rotate(-0.0 533.0,404.0) translate(0 20)" x="533.0" y="404.0">Каховская &gt;&gt;</text><text fill="#30D5C8" font-family="Arial" font-size="25" font-weight="bold" opacity="100" transform="rotate(-0.0 377.0,308.0) translate(0 25)" x="377.0" y="308.0">Зюзино</text><polygon fill="#94949C" opacity="100" points="423.0,341.0 423.0,337.0 421.0,337.0 421.0,341.0" stroke="#94949C" stroke-width="1" /><polygon fill="#F00" opacity="100" points="423.0,345.0 423.0,341.0 421.0,341.0 421.0,345.0" stroke="#F00" stroke-width="1" /><polyline fill="none" opacity="100" points="166.0,363.0 196.0,363.0 196.0,361.0 224.0,361.0 224.0,355.0 207.0,355.0" stroke="#000" stroke-width="1" /><polyline fill="none" opacity="100" points="196.0,374.0 196.0,373.0 166.0,373.0" stroke="#000" stroke-width="1" /><polyline fill="none" opacity="100" points="131.0,355.0 126.0,355.0 126.0,363.0 156.0,363.0" stroke="#000" stroke-width="1" /><polyline fill="none" opacity="100" points="156.0,373.0 126.0,373.0 126.0,383.0 118.0,391.0 79.0,391.0 79.0,381.0 69.0,381.0 69.0,385.0 48.0,385.0 48.0,408.0 100.0,408.0" stroke="#000" stroke-width="1" /><polyline fill="none" opacity="100" points="100.0,426.0 58.0,426.0" stroke="#000" stroke-width="1" /><polyline fill="none" opacity="100" points="85.0,210.0 40.0,210.0" stroke="#000" stroke-width="1" /><polyline fill="none" opacity="100" points="54.0,430.0 40.0,430.0 25.0,445.0 15.0,435.0 30.0,420.0 30.0,385.0 15.0,370.0 15.0,210.0 32.0,210.0" stroke="#000" stroke-width="1" /><polyline fill="none" opacity="100" points="85.0,228.0 32.0,228.0 32.0,288.0 69.0,288.0 69.0,292.0 118.0,292.0 126.0,300.0 126.0,315.0 131.0,315.0" stroke="#000" stroke-width="1" /><polyline fill="none" opacity="100" points="207.0,315.0 224.0,315.0 224.0,308.0 196.0,308.0 196.0,296.0" stroke="#000" stroke-width="1" /><polyline fill="none" opacity="100" points="83.0,214.0 83.0,228.0" stroke="#000" stroke-width="1" /><polyline fill="none" opacity="100" points="79.0,214.0 79.0,228.0" stroke="#000" stroke-width="1" /><polyline fill="none" opacity="100" points="75.0,214.0 75.0,228.0" stroke="#000" stroke-width="1" /><polyline fill="none" opacity="100" points="71.0,214.0 71.0,228.0" stroke="#000" stroke-width="1" /><polyline fill="none" opacity="100" points="67.0,214.0 67.0,228.0" stroke="#000" stroke-width="1" /><polyline fill="none" opacity="100" points="63.0,214.0 63.0,228.0" stroke="#000" stroke-width="1" /><polyline fill="none" opacity="100" points="59.0,214.0 59.0,228.0" stroke="#000" stroke-width="1" /><polyline fill="none" opacity="100" points="55.0,214.0 55.0,228.0" stroke="#000" stroke-width="1" /><polyline fill="none" opacity="100" points="51.0,214.0 51.0,228.0" stroke="#000" stroke-width="1" /><polyline fill="none" opacity="100" points="47.0,214.0 47.0,228.0" stroke="#000" stroke-width="1" /><polyline fill="none" opacity="100" points="98.0,408.0 98.0,422.0" stroke="#000" stroke-width="1" /><polyline fill="none" opacity="100" points="94.0,408.0 94.0,422.0" stroke="#000" stroke-width="1" /><polyline fill="none" opacity="100" points="90.0,408.0 90.0,422.0" stroke="#000" stroke-width="1" /><polyline fill="none" opacity="100" points="86.0,408.0 86.0,422.0" stroke="#000" stroke-width="1" /><polyline fill="none" opacity="100" points="82.0,408.0 82.0,422.0" stroke="#000" stroke-width="1" /><polyline fill="none" opacity="100" points="78.0,408.0 78.0,422.0" stroke="#000" stroke-width="1" /><polyline fill="none" opacity="100" points="74.0,408.0 74.0,422.0" stroke="#000" stroke-width="1" /><polyline fill="none" opacity="100" points="70.0,408.0 70.0,422.0" stroke="#000" stroke-width="1" /><polyline fill="none" opacity="100" points="66.0,408.0 66.0,422.0" stroke="#000" stroke-width="1" /><polyline fill="none" opacity="100" points="62.0,408.0 62.0,422.0" stroke="#000" stroke-width="1" /><polyline fill="none" opacity="100" points="85.0,214.0 44.0,214.0" stroke="#000" stroke-width="0.5" /><polyline fill="none" opacity="100" points="100.0,422.0 60.0,422.0" stroke="#000" stroke-width="0.5" /><polyline fill="none" opacity="100" points="48.0,396.0 35.0,396.0" stroke="#000" stroke-width="1" /><polyline fill="none" opacity="100" points="48.0,400.0 35.0,400.0" stroke="#000" stroke-width="1" /><polyline fill="none" opacity="100" points="48.0,404.0 35.0,404.0" stroke="#000" stroke-width="1" /><polyline fill="none" opacity="100" points="35.0,393.0 35.0,407.0" stroke="#000" stroke-width="0.5" /><polyline fill="none" opacity="100" points="32.0,210.0 32.0,199.0 69.0,199.0" stroke="#000" stroke-width="1" /><polyline fill="none" opacity="100" points="54.0,430.0 54.0,437.0 88.0,437.0" stroke="#000" stroke-width="1" /><polygon fill="#D0D0D0" opacity="100" points="53.0,357.0 47.0,351.0 51.0,321.0 65.0,321.0 69.0,325.0 69.0,357.0" stroke="#000" stroke-width="1" /><polyline fill="none" opacity="100" points="137.0,318.0 137.0,352.0" stroke="#7F7F7F" stroke-width="1" /><polyline fill="none" opacity="100" points="141.0,318.0 141.0,352.0" stroke="#7F7F7F" stroke-width="1" /><polyline fill="none" opacity="100" points="145.0,318.0 145.0,352.0" stroke="#7F7F7F" stroke-width="1" /><polyline fill="none" opacity="100" points="149.0,318.0 149.0,352.0" stroke="#7F7F7F" stroke-width="1" /><polyline fill="none" opacity="100" points="153.0,318.0 153.0,352.0" stroke="#7F7F7F" stroke-width="1" /><polyline fill="none" opacity="100" points="157.0,318.0 157.0,352.0" stroke="#7F7F7F" stroke-width="1" /><polyline fill="none" opacity="100" points="161.0,318.0 161.0,352.0" stroke="#7F7F7F" stroke-width="1" /><polyline fill="none" opacity="100" points="165.0,318.0 165.0,352.0" stroke="#7F7F7F" stroke-width="1" /><polyline fill="none" opacity="100" points="169.0,318.0 169.0,352.0" stroke="#7F7F7F" stroke-width="1" /><polyline fill="none" opacity="100" points="173.0,318.0 173.0,352.0" stroke="#7F7F7F" stroke-width="1" /><polyline fill="none" opacity="100" points="177.0,318.0 177.0,352.0" stroke="#7F7F7F" stroke-width="1" /><polyline fill="none" opacity="100" points="181.0,318.0 181.0,352.0" stroke="#7F7F7F" stroke-width="1" /><polyline fill="none" opacity="100" points="185.0,318.0 185.0,352.0" stroke="#7F7F7F" stroke-width="1" /><polyline fill="none" opacity="100" points="189.0,318.0 189.0,352.0" stroke="#7F7F7F" stroke-width="1" /><polyline fill="none" opacity="100" points="193.0,318.0 193.0,352.0" stroke="#7F7F7F" stroke-width="1" /><polyline fill="none" opacity="100" points="197.0,318.0 197.0,352.0" stroke="#7F7F7F" stroke-width="1" /><polyline fill="none" opacity="100" points="201.0,318.0 201.0,352.0" stroke="#7F7F7F" stroke-width="1" /><polygon fill="#9B5509" opacity="100" points="131.0,352.0 207.0,352.0 207.0,355.0 131.0,355.0" stroke="#000" stroke-width="1" /><polygon fill="#9B5509" opacity="100" points="131.0,344.0 131.0,339.0 207.0,339.0 207.0,344.0" stroke="#000" stroke-width="1" /><polygon fill="#9B5509" opacity="100" points="131.0,331.0 131.0,326.0 207.0,326.0 207.0,331.0" stroke="#000" stroke-width="1" /><polygon fill="#9B5509" opacity="100" points="131.0,318.0 207.0,318.0 207.0,315.0 131.0,315.0" stroke="#000" stroke-width="1" /><polyline fill="none" opacity="100" points="40.0,210.0 32.0,210.0" stroke="#D0D0D0" stroke-width="1" /><polygon fill="#D0EFFF" opacity="100" points="54.0,210.0 54.0,199.0 65.0,199.0 65.0,210.0" stroke="#000" stroke-width="1" /><text fill="#000" font-family="Arial" font-size="4" font-weight="normal" opacity="100" transform="rotate(-0.0 55.0,201.0) translate(0 4)" x="55.0" y="201.0">лифт</text><polyline fill="none" opacity="100" points="58.0,426.0 54.0,430.0" stroke="#D0D0D0" stroke-width="1" /><polygon fill="#D0EFFF" opacity="100" points="73.0,437.0 73.0,426.0 84.0,426.0 84.0,437.0" stroke="#000" stroke-width="1" /><text fill="#000" font-family="Arial" font-size="4" font-weight="normal" opacity="100" transform="rotate(-0.0 75.0,428.0) translate(0 4)" x="75.0" y="428.0">лифт</text><polygon fill="#D0EFFF" opacity="100" points="156.0,373.0 156.0,363.0 166.0,363.0 166.0,373.0" stroke="#000" stroke-width="1" /><text fill="#000" font-family="Arial" font-size="4" font-weight="normal" opacity="100" transform="rotate(-0.0 157.0,365.0) translate(0 4)" x="157.0" y="365.0">лифт</text><polygon fill="#FFF" opacity="100" points="69.0,327.0 61.0,327.0 61.0,353.0 69.0,353.0" stroke="#000" stroke-width="1" /><text fill="#FFF" font-family="Arial" font-size="10" font-weight="normal" opacity="100" transform="rotate(-90.0 58.0,352.0) translate(0 10)" x="58.0" y="352.0">кассы</text><polyline fill="none" opacity="100" points="129.0,327.0 81.0,327.0" stroke="#000" stroke-width="0.5" /><polygon fill="none" opacity="100" points="96.0,320.0 103.0,320.0 103.0,327.0 96.0,327.0" stroke="#000" stroke-width="1" /><polyline fill="none" opacity="100" points="107.0,391.0 107.0,364.0" stroke="#000" stroke-width="0.5" /><polyline fill="none" opacity="100" points="104.0,331.0 108.0,331.0" stroke="#090" stroke-width="1" /><polyline fill="none" opacity="100" points="104.0,335.0 108.0,335.0" stroke="#090" stroke-width="1" /><polyline fill="none" opacity="100" points="104.0,339.0 108.0,339.0" stroke="#090" stroke-width="1" /><polyline fill="none" opacity="100" points="104.0,343.0 108.0,343.0" stroke="#090" stroke-width="1" /><polyline fill="none" opacity="100" points="104.0,347.0 108.0,347.0" stroke="#090" stroke-width="1" /><polyline fill="none" opacity="100" points="104.0,351.0 108.0,351.0" stroke="#090" stroke-width="1" /><polyline fill="none" opacity="100" points="104.0,355.0 108.0,355.0" stroke="#090" stroke-width="1" /><polyline fill="none" opacity="100" points="104.0,359.0 108.0,359.0" stroke="#090" stroke-width="1" /><polyline fill="none" opacity="100" points="104.0,363.0 108.0,363.0" stroke="#090" stroke-width="1" /><polyline fill="none" opacity="100" points="97.0,296.0 101.0,296.0" stroke="#F00" stroke-width="1" /><polyline fill="none" opacity="100" points="97.0,300.0 101.0,300.0" stroke="#F00" stroke-width="1" /><polyline fill="none" opacity="100" points="97.0,304.0 101.0,304.0" stroke="#F00" stroke-width="1" /><polyline fill="none" opacity="100" points="97.0,308.0 101.0,308.0" stroke="#F00" stroke-width="1" /><polyline fill="none" opacity="100" points="97.0,312.0 101.0,312.0" stroke="#F00" stroke-width="1" /><polyline fill="none" opacity="100" points="97.0,316.0 101.0,316.0" stroke="#F00" stroke-width="1" /><polyline fill="none" opacity="100" points="68.0,306.0 49.0,306.0" stroke="#F00" stroke-width="1" /><polygon fill="#F00" opacity="100" points="54.5058,304.5247 49.0,306.0 54.5058,307.4753" stroke="#F00" stroke-width="1" /><polyline fill="none" opacity="100" points="49.0,370.0 68.0,370.0" stroke="#090" stroke-width="1" /><polygon fill="#090" opacity="100" points="62.4942,371.4753 68.0,370.0 62.4942,368.5247" stroke="#090" stroke-width="1" /><polygon fill="#94949C" opacity="100" points="75.0,327.0 79.0,327.0 79.0,325.0 75.0,325.0" stroke="#94949C" stroke-width="1" /><polygon fill="#F00" opacity="100" points="71.0,327.0 75.0,327.0 75.0,325.0 71.0,325.0" stroke="#F00" stroke-width="1" /><polyline fill="none" opacity="100" points="645.0,296.0 645.0,306.0 621.0,306.0 621.0,315.0 633.0,315.0" stroke="#000" stroke-width="1" /><polyline fill="none" opacity="100" points="707.0,315.0 715.0,315.0 715.0,300.0 723.0,292.0 764.0,292.0 764.0,288.0 786.0,288.0 786.0,231.0 844.0,231.0" stroke="#000" stroke-width="1" /><polyline fill="none" opacity="100" points="844.0,249.0 804.0,249.0 804.0,297.0 814.0,308.0 814.0,426.0 869.0,426.0" stroke="#000" stroke-width="1" /><polyline fill="none" opacity="100" points="869.0,444.0 796.0,444.0 796.0,385.0 764.0,385.0 764.0,381.0 723.0,381.0 715.0,373.0 715.0,355.0 707.0,355.0" stroke="#000" stroke-width="1" /><polyline fill="none" opacity="100" points="633.0,355.0 621.0,355.0 621.0,364.0 645.0,364.0 645.0,374.0" stroke="#000" stroke-width="1" /><polyline fill="none" opacity="100" points="842.0,231.0 842.0,245.0" stroke="#000" stroke-width="1" /><polyline fill="none" opacity="100" points="838.0,231.0 838.0,245.0" stroke="#000" stroke-width="1" /><polyline fill="none" opacity="100" points="834.0,231.0 834.0,245.0" stroke="#000" stroke-width="1" /><polyline fill="none" opacity="100" points="830.0,231.0 830.0,245.0" stroke="#000" stroke-width="1" /><polyline fill="none" opacity="100" points="826.0,231.0 826.0,245.0" stroke="#000" stroke-width="1" /><polyline fill="none" opacity="100" points="822.0,231.0 822.0,245.0" stroke="#000" stroke-width="1" /><polyline fill="none" opacity="100" points="818.0,231.0 818.0,245.0" stroke="#000" stroke-width="1" /><polyline fill="none" opacity="100" points="814.0,231.0 814.0,245.0" stroke="#000" stroke-width="1" /><polyline fill="none" opacity="100" points="810.0,231.0 810.0,245.0" stroke="#000" stroke-width="1" /><polyline fill="none" opacity="100" points="806.0,231.0 806.0,245.0" stroke="#000" stroke-width="1" /><polyline fill="none" opacity="100" points="867.0,444.0 867.0,430.0" stroke="#000" stroke-width="1" /><polyline fill="none" opacity="100" points="863.0,444.0 863.0,430.0" stroke="#000" stroke-width="1" /><polyline fill="none" opacity="100" points="859.0,444.0 859.0,430.0" stroke="#000" stroke-width="1" /><polyline fill="none" opacity="100" points="855.0,444.0 855.0,430.0" stroke="#000" stroke-width="1" /><polyline fill="none" opacity="100" points="851.0,444.0 851.0,430.0" stroke="#000" stroke-width="1" /><polyline fill="none" opacity="100" points="847.0,444.0 847.0,430.0" stroke="#000" stroke-width="1" /><polyline fill="none" opacity="100" points="843.0,444.0 843.0,430.0" stroke="#000" stroke-width="1" /><polyline fill="none" opacity="100" points="839.0,444.0 839.0,430.0" stroke="#000" stroke-width="1" /><polyline fill="none" opacity="100" points="835.0,444.0 835.0,430.0" stroke="#000" stroke-width="1" /><polyline fill="none" opacity="100" points="831.0,444.0 831.0,430.0" stroke="#000" stroke-width="1" /><polyline fill="none" opacity="100" points="869.0,430.0 829.0,430.0" stroke="#000" stroke-width="0.5" /><polyline fill="none" opacity="100" points="844.0,245.0 804.0,245.0" stroke="#000" stroke-width="0.5" /><polygon fill="#D0D0D0" opacity="100" points="768.0,357.0 764.0,353.0 764.0,312.0 782.0,312.0 786.0,316.0 781.0,357.0" stroke="#000" stroke-width="1" /><polyline fill="none" opacity="100" points="640.0,318.0 640.0,352.0" stroke="#7F7F7F" stroke-width="1" /><polyline fill="none" opacity="100" points="644.0,318.0 644.0,352.0" stroke="#7F7F7F" stroke-width="1" /><polyline fill="none" opacity="100" points="648.0,318.0 648.0,352.0" stroke="#7F7F7F" stroke-width="1" /><polyline fill="none" opacity="100" points="652.0,318.0 652.0,352.0" stroke="#7F7F7F" stroke-width="1" /><polyline fill="none" opacity="100" points="656.0,318.0 656.0,352.0" stroke="#7F7F7F" stroke-width="1" /><polyline fill="none" opacity="100" points="660.0,318.0 660.0,352.0" stroke="#7F7F7F" stroke-width="1" /><polyline fill="none" opacity="100" points="664.0,318.0 664.0,352.0" stroke="#7F7F7F" stroke-width="1" /><polyline fill="none" opacity="100" points="668.0,318.0 668.0,352.0" stroke="#7F7F7F" stroke-width="1" /><polyline fill="none" opacity="100" points="672.0,318.0 672.0,352.0" stroke="#7F7F7F" stroke-width="1" /><polyline fill="none" opacity="100" points="676.0,318.0 676.0,352.0" stroke="#7F7F7F" stroke-width="1" /><polyline fill="none" opacity="100" points="680.0,318.0 680.0,352.0" stroke="#7F7F7F" stroke-width="1" /><polyline fill="none" opacity="100" points="684.0,318.0 684.0,352.0" stroke="#7F7F7F" stroke-width="1" /><polyline fill="none" opacity="100" points="688.0,318.0 688.0,352.0" stroke="#7F7F7F" stroke-width="1" /><polyline fill="none" opacity="100" points="692.0,318.0 692.0,352.0" stroke="#7F7F7F" stroke-width="1" /><polyline fill="none" opacity="100" points="696.0,318.0 696.0,352.0" stroke="#7F7F7F" stroke-width="1" /><polyline fill="none" opacity="100" points="700.0,318.0 700.0,352.0" stroke="#7F7F7F" stroke-width="1" /><polygon fill="#9B5509" opacity="100" points="633.0,352.0 707.0,352.0 707.0,355.0 633.0,355.0" stroke="#000" stroke-width="1" /><polygon fill="#9B5509" opacity="100" points="633.0,344.0 633.0,339.0 707.0,339.0 707.0,344.0" stroke="#000" stroke-width="1" /><polygon fill="#9B5509" opacity="100" points="633.0,331.0 633.0,326.0 707.0,326.0 707.0,331.0" stroke="#000" stroke-width="1" /><polygon fill="#9B5509" opacity="100" points="633.0,318.0 707.0,318.0 707.0,315.0 633.0,315.0" stroke="#000" stroke-width="1" /><polygon fill="#FFF" opacity="100" points="764.0,324.0 773.0,324.0 773.0,349.0 764.0,349.0" stroke="#000" stroke-width="1" /><text fill="#FFF" font-family="Arial" font-size="10" font-weight="normal" opacity="100" transform="rotate(-90.0 761.0,349.0) translate(0 10)" x="761.0" y="349.0">кассы</text><polyline fill="none" opacity="100" points="738.0,339.0 707.0,339.0" stroke="#000" stroke-width="0.5" /><polygon fill="none" opacity="100" points="744.0,339.0 738.0,339.0 738.0,345.0 744.0,345.0" stroke="#000" stroke-width="1" /><polyline fill="none" opacity="100" points="744.0,360.0 744.0,346.0" stroke="#000" stroke-width="0.5" /><polyline fill="none" opacity="100" points="766.0,355.0 756.0,355.0" stroke="#000" stroke-width="0.5" /><polyline fill="none" opacity="100" points="738.0,315.0 715.0,315.0" stroke="#000" stroke-width="0.5" /><polyline fill="none" opacity="100" points="743.0,315.0 739.0,315.0" stroke="#090" stroke-width="1" /><polyline fill="none" opacity="100" points="743.0,319.0 739.0,319.0" stroke="#090" stroke-width="1" /><polyline fill="none" opacity="100" points="743.0,323.0 739.0,323.0" stroke="#090" stroke-width="1" /><polyline fill="none" opacity="100" points="743.0,327.0 739.0,327.0" stroke="#090" stroke-width="1" /><polyline fill="none" opacity="100" points="743.0,331.0 739.0,331.0" stroke="#090" stroke-width="1" /><polyline fill="none" opacity="100" points="743.0,335.0 739.0,335.0" stroke="#090" stroke-width="1" /><polyline fill="none" opacity="100" points="744.0,361.0 740.0,361.0" stroke="#F00" stroke-width="1" /><polyline fill="none" opacity="100" points="744.0,365.0 740.0,365.0" stroke="#F00" stroke-width="1" /><polyline fill="none" opacity="100" points="744.0,369.0 740.0,369.0" stroke="#F00" stroke-width="1" /><polyline fill="none" opacity="100" points="744.0,373.0 740.0,373.0" stroke="#F00" stroke-width="1" /><polyline fill="none" opacity="100" points="744.0,377.0 740.0,377.0" stroke="#F00" stroke-width="1" /><polyline fill="none" opacity="100" points="767.0,370.0 784.0,370.0" stroke="#F00" stroke-width="1" /><polygon fill="#F00" opacity="100" points="779.0738,371.32 784.0,370.0 779.0738,368.68" stroke="#F00" stroke-width="1" /><polyline fill="none" opacity="100" points="784.0,301.0 767.0,301.0" stroke="#090" stroke-width="1" /><polygon fill="#090" opacity="100" points="771.9262,299.68 767.0,301.0 771.9262,302.32" stroke="#090" stroke-width="1" /><polygon fill="#94949C" opacity="100" points="745.0,356.0 750.0,356.0 750.0,354.0 745.0,354.0" stroke="#94949C" stroke-width="1" /><polygon fill="#F00" opacity="100" points="750.0,356.0 755.0,356.0 755.0,354.0 750.0,354.0" stroke="#F00" stroke-width="1" /><text fill="#00AFAF" font-family="Arial" font-size="15" font-weight="normal" opacity="100" transform="rotate(-0.0 819.0,321.0) translate(0 15)" x="819.0" y="321.0">улица Каховка</text><text fill="#00AFAF" font-family="Arial" font-size="15" font-weight="normal" opacity="100" transform="rotate(-0.0 -120.0,301.0) translate(0 15)" x="-120.0" y="301.0">улица Каховка</text><text fill="#00AFAF" font-family="Arial" font-size="15" font-weight="normal" opacity="100" transform="rotate(-90.0 -29.0,390.0) translate(0 15)" x="-29.0" y="390.0">Севастопольский проспект</text><g transform="rotate(-30.0,435.0,335.0)"><text fill="#FFD900" font-family="Arial" font-size="25" font-weight="normal" opacity="100" x="837.25" y="431.5">1</text><text fill="#FFD900" font-family="Arial" font-size="25" font-weight="normal" opacity="100" x="756.25" y="611.5">2</text><text fill="#FFD900" font-family="Arial" font-size="25" font-weight="normal" opacity="100" x="197.25" y="35.5">3</text><text fill="#FFD900" font-family="Arial" font-size="25" font-weight="normal" opacity="100" x="61.25" y="278.5">4</text></g></g></g></svg>