<?xml version="1.0" encoding="utf-8" ?>
<svg baseProfile="tiny" height="700px" version="1.2" width="612px" xmlns="http://www.w3.org/2000/svg" xmlns:ev="http://www.w3.org/2001/xml-events" xmlns:xlink="http://www.w3.org/1999/xlink"><defs /><g><text fill="#0404A4" font-family="Arial" font-size="35" font-weight="bold" opacity="100" x="155.75" y="53.5">Chennai</text><text fill="#0404A4" font-family="Arial" font-size="10" font-weight="normal" opacity="100" x="151.5" y="62.0">(Attention! All time intervals in this version equal 2 minutes)</text><polygon fill="#B4E3EB" opacity="100" points="544.0,-40.0 541.0,40.0 573.0,38.0 583.0,45.0 573.0,151.0 553.0,169.0 562.0,202.0 551.0,254.0 550.0,282.0 544.0,320.0 544.0,346.0 563.0,409.0 582.0,426.0 612.0,476.0 612.0,-40.0" stroke="#B4E3EB" stroke-width="1" /><polyline fill="none" opacity="100" points="562.0,165.0 559.6953,165.5625 557.4062,166.0 555.1333,166.3147 552.875,166.5 550.6284,166.5427 548.3984,166.4648 546.1865,166.2729 544.0,166.0 541.8525,165.7075 539.7266,165.3164 537.6096,164.7666 535.5,164.0625 533.3962,163.2217 531.2852,162.1445 529.1606,160.7915 527.0,159.0 524.7651,156.4858 522.4961,153.5742 520.2197,150.4736 517.9375,147.25 515.6514,144.0146 513.3867,140.8398 511.1538,137.7769 509.0,135.0 507.0063,132.7661 505.082,130.8789 503.1677,129.2393 501.25,127.8125 499.3069,126.499 497.3047,125.3945 495.2256,124.5376 493.0,124.0 490.5166,123.9272 487.8828,124.1367 485.1614,124.5073 482.375,125.0 479.571,125.5552 476.7383,126.1133 473.8774,126.6353 471.0,127.0 468.1108,127.0249 465.2305,126.8555 462.3833,126.5671 459.5625,126.1875 456.7417,125.7903 454.0039,125.3125 451.3833,124.7305 449.0,124.0 447.0659,123.0273 445.3398,121.9375 443.6655,120.8157 442.0,119.6875 440.272,118.5886 438.4102,117.5742 436.3716,116.6772 434.0,116.0 431.0542,115.7017 427.7461,115.6445 424.1973,115.7502 420.4375,116.0 416.541,116.3455 412.4961,116.7969 408.3003,117.3574 404.0,118.0 399.6567,118.6895 395.2227,119.4531 390.6721,120.3057 386.0,121.25 381.1892,122.2959 376.25,123.4375 371.1875,124.6719 366.0,126.0" stroke="#B4E3EB" stroke-width="12" /><polyline fill="none" opacity="100" points="561.0,174.0 559.0938,172.9922 557.125,172.0938 555.0938,171.3062 553.0,170.625 550.8438,170.0415 548.625,169.5703 546.3438,169.2158 544.0,169.0 541.5938,168.9639 539.125,169.0547 536.5933,169.2402 534.0,169.5 531.3481,169.7988 528.6328,170.1484 525.8525,170.5459 523.0,171.0 520.0615,171.54 517.0547,172.1016 513.9878,172.6343 510.875,173.125 507.7427,173.5649 504.5625,173.8906 501.3281,174.0684 498.0,174.0 494.5,173.5254 490.9375,172.7969 487.3899,171.9067 483.875,170.875 480.4128,169.7456 477.0742,168.5391 473.896,167.2666 471.0,166.0 468.5845,164.8506 466.457,163.7109 464.502,162.5122 462.6875,161.25 460.9473,159.9136 459.2695,158.4531 457.6431,156.8496 456.0,155.0 454.2437,152.7285 452.4492,150.2344 450.6572,147.646 448.875,145.0 447.1279,142.3579 445.4023,139.7734 443.6909,137.2803 442.0,135.0 440.3364,133.1182 438.6914,131.4766 437.0591,129.9858 435.4375,128.625 433.8237,127.3384 432.2148,126.1406 430.6089,125.0371 429.0,124.0 427.3794,122.9941 425.7539,122.0469 424.1272,121.1729 422.5,120.375 420.8748,119.6631 419.25,119.0312 417.625,118.4766 416.0,118.0" stroke="#B4E3EB" stroke-width="12" /><polyline fill="none" opacity="100" points="543.0,-39.0 542.875,-38.2109 542.75,-37.2188 542.625,-36.0168 542.5,-34.625 542.375,-33.0828 542.25,-31.3242 542.125,-29.3296 542.0,-27.0 541.875,-24.1509 541.75,-21.0195 541.6245,-17.7676 541.5,-14.4375 541.3794,-11.0879 541.2578,-7.832 541.1338,-4.7329 541.0,-2.0 540.8428,0.0337 540.6797,1.6758 540.5239,3.1074 540.375,4.375 540.23,5.584 540.1094,6.7383 540.0215,7.8462 540.0,9.0 540.1035,10.3296 540.2656,11.7305 540.4417,13.1453 540.625,14.5625 540.8064,15.9465 540.9492,17.3125 541.0366,18.668 541.0,20.0 540.7251,21.293 540.332,22.5625 539.8928,23.8198 539.4375,25.0625 539.0232,26.2856 538.6406,27.5078 538.2949,28.7354 538.0,30.0 537.7598,31.3584 537.6094,32.7422 537.5842,34.1069 537.6875,35.4375 537.906,36.7095 538.3242,37.9062 538.9819,39.0156 540.0,40.0 541.5845,40.8047 543.5195,41.4688 545.6741,42.0076 548.0,42.4375 550.406,42.7991 552.8906,43.0352 555.4395,43.1255 558.0,43.0 560.5137,42.5269 562.9844,41.8711 565.3987,41.1409 567.75,40.375 570.0525,39.6345 572.2305,38.9609 574.2437,38.3857 576.0,38.0 577.3462,37.9346 578.4258,38.1016 579.3228,38.4636 580.0625,39.0 580.7007,39.6477 581.2305,40.4961 581.6538,41.5815 582.0,43.0 582.3032,44.9302 582.5508,47.1602 582.741,49.5496 582.875,52.0625 582.9446,54.6438 582.9766,57.2109 582.9854,59.7178 583.0,62.0 583.0693,63.7979 583.1484,65.3516 583.2112,66.801 583.25,68.1875 583.2478,69.6033 583.207,71.0352 583.1274,72.4849 583.0,74.0 582.814,75.6362 582.5742,77.3711 582.2793,79.2034 581.9375,81.125 581.5684,83.1033 581.1367,85.2109 580.6304,87.4795 580.0,90.0 579.1548,92.9346 578.207,96.1016 577.2336,99.384 576.25,102.75 575.2761,106.1453 574.375,109.5195 573.5781,112.8423 573.0,116.0 572.8281,118.8179 572.875,121.4492 573.0269,123.9846 573.25,126.4375 573.4771,128.8455 573.6953,131.2266 573.8916,133.5869 574.0,136.0 573.9287,138.585 573.7422,141.2109 573.4702,143.792 573.125,146.3125 572.7446,148.7471 572.2812,151.0391 571.7148,153.1611 571.0,155.0 570.0508,156.3701 568.9688,157.4609 567.8196,158.3894 566.625,159.1875 565.4207,159.9172 564.2305,160.6055 563.0718,161.271 562.0,162.0 561.0962,162.9204 560.3008,163.9258 559.5833,164.9543 558.9375,166.0 558.3406,167.0398 557.8125,168.0625 557.3633,169.0664 557.0,170.0 556.7383,170.7773 556.5625,171.5 556.4656,172.2351 556.4375,173.0 556.4583,173.8215 556.5508,174.7383 556.7212,175.772 557.0,177.0 557.4468,178.5444 557.9805,180.293 558.5454,182.1799 559.125,184.1875 559.6968,186.2751 560.2227,188.4453 560.6802,190.6963 561.0,193.0 561.0737,195.3193 560.9961,197.6797 560.8208,200.0957 560.5625,202.5625 560.2573,205.0762 559.8945,207.6484 559.4712,210.2803 559.0,213.0 558.4937,215.8604 557.9492,218.7891 557.3652,221.7354 556.75,224.6875 556.1152,227.6318 555.4492,230.5234 554.7515,233.3389 554.0,236.0 553.1509,238.3799 552.2695,240.6016 551.4038,242.7388 550.5625,244.8125 549.7524,246.8667 549.0273,248.9062 548.4136,250.9375 548.0,253.0 547.9341,255.1484 548.0664,257.3438 548.3064,259.5652 548.625,261.8125 548.9651,264.0774 549.3203,266.3633 549.6807,268.6743 550.0,271.0 550.2178,273.3218 550.3672,275.668 550.458,278.0625 550.5,280.5 550.5264,282.9648 550.4766,285.5117 550.3252,288.1616 550.0,291.0 549.3701,294.1782 548.5859,297.5195 547.7468,300.9075 546.875,304.3125 546.0051,307.6882 545.1992,310.9688 544.4897,314.1172 544.0,317.0 543.9282,319.4062 544.082,321.5312 544.344,323.4885 544.6875,325.3125 545.0564,327.0798 545.4219,328.7773 545.7676,330.4058 546.0,332.0 545.9746,333.5981 545.8281,335.1914 545.6421,336.7825 545.4375,338.375 545.2603,339.9617 545.1172,341.5781 545.0146,343.2441 545.0,345.0 545.1416,346.9121 545.3828,348.9219 545.6931,350.9961 546.0625,353.125 546.4651,355.2852 546.918,357.4844 547.4272,359.7246 548.0,362.0 548.6548,364.3066 549.3633,366.6406 550.1042,368.9985 550.875,371.375 551.675,373.7632 552.4766,376.1641 553.2666,378.5752 554.0,381.0 554.6006,383.4482 555.1484,385.8984 555.6958,388.3357 556.25,390.75 556.8237,393.1272 557.4531,395.4648 558.1543,397.7573 559.0,400.0 560.1113,402.1919 561.3594,404.3164 562.6611,406.3567 564.0,408.3125 565.3467,410.1921 566.6562,411.9531 567.9062,413.5762 569.0,415.0 569.7812,416.1191 570.4062,417.0469 570.9709,417.8506 571.5,418.5625 572.0427,419.2432 572.6211,419.875 573.2495,420.4609 574.0,421.0 574.981,421.4688 576.0977,421.9375 577.2961,422.4658 578.5625,423.0625 579.8621,423.7217 581.2031,424.5469 582.5879,425.5879 584.0,427.0 585.4199,429.0449 586.8594,431.4531 588.3235,434.0583 589.8125,436.8125 591.3308,439.6233 592.8711,442.457 594.4292,445.2876 596.0,448.0 597.5747,450.4272 599.1602,452.6992 600.76,454.8855 602.375,457.0 604.0076,459.0891 605.6562,461.125 607.3203,463.0938 609.0,465.0" stroke="#B4E3EB" stroke-width="7" /></g></svg>