<?xml version="1.0" encoding="utf-8" ?>
<svg baseProfile="tiny" height="1940px" version="1.2" width="1120px" xmlns="http://www.w3.org/2000/svg" xmlns:ev="http://www.w3.org/2001/xml-events" xmlns:xlink="http://www.w3.org/1999/xlink"><defs /><g><text fill="#03C" font-family="Arial" font-size="20" font-weight="bold" opacity="100" x="32.0" y="18.0">Схема движения электропоездов Мерефянского направления</text><polyline fill="none" opacity="100" points="322.0,60.0 352.0,60.0" stroke="#03C" stroke-width="1" /><text fill="#03C" font-family="Arial" font-size="12" font-weight="bold" opacity="100" x="388.2" y="65.8">зона</text><polyline fill="none" opacity="100" points="322.0,90.0 352.0,90.0" stroke="#03C" stroke-width="1" /><text fill="#03C" font-family="Arial" font-size="12" font-weight="normal" opacity="100" x="388.2" y="95.8">зона 2</text><polyline fill="none" opacity="100" points="322.0,240.0 352.0,240.0" stroke="#03C" stroke-width="1" /><text fill="#03C" font-family="Arial" font-size="12" font-weight="normal" opacity="100" x="388.2" y="245.8">зона 3</text><polyline fill="none" opacity="100" points="322.0,390.0 352.0,390.0" stroke="#03C" stroke-width="1" /><text fill="#03C" font-family="Arial" font-size="12" font-weight="normal" opacity="100" x="388.2" y="395.8">зона 4</text><polyline fill="none" opacity="100" points="322.0,450.0 352.0,450.0" stroke="#03C" stroke-width="1" /><text fill="#03C" font-family="Arial" font-size="12" font-weight="normal" opacity="100" x="388.2" y="455.8">зона 5</text><polyline fill="none" opacity="100" points="322.0,540.0 352.0,540.0" stroke="#03C" stroke-width="1" /><text fill="#03C" font-family="Arial" font-size="12" font-weight="normal" opacity="100" x="388.2" y="545.8">зона 6</text><polyline fill="none" opacity="100" points="322.0,630.0 352.0,630.0" stroke="#03C" stroke-width="1" /><text fill="#03C" font-family="Arial" font-size="12" font-weight="normal" opacity="100" x="388.2" y="635.8">зона 7</text><polyline fill="none" opacity="100" points="322.0,690.0 352.0,690.0" stroke="#03C" stroke-width="1" /><text fill="#03C" font-family="Arial" font-size="12" font-weight="normal" opacity="100" x="388.2" y="695.8">зона 8</text><polyline fill="none" opacity="100" points="322.0,810.0 352.0,810.0" stroke="#03C" stroke-width="1" /><text fill="#03C" font-family="Arial" font-size="12" font-weight="normal" opacity="100" x="388.2" y="815.8">зона 9</text><polyline fill="none" opacity="100" points="322.0,870.0 352.0,870.0" stroke="#03C" stroke-width="1" /><text fill="#03C" font-family="Arial" font-size="12" font-weight="normal" opacity="100" x="388.2" y="875.8">зона 10</text><polyline fill="none" opacity="100" points="322.0,930.0 352.0,930.0" stroke="#03C" stroke-width="1" /><text fill="#03C" font-family="Arial" font-size="12" font-weight="normal" opacity="100" x="388.2" y="935.8">зона 11</text><polyline fill="none" opacity="100" points="322.0,1020.0 352.0,1020.0" stroke="#03C" stroke-width="1" /><text fill="#03C" font-family="Arial" font-size="12" font-weight="normal" opacity="100" x="388.2" y="1025.8">зона 12</text><polyline fill="none" opacity="100" points="322.0,1080.0 352.0,1080.0" stroke="#03C" stroke-width="1" /><text fill="#03C" font-family="Arial" font-size="12" font-weight="normal" opacity="100" x="388.2" y="1085.8">зона 13</text><polyline fill="none" opacity="100" points="322.0,1110.0 352.0,1110.0" stroke="#03C" stroke-width="1" /><text fill="#03C" font-family="Arial" font-size="12" font-weight="normal" opacity="100" x="388.2" y="1115.8">зона 14</text><polyline fill="none" opacity="100" points="322.0,1200.0 352.0,1200.0" stroke="#03C" stroke-width="1" /><text fill="#03C" font-family="Arial" font-size="12" font-weight="normal" opacity="100" x="388.2" y="1205.8">зона 15</text><polyline fill="none" opacity="100" points="322.0,1350.0 352.0,1350.0" stroke="#03C" stroke-width="1" /><text fill="#03C" font-family="Arial" font-size="12" font-weight="normal" opacity="100" x="388.2" y="1355.8">зона 16</text><polyline fill="none" opacity="100" points="160.0,360.0 160.0,390.0" stroke="#03C" stroke-width="1" /><text fill="#03C" font-family="Arial" font-size="12" font-weight="normal" opacity="100" x="163.2" y="395.8">зона 4</text><polyline fill="none" opacity="100" points="121.0,420.0 151.0,420.0" stroke="#03C" stroke-width="1" /><text fill="#03C" font-family="Arial" font-size="12" font-weight="normal" opacity="100" x="154.2" y="425.8">зона 5</text><polyline fill="none" opacity="100" points="121.0,480.0 151.0,480.0" stroke="#03C" stroke-width="1" /><text fill="#03C" font-family="Arial" font-size="12" font-weight="normal" opacity="100" x="154.2" y="485.8">зона 6</text><polyline fill="none" opacity="100" points="121.0,540.0 151.0,540.0" stroke="#03C" stroke-width="1" /><text fill="#03C" font-family="Arial" font-size="12" font-weight="normal" opacity="100" x="154.2" y="545.8">зона 7</text><polyline fill="none" opacity="100" points="121.0,630.0 151.0,630.0" stroke="#03C" stroke-width="1" /><text fill="#03C" font-family="Arial" font-size="12" font-weight="normal" opacity="100" x="154.2" y="635.8">зона 8</text><polyline fill="none" opacity="100" points="121.0,660.0 151.0,660.0" stroke="#03C" stroke-width="1" /><text fill="#03C" font-family="Arial" font-size="12" font-weight="normal" opacity="100" x="154.2" y="665.8">зона 9</text><polyline fill="none" opacity="100" points="121.0,720.0 151.0,720.0" stroke="#03C" stroke-width="1" /><text fill="#03C" font-family="Arial" font-size="12" font-weight="normal" opacity="100" x="154.2" y="725.8">зона 10</text><polyline fill="none" opacity="100" points="121.0,780.0 151.0,780.0" stroke="#03C" stroke-width="1" /><text fill="#03C" font-family="Arial" font-size="12" font-weight="normal" opacity="100" x="154.2" y="785.8">зона 11</text><polyline fill="none" opacity="100" points="580.0,360.0 580.0,390.0" stroke="#03C" stroke-width="1" /><text fill="#03C" font-family="Arial" font-size="12" font-weight="normal" opacity="100" x="583.2" y="370.8">зона 4</text><polyline fill="none" opacity="100" points="595.0,420.0 625.0,420.0" stroke="#03C" stroke-width="1" /><text fill="#03C" font-family="Arial" font-size="12" font-weight="normal" opacity="100" x="628.2" y="425.8">зона 5</text><polyline fill="none" opacity="100" points="595.0,540.0 625.0,540.0" stroke="#03C" stroke-width="1" /><text fill="#03C" font-family="Arial" font-size="12" font-weight="normal" opacity="100" x="628.2" y="545.8">зона 6</text><text fill="#03C" font-family="Arial" font-size="12" font-weight="normal" opacity="100" x="598.2" y="670.8">Схема проезда Змиевского направления 2</text></g></svg>