<?xml version="1.0" encoding="utf-8" ?>
<svg baseProfile="tiny" height="700px" version="1.2" width="530px" xmlns="http://www.w3.org/2000/svg" xmlns:ev="http://www.w3.org/2001/xml-events" xmlns:xlink="http://www.w3.org/1999/xlink"><defs /><g><text fill="#0404A4" font-family="Arial" font-size="28" font-weight="bold" opacity="100" x="331.8" y="493.2">Manila</text><text fill="#0404A4" font-family="Arial" font-size="10" font-weight="normal" opacity="100" x="279.5" y="507.0">(Attention! All time intervals in this version equal 2 minutes)</text><text fill="#F49E01" font-family="Arial" font-size="14" font-weight="bold" opacity="100" x="429.9" y="593.6">1</text><text fill="#AC24AC" font-family="Arial" font-size="14" font-weight="bold" opacity="100" x="429.9" y="613.6">2</text><text fill="#00F" font-family="Arial" font-size="14" font-weight="bold" opacity="100" x="429.9" y="633.6">3</text><text fill="#FF9000" font-family="Arial" font-size="14" font-weight="bold" opacity="100" x="429.9" y="653.6">4</text><polygon fill="#FF9000" opacity="100" points="408.0,56.0 426.0,38.0 452.0,38.0 470.0,56.0 459.0,56.0 450.0,47.0 443.0,47.0 443.0,56.0 434.0,56.0 434.0,47.0 427.0,47.0 418.0,56.0" stroke="#FF9000" stroke-width="1" /><polygon fill="#FF9000" opacity="100" points="408.0,61.0 426.0,79.0 452.0,79.0 470.0,61.0 459.0,61.0 450.0,70.0 443.0,70.0 443.0,61.0 434.0,61.0 434.0,70.0 427.0,70.0 418.0,61.0" stroke="#FF9000" stroke-width="1" /></g></svg>