<?xml version="1.0" encoding="utf-8" ?>
<svg baseProfile="tiny" height="400px" version="1.2" width="520px" xmlns="http://www.w3.org/2000/svg" xmlns:ev="http://www.w3.org/2001/xml-events" xmlns:xlink="http://www.w3.org/1999/xlink"><defs /><g><g transform="rotate(-30.0,260.0,200.0)"><polygon fill="#D03036" opacity="100" points="45.0,213.0 495.0,213.0 495.0,243.0 45.0,243.0" stroke="#000" stroke-width="1" /><text fill="#D03036" font-family="Arial" font-size="25" font-weight="bold" opacity="100" transform="rotate(-0.0 219.0,171.0) translate(0 25)" x="219.0" y="171.0">Чарбах</text><text fill="#000" font-family="Arial" font-size="20" font-weight="normal" opacity="100" transform="rotate(-0.0 378.0,219.0) translate(0 20)" x="378.0" y="219.0">Шенгавит &gt;&gt;</text><polyline fill="none" opacity="100" points="100.0,235.0 70.0,235.0" stroke="#000" stroke-width="1" /><polyline fill="none" opacity="100" points="70.0,235.0 69.2109,234.8594 68.4688,234.6875 67.7732,234.4839 67.125,234.25 66.5256,233.9888 65.9727,233.6953 65.4653,233.3682 65.0,233.0 64.5698,232.5771 64.1836,232.1172 63.8474,231.6313 63.5625,231.125 63.3303,230.6069 63.1562,230.0781 63.043,229.541 63.0,229.0 63.043,228.459 63.1562,227.9219 63.3303,227.3931 63.5625,226.875 63.8474,226.3687 64.1836,225.8828 64.5698,225.4229 65.0,225.0 65.4653,224.6318 65.9727,224.3047 66.5256,224.0112 67.125,223.75 67.7732,223.5161 68.4688,223.3125 69.2109,223.1406 70.0,223.0" stroke="#000" stroke-width="1" /><polyline fill="none" opacity="100" points="70.0,223.0 100.0,223.0" stroke="#000" stroke-width="1" /><polygon fill="#000" opacity="100" points="91.3067,225.3294 100.0,223.0 91.3067,220.6706" stroke="#000" stroke-width="1" /><text fill="#FFF" font-family="Arial" font-size="20" font-weight="normal" opacity="100" transform="rotate(-0.0 377.0,218.0) translate(0 20)" x="377.0" y="218.0">Шенгавит &gt;&gt;</text><polyline fill="none" opacity="100" points="99.0,234.0 69.0,234.0" stroke="#FFF" stroke-width="1" /><polyline fill="none" opacity="100" points="69.0,234.0 68.2109,233.8594 67.4688,233.6875 66.7732,233.4839 66.125,233.25 65.5256,232.9888 64.9727,232.6953 64.4653,232.3682 64.0,232.0 63.5698,231.5771 63.1836,231.1172 62.8474,230.6313 62.5625,230.125 62.3303,229.6069 62.1562,229.0781 62.043,228.541 62.0,228.0 62.043,227.459 62.1562,226.9219 62.3303,226.3931 62.5625,225.875 62.8474,225.3687 63.1836,224.8828 63.5698,224.4229 64.0,224.0 64.4653,223.6318 64.9727,223.3047 65.5256,223.0112 66.125,222.75 66.7732,222.5161 67.4688,222.3125 68.2109,222.1406 69.0,222.0" stroke="#FFF" stroke-width="1" /><polyline fill="none" opacity="100" points="69.0,222.0 99.0,222.0" stroke="#FFF" stroke-width="1" /><polygon fill="#FFF" opacity="100" points="90.3067,224.3294 99.0,222.0 90.3067,219.6706" stroke="#FFF" stroke-width="1" /><polyline fill="none" opacity="100" points="45.0,213.0 45.0,166.0 158.0,166.0 158.0,57.0" stroke="#000" stroke-width="1" /><polyline fill="none" opacity="100" points="339.0,57.0 339.0,166.0 495.0,166.0 495.0,213.0" stroke="#000" stroke-width="1" /><polygon fill="#d0d0d0" opacity="100" points="158.0,84.0 141.0,84.0 141.0,143.0 158.0,143.0" stroke="#000" stroke-width="1" /><polygon fill="#d0d0d0" opacity="100" points="339.0,84.0 339.0,143.0 356.0,143.0 356.0,84.0" stroke="#000" stroke-width="1" /><polyline fill="none" opacity="100" points="158.0,62.0 339.0,62.0" stroke="#000" stroke-width="1" /><polyline fill="none" opacity="100" points="158.0,66.0 339.0,66.0" stroke="#000" stroke-width="1" /><polyline fill="none" opacity="100" points="158.0,70.0 339.0,70.0" stroke="#000" stroke-width="1" /><polyline fill="none" opacity="100" points="158.0,74.0 339.0,74.0" stroke="#000" stroke-width="1" /><polyline fill="none" opacity="100" points="158.0,78.0 339.0,78.0" stroke="#000" stroke-width="1" /><polygon fill="#FFF" opacity="100" points="148.0,91.0 158.0,91.0 158.0,136.0 148.0,136.0" stroke="#000" stroke-width="1" /><polyline fill="none" opacity="100" points="158.0,91.0 148.0,91.0 148.0,136.0 158.0,136.0" stroke="#000" stroke-width="1" /><text fill="#000" font-family="Arial" font-size="10" font-weight="normal" opacity="100" transform="rotate(90.0 160.0,101.0) translate(0 10)" x="160.0" y="101.0">кассы</text><polygon fill="none" opacity="100" points="248.0,104.0 254.0,104.0 254.0,110.0 248.0,110.0" stroke="#000" stroke-width="1" /><polyline fill="none" opacity="100" points="251.0,112.0 251.0,143.0" stroke="#000" stroke-width="0.5" /><polyline fill="none" opacity="100" points="310.0,110.0 310.0,143.0 339.0,143.0" stroke="#000" stroke-width="0.5" /><polyline fill="none" opacity="100" points="187.0,110.0 187.0,143.0 158.0,143.0" stroke="#000" stroke-width="0.5" /><polyline fill="none" opacity="100" points="243.0,109.0 243.0,105.0" stroke="#090" stroke-width="1" /><polyline fill="none" opacity="100" points="239.0,109.0 239.0,105.0" stroke="#090" stroke-width="1" /><polyline fill="none" opacity="100" points="235.0,109.0 235.0,105.0" stroke="#090" stroke-width="1" /><polyline fill="none" opacity="100" points="231.0,109.0 231.0,105.0" stroke="#090" stroke-width="1" /><polyline fill="none" opacity="100" points="227.0,109.0 227.0,105.0" stroke="#090" stroke-width="1" /><polyline fill="none" opacity="100" points="223.0,109.0 223.0,105.0" stroke="#090" stroke-width="1" /><polyline fill="none" opacity="100" points="219.0,109.0 219.0,105.0" stroke="#090" stroke-width="1" /><polyline fill="none" opacity="100" points="215.0,109.0 215.0,105.0" stroke="#090" stroke-width="1" /><polyline fill="none" opacity="100" points="211.0,109.0 211.0,105.0" stroke="#090" stroke-width="1" /><polyline fill="none" opacity="100" points="207.0,109.0 207.0,105.0" stroke="#090" stroke-width="1" /><polyline fill="none" opacity="100" points="203.0,109.0 203.0,105.0" stroke="#090" stroke-width="1" /><polyline fill="none" opacity="100" points="199.0,109.0 199.0,105.0" stroke="#090" stroke-width="1" /><polyline fill="none" opacity="100" points="195.0,109.0 195.0,105.0" stroke="#090" stroke-width="1" /><polyline fill="none" opacity="100" points="191.0,109.0 191.0,105.0" stroke="#090" stroke-width="1" /><polyline fill="none" opacity="100" points="187.0,109.0 187.0,105.0" stroke="#090" stroke-width="1" /><polyline fill="none" opacity="100" points="258.0,109.0 258.0,105.0" stroke="#F00" stroke-width="1" /><polyline fill="none" opacity="100" points="262.0,109.0 262.0,105.0" stroke="#F00" stroke-width="1" /><polyline fill="none" opacity="100" points="266.0,109.0 266.0,105.0" stroke="#F00" stroke-width="1" /><polyline fill="none" opacity="100" points="270.0,109.0 270.0,105.0" stroke="#F00" stroke-width="1" /><polyline fill="none" opacity="100" points="274.0,109.0 274.0,105.0" stroke="#F00" stroke-width="1" /><polyline fill="none" opacity="100" points="278.0,109.0 278.0,105.0" stroke="#F00" stroke-width="1" /><polyline fill="none" opacity="100" points="282.0,109.0 282.0,105.0" stroke="#F00" stroke-width="1" /><polyline fill="none" opacity="100" points="286.0,109.0 286.0,105.0" stroke="#F00" stroke-width="1" /><polyline fill="none" opacity="100" points="290.0,109.0 290.0,105.0" stroke="#F00" stroke-width="1" /><polyline fill="none" opacity="100" points="294.0,109.0 294.0,105.0" stroke="#F00" stroke-width="1" /><polyline fill="none" opacity="100" points="298.0,109.0 298.0,105.0" stroke="#F00" stroke-width="1" /><polyline fill="none" opacity="100" points="302.0,109.0 302.0,105.0" stroke="#F00" stroke-width="1" /><polyline fill="none" opacity="100" points="306.0,109.0 306.0,105.0" stroke="#F00" stroke-width="1" /><polyline fill="none" opacity="100" points="310.0,109.0 310.0,105.0" stroke="#F00" stroke-width="1" /><polyline fill="none" opacity="100" points="158.0,84.0 339.0,84.0" stroke="#C0C0C0" stroke-dasharray="5,5" stroke-width="1" /><polyline fill="none" opacity="100" points="310.0,143.0 187.0,143.0" stroke="#C0C0C0" stroke-dasharray="5,5" stroke-width="1" /><polyline fill="none" opacity="100" points="141.0,124.0 5.0,124.0 5.0,281.0 525.0,281.0" stroke="#000" stroke-width="1" /><polyline fill="none" opacity="100" points="356.0,124.0 525.0,124.0" stroke="#000" stroke-width="1" /><polyline fill="none" opacity="100" points="284.0,114.0 284.0,95.0" stroke="#F00" stroke-width="1" /><polygon fill="#F00" opacity="100" points="285.4753,100.5058 284.0,95.0 282.5247,100.5058" stroke="#F00" stroke-width="1" /><polyline fill="none" opacity="100" points="213.0,99.0 213.0,118.0" stroke="#090" stroke-width="1" /><polygon fill="#090" opacity="100" points="211.5247,112.4942 213.0,118.0 214.4753,112.4942" stroke="#090" stroke-width="1" /></g></g></svg>