<?xml version="1.0" encoding="utf-8" ?>
<svg baseProfile="tiny" height="820px" version="1.2" width="750px" xmlns="http://www.w3.org/2000/svg" xmlns:ev="http://www.w3.org/2001/xml-events" xmlns:xlink="http://www.w3.org/1999/xlink"><defs /><g><polygon fill="#87CEFF" opacity="100" points="750.0,242.0 512.0,819.0 750.0,819.0" stroke="#87CEFF" stroke-width="1" /><polyline fill="none" opacity="100" points="750.0,228.0 749.125,228.9531 748.25,229.8125 747.3738,230.5754 746.5,231.25 745.636,231.8523 744.7695,232.3555 743.897,232.7515 743.0,233.0 742.0444,233.0259 741.0742,232.9258 740.1201,232.7637 739.1875,232.5625 738.2822,232.3574 737.4336,232.1758 736.6558,232.0376 736.0,232.0 735.5513,232.146 735.2227,232.418 734.9624,232.7874 734.75,233.25 734.5454,233.7849 734.3555,234.4141 734.1772,235.1494 734.0,236.0 733.8188,236.9834 733.6133,238.0859 733.3638,239.3035 733.0625,240.625 732.7065,242.0266 732.2617,243.543 731.7085,245.1851 731.0,247.0 730.061,249.0767 728.957,251.3008 727.7244,253.5977 726.375,255.9375 724.9377,258.2734 723.3984,260.582 721.7529,262.8423 720.0,265.0 718.1299,266.9819 716.1641,268.8242 714.1169,270.5356 712.0,272.125 709.8303,273.6284 707.6055,274.9727 705.3296,276.1255 703.0,277.0 700.604,277.4409 698.1758,277.6211 695.7429,277.6497 693.3125,277.5625 690.8879,277.4226 688.5078,277.2578 686.1924,277.0908 684.0,277.0 682.0264,277.0967 680.1797,277.3047 678.4082,277.5886 676.6875,277.9375 674.9668,278.3118 673.2734,278.7617 671.6123,279.3101 670.0,280.0 668.4814,280.9126 666.9766,281.957 665.4226,283.0767 663.8125,284.25 662.1497,285.439 660.3398,286.6367 658.3394,287.8335 656.0,289.0 653.0708,290.1001 649.8164,291.1445 646.4006,292.1326 642.875,293.0625 639.3357,293.9436 635.8125,294.7422 632.332,295.4404 629.0,296.0 625.9648,296.3564 623.125,296.5703 620.4324,296.676 617.875,296.6875 615.4055,296.6345 613.082,296.5039 610.9321,296.2935 609.0,296.0 607.3687,295.6089 605.9492,295.1523 604.686,294.6536 603.5625,294.125 602.5483,293.5828 601.6289,293.0391 600.7935,292.5049 600.0,292.0 599.187,291.5498 598.4023,291.1484 597.6724,290.7983 597.0,290.5 596.3979,290.2446 595.8633,290.0625 595.3931,289.9688 595.0,290.0 594.7046,290.2188 594.4805,290.5625 594.3115,290.9927 594.1875,291.5 594.0908,292.0659 594.0273,292.6797 593.9956,293.335 594.0,294.0 594.0552,294.626 594.1289,295.2578 594.1968,295.9243 594.25,296.625 594.2798,297.3608 594.2617,298.1562 594.1812,299.0195 594.0,300.0 593.6587,301.1836 593.207,302.4688 592.6714,303.79 592.0625,305.125 591.4067,306.4365 590.6836,307.7031 589.8862,308.9082 589.0,310.0 587.9927,310.9043 586.9102,311.6719 585.7861,312.3254 584.625,312.875 583.4287,313.3523 582.2383,313.7148 581.0728,313.9448 580.0,314.0 579.1343,313.8013 578.3555,313.4414 577.5884,312.9795 576.8125,312.4375 575.9897,311.8525 575.0977,311.2383 574.1216,310.6079 573.0,310.0 571.6401,309.4663 570.1211,308.9805 568.4849,308.5334 566.75,308.125 564.9604,307.7419 563.082,307.4141 561.104,307.1572 559.0,307.0 556.7124,306.9912 554.3242,307.0859 551.8928,307.259 549.4375,307.5 546.9841,307.7859 544.5703,308.1289 542.2197,308.5317 540.0,309.0 538.0146,309.5503 536.1797,310.1523 534.4482,310.7827 532.8125,311.4375 531.2471,312.1157 529.7578,312.7852 528.3486,313.4302 527.0,314.0 525.6826,314.4097 524.4297,314.7461 523.2651,315.0642 522.1875,315.375 521.1919,315.6995 520.3125,316.0625 519.5625,316.4766 519.0,317.0 518.7266,317.7266 518.625,318.5625 518.6201,319.4514 518.6875,320.375 518.7861,321.2966 518.8906,322.2148 518.9824,323.1245 519.0,324.0 518.8535,324.8091 518.6094,325.5664 518.3025,326.2739 517.9375,326.9375 517.5354,327.5776 517.082,328.1523 516.5688,328.644 516.0,329.0 515.3804,329.1255 514.6992,329.1289 513.9463,329.0806 513.125,329.0 512.2451,328.9194 511.2773,328.8711 510.2104,328.8745 509.0,329.0 507.5669,329.356 506.0039,329.8477 504.3701,330.4219 502.6875,331.0625 500.9932,331.7305 499.3008,332.4414 497.6235,333.1997 496.0,334.0 494.4819,334.8433 493.043,335.7148 491.6746,336.6021 490.375,337.5 489.1282,338.4058 487.9688,339.3008 486.9141,340.1743 486.0,341.0 485.2891,341.7358 484.7188,342.418 484.25,343.0664 483.875,343.6875 483.5781,344.2969 483.3438,344.8867 483.1641,345.4546 483.0,346.0 482.7891,346.5181 482.5938,347.0195 482.4539,347.5125 482.375,348.0 482.3684,348.4856 482.457,348.9766 482.6509,349.4775 483.0,350.0 483.5874,350.5615 484.3242,351.1484 485.1555,351.7532 486.0625,352.375 487.0105,353.0105 487.9922,353.6602 488.999,354.3247 490.0,355.0 490.9541,355.6792 491.8828,356.3711 492.7942,357.082 493.6875,357.8125 494.571,358.5625 495.4258,359.3398 496.2407,360.1479 497.0,361.0 497.6772,361.9185 498.293,362.8789 498.8591,363.8665 499.375,364.875 499.842,365.8933 500.2656,366.9219 500.6465,367.959 501.0,369.0 501.3535,370.041 501.6719,371.0781 501.9304,372.1067 502.125,373.125 502.2512,374.1335 502.2852,375.1211 502.2153,376.0815 502.0,377.0 501.5698,377.8521 500.9961,378.6602 500.321,379.438 499.5625,380.1875 498.7551,380.9136 497.8906,381.6211 496.9707,382.312 496.0,383.0 494.9746,383.7075 493.9219,384.4102 492.865,385.0913 491.8125,385.75 490.7698,386.3853 489.7695,386.9805 488.8306,387.5288 488.0,388.0 487.353,388.3423 486.8242,388.6133 486.3762,388.8501 486.0,389.0625 485.6726,389.2671 485.3984,389.4805 485.1787,389.7124 485.0,390.0 484.8447,390.4009 484.7266,390.8633 484.6545,391.3574 484.625,391.875 484.6326,392.3965 484.6914,392.9258 484.8052,393.4634 485.0,394.0 485.3237,394.5249 485.7148,395.043 486.1316,395.5554 486.5625,396.0625 486.9915,396.5676 487.3906,397.0625 487.7441,397.543 488.0,398.0 488.0762,398.418 488.0469,398.8125 487.9546,399.1919 487.8125,399.5625 487.6509,399.937 487.4609,400.3047 487.2412,400.6631 487.0,401.0 486.7432,401.29 486.4766,401.5703 486.2073,401.8682 485.9375,402.1875 485.6658,402.5303 485.4102,402.9297 485.1802,403.4014 485.0,404.0 484.9097,404.8174 484.8711,405.7578 484.8584,406.7629 484.875,407.8125 484.9268,408.8679 484.9805,409.9258 485.0249,410.979 485.0,412.0 484.7993,412.9546 484.5508,413.8555 484.3413,414.7034 484.1875,415.5 484.1118,416.2595 484.1836,416.9453 484.437,417.54 485.0,418.0 486.0825,418.249 487.4727,418.3672 489.0405,418.4048 490.75,418.375 492.5298,418.3022 494.3555,418.2031 496.2085,418.0879 498.0,418.0 499.6001,418.0059 501.1133,418.0469 502.5974,418.0901 504.0625,418.125 505.5413,418.1267 507.0234,418.1055 508.5029,418.064 510.0,418.0 511.5439,417.9165 513.1016,417.8008 514.6521,417.6409 516.1875,417.4375 517.6936,417.197 519.168,416.8906 520.6069,416.5059 522.0,416.0 523.3345,415.2988 524.6133,414.4844 525.8347,413.6094 527.0,412.6875 528.1165,411.7422 529.1641,410.7969 530.1338,409.8652 531.0,409.0 531.7178,408.2832 532.3359,407.6406 532.887,407.0283 533.375,406.4375 533.8064,405.8467 534.207,405.25 534.5884,404.6445 535.0,404.0 535.5249,403.2695 536.0742,402.5 536.5908,401.7212 537.0625,400.9375 537.4678,400.1577 537.7773,399.3984 537.9761,398.667 538.0,398.0 537.7466,397.458 537.3164,396.9766 536.769,396.5144 536.125,396.0625 535.4263,395.6047 534.668,395.1211 533.853,394.6011 533.0,394.0 532.1274,393.2466 531.2383,392.4102 530.3396,391.5322 529.4375,390.625 528.5334,389.7139 527.6484,388.8008 526.7959,387.8892 526.0,387.0 525.2979,386.1616 524.6641,385.3555 524.0884,384.574 523.5625,383.8125 523.064,383.0569 522.625,382.3281 522.2578,381.6348 522.0,381.0 521.9219,380.4668 521.9375,379.9844 521.9883,379.52 522.0625,379.0625 522.1445,378.5933 522.1875,378.1016 522.168,377.5791 522.0,377.0 521.543,376.3271 520.9375,375.5859 520.2698,374.7871 519.5625,373.9375 518.8611,373.0566 518.1836,372.1172 517.5425,371.1084 517.0,370.0 516.6489,368.7354 516.4102,367.3828 516.2383,365.9873 516.125,364.5625 516.0469,363.1299 516.0039,361.7109 515.9966,360.3193 516.0,359.0 515.9761,357.8213 515.9648,356.7266 515.9919,355.6838 516.0625,354.6875 516.1858,353.7205 516.375,352.7852 516.6367,351.8833 517.0,351.0 517.5117,350.1128 518.125,349.2461 518.8115,348.4177 519.5625,347.625 520.3604,346.8616 521.2031,346.1562 522.0879,345.5195 523.0,345.0 523.9199,344.6836 524.8594,344.4688 525.8237,344.2883 526.8125,344.125 527.8286,343.9519 528.8672,343.7305 529.9248,343.439 531.0,343.0 532.0908,342.2915 533.1953,341.4258 534.312,340.4683 535.4375,339.4375 536.5669,338.3755 537.7031,337.2773 538.8457,336.144 540.0,335.0 541.1777,333.8755 542.3594,332.7539 543.5283,331.6272 544.6875,330.5 545.8467,329.3748 546.9688,328.25 548.0391,327.1289 549.0,326.0 549.75,324.8398 550.4062,323.6875 551.0479,322.5723 551.6875,321.5 552.3428,320.4746 553.0781,319.5312 553.9238,318.6875 555.0,318.0 556.5059,317.5625 558.2344,317.2812 560.0564,317.0989 561.9375,317.0 563.8127,316.9539 565.6445,316.9492 567.4087,316.978 569.0,317.0 570.2593,316.9556 571.3242,316.8945 572.2725,316.845 573.125,316.8125 573.9346,316.8132 574.6836,316.8438 575.3667,316.9023 576.0,317.0 576.5981,317.1523 577.1602,317.3438 577.6882,317.5649 578.1875,317.8125 578.6614,318.0796 579.1172,318.3672 579.5615,318.6748 580.0,319.0 580.4385,319.3408 580.8828,319.6953 581.3418,320.0603 581.8125,320.4375 582.2832,320.8323 582.7891,321.2305 583.3447,321.6265 584.0,322.0 584.8428,322.3149 585.7734,322.6133 586.7273,322.9221 587.6875,323.25 588.6262,323.6111 589.5117,324.0156 590.3257,324.4707 591.0,325.0 591.4282,325.6387 591.707,326.3594 591.8928,327.1475 592.0,328.0 592.0623,328.9072 592.0781,329.875 592.0488,330.9062 592.0,332.0 591.9668,333.1562 591.9219,334.375 591.8501,335.6572 591.75,337.0 591.6147,338.3975 591.4453,339.8594 591.2432,341.3887 591.0,343.0 590.7021,344.7207 590.3672,346.5156 590.0063,348.3625 589.625,350.25 589.2319,352.1589 588.8281,354.0898 588.416,356.0386 588.0,358.0 587.584,359.9731 587.1719,361.9414 586.7686,363.8887 586.375,365.8125 585.9893,367.7168 585.625,369.5664 585.2891,371.3442 585.0,373.0 584.7891,374.4487 584.625,375.7773 584.4878,377.0386 584.375,378.25 584.2817,379.4458 584.1953,380.6289 584.1104,381.8052 584.0,383.0 583.8193,384.2456 583.6172,385.5273 583.4246,386.8428 583.25,388.1875 583.1086,389.5439 583.0117,390.9492 582.9663,392.4194 583.0,394.0 583.1548,395.772 583.3945,397.6445 583.7004,399.5596 584.0625,401.5 584.4578,403.4365 584.9062,405.3477 585.4141,407.2192 586.0,409.0 586.7031,410.6128 587.4688,412.1211 588.2566,413.5603 589.0625,414.9375 589.886,416.2737 590.6758,417.5625 591.4087,418.8008 592.0,420.0 592.3062,421.1758 592.4805,422.3125 592.6206,423.4001 592.75,424.4375 592.9106,425.4221 593.1445,426.3477 593.4751,427.2114 594.0,428.0 594.8726,428.6909 595.9492,429.3086 597.1453,429.8682 598.4375,430.375 599.7747,430.8389 601.1562,431.2617 602.5781,431.646 604.0,432.0 605.3672,432.3345 606.7188,432.6445 608.0747,432.9299 609.4375,433.1875 610.8198,433.408 612.2109,433.6094 613.6045,433.7988 615.0,434.0 616.3955,434.2559 617.7891,434.5156 619.1785,434.7454 620.5625,434.9375 621.9407,435.0808 623.3086,435.1523 624.6636,435.1401 626.0,435.0 627.3091,434.6606 628.5977,434.1914 629.8699,433.6345 631.125,433.0 632.3625,432.3088 633.5859,431.5703 634.7959,430.79 636.0,430.0 637.2119,429.249 638.4141,428.4922 639.5942,427.7024 640.75,426.875 641.8784,425.9988 642.9688,425.0664 644.0156,424.0747 645.0,423.0 645.8906,421.8042 646.7188,420.5273 647.5039,419.1936 648.25,417.8125 648.9648,416.4021 649.6562,414.9609 650.3281,413.4912 651.0,412.0 651.7031,410.4932 652.4062,408.9766 653.092,407.4575 653.75,405.9375 654.3591,404.4136 654.9336,402.9062 655.4761,401.4258 656.0,400.0 656.5356,398.6758 657.0352,397.4062 657.4634,396.1626 657.8125,394.9375 658.0757,393.7163 658.2148,392.4922 658.2104,391.2607 658.0,390.0 657.481,388.6768 656.7539,387.3203 655.8787,385.9465 654.875,384.5625 653.7834,383.1843 652.6016,381.8008 651.333,380.4087 650.0,379.0 648.6279,377.5562 647.2109,376.1055 645.7515,374.6699 644.25,373.25 642.6978,371.8418 641.125,370.4805 639.5469,369.1812 638.0,368.0 636.5469,367.0337 635.125,366.1758 633.6926,365.3572 632.25,364.5625 630.7976,363.7659 629.293,362.9297 627.7202,362.0342 626.0,361.0 623.9946,359.7002 621.8633,358.2578 619.7095,356.748 617.5625,355.1875 615.4702,353.6113 613.4805,352.0391 611.6226,350.4814 610.0,349.0 608.772,347.6904 607.8008,346.4609 607.0085,345.2546 606.375,344.0625 605.8489,342.8645 605.4453,341.6367 605.1689,340.3687 605.0,339.0 604.917,337.4321 604.9297,335.7695 605.0415,334.0779 605.25,332.375 605.5562,330.6936 605.9531,329.0547 606.4355,327.4717 607.0,326.0 607.6426,324.7236 608.3594,323.5703 609.1458,322.4978 610.0,321.5 610.9226,320.5588 611.9023,319.668 612.9331,318.8257 614.0,318.0 615.0786,317.1392 616.1914,316.3008 617.3533,315.5237 618.5625,314.8125 619.8167,314.1736 621.1328,313.6406 622.5166,313.2285 624.0,313.0 625.6396,313.0605 627.3672,313.2969 629.137,313.6377 630.9375,314.0625 632.7517,314.5342 634.5508,315.0312 636.3188,315.5391 638.0,316.0 639.5054,316.3281 640.918,316.5938 642.2861,316.8372 643.625,317.0625 644.9678,317.2859 646.3086,317.5117 647.6479,317.7397 649.0,318.0 650.3794,318.3423 651.7852,318.707 653.2219,319.054 654.6875,319.375 656.1707,319.6589 657.7031,319.875 659.2988,320.0078 661.0,320.0 662.8809,319.7578 664.8594,319.375 666.8826,318.9094 668.9375,318.375 671.0022,317.7996 673.0508,317.1992 675.0688,316.5835 677.0,316.0 678.7554,315.522 680.418,315.082 682.0376,314.6399 683.625,314.1875 685.2046,313.7058 686.7852,313.1875 688.3716,312.6289 690.0,312.0 691.7261,311.2539 693.4961,310.4375 695.2786,309.5791 697.0625,308.6875 698.825,307.7803 700.5703,306.8594 702.2979,305.9277 704.0,305.0 705.6709,304.0957 707.3047,303.2031 708.8938,302.3188 710.4375,301.4375 711.9402,300.5444 713.3789,299.6641 714.7427,298.8057 716.0,298.0 717.0972,297.3037 718.0898,296.6484 719.0125,295.9873 719.875,295.3125 720.6965,294.6143 721.4844,293.8516 722.2441,293.0049 723.0,292.0 723.7871,290.7139 724.5781,289.2734 725.3572,287.7568 726.125,286.1875 726.8792,284.6104 727.6133,283.0391 728.3267,281.4854 729.0,280.0 729.5991,278.6553 730.168,277.3984 730.7358,276.2024 731.3125,275.0625 731.9126,273.9597 732.5508,272.9102 733.2368,271.9224 734.0,271.0 734.8843,270.1519 735.8555,269.3711 736.8953,268.6541 738.0,268.0 739.1575,267.4065 740.375,266.875 741.6562,266.4062 743.0,266.0" stroke="#000" stroke-width="5" /><polygon fill="#87CEFF" opacity="100" points="750.0,228.0 743.0,233.0 736.0,232.0 734.0,236.0 731.0,247.0 720.0,265.0 703.0,277.0 684.0,277.0 670.0,280.0 656.0,289.0 629.0,296.0 609.0,296.0 600.0,292.0 595.0,290.0 594.0,294.0 594.0,300.0 589.0,310.0 580.0,314.0 573.0,310.0 559.0,307.0 540.0,309.0 527.0,314.0 519.0,317.0 519.0,324.0 516.0,329.0 509.0,329.0 496.0,334.0 486.0,341.0 483.0,346.0 483.0,350.0 490.0,355.0 497.0,361.0 501.0,369.0 502.0,377.0 496.0,383.0 488.0,388.0 485.0,390.0 485.0,394.0 488.0,398.0 487.0,401.0 485.0,404.0 485.0,412.0 485.0,418.0 498.0,418.0 510.0,418.0 522.0,416.0 531.0,409.0 535.0,404.0 538.0,398.0 533.0,394.0 526.0,387.0 522.0,381.0 522.0,377.0 517.0,370.0 516.0,359.0 517.0,351.0 523.0,345.0 531.0,343.0 540.0,335.0 549.0,326.0 555.0,318.0 569.0,317.0 576.0,317.0 580.0,319.0 584.0,322.0 591.0,325.0 592.0,332.0 591.0,343.0 588.0,358.0 585.0,373.0 584.0,383.0 583.0,394.0 586.0,409.0 592.0,420.0 594.0,428.0 604.0,432.0 615.0,434.0 626.0,435.0 636.0,430.0 645.0,423.0 651.0,412.0 656.0,400.0 658.0,390.0 650.0,379.0 638.0,368.0 626.0,361.0 610.0,349.0 605.0,339.0 607.0,326.0 614.0,318.0 624.0,313.0 638.0,316.0 649.0,318.0 661.0,320.0 677.0,316.0 690.0,312.0 704.0,305.0 716.0,298.0 723.0,292.0 729.0,280.0 734.0,271.0 743.0,266.0" stroke="#000" stroke-width="1" /><text fill="#0404A4" font-family="Arial" font-size="28" font-weight="bold" opacity="100" x="400.8" y="45.2">Recife</text><text fill="#0404A4" font-family="Arial" font-size="10" font-weight="normal" opacity="100" x="404.5" y="57.0">(Attention! All time intervals in this version equal 2 minutes)</text><text fill="#FFF" font-family="Arial" font-size="15" font-weight="normal" opacity="100" transform="rotate(-90.0 657.0,732.0) translate(0 15)" x="657.0" y="732.0">Atlantic Ocean</text><polyline fill="none" opacity="100" points="203.0,257.0 203.0,326.0 170.0,359.0 170.0,376.0 263.0,469.0 263.0,531.0 379.0,647.0 379.0,806.0" stroke="#808080" stroke-width="3" /><polyline fill="none" opacity="100" points="437.0,748.0 373.0,812.0" stroke="#808080" stroke-width="3" /><polyline fill="none" opacity="100" points="424.0,761.0 419.6641,763.6406 415.5312,765.8125 411.6016,767.5156 407.875,768.75 404.3516,769.5156 401.0312,769.8125 397.9141,769.6406 395.0,769.0 392.2891,767.8906 389.7812,766.3125 387.4766,764.2656 385.375,761.75 383.4766,758.7656 381.7812,755.3125 380.2891,751.3906 379.0,747.0" stroke="#808080" stroke-width="3" /><polyline fill="none" opacity="100" points="373.0,803.0 373.0,812.0 382.0,812.0" stroke="#808080" stroke-width="3" /><polygon fill="#808080" opacity="100" points="201.0,255.0 201.0,259.0 205.0,259.0 205.0,255.0" stroke="#808080" stroke-width="3" /><polygon fill="#808080" opacity="100" points="255.0,461.0 255.0,465.0 259.0,465.0 259.0,461.0" stroke="#808080" stroke-width="3" /><polygon fill="#808080" opacity="100" points="377.0,653.0 377.0,657.0 381.0,657.0 381.0,653.0" stroke="#808080" stroke-width="3" /><polygon fill="#808080" opacity="100" points="435.0,746.0 435.0,750.0 439.0,750.0 439.0,746.0" stroke="#808080" stroke-width="3" /><polyline fill="none" opacity="100" points="476.0,134.0 505.0,134.0" stroke="#808080" stroke-width="3" /><polygon fill="#808080" opacity="100" points="488.0,131.0 488.0,136.0 492.0,136.0 492.0,131.0" stroke="#808080" stroke-width="3" /><polygon fill="#808080" opacity="100" points="502.0,589.0 504.0,583.0 502.0,577.0 504.0,577.0 507.0,581.0 517.0,580.0 513.0,568.0 516.0,568.0 524.0,580.0 531.0,581.0 534.0,583.0 531.0,585.0 524.0,586.0 516.0,598.0 513.0,598.0 517.0,586.0 507.0,585.0 504.0,589.0" stroke="#000" stroke-width="1" /><text fill="#000" font-family="Arial" font-size="15" font-weight="normal" opacity="100" x="267.75" y="463.5">Jorge Lins</text><text fill="#000" font-family="Arial" font-size="15" font-weight="normal" opacity="100" x="268.75" y="661.5">Marcos Freire</text><text fill="#000" font-family="Arial" font-size="15" font-weight="normal" opacity="100" x="325.75" y="809.5">Cabo</text><text fill="#000" font-family="Arial" font-size="15" font-weight="normal" opacity="100" x="521.75" y="141.5">Trem Diesel</text><text fill="#AF0000" font-family="Arial" font-size="15" font-weight="normal" opacity="100" x="521.75" y="100.5">Metro Linha Centro</text><text fill="#0000AF" font-family="Arial" font-size="15" font-weight="normal" opacity="100" x="521.75" y="120.5">Metro Linha Sul</text></g></svg>