<?xml version="1.0" encoding="utf-8" ?>
<svg baseProfile="tiny" height="420px" version="1.2" width="520px" xmlns="http://www.w3.org/2000/svg" xmlns:ev="http://www.w3.org/2001/xml-events" xmlns:xlink="http://www.w3.org/1999/xlink"><defs /><g><g transform="rotate(35.0,260.0,210.0)"><polygon fill="#085888" opacity="100" points="77.0,208.0 77.0,178.0 527.0,178.0 527.0,208.0" stroke="#000" stroke-width="1" /><polygon fill="#085888" opacity="100" points="77.0,211.0 77.0,241.0 527.0,241.0 527.0,211.0" stroke="#000" stroke-width="1" /><polyline fill="none" opacity="100" points="527.0,241.0 527.0,266.0 -5.0,266.0 -5.0,153.0 527.0,153.0 527.0,178.0" stroke="#000" stroke-width="1" /><polyline fill="none" opacity="100" points="77.0,178.0 77.0,175.0" stroke="#000" stroke-width="1" /><polyline fill="none" opacity="100" points="77.0,241.0 77.0,244.0" stroke="#000" stroke-width="1" /><polyline fill="none" opacity="100" points="75.0,171.0 75.0,153.0" stroke="#000" stroke-width="1" /><polyline fill="none" opacity="100" points="71.0,171.0 71.0,153.0" stroke="#000" stroke-width="1" /><polyline fill="none" opacity="100" points="67.0,171.0 67.0,153.0" stroke="#000" stroke-width="1" /><polyline fill="none" opacity="100" points="63.0,171.0 63.0,153.0" stroke="#000" stroke-width="1" /><polyline fill="none" opacity="100" points="59.0,171.0 59.0,153.0" stroke="#000" stroke-width="1" /><polyline fill="none" opacity="100" points="55.0,171.0 55.0,153.0" stroke="#000" stroke-width="1" /><polyline fill="none" opacity="100" points="51.0,171.0 51.0,153.0" stroke="#000" stroke-width="1" /><polyline fill="none" opacity="100" points="47.0,171.0 47.0,153.0" stroke="#000" stroke-width="1" /><polyline fill="none" opacity="100" points="43.0,171.0 43.0,153.0" stroke="#000" stroke-width="1" /><polyline fill="none" opacity="100" points="39.0,171.0 39.0,153.0" stroke="#000" stroke-width="1" /><polyline fill="none" opacity="100" points="35.0,171.0 35.0,153.0" stroke="#000" stroke-width="1" /><polyline fill="none" opacity="100" points="31.0,171.0 31.0,153.0" stroke="#000" stroke-width="1" /><polyline fill="none" opacity="100" points="75.0,248.0 75.0,266.0" stroke="#000" stroke-width="1" /><polyline fill="none" opacity="100" points="71.0,248.0 71.0,266.0" stroke="#000" stroke-width="1" /><polyline fill="none" opacity="100" points="67.0,248.0 67.0,266.0" stroke="#000" stroke-width="1" /><polyline fill="none" opacity="100" points="63.0,248.0 63.0,266.0" stroke="#000" stroke-width="1" /><polyline fill="none" opacity="100" points="59.0,248.0 59.0,266.0" stroke="#000" stroke-width="1" /><polyline fill="none" opacity="100" points="55.0,248.0 55.0,266.0" stroke="#000" stroke-width="1" /><polyline fill="none" opacity="100" points="51.0,248.0 51.0,266.0" stroke="#000" stroke-width="1" /><polyline fill="none" opacity="100" points="47.0,248.0 47.0,266.0" stroke="#000" stroke-width="1" /><polyline fill="none" opacity="100" points="43.0,248.0 43.0,266.0" stroke="#000" stroke-width="1" /><polyline fill="none" opacity="100" points="39.0,248.0 39.0,266.0" stroke="#000" stroke-width="1" /><polyline fill="none" opacity="100" points="35.0,248.0 35.0,266.0" stroke="#000" stroke-width="1" /><polyline fill="none" opacity="100" points="31.0,248.0 31.0,266.0" stroke="#000" stroke-width="1" /><polygon fill="#FFF" opacity="0.85" points="75.0,175.0 158.0,175.0 158.0,268.0 126.0,268.0 126.0,244.0 75.0,244.0" stroke="#FFF" stroke-width="1" /><polyline fill="none" opacity="1.0" points="61.0,295.0 158.0,295.0 158.0,175.0 77.0,175.0" stroke="#000" stroke-width="1" /><polyline fill="none" opacity="1.0" points="61.0,270.0 126.0,270.0 126.0,244.0 77.0,244.0" stroke="#000" stroke-width="1" /><polyline fill="none" opacity="1.0" points="25.0,244.0 25.0,175.0" stroke="#000" stroke-width="1" /><polyline fill="none" opacity="1.0" points="29.0,244.0 29.0,175.0" stroke="#000" stroke-width="1" /><polyline fill="none" opacity="1.0" points="33.0,244.0 33.0,175.0" stroke="#000" stroke-width="1" /><polyline fill="none" opacity="1.0" points="63.0,270.0 63.0,295.0" stroke="#000" stroke-width="1" /><polyline fill="none" opacity="1.0" points="67.0,270.0 67.0,295.0" stroke="#000" stroke-width="1" /><polyline fill="none" opacity="1.0" points="71.0,270.0 71.0,295.0" stroke="#000" stroke-width="1" /><polyline fill="none" opacity="1.0" points="75.0,270.0 75.0,295.0" stroke="#000" stroke-width="1" /><polyline fill="none" opacity="1.0" points="79.0,270.0 79.0,295.0" stroke="#000" stroke-width="1" /><polyline fill="none" opacity="1.0" points="83.0,270.0 83.0,295.0" stroke="#000" stroke-width="1" /><polyline fill="none" opacity="1.0" points="99.0,270.0 99.0,295.0" stroke="#000" stroke-width="1" /><polyline fill="none" opacity="1.0" points="103.0,270.0 103.0,295.0" stroke="#000" stroke-width="1" /><polyline fill="none" opacity="1.0" points="107.0,270.0 107.0,295.0" stroke="#000" stroke-width="1" /><polyline fill="none" opacity="1.0" points="111.0,270.0 111.0,295.0" stroke="#000" stroke-width="1" /><polyline fill="none" opacity="1.0" points="115.0,270.0 115.0,295.0" stroke="#000" stroke-width="1" /><polyline fill="none" opacity="1.0" points="119.0,270.0 119.0,295.0" stroke="#000" stroke-width="1" /><polygon fill="#D0D0D0" opacity="1.0" points="17.0,171.0 17.0,175.0 77.0,175.0 77.0,171.0" stroke="#000" stroke-width="1" /><polygon fill="#D0D0D0" opacity="1.0" points="17.0,244.0 17.0,248.0 77.0,248.0 77.0,244.0" stroke="#000" stroke-width="1" /><polyline fill="none" opacity="1.0" points="120.0,175.0 120.0,167.0 149.0,167.0 149.0,175.0" stroke="#000" stroke-width="1" /><text fill="#FFF" font-family="Arial" font-size="10" font-weight="normal" opacity="1.0" transform="rotate(-0.0 122.0,164.0) translate(0 10)" x="122.0" y="164.0">кассы</text><polygon fill="none" opacity="1.0" points="104.0,207.0 109.0,207.0 109.0,212.0 104.0,212.0" stroke="#000" stroke-width="1" /><polyline fill="none" opacity="1.0" points="108.0,179.0 104.0,179.0" stroke="#090" stroke-width="1" /><polyline fill="none" opacity="1.0" points="108.0,183.0 104.0,183.0" stroke="#090" stroke-width="1" /><polyline fill="none" opacity="1.0" points="108.0,187.0 104.0,187.0" stroke="#090" stroke-width="1" /><polyline fill="none" opacity="1.0" points="108.0,191.0 104.0,191.0" stroke="#090" stroke-width="1" /><polyline fill="none" opacity="1.0" points="108.0,195.0 104.0,195.0" stroke="#090" stroke-width="1" /><polyline fill="none" opacity="1.0" points="108.0,199.0 104.0,199.0" stroke="#090" stroke-width="1" /><polyline fill="none" opacity="1.0" points="108.0,203.0 104.0,203.0" stroke="#090" stroke-width="1" /><polyline fill="none" opacity="1.0" points="108.0,216.0 104.0,216.0" stroke="#F00" stroke-width="1" /><polyline fill="none" opacity="1.0" points="108.0,220.0 104.0,220.0" stroke="#F00" stroke-width="1" /><polyline fill="none" opacity="1.0" points="108.0,224.0 104.0,224.0" stroke="#F00" stroke-width="1" /><polyline fill="none" opacity="1.0" points="108.0,228.0 104.0,228.0" stroke="#F00" stroke-width="1" /><polyline fill="none" opacity="1.0" points="108.0,232.0 104.0,232.0" stroke="#F00" stroke-width="1" /><polyline fill="none" opacity="1.0" points="108.0,236.0 104.0,236.0" stroke="#F00" stroke-width="1" /><polyline fill="none" opacity="1.0" points="108.0,240.0 104.0,240.0" stroke="#F00" stroke-width="1" /><polyline fill="none" opacity="1.0" points="27.0,257.0 11.0,257.0" stroke="#F00" stroke-width="1" /><polygon fill="#F00" opacity="1.0" points="15.6364,255.7577 11.0,257.0 15.6364,258.2423" stroke="#F00" stroke-width="1" /><polyline fill="none" opacity="1.0" points="125.0,278.0 109.0,278.0" stroke="#F00" stroke-width="1" /><polygon fill="#F00" opacity="1.0" points="113.6364,276.7577 109.0,278.0 113.6364,279.2423" stroke="#F00" stroke-width="1" /><polyline fill="none" opacity="1.0" points="68.0,226.0 84.0,226.0" stroke="#F00" stroke-width="1" /><polygon fill="#F00" opacity="1.0" points="79.3636,227.2423 84.0,226.0 79.3636,224.7577" stroke="#F00" stroke-width="1" /><polyline fill="none" opacity="1.0" points="11.0,162.0 27.0,162.0" stroke="#090" stroke-width="1" /><polygon fill="#090" opacity="1.0" points="22.3636,163.2423 27.0,162.0 22.3636,160.7577" stroke="#090" stroke-width="1" /><polyline fill="none" opacity="1.0" points="109.0,288.0 125.0,288.0" stroke="#090" stroke-width="1" /><polygon fill="#090" opacity="1.0" points="120.3636,289.2423 125.0,288.0 120.3636,286.7577" stroke="#090" stroke-width="1" /><polyline fill="none" opacity="1.0" points="84.0,193.0 68.0,193.0" stroke="#090" stroke-width="1" /><polygon fill="#090" opacity="1.0" points="72.6364,191.7577 68.0,193.0 72.6364,194.2423" stroke="#090" stroke-width="1" /><text fill="#000" font-family="Arial" font-size="20" font-weight="normal" opacity="1.0" transform="rotate(-0.0 163.0,218.0) translate(0 20)" x="163.0" y="218.0">&lt;&lt; тупик</text><text fill="#000" font-family="Arial" font-size="20" font-weight="normal" opacity="1.0" transform="rotate(-0.0 382.0,176.0) translate(0 20)" x="382.0" y="176.0">Бурнаковская &gt;&gt;</text><text fill="#000" font-family="Arial" font-size="25" font-weight="bold" opacity="1.0" transform="rotate(-0.0 235.0,193.0) translate(0 25)" x="235.0" y="193.0">Буревестник</text><text fill="#FFF" font-family="Arial" font-size="20" font-weight="normal" opacity="1.0" transform="rotate(-0.0 162.0,217.0) translate(0 20)" x="162.0" y="217.0">&lt;&lt; тупик</text><text fill="#FFF" font-family="Arial" font-size="20" font-weight="normal" opacity="1.0" transform="rotate(-0.0 381.0,175.0) translate(0 20)" x="381.0" y="175.0">Бурнаковская &gt;&gt;</text><text fill="#FFF" font-family="Arial" font-size="25" font-weight="bold" opacity="1.0" transform="rotate(-0.0 234.0,192.0) translate(0 25)" x="234.0" y="192.0">Буревестник</text><text fill="#00AFAF" font-family="Arial" font-size="15" font-weight="normal" opacity="1.0" transform="rotate(-0.0 182.0,345.0) translate(0 15)" x="182.0" y="345.0">Сормовское шоссе</text></g></g></svg>