<?xml version="1.0" encoding="utf-8" ?>
<svg baseProfile="tiny" height="960px" version="1.2" width="600px" xmlns="http://www.w3.org/2000/svg" xmlns:ev="http://www.w3.org/2001/xml-events" xmlns:xlink="http://www.w3.org/1999/xlink"><defs /><g><g transform="rotate(-65.0,300.0,480.0)"><polygon fill="#CF0000" opacity="100" points="73.0,407.0 523.0,407.0 523.0,437.0 73.0,437.0" stroke="#000" stroke-width="1" /><polygon fill="#CF0000" opacity="100" points="73.0,517.0 523.0,517.0 523.0,547.0 73.0,547.0" stroke="#000" stroke-width="1" /><text fill="#CF0000" font-family="Arial" font-size="20" font-weight="normal" opacity="100" transform="rotate(-0.0 73.0,382.0) translate(0 20)" x="73.0" y="382.0">&lt;&lt; Пролетарская</text><text fill="#CF0000" font-family="Arial" font-size="20" font-weight="normal" opacity="100" transform="rotate(-0.0 416.0,547.0) translate(0 20)" x="416.0" y="547.0">Заречная &gt;&gt;</text><text fill="#CF0000" font-family="Arial" font-size="25" font-weight="bold" opacity="100" transform="rotate(-0.0 169.0,462.0) translate(0 25)" x="169.0" y="462.0">Двигатель Революции</text><polyline fill="none" opacity="100" points="523.0,437.0 523.0,447.0 593.0,447.0 593.0,426.0 656.0,426.0 656.0,431.0 668.0,431.0 668.0,394.0 603.0,394.0" stroke="#000" stroke-width="1" /><polyline fill="none" opacity="100" points="757.0,394.0 692.0,394.0 692.0,561.0 757.0,561.0" stroke="#000" stroke-width="1" /><polyline fill="none" opacity="100" points="603.0,376.0 757.0,376.0" stroke="#000" stroke-width="1" /><polyline fill="none" opacity="100" points="523.0,517.0 523.0,507.0 593.0,507.0 593.0,528.0 656.0,528.0 656.0,523.0 668.0,523.0 668.0,561.0 603.0,561.0" stroke="#000" stroke-width="1" /><polyline fill="none" opacity="100" points="603.0,579.0 757.0,579.0" stroke="#000" stroke-width="1" /><polyline fill="none" opacity="100" points="530.0,447.0 530.0,507.0" stroke="#000" stroke-width="1" /><polyline fill="none" opacity="100" points="534.0,447.0 534.0,507.0" stroke="#000" stroke-width="1" /><polyline fill="none" opacity="100" points="538.0,447.0 538.0,507.0" stroke="#000" stroke-width="1" /><polyline fill="none" opacity="100" points="542.0,447.0 542.0,507.0" stroke="#000" stroke-width="1" /><polyline fill="none" opacity="100" points="546.0,447.0 546.0,507.0" stroke="#000" stroke-width="1" /><polyline fill="none" opacity="100" points="550.0,447.0 550.0,507.0" stroke="#000" stroke-width="1" /><polyline fill="none" opacity="100" points="566.0,447.0 566.0,507.0" stroke="#000" stroke-width="1" /><polyline fill="none" opacity="100" points="570.0,447.0 570.0,507.0" stroke="#000" stroke-width="1" /><polyline fill="none" opacity="100" points="574.0,447.0 574.0,507.0" stroke="#000" stroke-width="1" /><polyline fill="none" opacity="100" points="578.0,447.0 578.0,507.0" stroke="#000" stroke-width="1" /><polyline fill="none" opacity="100" points="582.0,447.0 582.0,507.0" stroke="#000" stroke-width="1" /><polyline fill="none" opacity="100" points="586.0,447.0 586.0,507.0" stroke="#000" stroke-width="1" /><polyline fill="none" opacity="100" points="619.0,394.0 619.0,376.0" stroke="#000" stroke-width="1" /><polyline fill="none" opacity="100" points="615.0,394.0 615.0,376.0" stroke="#000" stroke-width="1" /><polyline fill="none" opacity="100" points="611.0,394.0 611.0,376.0" stroke="#000" stroke-width="1" /><polyline fill="none" opacity="100" points="607.0,394.0 607.0,376.0" stroke="#000" stroke-width="1" /><polyline fill="none" opacity="100" points="641.0,394.0 641.0,376.0" stroke="#000" stroke-width="1" /><polyline fill="none" opacity="100" points="637.0,394.0 637.0,376.0" stroke="#000" stroke-width="1" /><polyline fill="none" opacity="100" points="633.0,394.0 633.0,376.0" stroke="#000" stroke-width="1" /><polyline fill="none" opacity="100" points="629.0,394.0 629.0,376.0" stroke="#000" stroke-width="1" /><polyline fill="none" opacity="100" points="663.0,394.0 663.0,376.0" stroke="#000" stroke-width="1" /><polyline fill="none" opacity="100" points="659.0,394.0 659.0,376.0" stroke="#000" stroke-width="1" /><polyline fill="none" opacity="100" points="655.0,394.0 655.0,376.0" stroke="#000" stroke-width="1" /><polyline fill="none" opacity="100" points="651.0,394.0 651.0,376.0" stroke="#000" stroke-width="1" /><polyline fill="none" opacity="100" points="697.0,394.0 697.0,376.0" stroke="#000" stroke-width="1" /><polyline fill="none" opacity="100" points="701.0,394.0 701.0,376.0" stroke="#000" stroke-width="1" /><polyline fill="none" opacity="100" points="705.0,394.0 705.0,376.0" stroke="#000" stroke-width="1" /><polyline fill="none" opacity="100" points="709.0,394.0 709.0,376.0" stroke="#000" stroke-width="1" /><polyline fill="none" opacity="100" points="719.0,394.0 719.0,376.0" stroke="#000" stroke-width="1" /><polyline fill="none" opacity="100" points="723.0,394.0 723.0,376.0" stroke="#000" stroke-width="1" /><polyline fill="none" opacity="100" points="727.0,394.0 727.0,376.0" stroke="#000" stroke-width="1" /><polyline fill="none" opacity="100" points="731.0,394.0 731.0,376.0" stroke="#000" stroke-width="1" /><polyline fill="none" opacity="100" points="741.0,394.0 741.0,376.0" stroke="#000" stroke-width="1" /><polyline fill="none" opacity="100" points="745.0,394.0 745.0,376.0" stroke="#000" stroke-width="1" /><polyline fill="none" opacity="100" points="749.0,394.0 749.0,376.0" stroke="#000" stroke-width="1" /><polyline fill="none" opacity="100" points="753.0,394.0 753.0,376.0" stroke="#000" stroke-width="1" /><polyline fill="none" opacity="100" points="697.0,561.0 697.0,579.0" stroke="#000" stroke-width="1" /><polyline fill="none" opacity="100" points="701.0,561.0 701.0,579.0" stroke="#000" stroke-width="1" /><polyline fill="none" opacity="100" points="705.0,561.0 705.0,579.0" stroke="#000" stroke-width="1" /><polyline fill="none" opacity="100" points="709.0,561.0 709.0,579.0" stroke="#000" stroke-width="1" /><polyline fill="none" opacity="100" points="719.0,561.0 719.0,579.0" stroke="#000" stroke-width="1" /><polyline fill="none" opacity="100" points="723.0,561.0 723.0,579.0" stroke="#000" stroke-width="1" /><polyline fill="none" opacity="100" points="727.0,561.0 727.0,579.0" stroke="#000" stroke-width="1" /><polyline fill="none" opacity="100" points="731.0,561.0 731.0,579.0" stroke="#000" stroke-width="1" /><polyline fill="none" opacity="100" points="741.0,561.0 741.0,579.0" stroke="#000" stroke-width="1" /><polyline fill="none" opacity="100" points="745.0,561.0 745.0,579.0" stroke="#000" stroke-width="1" /><polyline fill="none" opacity="100" points="749.0,561.0 749.0,579.0" stroke="#000" stroke-width="1" /><polyline fill="none" opacity="100" points="753.0,561.0 753.0,579.0" stroke="#000" stroke-width="1" /><polyline fill="none" opacity="100" points="663.0,561.0 663.0,579.0" stroke="#000" stroke-width="1" /><polyline fill="none" opacity="100" points="659.0,561.0 659.0,579.0" stroke="#000" stroke-width="1" /><polyline fill="none" opacity="100" points="655.0,561.0 655.0,579.0" stroke="#000" stroke-width="1" /><polyline fill="none" opacity="100" points="651.0,561.0 651.0,579.0" stroke="#000" stroke-width="1" /><polyline fill="none" opacity="100" points="641.0,561.0 641.0,579.0" stroke="#000" stroke-width="1" /><polyline fill="none" opacity="100" points="637.0,561.0 637.0,579.0" stroke="#000" stroke-width="1" /><polyline fill="none" opacity="100" points="633.0,561.0 633.0,579.0" stroke="#000" stroke-width="1" /><polyline fill="none" opacity="100" points="629.0,561.0 629.0,579.0" stroke="#000" stroke-width="1" /><polyline fill="none" opacity="100" points="619.0,561.0 619.0,579.0" stroke="#000" stroke-width="1" /><polyline fill="none" opacity="100" points="615.0,561.0 615.0,579.0" stroke="#000" stroke-width="1" /><polyline fill="none" opacity="100" points="611.0,561.0 611.0,579.0" stroke="#000" stroke-width="1" /><polyline fill="none" opacity="100" points="607.0,561.0 607.0,579.0" stroke="#000" stroke-width="1" /><polygon fill="#D0D0D0" opacity="100" points="656.0,455.0 656.0,498.0 668.0,498.0 668.0,455.0" stroke="#000" stroke-width="1" /><polyline fill="none" opacity="100" points="612.0,426.0 612.0,418.0 641.0,418.0 641.0,426.0" stroke="#000" stroke-width="1" /><text fill="#FFF" font-family="Arial" font-size="10" font-weight="normal" opacity="100" transform="rotate(-0.0 614.0,416.0) translate(0 10)" x="614.0" y="416.0">кассы</text><polygon fill="none" opacity="100" points="629.0,492.0 633.0,489.0 636.0,493.0 632.0,496.0" stroke="#000" stroke-width="1" /><polyline fill="none" opacity="100" points="598.0,440.0 595.0,442.0" stroke="#090" stroke-width="1" /><polyline fill="none" opacity="100" points="600.2661,443.2962 597.2661,445.2962" stroke="#090" stroke-width="1" /><polyline fill="none" opacity="100" points="602.5322,446.5923 599.5322,448.5923" stroke="#090" stroke-width="1" /><polyline fill="none" opacity="100" points="604.7983,449.8885 601.7983,451.8885" stroke="#090" stroke-width="1" /><polyline fill="none" opacity="100" points="607.0645,453.1847 604.0645,455.1847" stroke="#090" stroke-width="1" /><polyline fill="none" opacity="100" points="609.3306,456.4808 606.3306,458.4808" stroke="#090" stroke-width="1" /><polyline fill="none" opacity="100" points="611.5967,459.777 608.5967,461.777" stroke="#090" stroke-width="1" /><polyline fill="none" opacity="100" points="613.8628,463.0732 610.8628,465.0732" stroke="#090" stroke-width="1" /><polyline fill="none" opacity="100" points="616.1289,466.3693 613.1289,468.3693" stroke="#090" stroke-width="1" /><polyline fill="none" opacity="100" points="618.395,469.6655 615.395,471.6655" stroke="#090" stroke-width="1" /><polyline fill="none" opacity="100" points="620.6612,472.9617 617.6612,474.9617" stroke="#090" stroke-width="1" /><polyline fill="none" opacity="100" points="622.9273,476.2578 619.9273,478.2578" stroke="#090" stroke-width="1" /><polyline fill="none" opacity="100" points="625.1934,479.554 622.1934,481.554" stroke="#090" stroke-width="1" /><polyline fill="none" opacity="100" points="627.4595,482.8502 624.4595,484.8502" stroke="#090" stroke-width="1" /><polyline fill="none" opacity="100" points="629.7256,486.1463 626.7256,488.1463" stroke="#090" stroke-width="1" /><polyline fill="none" opacity="100" points="638.0,500.0 634.0,500.0" stroke="#F00" stroke-width="1" /><polyline fill="none" opacity="100" points="637.852,503.9973 633.852,503.9973" stroke="#F00" stroke-width="1" /><polyline fill="none" opacity="100" points="637.7039,507.9945 633.7039,507.9945" stroke="#F00" stroke-width="1" /><polyline fill="none" opacity="100" points="637.5559,511.9918 633.5559,511.9918" stroke="#F00" stroke-width="1" /><polyline fill="none" opacity="100" points="637.4078,515.989 633.4078,515.989" stroke="#F00" stroke-width="1" /><polyline fill="none" opacity="100" points="637.2598,519.9863 633.2598,519.9863" stroke="#F00" stroke-width="1" /><polyline fill="none" opacity="100" points="637.1117,523.9836 633.1117,523.9836" stroke="#F00" stroke-width="1" /><polyline fill="none" opacity="100" points="73.0,437.0 73.0,447.0 5.0,447.0 5.0,426.0 -57.0,426.0 -57.0,431.0 -71.0,431.0 -71.0,394.0 -6.0,394.0" stroke="#000" stroke-width="1" /><polyline fill="none" opacity="100" points="-6.0,376.0 -160.0,376.0" stroke="#000" stroke-width="1" /><polyline fill="none" opacity="100" points="-160.0,394.0 -95.0,394.0 -95.0,561.0 -159.0,561.0" stroke="#000" stroke-width="1" /><polyline fill="none" opacity="100" points="-159.0,579.0 -6.0,579.0" stroke="#000" stroke-width="1" /><polyline fill="none" opacity="100" points="-6.0,561.0 -71.0,561.0 -71.0,523.0 -57.0,523.0 -57.0,528.0 5.0,528.0 5.0,507.0 73.0,507.0 73.0,517.0" stroke="#000" stroke-width="1" /><polyline fill="none" opacity="100" points="32.0,447.0 32.0,507.0" stroke="#000" stroke-width="1" /><polyline fill="none" opacity="100" points="28.0,447.0 28.0,507.0" stroke="#000" stroke-width="1" /><polyline fill="none" opacity="100" points="24.0,447.0 24.0,507.0" stroke="#000" stroke-width="1" /><polyline fill="none" opacity="100" points="20.0,447.0 20.0,507.0" stroke="#000" stroke-width="1" /><polyline fill="none" opacity="100" points="16.0,447.0 16.0,507.0" stroke="#000" stroke-width="1" /><polyline fill="none" opacity="100" points="12.0,447.0 12.0,507.0" stroke="#000" stroke-width="1" /><polyline fill="none" opacity="100" points="68.0,447.0 68.0,507.0" stroke="#000" stroke-width="1" /><polyline fill="none" opacity="100" points="64.0,447.0 64.0,507.0" stroke="#000" stroke-width="1" /><polyline fill="none" opacity="100" points="60.0,447.0 60.0,507.0" stroke="#000" stroke-width="1" /><polyline fill="none" opacity="100" points="56.0,447.0 56.0,507.0" stroke="#000" stroke-width="1" /><polyline fill="none" opacity="100" points="52.0,447.0 52.0,507.0" stroke="#000" stroke-width="1" /><polyline fill="none" opacity="100" points="48.0,447.0 48.0,507.0" stroke="#000" stroke-width="1" /><polyline fill="none" opacity="100" points="-100.0,394.0 -100.0,376.0" stroke="#000" stroke-width="1" /><polyline fill="none" opacity="100" points="-104.0,394.0 -104.0,376.0" stroke="#000" stroke-width="1" /><polyline fill="none" opacity="100" points="-108.0,394.0 -108.0,376.0" stroke="#000" stroke-width="1" /><polyline fill="none" opacity="100" points="-112.0,394.0 -112.0,376.0" stroke="#000" stroke-width="1" /><polyline fill="none" opacity="100" points="-122.0,394.0 -122.0,376.0" stroke="#000" stroke-width="1" /><polyline fill="none" opacity="100" points="-126.0,394.0 -126.0,376.0" stroke="#000" stroke-width="1" /><polyline fill="none" opacity="100" points="-130.0,394.0 -130.0,376.0" stroke="#000" stroke-width="1" /><polyline fill="none" opacity="100" points="-134.0,394.0 -134.0,376.0" stroke="#000" stroke-width="1" /><polyline fill="none" opacity="100" points="-144.0,394.0 -144.0,376.0" stroke="#000" stroke-width="1" /><polyline fill="none" opacity="100" points="-148.0,394.0 -148.0,376.0" stroke="#000" stroke-width="1" /><polyline fill="none" opacity="100" points="-152.0,394.0 -152.0,376.0" stroke="#000" stroke-width="1" /><polyline fill="none" opacity="100" points="-156.0,394.0 -156.0,376.0" stroke="#000" stroke-width="1" /><polyline fill="none" opacity="100" points="-66.0,394.0 -66.0,376.0" stroke="#000" stroke-width="1" /><polyline fill="none" opacity="100" points="-62.0,394.0 -62.0,376.0" stroke="#000" stroke-width="1" /><polyline fill="none" opacity="100" points="-58.0,394.0 -58.0,376.0" stroke="#000" stroke-width="1" /><polyline fill="none" opacity="100" points="-54.0,394.0 -54.0,376.0" stroke="#000" stroke-width="1" /><polyline fill="none" opacity="100" points="-44.0,394.0 -44.0,376.0" stroke="#000" stroke-width="1" /><polyline fill="none" opacity="100" points="-40.0,394.0 -40.0,376.0" stroke="#000" stroke-width="1" /><polyline fill="none" opacity="100" points="-36.0,394.0 -36.0,376.0" stroke="#000" stroke-width="1" /><polyline fill="none" opacity="100" points="-32.0,394.0 -32.0,376.0" stroke="#000" stroke-width="1" /><polyline fill="none" opacity="100" points="-22.0,394.0 -22.0,376.0" stroke="#000" stroke-width="1" /><polyline fill="none" opacity="100" points="-18.0,394.0 -18.0,376.0" stroke="#000" stroke-width="1" /><polyline fill="none" opacity="100" points="-14.0,394.0 -14.0,376.0" stroke="#000" stroke-width="1" /><polyline fill="none" opacity="100" points="-10.0,394.0 -10.0,376.0" stroke="#000" stroke-width="1" /><polyline fill="none" opacity="100" points="-66.0,561.0 -66.0,579.0" stroke="#000" stroke-width="1" /><polyline fill="none" opacity="100" points="-62.0,561.0 -62.0,579.0" stroke="#000" stroke-width="1" /><polyline fill="none" opacity="100" points="-58.0,561.0 -58.0,579.0" stroke="#000" stroke-width="1" /><polyline fill="none" opacity="100" points="-54.0,561.0 -54.0,579.0" stroke="#000" stroke-width="1" /><polyline fill="none" opacity="100" points="-44.0,561.0 -44.0,579.0" stroke="#000" stroke-width="1" /><polyline fill="none" opacity="100" points="-40.0,561.0 -40.0,579.0" stroke="#000" stroke-width="1" /><polyline fill="none" opacity="100" points="-36.0,561.0 -36.0,579.0" stroke="#000" stroke-width="1" /><polyline fill="none" opacity="100" points="-32.0,561.0 -32.0,579.0" stroke="#000" stroke-width="1" /><polyline fill="none" opacity="100" points="-22.0,561.0 -22.0,579.0" stroke="#000" stroke-width="1" /><polyline fill="none" opacity="100" points="-18.0,561.0 -18.0,579.0" stroke="#000" stroke-width="1" /><polyline fill="none" opacity="100" points="-14.0,561.0 -14.0,579.0" stroke="#000" stroke-width="1" /><polyline fill="none" opacity="100" points="-10.0,561.0 -10.0,579.0" stroke="#000" stroke-width="1" /><polyline fill="none" opacity="100" points="-100.0,561.0 -100.0,579.0" stroke="#000" stroke-width="1" /><polyline fill="none" opacity="100" points="-104.0,561.0 -104.0,579.0" stroke="#000" stroke-width="1" /><polyline fill="none" opacity="100" points="-108.0,561.0 -108.0,579.0" stroke="#000" stroke-width="1" /><polyline fill="none" opacity="100" points="-112.0,561.0 -112.0,579.0" stroke="#000" stroke-width="1" /><polyline fill="none" opacity="100" points="-121.0,561.0 -121.0,579.0" stroke="#000" stroke-width="1" /><polyline fill="none" opacity="100" points="-125.0,561.0 -125.0,579.0" stroke="#000" stroke-width="1" /><polyline fill="none" opacity="100" points="-129.0,561.0 -129.0,579.0" stroke="#000" stroke-width="1" /><polyline fill="none" opacity="100" points="-133.0,561.0 -133.0,579.0" stroke="#000" stroke-width="1" /><polyline fill="none" opacity="100" points="-143.0,561.0 -143.0,579.0" stroke="#000" stroke-width="1" /><polyline fill="none" opacity="100" points="-147.0,561.0 -147.0,579.0" stroke="#000" stroke-width="1" /><polyline fill="none" opacity="100" points="-151.0,561.0 -151.0,579.0" stroke="#000" stroke-width="1" /><polyline fill="none" opacity="100" points="-155.0,561.0 -155.0,579.0" stroke="#000" stroke-width="1" /><polygon fill="#D0D0D0" opacity="100" points="-71.0,498.0 -57.0,498.0 -57.0,455.0 -71.0,455.0" stroke="#000" stroke-width="1" /><polyline fill="none" opacity="100" points="-15.0,528.0 -15.0,536.0 -44.0,536.0 -44.0,528.0" stroke="#000" stroke-width="1" /><text fill="#FFF" font-family="Arial" font-size="10" font-weight="normal" opacity="100" transform="rotate(-0.0 -42.0,525.0) translate(0 10)" x="-42.0" y="525.0">кассы</text><polygon fill="none" opacity="100" points="-32.0,461.0 -36.0,464.0 -39.0,460.0 -35.0,457.0" stroke="#000" stroke-width="1" /><polyline fill="none" opacity="100" points="-1.0,513.0 2.0,511.0" stroke="#090" stroke-width="1" /><polyline fill="none" opacity="100" points="-3.2661,509.7038 -0.2661,507.7038" stroke="#090" stroke-width="1" /><polyline fill="none" opacity="100" points="-5.5322,506.4077 -2.5322,504.4077" stroke="#090" stroke-width="1" /><polyline fill="none" opacity="100" points="-7.7983,503.1115 -4.7983,501.1115" stroke="#090" stroke-width="1" /><polyline fill="none" opacity="100" points="-10.0645,499.8153 -7.0645,497.8153" stroke="#090" stroke-width="1" /><polyline fill="none" opacity="100" points="-12.3306,496.5192 -9.3306,494.5192" stroke="#090" stroke-width="1" /><polyline fill="none" opacity="100" points="-14.5967,493.223 -11.5967,491.223" stroke="#090" stroke-width="1" /><polyline fill="none" opacity="100" points="-16.8628,489.9268 -13.8628,487.9268" stroke="#090" stroke-width="1" /><polyline fill="none" opacity="100" points="-19.1289,486.6307 -16.1289,484.6307" stroke="#090" stroke-width="1" /><polyline fill="none" opacity="100" points="-21.395,483.3345 -18.395,481.3345" stroke="#090" stroke-width="1" /><polyline fill="none" opacity="100" points="-23.6612,480.0383 -20.6612,478.0383" stroke="#090" stroke-width="1" /><polyline fill="none" opacity="100" points="-25.9273,476.7422 -22.9273,474.7422" stroke="#090" stroke-width="1" /><polyline fill="none" opacity="100" points="-28.1934,473.446 -25.1934,471.446" stroke="#090" stroke-width="1" /><polyline fill="none" opacity="100" points="-30.4595,470.1498 -27.4595,468.1498" stroke="#090" stroke-width="1" /><polyline fill="none" opacity="100" points="-32.7256,466.8537 -29.7256,464.8537" stroke="#090" stroke-width="1" /><polyline fill="none" opacity="100" points="-40.0,453.0 -36.0,453.0" stroke="#F00" stroke-width="1" /><polyline fill="none" opacity="100" points="-39.852,449.0027 -35.852,449.0027" stroke="#F00" stroke-width="1" /><polyline fill="none" opacity="100" points="-39.7039,445.0055 -35.7039,445.0055" stroke="#F00" stroke-width="1" /><polyline fill="none" opacity="100" points="-39.5559,441.0082 -35.5559,441.0082" stroke="#F00" stroke-width="1" /><polyline fill="none" opacity="100" points="-39.4078,437.011 -35.4078,437.011" stroke="#F00" stroke-width="1" /><polyline fill="none" opacity="100" points="-39.2598,433.0137 -35.2598,433.0137" stroke="#F00" stroke-width="1" /><polyline fill="none" opacity="100" points="-39.1117,429.0164 -35.1117,429.0164" stroke="#F00" stroke-width="1" /><text fill="#00AFAF" font-family="Arial" font-size="15" font-weight="normal" opacity="100" transform="rotate(-0.0 -219.0,471.0) translate(0 15)" x="-219.0" y="471.0">проспект Ленина</text><text fill="#00AFAF" font-family="Arial" font-size="15" font-weight="normal" opacity="100" transform="rotate(-0.0 706.0,461.0) translate(0 15)" x="706.0" y="461.0">проспект Ленина</text></g></g></svg>