<?xml version="1.0" encoding="utf-8" ?>
<svg baseProfile="tiny" height="560px" version="1.2" width="1070px" xmlns="http://www.w3.org/2000/svg" xmlns:ev="http://www.w3.org/2001/xml-events" xmlns:xlink="http://www.w3.org/1999/xlink"><defs /><g><g transform="rotate(-20.0,535.0,280.0)"><polygon fill="#CF0000" opacity="100" points="275.0,219.0 725.0,219.0 725.0,249.0 275.0,249.0" stroke="#000" stroke-width="1" /><polygon fill="#CF0000" opacity="100" points="275.0,329.0 725.0,329.0 725.0,359.0 275.0,359.0" stroke="#000" stroke-width="1" /><text fill="#CF0000" font-family="Arial" font-size="20" font-weight="normal" opacity="100" transform="rotate(-0.0 275.0,196.0) translate(0 20)" x="275.0" y="196.0">&lt;&lt; Московская</text><text fill="#CF0000" font-family="Arial" font-size="20" font-weight="normal" opacity="100" transform="rotate(-0.0 651.0,359.0) translate(0 20)" x="651.0" y="359.0">тупик &gt;&gt;</text><text fill="#CF0000" font-family="Arial" font-size="25" font-weight="bold" opacity="100" transform="rotate(-0.0 414.0,270.0) translate(0 25)" x="414.0" y="270.0">Горьковская</text><ellipse cx="184.5" cy="132.5" fill="#FEFBF1" opacity="100" rx="23.5" ry="23.5" stroke="#DDD" stroke-width="1" /><polygon fill="#D0D0D0" opacity="100" points="206.0,142.0 180.0,116.0 187.0,109.0 194.0,111.0 201.0,116.0 206.0,123.0 208.0,133.0" stroke="#D0D0D0" stroke-width="1" /><polygon fill="#D0D0D0" opacity="100" points="194.0,154.0 168.0,128.0 161.0,135.0 163.0,142.0 168.0,149.0 175.0,154.0 185.0,156.0" stroke="#D0D0D0" stroke-width="1" /><polyline fill="none" opacity="100" points="187.0,109.0 187.875,109.0859 188.75,109.2188 189.6255,109.3987 190.5,109.625 191.3706,109.8962 192.2422,110.2148 193.1162,110.5815 194.0,111.0 194.9072,111.4771 195.8203,112.0039 196.7278,112.5745 197.625,113.1875 198.5046,113.8416 199.3633,114.5312 200.1978,115.2539 201.0,116.0 201.7593,116.7539 202.4805,117.5312 203.1653,118.3425 203.8125,119.1875 204.4226,120.0657 204.9922,120.9883 205.5186,121.9595 206.0,123.0 206.4346,124.146 206.8203,125.3555 207.155,126.6013 207.4375,127.875 207.6672,129.1624 207.8398,130.4531 207.9526,131.7402 208.0,133.0 207.9731,134.1973 207.8789,135.3594 207.7209,136.501 207.5,137.625 207.2185,138.7412 206.875,139.8438 206.4688,140.9297 206.0,142.0" stroke="#000" stroke-width="1" /><polyline fill="none" opacity="100" points="161.0,135.0 161.0859,135.875 161.2188,136.75 161.3987,137.6255 161.625,138.5 161.8962,139.3706 162.2148,140.2422 162.5815,141.1162 163.0,142.0 163.4771,142.9072 164.0039,143.8203 164.5745,144.7278 165.1875,145.625 165.8416,146.5046 166.5312,147.3633 167.2539,148.1978 168.0,149.0 168.7539,149.7593 169.5312,150.4805 170.3425,151.1653 171.1875,151.8125 172.0657,152.4226 172.9883,152.9922 173.9595,153.5186 175.0,154.0 176.146,154.4346 177.3555,154.8203 178.6013,155.155 179.875,155.4375 181.1624,155.6672 182.4531,155.8398 183.7402,155.9526 185.0,156.0 186.1973,155.9731 187.3594,155.8789 188.501,155.7209 189.625,155.5 190.7412,155.2185 191.8438,154.875 192.9297,154.4688 194.0,154.0" stroke="#000" stroke-width="1" /><polyline fill="none" opacity="100" points="275.0,249.0 275.0,261.0 273.0,261.0" stroke="#000" stroke-width="1" /><polyline fill="none" opacity="100" points="273.0,319.0 275.0,319.0 275.0,329.0" stroke="#000" stroke-width="1" /><polyline fill="none" opacity="100" points="267.0,314.0 267.0,266.0" stroke="#7F7F7F" stroke-width="1" /><polyline fill="none" opacity="100" points="263.0,314.0 263.0,266.0" stroke="#7F7F7F" stroke-width="1" /><polyline fill="none" opacity="100" points="259.0,314.0 259.0,266.0" stroke="#7F7F7F" stroke-width="1" /><polyline fill="none" opacity="100" points="255.0,314.0 255.0,266.0" stroke="#7F7F7F" stroke-width="1" /><polyline fill="none" opacity="100" points="251.0,314.0 251.0,266.0" stroke="#7F7F7F" stroke-width="1" /><polyline fill="none" opacity="100" points="247.0,314.0 247.0,266.0" stroke="#7F7F7F" stroke-width="1" /><polyline fill="none" opacity="100" points="243.0,314.0 243.0,266.0" stroke="#7F7F7F" stroke-width="1" /><polyline fill="none" opacity="100" points="239.0,314.0 239.0,266.0" stroke="#7F7F7F" stroke-width="1" /><polyline fill="none" opacity="100" points="235.0,314.0 235.0,266.0" stroke="#7F7F7F" stroke-width="1" /><polyline fill="none" opacity="100" points="231.0,314.0 231.0,266.0" stroke="#7F7F7F" stroke-width="1" /><polyline fill="none" opacity="100" points="227.0,314.0 227.0,266.0" stroke="#7F7F7F" stroke-width="1" /><polyline fill="none" opacity="100" points="223.0,314.0 223.0,266.0" stroke="#7F7F7F" stroke-width="1" /><polyline fill="none" opacity="100" points="219.0,314.0 219.0,266.0" stroke="#7F7F7F" stroke-width="1" /><polyline fill="none" opacity="100" points="215.0,314.0 215.0,266.0" stroke="#7F7F7F" stroke-width="1" /><polygon fill="#9B5509" opacity="100" points="273.0,266.0 207.0,266.0 207.0,261.0 273.0,261.0" stroke="#000" stroke-width="1" /><polygon fill="#9B5509" opacity="100" points="273.0,277.0 273.0,285.0 207.0,285.0 207.0,277.0" stroke="#000" stroke-width="1" /><polygon fill="#9B5509" opacity="100" points="273.0,295.0 273.0,303.0 207.0,303.0 207.0,295.0" stroke="#000" stroke-width="1" /><polygon fill="#9B5509" opacity="100" points="273.0,314.0 207.0,314.0 207.0,319.0 273.0,319.0" stroke="#000" stroke-width="1" /><polygon fill="#FFF" opacity="0.85" points="247.0,259.0 265.0,259.0 265.0,282.0 276.0,282.0 276.0,298.0 265.0,298.0 265.0,321.0 247.0,321.0" stroke="#FFF" stroke-width="1" /><polygon fill="#D0D0D0" opacity="0.85" points="207.0,319.0 207.0,324.0 247.0,324.0 247.0,256.0 207.0,256.0 207.0,261.0 241.0,261.0 241.0,319.0" stroke="#000" stroke-width="1" /><polyline fill="none" opacity="1.0" points="161.0,135.0 168.0,128.0 213.0,173.0 247.0,197.0 247.0,238.0 141.0,238.0 141.0,342.0 247.0,342.0 247.0,462.0 327.0,462.0 327.0,418.0" stroke="#000" stroke-width="1" /><polyline fill="none" opacity="1.0" points="187.0,109.0 180.0,116.0 226.0,162.0 265.0,190.0 265.0,282.0 286.0,282.0" stroke="#000" stroke-width="1" /><polyline fill="none" opacity="1.0" points="286.0,298.0 265.0,298.0 265.0,444.0 309.0,444.0 309.0,418.0" stroke="#000" stroke-width="1" /><polyline fill="none" opacity="1.0" points="309.0,420.0 327.0,420.0" stroke="#000" stroke-width="1" /><polyline fill="none" opacity="1.0" points="309.0,424.0 327.0,424.0" stroke="#000" stroke-width="1" /><polyline fill="none" opacity="1.0" points="309.0,428.0 327.0,428.0" stroke="#000" stroke-width="1" /><polyline fill="none" opacity="1.0" points="309.0,432.0 327.0,432.0" stroke="#000" stroke-width="1" /><polyline fill="none" opacity="1.0" points="309.0,436.0 327.0,436.0" stroke="#000" stroke-width="1" /><polyline fill="none" opacity="1.0" points="309.0,440.0 327.0,440.0" stroke="#000" stroke-width="1" /><polyline fill="none" opacity="1.0" points="265.0,420.0 247.0,420.0" stroke="#000" stroke-width="1" /><polyline fill="none" opacity="1.0" points="265.0,424.0 247.0,424.0" stroke="#000" stroke-width="1" /><polyline fill="none" opacity="1.0" points="265.0,428.0 247.0,428.0" stroke="#000" stroke-width="1" /><polyline fill="none" opacity="1.0" points="265.0,432.0 247.0,432.0" stroke="#000" stroke-width="1" /><polyline fill="none" opacity="1.0" points="265.0,436.0 247.0,436.0" stroke="#000" stroke-width="1" /><polyline fill="none" opacity="1.0" points="265.0,440.0 247.0,440.0" stroke="#000" stroke-width="1" /><polyline fill="none" opacity="1.0" points="188.0,124.0 176.0,136.0" stroke="#000" stroke-width="1" /><polyline fill="none" opacity="1.0" points="190.8284,126.8284 178.8284,138.8284" stroke="#000" stroke-width="1" /><polyline fill="none" opacity="1.0" points="193.6569,129.6569 181.6569,141.6569" stroke="#000" stroke-width="1" /><polyline fill="none" opacity="1.0" points="196.4853,132.4853 184.4853,144.4853" stroke="#000" stroke-width="1" /><polyline fill="none" opacity="1.0" points="199.3137,135.3137 187.3137,147.3137" stroke="#000" stroke-width="1" /><polyline fill="none" opacity="1.0" points="202.1421,138.1421 190.1421,150.1421" stroke="#000" stroke-width="1" /><polyline fill="none" opacity="1.0" points="204.9706,140.9706 192.9706,152.9706" stroke="#000" stroke-width="1" /><polyline fill="none" opacity="1.0" points="207.799,143.799 195.799,155.799" stroke="#000" stroke-width="1" /><polyline fill="none" opacity="1.0" points="210.6274,146.6274 198.6274,158.6274" stroke="#000" stroke-width="1" /><polyline fill="none" opacity="1.0" points="213.4558,149.4558 201.4558,161.4558" stroke="#000" stroke-width="1" /><polyline fill="none" opacity="1.0" points="216.2843,152.2843 204.2843,164.2843" stroke="#000" stroke-width="1" /><polyline fill="none" opacity="1.0" points="219.1127,155.1127 207.1127,167.1127" stroke="#000" stroke-width="1" /><polyline fill="none" opacity="1.0" points="141.0,263.0 133.0,263.0 133.0,291.0 141.0,291.0" stroke="#000" stroke-width="1" /><text fill="#FFF" font-family="Arial" font-size="10" font-weight="normal" opacity="1.0" transform="rotate(90.0 144.0,265.0) translate(0 10)" x="144.0" y="265.0">кассы</text><polyline fill="none" opacity="1.0" points="207.0,256.0 166.0,256.0" stroke="#000" stroke-width="0.5" /><polygon fill="none" opacity="1.0" points="168.0,309.0 168.0,313.0 165.0,316.0 161.0,316.0 158.0,313.0 158.0,309.0 161.0,306.0 165.0,306.0" stroke="#000" stroke-width="1" /><polyline fill="none" opacity="1.0" points="164.0,301.0 169.0,301.0" stroke="#090" stroke-width="1" /><polyline fill="none" opacity="1.0" points="164.0,297.0 169.0,297.0" stroke="#090" stroke-width="1" /><polyline fill="none" opacity="1.0" points="164.0,293.0 169.0,293.0" stroke="#090" stroke-width="1" /><polyline fill="none" opacity="1.0" points="164.0,289.0 169.0,289.0" stroke="#090" stroke-width="1" /><polyline fill="none" opacity="1.0" points="164.0,285.0 169.0,285.0" stroke="#090" stroke-width="1" /><polyline fill="none" opacity="1.0" points="164.0,281.0 169.0,281.0" stroke="#090" stroke-width="1" /><polyline fill="none" opacity="1.0" points="164.0,277.0 169.0,277.0" stroke="#090" stroke-width="1" /><polyline fill="none" opacity="1.0" points="164.0,273.0 169.0,273.0" stroke="#090" stroke-width="1" /><polyline fill="none" opacity="1.0" points="164.0,269.0 169.0,269.0" stroke="#090" stroke-width="1" /><polyline fill="none" opacity="1.0" points="164.0,265.0 169.0,265.0" stroke="#090" stroke-width="1" /><polyline fill="none" opacity="1.0" points="164.0,261.0 169.0,261.0" stroke="#090" stroke-width="1" /><polyline fill="none" opacity="1.0" points="164.0,257.0 169.0,257.0" stroke="#090" stroke-width="1" /><polyline fill="none" opacity="1.0" points="202.0,319.0 202.0,314.0" stroke="#F00" stroke-width="1" /><polyline fill="none" opacity="1.0" points="198.0,319.0 198.0,314.0" stroke="#F00" stroke-width="1" /><polyline fill="none" opacity="1.0" points="194.0,319.0 194.0,314.0" stroke="#F00" stroke-width="1" /><polyline fill="none" opacity="1.0" points="190.0,319.0 190.0,314.0" stroke="#F00" stroke-width="1" /><polyline fill="none" opacity="1.0" points="186.0,319.0 186.0,314.0" stroke="#F00" stroke-width="1" /><polyline fill="none" opacity="1.0" points="182.0,319.0 182.0,314.0" stroke="#F00" stroke-width="1" /><polyline fill="none" opacity="1.0" points="178.0,319.0 178.0,314.0" stroke="#F00" stroke-width="1" /><polyline fill="none" opacity="1.0" points="174.0,319.0 174.0,314.0" stroke="#F00" stroke-width="1" /><polyline fill="none" opacity="1.0" points="170.0,319.0 170.0,314.0" stroke="#F00" stroke-width="1" /><polygon fill="#D0EFFF" opacity="1.0" points="286.0,282.0 302.0,282.0 302.0,298.0 286.0,298.0" stroke="#000" stroke-width="1" /><text fill="#000" font-family="Arial" font-size="6" font-weight="normal" opacity="1.0" transform="rotate(90.0 298.0,283.0) translate(0 6)" x="298.0" y="283.0">лифт</text><polyline fill="none" opacity="1.0" points="223.0,333.0 244.0,333.0" stroke="#F00" stroke-width="1" /><polygon fill="#F00" opacity="1.0" points="237.9147,334.6306 244.0,333.0 237.9147,331.3694" stroke="#F00" stroke-width="1" /><polyline fill="none" opacity="1.0" points="244.0,247.0 223.0,247.0" stroke="#090" stroke-width="1" /><polygon fill="#090" opacity="1.0" points="229.0853,245.3694 223.0,247.0 229.0853,248.6306" stroke="#090" stroke-width="1" /><polyline fill="none" opacity="1.0" points="725.0,249.0 725.0,260.0 795.0,260.0 795.0,223.0 882.0,223.0 882.0,244.0 945.0,244.0 945.0,165.0 995.0,165.0" stroke="#000" stroke-width="1" /><polyline fill="none" opacity="1.0" points="995.0,183.0 969.0,183.0 969.0,365.0 1025.0,365.0 1025.0,339.0" stroke="#000" stroke-width="1" /><polyline fill="none" opacity="1.0" points="725.0,329.0 725.0,320.0 795.0,320.0 795.0,357.0 882.0,357.0 882.0,336.0 945.0,336.0 945.0,383.0 1043.0,383.0 1043.0,339.0" stroke="#000" stroke-width="1" /><polyline fill="none" opacity="1.0" points="732.0,260.0 732.0,320.0" stroke="#000" stroke-width="1" /><polyline fill="none" opacity="1.0" points="736.0,260.0 736.0,320.0" stroke="#000" stroke-width="1" /><polyline fill="none" opacity="1.0" points="740.0,260.0 740.0,320.0" stroke="#000" stroke-width="1" /><polyline fill="none" opacity="1.0" points="744.0,260.0 744.0,320.0" stroke="#000" stroke-width="1" /><polyline fill="none" opacity="1.0" points="748.0,260.0 748.0,320.0" stroke="#000" stroke-width="1" /><polyline fill="none" opacity="1.0" points="752.0,260.0 752.0,320.0" stroke="#000" stroke-width="1" /><polyline fill="none" opacity="1.0" points="768.0,260.0 768.0,320.0" stroke="#000" stroke-width="1" /><polyline fill="none" opacity="1.0" points="772.0,260.0 772.0,320.0" stroke="#000" stroke-width="1" /><polyline fill="none" opacity="1.0" points="776.0,260.0 776.0,320.0" stroke="#000" stroke-width="1" /><polyline fill="none" opacity="1.0" points="780.0,260.0 780.0,320.0" stroke="#000" stroke-width="1" /><polyline fill="none" opacity="1.0" points="784.0,260.0 784.0,320.0" stroke="#000" stroke-width="1" /><polyline fill="none" opacity="1.0" points="788.0,260.0 788.0,320.0" stroke="#000" stroke-width="1" /><polyline fill="none" opacity="1.0" points="993.0,183.0 993.0,170.0" stroke="#000" stroke-width="1" /><polyline fill="none" opacity="1.0" points="989.0,183.0 989.0,170.0" stroke="#000" stroke-width="1" /><polyline fill="none" opacity="1.0" points="985.0,183.0 985.0,170.0" stroke="#000" stroke-width="1" /><polyline fill="none" opacity="1.0" points="981.0,183.0 981.0,170.0" stroke="#000" stroke-width="1" /><polyline fill="none" opacity="1.0" points="977.0,183.0 977.0,170.0" stroke="#000" stroke-width="1" /><polyline fill="none" opacity="1.0" points="973.0,183.0 973.0,170.0" stroke="#000" stroke-width="1" /><polyline fill="none" opacity="1.0" points="995.0,170.0 971.0,170.0" stroke="#000" stroke-width="1" /><polyline fill="none" opacity="1.0" points="969.0,207.0 950.0,207.0" stroke="#000" stroke-width="1" /><polyline fill="none" opacity="1.0" points="969.0,203.0 950.0,203.0" stroke="#000" stroke-width="1" /><polyline fill="none" opacity="1.0" points="969.0,199.0 950.0,199.0" stroke="#000" stroke-width="1" /><polyline fill="none" opacity="1.0" points="969.0,195.0 950.0,195.0" stroke="#000" stroke-width="1" /><polyline fill="none" opacity="1.0" points="969.0,191.0 950.0,191.0" stroke="#000" stroke-width="1" /><polyline fill="none" opacity="1.0" points="969.0,187.0 950.0,187.0" stroke="#000" stroke-width="1" /><polyline fill="none" opacity="1.0" points="950.0,209.0 950.0,185.0" stroke="#000" stroke-width="1" /><polyline fill="none" opacity="1.0" points="1023.0,365.0 1023.0,378.0" stroke="#000" stroke-width="1" /><polyline fill="none" opacity="1.0" points="1019.0,365.0 1019.0,378.0" stroke="#000" stroke-width="1" /><polyline fill="none" opacity="1.0" points="1015.0,365.0 1015.0,378.0" stroke="#000" stroke-width="1" /><polyline fill="none" opacity="1.0" points="1011.0,365.0 1011.0,378.0" stroke="#000" stroke-width="1" /><polyline fill="none" opacity="1.0" points="1007.0,365.0 1007.0,378.0" stroke="#000" stroke-width="1" /><polyline fill="none" opacity="1.0" points="1003.0,365.0 1003.0,378.0" stroke="#000" stroke-width="1" /><polyline fill="none" opacity="1.0" points="1025.0,378.0 1001.0,378.0" stroke="#000" stroke-width="1" /><polyline fill="none" opacity="1.0" points="1025.0,341.0 1038.0,341.0" stroke="#000" stroke-width="1" /><polyline fill="none" opacity="1.0" points="1025.0,345.0 1038.0,345.0" stroke="#000" stroke-width="1" /><polyline fill="none" opacity="1.0" points="1025.0,349.0 1038.0,349.0" stroke="#000" stroke-width="1" /><polyline fill="none" opacity="1.0" points="1025.0,353.0 1038.0,353.0" stroke="#000" stroke-width="1" /><polyline fill="none" opacity="1.0" points="1025.0,357.0 1038.0,357.0" stroke="#000" stroke-width="1" /><polyline fill="none" opacity="1.0" points="1025.0,361.0 1038.0,361.0" stroke="#000" stroke-width="1" /><polyline fill="none" opacity="1.0" points="1038.0,339.0 1038.0,363.0" stroke="#000" stroke-width="1" /><polygon fill="#D0D0D0" opacity="1.0" points="882.0,262.0 882.0,318.0 945.0,318.0 945.0,262.0" stroke="#000" stroke-width="1" /><polyline fill="none" opacity="1.0" points="795.0,255.0 787.0,255.0 787.0,228.0 795.0,228.0" stroke="#000" stroke-width="1" /><text fill="#FFF" font-family="Arial" font-size="10" font-weight="normal" opacity="1.0" transform="rotate(90.0 798.0,229.0) translate(0 10)" x="798.0" y="229.0">кассы</text><polyline fill="none" opacity="1.0" points="861.0,309.0 861.0,318.0 882.0,318.0" stroke="#000" stroke-width="0.5" /><polyline fill="none" opacity="1.0" points="795.0,260.0 827.0,260.0" stroke="#000" stroke-width="0.5" /><polygon fill="none" opacity="1.0" points="855.0,305.0 859.0,302.0 862.0,306.0 858.0,309.0" stroke="#000" stroke-width="1" /><polyline fill="none" opacity="1.0" points="829.0,260.0 826.0,262.0" stroke="#090" stroke-width="1" /><polyline fill="none" opacity="1.0" points="831.2558,263.3032 828.2558,265.3032" stroke="#090" stroke-width="1" /><polyline fill="none" opacity="1.0" points="833.5117,266.6064 830.5117,268.6064" stroke="#090" stroke-width="1" /><polyline fill="none" opacity="1.0" points="835.7675,269.9096 832.7675,271.9096" stroke="#090" stroke-width="1" /><polyline fill="none" opacity="1.0" points="838.0234,273.2128 835.0234,275.2128" stroke="#090" stroke-width="1" /><polyline fill="none" opacity="1.0" points="840.2792,276.516 837.2792,278.516" stroke="#090" stroke-width="1" /><polyline fill="none" opacity="1.0" points="842.5351,279.8192 839.5351,281.8192" stroke="#090" stroke-width="1" /><polyline fill="none" opacity="1.0" points="844.7909,283.1224 841.7909,285.1224" stroke="#090" stroke-width="1" /><polyline fill="none" opacity="1.0" points="847.0468,286.4256 844.0468,288.4256" stroke="#090" stroke-width="1" /><polyline fill="none" opacity="1.0" points="849.3026,289.7288 846.3026,291.7288" stroke="#090" stroke-width="1" /><polyline fill="none" opacity="1.0" points="851.5585,293.032 848.5585,295.032" stroke="#090" stroke-width="1" /><polyline fill="none" opacity="1.0" points="853.8143,296.3352 850.8143,298.3352" stroke="#090" stroke-width="1" /><polyline fill="none" opacity="1.0" points="856.0702,299.6384 853.0702,301.6384" stroke="#090" stroke-width="1" /><polyline fill="none" opacity="1.0" points="864.0,321.0 860.0,321.0" stroke="#F00" stroke-width="1" /><polyline fill="none" opacity="1.0" points="863.8858,324.9984 859.8858,324.9984" stroke="#F00" stroke-width="1" /><polyline fill="none" opacity="1.0" points="863.7715,328.9967 859.7715,328.9967" stroke="#F00" stroke-width="1" /><polyline fill="none" opacity="1.0" points="863.6573,332.9951 859.6573,332.9951" stroke="#F00" stroke-width="1" /><polyline fill="none" opacity="1.0" points="863.543,336.9935 859.543,336.9935" stroke="#F00" stroke-width="1" /><polyline fill="none" opacity="1.0" points="863.4288,340.9918 859.4288,340.9918" stroke="#F00" stroke-width="1" /><polyline fill="none" opacity="1.0" points="863.3146,344.9902 859.3146,344.9902" stroke="#F00" stroke-width="1" /><polyline fill="none" opacity="1.0" points="863.2003,348.9886 859.2003,348.9886" stroke="#F00" stroke-width="1" /><polyline fill="none" opacity="1.0" points="863.0861,352.9869 859.0861,352.9869" stroke="#F00" stroke-width="1" /><polyline fill="none" opacity="1.0" points="921.0,327.0 942.0,327.0" stroke="#F00" stroke-width="1" /><polygon fill="#F00" opacity="1.0" points="935.9147,328.6306 942.0,327.0 935.9147,325.3694" stroke="#F00" stroke-width="1" /><polyline fill="none" opacity="1.0" points="942.0,253.0 921.0,253.0" stroke="#090" stroke-width="1" /><polygon fill="#090" opacity="1.0" points="927.0853,251.3694 921.0,253.0 927.0853,254.6306" stroke="#090" stroke-width="1" /><text fill="#00AFAF" font-family="Arial" font-size="15" font-weight="normal" opacity="1.0" transform="rotate(-0.0 14.0,271.0) translate(0 15)" x="14.0" y="271.0">улица</text><text fill="#00AFAF" font-family="Arial" font-size="15" font-weight="normal" opacity="1.0" transform="rotate(-0.0 -28.0,286.0) translate(0 15)" x="-28.0" y="286.0">Максима Горького</text><text fill="#00AFAF" font-family="Arial" font-size="15" font-weight="normal" opacity="1.0" transform="rotate(-0.0 1008.0,269.0) translate(0 15)" x="1008.0" y="269.0">улица</text><text fill="#00AFAF" font-family="Arial" font-size="15" font-weight="normal" opacity="1.0" transform="rotate(-0.0 982.0,286.0) translate(0 15)" x="982.0" y="286.0">Максима Горького</text><text fill="#00AFAF" font-family="Arial" font-size="15" font-weight="normal" opacity="1.0" transform="rotate(-45.0 43.0,165.0) translate(0 15)" x="43.0" y="165.0">площадь Максима Горького</text><text fill="#00AFAF" font-family="Arial" font-size="15" font-weight="normal" opacity="1.0" transform="rotate(90.0 1008.0,404.0) translate(0 15)" x="1008.0" y="404.0">улица Короленко</text></g></g></svg>