<?xml version="1.0" encoding="utf-8" ?>
<svg baseProfile="tiny" height="870px" version="1.2" width="850px" xmlns="http://www.w3.org/2000/svg" xmlns:ev="http://www.w3.org/2001/xml-events" xmlns:xlink="http://www.w3.org/1999/xlink"><defs /><g><g transform="rotate(-38.0,425.0,435.0)"><polygon fill="#CF0000" opacity="100" points="234.0,278.0 684.0,278.0 684.0,308.0 234.0,308.0" stroke="#000" stroke-width="1" /><polygon fill="#CF0000" opacity="100" points="234.0,388.0 684.0,388.0 684.0,418.0 234.0,418.0" stroke="#000" stroke-width="1" /><text fill="#CF0000" font-family="Arial" font-size="20" font-weight="normal" opacity="100" transform="rotate(-0.0 234.0,253.0) translate(0 20)" x="234.0" y="253.0">&lt;&lt; Кировская</text><text fill="#CF0000" font-family="Arial" font-size="20" font-weight="normal" opacity="100" transform="rotate(-0.0 532.0,418.0) translate(0 20)" x="532.0" y="418.0">Автозаводская &gt;&gt;</text><text fill="#CF0000" font-family="Arial" font-size="25" font-weight="bold" opacity="100" transform="rotate(-0.0 369.0,330.0) translate(0 25)" x="369.0" y="330.0">Комсомольская</text><polyline fill="none" opacity="100" points="234.0,308.0 234.0,319.0 108.0,319.0 108.0,298.0 46.0,298.0 46.0,303.0 32.0,303.0 32.0,298.0 8.0,298.0 8.0,456.0 -57.0,456.0" stroke="#000" stroke-width="1" /><polyline fill="none" opacity="100" points="97.0,474.0 32.0,474.0 32.0,571.0 97.0,571.0" stroke="#000" stroke-width="1" /><polyline fill="none" opacity="100" points="-57.0,474.0 8.0,474.0 8.0,571.0 -56.0,571.0" stroke="#000" stroke-width="1" /><polyline fill="none" opacity="100" points="-56.0,589.0 97.0,589.0" stroke="#000" stroke-width="1" /><polyline fill="none" opacity="100" points="97.0,456.0 32.0,456.0 32.0,395.0 46.0,395.0 46.0,400.0 108.0,400.0 108.0,379.0 234.0,379.0 234.0,388.0" stroke="#000" stroke-width="1" /><polyline fill="none" opacity="100" points="135.0,319.0 135.0,379.0" stroke="#000" stroke-width="1" /><polyline fill="none" opacity="100" points="131.0,319.0 131.0,379.0" stroke="#000" stroke-width="1" /><polyline fill="none" opacity="100" points="127.0,319.0 127.0,379.0" stroke="#000" stroke-width="1" /><polyline fill="none" opacity="100" points="123.0,319.0 123.0,379.0" stroke="#000" stroke-width="1" /><polyline fill="none" opacity="100" points="119.0,319.0 119.0,379.0" stroke="#000" stroke-width="1" /><polyline fill="none" opacity="100" points="115.0,319.0 115.0,379.0" stroke="#000" stroke-width="1" /><polyline fill="none" opacity="100" points="171.0,319.0 171.0,379.0" stroke="#000" stroke-width="1" /><polyline fill="none" opacity="100" points="167.0,319.0 167.0,379.0" stroke="#000" stroke-width="1" /><polyline fill="none" opacity="100" points="163.0,319.0 163.0,379.0" stroke="#000" stroke-width="1" /><polyline fill="none" opacity="100" points="159.0,319.0 159.0,379.0" stroke="#000" stroke-width="1" /><polyline fill="none" opacity="100" points="155.0,319.0 155.0,379.0" stroke="#000" stroke-width="1" /><polyline fill="none" opacity="100" points="151.0,319.0 151.0,379.0" stroke="#000" stroke-width="1" /><polyline fill="none" opacity="100" points="3.0,474.0 3.0,456.0" stroke="#000" stroke-width="1" /><polyline fill="none" opacity="100" points="-1.0,474.0 -1.0,456.0" stroke="#000" stroke-width="1" /><polyline fill="none" opacity="100" points="-5.0,474.0 -5.0,456.0" stroke="#000" stroke-width="1" /><polyline fill="none" opacity="100" points="-9.0,474.0 -9.0,456.0" stroke="#000" stroke-width="1" /><polyline fill="none" opacity="100" points="-19.0,474.0 -19.0,456.0" stroke="#000" stroke-width="1" /><polyline fill="none" opacity="100" points="-23.0,474.0 -23.0,456.0" stroke="#000" stroke-width="1" /><polyline fill="none" opacity="100" points="-27.0,474.0 -27.0,456.0" stroke="#000" stroke-width="1" /><polyline fill="none" opacity="100" points="-31.0,474.0 -31.0,456.0" stroke="#000" stroke-width="1" /><polyline fill="none" opacity="100" points="-41.0,474.0 -41.0,456.0" stroke="#000" stroke-width="1" /><polyline fill="none" opacity="100" points="-45.0,474.0 -45.0,456.0" stroke="#000" stroke-width="1" /><polyline fill="none" opacity="100" points="-49.0,474.0 -49.0,456.0" stroke="#000" stroke-width="1" /><polyline fill="none" opacity="100" points="-53.0,474.0 -53.0,456.0" stroke="#000" stroke-width="1" /><polyline fill="none" opacity="100" points="37.0,474.0 37.0,456.0" stroke="#000" stroke-width="1" /><polyline fill="none" opacity="100" points="41.0,474.0 41.0,456.0" stroke="#000" stroke-width="1" /><polyline fill="none" opacity="100" points="45.0,474.0 45.0,456.0" stroke="#000" stroke-width="1" /><polyline fill="none" opacity="100" points="49.0,474.0 49.0,456.0" stroke="#000" stroke-width="1" /><polyline fill="none" opacity="100" points="59.0,474.0 59.0,456.0" stroke="#000" stroke-width="1" /><polyline fill="none" opacity="100" points="63.0,474.0 63.0,456.0" stroke="#000" stroke-width="1" /><polyline fill="none" opacity="100" points="67.0,474.0 67.0,456.0" stroke="#000" stroke-width="1" /><polyline fill="none" opacity="100" points="71.0,474.0 71.0,456.0" stroke="#000" stroke-width="1" /><polyline fill="none" opacity="100" points="81.0,474.0 81.0,456.0" stroke="#000" stroke-width="1" /><polyline fill="none" opacity="100" points="85.0,474.0 85.0,456.0" stroke="#000" stroke-width="1" /><polyline fill="none" opacity="100" points="89.0,474.0 89.0,456.0" stroke="#000" stroke-width="1" /><polyline fill="none" opacity="100" points="93.0,474.0 93.0,456.0" stroke="#000" stroke-width="1" /><polyline fill="none" opacity="100" points="37.0,571.0 37.0,589.0" stroke="#000" stroke-width="1" /><polyline fill="none" opacity="100" points="41.0,571.0 41.0,589.0" stroke="#000" stroke-width="1" /><polyline fill="none" opacity="100" points="45.0,571.0 45.0,589.0" stroke="#000" stroke-width="1" /><polyline fill="none" opacity="100" points="49.0,571.0 49.0,589.0" stroke="#000" stroke-width="1" /><polyline fill="none" opacity="100" points="59.0,571.0 59.0,589.0" stroke="#000" stroke-width="1" /><polyline fill="none" opacity="100" points="63.0,571.0 63.0,589.0" stroke="#000" stroke-width="1" /><polyline fill="none" opacity="100" points="67.0,571.0 67.0,589.0" stroke="#000" stroke-width="1" /><polyline fill="none" opacity="100" points="71.0,571.0 71.0,589.0" stroke="#000" stroke-width="1" /><polyline fill="none" opacity="100" points="81.0,571.0 81.0,589.0" stroke="#000" stroke-width="1" /><polyline fill="none" opacity="100" points="85.0,571.0 85.0,589.0" stroke="#000" stroke-width="1" /><polyline fill="none" opacity="100" points="89.0,571.0 89.0,589.0" stroke="#000" stroke-width="1" /><polyline fill="none" opacity="100" points="93.0,571.0 93.0,589.0" stroke="#000" stroke-width="1" /><polyline fill="none" opacity="100" points="3.0,571.0 3.0,589.0" stroke="#000" stroke-width="1" /><polyline fill="none" opacity="100" points="-1.0,571.0 -1.0,589.0" stroke="#000" stroke-width="1" /><polyline fill="none" opacity="100" points="-5.0,571.0 -5.0,589.0" stroke="#000" stroke-width="1" /><polyline fill="none" opacity="100" points="-9.0,571.0 -9.0,589.0" stroke="#000" stroke-width="1" /><polyline fill="none" opacity="100" points="-18.0,571.0 -18.0,589.0" stroke="#000" stroke-width="1" /><polyline fill="none" opacity="100" points="-22.0,571.0 -22.0,589.0" stroke="#000" stroke-width="1" /><polyline fill="none" opacity="100" points="-26.0,571.0 -26.0,589.0" stroke="#000" stroke-width="1" /><polyline fill="none" opacity="100" points="-30.0,571.0 -30.0,589.0" stroke="#000" stroke-width="1" /><polyline fill="none" opacity="100" points="-40.0,571.0 -40.0,589.0" stroke="#000" stroke-width="1" /><polyline fill="none" opacity="100" points="-44.0,571.0 -44.0,589.0" stroke="#000" stroke-width="1" /><polyline fill="none" opacity="100" points="-48.0,571.0 -48.0,589.0" stroke="#000" stroke-width="1" /><polyline fill="none" opacity="100" points="-52.0,571.0 -52.0,589.0" stroke="#000" stroke-width="1" /><polygon fill="#D0D0D0" opacity="100" points="32.0,370.0 46.0,370.0 46.0,327.0 32.0,327.0" stroke="#000" stroke-width="1" /><polyline fill="none" opacity="100" points="88.0,400.0 88.0,408.0 59.0,408.0 59.0,400.0" stroke="#000" stroke-width="1" /><text fill="#FFF" font-family="Arial" font-size="10" font-weight="normal" opacity="100" transform="rotate(-0.0 61.0,397.0) translate(0 10)" x="61.0" y="397.0">кассы</text><polygon fill="none" opacity="100" points="105.0,381.0 101.0,384.0 98.0,380.0 102.0,377.0" stroke="#000" stroke-width="1" /><polyline fill="none" opacity="100" points="96.0,376.0 99.0,374.0" stroke="#090" stroke-width="1" /><polyline fill="none" opacity="100" points="93.7339,372.7038 96.7339,370.7038" stroke="#090" stroke-width="1" /><polyline fill="none" opacity="100" points="91.4678,369.4077 94.4678,367.4077" stroke="#090" stroke-width="1" /><polyline fill="none" opacity="100" points="89.2017,366.1115 92.2017,364.1115" stroke="#090" stroke-width="1" /><polyline fill="none" opacity="100" points="86.9355,362.8153 89.9355,360.8153" stroke="#090" stroke-width="1" /><polyline fill="none" opacity="100" points="84.6694,359.5192 87.6694,357.5192" stroke="#090" stroke-width="1" /><polyline fill="none" opacity="100" points="82.4033,356.223 85.4033,354.223" stroke="#090" stroke-width="1" /><polyline fill="none" opacity="100" points="80.1372,352.9268 83.1372,350.9268" stroke="#090" stroke-width="1" /><polyline fill="none" opacity="100" points="77.8711,349.6307 80.8711,347.6307" stroke="#090" stroke-width="1" /><polyline fill="none" opacity="100" points="75.605,346.3345 78.605,344.3345" stroke="#090" stroke-width="1" /><polyline fill="none" opacity="100" points="73.3388,343.0383 76.3388,341.0383" stroke="#090" stroke-width="1" /><polyline fill="none" opacity="100" points="71.0727,339.7422 74.0727,337.7422" stroke="#090" stroke-width="1" /><polyline fill="none" opacity="100" points="68.8066,336.446 71.8066,334.446" stroke="#090" stroke-width="1" /><polyline fill="none" opacity="100" points="66.5405,333.1498 69.5405,331.1498" stroke="#090" stroke-width="1" /><polyline fill="none" opacity="100" points="64.2744,329.8537 67.2744,327.8537" stroke="#090" stroke-width="1" /><polyline fill="none" opacity="100" points="63.0,325.0 67.0,325.0" stroke="#F00" stroke-width="1" /><polyline fill="none" opacity="100" points="63.148,321.0027 67.148,321.0027" stroke="#F00" stroke-width="1" /><polyline fill="none" opacity="100" points="63.2961,317.0055 67.2961,317.0055" stroke="#F00" stroke-width="1" /><polyline fill="none" opacity="100" points="63.4441,313.0082 67.4441,313.0082" stroke="#F00" stroke-width="1" /><polyline fill="none" opacity="100" points="63.5922,309.011 67.5922,309.011" stroke="#F00" stroke-width="1" /><polyline fill="none" opacity="100" points="63.7402,305.0137 67.7402,305.0137" stroke="#F00" stroke-width="1" /><polyline fill="none" opacity="100" points="63.8883,301.0164 67.8883,301.0164" stroke="#F00" stroke-width="1" /><polyline fill="none" opacity="100" points="684.0,308.0 684.0,319.0 754.0,319.0 754.0,286.0 817.0,286.0 817.0,291.0 830.0,291.0 830.0,286.0 853.0,286.0 853.0,456.0 918.0,456.0" stroke="#000" stroke-width="1" /><polyline fill="none" opacity="100" points="684.0,388.0 684.0,379.0 754.0,379.0 754.0,410.0 817.0,410.0 817.0,405.0 829.0,405.0 829.0,456.0 764.0,456.0" stroke="#000" stroke-width="1" /><polyline fill="none" opacity="100" points="918.0,474.0 764.0,474.0" stroke="#000" stroke-width="1" /><polyline fill="none" opacity="100" points="691.0,319.0 691.0,379.0" stroke="#000" stroke-width="1" /><polyline fill="none" opacity="100" points="695.0,319.0 695.0,379.0" stroke="#000" stroke-width="1" /><polyline fill="none" opacity="100" points="699.0,319.0 699.0,379.0" stroke="#000" stroke-width="1" /><polyline fill="none" opacity="100" points="703.0,319.0 703.0,379.0" stroke="#000" stroke-width="1" /><polyline fill="none" opacity="100" points="707.0,319.0 707.0,379.0" stroke="#000" stroke-width="1" /><polyline fill="none" opacity="100" points="711.0,319.0 711.0,379.0" stroke="#000" stroke-width="1" /><polyline fill="none" opacity="100" points="727.0,319.0 727.0,379.0" stroke="#000" stroke-width="1" /><polyline fill="none" opacity="100" points="731.0,319.0 731.0,379.0" stroke="#000" stroke-width="1" /><polyline fill="none" opacity="100" points="735.0,319.0 735.0,379.0" stroke="#000" stroke-width="1" /><polyline fill="none" opacity="100" points="739.0,319.0 739.0,379.0" stroke="#000" stroke-width="1" /><polyline fill="none" opacity="100" points="743.0,319.0 743.0,379.0" stroke="#000" stroke-width="1" /><polyline fill="none" opacity="100" points="747.0,319.0 747.0,379.0" stroke="#000" stroke-width="1" /><polyline fill="none" opacity="100" points="824.0,474.0 824.0,456.0" stroke="#000" stroke-width="1" /><polyline fill="none" opacity="100" points="820.0,474.0 820.0,456.0" stroke="#000" stroke-width="1" /><polyline fill="none" opacity="100" points="816.0,474.0 816.0,456.0" stroke="#000" stroke-width="1" /><polyline fill="none" opacity="100" points="812.0,474.0 812.0,456.0" stroke="#000" stroke-width="1" /><polyline fill="none" opacity="100" points="802.0,474.0 802.0,456.0" stroke="#000" stroke-width="1" /><polyline fill="none" opacity="100" points="798.0,474.0 798.0,456.0" stroke="#000" stroke-width="1" /><polyline fill="none" opacity="100" points="794.0,474.0 794.0,456.0" stroke="#000" stroke-width="1" /><polyline fill="none" opacity="100" points="790.0,474.0 790.0,456.0" stroke="#000" stroke-width="1" /><polyline fill="none" opacity="100" points="780.0,474.0 780.0,456.0" stroke="#000" stroke-width="1" /><polyline fill="none" opacity="100" points="776.0,474.0 776.0,456.0" stroke="#000" stroke-width="1" /><polyline fill="none" opacity="100" points="772.0,474.0 772.0,456.0" stroke="#000" stroke-width="1" /><polyline fill="none" opacity="100" points="768.0,474.0 768.0,456.0" stroke="#000" stroke-width="1" /><polyline fill="none" opacity="100" points="858.0,474.0 858.0,456.0" stroke="#000" stroke-width="1" /><polyline fill="none" opacity="100" points="862.0,474.0 862.0,456.0" stroke="#000" stroke-width="1" /><polyline fill="none" opacity="100" points="866.0,474.0 866.0,456.0" stroke="#000" stroke-width="1" /><polyline fill="none" opacity="100" points="870.0,474.0 870.0,456.0" stroke="#000" stroke-width="1" /><polyline fill="none" opacity="100" points="880.0,474.0 880.0,456.0" stroke="#000" stroke-width="1" /><polyline fill="none" opacity="100" points="884.0,474.0 884.0,456.0" stroke="#000" stroke-width="1" /><polyline fill="none" opacity="100" points="888.0,474.0 888.0,456.0" stroke="#000" stroke-width="1" /><polyline fill="none" opacity="100" points="892.0,474.0 892.0,456.0" stroke="#000" stroke-width="1" /><polyline fill="none" opacity="100" points="902.0,474.0 902.0,456.0" stroke="#000" stroke-width="1" /><polyline fill="none" opacity="100" points="906.0,474.0 906.0,456.0" stroke="#000" stroke-width="1" /><polyline fill="none" opacity="100" points="910.0,474.0 910.0,456.0" stroke="#000" stroke-width="1" /><polyline fill="none" opacity="100" points="914.0,474.0 914.0,456.0" stroke="#000" stroke-width="1" /><polygon fill="#D0D0D0" opacity="100" points="817.0,327.0 817.0,370.0 829.0,370.0 829.0,327.0" stroke="#000" stroke-width="1" /><text fill="#00AFAF" font-family="Arial" font-size="15" font-weight="normal" opacity="100" transform="rotate(-0.0 120.0,514.0) translate(0 15)" x="120.0" y="514.0">проспект Ленина</text><polygon fill="#FFD0D0" opacity="0.7" points="687.0,283.0 921.0,283.0 921.0,476.0 687.0,476.0" stroke="#FFD0D0" stroke-width="1" /><text fill="#FF4040" font-family="Arial" font-size="15" font-weight="normal" opacity="1.0" transform="rotate(-0.0 802.0,372.0) translate(0 15)" x="802.0" y="372.0">закрыто</text><polyline fill="none" opacity="1.0" points="687.0,283.0 921.0,283.0 921.0,476.0 687.0,476.0 687.0,283.0" stroke="#FF4040" stroke-dasharray="5,5" stroke-width="1" /></g></g></svg>