<?xml version="1.0" encoding="utf-8" ?>
<svg baseProfile="tiny" height="1030px" version="1.2" width="670px" xmlns="http://www.w3.org/2000/svg" xmlns:ev="http://www.w3.org/2001/xml-events" xmlns:xlink="http://www.w3.org/1999/xlink"><defs /><g><g transform="rotate(-70.0,335.0,515.0)"><polygon fill="#CF0000" opacity="100" points="144.0,565.0 594.0,565.0 594.0,595.0 144.0,595.0" stroke="#000" stroke-width="1" /><polygon fill="#CF0000" opacity="100" points="594.0,455.0 594.0,485.0 144.0,485.0 144.0,455.0" stroke="#000" stroke-width="1" /><text fill="#CF0000" font-family="Arial" font-size="20" font-weight="normal" opacity="100" transform="rotate(-0.0 144.0,432.0) translate(0 20)" x="144.0" y="432.0">&lt;&lt; Заречная</text><text fill="#CF0000" font-family="Arial" font-size="20" font-weight="normal" opacity="100" transform="rotate(-0.0 466.0,595.0) translate(0 20)" x="466.0" y="595.0">Чкаловская &gt;&gt;</text><text fill="#CF0000" font-family="Arial" font-size="25" font-weight="bold" opacity="100" transform="rotate(-0.0 318.0,507.0) translate(0 25)" x="318.0" y="507.0">Ленинская</text><polyline fill="none" opacity="100" points="-13.0,667.0 -13.0,612.0 -67.0,498.0 -4.0,498.0 -4.0,576.0 12.0,576.0 12.0,572.0 26.0,572.0 26.0,576.0 92.0,576.0 92.0,555.0 144.0,555.0 144.0,565.0" stroke="#000" stroke-width="1" /><polyline fill="none" opacity="100" points="-98.0,380.0 -98.0,430.0 -78.0,474.0 12.0,474.0 12.0,478.0 26.0,478.0 26.0,474.0 92.0,474.0 92.0,496.0 144.0,496.0 144.0,485.0" stroke="#000" stroke-width="1" /><polyline fill="none" opacity="100" points="-31.0,667.0 -31.0,617.0 -116.0,435.0 -116.0,380.0" stroke="#000" stroke-width="1" /><polyline fill="none" opacity="100" points="140.0,496.0 140.0,555.0" stroke="#000" stroke-width="1" /><polyline fill="none" opacity="100" points="136.0,496.0 136.0,555.0" stroke="#000" stroke-width="1" /><polyline fill="none" opacity="100" points="132.0,496.0 132.0,555.0" stroke="#000" stroke-width="1" /><polyline fill="none" opacity="100" points="128.0,496.0 128.0,555.0" stroke="#000" stroke-width="1" /><polyline fill="none" opacity="100" points="124.0,496.0 124.0,555.0" stroke="#000" stroke-width="1" /><polyline fill="none" opacity="100" points="120.0,496.0 120.0,555.0" stroke="#000" stroke-width="1" /><polyline fill="none" opacity="100" points="116.0,496.0 116.0,555.0" stroke="#000" stroke-width="1" /><polyline fill="none" opacity="100" points="112.0,496.0 112.0,555.0" stroke="#000" stroke-width="1" /><polyline fill="none" opacity="100" points="108.0,496.0 108.0,555.0" stroke="#000" stroke-width="1" /><polyline fill="none" opacity="100" points="104.0,496.0 104.0,555.0" stroke="#000" stroke-width="1" /><polyline fill="none" opacity="100" points="100.0,496.0 100.0,555.0" stroke="#000" stroke-width="1" /><polyline fill="none" opacity="100" points="96.0,496.0 96.0,555.0" stroke="#000" stroke-width="1" /><polyline fill="none" opacity="100" points="-31.0,665.0 -13.0,665.0" stroke="#000" stroke-width="1" /><polyline fill="none" opacity="100" points="-31.0,661.0 -13.0,661.0" stroke="#000" stroke-width="1" /><polyline fill="none" opacity="100" points="-31.0,657.0 -13.0,657.0" stroke="#000" stroke-width="1" /><polyline fill="none" opacity="100" points="-31.0,653.0 -13.0,653.0" stroke="#000" stroke-width="1" /><polyline fill="none" opacity="100" points="-31.0,649.0 -13.0,649.0" stroke="#000" stroke-width="1" /><polyline fill="none" opacity="100" points="-31.0,645.0 -13.0,645.0" stroke="#000" stroke-width="1" /><polyline fill="none" opacity="100" points="-31.0,641.0 -13.0,641.0" stroke="#000" stroke-width="1" /><polyline fill="none" opacity="100" points="-31.0,637.0 -13.0,637.0" stroke="#000" stroke-width="1" /><polyline fill="none" opacity="100" points="-31.0,633.0 -13.0,633.0" stroke="#000" stroke-width="1" /><polyline fill="none" opacity="100" points="-31.0,629.0 -13.0,629.0" stroke="#000" stroke-width="1" /><polyline fill="none" opacity="100" points="-31.0,625.0 -13.0,625.0" stroke="#000" stroke-width="1" /><polyline fill="none" opacity="100" points="-31.0,621.0 -13.0,621.0" stroke="#000" stroke-width="1" /><polyline fill="none" opacity="100" points="-98.0,382.0 -116.0,382.0" stroke="#000" stroke-width="1" /><polyline fill="none" opacity="100" points="-98.0,386.0 -116.0,386.0" stroke="#000" stroke-width="1" /><polyline fill="none" opacity="100" points="-98.0,390.0 -116.0,390.0" stroke="#000" stroke-width="1" /><polyline fill="none" opacity="100" points="-98.0,394.0 -116.0,394.0" stroke="#000" stroke-width="1" /><polyline fill="none" opacity="100" points="-98.0,398.0 -116.0,398.0" stroke="#000" stroke-width="1" /><polyline fill="none" opacity="100" points="-98.0,402.0 -116.0,402.0" stroke="#000" stroke-width="1" /><polyline fill="none" opacity="100" points="-98.0,406.0 -116.0,406.0" stroke="#000" stroke-width="1" /><polyline fill="none" opacity="100" points="-98.0,410.0 -116.0,410.0" stroke="#000" stroke-width="1" /><polyline fill="none" opacity="100" points="-98.0,414.0 -116.0,414.0" stroke="#000" stroke-width="1" /><polyline fill="none" opacity="100" points="-98.0,418.0 -116.0,418.0" stroke="#000" stroke-width="1" /><polyline fill="none" opacity="100" points="-98.0,422.0 -116.0,422.0" stroke="#000" stroke-width="1" /><polyline fill="none" opacity="100" points="-98.0,426.0 -116.0,426.0" stroke="#000" stroke-width="1" /><polygon fill="#D0D0D0" opacity="100" points="12.0,550.0 26.0,550.0 26.0,500.0 12.0,500.0" stroke="#000" stroke-width="1" /><polygon fill="#FFF" opacity="100" points="26.0,511.0 18.0,511.0 18.0,539.0 26.0,539.0" stroke="#000" stroke-width="1" /><text fill="#FFF" font-family="Arial" font-size="10" font-weight="normal" opacity="100" transform="rotate(90.0 29.0,513.0) translate(0 10)" x="29.0" y="513.0">кассы</text><polygon fill="none" opacity="100" points="50.0,476.0 45.0,476.0 45.0,481.0 50.0,481.0" stroke="#000" stroke-width="1" /><polyline fill="none" opacity="100" points="45.0,485.0 49.0,485.0" stroke="#090" stroke-width="1" /><polyline fill="none" opacity="100" points="45.0,489.0 49.0,489.0" stroke="#090" stroke-width="1" /><polyline fill="none" opacity="100" points="45.0,493.0 49.0,493.0" stroke="#090" stroke-width="1" /><polyline fill="none" opacity="100" points="45.0,497.0 49.0,497.0" stroke="#090" stroke-width="1" /><polyline fill="none" opacity="100" points="45.0,501.0 49.0,501.0" stroke="#090" stroke-width="1" /><polyline fill="none" opacity="100" points="45.0,505.0 49.0,505.0" stroke="#090" stroke-width="1" /><polyline fill="none" opacity="100" points="45.0,509.0 49.0,509.0" stroke="#090" stroke-width="1" /><polyline fill="none" opacity="100" points="45.0,513.0 49.0,513.0" stroke="#090" stroke-width="1" /><polyline fill="none" opacity="100" points="45.0,517.0 49.0,517.0" stroke="#090" stroke-width="1" /><polyline fill="none" opacity="100" points="45.0,521.0 49.0,521.0" stroke="#090" stroke-width="1" /><polyline fill="none" opacity="100" points="45.0,525.0 49.0,525.0" stroke="#090" stroke-width="1" /><polyline fill="none" opacity="100" points="45.0,529.0 49.0,529.0" stroke="#F00" stroke-width="1" /><polyline fill="none" opacity="100" points="45.0,533.0 49.0,533.0" stroke="#F00" stroke-width="1" /><polyline fill="none" opacity="100" points="45.0,537.0 49.0,537.0" stroke="#F00" stroke-width="1" /><polyline fill="none" opacity="100" points="45.0,541.0 49.0,541.0" stroke="#F00" stroke-width="1" /><polyline fill="none" opacity="100" points="45.0,545.0 49.0,545.0" stroke="#F00" stroke-width="1" /><polyline fill="none" opacity="100" points="45.0,549.0 49.0,549.0" stroke="#F00" stroke-width="1" /><polyline fill="none" opacity="100" points="45.0,553.0 49.0,553.0" stroke="#F00" stroke-width="1" /><polyline fill="none" opacity="100" points="45.0,557.0 49.0,557.0" stroke="#F00" stroke-width="1" /><polyline fill="none" opacity="100" points="45.0,561.0 49.0,561.0" stroke="#F00" stroke-width="1" /><polyline fill="none" opacity="100" points="45.0,565.0 49.0,565.0" stroke="#F00" stroke-width="1" /><polyline fill="none" opacity="100" points="45.0,569.0 49.0,569.0" stroke="#F00" stroke-width="1" /><polyline fill="none" opacity="100" points="45.0,573.0 49.0,573.0" stroke="#F00" stroke-width="1" /><polyline fill="none" opacity="100" points="774.0,618.0 774.0,688.0 726.0,688.0 726.0,569.0 712.0,569.0 712.0,576.0 646.0,576.0 646.0,555.0 594.0,555.0 594.0,565.0" stroke="#000" stroke-width="1" /><polyline fill="none" opacity="100" points="756.0,618.0 756.0,668.0 744.0,668.0 744.0,618.0 750.0,618.0 750.0,364.0 705.0,364.0 705.0,431.0" stroke="#000" stroke-width="1" /><polyline fill="none" opacity="100" points="723.0,431.0 723.0,381.0 732.0,381.0 732.0,431.0 726.0,431.0 726.0,481.0 712.0,481.0 712.0,474.0 646.0,474.0 646.0,496.0 594.0,496.0 594.0,485.0" stroke="#000" stroke-width="1" /><polyline fill="none" opacity="100" points="598.0,496.0 598.0,555.0" stroke="#000" stroke-width="1" /><polyline fill="none" opacity="100" points="602.0,496.0 602.0,555.0" stroke="#000" stroke-width="1" /><polyline fill="none" opacity="100" points="606.0,496.0 606.0,555.0" stroke="#000" stroke-width="1" /><polyline fill="none" opacity="100" points="610.0,496.0 610.0,555.0" stroke="#000" stroke-width="1" /><polyline fill="none" opacity="100" points="614.0,496.0 614.0,555.0" stroke="#000" stroke-width="1" /><polyline fill="none" opacity="100" points="618.0,496.0 618.0,555.0" stroke="#000" stroke-width="1" /><polyline fill="none" opacity="100" points="622.0,496.0 622.0,555.0" stroke="#000" stroke-width="1" /><polyline fill="none" opacity="100" points="626.0,496.0 626.0,555.0" stroke="#000" stroke-width="1" /><polyline fill="none" opacity="100" points="630.0,496.0 630.0,555.0" stroke="#000" stroke-width="1" /><polyline fill="none" opacity="100" points="634.0,496.0 634.0,555.0" stroke="#000" stroke-width="1" /><polyline fill="none" opacity="100" points="638.0,496.0 638.0,555.0" stroke="#000" stroke-width="1" /><polyline fill="none" opacity="100" points="642.0,496.0 642.0,555.0" stroke="#000" stroke-width="1" /><polyline fill="none" opacity="100" points="756.0,620.0 774.0,620.0" stroke="#000" stroke-width="1" /><polyline fill="none" opacity="100" points="756.0,624.0 774.0,624.0" stroke="#000" stroke-width="1" /><polyline fill="none" opacity="100" points="756.0,628.0 774.0,628.0" stroke="#000" stroke-width="1" /><polyline fill="none" opacity="100" points="756.0,632.0 774.0,632.0" stroke="#000" stroke-width="1" /><polyline fill="none" opacity="100" points="756.0,636.0 774.0,636.0" stroke="#000" stroke-width="1" /><polyline fill="none" opacity="100" points="756.0,640.0 774.0,640.0" stroke="#000" stroke-width="1" /><polyline fill="none" opacity="100" points="756.0,644.0 774.0,644.0" stroke="#000" stroke-width="1" /><polyline fill="none" opacity="100" points="756.0,648.0 774.0,648.0" stroke="#000" stroke-width="1" /><polyline fill="none" opacity="100" points="756.0,652.0 774.0,652.0" stroke="#000" stroke-width="1" /><polyline fill="none" opacity="100" points="756.0,656.0 774.0,656.0" stroke="#000" stroke-width="1" /><polyline fill="none" opacity="100" points="756.0,660.0 774.0,660.0" stroke="#000" stroke-width="1" /><polyline fill="none" opacity="100" points="756.0,664.0 774.0,664.0" stroke="#000" stroke-width="1" /><polyline fill="none" opacity="100" points="723.0,429.0 705.0,429.0" stroke="#000" stroke-width="1" /><polyline fill="none" opacity="100" points="723.0,425.0 705.0,425.0" stroke="#000" stroke-width="1" /><polyline fill="none" opacity="100" points="723.0,421.0 705.0,421.0" stroke="#000" stroke-width="1" /><polyline fill="none" opacity="100" points="723.0,417.0 705.0,417.0" stroke="#000" stroke-width="1" /><polyline fill="none" opacity="100" points="723.0,413.0 705.0,413.0" stroke="#000" stroke-width="1" /><polyline fill="none" opacity="100" points="723.0,409.0 705.0,409.0" stroke="#000" stroke-width="1" /><polyline fill="none" opacity="100" points="723.0,405.0 705.0,405.0" stroke="#000" stroke-width="1" /><polyline fill="none" opacity="100" points="723.0,401.0 705.0,401.0" stroke="#000" stroke-width="1" /><polyline fill="none" opacity="100" points="723.0,397.0 705.0,397.0" stroke="#000" stroke-width="1" /><polyline fill="none" opacity="100" points="723.0,393.0 705.0,393.0" stroke="#000" stroke-width="1" /><polyline fill="none" opacity="100" points="723.0,389.0 705.0,389.0" stroke="#000" stroke-width="1" /><polyline fill="none" opacity="100" points="723.0,385.0 705.0,385.0" stroke="#000" stroke-width="1" /><polygon fill="#D0D0D0" opacity="100" points="726.0,504.0 712.0,504.0 712.0,547.0 726.0,547.0" stroke="#000" stroke-width="1" /><polyline fill="none" opacity="100" points="664.0,474.0 664.0,466.0 693.0,466.0 693.0,474.0" stroke="#000" stroke-width="1" /><text fill="#FFF" font-family="Arial" font-size="10" font-weight="normal" opacity="100" transform="rotate(-0.0 666.0,464.0) translate(0 10)" x="666.0" y="464.0">кассы</text><polygon fill="none" opacity="100" points="648.0,493.0 652.0,490.0 655.0,494.0 651.0,497.0" stroke="#000" stroke-width="1" /><polyline fill="none" opacity="100" points="657.0,498.0 654.0,500.0" stroke="#090" stroke-width="1" /><polyline fill="none" opacity="100" points="659.2661,501.2962 656.2661,503.2962" stroke="#090" stroke-width="1" /><polyline fill="none" opacity="100" points="661.5322,504.5923 658.5322,506.5923" stroke="#090" stroke-width="1" /><polyline fill="none" opacity="100" points="663.7983,507.8885 660.7983,509.8885" stroke="#090" stroke-width="1" /><polyline fill="none" opacity="100" points="666.0645,511.1847 663.0645,513.1847" stroke="#090" stroke-width="1" /><polyline fill="none" opacity="100" points="668.3306,514.4808 665.3306,516.4808" stroke="#090" stroke-width="1" /><polyline fill="none" opacity="100" points="670.5967,517.777 667.5967,519.777" stroke="#090" stroke-width="1" /><polyline fill="none" opacity="100" points="672.8628,521.0732 669.8628,523.0732" stroke="#090" stroke-width="1" /><polyline fill="none" opacity="100" points="675.1289,524.3693 672.1289,526.3693" stroke="#090" stroke-width="1" /><polyline fill="none" opacity="100" points="677.395,527.6655 674.395,529.6655" stroke="#090" stroke-width="1" /><polyline fill="none" opacity="100" points="679.6612,530.9617 676.6612,532.9617" stroke="#090" stroke-width="1" /><polyline fill="none" opacity="100" points="681.9273,534.2578 678.9273,536.2578" stroke="#090" stroke-width="1" /><polyline fill="none" opacity="100" points="684.1934,537.554 681.1934,539.554" stroke="#090" stroke-width="1" /><polyline fill="none" opacity="100" points="686.4595,540.8502 683.4595,542.8502" stroke="#090" stroke-width="1" /><polyline fill="none" opacity="100" points="688.7256,544.1463 685.7256,546.1463" stroke="#090" stroke-width="1" /><polyline fill="none" opacity="100" points="690.0,549.0 686.0,549.0" stroke="#F00" stroke-width="1" /><polyline fill="none" opacity="100" points="689.852,552.9973 685.852,552.9973" stroke="#F00" stroke-width="1" /><polyline fill="none" opacity="100" points="689.7039,556.9945 685.7039,556.9945" stroke="#F00" stroke-width="1" /><polyline fill="none" opacity="100" points="689.5559,560.9918 685.5559,560.9918" stroke="#F00" stroke-width="1" /><polyline fill="none" opacity="100" points="689.4078,564.989 685.4078,564.989" stroke="#F00" stroke-width="1" /><polyline fill="none" opacity="100" points="689.2598,568.9863 685.2598,568.9863" stroke="#F00" stroke-width="1" /><polyline fill="none" opacity="100" points="689.1117,572.9836 685.1117,572.9836" stroke="#F00" stroke-width="1" /><text fill="#00AFAF" font-family="Arial" font-size="15" font-weight="normal" opacity="100" transform="rotate(-0.0 -198.0,522.0) translate(0 15)" x="-198.0" y="522.0">проспект Ленина</text><text fill="#00AFAF" font-family="Arial" font-size="15" font-weight="normal" opacity="100" transform="rotate(-0.0 772.0,522.0) translate(0 15)" x="772.0" y="522.0">проспект Ленина</text><text fill="#00AFAF" font-family="Arial" font-size="15" font-weight="normal" opacity="100" transform="rotate(90.0 -60.0,315.0) translate(0 15)" x="-60.0" y="315.0">улица Рубо</text><text fill="#00AFAF" font-family="Arial" font-size="15" font-weight="normal" opacity="100" transform="rotate(90.0 369.0,640.0) translate(0 15)" x="369.0" y="640.0">улица Искры</text></g></g></svg>