<?xml version="1.0" encoding="utf-8" ?>
<svg baseProfile="tiny" height="970px" version="1.2" width="780px" xmlns="http://www.w3.org/2000/svg" xmlns:ev="http://www.w3.org/2001/xml-events" xmlns:xlink="http://www.w3.org/1999/xlink"><defs /><g><g transform="rotate(-55.0,390.0,485.0)"><polygon fill="#CF0000" opacity="100" points="140.0,442.0 590.0,442.0 590.0,472.0 140.0,472.0" stroke="#000" stroke-width="1" /><polygon fill="#CF0000" opacity="100" points="140.0,552.0 590.0,552.0 590.0,582.0 140.0,582.0" stroke="#000" stroke-width="1" /><text fill="#CF0000" font-family="Arial" font-size="20" font-weight="normal" opacity="100" transform="rotate(-0.0 140.0,418.0) translate(0 20)" x="140.0" y="418.0">&lt;&lt; Автозаводская</text><text fill="#CF0000" font-family="Arial" font-size="20" font-weight="normal" opacity="100" transform="rotate(-0.0 373.0,582.0) translate(0 20)" x="373.0" y="582.0">Двигатель Революции &gt;&gt;</text><text fill="#CF0000" font-family="Arial" font-size="25" font-weight="bold" opacity="100" transform="rotate(-0.0 290.0,494.0) translate(0 25)" x="290.0" y="494.0">Пролетарская</text><polyline fill="none" opacity="100" points="590.0,472.0 590.0,482.0 654.0,482.0 654.0,450.0 718.0,450.0 718.0,455.0 729.0,455.0 729.0,354.0" stroke="#000" stroke-width="1" /><polyline fill="none" opacity="100" points="753.0,354.0 753.0,621.0 803.0,621.0" stroke="#000" stroke-width="1" /><polyline fill="none" opacity="100" points="803.0,639.0 679.0,639.0" stroke="#000" stroke-width="1" /><polyline fill="none" opacity="100" points="590.0,552.0 590.0,542.0 654.0,542.0 654.0,574.0 718.0,574.0 718.0,569.0 729.0,569.0 729.0,621.0 679.0,621.0" stroke="#000" stroke-width="1" /><polyline fill="none" opacity="100" points="597.0,482.0 597.0,542.0" stroke="#000" stroke-width="1" /><polyline fill="none" opacity="100" points="601.0,482.0 601.0,542.0" stroke="#000" stroke-width="1" /><polyline fill="none" opacity="100" points="605.0,482.0 605.0,542.0" stroke="#000" stroke-width="1" /><polyline fill="none" opacity="100" points="609.0,482.0 609.0,542.0" stroke="#000" stroke-width="1" /><polyline fill="none" opacity="100" points="613.0,482.0 613.0,542.0" stroke="#000" stroke-width="1" /><polyline fill="none" opacity="100" points="617.0,482.0 617.0,542.0" stroke="#000" stroke-width="1" /><polyline fill="none" opacity="100" points="627.0,482.0 627.0,542.0" stroke="#000" stroke-width="1" /><polyline fill="none" opacity="100" points="631.0,482.0 631.0,542.0" stroke="#000" stroke-width="1" /><polyline fill="none" opacity="100" points="635.0,482.0 635.0,542.0" stroke="#000" stroke-width="1" /><polyline fill="none" opacity="100" points="639.0,482.0 639.0,542.0" stroke="#000" stroke-width="1" /><polyline fill="none" opacity="100" points="643.0,482.0 643.0,542.0" stroke="#000" stroke-width="1" /><polyline fill="none" opacity="100" points="647.0,482.0 647.0,542.0" stroke="#000" stroke-width="1" /><polyline fill="none" opacity="100" points="729.0,356.0 753.0,356.0" stroke="#000" stroke-width="1" /><polyline fill="none" opacity="100" points="729.0,360.0 753.0,360.0" stroke="#000" stroke-width="1" /><polyline fill="none" opacity="100" points="729.0,364.0 753.0,364.0" stroke="#000" stroke-width="1" /><polyline fill="none" opacity="100" points="729.0,368.0 753.0,368.0" stroke="#000" stroke-width="1" /><polyline fill="none" opacity="100" points="729.0,372.0 753.0,372.0" stroke="#000" stroke-width="1" /><polyline fill="none" opacity="100" points="729.0,376.0 753.0,376.0" stroke="#000" stroke-width="1" /><polyline fill="none" opacity="100" points="729.0,380.0 753.0,380.0" stroke="#000" stroke-width="1" /><polyline fill="none" opacity="100" points="729.0,384.0 753.0,384.0" stroke="#000" stroke-width="1" /><polyline fill="none" opacity="100" points="729.0,388.0 753.0,388.0" stroke="#000" stroke-width="1" /><polyline fill="none" opacity="100" points="729.0,392.0 753.0,392.0" stroke="#000" stroke-width="1" /><polyline fill="none" opacity="100" points="729.0,396.0 753.0,396.0" stroke="#000" stroke-width="1" /><polyline fill="none" opacity="100" points="729.0,400.0 753.0,400.0" stroke="#000" stroke-width="1" /><polyline fill="none" opacity="100" points="681.0,621.0 681.0,639.0" stroke="#000" stroke-width="1" /><polyline fill="none" opacity="100" points="685.0,621.0 685.0,639.0" stroke="#000" stroke-width="1" /><polyline fill="none" opacity="100" points="689.0,621.0 689.0,639.0" stroke="#000" stroke-width="1" /><polyline fill="none" opacity="100" points="693.0,621.0 693.0,639.0" stroke="#000" stroke-width="1" /><polyline fill="none" opacity="100" points="697.0,621.0 697.0,639.0" stroke="#000" stroke-width="1" /><polyline fill="none" opacity="100" points="701.0,621.0 701.0,639.0" stroke="#000" stroke-width="1" /><polyline fill="none" opacity="100" points="705.0,621.0 705.0,639.0" stroke="#000" stroke-width="1" /><polyline fill="none" opacity="100" points="709.0,621.0 709.0,639.0" stroke="#000" stroke-width="1" /><polyline fill="none" opacity="100" points="713.0,621.0 713.0,639.0" stroke="#000" stroke-width="1" /><polyline fill="none" opacity="100" points="717.0,621.0 717.0,639.0" stroke="#000" stroke-width="1" /><polyline fill="none" opacity="100" points="721.0,621.0 721.0,639.0" stroke="#000" stroke-width="1" /><polyline fill="none" opacity="100" points="725.0,621.0 725.0,639.0" stroke="#000" stroke-width="1" /><polyline fill="none" opacity="100" points="801.0,621.0 801.0,639.0" stroke="#000" stroke-width="1" /><polyline fill="none" opacity="100" points="797.0,621.0 797.0,639.0" stroke="#000" stroke-width="1" /><polyline fill="none" opacity="100" points="793.0,621.0 793.0,639.0" stroke="#000" stroke-width="1" /><polyline fill="none" opacity="100" points="789.0,621.0 789.0,639.0" stroke="#000" stroke-width="1" /><polyline fill="none" opacity="100" points="785.0,621.0 785.0,639.0" stroke="#000" stroke-width="1" /><polyline fill="none" opacity="100" points="781.0,621.0 781.0,639.0" stroke="#000" stroke-width="1" /><polyline fill="none" opacity="100" points="777.0,621.0 777.0,639.0" stroke="#000" stroke-width="1" /><polyline fill="none" opacity="100" points="773.0,621.0 773.0,639.0" stroke="#000" stroke-width="1" /><polyline fill="none" opacity="100" points="769.0,621.0 769.0,639.0" stroke="#000" stroke-width="1" /><polyline fill="none" opacity="100" points="765.0,621.0 765.0,639.0" stroke="#000" stroke-width="1" /><polyline fill="none" opacity="100" points="761.0,621.0 761.0,639.0" stroke="#000" stroke-width="1" /><polyline fill="none" opacity="100" points="757.0,621.0 757.0,639.0" stroke="#000" stroke-width="1" /><polygon fill="#D0D0D0" opacity="100" points="718.0,497.0 729.0,497.0 729.0,528.0 718.0,528.0" stroke="#000" stroke-width="1" /><polyline fill="none" opacity="100" points="654.0,482.0 681.0,482.0" stroke="#000" stroke-width="0.5" /><polyline fill="none" opacity="100" points="694.0,539.0 698.0,538.0" stroke="#090" stroke-width="1" /><polyline fill="none" opacity="100" points="693.0485,535.1148 697.0485,534.1148" stroke="#090" stroke-width="1" /><polyline fill="none" opacity="100" points="692.0971,531.2296 696.0971,530.2296" stroke="#090" stroke-width="1" /><polyline fill="none" opacity="100" points="691.1456,527.3444 695.1456,526.3444" stroke="#090" stroke-width="1" /><polyline fill="none" opacity="100" points="690.1941,523.4592 694.1941,522.4592" stroke="#090" stroke-width="1" /><polyline fill="none" opacity="100" points="689.2426,519.5741 693.2426,518.5741" stroke="#090" stroke-width="1" /><polyline fill="none" opacity="100" points="688.2912,515.6889 692.2912,514.6889" stroke="#090" stroke-width="1" /><polyline fill="none" opacity="100" points="687.3397,511.8037 691.3397,510.8037" stroke="#090" stroke-width="1" /><polyline fill="none" opacity="100" points="686.3882,507.9185 690.3882,506.9185" stroke="#090" stroke-width="1" /><polyline fill="none" opacity="100" points="685.4367,504.0333 689.4367,503.0333" stroke="#090" stroke-width="1" /><polyline fill="none" opacity="100" points="684.4853,500.1481 688.4853,499.1481" stroke="#090" stroke-width="1" /><polyline fill="none" opacity="100" points="683.5338,496.2629 687.5338,495.2629" stroke="#090" stroke-width="1" /><polyline fill="none" opacity="100" points="682.5823,492.3777 686.5823,491.3777" stroke="#090" stroke-width="1" /><polyline fill="none" opacity="100" points="695.0,542.0 699.0,542.0" stroke="#F00" stroke-width="1" /><polyline fill="none" opacity="100" points="695.0,546.0 699.0,546.0" stroke="#F00" stroke-width="1" /><polyline fill="none" opacity="100" points="695.0,550.0 699.0,550.0" stroke="#F00" stroke-width="1" /><polyline fill="none" opacity="100" points="695.0,554.0 699.0,554.0" stroke="#F00" stroke-width="1" /><polyline fill="none" opacity="100" points="695.0,558.0 699.0,558.0" stroke="#F00" stroke-width="1" /><polyline fill="none" opacity="100" points="695.0,562.0 699.0,562.0" stroke="#F00" stroke-width="1" /><polyline fill="none" opacity="100" points="695.0,566.0 699.0,566.0" stroke="#F00" stroke-width="1" /><polyline fill="none" opacity="100" points="695.0,570.0 699.0,570.0" stroke="#F00" stroke-width="1" /><polygon fill="none" opacity="100" points="680.0,484.0 685.0,483.0 686.0,488.0 681.0,489.0" stroke="#000" stroke-width="1" /><polyline fill="none" opacity="100" points="654.0,452.0 662.0,452.0 666.0,456.0 666.0,476.0 662.0,480.0 654.0,480.0" stroke="#000" stroke-width="1" /><text fill="#000" font-family="Arial" font-size="10" font-weight="normal" opacity="100" transform="rotate(90.0 667.0,454.0) translate(0 10)" x="667.0" y="454.0">кассы</text><polyline fill="none" opacity="100" points="670.0,552.0 683.0,552.0" stroke="#F00" stroke-width="1" /><polygon fill="#F00" opacity="100" points="679.2329,553.0094 683.0,552.0 679.2329,550.9906" stroke="#F00" stroke-width="1" /><polyline fill="none" opacity="100" points="721.0,485.0 709.0,487.0" stroke="#090" stroke-width="1" /><polygon fill="#090" opacity="100" points="712.322,485.4887 709.0,487.0 712.6326,487.3522" stroke="#090" stroke-width="1" /><polyline fill="none" opacity="100" points="140.0,472.0 140.0,482.0 78.0,482.0 78.0,450.0 13.0,450.0 13.0,456.0 2.0,456.0 2.0,385.0 -120.0,385.0" stroke="#000" stroke-width="1" /><polyline fill="none" opacity="100" points="-120.0,403.0 -22.0,403.0 -22.0,623.0 -72.0,623.0" stroke="#000" stroke-width="1" /><polyline fill="none" opacity="100" points="52.0,623.0 2.0,623.0 2.0,569.0 13.0,569.0 13.0,575.0 78.0,575.0 78.0,542.0 140.0,542.0 140.0,552.0" stroke="#000" stroke-width="1" /><polyline fill="none" opacity="100" points="52.0,641.0 -72.0,641.0" stroke="#000" stroke-width="1" /><polyline fill="none" opacity="100" points="105.0,482.0 105.0,542.0" stroke="#000" stroke-width="1" /><polyline fill="none" opacity="100" points="101.0,482.0 101.0,542.0" stroke="#000" stroke-width="1" /><polyline fill="none" opacity="100" points="97.0,482.0 97.0,542.0" stroke="#000" stroke-width="1" /><polyline fill="none" opacity="100" points="93.0,482.0 93.0,542.0" stroke="#000" stroke-width="1" /><polyline fill="none" opacity="100" points="89.0,482.0 89.0,542.0" stroke="#000" stroke-width="1" /><polyline fill="none" opacity="100" points="85.0,482.0 85.0,542.0" stroke="#000" stroke-width="1" /><polyline fill="none" opacity="100" points="135.0,482.0 135.0,542.0" stroke="#000" stroke-width="1" /><polyline fill="none" opacity="100" points="131.0,482.0 131.0,542.0" stroke="#000" stroke-width="1" /><polyline fill="none" opacity="100" points="127.0,482.0 127.0,542.0" stroke="#000" stroke-width="1" /><polyline fill="none" opacity="100" points="123.0,482.0 123.0,542.0" stroke="#000" stroke-width="1" /><polyline fill="none" opacity="100" points="119.0,482.0 119.0,542.0" stroke="#000" stroke-width="1" /><polyline fill="none" opacity="100" points="115.0,482.0 115.0,542.0" stroke="#000" stroke-width="1" /><polyline fill="none" opacity="100" points="-118.0,403.0 -118.0,385.0" stroke="#000" stroke-width="1" /><polyline fill="none" opacity="100" points="-114.0,403.0 -114.0,385.0" stroke="#000" stroke-width="1" /><polyline fill="none" opacity="100" points="-110.0,403.0 -110.0,385.0" stroke="#000" stroke-width="1" /><polyline fill="none" opacity="100" points="-106.0,403.0 -106.0,385.0" stroke="#000" stroke-width="1" /><polyline fill="none" opacity="100" points="-102.0,403.0 -102.0,385.0" stroke="#000" stroke-width="1" /><polyline fill="none" opacity="100" points="-98.0,403.0 -98.0,385.0" stroke="#000" stroke-width="1" /><polyline fill="none" opacity="100" points="-94.0,403.0 -94.0,385.0" stroke="#000" stroke-width="1" /><polyline fill="none" opacity="100" points="-90.0,403.0 -90.0,385.0" stroke="#000" stroke-width="1" /><polyline fill="none" opacity="100" points="-86.0,403.0 -86.0,385.0" stroke="#000" stroke-width="1" /><polyline fill="none" opacity="100" points="-82.0,403.0 -82.0,385.0" stroke="#000" stroke-width="1" /><polyline fill="none" opacity="100" points="-78.0,403.0 -78.0,385.0" stroke="#000" stroke-width="1" /><polyline fill="none" opacity="100" points="-74.0,403.0 -74.0,385.0" stroke="#000" stroke-width="1" /><polyline fill="none" opacity="100" points="-70.0,623.0 -70.0,641.0" stroke="#000" stroke-width="1" /><polyline fill="none" opacity="100" points="-66.0,623.0 -66.0,641.0" stroke="#000" stroke-width="1" /><polyline fill="none" opacity="100" points="-62.0,623.0 -62.0,641.0" stroke="#000" stroke-width="1" /><polyline fill="none" opacity="100" points="-58.0,623.0 -58.0,641.0" stroke="#000" stroke-width="1" /><polyline fill="none" opacity="100" points="-54.0,623.0 -54.0,641.0" stroke="#000" stroke-width="1" /><polyline fill="none" opacity="100" points="-50.0,623.0 -50.0,641.0" stroke="#000" stroke-width="1" /><polyline fill="none" opacity="100" points="-46.0,623.0 -46.0,641.0" stroke="#000" stroke-width="1" /><polyline fill="none" opacity="100" points="-42.0,623.0 -42.0,641.0" stroke="#000" stroke-width="1" /><polyline fill="none" opacity="100" points="-38.0,623.0 -38.0,641.0" stroke="#000" stroke-width="1" /><polyline fill="none" opacity="100" points="-34.0,623.0 -34.0,641.0" stroke="#000" stroke-width="1" /><polyline fill="none" opacity="100" points="-30.0,623.0 -30.0,641.0" stroke="#000" stroke-width="1" /><polyline fill="none" opacity="100" points="-26.0,623.0 -26.0,641.0" stroke="#000" stroke-width="1" /><polyline fill="none" opacity="100" points="50.0,623.0 50.0,641.0" stroke="#000" stroke-width="1" /><polyline fill="none" opacity="100" points="46.0,623.0 46.0,641.0" stroke="#000" stroke-width="1" /><polyline fill="none" opacity="100" points="42.0,623.0 42.0,641.0" stroke="#000" stroke-width="1" /><polyline fill="none" opacity="100" points="38.0,623.0 38.0,641.0" stroke="#000" stroke-width="1" /><polyline fill="none" opacity="100" points="34.0,623.0 34.0,641.0" stroke="#000" stroke-width="1" /><polyline fill="none" opacity="100" points="30.0,623.0 30.0,641.0" stroke="#000" stroke-width="1" /><polyline fill="none" opacity="100" points="26.0,623.0 26.0,641.0" stroke="#000" stroke-width="1" /><polyline fill="none" opacity="100" points="22.0,623.0 22.0,641.0" stroke="#000" stroke-width="1" /><polyline fill="none" opacity="100" points="18.0,623.0 18.0,641.0" stroke="#000" stroke-width="1" /><polyline fill="none" opacity="100" points="14.0,623.0 14.0,641.0" stroke="#000" stroke-width="1" /><polyline fill="none" opacity="100" points="10.0,623.0 10.0,641.0" stroke="#000" stroke-width="1" /><polyline fill="none" opacity="100" points="6.0,623.0 6.0,641.0" stroke="#000" stroke-width="1" /><polygon fill="#D0D0D0" opacity="100" points="13.0,527.0 2.0,527.0 2.0,496.0 13.0,496.0" stroke="#000" stroke-width="1" /><polyline fill="none" opacity="100" points="78.0,542.0 51.0,542.0" stroke="#000" stroke-width="0.5" /><polyline fill="none" opacity="100" points="38.0,485.0 34.0,486.0" stroke="#090" stroke-width="1" /><polyline fill="none" opacity="100" points="38.9515,488.8852 34.9515,489.8852" stroke="#090" stroke-width="1" /><polyline fill="none" opacity="100" points="39.9029,492.7704 35.9029,493.7704" stroke="#090" stroke-width="1" /><polyline fill="none" opacity="100" points="40.8544,496.6556 36.8544,497.6556" stroke="#090" stroke-width="1" /><polyline fill="none" opacity="100" points="41.8059,500.5408 37.8059,501.5408" stroke="#090" stroke-width="1" /><polyline fill="none" opacity="100" points="42.7574,504.4259 38.7574,505.4259" stroke="#090" stroke-width="1" /><polyline fill="none" opacity="100" points="43.7088,508.3111 39.7088,509.3111" stroke="#090" stroke-width="1" /><polyline fill="none" opacity="100" points="44.6603,512.1963 40.6603,513.1963" stroke="#090" stroke-width="1" /><polyline fill="none" opacity="100" points="45.6118,516.0815 41.6118,517.0815" stroke="#090" stroke-width="1" /><polyline fill="none" opacity="100" points="46.5633,519.9667 42.5633,520.9667" stroke="#090" stroke-width="1" /><polyline fill="none" opacity="100" points="47.5147,523.8519 43.5147,524.8519" stroke="#090" stroke-width="1" /><polyline fill="none" opacity="100" points="48.4662,527.7371 44.4662,528.7371" stroke="#090" stroke-width="1" /><polyline fill="none" opacity="100" points="49.4177,531.6223 45.4177,532.6223" stroke="#090" stroke-width="1" /><polyline fill="none" opacity="100" points="37.0,482.0 33.0,482.0" stroke="#F00" stroke-width="1" /><polyline fill="none" opacity="100" points="37.0,478.0 33.0,478.0" stroke="#F00" stroke-width="1" /><polyline fill="none" opacity="100" points="37.0,474.0 33.0,474.0" stroke="#F00" stroke-width="1" /><polyline fill="none" opacity="100" points="37.0,470.0 33.0,470.0" stroke="#F00" stroke-width="1" /><polyline fill="none" opacity="100" points="37.0,466.0 33.0,466.0" stroke="#F00" stroke-width="1" /><polyline fill="none" opacity="100" points="37.0,462.0 33.0,462.0" stroke="#F00" stroke-width="1" /><polyline fill="none" opacity="100" points="37.0,458.0 33.0,458.0" stroke="#F00" stroke-width="1" /><polyline fill="none" opacity="100" points="37.0,454.0 33.0,454.0" stroke="#F00" stroke-width="1" /><polygon fill="none" opacity="100" points="52.0,540.0 47.0,541.0 46.0,536.0 51.0,535.0" stroke="#000" stroke-width="1" /><polyline fill="none" opacity="100" points="78.0,572.0 70.0,572.0 66.0,568.0 66.0,548.0 70.0,544.0 78.0,544.0" stroke="#000" stroke-width="1" /><text fill="#000" font-family="Arial" font-size="10" font-weight="normal" opacity="100" transform="rotate(90.0 79.0,546.0) translate(0 10)" x="79.0" y="546.0">кассы</text><polyline fill="none" opacity="100" points="62.0,472.0 49.0,472.0" stroke="#F00" stroke-width="1" /><polygon fill="#F00" opacity="100" points="52.7671,470.9906 49.0,472.0 52.7671,473.0094" stroke="#F00" stroke-width="1" /><polyline fill="none" opacity="100" points="11.0,539.0 23.0,537.0" stroke="#090" stroke-width="1" /><polygon fill="#090" opacity="100" points="19.678,538.5113 23.0,537.0 19.3674,536.6478" stroke="#090" stroke-width="1" /><text fill="#00AFAF" font-family="Arial" font-size="15" font-weight="normal" opacity="100" transform="rotate(-0.0 -146.0,506.0) translate(0 15)" x="-146.0" y="506.0">проспект Ленина</text><text fill="#00AFAF" font-family="Arial" font-size="15" font-weight="normal" opacity="100" transform="rotate(-0.0 768.0,499.0) translate(0 15)" x="768.0" y="499.0">проспект Ленина</text><text fill="#00AFAF" font-family="Arial" font-size="15" font-weight="normal" opacity="100" transform="rotate(90.0 920.0,422.0) translate(0 15)" x="920.0" y="422.0">улица Новикова-Прибоя</text></g></g></svg>