<?xml version="1.0" encoding="utf-8" ?>
<svg baseProfile="tiny" height="980px" version="1.2" width="867px" xmlns="http://www.w3.org/2000/svg" xmlns:ev="http://www.w3.org/2001/xml-events" xmlns:xlink="http://www.w3.org/1999/xlink"><defs /><g><polygon fill="#C6C6FF" opacity="100" points="303.0,0.0 303.0,96.0 261.0,248.0 258.0,296.0 207.0,420.0 190.0,447.0 182.0,500.0 183.0,548.0 192.0,600.0 202.0,633.0 218.0,662.0 237.0,693.0 297.0,760.0 328.0,804.0 348.0,846.0 346.0,896.0 327.0,950.0 327.0,960.0 262.0,960.0 300.0,924.0 315.0,885.0 315.0,862.0 306.0,816.0 255.0,758.0 207.0,704.0 174.0,648.0 147.0,576.0 144.0,507.0 141.0,498.0 140.0,362.0 158.0,320.0 196.0,249.0 258.0,98.0 260.0,0.0" stroke="#C6C6FF" stroke-width="1" /><polygon fill="#FFF" opacity="100" points="165.0,418.0 165.0,364.0 186.0,316.0 222.0,256.0 240.0,243.0 240.0,266.0 236.0,302.0 192.0,398.0 171.0,423.0" stroke="#FFF" stroke-width="1" /><text fill="#FFF" font-family="Arial" font-size="14" font-weight="normal" opacity="100" transform="rotate(90.0 294.0,34.0) translate(0 14)" x="294.0" y="34.0">Danube</text><text fill="#FFF" font-family="Arial" font-size="14" font-weight="normal" opacity="100" transform="rotate(90.0 258.0,176.0) translate(0 14)" x="258.0" y="176.0">Duna</text><polyline fill="none" opacity="100" points="273.0,122.0 258.0,158.0" stroke="#FFF" stroke-width="1" /><polygon fill="#FFF" opacity="100" points="259.5514,146.4033 258.0,158.0 265.1419,148.7327" stroke="#FFF" stroke-width="1" /><text fill="#040464" font-family="Arial" font-size="30" font-weight="bold" opacity="100" transform="rotate(-0.0 633.0,304.0) translate(0 30)" x="633.0" y="304.0">METRO</text><text fill="#040464" font-family="Arial" font-size="30" font-weight="bold" opacity="100" transform="rotate(-0.0 632.0,333.0) translate(0 30)" x="632.0" y="333.0">BUDAPEST</text><text fill="#F49E01" font-family="Arial" font-size="20" font-weight="bold" opacity="100" transform="rotate(-0.0 719.0,151.0) translate(0 20)" x="719.0" y="151.0">M1</text><text fill="#FD0000" font-family="Arial" font-size="20" font-weight="bold" opacity="100" transform="rotate(-0.0 719.0,175.0) translate(0 20)" x="719.0" y="175.0">M2</text><text fill="#8383FF" font-family="Arial" font-size="20" font-weight="bold" opacity="100" transform="rotate(-0.0 719.0,199.0) translate(0 20)" x="719.0" y="199.0">M3</text></g></svg>