<?xml version="1.0" encoding="utf-8" ?>
<svg baseProfile="tiny" height="800px" version="1.2" width="550px" xmlns="http://www.w3.org/2000/svg" xmlns:ev="http://www.w3.org/2001/xml-events" xmlns:xlink="http://www.w3.org/1999/xlink"><defs /><g><text fill="#040464" font-family="arial" font-size="34" font-weight="normal" opacity="100" transform="rotate(-0.0 284.0,5.0) translate(0 34)" x="284.0" y="5.0">Line 1 3</text><text fill="#040464" font-family="Arial" font-size="26" font-weight="normal" opacity="100" transform="rotate(-0.0 193.0,40.0) translate(0 26)" x="193.0" y="40.0">Piraeus - Kifissia 2</text><ellipse cx="224.5" cy="21.0" fill="#007B39" opacity="100" rx="22.5" ry="15.0" stroke="#007B39" stroke-width="1" /><ellipse cx="224.5" cy="21.0" fill="#FFF" opacity="100" rx="20.5" ry="13.0" stroke="#FFF" stroke-width="1" /><polygon fill="#FFF" opacity="100" points="199.0,17.0 199.0,25.0 251.0,25.0 251.0,17.0" stroke="#FFF" stroke-width="1" /><polygon fill="#007B39" opacity="100" points="199.0,16.0 209.0,16.0 209.0,18.0 199.0,18.0" stroke="#007B39" stroke-width="0.1" /><polygon fill="#007B39" opacity="100" points="199.0,26.0 209.0,26.0 209.0,24.0 199.0,24.0" stroke="#007B39" stroke-width="0.1" /><polygon fill="#007B39" opacity="100" points="199.0,20.0 209.0,20.0 209.0,22.0 199.0,22.0" stroke="#007B39" stroke-width="0.1" /><polygon fill="#007B39" opacity="100" points="250.0,16.0 240.0,16.0 240.0,18.0 250.0,18.0" stroke="#000" stroke-width="0.1" /><polygon fill="#007B39" opacity="100" points="250.0,26.0 240.0,26.0 240.0,24.0 250.0,24.0" stroke="#000" stroke-width="0.1" /><polygon fill="#007B39" opacity="100" points="250.0,20.0 240.0,20.0 240.0,22.0 250.0,22.0" stroke="#000" stroke-width="0.1" /><polyline fill="none" opacity="100" points="211.0,12.0 211.0,29.0" stroke="#000" stroke-width="1.5" /><polyline fill="none" opacity="100" points="216.0,10.0 216.0,31.0" stroke="#000" stroke-width="1.5" /><polyline fill="none" opacity="100" points="211.0,20.0 216.0,20.0" stroke="#000" stroke-width="1.5" /><polyline fill="none" opacity="100" points="223.5,9.0 218.0,9.5 222.0,20.0 218.0,31.5 223.5,32.0" stroke="#000" stroke-width="1.5" /><polyline fill="none" opacity="100" points="225.5,32.0 228.0,9.5 232.0,31.0" stroke="#000" stroke-width="1.5" /><polyline fill="none" opacity="100" points="227.0,24.0 230.0,24.0" stroke="#000" stroke-width="1.8" /><polyline fill="none" opacity="100" points="238.0,28.5 238.0,13.0 234.0,11.0 234.0,30.5" stroke="#000" stroke-width="1.5" /></g></svg>