<?xml version="1.0" encoding="utf-8" ?>
<svg baseProfile="tiny" height="960px" version="1.2" width="550px" xmlns="http://www.w3.org/2000/svg" xmlns:ev="http://www.w3.org/2001/xml-events" xmlns:xlink="http://www.w3.org/1999/xlink"><defs /><g><text fill="#040464" font-family="arial" font-size="30" font-weight="normal" opacity="100" transform="rotate(-0.0 244.0,12.0) translate(0 30)" x="244.0" y="12.0">Line 3 3</text><text fill="#040464" font-family="Arial" font-size="22" font-weight="normal" opacity="100" transform="rotate(-0.0 59.0,50.0) translate(0 22)" x="59.0" y="50.0">Egaleo - Doukissis Plakentias - Aerothromio (Airport) 2</text><ellipse cx="209.0" cy="27.0" fill="#007B39" opacity="100" rx="15.0" ry="15.0" stroke="#007B39" stroke-width="1" /><ellipse cx="209.0" cy="27.0" fill="#FFF" opacity="100" rx="12.0" ry="12.0" stroke="#FFF" stroke-width="1" /><ellipse cx="201.0" cy="30.0" fill="#10298C" opacity="100" rx="1.0" ry="1.0" stroke="#10298C" stroke-width="1" /><polygon fill="#10298C" opacity="100" points="199.0,23.0 199.0,21.0 202.0,21.0 208.0,33.0 206.0,33.0 201.0,23.0" stroke="#000" stroke-width="0.1" /><polygon fill="#10298C" opacity="100" points="204.5,23.0 204.5,21.0 207.5,21.0 213.5,33.0 211.5,33.0 206.5,23.0" stroke="#000" stroke-width="0.1" /><polygon fill="#10298C" opacity="100" points="210.0,23.0 210.0,21.0 213.0,21.0 219.0,33.0 217.0,33.0 212.0,23.0" stroke="#000" stroke-width="0.1" /></g></svg>