<?xml version="1.0" encoding="utf-8" ?>
<svg baseProfile="tiny" height="1150px" version="1.2" width="1500px" xmlns="http://www.w3.org/2000/svg" xmlns:ev="http://www.w3.org/2001/xml-events" xmlns:xlink="http://www.w3.org/1999/xlink"><defs /><g><text fill="#040464" font-family="Arial" font-size="43" font-weight="bold" opacity="100" transform="rotate(-0.0 35.0,50.0) translate(0 43)" x="35.0" y="50.0">Athens Metro</text><text fill="#FFF" font-family="Arial" font-size="18" font-weight="bold" opacity="100" transform="rotate(-0.0 750.0,915.0) translate(0 18)" x="750.0" y="915.0">Line 1</text><text fill="#FFF" font-family="Arial" font-size="14" font-weight="normal" opacity="100" transform="rotate(-0.0 700.0,940.0) translate(0 14)" x="700.0" y="940.0">Piraeus - Kifissia 3</text><text fill="#FFF" font-family="Arial" font-size="18" font-weight="bold" opacity="100" transform="rotate(-0.0 750.0,975.0) translate(0 18)" x="750.0" y="975.0">Line 2</text><text fill="#FFF" font-family="Arial" font-size="14" font-weight="normal" opacity="100" transform="rotate(-0.0 700.0,1000.0) translate(0 14)" x="700.0" y="1000.0">Aghios Antonios - Aghios Dimitrios / Alexandros Panagoulis 3</text><text fill="#FFF" font-family="Arial" font-size="18" font-weight="bold" opacity="100" transform="rotate(-0.0 750.0,1035.0) translate(0 18)" x="750.0" y="1035.0">Line 3</text><text fill="#FFF" font-family="Arial" font-size="14" font-weight="normal" opacity="100" transform="rotate(-0.0 700.0,1060.0) translate(0 14)" x="700.0" y="1060.0">Egaleo - Doukissis Plakentias - Aerothromio (Airport)\n(Интервал движения поездов на участке Doukissis Plakentias - Aerothromio - 30 мин.\nНа данном участке применяется особый тариф)</text><ellipse cx="75.0" cy="135.0" fill="#007B39" opacity="100" rx="25.0" ry="25.0" stroke="#007B39" stroke-width="1" /><ellipse cx="75.0" cy="135.0" fill="#FFF" opacity="100" rx="20.0" ry="20.0" stroke="#FFF" stroke-width="1" /><ellipse cx="61.5" cy="140.5" fill="#10298C" opacity="100" rx="1.5" ry="1.5" stroke="#10298C" stroke-width="1" /><polygon fill="#10298C" opacity="100" points="59.0,129.0 59.0,125.0 63.0,125.0 73.0,145.0 70.0,145.0 62.0,129.0" stroke="#000" stroke-width="0.1" /><polygon fill="#10298C" opacity="100" points="68.0,129.0 68.0,125.0 72.0,125.0 82.0,145.0 79.0,145.0 71.0,129.0" stroke="#000" stroke-width="0.1" /><polygon fill="#10298C" opacity="100" points="77.0,129.0 77.0,125.0 81.0,125.0 91.0,145.0 88.0,145.0 80.0,129.0" stroke="#000" stroke-width="0.1" /><ellipse cx="187.5" cy="135.0" fill="#007B39" opacity="100" rx="37.5" ry="25.0" stroke="#007B39" stroke-width="1" /><ellipse cx="187.5" cy="135.0" fill="#FFF" opacity="100" rx="33.5" ry="21.0" stroke="#FFF" stroke-width="1" /><polygon fill="#FFF" opacity="100" points="145.0,128.0 145.0,142.0 232.0,142.0 231.0,128.0" stroke="#FFF" stroke-width="1" /><polygon fill="#007B39" opacity="100" points="145.0,127.0 161.0,127.0 161.0,130.0 145.0,130.0" stroke="#007B39" stroke-width="0.1" /><polygon fill="#007B39" opacity="100" points="145.0,143.0 161.0,143.0 161.0,140.0 145.0,140.0" stroke="#007B39" stroke-width="0.1" /><polygon fill="#007B39" opacity="100" points="145.0,133.5 161.0,133.5 161.0,136.5 145.0,136.5" stroke="#007B39" stroke-width="0.1" /><polygon fill="#007B39" opacity="100" points="230.0,127.0 214.0,127.0 214.0,130.0 230.0,130.0" stroke="#000" stroke-width="0.1" /><polygon fill="#007B39" opacity="100" points="230.0,143.0 214.0,143.0 214.0,140.0 230.0,140.0" stroke="#000" stroke-width="0.1" /><polygon fill="#007B39" opacity="100" points="230.0,133.5 214.0,133.5 214.0,136.5 230.0,136.5" stroke="#000" stroke-width="0.1" /><polyline fill="none" opacity="100" points="164.0,121.0 164.0,148.0" stroke="#000" stroke-width="2" /><polyline fill="none" opacity="100" points="173.0,117.0 173.0,152.0" stroke="#000" stroke-width="2" /><polyline fill="none" opacity="100" points="164.0,134.0 173.0,134.0" stroke="#000" stroke-width="2" /><polyline fill="none" opacity="100" points="186.0,115.0 177.0,116.0 183.0,134.0 177.0,153.0 186.0,154.0" stroke="#000" stroke-width="2" /><polyline fill="none" opacity="100" points="189.0,154.0 194.0,116.0 200.0,152.0" stroke="#000" stroke-width="2" /><polyline fill="none" opacity="100" points="191.0,140.0 198.0,140.0" stroke="#000" stroke-width="2.5" /><polyline fill="none" opacity="100" points="211.0,147.0 211.0,122.0 203.0,118.0 203.0,151.0" stroke="#000" stroke-width="2" /><polygon fill="#B4E3EB" opacity="100" points="0.0,800.0 30.0,830.0 30.0,920.0 260.0,1150.0 0.0,1150.0" stroke="#B4E3EB" stroke-width="10" /><polygon fill="#000" opacity="100" points="3.0,858.0 9.0,864.0 31.0,864.0 31.0,858.0" stroke="#000" stroke-width="1" /><polygon fill="#000" opacity="100" points="10.0,858.0 14.0,854.0 27.0,854.0 27.0,859.0" stroke="#000" stroke-width="1" /><polygon fill="#000" opacity="100" points="17.0,855.0 21.0,851.0 23.0,851.0 19.0,855.0" stroke="#000" stroke-width="1" /><polygon fill="#000" opacity="100" points="1467.0,920.0 1465.0,925.0 1465.0,952.0 1461.0,954.0 1461.0,956.0 1466.0,955.0 1468.0,955.0 1473.0,956.0 1473.0,954.0 1469.0,952.0 1469.0,925.0" stroke="#000" stroke-width="1" /><polygon fill="#000" opacity="100" points="1452.0,945.0 1452.0,943.0 1465.0,935.0 1469.0,935.0 1482.0,943.0 1482.0,945.0 1469.0,941.0 1465.0,941.0" stroke="#000" stroke-width="1" /><polygon fill="#000" opacity="100" points="1456.0,941.0 1456.0,937.0 1458.0,937.0 1458.0,941.0" stroke="#000" stroke-width="1" /><polygon fill="#000" opacity="100" points="1476.0,941.0 1476.0,937.0 1478.0,937.0 1478.0,941.0" stroke="#000" stroke-width="1" /><text fill="#040464" font-family="Arial" font-size="17" font-weight="normal" opacity="100" transform="rotate(-0.0 40.0,253.0) translate(0 17)" x="40.0" y="253.0">Схема линий пригородных электропоездов (Proastiakos)</text></g></svg>