<?xml version="1.0" encoding="utf-8" ?>
<svg baseProfile="tiny" height="600px" version="1.2" width="1120px" xmlns="http://www.w3.org/2000/svg" xmlns:ev="http://www.w3.org/2001/xml-events" xmlns:xlink="http://www.w3.org/1999/xlink"><defs /><g><text fill="#040464" font-family="Aria" font-size="18" font-weight="normal" opacity="100" transform="rotate(-0.0 700.0,400.0) translate(0 18)" x="700.0" y="400.0">Aerothromio (Airport)- Ano Liosia - Kiato* 2</text><text fill="#040464" font-family="Arial" font-size="18" font-weight="normal" opacity="100" transform="rotate(-0.0 700.0,430.0) translate(0 18)" x="700.0" y="430.0">Piraeus - Ano Liosia 2</text><text fill="#040464" font-family="Arial" font-size="14" font-weight="normal" opacity="100" transform="rotate(-0.0 700.0,460.0) translate(0 14)" x="700.0" y="460.0">* интервал движения поездов\nна участке Ano Liosia - Kiato - 60 мин. 3</text><text fill="#040464" font-family="Arial" font-size="12" font-weight="normal" opacity="100" transform="rotate(-0.0 61.0,80.0) translate(0 12)" x="61.0" y="80.0">Patra 2</text><text fill="#040464" font-family="Arial" font-size="12" font-weight="normal" opacity="100" transform="rotate(-0.0 593.0,83.0) translate(0 12)" x="593.0" y="83.0">Thessaloniki 2</text><text fill="#040464" font-family="Arial" font-size="14" font-weight="normal" opacity="100" transform="rotate(-0.0 705.0,500.0) translate(0 14)" x="705.0" y="500.0">- пересадка на поезда дальнего следования 2</text><polyline fill="none" opacity="100" points="100.0,100.0 60.0,100.0" stroke="#000" stroke-width="3" /><polygon fill="#000" opacity="100" points="71.5911,96.8942 60.0,100.0 71.5911,103.1058" stroke="#000" stroke-width="3" /><polyline fill="none" opacity="100" points="550.0,150.0 600.0,100.0 640.0,100.0" stroke="#000" stroke-width="3" /><polygon fill="#000" opacity="100" points="628.4089,103.1058 640.0,100.0 628.4089,96.8942" stroke="#000" stroke-width="3" /><polygon fill="#000" opacity="100" points="443.0,573.0 450.0,580.0 471.0,580.0 471.0,573.0" stroke="#000" stroke-width="1" /><polygon fill="#000" opacity="100" points="450.0,574.0 456.0,568.0 468.0,568.0 468.0,574.0" stroke="#000" stroke-width="1" /><polygon fill="#000" opacity="100" points="458.0,568.0 462.0,564.0 465.0,564.0 461.0,568.0" stroke="#000" stroke-width="1" /><polygon fill="#000" opacity="100" points="1091.0,120.0 1089.0,125.0 1089.0,152.0 1085.0,154.0 1085.0,156.0 1090.0,155.0 1092.0,155.0 1097.0,156.0 1097.0,154.0 1093.0,152.0 1093.0,125.0" stroke="#000" stroke-width="1" /><polygon fill="#000" opacity="100" points="1076.0,145.0 1076.0,143.0 1089.0,135.0 1093.0,135.0 1106.0,143.0 1106.0,145.0 1093.0,141.0 1089.0,141.0" stroke="#000" stroke-width="1" /><polygon fill="#000" opacity="100" points="1080.0,141.0 1080.0,137.0 1082.0,137.0 1082.0,141.0" stroke="#000" stroke-width="1" /><polygon fill="#000" opacity="100" points="1100.0,141.0 1100.0,137.0 1102.0,137.0 1102.0,141.0" stroke="#000" stroke-width="1" /></g></svg>