<?xml version="1.0" encoding="utf-8" ?>
<svg baseProfile="tiny" height="850px" version="1.2" width="1050px" xmlns="http://www.w3.org/2000/svg" xmlns:ev="http://www.w3.org/2001/xml-events" xmlns:xlink="http://www.w3.org/1999/xlink"><defs /><g><text fill="#0404A4" font-family="Arial" font-size="40" font-weight="bold" opacity="100" x="34.0" y="56.0">Roma</text><text fill="#0404A4" font-family="Arial" font-size="18" font-weight="bold" opacity="100" x="28.3" y="416.2">Lines</text><polyline fill="none" opacity="100" points="533.0,0.0 504.0,30.0 449.0,30.0 434.0,46.0 434.0,88.0 428.0,94.0 411.0,94.0 378.0,62.0 351.0,62.0 312.0,100.0 312.0,120.0 370.0,179.0 370.0,282.0 358.0,294.0 328.0,294.0 318.0,304.0 318.0,329.0 342.0,354.0 359.0,354.0 382.0,378.0 382.0,402.0 352.0,432.0 352.0,504.0 376.0,528.0 376.0,552.0 349.0,580.0 320.0,580.0 292.0,608.0 292.0,624.0 308.0,640.0 326.0,640.0 336.0,650.0 336.0,660.0 257.0,738.0 194.0,800.0 176.0,800.0 140.0,764.0 98.0,764.0 82.0,780.0 82.0,800.0 82.0,1038.0" stroke="#B4E3EB" stroke-width="11" /><text fill="#040464" font-family="Arial" font-size="18" font-weight="normal" opacity="100" x="608.3" y="683.2">Railway map</text><text fill="#FF6300" font-family="Arial" font-size="12" font-weight="bold" opacity="100" x="87.2" y="442.8">A</text><text fill="#8787FD" font-family="Arial" font-size="12" font-weight="bold" opacity="100" x="87.2" y="462.8">B</text><text fill="#008700" font-family="Arial" font-size="12" font-weight="bold" opacity="100" x="87.2" y="482.8">C</text></g></svg>