<?xml version="1.0" encoding="utf-8" ?>
<svg baseProfile="tiny" height="1250px" version="1.2" width="650px" xmlns="http://www.w3.org/2000/svg" xmlns:ev="http://www.w3.org/2001/xml-events" xmlns:xlink="http://www.w3.org/1999/xlink"><defs /><g><g transform="rotate(-90.0,325.0,625.0)"><polygon fill="#00861D" opacity="100" points="696.0,534.0 696.0,564.0 246.0,564.0 246.0,534.0" stroke="#000" stroke-width="1" /><polygon fill="#00861D" opacity="100" points="696.0,644.0 696.0,674.0 246.0,674.0 246.0,644.0" stroke="#000" stroke-width="1" /><text fill="#00861D" font-family="Arial" font-size="20" font-weight="normal" opacity="100" transform="rotate(-0.0 247.0,510.0) translate(0 20)" x="247.0" y="510.0">&lt;&lt; Уралмаш</text><text fill="#00861D" font-family="Arial" font-size="20" font-weight="normal" opacity="100" transform="rotate(-0.0 621.0,674.0) translate(0 20)" x="621.0" y="674.0">тупик &gt;&gt;</text><text fill="#00861D" font-family="Arial" font-size="25" font-weight="bold" opacity="100" transform="rotate(-0.0 327.0,591.0) translate(0 25)" x="327.0" y="591.0">Проспект Космонавтов</text><ellipse cx="657.0" cy="581.0" fill="#D0D0D0" opacity="100" rx="-6.0" ry="6.0" stroke="#000" stroke-width="1" /><ellipse cx="610.0" cy="581.0" fill="#D0D0D0" opacity="100" rx="-6.0" ry="6.0" stroke="#000" stroke-width="1" /><ellipse cx="563.0" cy="581.0" fill="#D0D0D0" opacity="100" rx="-6.0" ry="6.0" stroke="#000" stroke-width="1" /><ellipse cx="516.0" cy="581.0" fill="#D0D0D0" opacity="100" rx="-6.0" ry="6.0" stroke="#000" stroke-width="1" /><ellipse cx="469.0" cy="581.0" fill="#D0D0D0" opacity="100" rx="-6.0" ry="6.0" stroke="#000" stroke-width="1" /><ellipse cx="422.0" cy="581.0" fill="#D0D0D0" opacity="100" rx="-6.0" ry="6.0" stroke="#000" stroke-width="1" /><ellipse cx="375.0" cy="581.0" fill="#D0D0D0" opacity="100" rx="-6.0" ry="6.0" stroke="#000" stroke-width="1" /><ellipse cx="328.0" cy="581.0" fill="#D0D0D0" opacity="100" rx="-6.0" ry="6.0" stroke="#000" stroke-width="1" /><ellipse cx="281.0" cy="581.0" fill="#D0D0D0" opacity="100" rx="-6.0" ry="6.0" stroke="#000" stroke-width="1" /><ellipse cx="657.0" cy="627.0" fill="#D0D0D0" opacity="100" rx="-6.0" ry="6.0" stroke="#000" stroke-width="1" /><ellipse cx="610.0" cy="627.0" fill="#D0D0D0" opacity="100" rx="-6.0" ry="6.0" stroke="#000" stroke-width="1" /><ellipse cx="563.0" cy="627.0" fill="#D0D0D0" opacity="100" rx="-6.0" ry="6.0" stroke="#000" stroke-width="1" /><ellipse cx="516.0" cy="627.0" fill="#D0D0D0" opacity="100" rx="-6.0" ry="6.0" stroke="#000" stroke-width="1" /><ellipse cx="469.0" cy="627.0" fill="#D0D0D0" opacity="100" rx="-6.0" ry="6.0" stroke="#000" stroke-width="1" /><ellipse cx="422.0" cy="627.0" fill="#D0D0D0" opacity="100" rx="-6.0" ry="6.0" stroke="#000" stroke-width="1" /><ellipse cx="375.0" cy="627.0" fill="#D0D0D0" opacity="100" rx="-6.0" ry="6.0" stroke="#000" stroke-width="1" /><ellipse cx="328.0" cy="627.0" fill="#D0D0D0" opacity="100" rx="-6.0" ry="6.0" stroke="#000" stroke-width="1" /><ellipse cx="281.0" cy="627.0" fill="#D0D0D0" opacity="100" rx="-6.0" ry="6.0" stroke="#000" stroke-width="1" /><polyline fill="none" opacity="100" points="941.0,471.0 861.0,471.0 861.0,535.0 855.0,535.0 855.0,547.0 837.0,547.0 837.0,535.0 747.0,535.0 747.0,575.0 696.0,575.0 696.0,564.0" stroke="#000" stroke-width="1" /><polyline fill="none" opacity="100" points="941.0,489.0 879.0,489.0 879.0,673.0 855.0,673.0 855.0,660.0 837.0,660.0 837.0,673.0 747.0,673.0 747.0,633.0 696.0,633.0 696.0,644.0" stroke="#000" stroke-width="1" /><polyline fill="none" opacity="100" points="939.0,489.0 939.0,471.0" stroke="#000" stroke-width="1" /><polyline fill="none" opacity="100" points="935.0,489.0 935.0,471.0" stroke="#000" stroke-width="1" /><polyline fill="none" opacity="100" points="931.0,489.0 931.0,471.0" stroke="#000" stroke-width="1" /><polyline fill="none" opacity="100" points="927.0,489.0 927.0,471.0" stroke="#000" stroke-width="1" /><polyline fill="none" opacity="100" points="923.0,489.0 923.0,471.0" stroke="#000" stroke-width="1" /><polyline fill="none" opacity="100" points="919.0,489.0 919.0,471.0" stroke="#000" stroke-width="1" /><polyline fill="none" opacity="100" points="915.0,489.0 915.0,471.0" stroke="#000" stroke-width="1" /><polyline fill="none" opacity="100" points="911.0,489.0 911.0,471.0" stroke="#000" stroke-width="1" /><polyline fill="none" opacity="100" points="907.0,489.0 907.0,471.0" stroke="#000" stroke-width="1" /><polyline fill="none" opacity="100" points="903.0,489.0 903.0,471.0" stroke="#000" stroke-width="1" /><polyline fill="none" opacity="100" points="899.0,489.0 899.0,471.0" stroke="#000" stroke-width="1" /><polyline fill="none" opacity="100" points="895.0,489.0 895.0,471.0" stroke="#000" stroke-width="1" /><polyline fill="none" opacity="100" points="743.0,575.0 743.0,633.0" stroke="#000" stroke-width="1" /><polyline fill="none" opacity="100" points="739.0,575.0 739.0,633.0" stroke="#000" stroke-width="1" /><polyline fill="none" opacity="100" points="735.0,575.0 735.0,633.0" stroke="#000" stroke-width="1" /><polyline fill="none" opacity="100" points="731.0,575.0 731.0,633.0" stroke="#000" stroke-width="1" /><polyline fill="none" opacity="100" points="727.0,575.0 727.0,633.0" stroke="#000" stroke-width="1" /><polyline fill="none" opacity="100" points="723.0,575.0 723.0,633.0" stroke="#000" stroke-width="1" /><polyline fill="none" opacity="100" points="719.0,575.0 719.0,633.0" stroke="#000" stroke-width="1" /><polyline fill="none" opacity="100" points="715.0,575.0 715.0,633.0" stroke="#000" stroke-width="1" /><polyline fill="none" opacity="100" points="711.0,575.0 711.0,633.0" stroke="#000" stroke-width="1" /><polyline fill="none" opacity="100" points="707.0,575.0 707.0,633.0" stroke="#000" stroke-width="1" /><polyline fill="none" opacity="100" points="703.0,575.0 703.0,633.0" stroke="#000" stroke-width="1" /><polyline fill="none" opacity="100" points="699.0,575.0 699.0,633.0" stroke="#000" stroke-width="1" /><polygon fill="#D0D0D0" opacity="100" points="855.0,575.0 855.0,631.0 837.0,631.0 837.0,575.0" stroke="#000" stroke-width="1" /><polyline fill="none" opacity="100" points="756.0,535.0 756.0,564.0 747.0,564.0" stroke="#000" stroke-width="1" /><text fill="#FFF" font-family="Arial" font-size="10" font-weight="normal" opacity="100" transform="rotate(90.0 757.0,537.0) translate(0 10)" x="757.0" y="537.0">кассы</text><polyline fill="none" opacity="100" points="747.0,574.0 774.0,574.0" stroke="#000" stroke-width="0.5" /><polygon fill="none" opacity="100" points="808.0,606.0 802.0,606.0 802.0,612.0 808.0,612.0" stroke="#000" stroke-width="1" /><polyline fill="none" opacity="100" points="805.0,612.0 805.0,617.0" stroke="#000" stroke-width="0.5" /><polyline fill="none" opacity="100" points="805.0,661.0 805.0,673.0" stroke="#000" stroke-width="0.5" /><polyline fill="none" opacity="100" points="776.0,573.0 773.0,576.0" stroke="#090" stroke-width="1" /><polyline fill="none" opacity="100" points="778.8284,575.8284 775.8284,578.8284" stroke="#090" stroke-width="1" /><polyline fill="none" opacity="100" points="781.6569,578.6569 778.6569,581.6569" stroke="#090" stroke-width="1" /><polyline fill="none" opacity="100" points="784.4853,581.4853 781.4853,584.4853" stroke="#090" stroke-width="1" /><polyline fill="none" opacity="100" points="787.3137,584.3137 784.3137,587.3137" stroke="#090" stroke-width="1" /><polyline fill="none" opacity="100" points="790.1421,587.1421 787.1421,590.1421" stroke="#090" stroke-width="1" /><polyline fill="none" opacity="100" points="792.9706,589.9706 789.9706,592.9706" stroke="#090" stroke-width="1" /><polyline fill="none" opacity="100" points="795.799,592.799 792.799,595.799" stroke="#090" stroke-width="1" /><polyline fill="none" opacity="100" points="798.6274,595.6274 795.6274,598.6274" stroke="#090" stroke-width="1" /><polyline fill="none" opacity="100" points="801.4558,598.4558 798.4558,601.4558" stroke="#090" stroke-width="1" /><polyline fill="none" opacity="100" points="804.2843,601.2843 801.2843,604.2843" stroke="#090" stroke-width="1" /><polyline fill="none" opacity="100" points="807.0,617.0 803.0,617.0" stroke="#F00" stroke-width="1" /><polyline fill="none" opacity="100" points="807.0,621.0 803.0,621.0" stroke="#F00" stroke-width="1" /><polyline fill="none" opacity="100" points="807.0,625.0 803.0,625.0" stroke="#F00" stroke-width="1" /><polyline fill="none" opacity="100" points="807.0,629.0 803.0,629.0" stroke="#F00" stroke-width="1" /><polyline fill="none" opacity="100" points="807.0,633.0 803.0,633.0" stroke="#F00" stroke-width="1" /><polyline fill="none" opacity="100" points="807.0,637.0 803.0,637.0" stroke="#F00" stroke-width="1" /><polyline fill="none" opacity="100" points="807.0,641.0 803.0,641.0" stroke="#F00" stroke-width="1" /><polyline fill="none" opacity="100" points="807.0,645.0 803.0,645.0" stroke="#F00" stroke-width="1" /><polyline fill="none" opacity="100" points="807.0,649.0 803.0,649.0" stroke="#F00" stroke-width="1" /><polyline fill="none" opacity="100" points="807.0,653.0 803.0,653.0" stroke="#F00" stroke-width="1" /><polyline fill="none" opacity="100" points="807.0,657.0 803.0,657.0" stroke="#F00" stroke-width="1" /><polyline fill="none" opacity="100" points="807.0,661.0 803.0,661.0" stroke="#F00" stroke-width="1" /><polyline fill="none" opacity="100" points="157.0,454.0 -65.0,454.0" stroke="#000" stroke-width="1" /><polyline fill="none" opacity="100" points="155.0,816.0 -90.0,816.0" stroke="#000" stroke-width="1" /><polyline fill="none" opacity="100" points="-65.0,472.0 73.0,472.0 73.0,798.0 -90.0,798.0" stroke="#000" stroke-width="1" /><polyline fill="none" opacity="100" points="157.0,472.0 97.0,472.0 97.0,547.0 115.0,547.0 115.0,535.0 193.0,535.0 193.0,575.0 246.0,575.0 246.0,564.0" stroke="#000" stroke-width="1" /><polyline fill="none" opacity="100" points="155.0,798.0 90.0,798.0 90.0,673.0 97.0,673.0 97.0,660.0 115.0,660.0 115.0,673.0 193.0,673.0 193.0,633.0 246.0,633.0 246.0,644.0" stroke="#000" stroke-width="1" /><polyline fill="none" opacity="100" points="242.0,575.0 242.0,633.0" stroke="#000" stroke-width="1" /><polyline fill="none" opacity="100" points="238.0,575.0 238.0,633.0" stroke="#000" stroke-width="1" /><polyline fill="none" opacity="100" points="234.0,575.0 234.0,633.0" stroke="#000" stroke-width="1" /><polyline fill="none" opacity="100" points="230.0,575.0 230.0,633.0" stroke="#000" stroke-width="1" /><polyline fill="none" opacity="100" points="226.0,575.0 226.0,633.0" stroke="#000" stroke-width="1" /><polyline fill="none" opacity="100" points="222.0,575.0 222.0,633.0" stroke="#000" stroke-width="1" /><polyline fill="none" opacity="100" points="218.0,575.0 218.0,633.0" stroke="#000" stroke-width="1" /><polyline fill="none" opacity="100" points="214.0,575.0 214.0,633.0" stroke="#000" stroke-width="1" /><polyline fill="none" opacity="100" points="210.0,575.0 210.0,633.0" stroke="#000" stroke-width="1" /><polyline fill="none" opacity="100" points="206.0,575.0 206.0,633.0" stroke="#000" stroke-width="1" /><polyline fill="none" opacity="100" points="202.0,575.0 202.0,633.0" stroke="#000" stroke-width="1" /><polyline fill="none" opacity="100" points="198.0,575.0 198.0,633.0" stroke="#000" stroke-width="1" /><polyline fill="none" opacity="100" points="-88.0,798.0 -88.0,816.0" stroke="#000" stroke-width="1" /><polyline fill="none" opacity="100" points="-84.0,798.0 -84.0,816.0" stroke="#000" stroke-width="1" /><polyline fill="none" opacity="100" points="-80.0,798.0 -80.0,816.0" stroke="#000" stroke-width="1" /><polyline fill="none" opacity="100" points="-76.0,798.0 -76.0,816.0" stroke="#000" stroke-width="1" /><polyline fill="none" opacity="100" points="-72.0,798.0 -72.0,816.0" stroke="#000" stroke-width="1" /><polyline fill="none" opacity="100" points="-68.0,798.0 -68.0,816.0" stroke="#000" stroke-width="1" /><polyline fill="none" opacity="100" points="-64.0,798.0 -64.0,816.0" stroke="#000" stroke-width="1" /><polyline fill="none" opacity="100" points="-60.0,798.0 -60.0,816.0" stroke="#000" stroke-width="1" /><polyline fill="none" opacity="100" points="-56.0,798.0 -56.0,816.0" stroke="#000" stroke-width="1" /><polyline fill="none" opacity="100" points="-34.0,454.0 -34.0,472.0" stroke="#000" stroke-width="1" /><polyline fill="none" opacity="100" points="-38.0,454.0 -38.0,472.0" stroke="#000" stroke-width="1" /><polyline fill="none" opacity="100" points="-42.0,454.0 -42.0,472.0" stroke="#000" stroke-width="1" /><polyline fill="none" opacity="100" points="-46.0,454.0 -46.0,472.0" stroke="#000" stroke-width="1" /><polyline fill="none" opacity="100" points="-50.0,454.0 -50.0,472.0" stroke="#000" stroke-width="1" /><polyline fill="none" opacity="100" points="-54.0,454.0 -54.0,472.0" stroke="#000" stroke-width="1" /><polyline fill="none" opacity="100" points="-58.0,454.0 -58.0,472.0" stroke="#000" stroke-width="1" /><polyline fill="none" opacity="100" points="-62.0,454.0 -62.0,472.0" stroke="#000" stroke-width="1" /><polyline fill="none" opacity="100" points="153.0,454.0 153.0,472.0" stroke="#000" stroke-width="1" /><polyline fill="none" opacity="100" points="149.0,454.0 149.0,472.0" stroke="#000" stroke-width="1" /><polyline fill="none" opacity="100" points="145.0,454.0 145.0,472.0" stroke="#000" stroke-width="1" /><polyline fill="none" opacity="100" points="141.0,454.0 141.0,472.0" stroke="#000" stroke-width="1" /><polyline fill="none" opacity="100" points="137.0,454.0 137.0,472.0" stroke="#000" stroke-width="1" /><polyline fill="none" opacity="100" points="133.0,454.0 133.0,472.0" stroke="#000" stroke-width="1" /><polyline fill="none" opacity="100" points="129.0,454.0 129.0,472.0" stroke="#000" stroke-width="1" /><polyline fill="none" opacity="100" points="125.0,454.0 125.0,472.0" stroke="#000" stroke-width="1" /><polyline fill="none" opacity="100" points="121.0,454.0 121.0,472.0" stroke="#000" stroke-width="1" /><polyline fill="none" opacity="100" points="153.0,798.0 153.0,816.0" stroke="#000" stroke-width="1" /><polyline fill="none" opacity="100" points="149.0,798.0 149.0,816.0" stroke="#000" stroke-width="1" /><polyline fill="none" opacity="100" points="145.0,798.0 145.0,816.0" stroke="#000" stroke-width="1" /><polyline fill="none" opacity="100" points="141.0,798.0 141.0,816.0" stroke="#000" stroke-width="1" /><polyline fill="none" opacity="100" points="137.0,798.0 137.0,816.0" stroke="#000" stroke-width="1" /><polyline fill="none" opacity="100" points="133.0,798.0 133.0,816.0" stroke="#000" stroke-width="1" /><polyline fill="none" opacity="100" points="129.0,798.0 129.0,816.0" stroke="#000" stroke-width="1" /><polyline fill="none" opacity="100" points="125.0,798.0 125.0,816.0" stroke="#000" stroke-width="1" /><polyline fill="none" opacity="100" points="121.0,798.0 121.0,816.0" stroke="#000" stroke-width="1" /><polyline fill="none" opacity="100" points="90.0,786.0 73.0,786.0" stroke="#000" stroke-width="1" /><polyline fill="none" opacity="100" points="90.0,790.0 73.0,790.0" stroke="#000" stroke-width="1" /><polyline fill="none" opacity="100" points="90.0,794.0 73.0,794.0" stroke="#000" stroke-width="1" /><polyline fill="none" opacity="100" points="69.0,798.0 69.0,816.0" stroke="#000" stroke-width="1" /><polyline fill="none" opacity="100" points="65.0,798.0 65.0,816.0" stroke="#000" stroke-width="1" /><polyline fill="none" opacity="100" points="61.0,798.0 61.0,816.0" stroke="#000" stroke-width="1" /><polyline fill="none" opacity="100" points="69.0,454.0 69.0,472.0" stroke="#000" stroke-width="1" /><polyline fill="none" opacity="100" points="65.0,454.0 65.0,472.0" stroke="#000" stroke-width="1" /><polyline fill="none" opacity="100" points="61.0,454.0 61.0,472.0" stroke="#000" stroke-width="1" /><polygon fill="#D0D0D0" opacity="100" points="115.0,575.0 115.0,631.0 97.0,631.0 97.0,575.0" stroke="#000" stroke-width="1" /><polyline fill="none" opacity="100" points="193.0,646.0 185.0,646.0 185.0,673.0" stroke="#000" stroke-width="1" /><text fill="#FFF" font-family="Arial" font-size="10" font-weight="normal" opacity="100" transform="rotate(90.0 195.0,648.0) translate(0 10)" x="195.0" y="648.0">кассы</text><polyline fill="none" opacity="100" points="193.0,643.0 178.0,643.0" stroke="#000" stroke-width="0.5" /><polygon fill="none" opacity="100" points="138.0,605.0 138.0,599.0 144.0,599.0 144.0,605.0" stroke="#000" stroke-width="1" /><polyline fill="none" opacity="100" points="141.0,599.0 141.0,585.0" stroke="#000" stroke-width="0.5" /><polyline fill="none" opacity="100" points="141.0,548.0 141.0,535.0" stroke="#000" stroke-width="0.5" /><polyline fill="none" opacity="100" points="176.0,644.0 179.0,641.0" stroke="#090" stroke-width="1" /><polyline fill="none" opacity="100" points="173.2512,641.0941 176.2512,638.0941" stroke="#090" stroke-width="1" /><polyline fill="none" opacity="100" points="170.5024,638.1883 173.5024,635.1883" stroke="#090" stroke-width="1" /><polyline fill="none" opacity="100" points="167.7536,635.2824 170.7536,632.2824" stroke="#090" stroke-width="1" /><polyline fill="none" opacity="100" points="165.0048,632.3765 168.0048,629.3765" stroke="#090" stroke-width="1" /><polyline fill="none" opacity="100" points="162.256,629.4706 165.256,626.4706" stroke="#090" stroke-width="1" /><polyline fill="none" opacity="100" points="159.5072,626.5648 162.5072,623.5648" stroke="#090" stroke-width="1" /><polyline fill="none" opacity="100" points="156.7584,623.6589 159.7584,620.6589" stroke="#090" stroke-width="1" /><polyline fill="none" opacity="100" points="154.0096,620.753 157.0096,617.753" stroke="#090" stroke-width="1" /><polyline fill="none" opacity="100" points="151.2608,617.8471 154.2608,614.8471" stroke="#090" stroke-width="1" /><polyline fill="none" opacity="100" points="148.512,614.9413 151.512,611.9413" stroke="#090" stroke-width="1" /><polyline fill="none" opacity="100" points="145.7632,612.0354 148.7632,609.0354" stroke="#090" stroke-width="1" /><polyline fill="none" opacity="100" points="143.0144,609.1295 146.0144,606.1295" stroke="#090" stroke-width="1" /><polyline fill="none" opacity="100" points="139.0,585.0 143.0,585.0" stroke="#F00" stroke-width="1" /><polyline fill="none" opacity="100" points="139.0,581.0 143.0,581.0" stroke="#F00" stroke-width="1" /><polyline fill="none" opacity="100" points="139.0,577.0 143.0,577.0" stroke="#F00" stroke-width="1" /><polyline fill="none" opacity="100" points="139.0,573.0 143.0,573.0" stroke="#F00" stroke-width="1" /><polyline fill="none" opacity="100" points="139.0,569.0 143.0,569.0" stroke="#F00" stroke-width="1" /><polyline fill="none" opacity="100" points="139.0,565.0 143.0,565.0" stroke="#F00" stroke-width="1" /><polyline fill="none" opacity="100" points="139.0,561.0 143.0,561.0" stroke="#F00" stroke-width="1" /><polyline fill="none" opacity="100" points="139.0,557.0 143.0,557.0" stroke="#F00" stroke-width="1" /><polyline fill="none" opacity="100" points="139.0,553.0 143.0,553.0" stroke="#F00" stroke-width="1" /><polyline fill="none" opacity="100" points="139.0,549.0 143.0,549.0" stroke="#F00" stroke-width="1" /><polyline fill="none" opacity="100" points="773.0,643.0 791.0,643.0" stroke="#F00" stroke-width="1" /><polygon fill="#F00" opacity="100" points="785.784,644.3976 791.0,643.0 785.784,641.6024" stroke="#F00" stroke-width="1" /><polyline fill="none" opacity="100" points="171.0,564.0 154.0,564.0" stroke="#F00" stroke-width="1" /><polygon fill="#F00" opacity="100" points="158.9262,562.68 154.0,564.0 158.9262,565.32" stroke="#F00" stroke-width="1" /><polyline fill="none" opacity="100" points="122.0,645.0 138.0,639.0" stroke="#090" stroke-width="1" /><polygon fill="#090" opacity="100" points="133.8294,641.981 138.0,639.0 132.8977,639.4963" stroke="#090" stroke-width="1" /><polyline fill="none" opacity="100" points="831.0,561.0 814.0,570.0" stroke="#090" stroke-width="1" /><polygon fill="#090" opacity="100" points="818.2274,566.072 814.0,570.0 819.625,568.712" stroke="#090" stroke-width="1" /><text fill="#FFF" font-family="Arial" font-size="25" font-weight="bold" opacity="100" transform="rotate(90.0 -172.0,498.0) translate(0 25)" x="-172.0" y="498.0">A</text><text fill="#FFF" font-family="Arial" font-size="25" font-weight="bold" opacity="100" transform="rotate(90.0 183.0,321.0) translate(0 25)" x="183.0" y="321.0">A</text><text fill="#FFF" font-family="Arial" font-size="25" font-weight="bold" opacity="100" transform="rotate(90.0 244.0,778.0) translate(0 25)" x="244.0" y="778.0">A</text><text fill="#00AFAF" font-family="Arial" font-size="15" font-weight="normal" opacity="100" transform="rotate(-0.0 -287.0,442.0) translate(0 15)" x="-287.0" y="442.0">"Троллейбусы 3 5 12 (в центр)"</text><text fill="#00AFAF" font-family="Arial" font-size="15" font-weight="normal" opacity="100" transform="rotate(-0.0 -288.0,461.0) translate(0 15)" x="-288.0" y="461.0">"Автобусы 56 108 111 (в центр)"</text><polyline fill="none" opacity="100" points="-146.0,532.0 -232.0,532.0" stroke="#00AFAF" stroke-width="1" /><polygon fill="#00AFAF" opacity="100" points="-207.0791,525.3225 -232.0,532.0 -207.0791,538.6775" stroke="#00AFAF" stroke-width="1" /><text fill="#00AFAF" font-family="Arial" font-size="15" font-weight="normal" opacity="100" transform="rotate(90.0 234.0,323.0) translate(0 15)" x="234.0" y="323.0">Троллейбус 13</text><text fill="#00AFAF" font-family="Arial" font-size="15" font-weight="normal" opacity="100" transform="rotate(90.0 216.0,309.0) translate(0 15)" x="216.0" y="309.0">(к Коммунистической)</text><polyline fill="none" opacity="100" points="199.0,407.0 199.0,312.0" stroke="#00AFAF" stroke-width="1" /><polygon fill="#00AFAF" opacity="100" points="206.3763,339.5289 199.0,312.0 191.6237,339.5289" stroke="#00AFAF" stroke-width="1" /><text fill="#00AFAF" font-family="Arial" font-size="15" font-weight="normal" opacity="100" transform="rotate(90.0 279.0,735.0) translate(0 15)" x="279.0" y="735.0">"Автобусы 56 108 111 (из центра)"</text><polyline fill="none" opacity="100" points="251.0,729.0 327.0,729.0" stroke="#00AFAF" stroke-width="1" /><polygon fill="#00AFAF" opacity="100" points="304.9769,734.9011 327.0,729.0 304.9769,723.0989" stroke="#00AFAF" stroke-width="1" /><text fill="#00AFAF" font-family="Arial" font-size="15" font-weight="normal" opacity="100" transform="rotate(90.0 297.0,735.0) translate(0 15)" x="297.0" y="735.0">"Троллейбусы 3 5 12 (из центра)"</text><text fill="#00AFAF" font-family="Arial" font-size="15" font-weight="normal" opacity="100" transform="rotate(90.0 -147.0,309.0) translate(0 15)" x="-147.0" y="309.0">Рыночный комплекс</text><text fill="#00AFAF" font-family="Arial" font-size="15" font-weight="normal" opacity="100" transform="rotate(90.0 -162.0,345.0) translate(0 15)" x="-162.0" y="345.0">"Омега"</text><text fill="#00AFAF" font-family="Arial" font-size="15" font-weight="normal" opacity="100" transform="rotate(-0.0 127.0,704.0) translate(0 15)" x="127.0" y="704.0">Проспект Космонавтов</text><text fill="#00AFAF" font-family="Arial" font-size="15" font-weight="normal" opacity="100" transform="rotate(-0.0 624.0,919.0) translate(0 15)" x="624.0" y="919.0">Детская больница №4</text><text fill="#00AFAF" font-family="Arial" font-size="15" font-weight="normal" opacity="100" transform="rotate(90.0 60.0,568.0) translate(0 15)" x="60.0" y="568.0">ул. Фрезеровщиков</text></g></g></svg>