<?xml version="1.0" encoding="utf-8" ?>
<svg baseProfile="tiny" height="1060px" version="1.2" width="1150px" xmlns="http://www.w3.org/2000/svg" xmlns:ev="http://www.w3.org/2001/xml-events" xmlns:xlink="http://www.w3.org/1999/xlink"><defs /><g><text fill="#0404A4" font-family="Arial" font-size="35" font-weight="bold" opacity="100" x="64.75" y="46.5">Osaka</text><text fill="#0404A4" font-family="Arial" font-size="10" font-weight="normal" opacity="100" x="68.5" y="64.0">(Attention! All time intervals in this version equal 2 minutes)</text><text fill="#E51F1F" font-family="Arial" font-size="12" font-weight="bold" opacity="100" x="101.2" y="91.8">Midosuji</text><text fill="#522786" font-family="Arial" font-size="12" font-weight="bold" opacity="100" x="101.2" y="110.8">Tanimachi</text><text fill="#0076BB" font-family="Arial" font-size="12" font-weight="bold" opacity="100" x="101.2" y="129.8">Yotsubashi</text><text fill="#009A67" font-family="Arial" font-size="12" font-weight="bold" opacity="100" x="101.2" y="148.8">Chuo</text><text fill="#E44E93" font-family="Arial" font-size="12" font-weight="bold" opacity="100" x="101.2" y="167.8">Sennichimae</text><text fill="#814721" font-family="Arial" font-size="12" font-weight="bold" opacity="100" x="101.2" y="186.8">Sakaisuji</text><text fill="#A9CC51" font-family="Arial" font-size="12" font-weight="bold" opacity="100" x="101.2" y="205.8">Nagahori Tsurumi-ryokuchi</text><text fill="#EF7B1A" font-family="Arial" font-size="12" font-weight="bold" opacity="100" x="101.2" y="224.8">Imazatosuji</text><text fill="#2098D0" font-family="Arial" font-size="12" font-weight="bold" opacity="100" x="101.2" y="243.8">Nanko Port Town</text><polygon fill="#D9F5FF" opacity="100" points="0.0,411.0 112.0,300.0 68.0,373.0 162.0,309.0 240.0,280.0 252.0,304.0 166.0,358.0 0.0,525.0 0.0,659.0 37.0,622.0 37.0,525.0 68.0,525.0 68.0,591.0 192.0,467.0 211.0,486.0 56.0,641.0 202.0,787.0 202.0,852.0 176.0,852.0 176.0,799.0 37.0,660.0 0.0,697.0 0.0,757.0 27.0,784.0 65.0,746.0 79.0,760.0 41.0,798.0 66.0,823.0 90.0,823.0 90.0,861.0 129.0,861.0 129.0,946.0 251.0,946.0 400.0,983.0 227.0,971.0 129.0,971.0 129.0,1060.0 0.0,1060.0" stroke="#D9F5FF" stroke-width="1" /><polyline fill="none" opacity="100" points="372.0,979.0 382.3438,980.25 392.875,981.0 403.6069,981.2239 414.5,981.0 425.4751,980.4851 436.6641,979.418 448.1064,977.7202 460.0,975.0 472.7139,970.5259 485.7734,965.2383 498.8181,959.8062 511.875,954.3125 525.051,948.8188 537.7461,944.0586 549.7222,940.3667 560.0,939.0 566.8677,942.0747 572.2852,947.3477 577.5225,953.3472 582.9375,959.875 589.1221,966.5981 596.6445,972.4492 605.854,976.9546 618.0,978.0 635.0015,972.0571 655.1992,962.8945 677.6492,952.8706 702.125,942.6875 728.0442,933.6294 755.5312,926.3086 784.625,921.1753 815.0,920.0 846.2344,925.3755 878.6562,935.2852 912.4414,948.6487 947.625,965.25 984.3242,984.3689 1022.4688,1006.4375 1062.0234,1031.6719 1103.0,1060.0" stroke="#D9F5FF" stroke-width="5" /><polyline fill="none" opacity="100" points="101.0,314.0 105.2031,309.4062 109.5625,304.875 114.0786,300.407 118.75,296.0 123.5737,291.6497 128.5547,287.3633 133.6943,283.1431 139.0,279.0 144.4854,274.9546 150.1328,270.9805 155.9365,267.0605 161.875,263.1875 167.9072,259.3496 174.0859,255.543 180.4248,251.7632 187.0,248.0 193.958,244.2407 201.1016,240.4883 208.2898,236.7283 215.5,233.0 222.7122,229.387 229.7773,225.7422 236.6245,222.0186 243.0,218.0 248.481,213.2861 253.5039,208.3828 258.3484,203.6577 263.0625,199.125 267.7356,194.7603 272.5234,191.0469 277.499,188.1895 283.0,187.0 289.5791,188.873 296.6641,192.2656 303.8928,196.1846 311.1875,200.375 318.4021,204.4014 325.3789,207.8125 332.0356,210.3477 338.0,211.0 342.6792,208.1992 346.6523,203.375 350.2542,197.3394 353.625,190.375 357.0525,183.1177 360.4297,175.3203 363.749,166.9346 367.0,158.0 370.0713,148.4014 373.2578,138.5547 376.8113,128.8267 380.75,119.25 385.0188,109.7397 390.0898,101.0156 396.1792,93.4121 404.0,88.0 414.77,86.6035 427.1914,87.2969 440.4324,88.8503 454.3125,91.0 468.511,93.2688 482.6172,95.0664 496.417,96.0864 509.0,95.0 518.9111,89.6831 527.5703,82.2148 535.8552,73.8679 543.9375,64.9375 552.178,56.0364 560.8867,47.4844 570.2163,39.4668 581.0,33.0 594.5688,29.6504 609.582,27.9531 625.22,27.0417 641.25,26.6875 657.2117,26.3821 672.9688,26.0977 688.4102,25.7856 703.0,25.0 715.9648,23.1167 727.9062,20.6211 739.1465,17.7732 749.75,14.625 759.9316,11.3499 769.5625,7.8438 778.5781,4.0547 787.0,0.0" stroke="#D9F5FF" stroke-width="5" /><polyline fill="none" opacity="100" points="230.0,300.0 233.7344,297.9766 238.6875,295.5312 244.8789,292.6567 252.25,289.375 260.6836,285.73 270.375,281.6484 281.3828,277.1084 294.0,272.0 308.7734,266.1182 325.0,259.7266 342.2349,253.0 360.25,246.0 378.6675,238.8203 397.4922,231.5391 416.6396,224.2119 436.0,217.0 455.54,210.1396 474.9453,203.4609 493.9016,196.8745 512.375,190.375 530.4714,183.9185 547.457,177.5312 562.9829,171.2344 576.0,165.0 584.7241,158.7812 591.0117,152.6562 596.0063,146.6724 600.0625,140.875 603.853,135.3394 607.5664,130.0234 611.3755,124.9287 616.0,120.0 622.4487,115.1104 630.0273,110.4766 638.4241,106.2808 647.5,102.5 656.8201,99.0435 666.9609,96.2969 678.1631,94.416 691.0,94.0 706.5479,96.0996 723.5391,99.5156 741.1436,103.48 759.125,107.75 777.1064,111.9146 794.6797,115.7109 811.5967,118.9521 827.0,121.0 839.5674,120.915 850.4453,119.4141 860.2871,116.8765 869.25,113.375 877.7363,109.1665 885.6641,104.0781 893.0088,98.0215 900.0,91.0 906.9365,82.9785 913.5859,73.9844 919.8237,64.0322 925.625,53.125 930.9067,41.2725 935.7188,28.4688 940.0859,14.7109 944.0,0.0" stroke="#D9F5FF" stroke-width="30" /><polyline fill="none" opacity="100" points="124.0,871.0 136.7031,863.9922 149.0625,856.8438 161.0933,849.5591 172.75,842.125 183.9419,834.5151 194.8203,826.7734 205.4307,818.9131 216.0,811.0 226.9521,803.1572 237.7422,795.2266 248.0068,787.1025 257.625,778.75 266.415,770.1162 274.1953,761.1484 280.8447,751.8115 286.0,742.0 289.1162,731.5557 290.6172,720.6016 290.73,709.2036 289.5,697.375 287.0786,685.1597 283.375,672.5312 278.3438,659.4766 272.0,646.0" stroke="#D9F5FF" stroke-width="5" /><polyline fill="none" opacity="100" points="196.0,476.0 201.5469,467.0547 207.9375,458.3438 215.1968,449.865 223.25,441.625 231.9478,433.637 241.5391,425.8789 252.0986,418.3442 264.0,411.0 277.9404,403.7847 293.0234,396.7773 308.6226,390.0237 324.625,383.5625 340.9048,377.4626 356.875,371.6797 372.25,366.21 386.0,361.0 396.4219,355.9307 405.25,351.1953 413.582,346.958 421.625,343.1875 429.7773,339.7842 438.5625,337.1172 448.2344,335.3311 460.0,335.0 475.8125,337.1377 493.6875,340.5703 512.4167,344.5432 531.625,348.8125 550.5774,352.9705 569.1445,356.7539 587.1782,359.9731 604.0,362.0 618.6851,361.9136 631.8242,360.4023 643.6753,357.8074 654.3125,354.25 664.0513,350.0891 672.4258,344.9531 679.2173,338.6895 684.0,331.0 685.9976,321.2949 686.043,310.2969 684.6584,298.4805 682.0,286.0 678.3513,273.0977 673.8516,259.9844 668.6025,246.8027 663.0,234.0 657.624,222.2441 652.0234,211.0156 645.9565,200.0361 639.375,189.25 632.1177,178.4717 624.2812,167.8125 615.9141,157.3281 607.0,147.0" stroke="#D9F5FF" stroke-width="5" /><polyline fill="none" opacity="100" points="271.0,645.0 268.3125,635.0703 266.0,625.4062 264.0625,616.0078 262.5,606.875 261.3125,598.0078 260.5,589.4062 260.0625,581.0703 260.0,573.0 260.3125,565.1953 261.0,557.6562 262.0625,550.3828 263.5,543.375 265.3125,536.6328 267.5,530.1562 270.0625,523.9453 273.0,518.0" stroke="#D9F5FF" stroke-width="3" /><polyline fill="none" opacity="100" points="929.0,-8.0 962.0,-8.0" stroke="#FFF" stroke-width="17" /></g></svg>