<?xml version="1.0" encoding="utf-8" ?>
<svg baseProfile="tiny" height="800px" version="1.2" width="900px" xmlns="http://www.w3.org/2000/svg" xmlns:ev="http://www.w3.org/2001/xml-events" xmlns:xlink="http://www.w3.org/1999/xlink"><defs /><g><g transform="rotate(35.0,450.0,400.0)"><polygon fill="#D03036" opacity="100" points="254.0,401.0 704.0,401.0 704.0,431.0 254.0,431.0" stroke="#000" stroke-width="1" /><polygon fill="#D03036" opacity="100" points="254.0,511.0 704.0,511.0 704.0,541.0 254.0,541.0" stroke="#000" stroke-width="1" /><text fill="#D03036" font-family="Arial" font-size="20" font-weight="normal" opacity="100" transform="rotate(-0.0 254.0,377.0) translate(0 20)" x="254.0" y="377.0">&lt;&lt; Козья слобода</text><text fill="#D03036" font-family="Arial" font-size="20" font-weight="normal" opacity="100" transform="rotate(-0.0 546.0,541.0) translate(0 20)" x="546.0" y="541.0">Площадь Тукая &gt;&gt;</text><text fill="#D03036" font-family="Arial" font-size="25" font-weight="bold" opacity="100" transform="rotate(-0.0 402.0,454.0) translate(0 25)" x="402.0" y="454.0">Кремлёвская</text><polyline fill="none" opacity="100" points="254.0,511.0 254.0,506.0 239.0,506.0 239.0,502.0" stroke="#000" stroke-width="1" /><polyline fill="none" opacity="100" points="239.0,440.0 239.0,436.0 254.0,436.0 254.0,431.0" stroke="#000" stroke-width="1" /><polyline fill="none" opacity="100" points="183.0,502.0 183.0,512.0 107.0,512.0 107.0,504.0 96.0,504.0 96.0,522.0 72.0,588.0" stroke="#000" stroke-width="1" /><polyline fill="none" opacity="100" points="153.0,356.0 100.0,376.0 77.0,376.0 77.0,390.0 96.0,409.0 96.0,438.0 107.0,438.0 107.0,430.0 183.0,430.0 183.0,440.0" stroke="#000" stroke-width="1" /><polyline fill="none" opacity="100" points="147.0,340.0 99.0,358.0 59.0,358.0 59.0,382.0 -29.0,382.0" stroke="#000" stroke-width="1" /><polyline fill="none" opacity="100" points="-29.0,388.0 32.0,388.0" stroke="#000" stroke-width="1" /><polyline fill="none" opacity="100" points="-29.0,407.0 32.0,407.0" stroke="#000" stroke-width="1" /><polyline fill="none" opacity="100" points="-29.0,413.0 37.0,413.0 37.0,416.0" stroke="#000" stroke-width="1" /><polyline fill="none" opacity="100" points="55.0,416.0 55.0,413.0 59.0,413.0 72.0,426.0 72.0,518.0 49.0,580.0" stroke="#000" stroke-width="1" /><polyline fill="none" opacity="100" points="183.0,488.0 183.0,454.0" stroke="#000" stroke-width="1" /><polyline fill="none" opacity="100" points="187.0,488.0 187.0,454.0" stroke="#000" stroke-width="1" /><polyline fill="none" opacity="100" points="191.0,488.0 191.0,454.0" stroke="#000" stroke-width="1" /><polyline fill="none" opacity="100" points="195.0,488.0 195.0,454.0" stroke="#000" stroke-width="1" /><polyline fill="none" opacity="100" points="199.0,488.0 199.0,454.0" stroke="#000" stroke-width="1" /><polyline fill="none" opacity="100" points="203.0,488.0 203.0,454.0" stroke="#000" stroke-width="1" /><polyline fill="none" opacity="100" points="219.0,488.0 219.0,454.0" stroke="#000" stroke-width="1" /><polyline fill="none" opacity="100" points="223.0,488.0 223.0,454.0" stroke="#000" stroke-width="1" /><polyline fill="none" opacity="100" points="227.0,488.0 227.0,454.0" stroke="#000" stroke-width="1" /><polyline fill="none" opacity="100" points="231.0,488.0 231.0,454.0" stroke="#000" stroke-width="1" /><polyline fill="none" opacity="100" points="235.0,488.0 235.0,454.0" stroke="#000" stroke-width="1" /><polyline fill="none" opacity="100" points="239.0,488.0 239.0,454.0" stroke="#000" stroke-width="1" /><polyline fill="none" opacity="100" points="144.0,341.0 150.0,357.0" stroke="#000" stroke-width="1" /><polyline fill="none" opacity="100" points="140.262,342.424 146.262,358.424" stroke="#000" stroke-width="1" /><polyline fill="none" opacity="100" points="136.5241,343.848 142.5241,359.848" stroke="#000" stroke-width="1" /><polyline fill="none" opacity="100" points="132.7861,345.2719 138.7861,361.2719" stroke="#000" stroke-width="1" /><polyline fill="none" opacity="100" points="129.0482,346.6959 135.0482,362.6959" stroke="#000" stroke-width="1" /><polyline fill="none" opacity="100" points="125.3102,348.1199 131.3102,364.1199" stroke="#000" stroke-width="1" /><polyline fill="none" opacity="100" points="121.5723,349.5439 127.5723,365.5439" stroke="#000" stroke-width="1" /><polyline fill="none" opacity="100" points="117.8343,350.9679 123.8343,366.9679" stroke="#000" stroke-width="1" /><polyline fill="none" opacity="100" points="114.0964,352.3919 120.0964,368.3919" stroke="#000" stroke-width="1" /><polyline fill="none" opacity="100" points="110.3584,353.8158 116.3584,369.8158" stroke="#000" stroke-width="1" /><polyline fill="none" opacity="100" points="106.6205,355.2398 112.6205,371.2398" stroke="#000" stroke-width="1" /><polyline fill="none" opacity="100" points="102.8825,356.6638 108.8825,372.6638" stroke="#000" stroke-width="1" /><polyline fill="none" opacity="100" points="-20.0,388.0 -20.0,407.0" stroke="#000" stroke-width="1" /><polyline fill="none" opacity="100" points="-16.0,388.0 -16.0,407.0" stroke="#000" stroke-width="1" /><polyline fill="none" opacity="100" points="-12.0,388.0 -12.0,407.0" stroke="#000" stroke-width="1" /><polyline fill="none" opacity="100" points="-8.0,388.0 -8.0,407.0" stroke="#000" stroke-width="1" /><polyline fill="none" opacity="100" points="-4.0,388.0 -4.0,407.0" stroke="#000" stroke-width="1" /><polyline fill="none" opacity="100" points="0.0,388.0 0.0,407.0" stroke="#000" stroke-width="1" /><polyline fill="none" opacity="100" points="4.0,388.0 4.0,407.0" stroke="#000" stroke-width="1" /><polyline fill="none" opacity="100" points="8.0,388.0 8.0,407.0" stroke="#000" stroke-width="1" /><polyline fill="none" opacity="100" points="12.0,388.0 12.0,407.0" stroke="#000" stroke-width="1" /><polyline fill="none" opacity="100" points="16.0,388.0 16.0,407.0" stroke="#000" stroke-width="1" /><polyline fill="none" opacity="100" points="20.0,388.0 20.0,407.0" stroke="#000" stroke-width="1" /><polyline fill="none" opacity="100" points="24.0,388.0 24.0,407.0" stroke="#000" stroke-width="1" /><polygon fill="#D0D0D0" opacity="100" points="107.0,487.0 96.0,487.0 96.0,455.0 107.0,455.0" stroke="#000" stroke-width="1" /><polyline fill="none" opacity="100" points="181.0,443.0 181.0,451.0" stroke="#7F7F7F" stroke-width="1" /><polyline fill="none" opacity="100" points="185.0,443.0 185.0,451.0" stroke="#7F7F7F" stroke-width="1" /><polyline fill="none" opacity="100" points="189.0,443.0 189.0,451.0" stroke="#7F7F7F" stroke-width="1" /><polyline fill="none" opacity="100" points="193.0,443.0 193.0,451.0" stroke="#7F7F7F" stroke-width="1" /><polyline fill="none" opacity="100" points="197.0,443.0 197.0,451.0" stroke="#7F7F7F" stroke-width="1" /><polyline fill="none" opacity="100" points="201.0,443.0 201.0,451.0" stroke="#7F7F7F" stroke-width="1" /><polyline fill="none" opacity="100" points="205.0,443.0 205.0,451.0" stroke="#7F7F7F" stroke-width="1" /><polyline fill="none" opacity="100" points="209.0,443.0 209.0,451.0" stroke="#7F7F7F" stroke-width="1" /><polyline fill="none" opacity="100" points="213.0,443.0 213.0,451.0" stroke="#7F7F7F" stroke-width="1" /><polyline fill="none" opacity="100" points="217.0,443.0 217.0,451.0" stroke="#7F7F7F" stroke-width="1" /><polyline fill="none" opacity="100" points="221.0,443.0 221.0,451.0" stroke="#7F7F7F" stroke-width="1" /><polyline fill="none" opacity="100" points="225.0,443.0 225.0,451.0" stroke="#7F7F7F" stroke-width="1" /><polyline fill="none" opacity="100" points="229.0,443.0 229.0,451.0" stroke="#7F7F7F" stroke-width="1" /><polyline fill="none" opacity="100" points="233.0,443.0 233.0,451.0" stroke="#7F7F7F" stroke-width="1" /><polyline fill="none" opacity="100" points="237.0,443.0 237.0,451.0" stroke="#7F7F7F" stroke-width="1" /><polyline fill="none" opacity="100" points="241.0,443.0 241.0,451.0" stroke="#7F7F7F" stroke-width="1" /><polyline fill="none" opacity="100" points="181.0,499.0 181.0,491.0" stroke="#7F7F7F" stroke-width="1" /><polyline fill="none" opacity="100" points="185.0,499.0 185.0,491.0" stroke="#7F7F7F" stroke-width="1" /><polyline fill="none" opacity="100" points="189.0,499.0 189.0,491.0" stroke="#7F7F7F" stroke-width="1" /><polyline fill="none" opacity="100" points="193.0,499.0 193.0,491.0" stroke="#7F7F7F" stroke-width="1" /><polyline fill="none" opacity="100" points="197.0,499.0 197.0,491.0" stroke="#7F7F7F" stroke-width="1" /><polyline fill="none" opacity="100" points="201.0,499.0 201.0,491.0" stroke="#7F7F7F" stroke-width="1" /><polyline fill="none" opacity="100" points="205.0,499.0 205.0,491.0" stroke="#7F7F7F" stroke-width="1" /><polyline fill="none" opacity="100" points="209.0,499.0 209.0,491.0" stroke="#7F7F7F" stroke-width="1" /><polyline fill="none" opacity="100" points="213.0,499.0 213.0,491.0" stroke="#7F7F7F" stroke-width="1" /><polyline fill="none" opacity="100" points="217.0,499.0 217.0,491.0" stroke="#7F7F7F" stroke-width="1" /><polyline fill="none" opacity="100" points="221.0,499.0 221.0,491.0" stroke="#7F7F7F" stroke-width="1" /><polyline fill="none" opacity="100" points="225.0,499.0 225.0,491.0" stroke="#7F7F7F" stroke-width="1" /><polyline fill="none" opacity="100" points="229.0,499.0 229.0,491.0" stroke="#7F7F7F" stroke-width="1" /><polyline fill="none" opacity="100" points="233.0,499.0 233.0,491.0" stroke="#7F7F7F" stroke-width="1" /><polyline fill="none" opacity="100" points="237.0,499.0 237.0,491.0" stroke="#7F7F7F" stroke-width="1" /><polyline fill="none" opacity="100" points="241.0,499.0 241.0,491.0" stroke="#7F7F7F" stroke-width="1" /><polygon fill="#9B5509" opacity="100" points="174.0,499.0 247.0,499.0 247.0,502.0 174.0,502.0" stroke="#000" stroke-width="1" /><polygon fill="#9B5509" opacity="100" points="174.0,491.0 174.0,488.0 247.0,488.0 247.0,491.0" stroke="#000" stroke-width="1" /><polygon fill="#9B5509" opacity="100" points="174.0,454.0 174.0,451.0 247.0,451.0 247.0,454.0" stroke="#000" stroke-width="1" /><polygon fill="#9B5509" opacity="100" points="174.0,443.0 247.0,443.0 247.0,440.0 174.0,440.0" stroke="#000" stroke-width="1" /><polygon fill="#FFF" opacity="100" points="99.0,484.0 107.0,484.0 107.0,458.0 99.0,458.0" stroke="#000" stroke-width="1" /><text fill="#000" font-family="Arial" font-size="10" font-weight="normal" opacity="100" transform="rotate(-90.0 96.0,483.0) translate(0 10)" x="96.0" y="483.0">кассы</text><ellipse cx="141.5" cy="506.5" fill="none" opacity="100" rx="-3.5" ry="-3.5" stroke="#000" stroke-width="1" /><polyline fill="none" opacity="100" points="140.0,468.0 144.0,468.0" stroke="#090" stroke-width="1" /><polyline fill="none" opacity="100" points="140.0,472.0 144.0,472.0" stroke="#090" stroke-width="1" /><polyline fill="none" opacity="100" points="140.0,476.0 144.0,476.0" stroke="#090" stroke-width="1" /><polyline fill="none" opacity="100" points="140.0,480.0 144.0,480.0" stroke="#090" stroke-width="1" /><polyline fill="none" opacity="100" points="140.0,484.0 144.0,484.0" stroke="#090" stroke-width="1" /><polyline fill="none" opacity="100" points="140.0,488.0 144.0,488.0" stroke="#090" stroke-width="1" /><polyline fill="none" opacity="100" points="140.0,492.0 144.0,492.0" stroke="#090" stroke-width="1" /><polyline fill="none" opacity="100" points="140.0,496.0 144.0,496.0" stroke="#090" stroke-width="1" /><polyline fill="none" opacity="100" points="140.0,500.0 144.0,500.0" stroke="#090" stroke-width="1" /><polyline fill="none" opacity="100" points="144.0,432.0 140.0,432.0" stroke="#F00" stroke-width="1" /><polyline fill="none" opacity="100" points="144.0,436.0 140.0,436.0" stroke="#F00" stroke-width="1" /><polyline fill="none" opacity="100" points="144.0,440.0 140.0,440.0" stroke="#F00" stroke-width="1" /><polyline fill="none" opacity="100" points="144.0,444.0 140.0,444.0" stroke="#F00" stroke-width="1" /><polyline fill="none" opacity="100" points="144.0,448.0 140.0,448.0" stroke="#F00" stroke-width="1" /><polyline fill="none" opacity="100" points="144.0,452.0 140.0,452.0" stroke="#F00" stroke-width="1" /><polyline fill="none" opacity="100" points="144.0,456.0 140.0,456.0" stroke="#F00" stroke-width="1" /><polyline fill="none" opacity="100" points="144.0,460.0 140.0,460.0" stroke="#F00" stroke-width="1" /><polyline fill="none" opacity="100" points="144.0,464.0 140.0,464.0" stroke="#F00" stroke-width="1" /><polyline fill="none" opacity="100" points="171.0,461.0 159.0,461.0" stroke="#F00" stroke-width="1" /><polygon fill="#F00" opacity="100" points="162.4773,460.0683 159.0,461.0 162.4773,461.9317" stroke="#F00" stroke-width="1" /><polyline fill="none" opacity="100" points="114.0,491.0 126.0,491.0" stroke="#090" stroke-width="1" /><polygon fill="#090" opacity="100" points="122.5227,491.9317 126.0,491.0 122.5227,490.0683" stroke="#090" stroke-width="1" /><polyline fill="none" opacity="100" points="168.0,488.0 171.0,502.0" stroke="#F00" stroke-width="1" /><polyline fill="none" opacity="100" points="171.0,488.0 168.0,502.0" stroke="#F00" stroke-width="1" /><polyline fill="none" opacity="100" points="168.0,440.0 171.0,454.0" stroke="#F00" stroke-width="1" /><polyline fill="none" opacity="100" points="171.0,440.0 168.0,454.0" stroke="#F00" stroke-width="1" /><polyline fill="none" opacity="100" points="253.0,488.0 250.0,502.0" stroke="#F00" stroke-width="1" /><polyline fill="none" opacity="100" points="250.0,488.0 253.0,502.0" stroke="#F00" stroke-width="1" /><polyline fill="none" opacity="100" points="250.0,440.0 253.0,454.0" stroke="#F00" stroke-width="1" /><polyline fill="none" opacity="100" points="253.0,440.0 250.0,454.0" stroke="#F00" stroke-width="1" /><polyline fill="none" opacity="100" points="704.0,431.0 704.0,436.0 719.0,436.0 719.0,440.0" stroke="#000" stroke-width="1" /><polyline fill="none" opacity="100" points="719.0,502.0 719.0,506.0 704.0,506.0 704.0,511.0" stroke="#000" stroke-width="1" /><polyline fill="none" opacity="100" points="775.0,440.0 775.0,431.0 851.0,431.0 851.0,439.0 862.0,439.0 862.0,380.0 945.0,380.0 945.0,409.0" stroke="#000" stroke-width="1" /><polyline fill="none" opacity="100" points="858.0,524.0 862.0,524.0 862.0,503.0 851.0,503.0 851.0,511.0 775.0,511.0 775.0,502.0" stroke="#000" stroke-width="1" /><polyline fill="none" opacity="100" points="890.0,524.0 886.0,524.0 886.0,398.0 927.0,398.0 927.0,409.0" stroke="#000" stroke-width="1" /><polyline fill="none" opacity="100" points="775.0,454.0 775.0,488.0" stroke="#000" stroke-width="1" /><polyline fill="none" opacity="100" points="771.0,454.0 771.0,488.0" stroke="#000" stroke-width="1" /><polyline fill="none" opacity="100" points="767.0,454.0 767.0,488.0" stroke="#000" stroke-width="1" /><polyline fill="none" opacity="100" points="763.0,454.0 763.0,488.0" stroke="#000" stroke-width="1" /><polyline fill="none" opacity="100" points="759.0,454.0 759.0,488.0" stroke="#000" stroke-width="1" /><polyline fill="none" opacity="100" points="755.0,454.0 755.0,488.0" stroke="#000" stroke-width="1" /><polyline fill="none" opacity="100" points="739.0,454.0 739.0,488.0" stroke="#000" stroke-width="1" /><polyline fill="none" opacity="100" points="735.0,454.0 735.0,488.0" stroke="#000" stroke-width="1" /><polyline fill="none" opacity="100" points="731.0,454.0 731.0,488.0" stroke="#000" stroke-width="1" /><polyline fill="none" opacity="100" points="727.0,454.0 727.0,488.0" stroke="#000" stroke-width="1" /><polyline fill="none" opacity="100" points="723.0,454.0 723.0,488.0" stroke="#000" stroke-width="1" /><polyline fill="none" opacity="100" points="719.0,454.0 719.0,488.0" stroke="#000" stroke-width="1" /><polygon fill="#D0D0D0" opacity="100" points="851.0,455.0 862.0,455.0 862.0,487.0 851.0,487.0" stroke="#000" stroke-width="1" /><polyline fill="none" opacity="100" points="777.0,499.0 777.0,491.0" stroke="#7F7F7F" stroke-width="1" /><polyline fill="none" opacity="100" points="773.0,499.0 773.0,491.0" stroke="#7F7F7F" stroke-width="1" /><polyline fill="none" opacity="100" points="769.0,499.0 769.0,491.0" stroke="#7F7F7F" stroke-width="1" /><polyline fill="none" opacity="100" points="765.0,499.0 765.0,491.0" stroke="#7F7F7F" stroke-width="1" /><polyline fill="none" opacity="100" points="761.0,499.0 761.0,491.0" stroke="#7F7F7F" stroke-width="1" /><polyline fill="none" opacity="100" points="757.0,499.0 757.0,491.0" stroke="#7F7F7F" stroke-width="1" /><polyline fill="none" opacity="100" points="753.0,499.0 753.0,491.0" stroke="#7F7F7F" stroke-width="1" /><polyline fill="none" opacity="100" points="749.0,499.0 749.0,491.0" stroke="#7F7F7F" stroke-width="1" /><polyline fill="none" opacity="100" points="745.0,499.0 745.0,491.0" stroke="#7F7F7F" stroke-width="1" /><polyline fill="none" opacity="100" points="741.0,499.0 741.0,491.0" stroke="#7F7F7F" stroke-width="1" /><polyline fill="none" opacity="100" points="737.0,499.0 737.0,491.0" stroke="#7F7F7F" stroke-width="1" /><polyline fill="none" opacity="100" points="733.0,499.0 733.0,491.0" stroke="#7F7F7F" stroke-width="1" /><polyline fill="none" opacity="100" points="729.0,499.0 729.0,491.0" stroke="#7F7F7F" stroke-width="1" /><polyline fill="none" opacity="100" points="725.0,499.0 725.0,491.0" stroke="#7F7F7F" stroke-width="1" /><polyline fill="none" opacity="100" points="721.0,499.0 721.0,491.0" stroke="#7F7F7F" stroke-width="1" /><polyline fill="none" opacity="100" points="717.0,499.0 717.0,491.0" stroke="#7F7F7F" stroke-width="1" /><polyline fill="none" opacity="100" points="777.0,443.0 777.0,451.0" stroke="#7F7F7F" stroke-width="1" /><polyline fill="none" opacity="100" points="773.0,443.0 773.0,451.0" stroke="#7F7F7F" stroke-width="1" /><polyline fill="none" opacity="100" points="769.0,443.0 769.0,451.0" stroke="#7F7F7F" stroke-width="1" /><polyline fill="none" opacity="100" points="765.0,443.0 765.0,451.0" stroke="#7F7F7F" stroke-width="1" /><polyline fill="none" opacity="100" points="761.0,443.0 761.0,451.0" stroke="#7F7F7F" stroke-width="1" /><polyline fill="none" opacity="100" points="757.0,443.0 757.0,451.0" stroke="#7F7F7F" stroke-width="1" /><polyline fill="none" opacity="100" points="753.0,443.0 753.0,451.0" stroke="#7F7F7F" stroke-width="1" /><polyline fill="none" opacity="100" points="749.0,443.0 749.0,451.0" stroke="#7F7F7F" stroke-width="1" /><polyline fill="none" opacity="100" points="745.0,443.0 745.0,451.0" stroke="#7F7F7F" stroke-width="1" /><polyline fill="none" opacity="100" points="741.0,443.0 741.0,451.0" stroke="#7F7F7F" stroke-width="1" /><polyline fill="none" opacity="100" points="737.0,443.0 737.0,451.0" stroke="#7F7F7F" stroke-width="1" /><polyline fill="none" opacity="100" points="733.0,443.0 733.0,451.0" stroke="#7F7F7F" stroke-width="1" /><polyline fill="none" opacity="100" points="729.0,443.0 729.0,451.0" stroke="#7F7F7F" stroke-width="1" /><polyline fill="none" opacity="100" points="725.0,443.0 725.0,451.0" stroke="#7F7F7F" stroke-width="1" /><polyline fill="none" opacity="100" points="721.0,443.0 721.0,451.0" stroke="#7F7F7F" stroke-width="1" /><polyline fill="none" opacity="100" points="717.0,443.0 717.0,451.0" stroke="#7F7F7F" stroke-width="1" /><polygon fill="#9B5509" opacity="100" points="784.0,443.0 711.0,443.0 711.0,440.0 784.0,440.0" stroke="#000" stroke-width="1" /><polygon fill="#9B5509" opacity="100" points="784.0,451.0 784.0,454.0 711.0,454.0 711.0,451.0" stroke="#000" stroke-width="1" /><polygon fill="#9B5509" opacity="100" points="784.0,488.0 784.0,491.0 711.0,491.0 711.0,488.0" stroke="#000" stroke-width="1" /><polygon fill="#9B5509" opacity="100" points="784.0,499.0 711.0,499.0 711.0,502.0 784.0,502.0" stroke="#000" stroke-width="1" /><polygon fill="#FFF" opacity="100" points="859.0,458.0 851.0,458.0 851.0,484.0 859.0,484.0" stroke="#000" stroke-width="1" /><text fill="#000" font-family="Arial" font-size="10" font-weight="normal" opacity="100" transform="rotate(-90.0 848.0,483.0) translate(0 10)" x="848.0" y="483.0">кассы</text><ellipse cx="816.5" cy="436.5" fill="none" opacity="100" rx="3.5" ry="3.5" stroke="#000" stroke-width="1" /><polyline fill="none" opacity="100" points="818.0,475.0 814.0,475.0" stroke="#090" stroke-width="1" /><polyline fill="none" opacity="100" points="818.0,471.0 814.0,471.0" stroke="#090" stroke-width="1" /><polyline fill="none" opacity="100" points="818.0,467.0 814.0,467.0" stroke="#090" stroke-width="1" /><polyline fill="none" opacity="100" points="818.0,463.0 814.0,463.0" stroke="#090" stroke-width="1" /><polyline fill="none" opacity="100" points="818.0,459.0 814.0,459.0" stroke="#090" stroke-width="1" /><polyline fill="none" opacity="100" points="818.0,455.0 814.0,455.0" stroke="#090" stroke-width="1" /><polyline fill="none" opacity="100" points="818.0,451.0 814.0,451.0" stroke="#090" stroke-width="1" /><polyline fill="none" opacity="100" points="818.0,447.0 814.0,447.0" stroke="#090" stroke-width="1" /><polyline fill="none" opacity="100" points="818.0,443.0 814.0,443.0" stroke="#090" stroke-width="1" /><polyline fill="none" opacity="100" points="814.0,509.0 818.0,509.0" stroke="#F00" stroke-width="1" /><polyline fill="none" opacity="100" points="814.0,505.0 818.0,505.0" stroke="#F00" stroke-width="1" /><polyline fill="none" opacity="100" points="814.0,501.0 818.0,501.0" stroke="#F00" stroke-width="1" /><polyline fill="none" opacity="100" points="814.0,497.0 818.0,497.0" stroke="#F00" stroke-width="1" /><polyline fill="none" opacity="100" points="814.0,493.0 818.0,493.0" stroke="#F00" stroke-width="1" /><polyline fill="none" opacity="100" points="814.0,489.0 818.0,489.0" stroke="#F00" stroke-width="1" /><polyline fill="none" opacity="100" points="814.0,485.0 818.0,485.0" stroke="#F00" stroke-width="1" /><polyline fill="none" opacity="100" points="814.0,481.0 818.0,481.0" stroke="#F00" stroke-width="1" /><polyline fill="none" opacity="100" points="814.0,477.0 818.0,477.0" stroke="#F00" stroke-width="1" /><polyline fill="none" opacity="100" points="787.0,479.0 799.0,479.0" stroke="#F00" stroke-width="1" /><polygon fill="#F00" opacity="100" points="795.5227,479.9317 799.0,479.0 795.5227,478.0683" stroke="#F00" stroke-width="1" /><polyline fill="none" opacity="100" points="843.0,448.0 831.0,448.0" stroke="#090" stroke-width="1" /><polygon fill="#090" opacity="100" points="834.4773,447.0683 831.0,448.0 834.4773,448.9317" stroke="#090" stroke-width="1" /><polyline fill="none" opacity="100" points="39.0,413.0 53.0,416.0" stroke="#F00" stroke-width="1" /><polyline fill="none" opacity="100" points="53.0,413.0 39.0,416.0" stroke="#F00" stroke-width="1" /><text fill="#00AFAF" font-family="Arial" font-size="15" font-weight="normal" opacity="100" transform="rotate(-50.0 164.0,314.0) translate(0 15)" x="164.0" y="314.0">Кремль</text><text fill="#00AFAF" font-family="Arial" font-size="15" font-weight="normal" opacity="100" transform="rotate(30.0 -67.0,279.0) translate(0 15)" x="-67.0" y="279.0">улица Баумана</text><text fill="#00AFAF" font-family="Arial" font-size="15" font-weight="normal" opacity="100" transform="rotate(-0.0 904.0,461.0) translate(0 15)" x="904.0" y="461.0">Профсоюзная улица</text><polyline fill="none" opacity="100" points="179.0,326.0 213.0,285.0" stroke="#00AFAF" stroke-width="1" /><polygon fill="#00AFAF" opacity="100" points="206.331,299.5208 213.0,285.0 199.9641,294.2409" stroke="#00AFAF" stroke-width="1" /><polygon fill="#FFD0D0" opacity="0.7" points="47.0,506.0 47.0,590.0 98.0,590.0 98.0,506.0" stroke="#FFD0D0" stroke-width="1" /><polygon fill="#FFD0D0" opacity="0.7" points="706.0,429.0 706.0,513.0 861.0,513.0 861.0,429.0" stroke="#FFD0D0" stroke-width="1" /><text fill="#FF4040" font-family="Arial" font-size="15" font-weight="normal" opacity="1.0" transform="rotate(-90.0 64.0,584.0) translate(0 15)" x="64.0" y="584.0">Строится</text><text fill="#FF4040" font-family="Arial" font-size="15" font-weight="normal" opacity="1.0" transform="rotate(-90.0 791.0,499.0) translate(0 15)" x="791.0" y="499.0">Закрыто</text><polyline fill="none" opacity="1.0" points="47.0,506.0 47.0,590.0 98.0,590.0 98.0,506.0 47.0,506.0" stroke="#FF4040" stroke-dasharray="5,5" stroke-width="1" /><polyline fill="none" opacity="1.0" points="706.0,429.0 706.0,513.0 861.0,513.0 861.0,429.0 706.0,429.0" stroke="#FF4040" stroke-dasharray="5,5" stroke-width="1" /></g></g></svg>