<?xml version="1.0" encoding="utf-8" ?>
<svg baseProfile="tiny" height="750px" version="1.2" width="860px" xmlns="http://www.w3.org/2000/svg" xmlns:ev="http://www.w3.org/2001/xml-events" xmlns:xlink="http://www.w3.org/1999/xlink"><defs /><g><g transform="rotate(40.0,430.0,375.0)"><polygon fill="#D03036" opacity="100" points="193.0,268.0 643.0,268.0 643.0,298.0 193.0,298.0" stroke="#000" stroke-width="1" /><polygon fill="#D03036" opacity="100" points="193.0,378.0 643.0,378.0 643.0,408.0 193.0,408.0" stroke="#000" stroke-width="1" /><text fill="#D03036" font-family="Arial" font-size="20" font-weight="normal" opacity="100" transform="rotate(-0.0 193.0,243.0) translate(0 20)" x="193.0" y="243.0">&lt;&lt; Площадь Тукая</text><text fill="#D03036" font-family="Arial" font-size="20" font-weight="normal" opacity="100" transform="rotate(-0.0 534.0,408.0) translate(0 20)" x="534.0" y="408.0">Аметьево &gt;&gt;</text><text fill="#D03036" font-family="Arial" font-size="25" font-weight="bold" opacity="100" transform="rotate(-0.0 319.0,319.0) translate(0 25)" x="319.0" y="319.0">Суконная слобода</text><polyline fill="none" opacity="100" points="193.0,298.0 193.0,308.0 141.0,308.0 141.0,283.0 70.0,283.0 70.0,326.0 16.0,326.0 16.0,419.0 -34.0,419.0" stroke="#000" stroke-width="1" /><polyline fill="none" opacity="100" points="-34.0,443.0 84.0,443.0" stroke="#000" stroke-width="1" /><polyline fill="none" opacity="100" points="-34.0,449.0 90.0,449.0 90.0,437.0 41.0,437.0" stroke="#000" stroke-width="1" /><polyline fill="none" opacity="100" points="90.0,419.0 40.0,419.0 40.0,350.0 70.0,350.0 70.0,393.0 141.0,393.0 141.0,368.0 193.0,368.0 193.0,378.0" stroke="#000" stroke-width="1" /><polyline fill="none" opacity="100" points="144.0,308.0 144.0,368.0" stroke="#000" stroke-width="1" /><polyline fill="none" opacity="100" points="148.0,308.0 148.0,368.0" stroke="#000" stroke-width="1" /><polyline fill="none" opacity="100" points="152.0,308.0 152.0,368.0" stroke="#000" stroke-width="1" /><polyline fill="none" opacity="100" points="156.0,308.0 156.0,368.0" stroke="#000" stroke-width="1" /><polyline fill="none" opacity="100" points="160.0,308.0 160.0,368.0" stroke="#000" stroke-width="1" /><polyline fill="none" opacity="100" points="164.0,308.0 164.0,368.0" stroke="#000" stroke-width="1" /><polyline fill="none" opacity="100" points="168.0,308.0 168.0,368.0" stroke="#000" stroke-width="1" /><polyline fill="none" opacity="100" points="172.0,308.0 172.0,368.0" stroke="#000" stroke-width="1" /><polyline fill="none" opacity="100" points="176.0,308.0 176.0,368.0" stroke="#000" stroke-width="1" /><polyline fill="none" opacity="100" points="180.0,308.0 180.0,368.0" stroke="#000" stroke-width="1" /><polyline fill="none" opacity="100" points="184.0,308.0 184.0,368.0" stroke="#000" stroke-width="1" /><polyline fill="none" opacity="100" points="188.0,308.0 188.0,368.0" stroke="#000" stroke-width="1" /><polyline fill="none" opacity="100" points="-32.0,419.0 -32.0,443.0" stroke="#000" stroke-width="1" /><polyline fill="none" opacity="100" points="-28.0,419.0 -28.0,443.0" stroke="#000" stroke-width="1" /><polyline fill="none" opacity="100" points="-24.0,419.0 -24.0,443.0" stroke="#000" stroke-width="1" /><polyline fill="none" opacity="100" points="-20.0,419.0 -20.0,443.0" stroke="#000" stroke-width="1" /><polyline fill="none" opacity="100" points="-16.0,419.0 -16.0,443.0" stroke="#000" stroke-width="1" /><polyline fill="none" opacity="100" points="-12.0,419.0 -12.0,443.0" stroke="#000" stroke-width="1" /><polyline fill="none" opacity="100" points="-8.0,419.0 -8.0,443.0" stroke="#000" stroke-width="1" /><polyline fill="none" opacity="100" points="-4.0,419.0 -4.0,443.0" stroke="#000" stroke-width="1" /><polyline fill="none" opacity="100" points="0.0,419.0 0.0,443.0" stroke="#000" stroke-width="1" /><polyline fill="none" opacity="100" points="4.0,419.0 4.0,443.0" stroke="#000" stroke-width="1" /><polyline fill="none" opacity="100" points="8.0,419.0 8.0,443.0" stroke="#000" stroke-width="1" /><polyline fill="none" opacity="100" points="12.0,419.0 12.0,443.0" stroke="#000" stroke-width="1" /><polyline fill="none" opacity="100" points="88.0,419.0 88.0,437.0" stroke="#000" stroke-width="1" /><polyline fill="none" opacity="100" points="84.0,419.0 84.0,437.0" stroke="#000" stroke-width="1" /><polyline fill="none" opacity="100" points="80.0,419.0 80.0,437.0" stroke="#000" stroke-width="1" /><polyline fill="none" opacity="100" points="76.0,419.0 76.0,437.0" stroke="#000" stroke-width="1" /><polyline fill="none" opacity="100" points="72.0,419.0 72.0,437.0" stroke="#000" stroke-width="1" /><polyline fill="none" opacity="100" points="68.0,419.0 68.0,437.0" stroke="#000" stroke-width="1" /><polyline fill="none" opacity="100" points="64.0,419.0 64.0,437.0" stroke="#000" stroke-width="1" /><polyline fill="none" opacity="100" points="60.0,419.0 60.0,437.0" stroke="#000" stroke-width="1" /><polyline fill="none" opacity="100" points="56.0,419.0 56.0,437.0" stroke="#000" stroke-width="1" /><polyline fill="none" opacity="100" points="52.0,419.0 52.0,437.0" stroke="#000" stroke-width="1" /><polyline fill="none" opacity="100" points="48.0,419.0 48.0,437.0" stroke="#000" stroke-width="1" /><polyline fill="none" opacity="100" points="44.0,419.0 44.0,437.0" stroke="#000" stroke-width="1" /><polyline fill="none" opacity="100" points="70.0,358.0 62.0,358.0 62.0,384.0 70.0,384.0" stroke="#000" stroke-width="1" /><text fill="#000" font-family="Arial" font-size="10" font-weight="normal" opacity="100" transform="rotate(-90.0 59.0,383.0) translate(0 10)" x="59.0" y="383.0">кассы</text><polyline fill="none" opacity="100" points="110.0,363.0 110.0,368.0 141.0,368.0" stroke="#000" stroke-width="0.5" /><polyline fill="none" opacity="100" points="110.0,313.0 110.0,308.0 141.0,308.0" stroke="#000" stroke-width="0.5" /><ellipse cx="110.5" cy="360.5" fill="none" opacity="100" rx="3.5" ry="3.5" stroke="#000" stroke-width="1" /><polyline fill="none" opacity="100" points="112.0,353.0 108.0,353.0" stroke="#090" stroke-width="1" /><polyline fill="none" opacity="100" points="112.0,349.0 108.0,349.0" stroke="#090" stroke-width="1" /><polyline fill="none" opacity="100" points="112.0,345.0 108.0,345.0" stroke="#090" stroke-width="1" /><polyline fill="none" opacity="100" points="112.0,341.0 108.0,341.0" stroke="#090" stroke-width="1" /><polyline fill="none" opacity="100" points="112.0,337.0 108.0,337.0" stroke="#090" stroke-width="1" /><polyline fill="none" opacity="100" points="108.0,333.0 112.0,333.0" stroke="#F00" stroke-width="1" /><polyline fill="none" opacity="100" points="108.0,329.0 112.0,329.0" stroke="#F00" stroke-width="1" /><polyline fill="none" opacity="100" points="108.0,325.0 112.0,325.0" stroke="#F00" stroke-width="1" /><polyline fill="none" opacity="100" points="108.0,321.0 112.0,321.0" stroke="#F00" stroke-width="1" /><polyline fill="none" opacity="100" points="108.0,317.0 112.0,317.0" stroke="#F00" stroke-width="1" /><polyline fill="none" opacity="100" points="108.0,313.0 112.0,313.0" stroke="#F00" stroke-width="1" /><polyline fill="none" opacity="100" points="140.0,323.0 128.0,323.0" stroke="#F00" stroke-width="1" /><polygon fill="#F00" opacity="100" points="131.4773,322.0683 128.0,323.0 131.4773,323.9317" stroke="#F00" stroke-width="1" /><polyline fill="none" opacity="100" points="128.0,352.0 140.0,352.0" stroke="#090" stroke-width="1" /><polygon fill="#090" opacity="100" points="136.5227,352.9317 140.0,352.0 136.5227,351.0683" stroke="#090" stroke-width="1" /><polyline fill="none" opacity="100" points="643.0,298.0 643.0,308.0 695.0,308.0 695.0,283.0 766.0,283.0 766.0,326.0 784.0,326.0 784.0,283.0 802.0,283.0 802.0,422.0" stroke="#000" stroke-width="1" /><polyline fill="none" opacity="100" points="784.0,422.0 784.0,350.0 766.0,350.0 766.0,393.0 695.0,393.0 695.0,368.0 643.0,368.0 643.0,378.0" stroke="#000" stroke-width="1" /><polyline fill="none" opacity="100" points="692.0,308.0 692.0,368.0" stroke="#000" stroke-width="1" /><polyline fill="none" opacity="100" points="688.0,308.0 688.0,368.0" stroke="#000" stroke-width="1" /><polyline fill="none" opacity="100" points="684.0,308.0 684.0,368.0" stroke="#000" stroke-width="1" /><polyline fill="none" opacity="100" points="680.0,308.0 680.0,368.0" stroke="#000" stroke-width="1" /><polyline fill="none" opacity="100" points="676.0,308.0 676.0,368.0" stroke="#000" stroke-width="1" /><polyline fill="none" opacity="100" points="672.0,308.0 672.0,368.0" stroke="#000" stroke-width="1" /><polyline fill="none" opacity="100" points="668.0,308.0 668.0,368.0" stroke="#000" stroke-width="1" /><polyline fill="none" opacity="100" points="664.0,308.0 664.0,368.0" stroke="#000" stroke-width="1" /><polyline fill="none" opacity="100" points="660.0,308.0 660.0,368.0" stroke="#000" stroke-width="1" /><polyline fill="none" opacity="100" points="656.0,308.0 656.0,368.0" stroke="#000" stroke-width="1" /><polyline fill="none" opacity="100" points="652.0,308.0 652.0,368.0" stroke="#000" stroke-width="1" /><polyline fill="none" opacity="100" points="648.0,308.0 648.0,368.0" stroke="#000" stroke-width="1" /><polyline fill="none" opacity="100" points="784.0,420.0 802.0,420.0" stroke="#000" stroke-width="1" /><polyline fill="none" opacity="100" points="784.0,416.0 802.0,416.0" stroke="#000" stroke-width="1" /><polyline fill="none" opacity="100" points="784.0,412.0 802.0,412.0" stroke="#000" stroke-width="1" /><polyline fill="none" opacity="100" points="784.0,408.0 802.0,408.0" stroke="#000" stroke-width="1" /><polyline fill="none" opacity="100" points="784.0,404.0 802.0,404.0" stroke="#000" stroke-width="1" /><polyline fill="none" opacity="100" points="784.0,400.0 802.0,400.0" stroke="#000" stroke-width="1" /><polyline fill="none" opacity="100" points="784.0,396.0 802.0,396.0" stroke="#000" stroke-width="1" /><polyline fill="none" opacity="100" points="784.0,392.0 802.0,392.0" stroke="#000" stroke-width="1" /><polyline fill="none" opacity="100" points="784.0,388.0 802.0,388.0" stroke="#000" stroke-width="1" /><polyline fill="none" opacity="100" points="784.0,384.0 802.0,384.0" stroke="#000" stroke-width="1" /><polyline fill="none" opacity="100" points="784.0,380.0 802.0,380.0" stroke="#000" stroke-width="1" /><polyline fill="none" opacity="100" points="784.0,376.0 802.0,376.0" stroke="#000" stroke-width="1" /><polyline fill="none" opacity="100" points="766.0,317.0 774.0,317.0 774.0,291.0 766.0,291.0" stroke="#000" stroke-width="1" /><text fill="#000" font-family="Arial" font-size="10" font-weight="normal" opacity="100" transform="rotate(-90.0 763.0,316.0) translate(0 10)" x="763.0" y="316.0">кассы</text><polyline fill="none" opacity="100" points="695.0,308.0 726.0,308.0 726.0,311.0" stroke="#000" stroke-width="0.5" /><polyline fill="none" opacity="100" points="695.0,368.0 726.0,368.0 726.0,365.0" stroke="#000" stroke-width="0.5" /><ellipse cx="726.5" cy="314.5" fill="none" opacity="100" rx="3.5" ry="3.5" stroke="#000" stroke-width="1" /><polyline fill="none" opacity="100" points="724.0,321.0 728.0,321.0" stroke="#090" stroke-width="1" /><polyline fill="none" opacity="100" points="724.0,325.0 728.0,325.0" stroke="#090" stroke-width="1" /><polyline fill="none" opacity="100" points="724.0,329.0 728.0,329.0" stroke="#090" stroke-width="1" /><polyline fill="none" opacity="100" points="724.0,333.0 728.0,333.0" stroke="#090" stroke-width="1" /><polyline fill="none" opacity="100" points="724.0,337.0 728.0,337.0" stroke="#090" stroke-width="1" /><polyline fill="none" opacity="100" points="728.0,341.0 724.0,341.0" stroke="#F00" stroke-width="1" /><polyline fill="none" opacity="100" points="728.0,345.0 724.0,345.0" stroke="#F00" stroke-width="1" /><polyline fill="none" opacity="100" points="728.0,349.0 724.0,349.0" stroke="#F00" stroke-width="1" /><polyline fill="none" opacity="100" points="728.0,353.0 724.0,353.0" stroke="#F00" stroke-width="1" /><polyline fill="none" opacity="100" points="728.0,357.0 724.0,357.0" stroke="#F00" stroke-width="1" /><polyline fill="none" opacity="100" points="728.0,361.0 724.0,361.0" stroke="#F00" stroke-width="1" /><polyline fill="none" opacity="100" points="728.0,365.0 724.0,365.0" stroke="#F00" stroke-width="1" /><polyline fill="none" opacity="100" points="701.0,352.0 713.0,352.0" stroke="#F00" stroke-width="1" /><polygon fill="#F00" opacity="100" points="709.5227,352.9317 713.0,352.0 709.5227,351.0683" stroke="#F00" stroke-width="1" /><polyline fill="none" opacity="100" points="713.0,323.0 701.0,323.0" stroke="#090" stroke-width="1" /><polygon fill="#090" opacity="100" points="704.4773,322.0683 701.0,323.0 704.4773,323.9317" stroke="#090" stroke-width="1" /><text fill="#00AFAF" font-family="Arial" font-size="15" font-weight="normal" opacity="100" transform="rotate(-0.0 821.0,331.0) translate(0 15)" x="821.0" y="331.0">улица Петербургская</text><text fill="#00AFAF" font-family="Arial" font-size="15" font-weight="normal" opacity="100" transform="rotate(-0.0 -131.0,355.0) translate(0 15)" x="-131.0" y="355.0">улица Петербургская</text><text fill="#00AFAF" font-family="Arial" font-size="15" font-weight="normal" opacity="100" transform="rotate(-90.0 830.0,513.0) translate(0 15)" x="830.0" y="513.0">улица Эсперанто</text></g></g></svg>