<?xml version="1.0" encoding="utf-8" ?>
<svg baseProfile="tiny" height="1250px" version="1.2" width="1900px" xmlns="http://www.w3.org/2000/svg" xmlns:ev="http://www.w3.org/2001/xml-events" xmlns:xlink="http://www.w3.org/1999/xlink"><defs /><g><polyline fill="none" opacity="100" points="1866.0,925.0 1837.375,925.0 1810.75,925.0 1786.1484,925.0015 1763.5,925.0 1742.6641,924.9868 1723.875,924.9766 1707.2031,924.9736 1693.0,925.0 1681.9219,925.0967 1673.125,925.2109 1666.0527,925.3079 1660.5,925.375 1656.1504,925.3933 1652.7812,925.3477 1650.2227,925.2271 1648.0,925.0 1645.4336,924.6206 1642.9688,924.1211 1640.8171,923.5212 1639.0,922.8125 1637.677,921.9846 1636.6445,921.0625 1635.7876,920.0508 1635.0,919.0 1634.0913,918.0039 1633.1992,916.9375 1632.3953,915.7212 1631.6875,914.3125 1631.1184,912.6421 1630.6562,910.7109 1630.2812,908.5029 1630.0,906.0 1629.8203,903.2002 1629.7188,900.0391 1629.677,896.4392 1629.6875,892.4375 1629.7429,888.1409 1629.8242,883.2617 1629.9194,877.689 1630.0,871.0 1630.022,862.4399 1630.0195,852.8945 1630.0122,842.9441 1630.0,832.75 1629.9878,822.5696 1629.9805,812.6953 1629.978,803.3018 1630.0,795.0 1630.0806,788.7373 1630.1758,783.6797 1630.2573,779.3503 1630.3125,775.625 1630.3208,772.1985 1630.2773,769.1367 1630.1753,766.4546 1630.0,764.0 1629.7349,761.5884 1629.3789,759.332 1628.9272,757.2815 1628.375,755.4375 1627.7212,753.8376 1626.9492,752.4219 1626.0483,751.1543 1625.0,750.0 1623.7759,748.9004 1622.3945,747.8906 1620.8647,746.9871 1619.1875,746.1875 1617.3696,745.4993 1615.4023,744.9102 1613.2808,744.4106 1611.0,744.0 1608.5513,743.6792 1605.9414,743.4336 1603.1694,743.2507 1600.25,743.125 1597.2134,743.052 1594.0117,743.0156 1590.6304,743.0059 1587.0,743.0 1582.9907,742.9629 1578.7695,742.9219 1574.4463,742.8909 1570.0625,742.875 1565.6826,742.8884 1561.3477,742.918 1557.0903,742.9585 1553.0,743.0 1549.2026,743.022 1545.6211,743.0508 1542.2231,743.1035 1539.0,743.1875 1535.9097,743.3145 1533.0195,743.4883 1530.3618,743.7134 1528.0,744.0 1526.0483,744.3608 1524.3867,744.793 1522.9409,745.2939 1521.6875,745.875 1520.5825,746.5537 1519.6133,747.3086 1518.7681,748.1362 1518.0,749.0 1517.2437,749.8286 1516.543,750.7227 1515.9202,751.7322 1515.375,752.9375 1514.9177,754.4846 1514.5391,756.2266 1514.2314,758.1338 1514.0,760.0 1513.8545,761.4131 1513.7734,762.9609 1513.7407,765.0933 1513.75,767.8125 1513.7944,771.0356 1513.8594,775.4688 1513.9355,781.4102 1514.0,790.0 1514.0176,803.207 1514.0156,818.8438 1514.0095,835.5034 1514.0,852.8125 1513.9924,870.1333 1513.9883,886.8516 1513.9868,902.6025 1514.0,916.0 1514.0483,924.8975 1514.1055,931.2109 1514.1548,936.0447 1514.1875,939.6875 1514.189,942.8323 1514.1602,945.3711 1514.0981,947.2925 1514.0,949.0 1513.8667,951.0083 1513.6836,952.9727 1513.4402,954.7263 1513.125,956.25 1512.7219,957.4202 1512.2344,958.3828 1511.6582,959.2197 1511.0,960.0 1510.2793,960.8506 1509.4531,961.6797 1508.4946,962.4397 1507.375,963.125 1506.0483,963.7068 1504.5391,964.207 1502.8447,964.6392 1501.0,965.0 1499.085,965.2866 1496.9609,965.5117 1494.5098,965.6855 1491.75,965.8125 1488.748,965.8965 1485.2422,965.9492 1481.1279,965.978 1476.0,966.0 1469.1455,966.0415 1461.3828,966.082 1453.2441,966.1113 1444.875,966.125 1436.5137,966.1113 1428.4141,966.082 1420.7275,966.0415 1414.0,966.0 1409.0771,965.978 1405.2109,965.9492 1401.9724,965.896 1399.25,965.8125 1396.7717,965.6899 1394.5898,965.5195 1392.7144,965.2954 1391.0,965.0 1389.2661,964.6069 1387.6289,964.1367 1386.1431,963.603 1384.8125,963.0 1383.6772,962.3188 1382.6836,961.582 1381.8003,960.7954 1381.0,960.0 1380.2349,959.271 1379.5352,958.5117 1378.9158,957.6843 1378.375,956.6875 1377.9182,955.3293 1377.5391,953.8438 1377.2314,952.2891 1377.0,951.0 1376.8545,950.625 1376.7734,950.2812 1376.741,949.3113 1376.75,947.6875 1376.7922,945.4719 1376.8555,941.7383 1376.9312,936.0884 1377.0,927.0 1377.0337,911.8608 1377.0508,893.543 1377.061,873.8879 1377.0625,853.375 1377.0562,832.8328 1377.043,813.0547 1377.021,794.5068 1377.0,779.0 1376.9985,769.3447 1376.9883,763.0078 1376.9497,758.5198 1376.875,755.5 1376.7534,753.0486 1376.5742,751.2539 1376.3296,750.106 1376.0,749.0 1375.5571,747.1323 1375.0195,745.0898 1374.4004,743.175 1373.6875,741.4375 1372.8613,740.0847 1371.957,738.9453 1370.9829,737.9268 1370.0,737.0 1369.1226,736.0889 1368.1992,735.2422 1367.1575,734.4834 1365.875,733.8125 1364.1257,733.2432 1362.1484,732.7578 1359.9951,732.3447 1358.0,732.0 1356.8252,731.7178 1355.5391,731.4922 1353.4314,731.3169 1350.5,731.1875 1346.8752,731.1011 1341.4492,731.0469 1333.7554,731.0176 1322.0,731.0 1303.0845,730.9746 1280.457,730.9531 1256.3428,730.9402 1231.3125,730.9375 1206.333,730.9524 1182.4414,730.9727 1160.2349,730.9927 1142.0,731.0 1131.3081,730.9722 1124.9023,730.9336 1120.8828,730.8999 1118.75,730.875 1117.3477,730.8657 1116.7461,730.8789 1116.9058,730.9185 1117.0,731.0 1115.9185,731.1479 1114.4727,731.3398 1113.082,731.5603 1111.8125,731.8125 1110.9453,732.1018 1110.2539,732.4062 1109.6138,732.7188 1109.0,733.0 1108.3354,733.1797 1107.6523,733.3438 1106.9612,733.5474 1106.25,733.8125 1105.5173,734.1753 1104.7422,734.6484 1103.9053,735.2451 1103.0,736.0 1102.0244,736.958 1100.9453,738.1016 1099.7241,739.4358 1098.375,740.9375 1096.9438,742.5466 1095.2969,744.3789 1093.3809,746.4771 1091.0,749.0 1087.8066,752.2378 1084.2031,755.8398 1080.4546,759.572 1076.625,763.375 1072.8149,767.1604 1069.1797,770.7812 1065.8037,774.1562 1063.0,777.0 1061.2666,778.8594 1060.1328,780.1562 1059.3193,781.1404 1058.75,781.875 1058.2588,782.5022 1057.8359,783.0352 1057.4639,783.4888 1057.0,784.0 1056.2471,784.7651 1055.3516,785.6211 1054.3911,786.4766 1053.375,787.3125 1052.3472,788.0742 1051.2812,788.7773 1050.1602,789.4292 1049.0,790.0 1047.8242,790.4497 1046.5938,790.8164 1045.3074,791.1223 1043.875,791.375 1042.1243,791.5906 1040.3008,791.7656 1038.4712,791.9004 1037.0,792.0 1036.5796,792.0684 1036.293,792.1094 1035.4663,792.1272 1034.0625,792.125 1032.1196,792.1052 1028.7383,792.0742 1023.5298,792.0366 1015.0,792.0 1000.5913,791.9751 983.1055,791.957 964.3374,791.9438 944.75,791.9375 925.147,791.939 906.3008,791.9492 888.6626,791.9702 874.0,792.0 865.0601,792.0337 859.3555,792.082 855.4392,792.1521 852.9375,792.25 850.9729,792.385 849.6094,792.5547 848.8262,792.7607 848.0,793.0 846.291,793.2627 844.3281,793.5703 842.4409,793.9387 840.6875,794.375 839.2896,794.8875 838.0859,795.4883 836.9912,796.186 836.0,797.0 835.0713,797.9585 834.2266,799.043 833.4746,800.2417 832.8125,801.5625 832.2441,803.0161 831.7578,804.582 831.3447,806.2563 831.0,808.0 830.7178,809.7397 830.4922,811.5742 830.3171,813.5803 830.1875,815.75 830.0989,818.0544 830.043,820.6328 830.0132,823.54 830.0,827.0 829.9907,831.4053 829.9883,836.3047 829.9924,841.4048 830.0,846.625 830.0095,851.8335 830.0156,856.8906 830.0137,861.7129 830.0,866.0 829.9707,869.2871 829.9219,871.9844 829.8499,874.3267 829.75,876.375 829.6169,878.2788 829.4492,880.0078 829.2437,881.5557 829.0,883.0 828.7212,884.4365 828.3945,885.8047 828.0137,887.0767 827.5625,888.25 827.0137,889.3022 826.3945,890.2656 825.7095,891.1582 825.0,892.0 824.3491,892.8262 823.6367,893.6094 822.8237,894.3342 821.75,895.0 820.1138,895.6013 818.3008,896.1367 816.4087,896.6069 815.0,897.0 815.1577,897.2954 815.418,897.5195 814.6953,897.6897 812.9375,897.8125 810.2305,897.8982 805.0742,897.9531 796.8218,897.9824 783.0,898.0 759.3696,898.0254 730.582,898.0469 699.6165,898.0596 667.25,898.0625 634.8308,898.0498 603.625,898.0312 574.3789,898.0117 550.0,898.0 534.9961,898.0117 525.3125,898.0312 518.6021,898.0505 514.25,898.0625 510.8003,898.053 508.4297,898.0352 507.1357,898.0122 506.0,898.0 503.8252,898.0308 501.4453,898.0586 499.2751,898.0503 497.375,898.0 496.0471,897.9028 494.9805,897.7227 494.0054,897.4419 493.0,897.0 491.7251,896.2964 490.3633,895.4336 489.0142,894.4771 487.6875,893.4375 486.4312,892.3354 485.2305,891.207 484.0718,890.0688 483.0,889.0 482.0884,888.1304 481.2383,887.3242 480.3782,886.4924 479.5,885.625 478.6003,884.7048 477.5938,883.6641 476.4414,882.4736 475.0,881.0 473.0273,879.0186 470.7812,876.7734 468.4248,874.4202 466.0,872.0 463.583,869.5857 461.2344,867.2383 458.9902,864.9946 457.0,863.0 455.4941,861.478 454.2656,860.2305 453.1956,859.1431 452.25,858.1875 451.3494,857.2944 450.5117,856.4727 449.7397,855.7231 449.0,855.0 448.2563,854.2417 447.5195,853.4961 446.7903,852.7891 446.0625,852.125 445.3367,851.5195 444.5938,850.9648 443.8203,850.4565 443.0,850.0 442.1094,849.6021 441.1562,849.2539 440.1548,848.9502 439.0625,848.6875 437.8022,848.46 436.4922,848.2695 435.1631,848.1157 434.0,848.0 433.3525,847.9272 432.7578,847.8867 431.877,847.8701 430.6875,847.875 429.2012,847.8994 426.9766,847.9336 423.8213,847.9722 419.0,848.0 411.2568,847.9927 401.9609,847.9727 391.9856,847.9529 381.5625,847.9375 371.0984,847.9358 360.9414,847.9453 351.3013,847.9658 343.0,848.0 337.3042,848.0498 333.0898,848.1172 329.7102,848.2031 327.0,848.3125 324.5574,848.4531 322.4453,848.6172 320.6729,848.8037 319.0,849.0 317.1162,849.1807 315.2422,849.3828 313.4895,849.6318 311.875,849.9375 310.4773,850.3135 309.2227,850.7734 308.0708,851.3271 307.0,852.0 305.9644,852.8291 304.9961,853.7891 304.1123,854.8599 303.3125,856.0625 302.6025,857.4331 301.9805,858.9062 301.4429,860.4648 301.0,862.0 300.6704,863.3086 300.4258,864.6562 300.2466,866.2395 300.125,868.0625 300.0503,870.1023 300.0117,872.6367 300.0015,875.7827 300.0,880.0 299.979,886.0806 299.957,893.1445 299.9438,900.626 299.9375,908.375 299.939,916.1357 299.9492,923.6602 299.9663,930.8013 300.0,937.0 300.0688,941.3901 300.1445,944.7461 300.2087,947.5159 300.25,949.8125 300.2502,951.908 300.2109,953.7734 300.1279,955.4092 300.0,957.0 299.833,958.7939 299.6016,960.6016 299.2925,962.322 298.875,963.9375 298.2974,965.3831 297.6094,966.6992 296.8184,967.9077 296.0,969.0 295.3066,969.9712 294.5156,970.832 293.4883,971.5894 292.125,972.25 290.2617,972.8247 287.9531,973.3086 285.1816,973.7026 282.0,974.0 278.5684,974.1841 274.5469,974.2852 269.6821,974.3252 263.875,974.3125 257.0171,974.2568 248.8828,974.1758 239.3291,974.0806 228.0,974.0 214.3506,973.978 198.8047,973.9805 181.5894,973.989 162.75,974.0 142.438,974.0012 120.5625,974.0 97.0781,974.0 72.0,974.0" stroke="#12B5EE" stroke-width="20" /><text fill="#040464" font-family="Arial" font-size="36" font-weight="bold" opacity="100" x="402.6" y="45.4">LONDON TUBE MAP</text><text fill="#7B3900" font-family="Arial" font-size="30" font-weight="normal" opacity="100" x="140.5" y="1027.0">Bakerloo</text><text fill="#FF3108" font-family="Arial" font-size="30" font-weight="normal" opacity="100" x="140.5" y="1056.0">Central</text><text fill="#FCCC04" font-family="Arial" font-size="30" font-weight="normal" opacity="100" x="140.5" y="1085.0">Circle</text><text fill="#007B39" font-family="Arial" font-size="30" font-weight="normal" opacity="100" x="140.5" y="1114.0">District</text><text fill="#F76B9C" font-family="Arial" font-size="30" font-weight="normal" opacity="100" x="140.5" y="1143.0">Hammersmith &amp; City</text><text fill="#737373" font-family="Arial" font-size="30" font-weight="normal" opacity="100" x="140.5" y="1172.0">Jubilee</text><text fill="#630039" font-family="Arial" font-size="30" font-weight="normal" opacity="100" x="140.5" y="1201.0">Metropolitan</text><text fill="#000" font-family="Arial" font-size="30" font-weight="normal" opacity="100" x="363.5" y="1027.0">Northern</text><text fill="#10298C" font-family="Arial" font-size="30" font-weight="normal" opacity="100" x="363.5" y="1056.0">Piccadilly</text><text fill="#1884BD" font-family="Arial" font-size="30" font-weight="normal" opacity="100" x="363.5" y="1085.0">Victoria</text><text fill="#7BCEA5" font-family="Arial" font-size="30" font-weight="normal" opacity="100" x="363.5" y="1114.0">Waterloo &amp; City</text><text fill="#00ADA8" font-family="Arial" font-size="30" font-weight="normal" opacity="100" x="363.5" y="1172.0">Docklands Light Railway</text></g></svg>