<?xml version="1.0" encoding="utf-8" ?>
<svg baseProfile="tiny" height="720px" version="1.2" width="1130px" xmlns="http://www.w3.org/2000/svg" xmlns:ev="http://www.w3.org/2001/xml-events" xmlns:xlink="http://www.w3.org/1999/xlink"><defs /><g><g transform="rotate(19.0,565.0,360.0)"><polygon fill="#0DA303" opacity="100" points="454.0,465.0 904.0,465.0 904.0,495.0 454.0,495.0" stroke="#000" stroke-width="1" /><polygon fill="#0DA303" opacity="100" points="904.0,355.0 904.0,385.0 454.0,385.0 454.0,355.0" stroke="#000" stroke-width="1" /><polyline fill="none" opacity="100" points="904.0,385.0 904.0,395.0" stroke="#000" stroke-width="1" /><polyline fill="none" opacity="100" points="904.0,465.0 904.0,455.0" stroke="#000" stroke-width="1" /><polyline fill="none" opacity="100" points="894.0,395.0 925.0,395.0 925.0,380.0 969.0,380.0 969.0,372.0 988.0,372.0 988.0,344.0 920.0,344.0 920.0,338.0" stroke="#000" stroke-width="1" /><polyline fill="none" opacity="100" points="920.0,317.0 920.0,313.0 1020.0,313.0 1020.0,372.0 1028.0,372.0 1028.0,379.0" stroke="#000" stroke-width="1" /><polyline fill="none" opacity="100" points="1028.0,379.0 1030.0234,380.4766 1031.9688,382.0312 1033.8369,383.6633 1035.625,385.375 1037.3271,387.1707 1038.9531,389.043 1040.5059,390.9897 1042.0,393.0 1043.4629,395.0532 1044.8594,397.1758 1046.1663,399.3894 1047.375,401.6875 1048.4724,404.054 1049.4492,406.5391 1050.2983,409.1611 1051.0,412.0 1051.5259,415.1982 1051.8945,418.5859 1052.1133,422.0513 1052.1875,425.5625 1052.1328,429.0698 1051.9258,432.5156 1051.5571,435.8652 1051.0,439.0 1050.2046,441.7363 1049.2305,444.2344 1048.1165,446.5857 1046.875,448.8125 1045.5261,450.9709 1044.0859,453.0508 1042.5654,455.0493 1041.0,457.0 1039.4424,458.9468 1037.8516,460.8555 1036.2056,462.7078 1034.5,464.5 1032.7202,466.22 1030.875,467.875 1028.9688,469.4688 1027.0,471.0" stroke="#000" stroke-width="1" /><polyline fill="none" opacity="100" points="1027.0,471.0 1027.0,478.0 1020.0,478.0 1020.0,560.0 940.0,560.0 940.0,555.0" stroke="#000" stroke-width="1" /><polyline fill="none" opacity="100" points="941.0,534.0 941.0,529.0 988.0,529.0 988.0,478.0 969.0,478.0 969.0,470.0 925.0,470.0 925.0,455.0 894.0,455.0" stroke="#000" stroke-width="1" /><polyline fill="none" opacity="100" points="981.0,392.0 989.0,392.0" stroke="#000" stroke-width="1" /><polyline fill="none" opacity="100" points="981.0,458.0 989.0,458.0" stroke="#000" stroke-width="1" /><polyline fill="none" opacity="100" points="969.0,380.0 969.8047,379.9609 970.5938,379.9688 971.3679,380.0234 972.125,380.125 972.8606,380.2734 973.582,380.4688 974.2915,380.7109 975.0,381.0 975.728,381.3359 976.4492,381.7188 977.146,382.1484 977.8125,382.625 978.4399,383.1484 979.0195,383.7188 979.5454,384.3359 980.0,385.0 980.3569,385.7109 980.6367,386.4688 980.8503,387.2734 981.0,388.125 981.093,389.0234 981.125,389.9688 981.0938,390.9609 981.0,392.0" stroke="#000" stroke-width="1" /><polyline fill="none" opacity="100" points="969.0,470.0 970.0391,470.0391 971.0312,470.0312 971.9766,469.9766 972.875,469.875 973.7266,469.7266 974.5312,469.5312 975.2891,469.2891 976.0,469.0 976.6641,468.6641 977.2812,468.2812 977.8516,467.8516 978.375,467.375 978.8516,466.8516 979.2812,466.2812 979.6641,465.6641 980.0,465.0 980.2891,464.2891 980.5312,463.5312 980.7266,462.7266 980.875,461.875 980.9766,460.9766 981.0312,460.0312 981.0391,459.0391 981.0,458.0" stroke="#000" stroke-width="1" /><polyline fill="none" opacity="100" points="894.0,455.0 894.0,395.0" stroke="#000" stroke-width="1" /><polyline fill="none" opacity="100" points="898.0,455.0 898.0,395.0" stroke="#000" stroke-width="1" /><polyline fill="none" opacity="100" points="902.0,455.0 902.0,395.0" stroke="#000" stroke-width="1" /><polyline fill="none" opacity="100" points="906.0,455.0 906.0,395.0" stroke="#000" stroke-width="1" /><polyline fill="none" opacity="100" points="910.0,455.0 910.0,395.0" stroke="#000" stroke-width="1" /><polyline fill="none" opacity="100" points="914.0,455.0 914.0,395.0" stroke="#000" stroke-width="1" /><polyline fill="none" opacity="100" points="918.0,455.0 918.0,395.0" stroke="#000" stroke-width="1" /><polyline fill="none" opacity="100" points="922.0,455.0 922.0,395.0" stroke="#000" stroke-width="1" /><polyline fill="none" opacity="100" points="988.0,490.0 1020.0,490.0" stroke="#000" stroke-width="1" /><polyline fill="none" opacity="100" points="988.0,494.0 1020.0,494.0" stroke="#000" stroke-width="1" /><polyline fill="none" opacity="100" points="988.0,498.0 1020.0,498.0" stroke="#000" stroke-width="1" /><polyline fill="none" opacity="100" points="988.0,502.0 1020.0,502.0" stroke="#000" stroke-width="1" /><polyline fill="none" opacity="100" points="988.0,506.0 1020.0,506.0" stroke="#000" stroke-width="1" /><polyline fill="none" opacity="100" points="988.0,510.0 1020.0,510.0" stroke="#000" stroke-width="1" /><polyline fill="none" opacity="100" points="981.0,458.0 981.0,392.0" stroke="#000" stroke-width="1" /><polyline fill="none" opacity="100" points="985.0,458.0 985.0,392.0" stroke="#000" stroke-width="1" /><polyline fill="none" opacity="100" points="989.0,458.0 989.0,392.0" stroke="#000" stroke-width="1" /><polyline fill="none" opacity="100" points="930.0,344.0 930.0,313.0" stroke="#000" stroke-width="1" /><polyline fill="none" opacity="100" points="934.0,344.0 934.0,313.0" stroke="#000" stroke-width="1" /><polyline fill="none" opacity="100" points="938.0,344.0 938.0,313.0" stroke="#000" stroke-width="1" /><polyline fill="none" opacity="100" points="942.0,344.0 942.0,313.0" stroke="#000" stroke-width="1" /><polyline fill="none" opacity="100" points="946.0,344.0 946.0,313.0" stroke="#000" stroke-width="1" /><polyline fill="none" opacity="100" points="950.0,344.0 950.0,313.0" stroke="#000" stroke-width="1" /><polyline fill="none" opacity="100" points="954.0,344.0 954.0,313.0" stroke="#000" stroke-width="1" /><polyline fill="none" opacity="100" points="958.0,344.0 958.0,313.0" stroke="#000" stroke-width="1" /><polyline fill="none" opacity="100" points="962.0,344.0 962.0,313.0" stroke="#000" stroke-width="1" /><polyline fill="none" opacity="100" points="966.0,344.0 966.0,313.0" stroke="#000" stroke-width="1" /><polyline fill="none" opacity="100" points="988.0,529.0 988.0,560.0" stroke="#000" stroke-width="1" /><polyline fill="none" opacity="100" points="984.0,529.0 984.0,560.0" stroke="#000" stroke-width="1" /><polyline fill="none" opacity="100" points="980.0,529.0 980.0,560.0" stroke="#000" stroke-width="1" /><polyline fill="none" opacity="100" points="976.0,529.0 976.0,560.0" stroke="#000" stroke-width="1" /><polyline fill="none" opacity="100" points="972.0,529.0 972.0,560.0" stroke="#000" stroke-width="1" /><polyline fill="none" opacity="100" points="968.0,529.0 968.0,560.0" stroke="#000" stroke-width="1" /><polyline fill="none" opacity="100" points="964.0,529.0 964.0,560.0" stroke="#000" stroke-width="1" /><polyline fill="none" opacity="100" points="960.0,529.0 960.0,560.0" stroke="#000" stroke-width="1" /><polyline fill="none" opacity="100" points="956.0,529.0 956.0,560.0" stroke="#000" stroke-width="1" /><polyline fill="none" opacity="100" points="952.0,529.0 952.0,560.0" stroke="#000" stroke-width="1" /><polyline fill="none" opacity="100" points="947.0,470.0 947.0,465.0" stroke="#000" stroke-width="1" /><polyline fill="none" opacity="100" points="947.0,432.0 947.0,437.0" stroke="#000" stroke-width="1" /><polyline fill="none" opacity="100" points="947.0,426.0 947.0,422.0" stroke="#000" stroke-width="1" /><polyline fill="none" opacity="100" points="937.0,388.0 937.0,380.0" stroke="#000" stroke-width="1" /><polygon fill="#FFF" opacity="100" points="944.0,426.0 944.0,432.0 950.0,432.0 950.0,426.0" stroke="#000" stroke-width="1" /><polyline fill="none" opacity="100" points="949.0,422.0 945.0,423.0" stroke="#090" stroke-width="1" /><polyline fill="none" opacity="100" points="947.9564,418.1385 943.9564,419.1385" stroke="#090" stroke-width="1" /><polyline fill="none" opacity="100" points="946.9127,414.2771 942.9127,415.2771" stroke="#090" stroke-width="1" /><polyline fill="none" opacity="100" points="945.8691,410.4156 941.8691,411.4156" stroke="#090" stroke-width="1" /><polyline fill="none" opacity="100" points="944.8255,406.5542 940.8255,407.5542" stroke="#090" stroke-width="1" /><polyline fill="none" opacity="100" points="943.7818,402.6927 939.7818,403.6927" stroke="#090" stroke-width="1" /><polyline fill="none" opacity="100" points="942.7382,398.8313 938.7382,399.8313" stroke="#090" stroke-width="1" /><polyline fill="none" opacity="100" points="941.6945,394.9698 937.6945,395.9698" stroke="#090" stroke-width="1" /><polyline fill="none" opacity="100" points="940.6509,391.1084 936.6509,392.1084" stroke="#090" stroke-width="1" /><polyline fill="none" opacity="100" points="939.6073,387.2469 935.6073,388.2469" stroke="#090" stroke-width="1" /><polyline fill="none" opacity="100" points="949.0,437.0 945.0,437.0" stroke="#F00" stroke-width="1" /><polyline fill="none" opacity="100" points="949.0,441.0 945.0,441.0" stroke="#F00" stroke-width="1" /><polyline fill="none" opacity="100" points="949.0,445.0 945.0,445.0" stroke="#F00" stroke-width="1" /><polyline fill="none" opacity="100" points="949.0,449.0 945.0,449.0" stroke="#F00" stroke-width="1" /><polyline fill="none" opacity="100" points="949.0,453.0 945.0,453.0" stroke="#F00" stroke-width="1" /><polyline fill="none" opacity="100" points="949.0,457.0 945.0,457.0" stroke="#F00" stroke-width="1" /><polyline fill="none" opacity="100" points="949.0,461.0 945.0,461.0" stroke="#F00" stroke-width="1" /><polyline fill="none" opacity="100" points="949.0,465.0 945.0,465.0" stroke="#F00" stroke-width="1" /><polyline fill="none" opacity="100" points="1042.0,393.0 1048.0,390.0 1057.0,409.0 1051.0,412.0" stroke="#000" stroke-width="1" /><polyline fill="none" opacity="100" points="1051.0,439.0 1056.0,442.0 1046.0,460.0 1041.0,457.0" stroke="#000" stroke-width="1" /><text fill="#000" font-family="Arial" font-size="7" font-weight="normal" opacity="100" transform="rotate(65.0 1051.0,391.0) translate(0 7)" x="1051.0" y="391.0">кассы</text><text fill="#000" font-family="Arial" font-size="7" font-weight="normal" opacity="100" transform="rotate(-60.0 1041.0,454.0) translate(0 7)" x="1041.0" y="454.0">кассы</text><polyline fill="none" opacity="100" points="454.0,385.0 454.0,395.0" stroke="#000" stroke-width="1" /><polyline fill="none" opacity="100" points="454.0,465.0 454.0,455.0" stroke="#000" stroke-width="1" /><polyline fill="none" opacity="100" points="467.0,395.0 418.0,395.0 418.0,380.0 358.0,380.0 358.0,297.0 162.0,262.0 124.0,327.0" stroke="#000" stroke-width="1" /><polyline fill="none" opacity="100" points="144.0,339.0 174.0,287.0 336.0,316.0 336.0,372.0 327.0,372.0 327.0,379.0" stroke="#000" stroke-width="1" /><polyline fill="none" opacity="100" points="327.0,379.0 324.9766,380.4766 323.0312,382.0312 321.1631,383.6636 319.375,385.375 317.6729,387.1685 316.0469,389.0391 314.4941,390.9854 313.0,393.0 311.5371,395.0693 310.1406,397.2109 308.834,399.4399 307.625,401.75 306.5254,404.1265 305.5469,406.6094 304.6973,409.2129 304.0,412.0 303.4902,415.084 303.1406,418.3281 302.9375,421.6426 302.875,425.0 302.9375,428.3574 303.1406,431.6719 303.4902,434.916 304.0,438.0 304.6973,440.7871 305.5469,443.3906 306.5254,445.8735 307.625,448.25 308.834,450.5601 310.1406,452.7891 311.5371,454.9307 313.0,457.0 314.4941,459.0146 316.0469,460.9609 317.6729,462.8315 319.375,464.625 321.1631,466.3364 323.0312,467.9688 324.9766,469.5234 327.0,471.0" stroke="#000" stroke-width="1" /><polyline fill="none" opacity="100" points="327.0,471.0 327.0,478.0 336.0,478.0 336.0,547.0 243.0,601.0" stroke="#000" stroke-width="1" /><polyline fill="none" opacity="100" points="253.0,620.0 358.0,559.0 358.0,470.0 418.0,470.0 418.0,455.0 467.0,455.0" stroke="#000" stroke-width="1" /><polyline fill="none" opacity="100" points="463.0,395.0 463.0,455.0" stroke="#000" stroke-width="1" /><polyline fill="none" opacity="100" points="459.0,395.0 459.0,455.0" stroke="#000" stroke-width="1" /><polyline fill="none" opacity="100" points="455.0,395.0 455.0,455.0" stroke="#000" stroke-width="1" /><polyline fill="none" opacity="100" points="451.0,395.0 451.0,455.0" stroke="#000" stroke-width="1" /><polyline fill="none" opacity="100" points="447.0,395.0 447.0,455.0" stroke="#000" stroke-width="1" /><polyline fill="none" opacity="100" points="443.0,395.0 443.0,455.0" stroke="#000" stroke-width="1" /><polyline fill="none" opacity="100" points="439.0,395.0 439.0,455.0" stroke="#000" stroke-width="1" /><polyline fill="none" opacity="100" points="435.0,395.0 435.0,455.0" stroke="#000" stroke-width="1" /><polyline fill="none" opacity="100" points="250.0,597.0 261.0,616.0" stroke="#000" stroke-width="1" /><polyline fill="none" opacity="100" points="253.43,594.942 264.43,613.942" stroke="#000" stroke-width="1" /><polyline fill="none" opacity="100" points="256.8599,592.884 267.8599,611.884" stroke="#000" stroke-width="1" /><polyline fill="none" opacity="100" points="260.2899,590.8261 271.2899,609.8261" stroke="#000" stroke-width="1" /><polyline fill="none" opacity="100" points="263.7199,588.7681 274.7199,607.7681" stroke="#000" stroke-width="1" /><polyline fill="none" opacity="100" points="267.1499,586.7101 278.1499,605.7101" stroke="#000" stroke-width="1" /><polyline fill="none" opacity="100" points="270.5798,584.6521 281.5798,603.6521" stroke="#000" stroke-width="1" /><polyline fill="none" opacity="100" points="274.0098,582.5941 285.0098,601.5941" stroke="#000" stroke-width="1" /><polyline fill="none" opacity="100" points="336.0,537.0 358.0,537.0" stroke="#000" stroke-width="1" /><polyline fill="none" opacity="100" points="336.0,533.0 358.0,533.0" stroke="#000" stroke-width="1" /><polyline fill="none" opacity="100" points="302.0,310.0 306.0,288.0" stroke="#000" stroke-width="1" /><polyline fill="none" opacity="100" points="298.0953,309.1323 302.0953,287.1323" stroke="#000" stroke-width="1" /><polyline fill="none" opacity="100" points="294.1905,308.2646 298.1905,286.2646" stroke="#000" stroke-width="1" /><polyline fill="none" opacity="100" points="146.0,335.0 127.0,324.0" stroke="#000" stroke-width="1" /><polyline fill="none" opacity="100" points="147.961,331.5137 128.961,320.5137" stroke="#000" stroke-width="1" /><polyline fill="none" opacity="100" points="149.9221,328.0274 130.9221,317.0274" stroke="#000" stroke-width="1" /><polyline fill="none" opacity="100" points="151.8831,324.5411 132.8831,313.5411" stroke="#000" stroke-width="1" /><polyline fill="none" opacity="100" points="153.8442,321.0548 134.8442,310.0548" stroke="#000" stroke-width="1" /><polyline fill="none" opacity="100" points="155.8052,317.5685 136.8052,306.5685" stroke="#000" stroke-width="1" /><polyline fill="none" opacity="100" points="157.7663,314.0822 138.7663,303.0822" stroke="#000" stroke-width="1" /><polyline fill="none" opacity="100" points="159.7273,310.5959 140.7273,299.5959" stroke="#000" stroke-width="1" /><polyline fill="none" opacity="100" points="161.6884,307.1096 142.6884,296.1096" stroke="#000" stroke-width="1" /><polyline fill="none" opacity="100" points="163.6494,303.6233 144.6494,292.6233" stroke="#000" stroke-width="1" /><polyline fill="none" opacity="100" points="387.0,470.0 387.0,465.0" stroke="#000" stroke-width="1" /><polyline fill="none" opacity="100" points="387.0,437.0 387.0,432.0" stroke="#000" stroke-width="1" /><polygon fill="none" opacity="100" points="384.0,426.0 390.0,426.0 390.0,432.0 384.0,432.0" stroke="#000" stroke-width="1" /><polyline fill="none" opacity="100" points="387.0,426.0 387.0,422.0" stroke="#000" stroke-width="1" /><polyline fill="none" opacity="100" points="397.0,388.0 397.0,380.0" stroke="#000" stroke-width="1" /><polyline fill="none" opacity="100" points="385.0,465.0 389.0,465.0" stroke="#000" stroke-width="1" /><polyline fill="none" opacity="100" points="385.0,461.0 389.0,461.0" stroke="#000" stroke-width="1" /><polyline fill="none" opacity="100" points="385.0,457.0 389.0,457.0" stroke="#000" stroke-width="1" /><polyline fill="none" opacity="100" points="385.0,453.0 389.0,453.0" stroke="#000" stroke-width="1" /><polyline fill="none" opacity="100" points="385.0,449.0 389.0,449.0" stroke="#000" stroke-width="1" /><polyline fill="none" opacity="100" points="385.0,445.0 389.0,445.0" stroke="#000" stroke-width="1" /><polyline fill="none" opacity="100" points="385.0,441.0 389.0,441.0" stroke="#000" stroke-width="1" /><polyline fill="none" opacity="100" points="385.0,437.0 389.0,437.0" stroke="#000" stroke-width="1" /><polyline fill="none" opacity="100" points="385.0,422.0 389.0,423.0" stroke="#000" stroke-width="1" /><polyline fill="none" opacity="100" points="386.0706,418.1459 390.0706,419.1459" stroke="#000" stroke-width="1" /><polyline fill="none" opacity="100" points="387.1412,414.2919 391.1412,415.2919" stroke="#000" stroke-width="1" /><polyline fill="none" opacity="100" points="388.2117,410.4378 392.2117,411.4378" stroke="#000" stroke-width="1" /><polyline fill="none" opacity="100" points="389.2823,406.5837 393.2823,407.5837" stroke="#000" stroke-width="1" /><polyline fill="none" opacity="100" points="390.3529,402.7296 394.3529,403.7296" stroke="#000" stroke-width="1" /><polyline fill="none" opacity="100" points="391.4235,398.8756 395.4235,399.8756" stroke="#000" stroke-width="1" /><polyline fill="none" opacity="100" points="392.494,395.0215 396.494,396.0215" stroke="#000" stroke-width="1" /><polyline fill="none" opacity="100" points="393.5646,391.1674 397.5646,392.1674" stroke="#000" stroke-width="1" /><polyline fill="none" opacity="100" points="394.6352,387.3134 398.6352,388.3134" stroke="#000" stroke-width="1" /><polyline fill="none" opacity="100" points="313.0,457.0 307.0,460.0 298.0,441.0 304.0,438.0" stroke="#000" stroke-width="1" /><polyline fill="none" opacity="100" points="304.0,412.0 297.0,409.0 307.0,390.0 313.0,393.0" stroke="#000" stroke-width="1" /><text fill="#FFF" font-family="Arial" font-size="7" font-weight="normal" opacity="100" transform="rotate(65.0 306.0,439.0) translate(0 7)" x="306.0" y="439.0">кассы</text><text fill="#FFF" font-family="Arial" font-size="7" font-weight="normal" opacity="100" transform="rotate(-60.0 296.0,406.0) translate(0 7)" x="296.0" y="406.0">кассы</text><text fill="#0DA303" font-family="Arial" font-size="20" font-weight="normal" opacity="100" x="460.0" y="350.0">&lt;&lt; Маршала Покрышкина</text><text fill="#0DA303" font-family="Arial" font-size="20" font-weight="normal" opacity="100" x="753.0" y="512.0">Золотая нива &gt;&gt;</text><text fill="#0DA303" font-family="Arial" font-size="25" font-weight="bold" opacity="100" x="593.25" y="432.5">Берёзовая роща</text><text fill="#00AFAF" font-family="Arial" font-size="15" font-weight="normal" opacity="100" x="1.75" y="425.5">ул. Кошурникова</text><text fill="#00AFAF" font-family="Arial" font-size="15" font-weight="normal" opacity="100" transform="rotate(-30.0 79.0,669.0) translate(0 15)" x="79.0" y="669.0">ул. Крылова</text><text fill="#00AFAF" font-family="Arial" font-size="15" font-weight="normal" opacity="100" x="1072.75" y="431.5">ул. Кошурникова</text><text fill="#00AFAF" font-family="Arial" font-size="15" font-weight="normal" opacity="100" transform="rotate(-65.0 276.0,212.0) translate(0 15)" x="276.0" y="212.0">проспект Дзержинcкого</text><polyline fill="none" opacity="100" points="939.0,451.0 957.0,451.0" stroke="#F00" stroke-width="1" /><polygon fill="#F00" opacity="100" points="951.784,452.3976 957.0,451.0 951.784,449.6024" stroke="#F00" stroke-width="1" /><polyline fill="none" opacity="100" points="953.0,402.0 931.0,408.0" stroke="#090" stroke-width="1" /><polygon fill="#090" opacity="100" points="936.9092,404.5531 931.0,408.0 937.841,407.9695" stroke="#090" stroke-width="1" /><polyline fill="none" opacity="100" points="355.0,119.0 381.0,71.0" stroke="#000" stroke-width="1" /><polyline fill="none" opacity="100" points="350.6035,116.6186 376.6035,68.6186" stroke="#000" stroke-width="1" /><polyline fill="none" opacity="100" points="380.4504,74.1142 374.2954,70.7802" stroke="#000" stroke-width="1" /><polyline fill="none" opacity="100" points="379.0216,76.752 372.8665,73.4181" stroke="#000" stroke-width="1" /><polyline fill="none" opacity="100" points="377.5927,79.3899 371.4377,76.0559" stroke="#000" stroke-width="1" /><polyline fill="none" opacity="100" points="376.1639,82.0278 370.0089,78.6938" stroke="#000" stroke-width="1" /><polyline fill="none" opacity="100" points="374.735,84.6657 368.58,81.3317" stroke="#000" stroke-width="1" /><polyline fill="none" opacity="100" points="373.3062,87.3035 367.1512,83.9696" stroke="#000" stroke-width="1" /><polyline fill="none" opacity="100" points="371.8773,89.9414 365.7223,86.6074" stroke="#000" stroke-width="1" /><polyline fill="none" opacity="100" points="370.4485,92.5793 364.2935,89.2453" stroke="#000" stroke-width="1" /><polyline fill="none" opacity="100" points="369.0196,95.2172 362.8646,91.8832" stroke="#000" stroke-width="1" /><polyline fill="none" opacity="100" points="367.5908,97.855 361.4358,94.5211" stroke="#000" stroke-width="1" /><polyline fill="none" opacity="100" points="366.1619,100.4929 360.0069,97.1589" stroke="#000" stroke-width="1" /><polyline fill="none" opacity="100" points="364.7331,103.1308 358.5781,99.7968" stroke="#000" stroke-width="1" /><polyline fill="none" opacity="100" points="363.3042,105.7687 357.1492,102.4347" stroke="#000" stroke-width="1" /><polyline fill="none" opacity="100" points="361.8754,108.4065 355.7204,105.0726" stroke="#000" stroke-width="1" /><polyline fill="none" opacity="100" points="360.4466,111.0444 354.2915,107.7104" stroke="#000" stroke-width="1" /><polyline fill="none" opacity="100" points="359.0177,113.6823 352.8627,110.3483" stroke="#000" stroke-width="1" /><polyline fill="none" opacity="100" points="357.5889,116.3202 351.4338,112.9862" stroke="#000" stroke-width="1" /><polyline fill="none" opacity="100" points="356.16,118.958 350.005,115.6241" stroke="#000" stroke-width="1" /><polyline fill="none" opacity="100" points="327.0,171.0 355.0,119.0" stroke="#000" stroke-width="1" /><polyline fill="none" opacity="100" points="322.5976,168.6295 350.5976,116.6295" stroke="#000" stroke-width="1" /><polyline fill="none" opacity="100" points="354.4582,122.1155 348.2949,118.7968" stroke="#000" stroke-width="1" /><polyline fill="none" opacity="100" points="353.0359,124.7569 346.8726,121.4382" stroke="#000" stroke-width="1" /><polyline fill="none" opacity="100" points="351.6136,127.3983 345.4503,124.0796" stroke="#000" stroke-width="1" /><polyline fill="none" opacity="100" points="350.1913,130.0398 344.028,126.7211" stroke="#000" stroke-width="1" /><polyline fill="none" opacity="100" points="348.769,132.6812 342.6057,129.3625" stroke="#000" stroke-width="1" /><polyline fill="none" opacity="100" points="347.3467,135.3226 341.1834,132.0039" stroke="#000" stroke-width="1" /><polyline fill="none" opacity="100" points="345.9244,137.964 339.7611,134.6453" stroke="#000" stroke-width="1" /><polyline fill="none" opacity="100" points="344.5021,140.6054 338.3388,137.2867" stroke="#000" stroke-width="1" /><polyline fill="none" opacity="100" points="343.0798,143.2468 336.9165,139.9281" stroke="#000" stroke-width="1" /><polyline fill="none" opacity="100" points="341.6575,145.8882 335.4942,142.5695" stroke="#000" stroke-width="1" /><polyline fill="none" opacity="100" points="340.2352,148.5296 334.0719,145.2109" stroke="#000" stroke-width="1" /><polyline fill="none" opacity="100" points="338.8129,151.1711 332.6496,147.8524" stroke="#000" stroke-width="1" /><polyline fill="none" opacity="100" points="337.3906,153.8125 331.2273,150.4938" stroke="#000" stroke-width="1" /><polyline fill="none" opacity="100" points="335.9683,156.4539 329.805,153.1352" stroke="#000" stroke-width="1" /><polyline fill="none" opacity="100" points="334.546,159.0953 328.3827,155.7766" stroke="#000" stroke-width="1" /><polyline fill="none" opacity="100" points="333.1237,161.7367 326.9604,158.418" stroke="#000" stroke-width="1" /><polyline fill="none" opacity="100" points="331.7014,164.3781 325.5381,161.0594" stroke="#000" stroke-width="1" /><polyline fill="none" opacity="100" points="330.2791,167.0195 324.1158,163.7008" stroke="#000" stroke-width="1" /><polyline fill="none" opacity="100" points="328.8568,169.661 322.6935,166.3423" stroke="#000" stroke-width="1" /><polyline fill="none" opacity="100" points="318.0,190.0 327.0,171.0" stroke="#000" stroke-width="1" /><polyline fill="none" opacity="100" points="313.4813,187.8596 322.4813,168.8596" stroke="#000" stroke-width="1" /><polyline fill="none" opacity="100" points="326.6195,174.1393 320.2933,171.1427" stroke="#000" stroke-width="1" /><polyline fill="none" opacity="100" points="325.3352,176.8505 319.0091,173.8539" stroke="#000" stroke-width="1" /><polyline fill="none" opacity="100" points="324.051,179.5617 317.7248,176.5651" stroke="#000" stroke-width="1" /><polyline fill="none" opacity="100" points="322.7667,182.2729 316.4405,179.2763" stroke="#000" stroke-width="1" /><polyline fill="none" opacity="100" points="321.4824,184.9842 315.1563,181.9875" stroke="#000" stroke-width="1" /><polyline fill="none" opacity="100" points="320.1982,187.6954 313.872,184.6988" stroke="#000" stroke-width="1" /><polyline fill="none" opacity="100" points="318.9139,190.4066 312.5878,187.41" stroke="#000" stroke-width="1" /><polyline fill="none" opacity="100" points="315.0,209.0 318.0,190.0" stroke="#000" stroke-width="1" /><polyline fill="none" opacity="100" points="310.0612,208.2202 313.0612,189.2202" stroke="#000" stroke-width="1" /><polyline fill="none" opacity="100" points="318.5199,193.1193 311.6055,192.0275" stroke="#000" stroke-width="1" /><polyline fill="none" opacity="100" points="318.052,196.0825 311.1376,194.9908" stroke="#000" stroke-width="1" /><polyline fill="none" opacity="100" points="317.5841,199.0458 310.6698,197.9541" stroke="#000" stroke-width="1" /><polyline fill="none" opacity="100" points="317.1162,202.0091 310.2019,200.9174" stroke="#000" stroke-width="1" /><polyline fill="none" opacity="100" points="316.6483,204.9724 309.734,203.8807" stroke="#000" stroke-width="1" /><polyline fill="none" opacity="100" points="316.1804,207.9357 309.2661,206.844" stroke="#000" stroke-width="1" /><polyline fill="none" opacity="100" points="320.0,223.0 315.0,209.0" stroke="#000" stroke-width="1" /><polyline fill="none" opacity="100" points="315.2913,224.6817 310.2913,210.6817" stroke="#000" stroke-width="1" /><polyline fill="none" opacity="100" points="316.9508,211.4889 310.3586,213.8432" stroke="#000" stroke-width="1" /><polyline fill="none" opacity="100" points="317.9598,214.3141 311.3676,216.6685" stroke="#000" stroke-width="1" /><polyline fill="none" opacity="100" points="318.9688,217.1393 312.3766,219.4937" stroke="#000" stroke-width="1" /><polyline fill="none" opacity="100" points="319.9778,219.9646 313.3856,222.3189" stroke="#000" stroke-width="1" /><polyline fill="none" opacity="100" points="328.0,230.0 320.0,223.0" stroke="#000" stroke-width="1" /><polyline fill="none" opacity="100" points="324.7075,233.7629 316.7075,226.7629" stroke="#000" stroke-width="1" /><polyline fill="none" opacity="100" points="322.9162,224.2229 318.3067,229.491" stroke="#000" stroke-width="1" /><polyline fill="none" opacity="100" points="325.174,226.1985 320.5644,231.4665" stroke="#000" stroke-width="1" /><polyline fill="none" opacity="100" points="327.4317,228.174 322.8222,233.442" stroke="#000" stroke-width="1" /><polyline fill="none" opacity="100" points="339.0,232.0 328.0,230.0" stroke="#000" stroke-width="1" /><polyline fill="none" opacity="100" points="338.1056,236.9193 327.1056,234.9193" stroke="#000" stroke-width="1" /><polyline fill="none" opacity="100" points="331.1305,229.5528 329.8783,236.4399" stroke="#000" stroke-width="1" /><polyline fill="none" opacity="100" points="334.0821,230.0894 332.8299,236.9765" stroke="#000" stroke-width="1" /><polyline fill="none" opacity="100" points="337.0337,230.6261 335.7815,237.5132" stroke="#000" stroke-width="1" /><polyline fill="none" opacity="100" points="349.0,228.0 339.0,232.0" stroke="#000" stroke-width="1" /><polyline fill="none" opacity="100" points="350.857,232.6424 340.857,236.6424" stroke="#000" stroke-width="1" /><polyline fill="none" opacity="100" points="341.414,229.9574 344.0138,236.4567" stroke="#000" stroke-width="1" /><polyline fill="none" opacity="100" points="344.1995,228.8432 346.7992,235.3425" stroke="#000" stroke-width="1" /><polyline fill="none" opacity="100" points="346.9849,227.729 349.5846,234.2283" stroke="#000" stroke-width="1" /><polyline fill="none" opacity="100" points="355.0,219.0 349.0,228.0" stroke="#000" stroke-width="1" /><polyline fill="none" opacity="100" points="359.1603,221.7735 353.1603,230.7735" stroke="#000" stroke-width="1" /><polyline fill="none" opacity="100" points="349.8321,224.9491 355.6564,228.8321" stroke="#000" stroke-width="1" /><polyline fill="none" opacity="100" points="351.4962,222.453 357.3205,226.3359" stroke="#000" stroke-width="1" /><polyline fill="none" opacity="100" points="353.1603,219.9568 358.9846,223.8397" stroke="#000" stroke-width="1" /><polyline fill="none" opacity="100" points="356.0,205.0 355.0,219.0" stroke="#000" stroke-width="1" /><polyline fill="none" opacity="100" points="360.9873,205.3562 359.9873,219.3562" stroke="#000" stroke-width="1" /><polyline fill="none" opacity="100" points="354.2163,215.9364 361.1985,216.4351" stroke="#000" stroke-width="1" /><polyline fill="none" opacity="100" points="354.43,212.944 361.4122,213.4427" stroke="#000" stroke-width="1" /><polyline fill="none" opacity="100" points="354.6438,209.9516 361.626,210.4504" stroke="#000" stroke-width="1" /><polyline fill="none" opacity="100" points="354.8575,206.9592 361.8397,207.458" stroke="#000" stroke-width="1" /><polyline fill="none" opacity="100" points="352.0,190.0 356.0,205.0" stroke="#000" stroke-width="1" /><polyline fill="none" opacity="100" points="356.8312,188.7117 360.8312,203.7117" stroke="#000" stroke-width="1" /><polyline fill="none" opacity="100" points="354.2608,202.359 361.0244,200.5553" stroke="#000" stroke-width="1" /><polyline fill="none" opacity="100" points="353.4878,199.4603 360.2514,197.6566" stroke="#000" stroke-width="1" /><polyline fill="none" opacity="100" points="352.7148,196.5615 359.4784,194.7579" stroke="#000" stroke-width="1" /><polyline fill="none" opacity="100" points="351.9418,193.6628 358.7055,191.8592" stroke="#000" stroke-width="1" /><polyline fill="none" opacity="100" points="351.1688,190.7641 357.9325,188.9605" stroke="#000" stroke-width="1" /><polyline fill="none" opacity="100" points="347.0,174.0 352.0,190.0" stroke="#000" stroke-width="1" /><polyline fill="none" opacity="100" points="351.7724,172.5086 356.7724,188.5086" stroke="#000" stroke-width="1" /><polyline fill="none" opacity="100" points="350.1507,187.4348 356.8321,185.3469" stroke="#000" stroke-width="1" /><polyline fill="none" opacity="100" points="349.2559,184.5714 355.9372,182.4835" stroke="#000" stroke-width="1" /><polyline fill="none" opacity="100" points="348.361,181.708 355.0424,179.62" stroke="#000" stroke-width="1" /><polyline fill="none" opacity="100" points="347.4662,178.8445 354.1476,176.7566" stroke="#000" stroke-width="1" /><polyline fill="none" opacity="100" points="346.5714,175.9811 353.2528,173.8932" stroke="#000" stroke-width="1" /><polyline fill="none" opacity="100" points="350.0,153.0 347.0,174.0" stroke="#000" stroke-width="1" /><polyline fill="none" opacity="100" points="354.9497,153.7071 351.9497,174.7071" stroke="#000" stroke-width="1" /><polyline fill="none" opacity="100" points="346.4343,170.8887 353.364,171.8787" stroke="#000" stroke-width="1" /><polyline fill="none" opacity="100" points="346.8586,167.9189 353.7882,168.9088" stroke="#000" stroke-width="1" /><polyline fill="none" opacity="100" points="347.2828,164.949 354.2125,165.939" stroke="#000" stroke-width="1" /><polyline fill="none" opacity="100" points="347.7071,161.9792 354.6368,162.9691" stroke="#000" stroke-width="1" /><polyline fill="none" opacity="100" points="348.1314,159.0093 355.061,159.9993" stroke="#000" stroke-width="1" /><polyline fill="none" opacity="100" points="348.5556,156.0395 355.4853,157.0294" stroke="#000" stroke-width="1" /><polyline fill="none" opacity="100" points="348.9799,153.0696 355.9095,154.0596" stroke="#000" stroke-width="1" /><polyline fill="none" opacity="100" points="358.0,138.0 350.0,153.0" stroke="#000" stroke-width="1" /><polyline fill="none" opacity="100" points="362.4118,140.3529 354.4118,155.3529" stroke="#000" stroke-width="1" /><polyline fill="none" opacity="100" points="350.5294,149.8824 356.7059,153.1765" stroke="#000" stroke-width="1" /><polyline fill="none" opacity="100" points="351.9412,147.2353 358.1176,150.5294" stroke="#000" stroke-width="1" /><polyline fill="none" opacity="100" points="353.3529,144.5882 359.5294,147.8824" stroke="#000" stroke-width="1" /><polyline fill="none" opacity="100" points="354.7647,141.9412 360.9412,145.2353" stroke="#000" stroke-width="1" /><polyline fill="none" opacity="100" points="356.1765,139.2941 362.3529,142.5882" stroke="#000" stroke-width="1" /><polyline fill="none" opacity="100" points="374.0,106.0 358.0,138.0" stroke="#000" stroke-width="1" /><polyline fill="none" opacity="100" points="378.4721,108.2361 362.4721,140.2361" stroke="#000" stroke-width="1" /><polyline fill="none" opacity="100" points="358.4472,134.8695 364.7082,138.0" stroke="#000" stroke-width="1" /><polyline fill="none" opacity="100" points="359.7889,132.1862 366.0498,135.3167" stroke="#000" stroke-width="1" /><polyline fill="none" opacity="100" points="361.1305,129.5029 367.3915,132.6334" stroke="#000" stroke-width="1" /><polyline fill="none" opacity="100" points="362.4721,126.8197 368.7331,129.9502" stroke="#000" stroke-width="1" /><polyline fill="none" opacity="100" points="363.8138,124.1364 370.0748,127.2669" stroke="#000" stroke-width="1" /><polyline fill="none" opacity="100" points="365.1554,121.4531 371.4164,124.5836" stroke="#000" stroke-width="1" /><polyline fill="none" opacity="100" points="366.4971,118.7698 372.758,121.9003" stroke="#000" stroke-width="1" /><polyline fill="none" opacity="100" points="367.8387,116.0865 374.0997,119.217" stroke="#000" stroke-width="1" /><polyline fill="none" opacity="100" points="369.1803,113.4033 375.4413,116.5337" stroke="#000" stroke-width="1" /><polyline fill="none" opacity="100" points="370.522,110.72 376.783,113.8505" stroke="#000" stroke-width="1" /><polyline fill="none" opacity="100" points="371.8636,108.0367 378.1246,111.1672" stroke="#000" stroke-width="1" /><polyline fill="none" opacity="100" points="392.0,71.0 374.0,106.0" stroke="#000" stroke-width="1" /><polyline fill="none" opacity="100" points="396.4464,73.2867 378.4464,108.2867" stroke="#000" stroke-width="1" /><polyline fill="none" opacity="100" points="374.4828,102.8748 380.7078,106.0762" stroke="#000" stroke-width="1" /><polyline fill="none" opacity="100" points="375.8548,100.2069 382.0798,103.4084" stroke="#000" stroke-width="1" /><polyline fill="none" opacity="100" points="377.2268,97.5391 383.4519,100.7405" stroke="#000" stroke-width="1" /><polyline fill="none" opacity="100" points="378.5989,94.8712 384.8239,98.0726" stroke="#000" stroke-width="1" /><polyline fill="none" opacity="100" points="379.9709,92.2033 386.1959,95.4048" stroke="#000" stroke-width="1" /><polyline fill="none" opacity="100" points="381.343,89.5355 387.568,92.7369" stroke="#000" stroke-width="1" /><polyline fill="none" opacity="100" points="382.715,86.8676 388.94,90.069" stroke="#000" stroke-width="1" /><polyline fill="none" opacity="100" points="384.0871,84.1997 390.3121,87.4012" stroke="#000" stroke-width="1" /><polyline fill="none" opacity="100" points="385.4591,81.5319 391.6841,84.7333" stroke="#000" stroke-width="1" /><polyline fill="none" opacity="100" points="386.8312,78.864 393.0562,82.0655" stroke="#000" stroke-width="1" /><polyline fill="none" opacity="100" points="388.2032,76.1962 394.4282,79.3976" stroke="#000" stroke-width="1" /><polyline fill="none" opacity="100" points="389.5752,73.5283 395.8003,76.7297" stroke="#000" stroke-width="1" /><polyline fill="none" opacity="100" points="390.9473,70.8604 397.1723,74.0619" stroke="#000" stroke-width="1" /><text fill="#FFF" font-family="Arial" font-size="20" font-weight="bold" opacity="100" transform="rotate(-19.0 367.0,108.0) translate(0 20)" x="367.0" y="108.0">А</text><text fill="#FFF" font-family="Arial" font-size="20" font-weight="bold" opacity="100" transform="rotate(-19.0 835.0,317.0) translate(0 20)" x="835.0" y="317.0">А</text><text fill="#FFF" font-family="Arial" font-size="20" font-weight="bold" opacity="100" transform="rotate(-19.0 344.0,155.0) translate(0 20)" x="344.0" y="155.0">Т</text><polygon fill="#FFD0D0" opacity="0.7" points="118.0,255.0 429.0,255.0 429.0,390.0 471.0,390.0 471.0,461.0 429.0,461.0 429.0,632.0 118.0,632.0" stroke="#FFD0D0" stroke-width="1" /><text fill="#FF4040" font-family="Arial" font-size="15" font-weight="normal" opacity="1.0" transform="rotate(-19.0 188.0,459.0) translate(0 15)" x="188.0" y="459.0">Закрыто</text><polyline fill="none" opacity="1.0" points="118.0,255.0 429.0,255.0 429.0,390.0 471.0,390.0 471.0,461.0 429.0,461.0 429.0,632.0 118.0,632.0 118.0,255.0" stroke="#FF4040" stroke-dasharray="5,5" stroke-width="1" /></g></g></svg>