<?xml version="1.0" encoding="utf-8" ?>
<svg baseProfile="tiny" height="260px" version="1.2" width="910px" xmlns="http://www.w3.org/2000/svg" xmlns:ev="http://www.w3.org/2001/xml-events" xmlns:xlink="http://www.w3.org/1999/xlink"><defs /><g><polygon fill="#0DA303" opacity="100" points="259.0,165.0 709.0,165.0 709.0,195.0 259.0,195.0" stroke="#000" stroke-width="1" /><polygon fill="#0DA303" opacity="100" points="709.0,85.0 709.0,55.0 259.0,55.0 259.0,85.0" stroke="#000" stroke-width="1" /><text fill="#0DA303" font-family="Arial" font-size="20" font-weight="normal" opacity="100" x="258.0" y="53.0">&lt;&lt; Сибирская</text><text fill="#0DA303" font-family="Arial" font-size="20" font-weight="normal" opacity="100" x="543.0" y="213.0">Берёзовая роща &gt;&gt;</text><text fill="#0DA303" font-family="Arial" font-size="25" font-weight="bold" opacity="100" x="355.25" y="134.5">Маршала Покрышкина</text><polyline fill="none" opacity="100" points="709.0,85.0 709.0,100.0" stroke="#000" stroke-width="1" /><polyline fill="none" opacity="100" points="709.0,165.0 709.0,150.0" stroke="#000" stroke-width="1" /><polyline fill="none" opacity="100" points="703.0,100.0 738.0,100.0 738.0,72.0 797.0,72.0 797.0,19.0 902.0,19.0 902.0,24.0" stroke="#000" stroke-width="1" /><polyline fill="none" opacity="100" points="902.0,45.0 902.0,50.0 827.0,50.0 827.0,72.0 837.0,72.0 837.0,176.0 827.0,176.0 827.0,203.0 861.0,203.0 861.0,184.0 865.0,184.0" stroke="#000" stroke-width="1" /><polyline fill="none" opacity="100" points="887.0,184.0 891.0,184.0 891.0,233.0 797.0,233.0 797.0,176.0 738.0,176.0 738.0,150.0 703.0,150.0" stroke="#000" stroke-width="1" /><polyline fill="none" opacity="100" points="703.0,150.0 703.0,100.0" stroke="#000" stroke-width="1" /><polyline fill="none" opacity="100" points="707.0,150.0 707.0,100.0" stroke="#000" stroke-width="1" /><polyline fill="none" opacity="100" points="711.0,150.0 711.0,100.0" stroke="#000" stroke-width="1" /><polyline fill="none" opacity="100" points="715.0,150.0 715.0,100.0" stroke="#000" stroke-width="1" /><polyline fill="none" opacity="100" points="719.0,150.0 719.0,100.0" stroke="#000" stroke-width="1" /><polyline fill="none" opacity="100" points="723.0,150.0 723.0,100.0" stroke="#000" stroke-width="1" /><polyline fill="none" opacity="100" points="727.0,150.0 727.0,100.0" stroke="#000" stroke-width="1" /><polyline fill="none" opacity="100" points="731.0,150.0 731.0,100.0" stroke="#000" stroke-width="1" /><polyline fill="none" opacity="100" points="735.0,150.0 735.0,100.0" stroke="#000" stroke-width="1" /><polyline fill="none" opacity="100" points="847.0,50.0 847.0,19.0" stroke="#000" stroke-width="1" /><polyline fill="none" opacity="100" points="851.0,50.0 851.0,19.0" stroke="#000" stroke-width="1" /><polyline fill="none" opacity="100" points="855.0,50.0 855.0,19.0" stroke="#000" stroke-width="1" /><polyline fill="none" opacity="100" points="859.0,50.0 859.0,19.0" stroke="#000" stroke-width="1" /><polyline fill="none" opacity="100" points="863.0,50.0 863.0,19.0" stroke="#000" stroke-width="1" /><polyline fill="none" opacity="100" points="867.0,50.0 867.0,19.0" stroke="#000" stroke-width="1" /><polyline fill="none" opacity="100" points="871.0,50.0 871.0,19.0" stroke="#000" stroke-width="1" /><polyline fill="none" opacity="100" points="875.0,50.0 875.0,19.0" stroke="#000" stroke-width="1" /><polyline fill="none" opacity="100" points="879.0,50.0 879.0,19.0" stroke="#000" stroke-width="1" /><polyline fill="none" opacity="100" points="883.0,50.0 883.0,19.0" stroke="#000" stroke-width="1" /><polyline fill="none" opacity="100" points="887.0,50.0 887.0,19.0" stroke="#000" stroke-width="1" /><polyline fill="none" opacity="100" points="861.0,188.0 891.0,188.0" stroke="#000" stroke-width="1" /><polyline fill="none" opacity="100" points="861.0,192.0 891.0,192.0" stroke="#000" stroke-width="1" /><polyline fill="none" opacity="100" points="861.0,196.0 891.0,196.0" stroke="#000" stroke-width="1" /><polyline fill="none" opacity="100" points="861.0,200.0 891.0,200.0" stroke="#000" stroke-width="1" /><polyline fill="none" opacity="100" points="854.0,203.0 854.0,233.0" stroke="#000" stroke-width="1" /><polyline fill="none" opacity="100" points="850.0,203.0 850.0,233.0" stroke="#000" stroke-width="1" /><polyline fill="none" opacity="100" points="846.0,203.0 846.0,233.0" stroke="#000" stroke-width="1" /><polyline fill="none" opacity="100" points="842.0,203.0 842.0,233.0" stroke="#000" stroke-width="1" /><polyline fill="none" opacity="100" points="838.0,203.0 838.0,233.0" stroke="#000" stroke-width="1" /><polygon fill="#C0C0C0" opacity="100" points="789.0,101.0 797.0,101.0 797.0,143.0 789.0,143.0" stroke="#000" stroke-width="1" /><polyline fill="none" opacity="100" points="746.0,96.0 756.0,96.0" stroke="#000" stroke-width="1" /><polygon fill="#FFF" opacity="100" points="756.0,96.0 766.0,96.0 766.0,106.0 756.0,106.0" stroke="#000" stroke-width="1" /><polyline fill="none" opacity="100" points="761.0,106.0 761.0,110.0" stroke="#000" stroke-width="1" /><polyline fill="none" opacity="100" points="761.0,138.0 761.0,144.0" stroke="#000" stroke-width="1" /><polyline fill="none" opacity="100" points="761.0,172.0 761.0,176.0" stroke="#000" stroke-width="1" /><polyline fill="none" opacity="100" points="759.0,110.0 763.0,110.0" stroke="#090" stroke-width="1" /><polyline fill="none" opacity="100" points="759.0,114.0 763.0,114.0" stroke="#090" stroke-width="1" /><polyline fill="none" opacity="100" points="759.0,118.0 763.0,118.0" stroke="#090" stroke-width="1" /><polyline fill="none" opacity="100" points="759.0,122.0 763.0,122.0" stroke="#090" stroke-width="1" /><polyline fill="none" opacity="100" points="759.0,126.0 763.0,126.0" stroke="#090" stroke-width="1" /><polyline fill="none" opacity="100" points="759.0,130.0 763.0,130.0" stroke="#090" stroke-width="1" /><polyline fill="none" opacity="100" points="759.0,134.0 763.0,134.0" stroke="#090" stroke-width="1" /><polyline fill="none" opacity="100" points="759.0,138.0 763.0,138.0" stroke="#090" stroke-width="1" /><polyline fill="none" opacity="100" points="759.0,144.0 763.0,144.0" stroke="#F00" stroke-width="1" /><polyline fill="none" opacity="100" points="759.0,148.0 763.0,148.0" stroke="#F00" stroke-width="1" /><polyline fill="none" opacity="100" points="759.0,152.0 763.0,152.0" stroke="#F00" stroke-width="1" /><polyline fill="none" opacity="100" points="759.0,156.0 763.0,156.0" stroke="#F00" stroke-width="1" /><polyline fill="none" opacity="100" points="759.0,160.0 763.0,160.0" stroke="#F00" stroke-width="1" /><polyline fill="none" opacity="100" points="759.0,164.0 763.0,164.0" stroke="#F00" stroke-width="1" /><polyline fill="none" opacity="100" points="759.0,168.0 763.0,168.0" stroke="#F00" stroke-width="1" /><polyline fill="none" opacity="100" points="759.0,172.0 763.0,172.0" stroke="#F00" stroke-width="1" /><polyline fill="none" opacity="100" points="746.0,72.0 746.0,96.0 738.0,96.0" stroke="#000" stroke-width="1" /><text fill="#000" font-family="Arial" font-size="7" font-weight="normal" opacity="100" transform="rotate(-90.0 738.0,93.0) translate(0 7)" x="738.0" y="93.0">кассы</text><polyline fill="none" opacity="100" points="259.0,85.0 259.0,100.0" stroke="#000" stroke-width="1" /><polyline fill="none" opacity="100" points="259.0,165.0 259.0,150.0" stroke="#000" stroke-width="1" /><polyline fill="none" opacity="100" points="265.0,100.0 228.0,100.0 228.0,72.0 168.0,72.0 168.0,20.0 77.0,20.0 77.0,25.0" stroke="#000" stroke-width="1" /><polyline fill="none" opacity="100" points="77.0,45.0 77.0,50.0 139.0,50.0 139.0,72.0 128.0,72.0 128.0,177.0 138.0,177.0 138.0,190.0 118.0,210.0 73.0,210.0 73.0,164.0 68.0,164.0" stroke="#000" stroke-width="1" /><polyline fill="none" opacity="100" points="47.0,164.0 42.0,164.0 42.0,241.0 125.0,241.0 169.0,197.0 169.0,177.0 228.0,177.0 228.0,150.0 265.0,150.0" stroke="#000" stroke-width="1" /><polyline fill="none" opacity="100" points="265.0,150.0 265.0,100.0" stroke="#000" stroke-width="1" /><polyline fill="none" opacity="100" points="261.0,150.0 261.0,100.0" stroke="#000" stroke-width="1" /><polyline fill="none" opacity="100" points="257.0,150.0 257.0,100.0" stroke="#000" stroke-width="1" /><polyline fill="none" opacity="100" points="253.0,150.0 253.0,100.0" stroke="#000" stroke-width="1" /><polyline fill="none" opacity="100" points="249.0,150.0 249.0,100.0" stroke="#000" stroke-width="1" /><polyline fill="none" opacity="100" points="245.0,150.0 245.0,100.0" stroke="#000" stroke-width="1" /><polyline fill="none" opacity="100" points="241.0,150.0 241.0,100.0" stroke="#000" stroke-width="1" /><polyline fill="none" opacity="100" points="237.0,150.0 237.0,100.0" stroke="#000" stroke-width="1" /><polyline fill="none" opacity="100" points="233.0,150.0 233.0,100.0" stroke="#000" stroke-width="1" /><polyline fill="none" opacity="100" points="229.0,150.0 229.0,100.0" stroke="#000" stroke-width="1" /><polyline fill="none" opacity="100" points="128.0,20.0 128.0,50.0" stroke="#000" stroke-width="1" /><polyline fill="none" opacity="100" points="124.0,20.0 124.0,50.0" stroke="#000" stroke-width="1" /><polyline fill="none" opacity="100" points="120.0,20.0 120.0,50.0" stroke="#000" stroke-width="1" /><polyline fill="none" opacity="100" points="116.0,20.0 116.0,50.0" stroke="#000" stroke-width="1" /><polyline fill="none" opacity="100" points="112.0,20.0 112.0,50.0" stroke="#000" stroke-width="1" /><polyline fill="none" opacity="100" points="108.0,20.0 108.0,50.0" stroke="#000" stroke-width="1" /><polyline fill="none" opacity="100" points="104.0,20.0 104.0,50.0" stroke="#000" stroke-width="1" /><polyline fill="none" opacity="100" points="100.0,20.0 100.0,50.0" stroke="#000" stroke-width="1" /><polyline fill="none" opacity="100" points="96.0,20.0 96.0,50.0" stroke="#000" stroke-width="1" /><polyline fill="none" opacity="100" points="92.0,20.0 92.0,50.0" stroke="#000" stroke-width="1" /><polyline fill="none" opacity="100" points="118.0,210.0 118.0,241.0" stroke="#000" stroke-width="1" /><polyline fill="none" opacity="100" points="114.0,210.0 114.0,241.0" stroke="#000" stroke-width="1" /><polyline fill="none" opacity="100" points="110.0,210.0 110.0,241.0" stroke="#000" stroke-width="1" /><polyline fill="none" opacity="100" points="106.0,210.0 106.0,241.0" stroke="#000" stroke-width="1" /><polyline fill="none" opacity="100" points="102.0,210.0 102.0,241.0" stroke="#000" stroke-width="1" /><polyline fill="none" opacity="100" points="98.0,210.0 98.0,241.0" stroke="#000" stroke-width="1" /><polyline fill="none" opacity="100" points="94.0,210.0 94.0,241.0" stroke="#000" stroke-width="1" /><polyline fill="none" opacity="100" points="90.0,210.0 90.0,241.0" stroke="#000" stroke-width="1" /><polyline fill="none" opacity="100" points="86.0,210.0 86.0,241.0" stroke="#000" stroke-width="1" /><polyline fill="none" opacity="100" points="82.0,210.0 82.0,241.0" stroke="#000" stroke-width="1" /><polyline fill="none" opacity="100" points="73.0,180.0 42.0,180.0" stroke="#000" stroke-width="1" /><polyline fill="none" opacity="100" points="73.0,184.0 42.0,184.0" stroke="#000" stroke-width="1" /><polyline fill="none" opacity="100" points="73.0,188.0 42.0,188.0" stroke="#000" stroke-width="1" /><polyline fill="none" opacity="100" points="73.0,192.0 42.0,192.0" stroke="#000" stroke-width="1" /><polyline fill="none" opacity="100" points="73.0,196.0 42.0,196.0" stroke="#000" stroke-width="1" /><polyline fill="none" opacity="100" points="73.0,200.0 42.0,200.0" stroke="#000" stroke-width="1" /><polyline fill="none" opacity="100" points="73.0,204.0 42.0,204.0" stroke="#000" stroke-width="1" /><polygon fill="#C0C0C0" opacity="100" points="168.0,143.0 168.0,101.0 175.0,101.0 175.0,143.0" stroke="#000" stroke-width="1" /><polyline fill="none" opacity="100" points="221.0,158.0 209.0,158.0" stroke="#000" stroke-width="1" /><polygon fill="#FFF" opacity="100" points="209.0,158.0 199.0,158.0 199.0,148.0 209.0,148.0" stroke="#000" stroke-width="1" /><polyline fill="none" opacity="100" points="204.0,148.0 204.0,143.0" stroke="#000" stroke-width="1" /><polyline fill="none" opacity="100" points="204.0,115.0 204.0,106.0" stroke="#000" stroke-width="1" /><polyline fill="none" opacity="100" points="204.0,78.0 204.0,72.0" stroke="#000" stroke-width="1" /><polyline fill="none" opacity="100" points="202.0,143.0 206.0,143.0" stroke="#090" stroke-width="1" /><polyline fill="none" opacity="100" points="202.0,139.0 206.0,139.0" stroke="#090" stroke-width="1" /><polyline fill="none" opacity="100" points="202.0,135.0 206.0,135.0" stroke="#090" stroke-width="1" /><polyline fill="none" opacity="100" points="202.0,131.0 206.0,131.0" stroke="#090" stroke-width="1" /><polyline fill="none" opacity="100" points="202.0,127.0 206.0,127.0" stroke="#090" stroke-width="1" /><polyline fill="none" opacity="100" points="202.0,123.0 206.0,123.0" stroke="#090" stroke-width="1" /><polyline fill="none" opacity="100" points="202.0,119.0 206.0,119.0" stroke="#090" stroke-width="1" /><polyline fill="none" opacity="100" points="202.0,115.0 206.0,115.0" stroke="#090" stroke-width="1" /><polyline fill="none" opacity="100" points="202.0,106.0 206.0,106.0" stroke="#F00" stroke-width="1" /><polyline fill="none" opacity="100" points="202.0,102.0 206.0,102.0" stroke="#F00" stroke-width="1" /><polyline fill="none" opacity="100" points="202.0,98.0 206.0,98.0" stroke="#F00" stroke-width="1" /><polyline fill="none" opacity="100" points="202.0,94.0 206.0,94.0" stroke="#F00" stroke-width="1" /><polyline fill="none" opacity="100" points="202.0,90.0 206.0,90.0" stroke="#F00" stroke-width="1" /><polyline fill="none" opacity="100" points="202.0,86.0 206.0,86.0" stroke="#F00" stroke-width="1" /><polyline fill="none" opacity="100" points="202.0,82.0 206.0,82.0" stroke="#F00" stroke-width="1" /><polyline fill="none" opacity="100" points="202.0,78.0 206.0,78.0" stroke="#F00" stroke-width="1" /><polyline fill="none" opacity="100" points="228.0,158.0 221.0,158.0 221.0,177.0" stroke="#000" stroke-width="1" /><text fill="#000" font-family="Arial" font-size="7" font-weight="normal" opacity="100" transform="rotate(-90.0 220.0,176.0) translate(0 7)" x="220.0" y="176.0">кассы</text><text fill="#0CC" font-family="Arial" font-size="15" font-weight="normal" opacity="100" x="44.75" y="128.5">ул. Гоголя</text><text fill="#0CC" font-family="Arial" font-size="15" font-weight="normal" opacity="100" x="844.75" y="124.5">ул. Гоголя</text><text fill="#0CC" font-family="Arial" font-size="15" font-weight="normal" opacity="100" transform="rotate(-90.0 8.0,190.0) translate(0 15)" x="8.0" y="190.0">ул. Ольги Жилиной</text><text fill="#FFF" font-family="Arial" font-size="20" font-weight="bold" opacity="100" transform="rotate(-0.0 48.0,39.0) translate(0 20)" x="48.0" y="39.0">А</text><polyline fill="none" opacity="100" points="750.0,158.0 772.0,158.0" stroke="#F00" stroke-width="1" /><polygon fill="#F00" opacity="100" points="765.6249,159.7082 772.0,158.0 765.6249,156.2918" stroke="#F00" stroke-width="1" /><polyline fill="none" opacity="100" points="215.0,88.0 194.0,88.0" stroke="#F00" stroke-width="1" /><polygon fill="#F00" opacity="100" points="200.0853,86.3694 194.0,88.0 200.0853,89.6306" stroke="#F00" stroke-width="1" /><polyline fill="none" opacity="100" points="772.0,124.0 750.0,124.0" stroke="#090" stroke-width="1" /><polygon fill="#090" opacity="100" points="756.3751,122.2918 750.0,124.0 756.3751,125.7082" stroke="#090" stroke-width="1" /><polyline fill="none" opacity="100" points="194.0,129.0 215.0,129.0" stroke="#090" stroke-width="1" /><polygon fill="#090" opacity="100" points="208.9147,130.6306 215.0,129.0 208.9147,127.3694" stroke="#090" stroke-width="1" /></g></svg>