<?xml version="1.0" encoding="utf-8" ?>
<svg baseProfile="tiny" height="750px" version="1.2" width="800px" xmlns="http://www.w3.org/2000/svg" xmlns:ev="http://www.w3.org/2001/xml-events" xmlns:xlink="http://www.w3.org/1999/xlink"><defs /><g><g transform="rotate(40.0,400.0,375.0)"><polygon fill="#FB0505" opacity="100" points="643.0,410.0 643.0,440.0 193.0,440.0 193.0,410.0" stroke="#000" stroke-width="1" /><polygon fill="#FB0505" opacity="100" points="643.0,330.0 643.0,300.0 193.0,300.0 193.0,330.0" stroke="#000" stroke-width="1" /><text fill="#FB0505" font-family="Arial" font-size="20" font-weight="normal" opacity="100" transform="rotate(-0.0 491.0,441.0) translate(0 20)" x="491.0" y="441.0">Речной вокзал &gt;&gt;</text><text fill="#FB0505" font-family="Arial" font-size="20" font-weight="normal" opacity="100" transform="rotate(-0.0 193.0,278.0) translate(0 20)" x="193.0" y="278.0">&lt;&lt; Площадь Ленина</text><text fill="#FB0505" font-family="Arial" font-size="25" font-weight="bold" opacity="100" transform="rotate(-0.0 342.0,355.0) translate(0 25)" x="342.0" y="355.0">Октябрьская</text><polyline fill="none" opacity="100" points="643.0,330.0 643.0,336.0" stroke="#000" stroke-width="1" /><polyline fill="none" opacity="100" points="643.0,410.0 643.0,404.0" stroke="#000" stroke-width="1" /><polyline fill="none" opacity="100" points="693.0,336.0 693.0,302.0 767.0,302.0 767.0,275.0 709.0,275.0 709.0,271.0" stroke="#000" stroke-width="1" /><polyline fill="none" opacity="100" points="709.0,249.0 709.0,245.0 795.0,245.0 795.0,302.0 807.0,302.0 807.0,433.0 795.0,433.0 795.0,487.0 699.0,487.0 699.0,482.0" stroke="#000" stroke-width="1" /><polyline fill="none" opacity="100" points="699.0,462.0 699.0,457.0 767.0,457.0 767.0,434.0 693.0,434.0 693.0,404.0" stroke="#000" stroke-width="1" /><polyline fill="none" opacity="100" points="726.0,275.0 726.0,245.0" stroke="#000" stroke-width="1" /><polyline fill="none" opacity="100" points="730.0,275.0 730.0,245.0" stroke="#000" stroke-width="1" /><polyline fill="none" opacity="100" points="734.0,275.0 734.0,245.0" stroke="#000" stroke-width="1" /><polyline fill="none" opacity="100" points="738.0,275.0 738.0,245.0" stroke="#000" stroke-width="1" /><polyline fill="none" opacity="100" points="742.0,275.0 742.0,245.0" stroke="#000" stroke-width="1" /><polyline fill="none" opacity="100" points="746.0,275.0 746.0,245.0" stroke="#000" stroke-width="1" /><polyline fill="none" opacity="100" points="750.0,275.0 750.0,245.0" stroke="#000" stroke-width="1" /><polyline fill="none" opacity="100" points="754.0,275.0 754.0,245.0" stroke="#000" stroke-width="1" /><polyline fill="none" opacity="100" points="716.0,487.0 716.0,457.0" stroke="#000" stroke-width="1" /><polyline fill="none" opacity="100" points="720.0,487.0 720.0,457.0" stroke="#000" stroke-width="1" /><polyline fill="none" opacity="100" points="724.0,487.0 724.0,457.0" stroke="#000" stroke-width="1" /><polyline fill="none" opacity="100" points="728.0,487.0 728.0,457.0" stroke="#000" stroke-width="1" /><polyline fill="none" opacity="100" points="732.0,487.0 732.0,457.0" stroke="#000" stroke-width="1" /><polyline fill="none" opacity="100" points="736.0,487.0 736.0,457.0" stroke="#000" stroke-width="1" /><polyline fill="none" opacity="100" points="740.0,487.0 740.0,457.0" stroke="#000" stroke-width="1" /><polyline fill="none" opacity="100" points="744.0,487.0 744.0,457.0" stroke="#000" stroke-width="1" /><polyline fill="none" opacity="100" points="693.0,333.0 703.0,333.0 703.0,302.0" stroke="#000" stroke-width="1" /><text fill="#000" font-family="Arial" font-size="10" font-weight="normal" opacity="100" transform="rotate(-90.0 691.0,330.0) translate(0 10)" x="691.0" y="330.0">кассы</text><polyline fill="none" opacity="100" points="732.0,434.0 732.0,426.0" stroke="#000" stroke-width="1" /><polyline fill="none" opacity="100" points="732.0,390.0 732.0,385.0 730.0,381.0" stroke="#000" stroke-width="1" /><polyline fill="none" opacity="100" points="712.0,345.0 710.0,341.0" stroke="#000" stroke-width="1" /><polygon fill="none" opacity="100" points="702.0,335.0 710.0,331.0 714.0,339.0 706.0,343.0" stroke="#000" stroke-width="1" /><polyline fill="none" opacity="100" points="714.0,344.0 710.0,346.0" stroke="#090" stroke-width="1" /><polyline fill="none" opacity="100" points="715.7499,347.5969 711.7499,349.5969" stroke="#090" stroke-width="1" /><polyline fill="none" opacity="100" points="717.4997,351.1939 713.4997,353.1939" stroke="#090" stroke-width="1" /><polyline fill="none" opacity="100" points="719.2496,354.7908 715.2496,356.7908" stroke="#090" stroke-width="1" /><polyline fill="none" opacity="100" points="720.9995,358.3878 716.9995,360.3878" stroke="#090" stroke-width="1" /><polyline fill="none" opacity="100" points="722.7493,361.9847 718.7493,363.9847" stroke="#090" stroke-width="1" /><polyline fill="none" opacity="100" points="724.4992,365.5816 720.4992,367.5816" stroke="#090" stroke-width="1" /><polyline fill="none" opacity="100" points="726.249,369.1786 722.249,371.1786" stroke="#090" stroke-width="1" /><polyline fill="none" opacity="100" points="727.9989,372.7755 723.9989,374.7755" stroke="#090" stroke-width="1" /><polyline fill="none" opacity="100" points="729.7488,376.3725 725.7488,378.3725" stroke="#090" stroke-width="1" /><polyline fill="none" opacity="100" points="731.4986,379.9694 727.4986,381.9694" stroke="#090" stroke-width="1" /><polyline fill="none" opacity="100" points="734.0,390.0 730.0,390.0" stroke="#F00" stroke-width="1" /><polyline fill="none" opacity="100" points="734.0,394.0 730.0,394.0" stroke="#F00" stroke-width="1" /><polyline fill="none" opacity="100" points="734.0,398.0 730.0,398.0" stroke="#F00" stroke-width="1" /><polyline fill="none" opacity="100" points="734.0,402.0 730.0,402.0" stroke="#F00" stroke-width="1" /><polyline fill="none" opacity="100" points="734.0,406.0 730.0,406.0" stroke="#F00" stroke-width="1" /><polyline fill="none" opacity="100" points="734.0,410.0 730.0,410.0" stroke="#F00" stroke-width="1" /><polyline fill="none" opacity="100" points="734.0,414.0 730.0,414.0" stroke="#F00" stroke-width="1" /><polyline fill="none" opacity="100" points="734.0,418.0 730.0,418.0" stroke="#F00" stroke-width="1" /><polyline fill="none" opacity="100" points="734.0,422.0 730.0,422.0" stroke="#F00" stroke-width="1" /><polyline fill="none" opacity="100" points="734.0,426.0 730.0,426.0" stroke="#F00" stroke-width="1" /><polygon fill="#C0C0C0" opacity="100" points="767.0,393.0 767.0,351.0 759.0,351.0 759.0,393.0" stroke="#000" stroke-width="1" /><polyline fill="none" opacity="100" points="694.0,399.0 694.0,341.0" stroke="#7F7F7F" stroke-width="1" /><polyline fill="none" opacity="100" points="690.0,399.0 690.0,341.0" stroke="#7F7F7F" stroke-width="1" /><polyline fill="none" opacity="100" points="686.0,399.0 686.0,341.0" stroke="#7F7F7F" stroke-width="1" /><polyline fill="none" opacity="100" points="682.0,399.0 682.0,341.0" stroke="#7F7F7F" stroke-width="1" /><polyline fill="none" opacity="100" points="678.0,399.0 678.0,341.0" stroke="#7F7F7F" stroke-width="1" /><polyline fill="none" opacity="100" points="674.0,399.0 674.0,341.0" stroke="#7F7F7F" stroke-width="1" /><polyline fill="none" opacity="100" points="670.0,399.0 670.0,341.0" stroke="#7F7F7F" stroke-width="1" /><polyline fill="none" opacity="100" points="666.0,399.0 666.0,341.0" stroke="#7F7F7F" stroke-width="1" /><polyline fill="none" opacity="100" points="662.0,399.0 662.0,341.0" stroke="#7F7F7F" stroke-width="1" /><polyline fill="none" opacity="100" points="658.0,399.0 658.0,341.0" stroke="#7F7F7F" stroke-width="1" /><polyline fill="none" opacity="100" points="654.0,399.0 654.0,341.0" stroke="#7F7F7F" stroke-width="1" /><polyline fill="none" opacity="100" points="650.0,399.0 650.0,341.0" stroke="#7F7F7F" stroke-width="1" /><polyline fill="none" opacity="100" points="646.0,399.0 646.0,341.0" stroke="#7F7F7F" stroke-width="1" /><polyline fill="none" opacity="100" points="642.0,399.0 642.0,341.0" stroke="#7F7F7F" stroke-width="1" /><polyline fill="none" opacity="100" points="638.0,399.0 638.0,341.0" stroke="#7F7F7F" stroke-width="1" /><polygon fill="#9B5509" opacity="100" points="700.0,341.0 631.0,341.0 631.0,336.0 700.0,336.0" stroke="#000" stroke-width="1" /><polygon fill="#9B5509" opacity="100" points="700.0,354.0 700.0,364.0 631.0,364.0 631.0,354.0" stroke="#000" stroke-width="1" /><polygon fill="#9B5509" opacity="100" points="700.0,378.0 700.0,387.0 631.0,387.0 631.0,378.0" stroke="#000" stroke-width="1" /><polygon fill="#9B5509" opacity="100" points="700.0,399.0 631.0,399.0 631.0,404.0 700.0,404.0" stroke="#000" stroke-width="1" /><polyline fill="none" opacity="100" points="193.0,330.0 193.0,339.0 143.0,339.0 143.0,302.0 73.0,302.0 73.0,245.0 -14.0,245.0 -14.0,249.0" stroke="#000" stroke-width="1" /><polyline fill="none" opacity="100" points="-14.0,270.0 -14.0,274.0 43.0,274.0 43.0,303.0 33.0,303.0 33.0,433.0 43.0,433.0 43.0,455.0 -14.0,455.0 -14.0,459.0" stroke="#000" stroke-width="1" /><polyline fill="none" opacity="100" points="-14.0,482.0 -14.0,486.0 73.0,486.0 73.0,434.0 143.0,434.0 143.0,400.0 193.0,400.0 193.0,410.0" stroke="#000" stroke-width="1" /><polyline fill="none" opacity="100" points="152.0,400.0 152.0,339.0" stroke="#000" stroke-width="1" /><polyline fill="none" opacity="100" points="156.0,400.0 156.0,339.0" stroke="#000" stroke-width="1" /><polyline fill="none" opacity="100" points="160.0,400.0 160.0,339.0" stroke="#000" stroke-width="1" /><polyline fill="none" opacity="100" points="164.0,400.0 164.0,339.0" stroke="#000" stroke-width="1" /><polyline fill="none" opacity="100" points="168.0,400.0 168.0,339.0" stroke="#000" stroke-width="1" /><polyline fill="none" opacity="100" points="172.0,400.0 172.0,339.0" stroke="#000" stroke-width="1" /><polyline fill="none" opacity="100" points="176.0,400.0 176.0,339.0" stroke="#000" stroke-width="1" /><polyline fill="none" opacity="100" points="180.0,400.0 180.0,339.0" stroke="#000" stroke-width="1" /><polyline fill="none" opacity="100" points="184.0,400.0 184.0,339.0" stroke="#000" stroke-width="1" /><polyline fill="none" opacity="100" points="188.0,400.0 188.0,339.0" stroke="#000" stroke-width="1" /><polyline fill="none" opacity="100" points="192.0,400.0 192.0,339.0" stroke="#000" stroke-width="1" /><polyline fill="none" opacity="100" points="3.0,274.0 3.0,245.0" stroke="#000" stroke-width="1" /><polyline fill="none" opacity="100" points="7.0,274.0 7.0,245.0" stroke="#000" stroke-width="1" /><polyline fill="none" opacity="100" points="11.0,274.0 11.0,245.0" stroke="#000" stroke-width="1" /><polyline fill="none" opacity="100" points="15.0,274.0 15.0,245.0" stroke="#000" stroke-width="1" /><polyline fill="none" opacity="100" points="19.0,274.0 19.0,245.0" stroke="#000" stroke-width="1" /><polyline fill="none" opacity="100" points="23.0,274.0 23.0,245.0" stroke="#000" stroke-width="1" /><polyline fill="none" opacity="100" points="27.0,274.0 27.0,245.0" stroke="#000" stroke-width="1" /><polyline fill="none" opacity="100" points="31.0,274.0 31.0,245.0" stroke="#000" stroke-width="1" /><polyline fill="none" opacity="100" points="3.0,486.0 3.0,455.0" stroke="#000" stroke-width="1" /><polyline fill="none" opacity="100" points="7.0,486.0 7.0,455.0" stroke="#000" stroke-width="1" /><polyline fill="none" opacity="100" points="11.0,486.0 11.0,455.0" stroke="#000" stroke-width="1" /><polyline fill="none" opacity="100" points="15.0,486.0 15.0,455.0" stroke="#000" stroke-width="1" /><polyline fill="none" opacity="100" points="19.0,486.0 19.0,455.0" stroke="#000" stroke-width="1" /><polyline fill="none" opacity="100" points="23.0,486.0 23.0,455.0" stroke="#000" stroke-width="1" /><polyline fill="none" opacity="100" points="27.0,486.0 27.0,455.0" stroke="#000" stroke-width="1" /><polyline fill="none" opacity="100" points="31.0,486.0 31.0,455.0" stroke="#000" stroke-width="1" /><polygon fill="#C0C0C0" opacity="100" points="73.0,393.0 73.0,351.0 81.0,351.0 81.0,393.0" stroke="#000" stroke-width="1" /><text fill="#00AFAF" font-family="Arial" font-size="15" font-weight="normal" opacity="100" transform="rotate(-0.0 -43.0,355.0) translate(0 15)" x="-43.0" y="355.0">ул. Кирова</text><text fill="#00AFAF" font-family="Arial" font-size="15" font-weight="normal" opacity="100" transform="rotate(-0.0 841.0,366.0) translate(0 15)" x="841.0" y="366.0">ул. Кирова</text><text fill="#FFF" font-family="Arial" font-size="25" font-weight="bold" opacity="100" transform="rotate(-0.0 827.0,453.0) translate(0 25)" x="827.0" y="453.0">А</text><text fill="#FFF" font-family="Arial" font-size="25" font-weight="bold" opacity="100" transform="rotate(-0.0 110.0,242.0) translate(0 25)" x="110.0" y="242.0">А</text><polyline fill="none" opacity="100" points="750.0,411.0 768.0,411.0" stroke="#F00" stroke-width="1" /><polygon fill="#F00" opacity="100" points="762.784,412.3976 768.0,411.0 762.784,409.6024" stroke="#F00" stroke-width="1" /><polyline fill="none" opacity="100" points="755.0,329.0 738.0,329.0" stroke="#090" stroke-width="1" /><polygon fill="#090" opacity="100" points="742.9262,327.68 738.0,329.0 742.9262,330.32" stroke="#090" stroke-width="1" /></g></g></svg>