<?xml version="1.0" encoding="utf-8" ?>
<svg baseProfile="tiny" height="1400px" version="1.2" width="700px" xmlns="http://www.w3.org/2000/svg" xmlns:ev="http://www.w3.org/2001/xml-events" xmlns:xlink="http://www.w3.org/1999/xlink"><defs /><g><polygon fill="#FB0505" opacity="100" points="385.0,250.0 415.0,250.0 415.0,700.0 385.0,700.0" stroke="#000" stroke-width="1" /><polygon fill="#FB0505" opacity="100" points="305.0,250.0 275.0,250.0 275.0,700.0 305.0,700.0" stroke="#000" stroke-width="1" /><text fill="#FB0505" font-family="Arial" font-size="20" font-weight="normal" opacity="100" transform="rotate(-90.0 415.0,430.0) translate(0 20)" x="415.0" y="430.0">Красный проспект &gt;&gt;</text><text fill="#FB0505" font-family="Arial" font-size="20" font-weight="normal" opacity="100" transform="rotate(-90.0 251.0,700.0) translate(0 20)" x="251.0" y="700.0">&lt;&lt; Октябрьская</text><text fill="#FB0505" font-family="Arial" font-size="25" font-weight="bold" opacity="100" transform="rotate(-90.0 326.0,584.0) translate(0 25)" x="326.0" y="584.0">Площадь Ленина</text><polyline fill="none" opacity="100" points="385.0,250.0 380.0,250.0" stroke="#000" stroke-width="1" /><polyline fill="none" opacity="100" points="305.0,250.0 311.0,250.0" stroke="#000" stroke-width="1" /><polyline fill="none" opacity="100" points="380.0,199.0 409.0,199.0 409.0,160.0 460.0,160.0 460.0,230.0 522.0,230.0" stroke="#000" stroke-width="1" /><polyline fill="none" opacity="100" points="522.0,200.0 490.0,200.0 490.0,130.0 409.0,130.0 409.0,97.0 281.0,97.0 281.0,129.0 231.0,129.0 160.0,171.0 127.0,130.0" stroke="#000" stroke-width="1" /><polyline fill="none" opacity="100" points="103.0,148.0 143.0,200.0 143.0,270.0" stroke="#000" stroke-width="1" /><polyline fill="none" opacity="100" points="174.0,270.0 174.0,199.0 243.0,160.0 281.0,160.0 281.0,199.0 311.0,199.0" stroke="#000" stroke-width="1" /><polygon fill="#C0C0C0" opacity="100" points="324.0,160.0 366.0,160.0 366.0,165.0 324.0,165.0" stroke="#000" stroke-width="1" /><polygon fill="#C0C0C0" opacity="100" points="323.0,129.0 333.0,129.0 333.0,118.0 323.0,118.0" stroke="#000" stroke-width="1" /><polygon fill="#C0C0C0" opacity="100" points="366.0,129.0 356.0,129.0 356.0,118.0 366.0,118.0" stroke="#000" stroke-width="1" /><polyline fill="none" opacity="100" points="460.0,170.0 490.0,170.0" stroke="#000" stroke-width="1" /><polyline fill="none" opacity="100" points="460.0,174.0 490.0,174.0" stroke="#000" stroke-width="1" /><polyline fill="none" opacity="100" points="460.0,178.0 490.0,178.0" stroke="#000" stroke-width="1" /><polyline fill="none" opacity="100" points="460.0,182.0 490.0,182.0" stroke="#000" stroke-width="1" /><polyline fill="none" opacity="100" points="460.0,186.0 490.0,186.0" stroke="#000" stroke-width="1" /><polyline fill="none" opacity="100" points="460.0,190.0 490.0,190.0" stroke="#000" stroke-width="1" /><polyline fill="none" opacity="100" points="460.0,194.0 490.0,194.0" stroke="#000" stroke-width="1" /><polyline fill="none" opacity="100" points="460.0,198.0 490.0,198.0" stroke="#000" stroke-width="1" /><polyline fill="none" opacity="100" points="490.0,230.0 490.0,200.0" stroke="#000" stroke-width="1" /><polyline fill="none" opacity="100" points="494.0,230.0 494.0,200.0" stroke="#000" stroke-width="1" /><polyline fill="none" opacity="100" points="498.0,230.0 498.0,200.0" stroke="#000" stroke-width="1" /><polyline fill="none" opacity="100" points="502.0,230.0 502.0,200.0" stroke="#000" stroke-width="1" /><polyline fill="none" opacity="100" points="506.0,230.0 506.0,200.0" stroke="#000" stroke-width="1" /><polyline fill="none" opacity="100" points="510.0,230.0 510.0,200.0" stroke="#000" stroke-width="1" /><polyline fill="none" opacity="100" points="514.0,230.0 514.0,200.0" stroke="#000" stroke-width="1" /><polyline fill="none" opacity="100" points="518.0,230.0 518.0,200.0" stroke="#000" stroke-width="1" /><polyline fill="none" opacity="100" points="522.0,230.0 522.0,200.0" stroke="#000" stroke-width="1" /><polyline fill="none" opacity="100" points="143.0,240.0 174.0,240.0" stroke="#000" stroke-width="1" /><polyline fill="none" opacity="100" points="143.0,244.0 174.0,244.0" stroke="#000" stroke-width="1" /><polyline fill="none" opacity="100" points="143.0,248.0 174.0,248.0" stroke="#000" stroke-width="1" /><polyline fill="none" opacity="100" points="143.0,252.0 174.0,252.0" stroke="#000" stroke-width="1" /><polyline fill="none" opacity="100" points="143.0,256.0 174.0,256.0" stroke="#000" stroke-width="1" /><polyline fill="none" opacity="100" points="143.0,260.0 174.0,260.0" stroke="#000" stroke-width="1" /><polyline fill="none" opacity="100" points="143.0,264.0 174.0,264.0" stroke="#000" stroke-width="1" /><polyline fill="none" opacity="100" points="143.0,268.0 174.0,268.0" stroke="#000" stroke-width="1" /><polyline fill="none" opacity="100" points="147.0,155.0 123.0,173.0" stroke="#000" stroke-width="1" /><polyline fill="none" opacity="100" points="144.5012,151.8765 120.5012,169.8765" stroke="#000" stroke-width="1" /><polyline fill="none" opacity="100" points="142.0024,148.753 118.0024,166.753" stroke="#000" stroke-width="1" /><polyline fill="none" opacity="100" points="139.5037,145.6296 115.5037,163.6296" stroke="#000" stroke-width="1" /><polyline fill="none" opacity="100" points="137.0049,142.5061 113.0049,160.5061" stroke="#000" stroke-width="1" /><polyline fill="none" opacity="100" points="134.5061,139.3826 110.5061,157.3826" stroke="#000" stroke-width="1" /><polyline fill="none" opacity="100" points="132.0073,136.2591 108.0073,154.2591" stroke="#000" stroke-width="1" /><polyline fill="none" opacity="100" points="129.5085,133.1357 105.5085,151.1357" stroke="#000" stroke-width="1" /><polyline fill="none" opacity="100" points="127.0098,130.0122 103.0098,148.0122" stroke="#000" stroke-width="1" /><polyline fill="none" opacity="100" points="281.0,190.0 309.0,190.0 309.0,199.0" stroke="#000" stroke-width="1" /><text fill="#FFF" font-family="Arial" font-size="10" font-weight="normal" opacity="100" transform="rotate(-0.0 283.0,189.0) translate(0 10)" x="283.0" y="189.0">кассы</text><polyline fill="none" opacity="100" points="375.0,203.0 316.0,203.0" stroke="#7F7F7F" stroke-width="1" /><polyline fill="none" opacity="100" points="375.0,207.0 316.0,207.0" stroke="#7F7F7F" stroke-width="1" /><polyline fill="none" opacity="100" points="375.0,211.0 316.0,211.0" stroke="#7F7F7F" stroke-width="1" /><polyline fill="none" opacity="100" points="375.0,215.0 316.0,215.0" stroke="#7F7F7F" stroke-width="1" /><polyline fill="none" opacity="100" points="375.0,219.0 316.0,219.0" stroke="#7F7F7F" stroke-width="1" /><polyline fill="none" opacity="100" points="375.0,223.0 316.0,223.0" stroke="#7F7F7F" stroke-width="1" /><polyline fill="none" opacity="100" points="375.0,227.0 316.0,227.0" stroke="#7F7F7F" stroke-width="1" /><polyline fill="none" opacity="100" points="375.0,231.0 316.0,231.0" stroke="#7F7F7F" stroke-width="1" /><polyline fill="none" opacity="100" points="375.0,235.0 316.0,235.0" stroke="#7F7F7F" stroke-width="1" /><polyline fill="none" opacity="100" points="375.0,239.0 316.0,239.0" stroke="#7F7F7F" stroke-width="1" /><polyline fill="none" opacity="100" points="375.0,243.0 316.0,243.0" stroke="#7F7F7F" stroke-width="1" /><polyline fill="none" opacity="100" points="375.0,247.0 316.0,247.0" stroke="#7F7F7F" stroke-width="1" /><polygon fill="#9B5509" opacity="100" points="316.0,197.0 316.0,252.0 311.0,252.0 311.0,197.0" stroke="#000" stroke-width="1" /><polygon fill="#9B5509" opacity="100" points="329.0,197.0 339.0,197.0 339.0,252.0 329.0,252.0" stroke="#000" stroke-width="1" /><polygon fill="#9B5509" opacity="100" points="352.0,197.0 362.0,197.0 362.0,252.0 352.0,252.0" stroke="#000" stroke-width="1" /><polygon fill="#9B5509" opacity="100" points="375.0,197.0 375.0,252.0 380.0,252.0 380.0,197.0" stroke="#000" stroke-width="1" /><polygon fill="none" opacity="100" points="310.0,184.0 310.0,189.0 315.0,189.0 315.0,184.0" stroke="#000" stroke-width="1" /><polyline fill="none" opacity="100" points="349.0,175.0 370.0,175.0" stroke="#000" stroke-width="1" /><polyline fill="none" opacity="100" points="317.0,181.0 318.0,185.0" stroke="#090" stroke-width="1" /><polyline fill="none" opacity="100" points="320.8806,180.0299 321.8806,184.0299" stroke="#090" stroke-width="1" /><polyline fill="none" opacity="100" points="324.7611,179.0597 325.7611,183.0597" stroke="#090" stroke-width="1" /><polyline fill="none" opacity="100" points="328.6417,178.0896 329.6417,182.0896" stroke="#090" stroke-width="1" /><polyline fill="none" opacity="100" points="332.5223,177.1194 333.5223,181.1194" stroke="#090" stroke-width="1" /><polyline fill="none" opacity="100" points="336.4029,176.1493 337.4029,180.1493" stroke="#090" stroke-width="1" /><polyline fill="none" opacity="100" points="340.2834,175.1791 341.2834,179.1791" stroke="#090" stroke-width="1" /><polyline fill="none" opacity="100" points="344.164,174.209 345.164,178.209" stroke="#090" stroke-width="1" /><polyline fill="none" opacity="100" points="348.0446,173.2389 349.0446,177.2389" stroke="#090" stroke-width="1" /><polyline fill="none" opacity="100" points="370.0,173.0 370.0,177.0" stroke="#F00" stroke-width="1" /><polyline fill="none" opacity="100" points="374.0,173.0 374.0,177.0" stroke="#F00" stroke-width="1" /><polyline fill="none" opacity="100" points="378.0,173.0 378.0,177.0" stroke="#F00" stroke-width="1" /><polyline fill="none" opacity="100" points="382.0,173.0 382.0,177.0" stroke="#F00" stroke-width="1" /><polyline fill="none" opacity="100" points="386.0,173.0 386.0,177.0" stroke="#F00" stroke-width="1" /><polyline fill="none" opacity="100" points="390.0,173.0 390.0,177.0" stroke="#F00" stroke-width="1" /><polyline fill="none" opacity="100" points="394.0,173.0 394.0,177.0" stroke="#F00" stroke-width="1" /><polyline fill="none" opacity="100" points="398.0,173.0 398.0,177.0" stroke="#F00" stroke-width="1" /><polyline fill="none" opacity="100" points="402.0,173.0 402.0,177.0" stroke="#F00" stroke-width="1" /><polyline fill="none" opacity="100" points="406.0,173.0 406.0,177.0" stroke="#F00" stroke-width="1" /><polyline fill="none" opacity="100" points="385.0,700.0 379.0,700.0" stroke="#000" stroke-width="1" /><polyline fill="none" opacity="100" points="305.0,700.0 310.0,700.0" stroke="#000" stroke-width="1" /><polyline fill="none" opacity="100" points="379.0,750.0 409.0,750.0 409.0,790.0 439.0,790.0 491.0,820.0 510.0,820.0 510.0,730.0 570.0,730.0" stroke="#000" stroke-width="1" /><polyline fill="none" opacity="100" points="570.0,760.0 540.0,760.0 540.0,850.0 484.0,850.0 430.0,820.0 409.0,820.0 409.0,851.0 281.0,851.0 281.0,820.0 261.0,820.0 261.0,850.0 230.0,850.0 230.0,860.0 178.0,860.0" stroke="#000" stroke-width="1" /><polyline fill="none" opacity="100" points="139.0,731.0 193.0,731.0 193.0,736.0" stroke="#000" stroke-width="1" /><polyline fill="none" opacity="100" points="193.0,747.0 193.0,754.0" stroke="#000" stroke-width="1" /><polyline fill="none" opacity="100" points="193.0,765.0 193.0,771.0 179.0,771.0 179.0,820.0 200.0,820.0 200.0,770.0 260.0,770.0 260.0,789.0 281.0,789.0 281.0,750.0 310.0,750.0" stroke="#000" stroke-width="1" /><polygon fill="#C0C0C0" opacity="100" points="324.0,789.0 364.0,789.0 364.0,783.0 324.0,783.0" stroke="#000" stroke-width="1" /><polygon fill="#C0C0C0" opacity="100" points="322.0,820.0 332.0,820.0 332.0,831.0 322.0,831.0" stroke="#000" stroke-width="1" /><polygon fill="#C0C0C0" opacity="100" points="366.0,820.0 355.0,820.0 355.0,831.0 366.0,831.0" stroke="#000" stroke-width="1" /><polygon fill="#C0C0C0" opacity="100" points="244.0,821.0 221.0,821.0 221.0,792.0 244.0,792.0" stroke="#000" stroke-width="1" /><polyline fill="none" opacity="100" points="510.0,760.0 540.0,760.0" stroke="#000" stroke-width="1" /><polyline fill="none" opacity="100" points="510.0,764.0 540.0,764.0" stroke="#000" stroke-width="1" /><polyline fill="none" opacity="100" points="510.0,768.0 540.0,768.0" stroke="#000" stroke-width="1" /><polyline fill="none" opacity="100" points="510.0,772.0 540.0,772.0" stroke="#000" stroke-width="1" /><polyline fill="none" opacity="100" points="510.0,776.0 540.0,776.0" stroke="#000" stroke-width="1" /><polyline fill="none" opacity="100" points="510.0,780.0 540.0,780.0" stroke="#000" stroke-width="1" /><polyline fill="none" opacity="100" points="510.0,784.0 540.0,784.0" stroke="#000" stroke-width="1" /><polyline fill="none" opacity="100" points="510.0,788.0 540.0,788.0" stroke="#000" stroke-width="1" /><polyline fill="none" opacity="100" points="540.0,760.0 540.0,730.0" stroke="#000" stroke-width="1" /><polyline fill="none" opacity="100" points="544.0,760.0 544.0,730.0" stroke="#000" stroke-width="1" /><polyline fill="none" opacity="100" points="548.0,760.0 548.0,730.0" stroke="#000" stroke-width="1" /><polyline fill="none" opacity="100" points="552.0,760.0 552.0,730.0" stroke="#000" stroke-width="1" /><polyline fill="none" opacity="100" points="556.0,760.0 556.0,730.0" stroke="#000" stroke-width="1" /><polyline fill="none" opacity="100" points="560.0,760.0 560.0,730.0" stroke="#000" stroke-width="1" /><polyline fill="none" opacity="100" points="564.0,760.0 564.0,730.0" stroke="#000" stroke-width="1" /><polyline fill="none" opacity="100" points="568.0,760.0 568.0,730.0" stroke="#000" stroke-width="1" /><polyline fill="none" opacity="100" points="200.0,860.0 200.0,820.0" stroke="#000" stroke-width="1" /><polyline fill="none" opacity="100" points="196.0,860.0 196.0,820.0" stroke="#000" stroke-width="1" /><polyline fill="none" opacity="100" points="192.0,860.0 192.0,820.0" stroke="#000" stroke-width="1" /><polyline fill="none" opacity="100" points="188.0,860.0 188.0,820.0" stroke="#000" stroke-width="1" /><polyline fill="none" opacity="100" points="184.0,860.0 184.0,820.0" stroke="#000" stroke-width="1" /><polyline fill="none" opacity="100" points="180.0,860.0 180.0,820.0" stroke="#000" stroke-width="1" /><polyline fill="none" opacity="100" points="140.0,820.0 179.0,820.0" stroke="#000" stroke-width="1" /><polyline fill="none" opacity="100" points="139.9184,816.0008 178.9184,816.0008" stroke="#000" stroke-width="1" /><polyline fill="none" opacity="100" points="139.8368,812.0017 178.8368,812.0017" stroke="#000" stroke-width="1" /><polyline fill="none" opacity="100" points="139.7552,808.0025 178.7552,808.0025" stroke="#000" stroke-width="1" /><polyline fill="none" opacity="100" points="139.6735,804.0033 178.6735,804.0033" stroke="#000" stroke-width="1" /><polyline fill="none" opacity="100" points="139.5919,800.0042 178.5919,800.0042" stroke="#000" stroke-width="1" /><polyline fill="none" opacity="100" points="139.5103,796.005 178.5103,796.005" stroke="#000" stroke-width="1" /><polyline fill="none" opacity="100" points="139.4287,792.0058 178.4287,792.0058" stroke="#000" stroke-width="1" /><polyline fill="none" opacity="100" points="139.3471,788.0067 178.3471,788.0067" stroke="#000" stroke-width="1" /><polyline fill="none" opacity="100" points="139.2655,784.0075 178.2655,784.0075" stroke="#000" stroke-width="1" /><polyline fill="none" opacity="100" points="139.1838,780.0083 178.1838,780.0083" stroke="#000" stroke-width="1" /><polyline fill="none" opacity="100" points="139.1022,776.0092 178.1022,776.0092" stroke="#000" stroke-width="1" /><polyline fill="none" opacity="100" points="139.0206,772.01 178.0206,772.01" stroke="#000" stroke-width="1" /><polyline fill="none" opacity="100" points="179.0,771.0 179.0,731.0" stroke="#000" stroke-width="1" /><polyline fill="none" opacity="100" points="183.0,771.0 183.0,731.0" stroke="#000" stroke-width="1" /><polyline fill="none" opacity="100" points="187.0,771.0 187.0,731.0" stroke="#000" stroke-width="1" /><polyline fill="none" opacity="100" points="381.0,750.0 381.0,759.0 409.0,759.0" stroke="#000" stroke-width="1" /><text fill="#FFF" font-family="Arial" font-size="10" font-weight="normal" opacity="100" transform="rotate(-0.0 384.0,749.0) translate(0 10)" x="384.0" y="749.0">кассы</text><polyline fill="none" opacity="100" points="374.0,704.0 315.0,704.0" stroke="#7F7F7F" stroke-width="1" /><polyline fill="none" opacity="100" points="374.0,708.0 315.0,708.0" stroke="#7F7F7F" stroke-width="1" /><polyline fill="none" opacity="100" points="374.0,712.0 315.0,712.0" stroke="#7F7F7F" stroke-width="1" /><polyline fill="none" opacity="100" points="374.0,716.0 315.0,716.0" stroke="#7F7F7F" stroke-width="1" /><polyline fill="none" opacity="100" points="374.0,720.0 315.0,720.0" stroke="#7F7F7F" stroke-width="1" /><polyline fill="none" opacity="100" points="374.0,724.0 315.0,724.0" stroke="#7F7F7F" stroke-width="1" /><polyline fill="none" opacity="100" points="374.0,728.0 315.0,728.0" stroke="#7F7F7F" stroke-width="1" /><polyline fill="none" opacity="100" points="374.0,732.0 315.0,732.0" stroke="#7F7F7F" stroke-width="1" /><polyline fill="none" opacity="100" points="374.0,736.0 315.0,736.0" stroke="#7F7F7F" stroke-width="1" /><polyline fill="none" opacity="100" points="374.0,740.0 315.0,740.0" stroke="#7F7F7F" stroke-width="1" /><polyline fill="none" opacity="100" points="374.0,744.0 315.0,744.0" stroke="#7F7F7F" stroke-width="1" /><polygon fill="#9B5509" opacity="100" points="315.0,698.0 315.0,752.0 310.0,752.0 310.0,698.0" stroke="#000" stroke-width="1" /><polygon fill="#9B5509" opacity="100" points="328.0,698.0 338.0,698.0 338.0,752.0 328.0,752.0" stroke="#000" stroke-width="1" /><polygon fill="#9B5509" opacity="100" points="351.0,698.0 361.0,698.0 361.0,752.0 351.0,752.0" stroke="#000" stroke-width="1" /><polygon fill="#9B5509" opacity="100" points="374.0,698.0 374.0,752.0 379.0,752.0 379.0,698.0" stroke="#000" stroke-width="1" /><polygon fill="none" opacity="100" points="375.0,760.0 380.0,760.0 380.0,765.0 375.0,765.0" stroke="#000" stroke-width="1" /><polyline fill="none" opacity="100" points="337.0,775.0 324.0,775.0" stroke="#000" stroke-width="1" /><polyline fill="none" opacity="100" points="371.0,763.0 372.0,767.0" stroke="#090" stroke-width="1" /><polyline fill="none" opacity="100" points="367.1539,764.0989 368.1539,768.0989" stroke="#090" stroke-width="1" /><polyline fill="none" opacity="100" points="363.3078,765.1978 364.3078,769.1978" stroke="#090" stroke-width="1" /><polyline fill="none" opacity="100" points="359.4617,766.2967 360.4617,770.2967" stroke="#090" stroke-width="1" /><polyline fill="none" opacity="100" points="355.6156,767.3955 356.6156,771.3955" stroke="#090" stroke-width="1" /><polyline fill="none" opacity="100" points="351.7695,768.4944 352.7695,772.4944" stroke="#090" stroke-width="1" /><polyline fill="none" opacity="100" points="347.9234,769.5933 348.9234,773.5933" stroke="#090" stroke-width="1" /><polyline fill="none" opacity="100" points="344.0773,770.6922 345.0773,774.6922" stroke="#090" stroke-width="1" /><polyline fill="none" opacity="100" points="340.2312,771.7911 341.2312,775.7911" stroke="#090" stroke-width="1" /><polyline fill="none" opacity="100" points="336.3851,772.89 337.3851,776.89" stroke="#090" stroke-width="1" /><polyline fill="none" opacity="100" points="324.0,773.0 324.0,777.0" stroke="#F00" stroke-width="1" /><polyline fill="none" opacity="100" points="320.0,773.0 320.0,777.0" stroke="#F00" stroke-width="1" /><polyline fill="none" opacity="100" points="316.0,773.0 316.0,777.0" stroke="#F00" stroke-width="1" /><polyline fill="none" opacity="100" points="312.0,773.0 312.0,777.0" stroke="#F00" stroke-width="1" /><polyline fill="none" opacity="100" points="308.0,773.0 308.0,777.0" stroke="#F00" stroke-width="1" /><polyline fill="none" opacity="100" points="304.0,773.0 304.0,777.0" stroke="#F00" stroke-width="1" /><polyline fill="none" opacity="100" points="300.0,773.0 300.0,777.0" stroke="#F00" stroke-width="1" /><polyline fill="none" opacity="100" points="296.0,773.0 296.0,777.0" stroke="#F00" stroke-width="1" /><polyline fill="none" opacity="100" points="292.0,773.0 292.0,777.0" stroke="#F00" stroke-width="1" /><polyline fill="none" opacity="100" points="288.0,773.0 288.0,777.0" stroke="#F00" stroke-width="1" /><polyline fill="none" opacity="100" points="284.0,773.0 284.0,777.0" stroke="#F00" stroke-width="1" /><polygon fill="#FEFBF1" opacity="100" points="139.0,731.0 110.0,731.0 110.0,941.0 178.0,941.0 178.0,860.0 139.0,860.0" stroke="#000" stroke-width="1" /><polygon fill="#FEFBF1" opacity="100" points="560.0,780.0 560.0,940.0 670.0,940.0 670.0,780.0" stroke="#000" stroke-width="1" /><polygon fill="#FEFBF1" opacity="100" points="580.0,981.0 580.0,1010.0 570.0,1010.0 570.0,1020.0 560.0,1020.0 560.0,1060.0 569.0,1060.0 569.0,1069.0 579.0,1069.0 579.0,1100.0 671.0,1100.0 671.0,981.0" stroke="#000" stroke-width="1" /><polygon fill="#FEFBF1" opacity="100" points="577.0,1286.0 672.0,1357.0 641.0,1394.0 586.0,1353.0 561.0,1365.0 561.0,1393.0 510.0,1393.0 510.0,1327.0" stroke="#000" stroke-width="1" /><polygon fill="#FEFBF1" opacity="100" points="180.0,1131.0 180.0,1279.0 130.0,1279.0 130.0,1180.0 2.0,1180.0 2.0,1131.0" stroke="#000" stroke-width="1" /><polygon fill="#FEFBF1" opacity="100" points="160.0,1059.0 160.0,1000.0 140.0,1000.0 140.0,1059.0" stroke="#000" stroke-width="1" /><polygon fill="#FEFBF1" opacity="100" points="320.0,1270.0 360.0,1270.0 360.0,1310.0 320.0,1310.0" stroke="#000" stroke-width="1" /><ellipse cx="341.0" cy="1291.0" fill="#FEFBF1" opacity="100" rx="15.0" ry="15.0" stroke="#000" stroke-width="1" /><ellipse cx="151.0" cy="1030.0" fill="#FEFBF1" opacity="100" rx="15.0" ry="14.0" stroke="#000" stroke-width="1" /><polyline fill="none" opacity="100" points="340.0,1279.0 340.0,1304.0" stroke="#000" stroke-width="1" /><polyline fill="none" opacity="100" points="336.0,1283.0 344.0,1283.0" stroke="#000" stroke-width="1" /><polyline fill="none" opacity="100" points="332.0,1287.0 348.0,1287.0" stroke="#000" stroke-width="1" /><polyline fill="none" opacity="100" points="337.0,1292.0 343.0,1296.0" stroke="#000" stroke-width="1" /><polygon fill="#FEFBF1" opacity="100" points="491.0,90.0 694.0,90.0 694.0,40.0 537.0,40.0 537.0,0.0 491.0,0.0" stroke="#000" stroke-width="1" /><polygon fill="#FEFBF1" opacity="100" points="695.0,1149.0 650.0,1149.0 621.0,1239.0 695.0,1288.0 695.0,1238.0 669.0,1224.0 677.0,1194.0 695.0,1194.0" stroke="#000" stroke-width="1" /><ellipse cx="558.5" cy="469.5" fill="#FEFBF1" opacity="100" rx="12.5" ry="12.5" stroke="#000" stroke-width="1" /><ellipse cx="562.5" cy="495.5" fill="#FEFBF1" opacity="100" rx="8.5" ry="8.5" stroke="#000" stroke-width="1" /><ellipse cx="562.5" cy="516.5" fill="#FEFBF1" opacity="100" rx="8.5" ry="8.5" stroke="#000" stroke-width="1" /><ellipse cx="554.5" cy="443.5" fill="#FEFBF1" opacity="100" rx="8.5" ry="8.5" stroke="#000" stroke-width="1" /><ellipse cx="554.5" cy="422.5" fill="#FEFBF1" opacity="100" rx="8.5" ry="8.5" stroke="#000" stroke-width="1" /><ellipse cx="554.5" cy="401.5" fill="#FEFBF1" opacity="100" rx="8.5" ry="8.5" stroke="#000" stroke-width="1" /><polygon fill="#FEFBF1" opacity="100" points="695.0,391.0 661.0,391.0 661.0,545.0 695.0,545.0" stroke="#FEEDB9" stroke-width="1" /><polygon fill="#FEFBF1" opacity="100" points="8.0,589.0 34.0,589.0 34.0,580.0 44.0,570.0 44.0,489.0 34.0,479.0 34.0,469.0 8.0,469.0" stroke="#FEEDB9" stroke-width="1" /><polygon fill="#FEFBF1" opacity="100" points="0.0,344.0 31.0,344.0 31.0,191.0 0.0,148.0" stroke="#FEEDB9" stroke-width="1" /><polygon fill="#FEFBF1" opacity="100" points="77.0,0.0 118.0,35.0 145.0,2.0 199.0,2.0 199.0,28.0 167.0,28.0 167.0,61.0 232.0,61.0 232.0,0.0" stroke="#FEEDB9" stroke-width="1" /><polyline fill="none" opacity="100" points="695.0,391.0 661.0,391.0 661.0,545.0 695.0,545.0" stroke="#000" stroke-width="1" /><polyline fill="none" opacity="100" points="8.0,469.0 34.0,469.0 34.0,479.0 44.0,489.0 44.0,570.0 34.0,580.0 34.0,589.0 8.0,589.0" stroke="#000" stroke-width="1" /><polyline fill="none" opacity="100" points="0.0,148.0 31.0,191.0 31.0,344.0 0.0,344.0" stroke="#000" stroke-width="1" /><polyline fill="none" opacity="100" points="77.0,0.0 118.0,35.0 145.0,2.0 199.0,2.0 199.0,28.0 167.0,28.0 167.0,61.0 232.0,61.0 232.0,0.0" stroke="#000" stroke-width="1" /><polygon fill="#709020" opacity="100" points="170.0,1085.0 170.0,984.0 49.0,984.0 49.0,722.0 0.0,722.0 0.0,1085.0" stroke="#000" stroke-width="1" /><polyline fill="none" opacity="100" points="326.0,1234.0 353.0,1234.0" stroke="#000" stroke-width="1" /><polyline fill="none" opacity="100" points="326.0,1230.0 353.0,1230.0" stroke="#000" stroke-width="1" /><polyline fill="none" opacity="100" points="326.0,1226.0 353.0,1226.0" stroke="#000" stroke-width="1" /><polyline fill="none" opacity="100" points="326.0,1222.0 353.0,1222.0" stroke="#000" stroke-width="1" /><polyline fill="none" opacity="100" points="326.0,1218.0 353.0,1218.0" stroke="#000" stroke-width="1" /><polyline fill="none" opacity="100" points="326.0,1214.0 353.0,1214.0" stroke="#000" stroke-width="1" /><polyline fill="none" opacity="100" points="326.0,1210.0 353.0,1210.0" stroke="#000" stroke-width="1" /><polyline fill="none" opacity="100" points="326.0,1206.0 353.0,1206.0" stroke="#000" stroke-width="1" /><polyline fill="none" opacity="100" points="326.0,1202.0 353.0,1202.0" stroke="#000" stroke-width="1" /><polyline fill="none" opacity="100" points="590.0,1201.0 617.0,1201.0" stroke="#000" stroke-width="1" /><polyline fill="none" opacity="100" points="590.0,1205.0 617.0,1205.0" stroke="#000" stroke-width="1" /><polyline fill="none" opacity="100" points="590.0,1209.0 617.0,1209.0" stroke="#000" stroke-width="1" /><polyline fill="none" opacity="100" points="590.0,1213.0 617.0,1213.0" stroke="#000" stroke-width="1" /><polyline fill="none" opacity="100" points="590.0,1217.0 617.0,1217.0" stroke="#000" stroke-width="1" /><polyline fill="none" opacity="100" points="590.0,1221.0 617.0,1221.0" stroke="#000" stroke-width="1" /><polyline fill="none" opacity="100" points="590.0,1225.0 617.0,1225.0" stroke="#000" stroke-width="1" /><polyline fill="none" opacity="100" points="556.0,1248.0 576.0,1268.0" stroke="#000" stroke-width="1" /><polyline fill="none" opacity="100" points="553.1716,1250.8284 573.1716,1270.8284" stroke="#000" stroke-width="1" /><polyline fill="none" opacity="100" points="550.3431,1253.6569 570.3431,1273.6569" stroke="#000" stroke-width="1" /><polyline fill="none" opacity="100" points="547.5147,1256.4853 567.5147,1276.4853" stroke="#000" stroke-width="1" /><polyline fill="none" opacity="100" points="544.6863,1259.3137 564.6863,1279.3137" stroke="#000" stroke-width="1" /><polyline fill="none" opacity="100" points="541.8579,1262.1421 561.8579,1282.1421" stroke="#000" stroke-width="1" /><polyline fill="none" opacity="100" points="583.0,1168.0 611.0,1157.0" stroke="#000" stroke-width="1" /><polyline fill="none" opacity="100" points="581.4615,1164.3077 609.4615,1153.3077" stroke="#000" stroke-width="1" /><polyline fill="none" opacity="100" points="579.9231,1160.6154 607.9231,1149.6154" stroke="#000" stroke-width="1" /><polyline fill="none" opacity="100" points="578.3846,1156.9231 606.3846,1145.9231" stroke="#000" stroke-width="1" /><polyline fill="none" opacity="100" points="576.8462,1153.2308 604.8462,1142.2308" stroke="#000" stroke-width="1" /><polyline fill="none" opacity="100" points="575.3077,1149.5385 603.3077,1138.5385" stroke="#000" stroke-width="1" /><polyline fill="none" opacity="100" points="573.7692,1145.8462 601.7692,1134.8462" stroke="#000" stroke-width="1" /><polyline fill="none" opacity="100" points="515.0,1279.0 520.0,1307.0" stroke="#000" stroke-width="1" /><polyline fill="none" opacity="100" points="511.0645,1279.7155 516.0645,1307.7155" stroke="#000" stroke-width="1" /><polyline fill="none" opacity="100" points="507.129,1280.4311 512.129,1308.4311" stroke="#000" stroke-width="1" /><polyline fill="none" opacity="100" points="503.1936,1281.1466 508.1936,1309.1466" stroke="#000" stroke-width="1" /><polyline fill="none" opacity="100" points="499.2581,1281.8622 504.2581,1309.8622" stroke="#000" stroke-width="1" /><polyline fill="none" opacity="100" points="495.3226,1282.5777 500.3226,1310.5777" stroke="#000" stroke-width="1" /><polyline fill="none" opacity="100" points="190.0,1130.0 219.0,1130.0" stroke="#000" stroke-width="1" /><polyline fill="none" opacity="100" points="190.0,1134.0 219.0,1134.0" stroke="#000" stroke-width="1" /><polyline fill="none" opacity="100" points="190.0,1138.0 219.0,1138.0" stroke="#000" stroke-width="1" /><polyline fill="none" opacity="100" points="190.0,1142.0 219.0,1142.0" stroke="#000" stroke-width="1" /><polyline fill="none" opacity="100" points="190.0,1146.0 219.0,1146.0" stroke="#000" stroke-width="1" /><polyline fill="none" opacity="100" points="190.0,1150.0 219.0,1150.0" stroke="#000" stroke-width="1" /><polyline fill="none" opacity="100" points="190.0,1154.0 219.0,1154.0" stroke="#000" stroke-width="1" /><polyline fill="none" opacity="100" points="190.0,1158.0 219.0,1158.0" stroke="#000" stroke-width="1" /><polyline fill="none" opacity="100" points="190.0,1085.0 217.0,1085.0" stroke="#000" stroke-width="1" /><polyline fill="none" opacity="100" points="190.0,1081.0 217.0,1081.0" stroke="#000" stroke-width="1" /><polyline fill="none" opacity="100" points="190.0,1077.0 217.0,1077.0" stroke="#000" stroke-width="1" /><polyline fill="none" opacity="100" points="190.0,1073.0 217.0,1073.0" stroke="#000" stroke-width="1" /><polyline fill="none" opacity="100" points="190.0,1069.0 217.0,1069.0" stroke="#000" stroke-width="1" /><polyline fill="none" opacity="100" points="190.0,1065.0 217.0,1065.0" stroke="#000" stroke-width="1" /><polyline fill="none" opacity="100" points="190.0,1061.0 217.0,1061.0" stroke="#000" stroke-width="1" /><polyline fill="none" opacity="100" points="190.0,1057.0 217.0,1057.0" stroke="#000" stroke-width="1" /><polyline fill="none" opacity="100" points="190.0,1053.0 217.0,1053.0" stroke="#000" stroke-width="1" /><polyline fill="none" opacity="100" points="543.0,1076.0 516.0,1076.0" stroke="#000" stroke-width="1" /><polyline fill="none" opacity="100" points="543.0,1072.0 516.0,1072.0" stroke="#000" stroke-width="1" /><polyline fill="none" opacity="100" points="543.0,1068.0 516.0,1068.0" stroke="#000" stroke-width="1" /><polyline fill="none" opacity="100" points="543.0,1064.0 516.0,1064.0" stroke="#000" stroke-width="1" /><polyline fill="none" opacity="100" points="543.0,1060.0 516.0,1060.0" stroke="#000" stroke-width="1" /><polyline fill="none" opacity="100" points="543.0,1056.0 516.0,1056.0" stroke="#000" stroke-width="1" /><polyline fill="none" opacity="100" points="543.0,1052.0 516.0,1052.0" stroke="#000" stroke-width="1" /><polyline fill="none" opacity="100" points="543.0,1048.0 516.0,1048.0" stroke="#000" stroke-width="1" /><polyline fill="none" opacity="100" points="217.0,1048.0 217.0,1098.0 488.0,1098.0 516.0,1077.0 516.0,1044.0" stroke="#000" stroke-width="1" /><polyline fill="none" opacity="100" points="543.0,1044.0 543.0,1089.0 493.0,1127.0 539.0,1193.0 585.0,1173.0 573.0,1144.0" stroke="#000" stroke-width="1" /><polyline fill="none" opacity="100" points="602.0,1132.0 617.0,1179.0 617.0,1226.0" stroke="#000" stroke-width="1" /><polyline fill="none" opacity="100" points="590.0,1226.0 590.0,1201.0 556.0,1214.0 539.0,1235.0 539.0,1265.0 556.0,1248.0" stroke="#000" stroke-width="1" /><polyline fill="none" opacity="100" points="576.0,1268.0 560.0,1284.0 520.0,1307.0 497.0,1310.0" stroke="#000" stroke-width="1" /><polyline fill="none" opacity="100" points="493.0,1283.0 515.0,1279.0 513.0,1231.0 519.0,1213.0 456.0,1123.0 353.0,1123.0 353.0,1240.0" stroke="#000" stroke-width="1" /><polyline fill="none" opacity="100" points="326.0,1240.0 326.0,1125.0 219.0,1125.0 219.0,1164.0" stroke="#000" stroke-width="1" /><polyline fill="none" opacity="100" points="190.0,1165.0 190.0,1048.0" stroke="#000" stroke-width="1" /><text fill="#FFF" font-family="Arial" font-size="20" font-weight="bold" opacity="100" transform="rotate(-0.0 455.0,11.0) translate(0 20)" x="455.0" y="11.0">А</text><text fill="#FFF" font-family="Arial" font-size="20" font-weight="bold" opacity="100" transform="rotate(-0.0 132.0,54.0) translate(0 20)" x="132.0" y="54.0">А</text><text fill="#FFF" font-family="Arial" font-size="20" font-weight="bold" opacity="100" transform="rotate(-0.0 522.0,997.0) translate(0 20)" x="522.0" y="997.0">А</text><text fill="#00AFAF" font-family="Arial" font-size="15" font-weight="normal" opacity="100" transform="rotate(-90.0 326.0,1078.0) translate(0 15)" x="326.0" y="1078.0">Красный проспект</text><text fill="#00AFAF" font-family="Arial" font-size="20" font-weight="normal" opacity="100" transform="rotate(-90.0 203.0,416.0) translate(0 20)" x="203.0" y="416.0">площадь Ленина</text><text fill="#00AFAF" font-family="Arial" font-size="15" font-weight="normal" opacity="100" x="494.75" y="116.5">ул. Орджоникидзе</text><text fill="#00AFAF" font-family="Arial" font-size="15" font-weight="normal" opacity="100" x="494.75" y="703.5">ул. Депутатская</text><text fill="#00AFAF" font-family="Arial" font-size="15" font-weight="normal" opacity="100" x="504.75" y="962.5">ул. Щетинкина</text><text fill="#00AFAF" font-family="Arial" font-size="15" font-weight="normal" opacity="100" x="5.75" y="1107.5">ул. Горького</text><text fill="#00AFAF" font-family="Arial" font-size="15" font-weight="normal" opacity="100" x="534.75" y="1116.5">ул. Горького</text><text fill="#00AFAF" font-family="Arial" font-size="15" font-weight="normal" opacity="100" x="5.75" y="1317.5">ул. Чаплыгина</text><text fill="#00AFAF" font-family="Arial" font-size="15" font-weight="normal" opacity="100" x="2.75" y="411.5">ул. Ленина</text><text fill="#00AFAF" font-family="Arial" font-size="15" font-weight="normal" opacity="100" transform="rotate(45.0 48.0,0.0) translate(0 15)" x="48.0" y="0.0">Вокзальная магистраль</text><text fill="#00AFAF" font-family="Arial" font-size="15" font-weight="normal" opacity="100" transform="rotate(35.0 561.0,1217.0) translate(0 15)" x="561.0" y="1217.0">Октябрьская маг-ль</text><text fill="#000" font-family="Arial" font-size="15" font-weight="normal" opacity="100" transform="rotate(-0.0 14.0,1009.0) translate(0 15)" x="14.0" y="1009.0">Первомайский сквер</text><text fill="#000" font-family="Arial" font-size="15" font-weight="normal" opacity="100" transform="rotate(-0.0 592.0,852.0) translate(0 15)" x="592.0" y="852.0">Мэрия</text><text fill="#000" font-family="Arial" font-size="15" font-weight="normal" opacity="100" transform="rotate(-0.0 585.0,1011.0) translate(0 15)" x="585.0" y="1011.0">Дом памяти</text><text fill="#000" font-family="Arial" font-size="15" font-weight="normal" opacity="100" transform="rotate(-0.0 582.0,1027.0) translate(0 15)" x="582.0" y="1027.0">В. И. Ленина</text><text fill="#000" font-family="Arial" font-size="15" font-weight="normal" opacity="100" transform="rotate(-90.0 115.0,914.0) translate(0 15)" x="115.0" y="914.0">Краеведческий музей</text><text fill="#000" font-family="Arial" font-size="15" font-weight="normal" opacity="100" transform="rotate(-90.0 7.0,311.0) translate(0 15)" x="7.0" y="311.0">Центробанк</text><text fill="#000" font-family="Arial" font-size="13" font-weight="normal" opacity="100" transform="rotate(-90.0 11.0,584.0) translate(0 13)" x="11.0" y="584.0">Гост. "Центральная"</text><text fill="#000" font-family="Arial" font-size="15" font-weight="normal" opacity="100" transform="rotate(-90.0 669.0,541.0) translate(0 15)" x="669.0" y="541.0">Театр оперы и балета</text><text fill="#000" font-family="Arial" font-size="15" font-weight="normal" opacity="100" transform="rotate(-0.0 576.0,1042.0) translate(0 15)" x="576.0" y="1042.0">(Филармония)</text><text fill="#000" font-family="Arial" font-size="15" font-weight="normal" opacity="100" transform="rotate(-0.0 501.0,47.0) translate(0 15)" x="501.0" y="47.0">Архитектурно-строительная</text><text fill="#000" font-family="Arial" font-size="15" font-weight="normal" opacity="100" transform="rotate(-0.0 550.0,63.0) translate(0 15)" x="550.0" y="63.0">академия</text><text fill="#000" font-family="Arial" font-size="15" font-weight="normal" opacity="100" transform="rotate(-0.0 515.0,1333.0) translate(0 15)" x="515.0" y="1333.0">Маг. "Под строкой"</text><text fill="#000" font-family="Arial" font-size="15" font-weight="normal" opacity="100" transform="rotate(-90.0 578.0,531.0) translate(0 15)" x="578.0" y="531.0">Памятник В. И. Ленину</text><text fill="#000" font-family="Arial" font-size="15" font-weight="normal" opacity="100" transform="rotate(-0.0 274.0,1315.0) translate(0 15)" x="274.0" y="1315.0">Часовня св. Николая</text><polyline fill="none" opacity="100" points="329.0,172.0 333.0,187.0" stroke="#090" stroke-width="1" /><polygon fill="#090" opacity="100" points="330.6762,182.9639 333.0,187.0 333.0056,182.3428" stroke="#090" stroke-width="1" /><polyline fill="none" opacity="100" points="356.0,777.0 352.0,761.0" stroke="#090" stroke-width="1" /><polygon fill="#090" opacity="100" points="354.4014,765.3259 352.0,761.0 351.9168,765.947" stroke="#090" stroke-width="1" /><polyline fill="none" opacity="100" points="388.0,182.0 388.0,166.0" stroke="#F00" stroke-width="1" /><polygon fill="#F00" opacity="100" points="389.2423,170.6364 388.0,166.0 386.7577,170.6364" stroke="#F00" stroke-width="1" /><polyline fill="none" opacity="100" points="306.0,769.0 306.0,783.0" stroke="#F00" stroke-width="1" /><polygon fill="#F00" opacity="100" points="304.913,778.9431 306.0,783.0 307.087,778.9431" stroke="#F00" stroke-width="1" /></g></svg>