<?xml version="1.0" encoding="utf-8" ?>
<svg baseProfile="tiny" height="760px" version="1.2" width="1350px" xmlns="http://www.w3.org/2000/svg" xmlns:ev="http://www.w3.org/2001/xml-events" xmlns:xlink="http://www.w3.org/1999/xlink"><defs /><g><polygon fill="#FB0505" opacity="100" points="266.0,279.0 716.0,279.0 716.0,309.0 266.0,309.0" stroke="#000" stroke-width="1" /><polygon fill="#FB0505" opacity="100" points="266.0,419.0 716.0,419.0 716.0,389.0 266.0,389.0" stroke="#000" stroke-width="1" /><text fill="#FB0505" font-family="Arial" font-size="20" font-weight="normal" opacity="100" x="263.0" y="276.0">&lt;&lt; тупик</text><text fill="#FB0505" font-family="Arial" font-size="20" font-weight="normal" opacity="100" x="571.0" y="437.0">Студенческая &gt;&gt;</text><text fill="#FB0505" font-family="Arial" font-size="25" font-weight="bold" opacity="100" x="405.25" y="337.5">Площадь Маркса</text><polyline fill="none" opacity="100" points="716.0,309.0 725.0,309.0 716.0,300.0 716.0,279.0 800.0,279.0 800.0,164.0 851.0,113.0" stroke="#000" stroke-width="1" /><polyline fill="none" opacity="100" points="874.0,136.0 832.0,178.0 832.0,278.0 845.0,278.0 845.0,298.0 865.0,298.0 865.0,324.0" stroke="#000" stroke-width="1" /><polyline fill="none" opacity="100" points="716.0,389.0 725.0,389.0 716.0,398.0 716.0,419.0 845.0,419.0 845.0,404.0 865.0,404.0 865.0,374.0" stroke="#000" stroke-width="1" /><polyline fill="none" opacity="100" points="847.0,324.0 1046.0,324.0 1062.0,340.0 1165.0,237.0 1133.0,205.0 1103.0,235.0" stroke="#000" stroke-width="1" /><polyline fill="none" opacity="100" points="847.0,374.0 896.0,374.0 896.0,459.0 846.0,509.0 811.0,474.0" stroke="#000" stroke-width="1" /><polyline fill="none" opacity="100" points="784.0,501.0 843.0,560.0 932.0,471.0 932.0,374.0 1016.0,374.0 1124.0,482.0 1095.0,511.0" stroke="#000" stroke-width="1" /><polyline fill="none" opacity="100" points="1118.0,534.0 1172.0,480.0 1087.0,395.0 1087.0,365.0 1190.0,262.0 1217.0,289.0 1188.0,318.0" stroke="#000" stroke-width="1" /><polyline fill="none" opacity="100" points="1211.0,341.0 1290.0,262.0" stroke="#000" stroke-width="1" /><polyline fill="none" opacity="100" points="1267.0,239.0 1238.0,268.0 1153.0,183.0 1185.0,151.0" stroke="#000" stroke-width="1" /><polyline fill="none" opacity="100" points="1163.0,129.0 1080.0,212.0" stroke="#000" stroke-width="1" /><polyline fill="none" opacity="100" points="677.0,389.0 677.0,309.0" stroke="#000" stroke-width="1" /><polyline fill="none" opacity="100" points="681.0,389.0 681.0,309.0" stroke="#000" stroke-width="1" /><polyline fill="none" opacity="100" points="685.0,389.0 685.0,309.0" stroke="#000" stroke-width="1" /><polyline fill="none" opacity="100" points="689.0,389.0 689.0,309.0" stroke="#000" stroke-width="1" /><polyline fill="none" opacity="100" points="693.0,389.0 693.0,309.0" stroke="#000" stroke-width="1" /><polyline fill="none" opacity="100" points="697.0,389.0 697.0,309.0" stroke="#000" stroke-width="1" /><polyline fill="none" opacity="100" points="701.0,389.0 701.0,309.0" stroke="#000" stroke-width="1" /><polyline fill="none" opacity="100" points="705.0,389.0 705.0,309.0" stroke="#000" stroke-width="1" /><polyline fill="none" opacity="100" points="709.0,389.0 709.0,309.0" stroke="#000" stroke-width="1" /><polyline fill="none" opacity="100" points="713.0,389.0 713.0,309.0" stroke="#000" stroke-width="1" /><polyline fill="none" opacity="100" points="717.0,389.0 717.0,309.0" stroke="#000" stroke-width="1" /><polyline fill="none" opacity="100" points="721.0,389.0 721.0,309.0" stroke="#000" stroke-width="1" /><polyline fill="none" opacity="100" points="725.0,389.0 725.0,309.0" stroke="#000" stroke-width="1" /><polyline fill="none" opacity="100" points="847.0,374.0 847.0,324.0" stroke="#000" stroke-width="1" /><polyline fill="none" opacity="100" points="851.0,374.0 851.0,324.0" stroke="#000" stroke-width="1" /><polyline fill="none" opacity="100" points="855.0,374.0 855.0,324.0" stroke="#000" stroke-width="1" /><polyline fill="none" opacity="100" points="859.0,374.0 859.0,324.0" stroke="#000" stroke-width="1" /><polyline fill="none" opacity="100" points="863.0,374.0 863.0,324.0" stroke="#000" stroke-width="1" /><polyline fill="none" opacity="100" points="867.0,374.0 867.0,324.0" stroke="#000" stroke-width="1" /><polyline fill="none" opacity="100" points="871.0,374.0 871.0,324.0" stroke="#000" stroke-width="1" /><polyline fill="none" opacity="100" points="875.0,374.0 875.0,324.0" stroke="#000" stroke-width="1" /><polyline fill="none" opacity="100" points="1087.0,365.0 1062.0,340.0" stroke="#000" stroke-width="1" /><polyline fill="none" opacity="100" points="1089.8284,362.1716 1064.8284,337.1716" stroke="#000" stroke-width="1" /><polyline fill="none" opacity="100" points="1092.6569,359.3431 1067.6569,334.3431" stroke="#000" stroke-width="1" /><polyline fill="none" opacity="100" points="1095.4853,356.5147 1070.4853,331.5147" stroke="#000" stroke-width="1" /><polyline fill="none" opacity="100" points="1098.3137,353.6863 1073.3137,328.6863" stroke="#000" stroke-width="1" /><polyline fill="none" opacity="100" points="1124.0,482.0 1147.0,505.0" stroke="#000" stroke-width="1" /><polyline fill="none" opacity="100" points="1121.1716,484.8284 1144.1716,507.8284" stroke="#000" stroke-width="1" /><polyline fill="none" opacity="100" points="1118.3431,487.6569 1141.3431,510.6569" stroke="#000" stroke-width="1" /><polyline fill="none" opacity="100" points="1115.5147,490.4853 1138.5147,513.4853" stroke="#000" stroke-width="1" /><polyline fill="none" opacity="100" points="1112.6863,493.3137 1135.6863,516.3137" stroke="#000" stroke-width="1" /><polyline fill="none" opacity="100" points="1109.8579,496.1421 1132.8579,519.1421" stroke="#000" stroke-width="1" /><polyline fill="none" opacity="100" points="1107.0294,498.9706 1130.0294,521.9706" stroke="#000" stroke-width="1" /><polyline fill="none" opacity="100" points="1104.201,501.799 1127.201,524.799" stroke="#000" stroke-width="1" /><polyline fill="none" opacity="100" points="1101.3726,504.6274 1124.3726,527.6274" stroke="#000" stroke-width="1" /><polyline fill="none" opacity="100" points="1098.5442,507.4558 1121.5442,530.4558" stroke="#000" stroke-width="1" /><polyline fill="none" opacity="100" points="1095.7157,510.2843 1118.7157,533.2843" stroke="#000" stroke-width="1" /><polyline fill="none" opacity="100" points="846.0,509.0 819.0,536.0" stroke="#000" stroke-width="1" /><polyline fill="none" opacity="100" points="843.1716,506.1716 816.1716,533.1716" stroke="#000" stroke-width="1" /><polyline fill="none" opacity="100" points="840.3431,503.3431 813.3431,530.3431" stroke="#000" stroke-width="1" /><polyline fill="none" opacity="100" points="837.5147,500.5147 810.5147,527.5147" stroke="#000" stroke-width="1" /><polyline fill="none" opacity="100" points="834.6863,497.6863 807.6863,524.6863" stroke="#000" stroke-width="1" /><polyline fill="none" opacity="100" points="831.8579,494.8579 804.8579,521.8579" stroke="#000" stroke-width="1" /><polyline fill="none" opacity="100" points="829.0294,492.0294 802.0294,519.0294" stroke="#000" stroke-width="1" /><polyline fill="none" opacity="100" points="826.201,489.201 799.201,516.201" stroke="#000" stroke-width="1" /><polyline fill="none" opacity="100" points="823.3726,486.3726 796.3726,513.3726" stroke="#000" stroke-width="1" /><polyline fill="none" opacity="100" points="820.5442,483.5442 793.5442,510.5442" stroke="#000" stroke-width="1" /><polyline fill="none" opacity="100" points="817.7157,480.7157 790.7157,507.7157" stroke="#000" stroke-width="1" /><polyline fill="none" opacity="100" points="814.8873,477.8873 787.8873,504.8873" stroke="#000" stroke-width="1" /><polyline fill="none" opacity="100" points="812.0589,475.0589 785.0589,502.0589" stroke="#000" stroke-width="1" /><polyline fill="none" opacity="100" points="1164.0,288.0 1139.0,263.0" stroke="#000" stroke-width="1" /><polyline fill="none" opacity="100" points="1166.8284,285.1716 1141.8284,260.1716" stroke="#000" stroke-width="1" /><polyline fill="none" opacity="100" points="1169.6569,282.3431 1144.6569,257.3431" stroke="#000" stroke-width="1" /><polyline fill="none" opacity="100" points="1172.4853,279.5147 1147.4853,254.5147" stroke="#000" stroke-width="1" /><polyline fill="none" opacity="100" points="1175.3137,276.6863 1150.3137,251.6863" stroke="#000" stroke-width="1" /><polyline fill="none" opacity="100" points="1261.0,291.0 1238.0,268.0" stroke="#000" stroke-width="1" /><polyline fill="none" opacity="100" points="1263.8284,288.1716 1240.8284,265.1716" stroke="#000" stroke-width="1" /><polyline fill="none" opacity="100" points="1266.6569,285.3431 1243.6569,262.3431" stroke="#000" stroke-width="1" /><polyline fill="none" opacity="100" points="1269.4853,282.5147 1246.4853,259.5147" stroke="#000" stroke-width="1" /><polyline fill="none" opacity="100" points="1272.3137,279.6863 1249.3137,256.6863" stroke="#000" stroke-width="1" /><polyline fill="none" opacity="100" points="1275.1421,276.8579 1252.1421,253.8579" stroke="#000" stroke-width="1" /><polyline fill="none" opacity="100" points="1277.9706,274.0294 1254.9706,251.0294" stroke="#000" stroke-width="1" /><polyline fill="none" opacity="100" points="1280.799,271.201 1257.799,248.201" stroke="#000" stroke-width="1" /><polyline fill="none" opacity="100" points="1283.6274,268.3726 1260.6274,245.3726" stroke="#000" stroke-width="1" /><polyline fill="none" opacity="100" points="1286.4558,265.5442 1263.4558,242.5442" stroke="#000" stroke-width="1" /><polyline fill="none" opacity="100" points="1289.2843,262.7157 1266.2843,239.7157" stroke="#000" stroke-width="1" /><polyline fill="none" opacity="100" points="1153.0,183.0 1131.0,161.0" stroke="#000" stroke-width="1" /><polyline fill="none" opacity="100" points="1155.8284,180.1716 1133.8284,158.1716" stroke="#000" stroke-width="1" /><polyline fill="none" opacity="100" points="1158.6569,177.3431 1136.6569,155.3431" stroke="#000" stroke-width="1" /><polyline fill="none" opacity="100" points="1161.4853,174.5147 1139.4853,152.5147" stroke="#000" stroke-width="1" /><polyline fill="none" opacity="100" points="1164.3137,171.6863 1142.3137,149.6863" stroke="#000" stroke-width="1" /><polyline fill="none" opacity="100" points="1167.1421,168.8579 1145.1421,146.8579" stroke="#000" stroke-width="1" /><polyline fill="none" opacity="100" points="1169.9706,166.0294 1147.9706,144.0294" stroke="#000" stroke-width="1" /><polyline fill="none" opacity="100" points="1172.799,163.201 1150.799,141.201" stroke="#000" stroke-width="1" /><polyline fill="none" opacity="100" points="1175.6274,160.3726 1153.6274,138.3726" stroke="#000" stroke-width="1" /><polyline fill="none" opacity="100" points="1178.4558,157.5442 1156.4558,135.5442" stroke="#000" stroke-width="1" /><polyline fill="none" opacity="100" points="1181.2843,154.7157 1159.2843,132.7157" stroke="#000" stroke-width="1" /><polyline fill="none" opacity="100" points="1184.1127,151.8873 1162.1127,129.8873" stroke="#000" stroke-width="1" /><polyline fill="none" opacity="100" points="1217.0,289.0 1240.0,312.0" stroke="#000" stroke-width="1" /><polyline fill="none" opacity="100" points="1214.1716,291.8284 1237.1716,314.8284" stroke="#000" stroke-width="1" /><polyline fill="none" opacity="100" points="1211.3431,294.6569 1234.3431,317.6569" stroke="#000" stroke-width="1" /><polyline fill="none" opacity="100" points="1208.5147,297.4853 1231.5147,320.4853" stroke="#000" stroke-width="1" /><polyline fill="none" opacity="100" points="1205.6863,300.3137 1228.6863,323.3137" stroke="#000" stroke-width="1" /><polyline fill="none" opacity="100" points="1202.8579,303.1421 1225.8579,326.1421" stroke="#000" stroke-width="1" /><polyline fill="none" opacity="100" points="1200.0294,305.9706 1223.0294,328.9706" stroke="#000" stroke-width="1" /><polyline fill="none" opacity="100" points="1197.201,308.799 1220.201,331.799" stroke="#000" stroke-width="1" /><polyline fill="none" opacity="100" points="1194.3726,311.6274 1217.3726,334.6274" stroke="#000" stroke-width="1" /><polyline fill="none" opacity="100" points="1191.5442,314.4558 1214.5442,337.4558" stroke="#000" stroke-width="1" /><polyline fill="none" opacity="100" points="1188.7157,317.2843 1211.7157,340.2843" stroke="#000" stroke-width="1" /><polyline fill="none" opacity="100" points="1110.0,182.0 1133.0,205.0" stroke="#000" stroke-width="1" /><polyline fill="none" opacity="100" points="1107.1716,184.8284 1130.1716,207.8284" stroke="#000" stroke-width="1" /><polyline fill="none" opacity="100" points="1104.3431,187.6569 1127.3431,210.6569" stroke="#000" stroke-width="1" /><polyline fill="none" opacity="100" points="1101.5147,190.4853 1124.5147,213.4853" stroke="#000" stroke-width="1" /><polyline fill="none" opacity="100" points="1098.6863,193.3137 1121.6863,216.3137" stroke="#000" stroke-width="1" /><polyline fill="none" opacity="100" points="1095.8579,196.1421 1118.8579,219.1421" stroke="#000" stroke-width="1" /><polyline fill="none" opacity="100" points="1093.0294,198.9706 1116.0294,221.9706" stroke="#000" stroke-width="1" /><polyline fill="none" opacity="100" points="1090.201,201.799 1113.201,224.799" stroke="#000" stroke-width="1" /><polyline fill="none" opacity="100" points="1087.3726,204.6274 1110.3726,227.6274" stroke="#000" stroke-width="1" /><polyline fill="none" opacity="100" points="1084.5442,207.4558 1107.5442,230.4558" stroke="#000" stroke-width="1" /><polyline fill="none" opacity="100" points="1081.7157,210.2843 1104.7157,233.2843" stroke="#000" stroke-width="1" /><polyline fill="none" opacity="100" points="811.0,153.0 834.0,176.0" stroke="#000" stroke-width="1" /><polyline fill="none" opacity="100" points="813.8284,150.1716 836.8284,173.1716" stroke="#000" stroke-width="1" /><polyline fill="none" opacity="100" points="816.6569,147.3431 839.6569,170.3431" stroke="#000" stroke-width="1" /><polyline fill="none" opacity="100" points="819.4853,144.5147 842.4853,167.5147" stroke="#000" stroke-width="1" /><polyline fill="none" opacity="100" points="822.3137,141.6863 845.3137,164.6863" stroke="#000" stroke-width="1" /><polyline fill="none" opacity="100" points="825.1421,138.8579 848.1421,161.8579" stroke="#000" stroke-width="1" /><polyline fill="none" opacity="100" points="827.9706,136.0294 850.9706,159.0294" stroke="#000" stroke-width="1" /><polyline fill="none" opacity="100" points="830.799,133.201 853.799,156.201" stroke="#000" stroke-width="1" /><polyline fill="none" opacity="100" points="833.6274,130.3726 856.6274,153.3726" stroke="#000" stroke-width="1" /><polyline fill="none" opacity="100" points="836.4558,127.5442 859.4558,150.5442" stroke="#000" stroke-width="1" /><polyline fill="none" opacity="100" points="839.2843,124.7157 862.2843,147.7157" stroke="#000" stroke-width="1" /><polyline fill="none" opacity="100" points="842.1127,121.8873 865.1127,144.8873" stroke="#000" stroke-width="1" /><polyline fill="none" opacity="100" points="844.9411,119.0589 867.9411,142.0589" stroke="#000" stroke-width="1" /><polyline fill="none" opacity="100" points="847.7696,116.2304 870.7696,139.2304" stroke="#000" stroke-width="1" /><polyline fill="none" opacity="100" points="850.598,113.402 873.598,136.402" stroke="#000" stroke-width="1" /><polyline fill="none" opacity="100" points="855.0,404.0 855.0,374.0" stroke="#000" stroke-width="1" /><polygon fill="none" opacity="100" points="780.0,331.0 791.0,331.0 791.0,342.0 780.0,342.0" stroke="#000" stroke-width="1" /><polyline fill="none" opacity="100" points="785.0,279.0 785.0,283.0" stroke="#000" stroke-width="1" /><polyline fill="none" opacity="100" points="785.0,327.0 785.0,331.0" stroke="#000" stroke-width="1" /><polyline fill="none" opacity="100" points="785.0,342.0 785.0,347.0" stroke="#000" stroke-width="1" /><polyline fill="none" opacity="100" points="785.0,415.0 785.0,419.0" stroke="#000" stroke-width="1" /><text fill="#FFF" font-family="Arial" font-size="10" font-weight="normal" opacity="100" transform="rotate(-90.0 854.0,402.0) translate(0 10)" x="854.0" y="402.0">кассы</text><polyline fill="none" opacity="100" points="782.0,347.0 788.0,347.0" stroke="#090" stroke-width="1" /><polyline fill="none" opacity="100" points="782.0,351.0 788.0,351.0" stroke="#090" stroke-width="1" /><polyline fill="none" opacity="100" points="782.0,355.0 788.0,355.0" stroke="#090" stroke-width="1" /><polyline fill="none" opacity="100" points="782.0,359.0 788.0,359.0" stroke="#090" stroke-width="1" /><polyline fill="none" opacity="100" points="782.0,363.0 788.0,363.0" stroke="#090" stroke-width="1" /><polyline fill="none" opacity="100" points="782.0,367.0 788.0,367.0" stroke="#090" stroke-width="1" /><polyline fill="none" opacity="100" points="782.0,371.0 788.0,371.0" stroke="#090" stroke-width="1" /><polyline fill="none" opacity="100" points="782.0,375.0 788.0,375.0" stroke="#090" stroke-width="1" /><polyline fill="none" opacity="100" points="782.0,379.0 788.0,379.0" stroke="#090" stroke-width="1" /><polyline fill="none" opacity="100" points="782.0,383.0 788.0,383.0" stroke="#090" stroke-width="1" /><polyline fill="none" opacity="100" points="782.0,387.0 788.0,387.0" stroke="#090" stroke-width="1" /><polyline fill="none" opacity="100" points="782.0,391.0 788.0,391.0" stroke="#090" stroke-width="1" /><polyline fill="none" opacity="100" points="782.0,395.0 788.0,395.0" stroke="#090" stroke-width="1" /><polyline fill="none" opacity="100" points="782.0,399.0 788.0,399.0" stroke="#090" stroke-width="1" /><polyline fill="none" opacity="100" points="782.0,403.0 788.0,403.0" stroke="#090" stroke-width="1" /><polyline fill="none" opacity="100" points="782.0,407.0 788.0,407.0" stroke="#090" stroke-width="1" /><polyline fill="none" opacity="100" points="782.0,411.0 788.0,411.0" stroke="#090" stroke-width="1" /><polyline fill="none" opacity="100" points="782.0,415.0 788.0,415.0" stroke="#090" stroke-width="1" /><polyline fill="none" opacity="100" points="782.0,283.0 788.0,283.0" stroke="#F00" stroke-width="1" /><polyline fill="none" opacity="100" points="782.0,287.0 788.0,287.0" stroke="#F00" stroke-width="1" /><polyline fill="none" opacity="100" points="782.0,291.0 788.0,291.0" stroke="#F00" stroke-width="1" /><polyline fill="none" opacity="100" points="782.0,295.0 788.0,295.0" stroke="#F00" stroke-width="1" /><polyline fill="none" opacity="100" points="782.0,299.0 788.0,299.0" stroke="#F00" stroke-width="1" /><polyline fill="none" opacity="100" points="782.0,303.0 788.0,303.0" stroke="#F00" stroke-width="1" /><polyline fill="none" opacity="100" points="782.0,307.0 788.0,307.0" stroke="#F00" stroke-width="1" /><polyline fill="none" opacity="100" points="782.0,311.0 788.0,311.0" stroke="#F00" stroke-width="1" /><polyline fill="none" opacity="100" points="782.0,315.0 788.0,315.0" stroke="#F00" stroke-width="1" /><polyline fill="none" opacity="100" points="782.0,319.0 788.0,319.0" stroke="#F00" stroke-width="1" /><polyline fill="none" opacity="100" points="782.0,323.0 788.0,323.0" stroke="#F00" stroke-width="1" /><polyline fill="none" opacity="100" points="782.0,327.0 788.0,327.0" stroke="#F00" stroke-width="1" /><polyline fill="none" opacity="100" points="266.0,309.0 258.0,309.0 266.0,301.0 266.0,279.0 176.0,279.0 176.0,197.0 125.0,146.0" stroke="#000" stroke-width="1" /><polyline fill="none" opacity="100" points="103.0,168.0 146.0,211.0 146.0,278.0 136.0,278.0 136.0,298.0 124.0,298.0 124.0,323.0 136.0,323.0 136.0,373.0 125.0,373.0 125.0,399.0 136.0,399.0 136.0,419.0 146.0,419.0 146.0,525.0 114.0,557.0" stroke="#000" stroke-width="1" /><polyline fill="none" opacity="100" points="136.0,579.0 176.0,539.0 176.0,419.0 266.0,419.0 266.0,397.0 258.0,389.0 266.0,389.0" stroke="#000" stroke-width="1" /><polyline fill="none" opacity="100" points="306.0,309.0 306.0,389.0" stroke="#000" stroke-width="1" /><polyline fill="none" opacity="100" points="302.0,309.0 302.0,389.0" stroke="#000" stroke-width="1" /><polyline fill="none" opacity="100" points="298.0,309.0 298.0,389.0" stroke="#000" stroke-width="1" /><polyline fill="none" opacity="100" points="294.0,309.0 294.0,389.0" stroke="#000" stroke-width="1" /><polyline fill="none" opacity="100" points="290.0,309.0 290.0,389.0" stroke="#000" stroke-width="1" /><polyline fill="none" opacity="100" points="286.0,309.0 286.0,389.0" stroke="#000" stroke-width="1" /><polyline fill="none" opacity="100" points="282.0,309.0 282.0,389.0" stroke="#000" stroke-width="1" /><polyline fill="none" opacity="100" points="278.0,309.0 278.0,389.0" stroke="#000" stroke-width="1" /><polyline fill="none" opacity="100" points="274.0,309.0 274.0,389.0" stroke="#000" stroke-width="1" /><polyline fill="none" opacity="100" points="270.0,309.0 270.0,389.0" stroke="#000" stroke-width="1" /><polyline fill="none" opacity="100" points="266.0,309.0 266.0,389.0" stroke="#000" stroke-width="1" /><polyline fill="none" opacity="100" points="262.0,309.0 262.0,389.0" stroke="#000" stroke-width="1" /><polyline fill="none" opacity="100" points="258.0,309.0 258.0,389.0" stroke="#000" stroke-width="1" /><polyline fill="none" opacity="100" points="146.0,438.0 175.0,438.0" stroke="#000" stroke-width="1" /><polyline fill="none" opacity="100" points="146.0,442.0 175.0,442.0" stroke="#000" stroke-width="1" /><polyline fill="none" opacity="100" points="146.0,446.0 175.0,446.0" stroke="#000" stroke-width="1" /><polyline fill="none" opacity="100" points="146.0,450.0 175.0,450.0" stroke="#000" stroke-width="1" /><polyline fill="none" opacity="100" points="146.0,454.0 175.0,454.0" stroke="#000" stroke-width="1" /><polyline fill="none" opacity="100" points="146.0,458.0 175.0,458.0" stroke="#000" stroke-width="1" /><polyline fill="none" opacity="100" points="176.0,239.0 146.0,239.0" stroke="#000" stroke-width="1" /><polyline fill="none" opacity="100" points="176.0,235.0 146.0,235.0" stroke="#000" stroke-width="1" /><polyline fill="none" opacity="100" points="176.0,231.0 146.0,231.0" stroke="#000" stroke-width="1" /><polyline fill="none" opacity="100" points="176.0,227.0 146.0,227.0" stroke="#000" stroke-width="1" /><polyline fill="none" opacity="100" points="176.0,223.0 146.0,223.0" stroke="#000" stroke-width="1" /><polyline fill="none" opacity="100" points="176.0,219.0 146.0,219.0" stroke="#000" stroke-width="1" /><polyline fill="none" opacity="100" points="146.0,504.0 176.0,504.0" stroke="#000" stroke-width="1" /><polyline fill="none" opacity="100" points="146.0,508.0 176.0,508.0" stroke="#000" stroke-width="1" /><polyline fill="none" opacity="100" points="146.0,512.0 176.0,512.0" stroke="#000" stroke-width="1" /><polyline fill="none" opacity="100" points="146.0,516.0 176.0,516.0" stroke="#000" stroke-width="1" /><polyline fill="none" opacity="100" points="146.0,520.0 176.0,520.0" stroke="#000" stroke-width="1" /><polyline fill="none" opacity="100" points="146.0,524.0 176.0,524.0" stroke="#000" stroke-width="1" /><polyline fill="none" opacity="100" points="146.0,525.0 168.0,547.0" stroke="#000" stroke-width="1" /><polyline fill="none" opacity="100" points="143.1716,527.8284 165.1716,549.8284" stroke="#000" stroke-width="1" /><polyline fill="none" opacity="100" points="140.3431,530.6569 162.3431,552.6569" stroke="#000" stroke-width="1" /><polyline fill="none" opacity="100" points="137.5147,533.4853 159.5147,555.4853" stroke="#000" stroke-width="1" /><polyline fill="none" opacity="100" points="134.6863,536.3137 156.6863,558.3137" stroke="#000" stroke-width="1" /><polyline fill="none" opacity="100" points="131.8579,539.1421 153.8579,561.1421" stroke="#000" stroke-width="1" /><polyline fill="none" opacity="100" points="129.0294,541.9706 151.0294,563.9706" stroke="#000" stroke-width="1" /><polyline fill="none" opacity="100" points="126.201,544.799 148.201,566.799" stroke="#000" stroke-width="1" /><polyline fill="none" opacity="100" points="123.3726,547.6274 145.3726,569.6274" stroke="#000" stroke-width="1" /><polyline fill="none" opacity="100" points="120.5442,550.4558 142.5442,572.4558" stroke="#000" stroke-width="1" /><polyline fill="none" opacity="100" points="117.7157,553.2843 139.7157,575.2843" stroke="#000" stroke-width="1" /><polyline fill="none" opacity="100" points="114.8873,556.1127 136.8873,578.1127" stroke="#000" stroke-width="1" /><polyline fill="none" opacity="100" points="134.0,199.0 156.0,177.0" stroke="#000" stroke-width="1" /><polyline fill="none" opacity="100" points="131.1716,196.1716 153.1716,174.1716" stroke="#000" stroke-width="1" /><polyline fill="none" opacity="100" points="128.3431,193.3431 150.3431,171.3431" stroke="#000" stroke-width="1" /><polyline fill="none" opacity="100" points="125.5147,190.5147 147.5147,168.5147" stroke="#000" stroke-width="1" /><polyline fill="none" opacity="100" points="122.6863,187.6863 144.6863,165.6863" stroke="#000" stroke-width="1" /><polyline fill="none" opacity="100" points="119.8579,184.8579 141.8579,162.8579" stroke="#000" stroke-width="1" /><polyline fill="none" opacity="100" points="117.0294,182.0294 139.0294,160.0294" stroke="#000" stroke-width="1" /><polyline fill="none" opacity="100" points="114.201,179.201 136.201,157.201" stroke="#000" stroke-width="1" /><polyline fill="none" opacity="100" points="111.3726,176.3726 133.3726,154.3726" stroke="#000" stroke-width="1" /><polyline fill="none" opacity="100" points="108.5442,173.5442 130.5442,151.5442" stroke="#000" stroke-width="1" /><polyline fill="none" opacity="100" points="105.7157,170.7157 127.7157,148.7157" stroke="#000" stroke-width="1" /><polyline fill="none" opacity="100" points="771.0,309.0 798.0,309.0" stroke="#F00" stroke-width="1" /><polygon fill="#F00" opacity="100" points="790.176,311.0964 798.0,309.0 790.176,306.9036" stroke="#F00" stroke-width="1" /><polyline fill="none" opacity="100" points="238.0,309.0 211.0,309.0" stroke="#F00" stroke-width="1" /><polygon fill="#F00" opacity="100" points="218.824,306.9036 211.0,309.0 218.824,311.0964" stroke="#F00" stroke-width="1" /><polyline fill="none" opacity="100" points="798.0,381.0 771.0,381.0" stroke="#090" stroke-width="1" /><polygon fill="#090" opacity="100" points="778.824,378.9036 771.0,381.0 778.824,383.0964" stroke="#090" stroke-width="1" /><polyline fill="none" opacity="100" points="211.0,381.0 238.0,381.0" stroke="#090" stroke-width="1" /><polygon fill="#090" opacity="100" points="230.176,383.0964 238.0,381.0 230.176,378.9036" stroke="#090" stroke-width="1" /><ellipse cx="375.5" cy="351.5" fill="#CCC" opacity="100" rx="10.5" ry="10.5" stroke="#000" stroke-width="1" /><ellipse cx="490.5" cy="351.5" fill="#CCC" opacity="100" rx="10.5" ry="10.5" stroke="#000" stroke-width="1" /><ellipse cx="604.5" cy="351.5" fill="#CCC" opacity="100" rx="10.5" ry="10.5" stroke="#000" stroke-width="1" /><ellipse cx="1066.5" cy="385.5" fill="#CCC" opacity="100" rx="-4.5" ry="5.5" stroke="#000" stroke-width="1" /><ellipse cx="1028.5" cy="347.5" fill="#CCC" opacity="100" rx="-4.5" ry="5.5" stroke="#000" stroke-width="1" /><ellipse cx="1047.5" cy="366.5" fill="#CCC" opacity="100" rx="-4.5" ry="5.5" stroke="#000" stroke-width="1" /><polyline fill="none" opacity="100" points="213.0,419.0 213.0,429.0 184.0,429.0 184.0,419.0" stroke="#000" stroke-width="1" /><polyline fill="none" opacity="100" points="224.0,419.0 224.0,415.0" stroke="#000" stroke-width="1" /><polygon fill="none" opacity="100" points="218.0,331.0 229.0,331.0 229.0,342.0 218.0,342.0" stroke="#000" stroke-width="1" /><polyline fill="none" opacity="100" points="224.0,347.0 224.0,342.0" stroke="#000" stroke-width="1" /><polyline fill="none" opacity="100" points="224.0,331.0 224.0,327.0" stroke="#000" stroke-width="1" /><polyline fill="none" opacity="100" points="224.0,283.0 224.0,279.0" stroke="#000" stroke-width="1" /><text fill="#FFF" font-family="Arial" font-size="10" font-weight="normal" opacity="100" transform="rotate(-0.0 186.0,418.0) translate(0 10)" x="186.0" y="418.0">кассы</text><polyline fill="none" opacity="100" points="221.0,347.0 227.0,347.0" stroke="#090" stroke-width="1" /><polyline fill="none" opacity="100" points="221.0,351.0 227.0,351.0" stroke="#090" stroke-width="1" /><polyline fill="none" opacity="100" points="221.0,355.0 227.0,355.0" stroke="#090" stroke-width="1" /><polyline fill="none" opacity="100" points="221.0,359.0 227.0,359.0" stroke="#090" stroke-width="1" /><polyline fill="none" opacity="100" points="221.0,363.0 227.0,363.0" stroke="#090" stroke-width="1" /><polyline fill="none" opacity="100" points="221.0,367.0 227.0,367.0" stroke="#090" stroke-width="1" /><polyline fill="none" opacity="100" points="221.0,371.0 227.0,371.0" stroke="#090" stroke-width="1" /><polyline fill="none" opacity="100" points="221.0,375.0 227.0,375.0" stroke="#090" stroke-width="1" /><polyline fill="none" opacity="100" points="221.0,379.0 227.0,379.0" stroke="#090" stroke-width="1" /><polyline fill="none" opacity="100" points="221.0,383.0 227.0,383.0" stroke="#090" stroke-width="1" /><polyline fill="none" opacity="100" points="221.0,387.0 227.0,387.0" stroke="#090" stroke-width="1" /><polyline fill="none" opacity="100" points="221.0,391.0 227.0,391.0" stroke="#090" stroke-width="1" /><polyline fill="none" opacity="100" points="221.0,395.0 227.0,395.0" stroke="#090" stroke-width="1" /><polyline fill="none" opacity="100" points="221.0,399.0 227.0,399.0" stroke="#090" stroke-width="1" /><polyline fill="none" opacity="100" points="221.0,403.0 227.0,403.0" stroke="#090" stroke-width="1" /><polyline fill="none" opacity="100" points="221.0,407.0 227.0,407.0" stroke="#090" stroke-width="1" /><polyline fill="none" opacity="100" points="221.0,411.0 227.0,411.0" stroke="#090" stroke-width="1" /><polyline fill="none" opacity="100" points="221.0,415.0 227.0,415.0" stroke="#090" stroke-width="1" /><polyline fill="none" opacity="100" points="221.0,283.0 227.0,283.0" stroke="#F00" stroke-width="1" /><polyline fill="none" opacity="100" points="221.0,287.0 227.0,287.0" stroke="#F00" stroke-width="1" /><polyline fill="none" opacity="100" points="221.0,291.0 227.0,291.0" stroke="#F00" stroke-width="1" /><polyline fill="none" opacity="100" points="221.0,295.0 227.0,295.0" stroke="#F00" stroke-width="1" /><polyline fill="none" opacity="100" points="221.0,299.0 227.0,299.0" stroke="#F00" stroke-width="1" /><polyline fill="none" opacity="100" points="221.0,303.0 227.0,303.0" stroke="#F00" stroke-width="1" /><polyline fill="none" opacity="100" points="221.0,307.0 227.0,307.0" stroke="#F00" stroke-width="1" /><polyline fill="none" opacity="100" points="221.0,311.0 227.0,311.0" stroke="#F00" stroke-width="1" /><polyline fill="none" opacity="100" points="221.0,315.0 227.0,315.0" stroke="#F00" stroke-width="1" /><polyline fill="none" opacity="100" points="221.0,319.0 227.0,319.0" stroke="#F00" stroke-width="1" /><polyline fill="none" opacity="100" points="221.0,323.0 227.0,323.0" stroke="#F00" stroke-width="1" /><polyline fill="none" opacity="100" points="221.0,327.0 227.0,327.0" stroke="#F00" stroke-width="1" /><polygon fill="#FEFBF1" opacity="100" points="1108.0,575.0 1027.0,656.0 1082.0,711.0 1163.0,630.0" stroke="#000" stroke-width="1" /><polygon fill="#FEFBF1" opacity="100" points="280.0,563.0 355.0,488.0 448.0,581.0 373.0,656.0" stroke="#000" stroke-width="1" /><polygon fill="#FEFBF1" opacity="100" points="534.0,729.0 568.0,729.0 568.0,718.0 563.0,718.0 561.0,688.0 541.0,688.0 539.0,719.0 534.0,719.0" stroke="#000" stroke-width="1" /><polygon fill="#FEFBF1" opacity="100" points="547.0,628.0 544.0,620.0 551.0,613.0 558.0,620.0 555.0,628.0 561.0,630.0 565.0,651.0 557.0,654.0 559.0,684.0 544.0,689.0 542.0,669.0 546.0,654.0 537.0,651.0 541.0,630.0" stroke="#000" stroke-width="1" /><polygon fill="#FEFBF1" opacity="100" points="542.0,673.0 530.0,670.0 515.0,663.0 515.0,670.0 526.0,679.0 540.0,680.0 545.0,686.0 551.0,683.0 562.0,681.0 578.0,674.0 581.0,665.0 565.0,670.0 549.0,672.0 555.0,665.0 546.0,662.0" stroke="#000" stroke-width="1" /><polygon fill="#FEFBF1" opacity="100" points="401.0,108.0 448.0,155.0 531.0,72.0 484.0,25.0" stroke="#FEFBF1" stroke-width="1" /><polygon fill="#FEFBF1" opacity="100" points="272.0,141.0 382.0,31.0 460.0,109.0 390.0,179.0 370.0,191.0 350.0,194.0 330.0,191.0 310.0,179.0" stroke="#FEFBF1" stroke-width="1" /><polyline fill="none" opacity="100" points="310.0,179.0 272.0,141.0 382.0,31.0 430.0,79.0 484.0,25.0 531.0,72.0 448.0,155.0 431.0,138.0 390.0,179.0" stroke="#000" stroke-width="1" /><polyline fill="none" opacity="100" points="390.0,179.0 387.5,180.9922 385.0,182.8438 382.5,184.554 380.0,186.125 377.5,187.5613 375.0,188.8555 372.5,190.0054 370.0,191.0 367.5,191.8188 365.0,192.4883 362.5,193.0266 360.0,193.4375 357.5,193.7253 355.0,193.9062 352.5,193.9883 350.0,194.0 347.5,193.9883 345.0,193.9062 342.5,193.7253 340.0,193.4375 337.5,193.0266 335.0,192.4883 332.5,191.8188 330.0,191.0 327.5,190.0054 325.0,188.8555 322.5,187.5613 320.0,186.125 317.5,184.554 315.0,182.8438 312.5,180.9922 310.0,179.0" stroke="#000" stroke-width="1" /><text fill="#FFF" font-family="Arial" font-size="20" font-weight="bold" opacity="100" transform="rotate(-0.0 611.0,200.0) translate(0 20)" x="611.0" y="200.0">А</text><text fill="#FFF" font-family="Arial" font-size="20" font-weight="bold" opacity="100" transform="rotate(-45.0 1293.0,194.0) translate(0 20)" x="1293.0" y="194.0">А</text><text fill="#FFF" font-family="Arial" font-size="20" font-weight="bold" opacity="100" transform="rotate(45.0 945.0,191.0) translate(0 20)" x="945.0" y="191.0">А</text><text fill="#FFF" font-family="Arial" font-size="20" font-weight="bold" opacity="100" transform="rotate(-0.0 1239.0,455.0) translate(0 20)" x="1239.0" y="455.0">А</text><text fill="#FFF" font-family="Arial" font-size="20" font-weight="bold" opacity="100" transform="rotate(-45.0 189.0,22.0) translate(0 20)" x="189.0" y="22.0">А</text><text fill="#FFF" font-family="Arial" font-size="20" font-weight="bold" opacity="100" transform="rotate(56.0 30.0,643.0) translate(0 20)" x="30.0" y="643.0">А</text><text fill="#FFF" font-family="Arial" font-size="20" font-weight="bold" opacity="100" transform="rotate(56.0 99.0,583.0) translate(0 20)" x="99.0" y="583.0">Т</text><text fill="#00AFAF" font-family="Arial" font-size="15" font-weight="normal" opacity="100" x="845.75" y="240.5">ул. Титова</text><text fill="#00AFAF" font-family="Arial" font-size="15" font-weight="normal" opacity="100" x="237.75" y="236.5">ул. Титова</text><text fill="#00AFAF" font-family="Arial" font-size="15" font-weight="normal" opacity="100" transform="rotate(-45.0 1195.0,201.0) translate(0 15)" x="1195.0" y="201.0">проспект Маркса</text><text fill="#00AFAF" font-family="Arial" font-size="15" font-weight="normal" opacity="100" transform="rotate(-45.0 16.0,170.0) translate(0 15)" x="16.0" y="170.0">ул. Блюхера</text><text fill="#00AFAF" font-family="Arial" font-size="15" font-weight="normal" opacity="100" transform="rotate(56.0 53.0,515.0) translate(0 15)" x="53.0" y="515.0">ул. Покрышкина</text><text fill="#00AFAF" font-family="Arial" font-size="15" font-weight="normal" opacity="100" transform="rotate(45.0 959.0,157.0) translate(0 15)" x="959.0" y="157.0">ул. Ватутина</text><text fill="#000" font-family="Arial" font-size="15" font-weight="normal" opacity="100" x="304.75" y="149.5">ТЦ "Фестиваль"</text><text fill="#000" font-family="Arial" font-size="20" font-weight="normal" opacity="100" x="309.0" y="580.0">ТК "Гранит"</text><text fill="#000" font-family="Arila" font-size="15" font-weight="normal" opacity="100" x="1049.75" y="652.5">ГУМ "Россия"</text><text fill="#FFF" font-family="Arial" font-size="20" font-weight="normal" opacity="100" x="413.0" y="249.0">Остановка наземного транспорта "Пл. Маркса"</text><text fill="#FFF" font-family="Arial" font-size="15" font-weight="normal" opacity="100" transform="rotate(56.0 21.0,533.0) translate(0 15)" x="21.0" y="533.0">Остановка "Маг. Кристалл"</text><text fill="#FFF" font-family="Arial" font-size="15" font-weight="normal" opacity="100" transform="rotate(56.0 18.0,577.0) translate(0 15)" x="18.0" y="577.0">Конечная трамвая</text><text fill="#FFF" font-family="Arial" font-size="15" font-weight="normal" opacity="100" transform="rotate(-45.0 1210.0,228.0) translate(0 15)" x="1210.0" y="228.0">Остановка "Ул. Ватутина"</text><text fill="#FFF" font-family="Arial" font-size="20" font-weight="normal" opacity="100" x="467.0" y="753.0">А. И. Покрышкину</text></g></svg>