<?xml version="1.0" encoding="utf-8" ?>
<svg baseProfile="tiny" height="430px" version="1.2" width="610px" xmlns="http://www.w3.org/2000/svg" xmlns:ev="http://www.w3.org/2001/xml-events" xmlns:xlink="http://www.w3.org/1999/xlink"><defs /><g><g transform="rotate(-30.0,305.0,215.0)"><polygon fill="#00009F" opacity="100" points="17.0,168.0 17.0,138.0 467.0,138.0 467.0,168.0" stroke="#000" stroke-width="1" /><polygon fill="#00009F" opacity="100" points="17.0,248.0 17.0,278.0 467.0,278.0 467.0,248.0" stroke="#000" stroke-width="1" /><text fill="#00009F" font-family="Arial" font-size="25" font-weight="bold" opacity="100" transform="rotate(-0.0 159.0,190.0) translate(0 25)" x="159.0" y="190.0">Грушевка</text><text fill="#00009F" font-family="Arial" font-size="20" font-weight="normal" opacity="100" transform="rotate(-0.0 204.0,278.0) translate(0 20)" x="204.0" y="278.0">Институт культуры &gt;&gt;</text><text fill="#00009F" font-family="Arial" font-size="20" font-weight="normal" opacity="100" transform="rotate(-0.0 19.0,114.0) translate(0 20)" x="19.0" y="114.0">&lt;&lt; Михалово</text><polygon fill="#FFF" opacity="0.85" points="397.0,136.0 469.0,136.0 469.0,164.0 420.0,164.0 420.0,252.0 469.0,252.0 469.0,280.0 397.0,280.0" stroke="#FFF" stroke-width="1" /><polyline fill="none" opacity="1.0" points="467.0,164.0 420.0,164.0 420.0,252.0 467.0,252.0" stroke="#000" stroke-width="1" /><polyline fill="none" opacity="1.0" points="309.0,94.0 397.0,94.0 397.0,323.0 309.0,323.0" stroke="#000" stroke-width="1" /><polyline fill="none" opacity="1.0" points="309.0,76.0 470.0,76.0" stroke="#000" stroke-width="1" /><polyline fill="none" opacity="1.0" points="470.0,94.0 420.0,94.0 420.0,128.0 545.0,128.0 545.0,292.0 420.0,292.0 420.0,323.0 470.0,323.0" stroke="#000" stroke-width="1" /><polyline fill="none" opacity="1.0" points="470.0,341.0 309.0,341.0" stroke="#000" stroke-width="1" /><polyline fill="none" opacity="1.0" points="469.0,178.0 469.0,238.0" stroke="#000" stroke-width="1" /><polyline fill="none" opacity="1.0" points="473.0,178.0 473.0,238.0" stroke="#000" stroke-width="1" /><polyline fill="none" opacity="1.0" points="477.0,178.0 477.0,238.0" stroke="#000" stroke-width="1" /><polyline fill="none" opacity="1.0" points="481.0,178.0 481.0,238.0" stroke="#000" stroke-width="1" /><polyline fill="none" opacity="1.0" points="485.0,178.0 485.0,238.0" stroke="#000" stroke-width="1" /><polyline fill="none" opacity="1.0" points="489.0,178.0 489.0,238.0" stroke="#000" stroke-width="1" /><polyline fill="none" opacity="1.0" points="493.0,178.0 493.0,238.0" stroke="#000" stroke-width="1" /><polyline fill="none" opacity="1.0" points="497.0,178.0 497.0,238.0" stroke="#000" stroke-width="1" /><polyline fill="none" opacity="1.0" points="501.0,178.0 501.0,238.0" stroke="#000" stroke-width="1" /><polyline fill="none" opacity="1.0" points="505.0,178.0 505.0,238.0" stroke="#000" stroke-width="1" /><polyline fill="none" opacity="1.0" points="509.0,178.0 509.0,238.0" stroke="#000" stroke-width="1" /><polyline fill="none" opacity="1.0" points="513.0,178.0 513.0,238.0" stroke="#000" stroke-width="1" /><polyline fill="none" opacity="1.0" points="312.0,94.0 312.0,76.0" stroke="#000" stroke-width="1" /><polyline fill="none" opacity="1.0" points="316.0,94.0 316.0,76.0" stroke="#000" stroke-width="1" /><polyline fill="none" opacity="1.0" points="320.0,94.0 320.0,76.0" stroke="#000" stroke-width="1" /><polyline fill="none" opacity="1.0" points="324.0,94.0 324.0,76.0" stroke="#000" stroke-width="1" /><polyline fill="none" opacity="1.0" points="328.0,94.0 328.0,76.0" stroke="#000" stroke-width="1" /><polyline fill="none" opacity="1.0" points="332.0,94.0 332.0,76.0" stroke="#000" stroke-width="1" /><polyline fill="none" opacity="1.0" points="336.0,94.0 336.0,76.0" stroke="#000" stroke-width="1" /><polyline fill="none" opacity="1.0" points="340.0,94.0 340.0,76.0" stroke="#000" stroke-width="1" /><polyline fill="none" opacity="1.0" points="344.0,94.0 344.0,76.0" stroke="#000" stroke-width="1" /><polyline fill="none" opacity="1.0" points="348.0,94.0 348.0,76.0" stroke="#000" stroke-width="1" /><polyline fill="none" opacity="1.0" points="352.0,94.0 352.0,76.0" stroke="#000" stroke-width="1" /><polyline fill="none" opacity="1.0" points="356.0,94.0 356.0,76.0" stroke="#000" stroke-width="1" /><polyline fill="none" opacity="1.0" points="468.0,94.0 468.0,76.0" stroke="#000" stroke-width="1" /><polyline fill="none" opacity="1.0" points="464.0,94.0 464.0,76.0" stroke="#000" stroke-width="1" /><polyline fill="none" opacity="1.0" points="460.0,94.0 460.0,76.0" stroke="#000" stroke-width="1" /><polyline fill="none" opacity="1.0" points="456.0,94.0 456.0,76.0" stroke="#000" stroke-width="1" /><polyline fill="none" opacity="1.0" points="452.0,94.0 452.0,76.0" stroke="#000" stroke-width="1" /><polyline fill="none" opacity="1.0" points="448.0,94.0 448.0,76.0" stroke="#000" stroke-width="1" /><polyline fill="none" opacity="1.0" points="444.0,94.0 444.0,76.0" stroke="#000" stroke-width="1" /><polyline fill="none" opacity="1.0" points="440.0,94.0 440.0,76.0" stroke="#000" stroke-width="1" /><polyline fill="none" opacity="1.0" points="436.0,94.0 436.0,76.0" stroke="#000" stroke-width="1" /><polyline fill="none" opacity="1.0" points="432.0,94.0 432.0,76.0" stroke="#000" stroke-width="1" /><polyline fill="none" opacity="1.0" points="428.0,94.0 428.0,76.0" stroke="#000" stroke-width="1" /><polyline fill="none" opacity="1.0" points="424.0,94.0 424.0,76.0" stroke="#000" stroke-width="1" /><polyline fill="none" opacity="1.0" points="312.0,323.0 312.0,341.0" stroke="#000" stroke-width="1" /><polyline fill="none" opacity="1.0" points="316.0,323.0 316.0,341.0" stroke="#000" stroke-width="1" /><polyline fill="none" opacity="1.0" points="320.0,323.0 320.0,341.0" stroke="#000" stroke-width="1" /><polyline fill="none" opacity="1.0" points="324.0,323.0 324.0,341.0" stroke="#000" stroke-width="1" /><polyline fill="none" opacity="1.0" points="328.0,323.0 328.0,341.0" stroke="#000" stroke-width="1" /><polyline fill="none" opacity="1.0" points="332.0,323.0 332.0,341.0" stroke="#000" stroke-width="1" /><polyline fill="none" opacity="1.0" points="336.0,323.0 336.0,341.0" stroke="#000" stroke-width="1" /><polyline fill="none" opacity="1.0" points="340.0,323.0 340.0,341.0" stroke="#000" stroke-width="1" /><polyline fill="none" opacity="1.0" points="344.0,323.0 344.0,341.0" stroke="#000" stroke-width="1" /><polyline fill="none" opacity="1.0" points="348.0,323.0 348.0,341.0" stroke="#000" stroke-width="1" /><polyline fill="none" opacity="1.0" points="352.0,323.0 352.0,341.0" stroke="#000" stroke-width="1" /><polyline fill="none" opacity="1.0" points="356.0,323.0 356.0,341.0" stroke="#000" stroke-width="1" /><polyline fill="none" opacity="1.0" points="468.0,323.0 468.0,341.0" stroke="#000" stroke-width="1" /><polyline fill="none" opacity="1.0" points="464.0,323.0 464.0,341.0" stroke="#000" stroke-width="1" /><polyline fill="none" opacity="1.0" points="460.0,323.0 460.0,341.0" stroke="#000" stroke-width="1" /><polyline fill="none" opacity="1.0" points="456.0,323.0 456.0,341.0" stroke="#000" stroke-width="1" /><polyline fill="none" opacity="1.0" points="452.0,323.0 452.0,341.0" stroke="#000" stroke-width="1" /><polyline fill="none" opacity="1.0" points="448.0,323.0 448.0,341.0" stroke="#000" stroke-width="1" /><polyline fill="none" opacity="1.0" points="444.0,323.0 444.0,341.0" stroke="#000" stroke-width="1" /><polyline fill="none" opacity="1.0" points="440.0,323.0 440.0,341.0" stroke="#000" stroke-width="1" /><polyline fill="none" opacity="1.0" points="436.0,323.0 436.0,341.0" stroke="#000" stroke-width="1" /><polyline fill="none" opacity="1.0" points="432.0,323.0 432.0,341.0" stroke="#000" stroke-width="1" /><polyline fill="none" opacity="1.0" points="428.0,323.0 428.0,341.0" stroke="#000" stroke-width="1" /><polyline fill="none" opacity="1.0" points="424.0,323.0 424.0,341.0" stroke="#000" stroke-width="1" /><polygon fill="#D0D0D0" opacity="1.0" points="467.0,164.0 515.0,164.0 515.0,178.0 467.0,178.0" stroke="#000" stroke-width="1" /><polygon fill="#D0D0D0" opacity="1.0" points="467.0,238.0 515.0,238.0 515.0,252.0 467.0,252.0" stroke="#000" stroke-width="1" /><polyline fill="none" opacity="1.0" points="17.0,248.0 17.0,230.0 33.0,230.0 33.0,186.0 17.0,186.0 17.0,168.0" stroke="#000" stroke-width="1" /><text fill="#00AFAF" font-family="Arial" font-size="15" font-weight="normal" opacity="1.0" transform="rotate(-0.0 559.0,188.0) translate(0 15)" x="559.0" y="188.0">проспект\nДзержинского</text><text fill="#00AFAF" font-family="Arial" font-size="15" font-weight="normal" opacity="1.0" transform="rotate(90.0 429.0,367.0) translate(0 15)" x="429.0" y="367.0">улица Щорса</text></g></g></svg>