<?xml version="1.0" encoding="utf-8" ?>
<svg baseProfile="tiny" height="620px" version="1.2" width="480px" xmlns="http://www.w3.org/2000/svg" xmlns:ev="http://www.w3.org/2001/xml-events" xmlns:xlink="http://www.w3.org/1999/xlink"><defs /><g><g transform="rotate(-70.0,240.0,310.0)"><polygon fill="#00009F" opacity="100" points="25.0,296.0 25.0,266.0 475.0,266.0 475.0,296.0" stroke="#000" stroke-width="1" /><polygon fill="#00009F" opacity="100" points="25.0,376.0 25.0,406.0 475.0,406.0 475.0,376.0" stroke="#000" stroke-width="1" /><text fill="#00009F" font-family="Arial" font-size="25" font-weight="bold" opacity="100" transform="rotate(-0.0 293.0,227.0) translate(0 25)" x="293.0" y="227.0">Михалово</text><text fill="#00009F" font-family="Arial" font-size="20" font-weight="normal" opacity="100" transform="rotate(-0.0 365.0,406.0) translate(0 20)" x="365.0" y="406.0">Грушевка &gt;&gt;</text><text fill="#00009F" font-family="Arial" font-size="20" font-weight="normal" opacity="100" transform="rotate(-0.0 -29.0,241.0) translate(0 20)" x="-29.0" y="241.0">&lt;&lt; Петровщина</text><polygon fill="#FFF" opacity="0.85" points="289.0,374.0 289.0,396.0 139.0,396.0 139.0,408.0 115.0,408.0 115.0,374.0" stroke="#FFF" stroke-width="1" /><polygon fill="#FFF" opacity="0.85" points="289.0,298.0 289.0,276.0 139.0,276.0 139.0,264.0 115.0,264.0 115.0,298.0" stroke="#FFF" stroke-width="1" /><polyline fill="none" opacity="1.0" points="289.0,361.0 284.0,361.0 284.0,311.0 289.0,311.0" stroke="#D0D0D0" stroke-width="1" /><polyline fill="none" opacity="1.0" points="215.0,361.0 220.0,361.0 220.0,311.0 215.0,311.0" stroke="#D0D0D0" stroke-width="1" /><polyline fill="none" opacity="1.0" points="264.0,474.0 65.0,474.0" stroke="#000" stroke-width="1" /><polyline fill="none" opacity="1.0" points="65.0,456.0 115.0,456.0 115.0,227.0 65.0,227.0" stroke="#000" stroke-width="1" /><polyline fill="none" opacity="1.0" points="65.0,209.0 264.0,209.0" stroke="#000" stroke-width="1" /><polyline fill="none" opacity="1.0" points="165.0,311.0 215.0,311.0 215.0,305.0 139.0,305.0 139.0,367.0 215.0,367.0 215.0,361.0 165.0,361.0" stroke="#000" stroke-width="1" /><polyline fill="none" opacity="1.0" points="264.0,456.0 139.0,456.0 139.0,396.0 289.0,396.0 289.0,361.0 344.0,361.0" stroke="#000" stroke-width="1" /><polyline fill="none" opacity="1.0" points="264.0,227.0 139.0,227.0 139.0,276.0 289.0,276.0 289.0,311.0 344.0,311.0" stroke="#000" stroke-width="1" /><polyline fill="none" opacity="1.0" points="167.0,361.0 167.0,311.0" stroke="#000" stroke-width="1" /><polyline fill="none" opacity="1.0" points="171.0,361.0 171.0,311.0" stroke="#000" stroke-width="1" /><polyline fill="none" opacity="1.0" points="175.0,361.0 175.0,311.0" stroke="#000" stroke-width="1" /><polyline fill="none" opacity="1.0" points="179.0,361.0 179.0,311.0" stroke="#000" stroke-width="1" /><polyline fill="none" opacity="1.0" points="183.0,361.0 183.0,311.0" stroke="#000" stroke-width="1" /><polyline fill="none" opacity="1.0" points="187.0,361.0 187.0,311.0" stroke="#000" stroke-width="1" /><polyline fill="none" opacity="1.0" points="191.0,361.0 191.0,311.0" stroke="#000" stroke-width="1" /><polyline fill="none" opacity="1.0" points="195.0,361.0 195.0,311.0" stroke="#000" stroke-width="1" /><polyline fill="none" opacity="1.0" points="199.0,361.0 199.0,311.0" stroke="#000" stroke-width="1" /><polyline fill="none" opacity="1.0" points="203.0,361.0 203.0,311.0" stroke="#000" stroke-width="1" /><polyline fill="none" opacity="1.0" points="207.0,361.0 207.0,311.0" stroke="#000" stroke-width="1" /><polyline fill="none" opacity="1.0" points="211.0,361.0 211.0,311.0" stroke="#000" stroke-width="1" /><polyline fill="none" opacity="1.0" points="298.0,361.0 298.0,311.0" stroke="#000" stroke-width="1" /><polyline fill="none" opacity="1.0" points="302.0,361.0 302.0,311.0" stroke="#000" stroke-width="1" /><polyline fill="none" opacity="1.0" points="306.0,361.0 306.0,311.0" stroke="#000" stroke-width="1" /><polyline fill="none" opacity="1.0" points="310.0,361.0 310.0,311.0" stroke="#000" stroke-width="1" /><polyline fill="none" opacity="1.0" points="314.0,361.0 314.0,311.0" stroke="#000" stroke-width="1" /><polyline fill="none" opacity="1.0" points="318.0,361.0 318.0,311.0" stroke="#000" stroke-width="1" /><polyline fill="none" opacity="1.0" points="322.0,361.0 322.0,311.0" stroke="#000" stroke-width="1" /><polyline fill="none" opacity="1.0" points="326.0,361.0 326.0,311.0" stroke="#000" stroke-width="1" /><polyline fill="none" opacity="1.0" points="330.0,361.0 330.0,311.0" stroke="#000" stroke-width="1" /><polyline fill="none" opacity="1.0" points="334.0,361.0 334.0,311.0" stroke="#000" stroke-width="1" /><polyline fill="none" opacity="1.0" points="338.0,361.0 338.0,311.0" stroke="#000" stroke-width="1" /><polyline fill="none" opacity="1.0" points="342.0,361.0 342.0,311.0" stroke="#000" stroke-width="1" /><polyline fill="none" opacity="1.0" points="197.0,367.0 197.0,396.0" stroke="#000" stroke-width="1" /><polyline fill="none" opacity="1.0" points="201.0,367.0 201.0,396.0" stroke="#000" stroke-width="1" /><polyline fill="none" opacity="1.0" points="205.0,367.0 205.0,396.0" stroke="#000" stroke-width="1" /><polyline fill="none" opacity="1.0" points="209.0,367.0 209.0,396.0" stroke="#000" stroke-width="1" /><polyline fill="none" opacity="1.0" points="197.0,305.0 197.0,276.0" stroke="#000" stroke-width="1" /><polyline fill="none" opacity="1.0" points="201.0,305.0 201.0,276.0" stroke="#000" stroke-width="1" /><polyline fill="none" opacity="1.0" points="205.0,305.0 205.0,276.0" stroke="#000" stroke-width="1" /><polyline fill="none" opacity="1.0" points="209.0,305.0 209.0,276.0" stroke="#000" stroke-width="1" /><polyline fill="none" opacity="1.0" points="262.0,456.0 262.0,474.0" stroke="#000" stroke-width="1" /><polyline fill="none" opacity="1.0" points="258.0,456.0 258.0,474.0" stroke="#000" stroke-width="1" /><polyline fill="none" opacity="1.0" points="254.0,456.0 254.0,474.0" stroke="#000" stroke-width="1" /><polyline fill="none" opacity="1.0" points="250.0,456.0 250.0,474.0" stroke="#000" stroke-width="1" /><polyline fill="none" opacity="1.0" points="246.0,456.0 246.0,474.0" stroke="#000" stroke-width="1" /><polyline fill="none" opacity="1.0" points="242.0,456.0 242.0,474.0" stroke="#000" stroke-width="1" /><polyline fill="none" opacity="1.0" points="238.0,456.0 238.0,474.0" stroke="#000" stroke-width="1" /><polyline fill="none" opacity="1.0" points="234.0,456.0 234.0,474.0" stroke="#000" stroke-width="1" /><polyline fill="none" opacity="1.0" points="230.0,456.0 230.0,474.0" stroke="#000" stroke-width="1" /><polyline fill="none" opacity="1.0" points="226.0,456.0 226.0,474.0" stroke="#000" stroke-width="1" /><polyline fill="none" opacity="1.0" points="222.0,456.0 222.0,474.0" stroke="#000" stroke-width="1" /><polyline fill="none" opacity="1.0" points="218.0,456.0 218.0,474.0" stroke="#000" stroke-width="1" /><polyline fill="none" opacity="1.0" points="67.0,456.0 67.0,474.0" stroke="#000" stroke-width="1" /><polyline fill="none" opacity="1.0" points="71.0,456.0 71.0,474.0" stroke="#000" stroke-width="1" /><polyline fill="none" opacity="1.0" points="75.0,456.0 75.0,474.0" stroke="#000" stroke-width="1" /><polyline fill="none" opacity="1.0" points="79.0,456.0 79.0,474.0" stroke="#000" stroke-width="1" /><polyline fill="none" opacity="1.0" points="83.0,456.0 83.0,474.0" stroke="#000" stroke-width="1" /><polyline fill="none" opacity="1.0" points="87.0,456.0 87.0,474.0" stroke="#000" stroke-width="1" /><polyline fill="none" opacity="1.0" points="91.0,456.0 91.0,474.0" stroke="#000" stroke-width="1" /><polyline fill="none" opacity="1.0" points="95.0,456.0 95.0,474.0" stroke="#000" stroke-width="1" /><polyline fill="none" opacity="1.0" points="99.0,456.0 99.0,474.0" stroke="#000" stroke-width="1" /><polyline fill="none" opacity="1.0" points="103.0,456.0 103.0,474.0" stroke="#000" stroke-width="1" /><polyline fill="none" opacity="1.0" points="107.0,456.0 107.0,474.0" stroke="#000" stroke-width="1" /><polyline fill="none" opacity="1.0" points="111.0,456.0 111.0,474.0" stroke="#000" stroke-width="1" /><polyline fill="none" opacity="1.0" points="262.0,227.0 262.0,209.0" stroke="#000" stroke-width="1" /><polyline fill="none" opacity="1.0" points="258.0,227.0 258.0,209.0" stroke="#000" stroke-width="1" /><polyline fill="none" opacity="1.0" points="254.0,227.0 254.0,209.0" stroke="#000" stroke-width="1" /><polyline fill="none" opacity="1.0" points="250.0,227.0 250.0,209.0" stroke="#000" stroke-width="1" /><polyline fill="none" opacity="1.0" points="246.0,227.0 246.0,209.0" stroke="#000" stroke-width="1" /><polyline fill="none" opacity="1.0" points="242.0,227.0 242.0,209.0" stroke="#000" stroke-width="1" /><polyline fill="none" opacity="1.0" points="238.0,227.0 238.0,209.0" stroke="#000" stroke-width="1" /><polyline fill="none" opacity="1.0" points="234.0,227.0 234.0,209.0" stroke="#000" stroke-width="1" /><polyline fill="none" opacity="1.0" points="230.0,227.0 230.0,209.0" stroke="#000" stroke-width="1" /><polyline fill="none" opacity="1.0" points="226.0,227.0 226.0,209.0" stroke="#000" stroke-width="1" /><polyline fill="none" opacity="1.0" points="222.0,227.0 222.0,209.0" stroke="#000" stroke-width="1" /><polyline fill="none" opacity="1.0" points="218.0,227.0 218.0,209.0" stroke="#000" stroke-width="1" /><polyline fill="none" opacity="1.0" points="67.0,227.0 67.0,209.0" stroke="#000" stroke-width="1" /><polyline fill="none" opacity="1.0" points="71.0,227.0 71.0,209.0" stroke="#000" stroke-width="1" /><polyline fill="none" opacity="1.0" points="75.0,227.0 75.0,209.0" stroke="#000" stroke-width="1" /><polyline fill="none" opacity="1.0" points="79.0,227.0 79.0,209.0" stroke="#000" stroke-width="1" /><polyline fill="none" opacity="1.0" points="83.0,227.0 83.0,209.0" stroke="#000" stroke-width="1" /><polyline fill="none" opacity="1.0" points="87.0,227.0 87.0,209.0" stroke="#000" stroke-width="1" /><polyline fill="none" opacity="1.0" points="91.0,227.0 91.0,209.0" stroke="#000" stroke-width="1" /><polyline fill="none" opacity="1.0" points="95.0,227.0 95.0,209.0" stroke="#000" stroke-width="1" /><polyline fill="none" opacity="1.0" points="99.0,227.0 99.0,209.0" stroke="#000" stroke-width="1" /><polyline fill="none" opacity="1.0" points="103.0,227.0 103.0,209.0" stroke="#000" stroke-width="1" /><polyline fill="none" opacity="1.0" points="107.0,227.0 107.0,209.0" stroke="#000" stroke-width="1" /><polyline fill="none" opacity="1.0" points="111.0,227.0 111.0,209.0" stroke="#000" stroke-width="1" /><polygon fill="#D0EFFF" opacity="1.0" points="243.0,344.0 243.0,326.0 261.0,326.0 261.0,344.0" stroke="#000" stroke-width="1" /><text fill="#000" font-family="Arial" font-size="7" font-weight="normal" opacity="1.0" transform="rotate(-0.0 244.0,330.0) translate(0 7)" x="244.0" y="330.0">лифт</text><polyline fill="none" opacity="1.0" points="178.0,394.0 184.0,394.0" stroke="#F00" stroke-width="1" /><polyline fill="none" opacity="1.0" points="178.0,390.0 184.0,390.0" stroke="#F00" stroke-width="1" /><polyline fill="none" opacity="1.0" points="178.0,386.0 184.0,386.0" stroke="#F00" stroke-width="1" /><polyline fill="none" opacity="1.0" points="178.0,382.0 184.0,382.0" stroke="#F00" stroke-width="1" /><polyline fill="none" opacity="1.0" points="178.0,378.0 184.0,378.0" stroke="#F00" stroke-width="1" /><polyline fill="none" opacity="1.0" points="178.0,374.0 184.0,374.0" stroke="#F00" stroke-width="1" /><polyline fill="none" opacity="1.0" points="178.0,370.0 184.0,370.0" stroke="#F00" stroke-width="1" /><polyline fill="none" opacity="1.0" points="178.0,278.0 183.0,278.0" stroke="#090" stroke-width="1" /><polyline fill="none" opacity="1.0" points="178.0,282.0 183.0,282.0" stroke="#090" stroke-width="1" /><polyline fill="none" opacity="1.0" points="178.0,286.0 183.0,286.0" stroke="#090" stroke-width="1" /><polyline fill="none" opacity="1.0" points="178.0,290.0 183.0,290.0" stroke="#090" stroke-width="1" /><polyline fill="none" opacity="1.0" points="178.0,294.0 183.0,294.0" stroke="#090" stroke-width="1" /><polyline fill="none" opacity="1.0" points="178.0,298.0 183.0,298.0" stroke="#090" stroke-width="1" /><polyline fill="none" opacity="1.0" points="178.0,302.0 183.0,302.0" stroke="#090" stroke-width="1" /><polyline fill="none" opacity="1.0" points="475.0,296.0 475.0,311.0 425.0,311.0 425.0,361.0 475.0,361.0 475.0,376.0" stroke="#000" stroke-width="1" /><polyline fill="none" opacity="1.0" points="25.0,376.0 25.0,361.0 75.0,361.0 75.0,311.0 25.0,311.0 25.0,296.0" stroke="#000" stroke-width="1" /><text fill="#00AFAF" font-family="Arial" font-size="15" font-weight="normal" opacity="1.0" transform="rotate(-0.0 -72.0,313.0) translate(0 15)" x="-72.0" y="313.0">проспект\nДзержинского</text><text fill="#00AFAF" font-family="Arial" font-size="15" font-weight="normal" opacity="1.0" transform="rotate(-0.0 489.0,321.0) translate(0 15)" x="489.0" y="321.0">проспект\nДзержинского</text><text fill="#00AFAF" font-family="Arial" font-size="15" font-weight="normal" opacity="1.0" transform="rotate(90.0 181.0,88.0) translate(0 15)" x="181.0" y="88.0">улица Гурского</text><text fill="#00AFAF" font-family="Arial" font-size="15" font-weight="normal" opacity="1.0" transform="rotate(90.0 171.0,487.0) translate(0 15)" x="171.0" y="487.0">Уманская улица</text></g></g></svg>