<?xml version="1.0" encoding="utf-8" ?>
<svg baseProfile="tiny" height="560px" version="1.2" width="580px" xmlns="http://www.w3.org/2000/svg" xmlns:ev="http://www.w3.org/2001/xml-events" xmlns:xlink="http://www.w3.org/1999/xlink"><defs /><g><g transform="rotate(50.0,290.0,280.0)"><polygon fill="#F5F5F5" opacity="100" points="342.0,-55.0 342.0,525.0 430.0,549.0 402.0,582.0 342.0,566.0 342.0,653.0 318.0,682.0 302.0,669.0 302.0,556.0 106.0,504.0 32.0,442.0 302.0,514.0 302.0,-89.0" stroke="#F5F5F5" stroke-width="1" /><polygon fill="#BF0050" opacity="100" points="88.0,204.0 88.0,174.0 538.0,174.0 538.0,204.0" stroke="#000" stroke-width="1" /><polygon fill="#BF0050" opacity="100" points="88.0,284.0 88.0,314.0 538.0,314.0 538.0,284.0" stroke="#000" stroke-width="1" /><polyline fill="none" opacity="100" points="88.0,204.0 88.0,221.0 80.0,221.0" stroke="#000" stroke-width="1" /><polyline fill="none" opacity="100" points="80.0,267.0 88.0,267.0 88.0,284.0" stroke="#000" stroke-width="1" /><polyline fill="none" opacity="100" points="538.0,204.0 538.0,221.0 546.0,221.0" stroke="#000" stroke-width="1" /><polyline fill="none" opacity="100" points="538.0,284.0 538.0,267.0 546.0,267.0" stroke="#000" stroke-width="1" /><polyline fill="none" opacity="100" points="83.0,221.0 83.0,267.0" stroke="#000" stroke-width="1" /><polyline fill="none" opacity="100" points="79.0,221.0 79.0,267.0" stroke="#000" stroke-width="1" /><polyline fill="none" opacity="100" points="75.0,221.0 75.0,267.0" stroke="#000" stroke-width="1" /><polyline fill="none" opacity="100" points="71.0,221.0 71.0,267.0" stroke="#000" stroke-width="1" /><polyline fill="none" opacity="100" points="67.0,221.0 67.0,267.0" stroke="#000" stroke-width="1" /><polyline fill="none" opacity="100" points="63.0,221.0 63.0,267.0" stroke="#000" stroke-width="1" /><polyline fill="none" opacity="100" points="59.0,221.0 59.0,267.0" stroke="#000" stroke-width="1" /><polyline fill="none" opacity="100" points="55.0,221.0 55.0,267.0" stroke="#000" stroke-width="1" /><polyline fill="none" opacity="100" points="51.0,221.0 51.0,267.0" stroke="#000" stroke-width="1" /><polyline fill="none" opacity="100" points="47.0,221.0 47.0,267.0" stroke="#000" stroke-width="1" /><polyline fill="none" opacity="100" points="43.0,221.0 43.0,267.0" stroke="#000" stroke-width="1" /><polyline fill="none" opacity="100" points="39.0,221.0 39.0,267.0" stroke="#000" stroke-width="1" /><polyline fill="none" opacity="100" points="543.0,267.0 543.0,221.0" stroke="#000" stroke-width="1" /><polyline fill="none" opacity="100" points="547.0,267.0 547.0,221.0" stroke="#000" stroke-width="1" /><polyline fill="none" opacity="100" points="551.0,267.0 551.0,221.0" stroke="#000" stroke-width="1" /><polyline fill="none" opacity="100" points="555.0,267.0 555.0,221.0" stroke="#000" stroke-width="1" /><polyline fill="none" opacity="100" points="559.0,267.0 559.0,221.0" stroke="#000" stroke-width="1" /><polyline fill="none" opacity="100" points="563.0,267.0 563.0,221.0" stroke="#000" stroke-width="1" /><polyline fill="none" opacity="100" points="567.0,267.0 567.0,221.0" stroke="#000" stroke-width="1" /><polyline fill="none" opacity="100" points="571.0,267.0 571.0,221.0" stroke="#000" stroke-width="1" /><polyline fill="none" opacity="100" points="575.0,267.0 575.0,221.0" stroke="#000" stroke-width="1" /><polyline fill="none" opacity="100" points="579.0,267.0 579.0,221.0" stroke="#000" stroke-width="1" /><polyline fill="none" opacity="100" points="583.0,267.0 583.0,221.0" stroke="#000" stroke-width="1" /><polyline fill="none" opacity="100" points="587.0,267.0 587.0,221.0" stroke="#000" stroke-width="1" /><polygon fill="#FFF" opacity="0.85" points="469.0,192.0 546.0,192.0 546.0,296.0 470.0,296.0 470.0,316.0 422.0,316.0 422.0,231.0 469.0,231.0" stroke="#FFF" stroke-width="1" /><polygon fill="#FFF" opacity="0.85" points="80.0,192.0 156.0,192.0 156.0,235.0 204.0,235.0 204.0,315.0 156.0,315.0 156.0,296.0 80.0,296.0" stroke="#FFF" stroke-width="1" /><polyline fill="none" opacity="1.0" points="438.0,448.0 438.0,376.0" stroke="#000" stroke-width="1" /><polyline fill="none" opacity="1.0" points="204.0,340.0 422.0,340.0 422.0,231.0 469.0,231.0 469.0,192.0 613.0,192.0 613.0,296.0 470.0,296.0 470.0,340.0 502.0,340.0 502.0,422.0 456.0,422.0 456.0,448.0" stroke="#000" stroke-width="1" /><polyline fill="none" opacity="1.0" points="456.0,446.0 438.0,446.0" stroke="#000" stroke-width="1" /><polyline fill="none" opacity="1.0" points="456.0,442.0 438.0,442.0" stroke="#000" stroke-width="1" /><polyline fill="none" opacity="1.0" points="456.0,438.0 438.0,438.0" stroke="#000" stroke-width="1" /><polyline fill="none" opacity="1.0" points="456.0,434.0 438.0,434.0" stroke="#000" stroke-width="1" /><polyline fill="none" opacity="1.0" points="456.0,430.0 438.0,430.0" stroke="#000" stroke-width="1" /><polyline fill="none" opacity="1.0" points="456.0,426.0 438.0,426.0" stroke="#000" stroke-width="1" /><polyline fill="none" opacity="1.0" points="456.0,378.0 438.0,378.0" stroke="#000" stroke-width="1" /><polyline fill="none" opacity="1.0" points="456.0,382.0 438.0,382.0" stroke="#000" stroke-width="1" /><polyline fill="none" opacity="1.0" points="456.0,386.0 438.0,386.0" stroke="#000" stroke-width="1" /><polyline fill="none" opacity="1.0" points="456.0,390.0 438.0,390.0" stroke="#000" stroke-width="1" /><polyline fill="none" opacity="1.0" points="456.0,394.0 438.0,394.0" stroke="#000" stroke-width="1" /><polyline fill="none" opacity="1.0" points="456.0,398.0 438.0,398.0" stroke="#000" stroke-width="1" /><polyline fill="none" opacity="1.0" points="458.0,402.0 458.0,422.0" stroke="#000" stroke-width="1" /><polyline fill="none" opacity="1.0" points="462.0,402.0 462.0,422.0" stroke="#000" stroke-width="1" /><polyline fill="none" opacity="1.0" points="466.0,402.0 466.0,422.0" stroke="#000" stroke-width="1" /><polyline fill="none" opacity="1.0" points="470.0,402.0 470.0,422.0" stroke="#000" stroke-width="1" /><polyline fill="none" opacity="1.0" points="474.0,402.0 474.0,422.0" stroke="#000" stroke-width="1" /><polyline fill="none" opacity="1.0" points="478.0,402.0 478.0,422.0" stroke="#000" stroke-width="1" /><polygon fill="#D0D0D0" opacity="1.0" points="589.0,218.0 589.0,221.0 549.0,221.0 549.0,267.0 589.0,267.0 589.0,270.0 546.0,270.0 546.0,218.0" stroke="#000" stroke-width="1" /><polyline fill="none" opacity="1.0" points="546.0,244.0 495.0,244.0 495.0,263.0 449.0,263.0 449.0,296.0" stroke="#000" stroke-width="0.5" /><polyline fill="none" opacity="1.0" points="516.0,243.0 511.0,243.0" stroke="#090" stroke-width="1" /><polyline fill="none" opacity="1.0" points="516.0,239.0 511.0,239.0" stroke="#090" stroke-width="1" /><polyline fill="none" opacity="1.0" points="516.0,235.0 511.0,235.0" stroke="#090" stroke-width="1" /><polyline fill="none" opacity="1.0" points="516.0,231.0 511.0,231.0" stroke="#090" stroke-width="1" /><polyline fill="none" opacity="1.0" points="516.0,227.0 511.0,227.0" stroke="#090" stroke-width="1" /><polyline fill="none" opacity="1.0" points="516.0,223.0 511.0,223.0" stroke="#090" stroke-width="1" /><polyline fill="none" opacity="1.0" points="516.0,219.0 511.0,219.0" stroke="#090" stroke-width="1" /><polyline fill="none" opacity="1.0" points="516.0,215.0 511.0,215.0" stroke="#090" stroke-width="1" /><polyline fill="none" opacity="1.0" points="516.0,211.0 511.0,211.0" stroke="#090" stroke-width="1" /><polyline fill="none" opacity="1.0" points="516.0,207.0 511.0,207.0" stroke="#090" stroke-width="1" /><polyline fill="none" opacity="1.0" points="516.0,203.0 511.0,203.0" stroke="#090" stroke-width="1" /><polyline fill="none" opacity="1.0" points="516.0,199.0 511.0,199.0" stroke="#090" stroke-width="1" /><polyline fill="none" opacity="1.0" points="516.0,195.0 511.0,195.0" stroke="#090" stroke-width="1" /><polyline fill="none" opacity="1.0" points="516.0,245.0 511.0,245.0" stroke="#F00" stroke-width="1" /><polyline fill="none" opacity="1.0" points="516.0,249.0 511.0,249.0" stroke="#F00" stroke-width="1" /><polyline fill="none" opacity="1.0" points="516.0,253.0 511.0,253.0" stroke="#F00" stroke-width="1" /><polyline fill="none" opacity="1.0" points="516.0,257.0 511.0,257.0" stroke="#F00" stroke-width="1" /><polyline fill="none" opacity="1.0" points="516.0,261.0 511.0,261.0" stroke="#F00" stroke-width="1" /><polyline fill="none" opacity="1.0" points="516.0,265.0 511.0,265.0" stroke="#F00" stroke-width="1" /><polyline fill="none" opacity="1.0" points="516.0,269.0 511.0,269.0" stroke="#F00" stroke-width="1" /><polyline fill="none" opacity="1.0" points="516.0,273.0 511.0,273.0" stroke="#F00" stroke-width="1" /><polyline fill="none" opacity="1.0" points="516.0,277.0 511.0,277.0" stroke="#F00" stroke-width="1" /><polyline fill="none" opacity="1.0" points="516.0,281.0 511.0,281.0" stroke="#F00" stroke-width="1" /><polyline fill="none" opacity="1.0" points="516.0,285.0 511.0,285.0" stroke="#F00" stroke-width="1" /><polyline fill="none" opacity="1.0" points="516.0,289.0 511.0,289.0" stroke="#F00" stroke-width="1" /><polyline fill="none" opacity="1.0" points="516.0,293.0 511.0,293.0" stroke="#F00" stroke-width="1" /><polyline fill="none" opacity="1.0" points="577.0,253.0 600.0,253.0 600.0,282.0 578.0,282.0" stroke="#F00" stroke-width="1" /><polygon fill="#F00" opacity="1.0" points="584.3751,280.2918 578.0,282.0 584.3751,283.7082" stroke="#F00" stroke-width="1" /><polyline fill="none" opacity="1.0" points="459.0,281.0 459.0,301.0" stroke="#F00" stroke-width="1" /><polygon fill="#F00" opacity="1.0" points="457.4471,295.2044 459.0,301.0 460.5529,295.2044" stroke="#F00" stroke-width="1" /><polyline fill="none" opacity="1.0" points="577.0,206.0 600.0,206.0 600.0,236.0 577.0,236.0" stroke="#090" stroke-width="1" /><polygon fill="#090" opacity="1.0" points="583.6649,234.2141 577.0,236.0 583.6649,237.7859" stroke="#090" stroke-width="1" /><polyline fill="none" opacity="1.0" points="436.0,301.0 436.0,281.0" stroke="#090" stroke-width="1" /><polygon fill="#090" opacity="1.0" points="437.5529,286.7956 436.0,281.0 434.4471,286.7956" stroke="#090" stroke-width="1" /><polyline fill="none" opacity="1.0" points="456.0,376.0 456.0,402.0 481.0,402.0 481.0,365.0 136.0,365.0 120.0,425.0 76.0,413.0" stroke="#000" stroke-width="1" /><polyline fill="none" opacity="1.0" points="117.0,435.0 73.0,423.0 68.0,441.0" stroke="#000" stroke-width="1" /><polyline fill="none" opacity="1.0" points="47.0,435.0 52.0,417.0" stroke="#000" stroke-width="1" /><polyline fill="none" opacity="1.0" points="83.0,392.0 104.0,398.0 120.0,340.0 156.0,340.0 156.0,296.0 13.0,296.0 13.0,192.0 156.0,192.0 156.0,235.0 204.0,235.0 204.0,340.0" stroke="#000" stroke-width="1" /><polyline fill="none" opacity="1.0" points="69.0,438.0 48.0,432.0" stroke="#000" stroke-width="1" /><polyline fill="none" opacity="1.0" points="69.9701,434.1194 48.9701,428.1194" stroke="#000" stroke-width="1" /><polyline fill="none" opacity="1.0" points="70.9403,430.2389 49.9403,424.2389" stroke="#000" stroke-width="1" /><polyline fill="none" opacity="1.0" points="71.9104,426.3583 50.9104,420.3583" stroke="#000" stroke-width="1" /><polyline fill="none" opacity="1.0" points="94.0,418.0 100.0,397.0" stroke="#000" stroke-width="1" /><polyline fill="none" opacity="1.0" points="90.1625,416.8713 96.1625,395.8713" stroke="#000" stroke-width="1" /><polyline fill="none" opacity="1.0" points="86.3251,415.7427 92.3251,394.7427" stroke="#000" stroke-width="1" /><polyline fill="none" opacity="1.0" points="82.4876,414.614 88.4876,393.614" stroke="#000" stroke-width="1" /><polyline fill="none" opacity="1.0" points="78.6502,413.4853 84.6502,392.4853" stroke="#000" stroke-width="1" /><polyline fill="none" opacity="1.0" points="111.0,374.0 132.0,380.0" stroke="#000" stroke-width="1" /><polyline fill="none" opacity="1.0" points="109.9475,377.8591 130.9475,383.8591" stroke="#000" stroke-width="1" /><polyline fill="none" opacity="1.0" points="108.8951,381.7181 129.8951,387.7181" stroke="#000" stroke-width="1" /><polyline fill="none" opacity="1.0" points="107.8426,385.5772 128.8426,391.5772" stroke="#000" stroke-width="1" /><polyline fill="none" opacity="1.0" points="106.7901,389.4362 127.7901,395.4362" stroke="#000" stroke-width="1" /><polyline fill="none" opacity="1.0" points="105.7377,393.2953 126.7377,399.2953" stroke="#000" stroke-width="1" /><polygon fill="#D0D0D0" opacity="1.0" points="37.0,221.0 37.0,218.0 80.0,218.0 80.0,270.0 37.0,270.0 37.0,267.0 77.0,267.0 77.0,221.0" stroke="#000" stroke-width="1" /><polyline fill="none" opacity="1.0" points="80.0,244.0 131.0,244.0 131.0,263.0 177.0,263.0 177.0,296.0" stroke="#000" stroke-width="0.5" /><polyline fill="none" opacity="1.0" points="110.0,243.0 115.0,243.0" stroke="#090" stroke-width="1" /><polyline fill="none" opacity="1.0" points="110.0,239.0 115.0,239.0" stroke="#090" stroke-width="1" /><polyline fill="none" opacity="1.0" points="110.0,235.0 115.0,235.0" stroke="#090" stroke-width="1" /><polyline fill="none" opacity="1.0" points="110.0,231.0 115.0,231.0" stroke="#090" stroke-width="1" /><polyline fill="none" opacity="1.0" points="110.0,227.0 115.0,227.0" stroke="#090" stroke-width="1" /><polyline fill="none" opacity="1.0" points="110.0,223.0 115.0,223.0" stroke="#090" stroke-width="1" /><polyline fill="none" opacity="1.0" points="110.0,219.0 115.0,219.0" stroke="#090" stroke-width="1" /><polyline fill="none" opacity="1.0" points="110.0,215.0 115.0,215.0" stroke="#090" stroke-width="1" /><polyline fill="none" opacity="1.0" points="110.0,211.0 115.0,211.0" stroke="#090" stroke-width="1" /><polyline fill="none" opacity="1.0" points="110.0,207.0 115.0,207.0" stroke="#090" stroke-width="1" /><polyline fill="none" opacity="1.0" points="110.0,203.0 115.0,203.0" stroke="#090" stroke-width="1" /><polyline fill="none" opacity="1.0" points="110.0,199.0 115.0,199.0" stroke="#090" stroke-width="1" /><polyline fill="none" opacity="1.0" points="110.0,195.0 115.0,195.0" stroke="#090" stroke-width="1" /><polyline fill="none" opacity="1.0" points="110.0,245.0 115.0,245.0" stroke="#F00" stroke-width="1" /><polyline fill="none" opacity="1.0" points="110.0,249.0 115.0,249.0" stroke="#F00" stroke-width="1" /><polyline fill="none" opacity="1.0" points="110.0,253.0 115.0,253.0" stroke="#F00" stroke-width="1" /><polyline fill="none" opacity="1.0" points="110.0,257.0 115.0,257.0" stroke="#F00" stroke-width="1" /><polyline fill="none" opacity="1.0" points="110.0,261.0 115.0,261.0" stroke="#F00" stroke-width="1" /><polyline fill="none" opacity="1.0" points="110.0,265.0 115.0,265.0" stroke="#F00" stroke-width="1" /><polyline fill="none" opacity="1.0" points="110.0,269.0 115.0,269.0" stroke="#F00" stroke-width="1" /><polyline fill="none" opacity="1.0" points="110.0,273.0 115.0,273.0" stroke="#F00" stroke-width="1" /><polyline fill="none" opacity="1.0" points="110.0,277.0 115.0,277.0" stroke="#F00" stroke-width="1" /><polyline fill="none" opacity="1.0" points="110.0,281.0 115.0,281.0" stroke="#F00" stroke-width="1" /><polyline fill="none" opacity="1.0" points="110.0,285.0 115.0,285.0" stroke="#F00" stroke-width="1" /><polyline fill="none" opacity="1.0" points="110.0,289.0 115.0,289.0" stroke="#F00" stroke-width="1" /><polyline fill="none" opacity="1.0" points="110.0,293.0 115.0,293.0" stroke="#F00" stroke-width="1" /><polyline fill="none" opacity="1.0" points="49.0,253.0 26.0,253.0 26.0,282.0 48.0,282.0" stroke="#F00" stroke-width="1" /><polygon fill="#F00" opacity="1.0" points="41.6249,283.7082 48.0,282.0 41.6249,280.2918" stroke="#F00" stroke-width="1" /><polyline fill="none" opacity="1.0" points="167.0,281.0 167.0,301.0" stroke="#F00" stroke-width="1" /><polygon fill="#F00" opacity="1.0" points="165.4471,295.2044 167.0,301.0 168.5529,295.2044" stroke="#F00" stroke-width="1" /><polyline fill="none" opacity="1.0" points="49.0,206.0 26.0,206.0 26.0,236.0 49.0,236.0" stroke="#090" stroke-width="1" /><polygon fill="#090" opacity="1.0" points="42.3351,237.7859 49.0,236.0 42.3351,234.2141" stroke="#090" stroke-width="1" /><polyline fill="none" opacity="1.0" points="190.0,301.0 190.0,281.0" stroke="#090" stroke-width="1" /><polygon fill="#090" opacity="1.0" points="191.5529,286.7956 190.0,281.0 188.4471,286.7956" stroke="#090" stroke-width="1" /><text fill="#00AFAF" font-family="Arial" font-size="15" font-weight="normal" opacity="1.0" transform="rotate(15.0 114.0,476.0) translate(0 15)" x="114.0" y="476.0">проспект Победителей</text><text fill="#00AFAF" font-family="Arial" font-size="15" font-weight="normal" opacity="1.0" transform="rotate(-90.0 313.0,99.0) translate(0 15)" x="313.0" y="99.0">улица Немига</text><text fill="#BF0050" font-family="Arial" font-size="25" font-weight="bold" opacity="1.0" transform="rotate(-0.0 275.0,227.0) translate(0 25)" x="275.0" y="227.0">Немига</text><text fill="#BF0050" font-family="Arial" font-size="20" font-weight="normal" opacity="1.0" transform="rotate(-0.0 400.0,314.0) translate(0 20)" x="400.0" y="314.0">Купаловская &gt;&gt;</text><text fill="#BF0050" font-family="Arial" font-size="20" font-weight="normal" opacity="1.0" transform="rotate(-0.0 89.0,150.0) translate(0 20)" x="89.0" y="150.0">&lt;&lt; Фрунзенская</text></g></g></svg>