<?xml version="1.0" encoding="utf-8" ?>
<svg baseProfile="tiny" height="1250px" version="1.2" width="1160px" xmlns="http://www.w3.org/2000/svg" xmlns:ev="http://www.w3.org/2001/xml-events" xmlns:xlink="http://www.w3.org/1999/xlink"><defs /><g><text fill="#040464" font-family="Arial" font-size="36" font-weight="normal" opacity="100" x="12.600000000000001" y="33.4">Внимание! Схема неточная.</text><text fill="#040464" font-family="Arial" font-size="36" font-weight="normal" opacity="100" x="12.600000000000001" y="74.4">Ждём Ваших уточнений.</text><g transform="rotate(-40.0,580.0,625.0)"><polygon fill="#00009F" opacity="100" points="417.0,475.0 417.0,445.0 867.0,445.0 867.0,475.0" stroke="#000" stroke-width="1" /><polygon fill="#00009F" opacity="100" points="417.0,585.0 417.0,555.0 867.0,555.0 867.0,585.0" stroke="#000" stroke-width="1" /><text fill="#00009F" font-family="Arial" font-size="20" font-weight="normal" opacity="100" transform="rotate(-0.0 487.0,421.0) translate(0 20)" x="487.0" y="421.0">&lt;&lt; Площадь Ленина</text><text fill="#00009F" font-family="Arial" font-size="20" font-weight="normal" opacity="100" transform="rotate(-0.0 691.0,585.0) translate(0 20)" x="691.0" y="585.0">Площадь Победы &gt;&gt;</text><text fill="#00009F" font-family="Arial" font-size="25" font-weight="bold" opacity="100" transform="rotate(-0.0 596.0,483.0) translate(0 25)" x="596.0" y="483.0">Октябрьская</text><polyline fill="none" opacity="100" points="417.0,475.0 417.0,483.0 386.0,483.0 386.0,488.0" stroke="#000" stroke-width="1" /><polyline fill="none" opacity="100" points="417.0,555.0 417.0,546.0 386.0,546.0 386.0,541.0" stroke="#000" stroke-width="1" /><polyline fill="none" opacity="100" points="239.0,431.0 239.0,483.0 267.0,483.0 267.0,488.0" stroke="#000" stroke-width="1" /><polyline fill="none" opacity="100" points="239.0,398.0 239.0,369.0 546.0,369.0 546.0,297.0" stroke="#000" stroke-width="1" /><polyline fill="none" opacity="100" points="523.0,297.0 523.0,347.0 239.0,347.0 239.0,297.0 246.0,297.0 246.0,323.0" stroke="#000" stroke-width="1" /><polyline fill="none" opacity="100" points="268.0,323.0 268.0,274.0 216.0,274.0 216.0,347.0 209.0,347.0 209.0,274.0 156.0,274.0 156.0,323.0" stroke="#000" stroke-width="1" /><polyline fill="none" opacity="100" points="179.0,323.0 179.0,297.0 186.0,297.0 186.0,696.0 179.0,696.0 179.0,670.0" stroke="#000" stroke-width="1" /><polyline fill="none" opacity="100" points="156.0,670.0 156.0,710.0 209.0,710.0 209.0,645.0 216.0,645.0 216.0,710.0 269.0,710.0 269.0,670.0" stroke="#000" stroke-width="1" /><polyline fill="none" opacity="100" points="246.0,670.0 246.0,696.0 239.0,696.0 239.0,608.0 216.0,608.0 216.0,546.0 267.0,546.0 267.0,541.0" stroke="#000" stroke-width="1" /><polyline fill="none" opacity="100" points="523.0,299.0 546.0,299.0" stroke="#000" stroke-width="1" /><polyline fill="none" opacity="100" points="523.0,303.0 546.0,303.0" stroke="#000" stroke-width="1" /><polyline fill="none" opacity="100" points="523.0,307.0 546.0,307.0" stroke="#000" stroke-width="1" /><polyline fill="none" opacity="100" points="523.0,311.0 546.0,311.0" stroke="#000" stroke-width="1" /><polyline fill="none" opacity="100" points="523.0,315.0 546.0,315.0" stroke="#000" stroke-width="1" /><polyline fill="none" opacity="100" points="523.0,319.0 546.0,319.0" stroke="#000" stroke-width="1" /><polyline fill="none" opacity="100" points="523.0,323.0 546.0,323.0" stroke="#000" stroke-width="1" /><polyline fill="none" opacity="100" points="523.0,327.0 546.0,327.0" stroke="#000" stroke-width="1" /><polyline fill="none" opacity="100" points="523.0,331.0 546.0,331.0" stroke="#000" stroke-width="1" /><polyline fill="none" opacity="100" points="523.0,335.0 546.0,335.0" stroke="#000" stroke-width="1" /><polyline fill="none" opacity="100" points="523.0,339.0 546.0,339.0" stroke="#000" stroke-width="1" /><polyline fill="none" opacity="100" points="523.0,343.0 546.0,343.0" stroke="#000" stroke-width="1" /><polyline fill="none" opacity="100" points="179.0,321.0 156.0,321.0" stroke="#000" stroke-width="1" /><polyline fill="none" opacity="100" points="179.0,317.0 156.0,317.0" stroke="#000" stroke-width="1" /><polyline fill="none" opacity="100" points="179.0,313.0 156.0,313.0" stroke="#000" stroke-width="1" /><polyline fill="none" opacity="100" points="179.0,309.0 156.0,309.0" stroke="#000" stroke-width="1" /><polyline fill="none" opacity="100" points="179.0,305.0 156.0,305.0" stroke="#000" stroke-width="1" /><polyline fill="none" opacity="100" points="179.0,301.0 156.0,301.0" stroke="#000" stroke-width="1" /><polyline fill="none" opacity="100" points="186.0,299.0 209.0,299.0" stroke="#000" stroke-width="1" /><polyline fill="none" opacity="100" points="186.0,303.0 209.0,303.0" stroke="#000" stroke-width="1" /><polyline fill="none" opacity="100" points="186.0,307.0 209.0,307.0" stroke="#000" stroke-width="1" /><polyline fill="none" opacity="100" points="186.0,311.0 209.0,311.0" stroke="#000" stroke-width="1" /><polyline fill="none" opacity="100" points="186.0,315.0 209.0,315.0" stroke="#000" stroke-width="1" /><polyline fill="none" opacity="100" points="186.0,319.0 209.0,319.0" stroke="#000" stroke-width="1" /><polyline fill="none" opacity="100" points="246.0,321.0 268.0,321.0" stroke="#000" stroke-width="1" /><polyline fill="none" opacity="100" points="246.0,317.0 268.0,317.0" stroke="#000" stroke-width="1" /><polyline fill="none" opacity="100" points="246.0,313.0 268.0,313.0" stroke="#000" stroke-width="1" /><polyline fill="none" opacity="100" points="246.0,309.0 268.0,309.0" stroke="#000" stroke-width="1" /><polyline fill="none" opacity="100" points="246.0,305.0 268.0,305.0" stroke="#000" stroke-width="1" /><polyline fill="none" opacity="100" points="246.0,301.0 268.0,301.0" stroke="#000" stroke-width="1" /><polyline fill="none" opacity="100" points="239.0,299.0 216.0,299.0" stroke="#000" stroke-width="1" /><polyline fill="none" opacity="100" points="239.0,303.0 216.0,303.0" stroke="#000" stroke-width="1" /><polyline fill="none" opacity="100" points="239.0,307.0 216.0,307.0" stroke="#000" stroke-width="1" /><polyline fill="none" opacity="100" points="239.0,311.0 216.0,311.0" stroke="#000" stroke-width="1" /><polyline fill="none" opacity="100" points="239.0,315.0 216.0,315.0" stroke="#000" stroke-width="1" /><polyline fill="none" opacity="100" points="239.0,319.0 216.0,319.0" stroke="#000" stroke-width="1" /><polyline fill="none" opacity="100" points="179.0,672.0 156.0,672.0" stroke="#000" stroke-width="1" /><polyline fill="none" opacity="100" points="179.0,676.0 156.0,676.0" stroke="#000" stroke-width="1" /><polyline fill="none" opacity="100" points="179.0,680.0 156.0,680.0" stroke="#000" stroke-width="1" /><polyline fill="none" opacity="100" points="179.0,684.0 156.0,684.0" stroke="#000" stroke-width="1" /><polyline fill="none" opacity="100" points="179.0,688.0 156.0,688.0" stroke="#000" stroke-width="1" /><polyline fill="none" opacity="100" points="179.0,692.0 156.0,692.0" stroke="#000" stroke-width="1" /><polyline fill="none" opacity="100" points="186.0,694.0 209.0,694.0" stroke="#000" stroke-width="1" /><polyline fill="none" opacity="100" points="186.0,690.0 209.0,690.0" stroke="#000" stroke-width="1" /><polyline fill="none" opacity="100" points="186.0,686.0 209.0,686.0" stroke="#000" stroke-width="1" /><polyline fill="none" opacity="100" points="186.0,682.0 209.0,682.0" stroke="#000" stroke-width="1" /><polyline fill="none" opacity="100" points="186.0,678.0 209.0,678.0" stroke="#000" stroke-width="1" /><polyline fill="none" opacity="100" points="186.0,674.0 209.0,674.0" stroke="#000" stroke-width="1" /><polyline fill="none" opacity="100" points="246.0,672.0 269.0,672.0" stroke="#000" stroke-width="1" /><polyline fill="none" opacity="100" points="246.0,676.0 269.0,676.0" stroke="#000" stroke-width="1" /><polyline fill="none" opacity="100" points="246.0,680.0 269.0,680.0" stroke="#000" stroke-width="1" /><polyline fill="none" opacity="100" points="246.0,684.0 269.0,684.0" stroke="#000" stroke-width="1" /><polyline fill="none" opacity="100" points="246.0,688.0 269.0,688.0" stroke="#000" stroke-width="1" /><polyline fill="none" opacity="100" points="246.0,692.0 269.0,692.0" stroke="#000" stroke-width="1" /><polyline fill="none" opacity="100" points="239.0,694.0 216.0,694.0" stroke="#000" stroke-width="1" /><polyline fill="none" opacity="100" points="239.0,690.0 216.0,690.0" stroke="#000" stroke-width="1" /><polyline fill="none" opacity="100" points="239.0,686.0 216.0,686.0" stroke="#000" stroke-width="1" /><polyline fill="none" opacity="100" points="239.0,682.0 216.0,682.0" stroke="#000" stroke-width="1" /><polyline fill="none" opacity="100" points="239.0,678.0 216.0,678.0" stroke="#000" stroke-width="1" /><polyline fill="none" opacity="100" points="239.0,674.0 216.0,674.0" stroke="#000" stroke-width="1" /><polyline fill="none" opacity="100" points="388.0,538.0 388.0,491.0" stroke="#7F7F7F" stroke-width="1" /><polyline fill="none" opacity="100" points="384.0,538.0 384.0,491.0" stroke="#7F7F7F" stroke-width="1" /><polyline fill="none" opacity="100" points="380.0,538.0 380.0,491.0" stroke="#7F7F7F" stroke-width="1" /><polyline fill="none" opacity="100" points="376.0,538.0 376.0,491.0" stroke="#7F7F7F" stroke-width="1" /><polyline fill="none" opacity="100" points="372.0,538.0 372.0,491.0" stroke="#7F7F7F" stroke-width="1" /><polyline fill="none" opacity="100" points="368.0,538.0 368.0,491.0" stroke="#7F7F7F" stroke-width="1" /><polyline fill="none" opacity="100" points="364.0,538.0 364.0,491.0" stroke="#7F7F7F" stroke-width="1" /><polyline fill="none" opacity="100" points="360.0,538.0 360.0,491.0" stroke="#7F7F7F" stroke-width="1" /><polyline fill="none" opacity="100" points="356.0,538.0 356.0,491.0" stroke="#7F7F7F" stroke-width="1" /><polyline fill="none" opacity="100" points="352.0,538.0 352.0,491.0" stroke="#7F7F7F" stroke-width="1" /><polyline fill="none" opacity="100" points="348.0,538.0 348.0,491.0" stroke="#7F7F7F" stroke-width="1" /><polyline fill="none" opacity="100" points="344.0,538.0 344.0,491.0" stroke="#7F7F7F" stroke-width="1" /><polyline fill="none" opacity="100" points="340.0,538.0 340.0,491.0" stroke="#7F7F7F" stroke-width="1" /><polyline fill="none" opacity="100" points="336.0,538.0 336.0,491.0" stroke="#7F7F7F" stroke-width="1" /><polyline fill="none" opacity="100" points="332.0,538.0 332.0,491.0" stroke="#7F7F7F" stroke-width="1" /><polyline fill="none" opacity="100" points="328.0,538.0 328.0,491.0" stroke="#7F7F7F" stroke-width="1" /><polyline fill="none" opacity="100" points="324.0,538.0 324.0,491.0" stroke="#7F7F7F" stroke-width="1" /><polyline fill="none" opacity="100" points="320.0,538.0 320.0,491.0" stroke="#7F7F7F" stroke-width="1" /><polyline fill="none" opacity="100" points="316.0,538.0 316.0,491.0" stroke="#7F7F7F" stroke-width="1" /><polyline fill="none" opacity="100" points="312.0,538.0 312.0,491.0" stroke="#7F7F7F" stroke-width="1" /><polyline fill="none" opacity="100" points="308.0,538.0 308.0,491.0" stroke="#7F7F7F" stroke-width="1" /><polyline fill="none" opacity="100" points="304.0,538.0 304.0,491.0" stroke="#7F7F7F" stroke-width="1" /><polyline fill="none" opacity="100" points="300.0,538.0 300.0,491.0" stroke="#7F7F7F" stroke-width="1" /><polyline fill="none" opacity="100" points="296.0,538.0 296.0,491.0" stroke="#7F7F7F" stroke-width="1" /><polyline fill="none" opacity="100" points="292.0,538.0 292.0,491.0" stroke="#7F7F7F" stroke-width="1" /><polyline fill="none" opacity="100" points="288.0,538.0 288.0,491.0" stroke="#7F7F7F" stroke-width="1" /><polyline fill="none" opacity="100" points="284.0,538.0 284.0,491.0" stroke="#7F7F7F" stroke-width="1" /><polyline fill="none" opacity="100" points="280.0,538.0 280.0,491.0" stroke="#7F7F7F" stroke-width="1" /><polyline fill="none" opacity="100" points="276.0,538.0 276.0,491.0" stroke="#7F7F7F" stroke-width="1" /><polyline fill="none" opacity="100" points="272.0,538.0 272.0,491.0" stroke="#7F7F7F" stroke-width="1" /><polyline fill="none" opacity="100" points="268.0,538.0 268.0,491.0" stroke="#7F7F7F" stroke-width="1" /><polyline fill="none" opacity="100" points="264.0,538.0 264.0,491.0" stroke="#7F7F7F" stroke-width="1" /><polygon fill="#9B5509" opacity="100" points="395.0,491.0 259.0,491.0 259.0,488.0 395.0,488.0" stroke="#000" stroke-width="1" /><polygon fill="#9B5509" opacity="100" points="395.0,499.0 395.0,504.0 259.0,504.0 259.0,499.0" stroke="#000" stroke-width="1" /><polygon fill="#9B5509" opacity="100" points="395.0,512.0 395.0,517.0 259.0,517.0 259.0,512.0" stroke="#000" stroke-width="1" /><polygon fill="#9B5509" opacity="100" points="395.0,525.0 395.0,530.0 259.0,530.0 259.0,525.0" stroke="#000" stroke-width="1" /><polygon fill="#9B5509" opacity="100" points="395.0,538.0 259.0,538.0 259.0,541.0 395.0,541.0" stroke="#000" stroke-width="1" /><polyline fill="none" opacity="100" points="867.0,475.0 867.0,489.0 899.0,489.0 899.0,493.0" stroke="#000" stroke-width="1" /><polyline fill="none" opacity="100" points="867.0,555.0 867.0,537.0 899.0,537.0 899.0,533.0" stroke="#000" stroke-width="1" /><polyline fill="none" opacity="100" points="995.0,533.0 995.0,537.0 1045.0,537.0 1045.0,677.0 1098.0,677.0 1098.0,630.0" stroke="#000" stroke-width="1" /><polyline fill="none" opacity="100" points="1075.0,630.0 1075.0,654.0 1068.0,654.0 1068.0,378.0 1195.0,378.0" stroke="#000" stroke-width="1" /><polyline fill="none" opacity="100" points="1195.0,341.0 1081.0,341.0 1081.0,291.0" stroke="#000" stroke-width="1" /><polyline fill="none" opacity="100" points="1059.0,291.0 1059.0,341.0 1030.0,341.0 1030.0,489.0 995.0,489.0 995.0,493.0" stroke="#000" stroke-width="1" /><polyline fill="none" opacity="100" points="1059.0,293.0 1081.0,293.0" stroke="#000" stroke-width="1" /><polyline fill="none" opacity="100" points="1059.0,297.0 1081.0,297.0" stroke="#000" stroke-width="1" /><polyline fill="none" opacity="100" points="1059.0,301.0 1081.0,301.0" stroke="#000" stroke-width="1" /><polyline fill="none" opacity="100" points="1059.0,305.0 1081.0,305.0" stroke="#000" stroke-width="1" /><polyline fill="none" opacity="100" points="1059.0,309.0 1081.0,309.0" stroke="#000" stroke-width="1" /><polyline fill="none" opacity="100" points="1059.0,313.0 1081.0,313.0" stroke="#000" stroke-width="1" /><polyline fill="none" opacity="100" points="1059.0,317.0 1081.0,317.0" stroke="#000" stroke-width="1" /><polyline fill="none" opacity="100" points="1059.0,321.0 1081.0,321.0" stroke="#000" stroke-width="1" /><polyline fill="none" opacity="100" points="1059.0,325.0 1081.0,325.0" stroke="#000" stroke-width="1" /><polyline fill="none" opacity="100" points="1059.0,329.0 1081.0,329.0" stroke="#000" stroke-width="1" /><polyline fill="none" opacity="100" points="1059.0,333.0 1081.0,333.0" stroke="#000" stroke-width="1" /><polyline fill="none" opacity="100" points="1059.0,337.0 1081.0,337.0" stroke="#000" stroke-width="1" /><polyline fill="none" opacity="100" points="1193.0,341.0 1193.0,378.0" stroke="#000" stroke-width="1" /><polyline fill="none" opacity="100" points="1189.0,341.0 1189.0,378.0" stroke="#000" stroke-width="1" /><polyline fill="none" opacity="100" points="1185.0,341.0 1185.0,378.0" stroke="#000" stroke-width="1" /><polyline fill="none" opacity="100" points="1181.0,341.0 1181.0,378.0" stroke="#000" stroke-width="1" /><polyline fill="none" opacity="100" points="1177.0,341.0 1177.0,378.0" stroke="#000" stroke-width="1" /><polyline fill="none" opacity="100" points="1173.0,341.0 1173.0,378.0" stroke="#000" stroke-width="1" /><polyline fill="none" opacity="100" points="1169.0,341.0 1169.0,378.0" stroke="#000" stroke-width="1" /><polyline fill="none" opacity="100" points="1165.0,341.0 1165.0,378.0" stroke="#000" stroke-width="1" /><polyline fill="none" opacity="100" points="1161.0,341.0 1161.0,378.0" stroke="#000" stroke-width="1" /><polyline fill="none" opacity="100" points="1157.0,341.0 1157.0,378.0" stroke="#000" stroke-width="1" /><polyline fill="none" opacity="100" points="1153.0,341.0 1153.0,378.0" stroke="#000" stroke-width="1" /><polyline fill="none" opacity="100" points="1149.0,341.0 1149.0,378.0" stroke="#000" stroke-width="1" /><polyline fill="none" opacity="100" points="1075.0,632.0 1098.0,632.0" stroke="#000" stroke-width="1" /><polyline fill="none" opacity="100" points="1075.0,636.0 1098.0,636.0" stroke="#000" stroke-width="1" /><polyline fill="none" opacity="100" points="1075.0,640.0 1098.0,640.0" stroke="#000" stroke-width="1" /><polyline fill="none" opacity="100" points="1075.0,644.0 1098.0,644.0" stroke="#000" stroke-width="1" /><polyline fill="none" opacity="100" points="1075.0,648.0 1098.0,648.0" stroke="#000" stroke-width="1" /><polyline fill="none" opacity="100" points="1075.0,652.0 1098.0,652.0" stroke="#000" stroke-width="1" /><polyline fill="none" opacity="100" points="1068.0,632.0 1045.0,632.0" stroke="#000" stroke-width="1" /><polyline fill="none" opacity="100" points="1068.0,636.0 1045.0,636.0" stroke="#000" stroke-width="1" /><polyline fill="none" opacity="100" points="1068.0,640.0 1045.0,640.0" stroke="#000" stroke-width="1" /><polyline fill="none" opacity="100" points="1068.0,644.0 1045.0,644.0" stroke="#000" stroke-width="1" /><polyline fill="none" opacity="100" points="1068.0,648.0 1045.0,648.0" stroke="#000" stroke-width="1" /><polyline fill="none" opacity="100" points="1068.0,652.0 1045.0,652.0" stroke="#000" stroke-width="1" /><polyline fill="none" opacity="100" points="997.0,530.0 997.0,496.0" stroke="#7F7F7F" stroke-width="1" /><polyline fill="none" opacity="100" points="993.0,530.0 993.0,496.0" stroke="#7F7F7F" stroke-width="1" /><polyline fill="none" opacity="100" points="989.0,530.0 989.0,496.0" stroke="#7F7F7F" stroke-width="1" /><polyline fill="none" opacity="100" points="985.0,530.0 985.0,496.0" stroke="#7F7F7F" stroke-width="1" /><polyline fill="none" opacity="100" points="981.0,530.0 981.0,496.0" stroke="#7F7F7F" stroke-width="1" /><polyline fill="none" opacity="100" points="977.0,530.0 977.0,496.0" stroke="#7F7F7F" stroke-width="1" /><polyline fill="none" opacity="100" points="973.0,530.0 973.0,496.0" stroke="#7F7F7F" stroke-width="1" /><polyline fill="none" opacity="100" points="969.0,530.0 969.0,496.0" stroke="#7F7F7F" stroke-width="1" /><polyline fill="none" opacity="100" points="965.0,530.0 965.0,496.0" stroke="#7F7F7F" stroke-width="1" /><polyline fill="none" opacity="100" points="961.0,530.0 961.0,496.0" stroke="#7F7F7F" stroke-width="1" /><polyline fill="none" opacity="100" points="957.0,530.0 957.0,496.0" stroke="#7F7F7F" stroke-width="1" /><polyline fill="none" opacity="100" points="953.0,530.0 953.0,496.0" stroke="#7F7F7F" stroke-width="1" /><polyline fill="none" opacity="100" points="949.0,530.0 949.0,496.0" stroke="#7F7F7F" stroke-width="1" /><polyline fill="none" opacity="100" points="945.0,530.0 945.0,496.0" stroke="#7F7F7F" stroke-width="1" /><polyline fill="none" opacity="100" points="941.0,530.0 941.0,496.0" stroke="#7F7F7F" stroke-width="1" /><polyline fill="none" opacity="100" points="937.0,530.0 937.0,496.0" stroke="#7F7F7F" stroke-width="1" /><polyline fill="none" opacity="100" points="933.0,530.0 933.0,496.0" stroke="#7F7F7F" stroke-width="1" /><polyline fill="none" opacity="100" points="929.0,530.0 929.0,496.0" stroke="#7F7F7F" stroke-width="1" /><polyline fill="none" opacity="100" points="925.0,530.0 925.0,496.0" stroke="#7F7F7F" stroke-width="1" /><polyline fill="none" opacity="100" points="921.0,530.0 921.0,496.0" stroke="#7F7F7F" stroke-width="1" /><polyline fill="none" opacity="100" points="917.0,530.0 917.0,496.0" stroke="#7F7F7F" stroke-width="1" /><polyline fill="none" opacity="100" points="913.0,530.0 913.0,496.0" stroke="#7F7F7F" stroke-width="1" /><polyline fill="none" opacity="100" points="909.0,530.0 909.0,496.0" stroke="#7F7F7F" stroke-width="1" /><polyline fill="none" opacity="100" points="905.0,530.0 905.0,496.0" stroke="#7F7F7F" stroke-width="1" /><polyline fill="none" opacity="100" points="901.0,530.0 901.0,496.0" stroke="#7F7F7F" stroke-width="1" /><polyline fill="none" opacity="100" points="897.0,530.0 897.0,496.0" stroke="#7F7F7F" stroke-width="1" /><polygon fill="#9B5509" opacity="100" points="1004.0,496.0 890.0,496.0 890.0,493.0 1004.0,493.0" stroke="#000" stroke-width="1" /><polygon fill="#9B5509" opacity="100" points="1004.0,504.0 1004.0,509.0 890.0,509.0 890.0,504.0" stroke="#000" stroke-width="1" /><polygon fill="#9B5509" opacity="100" points="1004.0,517.0 1004.0,522.0 890.0,522.0 890.0,517.0" stroke="#000" stroke-width="1" /><polygon fill="#9B5509" opacity="100" points="1004.0,530.0 890.0,530.0 890.0,533.0 1004.0,533.0" stroke="#000" stroke-width="1" /><polygon fill="#FFF" opacity="0.85" points="614.0,553.0 656.0,553.0 656.0,587.0 614.0,587.0" stroke="#FFF" stroke-width="1" /><polygon fill="#FFF" opacity="0.85" points="444.0,442.0 483.0,442.0 483.0,587.0 444.0,587.0" stroke="#FFF" stroke-width="1" /><polygon fill="#BF0050" opacity="1.0" points="417.0,612.0 417.0,1062.0 387.0,1062.0 387.0,612.0" stroke="#000" stroke-width="1" /><polygon fill="#BF0050" opacity="1.0" points="537.0,1062.0 507.0,1062.0 507.0,612.0 537.0,612.0" stroke="#000" stroke-width="1" /><text fill="#BF0050" font-family="Arial" font-size="20" font-weight="normal" opacity="1.0" transform="rotate(90.0 561.0,613.0) translate(0 20)" x="561.0" y="613.0">&lt;&lt; Немига</text><text fill="#BF0050" font-family="Arial" font-size="20" font-weight="normal" opacity="1.0" transform="rotate(90.0 387.0,907.0) translate(0 20)" x="387.0" y="907.0">Первомайская &gt;&gt;</text><text fill="#BF0050" font-family="Arial" font-size="25" font-weight="bold" opacity="1.0" transform="rotate(90.0 479.0,899.0) translate(0 25)" x="479.0" y="899.0">Купаловская</text><polyline fill="none" opacity="1.0" points="417.0,612.0 444.0,612.0 444.0,431.0 239.0,431.0" stroke="#000" stroke-width="1" /><polyline fill="none" opacity="1.0" points="507.0,612.0 483.0,612.0 483.0,398.0 239.0,398.0" stroke="#000" stroke-width="1" /><polyline fill="none" opacity="1.0" points="483.0,609.0 444.0,609.0" stroke="#000" stroke-width="1" /><polyline fill="none" opacity="1.0" points="483.0,605.0 444.0,605.0" stroke="#000" stroke-width="1" /><polyline fill="none" opacity="1.0" points="483.0,601.0 444.0,601.0" stroke="#000" stroke-width="1" /><polyline fill="none" opacity="1.0" points="483.0,597.0 444.0,597.0" stroke="#000" stroke-width="1" /><polyline fill="none" opacity="1.0" points="483.0,593.0 444.0,593.0" stroke="#000" stroke-width="1" /><polyline fill="none" opacity="1.0" points="483.0,589.0 444.0,589.0" stroke="#000" stroke-width="1" /><polyline fill="none" opacity="1.0" points="483.0,585.0 444.0,585.0" stroke="#000" stroke-width="1" /><polyline fill="none" opacity="1.0" points="483.0,581.0 444.0,581.0" stroke="#000" stroke-width="1" /><polyline fill="none" opacity="1.0" points="483.0,577.0 444.0,577.0" stroke="#000" stroke-width="1" /><polyline fill="none" opacity="1.0" points="483.0,573.0 444.0,573.0" stroke="#000" stroke-width="1" /><polyline fill="none" opacity="1.0" points="483.0,569.0 444.0,569.0" stroke="#000" stroke-width="1" /><polyline fill="none" opacity="1.0" points="483.0,565.0 444.0,565.0" stroke="#000" stroke-width="1" /><polyline fill="none" opacity="1.0" points="507.0,1062.0 485.0,1062.0 485.0,1086.0 480.0,1086.0" stroke="#000" stroke-width="1" /><polyline fill="none" opacity="1.0" points="417.0,1062.0 438.0,1062.0 438.0,1086.0 443.0,1086.0" stroke="#000" stroke-width="1" /><polyline fill="none" opacity="1.0" points="400.0,1128.0 366.0,1162.0 366.0,1182.0 438.0,1182.0 438.0,1166.0 443.0,1166.0" stroke="#000" stroke-width="1" /><polyline fill="none" opacity="1.0" points="480.0,1166.0 485.0,1166.0 485.0,1221.0 327.0,1221.0 327.0,1151.0 375.0,1103.0" stroke="#000" stroke-width="1" /><polyline fill="none" opacity="1.0" points="399.0,1129.0 374.0,1104.0" stroke="#000" stroke-width="1" /><polyline fill="none" opacity="1.0" points="396.1716,1131.8284 371.1716,1106.8284" stroke="#000" stroke-width="1" /><polyline fill="none" opacity="1.0" points="393.3431,1134.6569 368.3431,1109.6569" stroke="#000" stroke-width="1" /><polyline fill="none" opacity="1.0" points="390.5147,1137.4853 365.5147,1112.4853" stroke="#000" stroke-width="1" /><polyline fill="none" opacity="1.0" points="387.6863,1140.3137 362.6863,1115.3137" stroke="#000" stroke-width="1" /><polyline fill="none" opacity="1.0" points="384.8579,1143.1421 359.8579,1118.1421" stroke="#000" stroke-width="1" /><polyline fill="none" opacity="1.0" points="382.0294,1145.9706 357.0294,1120.9706" stroke="#000" stroke-width="1" /><polyline fill="none" opacity="1.0" points="379.201,1148.799 354.201,1123.799" stroke="#000" stroke-width="1" /><polyline fill="none" opacity="1.0" points="376.3726,1151.6274 351.3726,1126.6274" stroke="#000" stroke-width="1" /><polyline fill="none" opacity="1.0" points="373.5442,1154.4558 348.5442,1129.4558" stroke="#000" stroke-width="1" /><polyline fill="none" opacity="1.0" points="370.7157,1157.2843 345.7157,1132.2843" stroke="#000" stroke-width="1" /><polyline fill="none" opacity="1.0" points="367.8873,1160.1127 342.8873,1135.1127" stroke="#000" stroke-width="1" /><polyline fill="none" opacity="1.0" points="446.0,1168.0 477.0,1168.0" stroke="#7F7F7F" stroke-width="1" /><polyline fill="none" opacity="1.0" points="446.0,1164.0 477.0,1164.0" stroke="#7F7F7F" stroke-width="1" /><polyline fill="none" opacity="1.0" points="446.0,1160.0 477.0,1160.0" stroke="#7F7F7F" stroke-width="1" /><polyline fill="none" opacity="1.0" points="446.0,1156.0 477.0,1156.0" stroke="#7F7F7F" stroke-width="1" /><polyline fill="none" opacity="1.0" points="446.0,1152.0 477.0,1152.0" stroke="#7F7F7F" stroke-width="1" /><polyline fill="none" opacity="1.0" points="446.0,1148.0 477.0,1148.0" stroke="#7F7F7F" stroke-width="1" /><polyline fill="none" opacity="1.0" points="446.0,1144.0 477.0,1144.0" stroke="#7F7F7F" stroke-width="1" /><polyline fill="none" opacity="1.0" points="446.0,1140.0 477.0,1140.0" stroke="#7F7F7F" stroke-width="1" /><polyline fill="none" opacity="1.0" points="446.0,1136.0 477.0,1136.0" stroke="#7F7F7F" stroke-width="1" /><polyline fill="none" opacity="1.0" points="446.0,1132.0 477.0,1132.0" stroke="#7F7F7F" stroke-width="1" /><polyline fill="none" opacity="1.0" points="446.0,1128.0 477.0,1128.0" stroke="#7F7F7F" stroke-width="1" /><polyline fill="none" opacity="1.0" points="446.0,1124.0 477.0,1124.0" stroke="#7F7F7F" stroke-width="1" /><polyline fill="none" opacity="1.0" points="446.0,1120.0 477.0,1120.0" stroke="#7F7F7F" stroke-width="1" /><polyline fill="none" opacity="1.0" points="446.0,1116.0 477.0,1116.0" stroke="#7F7F7F" stroke-width="1" /><polyline fill="none" opacity="1.0" points="446.0,1112.0 477.0,1112.0" stroke="#7F7F7F" stroke-width="1" /><polyline fill="none" opacity="1.0" points="446.0,1108.0 477.0,1108.0" stroke="#7F7F7F" stroke-width="1" /><polyline fill="none" opacity="1.0" points="446.0,1104.0 477.0,1104.0" stroke="#7F7F7F" stroke-width="1" /><polyline fill="none" opacity="1.0" points="446.0,1100.0 477.0,1100.0" stroke="#7F7F7F" stroke-width="1" /><polyline fill="none" opacity="1.0" points="446.0,1096.0 477.0,1096.0" stroke="#7F7F7F" stroke-width="1" /><polyline fill="none" opacity="1.0" points="446.0,1092.0 477.0,1092.0" stroke="#7F7F7F" stroke-width="1" /><polyline fill="none" opacity="1.0" points="446.0,1088.0 477.0,1088.0" stroke="#7F7F7F" stroke-width="1" /><polyline fill="none" opacity="1.0" points="446.0,1084.0 477.0,1084.0" stroke="#7F7F7F" stroke-width="1" /><polygon fill="#9B5509" opacity="1.0" points="443.0,1174.0 443.0,1078.0 446.0,1078.0 446.0,1174.0" stroke="#000" stroke-width="1" /><polygon fill="#9B5509" opacity="1.0" points="453.0,1174.0 453.0,1078.0 458.0,1078.0 458.0,1174.0" stroke="#000" stroke-width="1" /><polygon fill="#9B5509" opacity="1.0" points="465.0,1174.0 465.0,1078.0 470.0,1078.0 470.0,1174.0" stroke="#000" stroke-width="1" /><polygon fill="#9B5509" opacity="1.0" points="477.0,1174.0 477.0,1078.0 480.0,1078.0 480.0,1174.0" stroke="#000" stroke-width="1" /><polyline fill="none" opacity="1.0" points="590.0,515.0 680.0,515.0" stroke="#000" stroke-width="1" /><polyline fill="none" opacity="1.0" points="590.0,530.0 614.0,530.0 614.0,798.0 537.0,798.0" stroke="#000" stroke-width="1" /><polyline fill="none" opacity="1.0" points="680.0,530.0 656.0,530.0 656.0,840.0 537.0,840.0" stroke="#000" stroke-width="1" /><polyline fill="none" opacity="1.0" points="451.0,750.0 451.0,798.0 474.0,798.0 474.0,750.0" stroke="#000" stroke-width="1" /><polyline fill="none" opacity="1.0" points="474.0,888.0 474.0,840.0 451.0,840.0 451.0,888.0" stroke="#000" stroke-width="1" /><polyline fill="none" opacity="1.0" points="678.0,530.0 678.0,515.0" stroke="#000" stroke-width="1" /><polyline fill="none" opacity="1.0" points="674.0,530.0 674.0,515.0" stroke="#000" stroke-width="1" /><polyline fill="none" opacity="1.0" points="670.0,530.0 670.0,515.0" stroke="#000" stroke-width="1" /><polyline fill="none" opacity="1.0" points="666.0,530.0 666.0,515.0" stroke="#000" stroke-width="1" /><polyline fill="none" opacity="1.0" points="662.0,530.0 662.0,515.0" stroke="#000" stroke-width="1" /><polyline fill="none" opacity="1.0" points="658.0,530.0 658.0,515.0" stroke="#000" stroke-width="1" /><polyline fill="none" opacity="1.0" points="592.0,530.0 592.0,515.0" stroke="#000" stroke-width="1" /><polyline fill="none" opacity="1.0" points="596.0,530.0 596.0,515.0" stroke="#000" stroke-width="1" /><polyline fill="none" opacity="1.0" points="600.0,530.0 600.0,515.0" stroke="#000" stroke-width="1" /><polyline fill="none" opacity="1.0" points="604.0,530.0 604.0,515.0" stroke="#000" stroke-width="1" /><polyline fill="none" opacity="1.0" points="608.0,530.0 608.0,515.0" stroke="#000" stroke-width="1" /><polyline fill="none" opacity="1.0" points="612.0,530.0 612.0,515.0" stroke="#000" stroke-width="1" /><polyline fill="none" opacity="1.0" points="640.0,532.0 656.0,532.0" stroke="#000" stroke-width="1" /><polyline fill="none" opacity="1.0" points="640.0,536.0 656.0,536.0" stroke="#000" stroke-width="1" /><polyline fill="none" opacity="1.0" points="640.0,540.0 656.0,540.0" stroke="#000" stroke-width="1" /><polyline fill="none" opacity="1.0" points="640.0,544.0 656.0,544.0" stroke="#000" stroke-width="1" /><polyline fill="none" opacity="1.0" points="640.0,548.0 656.0,548.0" stroke="#000" stroke-width="1" /><polyline fill="none" opacity="1.0" points="640.0,552.0 656.0,552.0" stroke="#000" stroke-width="1" /><polyline fill="none" opacity="1.0" points="629.0,532.0 614.0,532.0" stroke="#000" stroke-width="1" /><polyline fill="none" opacity="1.0" points="629.0,536.0 614.0,536.0" stroke="#000" stroke-width="1" /><polyline fill="none" opacity="1.0" points="629.0,540.0 614.0,540.0" stroke="#000" stroke-width="1" /><polyline fill="none" opacity="1.0" points="629.0,544.0 614.0,544.0" stroke="#000" stroke-width="1" /><polyline fill="none" opacity="1.0" points="629.0,548.0 614.0,548.0" stroke="#000" stroke-width="1" /><polyline fill="none" opacity="1.0" points="629.0,552.0 614.0,552.0" stroke="#000" stroke-width="1" /><polyline fill="none" opacity="1.0" points="451.0,752.0 474.0,752.0" stroke="#000" stroke-width="1" /><polyline fill="none" opacity="1.0" points="451.0,756.0 474.0,756.0" stroke="#000" stroke-width="1" /><polyline fill="none" opacity="1.0" points="451.0,760.0 474.0,760.0" stroke="#000" stroke-width="1" /><polyline fill="none" opacity="1.0" points="451.0,764.0 474.0,764.0" stroke="#000" stroke-width="1" /><polyline fill="none" opacity="1.0" points="451.0,768.0 474.0,768.0" stroke="#000" stroke-width="1" /><polyline fill="none" opacity="1.0" points="451.0,772.0 474.0,772.0" stroke="#000" stroke-width="1" /><polyline fill="none" opacity="1.0" points="451.0,776.0 474.0,776.0" stroke="#000" stroke-width="1" /><polyline fill="none" opacity="1.0" points="451.0,780.0 474.0,780.0" stroke="#000" stroke-width="1" /><polyline fill="none" opacity="1.0" points="451.0,784.0 474.0,784.0" stroke="#000" stroke-width="1" /><polyline fill="none" opacity="1.0" points="451.0,788.0 474.0,788.0" stroke="#000" stroke-width="1" /><polyline fill="none" opacity="1.0" points="451.0,792.0 474.0,792.0" stroke="#000" stroke-width="1" /><polyline fill="none" opacity="1.0" points="451.0,796.0 474.0,796.0" stroke="#000" stroke-width="1" /><polyline fill="none" opacity="1.0" points="451.0,886.0 474.0,886.0" stroke="#000" stroke-width="1" /><polyline fill="none" opacity="1.0" points="451.0,882.0 474.0,882.0" stroke="#000" stroke-width="1" /><polyline fill="none" opacity="1.0" points="451.0,878.0 474.0,878.0" stroke="#000" stroke-width="1" /><polyline fill="none" opacity="1.0" points="451.0,874.0 474.0,874.0" stroke="#000" stroke-width="1" /><polyline fill="none" opacity="1.0" points="451.0,870.0 474.0,870.0" stroke="#000" stroke-width="1" /><polyline fill="none" opacity="1.0" points="451.0,866.0 474.0,866.0" stroke="#000" stroke-width="1" /><polyline fill="none" opacity="1.0" points="451.0,862.0 474.0,862.0" stroke="#000" stroke-width="1" /><polyline fill="none" opacity="1.0" points="451.0,858.0 474.0,858.0" stroke="#000" stroke-width="1" /><polyline fill="none" opacity="1.0" points="451.0,854.0 474.0,854.0" stroke="#000" stroke-width="1" /><polyline fill="none" opacity="1.0" points="451.0,850.0 474.0,850.0" stroke="#000" stroke-width="1" /><polyline fill="none" opacity="1.0" points="451.0,846.0 474.0,846.0" stroke="#000" stroke-width="1" /><polyline fill="none" opacity="1.0" points="451.0,842.0 474.0,842.0" stroke="#000" stroke-width="1" /><polygon fill="#D0D0D0" opacity="1.0" points="629.0,530.0 629.0,555.0 640.0,555.0 640.0,530.0" stroke="#000" stroke-width="1" /><polyline fill="none" opacity="1.0" points="506.0,798.0 475.0,798.0" stroke="#D0D0D0" stroke-width="1" /><polyline fill="none" opacity="1.0" points="506.0,840.0 475.0,840.0" stroke="#D0D0D0" stroke-width="1" /><polyline fill="none" opacity="1.0" points="451.0,799.0 451.0,839.0" stroke="#D0D0D0" stroke-width="1" /><polyline fill="none" opacity="1.0" points="257.0,324.0 257.0,343.0" stroke="#F00" stroke-width="1" /><polygon fill="#F00" opacity="1.0" points="255.5247,337.4942 257.0,343.0 258.4753,337.4942" stroke="#F00" stroke-width="1" /><polyline fill="none" opacity="1.0" points="258.0,666.0 258.0,647.0" stroke="#F00" stroke-width="1" /><polygon fill="#F00" opacity="1.0" points="259.4753,652.5058 258.0,647.0 256.5247,652.5058" stroke="#F00" stroke-width="1" /><polyline fill="none" opacity="1.0" points="168.0,343.0 168.0,324.0" stroke="#090" stroke-width="1" /><polygon fill="#090" opacity="1.0" points="169.4753,329.5058 168.0,324.0 166.5247,329.5058" stroke="#090" stroke-width="1" /><polyline fill="none" opacity="1.0" points="168.0,647.0 168.0,666.0" stroke="#090" stroke-width="1" /><polygon fill="#090" opacity="1.0" points="166.5247,660.4942 168.0,666.0 169.4753,660.4942" stroke="#090" stroke-width="1" /><text fill="#00AFAF" font-family="Arial" font-size="15" font-weight="normal" opacity="1.0" transform="rotate(-0.0 1109.0,485.0) translate(0 15)" x="1109.0" y="485.0">проспект Независимости</text><text fill="#00AFAF" font-family="Arial" font-size="15" font-weight="normal" opacity="1.0" transform="rotate(-0.0 1.0,500.0) translate(0 15)" x="1.0" y="500.0">проспект Независимости</text><text fill="#00AFAF" font-family="Arial" font-size="15" font-weight="normal" opacity="1.0" transform="rotate(-0.0 594.0,1070.0) translate(0 15)" x="594.0" y="1070.0">улица Карла Маркса</text><text fill="#00AFAF" font-family="Arial" font-size="15" font-weight="normal" opacity="1.0" transform="rotate(40.0 637.0,72.0) translate(0 15)" x="637.0" y="72.0">Октябрьская площадь</text><text fill="#00AFAF" font-family="Arial" font-size="15" font-weight="normal" opacity="1.0" transform="rotate(90.0 1134.0,698.0) translate(0 15)" x="1134.0" y="698.0">Красноармейская улица</text><text fill="#00AFAF" font-family="Arial" font-size="15" font-weight="normal" opacity="1.0" transform="rotate(90.0 473.0,202.0) translate(0 15)" x="473.0" y="202.0">улица Энгельса</text><text fill="#00AFAF" font-family="Arial" font-size="15" font-weight="normal" opacity="1.0" transform="rotate(90.0 480.0,1234.0) translate(0 15)" x="480.0" y="1234.0">улица Энгельса</text></g></g></svg>