<?xml version="1.0" encoding="utf-8" ?>
<svg baseProfile="tiny" height="810px" version="1.2" width="950px" xmlns="http://www.w3.org/2000/svg" xmlns:ev="http://www.w3.org/2001/xml-events" xmlns:xlink="http://www.w3.org/1999/xlink"><defs /><g><g transform="rotate(-25.0,475.0,405.0)"><polygon fill="#00009F" opacity="100" points="239.0,376.0 239.0,346.0 689.0,346.0 689.0,376.0" stroke="#000" stroke-width="1" /><polygon fill="#00009F" opacity="100" points="239.0,486.0 239.0,456.0 689.0,456.0 689.0,486.0" stroke="#000" stroke-width="1" /><text fill="#00009F" font-family="Arial" font-size="20" font-weight="normal" opacity="100" transform="rotate(-0.0 239.0,322.0) translate(0 20)" x="239.0" y="322.0">&lt;&lt; Академия Наук</text><text fill="#00009F" font-family="Arial" font-size="20" font-weight="normal" opacity="100" transform="rotate(-0.0 561.0,486.0) translate(0 20)" x="561.0" y="486.0">Московская &gt;&gt;</text><text fill="#00009F" font-family="Arial" font-size="25" font-weight="bold" opacity="100" transform="rotate(-0.0 362.0,398.0) translate(0 25)" x="362.0" y="398.0">Парк Челюскинцев</text><polygon fill="#D0D0D0" opacity="100" points="152.0,427.0 162.0,427.0 162.0,404.0 152.0,404.0" stroke="#000" stroke-width="1" /><polygon fill="#D0D0D0" opacity="100" points="761.0,427.0 772.0,427.0 772.0,404.0 761.0,404.0" stroke="#000" stroke-width="1" /><polyline fill="none" opacity="100" points="689.0,376.0 689.0,383.0 761.0,383.0 761.0,391.0 772.0,391.0 772.0,291.0 732.0,291.0" stroke="#000" stroke-width="1" /><polyline fill="none" opacity="100" points="732.0,271.0 850.0,271.0" stroke="#000" stroke-width="1" /><polyline fill="none" opacity="100" points="850.0,291.0 810.0,291.0 810.0,536.0 850.0,536.0" stroke="#000" stroke-width="1" /><polyline fill="none" opacity="100" points="850.0,556.0 732.0,556.0" stroke="#000" stroke-width="1" /><polyline fill="none" opacity="100" points="732.0,536.0 772.0,536.0 772.0,441.0 761.0,441.0 761.0,449.0 689.0,449.0 689.0,456.0" stroke="#000" stroke-width="1" /><polyline fill="none" opacity="100" points="239.0,376.0 239.0,383.0 162.0,383.0 162.0,391.0 152.0,391.0 152.0,271.0 73.0,271.0" stroke="#000" stroke-width="1" /><polyline fill="none" opacity="100" points="73.0,291.0 113.0,291.0 113.0,537.0 73.0,537.0" stroke="#000" stroke-width="1" /><polyline fill="none" opacity="100" points="73.0,557.0 152.0,557.0 152.0,441.0 162.0,441.0 162.0,449.0 239.0,449.0 239.0,456.0" stroke="#000" stroke-width="1" /><polyline fill="none" opacity="100" points="848.0,291.0 848.0,271.0" stroke="#000" stroke-width="1" /><polyline fill="none" opacity="100" points="844.0,291.0 844.0,271.0" stroke="#000" stroke-width="1" /><polyline fill="none" opacity="100" points="840.0,291.0 840.0,271.0" stroke="#000" stroke-width="1" /><polyline fill="none" opacity="100" points="836.0,291.0 836.0,271.0" stroke="#000" stroke-width="1" /><polyline fill="none" opacity="100" points="832.0,291.0 832.0,271.0" stroke="#000" stroke-width="1" /><polyline fill="none" opacity="100" points="828.0,291.0 828.0,271.0" stroke="#000" stroke-width="1" /><polyline fill="none" opacity="100" points="824.0,291.0 824.0,271.0" stroke="#000" stroke-width="1" /><polyline fill="none" opacity="100" points="820.0,291.0 820.0,271.0" stroke="#000" stroke-width="1" /><polyline fill="none" opacity="100" points="816.0,291.0 816.0,271.0" stroke="#000" stroke-width="1" /><polyline fill="none" opacity="100" points="812.0,291.0 812.0,271.0" stroke="#000" stroke-width="1" /><polyline fill="none" opacity="100" points="734.0,291.0 734.0,271.0" stroke="#000" stroke-width="1" /><polyline fill="none" opacity="100" points="738.0,291.0 738.0,271.0" stroke="#000" stroke-width="1" /><polyline fill="none" opacity="100" points="742.0,291.0 742.0,271.0" stroke="#000" stroke-width="1" /><polyline fill="none" opacity="100" points="746.0,291.0 746.0,271.0" stroke="#000" stroke-width="1" /><polyline fill="none" opacity="100" points="750.0,291.0 750.0,271.0" stroke="#000" stroke-width="1" /><polyline fill="none" opacity="100" points="754.0,291.0 754.0,271.0" stroke="#000" stroke-width="1" /><polyline fill="none" opacity="100" points="758.0,291.0 758.0,271.0" stroke="#000" stroke-width="1" /><polyline fill="none" opacity="100" points="762.0,291.0 762.0,271.0" stroke="#000" stroke-width="1" /><polyline fill="none" opacity="100" points="766.0,291.0 766.0,271.0" stroke="#000" stroke-width="1" /><polyline fill="none" opacity="100" points="770.0,291.0 770.0,271.0" stroke="#000" stroke-width="1" /><polyline fill="none" opacity="100" points="848.0,536.0 848.0,556.0" stroke="#000" stroke-width="1" /><polyline fill="none" opacity="100" points="844.0,536.0 844.0,556.0" stroke="#000" stroke-width="1" /><polyline fill="none" opacity="100" points="840.0,536.0 840.0,556.0" stroke="#000" stroke-width="1" /><polyline fill="none" opacity="100" points="836.0,536.0 836.0,556.0" stroke="#000" stroke-width="1" /><polyline fill="none" opacity="100" points="832.0,536.0 832.0,556.0" stroke="#000" stroke-width="1" /><polyline fill="none" opacity="100" points="828.0,536.0 828.0,556.0" stroke="#000" stroke-width="1" /><polyline fill="none" opacity="100" points="824.0,536.0 824.0,556.0" stroke="#000" stroke-width="1" /><polyline fill="none" opacity="100" points="820.0,536.0 820.0,556.0" stroke="#000" stroke-width="1" /><polyline fill="none" opacity="100" points="816.0,536.0 816.0,556.0" stroke="#000" stroke-width="1" /><polyline fill="none" opacity="100" points="812.0,536.0 812.0,556.0" stroke="#000" stroke-width="1" /><polyline fill="none" opacity="100" points="734.0,536.0 734.0,556.0" stroke="#000" stroke-width="1" /><polyline fill="none" opacity="100" points="738.0,536.0 738.0,556.0" stroke="#000" stroke-width="1" /><polyline fill="none" opacity="100" points="742.0,536.0 742.0,556.0" stroke="#000" stroke-width="1" /><polyline fill="none" opacity="100" points="746.0,536.0 746.0,556.0" stroke="#000" stroke-width="1" /><polyline fill="none" opacity="100" points="750.0,536.0 750.0,556.0" stroke="#000" stroke-width="1" /><polyline fill="none" opacity="100" points="754.0,536.0 754.0,556.0" stroke="#000" stroke-width="1" /><polyline fill="none" opacity="100" points="758.0,536.0 758.0,556.0" stroke="#000" stroke-width="1" /><polyline fill="none" opacity="100" points="762.0,536.0 762.0,556.0" stroke="#000" stroke-width="1" /><polyline fill="none" opacity="100" points="766.0,536.0 766.0,556.0" stroke="#000" stroke-width="1" /><polyline fill="none" opacity="100" points="770.0,536.0 770.0,556.0" stroke="#000" stroke-width="1" /><polyline fill="none" opacity="100" points="691.0,383.0 691.0,449.0" stroke="#000" stroke-width="1" /><polyline fill="none" opacity="100" points="695.0,383.0 695.0,449.0" stroke="#000" stroke-width="1" /><polyline fill="none" opacity="100" points="699.0,383.0 699.0,449.0" stroke="#000" stroke-width="1" /><polyline fill="none" opacity="100" points="703.0,383.0 703.0,449.0" stroke="#000" stroke-width="1" /><polyline fill="none" opacity="100" points="707.0,383.0 707.0,449.0" stroke="#000" stroke-width="1" /><polyline fill="none" opacity="100" points="711.0,383.0 711.0,449.0" stroke="#000" stroke-width="1" /><polyline fill="none" opacity="100" points="715.0,383.0 715.0,449.0" stroke="#000" stroke-width="1" /><polyline fill="none" opacity="100" points="719.0,383.0 719.0,449.0" stroke="#000" stroke-width="1" /><polyline fill="none" opacity="100" points="723.0,383.0 723.0,449.0" stroke="#000" stroke-width="1" /><polyline fill="none" opacity="100" points="727.0,383.0 727.0,449.0" stroke="#000" stroke-width="1" /><polyline fill="none" opacity="100" points="731.0,383.0 731.0,449.0" stroke="#000" stroke-width="1" /><polyline fill="none" opacity="100" points="735.0,383.0 735.0,449.0" stroke="#000" stroke-width="1" /><polyline fill="none" opacity="100" points="237.0,383.0 237.0,449.0" stroke="#000" stroke-width="1" /><polyline fill="none" opacity="100" points="233.0,383.0 233.0,449.0" stroke="#000" stroke-width="1" /><polyline fill="none" opacity="100" points="229.0,383.0 229.0,449.0" stroke="#000" stroke-width="1" /><polyline fill="none" opacity="100" points="225.0,383.0 225.0,449.0" stroke="#000" stroke-width="1" /><polyline fill="none" opacity="100" points="221.0,383.0 221.0,449.0" stroke="#000" stroke-width="1" /><polyline fill="none" opacity="100" points="217.0,383.0 217.0,449.0" stroke="#000" stroke-width="1" /><polyline fill="none" opacity="100" points="213.0,383.0 213.0,449.0" stroke="#000" stroke-width="1" /><polyline fill="none" opacity="100" points="209.0,383.0 209.0,449.0" stroke="#000" stroke-width="1" /><polyline fill="none" opacity="100" points="205.0,383.0 205.0,449.0" stroke="#000" stroke-width="1" /><polyline fill="none" opacity="100" points="201.0,383.0 201.0,449.0" stroke="#000" stroke-width="1" /><polyline fill="none" opacity="100" points="197.0,383.0 197.0,449.0" stroke="#000" stroke-width="1" /><polyline fill="none" opacity="100" points="193.0,383.0 193.0,449.0" stroke="#000" stroke-width="1" /><polyline fill="none" opacity="100" points="75.0,291.0 75.0,271.0" stroke="#000" stroke-width="1" /><polyline fill="none" opacity="100" points="79.0,291.0 79.0,271.0" stroke="#000" stroke-width="1" /><polyline fill="none" opacity="100" points="83.0,291.0 83.0,271.0" stroke="#000" stroke-width="1" /><polyline fill="none" opacity="100" points="87.0,291.0 87.0,271.0" stroke="#000" stroke-width="1" /><polyline fill="none" opacity="100" points="91.0,291.0 91.0,271.0" stroke="#000" stroke-width="1" /><polyline fill="none" opacity="100" points="95.0,291.0 95.0,271.0" stroke="#000" stroke-width="1" /><polyline fill="none" opacity="100" points="99.0,291.0 99.0,271.0" stroke="#000" stroke-width="1" /><polyline fill="none" opacity="100" points="103.0,291.0 103.0,271.0" stroke="#000" stroke-width="1" /><polyline fill="none" opacity="100" points="107.0,291.0 107.0,271.0" stroke="#000" stroke-width="1" /><polyline fill="none" opacity="100" points="111.0,291.0 111.0,271.0" stroke="#000" stroke-width="1" /><polyline fill="none" opacity="100" points="75.0,537.0 75.0,557.0" stroke="#000" stroke-width="1" /><polyline fill="none" opacity="100" points="79.0,537.0 79.0,557.0" stroke="#000" stroke-width="1" /><polyline fill="none" opacity="100" points="83.0,537.0 83.0,557.0" stroke="#000" stroke-width="1" /><polyline fill="none" opacity="100" points="87.0,537.0 87.0,557.0" stroke="#000" stroke-width="1" /><polyline fill="none" opacity="100" points="91.0,537.0 91.0,557.0" stroke="#000" stroke-width="1" /><polyline fill="none" opacity="100" points="95.0,537.0 95.0,557.0" stroke="#000" stroke-width="1" /><polyline fill="none" opacity="100" points="99.0,537.0 99.0,557.0" stroke="#000" stroke-width="1" /><polyline fill="none" opacity="100" points="103.0,537.0 103.0,557.0" stroke="#000" stroke-width="1" /><polyline fill="none" opacity="100" points="107.0,537.0 107.0,557.0" stroke="#000" stroke-width="1" /><polyline fill="none" opacity="100" points="111.0,537.0 111.0,557.0" stroke="#000" stroke-width="1" /><polyline fill="none" opacity="100" points="164.0,397.0 148.0,397.0" stroke="#F00" stroke-width="1" /><polygon fill="#F00" opacity="100" points="152.6364,395.7577 148.0,397.0 152.6364,398.2423" stroke="#F00" stroke-width="1" /><polyline fill="none" opacity="100" points="759.0,434.0 777.0,434.0" stroke="#F00" stroke-width="1" /><polygon fill="#F00" opacity="100" points="771.784,435.3976 777.0,434.0 771.784,432.6024" stroke="#F00" stroke-width="1" /><polyline fill="none" opacity="100" points="775.0,398.0 756.0,398.0" stroke="#090" stroke-width="1" /><polygon fill="#090" opacity="100" points="761.5058,396.5247 756.0,398.0 761.5058,399.4753" stroke="#090" stroke-width="1" /><polyline fill="none" opacity="100" points="150.0,434.0 166.0,434.0" stroke="#090" stroke-width="1" /><polygon fill="#090" opacity="100" points="161.3636,435.2423 166.0,434.0 161.3636,432.7577" stroke="#090" stroke-width="1" /><text fill="#00AFAF" font-family="Arial" font-size="15" font-weight="normal" opacity="100" transform="rotate(-0.0 851.0,399.0) translate(0 15)" x="851.0" y="399.0">пр.Независимости</text><text fill="#00AFAF" font-family="Arial" font-size="15" font-weight="normal" opacity="100" transform="rotate(-0.0 -26.0,399.0) translate(0 15)" x="-26.0" y="399.0">пр.Независимости</text><text fill="#00AFAF" font-family="Arial" font-size="15" font-weight="normal" opacity="100" transform="rotate(90.0 719.0,155.0) translate(0 15)" x="719.0" y="155.0">ул.Толбухина</text><text fill="#00AFAF" font-family="Arial" font-size="15" font-weight="normal" opacity="100" transform="rotate(90.0 880.0,157.0) translate(0 15)" x="880.0" y="157.0">ул.Толбухина</text><text fill="#00AFAF" font-family="Arial" font-size="15" font-weight="normal" opacity="100" transform="rotate(-0.0 727.0,581.0) translate(0 15)" x="727.0" y="581.0">парк имени Челюскинцев</text><polyline fill="none" opacity="100" points="805.0,602.0 805.0,630.0" stroke="#00AFAF" stroke-width="1" /><polygon fill="#00AFAF" opacity="100" points="802.8259,621.8862 805.0,630.0 807.1741,621.8862" stroke="#00AFAF" stroke-width="1" /><text fill="#00AFAF" font-family="Arial" font-size="15" font-weight="normal" opacity="100" transform="rotate(-0.0 3.0,579.0) translate(0 15)" x="3.0" y="579.0">ботанический сад</text><polyline fill="none" opacity="100" points="76.0,599.0 -23.0,599.0" stroke="#00AFAF" stroke-width="1" /><polygon fill="#00AFAF" opacity="100" points="5.688,591.3131 -23.0,599.0 5.688,606.6869" stroke="#00AFAF" stroke-width="1" /></g></g></svg>