<?xml version="1.0" encoding="utf-8" ?>
<svg baseProfile="tiny" height="870px" version="1.2" width="1150px" xmlns="http://www.w3.org/2000/svg" xmlns:ev="http://www.w3.org/2001/xml-events" xmlns:xlink="http://www.w3.org/1999/xlink"><defs /><g><g transform="rotate(-23.0,575.0,435.0)"><polygon fill="#00009F" opacity="100" points="295.0,413.0 295.0,383.0 745.0,383.0 745.0,413.0" stroke="#000" stroke-width="1" /><polygon fill="#00009F" opacity="100" points="295.0,523.0 295.0,493.0 745.0,493.0 745.0,523.0" stroke="#000" stroke-width="1" /><text fill="#00009F" font-family="Arial" font-size="25" font-weight="bold" opacity="100" transform="rotate(-0.0 471.0,435.0) translate(0 25)" x="471.0" y="435.0">Восток</text><text fill="#00009F" font-family="Arial" font-size="20" font-weight="normal" opacity="100" transform="rotate(-0.0 553.0,523.0) translate(0 20)" x="553.0" y="523.0">Борисовский тракт &gt;&gt;</text><text fill="#00009F" font-family="Arial" font-size="20" font-weight="normal" opacity="100" transform="rotate(-0.0 298.0,359.0) translate(0 20)" x="298.0" y="359.0">&lt;&lt; Московская</text><polyline fill="none" opacity="100" points="745.0,413.0 745.0,423.0 818.0,423.0 818.0,432.0 828.0,432.0 828.0,332.0 788.0,332.0" stroke="#000" stroke-width="1" /><polyline fill="none" opacity="100" points="788.0,314.0 912.0,314.0" stroke="#000" stroke-width="1" /><polyline fill="none" opacity="100" points="912.0,332.0 872.0,332.0 872.0,437.0 882.0,437.0 882.0,462.0 872.0,462.0 872.0,577.0 893.0,577.0" stroke="#000" stroke-width="1" /><polyline fill="none" opacity="100" points="893.0,595.0 807.0,595.0" stroke="#000" stroke-width="1" /><polyline fill="none" opacity="100" points="807.0,577.0 828.0,577.0 828.0,474.0 818.0,474.0 818.0,483.0 745.0,483.0 745.0,493.0" stroke="#000" stroke-width="1" /><polyline fill="none" opacity="100" points="790.0,332.0 790.0,314.0" stroke="#000" stroke-width="1" /><polyline fill="none" opacity="100" points="794.0,332.0 794.0,314.0" stroke="#000" stroke-width="1" /><polyline fill="none" opacity="100" points="798.0,332.0 798.0,314.0" stroke="#000" stroke-width="1" /><polyline fill="none" opacity="100" points="802.0,332.0 802.0,314.0" stroke="#000" stroke-width="1" /><polyline fill="none" opacity="100" points="806.0,332.0 806.0,314.0" stroke="#000" stroke-width="1" /><polyline fill="none" opacity="100" points="810.0,332.0 810.0,314.0" stroke="#000" stroke-width="1" /><polyline fill="none" opacity="100" points="814.0,332.0 814.0,314.0" stroke="#000" stroke-width="1" /><polyline fill="none" opacity="100" points="818.0,332.0 818.0,314.0" stroke="#000" stroke-width="1" /><polyline fill="none" opacity="100" points="822.0,332.0 822.0,314.0" stroke="#000" stroke-width="1" /><polyline fill="none" opacity="100" points="826.0,332.0 826.0,314.0" stroke="#000" stroke-width="1" /><polyline fill="none" opacity="100" points="910.0,332.0 910.0,314.0" stroke="#000" stroke-width="1" /><polyline fill="none" opacity="100" points="906.0,332.0 906.0,314.0" stroke="#000" stroke-width="1" /><polyline fill="none" opacity="100" points="902.0,332.0 902.0,314.0" stroke="#000" stroke-width="1" /><polyline fill="none" opacity="100" points="898.0,332.0 898.0,314.0" stroke="#000" stroke-width="1" /><polyline fill="none" opacity="100" points="894.0,332.0 894.0,314.0" stroke="#000" stroke-width="1" /><polyline fill="none" opacity="100" points="890.0,332.0 890.0,314.0" stroke="#000" stroke-width="1" /><polyline fill="none" opacity="100" points="886.0,332.0 886.0,314.0" stroke="#000" stroke-width="1" /><polyline fill="none" opacity="100" points="882.0,332.0 882.0,314.0" stroke="#000" stroke-width="1" /><polyline fill="none" opacity="100" points="878.0,332.0 878.0,314.0" stroke="#000" stroke-width="1" /><polyline fill="none" opacity="100" points="874.0,332.0 874.0,314.0" stroke="#000" stroke-width="1" /><polyline fill="none" opacity="100" points="891.0,577.0 891.0,595.0" stroke="#000" stroke-width="1" /><polyline fill="none" opacity="100" points="887.0,577.0 887.0,595.0" stroke="#000" stroke-width="1" /><polyline fill="none" opacity="100" points="883.0,577.0 883.0,595.0" stroke="#000" stroke-width="1" /><polyline fill="none" opacity="100" points="879.0,577.0 879.0,595.0" stroke="#000" stroke-width="1" /><polyline fill="none" opacity="100" points="875.0,577.0 875.0,595.0" stroke="#000" stroke-width="1" /><polyline fill="none" opacity="100" points="809.0,577.0 809.0,595.0" stroke="#000" stroke-width="1" /><polyline fill="none" opacity="100" points="813.0,577.0 813.0,595.0" stroke="#000" stroke-width="1" /><polyline fill="none" opacity="100" points="817.0,577.0 817.0,595.0" stroke="#000" stroke-width="1" /><polyline fill="none" opacity="100" points="821.0,577.0 821.0,595.0" stroke="#000" stroke-width="1" /><polyline fill="none" opacity="100" points="825.0,577.0 825.0,595.0" stroke="#000" stroke-width="1" /><polyline fill="none" opacity="100" points="747.0,483.0 747.0,423.0" stroke="#000" stroke-width="1" /><polyline fill="none" opacity="100" points="751.0,483.0 751.0,423.0" stroke="#000" stroke-width="1" /><polyline fill="none" opacity="100" points="755.0,483.0 755.0,423.0" stroke="#000" stroke-width="1" /><polyline fill="none" opacity="100" points="759.0,483.0 759.0,423.0" stroke="#000" stroke-width="1" /><polyline fill="none" opacity="100" points="763.0,483.0 763.0,423.0" stroke="#000" stroke-width="1" /><polyline fill="none" opacity="100" points="767.0,483.0 767.0,423.0" stroke="#000" stroke-width="1" /><polyline fill="none" opacity="100" points="771.0,483.0 771.0,423.0" stroke="#000" stroke-width="1" /><polyline fill="none" opacity="100" points="775.0,483.0 775.0,423.0" stroke="#000" stroke-width="1" /><polyline fill="none" opacity="100" points="779.0,483.0 779.0,423.0" stroke="#000" stroke-width="1" /><polyline fill="none" opacity="100" points="783.0,483.0 783.0,423.0" stroke="#000" stroke-width="1" /><polyline fill="none" opacity="100" points="787.0,483.0 787.0,423.0" stroke="#000" stroke-width="1" /><polyline fill="none" opacity="100" points="791.0,483.0 791.0,423.0" stroke="#000" stroke-width="1" /><polyline fill="none" opacity="100" points="828.0,558.0 872.0,558.0" stroke="#000" stroke-width="1" /><polyline fill="none" opacity="100" points="828.0,554.0 872.0,554.0" stroke="#000" stroke-width="1" /><polyline fill="none" opacity="100" points="828.0,550.0 872.0,550.0" stroke="#000" stroke-width="1" /><polyline fill="none" opacity="100" points="828.0,546.0 872.0,546.0" stroke="#000" stroke-width="1" /><polyline fill="none" opacity="100" points="828.0,542.0 872.0,542.0" stroke="#000" stroke-width="1" /><polygon fill="#D0D0D0" opacity="100" points="818.0,445.0 828.0,445.0 828.0,458.0 818.0,458.0" stroke="#000" stroke-width="1" /><polygon fill="#D0D0D0" opacity="100" points="872.0,437.0 882.0,437.0 882.0,474.0 872.0,474.0" stroke="#000" stroke-width="1" /><polyline fill="none" opacity="100" points="872.0,462.0 882.0,462.0" stroke="#000" stroke-width="1" /><polyline fill="none" opacity="100" points="807.0,466.0 834.0,466.0" stroke="#F00" stroke-width="1" /><polygon fill="#F00" opacity="100" points="826.176,468.0964 834.0,466.0 826.176,463.9036" stroke="#F00" stroke-width="1" /><polyline fill="none" opacity="100" points="833.0,438.0 806.0,438.0" stroke="#090" stroke-width="1" /><polygon fill="#090" opacity="100" points="813.824,435.9036 806.0,438.0 813.824,440.0964" stroke="#090" stroke-width="1" /><polyline fill="none" opacity="100" points="248.0,577.0 212.0,577.0 212.0,474.0 223.0,474.0 223.0,483.0 295.0,483.0 295.0,493.0" stroke="#000" stroke-width="1" /><polyline fill="none" opacity="100" points="295.0,413.0 295.0,423.0 223.0,423.0 223.0,432.0 213.0,432.0 213.0,332.0 253.0,332.0" stroke="#000" stroke-width="1" /><polyline fill="none" opacity="100" points="253.0,314.0 129.0,314.0" stroke="#000" stroke-width="1" /><polyline fill="none" opacity="100" points="129.0,332.0 169.0,332.0 169.0,577.0 129.0,577.0" stroke="#000" stroke-width="1" /><polyline fill="none" opacity="100" points="129.0,595.0 248.0,595.0" stroke="#000" stroke-width="1" /><polyline fill="none" opacity="100" points="131.0,577.0 131.0,595.0" stroke="#000" stroke-width="1" /><polyline fill="none" opacity="100" points="135.0,577.0 135.0,595.0" stroke="#000" stroke-width="1" /><polyline fill="none" opacity="100" points="139.0,577.0 139.0,595.0" stroke="#000" stroke-width="1" /><polyline fill="none" opacity="100" points="143.0,577.0 143.0,595.0" stroke="#000" stroke-width="1" /><polyline fill="none" opacity="100" points="147.0,577.0 147.0,595.0" stroke="#000" stroke-width="1" /><polyline fill="none" opacity="100" points="151.0,577.0 151.0,595.0" stroke="#000" stroke-width="1" /><polyline fill="none" opacity="100" points="155.0,577.0 155.0,595.0" stroke="#000" stroke-width="1" /><polyline fill="none" opacity="100" points="159.0,577.0 159.0,595.0" stroke="#000" stroke-width="1" /><polyline fill="none" opacity="100" points="163.0,577.0 163.0,595.0" stroke="#000" stroke-width="1" /><polyline fill="none" opacity="100" points="167.0,577.0 167.0,595.0" stroke="#000" stroke-width="1" /><polyline fill="none" opacity="100" points="246.0,577.0 246.0,595.0" stroke="#000" stroke-width="1" /><polyline fill="none" opacity="100" points="242.0,577.0 242.0,595.0" stroke="#000" stroke-width="1" /><polyline fill="none" opacity="100" points="238.0,577.0 238.0,595.0" stroke="#000" stroke-width="1" /><polyline fill="none" opacity="100" points="234.0,577.0 234.0,595.0" stroke="#000" stroke-width="1" /><polyline fill="none" opacity="100" points="230.0,577.0 230.0,595.0" stroke="#000" stroke-width="1" /><polyline fill="none" opacity="100" points="226.0,577.0 226.0,595.0" stroke="#000" stroke-width="1" /><polyline fill="none" opacity="100" points="222.0,577.0 222.0,595.0" stroke="#000" stroke-width="1" /><polyline fill="none" opacity="100" points="218.0,577.0 218.0,595.0" stroke="#000" stroke-width="1" /><polyline fill="none" opacity="100" points="214.0,577.0 214.0,595.0" stroke="#000" stroke-width="1" /><polyline fill="none" opacity="100" points="251.0,332.0 251.0,314.0" stroke="#000" stroke-width="1" /><polyline fill="none" opacity="100" points="247.0,332.0 247.0,314.0" stroke="#000" stroke-width="1" /><polyline fill="none" opacity="100" points="243.0,332.0 243.0,314.0" stroke="#000" stroke-width="1" /><polyline fill="none" opacity="100" points="239.0,332.0 239.0,314.0" stroke="#000" stroke-width="1" /><polyline fill="none" opacity="100" points="235.0,332.0 235.0,314.0" stroke="#000" stroke-width="1" /><polyline fill="none" opacity="100" points="231.0,332.0 231.0,314.0" stroke="#000" stroke-width="1" /><polyline fill="none" opacity="100" points="227.0,332.0 227.0,314.0" stroke="#000" stroke-width="1" /><polyline fill="none" opacity="100" points="223.0,332.0 223.0,314.0" stroke="#000" stroke-width="1" /><polyline fill="none" opacity="100" points="219.0,332.0 219.0,314.0" stroke="#000" stroke-width="1" /><polyline fill="none" opacity="100" points="215.0,332.0 215.0,314.0" stroke="#000" stroke-width="1" /><polyline fill="none" opacity="100" points="131.0,332.0 131.0,314.0" stroke="#000" stroke-width="1" /><polyline fill="none" opacity="100" points="135.0,332.0 135.0,314.0" stroke="#000" stroke-width="1" /><polyline fill="none" opacity="100" points="139.0,332.0 139.0,314.0" stroke="#000" stroke-width="1" /><polyline fill="none" opacity="100" points="143.0,332.0 143.0,314.0" stroke="#000" stroke-width="1" /><polyline fill="none" opacity="100" points="147.0,332.0 147.0,314.0" stroke="#000" stroke-width="1" /><polyline fill="none" opacity="100" points="151.0,332.0 151.0,314.0" stroke="#000" stroke-width="1" /><polyline fill="none" opacity="100" points="155.0,332.0 155.0,314.0" stroke="#000" stroke-width="1" /><polyline fill="none" opacity="100" points="159.0,332.0 159.0,314.0" stroke="#000" stroke-width="1" /><polyline fill="none" opacity="100" points="163.0,332.0 163.0,314.0" stroke="#000" stroke-width="1" /><polyline fill="none" opacity="100" points="167.0,332.0 167.0,314.0" stroke="#000" stroke-width="1" /><polyline fill="none" opacity="100" points="293.0,483.0 293.0,423.0" stroke="#000" stroke-width="1" /><polyline fill="none" opacity="100" points="289.0,483.0 289.0,423.0" stroke="#000" stroke-width="1" /><polyline fill="none" opacity="100" points="285.0,483.0 285.0,423.0" stroke="#000" stroke-width="1" /><polyline fill="none" opacity="100" points="281.0,483.0 281.0,423.0" stroke="#000" stroke-width="1" /><polyline fill="none" opacity="100" points="277.0,483.0 277.0,423.0" stroke="#000" stroke-width="1" /><polyline fill="none" opacity="100" points="273.0,483.0 273.0,423.0" stroke="#000" stroke-width="1" /><polyline fill="none" opacity="100" points="269.0,483.0 269.0,423.0" stroke="#000" stroke-width="1" /><polyline fill="none" opacity="100" points="265.0,483.0 265.0,423.0" stroke="#000" stroke-width="1" /><polyline fill="none" opacity="100" points="261.0,483.0 261.0,423.0" stroke="#000" stroke-width="1" /><polyline fill="none" opacity="100" points="257.0,483.0 257.0,423.0" stroke="#000" stroke-width="1" /><polyline fill="none" opacity="100" points="253.0,483.0 253.0,423.0" stroke="#000" stroke-width="1" /><polyline fill="none" opacity="100" points="249.0,483.0 249.0,423.0" stroke="#000" stroke-width="1" /><polygon fill="#D0D0D0" opacity="100" points="213.0,445.0 224.0,445.0 224.0,458.0 213.0,458.0" stroke="#000" stroke-width="1" /><polyline fill="none" opacity="100" points="228.0,438.0 206.0,438.0" stroke="#F00" stroke-width="1" /><polygon fill="#F00" opacity="100" points="212.3751,436.2918 206.0,438.0 212.3751,439.7082" stroke="#F00" stroke-width="1" /><polyline fill="none" opacity="100" points="206.0,466.0 230.0,466.0" stroke="#090" stroke-width="1" /><polygon fill="#090" opacity="100" points="223.0453,467.8635 230.0,466.0 223.0453,464.1365" stroke="#090" stroke-width="1" /><text fill="#00AFAF" font-family="Arial" font-size="15" font-weight="normal" opacity="100" transform="rotate(-0.0 915.0,442.0) translate(0 15)" x="915.0" y="442.0">проспект Независимости</text><text fill="#00AFAF" font-family="Arial" font-size="15" font-weight="normal" opacity="100" transform="rotate(-0.0 -10.0,439.0) translate(0 15)" x="-10.0" y="439.0">проспект Независимости</text><text fill="#00AFAF" font-family="Arial" font-size="15" font-weight="normal" opacity="100" transform="rotate(90.0 1209.0,247.0) translate(0 15)" x="1209.0" y="247.0">ул. Калиновского</text><text fill="#00AFAF" font-family="Arial" font-size="15" font-weight="normal" opacity="100" transform="rotate(-0.0 -54.0,565.0) translate(0 15)" x="-54.0" y="565.0">Национальная библиотека</text><text fill="#00AFAF" font-family="Arial" font-size="15" font-weight="normal" opacity="100" transform="rotate(-0.0 376.0,587.0) translate(0 15)" x="376.0" y="587.0">Посадка на транспорт в направлении\nЗеленого Луга и Уручья в т.ч. на\nпригородные и междугородные автобусы\nМосковского и Витебского направлений</text><polyline fill="none" opacity="100" points="123.0,586.0 67.0,586.0" stroke="#00AFAF" stroke-width="1" /><polygon fill="#00AFAF" opacity="100" points="83.2276,581.6518 67.0,586.0 83.2276,590.3482" stroke="#00AFAF" stroke-width="1" /></g></g></svg>