<?xml version="1.0" encoding="utf-8" ?>
<svg baseProfile="tiny" height="1395px" version="1.2" width="1275px" xmlns="http://www.w3.org/2000/svg" xmlns:ev="http://www.w3.org/2001/xml-events" xmlns:xlink="http://www.w3.org/1999/xlink"><defs /><g><text fill="#0404A4" font-family="Arial" font-size="28" font-weight="bold" opacity="100" x="15.8" y="30.2">Lyon</text><text fill="#0404A4" font-family="Arial" font-size="10" font-weight="normal" opacity="100" x="18.5" y="44.0">(Attention! All time intervals in this version equal 2 minutes)</text><text fill="#0404A4" font-family="Arial" font-size="20" font-weight="normal" opacity="100" x="17.0" y="1058.0">Metro</text><text fill="#0404A4" font-family="Arial" font-size="20" font-weight="normal" opacity="100" x="17.0" y="1123.0">Funicular</text><text fill="#0404A4" font-family="Arial" font-size="20" font-weight="normal" opacity="100" x="17.0" y="1188.0">Tram</text><text fill="#0404A4" font-family="Arial" font-size="20" font-weight="normal" opacity="100" x="17.0" y="1253.0">Trolleybus</text><polyline fill="none" opacity="100" points="455.0,1315.0 455.0,260.0" stroke="#C7EAFB" stroke-width="50" /><polyline fill="none" opacity="100" points="585.0,115.0 830.0,25.0" stroke="#C7EAFB" stroke-width="50" /><polyline fill="none" opacity="100" points="455.0,260.0 459.1406,247.3047 463.8125,235.0938 469.0156,223.3672 474.75,212.125 481.0156,201.3672 487.8125,191.0938 495.1406,181.3047 503.0,172.0 511.3906,163.1797 520.3125,154.8438 529.7656,146.9922 539.75,139.625 550.2656,132.7422 561.3125,126.3438 572.8906,120.4297 585.0,115.0" stroke="#C7EAFB" stroke-width="50" /><polyline fill="none" opacity="100" points="260.0,975.0 260.0,195.0" stroke="#C7EAFB" stroke-width="50" /><polyline fill="none" opacity="100" points="260.0,195.0 257.1641,187.9141 253.7812,181.0312 249.8347,174.3518 245.375,167.875 240.5032,161.5994 235.0508,155.5273 228.9673,149.6597 222.0,144.0 213.6772,138.5552 204.6055,133.3164 195.189,128.2778 185.5625,123.4375 175.9282,118.7925 166.4883,114.3398 157.3774,110.0776 149.0,106.0 141.9624,102.0981 135.793,98.3789 130.239,94.8459 125.25,91.5 120.6575,88.3435 116.5625,85.375 113.0156,82.5938 110.0,80.0" stroke="#C7EAFB" stroke-width="50" /><polyline fill="none" opacity="100" points="455.0,1130.0 433.5547,1131.6797 413.3438,1131.8438 394.3672,1130.4922 376.625,1127.625 360.1172,1123.2422 344.8438,1117.3438 330.8047,1109.9297 318.0,1101.0 306.4297,1090.5547 296.0938,1078.5938 286.9922,1065.1172 279.125,1050.125 272.4922,1033.6172 267.0938,1015.5938 262.9297,996.0547 260.0,975.0" stroke="#C7EAFB" stroke-width="50" /><polyline fill="none" opacity="100" points="764.0,53.0 706.0,74.0" stroke="#FFF" stroke-width="2" /><polygon fill="#FFF" opacity="100" points="721.1765,63.4112 706.0,74.0 724.4377,72.4181" stroke="#FFF" stroke-width="2" /><polyline fill="none" opacity="100" points="260.0,890.0 260.0,940.0" stroke="#FFF" stroke-width="2" /><polygon fill="#FFF" opacity="100" points="256.1177,925.5111 260.0,940.0 263.8823,925.5111" stroke="#FFF" stroke-width="2" /><polyline fill="none" opacity="100" points="458.0,1204.0 459.0,1262.0" stroke="#FFF" stroke-width="2" /><polygon fill="#FFF" opacity="100" points="454.2068,1245.2705 459.0,1262.0 463.2137,1245.1152" stroke="#FFF" stroke-width="2" /><text fill="#FFF" font-family="Arial" font-size="24" font-weight="normal" opacity="100" transform="rotate(-25.0 773.0,38.0) translate(0 24)" x="773.0" y="38.0">Rhone</text><text fill="#FFF" font-family="Arial" font-size="24" font-weight="normal" opacity="100" transform="rotate(-90.0 245.0,850.0) translate(0 24)" x="245.0" y="850.0">Saone</text><text fill="#FFF" font-family="Arial" font-size="24" font-weight="normal" opacity="100" transform="rotate(-90.0 440.0,1174.0) translate(0 24)" x="440.0" y="1174.0">Rhone</text><text fill="#EE1C23" font-family="Arial" font-size="12" font-weight="bold" opacity="100" x="58.2" y="1076.8">A</text><text fill="#00A1E4" font-family="Arial" font-size="12" font-weight="bold" opacity="100" x="119.2" y="1076.8">B</text><text fill="#FDBB30" font-family="Arial" font-size="12" font-weight="bold" opacity="100" x="180.2" y="1076.8">C</text><text fill="#00A54F" font-family="Arial" font-size="12" font-weight="bold" opacity="100" x="241.2" y="1076.8">D</text><text fill="#E07A20" font-family="Arial" font-size="12" font-weight="bold" opacity="100" x="68.2" y="1271.8">C1</text><text fill="#9B0059" font-family="Arial" font-size="12" font-weight="bold" opacity="100" x="135.2" y="1271.8">C3</text><text fill="#006991" font-family="Arial" font-size="12" font-weight="bold" opacity="100" x="68.2" y="1206.8">T1</text><text fill="#006834" font-family="Arial" font-size="12" font-weight="bold" opacity="100" x="134.2" y="1206.8">T2</text><text fill="#00A9A7" font-family="Arial" font-size="12" font-weight="bold" opacity="100" x="200.2" y="1206.8">T3</text><text fill="#45B969" font-family="Arial" font-size="12" font-weight="bold" opacity="100" x="68.2" y="1141.8">F1</text><text fill="#45B969" font-family="Arial" font-size="12" font-weight="bold" opacity="100" x="134.2" y="1141.8">F2</text></g></svg>