<?xml version="1.0" encoding="utf-8" ?>
<svg baseProfile="tiny" height="700px" version="1.2" width="670px" xmlns="http://www.w3.org/2000/svg" xmlns:ev="http://www.w3.org/2001/xml-events" xmlns:xlink="http://www.w3.org/1999/xlink"><defs /><g><text fill="#0404A4" font-family="Arial" font-size="20" font-weight="bold" opacity="100" x="493.0" y="442.0">Pyongyang Metro</text><text fill="#0404A4" font-family="Arial" font-size="20" font-weight="bold" opacity="100" x="493.0" y="462.0">Construction Plan</text><text fill="#0404A4" font-family="Arial" font-size="10" font-weight="normal" opacity="100" x="428.5" y="472.0">(Attention! All time intervals in this version equal 2 minutes)</text><polyline fill="none" opacity="100" points="6.0,595.0 11.2188,591.9688 16.625,589.125 22.2209,586.4622 28.0,584.0 33.949,581.7781 40.0898,579.7305 46.4292,577.8374 53.0,576.0 59.8638,574.0337 66.9414,572.1758 74.1892,570.5994 81.5625,569.3125 88.9807,568.3049 96.5078,567.8047 104.1533,567.9092 112.0,569.0 120.2217,571.7314 128.5547,575.3828 136.7983,579.4985 144.9375,583.9375 152.9868,588.4507 160.6562,592.9062 167.8164,597.207 174.0,601.0 178.4102,603.7695 181.9062,605.9062 185.0432,607.6194 187.9375,608.9375 190.7908,609.9802 193.9023,610.6836 197.4253,611.0073 202.0,611.0 208.6567,610.731 216.3789,610.0977 224.5476,609.0156 233.0,607.5 241.4036,605.5977 249.6484,603.1289 257.6553,600.0239 265.0,596.0 271.0557,590.5581 276.3516,584.2773 281.1838,577.5371 285.625,570.4375 289.8689,563.1387 293.8477,555.8398 297.5356,548.6558 301.0,542.0 304.312,536.52 307.4336,531.6289 310.3477,526.989 313.0625,522.5 315.5781,517.9309 317.9023,513.3359 320.0464,508.7217 322.0,504.0 323.7388,499.083 325.3164,493.9766 326.7761,488.6523 328.125,483.125 329.3625,477.4648 330.5547,471.4766 331.7334,465.0752 333.0,458.0 334.5244,449.792 336.1328,440.9609 337.708,431.8323 339.25,422.5 340.7607,413.1267 342.1172,403.832 343.2725,394.6938 344.0,386.0 343.9072,378.1851 343.4453,370.8867 342.9075,363.8994 342.375,357.1875 341.9812,350.6436 341.8633,344.2773 342.104,338.0972 343.0,332.0 345.0093,325.8286 347.7305,319.7539 350.9412,313.884 354.5625,308.25 358.4084,302.907 362.5781,297.8906 367.0996,293.2246 372.0,289.0 377.377,285.3535 383.0469,282.1719 388.8762,279.3987 394.8125,277.0 400.7937,274.8962 406.7148,273.168 412.5073,271.8413 418.0,271.0 422.9341,270.811 427.5039,271.0508 431.8074,271.5662 435.875,272.3125 439.8,273.2288 443.4922,274.2109 446.9131,275.1982 450.0,276.0 452.626,276.3174 454.9453,276.4141 457.0571,276.4404 459.0,276.4375 460.8374,276.5049 462.5938,276.6172 464.293,276.7686 466.0,277.0 467.8008,277.3564 469.6562,277.8203 471.5525,278.3882 473.5,279.0625 475.4963,279.8345 477.5664,280.7344 479.731,281.7793 482.0,283.0 484.3823,284.4473 486.9023,286.0781 489.5881,287.8718 492.4375,289.8125 495.4294,291.8645 498.6484,294.0664 502.1318,296.4302 506.0,299.0 510.4619,301.8628 515.2891,304.9023 520.3362,308.0398 525.5625,311.25 530.8962,314.4973 536.2852,317.7344 541.6958,320.9316 547.0,324.0 552.0034,326.8027 556.8711,329.4531 561.6982,332.0154 566.5,334.5 571.3213,336.9397 576.168,339.332 581.0405,341.6743 586.0,344.0 591.1431,346.3608 596.3633,348.6992 601.5933,350.9785 606.8125,353.1875 611.9849,355.3066 617.0898,357.3242 622.1128,359.2319 627.0,361.0 631.6724,362.5845 636.1914,364.0195 640.5901,365.3235 644.875,366.5 649.0681,367.5613 653.1562,368.5 657.1328,369.3125 661.0,370.0" stroke="#B4E3EB" stroke-width="15" /><polyline fill="none" opacity="100" points="33.0,593.0 28.2578,595.3203 23.9062,597.6562 19.9446,600.0125 16.375,602.375 13.2019,604.7161 10.418,607.082 8.021,609.4868 6.0,612.0 4.3345,614.7515 3.0508,617.5742 2.1638,620.3555 1.6875,623.0625 1.6467,625.6484 2.0234,628.043 2.8154,630.2046 4.0,632.0 5.5283,633.2212 7.4766,634.0508 9.9126,634.5864 12.8125,634.875 16.1147,635.0229 20.0,634.9492 24.5352,634.6304 30.0,634.0 36.8945,632.9126 44.625,631.582 52.802,630.1624 61.3125,628.6875 69.9773,627.1912 78.6055,625.8281 87.0796,624.6777 95.0,624.0 101.7524,624.2207 107.8633,624.9219 113.6313,625.8501 119.125,626.9375 124.5249,628.0444 129.793,629.1328 134.9155,630.1729 140.0,631.0 145.1899,631.374 150.3633,631.4922 155.4441,631.4644 160.4375,631.3125 165.343,631.1021 170.1016,630.8125 174.6963,630.4336 179.0,630.0 182.7881,629.5586 186.3359,629.0625 189.8337,628.4771 193.3125,627.8125 196.8088,627.0894 200.4961,626.2422 204.4565,625.249 209.0,624.0 214.6411,622.2979 220.8477,620.3828 227.2871,618.4226 233.875,616.4375 240.4512,614.4465 246.9102,612.6211 253.188,611.0386 259.0,610.0 263.9097,610.0122 268.3086,610.5352 272.4282,611.2339 276.3125,612.0 280.0718,612.6333 283.7383,613.0742 287.3267,613.2671 291.0,613.0 295.0132,611.979 299.1055,610.3945 303.1101,608.3232 307.0,605.8125 310.7239,603.0088 314.1875,599.6914 317.3477,595.77 320.0,591.0 321.8086,584.9292 323.125,578.0898 324.1694,570.8323 325.0,563.25 325.7251,555.49 326.4141,547.7422 327.1104,540.1162 328.0,533.0 329.3662,527.001 330.9609,521.5703 332.6411,516.3894 334.375,511.375 336.0815,506.3313 337.7656,501.2773 339.4277,496.2104 341.0,491.0 342.3848,485.4731 343.6719,479.7539 344.9124,473.8989 346.125,467.9375 347.3513,461.9526 348.5742,455.8398 349.7905,449.5581 351.0,443.0 352.1899,435.9614 353.3945,428.6914 354.6387,421.356 355.9375,414.0 357.3105,406.6909 358.7695,399.5273 360.3267,392.5659 362.0,386.0 363.8101,380.1333 365.7617,374.6914 367.8652,369.5125 370.125,364.5625 372.5371,359.759 375.1367,355.0859 377.9429,350.5342 381.0,346.0 384.3813,341.3252 388.0195,336.6641 391.8809,332.105 395.9375,327.6875 400.1309,323.4927 404.5195,319.4844 409.1196,315.6582 414.0,312.0 419.2983,308.459 424.8242,305.1406 430.446,302.1313 436.125,299.4375 441.8098,297.0444 447.4062,295.1016 452.8594,293.6768 458.0,293.0 462.5625,293.4639 466.7812,294.6484 470.7888,296.292 474.625,298.3125 478.385,300.5596 482.0352,302.9766 485.5669,305.5166 489.0,308.0 492.3433,310.1709 495.6211,312.2109 498.8584,314.2109 502.0625,316.1875 505.2314,318.2109 508.418,320.2109 511.6499,322.1514 515.0,324.0 518.5884,325.6924 522.3008,327.2891 526.0691,328.8259 529.875,330.3125 533.679,331.7698 537.4766,333.1992 541.2627,334.603 545.0,336.0 548.6357,337.4165 552.2109,338.832 555.7483,340.2366 559.25,341.625 562.7263,342.9841 566.1758,344.3281 569.5962,345.6621 573.0,347.0 576.4077,348.3691 579.793,349.7344 583.1367,351.0708 586.4375,352.375 589.6953,353.644 592.8867,354.8516 596.0015,355.9854 599.0,357.0 601.8149,357.8193 604.5195,358.5234 607.1604,359.1624 609.75,359.75 612.3103,360.3123 614.8594,360.8633 617.4082,361.4126 620.0,362.0 622.7012,362.6851 625.4531,363.418 628.2222,364.1709 631.0,364.9375 633.7661,365.7002 636.5234,366.4648 639.2725,367.2339 642.0,368.0 644.6885,368.7544 647.3516,369.5039 649.9966,370.2522 652.625,371.0 655.2417,371.7498 657.8438,372.5 660.4297,373.25 663.0,374.0" stroke="#B4E3EB" stroke-width="20" /><text fill="#E41c0c" font-family="Arial" font-size="15" font-weight="normal" opacity="100" x="557.75" y="498.5">Chollima</text><text fill="#34349C" font-family="Arial" font-size="15" font-weight="normal" opacity="100" x="557.75" y="533.5">Hyoskin</text><text fill="#000" font-family="Arial" font-size="15" font-weight="normal" opacity="100" x="557.75" y="568.5">Planned</text><text fill="#808080" font-family="Arial" font-size="15" font-weight="normal" opacity="100" x="557.75" y="603.5">National Railroad</text></g></svg>