<?xml version="1.0" encoding="utf-8" ?>
<svg baseProfile="tiny" height="1650px" version="1.2" width="450px" xmlns="http://www.w3.org/2000/svg" xmlns:ev="http://www.w3.org/2001/xml-events" xmlns:xlink="http://www.w3.org/1999/xlink"><defs /><g><text fill="#0404A4" font-family="Arial" font-size="28" font-weight="normal" opacity="100" x="175.8" y="25.2">Иркутск</text><text fill="#0404A4" font-family="Arial" font-size="18" font-weight="normal" opacity="100" x="87.3" y="40.2">Схема движения пригородных поездов</text><polygon fill="#D0EDB3" opacity="100" points="35.0,65.0 215.0,65.0 215.0,160.0 35.0,160.0" stroke="#0404A4" stroke-width="1" /><polygon fill="#D0EDB3" opacity="100" points="35.0,215.0 215.0,215.0 215.0,260.0 35.0,260.0" stroke="#0404A4" stroke-width="1" /><polygon fill="#D0EDB3" opacity="100" points="35.0,315.0 215.0,315.0 215.0,385.0 35.0,385.0" stroke="#0404A4" stroke-width="1" /><polygon fill="#D0EDB3" opacity="100" points="35.0,515.0 215.0,515.0 215.0,535.0 35.0,535.0" stroke="#0404A4" stroke-width="1" /><polygon fill="#D0EDB3" opacity="100" points="35.0,615.0 215.0,615.0 215.0,685.0 35.0,685.0" stroke="#0404A4" stroke-width="1" /><polygon fill="#D0EDB3" opacity="100" points="35.0,765.0 215.0,765.0 215.0,810.0 35.0,810.0" stroke="#0404A4" stroke-width="1" /><polygon fill="#D0EDB3" opacity="100" points="35.0,865.0 215.0,865.0 215.0,935.0 35.0,935.0" stroke="#0404A4" stroke-width="1" /><polygon fill="#D0EDB3" opacity="100" points="35.0,1010.0 215.0,1010.0 215.0,1035.0 35.0,1035.0" stroke="#0404A4" stroke-width="1" /><polygon fill="#D0EDB3" opacity="100" points="235.0,65.0 415.0,65.0 415.0,110.0 235.0,110.0" stroke="#0404A4" stroke-width="1" /><polygon fill="#D0EDB3" opacity="100" points="235.0,165.0 415.0,165.0 415.0,235.0 235.0,235.0" stroke="#0404A4" stroke-width="1" /><polygon fill="#D0EDB3" opacity="100" points="235.0,315.0 415.0,315.0 415.0,435.0 235.0,435.0" stroke="#0404A4" stroke-width="1" /><polygon fill="#D0EDB3" opacity="100" points="235.0,465.0 415.0,465.0 415.0,635.0 235.0,635.0" stroke="#0404A4" stroke-width="1" /><polygon fill="#D0EDB3" opacity="100" points="235.0,715.0 415.0,715.0 415.0,835.0 235.0,835.0" stroke="#0404A4" stroke-width="1" /><polygon fill="#D0EDB3" opacity="100" points="235.0,890.0 415.0,890.0 415.0,985.0 235.0,985.0" stroke="#0404A4" stroke-width="1" /><polygon fill="#D0EDB3" opacity="100" points="235.0,1060.0 415.0,1060.0 415.0,1155.0 235.0,1155.0" stroke="#0404A4" stroke-width="1" /><polygon fill="#D0EDB3" opacity="100" points="235.0,1210.0 415.0,1210.0 415.0,1230.0 235.0,1230.0" stroke="#0404A4" stroke-width="1" /><polygon fill="#FFFFE0" opacity="100" points="35.0,165.0 215.0,165.0 215.0,210.0 35.0,210.0" stroke="#0404A4" stroke-width="1" /><polygon fill="#FFFFE0" opacity="100" points="35.0,265.0 215.0,265.0 215.0,310.0 35.0,310.0" stroke="#0404A4" stroke-width="1" /><polygon fill="#FFFFE0" opacity="100" points="35.0,390.0 215.0,390.0 215.0,510.0 35.0,510.0" stroke="#0404A4" stroke-width="1" /><polygon fill="#FFFFE0" opacity="100" points="35.0,540.0 215.0,540.0 215.0,610.0 35.0,610.0" stroke="#0404A4" stroke-width="1" /><polygon fill="#FFFFE0" opacity="100" points="35.0,690.0 215.0,690.0 215.0,760.0 35.0,760.0" stroke="#0404A4" stroke-width="1" /><polygon fill="#FFFFE0" opacity="100" points="35.0,815.0 215.0,815.0 215.0,860.0 35.0,860.0" stroke="#0404A4" stroke-width="1" /><polygon fill="#FFFFE0" opacity="100" points="35.0,940.0 215.0,940.0 215.0,1005.0 35.0,1005.0" stroke="#0404A4" stroke-width="1" /><polygon fill="#FFFFE0" opacity="100" points="235.0,115.0 415.0,115.0 415.0,160.0 235.0,160.0" stroke="#0404A4" stroke-width="1" /><polygon fill="#FFFFE0" opacity="100" points="235.0,240.0 415.0,240.0 415.0,310.0 235.0,310.0" stroke="#0404A4" stroke-width="1" /><polygon fill="#FFFFE0" opacity="100" points="235.0,440.0 415.0,440.0 415.0,460.0 235.0,460.0" stroke="#0404A4" stroke-width="1" /><polygon fill="#FFFFE0" opacity="100" points="235.0,640.0 415.0,640.0 415.0,710.0 235.0,710.0" stroke="#0404A4" stroke-width="1" /><polygon fill="#FFFFE0" opacity="100" points="235.0,840.0 415.0,840.0 415.0,885.0 235.0,885.0" stroke="#0404A4" stroke-width="1" /><polygon fill="#FFFFE0" opacity="100" points="235.0,990.0 415.0,990.0 415.0,1055.0 235.0,1055.0" stroke="#0404A4" stroke-width="1" /><polygon fill="#FFFFE0" opacity="100" points="235.0,1160.0 415.0,1160.0 415.0,1205.0 235.0,1205.0" stroke="#0404A4" stroke-width="1" /><text fill="#008000" font-family="Arial" font-size="16" font-weight="bold" opacity="100" x="197.6" y="119.4">0</text><text fill="#008000" font-family="Arial" font-size="16" font-weight="bold" opacity="100" x="197.6" y="194.4">1</text><text fill="#008000" font-family="Arial" font-size="16" font-weight="bold" opacity="100" x="197.6" y="244.4">2</text><text fill="#008000" font-family="Arial" font-size="16" font-weight="bold" opacity="100" x="197.6" y="294.4">3</text><text fill="#008000" font-family="Arial" font-size="16" font-weight="bold" opacity="100" x="197.6" y="359.4">4</text><text fill="#008000" font-family="Arial" font-size="16" font-weight="bold" opacity="100" x="197.6" y="454.4">5</text><text fill="#008000" font-family="Arial" font-size="16" font-weight="bold" opacity="100" x="197.6" y="529.4">6</text><text fill="#008000" font-family="Arial" font-size="16" font-weight="bold" opacity="100" x="197.6" y="584.4">7</text><text fill="#008000" font-family="Arial" font-size="16" font-weight="bold" opacity="100" x="197.6" y="659.4">8</text><text fill="#008000" font-family="Arial" font-size="16" font-weight="bold" opacity="100" x="197.6" y="734.4">9</text><text fill="#008000" font-family="Arial" font-size="16" font-weight="bold" opacity="100" x="192.6" y="799.4">10</text><text fill="#008000" font-family="Arial" font-size="16" font-weight="bold" opacity="100" x="192.6" y="849.4">11</text><text fill="#008000" font-family="Arial" font-size="16" font-weight="bold" opacity="100" x="192.6" y="909.4">12</text><text fill="#008000" font-family="Arial" font-size="16" font-weight="bold" opacity="100" x="192.6" y="979.4">13</text><text fill="#008000" font-family="Arial" font-size="16" font-weight="bold" opacity="100" x="192.6" y="1029.4">14</text><text fill="#008000" font-family="Arial" font-size="16" font-weight="bold" opacity="100" x="397.6" y="94.4">0</text><text fill="#008000" font-family="Arial" font-size="16" font-weight="bold" opacity="100" x="397.6" y="144.4">1</text><text fill="#008000" font-family="Arial" font-size="16" font-weight="bold" opacity="100" x="397.6" y="209.4">2</text><text fill="#008000" font-family="Arial" font-size="16" font-weight="bold" opacity="100" x="397.6" y="279.4">3</text><text fill="#008000" font-family="Arial" font-size="16" font-weight="bold" opacity="100" x="397.6" y="384.4">4</text><text fill="#008000" font-family="Arial" font-size="16" font-weight="bold" opacity="100" x="397.6" y="459.4">5</text><text fill="#008000" font-family="Arial" font-size="16" font-weight="bold" opacity="100" x="397.6" y="554.4">6</text><text fill="#008000" font-family="Arial" font-size="16" font-weight="bold" opacity="100" x="397.6" y="684.4">7</text><text fill="#008000" font-family="Arial" font-size="16" font-weight="bold" opacity="100" x="397.6" y="784.4">8</text><text fill="#008000" font-family="Arial" font-size="16" font-weight="bold" opacity="100" x="397.6" y="869.4">9</text><text fill="#008000" font-family="Arial" font-size="16" font-weight="bold" opacity="100" x="392.6" y="950.4">10</text><text fill="#008000" font-family="Arial" font-size="16" font-weight="bold" opacity="100" x="392.6" y="1034.4">11</text><text fill="#008000" font-family="Arial" font-size="16" font-weight="bold" opacity="100" x="392.6" y="1114.4">12</text><text fill="#008000" font-family="Arial" font-size="16" font-weight="bold" opacity="100" x="392.6" y="1189.4">13</text><text fill="#008000" font-family="Arial" font-size="16" font-weight="bold" opacity="100" x="392.6" y="1229.4">14</text></g></svg>