<?xml version="1.0" encoding="utf-8" ?>
<svg baseProfile="tiny" height="1890px" version="1.2" width="1468px" xmlns="http://www.w3.org/2000/svg" xmlns:ev="http://www.w3.org/2001/xml-events" xmlns:xlink="http://www.w3.org/1999/xlink"><defs /><g><polygon fill="#FFFAEA" opacity="100" points="0.0,0.0 1468.0,0.0 1468.0,1890.0 0.0,1890.0" stroke="#FFFAEA" stroke-width="1" /><polygon fill="#E2ECEE" opacity="100" points="1468.0,0.0 1468.0,1890.0 304.0,1890.0 324.0,1862.0 363.0,1821.0 405.0,1790.0 442.0,1768.0 472.0,1776.0 519.0,1802.0 546.0,1808.0 567.0,1776.0 554.0,1728.0 543.0,1688.0 544.0,1658.0 582.0,1620.0 622.0,1582.0 654.0,1554.0 714.0,1520.0 780.0,1485.0 818.0,1460.0 826.0,1443.0 825.0,1412.0 816.0,1388.0 861.0,1456.0 886.0,1473.0 918.0,1478.0 946.0,1474.0 960.0,1467.0 957.0,1452.0 930.0,1422.0 890.0,1372.0 882.0,1344.0 891.0,1322.0 921.0,1287.0 946.0,1276.0 972.0,1294.0 996.0,1338.0 1016.0,1371.0 1029.0,1388.0 1032.0,1406.0 1026.0,1449.0 1036.0,1450.0 1053.0,1434.0 1078.0,1390.0 1092.0,1346.0 1094.0,1275.0 1101.0,1215.0 1119.0,1160.0 1154.0,1113.0 1185.0,1082.0 1233.0,1036.0 1298.0,976.0 1335.0,936.0 1347.0,912.0 1344.0,888.0 1328.0,864.0 1294.0,836.0 1248.0,808.0 1188.0,795.0 1114.0,788.0 1077.0,786.0 1068.0,742.0 1050.0,656.0 1035.0,612.0 1029.0,562.0 1032.0,504.0 1047.0,465.0 1179.0,414.0 1290.0,368.0 1358.0,332.0 1384.0,303.0 1404.0,258.0 1422.0,183.0 1436.0,98.0 1437.0,42.0 1428.0,0.0" stroke="#E2ECEE" stroke-width="1" /><polygon fill="#E2ECEE" opacity="100" points="1032.0,504.0 970.0,480.0 926.0,456.0 872.0,436.0 812.0,422.0 747.0,408.0 813.0,412.0 874.0,423.0 930.0,442.0 978.0,456.0 1047.0,465.0" stroke="#E2ECEE" stroke-width="1" /><polygon fill="#E2ECEE" opacity="100" points="1077.0,786.0 1044.0,790.0 1011.0,801.0 972.0,818.0 934.0,826.0 903.0,822.0 874.0,812.0 838.0,812.0 816.0,825.0 810.0,861.0 795.0,892.0 744.0,909.0 675.0,915.0 616.0,924.0 570.0,940.0 507.0,969.0 453.0,986.0 400.0,992.0 441.0,986.0 513.0,958.0 566.0,933.0 618.0,914.0 669.0,902.0 729.0,888.0 770.0,872.0 777.0,848.0 784.0,816.0 808.0,795.0 862.0,794.0 908.0,800.0 939.0,801.0 970.0,801.0 1005.0,788.0 1068.0,742.0" stroke="#E2ECEE" stroke-width="1" /><polyline fill="none" opacity="100" points="1428.0,0.0 1429.6719,4.4844 1431.1875,9.1875 1432.5476,14.1057 1433.75,19.25 1434.7903,24.6423 1435.6758,30.2461 1436.4087,36.0503 1437.0,42.0 1437.4702,47.9927 1437.793,54.1602 1437.9485,60.5999 1437.9375,67.3125 1437.7644,74.2849 1437.3984,81.6562 1436.8271,89.4844 1436.0,98.0 1434.8291,107.6016 1433.4141,117.8438 1431.8181,128.448 1430.0625,139.3125 1428.1838,150.2571 1426.1992,161.2383 1424.1226,172.2056 1422.0,183.0 1419.897,193.4155 1417.7695,203.543 1415.5974,213.4045 1413.375,223.0 1411.0803,232.3865 1408.7422,241.4141 1406.374,250.0049 1404.0,258.0 1401.665,265.1279 1399.3203,271.6484 1396.9438,277.7112 1394.5,283.375 1391.9194,288.7634 1389.2812,293.832 1386.6055,298.5767 1384.0,303.0 1381.6758,307.0679 1379.3438,310.8867 1376.8079,314.5393 1374.0,318.0625 1370.823,321.4939 1367.168,324.9141 1362.9624,328.376 1358.0,332.0 1351.9712,335.9678 1345.1133,340.1484 1337.5469,344.4766 1329.3125,348.9375 1320.5273,353.4766 1311.082,358.1484 1300.9321,362.9795 1290.0,368.0 1278.1265,373.2705 1265.5117,378.7266 1252.2883,384.3279 1238.5,390.0625 1224.2136,395.9084 1209.4922,401.8555 1194.3779,407.896 1179.0,414.0 1163.5518,420.1235 1147.8828,426.3008 1131.9126,432.55 1115.625,438.875 1098.9663,445.2878 1081.9688,451.7812 1064.6484,458.3516 1047.0,465.0" stroke="#76C6E0" stroke-width="1" /><polyline fill="none" opacity="100" points="1047.0,465.0 1037.2266,464.1484 1027.7812,463.2188 1018.6711,462.2109 1009.875,461.125 1001.3503,459.9609 993.168,458.7188 985.3491,457.3984 978.0,456.0 971.3188,454.5234 965.0508,452.9688 959.0251,451.3328 953.1875,449.625 947.4573,447.8645 941.7422,446.0195 935.9834,444.0806 930.0,442.0 923.5166,439.689 916.7578,437.2617 909.8474,434.7947 902.8125,432.3125 895.7327,429.8518 888.5742,427.4531 881.3218,425.1426 874.0,423.0 866.6353,421.1465 859.207,419.4844 851.7043,417.9602 844.125,416.5625 836.4617,415.2566 828.7188,414.0586 820.8984,412.9761 813.0,412.0 805.0234,411.1216 796.9688,410.3477 788.8359,409.6819 780.625,409.125 772.3359,408.6794 763.9688,408.3438 755.5234,408.1172 747.0,408.0" stroke="#76C6E0" stroke-width="1" /><polyline fill="none" opacity="100" points="747.0,408.0 755.3984,409.75 763.7188,411.5 771.9612,413.2485 780.125,415.0 788.2087,416.7632 796.2148,418.5234 804.144,420.2764 812.0,422.0 819.7896,423.6533 827.5039,425.2891 835.1382,426.9429 842.6875,428.625 850.1431,430.3501 857.5117,432.1406 864.7944,434.0098 872.0,436.0 879.147,438.1777 886.207,440.4844 893.1536,442.8872 900.0,445.375 906.7781,447.9214 913.4062,450.5391 919.8555,453.2314 926.0,456.0 931.6133,458.8545 936.9688,461.7734 942.2451,464.7407 947.5,467.75 952.8252,470.7944 958.2969,473.8594 963.9668,476.9355 970.0,480.0 976.6426,483.0176 983.7031,486.0156 991.0791,489.0088 998.75,492.0 1006.6475,494.999 1014.8125,498.0 1023.2656,501.0 1032.0,504.0" stroke="#76C6E0" stroke-width="1" /><polyline fill="none" opacity="100" points="1032.0,504.0 1031.1328,511.6875 1030.4062,519.25 1029.8203,526.687 1029.375,534.0 1029.0703,541.1919 1028.9062,548.2578 1028.8828,555.1963 1029.0,562.0 1029.2578,568.6553 1029.6562,575.1797 1030.1968,581.5732 1030.875,587.875 1031.6821,594.1611 1032.6328,600.3203 1033.7314,606.3213 1035.0,612.0 1036.4795,617.0459 1038.1172,621.8672 1039.8779,626.7378 1041.75,631.75 1043.7158,637.0396 1045.7578,642.75 1047.8643,648.9766 1050.0,656.0 1052.1123,664.2422 1054.2422,673.375 1056.4116,683.2227 1058.625,693.75 1060.897,704.8398 1063.2188,716.5625 1065.5859,728.9531 1068.0,742.0" stroke="#76C6E0" stroke-width="1" /><polyline fill="none" opacity="100" points="1068.0,742.0 1058.5938,749.5547 1049.625,756.5938 1041.0996,763.1123 1033.0,769.125 1025.291,774.6611 1018.0312,779.6719 1011.2383,784.1426 1005.0,788.0 999.4805,791.1074 994.4688,793.6406 989.8252,795.7139 985.5,797.375 981.417,798.7002 977.5156,799.7188 973.752,800.4609 970.0,801.0 966.0762,801.4297 962.1094,801.7188 958.1677,801.8652 954.25,801.875 950.3811,801.7285 946.5508,801.5 942.7446,801.2305 939.0,801.0 935.3843,800.9414 931.793,800.9375 928.1511,800.918 924.4375,800.875 920.6282,800.7852 916.6562,800.625 912.4844,800.3867 908.0,800.0 903.0234,799.3477 897.7188,798.5625 892.1726,797.7263 886.4375,796.875 880.6262,796.0725 874.6445,795.3164 868.4673,794.6177 862.0,794.0 855.0444,793.48 847.8867,793.0898 840.7271,792.864 833.625,792.8125 826.6558,792.9309 819.9727,793.2969 813.6646,793.9512 808.0,795.0 803.4019,796.6191 799.4961,798.6406 796.0715,800.9688 793.0625,803.5625 790.3132,806.3359 787.8828,809.3281 785.7861,812.5449 784.0,816.0 782.5264,819.7441 781.3047,823.6719 780.2913,827.7048 779.4375,831.8125 778.6755,835.9612 778.0195,840.082 777.4517,844.1313 777.0,848.0 776.7476,851.521 776.5117,854.8242 776.1519,857.9778 775.625,861.0 774.895,863.946 773.8008,866.7734 772.2524,869.4639 770.0,872.0 766.6421,874.3408 762.543,876.5391 757.9082,878.6299 752.8125,880.625 747.4238,882.542 741.668,884.3984 735.5288,886.2061 729.0,888.0 722.022,889.833 714.7383,891.6641 707.2605,893.469 699.625,895.25 691.8625,897.0056 684.1016,898.7227 676.415,900.3989 669.0,902.0 662.1709,903.4644 655.6484,904.8711 649.2715,906.2732 643.0,907.6875 636.7363,909.1389 630.4922,910.6562 624.2686,912.2578 618.0,914.0 611.5986,915.9688 605.1328,918.0938 598.6436,920.3369 592.125,922.6875 585.5752,925.1162 579.0234,927.6406 572.4756,930.2676 566.0,933.0 559.7197,935.8496 553.4766,938.7969 547.1602,941.8345 540.75,944.9375 534.2227,948.0601 527.4766,951.2578 520.4619,954.5439 513.0,958.0 504.7959,961.7842 496.1484,965.6797 487.2407,969.5393 478.125,973.3125 468.9038,976.9275 459.6094,980.3008 450.2676,983.3774 441.0,986.0 431.9824,987.9312 423.0781,989.3555 414.2139,990.3718 405.375,991.0 396.5127,991.3059 387.6562,991.25 378.8203,990.8125 370.0,990.0" stroke="#76C6E0" stroke-width="1" /><polyline fill="none" opacity="100" points="370.0,990.0 372.4922,990.6875 375.3438,991.25 378.5601,991.6882 382.125,992.0 386.0063,992.1809 390.2578,992.2383 394.8955,992.1743 400.0,992.0 405.7217,991.7358 411.8672,991.3555 418.3057,990.8416 425.0,990.1875 431.8975,989.3831 438.9141,988.4219 446.001,987.2988 453.0,986.0 459.6631,984.5059 466.2109,982.8281 472.7773,980.9658 479.375,978.9375 486.043,976.7842 492.8359,974.4375 499.7725,971.875 507.0,969.0 514.7666,965.6328 522.7891,962.0 530.8784,958.2532 539.0,954.4375 547.1021,950.6199 555.0469,946.8867 562.7676,943.2905 570.0,940.0 576.3105,937.2759 582.1406,934.8945 587.762,932.7302 593.25,930.75 598.7517,928.8694 604.3242,927.1172 610.0093,925.5029 616.0,924.0 622.5806,922.583 629.5195,921.2578 636.6963,920.0264 644.0625,918.875 651.4951,917.7861 659.0977,916.7734 666.9067,915.835 675.0,915.0 683.5425,914.3291 692.3086,913.7266 701.1497,913.1257 710.0,912.5 718.7585,911.8137 727.3828,911.0273 735.8291,910.1128 744.0,909.0 751.7725,907.5864 759.1797,905.9414 766.2122,904.0964 772.875,902.0625 779.2234,899.8782 785.0977,897.4922 790.4224,894.8818 795.0,892.0 798.4878,888.7588 801.2461,885.2578 803.4929,881.554 805.3125,877.6875 806.8645,873.7332 808.1406,869.6445 809.1621,865.4165 810.0,861.0 810.7207,856.2827 811.3594,851.4492 811.9641,846.6331 812.5625,841.875 813.1589,837.2205 813.8711,832.7891 814.769,828.6494 816.0,825.0 817.7974,822.1553 819.9727,819.8359 822.4277,817.8816 825.125,816.25 827.9668,814.8391 831.0352,813.668 834.3599,812.7397 838.0,812.0 842.0815,811.3813 846.4336,810.9258 850.9382,810.6562 855.5625,810.5625 860.2629,810.6367 864.9531,810.8945 869.584,811.3345 874.0,812.0 877.9551,812.9741 881.6719,814.1367 885.2788,815.4065 888.8125,816.75 892.3579,818.1189 895.8984,819.4766 899.4326,820.7939 903.0,822.0 906.6455,822.9951 910.3516,823.8359 914.116,824.5452 917.9375,825.125 921.8,825.6013 925.7461,825.9258 929.7964,826.0728 934.0,826.0 938.4419,825.6343 943.0352,825.043 947.728,824.262 952.5,823.3125 957.311,822.24 962.168,821.0078 967.0679,819.6064 972.0,818.0 976.9595,816.1123 981.9258,814.0547 986.8784,811.9038 991.8125,809.6875 996.731,807.4438 1001.5898,805.2188 1006.3667,803.043 1011.0,801.0 1015.3872,799.2148 1019.6289,797.5938 1023.7849,796.0879 1027.875,794.6875 1031.9397,793.3574 1035.9766,792.125 1039.9893,791.0039 1044.0,790.0 1048.0342,789.1289 1052.0859,788.375 1056.1487,787.729 1060.25,787.1875 1064.4353,786.7437 1068.6445,786.3984 1072.8657,786.1514 1077.0,786.0 1080.8569,785.9424 1084.6992,785.9766 1088.718,786.1001 1092.9375,786.3125 1097.3699,786.6147 1102.2422,787.0 1107.6592,787.4648 1114.0,788.0 1121.9033,788.5898 1130.6953,789.25 1139.9563,789.9878 1149.5625,790.8125 1159.2839,791.7427 1169.0195,792.7578 1178.6938,793.8525 1188.0,795.0 1196.4897,796.1475 1204.5117,797.3672 1212.2522,798.7119 1219.75,800.1875 1227.1326,801.7959 1234.3203,803.6016 1241.2744,805.6338 1248.0,808.0 1254.4834,810.8818 1260.7422,814.0859 1266.7896,817.4924 1272.625,821.0625 1278.2456,824.7244 1283.6719,828.457 1288.9121,832.2407 1294.0,836.0 1298.9941,839.6304 1303.8281,843.1992 1308.4583,846.7371 1312.875,850.25 1317.0632,853.7688 1320.9961,857.25 1324.6597,860.6719 1328.0,864.0 1330.9302,867.1719 1333.5352,870.25 1335.8667,873.2725 1337.9375,876.25 1339.7739,879.2041 1341.3867,882.1406 1342.7827,885.0645 1344.0,888.0 1345.0962,890.9824 1346.0195,893.9844 1346.7424,896.9873 1347.25,900.0 1347.5095,903.0361 1347.5469,906.0625 1347.3691,909.0703 1347.0,912.0 1346.4902,914.7422 1345.7656,917.4375 1344.7756,920.1787 1343.5,923.0 1341.9099,925.9541 1339.9805,929.0781 1337.6929,932.4004 1335.0,936.0 1331.8345,939.9902 1328.2383,944.2969 1324.2195,948.8931 1319.8125,953.75 1315.0989,958.7905 1309.9453,964.1328 1304.3057,969.8213 1298.0,976.0 1290.6943,982.9365 1282.8047,990.3047 1274.6057,997.8909 1266.1875,1005.625 1257.6892,1013.3962 1249.2383,1021.1133 1240.9204,1028.7134 1233.0,1036.0 1225.8726,1042.6812 1219.2305,1048.9805 1212.9141,1055.009 1206.875,1060.8125 1200.9727,1066.5164 1195.3242,1071.9922 1189.978,1077.1904 1185.0,1082.0 1180.5337,1086.2002 1176.3945,1090.0703 1172.4543,1093.7976 1168.6875,1097.4375 1165.0632,1101.0715 1161.4688,1104.8086 1157.8477,1108.7144 1154.0,1113.0 1149.5977,1117.9927 1144.9688,1123.4102 1140.3147,1129.0928 1135.6875,1135.0 1131.1912,1141.0283 1126.8711,1147.207 1122.7573,1153.5454 1119.0,1160.0 1115.8247,1166.521 1113.0352,1173.1367 1110.5208,1179.8574 1108.25,1186.6875 1106.1453,1193.6465 1104.2344,1200.6992 1102.5254,1207.8296 1101.0,1215.0 1099.6465,1222.1431 1098.4531,1229.332 1097.4109,1236.6223 1096.5,1244.0 1095.6926,1251.4343 1095.0039,1259.0312 1094.4302,1266.8281 1094.0,1275.0 1093.7769,1283.8594 1093.6523,1293.0312 1093.5486,1302.2644 1093.4375,1311.5 1093.2854,1320.6516 1093.0312,1329.5508 1092.6367,1338.1079 1092.0,1346.0 1090.9648,1352.7085 1089.6562,1358.7305 1088.1377,1364.3701 1086.4375,1369.6875 1084.6279,1374.8135 1082.6406,1379.8398 1080.4512,1384.812 1078.0,1390.0 1075.166,1395.8325 1072.1094,1401.8789 1068.938,1407.8735 1065.6875,1413.75 1062.4097,1419.3765 1059.1641,1424.6836 1055.9893,1429.6284 1053.0,1434.0 1050.3701,1437.4771 1047.9609,1440.3477 1045.6948,1442.7849 1043.5625,1444.8125 1041.5278,1446.4944 1039.5938,1447.8828 1037.7656,1448.9971 1036.0,1450.0 1034.2266,1451.1592 1032.5312,1452.1797 1030.9766,1452.8584 1029.5625,1453.1875 1028.2812,1453.165 1027.2188,1452.5703 1026.4102,1451.3135 1026.0,1449.0 1026.2383,1444.9521 1026.8438,1439.9297 1027.6372,1434.4226 1028.5625,1428.5625 1029.5229,1422.5715 1030.4609,1416.668 1031.335,1410.9819 1032.0,1406.0 1032.2432,1402.4751 1032.2266,1399.7383 1032.0352,1397.4077 1031.6875,1395.375 1031.2461,1393.3813 1030.6641,1391.4961 1029.9189,1389.7339 1029.0,1388.0 1027.8779,1386.1997 1026.5859,1384.3477 1025.1445,1382.4309 1023.5625,1380.4375 1021.8555,1378.3835 1020.0234,1376.1719 1018.0693,1373.748 1016.0,1371.0 1013.8213,1367.7441 1011.5391,1364.1406 1009.1594,1360.272 1006.6875,1356.1875 1004.1277,1351.9976 1001.4883,1347.6016 998.7759,1342.9697 996.0,1338.0 993.1733,1332.4834 990.293,1326.7109 987.3589,1320.8804 984.375,1315.0625 981.3442,1309.3579 978.2695,1303.875 975.1548,1298.6875 972.0,1294.0 968.8022,1290.1172 965.5742,1286.8125 962.3276,1283.9692 959.0625,1281.5625 955.7739,1279.5034 952.4883,1277.8672 949.2173,1276.6904 946.0,1276.0 942.9038,1275.8564 939.8555,1276.1953 936.8025,1276.9854 933.75,1278.1875 930.7112,1279.7256 927.6094,1281.6797 924.416,1284.0693 921.0,1287.0 917.1309,1290.6807 913.0781,1294.8203 909.0171,1299.2158 905.0,1303.8125 901.1118,1308.542 897.4297,1313.2422 894.0029,1317.8232 891.0,1322.0 888.6768,1325.3174 886.8203,1328.1953 885.3083,1330.8767 884.125,1333.4375 883.217,1336.0471 882.5742,1338.668 882.1968,1341.2983 882.0,1344.0 881.8462,1346.8306 881.8945,1349.8008 882.2585,1352.9451 882.9375,1356.25 883.9192,1359.6545 885.3516,1363.3359 887.2939,1367.3701 890.0,1372.0 893.9092,1377.6533 898.5234,1383.8516 903.5269,1390.2888 908.8125,1396.875 914.1958,1403.4553 919.5938,1409.918 924.9375,1416.189 930.0,1422.0 934.4609,1426.9478 938.5312,1431.3633 942.3096,1435.428 945.8125,1439.1875 949.1279,1442.7693 952.1406,1446.1094 954.791,1449.1816 957.0,1452.0 958.623,1454.5605 959.7969,1456.8906 960.6021,1459.0117 961.0625,1460.9375 961.23,1462.6836 961.1016,1464.2656 960.6807,1465.6973 960.0,1467.0 959.1006,1468.2012 957.9609,1469.2969 956.5706,1470.2922 954.9375,1471.1875 953.0681,1471.9714 950.957,1472.6836 948.6079,1473.3433 946.0,1474.0 943.0913,1474.7388 939.9492,1475.4727 936.6187,1476.1489 933.125,1476.75 929.5063,1477.2417 925.7695,1477.6211 921.9282,1477.8823 918.0,1478.0 913.9976,1477.9419 909.9492,1477.7227 905.8894,1477.3562 901.8125,1476.8125 897.6868,1476.0403 893.625,1475.1172 889.6758,1474.0615 886.0,1473.0 882.8789,1472.1729 880.0,1471.2578 877.1648,1470.0374 874.3125,1468.4375 871.3372,1466.3513 868.1758,1463.6602 864.7837,1460.2856 861.0,1456.0 856.5874,1450.4604 851.7305,1443.9336 846.5281,1436.5623 841.0,1428.375 835.2122,1419.467 829.125,1409.7812 822.7188,1399.2891 816.0,1388.0" stroke="#76C6E0" stroke-width="1" /><polyline fill="none" opacity="100" points="816.0,1388.0 817.5625,1390.6172 819.0,1393.3438 820.3127,1396.1848 821.5,1399.125 822.5603,1402.1335 823.4961,1405.2617 824.3081,1408.5249 825.0,1412.0 825.5786,1415.8306 826.0352,1419.832 826.3689,1423.876 826.5625,1427.9375 826.5823,1431.9873 826.4766,1435.9102 826.2588,1439.6489 826.0,1443.0 825.835,1445.6284 825.5859,1447.8711 825.1331,1449.9333 824.4375,1451.875 823.4431,1453.8147 822.082,1455.7812 820.311,1457.8008 818.0,1460.0 814.9507,1462.5586 811.3242,1465.3438 807.2009,1468.2893 802.625,1471.375 797.7034,1474.5369 792.3281,1477.8398 786.4629,1481.312 780.0,1485.0 772.7246,1488.9966 764.9219,1493.1914 756.7783,1497.5139 748.375,1501.9375 739.8389,1506.4177 731.2188,1510.9375 722.5664,1515.4805 714.0,1520.0 705.668,1524.4336 697.5312,1528.8125 689.603,1533.1438 681.875,1537.4375 674.2759,1541.7292 667.0078,1545.9492 660.165,1550.0679 654.0,1554.0 648.9521,1557.5923 644.5547,1561.0195 640.5137,1564.3962 636.75,1567.75 633.1191,1571.1252 629.5234,1574.5859 625.9014,1578.167 622.0,1582.0 617.4346,1586.2939 612.5391,1590.8516 607.4954,1595.5576 602.375,1600.375 597.3464,1605.2236 592.3008,1610.1172 587.2056,1615.0537 582.0,1620.0 576.5327,1624.9229 571.043,1629.8203 565.7053,1634.6777 560.5625,1639.5 555.656,1644.3145 551.1641,1649.0391 547.1807,1653.6377 544.0,1658.0 542.1006,1661.9326 541.0234,1665.6484 540.4963,1669.2827 540.4375,1672.875 540.6736,1676.4946 541.207,1680.1875 542.022,1683.9844 543.0,1688.0 543.9897,1692.4062 545.0742,1697.0625 546.2952,1701.897 547.625,1706.875 549.0427,1711.9116 550.5703,1717.0859 552.1963,1722.4248 554.0,1728.0 556.1396,1733.958 558.3672,1740.1016 560.5015,1746.3027 562.5,1752.5 564.3228,1758.5957 565.7812,1764.5703 566.7773,1770.3916 567.0,1776.0 565.9414,1781.335 564.0938,1786.3672 561.7563,1791.0513 559.0,1795.375 555.9741,1799.3589 552.7422,1802.8594 549.3428,1805.8027 546.0,1808.0 543.0557,1809.1348 540.1953,1809.5156 537.2253,1809.3193 534.125,1808.625 530.8391,1807.5947 527.2773,1806.1562 523.4058,1804.3008 519.0,1802.0 513.6841,1799.1523 507.8789,1795.9688 501.8584,1792.603 495.6875,1789.125 489.4736,1785.6196 483.3633,1782.1953 477.436,1778.9307 472.0,1776.0 467.5444,1773.6553 463.6055,1771.7422 459.9065,1770.197 456.375,1769.0 452.8533,1768.0627 449.3203,1767.5273 445.7549,1767.4604 442.0,1768.0 437.8311,1769.395 433.4297,1771.3789 428.8936,1773.7844 424.25,1776.5625 419.5752,1779.6238 414.8203,1782.9219 409.9658,1786.4238 405.0,1790.0 399.8857,1793.459 394.6797,1796.9531 389.4175,1800.5708 384.125,1804.3125 378.8442,1808.1987 373.5625,1812.2578 368.2852,1816.4932 363.0,1821.0 357.668,1825.9443 352.375,1831.1172 347.1855,1836.3801 342.125,1841.6875 337.2207,1846.9695 332.5312,1852.1602 328.0938,1857.2153 324.0,1862.0 320.3906,1866.312 317.1562,1870.3086 314.2383,1874.074 311.625,1877.625 309.2773,1881.0178 307.2188,1884.2188 305.4609,1887.2109 304.0,1890.0" stroke="#76C6E0" stroke-width="1" /><text fill="#FFF" font-family="Arial" font-size="25" font-weight="normal" opacity="100" transform="rotate(-0.0 1032.0,476.0) translate(0 25)" x="1032.0" y="476.0">Hawksbury 2</text><text fill="#FFF" font-family="Arial" font-size="25" font-weight="normal" opacity="100" transform="rotate(-0.0 1056.0,492.0) translate(0 25)" x="1056.0" y="492.0">River 2</text><text fill="#FFF" font-family="Arial" font-size="25" font-weight="normal" opacity="100" transform="rotate(-0.0 1032.0,760.0) translate(0 25)" x="1032.0" y="760.0">Sydney Harbour 2</text><text fill="#FFF" font-family="Arial" font-size="25" font-weight="normal" opacity="100" transform="rotate(-0.0 912.0,1330.0) translate(0 25)" x="912.0" y="1330.0">Botany 2</text><text fill="#FFF" font-family="Arial" font-size="25" font-weight="normal" opacity="100" transform="rotate(-0.0 942.0,1354.0) translate(0 25)" x="942.0" y="1354.0">Bay 2</text><text fill="#040464" font-family="Arial" font-size="51" font-weight="bold" opacity="100" transform="rotate(-0.0 525.0,-2.0) translate(0 51)" x="525.0" y="-2.0">Sydney</text><text fill="#040464" font-family="Arial" font-size="20" font-weight="bold" opacity="100" transform="rotate(-0.0 998.0,297.0) translate(0 20)" x="998.0" y="297.0">HUNTER</text><text fill="#040464" font-family="Arial" font-size="20" font-weight="bold" opacity="100" transform="rotate(-0.0 996.0,315.0) translate(0 20)" x="996.0" y="315.0">VALLEY</text><text fill="#040464" font-family="Arial" font-size="20" font-weight="bold" opacity="100" transform="rotate(-0.0 1088.0,380.0) translate(0 20)" x="1088.0" y="380.0">CENTRAL</text><text fill="#040464" font-family="Arial" font-size="20" font-weight="bold" opacity="100" transform="rotate(-0.0 1106.0,398.0) translate(0 20)" x="1106.0" y="398.0">COAST</text><text fill="#040464" font-family="Arial" font-size="20" font-weight="bold" opacity="100" transform="rotate(-0.0 370.0,789.0) translate(0 20)" x="370.0" y="789.0">SYDNEY</text><text fill="#040464" font-family="Arial" font-size="20" font-weight="bold" opacity="100" transform="rotate(-0.0 344.0,807.0) translate(0 20)" x="344.0" y="807.0">SUBURBAN</text><text fill="#040464" font-family="Arial" font-size="20" font-weight="bold" opacity="100" transform="rotate(-0.0 398.0,826.0) translate(0 20)" x="398.0" y="826.0">AREA</text><text fill="#040464" font-family="Arial" font-size="20" font-weight="bold" opacity="100" transform="rotate(-0.0 156.0,1768.0) translate(0 20)" x="156.0" y="1768.0">SOUTHERN</text><text fill="#040464" font-family="Arial" font-size="20" font-weight="bold" opacity="100" transform="rotate(-0.0 147.0,1786.0) translate(0 20)" x="147.0" y="1786.0">HIGHLANDS</text><text fill="#040464" font-family="Arial" font-size="20" font-weight="bold" opacity="100" transform="rotate(-0.0 346.0,1806.0) translate(0 20)" x="346.0" y="1806.0">SOUTH</text><text fill="#040464" font-family="Arial" font-size="20" font-weight="bold" opacity="100" transform="rotate(-0.0 346.0,1824.0) translate(0 20)" x="346.0" y="1824.0">COAST</text></g></svg>