<?xml version="1.0" encoding="utf-8" ?>
<svg baseProfile="tiny" height="1230px" version="1.2" width="1100px" xmlns="http://www.w3.org/2000/svg" xmlns:ev="http://www.w3.org/2001/xml-events" xmlns:xlink="http://www.w3.org/1999/xlink"><defs /><g><g transform="rotate(-10.0,550.0,615.0)"><polygon fill="#EA7B16" opacity="100" points="46.0,1001.0 46.0,987.0 604.0,987.0 604.0,1001.0" stroke="#000" stroke-width="1" /><polygon fill="#EA7B16" opacity="100" points="46.0,1119.0 46.0,1133.0 604.0,1133.0 604.0,1119.0" stroke="#000" stroke-width="1" /><polyline fill="none" opacity="100" points="46.0,1001.0 46.0,1032.0 9.0,1032.0 9.0,1010.0 -1.0,986.0 14.0,966.0" stroke="#000" stroke-width="1" /><polyline fill="none" opacity="100" points="-40.0,953.0 -36.0,983.0 -36.0,987.0 -25.0,1001.0 -25.0,1009.0 -27.0,1009.0 -27.0,1023.0 -52.0,1023.0 -52.0,1098.0 46.0,1098.0 46.0,1119.0" stroke="#000" stroke-width="1" /><polyline fill="none" opacity="100" points="-13.0,1000.0 -13.0,1021.0 -7.0,1021.0 -7.0,1010.0 -13.0,1000.0" stroke="#000" stroke-width="1" /><polyline fill="none" opacity="100" points="-40.0,953.0 14.0,966.0 54.0,792.0 1.0,779.0 -40.0,953.0" stroke="#000" stroke-dasharray="5,5" stroke-width="1" /><polyline fill="none" opacity="100" points="-20.0,837.0 -18.1875,840.2578 -16.25,843.4062 -14.1875,846.446 -12.0,849.375 -9.6875,852.1887 -7.25,854.8945 -4.6875,857.4946 -2.0,860.0 0.8125,862.4312 3.75,864.7617 6.8145,866.9753 10.0,869.0625 13.2949,871.0071 16.7188,872.8125 20.2773,874.4766 24.0,876.0 27.9414,877.3906 32.0312,878.625 36.2227,879.6848 40.5,880.5625 44.8398,881.2507 49.2188,881.7305 53.6211,881.9897 58.0,882.0 62.2852,881.7173 66.5312,881.1758 70.7676,880.3938 75.0,879.375 79.248,878.1316 83.5,876.6562 87.75,874.9453 92.0,873.0" stroke="#000" stroke-width="1" /><polyline fill="none" opacity="100" points="119.0,852.0 120.5938,849.9844 122.125,847.9375 123.5938,845.8594 125.0,843.75 126.3438,841.6094 127.625,839.4375 128.8438,837.2344 130.0,835.0 131.0938,832.7344 132.125,830.4375 133.0938,828.1094 134.0,825.75 134.8438,823.3594 135.625,820.9375 136.3438,818.4844 137.0,816.0" stroke="#000" stroke-width="1" /><polyline fill="none" opacity="100" points="137.0,780.0 135.9766,775.9219 134.7812,771.9375 133.415,768.0457 131.875,764.25 130.1553,760.5579 128.2656,756.957 126.209,753.4438 124.0,750.0 121.666,746.5913 119.1719,743.2617 116.4895,740.0388 113.625,736.9375 110.5945,733.9827 107.3398,731.1719 103.8394,728.5098 100.0,726.0 95.6567,723.6387 91.0039,721.4531 86.1667,719.4675 81.1875,717.6875 76.136,716.1125 71.0547,714.7852 65.9756,713.7271 61.0,713.0 56.2744,712.7065 51.6953,712.7461 47.2102,713.0588 42.8125,713.625 38.4675,714.4041 34.207,715.3984 30.0493,716.6045 26.0,718.0 22.0718,719.5596 18.2617,721.2891 14.5706,723.187 11.0,725.25 7.5486,727.481 4.2266,729.8594 1.04,732.373 -2.0,735.0 -4.876,737.7051 -7.6016,740.5156 -10.1841,743.4463 -12.625,746.5 -14.9292,749.6865 -17.0938,753.0 -19.1172,756.4375 -21.0,760.0" stroke="#000" stroke-width="1" /><polyline fill="none" opacity="100" points="-16.0,766.0 -17.0781,768.3359 -18.0625,770.7188 -18.9531,773.1499 -19.75,775.625 -20.4531,778.1353 -21.0625,780.6953 -21.5781,783.3096 -22.0,786.0 -22.3281,788.8076 -22.5625,791.6797 -22.7031,794.5811 -22.75,797.5 -22.7031,800.4189 -22.5625,803.3203 -22.3281,806.1924 -22.0,809.0 -21.5781,811.6904 -21.0625,814.3047 -20.4531,816.8647 -19.75,819.375 -18.9531,821.8501 -18.0625,824.2812 -17.0781,826.6641 -16.0,829.0" stroke="#000" stroke-width="1" /><polyline fill="none" opacity="100" points="-16.0,766.0 -21.0,760.0" stroke="#000" stroke-width="1" /><polyline fill="none" opacity="100" points="-16.0,829.0 -20.0,837.0" stroke="#000" stroke-width="1" /><polyline fill="none" opacity="100" points="127.0,840.0 105.0,823.0 93.0,767.0 37.0,754.0 29.0,786.0" stroke="#000" stroke-width="1" /><polyline fill="none" opacity="100" points="32.0,775.0 -15.0,764.0" stroke="#000" stroke-dasharray="5,5" stroke-width="1" /><polyline fill="none" opacity="100" points="604.0,1119.0 604.0,1089.0 624.0,1089.0" stroke="#000" stroke-width="1" /><polyline fill="none" opacity="100" points="604.0,1001.0 604.0,1031.0 624.0,1031.0" stroke="#000" stroke-width="1" /><polyline fill="none" opacity="100" points="624.0,1089.0 624.0,1031.0 776.0,1031.0 776.0,1089.0 624.0,1089.0" stroke="#000" stroke-dasharray="5,5" stroke-width="1" /><polyline fill="none" opacity="100" points="776.0,1031.0 828.0,1031.0 828.0,1024.0 898.0,999.0 923.0,986.0 920.0,979.0 928.0,975.0 895.0,913.0 881.0,920.0" stroke="#000" stroke-width="1" /><polyline fill="none" opacity="100" points="776.0,1089.0 827.0,1089.0 827.0,1093.0 922.0,1056.0 952.0,1040.0 954.0,1044.0 1023.0,1008.0 988.0,943.0 979.0,948.0 946.0,886.0 959.0,879.0" stroke="#000" stroke-width="1" /><polygon fill="#00873A" opacity="100" points="959.0,879.0 972.0,872.0 751.0,455.0 737.0,462.0" stroke="#000" stroke-width="1" /><polygon fill="#00873A" opacity="100" points="881.0,920.0 869.0,927.0 648.0,511.0 660.0,504.0" stroke="#000" stroke-width="1" /><polyline fill="none" opacity="100" points="737.0,462.0 721.0,471.0 695.0,422.0" stroke="#000" stroke-width="1" /><polyline fill="none" opacity="100" points="660.0,504.0 672.0,497.0 646.0,448.0" stroke="#000" stroke-width="1" /><polyline fill="none" opacity="100" points="646.0,448.0 695.0,422.0 537.0,125.0 488.0,151.0 646.0,448.0" stroke="#000" stroke-dasharray="5,5" stroke-width="1" /><polyline fill="none" opacity="100" points="620.0,35.0 737.0,256.0 484.0,391.0 367.0,170.0" stroke="#000" stroke-width="1" /><polyline fill="none" opacity="100" points="367.0,170.0 366.4375,167.9141 366.0,165.7812 365.6868,163.6001 365.5,161.375 365.4441,159.1147 365.5117,156.8047 365.7007,154.4404 366.0,152.0 366.3892,149.4424 366.8945,146.8203 367.5344,144.1692 368.3125,141.5 369.2332,138.8289 370.3125,136.1758 371.5586,133.5532 373.0,131.0 374.6836,128.5757 376.5625,126.2305 378.6082,123.9365 380.8125,121.6875 383.1594,119.4658 385.6445,117.2773 388.2642,115.1245 391.0,113.0 393.8257,110.895 396.7617,108.8164 399.8191,106.7678 403.0,104.75 406.3118,102.7654 409.75,100.8125 413.3125,98.8906 417.0,97.0" stroke="#000" stroke-width="1" /><polyline fill="none" opacity="100" points="620.0,35.0 619.0469,33.0625 617.9375,31.25 616.6716,29.5618 615.25,28.0 613.6741,26.5691 611.9414,25.2617 610.0513,24.0757 608.0,23.0 605.7808,22.0142 603.4023,21.1445 600.8662,20.4109 598.1875,19.8125 595.3955,19.345 592.4492,19.0391 589.3374,18.9072 586.0,19.0 582.3228,19.4053 578.457,20.0234 574.5046,20.7908 570.5,21.6875 566.4934,22.6799 562.5391,23.7461 558.6729,24.8706 555.0,26.0 551.6787,27.0552 548.5859,28.0977 545.6558,29.1604 542.875,30.25 540.1997,31.3884 537.6562,32.5625 535.2578,33.7656 533.0,35.0" stroke="#000" stroke-width="1" /><polyline fill="none" opacity="100" points="417.0,97.0 430.0,122.0 439.0,117.0" stroke="#000" stroke-width="1" /><polyline fill="none" opacity="100" points="533.0,35.0 547.0,61.0 535.0,67.0" stroke="#000" stroke-width="1" /><polyline fill="none" opacity="100" points="535.0,67.0 532.3906,64.7188 529.8125,62.625 527.2676,60.719 524.75,59.0 522.248,57.4666 519.7812,56.1211 517.3555,54.9644 515.0,54.0 512.7695,53.2349 510.5938,52.6602 508.4238,52.2715 506.25,52.0625 504.0605,52.0215 501.8125,52.1602 499.4844,52.481 497.0,53.0 494.2344,53.7495 491.3125,54.6836 488.3081,55.772 485.25,57.0 482.1958,58.3452 479.1328,59.8008 476.0635,61.3579 473.0,63.0 469.9443,64.7085 466.9297,66.4805 463.9863,68.3064 461.125,70.1875 458.3496,72.137 455.7109,74.1094 453.2373,76.084 451.0,78.0 449.1143,79.752 447.4766,81.4531 446.0269,83.1746 444.75,84.9375 443.6099,86.7805 442.6094,88.7227 441.748,90.7778 441.0,93.0 440.3301,95.4683 439.7656,98.1211 439.3213,100.9255 439.0,103.875 438.8115,106.9475 438.75,110.1562 438.8125,113.5078 439.0,117.0" stroke="#000" stroke-width="1" /><polyline fill="none" opacity="100" points="494.0,162.0 490.7266,162.0859 487.5312,161.9688 484.4141,161.6484 481.375,161.125 478.4141,160.3984 475.5312,159.4688 472.7266,158.3359 470.0,157.0 467.3516,155.4609 464.7812,153.7188 462.2891,151.7734 459.875,149.625 457.5391,147.2734 455.2812,144.7188 453.1016,141.9609 451.0,139.0" stroke="#000" stroke-width="1" /><polyline fill="none" opacity="100" points="451.0,139.0 441.0,145.0 492.0,241.0" stroke="#000" stroke-width="1" /><polyline fill="none" opacity="100" points="492.0,241.0 494.5469,243.5156 497.1875,245.8125 499.9246,247.8892 502.75,249.75 505.6477,251.4038 508.6445,252.8359 511.7485,254.042 515.0,255.0 518.4741,255.6689 522.0742,256.1016 525.7346,256.3335 529.4375,256.375 533.158,256.2407 536.8516,255.9531 540.4932,255.5254 544.0,255.0 547.2412,254.4434 550.3359,253.7969 553.356,253.0256 556.3125,252.125 559.2339,251.0818 562.1406,249.8867 565.041,248.5366 568.0,247.0 571.123,245.2251 574.2969,243.2695 577.4514,241.1697 580.5625,238.9375 583.5857,236.594 586.5117,234.1484 589.3296,231.6084 592.0,229.0 594.4712,226.3604 596.7695,223.6641 598.9045,220.8987 600.875,218.0625 602.6912,215.1462 604.3281,212.1602 605.7715,209.1099 607.0,206.0 607.9785,202.8394 608.7344,199.6211 609.2822,196.3416 609.625,193.0 609.7725,189.594 609.7188,186.125 609.4609,182.5938 609.0,179.0" stroke="#000" stroke-width="1" /><polyline fill="none" opacity="100" points="609.0,179.0 558.0,82.0 546.0,88.0" stroke="#000" stroke-width="1" /><polyline fill="none" opacity="100" points="546.0,88.0 547.3906,90.875 548.5625,93.75 549.5156,96.625 550.25,99.5 550.7656,102.375 551.0625,105.25 551.1406,108.125 551.0,111.0 550.6406,113.875 550.0625,116.75 549.2656,119.625 548.25,122.5 547.0156,125.375 545.5625,128.25 543.8906,131.125 542.0,134.0" stroke="#000" stroke-width="1" /><polyline fill="none" opacity="100" points="483.0,82.0 513.0,138.0" stroke="#000" stroke-width="1" /><polyline fill="none" opacity="100" points="483.0,82.0 546.0,88.0" stroke="#000" stroke-dasharray="5,5" stroke-width="1" /><polyline fill="none" opacity="100" points="97.0,853.0 112.0,873.0" stroke="#F00" stroke-width="1" /><polygon fill="#F00" opacity="100" points="106.1004,868.3691 112.0,873.0 109.2062,866.0398" stroke="#F00" stroke-width="1" /><polyline fill="none" opacity="100" points="449.0,131.0 429.0,139.0" stroke="#F00" stroke-width="1" /><polygon fill="#F00" opacity="100" points="434.1744,135.1289 429.0,139.0 435.4167,138.2347" stroke="#F00" stroke-width="1" /><polyline fill="none" opacity="100" points="149.0,797.0 123.0,797.0" stroke="#008000" stroke-width="1" /><polygon fill="#008000" opacity="100" points="130.5342,794.9812 123.0,797.0 130.5342,799.0188" stroke="#008000" stroke-width="1" /><polyline fill="none" opacity="100" points="559.0,72.0 540.0,78.0" stroke="#008000" stroke-width="1" /><polygon fill="#008000" opacity="100" points="545.0399,74.7861 540.0,78.0 545.9717,77.7366" stroke="#008000" stroke-width="1" /><text fill="#EA7B16" font-family="Arial" font-size="20" font-weight="normal" opacity="100" transform="rotate(-0.0 54.0,961.0) translate(0 20)" x="54.0" y="961.0">&lt;&lt; Лиговский пр.</text><text fill="#EA7B16" font-family="Arial" font-size="20" font-weight="normal" opacity="100" transform="rotate(-0.0 441.0,1133.0) translate(0 20)" x="441.0" y="1133.0">Новочеркасская &gt;&gt;</text><text fill="#EA7B16" font-family="Arial" font-size="25" font-weight="bold" opacity="100" transform="rotate(-0.0 252.0,1047.0) translate(0 25)" x="252.0" y="1047.0">пл.Ал.Невского-II</text><text fill="#00873A" font-family="Arial" font-size="20" font-weight="normal" opacity="100" transform="rotate(62.0 783.0,455.0) translate(0 20)" x="783.0" y="455.0">&lt;&lt; Маяковская</text><text fill="#00873A" font-family="Arial" font-size="20" font-weight="normal" opacity="100" transform="rotate(62.0 795.0,792.0) translate(0 20)" x="795.0" y="792.0">Елизаровская &gt;&gt;</text><text fill="#00873A" font-family="Arial" font-size="25" font-weight="bold" opacity="100" transform="rotate(62.0 785.0,611.0) translate(0 25)" x="785.0" y="611.0">пл.Ал.Невского-I</text><text fill="#00AFAF" font-family="Arial" font-size="15" font-weight="normal" opacity="100" transform="rotate(10.0 335.0,918.0) translate(0 15)" x="335.0" y="918.0">площадь Александра Невского</text><text fill="#00AFAF" font-family="Arial" font-size="15" font-weight="normal" opacity="100" transform="rotate(50.0 213.0,615.0) translate(0 15)" x="213.0" y="615.0">Невский проспект</text><text fill="#00AFAF" font-family="Arial" font-size="15" font-weight="normal" opacity="100" transform="rotate(-40.0 179.0,92.0) translate(0 15)" x="179.0" y="92.0">улица Александра Невского</text></g></g></svg>