<?xml version="1.0" encoding="utf-8" ?>
<svg baseProfile="tiny" height="700px" version="1.2" width="310px" xmlns="http://www.w3.org/2000/svg" xmlns:ev="http://www.w3.org/2001/xml-events" xmlns:xlink="http://www.w3.org/1999/xlink"><defs /><g><g transform="rotate(80.0,155.0,350.0)"><polygon fill="#DC004B" opacity="100" points="26.0,371.0 26.0,357.0 476.0,357.0 476.0,371.0" stroke="#000" stroke-width="1" /><polygon fill="#DC004B" opacity="100" points="26.0,450.0 26.0,464.0 476.0,464.0 476.0,450.0" stroke="#000" stroke-width="1" /><polyline fill="none" opacity="100" points="476.0,371.0 476.0,388.0 443.0,388.0 443.0,434.0 476.0,434.0 476.0,450.0" stroke="#000" stroke-width="1" /><polyline fill="none" opacity="100" points="26.0,371.0 26.0,392.0" stroke="#000" stroke-width="1" /><polyline fill="none" opacity="100" points="26.0,450.0 26.0,433.0" stroke="#000" stroke-width="1" /><polyline fill="none" opacity="100" points="-5.0,392.0 35.0,392.0" stroke="#000" stroke-width="1" /><polyline fill="none" opacity="100" points="-5.0,433.0 35.0,433.0" stroke="#000" stroke-width="1" /><polyline fill="none" opacity="100" points="-5.0,392.0 -5.0,433.0" stroke="#000" stroke-width="1" /><polyline fill="none" opacity="100" points="-1.0,392.0 -1.0,433.0" stroke="#000" stroke-width="1" /><polyline fill="none" opacity="100" points="3.0,392.0 3.0,433.0" stroke="#000" stroke-width="1" /><polyline fill="none" opacity="100" points="7.0,392.0 7.0,433.0" stroke="#000" stroke-width="1" /><polyline fill="none" opacity="100" points="11.0,392.0 11.0,433.0" stroke="#000" stroke-width="1" /><polyline fill="none" opacity="100" points="35.0,392.0 35.0,433.0" stroke="#000" stroke-width="1" /><polyline fill="none" opacity="100" points="31.0,392.0 31.0,433.0" stroke="#000" stroke-width="1" /><polyline fill="none" opacity="100" points="27.0,392.0 27.0,433.0" stroke="#000" stroke-width="1" /><polyline fill="none" opacity="100" points="23.0,392.0 23.0,433.0" stroke="#000" stroke-width="1" /><polyline fill="none" opacity="100" points="26.0,371.0 -49.0,371.0 -49.0,320.0" stroke="#000" stroke-width="1" /><polyline fill="none" opacity="100" points="26.0,450.0 -86.0,450.0 -86.0,372.0 -83.0,372.0 -83.0,320.0" stroke="#000" stroke-width="1" /><polyline fill="none" opacity="100" points="-49.0,320.0 -45.8984,318.7812 -42.9688,317.375 -40.2085,315.7795 -37.625,314.0 -35.2329,312.0466 -33.0078,309.9023 -30.9424,307.562 -29.0,305.0 -27.1123,302.1685 -25.3672,299.1289 -23.8257,295.9167 -22.5,292.5625 -21.4048,289.1204 -20.5938,285.5547 -20.0938,281.8623 -20.0,278.0 -20.4688,273.8721 -21.3438,269.6328 -22.5327,265.3923 -24.0,261.1875 -25.6743,257.0627 -27.5703,253.1055 -29.6846,249.3687 -32.0,246.0 -34.5107,243.229 -37.1797,240.8633 -39.9727,238.7954 -42.875,237.0 -45.8789,235.4077 -48.9297,234.043 -51.9951,232.9155 -55.0,232.0 -57.8252,231.2681 -60.5703,230.7383 -63.2939,230.418 -66.0,230.3125 -68.7061,230.4375 -71.4297,230.7695 -74.1748,231.2993 -77.0,232.0 -80.0049,232.8218 -83.0703,233.8242 -86.1211,235.0518 -89.125,236.5 -92.0273,238.1553 -94.8203,240.0898 -97.4893,242.3315 -100.0,245.0 -102.3154,248.3052 -104.4297,252.0039 -106.3257,255.9417 -108.0,260.0625 -109.4673,264.2712 -110.6562,268.5312 -111.5312,272.8086 -112.0,277.0 -111.9062,280.9648 -111.4062,284.7812 -110.5952,288.4807 -109.5,292.0625 -108.1743,295.5564 -106.6328,298.9023 -104.8877,302.0659 -103.0,305.0 -101.0576,307.6255 -98.9922,310.0039 -96.7671,312.1682 -94.375,314.125 -91.7915,315.8962 -89.0312,317.4688 -86.1016,318.8359 -83.0,320.0" stroke="#000" stroke-width="1" /><polyline fill="none" opacity="100" points="-91.0,295.0 -92.3359,292.4453 -93.4688,289.9062 -94.3967,287.3804 -95.125,284.875 -95.6638,282.4048 -95.9961,279.9453 -96.1167,277.4893 -96.0,275.0 -95.5981,272.4092 -94.9727,269.8047 -94.1646,267.2451 -93.1875,264.75 -92.062,262.3486 -90.8086,260.0703 -89.4409,257.9346 -88.0,256.0 -86.5474,254.3545 -85.0352,252.9297 -83.4377,251.689 -81.75,250.625 -79.9548,249.7134 -78.0625,248.9688 -76.0781,248.3984 -74.0,248.0" stroke="#000" stroke-width="1" /><polyline fill="none" opacity="100" points="-59.0,248.0 -56.7422,248.6328 -54.5938,249.4062 -52.5532,250.322 -50.625,251.375 -48.8179,252.5549 -47.1172,253.8789 -45.5186,255.3521 -44.0,257.0 -42.5205,258.8706 -41.1328,260.9023 -39.8721,263.0542 -38.75,265.3125 -37.7842,267.6567 -36.9922,270.0664 -36.3857,272.5278 -36.0,275.0 -35.8877,277.4214 -36.0078,279.8398 -36.3384,282.281 -36.875,284.75 -37.603,287.2639 -38.5312,289.8125 -39.6641,292.3906 -41.0,295.0" stroke="#000" stroke-width="1" /><polyline fill="none" opacity="100" points="-68.0,390.0 -68.0,372.0" stroke="#000" stroke-width="1" /><polyline fill="none" opacity="100" points="-83.0,372.0 -68.0,372.0" stroke="#000" stroke-dasharray="5,5" stroke-width="1" /><polyline fill="none" opacity="100" points="-68.0,390.0 -26.0,371.0" stroke="#000" stroke-dasharray="5,5" stroke-width="1" /><polyline fill="none" opacity="100" points="-109.0,294.0 -103.0,305.0" stroke="#000" stroke-width="1" /><polyline fill="none" opacity="100" points="-94.9537,286.3384 -88.9537,297.3384" stroke="#000" stroke-width="1" /><polyline fill="none" opacity="100" points="-104.4366,302.3663 -90.3902,294.7047" stroke="#000" stroke-width="1" /><polyline fill="none" opacity="100" points="-105.8731,299.7326 -91.8268,292.071" stroke="#000" stroke-width="1" /><polyline fill="none" opacity="100" points="-107.3097,297.0989 -93.2633,289.4373" stroke="#000" stroke-width="1" /><polyline fill="none" opacity="100" points="-108.7462,294.4653 -94.6999,286.8036" stroke="#000" stroke-width="1" /><polyline fill="none" opacity="100" points="-112.0,282.0 -109.0,294.0" stroke="#000" stroke-width="1" /><polyline fill="none" opacity="100" points="-96.4777,278.1194 -93.4777,290.1194" stroke="#000" stroke-width="1" /><polyline fill="none" opacity="100" points="-109.7276,291.0896 -94.2053,287.209" stroke="#000" stroke-width="1" /><polyline fill="none" opacity="100" points="-110.4552,288.1791 -94.9329,284.2986" stroke="#000" stroke-width="1" /><polyline fill="none" opacity="100" points="-111.1828,285.2687 -95.6605,281.3881" stroke="#000" stroke-width="1" /><polyline fill="none" opacity="100" points="-111.9104,282.3583 -96.3881,278.4777" stroke="#000" stroke-width="1" /><polyline fill="none" opacity="100" points="-108.0,259.0 -111.0,271.0" stroke="#000" stroke-width="1" /><polyline fill="none" opacity="100" points="-92.4777,262.8806 -95.4777,274.8806" stroke="#000" stroke-width="1" /><polyline fill="none" opacity="100" points="-110.2724,268.0896 -94.7501,271.9701" stroke="#000" stroke-width="1" /><polyline fill="none" opacity="100" points="-109.5448,265.1791 -94.0225,269.0597" stroke="#000" stroke-width="1" /><polyline fill="none" opacity="100" points="-108.8172,262.2687 -93.2949,266.1493" stroke="#000" stroke-width="1" /><polyline fill="none" opacity="100" points="-108.0896,259.3583 -92.5673,263.2389" stroke="#000" stroke-width="1" /><polyline fill="none" opacity="100" points="-102.0,248.0 -108.0,259.0" stroke="#000" stroke-width="1" /><polyline fill="none" opacity="100" points="-87.9537,255.6616 -93.9537,266.6616" stroke="#000" stroke-width="1" /><polyline fill="none" opacity="100" points="-106.5634,256.3663 -92.5171,264.0279" stroke="#000" stroke-width="1" /><polyline fill="none" opacity="100" points="-105.1269,253.7326 -91.0806,261.3943" stroke="#000" stroke-width="1" /><polyline fill="none" opacity="100" points="-103.6903,251.0989 -89.644,258.7606" stroke="#000" stroke-width="1" /><polyline fill="none" opacity="100" points="-102.2538,248.4653 -88.2074,256.1269" stroke="#000" stroke-width="1" /><polyline fill="none" opacity="100" points="-88.0,236.0 -97.0,242.0" stroke="#000" stroke-width="1" /><polyline fill="none" opacity="100" points="-79.1248,249.3128 -88.1248,255.3128" stroke="#000" stroke-width="1" /><polyline fill="none" opacity="100" points="-94.5038,240.3359 -85.6286,253.6487" stroke="#000" stroke-width="1" /><polyline fill="none" opacity="100" points="-92.0077,238.6718 -83.1325,251.9846" stroke="#000" stroke-width="1" /><polyline fill="none" opacity="100" points="-89.5115,237.0077 -80.6363,250.3205" stroke="#000" stroke-width="1" /><polyline fill="none" opacity="100" points="-77.0,232.0 -88.0,236.0" stroke="#000" stroke-width="1" /><polyline fill="none" opacity="100" points="-71.5321,247.0367 -82.5321,251.0367" stroke="#000" stroke-width="1" /><polyline fill="none" opacity="100" points="-85.1806,234.9748 -79.7127,250.0115" stroke="#000" stroke-width="1" /><polyline fill="none" opacity="100" points="-82.3612,233.9495 -76.8934,248.9862" stroke="#000" stroke-width="1" /><polyline fill="none" opacity="100" points="-79.5419,232.9243 -74.074,247.961" stroke="#000" stroke-width="1" /><polyline fill="none" opacity="100" points="-43.0,237.0 -55.0,232.0" stroke="#000" stroke-width="1" /><polyline fill="none" opacity="100" points="-49.1538,251.7692 -61.1538,246.7692" stroke="#000" stroke-width="1" /><polyline fill="none" opacity="100" points="-52.2308,233.1538 -58.3846,247.9231" stroke="#000" stroke-width="1" /><polyline fill="none" opacity="100" points="-49.4615,234.3077 -55.6154,249.0769" stroke="#000" stroke-width="1" /><polyline fill="none" opacity="100" points="-46.6923,235.4615 -52.8462,250.2308" stroke="#000" stroke-width="1" /><polyline fill="none" opacity="100" points="-43.9231,236.6154 -50.0769,251.3846" stroke="#000" stroke-width="1" /><polyline fill="none" opacity="100" points="-35.0,243.0 -43.0,237.0" stroke="#000" stroke-width="1" /><polyline fill="none" opacity="100" points="-44.6,255.8 -52.6,249.8" stroke="#000" stroke-width="1" /><polyline fill="none" opacity="100" points="-40.6,238.8 -50.2,251.6" stroke="#000" stroke-width="1" /><polyline fill="none" opacity="100" points="-38.2,240.6 -47.8,253.4" stroke="#000" stroke-width="1" /><polyline fill="none" opacity="100" points="-35.8,242.4 -45.4,255.2" stroke="#000" stroke-width="1" /><polyline fill="none" opacity="100" points="-24.0,260.0 -29.0,250.0" stroke="#000" stroke-width="1" /><polyline fill="none" opacity="100" points="-38.3108,267.1554 -43.3108,257.1554" stroke="#000" stroke-width="1" /><polyline fill="none" opacity="100" points="-27.6584,252.6833 -41.9692,259.8387" stroke="#000" stroke-width="1" /><polyline fill="none" opacity="100" points="-26.3167,255.3666 -40.6276,262.522" stroke="#000" stroke-width="1" /><polyline fill="none" opacity="100" points="-24.9751,258.0498 -39.2859,265.2053" stroke="#000" stroke-width="1" /><polyline fill="none" opacity="100" points="-21.0,270.0 -24.0,260.0" stroke="#000" stroke-width="1" /><polyline fill="none" opacity="100" points="-36.3252,274.5976 -39.3252,264.5976" stroke="#000" stroke-width="1" /><polyline fill="none" opacity="100" points="-23.138,262.8735 -38.4632,267.471" stroke="#000" stroke-width="1" /><polyline fill="none" opacity="100" points="-22.2759,265.747 -37.6011,270.3445" stroke="#000" stroke-width="1" /><polyline fill="none" opacity="100" points="-21.4139,268.6204 -36.7391,273.218" stroke="#000" stroke-width="1" /><polyline fill="none" opacity="100" points="-22.0,292.0 -20.0,278.0" stroke="#000" stroke-width="1" /><polyline fill="none" opacity="100" points="-37.8392,289.7373 -35.8392,275.7373" stroke="#000" stroke-width="1" /><polyline fill="none" opacity="100" points="-20.4243,280.9698 -36.2635,278.7071" stroke="#000" stroke-width="1" /><polyline fill="none" opacity="100" points="-20.8485,283.9397 -36.6877,281.677" stroke="#000" stroke-width="1" /><polyline fill="none" opacity="100" points="-21.2728,286.9095 -37.112,284.6468" stroke="#000" stroke-width="1" /><polyline fill="none" opacity="100" points="-21.6971,289.8794 -37.5362,287.6167" stroke="#000" stroke-width="1" /><polyline fill="none" opacity="100" points="-29.0,305.0 -22.0,292.0" stroke="#000" stroke-width="1" /><polyline fill="none" opacity="100" points="-43.0875,297.4144 -36.0875,284.4144" stroke="#000" stroke-width="1" /><polyline fill="none" opacity="100" points="-23.4223,294.6414 -37.5098,287.0558" stroke="#000" stroke-width="1" /><polyline fill="none" opacity="100" points="-24.8446,297.2828 -38.9321,289.6972" stroke="#000" stroke-width="1" /><polyline fill="none" opacity="100" points="-26.2669,299.9242 -40.3544,292.3386" stroke="#000" stroke-width="1" /><polyline fill="none" opacity="100" points="-27.6892,302.5657 -41.7767,294.9801" stroke="#000" stroke-width="1" /><polyline fill="none" opacity="100" points="18.0,296.0 18.0,320.0 95.0,320.0 95.0,296.0" stroke="#000" stroke-width="1" /><polyline fill="none" opacity="100" points="76.0,296.0 76.0,278.0" stroke="#000" stroke-width="1" /><polyline fill="none" opacity="100" points="36.0,295.0 36.0,278.0" stroke="#000" stroke-width="1" /><polyline fill="none" opacity="100" points="50.0,296.0 50.0,284.0 62.0,284.0 62.0,296.0 50.0,296.0" stroke="#000" stroke-width="1" /><polyline fill="none" opacity="100" points="36.0,278.0 33.0234,276.5625 30.2188,275.0 27.5845,273.312 25.125,271.5 22.8491,269.5669 20.7422,267.5078 18.7998,265.3213 17.0,263.0 15.3018,260.5303 13.7578,257.9297 12.4041,255.2056 11.25,252.375 10.3088,249.4702 9.6055,246.4531 9.1538,243.3145 9.0,240.0 9.2173,236.4043 9.7383,232.6719 10.5259,228.8999 11.5625,225.125 12.8101,221.4009 14.293,217.7734 16.0171,214.2764 18.0,211.0 20.2837,208.0752 22.8008,205.4141 25.5049,202.9736 28.375,200.75 31.3818,198.7139 34.5039,196.8984 37.7231,195.3232 41.0,194.0 44.2808,192.9502 47.5898,192.1641 50.9387,191.6404 54.3125,191.375 57.696,191.3538 61.1016,191.6055 64.5244,192.1421 68.0,193.0 71.6006,194.2446 75.2109,195.8008 78.7488,197.624 82.1875,199.6875 85.4954,201.9424 88.6055,204.4102 91.478,207.0903 94.0,210.0 95.9946,213.187 97.6133,216.5586 98.9417,220.0469 100.0,223.625 100.8416,227.2617 101.4531,230.9023 101.8301,234.5112 102.0,238.0 101.998,241.2349 101.7969,244.3164 101.3818,247.2974 100.75,250.1875 99.8916,253.0229 98.8125,255.7773 97.5156,258.437 96.0,261.0 94.2656,263.4575 92.3125,265.8164 90.1406,268.0803 87.75,270.25 85.1406,272.3279 82.3125,274.3125 79.2656,276.2031 76.0,278.0" stroke="#000" stroke-width="1" /><polyline fill="none" opacity="100" points="46.0,216.0 44.1875,216.9609 42.5,217.9688 40.938,219.0239 39.5,220.125 38.1831,221.269 36.9922,222.4609 35.9287,223.7021 35.0,225.0 34.2197,226.3682 33.5703,227.7891 33.0391,229.252 32.625,230.75 32.3281,232.2715 32.1328,233.8203 32.0322,235.3955 32.0,237.0 31.9912,238.6436 32.0547,240.3047 32.2212,241.9673 32.5,243.625 32.9077,245.271 33.4531,246.8906 34.1426,248.4746 35.0,250.0 36.0605,251.4316 37.2969,252.7969 38.6943,254.1104 40.25,255.375 41.9541,256.6006 43.8125,257.7812 45.8281,258.9141 48.0,260.0" stroke="#000" stroke-width="1" /><polyline fill="none" opacity="100" points="66.0,260.0 67.8125,258.7344 69.5,257.4375 71.0625,256.1086 72.5,254.75 73.8125,253.366 75.0,251.9492 76.0625,250.4976 77.0,249.0 77.8125,247.436 78.5,245.832 79.062,244.2048 79.5,242.5625 79.8169,240.9182 80.0078,239.2734 80.0713,237.6318 80.0,236.0 79.7803,234.3838 79.4297,232.7891 78.96,231.2224 78.375,229.6875 77.6807,228.1858 76.8828,226.7305 75.9854,225.3296 75.0,224.0 73.9443,222.7681 72.8047,221.6133 71.5737,220.5247 70.25,219.5 68.8286,218.532 67.3125,217.625 65.7031,216.7812 64.0,216.0" stroke="#000" stroke-width="1" /><polyline fill="none" opacity="100" points="64.0,216.0 64.0,208.0 68.0,193.0" stroke="#000" stroke-width="1" /><polyline fill="none" opacity="100" points="46.0,216.0 46.0,208.0 41.0,194.0" stroke="#000" stroke-width="1" /><polyline fill="none" opacity="100" points="46.0,216.0 64.0,216.0" stroke="#000" stroke-width="1" /><polyline fill="none" opacity="100" points="46.0,212.0 64.0,212.0" stroke="#000" stroke-width="1" /><polyline fill="none" opacity="100" points="46.0,208.0 64.0,208.0" stroke="#000" stroke-width="1" /><polyline fill="none" opacity="100" points="43.0,285.0 43.0,294.0" stroke="#F00" stroke-width="1" /><polygon fill="#F00" opacity="100" points="42.3012,291.392 43.0,294.0 43.6988,291.392" stroke="#F00" stroke-width="1" /><polyline fill="none" opacity="100" points="53.0,201.0 53.0,210.0" stroke="#F00" stroke-width="1" /><polygon fill="#F00" opacity="100" points="52.3012,207.392 53.0,210.0 53.6988,207.392" stroke="#F00" stroke-width="1" /><polyline fill="none" opacity="100" points="44.0,198.0 51.0,196.0" stroke="#F00" stroke-width="1" /><polygon fill="#F00" opacity="100" points="49.1268,197.1231 51.0,196.0 48.8163,196.036" stroke="#F00" stroke-width="1" /><polyline fill="none" opacity="100" points="-100.0,259.0 -96.0,253.0" stroke="#F00" stroke-width="1" /><polygon fill="#F00" opacity="100" points="-96.6932,255.0492 -96.0,253.0 -97.625,254.4281" stroke="#F00" stroke-width="1" /><polyline fill="none" opacity="100" points="-74.0,363.0 -74.0,354.0" stroke="#F00" stroke-width="1" /><polygon fill="#F00" opacity="100" points="-73.3012,356.608 -74.0,354.0 -74.6988,356.608" stroke="#F00" stroke-width="1" /><polyline fill="none" opacity="100" points="-69.0,238.0 -69.0,245.0" stroke="#F00" stroke-width="1" /><polygon fill="#F00" opacity="100" points="-69.5435,242.9716 -69.0,245.0 -68.4565,242.9716" stroke="#F00" stroke-width="1" /><polyline fill="none" opacity="100" points="69.0,294.0 69.0,284.0" stroke="#008000" stroke-width="1" /><polygon fill="#008000" opacity="100" points="69.7765,286.8978 69.0,284.0 68.2235,286.8978" stroke="#008000" stroke-width="1" /><polyline fill="none" opacity="100" points="58.0,210.0 58.0,201.0" stroke="#008000" stroke-width="1" /><polygon fill="#008000" opacity="100" points="58.6988,203.608 58.0,201.0 57.3012,203.608" stroke="#008000" stroke-width="1" /><polyline fill="none" opacity="100" points="59.0,196.0 65.0,197.0" stroke="#008000" stroke-width="1" /><polygon fill="#008000" opacity="100" points="63.1837,197.1761 65.0,197.0 63.339,196.2443" stroke="#008000" stroke-width="1" /><polyline fill="none" opacity="100" points="-64.0,245.0 -64.0,238.0" stroke="#008000" stroke-width="1" /><polygon fill="#008000" opacity="100" points="-63.4565,240.0284 -64.0,238.0 -64.5435,240.0284" stroke="#008000" stroke-width="1" /><polyline fill="none" opacity="100" points="-34.0,258.0 -31.0,265.0" stroke="#008000" stroke-width="1" /><polygon fill="#008000" opacity="100" points="-32.4129,263.2045 -31.0,265.0 -31.3258,262.7386" stroke="#008000" stroke-width="1" /><polyline fill="none" opacity="100" points="-55.0,353.0 -55.0,362.0" stroke="#008000" stroke-width="1" /><polygon fill="#008000" opacity="100" points="-55.6988,359.392 -55.0,362.0 -54.3012,359.392" stroke="#008000" stroke-width="1" /><text fill="#DC004B" font-family="Arial" font-size="20" font-weight="normal" opacity="100" transform="rotate(-0.0 27.0,333.0) translate(0 20)" x="27.0" y="333.0">&lt;&lt; Кировский Завод</text><text fill="#DC004B" font-family="Arial" font-size="20" font-weight="normal" opacity="100" transform="rotate(-0.0 281.0,465.0) translate(0 20)" x="281.0" y="465.0">Ленинский проспект &gt;&gt;</text><text fill="#DC004B" font-family="Arial" font-size="25" font-weight="bold" opacity="100" transform="rotate(-0.0 214.0,395.0) translate(0 25)" x="214.0" y="395.0">Автово</text><text fill="#00AFAF" font-family="Arial" font-size="15" font-weight="normal" opacity="100" transform="rotate(-0.0 -199.0,400.0) translate(0 15)" x="-199.0" y="400.0">проспект Стачек</text></g></g></svg>