<?xml version="1.0" encoding="utf-8" ?>
<svg baseProfile="tiny" height="360px" version="1.2" width="980px" xmlns="http://www.w3.org/2000/svg" xmlns:ev="http://www.w3.org/2001/xml-events" xmlns:xlink="http://www.w3.org/1999/xlink"><defs /><g><g transform="rotate(-180.0,490.0,180.0)"><polygon fill="#DC004B" opacity="100" points="39.0,41.0 577.0,41.0 577.0,26.0 39.0,26.0" stroke="#000" stroke-width="1" /><polygon fill="#DC004B" opacity="100" points="39.0,140.0 577.0,140.0 577.0,155.0 39.0,155.0" stroke="#000" stroke-width="1" /><polyline fill="none" opacity="100" points="39.0,42.0 39.0,55.0 52.0,55.0 52.0,65.0 43.0,65.0 43.0,62.0 26.0,62.0 26.0,119.0 43.0,119.0 43.0,115.0 52.0,115.0 52.0,125.0 39.0,125.0 39.0,140.0" stroke="#000" stroke-width="1" /><polyline fill="none" opacity="100" points="577.0,140.0 577.0,126.0 567.0,126.0 567.0,117.0 574.0,117.0 574.0,109.0 582.0,109.0 582.0,116.0 597.0,116.0 597.0,121.0 615.0,121.0 615.0,116.0" stroke="#000" stroke-width="1" /><polyline fill="none" opacity="100" points="577.0,42.0 577.0,54.0 567.0,54.0 567.0,64.0 574.0,64.0 574.0,71.0 582.0,71.0 582.0,64.0 597.0,64.0 597.0,59.0 615.0,59.0 615.0,65.0" stroke="#000" stroke-width="1" /><polygon fill="#7F7F7F" opacity="100" points="49.0,52.0 55.0,52.0 55.0,60.0 53.0,62.0 51.0,62.0 49.0,60.0" stroke="#000" stroke-width="1" /><polygon fill="#7F7F7F" opacity="100" points="67.0,52.0 73.0,52.0 73.0,60.0 71.0,62.0 69.0,62.0 67.0,60.0" stroke="#000" stroke-width="1" /><polygon fill="#7F7F7F" opacity="100" points="86.0,52.0 92.0,52.0 92.0,60.0 90.0,62.0 88.0,62.0 86.0,60.0" stroke="#000" stroke-width="1" /><polygon fill="#7F7F7F" opacity="100" points="104.0,52.0 110.0,52.0 110.0,60.0 108.0,62.0 106.0,62.0 104.0,60.0" stroke="#000" stroke-width="1" /><polygon fill="#7F7F7F" opacity="100" points="123.0,52.0 129.0,52.0 129.0,60.0 127.0,62.0 125.0,62.0 123.0,60.0" stroke="#000" stroke-width="1" /><polygon fill="#7F7F7F" opacity="100" points="141.0,52.0 147.0,52.0 147.0,60.0 145.0,62.0 143.0,62.0 141.0,60.0" stroke="#000" stroke-width="1" /><polygon fill="#7F7F7F" opacity="100" points="160.0,52.0 166.0,52.0 166.0,60.0 164.0,62.0 162.0,62.0 160.0,60.0" stroke="#000" stroke-width="1" /><polygon fill="#7F7F7F" opacity="100" points="178.0,52.0 184.0,52.0 184.0,60.0 182.0,62.0 180.0,62.0 178.0,60.0" stroke="#000" stroke-width="1" /><polygon fill="#7F7F7F" opacity="100" points="196.0,52.0 202.0,52.0 202.0,60.0 200.0,62.0 198.0,62.0 196.0,60.0" stroke="#000" stroke-width="1" /><polygon fill="#7F7F7F" opacity="100" points="214.0,52.0 220.0,52.0 220.0,60.0 218.0,62.0 216.0,62.0 214.0,60.0" stroke="#000" stroke-width="1" /><polygon fill="#7F7F7F" opacity="100" points="233.0,52.0 239.0,52.0 239.0,60.0 237.0,62.0 235.0,62.0 233.0,60.0" stroke="#000" stroke-width="1" /><polygon fill="#7F7F7F" opacity="100" points="252.0,52.0 258.0,52.0 258.0,60.0 256.0,62.0 254.0,62.0 252.0,60.0" stroke="#000" stroke-width="1" /><polygon fill="#7F7F7F" opacity="100" points="270.0,52.0 276.0,52.0 276.0,60.0 274.0,62.0 272.0,62.0 270.0,60.0" stroke="#000" stroke-width="1" /><polygon fill="#7F7F7F" opacity="100" points="288.0,52.0 294.0,52.0 294.0,60.0 292.0,62.0 290.0,62.0 288.0,60.0" stroke="#000" stroke-width="1" /><polygon fill="#7F7F7F" opacity="100" points="306.0,52.0 312.0,52.0 312.0,60.0 310.0,62.0 308.0,62.0 306.0,60.0" stroke="#000" stroke-width="1" /><polygon fill="#7F7F7F" opacity="100" points="325.0,52.0 331.0,52.0 331.0,60.0 329.0,62.0 327.0,62.0 325.0,60.0" stroke="#000" stroke-width="1" /><polygon fill="#7F7F7F" opacity="100" points="343.0,52.0 349.0,52.0 349.0,60.0 347.0,62.0 345.0,62.0 343.0,60.0" stroke="#000" stroke-width="1" /><polygon fill="#7F7F7F" opacity="100" points="362.0,52.0 368.0,52.0 368.0,60.0 366.0,62.0 364.0,62.0 362.0,60.0" stroke="#000" stroke-width="1" /><polygon fill="#7F7F7F" opacity="100" points="381.0,52.0 387.0,52.0 387.0,60.0 385.0,62.0 383.0,62.0 381.0,60.0" stroke="#000" stroke-width="1" /><polygon fill="#7F7F7F" opacity="100" points="399.0,52.0 405.0,52.0 405.0,60.0 403.0,62.0 401.0,62.0 399.0,60.0" stroke="#000" stroke-width="1" /><polygon fill="#7F7F7F" opacity="100" points="417.0,52.0 423.0,52.0 423.0,60.0 421.0,62.0 419.0,62.0 417.0,60.0" stroke="#000" stroke-width="1" /><polygon fill="#7F7F7F" opacity="100" points="435.0,52.0 441.0,52.0 441.0,60.0 439.0,62.0 437.0,62.0 435.0,60.0" stroke="#000" stroke-width="1" /><polygon fill="#7F7F7F" opacity="100" points="454.0,52.0 460.0,52.0 460.0,60.0 458.0,62.0 456.0,62.0 454.0,60.0" stroke="#000" stroke-width="1" /><polygon fill="#7F7F7F" opacity="100" points="472.0,52.0 478.0,52.0 478.0,60.0 476.0,62.0 474.0,62.0 472.0,60.0" stroke="#000" stroke-width="1" /><polygon fill="#7F7F7F" opacity="100" points="491.0,52.0 497.0,52.0 497.0,60.0 495.0,62.0 493.0,62.0 491.0,60.0" stroke="#000" stroke-width="1" /><polygon fill="#7F7F7F" opacity="100" points="509.0,52.0 515.0,52.0 515.0,60.0 513.0,62.0 511.0,62.0 509.0,60.0" stroke="#000" stroke-width="1" /><polygon fill="#7F7F7F" opacity="100" points="527.0,52.0 533.0,52.0 533.0,60.0 531.0,62.0 529.0,62.0 527.0,60.0" stroke="#000" stroke-width="1" /><polygon fill="#7F7F7F" opacity="100" points="546.0,52.0 552.0,52.0 552.0,60.0 550.0,62.0 548.0,62.0 546.0,60.0" stroke="#000" stroke-width="1" /><polygon fill="#7F7F7F" opacity="100" points="564.0,52.0 570.0,52.0 570.0,60.0 568.0,62.0 566.0,62.0 564.0,60.0" stroke="#000" stroke-width="1" /><polygon fill="#7F7F7F" opacity="100" points="49.0,128.0 55.0,128.0 55.0,120.0 53.0,118.0 51.0,118.0 49.0,120.0" stroke="#000" stroke-width="1" /><polygon fill="#7F7F7F" opacity="100" points="67.0,128.0 73.0,128.0 73.0,120.0 71.0,118.0 69.0,118.0 67.0,120.0" stroke="#000" stroke-width="1" /><polygon fill="#7F7F7F" opacity="100" points="86.0,128.0 92.0,128.0 92.0,120.0 90.0,118.0 88.0,118.0 86.0,120.0" stroke="#000" stroke-width="1" /><polygon fill="#7F7F7F" opacity="100" points="104.0,128.0 110.0,128.0 110.0,120.0 108.0,118.0 106.0,118.0 104.0,120.0" stroke="#000" stroke-width="1" /><polygon fill="#7F7F7F" opacity="100" points="123.0,128.0 129.0,128.0 129.0,120.0 127.0,118.0 125.0,118.0 123.0,120.0" stroke="#000" stroke-width="1" /><polygon fill="#7F7F7F" opacity="100" points="141.0,128.0 147.0,128.0 147.0,120.0 145.0,118.0 143.0,118.0 141.0,120.0" stroke="#000" stroke-width="1" /><polygon fill="#7F7F7F" opacity="100" points="160.0,128.0 166.0,128.0 166.0,120.0 164.0,118.0 162.0,118.0 160.0,120.0" stroke="#000" stroke-width="1" /><polygon fill="#7F7F7F" opacity="100" points="178.0,128.0 184.0,128.0 184.0,120.0 182.0,118.0 180.0,118.0 178.0,120.0" stroke="#000" stroke-width="1" /><polygon fill="#7F7F7F" opacity="100" points="196.0,128.0 202.0,128.0 202.0,120.0 200.0,118.0 198.0,118.0 196.0,120.0" stroke="#000" stroke-width="1" /><polygon fill="#7F7F7F" opacity="100" points="214.0,128.0 220.0,128.0 220.0,120.0 218.0,118.0 216.0,118.0 214.0,120.0" stroke="#000" stroke-width="1" /><polygon fill="#7F7F7F" opacity="100" points="233.0,128.0 239.0,128.0 239.0,120.0 237.0,118.0 235.0,118.0 233.0,120.0" stroke="#000" stroke-width="1" /><polygon fill="#7F7F7F" opacity="100" points="252.0,128.0 258.0,128.0 258.0,120.0 256.0,118.0 254.0,118.0 252.0,120.0" stroke="#000" stroke-width="1" /><polygon fill="#7F7F7F" opacity="100" points="270.0,128.0 276.0,128.0 276.0,120.0 274.0,118.0 272.0,118.0 270.0,120.0" stroke="#000" stroke-width="1" /><polygon fill="#7F7F7F" opacity="100" points="288.0,128.0 294.0,128.0 294.0,120.0 292.0,118.0 290.0,118.0 288.0,120.0" stroke="#000" stroke-width="1" /><polygon fill="#7F7F7F" opacity="100" points="306.0,128.0 312.0,128.0 312.0,120.0 310.0,118.0 308.0,118.0 306.0,120.0" stroke="#000" stroke-width="1" /><polygon fill="#7F7F7F" opacity="100" points="325.0,128.0 331.0,128.0 331.0,120.0 329.0,118.0 327.0,118.0 325.0,120.0" stroke="#000" stroke-width="1" /><polygon fill="#7F7F7F" opacity="100" points="343.0,128.0 349.0,128.0 349.0,120.0 347.0,118.0 345.0,118.0 343.0,120.0" stroke="#000" stroke-width="1" /><polygon fill="#7F7F7F" opacity="100" points="362.0,128.0 368.0,128.0 368.0,120.0 366.0,118.0 364.0,118.0 362.0,120.0" stroke="#000" stroke-width="1" /><polygon fill="#7F7F7F" opacity="100" points="381.0,128.0 387.0,128.0 387.0,120.0 385.0,118.0 383.0,118.0 381.0,120.0" stroke="#000" stroke-width="1" /><polygon fill="#7F7F7F" opacity="100" points="399.0,128.0 405.0,128.0 405.0,120.0 403.0,118.0 401.0,118.0 399.0,120.0" stroke="#000" stroke-width="1" /><polygon fill="#7F7F7F" opacity="100" points="417.0,128.0 423.0,128.0 423.0,120.0 421.0,118.0 419.0,118.0 417.0,120.0" stroke="#000" stroke-width="1" /><polygon fill="#7F7F7F" opacity="100" points="435.0,128.0 441.0,128.0 441.0,120.0 439.0,118.0 437.0,118.0 435.0,120.0" stroke="#000" stroke-width="1" /><polygon fill="#7F7F7F" opacity="100" points="454.0,128.0 460.0,128.0 460.0,120.0 458.0,118.0 456.0,118.0 454.0,120.0" stroke="#000" stroke-width="1" /><polygon fill="#7F7F7F" opacity="100" points="472.0,128.0 478.0,128.0 478.0,120.0 476.0,118.0 474.0,118.0 472.0,120.0" stroke="#000" stroke-width="1" /><polygon fill="#7F7F7F" opacity="100" points="491.0,128.0 497.0,128.0 497.0,120.0 495.0,118.0 493.0,118.0 491.0,120.0" stroke="#000" stroke-width="1" /><polygon fill="#7F7F7F" opacity="100" points="509.0,128.0 515.0,128.0 515.0,120.0 513.0,118.0 511.0,118.0 509.0,120.0" stroke="#000" stroke-width="1" /><polygon fill="#7F7F7F" opacity="100" points="527.0,128.0 533.0,128.0 533.0,120.0 531.0,118.0 529.0,118.0 527.0,120.0" stroke="#000" stroke-width="1" /><polygon fill="#7F7F7F" opacity="100" points="546.0,128.0 552.0,128.0 552.0,120.0 550.0,118.0 548.0,118.0 546.0,120.0" stroke="#000" stroke-width="1" /><polygon fill="#7F7F7F" opacity="100" points="564.0,128.0 570.0,128.0 570.0,120.0 568.0,118.0 566.0,118.0 564.0,120.0" stroke="#000" stroke-width="1" /><polyline fill="none" opacity="100" points="742.0,57.0 744.8672,54.0312 747.8438,51.375 750.9343,49.032 754.125,47.0 757.3879,45.2747 760.7695,43.8633 764.2837,42.7681 768.0,42.0 772.0483,41.5796 776.2617,41.4805 780.5288,41.6851 784.8125,42.1875 789.0571,42.979 793.207,44.0508 797.2251,45.397 801.0,47.0 804.3647,48.8335 807.4492,50.918 810.323,53.2644 813.0,55.875 815.5266,58.7571 817.875,61.9062 820.0312,65.3203 822.0,69.0" stroke="#000" stroke-width="1" /><polyline fill="none" opacity="100" points="826.0,94.0 825.6016,96.8438 825.0312,99.625 824.2891,102.3438 823.375,105.0 822.2891,107.5938 821.0312,110.125 819.6016,112.5938 818.0,115.0 816.2266,117.3438 814.2812,119.625 812.1641,121.8438 809.875,124.0 807.4141,126.0938 804.7812,128.125 801.9766,130.0938 799.0,132.0" stroke="#000" stroke-width="1" /><polyline fill="none" opacity="100" points="759.0,132.0 757.4062,131.3047 755.875,130.5938 754.4062,129.8672 753.0,129.125 751.6562,128.3672 750.375,127.5938 749.1562,126.8047 748.0,126.0 746.9062,125.1797 745.875,124.3438 744.9062,123.4922 744.0,122.625 743.1562,121.7422 742.375,120.8438 741.6562,119.9297 741.0,119.0" stroke="#000" stroke-width="1" /><polyline fill="none" opacity="100" points="685.0,170.0 687.3438,172.7109 689.375,175.4688 691.0938,178.2734 692.5,181.125 693.5938,184.0234 694.375,186.9688 694.8438,189.9609 695.0,193.0 694.8438,196.0859 694.375,199.2188 693.5938,202.3984 692.5,205.625 691.0938,208.8984 689.375,212.2188 687.3438,215.5859 685.0,219.0" stroke="#000" stroke-width="1" /><polyline fill="none" opacity="100" points="792.0,194.0 792.9375,193.0 793.75,192.0 794.4375,191.0 795.0,190.0 795.4375,189.0 795.75,188.0 795.9375,187.0 796.0,186.0 795.9375,185.0 795.75,184.0 795.4375,183.0 795.0,182.0 794.4375,181.0 793.75,180.0 792.9375,179.0 792.0,178.0" stroke="#000" stroke-width="1" /><polyline fill="none" opacity="100" points="822.0,69.0 860.0,69.0 912.0,81.0 913.0,78.0 923.0,80.0 922.0,85.0" stroke="#000" stroke-width="1" /><polyline fill="none" opacity="100" points="826.0,94.0 857.0,94.0 907.0,105.0 905.0,107.0 916.0,110.0 917.0,104.0" stroke="#000" stroke-width="1" /><polyline fill="none" opacity="100" points="920.0,91.0 918.0,99.0" stroke="#000" stroke-width="1" /><polyline fill="none" opacity="100" points="799.0,132.0 811.0,150.0 811.0,167.0 819.0,167.0 819.0,187.0 816.0,187.0 816.0,191.0 819.0,191.0 819.0,202.0 816.0,202.0 816.0,207.0 822.0,207.0" stroke="#000" stroke-width="1" /><polyline fill="none" opacity="100" points="797.0,207.0 801.0,207.0 801.0,202.0 799.0,202.0 799.0,191.0 801.0,191.0 801.0,187.0 799.0,187.0 799.0,154.0 785.0,131.0 785.0,154.0 788.0,161.0 788.0,164.0 792.0,164.0 792.0,178.0" stroke="#000" stroke-width="1" /><polyline fill="none" opacity="100" points="792.0,195.0 792.0,214.0 742.0,214.0 742.0,225.0 734.0,225.0 734.0,232.0 742.0,232.0" stroke="#000" stroke-width="1" /><polyline fill="none" opacity="100" points="685.0,219.0 685.0,225.0 701.0,225.0 701.0,232.0 695.0,232.0" stroke="#000" stroke-width="1" /><polyline fill="none" opacity="100" points="685.0,170.0 685.0,163.0 697.0,163.0 697.0,168.0 701.0,168.0 701.0,165.0 709.0,165.0 709.0,168.0 713.0,168.0 713.0,165.0 721.0,165.0 721.0,168.0 725.0,168.0 725.0,165.0 732.0,165.0 732.0,168.0 752.0,168.0 752.0,163.0 755.0,163.0 755.0,160.0 758.0,155.0 758.0,131.0" stroke="#000" stroke-width="1" /><polyline fill="none" opacity="100" points="802.0,190.0 806.0,190.0" stroke="#000" stroke-width="1" /><polyline fill="none" opacity="100" points="812.0,190.0 816.0,190.0" stroke="#000" stroke-width="1" /><polyline fill="none" opacity="100" points="802.0,205.0 806.0,205.0" stroke="#000" stroke-width="1" /><polyline fill="none" opacity="100" points="812.0,205.0 816.0,205.0" stroke="#000" stroke-width="1" /><polyline fill="none" opacity="100" points="701.0,229.0 706.0,229.0" stroke="#000" stroke-width="1" /><polyline fill="none" opacity="100" points="710.0,229.0 715.0,229.0" stroke="#000" stroke-width="1" /><polyline fill="none" opacity="100" points="719.0,229.0 723.0,229.0" stroke="#000" stroke-width="1" /><polyline fill="none" opacity="100" points="727.0,229.0 734.0,229.0" stroke="#000" stroke-width="1" /><polyline fill="none" opacity="100" points="831.0,69.0 831.0,94.0" stroke="#000" stroke-width="1" /><polyline fill="none" opacity="100" points="835.0,69.0 835.0,94.0" stroke="#000" stroke-width="1" /><polyline fill="none" opacity="100" points="839.0,69.0 839.0,94.0" stroke="#000" stroke-width="1" /><polyline fill="none" opacity="100" points="843.0,69.0 843.0,94.0" stroke="#000" stroke-width="1" /><polyline fill="none" opacity="100" points="847.0,69.0 847.0,94.0" stroke="#000" stroke-width="1" /><polyline fill="none" opacity="100" points="851.0,69.0 851.0,94.0" stroke="#000" stroke-width="1" /><polygon fill="#7F7F7F" opacity="100" points="826.0,78.0 851.0,78.0 851.0,84.0 826.0,84.0" stroke="#000" stroke-width="1" /><polyline fill="none" opacity="100" points="799.0,154.0 811.0,154.0" stroke="#000" stroke-width="1" /><polyline fill="none" opacity="100" points="799.0,158.0 811.0,158.0" stroke="#000" stroke-width="1" /><polyline fill="none" opacity="100" points="799.0,162.0 811.0,162.0" stroke="#000" stroke-width="1" /><polyline fill="none" opacity="100" points="758.0,142.0 785.0,142.0" stroke="#000" stroke-width="1" /><polyline fill="none" opacity="100" points="758.0,146.0 785.0,146.0" stroke="#000" stroke-width="1" /><polyline fill="none" opacity="100" points="758.0,150.0 785.0,150.0" stroke="#000" stroke-width="1" /><ellipse cx="756.5" cy="207.5" fill="#7F7F7F" opacity="100" rx="2.5" ry="2.5" stroke="#000" stroke-width="1" /><ellipse cx="772.5" cy="207.5" fill="#7F7F7F" opacity="100" rx="2.5" ry="2.5" stroke="#000" stroke-width="1" /><ellipse cx="786.5" cy="207.5" fill="#7F7F7F" opacity="100" rx="2.5" ry="2.5" stroke="#000" stroke-width="1" /><ellipse cx="792.5" cy="194.5" fill="#7F7F7F" opacity="100" rx="2.5" ry="2.5" stroke="#000" stroke-width="1" /><ellipse cx="792.5" cy="177.5" fill="#7F7F7F" opacity="100" rx="2.5" ry="2.5" stroke="#000" stroke-width="1" /><ellipse cx="755.5" cy="164.5" fill="#7F7F7F" opacity="100" rx="2.5" ry="2.5" stroke="#000" stroke-width="1" /><ellipse cx="772.5" cy="164.5" fill="#7F7F7F" opacity="100" rx="2.5" ry="2.5" stroke="#000" stroke-width="1" /><ellipse cx="787.5" cy="164.5" fill="#7F7F7F" opacity="100" rx="2.5" ry="2.5" stroke="#000" stroke-width="1" /><ellipse cx="858.5" cy="80.5" fill="#7F7F7F" opacity="100" rx="3.5" ry="3.5" stroke="#000" stroke-width="1" /><ellipse cx="879.5" cy="84.5" fill="#7F7F7F" opacity="100" rx="3.5" ry="3.5" stroke="#000" stroke-width="1" /><ellipse cx="899.5" cy="89.5" fill="#7F7F7F" opacity="100" rx="3.5" ry="3.5" stroke="#000" stroke-width="1" /><polygon fill="#7F7F7F" opacity="100" points="913.0,105.0 912.0,109.0 916.0,110.0 916.0,106.0" stroke="#000" stroke-width="1" /><polygon fill="#7F7F7F" opacity="100" points="920.0,80.0 918.0,83.0 922.0,85.0 923.0,80.0" stroke="#000" stroke-width="1" /><polygon fill="#7F7F7F" opacity="100" points="754.0,212.0 760.0,212.0 760.0,217.0 754.0,217.0" stroke="#000" stroke-width="1" /><polygon fill="#7F7F7F" opacity="100" points="769.0,212.0 775.0,212.0 775.0,217.0 769.0,217.0" stroke="#000" stroke-width="1" /><polygon fill="#7F7F7F" opacity="100" points="783.0,212.0 789.0,212.0 789.0,217.0 783.0,217.0" stroke="#000" stroke-width="1" /><polygon fill="#7F7F7F" opacity="100" points="755.0,155.0 760.0,155.0 760.0,160.0 755.0,160.0" stroke="#000" stroke-width="1" /><polygon fill="#7F7F7F" opacity="100" points="769.0,155.0 774.0,155.0 774.0,160.0 769.0,160.0" stroke="#000" stroke-width="1" /><polygon fill="#7F7F7F" opacity="100" points="783.0,155.0 788.0,155.0 788.0,160.0 783.0,160.0" stroke="#000" stroke-width="1" /><polygon fill="#7F7F7F" opacity="100" points="755.0,140.0 760.0,140.0 760.0,131.0 755.0,131.0" stroke="#000" stroke-width="1" /><polygon fill="#7F7F7F" opacity="100" points="770.0,140.0 775.0,140.0 775.0,131.0 770.0,131.0" stroke="#000" stroke-width="1" /><polygon fill="#7F7F7F" opacity="100" points="783.0,140.0 783.0,131.0 788.0,131.0 788.0,140.0" stroke="#000" stroke-width="1" /><polygon fill="#FFF" opacity="100" points="614.0,97.0 605.0,97.0 605.0,105.0 614.0,105.0" stroke="#000" stroke-width="1" /><polygon fill="#FFF" opacity="100" points="749.0,81.0 749.0,75.0 760.0,75.0 760.0,81.0" stroke="#000" stroke-width="1" /><polygon fill="#FFF" opacity="100" points="728.0,179.0 735.0,172.0 731.0,168.0 724.0,175.0" stroke="#000" stroke-width="1" /><polygon fill="#FFF" opacity="100" points="766.0,202.0 773.0,195.0 777.0,199.0 770.0,206.0" stroke="#000" stroke-width="1" /><polyline fill="none" opacity="100" points="785.0,131.0 761.0,100.0 749.0,100.0" stroke="#7F7F7F" stroke-width="1" /><polyline fill="none" opacity="100" points="766.0,197.0 770.0,193.0" stroke="#7F7F7F" stroke-width="2" /><polyline fill="none" opacity="100" points="763.0,195.0 767.0,191.0" stroke="#7F7F7F" stroke-width="2" /><polyline fill="none" opacity="100" points="759.0,192.0 763.0,188.0" stroke="#7F7F7F" stroke-width="2" /><polyline fill="none" opacity="100" points="756.0,189.0 760.0,185.0" stroke="#7F7F7F" stroke-width="2" /><polyline fill="none" opacity="100" points="753.0,187.0 757.0,183.0" stroke="#7F7F7F" stroke-width="2" /><polyline fill="none" opacity="100" points="750.0,185.0 754.0,181.0" stroke="#7F7F7F" stroke-width="2" /><polyline fill="none" opacity="100" points="747.0,182.0 751.0,178.0" stroke="#7F7F7F" stroke-width="2" /><polyline fill="none" opacity="100" points="744.0,180.0 748.0,176.0" stroke="#7F7F7F" stroke-width="2" /><polyline fill="none" opacity="100" points="741.0,178.0 745.0,174.0" stroke="#7F7F7F" stroke-width="2" /><polyline fill="none" opacity="100" points="738.0,176.0 742.0,172.0" stroke="#7F7F7F" stroke-width="2" /><polyline fill="none" opacity="100" points="735.0,174.0 739.0,170.0" stroke="#7F7F7F" stroke-width="2" /><polygon fill="#7F7F7F" opacity="100" points="615.0,116.0 749.0,116.0 749.0,121.0 615.0,121.0" stroke="#7F7F7F" stroke-width="1" /><polygon fill="#7F7F7F" opacity="100" points="615.0,105.0 615.0,95.0 749.0,95.0 749.0,105.0" stroke="#7F7F7F" stroke-width="1" /><polygon fill="#7F7F7F" opacity="100" points="615.0,83.0 615.0,74.0 749.0,74.0 749.0,83.0" stroke="#7F7F7F" stroke-width="1" /><polygon fill="#7F7F7F" opacity="100" points="615.0,64.0 749.0,64.0 749.0,59.0 615.0,59.0" stroke="#7F7F7F" stroke-width="1" /><polyline fill="none" opacity="100" points="615.0,59.0 615.0,121.0" stroke="#7F7F7F" stroke-width="1" /><polyline fill="none" opacity="100" points="619.0,59.0 619.0,121.0" stroke="#7F7F7F" stroke-width="1" /><polyline fill="none" opacity="100" points="623.0,59.0 623.0,121.0" stroke="#7F7F7F" stroke-width="1" /><polyline fill="none" opacity="100" points="627.0,59.0 627.0,121.0" stroke="#7F7F7F" stroke-width="1" /><polyline fill="none" opacity="100" points="631.0,59.0 631.0,121.0" stroke="#7F7F7F" stroke-width="1" /><polyline fill="none" opacity="100" points="635.0,59.0 635.0,121.0" stroke="#7F7F7F" stroke-width="1" /><polyline fill="none" opacity="100" points="639.0,59.0 639.0,121.0" stroke="#7F7F7F" stroke-width="1" /><polyline fill="none" opacity="100" points="643.0,59.0 643.0,121.0" stroke="#7F7F7F" stroke-width="1" /><polyline fill="none" opacity="100" points="647.0,59.0 647.0,121.0" stroke="#7F7F7F" stroke-width="1" /><polyline fill="none" opacity="100" points="651.0,59.0 651.0,121.0" stroke="#7F7F7F" stroke-width="1" /><polyline fill="none" opacity="100" points="655.0,59.0 655.0,121.0" stroke="#7F7F7F" stroke-width="1" /><polyline fill="none" opacity="100" points="659.0,59.0 659.0,121.0" stroke="#7F7F7F" stroke-width="1" /><polyline fill="none" opacity="100" points="663.0,59.0 663.0,121.0" stroke="#7F7F7F" stroke-width="1" /><polyline fill="none" opacity="100" points="667.0,59.0 667.0,121.0" stroke="#7F7F7F" stroke-width="1" /><polyline fill="none" opacity="100" points="671.0,59.0 671.0,121.0" stroke="#7F7F7F" stroke-width="1" /><polyline fill="none" opacity="100" points="675.0,59.0 675.0,121.0" stroke="#7F7F7F" stroke-width="1" /><polyline fill="none" opacity="100" points="679.0,59.0 679.0,121.0" stroke="#7F7F7F" stroke-width="1" /><polyline fill="none" opacity="100" points="683.0,59.0 683.0,121.0" stroke="#7F7F7F" stroke-width="1" /><polyline fill="none" opacity="100" points="687.0,59.0 687.0,121.0" stroke="#7F7F7F" stroke-width="1" /><polyline fill="none" opacity="100" points="691.0,59.0 691.0,121.0" stroke="#7F7F7F" stroke-width="1" /><polyline fill="none" opacity="100" points="695.0,59.0 695.0,121.0" stroke="#7F7F7F" stroke-width="1" /><polyline fill="none" opacity="100" points="699.0,59.0 699.0,121.0" stroke="#7F7F7F" stroke-width="1" /><polyline fill="none" opacity="100" points="703.0,59.0 703.0,121.0" stroke="#7F7F7F" stroke-width="1" /><polyline fill="none" opacity="100" points="707.0,59.0 707.0,121.0" stroke="#7F7F7F" stroke-width="1" /><polyline fill="none" opacity="100" points="711.0,59.0 711.0,121.0" stroke="#7F7F7F" stroke-width="1" /><polyline fill="none" opacity="100" points="715.0,59.0 715.0,121.0" stroke="#7F7F7F" stroke-width="1" /><polyline fill="none" opacity="100" points="719.0,59.0 719.0,121.0" stroke="#7F7F7F" stroke-width="1" /><polyline fill="none" opacity="100" points="723.0,59.0 723.0,121.0" stroke="#7F7F7F" stroke-width="1" /><polyline fill="none" opacity="100" points="727.0,59.0 727.0,121.0" stroke="#7F7F7F" stroke-width="1" /><polyline fill="none" opacity="100" points="731.0,59.0 731.0,121.0" stroke="#7F7F7F" stroke-width="1" /><polyline fill="none" opacity="100" points="735.0,59.0 735.0,121.0" stroke="#7F7F7F" stroke-width="1" /><polyline fill="none" opacity="100" points="739.0,59.0 739.0,121.0" stroke="#7F7F7F" stroke-width="1" /><polyline fill="none" opacity="100" points="743.0,59.0 743.0,121.0" stroke="#7F7F7F" stroke-width="1" /><polyline fill="none" opacity="100" points="747.0,59.0 747.0,121.0" stroke="#7F7F7F" stroke-width="1" /><polyline fill="none" opacity="100" points="615.0,121.0 742.0,121.0" stroke="#000" stroke-dasharray="5,5" stroke-width="1" /><polyline fill="none" opacity="100" points="615.0,59.0 742.0,59.0" stroke="#000" stroke-dasharray="5,5" stroke-width="1" /><polyline fill="none" opacity="100" points="615.0,59.0 620.625,62.875 625.5,66.75 629.625,70.625 633.0,74.5 635.625,78.375 637.5,82.25 638.625,86.125 639.0,90.0 638.625,93.875 637.5,97.75 635.625,101.625 633.0,105.5 629.625,109.375 625.5,113.25 620.625,117.125 615.0,121.0" stroke="#000" stroke-width="1" /><polyline fill="none" opacity="100" points="742.0,59.0 736.375,62.875 731.5,66.75 727.375,70.625 724.0,74.5 721.375,78.375 719.5,82.25 718.375,86.125 718.0,90.0 718.375,93.875 719.5,97.75 721.375,101.625 724.0,105.5 727.375,109.375 731.5,113.25 736.375,117.125 742.0,121.0" stroke="#000" stroke-width="1" /><polyline fill="none" opacity="100" points="913.0,94.0 928.0,98.0" stroke="#F00" stroke-width="1" /><polygon fill="#F00" opacity="100" points="923.3428,98.0056 928.0,98.0 923.9639,95.6762" stroke="#F00" stroke-width="1" /><polyline fill="none" opacity="100" points="809.0,197.0 809.0,215.0" stroke="#F00" stroke-width="1" /><polygon fill="#F00" opacity="100" points="807.6024,209.784 809.0,215.0 810.3976,209.784" stroke="#F00" stroke-width="1" /><polyline fill="none" opacity="100" points="716.0,235.0 716.0,218.0" stroke="#090" stroke-width="1" /><polygon fill="#090" opacity="100" points="717.32,222.9262 716.0,218.0 714.68,222.9262" stroke="#090" stroke-width="1" /><text fill="#650022" font-family="Arial" font-size="30" font-weight="bold" opacity="100" transform="rotate(-180.0 382.0,103.0) translate(0 30)" x="382.0" y="103.0">Балтийская</text><text fill="#DC004B" font-family="Arial" font-size="20" font-weight="normal" opacity="100" transform="rotate(-180.0 577.0,175.0) translate(0 20)" x="577.0" y="175.0">&lt;&lt; Нарвская</text><text fill="#DC004B" font-family="Arial" font-size="20" font-weight="normal" opacity="100" transform="rotate(-180.0 274.0,26.0) translate(0 20)" x="274.0" y="26.0">Технологический Институт &gt;&gt;</text><text fill="#DC004B" font-family="Arial" font-size="30" font-weight="bold" opacity="100" transform="rotate(-180.0 383.0,104.0) translate(0 30)" x="383.0" y="104.0">Балтийская</text><text fill="#00AFAF" font-family="Arial" font-size="18" font-weight="normal" opacity="100" transform="rotate(-270.0 617.0,156.0) translate(0 18)" x="617.0" y="156.0">Митрофаньевское шоссе</text><text fill="#00AFAF" font-family="Arial" font-size="20" font-weight="normal" opacity="100" transform="rotate(-180.0 937.0,306.0) translate(0 20)" x="937.0" y="306.0">Площадь Балтийского вокзала</text><text fill="#00AFAF" font-family="Arial" font-size="18" font-weight="normal" opacity="100" transform="rotate(-270.0 957.0,36.0) translate(0 18)" x="957.0" y="36.0">Балтийский вокзал</text></g></g></svg>