<?xml version="1.0" encoding="utf-8" ?>
<svg baseProfile="tiny" height="1050px" version="1.2" width="560px" xmlns="http://www.w3.org/2000/svg" xmlns:ev="http://www.w3.org/2001/xml-events" xmlns:xlink="http://www.w3.org/1999/xlink"><defs /><g><g transform="rotate(80.0,280.0,525.0)"><polygon fill="#0071B9" opacity="100" points="-245.0,561.0 -245.0,547.0 313.0,547.0 313.0,561.0" stroke="#000" stroke-width="1" /><polygon fill="#0071B9" opacity="100" points="-245.0,679.0 -245.0,693.0 313.0,693.0 313.0,679.0" stroke="#000" stroke-width="1" /><polyline fill="none" opacity="100" points="-245.0,679.0 -245.0,663.0 -178.0,663.0 -178.0,653.0 -202.0,641.0 -210.0,641.0 -210.0,600.0 -202.0,600.0 -178.0,588.0 -178.0,578.0 -245.0,578.0 -245.0,561.0" stroke="#000" stroke-width="1" /><polyline fill="none" opacity="100" points="-178.0,583.0 -156.0,583.0 -139.0,600.0 -139.0,641.0 -156.0,658.0 -178.0,658.0" stroke="#000" stroke-width="1" /><polyline fill="none" opacity="100" points="313.0,561.0 313.0,585.0 408.0,585.0" stroke="#000" stroke-width="1" /><polyline fill="none" opacity="100" points="313.0,679.0 313.0,656.0 408.0,656.0" stroke="#000" stroke-width="1" /><polyline fill="none" opacity="100" points="313.0,585.0 313.0,656.0" stroke="#000" stroke-width="1" /><polyline fill="none" opacity="100" points="317.0,585.0 317.0,656.0" stroke="#000" stroke-width="1" /><polyline fill="none" opacity="100" points="321.0,585.0 321.0,656.0" stroke="#000" stroke-width="1" /><polyline fill="none" opacity="100" points="325.0,585.0 325.0,656.0" stroke="#000" stroke-width="1" /><polyline fill="none" opacity="100" points="329.0,585.0 329.0,656.0" stroke="#000" stroke-width="1" /><polyline fill="none" opacity="100" points="333.0,585.0 333.0,656.0" stroke="#000" stroke-width="1" /><polyline fill="none" opacity="100" points="346.0,585.0 346.0,656.0" stroke="#000" stroke-width="1" /><polyline fill="none" opacity="100" points="350.0,585.0 350.0,656.0" stroke="#000" stroke-width="1" /><polyline fill="none" opacity="100" points="354.0,585.0 354.0,656.0" stroke="#000" stroke-width="1" /><polyline fill="none" opacity="100" points="358.0,585.0 358.0,656.0" stroke="#000" stroke-width="1" /><polyline fill="none" opacity="100" points="362.0,585.0 362.0,656.0" stroke="#000" stroke-width="1" /><polyline fill="none" opacity="100" points="366.0,585.0 366.0,656.0" stroke="#000" stroke-width="1" /><polyline fill="none" opacity="100" points="408.0,656.0 408.0,585.0 641.0,585.0 641.0,656.0 408.0,656.0" stroke="#000" stroke-dasharray="5,5" stroke-width="1" /><polyline fill="none" opacity="100" points="601.0,697.0 608.0,697.0 608.0,673.0 591.0,673.0 560.0,642.0 560.0,600.0 591.0,569.0 677.0,569.0 677.0,558.0" stroke="#000" stroke-width="1" /><polyline fill="none" opacity="100" points="704.0,558.0 704.0,569.0 712.0,569.0 715.0,572.0 722.0,565.0" stroke="#000" stroke-width="1" /><polyline fill="none" opacity="100" points="588.0,486.0 610.0,508.0 780.0,508.0" stroke="#000" stroke-width="1" /><polyline fill="none" opacity="100" points="780.0,608.0 747.0,608.0 747.0,590.0 739.0,582.0 732.0,589.0 735.0,592.0 735.0,720.0 709.0,746.0 608.0,746.0 608.0,729.0 598.0,729.0 574.0,753.0 574.0,771.0" stroke="#000" stroke-width="1" /><polyline fill="none" opacity="100" points="574.0,771.0 575.4062,771.875 576.625,772.75 577.6562,773.625 578.5,774.5 579.1562,775.375 579.625,776.25 579.9062,777.125 580.0,778.0 579.9062,778.875 579.625,779.75 579.1562,780.625 578.5,781.5 577.6562,782.375 576.625,783.25 575.4062,784.125 574.0,785.0" stroke="#000" stroke-width="1" /><polyline fill="none" opacity="100" points="574.0,785.0 574.0,807.0" stroke="#000" stroke-width="1" /><polyline fill="none" opacity="100" points="540.0,807.0 540.0,785.0" stroke="#000" stroke-width="1" /><polyline fill="none" opacity="100" points="540.0,785.0 538.5938,784.125 537.375,783.25 536.3438,782.375 535.5,781.5 534.8438,780.625 534.375,779.75 534.0938,778.875 534.0,778.0 534.0938,777.125 534.375,776.25 534.8438,775.375 535.5,774.5 536.3438,773.625 537.375,772.75 538.5938,771.875 540.0,771.0" stroke="#000" stroke-width="1" /><polyline fill="none" opacity="100" points="540.0,771.0 540.0,753.0 512.0,753.0" stroke="#000" stroke-width="1" /><polyline fill="none" opacity="100" points="780.0,508.0 780.0,608.0" stroke="#000" stroke-width="1" /><polyline fill="none" opacity="100" points="776.0,508.0 776.0,608.0" stroke="#000" stroke-width="1" /><polyline fill="none" opacity="100" points="772.0,508.0 772.0,608.0" stroke="#000" stroke-width="1" /><polyline fill="none" opacity="100" points="768.0,508.0 768.0,608.0" stroke="#000" stroke-width="1" /><polyline fill="none" opacity="100" points="574.0,803.0 540.0,803.0" stroke="#000" stroke-width="1" /><polyline fill="none" opacity="100" points="574.0,799.0 540.0,799.0" stroke="#000" stroke-width="1" /><polyline fill="none" opacity="100" points="574.0,795.0 540.0,795.0" stroke="#000" stroke-width="1" /><polyline fill="none" opacity="100" points="574.0,791.0 540.0,791.0" stroke="#000" stroke-width="1" /><polyline fill="none" opacity="100" points="597.0,495.0 515.0,577.0 515.0,753.0" stroke="#000" stroke-width="1" /><polyline fill="none" opacity="100" points="600.0,498.0 519.0,579.0 519.0,753.0" stroke="#000" stroke-width="1" /><polyline fill="none" opacity="100" points="603.0,501.0 523.0,581.0 523.0,753.0" stroke="#000" stroke-width="1" /><polyline fill="none" opacity="100" points="606.0,504.0 527.0,583.0 527.0,753.0" stroke="#000" stroke-width="1" /><polyline fill="none" opacity="100" points="609.0,507.0 531.0,585.0 531.0,753.0" stroke="#000" stroke-width="1" /><polyline fill="none" opacity="100" points="608.0,680.0 657.0,680.0" stroke="#000" stroke-width="1" /><polyline fill="none" opacity="100" points="723.0,680.0 723.0,663.0 695.0,618.0 641.0,618.0" stroke="#000" stroke-width="1" /><polyline fill="none" opacity="100" points="657.0,680.0 723.0,680.0" stroke="#000" stroke-dasharray="5,5" stroke-width="1" /><polyline fill="none" opacity="100" points="720.0,583.0 733.0,570.0" stroke="#F00" stroke-width="1" /><polygon fill="#F00" opacity="100" points="730.2423,574.7765 733.0,570.0 728.2235,572.7577" stroke="#F00" stroke-width="1" /><polyline fill="none" opacity="100" points="690.0,574.0 690.0,554.0" stroke="#F00" stroke-width="1" /><polygon fill="#F00" opacity="100" points="691.5529,559.7956 690.0,554.0 688.4471,559.7956" stroke="#F00" stroke-width="1" /><polyline fill="none" opacity="100" points="591.0,713.0 620.0,713.0" stroke="#008000" stroke-width="1" /><polygon fill="#008000" opacity="100" points="611.5964,715.2517 620.0,713.0 611.5964,710.7483" stroke="#008000" stroke-width="1" /><text fill="#0071B9" font-family="Arial" font-size="20" font-weight="normal" opacity="100" transform="rotate(-0.0 -237.0,523.0) translate(0 20)" x="-237.0" y="523.0">&lt;&lt; Пионерская</text><text fill="#0071B9" font-family="Arial" font-size="20" font-weight="normal" opacity="100" transform="rotate(-0.0 152.0,694.0) translate(0 20)" x="152.0" y="694.0">Петроградская &gt;&gt;</text><text fill="#0071B9" font-family="Arial" font-size="25" font-weight="bold" opacity="100" transform="rotate(-0.0 -39.0,607.0) translate(0 25)" x="-39.0" y="607.0">Черная Речка</text><text fill="#00AFAF" font-family="Arial" font-size="15" font-weight="normal" opacity="100" transform="rotate(-150.0 779.0,420.0) translate(0 15)" x="779.0" y="420.0">улица Академика Крылова</text></g></g></svg>