<?xml version="1.0" encoding="utf-8" ?>
<svg baseProfile="tiny" height="952px" version="1.2" width="340px" xmlns="http://www.w3.org/2000/svg" xmlns:ev="http://www.w3.org/2001/xml-events" xmlns:xlink="http://www.w3.org/1999/xlink"><defs /><g><g transform="rotate(90.0,170.0,476.0)"><text fill="#000" font-family="Arial" font-size="24" font-weight="normal" opacity="100" transform="rotate(-0.0 9.0,488.0) translate(0 24)" x="9.0" y="488.0">Электросила</text><text fill="#00F" font-family="Arial" font-size="24" font-weight="normal" opacity="100" transform="rotate(-0.0 7.0,487.0) translate(0 24)" x="7.0" y="487.0">Электросила</text><polygon fill="#0071B9" opacity="100" points="-289.0,605.0 -289.0,625.0 418.0,625.0 418.0,605.0" stroke="#000" stroke-width="1" /><polygon fill="#0071B9" opacity="100" points="-289.0,388.0 -289.0,408.0 417.0,408.0 417.0,388.0" stroke="#000" stroke-width="1" /><text fill="#000" font-family="Arial" font-size="14" font-weight="normal" opacity="100" transform="rotate(-0.0 313.0,608.0) translate(0 14)" x="313.0" y="608.0">Парк Победы  &gt;&gt;</text><text fill="#000" font-family="Arial" font-size="14" font-weight="normal" opacity="100" transform="rotate(-0.0 -271.0,391.0) translate(0 14)" x="-271.0" y="391.0">&lt;&lt;  Московские Ворота</text><text fill="#FF0" font-family="Arial" font-size="14" font-weight="normal" opacity="100" transform="rotate(-0.0 312.0,607.0) translate(0 14)" x="312.0" y="607.0">Парк Победы  &gt;&gt;</text><text fill="#FF0" font-family="Arial" font-size="14" font-weight="normal" opacity="100" transform="rotate(-0.0 -272.0,390.0) translate(0 14)" x="-272.0" y="390.0">&lt;&lt;  Московские Ворота</text><text fill="#00AFAF" font-family="Arial" font-size="15" font-weight="normal" opacity="100" transform="rotate(-0.0 489.0,317.0) translate(0 15)" x="489.0" y="317.0">Московский пр.</text><polygon fill="#808080" opacity="100" points="-289.0,605.0 -289.0,573.0 -20.0,573.0 -20.0,570.0 -8.0,570.0 -8.0,551.0 -17.0,551.0 -17.0,460.0 -8.0,460.0 -8.0,441.0 -20.0,441.0 -20.0,438.0 -289.0,438.0 -289.0,408.0" stroke="#000" stroke-width="1" /><polygon fill="#808080" opacity="100" points="8.0,570.0 23.0,570.0 23.0,551.0 7.0,551.0" stroke="#000" stroke-width="1" /><polygon fill="#808080" opacity="100" points="36.0,570.0 52.0,570.0 52.0,551.0 36.0,551.0" stroke="#000" stroke-width="1" /><polygon fill="#808080" opacity="100" points="65.0,570.0 81.0,570.0 81.0,551.0 65.0,551.0" stroke="#000" stroke-width="1" /><polygon fill="#808080" opacity="100" points="94.0,570.0 110.0,570.0 110.0,551.0 94.0,551.0" stroke="#000" stroke-width="1" /><polygon fill="#808080" opacity="100" points="8.0,460.0 23.0,460.0 23.0,441.0 8.0,441.0" stroke="#000" stroke-width="1" /><polygon fill="#808080" opacity="100" points="36.0,460.0 52.0,460.0 52.0,441.0 36.0,441.0" stroke="#000" stroke-width="1" /><polygon fill="#808080" opacity="100" points="64.0,460.0 81.0,460.0 81.0,441.0 64.0,441.0" stroke="#000" stroke-width="1" /><polygon fill="#808080" opacity="100" points="94.0,460.0 110.0,460.0 110.0,441.0 94.0,441.0" stroke="#000" stroke-width="1" /><polygon fill="#808080" opacity="100" points="417.0,408.0 417.0,437.0 138.0,437.0 138.0,440.0 121.0,440.0 121.0,460.0 138.0,461.0 138.0,468.0 148.0,469.0 148.0,460.0 417.0,460.0" stroke="#000" stroke-width="1" /><polygon fill="#808080" opacity="100" points="418.0,605.0 418.0,573.0 138.0,573.0 138.0,570.0 121.0,570.0 121.0,551.0 138.0,550.0 138.0,542.0 148.0,542.0 148.0,552.0 418.0,552.0" stroke="#000" stroke-width="1" /><polyline fill="none" opacity="100" points="209.0,551.0 209.0,461.0" stroke="#000" stroke-width="1" /><polyline fill="none" opacity="100" points="209.0,548.0 222.8281,542.6953 234.8125,537.4062 244.9531,532.1328 253.25,526.875 259.7031,521.6328 264.3125,516.4062 267.0781,511.1953 268.0,506.0 267.0781,500.8203 264.3125,495.6562 259.7031,490.5078 253.25,485.375 244.9531,480.2578 234.8125,475.1562 222.8281,470.0703 209.0,465.0" stroke="#000" stroke-width="1" /><polyline fill="none" opacity="100" points="515.0,544.0 517.2812,546.6016 519.625,549.0312 522.033,551.2878 524.5,553.375 527.0159,555.3 529.5977,557.0508 532.2505,558.6235 535.0,560.0 537.894,561.146 540.8711,562.1055 543.8892,562.9087 546.9375,563.5625 550.0015,564.0757 553.0508,564.4727 556.0688,564.7661 559.0,565.0 561.7554,565.2456 564.418,565.4336 567.0391,565.5217 569.625,565.5 572.1914,565.3474 574.7617,565.0547 577.3452,564.6162 580.0,564.0 582.8228,563.1572 585.707,562.1328 588.5852,560.9517 591.4375,559.625 594.2292,558.1772 596.9375,556.5938 599.5469,554.8711 602.0,553.0 604.2109,550.957 606.25,548.7812 608.1565,546.5007 609.9375,544.125 611.615,541.6653 613.1836,539.1445 614.6401,536.5767 616.0,534.0 617.2856,531.4741 618.4727,528.9492 619.5461,526.396 620.5,523.8125 621.323,521.1899 622.0156,518.5195 622.5762,515.7993 623.0,513.0 623.2832,510.0718 623.4219,507.0742 623.4104,504.0452 623.25,501.0 622.947,497.9646 622.4805,494.9453 621.8413,491.9502 621.0,489.0 619.9048,486.1201 618.6133,483.3047 617.1609,480.5552 615.5625,477.875 613.845,475.2612 612.0078,472.7344 610.0557,470.3066 608.0,468.0 605.8506,465.8496 603.6172,463.8281 601.3108,461.9207 598.9375,460.125 596.4998,458.4329 594.0195,456.8477 591.5103,455.3716 589.0,454.0 586.5327,452.7261 584.0742,451.5586 581.6038,450.5044 579.125,449.5625 576.6404,448.73 574.1328,448.0195 571.5986,447.436 569.0,447.0 566.2686,446.7476 563.4922,446.6367 560.7339,446.6394 558.0,446.75 555.2935,446.9602 552.6875,447.25 550.2148,447.6094 548.0,448.0 546.2539,448.3594 544.75,448.75 543.3462,449.21 542.0,449.75 540.6343,450.3916 539.2109,451.1406 537.7021,452.002 536.0,453.0 533.9463,454.1699 531.6641,455.4844 529.2192,456.9287 526.625,458.5 523.9253,460.1885 521.0938,462.0 518.1172,463.9375 515.0,466.0" stroke="#000" stroke-width="1" /><polyline fill="none" opacity="100" points="523.0,509.0 540.0,509.0 540.0,489.0 559.0,489.0 559.0,447.0" stroke="#000" stroke-width="1" /><polyline fill="none" opacity="100" points="553.0,446.0 549.0,443.0 553.0,436.0 548.0,430.0 564.0,430.0 561.0,437.0 566.0,441.0 564.0,447.0" stroke="#000" stroke-width="1" /><polyline fill="none" opacity="100" points="535.0,453.0 532.0,447.0 526.0,446.0 523.0,441.0 510.0,450.0" stroke="#000" stroke-width="1" /><polyline fill="none" opacity="100" points="582.0,452.0 584.0,441.0 590.0,441.0 594.0,436.0 610.0,446.0" stroke="#000" stroke-width="1" /><polyline fill="none" opacity="100" points="520.0,545.0 520.0,466.0" stroke="#000" stroke-width="1" /><polyline fill="none" opacity="100" points="520.0,545.0 511.0938,540.8828 503.375,536.6562 496.8438,532.3203 491.5,527.875 487.3438,523.3203 484.375,518.6562 482.5938,513.8828 482.0,509.0 482.5938,504.0078 484.375,498.9062 487.3438,493.6953 491.5,488.375 496.8438,482.9453 503.375,477.4062 511.0938,471.7578 520.0,466.0" stroke="#000" stroke-width="1" /><polyline fill="none" opacity="100" points="520.0,545.0 209.0,548.0" stroke="#000" stroke-dasharray="5,5" stroke-width="1" /><polyline fill="none" opacity="100" points="520.0,466.0 209.0,465.0" stroke="#000" stroke-dasharray="5,5" stroke-width="1" /><polyline fill="none" opacity="100" points="541.0,446.0 541.0,425.0" stroke="#0F0" stroke-width="1" /><polygon fill="#0F0" opacity="100" points="542.6306,431.0853 541.0,425.0 539.3694,431.0853" stroke="#0F0" stroke-width="1" /><polyline fill="none" opacity="100" points="575.0,425.0 575.0,446.0" stroke="#F00" stroke-width="1" /><polygon fill="#F00" opacity="100" points="573.3694,439.9147 575.0,446.0 576.6306,439.9147" stroke="#F00" stroke-width="1" /></g></g></svg>