<?xml version="1.0" encoding="utf-8" ?>
<svg baseProfile="tiny" height="947px" version="1.2" width="257px" xmlns="http://www.w3.org/2000/svg" xmlns:ev="http://www.w3.org/2001/xml-events" xmlns:xlink="http://www.w3.org/1999/xlink"><defs /><g><g transform="rotate(90.0,128.5,473.5)"><text fill="#000" font-family="Arial" font-size="24" font-weight="normal" opacity="100" transform="rotate(-0.0 166.0,464.0) translate(0 24)" x="166.0" y="464.0">Фрунзенская</text><text fill="#00F" font-family="Arial" font-size="24" font-weight="normal" opacity="100" transform="rotate(-0.0 164.0,463.0) translate(0 24)" x="164.0" y="463.0">Фрунзенская</text><polygon fill="#0071B9" opacity="100" points="582.0,384.0 582.0,365.0 -94.0,365.0 -94.0,384.0" stroke="#000" stroke-width="1" /><polygon fill="#0071B9" opacity="100" points="582.0,582.0 582.0,563.0 -94.0,563.0 -94.0,582.0" stroke="#000" stroke-width="1" /><text fill="#000" font-family="Arial" font-size="14" font-weight="normal" opacity="100" transform="rotate(-0.0 -83.0,368.0) translate(0 14)" x="-83.0" y="368.0">&lt;&lt;  Технологический ин-т</text><text fill="#000" font-family="Arial" font-size="14" font-weight="normal" opacity="100" transform="rotate(-0.0 438.0,567.0) translate(0 14)" x="438.0" y="567.0">Московские ворота &gt;&gt;</text><text fill="#FF0" font-family="Arial" font-size="14" font-weight="normal" opacity="100" transform="rotate(-0.0 -84.0,367.0) translate(0 14)" x="-84.0" y="367.0">&lt;&lt;  Технологический ин-т</text><text fill="#FF0" font-family="Arial" font-size="14" font-weight="normal" opacity="100" transform="rotate(-0.0 437.0,566.0) translate(0 14)" x="437.0" y="566.0">Московские ворота &gt;&gt;</text><text fill="#00AFAF" font-family="Arial" font-size="15" font-weight="normal" opacity="100" transform="rotate(-0.0 -299.0,361.0) translate(0 15)" x="-299.0" y="361.0">Московский пр.</text><polygon fill="#808080" opacity="100" points="582.0,384.0 582.0,409.0 332.0,409.0 332.0,428.0 341.0,428.0 341.0,519.0 332.0,519.0 332.0,538.0 582.0,538.0 582.0,563.0" stroke="#000" stroke-width="1" /><polygon fill="#808080" opacity="100" points="314.0,409.0 293.0,409.0 293.0,428.0 314.0,428.0" stroke="#000" stroke-width="1" /><polygon fill="#808080" opacity="100" points="275.0,409.0 254.0,409.0 254.0,428.0 275.0,428.0" stroke="#000" stroke-width="1" /><polygon fill="#808080" opacity="100" points="236.0,409.0 215.0,409.0 215.0,428.0 236.0,428.0" stroke="#000" stroke-width="1" /><polygon fill="#808080" opacity="100" points="197.0,409.0 176.0,409.0 176.0,428.0 197.0,428.0" stroke="#000" stroke-width="1" /><polygon fill="#808080" opacity="100" points="314.0,519.0 293.0,519.0 293.0,538.0 314.0,538.0" stroke="#000" stroke-width="1" /><polygon fill="#808080" opacity="100" points="275.0,519.0 254.0,519.0 254.0,538.0 275.0,538.0" stroke="#000" stroke-width="1" /><polygon fill="#808080" opacity="100" points="236.0,519.0 215.0,519.0 215.0,538.0 236.0,538.0" stroke="#000" stroke-width="1" /><polygon fill="#808080" opacity="100" points="197.0,519.0 176.0,519.0 176.0,538.0 197.0,538.0" stroke="#000" stroke-width="1" /><polygon fill="#808080" opacity="100" points="-94.0,563.0 -94.0,538.0 160.0,538.0 160.0,519.0 152.0,519.0 152.0,510.0 127.0,510.0 127.0,519.0 -94.0,519.0" stroke="#000" stroke-width="1" /><polygon fill="#808080" opacity="100" points="-94.0,384.0 -94.0,409.0 160.0,409.0 160.0,428.0 152.0,428.0 152.0,437.0 127.0,437.0 127.0,428.0 -94.0,428.0" stroke="#000" stroke-width="1" /><polyline fill="none" opacity="100" points="106.0,428.0 106.0,519.0" stroke="#000" stroke-width="1" /><polyline fill="none" opacity="100" points="106.0,432.0 92.1719,437.0703 80.1875,442.1562 70.0469,447.2578 61.75,452.375 55.2969,457.5078 50.6875,462.6562 47.9219,467.8203 47.0,473.0 47.9219,478.1953 50.6875,483.4062 55.2969,488.6328 61.75,493.875 70.0469,499.1328 80.1875,504.4062 92.1719,509.6953 106.0,515.0" stroke="#000" stroke-width="1" /><polyline fill="none" opacity="100" points="-217.0,437.0 -219.2812,434.8125 -221.625,432.75 -224.0327,430.8125 -226.5,429.0 -229.0181,427.3125 -231.6016,425.75 -234.2549,424.3125 -237.0,423.0 -239.8779,421.8125 -242.8359,420.75 -245.8386,419.8123 -248.875,419.0 -251.929,418.3147 -254.9805,417.7539 -258.0171,417.3169 -261.0,417.0 -263.8696,416.7964 -266.6758,416.7148 -269.4478,416.762 -272.1875,416.9375 -274.9038,417.24 -277.6055,417.6797 -280.2944,418.2607 -283.0,419.0 -285.772,419.9268 -288.5508,421.0078 -291.2976,422.2224 -294.0,423.5625 -296.6379,425.0139 -299.1953,426.5742 -301.6611,428.2397 -304.0,430.0 -306.1592,431.8423 -308.1797,433.7695 -310.084,435.781 -311.875,437.875 -313.5645,440.053 -315.1484,442.3047 -316.624,444.624 -318.0,447.0 -319.29,449.415 -320.4766,451.8828 -321.5483,454.4126 -322.5,457.0 -323.3228,459.6382 -324.0156,462.3438 -324.5762,465.1211 -325.0,468.0 -325.2832,471.0352 -325.4219,474.1562 -325.4104,477.3171 -325.25,480.5 -324.947,483.677 -324.4805,486.832 -323.8413,489.9517 -323.0,493.0 -321.9048,495.9272 -320.6133,498.7617 -319.1609,501.5151 -317.5625,504.1875 -315.845,506.7896 -314.0078,509.3008 -312.0557,511.7095 -310.0,514.0 -307.8506,516.146 -305.6172,518.168 -303.3108,520.0771 -300.9375,521.875 -298.4998,523.5674 -296.0195,525.1523 -293.5103,526.6284 -291.0,528.0 -288.5327,529.2739 -286.0742,530.4414 -283.604,531.4958 -281.125,532.4375 -278.6382,533.2678 -276.1289,533.9766 -273.5942,534.5596 -271.0,535.0 -268.2847,535.2686 -265.5273,535.3984 -262.7844,535.4111 -260.0625,535.3125 -257.366,535.1123 -254.7578,534.8203 -252.2666,534.4424 -250.0,534.0 -248.1396,533.5264 -246.4922,532.9922 -244.9368,532.3806 -243.4375,531.6875 -241.9285,530.9026 -240.3789,530.0273 -238.7661,529.062 -237.0,528.0 -234.9487,526.8325 -232.7148,525.5664 -230.3533,524.2053 -227.875,522.75 -225.3167,521.2029 -222.6562,519.5625 -219.8828,517.8281 -217.0,516.0" stroke="#000" stroke-width="1" /><polyline fill="none" opacity="100" points="-226.0,473.0 -242.0,473.0 -242.0,455.0 -261.0,455.0 -261.0,417.0" stroke="#000" stroke-width="1" /><polyline fill="none" opacity="100" points="-222.0,437.0 -222.0,516.0" stroke="#000" stroke-width="1" /><polyline fill="none" opacity="100" points="-283.0,419.0 -290.0,402.0 -302.0,407.0" stroke="#000" stroke-width="1" /><polyline fill="none" opacity="100" points="-265.0,415.0 -269.0,410.0 -264.0,405.0 -268.0,398.0 -251.0,398.0 -255.0,404.0 -253.0,409.0 -255.0,416.0" stroke="#000" stroke-width="1" /><polyline fill="none" opacity="100" points="-237.0,423.0 -230.0,407.0 -225.0,410.0" stroke="#000" stroke-width="1" /><polyline fill="none" opacity="100" points="-222.0,437.0 -213.0938,441.1172 -205.375,445.3438 -198.8438,449.6797 -193.5,454.125 -189.3438,458.6797 -186.375,463.3438 -184.5938,468.1172 -184.0,473.0 -184.5938,477.9922 -186.375,483.0938 -189.3438,488.3047 -193.5,493.625 -198.8438,499.0547 -205.375,504.5938 -213.0938,510.2422 -222.0,516.0" stroke="#000" stroke-width="1" /><polyline fill="none" opacity="100" points="-222.0,437.0 106.0,432.0" stroke="#000" stroke-dasharray="5,5" stroke-width="1" /><polyline fill="none" opacity="100" points="-222.0,516.0 106.0,515.0" stroke="#000" stroke-dasharray="5,5" stroke-width="1" /><polyline fill="none" opacity="100" points="-277.0,394.0 -277.0,416.0" stroke="#0F0" stroke-width="1" /><polygon fill="#0F0" opacity="100" points="-278.7082,409.6249 -277.0,416.0 -275.2918,409.6249" stroke="#0F0" stroke-width="1" /><polyline fill="none" opacity="100" points="-244.0,416.0 -244.0,394.0" stroke="#F00" stroke-width="1" /><polygon fill="#F00" opacity="100" points="-242.2918,400.3751 -244.0,394.0 -245.7082,400.3751" stroke="#F00" stroke-width="1" /></g></g></svg>