<?xml version="1.0" encoding="utf-8" ?>
<svg baseProfile="tiny" height="1100px" version="1.2" width="660px" xmlns="http://www.w3.org/2000/svg" xmlns:ev="http://www.w3.org/2001/xml-events" xmlns:xlink="http://www.w3.org/1999/xlink"><defs /><g><g transform="rotate(75.0,330.0,550.0)"><text fill="#000" font-family="Arial" font-size="24" font-weight="bold" opacity="100" transform="rotate(-0.0 447.0,484.0) translate(0 24)" x="447.0" y="484.0">Горьковская</text><text fill="#00F" font-family="Arial" font-size="24" font-weight="bold" opacity="100" transform="rotate(-0.0 446.0,483.0) translate(0 24)" x="446.0" y="483.0">Горьковская</text><polygon fill="#0071B9" opacity="100" points="865.0,406.0 865.0,387.0 189.0,387.0 189.0,406.0" stroke="#000" stroke-width="1" /><polygon fill="#0071B9" opacity="100" points="865.0,604.0 865.0,585.0 189.0,585.0 189.0,604.0" stroke="#000" stroke-width="1" /><text fill="#000" font-family="Arial" font-size="14" font-weight="normal" opacity="100" transform="rotate(-0.0 197.0,387.0) translate(0 14)" x="197.0" y="387.0">&lt;&lt;  Петроградская</text><text fill="#000" font-family="Arial" font-size="14" font-weight="normal" opacity="100" transform="rotate(-0.0 771.0,588.0) translate(0 14)" x="771.0" y="588.0">Невский пр. &gt;&gt;</text><text fill="#FF0" font-family="Arial" font-size="14" font-weight="normal" opacity="100" transform="rotate(-0.0 196.0,386.0) translate(0 14)" x="196.0" y="386.0">&lt;&lt;  Петроградская</text><text fill="#FF0" font-family="Arial" font-size="14" font-weight="normal" opacity="100" transform="rotate(-0.0 770.0,587.0) translate(0 14)" x="770.0" y="587.0">Невский пр. &gt;&gt;</text><polygon fill="#808080" opacity="100" points="865.0,406.0 865.0,431.0 615.0,431.0 615.0,450.0 624.0,450.0 624.0,541.0 615.0,541.0 615.0,560.0 865.0,560.0 865.0,585.0" stroke="#000" stroke-width="1" /><polygon fill="#808080" opacity="100" points="597.0,431.0 576.0,431.0 576.0,450.0 597.0,450.0" stroke="#000" stroke-width="1" /><polygon fill="#808080" opacity="100" points="558.0,431.0 537.0,431.0 537.0,450.0 558.0,450.0" stroke="#000" stroke-width="1" /><polygon fill="#808080" opacity="100" points="519.0,431.0 498.0,431.0 498.0,450.0 519.0,450.0" stroke="#000" stroke-width="1" /><polygon fill="#808080" opacity="100" points="480.0,431.0 459.0,431.0 459.0,450.0 480.0,450.0" stroke="#000" stroke-width="1" /><polygon fill="#808080" opacity="100" points="597.0,541.0 576.0,541.0 576.0,560.0 597.0,560.0" stroke="#000" stroke-width="1" /><polygon fill="#808080" opacity="100" points="558.0,541.0 537.0,541.0 537.0,560.0 558.0,560.0" stroke="#000" stroke-width="1" /><polygon fill="#808080" opacity="100" points="519.0,541.0 498.0,541.0 498.0,560.0 519.0,560.0" stroke="#000" stroke-width="1" /><polygon fill="#808080" opacity="100" points="480.0,541.0 459.0,541.0 459.0,560.0 480.0,560.0" stroke="#000" stroke-width="1" /><polygon fill="#808080" opacity="100" points="189.0,585.0 189.0,560.0 443.0,560.0 443.0,541.0 435.0,541.0 435.0,532.0 410.0,532.0 410.0,541.0 189.0,541.0" stroke="#000" stroke-width="1" /><polygon fill="#808080" opacity="100" points="189.0,406.0 189.0,431.0 443.0,431.0 443.0,450.0 435.0,450.0 435.0,459.0 410.0,459.0 410.0,450.0 189.0,450.0" stroke="#000" stroke-width="1" /><polyline fill="none" opacity="100" points="389.0,450.0 389.0,541.0" stroke="#000" stroke-width="1" /><polyline fill="none" opacity="100" points="389.0,454.0 375.1719,459.0703 363.1875,464.1562 353.0469,469.2578 344.75,474.375 338.2969,479.5078 333.6875,484.6562 330.9219,489.8203 330.0,495.0 330.9219,500.1953 333.6875,505.4062 338.2969,510.6328 344.75,515.875 353.0469,521.1328 363.1875,526.4062 375.1719,531.6953 389.0,537.0" stroke="#000" stroke-width="1" /><polyline fill="none" opacity="100" points="66.0,459.0 63.7188,456.8125 61.375,454.75 58.9673,452.8125 56.5,451.0 53.9819,449.3125 51.3984,447.75 48.7451,446.3125 46.0,445.0 43.1221,443.8125 40.1641,442.75 37.1614,441.8123 34.125,441.0 31.071,440.3147 28.0195,439.7539 24.9829,439.3169 22.0,439.0 19.1304,438.7964 16.3242,438.7148 13.5522,438.762 10.8125,438.9375 8.0962,439.24 5.3945,439.6797 2.7056,440.2607 0.0,441.0 -2.772,441.9268 -5.5508,443.0078 -8.2976,444.2224 -11.0,445.5625 -13.6379,447.0139 -16.1953,448.5742 -18.6611,450.2397 -21.0,452.0 -23.1592,453.8423 -25.1797,455.7695 -27.084,457.781 -28.875,459.875 -30.5645,462.053 -32.1484,464.3047 -33.624,466.624 -35.0,469.0 -36.29,471.415 -37.4766,473.8828 -38.5483,476.4126 -39.5,479.0 -40.3228,481.6382 -41.0156,484.3438 -41.5762,487.1211 -42.0,490.0 -42.2832,493.0352 -42.4219,496.1562 -42.4104,499.3171 -42.25,502.5 -41.947,505.677 -41.4805,508.832 -40.8413,511.9517 -40.0,515.0 -38.9048,517.9272 -37.6133,520.7617 -36.1609,523.5151 -34.5625,526.1875 -32.845,528.7896 -31.0078,531.3008 -29.0557,533.7095 -27.0,536.0 -24.8506,538.146 -22.6172,540.168 -20.3108,542.0771 -17.9375,543.875 -15.4998,545.5674 -13.0195,547.1523 -10.5103,548.6284 -8.0,550.0 -5.5327,551.2739 -3.0742,552.4414 -0.604,553.4958 1.875,554.4375 4.3618,555.2678 6.8711,555.9766 9.4058,556.5596 12.0,557.0 14.7153,557.2686 17.4727,557.3984 20.2156,557.4111 22.9375,557.3125 25.634,557.1123 28.2422,556.8203 30.7334,556.4424 33.0,556.0 34.8604,555.5264 36.5078,554.9922 38.0632,554.3806 39.5625,553.6875 41.0715,552.9026 42.6211,552.0273 44.2339,551.062 46.0,550.0 48.0513,548.8325 50.2852,547.5664 52.6467,546.2053 55.125,544.75 57.6833,543.2029 60.3438,541.5625 63.1172,539.8281 66.0,538.0" stroke="#000" stroke-width="1" /><polyline fill="none" opacity="100" points="57.0,495.0 41.0,495.0 41.0,477.0 22.0,477.0 22.0,439.0" stroke="#000" stroke-width="1" /><polyline fill="none" opacity="100" points="61.0,459.0 61.0,538.0" stroke="#000" stroke-width="1" /><polyline fill="none" opacity="100" points="0.0,441.0 -7.0,424.0 -19.0,429.0 -51.0,373.0" stroke="#000" stroke-width="1" /><polyline fill="none" opacity="100" points="18.0,437.0 14.0,432.0 19.0,427.0 15.0,420.0 32.0,420.0 28.0,426.0 30.0,431.0 28.0,438.0" stroke="#000" stroke-width="1" /><polyline fill="none" opacity="100" points="46.0,445.0 53.0,429.0 58.0,432.0 88.0,375.0" stroke="#000" stroke-width="1" /><polyline fill="none" opacity="100" points="61.0,459.0 69.9062,463.1172 77.625,467.3438 84.1562,471.6797 89.5,476.125 93.6562,480.6797 96.625,485.3438 98.4062,490.1172 99.0,495.0 98.4062,499.9922 96.625,505.0938 93.6562,510.3047 89.5,515.625 84.1562,521.0547 77.625,526.5938 69.9062,532.2422 61.0,538.0" stroke="#000" stroke-width="1" /><polyline fill="none" opacity="100" points="61.0,459.0 389.0,454.0" stroke="#000" stroke-dasharray="5,5" stroke-width="1" /><polyline fill="none" opacity="100" points="61.0,538.0 389.0,537.0" stroke="#000" stroke-dasharray="5,5" stroke-width="1" /><polygon fill="#FFF" opacity="100" points="23.0,402.0 23.0,356.0 31.0,356.0 31.0,402.0" stroke="#000" stroke-width="1" /><polyline fill="none" opacity="100" points="-27.0,414.0 23.0,402.0" stroke="#000" stroke-width="1" /><polyline fill="none" opacity="100" points="-28.1494,410.1687 21.8506,398.1687" stroke="#000" stroke-width="1" /><polyline fill="none" opacity="100" points="-29.2988,406.3374 20.7012,394.3374" stroke="#000" stroke-width="1" /><polyline fill="none" opacity="100" points="-30.4482,402.5061 19.5518,390.5061" stroke="#000" stroke-width="1" /><polyline fill="none" opacity="100" points="-31.5976,398.6748 18.4024,386.6748" stroke="#000" stroke-width="1" /><polyline fill="none" opacity="100" points="-32.747,394.8435 17.253,382.8435" stroke="#000" stroke-width="1" /><polyline fill="none" opacity="100" points="-33.8963,391.0122 16.1037,379.0122" stroke="#000" stroke-width="1" /><polyline fill="none" opacity="100" points="-35.0457,387.1809 14.9543,375.1809" stroke="#000" stroke-width="1" /><polyline fill="none" opacity="100" points="-36.1951,383.3496 13.8049,371.3496" stroke="#000" stroke-width="1" /><polyline fill="none" opacity="100" points="-37.3445,379.5183 12.6555,367.5183" stroke="#000" stroke-width="1" /><polyline fill="none" opacity="100" points="-38.4939,375.6869 11.5061,363.6869" stroke="#000" stroke-width="1" /><polyline fill="none" opacity="100" points="31.0,402.0 66.0,415.0" stroke="#000" stroke-width="1" /><polyline fill="none" opacity="100" points="32.1827,398.1789 67.1827,411.1789" stroke="#000" stroke-width="1" /><polyline fill="none" opacity="100" points="33.3655,394.3577 68.3655,407.3577" stroke="#000" stroke-width="1" /><polyline fill="none" opacity="100" points="34.5482,390.5366 69.5482,403.5366" stroke="#000" stroke-width="1" /><polyline fill="none" opacity="100" points="35.7309,386.7154 70.7309,399.7154" stroke="#000" stroke-width="1" /><polyline fill="none" opacity="100" points="36.9137,382.8943 71.9137,395.8943" stroke="#000" stroke-width="1" /><polyline fill="none" opacity="100" points="38.0964,379.0731 73.0964,392.0731" stroke="#000" stroke-width="1" /><polyline fill="none" opacity="100" points="39.2791,375.252 74.2791,388.252" stroke="#000" stroke-width="1" /><polyline fill="none" opacity="100" points="40.4619,371.4309 75.4619,384.4309" stroke="#000" stroke-width="1" /><polyline fill="none" opacity="100" points="41.6446,367.6097 76.6446,380.6097" stroke="#000" stroke-width="1" /><polyline fill="none" opacity="100" points="42.8273,363.7886 77.8273,376.7886" stroke="#000" stroke-width="1" /><polyline fill="none" opacity="100" points="6.0,416.0 6.0,438.0" stroke="#0F0" stroke-width="1" /><polygon fill="#0F0" opacity="100" points="4.2918,431.6249 6.0,438.0 7.7082,431.6249" stroke="#0F0" stroke-width="1" /><polyline fill="none" opacity="100" points="39.0,438.0 39.0,416.0" stroke="#F00" stroke-width="1" /><polygon fill="#F00" opacity="100" points="40.7082,422.3751 39.0,416.0 37.2918,422.3751" stroke="#F00" stroke-width="1" /><text fill="#00AFAF" font-family="Arial" font-size="15" font-weight="normal" opacity="100" transform="rotate(-75.0 6.0,792.0) translate(0 15)" x="6.0" y="792.0">Александровский парк</text><text fill="#00AFAF" font-family="Arial" font-size="15" font-weight="normal" opacity="100" transform="rotate(-65.0 -186.0,428.0) translate(0 15)" x="-186.0" y="428.0">Кронверкский проспект</text><text fill="#00AFAF" font-family="Arial" font-size="15" font-weight="normal" opacity="100" transform="rotate(-0.0 22.0,186.0) translate(0 15)" x="22.0" y="186.0">Каменноостровский проспект</text></g></g></svg>