<?xml version="1.0" encoding="utf-8" ?>
<svg baseProfile="tiny" height="1070px" version="1.2" width="760px" xmlns="http://www.w3.org/2000/svg" xmlns:ev="http://www.w3.org/2001/xml-events" xmlns:xlink="http://www.w3.org/1999/xlink"><defs /><g><g transform="rotate(-60.0,380.0,535.0)"><polygon fill="#DC004B" opacity="100" points="558.0,590.0 558.0,575.0 -182.0,575.0 -182.0,590.0" stroke="#000" stroke-width="1" /><polygon fill="#DC004B" opacity="100" points="-181.0,461.0 -181.0,446.0 558.0,446.0 558.0,461.0" stroke="#000" stroke-width="1" /><polyline fill="none" opacity="100" points="-118.0,461.0 -118.0,475.0 -100.0,475.0 -100.0,561.0 -118.0,561.0 -118.0,575.0" stroke="#000" stroke-width="1" /><polyline fill="none" opacity="100" points="486.0,461.0 486.0,474.0 465.0,474.0 465.0,484.0 506.0,484.0 506.0,476.0" stroke="#000" stroke-width="1" /><polyline fill="none" opacity="100" points="486.0,575.0 486.0,562.0 465.0,562.0 465.0,553.0 506.0,553.0 506.0,558.0" stroke="#000" stroke-width="1" /><polyline fill="none" opacity="100" points="506.0,558.0 707.0,558.0 707.0,476.0 506.0,476.0 506.0,558.0" stroke="#000" stroke-dasharray="5,5" stroke-width="1" /><polyline fill="none" opacity="100" points="707.0,517.0 773.0,559.0" stroke="#000" stroke-width="1" /><polyline fill="none" opacity="100" points="722.0,573.0 722.0,584.0 707.0,584.0 707.0,595.0 717.0,595.0 717.0,609.0" stroke="#000" stroke-width="1" /><polyline fill="none" opacity="100" points="750.0,573.0 750.0,584.0 764.0,584.0 764.0,595.0 754.0,595.0 754.0,609.0" stroke="#000" stroke-width="1" /><polyline fill="none" opacity="100" points="749.0,543.0 749.0,465.0" stroke="#000" stroke-dasharray="5,5" stroke-width="1" /><polyline fill="none" opacity="100" points="789.0,533.0 803.0,533.0 803.0,556.0 813.0,556.0 813.0,538.0 824.0,538.0 824.0,546.0 836.0,558.0 836.0,565.0 881.0,565.0 888.0,557.0 888.0,538.0 895.0,538.0" stroke="#000" stroke-width="1" /><polyline fill="none" opacity="100" points="789.0,507.0 803.0,507.0 803.0,484.0 813.0,484.0 813.0,500.0 824.0,500.0 824.0,496.0 827.0,491.0 845.0,491.0 845.0,476.0 880.0,476.0 888.0,484.0 888.0,502.0 895.0,502.0" stroke="#000" stroke-width="1" /><polyline fill="none" opacity="100" points="698.0,558.0 699.0312,559.2891 700.125,560.5312 701.2812,561.7266 702.5,562.875 703.7812,563.9766 705.125,565.0312 706.5312,566.0391 708.0,567.0 709.5312,567.9141 711.125,568.7812 712.7812,569.6016 714.5,570.375 716.2812,571.1016 718.125,571.7812 720.0312,572.4141 722.0,573.0" stroke="#000" stroke-width="1" /><polyline fill="none" opacity="100" points="750.0,573.0 753.2578,571.9062 756.4062,570.625 759.4453,569.1562 762.375,567.5 765.1953,565.6562 767.9062,563.625 770.5078,561.4062 773.0,559.0 775.3828,556.4062 777.6562,553.625 779.8203,550.6562 781.875,547.5 783.8203,544.1562 785.6562,540.625 787.3828,536.9062 789.0,533.0" stroke="#000" stroke-width="1" /><polyline fill="none" opacity="100" points="789.0,507.0 787.6172,503.4375 786.0938,500.0 784.4292,496.6853 782.625,493.5 780.6841,490.4573 778.6016,487.5352 776.376,484.7271 774.0,482.0 771.46,479.2925 768.7734,476.6836 765.9478,474.2275 763.0,471.9375 759.9624,469.8311 756.7969,467.9492 753.4941,466.314 750.0,465.0 746.209,464.1274 742.2656,463.582 738.2681,463.2957 734.25,463.25 730.2593,463.4055 726.3516,463.7578 722.5635,464.3018 719.0,465.0 715.8193,465.7998 712.8984,466.7422 710.1714,467.8491 707.625,469.125 705.2153,470.5845 702.9688,472.2188 700.8984,474.0234 699.0,476.0" stroke="#000" stroke-width="1" /><polyline fill="none" opacity="100" points="738.0,589.0 738.0,602.0" stroke="#F00" stroke-width="1" /><polygon fill="#F00" opacity="100" points="736.9906,598.2329 738.0,602.0 739.0094,598.2329" stroke="#F00" stroke-width="1" /><polyline fill="none" opacity="100" points="895.0,521.0 880.0,521.0" stroke="#090" stroke-width="1" /><polygon fill="#090" opacity="100" points="884.3467,519.8353 880.0,521.0 884.3467,522.1647" stroke="#090" stroke-width="1" /><text fill="#DC004B" font-family="Arial" font-size="20" font-weight="normal" opacity="100" transform="rotate(-0.0 438.0,590.0) translate(0 20)" x="438.0" y="590.0">Девяткино &gt;&gt;</text><text fill="#DC004B" font-family="Arial" font-size="20" font-weight="normal" opacity="100" transform="rotate(-0.0 -176.0,426.0) translate(0 20)" x="-176.0" y="426.0">&lt;&lt; Академическая</text><text fill="#DC004B" font-family="Arial" font-size="25" font-weight="bold" opacity="100" transform="rotate(-0.0 25.0,501.0) translate(0 25)" x="25.0" y="501.0">Гражданский проспект</text><text fill="#00AFAF" font-family="Arial" font-size="15" font-weight="normal" opacity="100" transform="rotate(-0.0 694.0,646.0) translate(0 15)" x="694.0" y="646.0">Гражданский проспект</text><text fill="#00AFAF" font-family="Arial" font-size="15" font-weight="normal" opacity="100" transform="rotate(90.0 953.0,477.0) translate(0 15)" x="953.0" y="477.0">проспект Просвещения</text></g></g></svg>