<?xml version="1.0" encoding="utf-8" ?>
<svg baseProfile="tiny" height="1120px" version="1.2" width="710px" xmlns="http://www.w3.org/2000/svg" xmlns:ev="http://www.w3.org/2001/xml-events" xmlns:xlink="http://www.w3.org/1999/xlink"><defs /><g><g transform="rotate(70.0,355.0,560.0)"><polygon fill="#EA7B16" opacity="100" points="374.0,423.0 374.0,409.0 932.0,409.0 932.0,423.0" stroke="#000" stroke-width="1" /><polygon fill="#EA7B16" opacity="100" points="374.0,541.0 374.0,555.0 932.0,555.0 932.0,541.0" stroke="#000" stroke-width="1" /><polyline fill="none" opacity="100" points="932.0,423.0 932.0,443.0 876.0,443.0 876.0,521.0 932.0,521.0 932.0,541.0" stroke="#000" stroke-width="1" /><polyline fill="none" opacity="100" points="374.0,423.0 374.0,442.0 399.0,442.0 399.0,453.0 335.0,453.0" stroke="#000" stroke-width="1" /><polyline fill="none" opacity="100" points="374.0,541.0 374.0,523.0 401.0,523.0 401.0,511.0 335.0,511.0" stroke="#000" stroke-width="1" /><polyline fill="none" opacity="100" points="335.0,453.0 335.0,511.0 18.0,511.0 18.0,453.0 335.0,453.0" stroke="#000" stroke-dasharray="5,5" stroke-width="1" /><polyline fill="none" opacity="100" points="233.0,465.0 163.0,465.0 151.0,453.0 196.0,408.0" stroke="#000" stroke-width="1" /><polyline fill="none" opacity="100" points="233.0,500.0 163.0,500.0 103.0,560.0 103.0,587.0 76.0,587.0 16.0,647.0 16.0,674.0 -17.0,674.0 -17.0,647.0 -77.0,587.0 -105.0,587.0 -105.0,559.0 -166.0,498.0 -194.0,498.0 -194.0,465.0 -166.0,465.0 -104.0,403.0 -104.0,376.0 -77.0,376.0 -17.0,316.0 -17.0,246.0" stroke="#000" stroke-width="1" /><polyline fill="none" opacity="100" points="16.0,246.0 16.0,316.0 28.0,328.0 71.0,285.0" stroke="#000" stroke-width="1" /><polyline fill="none" opacity="100" points="22.0,402.0 22.0,394.0 86.0,394.0 86.0,419.0 41.0,419.0 21.0,444.0 21.0,448.0 86.0,448.0 86.0,517.0 21.0,517.0 21.0,522.0 41.0,547.0 86.0,547.0 86.0,569.0 22.0,569.0 22.0,562.0" stroke="#000" stroke-width="1" /><polyline fill="none" opacity="100" points="-26.0,402.0 -26.0,394.0 -88.0,394.0 -88.0,458.0 -81.0,458.0" stroke="#000" stroke-width="1" /><polyline fill="none" opacity="100" points="-81.0,509.0 -89.0,509.0 -89.0,569.0 -26.0,569.0 -26.0,562.0" stroke="#000" stroke-width="1" /><polyline fill="none" opacity="100" points="-22.0,444.0 -40.0,444.0 -40.0,522.0 -21.0,522.0" stroke="#000" stroke-width="1" /><polyline fill="none" opacity="100" points="-40.0,482.0 18.0,482.0" stroke="#000" stroke-width="1" /><polyline fill="none" opacity="100" points="-21.0,522.0 21.0,522.0" stroke="#000" stroke-dasharray="5,5" stroke-width="1" /><polyline fill="none" opacity="100" points="-22.0,444.0 21.0,444.0" stroke="#000" stroke-dasharray="5,5" stroke-width="1" /><polyline fill="none" opacity="100" points="0.0,388.0 0.0,374.0" stroke="#F00" stroke-width="1" /><polygon fill="#F00" opacity="100" points="1.087,378.0569 0.0,374.0 -1.087,378.0569" stroke="#F00" stroke-width="1" /><polyline fill="none" opacity="100" points="-6.0,590.0 -6.0,575.0" stroke="#008000" stroke-width="1" /><polygon fill="#008000" opacity="100" points="-4.8353,579.3467 -6.0,575.0 -7.1647,579.3467" stroke="#008000" stroke-width="1" /><text fill="#EA7B16" font-family="Arial" font-size="20" font-weight="normal" opacity="100" transform="rotate(-0.0 383.0,385.0) translate(0 20)" x="383.0" y="385.0">&lt;&lt; Старая деревня</text><text fill="#EA7B16" font-family="Arial" font-size="20" font-weight="normal" opacity="100" transform="rotate(-0.0 798.0,557.0) translate(0 20)" x="798.0" y="557.0">Чкаловская &gt;&gt;</text><text fill="#EA7B16" font-family="Arial" font-size="25" font-weight="bold" opacity="100" transform="rotate(-0.0 580.0,469.0) translate(0 25)" x="580.0" y="469.0">Крестовский остров</text><text fill="#00AFAF" font-family="Arial" font-size="15" font-weight="normal" opacity="100" transform="rotate(-60.0 776.0,873.0) translate(0 15)" x="776.0" y="873.0">Морской проспект</text><text fill="#00AFAF" font-family="Arial" font-size="15" font-weight="normal" opacity="100" transform="rotate(-0.0 -50.0,761.0) translate(0 15)" x="-50.0" y="761.0">Рюхина улица</text></g></g></svg>