<?xml version="1.0" encoding="utf-8" ?>
<svg baseProfile="tiny" height="600px" version="1.2" width="440px" xmlns="http://www.w3.org/2000/svg" xmlns:ev="http://www.w3.org/2001/xml-events" xmlns:xlink="http://www.w3.org/1999/xlink"><defs /><g><g transform="rotate(80.0,220.0,300.0)"><polygon fill="#0071B9" opacity="100" points="-49.0,332.0 -49.0,282.0 505.0,282.0 505.0,332.0" stroke="#000" stroke-width="1" /><polyline fill="none" opacity="100" points="-51.0,307.0 505.0,307.0" stroke="#000" stroke-dasharray="5,5" stroke-width="1" /><polyline fill="none" opacity="100" points="505.0,282.0 505.0,256.0 337.0,256.0 337.0,225.0 379.0,225.0 379.0,216.0 404.0,216.0" stroke="#000" stroke-width="1" /><polyline fill="none" opacity="100" points="404.0,197.0 379.0,197.0 379.0,190.0 75.0,190.0 75.0,197.0 51.0,197.0" stroke="#000" stroke-width="1" /><polyline fill="none" opacity="100" points="51.0,216.0 75.0,216.0 75.0,225.0 119.0,225.0 119.0,256.0 -49.0,256.0 -49.0,282.0" stroke="#000" stroke-width="1" /><polyline fill="none" opacity="100" points="167.0,225.0 289.0,225.0 289.0,260.0 167.0,260.0 167.0,225.0" stroke="#000" stroke-width="1" /><polyline fill="none" opacity="100" points="505.0,332.0 505.0,352.0 472.0,352.0 472.0,408.0" stroke="#000" stroke-width="1" /><polyline fill="none" opacity="100" points="472.0,425.0 472.0,447.0 456.0,447.0 456.0,425.0" stroke="#000" stroke-width="1" /><polyline fill="none" opacity="100" points="456.0,408.0 456.0,352.0 431.0,352.0 431.0,361.0 372.0,361.0" stroke="#000" stroke-width="1" /><polyline fill="none" opacity="100" points="431.0,372.0 431.0,378.0 415.0,378.0" stroke="#000" stroke-width="1" /><polyline fill="none" opacity="100" points="399.0,377.0 233.0,377.0" stroke="#000" stroke-width="1" /><polyline fill="none" opacity="100" points="314.0,361.0 139.0,361.0" stroke="#000" stroke-width="1" /><polyline fill="none" opacity="100" points="222.0,377.0 52.0,377.0" stroke="#000" stroke-width="1" /><polyline fill="none" opacity="100" points="39.0,377.0 26.0,377.0 26.0,372.0" stroke="#000" stroke-width="1" /><polyline fill="none" opacity="100" points="85.0,361.0 26.0,361.0 26.0,352.0 1.0,352.0 1.0,408.0" stroke="#000" stroke-width="1" /><polyline fill="none" opacity="100" points="1.0,425.0 1.0,447.0 -14.0,447.0 -14.0,425.0" stroke="#000" stroke-width="1" /><polyline fill="none" opacity="100" points="-14.0,407.0 -14.0,352.0 -49.0,352.0 -49.0,332.0" stroke="#000" stroke-width="1" /><polyline fill="none" opacity="100" points="-14.0,355.0 1.0,355.0" stroke="#000" stroke-width="1" /><polyline fill="none" opacity="100" points="-14.0,359.0 1.0,359.0" stroke="#000" stroke-width="1" /><polyline fill="none" opacity="100" points="-14.0,363.0 1.0,363.0" stroke="#000" stroke-width="1" /><polyline fill="none" opacity="100" points="-14.0,367.0 1.0,367.0" stroke="#000" stroke-width="1" /><polyline fill="none" opacity="100" points="-14.0,371.0 1.0,371.0" stroke="#000" stroke-width="1" /><polyline fill="none" opacity="100" points="29.0,377.0 29.0,361.0" stroke="#000" stroke-width="1" /><polyline fill="none" opacity="100" points="33.0,377.0 33.0,361.0" stroke="#000" stroke-width="1" /><polyline fill="none" opacity="100" points="59.0,377.0 59.0,361.0" stroke="#000" stroke-width="1" /><polyline fill="none" opacity="100" points="63.0,377.0 63.0,361.0" stroke="#000" stroke-width="1" /><polyline fill="none" opacity="100" points="67.0,377.0 67.0,361.0" stroke="#000" stroke-width="1" /><polyline fill="none" opacity="100" points="71.0,377.0 71.0,361.0" stroke="#000" stroke-width="1" /><polyline fill="none" opacity="100" points="75.0,377.0 75.0,361.0" stroke="#000" stroke-width="1" /><polyline fill="none" opacity="100" points="79.0,377.0 79.0,361.0" stroke="#000" stroke-width="1" /><polyline fill="none" opacity="100" points="147.0,377.0 147.0,361.0" stroke="#000" stroke-width="1" /><polyline fill="none" opacity="100" points="151.0,377.0 151.0,361.0" stroke="#000" stroke-width="1" /><polyline fill="none" opacity="100" points="155.0,377.0 155.0,361.0" stroke="#000" stroke-width="1" /><polyline fill="none" opacity="100" points="159.0,377.0 159.0,361.0" stroke="#000" stroke-width="1" /><polyline fill="none" opacity="100" points="163.0,377.0 163.0,361.0" stroke="#000" stroke-width="1" /><polyline fill="none" opacity="100" points="167.0,377.0 167.0,361.0" stroke="#000" stroke-width="1" /><polyline fill="none" opacity="100" points="309.0,377.0 309.0,361.0" stroke="#000" stroke-width="1" /><polyline fill="none" opacity="100" points="305.0,377.0 305.0,361.0" stroke="#000" stroke-width="1" /><polyline fill="none" opacity="100" points="301.0,377.0 301.0,361.0" stroke="#000" stroke-width="1" /><polyline fill="none" opacity="100" points="297.0,377.0 297.0,361.0" stroke="#000" stroke-width="1" /><polyline fill="none" opacity="100" points="293.0,377.0 293.0,361.0" stroke="#000" stroke-width="1" /><polyline fill="none" opacity="100" points="289.0,377.0 289.0,361.0" stroke="#000" stroke-width="1" /><polyline fill="none" opacity="100" points="395.0,377.0 395.0,361.0" stroke="#000" stroke-width="1" /><polyline fill="none" opacity="100" points="391.0,377.0 391.0,361.0" stroke="#000" stroke-width="1" /><polyline fill="none" opacity="100" points="387.0,377.0 387.0,361.0" stroke="#000" stroke-width="1" /><polyline fill="none" opacity="100" points="383.0,377.0 383.0,361.0" stroke="#000" stroke-width="1" /><polyline fill="none" opacity="100" points="379.0,377.0 379.0,361.0" stroke="#000" stroke-width="1" /><polyline fill="none" opacity="100" points="426.0,378.0 426.0,361.0" stroke="#000" stroke-width="1" /><polyline fill="none" opacity="100" points="422.0,378.0 422.0,361.0" stroke="#000" stroke-width="1" /><polyline fill="none" opacity="100" points="400.0,197.0 400.0,216.0" stroke="#000" stroke-width="1" /><polyline fill="none" opacity="100" points="396.0,197.0 396.0,216.0" stroke="#000" stroke-width="1" /><polyline fill="none" opacity="100" points="392.0,197.0 392.0,216.0" stroke="#000" stroke-width="1" /><polyline fill="none" opacity="100" points="388.0,197.0 388.0,216.0" stroke="#000" stroke-width="1" /><polyline fill="none" opacity="100" points="54.0,197.0 54.0,216.0" stroke="#000" stroke-width="1" /><polyline fill="none" opacity="100" points="58.0,197.0 58.0,216.0" stroke="#000" stroke-width="1" /><polyline fill="none" opacity="100" points="62.0,197.0 62.0,216.0" stroke="#000" stroke-width="1" /><polyline fill="none" opacity="100" points="66.0,197.0 66.0,216.0" stroke="#000" stroke-width="1" /><polyline fill="none" opacity="100" points="456.0,356.0 472.0,356.0" stroke="#000" stroke-width="1" /><polyline fill="none" opacity="100" points="456.0,360.0 472.0,360.0" stroke="#000" stroke-width="1" /><polyline fill="none" opacity="100" points="456.0,364.0 472.0,364.0" stroke="#000" stroke-width="1" /><polyline fill="none" opacity="100" points="456.0,368.0 472.0,368.0" stroke="#000" stroke-width="1" /><polyline fill="none" opacity="100" points="456.0,372.0 472.0,372.0" stroke="#000" stroke-width="1" /><polyline fill="none" opacity="100" points="456.0,376.0 472.0,376.0" stroke="#000" stroke-width="1" /><polyline fill="none" opacity="100" points="119.0,229.0 167.0,229.0" stroke="#000" stroke-dasharray="5,5" stroke-width="1" /><polyline fill="none" opacity="100" points="289.0,229.0 337.0,229.0" stroke="#000" stroke-dasharray="5,5" stroke-width="1" /><polyline fill="none" opacity="100" points="505.0,161.0 -47.0,161.0" stroke="#000" stroke-width="1" /><polyline fill="none" opacity="100" points="505.0,171.0 -47.0,171.0" stroke="#000" stroke-width="1" /><polyline fill="none" opacity="100" points="-40.0,159.0 -40.0,173.0" stroke="#000" stroke-width="1" /><polyline fill="none" opacity="100" points="-33.0,159.0 -33.0,173.0" stroke="#000" stroke-width="1" /><polyline fill="none" opacity="100" points="-26.0,159.0 -26.0,173.0" stroke="#000" stroke-width="1" /><polyline fill="none" opacity="100" points="-19.0,159.0 -19.0,173.0" stroke="#000" stroke-width="1" /><polyline fill="none" opacity="100" points="-12.0,159.0 -12.0,173.0" stroke="#000" stroke-width="1" /><polyline fill="none" opacity="100" points="-5.0,159.0 -5.0,173.0" stroke="#000" stroke-width="1" /><polyline fill="none" opacity="100" points="2.0,159.0 2.0,173.0" stroke="#000" stroke-width="1" /><polyline fill="none" opacity="100" points="9.0,159.0 9.0,173.0" stroke="#000" stroke-width="1" /><polyline fill="none" opacity="100" points="16.0,159.0 16.0,173.0" stroke="#000" stroke-width="1" /><polyline fill="none" opacity="100" points="23.0,159.0 23.0,173.0" stroke="#000" stroke-width="1" /><polyline fill="none" opacity="100" points="30.0,159.0 30.0,173.0" stroke="#000" stroke-width="1" /><polyline fill="none" opacity="100" points="37.0,159.0 37.0,173.0" stroke="#000" stroke-width="1" /><polyline fill="none" opacity="100" points="44.0,159.0 44.0,173.0" stroke="#000" stroke-width="1" /><polyline fill="none" opacity="100" points="51.0,159.0 51.0,173.0" stroke="#000" stroke-width="1" /><polyline fill="none" opacity="100" points="58.0,159.0 58.0,173.0" stroke="#000" stroke-width="1" /><polyline fill="none" opacity="100" points="65.0,159.0 65.0,173.0" stroke="#000" stroke-width="1" /><polyline fill="none" opacity="100" points="72.0,159.0 72.0,173.0" stroke="#000" stroke-width="1" /><polyline fill="none" opacity="100" points="79.0,159.0 79.0,173.0" stroke="#000" stroke-width="1" /><polyline fill="none" opacity="100" points="86.0,159.0 86.0,173.0" stroke="#000" stroke-width="1" /><polyline fill="none" opacity="100" points="93.0,159.0 93.0,173.0" stroke="#000" stroke-width="1" /><polyline fill="none" opacity="100" points="100.0,159.0 100.0,173.0" stroke="#000" stroke-width="1" /><polyline fill="none" opacity="100" points="107.0,159.0 107.0,173.0" stroke="#000" stroke-width="1" /><polyline fill="none" opacity="100" points="114.0,159.0 114.0,173.0" stroke="#000" stroke-width="1" /><polyline fill="none" opacity="100" points="121.0,159.0 121.0,173.0" stroke="#000" stroke-width="1" /><polyline fill="none" opacity="100" points="128.0,159.0 128.0,173.0" stroke="#000" stroke-width="1" /><polyline fill="none" opacity="100" points="135.0,159.0 135.0,173.0" stroke="#000" stroke-width="1" /><polyline fill="none" opacity="100" points="142.0,159.0 142.0,173.0" stroke="#000" stroke-width="1" /><polyline fill="none" opacity="100" points="149.0,159.0 149.0,173.0" stroke="#000" stroke-width="1" /><polyline fill="none" opacity="100" points="156.0,159.0 156.0,173.0" stroke="#000" stroke-width="1" /><polyline fill="none" opacity="100" points="163.0,159.0 163.0,173.0" stroke="#000" stroke-width="1" /><polyline fill="none" opacity="100" points="170.0,159.0 170.0,173.0" stroke="#000" stroke-width="1" /><polyline fill="none" opacity="100" points="177.0,159.0 177.0,173.0" stroke="#000" stroke-width="1" /><polyline fill="none" opacity="100" points="184.0,159.0 184.0,173.0" stroke="#000" stroke-width="1" /><polyline fill="none" opacity="100" points="191.0,159.0 191.0,173.0" stroke="#000" stroke-width="1" /><polyline fill="none" opacity="100" points="198.0,159.0 198.0,173.0" stroke="#000" stroke-width="1" /><polyline fill="none" opacity="100" points="205.0,159.0 205.0,173.0" stroke="#000" stroke-width="1" /><polyline fill="none" opacity="100" points="212.0,159.0 212.0,173.0" stroke="#000" stroke-width="1" /><polyline fill="none" opacity="100" points="219.0,159.0 219.0,173.0" stroke="#000" stroke-width="1" /><polyline fill="none" opacity="100" points="226.0,159.0 226.0,173.0" stroke="#000" stroke-width="1" /><polyline fill="none" opacity="100" points="233.0,159.0 233.0,173.0" stroke="#000" stroke-width="1" /><polyline fill="none" opacity="100" points="240.0,159.0 240.0,173.0" stroke="#000" stroke-width="1" /><polyline fill="none" opacity="100" points="247.0,159.0 247.0,173.0" stroke="#000" stroke-width="1" /><polyline fill="none" opacity="100" points="254.0,159.0 254.0,173.0" stroke="#000" stroke-width="1" /><polyline fill="none" opacity="100" points="261.0,159.0 261.0,173.0" stroke="#000" stroke-width="1" /><polyline fill="none" opacity="100" points="268.0,159.0 268.0,173.0" stroke="#000" stroke-width="1" /><polyline fill="none" opacity="100" points="275.0,159.0 275.0,173.0" stroke="#000" stroke-width="1" /><polyline fill="none" opacity="100" points="282.0,159.0 282.0,173.0" stroke="#000" stroke-width="1" /><polyline fill="none" opacity="100" points="289.0,159.0 289.0,173.0" stroke="#000" stroke-width="1" /><polyline fill="none" opacity="100" points="296.0,159.0 296.0,173.0" stroke="#000" stroke-width="1" /><polyline fill="none" opacity="100" points="303.0,159.0 303.0,173.0" stroke="#000" stroke-width="1" /><polyline fill="none" opacity="100" points="310.0,159.0 310.0,173.0" stroke="#000" stroke-width="1" /><polyline fill="none" opacity="100" points="317.0,159.0 317.0,173.0" stroke="#000" stroke-width="1" /><polyline fill="none" opacity="100" points="324.0,159.0 324.0,173.0" stroke="#000" stroke-width="1" /><polyline fill="none" opacity="100" points="331.0,159.0 331.0,173.0" stroke="#000" stroke-width="1" /><polyline fill="none" opacity="100" points="338.0,159.0 338.0,173.0" stroke="#000" stroke-width="1" /><polyline fill="none" opacity="100" points="345.0,159.0 345.0,173.0" stroke="#000" stroke-width="1" /><polyline fill="none" opacity="100" points="352.0,159.0 352.0,173.0" stroke="#000" stroke-width="1" /><polyline fill="none" opacity="100" points="359.0,159.0 359.0,173.0" stroke="#000" stroke-width="1" /><polyline fill="none" opacity="100" points="366.0,159.0 366.0,173.0" stroke="#000" stroke-width="1" /><polyline fill="none" opacity="100" points="373.0,159.0 373.0,173.0" stroke="#000" stroke-width="1" /><polyline fill="none" opacity="100" points="380.0,159.0 380.0,173.0" stroke="#000" stroke-width="1" /><polyline fill="none" opacity="100" points="387.0,159.0 387.0,173.0" stroke="#000" stroke-width="1" /><polyline fill="none" opacity="100" points="394.0,159.0 394.0,173.0" stroke="#000" stroke-width="1" /><polyline fill="none" opacity="100" points="401.0,159.0 401.0,173.0" stroke="#000" stroke-width="1" /><polyline fill="none" opacity="100" points="408.0,159.0 408.0,173.0" stroke="#000" stroke-width="1" /><polyline fill="none" opacity="100" points="415.0,159.0 415.0,173.0" stroke="#000" stroke-width="1" /><polyline fill="none" opacity="100" points="422.0,159.0 422.0,173.0" stroke="#000" stroke-width="1" /><polyline fill="none" opacity="100" points="429.0,159.0 429.0,173.0" stroke="#000" stroke-width="1" /><polyline fill="none" opacity="100" points="436.0,159.0 436.0,173.0" stroke="#000" stroke-width="1" /><polyline fill="none" opacity="100" points="443.0,159.0 443.0,173.0" stroke="#000" stroke-width="1" /><polyline fill="none" opacity="100" points="450.0,159.0 450.0,173.0" stroke="#000" stroke-width="1" /><polyline fill="none" opacity="100" points="457.0,159.0 457.0,173.0" stroke="#000" stroke-width="1" /><polyline fill="none" opacity="100" points="464.0,159.0 464.0,173.0" stroke="#000" stroke-width="1" /><polyline fill="none" opacity="100" points="471.0,159.0 471.0,173.0" stroke="#000" stroke-width="1" /><polyline fill="none" opacity="100" points="478.0,159.0 478.0,173.0" stroke="#000" stroke-width="1" /><polyline fill="none" opacity="100" points="485.0,159.0 485.0,173.0" stroke="#000" stroke-width="1" /><polyline fill="none" opacity="100" points="492.0,159.0 492.0,173.0" stroke="#000" stroke-width="1" /><polyline fill="none" opacity="100" points="499.0,159.0 499.0,173.0" stroke="#000" stroke-width="1" /><polyline fill="none" opacity="100" points="505.0,134.0 -48.0,134.0" stroke="#000" stroke-width="1" /><polyline fill="none" opacity="100" points="505.0,144.0 -48.0,144.0" stroke="#000" stroke-width="1" /><polyline fill="none" opacity="100" points="-41.0,132.0 -41.0,146.0" stroke="#000" stroke-width="1" /><polyline fill="none" opacity="100" points="-34.0,132.0 -34.0,146.0" stroke="#000" stroke-width="1" /><polyline fill="none" opacity="100" points="-27.0,132.0 -27.0,146.0" stroke="#000" stroke-width="1" /><polyline fill="none" opacity="100" points="-20.0,132.0 -20.0,146.0" stroke="#000" stroke-width="1" /><polyline fill="none" opacity="100" points="-13.0,132.0 -13.0,146.0" stroke="#000" stroke-width="1" /><polyline fill="none" opacity="100" points="-6.0,132.0 -6.0,146.0" stroke="#000" stroke-width="1" /><polyline fill="none" opacity="100" points="1.0,132.0 1.0,146.0" stroke="#000" stroke-width="1" /><polyline fill="none" opacity="100" points="8.0,132.0 8.0,146.0" stroke="#000" stroke-width="1" /><polyline fill="none" opacity="100" points="15.0,132.0 15.0,146.0" stroke="#000" stroke-width="1" /><polyline fill="none" opacity="100" points="22.0,132.0 22.0,146.0" stroke="#000" stroke-width="1" /><polyline fill="none" opacity="100" points="29.0,132.0 29.0,146.0" stroke="#000" stroke-width="1" /><polyline fill="none" opacity="100" points="36.0,132.0 36.0,146.0" stroke="#000" stroke-width="1" /><polyline fill="none" opacity="100" points="43.0,132.0 43.0,146.0" stroke="#000" stroke-width="1" /><polyline fill="none" opacity="100" points="50.0,132.0 50.0,146.0" stroke="#000" stroke-width="1" /><polyline fill="none" opacity="100" points="57.0,132.0 57.0,146.0" stroke="#000" stroke-width="1" /><polyline fill="none" opacity="100" points="64.0,132.0 64.0,146.0" stroke="#000" stroke-width="1" /><polyline fill="none" opacity="100" points="71.0,132.0 71.0,146.0" stroke="#000" stroke-width="1" /><polyline fill="none" opacity="100" points="78.0,132.0 78.0,146.0" stroke="#000" stroke-width="1" /><polyline fill="none" opacity="100" points="85.0,132.0 85.0,146.0" stroke="#000" stroke-width="1" /><polyline fill="none" opacity="100" points="92.0,132.0 92.0,146.0" stroke="#000" stroke-width="1" /><polyline fill="none" opacity="100" points="99.0,132.0 99.0,146.0" stroke="#000" stroke-width="1" /><polyline fill="none" opacity="100" points="106.0,132.0 106.0,146.0" stroke="#000" stroke-width="1" /><polyline fill="none" opacity="100" points="113.0,132.0 113.0,146.0" stroke="#000" stroke-width="1" /><polyline fill="none" opacity="100" points="120.0,132.0 120.0,146.0" stroke="#000" stroke-width="1" /><polyline fill="none" opacity="100" points="127.0,132.0 127.0,146.0" stroke="#000" stroke-width="1" /><polyline fill="none" opacity="100" points="134.0,132.0 134.0,146.0" stroke="#000" stroke-width="1" /><polyline fill="none" opacity="100" points="141.0,132.0 141.0,146.0" stroke="#000" stroke-width="1" /><polyline fill="none" opacity="100" points="148.0,132.0 148.0,146.0" stroke="#000" stroke-width="1" /><polyline fill="none" opacity="100" points="155.0,132.0 155.0,146.0" stroke="#000" stroke-width="1" /><polyline fill="none" opacity="100" points="162.0,132.0 162.0,146.0" stroke="#000" stroke-width="1" /><polyline fill="none" opacity="100" points="169.0,132.0 169.0,146.0" stroke="#000" stroke-width="1" /><polyline fill="none" opacity="100" points="176.0,132.0 176.0,146.0" stroke="#000" stroke-width="1" /><polyline fill="none" opacity="100" points="183.0,132.0 183.0,146.0" stroke="#000" stroke-width="1" /><polyline fill="none" opacity="100" points="190.0,132.0 190.0,146.0" stroke="#000" stroke-width="1" /><polyline fill="none" opacity="100" points="197.0,132.0 197.0,146.0" stroke="#000" stroke-width="1" /><polyline fill="none" opacity="100" points="204.0,132.0 204.0,146.0" stroke="#000" stroke-width="1" /><polyline fill="none" opacity="100" points="211.0,132.0 211.0,146.0" stroke="#000" stroke-width="1" /><polyline fill="none" opacity="100" points="218.0,132.0 218.0,146.0" stroke="#000" stroke-width="1" /><polyline fill="none" opacity="100" points="225.0,132.0 225.0,146.0" stroke="#000" stroke-width="1" /><polyline fill="none" opacity="100" points="232.0,132.0 232.0,146.0" stroke="#000" stroke-width="1" /><polyline fill="none" opacity="100" points="239.0,132.0 239.0,146.0" stroke="#000" stroke-width="1" /><polyline fill="none" opacity="100" points="246.0,132.0 246.0,146.0" stroke="#000" stroke-width="1" /><polyline fill="none" opacity="100" points="253.0,132.0 253.0,146.0" stroke="#000" stroke-width="1" /><polyline fill="none" opacity="100" points="260.0,132.0 260.0,146.0" stroke="#000" stroke-width="1" /><polyline fill="none" opacity="100" points="267.0,132.0 267.0,146.0" stroke="#000" stroke-width="1" /><polyline fill="none" opacity="100" points="274.0,132.0 274.0,146.0" stroke="#000" stroke-width="1" /><polyline fill="none" opacity="100" points="281.0,132.0 281.0,146.0" stroke="#000" stroke-width="1" /><polyline fill="none" opacity="100" points="288.0,132.0 288.0,146.0" stroke="#000" stroke-width="1" /><polyline fill="none" opacity="100" points="295.0,132.0 295.0,146.0" stroke="#000" stroke-width="1" /><polyline fill="none" opacity="100" points="302.0,132.0 302.0,146.0" stroke="#000" stroke-width="1" /><polyline fill="none" opacity="100" points="309.0,132.0 309.0,146.0" stroke="#000" stroke-width="1" /><polyline fill="none" opacity="100" points="316.0,132.0 316.0,146.0" stroke="#000" stroke-width="1" /><polyline fill="none" opacity="100" points="323.0,132.0 323.0,146.0" stroke="#000" stroke-width="1" /><polyline fill="none" opacity="100" points="330.0,132.0 330.0,146.0" stroke="#000" stroke-width="1" /><polyline fill="none" opacity="100" points="337.0,132.0 337.0,146.0" stroke="#000" stroke-width="1" /><polyline fill="none" opacity="100" points="344.0,132.0 344.0,146.0" stroke="#000" stroke-width="1" /><polyline fill="none" opacity="100" points="351.0,132.0 351.0,146.0" stroke="#000" stroke-width="1" /><polyline fill="none" opacity="100" points="358.0,132.0 358.0,146.0" stroke="#000" stroke-width="1" /><polyline fill="none" opacity="100" points="365.0,132.0 365.0,146.0" stroke="#000" stroke-width="1" /><polyline fill="none" opacity="100" points="372.0,132.0 372.0,146.0" stroke="#000" stroke-width="1" /><polyline fill="none" opacity="100" points="379.0,132.0 379.0,146.0" stroke="#000" stroke-width="1" /><polyline fill="none" opacity="100" points="386.0,132.0 386.0,146.0" stroke="#000" stroke-width="1" /><polyline fill="none" opacity="100" points="393.0,132.0 393.0,146.0" stroke="#000" stroke-width="1" /><polyline fill="none" opacity="100" points="400.0,132.0 400.0,146.0" stroke="#000" stroke-width="1" /><polyline fill="none" opacity="100" points="407.0,132.0 407.0,146.0" stroke="#000" stroke-width="1" /><polyline fill="none" opacity="100" points="414.0,132.0 414.0,146.0" stroke="#000" stroke-width="1" /><polyline fill="none" opacity="100" points="421.0,132.0 421.0,146.0" stroke="#000" stroke-width="1" /><polyline fill="none" opacity="100" points="428.0,132.0 428.0,146.0" stroke="#000" stroke-width="1" /><polyline fill="none" opacity="100" points="435.0,132.0 435.0,146.0" stroke="#000" stroke-width="1" /><polyline fill="none" opacity="100" points="442.0,132.0 442.0,146.0" stroke="#000" stroke-width="1" /><polyline fill="none" opacity="100" points="449.0,132.0 449.0,146.0" stroke="#000" stroke-width="1" /><polyline fill="none" opacity="100" points="456.0,132.0 456.0,146.0" stroke="#000" stroke-width="1" /><polyline fill="none" opacity="100" points="463.0,132.0 463.0,146.0" stroke="#000" stroke-width="1" /><polyline fill="none" opacity="100" points="470.0,132.0 470.0,146.0" stroke="#000" stroke-width="1" /><polyline fill="none" opacity="100" points="477.0,132.0 477.0,146.0" stroke="#000" stroke-width="1" /><polyline fill="none" opacity="100" points="484.0,132.0 484.0,146.0" stroke="#000" stroke-width="1" /><polyline fill="none" opacity="100" points="491.0,132.0 491.0,146.0" stroke="#000" stroke-width="1" /><polyline fill="none" opacity="100" points="498.0,132.0 498.0,146.0" stroke="#000" stroke-width="1" /><polyline fill="none" opacity="100" points="505.0,132.0 505.0,146.0" stroke="#000" stroke-width="1" /><polyline fill="none" opacity="100" points="460.0,416.0 444.0,416.0" stroke="#F00" stroke-width="1" /><polygon fill="#F00" opacity="100" points="448.6364,414.7577 444.0,416.0 448.6364,417.2423" stroke="#F00" stroke-width="1" /><polyline fill="none" opacity="100" points="413.0,368.0 430.0,368.0" stroke="#F00" stroke-width="1" /><polygon fill="#F00" opacity="100" points="425.0738,369.32 430.0,368.0 425.0738,366.68" stroke="#F00" stroke-width="1" /><polyline fill="none" opacity="100" points="411.0,373.0 411.0,389.0" stroke="#F00" stroke-width="1" /><polygon fill="#F00" opacity="100" points="409.7577,384.3636 411.0,389.0 412.2423,384.3636" stroke="#F00" stroke-width="1" /><polyline fill="none" opacity="100" points="45.0,373.0 45.0,389.0" stroke="#F00" stroke-width="1" /><polygon fill="#F00" opacity="100" points="43.7577,384.3636 45.0,389.0 46.2423,384.3636" stroke="#F00" stroke-width="1" /><polyline fill="none" opacity="100" points="44.0,367.0 26.0,367.0" stroke="#F00" stroke-width="1" /><polygon fill="#F00" opacity="100" points="31.216,365.6024 26.0,367.0 31.216,368.3976" stroke="#F00" stroke-width="1" /><polyline fill="none" opacity="100" points="-4.0,416.0 12.0,416.0" stroke="#F00" stroke-width="1" /><polygon fill="#F00" opacity="100" points="7.3636,417.2423 12.0,416.0 7.3636,414.7577" stroke="#F00" stroke-width="1" /><polyline fill="none" opacity="100" points="228.0,372.0 228.0,390.0" stroke="#F00" stroke-width="1" /><polygon fill="#F00" opacity="100" points="226.6024,384.784 228.0,390.0 229.3976,384.784" stroke="#F00" stroke-width="1" /><polyline fill="none" opacity="100" points="394.0,206.0 377.0,206.0" stroke="#008000" stroke-width="1" /><polygon fill="#008000" opacity="100" points="381.9262,204.68 377.0,206.0 381.9262,207.32" stroke="#008000" stroke-width="1" /><polyline fill="none" opacity="100" points="60.0,207.0 76.0,207.0" stroke="#008000" stroke-width="1" /><polygon fill="#008000" opacity="100" points="71.3636,208.2423 76.0,207.0 71.3636,205.7577" stroke="#008000" stroke-width="1" /><text fill="#000" font-family="Arial" font-size="20" font-weight="normal" opacity="100" transform="rotate(-0.0 -45.0,282.0) translate(0 20)" x="-45.0" y="282.0">&lt;&lt; Звездная</text><text fill="#000" font-family="Arial" font-size="20" font-weight="normal" opacity="100" transform="rotate(-0.0 427.0,308.0) translate(0 20)" x="427.0" y="308.0">тупик &gt;&gt;</text><text fill="#000" font-family="Arial" font-size="25" font-weight="bold" opacity="100" transform="rotate(-0.0 167.0,291.0) translate(0 25)" x="167.0" y="291.0">Купчино</text><text fill="#FF0" font-family="Arial" font-size="20" font-weight="normal" opacity="100" transform="rotate(-0.0 -44.0,283.0) translate(0 20)" x="-44.0" y="283.0">&lt;&lt; Звездная</text><text fill="#FF0" font-family="Arial" font-size="20" font-weight="normal" opacity="100" transform="rotate(-0.0 428.0,309.0) translate(0 20)" x="428.0" y="309.0">тупик &gt;&gt;</text><text fill="#FF0" font-family="Arial" font-size="25" font-weight="bold" opacity="100" transform="rotate(-0.0 169.0,293.0) translate(0 25)" x="169.0" y="293.0">Купчино</text><text fill="#00AFAF" font-family="Arial" font-size="15" font-weight="normal" opacity="100" transform="rotate(-0.0 198.0,496.0) translate(0 15)" x="198.0" y="496.0">Витебский проспект</text></g></g></svg>