<?xml version="1.0" encoding="utf-8" ?>
<svg baseProfile="tiny" height="1050px" version="1.2" width="1080px" xmlns="http://www.w3.org/2000/svg" xmlns:ev="http://www.w3.org/2001/xml-events" xmlns:xlink="http://www.w3.org/1999/xlink"><defs /><g><g transform="rotate(40.0,540.0,525.0)"><polygon fill="#EA7B16" opacity="100" points="482.0,524.0 482.0,510.0 1040.0,510.0 1040.0,524.0" stroke="#000" stroke-width="1" /><polygon fill="#EA7B16" opacity="100" points="482.0,642.0 482.0,656.0 1040.0,656.0 1040.0,642.0" stroke="#000" stroke-width="1" /><polyline fill="none" opacity="100" points="1040.0,524.0 1040.0,547.0 1013.0,547.0 1013.0,621.0 1040.0,621.0 1040.0,642.0" stroke="#000" stroke-width="1" /><polyline fill="none" opacity="100" points="482.0,524.0 482.0,546.0 435.0,546.0" stroke="#000" stroke-width="1" /><polyline fill="none" opacity="100" points="482.0,642.0 482.0,623.0 435.0,623.0" stroke="#000" stroke-width="1" /><polyline fill="none" opacity="100" points="435.0,546.0 435.0,623.0 200.0,623.0 200.0,546.0 435.0,546.0" stroke="#000" stroke-dasharray="5,5" stroke-width="1" /><polyline fill="none" opacity="100" points="93.0,509.0 87.0,509.0 87.0,491.0 103.0,491.0 103.0,474.0 256.0,474.0 256.0,491.0 273.0,491.0 273.0,677.0 256.0,677.0 256.0,694.0 103.0,694.0 103.0,677.0 87.0,677.0 87.0,661.0 92.0,661.0" stroke="#000" stroke-width="1" /><polyline fill="none" opacity="100" points="93.0,618.0 88.0,618.0 88.0,552.0 93.0,552.0" stroke="#000" stroke-width="1" /><polyline fill="none" opacity="100" points="211.0,546.0 198.0,533.0" stroke="#000" stroke-width="1" /><polyline fill="none" opacity="100" points="165.0,533.0 153.0,541.0" stroke="#000" stroke-width="1" /><polyline fill="none" opacity="100" points="138.0,562.0 135.0,574.0 135.0,595.0 138.0,607.0" stroke="#000" stroke-width="1" /><polyline fill="none" opacity="100" points="153.0,628.0 165.0,636.0" stroke="#000" stroke-width="1" /><polyline fill="none" opacity="100" points="198.0,636.0 211.0,623.0" stroke="#000" stroke-width="1" /><polyline fill="none" opacity="100" points="135.0,585.0 200.0,585.0" stroke="#000" stroke-width="1" /><polyline fill="none" opacity="100" points="198.0,533.0 165.0,533.0" stroke="#000" stroke-dasharray="5,5" stroke-width="1" /><polyline fill="none" opacity="100" points="153.0,541.0 138.0,562.0" stroke="#000" stroke-dasharray="5,5" stroke-width="1" /><polyline fill="none" opacity="100" points="138.0,607.0 153.0,628.0" stroke="#000" stroke-dasharray="5,5" stroke-width="1" /><polyline fill="none" opacity="100" points="165.0,636.0 198.0,636.0" stroke="#000" stroke-dasharray="5,5" stroke-width="1" /><polyline fill="none" opacity="100" points="1076.0,739.0 1076.0,352.0" stroke="#000" stroke-width="1" /><polyline fill="none" opacity="100" points="1066.0,739.0 1066.0,352.0" stroke="#000" stroke-width="1" /><polyline fill="none" opacity="100" points="1078.0,359.0 1064.0,359.0" stroke="#000" stroke-width="1" /><polyline fill="none" opacity="100" points="1078.0,366.0 1064.0,366.0" stroke="#000" stroke-width="1" /><polyline fill="none" opacity="100" points="1078.0,373.0 1064.0,373.0" stroke="#000" stroke-width="1" /><polyline fill="none" opacity="100" points="1078.0,380.0 1064.0,380.0" stroke="#000" stroke-width="1" /><polyline fill="none" opacity="100" points="1078.0,387.0 1064.0,387.0" stroke="#000" stroke-width="1" /><polyline fill="none" opacity="100" points="1078.0,394.0 1064.0,394.0" stroke="#000" stroke-width="1" /><polyline fill="none" opacity="100" points="1078.0,401.0 1064.0,401.0" stroke="#000" stroke-width="1" /><polyline fill="none" opacity="100" points="1078.0,408.0 1064.0,408.0" stroke="#000" stroke-width="1" /><polyline fill="none" opacity="100" points="1078.0,415.0 1064.0,415.0" stroke="#000" stroke-width="1" /><polyline fill="none" opacity="100" points="1078.0,422.0 1064.0,422.0" stroke="#000" stroke-width="1" /><polyline fill="none" opacity="100" points="1078.0,429.0 1064.0,429.0" stroke="#000" stroke-width="1" /><polyline fill="none" opacity="100" points="1078.0,436.0 1064.0,436.0" stroke="#000" stroke-width="1" /><polyline fill="none" opacity="100" points="1078.0,443.0 1064.0,443.0" stroke="#000" stroke-width="1" /><polyline fill="none" opacity="100" points="1078.0,450.0 1064.0,450.0" stroke="#000" stroke-width="1" /><polyline fill="none" opacity="100" points="1078.0,457.0 1064.0,457.0" stroke="#000" stroke-width="1" /><polyline fill="none" opacity="100" points="1078.0,464.0 1064.0,464.0" stroke="#000" stroke-width="1" /><polyline fill="none" opacity="100" points="1078.0,471.0 1064.0,471.0" stroke="#000" stroke-width="1" /><polyline fill="none" opacity="100" points="1078.0,478.0 1064.0,478.0" stroke="#000" stroke-width="1" /><polyline fill="none" opacity="100" points="1078.0,485.0 1064.0,485.0" stroke="#000" stroke-width="1" /><polyline fill="none" opacity="100" points="1078.0,492.0 1064.0,492.0" stroke="#000" stroke-width="1" /><polyline fill="none" opacity="100" points="1078.0,499.0 1064.0,499.0" stroke="#000" stroke-width="1" /><polyline fill="none" opacity="100" points="1078.0,506.0 1064.0,506.0" stroke="#000" stroke-width="1" /><polyline fill="none" opacity="100" points="1078.0,513.0 1064.0,513.0" stroke="#000" stroke-width="1" /><polyline fill="none" opacity="100" points="1078.0,520.0 1064.0,520.0" stroke="#000" stroke-width="1" /><polyline fill="none" opacity="100" points="1078.0,527.0 1064.0,527.0" stroke="#000" stroke-width="1" /><polyline fill="none" opacity="100" points="1078.0,534.0 1064.0,534.0" stroke="#000" stroke-width="1" /><polyline fill="none" opacity="100" points="1078.0,541.0 1064.0,541.0" stroke="#000" stroke-width="1" /><polyline fill="none" opacity="100" points="1078.0,548.0 1064.0,548.0" stroke="#000" stroke-width="1" /><polyline fill="none" opacity="100" points="1078.0,555.0 1064.0,555.0" stroke="#000" stroke-width="1" /><polyline fill="none" opacity="100" points="1078.0,562.0 1064.0,562.0" stroke="#000" stroke-width="1" /><polyline fill="none" opacity="100" points="1078.0,569.0 1064.0,569.0" stroke="#000" stroke-width="1" /><polyline fill="none" opacity="100" points="1078.0,576.0 1064.0,576.0" stroke="#000" stroke-width="1" /><polyline fill="none" opacity="100" points="1078.0,583.0 1064.0,583.0" stroke="#000" stroke-width="1" /><polyline fill="none" opacity="100" points="1078.0,590.0 1064.0,590.0" stroke="#000" stroke-width="1" /><polyline fill="none" opacity="100" points="1078.0,597.0 1064.0,597.0" stroke="#000" stroke-width="1" /><polyline fill="none" opacity="100" points="1078.0,604.0 1064.0,604.0" stroke="#000" stroke-width="1" /><polyline fill="none" opacity="100" points="1078.0,611.0 1064.0,611.0" stroke="#000" stroke-width="1" /><polyline fill="none" opacity="100" points="1078.0,618.0 1064.0,618.0" stroke="#000" stroke-width="1" /><polyline fill="none" opacity="100" points="1078.0,625.0 1064.0,625.0" stroke="#000" stroke-width="1" /><polyline fill="none" opacity="100" points="1078.0,632.0 1064.0,632.0" stroke="#000" stroke-width="1" /><polyline fill="none" opacity="100" points="1078.0,639.0 1064.0,639.0" stroke="#000" stroke-width="1" /><polyline fill="none" opacity="100" points="1078.0,646.0 1064.0,646.0" stroke="#000" stroke-width="1" /><polyline fill="none" opacity="100" points="1078.0,653.0 1064.0,653.0" stroke="#000" stroke-width="1" /><polyline fill="none" opacity="100" points="1078.0,660.0 1064.0,660.0" stroke="#000" stroke-width="1" /><polyline fill="none" opacity="100" points="1078.0,667.0 1064.0,667.0" stroke="#000" stroke-width="1" /><polyline fill="none" opacity="100" points="1078.0,674.0 1064.0,674.0" stroke="#000" stroke-width="1" /><polyline fill="none" opacity="100" points="1078.0,681.0 1064.0,681.0" stroke="#000" stroke-width="1" /><polyline fill="none" opacity="100" points="1078.0,688.0 1064.0,688.0" stroke="#000" stroke-width="1" /><polyline fill="none" opacity="100" points="1078.0,695.0 1064.0,695.0" stroke="#000" stroke-width="1" /><polyline fill="none" opacity="100" points="1078.0,702.0 1064.0,702.0" stroke="#000" stroke-width="1" /><polyline fill="none" opacity="100" points="1078.0,709.0 1064.0,709.0" stroke="#000" stroke-width="1" /><polyline fill="none" opacity="100" points="1078.0,716.0 1064.0,716.0" stroke="#000" stroke-width="1" /><polyline fill="none" opacity="100" points="1078.0,723.0 1064.0,723.0" stroke="#000" stroke-width="1" /><polyline fill="none" opacity="100" points="1078.0,730.0 1064.0,730.0" stroke="#000" stroke-width="1" /><polyline fill="none" opacity="100" points="1078.0,737.0 1064.0,737.0" stroke="#000" stroke-width="1" /><polyline fill="none" opacity="100" points="1106.0,713.0 1106.0,379.0" stroke="#000" stroke-width="1" /><polyline fill="none" opacity="100" points="1096.0,713.0 1096.0,379.0" stroke="#000" stroke-width="1" /><polyline fill="none" opacity="100" points="1108.0,386.0 1094.0,386.0" stroke="#000" stroke-width="1" /><polyline fill="none" opacity="100" points="1108.0,393.0 1094.0,393.0" stroke="#000" stroke-width="1" /><polyline fill="none" opacity="100" points="1108.0,400.0 1094.0,400.0" stroke="#000" stroke-width="1" /><polyline fill="none" opacity="100" points="1108.0,407.0 1094.0,407.0" stroke="#000" stroke-width="1" /><polyline fill="none" opacity="100" points="1108.0,414.0 1094.0,414.0" stroke="#000" stroke-width="1" /><polyline fill="none" opacity="100" points="1108.0,421.0 1094.0,421.0" stroke="#000" stroke-width="1" /><polyline fill="none" opacity="100" points="1108.0,428.0 1094.0,428.0" stroke="#000" stroke-width="1" /><polyline fill="none" opacity="100" points="1108.0,435.0 1094.0,435.0" stroke="#000" stroke-width="1" /><polyline fill="none" opacity="100" points="1108.0,442.0 1094.0,442.0" stroke="#000" stroke-width="1" /><polyline fill="none" opacity="100" points="1108.0,449.0 1094.0,449.0" stroke="#000" stroke-width="1" /><polyline fill="none" opacity="100" points="1108.0,456.0 1094.0,456.0" stroke="#000" stroke-width="1" /><polyline fill="none" opacity="100" points="1108.0,463.0 1094.0,463.0" stroke="#000" stroke-width="1" /><polyline fill="none" opacity="100" points="1108.0,470.0 1094.0,470.0" stroke="#000" stroke-width="1" /><polyline fill="none" opacity="100" points="1108.0,477.0 1094.0,477.0" stroke="#000" stroke-width="1" /><polyline fill="none" opacity="100" points="1108.0,484.0 1094.0,484.0" stroke="#000" stroke-width="1" /><polyline fill="none" opacity="100" points="1108.0,491.0 1094.0,491.0" stroke="#000" stroke-width="1" /><polyline fill="none" opacity="100" points="1108.0,498.0 1094.0,498.0" stroke="#000" stroke-width="1" /><polyline fill="none" opacity="100" points="1108.0,505.0 1094.0,505.0" stroke="#000" stroke-width="1" /><polyline fill="none" opacity="100" points="1108.0,512.0 1094.0,512.0" stroke="#000" stroke-width="1" /><polyline fill="none" opacity="100" points="1108.0,519.0 1094.0,519.0" stroke="#000" stroke-width="1" /><polyline fill="none" opacity="100" points="1108.0,526.0 1094.0,526.0" stroke="#000" stroke-width="1" /><polyline fill="none" opacity="100" points="1108.0,533.0 1094.0,533.0" stroke="#000" stroke-width="1" /><polyline fill="none" opacity="100" points="1108.0,540.0 1094.0,540.0" stroke="#000" stroke-width="1" /><polyline fill="none" opacity="100" points="1108.0,547.0 1094.0,547.0" stroke="#000" stroke-width="1" /><polyline fill="none" opacity="100" points="1108.0,554.0 1094.0,554.0" stroke="#000" stroke-width="1" /><polyline fill="none" opacity="100" points="1108.0,561.0 1094.0,561.0" stroke="#000" stroke-width="1" /><polyline fill="none" opacity="100" points="1108.0,568.0 1094.0,568.0" stroke="#000" stroke-width="1" /><polyline fill="none" opacity="100" points="1108.0,575.0 1094.0,575.0" stroke="#000" stroke-width="1" /><polyline fill="none" opacity="100" points="1108.0,582.0 1094.0,582.0" stroke="#000" stroke-width="1" /><polyline fill="none" opacity="100" points="1108.0,589.0 1094.0,589.0" stroke="#000" stroke-width="1" /><polyline fill="none" opacity="100" points="1108.0,596.0 1094.0,596.0" stroke="#000" stroke-width="1" /><polyline fill="none" opacity="100" points="1108.0,603.0 1094.0,603.0" stroke="#000" stroke-width="1" /><polyline fill="none" opacity="100" points="1108.0,610.0 1094.0,610.0" stroke="#000" stroke-width="1" /><polyline fill="none" opacity="100" points="1108.0,617.0 1094.0,617.0" stroke="#000" stroke-width="1" /><polyline fill="none" opacity="100" points="1108.0,624.0 1094.0,624.0" stroke="#000" stroke-width="1" /><polyline fill="none" opacity="100" points="1108.0,631.0 1094.0,631.0" stroke="#000" stroke-width="1" /><polyline fill="none" opacity="100" points="1108.0,638.0 1094.0,638.0" stroke="#000" stroke-width="1" /><polyline fill="none" opacity="100" points="1108.0,645.0 1094.0,645.0" stroke="#000" stroke-width="1" /><polyline fill="none" opacity="100" points="1108.0,652.0 1094.0,652.0" stroke="#000" stroke-width="1" /><polyline fill="none" opacity="100" points="1108.0,659.0 1094.0,659.0" stroke="#000" stroke-width="1" /><polyline fill="none" opacity="100" points="1108.0,666.0 1094.0,666.0" stroke="#000" stroke-width="1" /><polyline fill="none" opacity="100" points="1108.0,673.0 1094.0,673.0" stroke="#000" stroke-width="1" /><polyline fill="none" opacity="100" points="1108.0,680.0 1094.0,680.0" stroke="#000" stroke-width="1" /><polyline fill="none" opacity="100" points="1108.0,687.0 1094.0,687.0" stroke="#000" stroke-width="1" /><polyline fill="none" opacity="100" points="1108.0,694.0 1094.0,694.0" stroke="#000" stroke-width="1" /><polyline fill="none" opacity="100" points="1108.0,701.0 1094.0,701.0" stroke="#000" stroke-width="1" /><polyline fill="none" opacity="100" points="1108.0,708.0 1094.0,708.0" stroke="#000" stroke-width="1" /><polyline fill="none" opacity="100" points="84.0,637.0 71.0,637.0" stroke="#F00" stroke-width="1" /><polygon fill="#F00" opacity="100" points="74.7671,635.9906 71.0,637.0 74.7671,638.0094" stroke="#F00" stroke-width="1" /><polyline fill="none" opacity="100" points="71.0,530.0 84.0,530.0" stroke="#008000" stroke-width="1" /><polygon fill="#008000" opacity="100" points="80.2329,531.0094 84.0,530.0 80.2329,528.9906" stroke="#008000" stroke-width="1" /><text fill="#EA7B16" font-family="Arial" font-size="20" font-weight="normal" opacity="100" transform="rotate(-0.0 488.0,486.0) translate(0 20)" x="488.0" y="486.0">&lt;&lt; Новочеркасская</text><text fill="#EA7B16" font-family="Arial" font-size="20" font-weight="normal" opacity="100" transform="rotate(-0.0 861.0,655.0) translate(0 20)" x="861.0" y="655.0">пр.Большевиков &gt;&gt;</text><text fill="#EA7B16" font-family="Arial" font-size="25" font-weight="bold" opacity="100" transform="rotate(-0.0 713.0,569.0) translate(0 25)" x="713.0" y="569.0">Ладожская</text><text fill="#00AFAF" font-family="Arial" font-size="15" font-weight="normal" opacity="100" transform="rotate(-70.0 -150.0,511.0) translate(0 15)" x="-150.0" y="511.0">Заневский проспект</text></g></g></svg>