<?xml version="1.0" encoding="utf-8" ?>
<svg baseProfile="tiny" height="640px" version="1.2" width="1050px" xmlns="http://www.w3.org/2000/svg" xmlns:ev="http://www.w3.org/2001/xml-events" xmlns:xlink="http://www.w3.org/1999/xlink"><defs /><g><g transform="rotate(10.0,525.0,320.0)"><polygon fill="#EA7B16" opacity="100" points="378.0,67.0 378.0,52.0 981.0,52.0 981.0,67.0" stroke="none" stroke-width="1" /><polygon fill="#EA7B16" opacity="100" points="378.0,165.0 981.0,165.0 981.0,179.0 378.0,179.0" stroke="none" stroke-width="1" /><polyline fill="none" opacity="100" points="981.0,67.0 981.0,82.0 941.0,82.0 941.0,86.0 938.0,86.0 938.0,147.0 941.0,147.0 941.0,151.0 981.0,151.0 981.0,165.0" stroke="none" stroke-width="1" /><polyline fill="none" opacity="100" points="378.0,67.0 378.0,73.0" stroke="none" stroke-width="1" /><polyline fill="none" opacity="100" points="378.0,165.0 378.0,158.0" stroke="none" stroke-width="1" /><polygon fill="#FFF" opacity="100" points="301.0,347.0 307.0,330.0 315.0,333.0 309.0,350.0" stroke="none" stroke-width="1" /><polygon fill="#FFF" opacity="100" points="250.0,554.0 256.0,544.0 270.0,552.0 264.0,562.0" stroke="none" stroke-width="1" /><polyline fill="none" opacity="100" points="327.0,357.0 335.0,333.0 329.0,331.0 345.0,285.0 348.0,158.0 410.0,158.0" stroke="none" stroke-width="1" /><polyline fill="none" opacity="100" points="412.0,73.0 342.0,73.0 342.0,69.0 295.0,69.0 295.0,72.0 284.0,72.0 284.0,181.0 289.0,181.0 290.0,272.0 275.0,312.0 277.0,313.0 272.0,328.0 270.0,327.0 267.0,335.0" stroke="none" stroke-width="1" /><polyline fill="none" opacity="100" points="119.0,519.0 160.0,543.0 118.0,616.0 212.0,671.0 325.0,475.0 205.0,406.0 179.0,451.0 164.0,442.0 152.0,462.0 158.0,466.0 153.0,475.0 147.0,471.0 119.0,519.0" stroke="none" stroke-width="1" /><polyline fill="none" opacity="100" points="141.0,471.0 120.0,507.0" stroke="none" stroke-dasharray="5,5" stroke-width="1" /><polyline fill="none" opacity="100" points="151.0,550.0 127.0,592.0" stroke="none" stroke-dasharray="5,5" stroke-width="1" /><polyline fill="none" opacity="100" points="386.0,73.0 386.0,158.0" stroke="none" stroke-width="1" /><polyline fill="none" opacity="100" points="390.0,73.0 390.0,158.0" stroke="none" stroke-width="1" /><polyline fill="none" opacity="100" points="394.0,73.0 394.0,158.0" stroke="none" stroke-width="1" /><polyline fill="none" opacity="100" points="398.0,73.0 398.0,158.0" stroke="none" stroke-width="1" /><polyline fill="none" opacity="100" points="402.0,73.0 402.0,158.0" stroke="none" stroke-width="1" /><polyline fill="none" opacity="100" points="406.0,73.0 406.0,158.0" stroke="none" stroke-width="1" /><polyline fill="none" opacity="100" points="410.0,73.0 410.0,158.0" stroke="none" stroke-width="1" /><polyline fill="none" opacity="100" points="351.0,73.0 351.0,158.0" stroke="none" stroke-width="1" /><polyline fill="none" opacity="100" points="355.0,73.0 355.0,158.0" stroke="none" stroke-width="1" /><polyline fill="none" opacity="100" points="359.0,73.0 359.0,158.0" stroke="none" stroke-width="1" /><polyline fill="none" opacity="100" points="363.0,73.0 363.0,158.0" stroke="none" stroke-width="1" /><polyline fill="none" opacity="100" points="367.0,73.0 367.0,158.0" stroke="none" stroke-width="1" /><polyline fill="none" opacity="100" points="371.0,73.0 371.0,158.0" stroke="none" stroke-width="1" /><polyline fill="none" opacity="100" points="375.0,73.0 375.0,158.0" stroke="none" stroke-width="1" /><polygon fill="#7F7F7F" opacity="100" points="196.0,578.0 202.0,567.0 210.0,572.0 204.0,583.0" stroke="none" stroke-width="1" /><polyline fill="none" opacity="100" points="160.0,543.0 202.0,567.0" stroke="none" stroke-width="1" /><polyline fill="none" opacity="100" points="157.88,546.392 199.88,570.392" stroke="none" stroke-width="1" /><polyline fill="none" opacity="100" points="155.76,549.784 197.76,573.784" stroke="none" stroke-width="1" /><polyline fill="none" opacity="100" points="210.0,572.0 272.0,567.0" stroke="none" stroke-width="1" /><polyline fill="none" opacity="100" points="208.0846,575.5116 270.0846,570.5116" stroke="none" stroke-width="1" /><polyline fill="none" opacity="100" points="206.1692,579.0232 268.1692,574.0232" stroke="none" stroke-width="1" /><polyline fill="none" opacity="100" points="204.2538,582.5347 266.2538,577.5347" stroke="none" stroke-width="1" /><polyline fill="none" opacity="100" points="153.0,475.0 155.0,551.0" stroke="none" stroke-width="1" /><polyline fill="none" opacity="100" points="154.9426,471.5034 156.9426,547.5034" stroke="none" stroke-width="1" /><polyline fill="none" opacity="100" points="156.8851,468.0067 158.8851,544.0067" stroke="none" stroke-width="1" /><polyline fill="none" opacity="100" points="234.0,547.0 240.0,537.0" stroke="#7F7F7F" stroke-width="2" /><polyline fill="none" opacity="100" points="226.0,543.0 232.0,533.0" stroke="#7F7F7F" stroke-width="2" /><polyline fill="none" opacity="100" points="218.0,539.0 224.0,529.0" stroke="#7F7F7F" stroke-width="2" /><polyline fill="none" opacity="100" points="210.0,535.0 216.0,525.0" stroke="#7F7F7F" stroke-width="2" /><polyline fill="none" opacity="100" points="203.0,532.0 209.0,522.0" stroke="#7F7F7F" stroke-width="2" /><polyline fill="none" opacity="100" points="242.0,551.0 248.0,541.0" stroke="#7F7F7F" stroke-width="2" /><polyline fill="none" opacity="100" points="228.0,494.0 209.0,522.0 160.0,543.0" stroke="#7F7F7F" stroke-width="1" /><polygon fill="#7F7F7F" opacity="100" points="211.0,488.0 267.0,335.0 275.0,338.0 218.0,491.0" stroke="#7F7F7F" stroke-width="1" /><polygon fill="#7F7F7F" opacity="100" points="228.0,494.0 283.0,341.0 291.0,344.0 236.0,497.0" stroke="#7F7F7F" stroke-width="1" /><polygon fill="#7F7F7F" opacity="100" points="246.0,501.0 301.0,347.0 309.0,350.0 254.0,504.0" stroke="#7F7F7F" stroke-width="1" /><polygon fill="#7F7F7F" opacity="100" points="264.0,508.0 319.0,354.0 327.0,357.0 271.0,510.0" stroke="#7F7F7F" stroke-width="1" /><polyline fill="none" opacity="100" points="211.0,488.0 271.0,510.0" stroke="#7F7F7F" stroke-width="1" /><polyline fill="none" opacity="100" points="212.3749,484.2437 272.3749,506.2437" stroke="#7F7F7F" stroke-width="1" /><polyline fill="none" opacity="100" points="213.7497,480.4874 273.7497,502.4874" stroke="#7F7F7F" stroke-width="1" /><polyline fill="none" opacity="100" points="215.1246,476.7311 275.1246,498.7311" stroke="#7F7F7F" stroke-width="1" /><polyline fill="none" opacity="100" points="216.4994,472.9748 276.4994,494.9748" stroke="#7F7F7F" stroke-width="1" /><polyline fill="none" opacity="100" points="217.8743,469.2185 277.8743,491.2185" stroke="#7F7F7F" stroke-width="1" /><polyline fill="none" opacity="100" points="219.2491,465.4622 279.2491,487.4622" stroke="#7F7F7F" stroke-width="1" /><polyline fill="none" opacity="100" points="220.624,461.7059 280.624,483.7059" stroke="#7F7F7F" stroke-width="1" /><polyline fill="none" opacity="100" points="221.9988,457.9496 281.9988,479.9496" stroke="#7F7F7F" stroke-width="1" /><polyline fill="none" opacity="100" points="223.3737,454.1933 283.3737,476.1933" stroke="#7F7F7F" stroke-width="1" /><polyline fill="none" opacity="100" points="224.7485,450.437 284.7485,472.437" stroke="#7F7F7F" stroke-width="1" /><polyline fill="none" opacity="100" points="226.1234,446.6807 286.1234,468.6807" stroke="#7F7F7F" stroke-width="1" /><polyline fill="none" opacity="100" points="227.4983,442.9244 287.4983,464.9244" stroke="#7F7F7F" stroke-width="1" /><polyline fill="none" opacity="100" points="228.8731,439.1681 288.8731,461.1681" stroke="#7F7F7F" stroke-width="1" /><polyline fill="none" opacity="100" points="230.248,435.4118 290.248,457.4118" stroke="#7F7F7F" stroke-width="1" /><polyline fill="none" opacity="100" points="231.6228,431.6555 291.6228,453.6555" stroke="#7F7F7F" stroke-width="1" /><polyline fill="none" opacity="100" points="232.9977,427.8992 292.9977,449.8992" stroke="#7F7F7F" stroke-width="1" /><polyline fill="none" opacity="100" points="234.3725,424.1429 294.3725,446.1429" stroke="#7F7F7F" stroke-width="1" /><polyline fill="none" opacity="100" points="235.7474,420.3866 295.7474,442.3866" stroke="#7F7F7F" stroke-width="1" /><polyline fill="none" opacity="100" points="237.1222,416.6303 297.1222,438.6303" stroke="#7F7F7F" stroke-width="1" /><polyline fill="none" opacity="100" points="238.4971,412.874 298.4971,434.874" stroke="#7F7F7F" stroke-width="1" /><polyline fill="none" opacity="100" points="239.8719,409.1177 299.8719,431.1177" stroke="#7F7F7F" stroke-width="1" /><polyline fill="none" opacity="100" points="241.2468,405.3614 301.2468,427.3614" stroke="#7F7F7F" stroke-width="1" /><polyline fill="none" opacity="100" points="242.6216,401.6051 302.6216,423.6051" stroke="#7F7F7F" stroke-width="1" /><polyline fill="none" opacity="100" points="243.9965,397.8488 303.9965,419.8488" stroke="#7F7F7F" stroke-width="1" /><polyline fill="none" opacity="100" points="245.3714,394.0925 305.3714,416.0925" stroke="#7F7F7F" stroke-width="1" /><polyline fill="none" opacity="100" points="246.7462,390.3362 306.7462,412.3362" stroke="#7F7F7F" stroke-width="1" /><polyline fill="none" opacity="100" points="248.1211,386.5799 308.1211,408.5799" stroke="#7F7F7F" stroke-width="1" /><polyline fill="none" opacity="100" points="249.4959,382.8237 309.4959,404.8237" stroke="#7F7F7F" stroke-width="1" /><polyline fill="none" opacity="100" points="250.8708,379.0674 310.8708,401.0674" stroke="#7F7F7F" stroke-width="1" /><polyline fill="none" opacity="100" points="252.2456,375.3111 312.2456,397.3111" stroke="#7F7F7F" stroke-width="1" /><polyline fill="none" opacity="100" points="253.6205,371.5548 313.6205,393.5548" stroke="#7F7F7F" stroke-width="1" /><polyline fill="none" opacity="100" points="254.9953,367.7985 314.9953,389.7985" stroke="#7F7F7F" stroke-width="1" /><polyline fill="none" opacity="100" points="256.3702,364.0422 316.3702,386.0422" stroke="#7F7F7F" stroke-width="1" /><polyline fill="none" opacity="100" points="257.745,360.2859 317.745,382.2859" stroke="#7F7F7F" stroke-width="1" /><polyline fill="none" opacity="100" points="259.1199,356.5296 319.1199,378.5296" stroke="#7F7F7F" stroke-width="1" /><polyline fill="none" opacity="100" points="260.4948,352.7733 320.4948,374.7733" stroke="#7F7F7F" stroke-width="1" /><polyline fill="none" opacity="100" points="261.8696,349.017 321.8696,371.017" stroke="#7F7F7F" stroke-width="1" /><polyline fill="none" opacity="100" points="263.2445,345.2607 323.2445,367.2607" stroke="#7F7F7F" stroke-width="1" /><polyline fill="none" opacity="100" points="264.6193,341.5044 324.6193,363.5044" stroke="#7F7F7F" stroke-width="1" /><polyline fill="none" opacity="100" points="265.9942,337.7481 325.9942,359.7481" stroke="#7F7F7F" stroke-width="1" /><polyline fill="none" opacity="100" points="211.0,488.0 267.0,335.0" stroke="#000" stroke-dasharray="5,5" stroke-width="1" /><polyline fill="none" opacity="100" points="327.0,357.0 271.0,510.0" stroke="#000" stroke-dasharray="5,5" stroke-width="1" /><polyline fill="none" opacity="100" points="211.0,488.0 271.0,510.0" stroke="#000" stroke-width="1" /><polyline fill="none" opacity="100" points="267.0,335.0 327.0,357.0" stroke="#000" stroke-width="1" /><polyline fill="none" opacity="100" points="281.0,482.0 279.8281,473.5938 278.3125,466.125 276.4531,459.5938 274.25,454.0 271.7031,449.3438 268.8125,445.625 265.5781,442.8438 262.0,441.0 258.0781,440.0938 253.8125,440.125 249.2031,441.0938 244.25,443.0 238.9531,445.8438 233.3125,449.625 227.3281,454.3438 221.0,460.0" stroke="#000" stroke-width="1" /><polyline fill="none" opacity="100" points="267.0,335.0 269.1094,342.2344 271.4375,348.6875 273.9844,354.3594 276.75,359.25 279.7344,363.3594 282.9375,366.6875 286.3594,369.2344 290.0,371.0 293.8594,371.9844 297.9375,372.1875 302.2344,371.6094 306.75,370.25 311.4844,368.1094 316.4375,365.1875 321.6094,361.4844 327.0,357.0" stroke="#000" stroke-width="1" /><polyline fill="none" opacity="100" points="126.0,489.0 112.0,481.0" stroke="#F00" stroke-width="2" /><polygon fill="#F00" opacity="100" points="116.6781,482.2312 112.0,481.0 115.4357,484.4053" stroke="#F00" stroke-width="2" /><polyline fill="none" opacity="100" points="119.0,556.0 132.0,564.0" stroke="#090" stroke-width="2" /><polygon fill="#090" opacity="100" points="127.6117,562.6912 132.0,564.0 128.8541,560.6724" stroke="#090" stroke-width="2" /><text fill="#A85F2A" font-family="Arial" font-size="36" font-weight="bold" opacity="100" transform="rotate(-0.0 537.0,99.0) translate(0 36)" x="537.0" y="99.0">Лиговский Проспект</text><text fill="#EA7B16" font-family="Arial" font-size="18" font-weight="bold" opacity="100" transform="rotate(-0.0 376.0,31.0) translate(0 18)" x="376.0" y="31.0">&lt;&lt; Достоевская</text><text fill="#EA7B16" font-family="Arial" font-size="18" font-weight="bold" opacity="100" transform="rotate(-0.0 702.0,181.0) translate(0 18)" x="702.0" y="181.0">Площадь Александра Невского &gt;&gt;</text><text fill="#EA7B16" font-family="Arial" font-size="36" font-weight="bold" opacity="100" transform="rotate(-0.0 536.0,97.0) translate(0 36)" x="536.0" y="97.0">Лиговский Проспект</text><text fill="#00AFAF" font-family="Arial" font-size="16" font-weight="normal" opacity="100" transform="rotate(-0.0 75.0,368.0) translate(0 16)" x="75.0" y="368.0">Транспортный переулок</text><text fill="#00AFAF" font-family="Arial" font-size="18" font-weight="normal" opacity="100" transform="rotate(-90.0 57.0,597.0) translate(0 18)" x="57.0" y="597.0">Лиговский  проспект</text></g></g></svg>