<?xml version="1.0" encoding="utf-8" ?>
<svg baseProfile="tiny" height="920px" version="1.2" width="740px" xmlns="http://www.w3.org/2000/svg" xmlns:ev="http://www.w3.org/2001/xml-events" xmlns:xlink="http://www.w3.org/1999/xlink"><defs /><g><g transform="rotate(60.0,370.0,460.0)"><polygon fill="#00873A" opacity="100" points="-128.0,446.0 -128.0,432.0 430.0,432.0 430.0,446.0" stroke="#000" stroke-width="1" /><polygon fill="#00873A" opacity="100" points="-128.0,564.0 -128.0,578.0 430.0,578.0 430.0,564.0" stroke="#000" stroke-width="1" /><polyline fill="none" opacity="100" points="501.0,472.0 434.0,472.0 434.0,458.0 -125.0,458.0 -125.0,475.0 -133.0,483.0 -133.0,529.0 -125.0,537.0 -125.0,554.0 434.0,554.0 434.0,541.0 501.0,541.0" stroke="#000" stroke-width="1" /><polyline fill="none" opacity="100" points="678.0,472.0 501.0,472.0 501.0,541.0 678.0,541.0 678.0,472.0" stroke="#000" stroke-dasharray="5,5" stroke-width="1" /><polyline fill="none" opacity="100" points="668.0,471.0 669.9922,468.0078 672.0938,465.1562 674.3047,462.4453 676.625,459.875 679.0547,457.4453 681.5938,455.1562 684.2422,453.0078 687.0,451.0 689.8672,449.1328 692.8438,447.4062 695.9297,445.8203 699.125,444.375 702.4297,443.0703 705.8438,441.9062 709.3672,440.8828 713.0,440.0" stroke="#000" stroke-width="1" /><polyline fill="none" opacity="100" points="713.0,440.0 713.0,410.0 656.0,410.0 656.0,353.0 703.0,353.0 703.0,345.0" stroke="#000" stroke-width="1" /><polyline fill="none" opacity="100" points="748.0,344.0 748.0,353.0 797.0,353.0 797.0,410.0 739.0,410.0 739.0,441.0" stroke="#000" stroke-width="1" /><polyline fill="none" opacity="100" points="739.0,441.0 742.6172,442.0469 746.0938,443.1875 749.4287,444.4219 752.625,445.75 755.6885,447.1719 758.6094,448.6875 761.3848,450.2969 764.0,452.0 766.4277,453.7969 768.7031,455.6875 770.8496,457.6719 772.875,459.75 774.791,461.9219 776.6094,464.1875 778.3379,466.5469 780.0,469.0 781.6309,471.5469 783.2031,474.1875 784.7021,476.9219 786.125,479.75 787.4619,482.6719 788.7188,485.6875 789.8984,488.7969 791.0,492.0" stroke="#000" stroke-width="1" /><polyline fill="none" opacity="100" points="791.0,492.0 821.0,492.0 821.0,488.0 850.0,488.0" stroke="#000" stroke-width="1" /><polyline fill="none" opacity="100" points="850.0,523.0 822.0,523.0 822.0,519.0 791.0,519.0" stroke="#000" stroke-width="1" /><polyline fill="none" opacity="100" points="791.0,519.0 789.7969,523.1719 788.4375,527.1875 786.9204,531.0476 785.25,534.75 783.4351,538.2903 781.4609,541.6758 779.3232,544.9087 777.0,548.0 774.4502,550.9702 771.7266,553.793 768.8621,556.45 765.875,558.9375 762.7961,561.2512 759.6211,563.375 756.355,565.3008 753.0,567.0 749.5474,568.4258 746.0352,569.625 742.4944,570.6255 738.9375,571.4375 735.3748,572.0815 731.8438,572.5547 728.3672,572.8584 725.0,573.0 721.8281,572.9854 718.7812,572.8203 715.8206,572.5112 712.9375,572.0625 710.1072,571.4771 707.3398,570.7656 704.6401,569.9355 702.0,569.0 699.4106,567.9785 696.8789,566.8594 694.4084,565.6375 692.0,564.3125 689.656,562.8801 687.375,561.3477 685.1562,559.7192 683.0,558.0 680.9062,556.1987 678.875,554.3086 676.9062,552.3259 675.0,550.25 673.1562,548.0784 671.375,545.8125 669.6562,543.4531 668.0,541.0" stroke="#000" stroke-width="1" /><polyline fill="none" opacity="100" points="790.0,488.0 678.0,507.0" stroke="#000" stroke-width="1" /><polyline fill="none" opacity="100" points="704.0,442.0 757.0,494.0" stroke="#000" stroke-dasharray="5,5" stroke-width="1" /><polyline fill="none" opacity="100" points="821.0,505.0 838.0,505.0" stroke="#F00" stroke-width="1" /><polygon fill="#F00" opacity="100" points="833.0738,506.32 838.0,505.0 833.0738,503.68" stroke="#F00" stroke-width="1" /><polyline fill="none" opacity="100" points="726.0,414.0 726.0,433.0" stroke="#008000" stroke-width="1" /><polygon fill="#008000" opacity="100" points="724.5247,427.4942 726.0,433.0 727.4753,427.4942" stroke="#008000" stroke-width="1" /><text fill="#00873A" font-family="Arial" font-size="20" font-weight="normal" opacity="100" transform="rotate(-0.0 -123.0,404.0) translate(0 20)" x="-123.0" y="404.0">&lt;&lt; Елизаровская</text><text fill="#00873A" font-family="Arial" font-size="20" font-weight="normal" opacity="100" transform="rotate(-0.0 279.0,578.0) translate(0 20)" x="279.0" y="578.0">Пролетарская &gt;&gt;</text><text fill="#00873A" font-family="Arial" font-size="25" font-weight="bold" opacity="100" transform="rotate(-0.0 79.0,489.0) translate(0 25)" x="79.0" y="489.0">Ломоносовская</text><text fill="#00AFAF" font-family="Arial" font-size="15" font-weight="normal" opacity="100" transform="rotate(-0.0 648.0,278.0) translate(0 15)" x="648.0" y="278.0">улица Бабушкина</text></g></g></svg>