<?xml version="1.0" encoding="utf-8" ?>
<svg baseProfile="tiny" height="880px" version="1.2" width="540px" xmlns="http://www.w3.org/2000/svg" xmlns:ev="http://www.w3.org/2001/xml-events" xmlns:xlink="http://www.w3.org/1999/xlink"><defs /><g><g transform="rotate(-80.0,270.0,440.0)"><polygon fill="#DC004B" opacity="100" points="715.0,589.0 715.0,603.0 238.0,603.0 238.0,589.0" stroke="#000" stroke-width="1" /><polygon fill="#DC004B" opacity="100" points="715.0,510.0 715.0,496.0 238.0,496.0 238.0,510.0" stroke="#000" stroke-width="1" /><polyline fill="none" opacity="100" points="684.0,589.0 684.0,510.0" stroke="#000" stroke-width="1" /><polyline fill="none" opacity="100" points="253.0,589.0 253.0,575.0 214.0,575.0" stroke="#000" stroke-width="1" /><polyline fill="none" opacity="100" points="253.0,510.0 253.0,524.0 214.0,524.0" stroke="#000" stroke-width="1" /><polyline fill="none" opacity="100" points="214.0,524.0 214.0,575.0 65.0,575.0 65.0,524.0 214.0,524.0" stroke="#000" stroke-dasharray="5,5" stroke-width="1" /><polyline fill="none" opacity="100" points="25.0,611.0 25.0,598.0 76.0,598.0 76.0,575.0" stroke="#000" stroke-width="1" /><polyline fill="none" opacity="100" points="-7.0,611.0 -7.0,599.0 -17.0,599.0 -17.0,500.0 -8.0,500.0 -8.0,488.0 -28.0,488.0" stroke="#000" stroke-width="1" /><polyline fill="none" opacity="100" points="76.0,524.0 76.0,500.0 25.0,500.0 25.0,430.0" stroke="#000" stroke-width="1" /><polyline fill="none" opacity="100" points="65.0,539.0 29.0,539.0" stroke="#000" stroke-width="1" /><polyline fill="none" opacity="100" points="65.0,575.0 29.0,587.0" stroke="#000" stroke-width="1" /><polyline fill="none" opacity="100" points="29.0,587.0 29.0,539.0" stroke="#000" stroke-dasharray="5,5" stroke-width="1" /><polyline fill="none" opacity="100" points="17.0,500.0 17.0,488.0" stroke="#F00" stroke-width="1" /><polygon fill="#F00" opacity="100" points="17.9317,491.4773 17.0,488.0 16.0683,491.4773" stroke="#F00" stroke-width="1" /><polyline fill="none" opacity="100" points="2.0,486.0 2.0,499.0" stroke="#008000" stroke-width="1" /><polygon fill="#008000" opacity="100" points="0.9906,495.2329 2.0,499.0 3.0094,495.2329" stroke="#008000" stroke-width="1" /><text fill="#DC004B" font-family="Arial" font-size="20" font-weight="normal" opacity="100" transform="rotate(-0.0 539.0,603.0) translate(0 20)" x="539.0" y="603.0">Политехническая &gt;&gt;</text><text fill="#DC004B" font-family="Arial" font-size="20" font-weight="normal" opacity="100" transform="rotate(-0.0 242.0,473.0) translate(0 20)" x="242.0" y="473.0">&lt;&lt; Лесная</text><text fill="#DC004B" font-family="Arial" font-size="25" font-weight="bold" opacity="100" transform="rotate(-0.0 368.0,530.0) translate(0 25)" x="368.0" y="530.0">Площадь Мужества</text><text fill="#00AFAF" font-family="Arial" font-size="15" font-weight="normal" opacity="100" transform="rotate(80.0 -114.0,248.0) translate(0 15)" x="-114.0" y="248.0">площадь Мужества</text><text fill="#00AFAF" font-family="Arial" font-size="15" font-weight="normal" opacity="100" transform="rotate(-0.0 74.0,392.0) translate(0 15)" x="74.0" y="392.0">Политехническая улица</text><text fill="#00AFAF" font-family="Arial" font-size="15" font-weight="normal" opacity="100" transform="rotate(90.0 -120.0,486.0) translate(0 15)" x="-120.0" y="486.0">проспект Непокоренных</text></g></g></svg>