<?xml version="1.0" encoding="utf-8" ?>
<svg baseProfile="tiny" height="630px" version="1.2" width="570px" xmlns="http://www.w3.org/2000/svg" xmlns:ev="http://www.w3.org/2001/xml-events" xmlns:xlink="http://www.w3.org/1999/xlink"><defs /><g><g transform="rotate(-20.0,565.0,490.0)"><polygon fill="#DC004B" opacity="100" points="266.0,468.0 266.0,452.0 948.0,452.0 948.0,468.0" stroke="none" stroke-width="1" /><polygon fill="#DC004B" opacity="100" points="266.0,636.0 948.0,636.0 948.0,652.0 266.0,652.0" stroke="none" stroke-width="1" /><polyline fill="none" opacity="100" points="948.0,469.0 948.0,493.0 939.0,493.0" stroke="none" stroke-width="1" /><polyline fill="none" opacity="100" points="948.0,636.0 948.0,611.0 939.0,611.0" stroke="none" stroke-width="1" /><polyline fill="none" opacity="100" points="939.0,497.0 792.0,497.0 792.0,510.0 807.0,510.0 807.0,544.0 815.0,544.0 815.0,540.0 824.0,540.0" stroke="none" stroke-width="1" /><polyline fill="none" opacity="100" points="939.0,607.0 792.0,607.0 792.0,594.0 807.0,594.0 807.0,560.0 815.0,560.0 815.0,564.0 824.0,564.0" stroke="none" stroke-width="1" /><polyline fill="none" opacity="100" points="266.0,469.0 266.0,493.0 276.0,493.0" stroke="none" stroke-width="1" /><polyline fill="none" opacity="100" points="266.0,636.0 266.0,611.0 276.0,611.0" stroke="none" stroke-width="1" /><polyline fill="none" opacity="100" points="276.0,497.0 409.0,497.0 409.0,513.0 399.0,513.0 399.0,519.0 394.0,519.0 394.0,525.0 367.0,525.0 367.0,520.0 350.0,520.0" stroke="none" stroke-width="1" /><polyline fill="none" opacity="100" points="276.0,607.0 409.0,607.0 409.0,591.0 399.0,591.0 399.0,585.0 394.0,585.0 394.0,579.0 367.0,579.0 367.0,584.0 350.0,584.0" stroke="none" stroke-width="1" /><polyline fill="none" opacity="100" points="824.0,540.0 824.7031,541.5 825.3125,543.0 825.8281,544.5 826.25,546.0 826.5781,547.5 826.8125,549.0 826.9531,550.5 827.0,552.0 826.9531,553.5 826.8125,555.0 826.5781,556.5 826.25,558.0 825.8281,559.5 825.3125,561.0 824.7031,562.5 824.0,564.0" stroke="none" stroke-width="1" /><polygon fill="#7F7F7F" opacity="100" points="276.0,493.0 290.0,493.0 290.0,497.0 276.0,497.0" stroke="none" stroke-width="1" /><polygon fill="#7F7F7F" opacity="100" points="276.0,607.0 290.0,607.0 290.0,611.0 276.0,611.0" stroke="none" stroke-width="1" /><polygon fill="#7F7F7F" opacity="100" points="306.0,493.0 321.0,493.0 321.0,497.0 306.0,497.0" stroke="none" stroke-width="1" /><polygon fill="#7F7F7F" opacity="100" points="306.0,607.0 321.0,607.0 321.0,611.0 306.0,611.0" stroke="none" stroke-width="1" /><polygon fill="#7F7F7F" opacity="100" points="335.0,493.0 350.0,493.0 350.0,497.0 335.0,497.0" stroke="none" stroke-width="1" /><polygon fill="#7F7F7F" opacity="100" points="335.0,607.0 350.0,607.0 350.0,611.0 335.0,611.0" stroke="none" stroke-width="1" /><polygon fill="#7F7F7F" opacity="100" points="364.0,493.0 379.0,493.0 379.0,497.0 364.0,497.0" stroke="none" stroke-width="1" /><polygon fill="#7F7F7F" opacity="100" points="364.0,607.0 379.0,607.0 379.0,611.0 364.0,611.0" stroke="none" stroke-width="1" /><polygon fill="#7F7F7F" opacity="100" points="394.0,493.0 409.0,493.0 409.0,497.0 394.0,497.0" stroke="none" stroke-width="1" /><polygon fill="#7F7F7F" opacity="100" points="394.0,607.0 409.0,607.0 409.0,611.0 394.0,611.0" stroke="none" stroke-width="1" /><polygon fill="#7F7F7F" opacity="100" points="806.0,493.0 821.0,493.0 821.0,497.0 806.0,497.0" stroke="none" stroke-width="1" /><polygon fill="#7F7F7F" opacity="100" points="806.0,607.0 821.0,607.0 821.0,611.0 806.0,611.0" stroke="none" stroke-width="1" /><polygon fill="#7F7F7F" opacity="100" points="835.0,493.0 850.0,493.0 850.0,497.0 835.0,497.0" stroke="none" stroke-width="1" /><polygon fill="#7F7F7F" opacity="100" points="835.0,607.0 850.0,607.0 850.0,611.0 835.0,611.0" stroke="none" stroke-width="1" /><polygon fill="#7F7F7F" opacity="100" points="865.0,493.0 880.0,493.0 880.0,497.0 865.0,497.0" stroke="none" stroke-width="1" /><polygon fill="#7F7F7F" opacity="100" points="865.0,607.0 880.0,607.0 880.0,611.0 865.0,611.0" stroke="none" stroke-width="1" /><polygon fill="#7F7F7F" opacity="100" points="892.0,493.0 909.0,493.0 909.0,497.0 892.0,497.0" stroke="none" stroke-width="1" /><polygon fill="#7F7F7F" opacity="100" points="892.0,607.0 909.0,607.0 909.0,611.0 892.0,611.0" stroke="none" stroke-width="1" /><polygon fill="#7F7F7F" opacity="100" points="924.0,493.0 939.0,493.0 939.0,497.0 924.0,497.0" stroke="none" stroke-width="1" /><polygon fill="#7F7F7F" opacity="100" points="924.0,607.0 939.0,607.0 939.0,611.0 924.0,611.0" stroke="none" stroke-width="1" /><polygon fill="#7F7F7F" opacity="100" points="424.0,493.0 439.0,493.0 439.0,513.0 424.0,513.0" stroke="none" stroke-width="1" /><polygon fill="#7F7F7F" opacity="100" points="424.0,591.0 439.0,591.0 439.0,611.0 424.0,611.0" stroke="none" stroke-width="1" /><polygon fill="#7F7F7F" opacity="100" points="453.0,493.0 468.0,493.0 468.0,513.0 453.0,513.0" stroke="none" stroke-width="1" /><polygon fill="#7F7F7F" opacity="100" points="453.0,591.0 468.0,591.0 468.0,611.0 453.0,611.0" stroke="none" stroke-width="1" /><polygon fill="#7F7F7F" opacity="100" points="482.0,493.0 497.0,493.0 497.0,513.0 482.0,513.0" stroke="none" stroke-width="1" /><polygon fill="#7F7F7F" opacity="100" points="482.0,591.0 497.0,591.0 497.0,611.0 482.0,611.0" stroke="none" stroke-width="1" /><polygon fill="#7F7F7F" opacity="100" points="512.0,493.0 527.0,493.0 527.0,513.0 512.0,513.0" stroke="none" stroke-width="1" /><polygon fill="#7F7F7F" opacity="100" points="512.0,591.0 527.0,591.0 527.0,611.0 512.0,611.0" stroke="none" stroke-width="1" /><polygon fill="#7F7F7F" opacity="100" points="541.0,493.0 556.0,493.0 556.0,513.0 541.0,513.0" stroke="none" stroke-width="1" /><polygon fill="#7F7F7F" opacity="100" points="541.0,591.0 556.0,591.0 556.0,611.0 541.0,611.0" stroke="none" stroke-width="1" /><polygon fill="#7F7F7F" opacity="100" points="570.0,493.0 585.0,493.0 585.0,513.0 570.0,513.0" stroke="none" stroke-width="1" /><polygon fill="#7F7F7F" opacity="100" points="570.0,591.0 585.0,591.0 585.0,611.0 570.0,611.0" stroke="none" stroke-width="1" /><polygon fill="#7F7F7F" opacity="100" points="600.0,493.0 615.0,493.0 615.0,513.0 600.0,513.0" stroke="none" stroke-width="1" /><polygon fill="#7F7F7F" opacity="100" points="600.0,591.0 615.0,591.0 615.0,611.0 600.0,611.0" stroke="none" stroke-width="1" /><polygon fill="#7F7F7F" opacity="100" points="688.0,493.0 703.0,493.0 703.0,513.0 688.0,513.0" stroke="none" stroke-width="1" /><polygon fill="#7F7F7F" opacity="100" points="629.0,591.0 644.0,591.0 644.0,611.0 629.0,611.0" stroke="none" stroke-width="1" /><polygon fill="#7F7F7F" opacity="100" points="659.0,493.0 674.0,493.0 674.0,513.0 659.0,513.0" stroke="none" stroke-width="1" /><polygon fill="#7F7F7F" opacity="100" points="659.0,591.0 674.0,591.0 674.0,611.0 659.0,611.0" stroke="none" stroke-width="1" /><polygon fill="#7F7F7F" opacity="100" points="688.0,591.0 703.0,591.0 703.0,611.0 688.0,611.0" stroke="#000" stroke-width="1" /><polygon fill="#7F7F7F" opacity="100" points="717.0,493.0 732.0,493.0 732.0,513.0 717.0,513.0" stroke="#000" stroke-width="1" /><polygon fill="#7F7F7F" opacity="100" points="717.0,591.0 732.0,591.0 732.0,611.0 717.0,611.0" stroke="#000" stroke-width="1" /><polygon fill="#7F7F7F" opacity="100" points="747.0,493.0 762.0,493.0 762.0,513.0 747.0,513.0" stroke="#000" stroke-width="1" /><polygon fill="#7F7F7F" opacity="100" points="747.0,591.0 762.0,591.0 762.0,611.0 747.0,611.0" stroke="#000" stroke-width="1" /><polygon fill="#7F7F7F" opacity="100" points="777.0,493.0 792.0,493.0 792.0,513.0 777.0,513.0" stroke="#000" stroke-width="1" /><polygon fill="#7F7F7F" opacity="100" points="777.0,591.0 792.0,591.0 792.0,611.0 777.0,611.0" stroke="#000" stroke-width="1" /><polygon fill="#7F7F7F" opacity="100" points="795.0,548.0 804.0,548.0 804.0,557.0 795.0,557.0" stroke="#000" stroke-width="1" /><polygon fill="#FFF" opacity="100" points="351.0,560.0 364.0,560.0 364.0,568.0 351.0,568.0" stroke="#000" stroke-width="1" /><polygon fill="#FFF" opacity="100" points="96.0,546.0 96.0,536.0 114.0,536.0 114.0,546.0" stroke="#000" stroke-width="1" /><polygon fill="#FFF" opacity="100" points="102.0,583.0 114.0,583.0 114.0,599.0 102.0,599.0" stroke="#000" stroke-width="1" /><polyline fill="none" opacity="100" points="431.0,518.0 431.0,518.0" stroke="#7F7F7F" stroke-width="7" /><polyline fill="none" opacity="100" points="460.0,518.0 460.0,518.0" stroke="#7F7F7F" stroke-width="7" /><polyline fill="none" opacity="100" points="490.0,518.0 490.0,518.0" stroke="#7F7F7F" stroke-width="7" /><polyline fill="none" opacity="100" points="520.0,518.0 520.0,518.0" stroke="#7F7F7F" stroke-width="7" /><polyline fill="none" opacity="100" points="548.0,518.0 548.0,518.0" stroke="#7F7F7F" stroke-width="7" /><polyline fill="none" opacity="100" points="577.0,518.0 577.0,518.0" stroke="#7F7F7F" stroke-width="7" /><polyline fill="none" opacity="100" points="607.0,518.0 607.0,518.0" stroke="#7F7F7F" stroke-width="7" /><polyline fill="none" opacity="100" points="637.0,518.0 637.0,518.0" stroke="#7F7F7F" stroke-width="7" /><polyline fill="none" opacity="100" points="666.0,518.0 666.0,518.0" stroke="#7F7F7F" stroke-width="7" /><polyline fill="none" opacity="100" points="696.0,518.0 696.0,518.0" stroke="#7F7F7F" stroke-width="7" /><polyline fill="none" opacity="100" points="725.0,518.0 725.0,518.0" stroke="#7F7F7F" stroke-width="7" /><polyline fill="none" opacity="100" points="754.0,518.0 754.0,518.0" stroke="#7F7F7F" stroke-width="7" /><polyline fill="none" opacity="100" points="784.0,518.0 784.0,518.0" stroke="#7F7F7F" stroke-width="7" /><polyline fill="none" opacity="100" points="802.0,532.0 802.0,532.0" stroke="#7F7F7F" stroke-width="7" /><polyline fill="none" opacity="100" points="802.0,574.0 802.0,574.0" stroke="#7F7F7F" stroke-width="7" /><polyline fill="none" opacity="100" points="431.0,586.0 431.0,586.0" stroke="#7F7F7F" stroke-width="7" /><polyline fill="none" opacity="100" points="460.0,586.0 460.0,586.0" stroke="#7F7F7F" stroke-width="7" /><polyline fill="none" opacity="100" points="490.0,586.0 490.0,586.0" stroke="#7F7F7F" stroke-width="7" /><polyline fill="none" opacity="100" points="520.0,586.0 520.0,586.0" stroke="#7F7F7F" stroke-width="7" /><polyline fill="none" opacity="100" points="548.0,586.0 548.0,586.0" stroke="#7F7F7F" stroke-width="7" /><polyline fill="none" opacity="100" points="577.0,586.0 577.0,586.0" stroke="#7F7F7F" stroke-width="7" /><polyline fill="none" opacity="100" points="607.0,586.0 607.0,586.0" stroke="#7F7F7F" stroke-width="7" /><polyline fill="none" opacity="100" points="637.0,586.0 637.0,586.0" stroke="#7F7F7F" stroke-width="7" /><polyline fill="none" opacity="100" points="666.0,586.0 666.0,586.0" stroke="#7F7F7F" stroke-width="7" /><polyline fill="none" opacity="100" points="696.0,586.0 696.0,586.0" stroke="#7F7F7F" stroke-width="7" /><polyline fill="none" opacity="100" points="725.0,586.0 725.0,586.0" stroke="#7F7F7F" stroke-width="7" /><polyline fill="none" opacity="100" points="754.0,586.0 754.0,586.0" stroke="#7F7F7F" stroke-width="7" /><polyline fill="none" opacity="100" points="784.0,586.0 784.0,586.0" stroke="#7F7F7F" stroke-width="7" /><polyline fill="none" opacity="100" points="17.0,553.0 62.0,553.0" stroke="#000" stroke-width="1" /><polyline fill="none" opacity="100" points="67.0,554.0 89.0,554.0 96.0,546.0" stroke="#000" stroke-width="1" /><polyline fill="none" opacity="100" points="112.0,546.0 147.0,546.0" stroke="#000" stroke-width="1" /><polyline fill="none" opacity="100" points="108.0,550.0 114.0,550.0" stroke="#000" stroke-width="2" /><polyline fill="none" opacity="100" points="108.0,554.0 114.0,554.0" stroke="#000" stroke-width="2" /><polyline fill="none" opacity="100" points="108.0,558.0 114.0,558.0" stroke="#000" stroke-width="2" /><polyline fill="none" opacity="100" points="108.0,562.0 114.0,562.0" stroke="#000" stroke-width="2" /><polyline fill="none" opacity="100" points="108.0,566.0 114.0,566.0" stroke="#000" stroke-width="2" /><polyline fill="none" opacity="100" points="108.0,570.0 114.0,570.0" stroke="#000" stroke-width="2" /><polyline fill="none" opacity="100" points="108.0,575.0 114.0,575.0" stroke="#000" stroke-width="2" /><polyline fill="none" opacity="100" points="108.0,579.0 114.0,579.0" stroke="#000" stroke-width="2" /><polyline fill="none" opacity="100" points="88.0,514.0 88.0,514.0" stroke="#000" stroke-width="5" /><polyline fill="none" opacity="100" points="100.0,506.0 100.0,506.0" stroke="#000" stroke-width="5" /><polyline fill="none" opacity="100" points="114.0,502.0 114.0,502.0" stroke="#000" stroke-width="5" /><polyline fill="none" opacity="100" points="87.0,591.0 87.0,591.0" stroke="#000" stroke-width="5" /><polyline fill="none" opacity="100" points="100.0,600.0 100.0,600.0" stroke="#000" stroke-width="5" /><polyline fill="none" opacity="100" points="114.0,604.0 114.0,604.0" stroke="#000" stroke-width="5" /><polyline fill="none" opacity="100" points="122.0,497.0 122.0,500.0 150.0,500.0 150.0,518.0 157.0,518.0 157.0,514.0 209.0,514.0 209.0,591.0 157.0,591.0 157.0,587.0 150.0,587.0 150.0,604.0 122.0,604.0 122.0,610.0" stroke="#000" stroke-width="1" /><polyline fill="none" opacity="100" points="122.0,493.0 122.0,484.0 126.0,484.0 126.0,493.0 175.0,493.0 175.0,454.0 160.0,454.0 160.0,450.0 164.0,446.0 174.0,446.0" stroke="#000" stroke-width="1" /><polyline fill="none" opacity="100" points="124.0,446.0 133.0,446.0 137.0,450.0 137.0,454.0 126.0,454.0 126.0,462.0 122.0,462.0 122.0,453.0" stroke="#000" stroke-width="1" /><polyline fill="none" opacity="100" points="42.0,492.0 38.0,489.0" stroke="#000" stroke-width="1" /><polyline fill="none" opacity="100" points="39.0,616.0 43.0,614.0 58.0,629.0 64.0,623.0 69.0,628.0 64.0,633.0 67.0,637.0 72.0,637.0 72.0,640.0 68.0,644.0 58.0,644.0" stroke="#000" stroke-width="1" /><polyline fill="none" opacity="100" points="108.0,644.0 98.0,644.0 95.0,640.0 95.0,637.0 101.0,637.0 95.0,616.0 90.0,618.0 86.0,609.0 90.0,603.0 78.0,591.0" stroke="#000" stroke-width="1" /><polyline fill="none" opacity="100" points="122.0,496.0 118.0781,496.3281 114.3125,496.8125 110.7031,497.4531 107.25,498.25 103.9531,499.2031 100.8125,500.3125 97.8281,501.5781 95.0,503.0 92.3281,504.5781 89.8125,506.3125 87.4531,508.2031 85.25,510.25 83.2031,512.4531 81.3125,514.8125 79.5781,517.3281 78.0,520.0" stroke="#000" stroke-width="1" /><polyline fill="none" opacity="100" points="77.0,514.0 79.5156,511.3984 82.0625,508.9688 84.6406,506.7109 87.25,504.625 89.8906,502.7109 92.5625,500.9688 95.2656,499.3984 98.0,498.0 100.7656,496.7734 103.5625,495.7188 106.3906,494.8359 109.25,494.125 112.1406,493.5859 115.0625,493.2188 118.0156,493.0234 121.0,493.0" stroke="#000" stroke-width="1" /><polyline fill="none" opacity="100" points="122.0,453.0 115.7734,453.4453 109.7188,454.1562 103.8359,455.1328 98.125,456.375 92.5859,457.8828 87.2188,459.6562 82.0234,461.6953 77.0,464.0 72.1484,466.5703 67.4688,469.4062 62.9609,472.5078 58.625,475.875 54.4609,479.5078 50.4688,483.4062 46.6484,487.5703 43.0,492.0" stroke="#000" stroke-width="1" /><polyline fill="none" opacity="100" points="38.0,489.0 33.0234,497.0547 28.7188,505.0938 25.0859,513.1172 22.125,521.125 19.8359,529.1172 18.2188,537.0938 17.2734,545.0547 17.0,553.0 17.3984,560.9297 18.4688,568.8438 20.2109,576.7422 22.625,584.625 25.7109,592.4922 29.4688,600.3438 33.8984,608.1797 39.0,616.0" stroke="#000" stroke-width="1" /><polyline fill="none" opacity="100" points="80.0,590.0 80.8516,591.0 81.7812,592.0 82.7891,593.0012 83.875,594.0 85.0391,594.989 86.2812,595.9805 87.6016,596.978 89.0,598.0 90.4766,599.0806 92.0312,600.1758 93.6641,601.2563 95.375,602.3125 97.1641,603.3296 99.0312,604.293 100.9766,605.1929 103.0,606.0 105.1016,606.6704 107.2812,607.2383 109.5391,607.7219 111.875,608.125 114.2891,608.4597 116.7812,608.7188 119.3516,608.8984 122.0,609.0" stroke="#000" stroke-width="1" /><polygon fill="#7F7F7F" opacity="100" points="43.0,613.0 47.0,609.0 51.0,613.0 47.0,617.0" stroke="#000" stroke-width="1" /><polygon fill="#7F7F7F" opacity="100" points="42.0,492.0 46.0,488.0 50.0,492.0 46.0,496.0" stroke="#000" stroke-width="1" /><polygon fill="#7F7F7F" opacity="100" points="72.0,517.0 76.0,512.0 81.0,516.0 77.0,521.0" stroke="#000" stroke-width="1" /><polygon fill="#7F7F7F" opacity="100" points="66.0,527.0 72.0,530.0 70.0,535.0 64.0,533.0" stroke="#000" stroke-width="1" /><polygon fill="#7F7F7F" opacity="100" points="61.0,550.0 67.0,550.0 67.0,556.0 61.0,556.0" stroke="#000" stroke-width="1" /><polygon fill="#7F7F7F" opacity="100" points="64.0,573.0 70.0,571.0 72.0,576.0 66.0,579.0" stroke="#000" stroke-width="1" /><polygon fill="#7F7F7F" opacity="100" points="73.0,589.0 77.0,585.0 81.0,590.0 76.0,594.0" stroke="#000" stroke-width="1" /><polygon fill="#7F7F7F" opacity="100" points="147.0,520.0 350.0,520.0 350.0,524.0 147.0,524.0" stroke="#7F7F7F" stroke-width="1" /><polygon fill="#7F7F7F" opacity="100" points="147.0,536.0 350.0,536.0 350.0,546.0 147.0,546.0" stroke="#7F7F7F" stroke-width="1" /><polygon fill="#7F7F7F" opacity="100" points="147.0,559.0 350.0,559.0 350.0,569.0 147.0,569.0" stroke="#7F7F7F" stroke-width="1" /><polygon fill="#7F7F7F" opacity="100" points="147.0,581.0 350.0,581.0 350.0,584.0 147.0,584.0" stroke="#7F7F7F" stroke-width="1" /><polyline fill="none" opacity="100" points="147.0,520.0 147.0,584.0" stroke="#7F7F7F" stroke-width="1" /><polyline fill="none" opacity="100" points="151.0,520.0 151.0,584.0" stroke="#7F7F7F" stroke-width="1" /><polyline fill="none" opacity="100" points="155.0,520.0 155.0,584.0" stroke="#7F7F7F" stroke-width="1" /><polyline fill="none" opacity="100" points="159.0,520.0 159.0,584.0" stroke="#7F7F7F" stroke-width="1" /><polyline fill="none" opacity="100" points="163.0,520.0 163.0,584.0" stroke="#7F7F7F" stroke-width="1" /><polyline fill="none" opacity="100" points="167.0,520.0 167.0,584.0" stroke="#7F7F7F" stroke-width="1" /><polyline fill="none" opacity="100" points="171.0,520.0 171.0,584.0" stroke="#7F7F7F" stroke-width="1" /><polyline fill="none" opacity="100" points="175.0,520.0 175.0,584.0" stroke="#7F7F7F" stroke-width="1" /><polyline fill="none" opacity="100" points="179.0,520.0 179.0,584.0" stroke="#7F7F7F" stroke-width="1" /><polyline fill="none" opacity="100" points="183.0,520.0 183.0,584.0" stroke="#7F7F7F" stroke-width="1" /><polyline fill="none" opacity="100" points="187.0,520.0 187.0,584.0" stroke="#7F7F7F" stroke-width="1" /><polyline fill="none" opacity="100" points="191.0,520.0 191.0,584.0" stroke="#7F7F7F" stroke-width="1" /><polyline fill="none" opacity="100" points="195.0,520.0 195.0,584.0" stroke="#7F7F7F" stroke-width="1" /><polyline fill="none" opacity="100" points="199.0,520.0 199.0,584.0" stroke="#7F7F7F" stroke-width="1" /><polyline fill="none" opacity="100" points="203.0,520.0 203.0,584.0" stroke="#7F7F7F" stroke-width="1" /><polyline fill="none" opacity="100" points="207.0,520.0 207.0,584.0" stroke="#7F7F7F" stroke-width="1" /><polyline fill="none" opacity="100" points="211.0,520.0 211.0,584.0" stroke="#7F7F7F" stroke-width="1" /><polyline fill="none" opacity="100" points="215.0,520.0 215.0,584.0" stroke="#7F7F7F" stroke-width="1" /><polyline fill="none" opacity="100" points="219.0,520.0 219.0,584.0" stroke="#7F7F7F" stroke-width="1" /><polyline fill="none" opacity="100" points="223.0,520.0 223.0,584.0" stroke="#7F7F7F" stroke-width="1" /><polyline fill="none" opacity="100" points="227.0,520.0 227.0,584.0" stroke="#7F7F7F" stroke-width="1" /><polyline fill="none" opacity="100" points="231.0,520.0 231.0,584.0" stroke="#7F7F7F" stroke-width="1" /><polyline fill="none" opacity="100" points="235.0,520.0 235.0,584.0" stroke="#7F7F7F" stroke-width="1" /><polyline fill="none" opacity="100" points="239.0,520.0 239.0,584.0" stroke="#7F7F7F" stroke-width="1" /><polyline fill="none" opacity="100" points="243.0,520.0 243.0,584.0" stroke="#7F7F7F" stroke-width="1" /><polyline fill="none" opacity="100" points="247.0,520.0 247.0,584.0" stroke="#7F7F7F" stroke-width="1" /><polyline fill="none" opacity="100" points="251.0,520.0 251.0,584.0" stroke="#7F7F7F" stroke-width="1" /><polyline fill="none" opacity="100" points="255.0,520.0 255.0,584.0" stroke="#7F7F7F" stroke-width="1" /><polyline fill="none" opacity="100" points="259.0,520.0 259.0,584.0" stroke="#7F7F7F" stroke-width="1" /><polyline fill="none" opacity="100" points="263.0,520.0 263.0,584.0" stroke="#7F7F7F" stroke-width="1" /><polyline fill="none" opacity="100" points="267.0,520.0 267.0,584.0" stroke="#7F7F7F" stroke-width="1" /><polyline fill="none" opacity="100" points="271.0,520.0 271.0,584.0" stroke="#7F7F7F" stroke-width="1" /><polyline fill="none" opacity="100" points="275.0,520.0 275.0,584.0" stroke="#7F7F7F" stroke-width="1" /><polyline fill="none" opacity="100" points="279.0,520.0 279.0,584.0" stroke="#7F7F7F" stroke-width="1" /><polyline fill="none" opacity="100" points="283.0,520.0 283.0,584.0" stroke="#7F7F7F" stroke-width="1" /><polyline fill="none" opacity="100" points="287.0,520.0 287.0,584.0" stroke="#7F7F7F" stroke-width="1" /><polyline fill="none" opacity="100" points="291.0,520.0 291.0,584.0" stroke="#7F7F7F" stroke-width="1" /><polyline fill="none" opacity="100" points="295.0,520.0 295.0,584.0" stroke="#7F7F7F" stroke-width="1" /><polyline fill="none" opacity="100" points="299.0,520.0 299.0,584.0" stroke="#7F7F7F" stroke-width="1" /><polyline fill="none" opacity="100" points="303.0,520.0 303.0,584.0" stroke="#7F7F7F" stroke-width="1" /><polyline fill="none" opacity="100" points="307.0,520.0 307.0,584.0" stroke="#7F7F7F" stroke-width="1" /><polyline fill="none" opacity="100" points="311.0,520.0 311.0,584.0" stroke="#7F7F7F" stroke-width="1" /><polyline fill="none" opacity="100" points="315.0,520.0 315.0,584.0" stroke="#7F7F7F" stroke-width="1" /><polyline fill="none" opacity="100" points="319.0,520.0 319.0,584.0" stroke="#7F7F7F" stroke-width="1" /><polyline fill="none" opacity="100" points="323.0,520.0 323.0,584.0" stroke="#7F7F7F" stroke-width="1" /><polyline fill="none" opacity="100" points="327.0,520.0 327.0,584.0" stroke="#7F7F7F" stroke-width="1" /><polyline fill="none" opacity="100" points="331.0,520.0 331.0,584.0" stroke="#7F7F7F" stroke-width="1" /><polyline fill="none" opacity="100" points="335.0,520.0 335.0,584.0" stroke="#7F7F7F" stroke-width="1" /><polyline fill="none" opacity="100" points="339.0,520.0 339.0,584.0" stroke="#7F7F7F" stroke-width="1" /><polyline fill="none" opacity="100" points="343.0,520.0 343.0,584.0" stroke="#7F7F7F" stroke-width="1" /><polyline fill="none" opacity="100" points="347.0,520.0 347.0,584.0" stroke="#7F7F7F" stroke-width="1" /><polyline fill="none" opacity="100" points="351.0,520.0 351.0,584.0" stroke="#7F7F7F" stroke-width="1" /><polyline fill="none" opacity="100" points="147.0,520.0 350.0,520.0" stroke="#000" stroke-dasharray="5,5" stroke-width="1" /><polyline fill="none" opacity="100" points="350.0,584.0 147.0,584.0" stroke="#000" stroke-dasharray="5,5" stroke-width="1" /><polyline fill="none" opacity="100" points="173.0,520.0 175.3984,520.3594 177.7188,520.9375 179.9653,521.738 182.125,522.75 184.1714,523.9514 186.1484,525.3789 188.0693,527.0435 190.0,529.0 192.0635,531.3511 194.1016,533.9648 196.0049,536.7561 197.75,539.6875 199.3076,542.699 200.5859,545.7734 201.5381,548.8896 202.0,552.0 201.7041,555.0479 200.9141,558.0391 199.7896,560.9641 198.375,563.8125 196.7612,566.5886 194.9688,569.2383 193.0156,571.729 191.0,574.0 189.0625,575.9546 187.0938,577.668 185.0352,579.1804 182.875,580.5 180.5742,581.6536 178.1562,582.625 175.6328,583.4062 173.0,584.0" stroke="#000" stroke-width="1" /><polyline fill="none" opacity="100" points="147.0,520.0 173.0,520.0" stroke="#000" stroke-width="1" /><polyline fill="none" opacity="100" points="147.0,584.0 173.0,584.0" stroke="#000" stroke-width="1" /><polyline fill="none" opacity="100" points="209.0,514.0 209.0,591.0" stroke="#000" stroke-width="1" /><polyline fill="none" opacity="100" points="350.0,520.0 341.3281,524.0 333.8125,528.0 327.4531,532.0 322.25,536.0 318.2031,540.0 315.3125,544.0 313.5781,548.0 313.0,552.0 313.5781,556.0 315.3125,560.0 318.2031,564.0 322.25,568.0 327.4531,572.0 333.8125,576.0 341.3281,580.0 350.0,584.0" stroke="#000" stroke-width="1" /><polyline fill="none" opacity="100" points="148.0,471.0 148.0,455.0" stroke="#F00" stroke-width="1" /><polygon fill="#F00" opacity="100" points="149.2423,459.6364 148.0,455.0 146.7577,459.6364" stroke="#F00" stroke-width="1" /><polyline fill="none" opacity="100" points="84.0,642.0 84.0,625.0" stroke="#090" stroke-width="1" /><polygon fill="#090" opacity="100" points="85.32,629.9262 84.0,625.0 82.68,629.9262" stroke="#090" stroke-width="1" /><text fill="#650022" font-family="Arial" font-size="36" font-weight="bold" opacity="100" transform="rotate(-0.0 502.0,531.0) translate(0 36)" x="502.0" y="531.0">Пушкинская</text><text fill="#DC004B" font-family="Arial" font-size="18" font-weight="bold" opacity="100" transform="rotate(-0.0 278.0,431.0) translate(0 18)" x="278.0" y="431.0">&lt;&lt; Технологический Институт</text><text fill="#DC004B" font-family="Arial" font-size="18" font-weight="bold" opacity="100" transform="rotate(-0.0 810.0,655.0) translate(0 18)" x="810.0" y="655.0">Владимирская &gt;&gt;</text><text fill="#DC004B" font-family="Arial" font-size="36" font-weight="bold" opacity="100" transform="rotate(-0.0 501.0,529.0) translate(0 36)" x="501.0" y="529.0">Пушкинская</text><text fill="#00AFAF" font-family="Arial" font-size="20" font-weight="normal" opacity="100" transform="rotate(-0.0 82.0,375.0) translate(0 20)" x="82.0" y="375.0">Загородный проспект</text><text fill="#00AFAF" font-family="Arial" font-size="18" font-weight="normal" opacity="100" transform="rotate(90.0 -47.0,639.0) translate(0 18)" x="-47.0" y="639.0">Витебский вокзал</text><polygon fill="#6C0D75" opacity="100" points="397.0,214.0 397.0,200.0 1059.0,200.0 1059.0,214.0" stroke="#000" stroke-width="1" /><polygon fill="#6C0D75" opacity="100" points="659.0,356.0 659.0,342.0 1059.0,342.0 1059.0,356.0" stroke="#000" stroke-width="1" /><polygon fill="#6C0D75" opacity="100" points="397.0,342.0 397.0,356.0 615.0,356.0 615.0,342.0" stroke="#000" stroke-width="1" /><polyline fill="none" opacity="100" points="397.0,214.0 397.0,228.0 521.0,228.0 521.0,234.0 494.0,234.0 494.0,322.0 521.0,322.0 521.0,328.0 397.0,328.0 397.0,342.0" stroke="#000" stroke-width="1" /><polyline fill="none" opacity="100" points="1059.0,214.0 1059.0,228.0 907.0,228.0 907.0,233.0 931.0,233.0 931.0,323.0 907.0,323.0 907.0,328.0 1059.0,328.0 1059.0,342.0" stroke="#000" stroke-width="1" /><polygon fill="#808080" opacity="100" points="762.0,233.0 762.0,228.0 825.0,228.0 825.0,233.0" stroke="#000" stroke-width="1" /><polygon fill="#808080" opacity="100" points="762.0,328.0 762.0,323.0 825.0,323.0 825.0,328.0" stroke="#000" stroke-width="1" /><polygon fill="#808080" opacity="100" points="598.0,233.0 598.0,228.0 676.0,228.0 676.0,233.0" stroke="#000" stroke-width="1" /><polygon fill="#808080" opacity="100" points="598.0,323.0 598.0,328.0 615.0,328.0 615.0,323.0" stroke="#000" stroke-width="1" /><polygon fill="#808080" opacity="100" points="659.0,323.0 659.0,328.0 676.0,328.0 676.0,323.0" stroke="#000" stroke-width="1" /><polyline fill="none" opacity="100" points="615.0,328.0 615.0,516.0" stroke="#000" stroke-width="1" /><polyline fill="none" opacity="100" points="659.0,328.0 659.0,516.0" stroke="#000" stroke-width="1" /><polyline fill="none" opacity="100" points="630.0,352.0 630.0,365.0" stroke="#000" stroke-width="1" /><polyline fill="none" opacity="100" points="644.0,352.0 644.0,365.0" stroke="#000" stroke-width="1" /><polyline fill="none" opacity="100" points="638.0,379.0 638.0,516.0" stroke="#000" stroke-width="1" /><polyline fill="none" opacity="100" points="615.0,323.0 659.0,323.0" stroke="#000" stroke-width="1" /><polyline fill="none" opacity="100" points="615.0,327.0 659.0,327.0" stroke="#000" stroke-width="1" /><polyline fill="none" opacity="100" points="615.0,331.0 659.0,331.0" stroke="#000" stroke-width="1" /><polyline fill="none" opacity="100" points="615.0,335.0 659.0,335.0" stroke="#000" stroke-width="1" /><polyline fill="none" opacity="100" points="615.0,339.0 659.0,339.0" stroke="#000" stroke-width="1" /><polyline fill="none" opacity="100" points="615.0,343.0 659.0,343.0" stroke="#000" stroke-width="1" /><polyline fill="none" opacity="100" points="615.0,516.0 659.0,516.0" stroke="#000" stroke-width="1" /><polyline fill="none" opacity="100" points="615.0,512.0 659.0,512.0" stroke="#000" stroke-width="1" /><polyline fill="none" opacity="100" points="615.0,508.0 659.0,508.0" stroke="#000" stroke-width="1" /><polyline fill="none" opacity="100" points="615.0,504.0 659.0,504.0" stroke="#000" stroke-width="1" /><polyline fill="none" opacity="100" points="615.0,500.0 659.0,500.0" stroke="#000" stroke-width="1" /><polyline fill="none" opacity="100" points="615.0,496.0 659.0,496.0" stroke="#000" stroke-width="1" /><polyline fill="none" opacity="100" points="676.0,233.0 676.0,323.0" stroke="#000" stroke-width="1" /><polyline fill="none" opacity="100" points="672.0,233.0 672.0,323.0" stroke="#000" stroke-width="1" /><polyline fill="none" opacity="100" points="668.0,233.0 668.0,323.0" stroke="#000" stroke-width="1" /><polyline fill="none" opacity="100" points="664.0,233.0 664.0,323.0" stroke="#000" stroke-width="1" /><polyline fill="none" opacity="100" points="598.0,233.0 598.0,323.0" stroke="#000" stroke-width="1" /><polyline fill="none" opacity="100" points="602.0,233.0 602.0,323.0" stroke="#000" stroke-width="1" /><polyline fill="none" opacity="100" points="606.0,233.0 606.0,323.0" stroke="#000" stroke-width="1" /><polyline fill="none" opacity="100" points="610.0,233.0 610.0,323.0" stroke="#000" stroke-width="1" /><polyline fill="none" opacity="100" points="938.0,242.0 1144.0,242.0 1144.0,315.0 938.0,315.0 938.0,242.0" stroke="#C0C0C0" stroke-dasharray="5,5" stroke-width="1" /><text fill="#6C0D75" font-family="Arial" font-size="20" font-weight="normal" opacity="100" transform="rotate(-0.0 408.0,178.0) translate(0 20)" x="408.0" y="178.0">&lt;&lt; Садовая</text><text fill="#6C0D75" font-family="Arial" font-size="20" font-weight="normal" opacity="100" transform="rotate(-0.0 935.0,356.0) translate(0 20)" x="935.0" y="356.0">Волковская &gt;&gt;</text><text fill="#6C0D75" font-family="Arial" font-size="25" font-weight="bold" opacity="100" transform="rotate(-0.0 695.0,264.0) translate(0 25)" x="695.0" y="264.0">Звенигородская</text><text fill="#00AFAF" font-family="Arial" font-size="18" font-weight="normal" opacity="100" transform="rotate(90.0 1192.0,209.0) translate(0 18)" x="1192.0" y="209.0">Звенигородская улица</text></g></g></svg>