<?xml version="1.0" encoding="utf-8" ?>
<svg baseProfile="tiny" height="1440px" version="1.2" width="1290px" xmlns="http://www.w3.org/2000/svg" xmlns:ev="http://www.w3.org/2001/xml-events" xmlns:xlink="http://www.w3.org/1999/xlink"><defs /><g><g transform="rotate(40.0,645.0,720.0)"><polygon fill="#EA7B16" opacity="100" points="772.0,577.0 772.0,563.0 1330.0,563.0 1330.0,577.0" stroke="#000" stroke-width="1" /><polygon fill="#EA7B16" opacity="100" points="926.0,795.0 926.0,809.0 1484.0,809.0 1484.0,795.0" stroke="#000" stroke-width="1" /><polygon fill="#C0C0C0" opacity="100" points="772.0,695.0 772.0,709.0 1330.0,709.0 1330.0,695.0" stroke="#000" stroke-width="1" /><polygon fill="#C0C0C0" opacity="100" points="926.0,913.0 926.0,927.0 1484.0,927.0 1484.0,913.0" stroke="#000" stroke-width="1" /><polyline fill="none" opacity="100" points="1330.0,577.0 1330.0,602.0 1307.0,602.0 1307.0,670.0 1330.0,670.0 1330.0,695.0" stroke="#000" stroke-width="1" /><polyline fill="none" opacity="100" points="772.0,577.0 772.0,599.0 738.0,599.0" stroke="#000" stroke-width="1" /><polyline fill="none" opacity="100" points="772.0,695.0 772.0,674.0 738.0,674.0" stroke="#000" stroke-width="1" /><polyline fill="none" opacity="100" points="738.0,599.0 738.0,674.0 378.0,674.0 378.0,599.0 738.0,599.0" stroke="#000" stroke-dasharray="5,5" stroke-width="1" /><polyline fill="none" opacity="100" points="271.0,396.0 192.0,475.0 192.0,603.0 282.0,603.0 322.0,563.0 419.0,563.0 419.0,710.0 322.0,710.0 282.0,670.0 192.0,670.0 192.0,757.0 289.0,757.0" stroke="#000" stroke-width="1" /><polyline fill="none" opacity="100" points="289.0,807.0 124.0,807.0 -2.0,681.0 -56.0,681.0 -56.0,777.0" stroke="#000" stroke-width="1" /><polyline fill="none" opacity="100" points="-108.0,777.0 -108.0,492.0" stroke="#000" stroke-width="1" /><polyline fill="none" opacity="100" points="-56.0,492.0 -56.0,593.0 -2.0,593.0 103.0,488.0 103.0,290.0" stroke="#000" stroke-width="1" /><polyline fill="none" opacity="100" points="153.0,290.0 153.0,438.0 233.0,358.0" stroke="#000" stroke-width="1" /><polyline fill="none" opacity="100" points="219.0,631.0 219.0,643.0 197.0,643.0 197.0,631.0 219.0,631.0" stroke="#000" stroke-width="1" /><polyline fill="none" opacity="100" points="103.0,290.0 153.0,290.0" stroke="#000" stroke-width="1" /><polyline fill="none" opacity="100" points="103.0,294.0 153.0,294.0" stroke="#000" stroke-width="1" /><polyline fill="none" opacity="100" points="103.0,298.0 153.0,298.0" stroke="#000" stroke-width="1" /><polyline fill="none" opacity="100" points="103.0,302.0 153.0,302.0" stroke="#000" stroke-width="1" /><polyline fill="none" opacity="100" points="103.0,306.0 153.0,306.0" stroke="#000" stroke-width="1" /><polyline fill="none" opacity="100" points="103.0,310.0 153.0,310.0" stroke="#000" stroke-width="1" /><polyline fill="none" opacity="100" points="103.0,314.0 153.0,314.0" stroke="#000" stroke-width="1" /><polyline fill="none" opacity="100" points="103.0,318.0 153.0,318.0" stroke="#000" stroke-width="1" /><polyline fill="none" opacity="100" points="103.0,322.0 153.0,322.0" stroke="#000" stroke-width="1" /><polyline fill="none" opacity="100" points="103.0,337.0 153.0,337.0" stroke="#000" stroke-width="1" /><polyline fill="none" opacity="100" points="103.0,341.0 153.0,341.0" stroke="#000" stroke-width="1" /><polyline fill="none" opacity="100" points="103.0,345.0 153.0,345.0" stroke="#000" stroke-width="1" /><polyline fill="none" opacity="100" points="103.0,349.0 153.0,349.0" stroke="#000" stroke-width="1" /><polyline fill="none" opacity="100" points="103.0,353.0 153.0,353.0" stroke="#000" stroke-width="1" /><polyline fill="none" opacity="100" points="103.0,357.0 153.0,357.0" stroke="#000" stroke-width="1" /><polyline fill="none" opacity="100" points="103.0,361.0 153.0,361.0" stroke="#000" stroke-width="1" /><polyline fill="none" opacity="100" points="103.0,365.0 153.0,365.0" stroke="#000" stroke-width="1" /><polyline fill="none" opacity="100" points="103.0,369.0 153.0,369.0" stroke="#000" stroke-width="1" /><polyline fill="none" opacity="100" points="103.0,373.0 153.0,373.0" stroke="#000" stroke-width="1" /><polyline fill="none" opacity="100" points="233.0,358.0 271.0,396.0" stroke="#000" stroke-width="1" /><polyline fill="none" opacity="100" points="230.1716,360.8284 268.1716,398.8284" stroke="#000" stroke-width="1" /><polyline fill="none" opacity="100" points="227.3431,363.6569 265.3431,401.6569" stroke="#000" stroke-width="1" /><polyline fill="none" opacity="100" points="224.5147,366.4853 262.5147,404.4853" stroke="#000" stroke-width="1" /><polyline fill="none" opacity="100" points="221.6863,369.3137 259.6863,407.3137" stroke="#000" stroke-width="1" /><polyline fill="none" opacity="100" points="218.8579,372.1421 256.8579,410.1421" stroke="#000" stroke-width="1" /><polyline fill="none" opacity="100" points="216.0294,374.9706 254.0294,412.9706" stroke="#000" stroke-width="1" /><polyline fill="none" opacity="100" points="213.201,377.799 251.201,415.799" stroke="#000" stroke-width="1" /><polyline fill="none" opacity="100" points="210.3726,380.6274 248.3726,418.6274" stroke="#000" stroke-width="1" /><polyline fill="none" opacity="100" points="201.0,390.0 239.0,428.0" stroke="#000" stroke-width="1" /><polyline fill="none" opacity="100" points="198.1716,392.8284 236.1716,430.8284" stroke="#000" stroke-width="1" /><polyline fill="none" opacity="100" points="195.3431,395.6569 233.3431,433.6569" stroke="#000" stroke-width="1" /><polyline fill="none" opacity="100" points="192.5147,398.4853 230.5147,436.4853" stroke="#000" stroke-width="1" /><polyline fill="none" opacity="100" points="189.6863,401.3137 227.6863,439.3137" stroke="#000" stroke-width="1" /><polyline fill="none" opacity="100" points="186.8579,404.1421 224.8579,442.1421" stroke="#000" stroke-width="1" /><polyline fill="none" opacity="100" points="184.0294,406.9706 222.0294,444.9706" stroke="#000" stroke-width="1" /><polyline fill="none" opacity="100" points="181.201,409.799 219.201,447.799" stroke="#000" stroke-width="1" /><polyline fill="none" opacity="100" points="178.3726,412.6274 216.3726,450.6274" stroke="#000" stroke-width="1" /><polyline fill="none" opacity="100" points="175.5442,415.4558 213.5442,453.4558" stroke="#000" stroke-width="1" /><polyline fill="none" opacity="100" points="-108.0,492.0 -56.0,492.0" stroke="#000" stroke-width="1" /><polyline fill="none" opacity="100" points="-108.0,496.0 -56.0,496.0" stroke="#000" stroke-width="1" /><polyline fill="none" opacity="100" points="-108.0,500.0 -56.0,500.0" stroke="#000" stroke-width="1" /><polyline fill="none" opacity="100" points="-108.0,504.0 -56.0,504.0" stroke="#000" stroke-width="1" /><polyline fill="none" opacity="100" points="-108.0,508.0 -56.0,508.0" stroke="#000" stroke-width="1" /><polyline fill="none" opacity="100" points="-108.0,512.0 -56.0,512.0" stroke="#000" stroke-width="1" /><polyline fill="none" opacity="100" points="-108.0,516.0 -56.0,516.0" stroke="#000" stroke-width="1" /><polyline fill="none" opacity="100" points="-108.0,520.0 -56.0,520.0" stroke="#000" stroke-width="1" /><polyline fill="none" opacity="100" points="-108.0,524.0 -56.0,524.0" stroke="#000" stroke-width="1" /><polyline fill="none" opacity="100" points="-108.0,528.0 -56.0,528.0" stroke="#000" stroke-width="1" /><polyline fill="none" opacity="100" points="-108.0,539.0 -56.0,539.0" stroke="#000" stroke-width="1" /><polyline fill="none" opacity="100" points="-108.0,543.0 -56.0,543.0" stroke="#000" stroke-width="1" /><polyline fill="none" opacity="100" points="-108.0,547.0 -56.0,547.0" stroke="#000" stroke-width="1" /><polyline fill="none" opacity="100" points="-108.0,551.0 -56.0,551.0" stroke="#000" stroke-width="1" /><polyline fill="none" opacity="100" points="-108.0,555.0 -56.0,555.0" stroke="#000" stroke-width="1" /><polyline fill="none" opacity="100" points="-108.0,559.0 -56.0,559.0" stroke="#000" stroke-width="1" /><polyline fill="none" opacity="100" points="-108.0,563.0 -56.0,563.0" stroke="#000" stroke-width="1" /><polyline fill="none" opacity="100" points="-108.0,567.0 -56.0,567.0" stroke="#000" stroke-width="1" /><polyline fill="none" opacity="100" points="-108.0,571.0 -56.0,571.0" stroke="#000" stroke-width="1" /><polyline fill="none" opacity="100" points="-108.0,575.0 -56.0,575.0" stroke="#000" stroke-width="1" /><polyline fill="none" opacity="100" points="-108.0,777.0 -56.0,777.0" stroke="#000" stroke-width="1" /><polyline fill="none" opacity="100" points="-108.0,773.0 -56.0,773.0" stroke="#000" stroke-width="1" /><polyline fill="none" opacity="100" points="-108.0,769.0 -56.0,769.0" stroke="#000" stroke-width="1" /><polyline fill="none" opacity="100" points="-108.0,765.0 -56.0,765.0" stroke="#000" stroke-width="1" /><polyline fill="none" opacity="100" points="-108.0,761.0 -56.0,761.0" stroke="#000" stroke-width="1" /><polyline fill="none" opacity="100" points="-108.0,757.0 -56.0,757.0" stroke="#000" stroke-width="1" /><polyline fill="none" opacity="100" points="-108.0,753.0 -56.0,753.0" stroke="#000" stroke-width="1" /><polyline fill="none" opacity="100" points="-108.0,749.0 -56.0,749.0" stroke="#000" stroke-width="1" /><polyline fill="none" opacity="100" points="-108.0,745.0 -56.0,745.0" stroke="#000" stroke-width="1" /><polyline fill="none" opacity="100" points="-108.0,741.0 -56.0,741.0" stroke="#000" stroke-width="1" /><polyline fill="none" opacity="100" points="-108.0,730.0 -56.0,730.0" stroke="#000" stroke-width="1" /><polyline fill="none" opacity="100" points="-108.0,726.0 -56.0,726.0" stroke="#000" stroke-width="1" /><polyline fill="none" opacity="100" points="-108.0,722.0 -56.0,722.0" stroke="#000" stroke-width="1" /><polyline fill="none" opacity="100" points="-108.0,718.0 -56.0,718.0" stroke="#000" stroke-width="1" /><polyline fill="none" opacity="100" points="-108.0,714.0 -56.0,714.0" stroke="#000" stroke-width="1" /><polyline fill="none" opacity="100" points="-108.0,710.0 -56.0,710.0" stroke="#000" stroke-width="1" /><polyline fill="none" opacity="100" points="-108.0,706.0 -56.0,706.0" stroke="#000" stroke-width="1" /><polyline fill="none" opacity="100" points="-108.0,702.0 -56.0,702.0" stroke="#000" stroke-width="1" /><polyline fill="none" opacity="100" points="-108.0,698.0 -56.0,698.0" stroke="#000" stroke-width="1" /><polyline fill="none" opacity="100" points="-108.0,694.0 -56.0,694.0" stroke="#000" stroke-width="1" /><polyline fill="none" opacity="100" points="289.0,807.0 289.0,757.0" stroke="#000" stroke-width="1" /><polyline fill="none" opacity="100" points="285.0,807.0 285.0,757.0" stroke="#000" stroke-width="1" /><polyline fill="none" opacity="100" points="281.0,807.0 281.0,757.0" stroke="#000" stroke-width="1" /><polyline fill="none" opacity="100" points="277.0,807.0 277.0,757.0" stroke="#000" stroke-width="1" /><polyline fill="none" opacity="100" points="273.0,807.0 273.0,757.0" stroke="#000" stroke-width="1" /><polyline fill="none" opacity="100" points="269.0,807.0 269.0,757.0" stroke="#000" stroke-width="1" /><polyline fill="none" opacity="100" points="265.0,807.0 265.0,757.0" stroke="#000" stroke-width="1" /><polyline fill="none" opacity="100" points="261.0,807.0 261.0,757.0" stroke="#000" stroke-width="1" /><polyline fill="none" opacity="100" points="257.0,807.0 257.0,757.0" stroke="#000" stroke-width="1" /><polyline fill="none" opacity="100" points="253.0,807.0 253.0,757.0" stroke="#000" stroke-width="1" /><polyline fill="none" opacity="100" points="242.0,807.0 242.0,757.0" stroke="#000" stroke-width="1" /><polyline fill="none" opacity="100" points="238.0,807.0 238.0,757.0" stroke="#000" stroke-width="1" /><polyline fill="none" opacity="100" points="234.0,807.0 234.0,757.0" stroke="#000" stroke-width="1" /><polyline fill="none" opacity="100" points="230.0,807.0 230.0,757.0" stroke="#000" stroke-width="1" /><polyline fill="none" opacity="100" points="226.0,807.0 226.0,757.0" stroke="#000" stroke-width="1" /><polyline fill="none" opacity="100" points="222.0,807.0 222.0,757.0" stroke="#000" stroke-width="1" /><polyline fill="none" opacity="100" points="218.0,807.0 218.0,757.0" stroke="#000" stroke-width="1" /><polyline fill="none" opacity="100" points="214.0,807.0 214.0,757.0" stroke="#000" stroke-width="1" /><polyline fill="none" opacity="100" points="210.0,807.0 210.0,757.0" stroke="#000" stroke-width="1" /><polyline fill="none" opacity="100" points="206.0,807.0 206.0,757.0" stroke="#000" stroke-width="1" /><polyline fill="none" opacity="100" points="267.0,670.0 267.0,603.0" stroke="#000" stroke-width="1" /><polyline fill="none" opacity="100" points="263.0,670.0 263.0,603.0" stroke="#000" stroke-width="1" /><polyline fill="none" opacity="100" points="259.0,670.0 259.0,603.0" stroke="#000" stroke-width="1" /><polyline fill="none" opacity="100" points="255.0,670.0 255.0,603.0" stroke="#000" stroke-width="1" /><polyline fill="none" opacity="100" points="251.0,670.0 251.0,603.0" stroke="#000" stroke-width="1" /><polyline fill="none" opacity="100" points="378.0,674.0 341.0,674.0" stroke="#000" stroke-width="1" /><polyline fill="none" opacity="100" points="378.0,599.0 341.0,599.0" stroke="#000" stroke-width="1" /><polyline fill="none" opacity="100" points="341.0,599.0 341.0,674.0" stroke="#000" stroke-dasharray="5,5" stroke-width="1" /><polyline fill="none" opacity="100" points="378.0,637.0 341.0,637.0" stroke="#000" stroke-width="1" /><polyline fill="none" opacity="100" points="892.0,608.0 855.0,608.0 855.0,664.0 891.0,664.0" stroke="#000" stroke-dasharray="5,5" stroke-width="1" /><polyline fill="none" opacity="100" points="892.0,608.0 896.5078,611.5 900.4062,615.0 903.6953,618.5 906.375,622.0 908.4453,625.5 909.9062,629.0 910.7578,632.5 911.0,636.0 910.6328,639.5 909.6562,643.0 908.0703,646.5 905.875,650.0 903.0703,653.5 899.6562,657.0 895.6328,660.5 891.0,664.0" stroke="#000" stroke-width="1" /><polyline fill="none" opacity="100" points="1153.0,608.0 1119.0,608.0 1119.0,664.0 1153.0,664.0" stroke="#000" stroke-dasharray="5,5" stroke-width="1" /><polyline fill="none" opacity="100" points="1153.0,608.0 1157.4531,611.5 1161.3125,615.0 1164.5781,618.5 1167.25,622.0 1169.3281,625.5 1170.8125,629.0 1171.7031,632.5 1172.0,636.0 1171.7031,639.5 1170.8125,643.0 1169.3281,646.5 1167.25,650.0 1164.5781,653.5 1161.3125,657.0 1157.4531,660.5 1153.0,664.0" stroke="#000" stroke-width="1" /><polyline fill="none" opacity="100" points="892.0,608.0 1035.0,608.0 1035.0,664.0 891.0,664.0" stroke="#C0C0C0" stroke-dasharray="5,5" stroke-width="1" /><polyline fill="none" opacity="100" points="1153.0,608.0 1287.0,608.0 1287.0,664.0 1153.0,664.0" stroke="#C0C0C0" stroke-dasharray="5,5" stroke-width="1" /><polyline fill="none" opacity="100" points="1253.0,830.0 1119.0,830.0 1119.0,892.0 1253.0,892.0" stroke="#C0C0C0" stroke-dasharray="5,5" stroke-width="1" /><polyline fill="none" opacity="100" points="1001.0,830.0 855.0,830.0 855.0,892.0 1001.0,892.0" stroke="#C0C0C0" stroke-dasharray="5,5" stroke-width="1" /><ellipse cx="958.5" cy="636.5" fill="none" opacity="100" rx="24.5" ry="24.5" stroke="#000" stroke-width="1" /><ellipse cx="1015.5" cy="636.5" fill="none" opacity="100" rx="24.5" ry="24.5" stroke="#000" stroke-width="1" /><ellipse cx="1072.5" cy="636.5" fill="none" opacity="100" rx="24.5" ry="24.5" stroke="#000" stroke-width="1" /><polyline fill="none" opacity="100" points="1484.0,809.0 1484.0,914.0" stroke="#000" stroke-width="1" /><polyline fill="none" opacity="100" points="926.0,809.0 926.0,830.0 938.0,830.0 938.0,892.0 926.0,892.0 926.0,913.0" stroke="#000" stroke-width="1" /><polyline fill="none" opacity="100" points="1001.0,830.0 1035.0,830.0 1035.0,892.0 1001.0,892.0" stroke="#000" stroke-dasharray="5,5" stroke-width="1" /><polyline fill="none" opacity="100" points="1253.0,830.0 1287.0,830.0 1287.0,892.0 1253.0,892.0" stroke="#000" stroke-dasharray="5,5" stroke-width="1" /><polyline fill="none" opacity="100" points="1001.0,830.0 1001.0,892.0" stroke="#000" stroke-width="1" /><polyline fill="none" opacity="100" points="1253.0,830.0 1253.0,892.0" stroke="#000" stroke-width="1" /><polyline fill="none" opacity="100" points="245.0,616.0 229.0,616.0" stroke="#F00" stroke-width="1" /><polygon fill="#F00" opacity="100" points="233.6364,614.7577 229.0,616.0 233.6364,617.2423" stroke="#F00" stroke-width="1" /><polyline fill="none" opacity="100" points="229.0,656.0 245.0,656.0" stroke="#008000" stroke-width="1" /><polygon fill="#008000" opacity="100" points="240.3636,657.2423 245.0,656.0 240.3636,654.7577" stroke="#008000" stroke-width="1" /><text fill="#EA7B16" font-family="Arial" font-size="20" font-weight="normal" opacity="100" transform="rotate(-0.0 778.0,538.0) translate(0 20)" x="778.0" y="538.0">&lt;&lt; Чкаловская</text><text fill="#EA7B16" font-family="Arial" font-size="20" font-weight="normal" opacity="100" transform="rotate(-0.0 1376.0,770.0) translate(0 20)" x="1376.0" y="770.0">Садовая &gt;&gt;</text><text fill="#EA7B16" font-family="Arial" font-size="25" font-weight="bold" opacity="100" transform="rotate(-0.0 1023.0,726.0) translate(0 25)" x="1023.0" y="726.0">Спортивная</text><text fill="#808080" font-family="Arial" font-size="15" font-weight="normal" opacity="100" transform="rotate(-0.0 780.0,710.0) translate(0 15)" x="780.0" y="710.0">верхний зал</text><text fill="#808080" font-family="Arial" font-size="15" font-weight="normal" opacity="100" transform="rotate(-0.0 935.0,774.0) translate(0 15)" x="935.0" y="774.0">нижний зал</text><text fill="#00AFAF" font-family="Arial" font-size="15" font-weight="normal" opacity="100" transform="rotate(-90.0 -224.0,650.0) translate(0 15)" x="-224.0" y="650.0">Большой проспект</text><text fill="#00AFAF" font-family="Arial" font-size="15" font-weight="normal" opacity="100" transform="rotate(-0.0 232.0,178.0) translate(0 15)" x="232.0" y="178.0">проспект Добролюбова</text></g></g></svg>