<?xml version="1.0" encoding="utf-8" ?>
<svg baseProfile="tiny" height="1090px" version="1.2" width="260px" xmlns="http://www.w3.org/2000/svg" xmlns:ev="http://www.w3.org/2001/xml-events" xmlns:xlink="http://www.w3.org/1999/xlink"><defs /><g><g transform="rotate(85.0,130.0,545.0)"><polygon fill="#EA7B16" opacity="100" points="91.0,489.0 91.0,475.0 649.0,475.0 649.0,489.0" stroke="#000" stroke-width="1" /><polygon fill="#EA7B16" opacity="100" points="91.0,607.0 91.0,621.0 649.0,621.0 649.0,607.0" stroke="#000" stroke-width="1" /><polyline fill="none" opacity="100" points="649.0,489.0 649.0,514.0 598.0,514.0 598.0,582.0 649.0,582.0 649.0,607.0" stroke="#000" stroke-width="1" /><polyline fill="none" opacity="100" points="91.0,489.0 91.0,511.0 47.0,511.0" stroke="#000" stroke-width="1" /><polyline fill="none" opacity="100" points="91.0,607.0 91.0,585.0 47.0,585.0" stroke="#000" stroke-width="1" /><polyline fill="none" opacity="100" points="47.0,511.0 47.0,585.0 -229.0,585.0 -229.0,511.0 47.0,511.0" stroke="#000" stroke-dasharray="5,5" stroke-width="1" /><polyline fill="none" opacity="100" points="-222.0,511.0 -224.0312,509.1875 -226.125,507.5 -228.2815,505.9365 -230.5,504.5 -232.7791,503.1963 -235.1211,502.0156 -237.5269,500.9551 -240.0,500.0 -242.5474,499.123 -245.1602,498.3594 -247.8352,497.7327 -250.5625,497.25 -253.323,496.9216 -256.1406,496.7617 -259.0215,496.7788 -262.0,497.0 -265.1426,497.4673 -268.3594,498.1445 -271.5896,499.0112 -274.8125,500.0625 -277.9983,501.2856 -281.1133,502.6836 -284.1353,504.2573 -287.0,506.0 -289.6108,507.9028 -292.043,509.9727 -294.3367,512.2131 -296.5,514.625 -298.5598,517.2107 -300.5,519.9688 -302.3125,522.8984 -304.0,526.0" stroke="#000" stroke-width="1" /><polyline fill="none" opacity="100" points="-222.0,585.0 -224.0312,586.8125 -226.125,588.5 -228.2815,590.0635 -230.5,591.5 -232.7791,592.8037 -235.1211,593.9844 -237.5269,595.0449 -240.0,596.0 -242.5474,596.877 -245.1602,597.6406 -247.8352,598.2673 -250.5625,598.75 -253.323,599.0784 -256.1406,599.2383 -259.0215,599.2212 -262.0,599.0 -265.1426,598.5327 -268.3594,597.8555 -271.5896,596.9888 -274.8125,595.9375 -277.9983,594.7144 -281.1133,593.3164 -284.1353,591.7427 -287.0,590.0 -289.6108,588.0972 -292.043,586.0273 -294.3367,583.7869 -296.5,581.375 -298.5598,578.7893 -300.5,576.0312 -302.3125,573.1016 -304.0,570.0" stroke="#000" stroke-width="1" /><polyline fill="none" opacity="100" points="-304.0,526.0 -320.0,526.0 -320.0,509.0 -331.0,509.0 -331.0,478.0 -292.0,478.0" stroke="#000" stroke-width="1" /><polyline fill="none" opacity="100" points="-361.0,511.0 -361.0,508.0 -371.0,508.0 -384.0,524.0 -384.0,576.0 -373.0,591.0 -361.0,591.0 -361.0,587.0" stroke="#000" stroke-width="1" /><polyline fill="none" opacity="100" points="-304.0,570.0 -320.0,570.0 -320.0,590.0 -331.0,590.0 -331.0,621.0 -294.0,621.0" stroke="#000" stroke-width="1" /><polyline fill="none" opacity="100" points="-384.0,541.0 -338.0,541.0 -331.0,548.0 -271.0,548.0 -263.0,540.0 -253.0,540.0 -229.0,550.0" stroke="#000" stroke-width="1" /><polyline fill="none" opacity="100" points="-259.0,497.0 -259.0,599.0" stroke="#000" stroke-dasharray="5,5" stroke-width="1" /><polyline fill="none" opacity="100" points="-349.0,518.0 -349.0,503.0" stroke="#F00" stroke-width="1" /><polygon fill="#F00" opacity="100" points="-347.8353,507.3467 -349.0,503.0 -350.1647,507.3467" stroke="#F00" stroke-width="1" /><polyline fill="none" opacity="100" points="-351.0,599.0 -351.0,584.0" stroke="#008000" stroke-width="1" /><polygon fill="#008000" opacity="100" points="-349.8353,588.3467 -351.0,584.0 -352.1647,588.3467" stroke="#008000" stroke-width="1" /><text fill="#EA7B16" font-family="Arial" font-size="20" font-weight="normal" opacity="100" transform="rotate(-0.0 98.0,450.0) translate(0 20)" x="98.0" y="450.0">&lt;&lt; Комендантский пр.</text><text fill="#EA7B16" font-family="Arial" font-size="20" font-weight="normal" opacity="100" transform="rotate(-0.0 439.0,624.0) translate(0 20)" x="439.0" y="624.0">Крестовский остров &gt;&gt;</text><text fill="#EA7B16" font-family="Arial" font-size="25" font-weight="bold" opacity="100" transform="rotate(-0.0 290.0,534.0) translate(0 25)" x="290.0" y="534.0">Старая деревня</text><text fill="#00AFAF" font-family="Arial" font-size="15" font-weight="normal" opacity="100" transform="rotate(-0.0 -383.0,417.0) translate(0 15)" x="-383.0" y="417.0">Торфяная улица</text></g></g></svg>