<?xml version="1.0" encoding="utf-8" ?>
<svg baseProfile="tiny" height="1265px" version="1.2" width="1062px" xmlns="http://www.w3.org/2000/svg" xmlns:ev="http://www.w3.org/2001/xml-events" xmlns:xlink="http://www.w3.org/1999/xlink"><defs /><g><g transform="rotate(37.0,531.0,632.5)"><polygon fill="#DC004B" opacity="100" points="674.0,542.0 674.0,906.0 654.0,897.0 654.0,542.0" stroke="none" stroke-width="1" /><polygon fill="#DC004B" opacity="100" points="674.0,960.0 674.0,1271.0 654.0,1271.0 654.0,968.0" stroke="none" stroke-width="1" /><polygon fill="#DC004B" opacity="100" points="460.0,1332.0 440.0,1332.0 440.0,567.0 460.0,567.0" stroke="none" stroke-width="1" /><polygon fill="#0071B9" opacity="100" points="838.0,474.0 838.0,1102.0 858.0,1102.0 858.0,474.0" stroke="none" stroke-width="1" /><polygon fill="#0071B9" opacity="100" points="599.0,567.0 619.0,567.0 619.0,887.0 599.0,887.0" stroke="none" stroke-width="1" /><polygon fill="#0071B9" opacity="100" points="599.0,979.0 619.0,979.0 619.0,1332.0 599.0,1332.0" stroke="none" stroke-width="1" /><polyline fill="none" opacity="100" points="542.0,-143.0" stroke="none" stroke-width="1" /><polygon fill="#808080" opacity="100" points="696.0,820.0 714.0,820.0 714.0,849.0 722.0,849.0 722.0,910.0 696.0,910.0" stroke="#000" stroke-width="1" /><polygon fill="#808080" opacity="100" points="798.0,820.0 816.0,820.0 816.0,1011.0 765.0,1011.0 765.0,1008.0 747.0,1008.0 747.0,1011.0 696.0,1011.0 696.0,956.0 797.0,956.0 797.0,910.0 792.0,910.0 792.0,849.0 798.0,849.0" stroke="#000" stroke-width="1" /><polygon fill="#808080" opacity="100" points="816.0,1022.0 816.0,1089.0 811.0,1089.0 811.0,1086.0 760.0,1059.0 760.0,1062.0 746.0,1062.0 746.0,1059.0 710.0,1059.0 710.0,1062.0 696.0,1062.0 696.0,1022.0" stroke="#000" stroke-width="1" /><polygon fill="#808080" opacity="100" points="621.0,915.0 626.0,915.0 660.0,927.0 660.0,939.0 629.0,951.0 621.0,951.0" stroke="#000" stroke-width="1" /><polyline fill="none" opacity="100" points="674.0,1271.0 696.0,1271.0 696.0,1073.0 760.0,1073.0 760.0,1075.0 806.0,1098.0 816.0,1098.0 816.0,1102.0 838.0,1102.0" stroke="#000" stroke-width="1" /><polyline fill="none" opacity="100" points="674.0,542.0 696.0,542.0 696.0,580.0 714.0,580.0 714.0,567.0 722.0,567.0 722.0,545.0 717.0,545.0 717.0,524.0" stroke="#000" stroke-width="1" /><polyline fill="none" opacity="100" points="797.0,524.0 797.0,545.0 790.0,545.0 790.0,567.0 798.0,567.0 798.0,580.0 816.0,580.0 816.0,474.0 838.0,474.0" stroke="#000" stroke-width="1" /><polyline fill="none" opacity="100" points="584.0,887.0 629.0,887.0 683.0,910.0 696.0,910.0" stroke="#000" stroke-width="1" /><polyline fill="none" opacity="100" points="584.0,979.0 629.0,979.0 683.0,956.0 696.0,956.0" stroke="#000" stroke-width="1" /><polyline fill="none" opacity="100" points="460.0,1332.0 478.0,1332.0 478.0,1293.0 485.0,1293.0 485.0,1234.0 575.0,1234.0 575.0,1293.0 582.0,1293.0 582.0,1332.0 599.0,1332.0" stroke="#000" stroke-width="1" /><polyline fill="none" opacity="100" points="460.0,567.0 478.0,567.0 478.0,592.0 485.0,592.0 485.0,567.0 504.0,567.0 504.0,540.0 496.0,540.0 496.0,514.0" stroke="#000" stroke-width="1" /><polyline fill="none" opacity="100" points="599.0,567.0 582.0,567.0 582.0,592.0 575.0,592.0 575.0,567.0 556.0,567.0 556.0,540.0 564.0,540.0 564.0,514.0" stroke="#000" stroke-width="1" /><polyline fill="none" opacity="100" points="722.0,849.0 792.0,849.0" stroke="#000" stroke-width="1" /><polyline fill="none" opacity="100" points="722.0,853.0 792.0,853.0" stroke="#000" stroke-width="1" /><polyline fill="none" opacity="100" points="722.0,857.0 792.0,857.0" stroke="#000" stroke-width="1" /><polyline fill="none" opacity="100" points="722.0,861.0 792.0,861.0" stroke="#000" stroke-width="1" /><polyline fill="none" opacity="100" points="722.0,865.0 792.0,865.0" stroke="#000" stroke-width="1" /><polyline fill="none" opacity="100" points="722.0,869.0 792.0,869.0" stroke="#000" stroke-width="1" /><polyline fill="none" opacity="100" points="722.0,873.0 792.0,873.0" stroke="#000" stroke-width="1" /><polyline fill="none" opacity="100" points="722.0,877.0 792.0,877.0" stroke="#000" stroke-width="1" /><polyline fill="none" opacity="100" points="722.0,881.0 792.0,881.0" stroke="#000" stroke-width="1" /><polyline fill="none" opacity="100" points="722.0,885.0 792.0,885.0" stroke="#000" stroke-width="1" /><polyline fill="none" opacity="100" points="722.0,889.0 792.0,889.0" stroke="#000" stroke-width="1" /><polyline fill="none" opacity="100" points="722.0,893.0 792.0,893.0" stroke="#000" stroke-width="1" /><polyline fill="none" opacity="100" points="722.0,897.0 792.0,897.0" stroke="#000" stroke-width="1" /><polyline fill="none" opacity="100" points="722.0,901.0 792.0,901.0" stroke="#000" stroke-width="1" /><polyline fill="none" opacity="100" points="722.0,911.0 722.0,955.0" stroke="#000" stroke-width="1" /><polyline fill="none" opacity="100" points="718.0055,910.7898 718.0055,954.7898" stroke="#000" stroke-width="1" /><polyline fill="none" opacity="100" points="714.0111,910.5795 714.0111,954.5795" stroke="#000" stroke-width="1" /><polyline fill="none" opacity="100" points="710.0166,910.3693 710.0166,954.3693" stroke="#000" stroke-width="1" /><polyline fill="none" opacity="100" points="706.0221,910.1591 706.0221,954.1591" stroke="#000" stroke-width="1" /><polyline fill="none" opacity="100" points="600.0,887.0 600.0,979.0" stroke="#000" stroke-width="1" /><polyline fill="none" opacity="100" points="596.0,887.0 596.0,979.0" stroke="#000" stroke-width="1" /><polyline fill="none" opacity="100" points="592.0,887.0 592.0,979.0" stroke="#000" stroke-width="1" /><polyline fill="none" opacity="100" points="588.0,887.0 588.0,979.0" stroke="#000" stroke-width="1" /><polyline fill="none" opacity="100" points="584.0,887.0 584.0,979.0" stroke="#000" stroke-width="1" /><polyline fill="none" opacity="100" points="580.0,887.0 580.0,979.0" stroke="#000" stroke-width="1" /><polyline fill="none" opacity="100" points="576.0,887.0 576.0,979.0" stroke="#000" stroke-width="1" /><polyline fill="none" opacity="100" points="562.0,882.0 562.0,980.0" stroke="#000" stroke-width="1" /><polyline fill="none" opacity="100" points="566.0,882.0 566.0,980.0" stroke="#000" stroke-width="1" /><polyline fill="none" opacity="100" points="570.0,882.0 570.0,980.0" stroke="#000" stroke-width="1" /><polyline fill="none" opacity="100" points="696.0,910.0 696.0,958.0" stroke="#000" stroke-dasharray="5,5" stroke-width="1" /><polyline fill="none" opacity="100" points="674.0,907.0 674.0,960.0" stroke="#000" stroke-dasharray="5,5" stroke-width="1" /><polyline fill="none" opacity="100" points="599.0,887.0 599.0,980.0" stroke="#000" stroke-dasharray="5,5" stroke-width="1" /><polyline fill="none" opacity="100" points="587.0,888.0 587.0,978.0" stroke="#000" stroke-dasharray="5,5" stroke-width="1" /><polygon fill="#808080" opacity="100" points="696.0,591.0 714.0,591.0 714.0,607.0 696.0,607.0" stroke="#000" stroke-width="1" /><polygon fill="#808080" opacity="100" points="798.0,591.0 816.0,591.0 816.0,607.0 798.0,607.0" stroke="#000" stroke-width="1" /><polygon fill="#808080" opacity="100" points="696.0,617.0 714.0,617.0 714.0,633.0 696.0,633.0" stroke="#000" stroke-width="1" /><polygon fill="#808080" opacity="100" points="798.0,617.0 816.0,617.0 816.0,633.0 798.0,633.0" stroke="#000" stroke-width="1" /><polygon fill="#808080" opacity="100" points="696.0,642.0 714.0,642.0 714.0,658.0 696.0,658.0" stroke="#000" stroke-width="1" /><polygon fill="#808080" opacity="100" points="798.0,642.0 816.0,642.0 816.0,658.0 798.0,658.0" stroke="#000" stroke-width="1" /><polygon fill="#808080" opacity="100" points="696.0,667.0 714.0,667.0 714.0,683.0 696.0,683.0" stroke="#000" stroke-width="1" /><polygon fill="#808080" opacity="100" points="798.0,667.0 816.0,667.0 816.0,683.0 798.0,683.0" stroke="#000" stroke-width="1" /><polygon fill="#808080" opacity="100" points="696.0,693.0 714.0,693.0 714.0,709.0 696.0,709.0" stroke="#000" stroke-width="1" /><polygon fill="#808080" opacity="100" points="798.0,693.0 816.0,693.0 816.0,709.0 798.0,709.0" stroke="#000" stroke-width="1" /><polygon fill="#808080" opacity="100" points="696.0,718.0 714.0,718.0 714.0,734.0 696.0,734.0" stroke="#000" stroke-width="1" /><polygon fill="#808080" opacity="100" points="798.0,718.0 816.0,718.0 816.0,734.0 798.0,734.0" stroke="#000" stroke-width="1" /><polygon fill="#808080" opacity="100" points="696.0,744.0 714.0,744.0 714.0,760.0 696.0,760.0" stroke="#000" stroke-width="1" /><polygon fill="#808080" opacity="100" points="798.0,744.0 816.0,744.0 816.0,760.0 798.0,760.0" stroke="#000" stroke-width="1" /><polygon fill="#808080" opacity="100" points="696.0,769.0 714.0,769.0 714.0,785.0 696.0,785.0" stroke="#000" stroke-width="1" /><polygon fill="#808080" opacity="100" points="798.0,769.0 816.0,769.0 816.0,785.0 798.0,785.0" stroke="#000" stroke-width="1" /><polygon fill="#808080" opacity="100" points="696.0,794.0 714.0,794.0 714.0,810.0 696.0,810.0" stroke="#000" stroke-width="1" /><polygon fill="#808080" opacity="100" points="798.0,794.0 816.0,794.0 816.0,810.0 798.0,810.0" stroke="#000" stroke-width="1" /><polygon fill="#808080" opacity="100" points="478.0,606.0 486.0,606.0 486.0,615.0 478.0,615.0" stroke="#000" stroke-width="1" /><polygon fill="#808080" opacity="100" points="574.0,606.0 582.0,606.0 582.0,615.0 574.0,615.0" stroke="#000" stroke-width="1" /><polygon fill="#808080" opacity="100" points="478.0,628.0 486.0,628.0 486.0,637.0 478.0,637.0" stroke="#000" stroke-width="1" /><polygon fill="#808080" opacity="100" points="574.0,628.0 582.0,628.0 582.0,637.0 574.0,637.0" stroke="#000" stroke-width="1" /><polygon fill="#808080" opacity="100" points="478.0,650.0 486.0,650.0 486.0,659.0 478.0,659.0" stroke="#000" stroke-width="1" /><polygon fill="#808080" opacity="100" points="574.0,650.0 582.0,650.0 582.0,659.0 574.0,659.0" stroke="#000" stroke-width="1" /><polygon fill="#808080" opacity="100" points="478.0,672.0 486.0,672.0 486.0,681.0 478.0,681.0" stroke="#000" stroke-width="1" /><polygon fill="#808080" opacity="100" points="574.0,672.0 582.0,672.0 582.0,681.0 574.0,681.0" stroke="#000" stroke-width="1" /><polygon fill="#808080" opacity="100" points="478.0,694.0 486.0,694.0 486.0,703.0 478.0,703.0" stroke="#000" stroke-width="1" /><polygon fill="#808080" opacity="100" points="574.0,694.0 582.0,694.0 582.0,703.0 574.0,703.0" stroke="#000" stroke-width="1" /><polygon fill="#808080" opacity="100" points="478.0,715.0 486.0,715.0 486.0,724.0 478.0,724.0" stroke="#000" stroke-width="1" /><polygon fill="#808080" opacity="100" points="574.0,715.0 582.0,715.0 582.0,724.0 574.0,724.0" stroke="#000" stroke-width="1" /><polygon fill="#808080" opacity="100" points="478.0,737.0 486.0,737.0 486.0,746.0 478.0,746.0" stroke="#000" stroke-width="1" /><polygon fill="#808080" opacity="100" points="574.0,737.0 582.0,737.0 582.0,746.0 574.0,746.0" stroke="#000" stroke-width="1" /><polygon fill="#808080" opacity="100" points="478.0,759.0 486.0,759.0 486.0,768.0 478.0,768.0" stroke="#000" stroke-width="1" /><polygon fill="#808080" opacity="100" points="574.0,759.0 582.0,759.0 582.0,768.0 574.0,768.0" stroke="#000" stroke-width="1" /><polygon fill="#808080" opacity="100" points="478.0,782.0 486.0,782.0 486.0,791.0 478.0,791.0" stroke="#000" stroke-width="1" /><polygon fill="#808080" opacity="100" points="574.0,782.0 582.0,782.0 582.0,791.0 574.0,791.0" stroke="#000" stroke-width="1" /><polygon fill="#808080" opacity="100" points="478.0,803.0 486.0,803.0 486.0,812.0 478.0,812.0" stroke="#000" stroke-width="1" /><polygon fill="#808080" opacity="100" points="574.0,803.0 582.0,803.0 582.0,812.0 574.0,812.0" stroke="#000" stroke-width="1" /><polygon fill="#808080" opacity="100" points="478.0,825.0 486.0,825.0 486.0,834.0 478.0,834.0" stroke="#000" stroke-width="1" /><polygon fill="#808080" opacity="100" points="574.0,825.0 582.0,825.0 582.0,834.0 574.0,834.0" stroke="#000" stroke-width="1" /><polygon fill="#808080" opacity="100" points="478.0,848.0 486.0,848.0 486.0,857.0 478.0,857.0" stroke="#000" stroke-width="1" /><polygon fill="#808080" opacity="100" points="574.0,848.0 582.0,848.0 582.0,857.0 574.0,857.0" stroke="#000" stroke-width="1" /><polygon fill="#808080" opacity="100" points="478.0,869.0 486.0,869.0 486.0,872.0 495.0,872.0 495.0,881.0 492.0,881.0 485.0,892.0 478.0,892.0" stroke="#000" stroke-width="1" /><polygon fill="#808080" opacity="100" points="582.0,869.0 574.0,869.0 574.0,872.0 564.0,872.0 564.0,881.0 567.0,881.0 575.0,892.0 582.0,892.0" stroke="#000" stroke-width="1" /><polygon fill="#808080" opacity="100" points="478.0,994.0 486.0,994.0 486.0,990.0 495.0,990.0 495.0,980.0 492.0,980.0 485.0,971.0 478.0,971.0" stroke="#000" stroke-width="1" /><polygon fill="#808080" opacity="100" points="582.0,994.0 574.0,994.0 574.0,990.0 564.0,990.0 564.0,980.0 567.0,980.0 575.0,971.0 582.0,971.0" stroke="#000" stroke-width="1" /><polygon fill="#808080" opacity="100" points="478.0,1007.0 486.0,1007.0 486.0,1016.0 478.0,1016.0" stroke="#000" stroke-width="1" /><polygon fill="#808080" opacity="100" points="574.0,1007.0 582.0,1007.0 582.0,1016.0 574.0,1016.0" stroke="#000" stroke-width="1" /><polygon fill="#808080" opacity="100" points="478.0,1029.0 486.0,1029.0 486.0,1038.0 478.0,1038.0" stroke="#000" stroke-width="1" /><polygon fill="#808080" opacity="100" points="574.0,1029.0 582.0,1029.0 582.0,1038.0 574.0,1038.0" stroke="#000" stroke-width="1" /><polygon fill="#808080" opacity="100" points="478.0,1050.0 486.0,1050.0 486.0,1059.0 478.0,1059.0" stroke="#000" stroke-width="1" /><polygon fill="#808080" opacity="100" points="574.0,1050.0 582.0,1050.0 582.0,1059.0 574.0,1059.0" stroke="#000" stroke-width="1" /><polygon fill="#808080" opacity="100" points="478.0,1072.0 486.0,1072.0 486.0,1081.0 478.0,1081.0" stroke="#000" stroke-width="1" /><polygon fill="#808080" opacity="100" points="574.0,1072.0 582.0,1072.0 582.0,1081.0 574.0,1081.0" stroke="#000" stroke-width="1" /><polygon fill="#808080" opacity="100" points="478.0,1095.0 486.0,1095.0 486.0,1104.0 478.0,1104.0" stroke="#000" stroke-width="1" /><polygon fill="#808080" opacity="100" points="574.0,1095.0 582.0,1095.0 582.0,1104.0 574.0,1104.0" stroke="#000" stroke-width="1" /><polygon fill="#808080" opacity="100" points="478.0,1117.0 486.0,1117.0 486.0,1126.0 478.0,1126.0" stroke="#000" stroke-width="1" /><polygon fill="#808080" opacity="100" points="574.0,1117.0 582.0,1117.0 582.0,1126.0 574.0,1126.0" stroke="#000" stroke-width="1" /><polygon fill="#808080" opacity="100" points="478.0,1139.0 486.0,1139.0 486.0,1148.0 478.0,1148.0" stroke="#000" stroke-width="1" /><polygon fill="#808080" opacity="100" points="574.0,1139.0 582.0,1139.0 582.0,1148.0 574.0,1148.0" stroke="#000" stroke-width="1" /><polygon fill="#808080" opacity="100" points="478.0,1161.0 486.0,1161.0 486.0,1170.0 478.0,1170.0" stroke="#000" stroke-width="1" /><polygon fill="#808080" opacity="100" points="574.0,1161.0 582.0,1161.0 582.0,1170.0 574.0,1170.0" stroke="#000" stroke-width="1" /><polygon fill="#808080" opacity="100" points="478.0,1182.0 486.0,1182.0 486.0,1191.0 478.0,1191.0" stroke="#000" stroke-width="1" /><polygon fill="#808080" opacity="100" points="574.0,1182.0 582.0,1182.0 582.0,1191.0 574.0,1191.0" stroke="#000" stroke-width="1" /><polygon fill="#808080" opacity="100" points="478.0,1204.0 486.0,1204.0 486.0,1213.0 478.0,1213.0" stroke="#000" stroke-width="1" /><polygon fill="#808080" opacity="100" points="574.0,1204.0 582.0,1204.0 582.0,1213.0 574.0,1213.0" stroke="#000" stroke-width="1" /><polygon fill="#808080" opacity="100" points="478.0,1226.0 486.0,1226.0 486.0,1235.0 478.0,1235.0" stroke="#000" stroke-width="1" /><polygon fill="#808080" opacity="100" points="574.0,1226.0 582.0,1226.0 582.0,1235.0 574.0,1235.0" stroke="#000" stroke-width="1" /><polygon fill="#808080" opacity="100" points="478.0,1248.0 485.0,1248.0 485.0,1257.0 478.0,1257.0" stroke="#000" stroke-width="1" /><polygon fill="#808080" opacity="100" points="575.0,1248.0 582.0,1248.0 582.0,1257.0 575.0,1257.0" stroke="#000" stroke-width="1" /><polygon fill="#808080" opacity="100" points="478.0,1270.0 485.0,1270.0 485.0,1279.0 478.0,1279.0" stroke="#000" stroke-width="1" /><polygon fill="#808080" opacity="100" points="575.0,1270.0 582.0,1270.0 582.0,1279.0 575.0,1279.0" stroke="#000" stroke-width="1" /><polygon fill="#808080" opacity="100" points="797.0,524.0 797.0,225.0 787.0,225.0 787.0,524.0" stroke="#7F7F7F" stroke-width="1" /><polygon fill="#808080" opacity="100" points="774.0,524.0 774.0,225.0 763.0,225.0 763.0,524.0" stroke="#7F7F7F" stroke-width="1" /><polygon fill="#808080" opacity="100" points="750.0,524.0 750.0,225.0 738.0,225.0 738.0,524.0" stroke="#7F7F7F" stroke-width="1" /><polygon fill="#808080" opacity="100" points="726.0,524.0 726.0,225.0 717.0,225.0 717.0,524.0" stroke="#7F7F7F" stroke-width="1" /><polyline fill="none" opacity="100" points="797.0,225.0 717.0,225.0" stroke="#7F7F7F" stroke-width="1" /><polyline fill="none" opacity="100" points="797.0,229.0 717.0,229.0" stroke="#7F7F7F" stroke-width="1" /><polyline fill="none" opacity="100" points="797.0,233.0 717.0,233.0" stroke="#7F7F7F" stroke-width="1" /><polyline fill="none" opacity="100" points="797.0,237.0 717.0,237.0" stroke="#7F7F7F" stroke-width="1" /><polyline fill="none" opacity="100" points="797.0,241.0 717.0,241.0" stroke="#7F7F7F" stroke-width="1" /><polyline fill="none" opacity="100" points="797.0,245.0 717.0,245.0" stroke="#7F7F7F" stroke-width="1" /><polyline fill="none" opacity="100" points="797.0,249.0 717.0,249.0" stroke="#7F7F7F" stroke-width="1" /><polyline fill="none" opacity="100" points="797.0,253.0 717.0,253.0" stroke="#7F7F7F" stroke-width="1" /><polyline fill="none" opacity="100" points="797.0,257.0 717.0,257.0" stroke="#7F7F7F" stroke-width="1" /><polyline fill="none" opacity="100" points="797.0,261.0 717.0,261.0" stroke="#7F7F7F" stroke-width="1" /><polyline fill="none" opacity="100" points="797.0,265.0 717.0,265.0" stroke="#7F7F7F" stroke-width="1" /><polyline fill="none" opacity="100" points="797.0,269.0 717.0,269.0" stroke="#7F7F7F" stroke-width="1" /><polyline fill="none" opacity="100" points="797.0,273.0 717.0,273.0" stroke="#7F7F7F" stroke-width="1" /><polyline fill="none" opacity="100" points="797.0,277.0 717.0,277.0" stroke="#7F7F7F" stroke-width="1" /><polyline fill="none" opacity="100" points="797.0,281.0 717.0,281.0" stroke="#7F7F7F" stroke-width="1" /><polyline fill="none" opacity="100" points="797.0,285.0 717.0,285.0" stroke="#7F7F7F" stroke-width="1" /><polyline fill="none" opacity="100" points="797.0,289.0 717.0,289.0" stroke="#7F7F7F" stroke-width="1" /><polyline fill="none" opacity="100" points="797.0,293.0 717.0,293.0" stroke="#7F7F7F" stroke-width="1" /><polyline fill="none" opacity="100" points="797.0,297.0 717.0,297.0" stroke="#7F7F7F" stroke-width="1" /><polyline fill="none" opacity="100" points="797.0,301.0 717.0,301.0" stroke="#7F7F7F" stroke-width="1" /><polyline fill="none" opacity="100" points="797.0,305.0 717.0,305.0" stroke="#7F7F7F" stroke-width="1" /><polyline fill="none" opacity="100" points="797.0,309.0 717.0,309.0" stroke="#7F7F7F" stroke-width="1" /><polyline fill="none" opacity="100" points="797.0,313.0 717.0,313.0" stroke="#7F7F7F" stroke-width="1" /><polyline fill="none" opacity="100" points="797.0,317.0 717.0,317.0" stroke="#7F7F7F" stroke-width="1" /><polyline fill="none" opacity="100" points="797.0,321.0 717.0,321.0" stroke="#7F7F7F" stroke-width="1" /><polyline fill="none" opacity="100" points="797.0,325.0 717.0,325.0" stroke="#7F7F7F" stroke-width="1" /><polyline fill="none" opacity="100" points="797.0,329.0 717.0,329.0" stroke="#7F7F7F" stroke-width="1" /><polyline fill="none" opacity="100" points="797.0,333.0 717.0,333.0" stroke="#7F7F7F" stroke-width="1" /><polyline fill="none" opacity="100" points="797.0,337.0 717.0,337.0" stroke="#7F7F7F" stroke-width="1" /><polyline fill="none" opacity="100" points="797.0,341.0 717.0,341.0" stroke="#7F7F7F" stroke-width="1" /><polyline fill="none" opacity="100" points="797.0,345.0 717.0,345.0" stroke="#7F7F7F" stroke-width="1" /><polyline fill="none" opacity="100" points="797.0,349.0 717.0,349.0" stroke="#7F7F7F" stroke-width="1" /><polyline fill="none" opacity="100" points="797.0,353.0 717.0,353.0" stroke="#7F7F7F" stroke-width="1" /><polyline fill="none" opacity="100" points="797.0,357.0 717.0,357.0" stroke="#7F7F7F" stroke-width="1" /><polyline fill="none" opacity="100" points="797.0,361.0 717.0,361.0" stroke="#7F7F7F" stroke-width="1" /><polyline fill="none" opacity="100" points="797.0,365.0 717.0,365.0" stroke="#7F7F7F" stroke-width="1" /><polyline fill="none" opacity="100" points="797.0,369.0 717.0,369.0" stroke="#7F7F7F" stroke-width="1" /><polyline fill="none" opacity="100" points="797.0,373.0 717.0,373.0" stroke="#7F7F7F" stroke-width="1" /><polyline fill="none" opacity="100" points="797.0,377.0 717.0,377.0" stroke="#7F7F7F" stroke-width="1" /><polyline fill="none" opacity="100" points="797.0,381.0 717.0,381.0" stroke="#7F7F7F" stroke-width="1" /><polyline fill="none" opacity="100" points="797.0,385.0 717.0,385.0" stroke="#7F7F7F" stroke-width="1" /><polyline fill="none" opacity="100" points="797.0,389.0 717.0,389.0" stroke="#7F7F7F" stroke-width="1" /><polyline fill="none" opacity="100" points="797.0,393.0 717.0,393.0" stroke="#7F7F7F" stroke-width="1" /><polyline fill="none" opacity="100" points="797.0,397.0 717.0,397.0" stroke="#7F7F7F" stroke-width="1" /><polyline fill="none" opacity="100" points="797.0,401.0 717.0,401.0" stroke="#7F7F7F" stroke-width="1" /><polyline fill="none" opacity="100" points="797.0,405.0 717.0,405.0" stroke="#7F7F7F" stroke-width="1" /><polyline fill="none" opacity="100" points="797.0,409.0 717.0,409.0" stroke="#7F7F7F" stroke-width="1" /><polyline fill="none" opacity="100" points="797.0,413.0 717.0,413.0" stroke="#7F7F7F" stroke-width="1" /><polyline fill="none" opacity="100" points="797.0,417.0 717.0,417.0" stroke="#7F7F7F" stroke-width="1" /><polyline fill="none" opacity="100" points="797.0,421.0 717.0,421.0" stroke="#7F7F7F" stroke-width="1" /><polyline fill="none" opacity="100" points="797.0,425.0 717.0,425.0" stroke="#7F7F7F" stroke-width="1" /><polyline fill="none" opacity="100" points="797.0,429.0 717.0,429.0" stroke="#7F7F7F" stroke-width="1" /><polyline fill="none" opacity="100" points="797.0,433.0 717.0,433.0" stroke="#7F7F7F" stroke-width="1" /><polyline fill="none" opacity="100" points="797.0,437.0 717.0,437.0" stroke="#7F7F7F" stroke-width="1" /><polyline fill="none" opacity="100" points="797.0,441.0 717.0,441.0" stroke="#7F7F7F" stroke-width="1" /><polyline fill="none" opacity="100" points="797.0,445.0 717.0,445.0" stroke="#7F7F7F" stroke-width="1" /><polyline fill="none" opacity="100" points="797.0,449.0 717.0,449.0" stroke="#7F7F7F" stroke-width="1" /><polyline fill="none" opacity="100" points="797.0,453.0 717.0,453.0" stroke="#7F7F7F" stroke-width="1" /><polyline fill="none" opacity="100" points="797.0,457.0 717.0,457.0" stroke="#7F7F7F" stroke-width="1" /><polyline fill="none" opacity="100" points="797.0,461.0 717.0,461.0" stroke="#7F7F7F" stroke-width="1" /><polyline fill="none" opacity="100" points="797.0,465.0 717.0,465.0" stroke="#7F7F7F" stroke-width="1" /><polyline fill="none" opacity="100" points="797.0,469.0 717.0,469.0" stroke="#7F7F7F" stroke-width="1" /><polyline fill="none" opacity="100" points="797.0,473.0 717.0,473.0" stroke="#7F7F7F" stroke-width="1" /><polyline fill="none" opacity="100" points="797.0,477.0 717.0,477.0" stroke="#7F7F7F" stroke-width="1" /><polyline fill="none" opacity="100" points="797.0,481.0 717.0,481.0" stroke="#7F7F7F" stroke-width="1" /><polyline fill="none" opacity="100" points="797.0,485.0 717.0,485.0" stroke="#7F7F7F" stroke-width="1" /><polyline fill="none" opacity="100" points="797.0,489.0 717.0,489.0" stroke="#7F7F7F" stroke-width="1" /><polyline fill="none" opacity="100" points="797.0,493.0 717.0,493.0" stroke="#7F7F7F" stroke-width="1" /><polyline fill="none" opacity="100" points="797.0,497.0 717.0,497.0" stroke="#7F7F7F" stroke-width="1" /><polyline fill="none" opacity="100" points="797.0,501.0 717.0,501.0" stroke="#7F7F7F" stroke-width="1" /><polyline fill="none" opacity="100" points="797.0,505.0 717.0,505.0" stroke="#7F7F7F" stroke-width="1" /><polyline fill="none" opacity="100" points="797.0,509.0 717.0,509.0" stroke="#7F7F7F" stroke-width="1" /><polyline fill="none" opacity="100" points="797.0,513.0 717.0,513.0" stroke="#7F7F7F" stroke-width="1" /><polyline fill="none" opacity="100" points="797.0,517.0 717.0,517.0" stroke="#7F7F7F" stroke-width="1" /><polyline fill="none" opacity="100" points="797.0,521.0 717.0,521.0" stroke="#7F7F7F" stroke-width="1" /><polygon fill="#808080" opacity="100" points="564.0,514.0 564.0,228.0 557.0,228.0 557.0,514.0" stroke="#7F7F7F" stroke-width="1" /><polygon fill="#808080" opacity="100" points="546.0,514.0 546.0,228.0 537.0,228.0 537.0,514.0" stroke="#7F7F7F" stroke-width="1" /><polygon fill="#808080" opacity="100" points="525.0,514.0 525.0,228.0 515.0,228.0 515.0,514.0" stroke="#7F7F7F" stroke-width="1" /><polygon fill="#808080" opacity="100" points="496.0,514.0 496.0,228.0 504.0,228.0 504.0,514.0" stroke="#7F7F7F" stroke-width="1" /><polyline fill="none" opacity="100" points="496.0,228.0 564.0,228.0" stroke="#7F7F7F" stroke-width="1" /><polyline fill="none" opacity="100" points="496.0,232.0 564.0,232.0" stroke="#7F7F7F" stroke-width="1" /><polyline fill="none" opacity="100" points="496.0,236.0 564.0,236.0" stroke="#7F7F7F" stroke-width="1" /><polyline fill="none" opacity="100" points="496.0,240.0 564.0,240.0" stroke="#7F7F7F" stroke-width="1" /><polyline fill="none" opacity="100" points="496.0,244.0 564.0,244.0" stroke="#7F7F7F" stroke-width="1" /><polyline fill="none" opacity="100" points="496.0,248.0 564.0,248.0" stroke="#7F7F7F" stroke-width="1" /><polyline fill="none" opacity="100" points="496.0,252.0 564.0,252.0" stroke="#7F7F7F" stroke-width="1" /><polyline fill="none" opacity="100" points="496.0,256.0 564.0,256.0" stroke="#7F7F7F" stroke-width="1" /><polyline fill="none" opacity="100" points="496.0,260.0 564.0,260.0" stroke="#7F7F7F" stroke-width="1" /><polyline fill="none" opacity="100" points="496.0,264.0 564.0,264.0" stroke="#7F7F7F" stroke-width="1" /><polyline fill="none" opacity="100" points="496.0,268.0 564.0,268.0" stroke="#7F7F7F" stroke-width="1" /><polyline fill="none" opacity="100" points="496.0,272.0 564.0,272.0" stroke="#7F7F7F" stroke-width="1" /><polyline fill="none" opacity="100" points="496.0,276.0 564.0,276.0" stroke="#7F7F7F" stroke-width="1" /><polyline fill="none" opacity="100" points="496.0,280.0 564.0,280.0" stroke="#7F7F7F" stroke-width="1" /><polyline fill="none" opacity="100" points="496.0,284.0 564.0,284.0" stroke="#7F7F7F" stroke-width="1" /><polyline fill="none" opacity="100" points="496.0,288.0 564.0,288.0" stroke="#7F7F7F" stroke-width="1" /><polyline fill="none" opacity="100" points="496.0,292.0 564.0,292.0" stroke="#7F7F7F" stroke-width="1" /><polyline fill="none" opacity="100" points="496.0,296.0 564.0,296.0" stroke="#7F7F7F" stroke-width="1" /><polyline fill="none" opacity="100" points="496.0,300.0 564.0,300.0" stroke="#7F7F7F" stroke-width="1" /><polyline fill="none" opacity="100" points="496.0,304.0 564.0,304.0" stroke="#7F7F7F" stroke-width="1" /><polyline fill="none" opacity="100" points="496.0,308.0 564.0,308.0" stroke="#7F7F7F" stroke-width="1" /><polyline fill="none" opacity="100" points="496.0,312.0 564.0,312.0" stroke="#7F7F7F" stroke-width="1" /><polyline fill="none" opacity="100" points="496.0,316.0 564.0,316.0" stroke="#7F7F7F" stroke-width="1" /><polyline fill="none" opacity="100" points="496.0,320.0 564.0,320.0" stroke="#7F7F7F" stroke-width="1" /><polyline fill="none" opacity="100" points="496.0,324.0 564.0,324.0" stroke="#7F7F7F" stroke-width="1" /><polyline fill="none" opacity="100" points="496.0,328.0 564.0,328.0" stroke="#7F7F7F" stroke-width="1" /><polyline fill="none" opacity="100" points="496.0,332.0 564.0,332.0" stroke="#7F7F7F" stroke-width="1" /><polyline fill="none" opacity="100" points="496.0,336.0 564.0,336.0" stroke="#7F7F7F" stroke-width="1" /><polyline fill="none" opacity="100" points="496.0,340.0 564.0,340.0" stroke="#7F7F7F" stroke-width="1" /><polyline fill="none" opacity="100" points="496.0,344.0 564.0,344.0" stroke="#7F7F7F" stroke-width="1" /><polyline fill="none" opacity="100" points="496.0,348.0 564.0,348.0" stroke="#7F7F7F" stroke-width="1" /><polyline fill="none" opacity="100" points="496.0,352.0 564.0,352.0" stroke="#7F7F7F" stroke-width="1" /><polyline fill="none" opacity="100" points="496.0,356.0 564.0,356.0" stroke="#7F7F7F" stroke-width="1" /><polyline fill="none" opacity="100" points="496.0,360.0 564.0,360.0" stroke="#7F7F7F" stroke-width="1" /><polyline fill="none" opacity="100" points="496.0,364.0 564.0,364.0" stroke="#7F7F7F" stroke-width="1" /><polyline fill="none" opacity="100" points="496.0,368.0 564.0,368.0" stroke="#7F7F7F" stroke-width="1" /><polyline fill="none" opacity="100" points="496.0,372.0 564.0,372.0" stroke="#7F7F7F" stroke-width="1" /><polyline fill="none" opacity="100" points="496.0,376.0 564.0,376.0" stroke="#7F7F7F" stroke-width="1" /><polyline fill="none" opacity="100" points="496.0,380.0 564.0,380.0" stroke="#7F7F7F" stroke-width="1" /><polyline fill="none" opacity="100" points="496.0,384.0 564.0,384.0" stroke="#7F7F7F" stroke-width="1" /><polyline fill="none" opacity="100" points="496.0,388.0 564.0,388.0" stroke="#7F7F7F" stroke-width="1" /><polyline fill="none" opacity="100" points="496.0,392.0 564.0,392.0" stroke="#7F7F7F" stroke-width="1" /><polyline fill="none" opacity="100" points="496.0,396.0 564.0,396.0" stroke="#7F7F7F" stroke-width="1" /><polyline fill="none" opacity="100" points="496.0,400.0 564.0,400.0" stroke="#7F7F7F" stroke-width="1" /><polyline fill="none" opacity="100" points="496.0,404.0 564.0,404.0" stroke="#7F7F7F" stroke-width="1" /><polyline fill="none" opacity="100" points="496.0,408.0 564.0,408.0" stroke="#7F7F7F" stroke-width="1" /><polyline fill="none" opacity="100" points="496.0,412.0 564.0,412.0" stroke="#7F7F7F" stroke-width="1" /><polyline fill="none" opacity="100" points="496.0,416.0 564.0,416.0" stroke="#7F7F7F" stroke-width="1" /><polyline fill="none" opacity="100" points="496.0,420.0 564.0,420.0" stroke="#7F7F7F" stroke-width="1" /><polyline fill="none" opacity="100" points="496.0,424.0 564.0,424.0" stroke="#7F7F7F" stroke-width="1" /><polyline fill="none" opacity="100" points="496.0,428.0 564.0,428.0" stroke="#7F7F7F" stroke-width="1" /><polyline fill="none" opacity="100" points="496.0,432.0 564.0,432.0" stroke="#7F7F7F" stroke-width="1" /><polyline fill="none" opacity="100" points="496.0,436.0 564.0,436.0" stroke="#7F7F7F" stroke-width="1" /><polyline fill="none" opacity="100" points="496.0,440.0 564.0,440.0" stroke="#7F7F7F" stroke-width="1" /><polyline fill="none" opacity="100" points="496.0,444.0 564.0,444.0" stroke="#7F7F7F" stroke-width="1" /><polyline fill="none" opacity="100" points="496.0,448.0 564.0,448.0" stroke="#7F7F7F" stroke-width="1" /><polyline fill="none" opacity="100" points="496.0,452.0 564.0,452.0" stroke="#7F7F7F" stroke-width="1" /><polyline fill="none" opacity="100" points="496.0,456.0 564.0,456.0" stroke="#7F7F7F" stroke-width="1" /><polyline fill="none" opacity="100" points="496.0,460.0 564.0,460.0" stroke="#7F7F7F" stroke-width="1" /><polyline fill="none" opacity="100" points="496.0,464.0 564.0,464.0" stroke="#7F7F7F" stroke-width="1" /><polyline fill="none" opacity="100" points="496.0,468.0 564.0,468.0" stroke="#7F7F7F" stroke-width="1" /><polyline fill="none" opacity="100" points="496.0,472.0 564.0,472.0" stroke="#7F7F7F" stroke-width="1" /><polyline fill="none" opacity="100" points="496.0,476.0 564.0,476.0" stroke="#7F7F7F" stroke-width="1" /><polyline fill="none" opacity="100" points="496.0,480.0 564.0,480.0" stroke="#7F7F7F" stroke-width="1" /><polyline fill="none" opacity="100" points="496.0,484.0 564.0,484.0" stroke="#7F7F7F" stroke-width="1" /><polyline fill="none" opacity="100" points="496.0,488.0 564.0,488.0" stroke="#7F7F7F" stroke-width="1" /><polyline fill="none" opacity="100" points="496.0,492.0 564.0,492.0" stroke="#7F7F7F" stroke-width="1" /><polyline fill="none" opacity="100" points="496.0,496.0 564.0,496.0" stroke="#7F7F7F" stroke-width="1" /><polyline fill="none" opacity="100" points="496.0,500.0 564.0,500.0" stroke="#7F7F7F" stroke-width="1" /><polyline fill="none" opacity="100" points="496.0,504.0 564.0,504.0" stroke="#7F7F7F" stroke-width="1" /><polyline fill="none" opacity="100" points="496.0,508.0 564.0,508.0" stroke="#7F7F7F" stroke-width="1" /><polyline fill="none" opacity="100" points="496.0,512.0 564.0,512.0" stroke="#7F7F7F" stroke-width="1" /><polyline fill="none" opacity="100" points="797.0,225.0 797.0,524.0" stroke="#000" stroke-dasharray="5,5" stroke-width="1" /><polyline fill="none" opacity="100" points="717.0,225.0 717.0,524.0" stroke="#000" stroke-dasharray="5,5" stroke-width="1" /><polyline fill="none" opacity="100" points="797.0,225.0 792.0,231.5625 787.0,237.25 782.0,242.0625 777.0,246.0 772.0,249.0625 767.0,251.25 762.0,252.5625 757.0,253.0 752.0,252.5625 747.0,251.25 742.0,249.0625 737.0,246.0 732.0,242.0625 727.0,237.25 722.0,231.5625 717.0,225.0" stroke="#000" stroke-width="1" /><polyline fill="none" opacity="100" points="797.0,524.0 792.0,517.9062 787.0,512.625 782.0,508.1562 777.0,504.5 772.0,501.6562 767.0,499.625 762.0,498.4062 757.0,498.0 752.0,498.4062 747.0,499.625 742.0,501.6562 737.0,504.5 732.0,508.1562 727.0,512.625 722.0,517.9062 717.0,524.0" stroke="#000" stroke-width="1" /><polyline fill="none" opacity="100" points="564.0,228.0 564.0,514.0" stroke="#000" stroke-dasharray="5,5" stroke-width="1" /><polyline fill="none" opacity="100" points="496.0,228.0 496.0,514.0" stroke="#000" stroke-dasharray="5,5" stroke-width="1" /><polyline fill="none" opacity="100" points="496.0,228.0 500.25,233.625 504.5,238.5 508.75,242.625 513.0,246.0 517.25,248.625 521.5,250.5 525.75,251.625 530.0,252.0 534.25,251.625 538.5,250.5 542.75,248.625 547.0,246.0 551.25,242.625 555.5,238.5 559.75,233.625 564.0,228.0" stroke="#000" stroke-width="1" /><polyline fill="none" opacity="100" points="496.0,514.0 500.25,508.1406 504.5,503.0625 508.75,498.7656 513.0,495.25 517.25,492.5156 521.5,490.5625 525.75,489.3906 530.0,489.0 534.25,489.3906 538.5,490.5625 542.75,492.5156 547.0,495.25 551.25,498.7656 555.5,503.0625 559.75,508.1406 564.0,514.0" stroke="#000" stroke-width="1" /><polyline fill="none" opacity="100" points="798.0,228.0 807.0,228.0 807.0,148.0 786.0,148.0 786.0,142.0 791.0,142.0 791.0,137.0 722.0,137.0 722.0,142.0 728.0,142.0 728.0,149.0 667.0,149.0 667.0,157.0 650.0,157.0 650.0,149.0 646.0,149.0 646.0,124.0" stroke="#000" stroke-width="1" /><polyline fill="none" opacity="100" points="618.0,124.0 618.0,148.0 615.0,148.0 615.0,157.0 603.0,157.0 603.0,160.0 598.0,160.0 598.0,125.0 563.0,125.0" stroke="#000" stroke-width="1" /><polyline fill="none" opacity="100" points="501.0,125.0 465.0,125.0 465.0,230.0 496.0,230.0" stroke="#000" stroke-width="1" /><polyline fill="none" opacity="100" points="565.0,230.0 598.0,230.0 598.0,195.0 603.0,195.0 603.0,198.0 615.0,198.0 615.0,202.0 618.0,202.0 618.0,211.0 612.0,211.0 612.0,257.0 616.0,255.0 617.0,260.0 612.0,264.0 612.0,273.0 608.0,273.0 608.0,304.0 612.0,304.0 612.0,311.0 619.0,317.0 617.0,322.0 612.0,319.0 603.0,334.0 607.0,338.0 601.0,348.0" stroke="#000" stroke-width="1" /><polyline fill="none" opacity="100" points="614.0,367.0 628.0,356.0 631.0,351.0 636.0,354.0 646.0,341.0 642.0,339.0 646.0,332.0 650.0,335.0 658.0,331.0 660.0,334.0 686.0,319.0 685.0,315.0 692.0,312.0 692.0,305.0 695.0,305.0 695.0,274.0 692.0,274.0 692.0,265.0 686.0,262.0 692.0,250.0 695.0,252.0 708.0,234.0 708.0,228.0 717.0,228.0" stroke="#000" stroke-width="1" /><polygon fill="#808080" opacity="100" points="667.0,194.0 682.0,209.0 659.0,245.0 652.0,241.0 644.0,246.0 641.0,240.0 649.0,235.0 649.0,211.0 643.0,211.0 643.0,202.0 649.0,202.0 649.0,194.0" stroke="#000" stroke-width="1" /><polyline fill="none" opacity="100" points="595.0,142.0 595.0,214.0" stroke="#000" stroke-width="1" /><polyline fill="none" opacity="100" points="591.0,142.0 591.0,214.0" stroke="#000" stroke-width="1" /><polyline fill="none" opacity="100" points="587.0,142.0 587.0,214.0" stroke="#000" stroke-width="1" /><polygon fill="#808080" opacity="100" points="594.0,166.0 604.0,166.0 604.0,173.0 594.0,173.0" stroke="#000" stroke-width="1" /><polygon fill="#808080" opacity="100" points="594.0,180.0 604.0,180.0 604.0,187.0 594.0,187.0" stroke="#000" stroke-width="1" /><polyline fill="none" opacity="100" points="587.0,142.0 598.0,142.0" stroke="#000" stroke-width="1" /><polyline fill="none" opacity="100" points="587.0,214.0 598.0,214.0" stroke="#000" stroke-width="1" /><polyline fill="none" opacity="100" points="564.0,125.0 563.1875,122.7422 562.25,120.5938 561.186,118.553 560.0,116.625 558.7007,114.8201 557.2734,113.1211 555.7139,111.5229 554.0,110.0 552.0908,108.5044 550.0391,107.0977 547.8782,105.8215 545.625,104.6875 543.3074,103.7117 540.9258,102.9219 538.4868,102.334 536.0,102.0 533.4702,102.002 530.918,102.2656 528.3623,102.7478 525.8125,103.4375 523.2744,104.3088 520.7773,105.3633 518.3394,106.6001 516.0,108.0 513.8208,109.5366 511.7539,111.2305 509.7737,113.0925 507.875,115.125 506.0408,117.3352 504.2812,119.7188 502.6016,122.2734 501.0,125.0" stroke="#000" stroke-width="1" /><polygon fill="#808080" opacity="100" points="596.0,382.0 586.0,389.0 568.0,365.0 578.0,357.0" stroke="#000" stroke-width="1" /><polyline fill="none" opacity="100" points="594.0,401.0 604.0,393.0" stroke="#000" stroke-width="1" /><polyline fill="none" opacity="100" points="560.0,355.0 570.0,348.0" stroke="#000" stroke-width="1" /><polyline fill="none" opacity="100" points="604.0,393.0 605.5625,392.0781 607.0,391.0625 608.3125,389.9531 609.5,388.75 610.5625,387.4531 611.5,386.0625 612.3125,384.5781 613.0,383.0 613.5625,381.3281 614.0,379.5625 614.3125,377.7031 614.5,375.75 614.5625,373.7031 614.5,371.5625 614.3125,369.3281 614.0,367.0" stroke="#000" stroke-width="1" /><polyline fill="none" opacity="100" points="570.0,348.0 571.8203,346.3594 573.6562,344.9375 575.5078,343.7344 577.375,342.75 579.2578,341.9844 581.1562,341.4375 583.0703,341.1094 585.0,341.0 586.9453,341.1094 588.9062,341.4375 590.8828,341.9844 592.875,342.75 594.8828,343.7344 596.9062,344.9375 598.9453,346.3594 601.0,348.0" stroke="#000" stroke-width="1" /><polyline fill="none" opacity="100" points="578.0,357.0 571.0,348.0" stroke="#000" stroke-width="1" /><polyline fill="none" opacity="100" points="574.8765,359.4988 567.8765,350.4988" stroke="#000" stroke-width="1" /><polyline fill="none" opacity="100" points="571.753,361.9976 564.753,352.9976" stroke="#000" stroke-width="1" /><polyline fill="none" opacity="100" points="568.6296,364.4963 561.6296,355.4963" stroke="#000" stroke-width="1" /><polyline fill="none" opacity="100" points="596.0,382.0 604.0,393.0" stroke="#000" stroke-width="1" /><polyline fill="none" opacity="100" points="592.7231,384.2938 600.7231,395.2938" stroke="#000" stroke-width="1" /><polyline fill="none" opacity="100" points="589.4461,386.5877 597.4461,397.5877" stroke="#000" stroke-width="1" /><polyline fill="none" opacity="100" points="586.1692,388.8815 594.1692,399.8815" stroke="#000" stroke-width="1" /><polyline fill="none" opacity="100" points="601.0,348.0 614.0,367.0" stroke="#000" stroke-dasharray="5,5" stroke-width="1" /><polyline fill="none" opacity="100" points="628.0,356.0 605.0,342.0" stroke="#000" stroke-dasharray="5,5" stroke-width="1" /><polygon fill="#808080" opacity="100" points="530.0,20.0 543.0,27.0 527.0,53.0 514.0,46.0" stroke="#000" stroke-width="1" /><polyline fill="none" opacity="100" points="537.0,8.0 538.6641,9.0547 540.2812,10.0938 541.8533,11.114 543.375,12.125 544.8362,13.1458 546.2539,14.1445 547.6333,15.1118 549.0,16.0 550.4019,16.7202 551.7773,17.3867 553.0854,18.0757 554.3125,18.8125 555.438,19.6353 556.4414,20.582 557.3091,21.6782 558.0,23.0 558.4526,24.6616 558.7148,26.5742 558.8123,28.6902 558.75,31.0 558.5452,33.4719 558.1875,36.125 557.6719,38.9688 557.0,42.0" stroke="#000" stroke-width="1" /><polyline fill="none" opacity="100" points="506.0,58.0 507.8594,59.3281 509.6875,60.5625 511.4834,61.7046 513.25,62.75 514.9932,63.6899 516.7031,64.5391 518.377,65.3018 520.0,66.0 521.5449,66.6748 523.0469,67.2734 524.5293,67.7607 526.0,68.125 527.4707,68.3486 528.9531,68.4141 530.4551,68.3096 532.0,68.0 533.623,67.4326 535.2969,66.6484 537.0068,65.6694 538.75,64.5 540.5166,63.1548 542.3125,61.625 544.1406,59.9062 546.0,58.0" stroke="#000" stroke-width="1" /><polyline fill="none" opacity="100" points="581.0,47.0 587.0938,50.3594 592.875,53.6875 598.3425,56.9829 603.5,60.25 608.3547,63.4976 612.8945,66.7109 617.1157,69.8857 621.0,73.0 624.5132,76.0127 627.6992,78.9766 630.5874,81.9268 633.1875,84.875 635.5142,87.8389 637.582,90.8359 639.4009,93.8779 641.0,97.0 642.4233,100.2549 643.6367,103.6016 644.6218,107.0181 645.375,110.5 645.884,114.0327 646.1562,117.625 646.1953,121.2812 646.0,125.0" stroke="#000" stroke-width="1" /><polyline fill="none" opacity="100" points="565.0,74.0 567.8203,75.1719 570.6562,76.4375 573.5125,77.7979 576.375,79.25 579.2161,80.7881 582.082,82.4219 584.9868,84.1543 588.0,86.0 591.2515,87.9863 594.5742,90.0781 597.8569,92.252 601.0625,94.5 604.1353,96.8105 607.0195,99.1719 609.6782,101.5762 612.0,104.0 613.8179,106.4082 615.2617,108.8281 616.4011,111.2744 617.25,113.75 617.8547,116.2646 618.1875,118.8125 618.2344,121.3906 618.0,124.0" stroke="#000" stroke-width="1" /><polyline fill="none" opacity="100" points="557.0,42.0 578.0,53.0 581.0,47.0" stroke="#000" stroke-width="1" /><polyline fill="none" opacity="100" points="546.0,58.0 568.0,70.0 565.0,74.0" stroke="#000" stroke-width="1" /><polyline fill="none" opacity="100" points="605.0,62.0 592.0,88.0" stroke="#000" stroke-width="1" /><polyline fill="none" opacity="100" points="601.7651,59.6473 588.7651,85.6473" stroke="#000" stroke-width="1" /><polyline fill="none" opacity="100" points="598.5301,57.2946 585.5301,83.2946" stroke="#000" stroke-width="1" /><polyline fill="none" opacity="100" points="595.2952,54.9419 582.2952,80.9419" stroke="#000" stroke-width="1" /><polygon fill="#FFF" opacity="100" points="738.0,525.0 748.0,525.0 748.0,545.0 738.0,545.0" stroke="#000" stroke-width="1" /><polygon fill="#FFF" opacity="100" points="537.0,515.0 546.0,515.0 546.0,533.0 537.0,533.0" stroke="#000" stroke-width="1" /><polygon fill="#FFF" opacity="100" points="716.0,177.0 716.0,193.0 707.0,193.0 707.0,177.0" stroke="#000" stroke-width="1" /><polygon fill="#FFF" opacity="100" points="564.0,226.0 574.0,226.0 574.0,213.0 564.0,213.0" stroke="#000" stroke-width="1" /><polyline fill="none" opacity="100" points="627.0,324.0 627.0,324.0" stroke="#7F7F7F" stroke-width="5" /><polyline fill="none" opacity="100" points="636.0,330.0 636.0,330.0" stroke="#7F7F7F" stroke-width="5" /><polyline fill="none" opacity="100" points="627.0,254.0 627.0,254.0" stroke="#7F7F7F" stroke-width="5" /><polyline fill="none" opacity="100" points="635.0,249.0 635.0,249.0" stroke="#7F7F7F" stroke-width="5" /><polyline fill="none" opacity="100" points="693.0,285.0 693.0,285.0" stroke="#7F7F7F" stroke-width="5" /><polyline fill="none" opacity="100" points="693.0,294.0 693.0,294.0" stroke="#7F7F7F" stroke-width="5" /><polyline fill="none" opacity="100" points="481.0,917.0 481.0,917.0" stroke="#7F7F7F" stroke-width="9" /><polyline fill="none" opacity="100" points="579.0,917.0 579.0,917.0" stroke="#7F7F7F" stroke-width="9" /><polyline fill="none" opacity="100" points="481.0,945.0 481.0,945.0" stroke="#7F7F7F" stroke-width="9" /><polyline fill="none" opacity="100" points="579.0,945.0 579.0,945.0" stroke="#7F7F7F" stroke-width="9" /><polyline fill="none" opacity="100" points="481.0,893.0 481.0,893.0" stroke="#7F7F7F" stroke-width="9" /><polyline fill="none" opacity="100" points="579.0,893.0 579.0,893.0" stroke="#7F7F7F" stroke-width="9" /><polyline fill="none" opacity="100" points="481.0,971.0 481.0,971.0" stroke="#7F7F7F" stroke-width="9" /><polyline fill="none" opacity="100" points="579.0,971.0 579.0,971.0" stroke="#7F7F7F" stroke-width="9" /><polyline fill="none" opacity="100" points="751.0,224.0 751.0,206.0 720.0,176.0 610.0,176.0 604.0,180.0 551.0,180.0 527.0,201.0 527.0,229.0" stroke="#7F7F7F" stroke-width="1" /><polyline fill="none" opacity="100" points="600.0,917.0 564.0,917.0" stroke="#7F7F7F" stroke-width="1" /><polyline fill="none" opacity="100" points="600.0,943.0 564.0,944.0" stroke="#7F7F7F" stroke-width="1" /><polyline fill="none" opacity="100" points="713.0,197.0 707.0,197.0" stroke="#7F7F7F" stroke-width="2" /><polyline fill="none" opacity="100" points="713.0,201.0 707.0,201.0" stroke="#7F7F7F" stroke-width="2" /><polyline fill="none" opacity="100" points="713.0,205.0 707.0,205.0" stroke="#7F7F7F" stroke-width="2" /><polyline fill="none" opacity="100" points="713.0,209.0 707.0,209.0" stroke="#7F7F7F" stroke-width="2" /><polyline fill="none" opacity="100" points="713.0,213.0 707.0,213.0" stroke="#7F7F7F" stroke-width="2" /><polyline fill="none" opacity="100" points="713.0,216.0 707.0,216.0" stroke="#7F7F7F" stroke-width="2" /><polyline fill="none" opacity="100" points="713.0,220.0 707.0,220.0" stroke="#7F7F7F" stroke-width="2" /><polyline fill="none" opacity="100" points="713.0,224.0 707.0,224.0" stroke="#7F7F7F" stroke-width="2" /><polyline fill="none" opacity="100" points="564.0,209.0 570.0,209.0" stroke="#7F7F7F" stroke-width="2" /><polyline fill="none" opacity="100" points="564.0,205.0 570.0,205.0" stroke="#7F7F7F" stroke-width="2" /><polyline fill="none" opacity="100" points="564.0,201.0 570.0,201.0" stroke="#7F7F7F" stroke-width="2" /><polyline fill="none" opacity="100" points="564.0,197.0 570.0,197.0" stroke="#7F7F7F" stroke-width="2" /><polyline fill="none" opacity="100" points="564.0,193.0 570.0,193.0" stroke="#7F7F7F" stroke-width="2" /><polyline fill="none" opacity="100" points="564.0,189.0 570.0,189.0" stroke="#7F7F7F" stroke-width="2" /><polyline fill="none" opacity="100" points="564.0,185.0 570.0,185.0" stroke="#7F7F7F" stroke-width="2" /><polyline fill="none" opacity="100" points="564.0,181.0 570.0,181.0" stroke="#7F7F7F" stroke-width="2" /><polyline fill="none" opacity="100" points="631.0,158.0 631.0,143.0" stroke="#F00" stroke-width="1" /><polygon fill="#F00" opacity="100" points="632.1647,147.3467 631.0,143.0 629.8353,147.3467" stroke="#F00" stroke-width="1" /><polyline fill="none" opacity="100" points="598.0,364.0 613.0,353.0" stroke="#090" stroke-width="1" /><polygon fill="#090" opacity="100" points="609.5074,357.3522 613.0,353.0 607.7992,355.0229" stroke="#090" stroke-width="1" /><text fill="#650022" font-family="Arial" font-size="30" font-weight="bold" opacity="100" transform="rotate(-90.0 511.0,1126.0) translate(0 30)" x="511.0" y="1126.0">Технологический институт - I</text><text fill="#DC004B" font-family="Arial" font-size="20" font-weight="normal" opacity="100" transform="rotate(-90.0 418.0,1330.0) translate(0 20)" x="418.0" y="1330.0">&lt;&lt; Балтийская</text><text fill="#DC004B" font-family="Arial" font-size="20" font-weight="normal" opacity="100" transform="rotate(-90.0 632.0,670.0) translate(0 20)" x="632.0" y="670.0">Пушкинская &gt;&gt;</text><text fill="#DC004B" font-family="Arial" font-size="30" font-weight="bold" opacity="100" transform="rotate(-90.0 510.0,1127.0) translate(0 30)" x="510.0" y="1127.0">Технологический институт - I</text><text fill="#002B46" font-family="Arial" font-size="30" font-weight="bold" opacity="100" transform="rotate(-90.0 728.0,821.0) translate(0 30)" x="728.0" y="821.0">Технологический</text><text fill="#002B46" font-family="Arial" font-size="30" font-weight="bold" opacity="100" transform="rotate(-90.0 754.0,778.0) translate(0 30)" x="754.0" y="778.0">институт - II</text><text fill="#0071B9" font-family="Arial" font-size="20" font-weight="normal" opacity="100" transform="rotate(-90.0 618.0,1332.0) translate(0 20)" x="618.0" y="1332.0">&lt;&lt; Фрунзенская</text><text fill="#0071B9" font-family="Arial" font-size="20" font-weight="normal" opacity="100" transform="rotate(-90.0 859.0,642.0) translate(0 20)" x="859.0" y="642.0">Сенная плошадь &gt;&gt;</text><text fill="#0071B9" font-family="Arial" font-size="30" font-weight="bold" opacity="100" transform="rotate(-90.0 727.0,822.0) translate(0 30)" x="727.0" y="822.0">Технологический</text><text fill="#0071B9" font-family="Arial" font-size="30" font-weight="bold" opacity="100" transform="rotate(-90.0 753.0,779.0) translate(0 30)" x="753.0" y="779.0">институт - II</text><text fill="#00AFAF" font-family="Arial" font-size="20" font-weight="normal" opacity="100" transform="rotate(-59.0 435.0,8.0) translate(0 20)" x="435.0" y="8.0">Загородный проспект</text><text fill="#00AFAF" font-family="Arial" font-size="20" font-weight="normal" opacity="100" transform="rotate(-128.0 434.0,288.0) translate(0 20)" x="434.0" y="288.0">Московский проспект</text><text fill="#00AFAF" font-family="Arial" font-size="18" font-weight="normal" opacity="100" transform="rotate(-37.0 298.0,563.0) translate(0 18)" x="298.0" y="563.0">1-я Красноармейская улица</text></g></g></svg>