<?xml version="1.0" encoding="utf-8" ?>
<svg baseProfile="tiny" height="750px" version="1.2" width="950px" xmlns="http://www.w3.org/2000/svg" xmlns:ev="http://www.w3.org/2001/xml-events" xmlns:xlink="http://www.w3.org/1999/xlink"><defs /><g><g transform="rotate(-30.0,475.0,375.0)"><polygon fill="#00873A" opacity="100" points="-42.0,358.0 -42.0,344.0 516.0,344.0 516.0,358.0" stroke="#000" stroke-width="1" /><polygon fill="#00873A" opacity="100" points="-42.0,476.0 -42.0,490.0 516.0,490.0 516.0,476.0" stroke="#000" stroke-width="1" /><polyline fill="none" opacity="100" points="586.0,382.0 518.0,382.0 518.0,373.0 -44.0,373.0 -44.0,459.0 518.0,459.0 518.0,451.0 586.0,451.0" stroke="#000" stroke-width="1" /><polyline fill="none" opacity="100" points="586.0,451.0 586.0,382.0 789.0,382.0 788.0,451.0 586.0,451.0" stroke="#000" stroke-dasharray="5,5" stroke-width="1" /><polyline fill="none" opacity="100" points="747.0,451.0 740.9062,446.5703 735.625,442.1562 731.1562,437.7578 727.5,433.375 724.6562,429.0078 722.625,424.6562 721.4062,420.3203 721.0,416.0 721.4062,411.6953 722.625,407.4062 724.6562,403.1328 727.5,398.875 731.1562,394.6328 735.625,390.4062 740.9062,386.1953 747.0,382.0" stroke="#000" stroke-width="1" /><polyline fill="none" opacity="100" points="777.0,382.0 778.3359,379.7812 779.7188,377.625 781.1484,375.5312 782.625,373.5 784.1484,371.5312 785.7188,369.625 787.3359,367.7812 789.0,366.0 790.7109,364.2812 792.4688,362.625 794.2734,361.0312 796.125,359.5 798.0234,358.0312 799.9688,356.625 801.9609,355.2812 804.0,354.0" stroke="#000" stroke-width="1" /><polyline fill="none" opacity="100" points="829.0,344.0 833.0938,343.4688 837.125,343.125 841.0938,342.9688 845.0,343.0 848.8438,343.2188 852.625,343.625 856.3438,344.2188 860.0,345.0 863.5938,345.9688 867.125,347.125 870.5938,348.4688 874.0,350.0 877.3438,351.7188 880.625,353.625 883.8438,355.7188 887.0,358.0" stroke="#000" stroke-width="1" /><polyline fill="none" opacity="100" points="896.0,394.0 896.9766,397.4844 897.7812,400.9375 898.4138,404.3608 898.875,407.75 899.1663,411.0962 899.2852,414.4141 899.231,417.708 899.0,421.0 898.5854,424.3311 897.9961,427.6484 897.2378,430.917 896.3125,434.125 895.2231,437.2549 893.9727,440.2891 892.563,443.2158 891.0,446.0 889.2925,448.5889 887.4336,451.0234 885.4197,453.3257 883.25,455.5 880.9221,457.561 878.4375,459.5 875.7969,461.3125 873.0,463.0" stroke="#000" stroke-width="1" /><polyline fill="none" opacity="100" points="881.0,476.0 878.5234,477.5625 875.9688,479.0 873.3357,480.3135 870.625,481.5 867.8381,482.5537 864.9727,483.4844 862.0278,484.2949 859.0,485.0 855.8823,485.627 852.6836,486.1406 849.4065,486.5178 846.0625,486.75 842.6736,486.824 839.2109,486.7305 835.667,486.4624 832.0,486.0 828.1299,485.3149 824.1641,484.4258 820.175,483.3413 816.1875,482.0625 812.2371,480.5962 808.3633,478.9336 804.5923,477.0698 801.0,475.0 797.7007,472.7153 794.6055,470.2227 791.6667,467.5256 788.875,464.625 786.1985,461.5232 783.6562,458.2188 781.2578,454.7109 779.0,451.0" stroke="#000" stroke-width="1" /><polyline fill="none" opacity="100" points="804.0,354.0 796.0,342.0 784.0,341.0 765.0,305.0 728.0,305.0 728.0,288.0 700.0,288.0 700.0,243.0" stroke="#000" stroke-width="1" /><polyline fill="none" opacity="100" points="728.0,288.0 791.0,288.0" stroke="#000" stroke-width="1" /><polyline fill="none" opacity="100" points="881.0,476.0 873.0,463.0" stroke="#000" stroke-width="1" /><polyline fill="none" opacity="100" points="814.0,288.0 943.0,288.0 943.0,325.0" stroke="#000" stroke-width="1" /><polyline fill="none" opacity="100" points="943.0,355.0 943.0,413.0 934.0,413.0 927.0,371.0 915.0,371.0 907.0,381.0 910.0,390.0 896.0,394.0" stroke="#000" stroke-width="1" /><polyline fill="none" opacity="100" points="943.0,318.0 895.0,334.0 896.0,348.0 887.0,358.0" stroke="#000" stroke-width="1" /><polyline fill="none" opacity="100" points="829.0,344.0 823.0,333.0 828.0,322.0 828.0,288.0" stroke="#000" stroke-width="1" /><polyline fill="none" opacity="100" points="895.0,334.0 828.0,322.0" stroke="#000" stroke-width="1" /><polyline fill="none" opacity="100" points="943.0,412.0 966.0,412.0 966.0,265.0 700.0,265.0" stroke="#000" stroke-width="1" /><polyline fill="none" opacity="100" points="700.0,258.0 973.0,258.0 973.0,419.0 943.0,419.0" stroke="#000" stroke-width="1" /><polyline fill="none" opacity="100" points="943.0,426.0 980.0,426.0 980.0,251.0 700.0,251.0" stroke="#000" stroke-width="1" /><polyline fill="none" opacity="100" points="943.0,413.0 943.0,434.0" stroke="#000" stroke-width="1" /><polyline fill="none" opacity="100" points="860.0,345.0 832.0,406.0 789.0,417.0" stroke="#000" stroke-width="1" /><polyline fill="none" opacity="100" points="832.0,406.0 832.0,457.0" stroke="#000" stroke-dasharray="5,5" stroke-width="1" /><polyline fill="none" opacity="100" points="832.0,457.0 832.0,486.0" stroke="#000" stroke-width="1" /><polyline fill="none" opacity="100" points="802.0,317.0 802.0,298.0" stroke="#F00" stroke-width="1" /><polygon fill="#F00" opacity="100" points="803.4753,303.5058 802.0,298.0 800.5247,303.5058" stroke="#F00" stroke-width="1" /><polyline fill="none" opacity="100" points="939.0,346.0 919.0,346.0" stroke="#008000" stroke-width="1" /><polygon fill="#008000" opacity="100" points="924.7956,344.4471 919.0,346.0 924.7956,347.5529" stroke="#008000" stroke-width="1" /><text fill="#00873A" font-family="Arial" font-size="20" font-weight="normal" opacity="100" transform="rotate(-0.0 -35.0,324.0) translate(0 20)" x="-35.0" y="324.0">&lt;&lt; Приморская</text><text fill="#00873A" font-family="Arial" font-size="20" font-weight="normal" opacity="100" transform="rotate(-0.0 356.0,490.0) translate(0 20)" x="356.0" y="490.0">Гостиный двор &gt;&gt;</text><text fill="#00873A" font-family="Arial" font-size="25" font-weight="bold" opacity="100" transform="rotate(-0.0 157.0,400.0) translate(0 25)" x="157.0" y="400.0">Василеостровская</text><text fill="#00AFAF" font-family="Arial" font-size="15" font-weight="normal" opacity="100" transform="rotate(-0.0 675.0,178.0) translate(0 15)" x="675.0" y="178.0">Средний проспект</text></g></g></svg>