<?xml version="1.0" encoding="utf-8" ?>
<svg baseProfile="tiny" height="1020px" version="1.2" width="680px" xmlns="http://www.w3.org/2000/svg" xmlns:ev="http://www.w3.org/2001/xml-events" xmlns:xlink="http://www.w3.org/1999/xlink"><defs /><g><g transform="rotate(80.0,340.0,510.0)"><polygon fill="#DC004B" opacity="100" points="273.0,557.0 273.0,543.0 746.0,543.0 746.0,557.0" stroke="#000" stroke-width="1" /><polygon fill="#DC004B" opacity="100" points="274.0,636.0 274.0,650.0 746.0,650.0 746.0,636.0" stroke="#000" stroke-width="1" /><polygon fill="#808080" opacity="100" points="-72.0,513.0 -72.0,391.0 -67.0,391.0 -67.0,513.0" stroke="#000" stroke-width="1" /><polygon fill="#808080" opacity="100" points="-71.0,323.0 -67.0,323.0 -67.0,202.0 -71.0,202.0" stroke="#000" stroke-width="1" /><polyline fill="none" opacity="100" points="699.0,557.0 699.0,574.0 669.0,574.0 669.0,617.0 699.0,617.0 699.0,636.0" stroke="#000" stroke-width="1" /><polyline fill="none" opacity="100" points="289.0,557.0 289.0,566.0 299.0,566.0 299.0,571.0 289.0,571.0 289.0,577.0 272.0,577.0" stroke="#000" stroke-width="1" /><polyline fill="none" opacity="100" points="289.0,636.0 289.0,622.0 297.0,622.0 297.0,616.0 289.0,616.0 289.0,610.0 272.0,610.0 272.0,634.0" stroke="#000" stroke-width="1" /><polyline fill="none" opacity="100" points="272.0,577.0 269.875,575.7734 267.75,574.7188 265.625,573.8359 263.5,573.125 261.375,572.5859 259.25,572.2188 257.125,572.0234 255.0,572.0 252.875,572.1484 250.75,572.4688 248.625,572.9609 246.5,573.625 244.375,574.4609 242.25,575.4688 240.125,576.6484 238.0,578.0" stroke="#000" stroke-width="1" /><polyline fill="none" opacity="100" points="272.0,634.0 271.7969,636.1484 271.4375,638.2188 270.9219,640.2109 270.25,642.125 269.4219,643.9609 268.4375,645.7188 267.2969,647.3984 266.0,649.0 264.5469,650.5234 262.9375,651.9688 261.1719,653.3359 259.25,654.625 257.1719,655.8359 254.9375,656.9688 252.5469,658.0234 250.0,659.0" stroke="#000" stroke-width="1" /><polyline fill="none" opacity="100" points="238.0,578.0 238.0,629.0 209.0,642.0 210.0,644.0 200.0,649.0 199.0,647.0 191.0,651.0 189.0,647.0 180.0,651.0" stroke="#000" stroke-width="1" /><polyline fill="none" opacity="100" points="250.0,659.0 224.0,671.0 222.0,667.0 211.0,672.0 212.0,674.0 203.0,678.0 205.0,682.0 196.0,686.0" stroke="#000" stroke-width="1" /><polyline fill="none" opacity="100" points="272.0,610.0 272.0,577.0" stroke="#000" stroke-width="1" /><polyline fill="none" opacity="100" points="276.0,610.0 276.0,577.0" stroke="#000" stroke-width="1" /><polyline fill="none" opacity="100" points="280.0,610.0 280.0,577.0" stroke="#000" stroke-width="1" /><polyline fill="none" opacity="100" points="284.0,610.0 284.0,577.0" stroke="#000" stroke-width="1" /><polyline fill="none" opacity="100" points="288.0,610.0 288.0,577.0" stroke="#000" stroke-width="1" /><polyline fill="none" opacity="100" points="272.0,610.0 238.0,610.0" stroke="#000" stroke-width="1" /><polyline fill="none" opacity="100" points="272.0,614.0 238.0,614.0" stroke="#000" stroke-width="1" /><polyline fill="none" opacity="100" points="272.0,618.0 238.0,618.0" stroke="#000" stroke-width="1" /><polyline fill="none" opacity="100" points="272.0,622.0 238.0,622.0" stroke="#000" stroke-width="1" /><polyline fill="none" opacity="100" points="180.0,651.0 196.0,686.0 131.0,717.0 114.0,682.0 180.0,651.0" stroke="#000" stroke-dasharray="5,5" stroke-width="1" /><polyline fill="none" opacity="100" points="132.0,673.0 134.4922,673.1016 136.8438,673.2812 139.0537,673.5396 141.125,673.875 143.0635,674.2847 144.8594,674.7734 146.5098,675.3428 148.0,676.0 149.3027,676.7588 150.4531,677.6016 151.4758,678.5166 152.375,679.5 153.155,680.5459 153.8398,681.6484 154.4409,682.8037 155.0,684.0 155.5864,685.2197 156.1289,686.4766 156.5835,687.7778 156.9375,689.125 157.1665,690.5229 157.2617,691.9688 157.2163,693.4609 157.0,695.0 156.5688,696.5859 155.957,698.2188 155.1829,699.8984 154.25,701.625 153.1707,703.3984 151.9375,705.2188 150.5469,707.0859 149.0,709.0" stroke="#000" stroke-width="1" /><polyline fill="none" opacity="100" points="114.0,682.0 114.0,666.0" stroke="#000" stroke-width="1" /><polyline fill="none" opacity="100" points="122.0,700.0 83.0,718.0 83.0,666.0" stroke="#000" stroke-width="1" /><polyline fill="none" opacity="100" points="131.0,717.0 101.0,745.0" stroke="#000" stroke-width="1" /><polyline fill="none" opacity="100" points="88.0,716.0 101.0,745.0" stroke="#000" stroke-dasharray="5,5" stroke-width="1" /><polyline fill="none" opacity="100" points="108.0,658.0 108.0,666.0 162.0,666.0 162.0,757.0 169.0,757.0" stroke="#000" stroke-width="1" /><polyline fill="none" opacity="100" points="169.0,776.0 25.0,776.0" stroke="#000" stroke-width="1" /><polyline fill="none" opacity="100" points="26.0,756.0 34.0,756.0 34.0,623.0 -7.0,623.0" stroke="#000" stroke-width="1" /><polyline fill="none" opacity="100" points="-7.0,607.0 34.0,607.0 34.0,543.0 -143.0,543.0" stroke="#000" stroke-width="1" /><polyline fill="none" opacity="100" points="-143.0,528.0 -95.0,528.0 -95.0,391.0" stroke="#000" stroke-width="1" /><polyline fill="none" opacity="100" points="-95.0,323.0 -95.0,141.0 4.0,141.0" stroke="#000" stroke-width="1" /><polyline fill="none" opacity="100" points="4.0,194.0 -42.0,194.0 -42.0,323.0" stroke="#000" stroke-width="1" /><polyline fill="none" opacity="100" points="-42.0,391.0 -42.0,517.0 34.0,517.0 34.0,498.0 97.0,498.0" stroke="#000" stroke-width="1" /><polyline fill="none" opacity="100" points="97.0,516.0 56.0,516.0 56.0,544.0 97.0,544.0" stroke="#000" stroke-width="1" /><polyline fill="none" opacity="100" points="97.0,554.0 56.0,554.0 56.0,568.0 97.0,568.0" stroke="#000" stroke-width="1" /><polyline fill="none" opacity="100" points="97.0,578.0 56.0,578.0 56.0,607.0 97.0,607.0" stroke="#000" stroke-width="1" /><polyline fill="none" opacity="100" points="97.0,623.0 56.0,623.0 56.0,659.0 53.0,659.0 53.0,711.0" stroke="#000" stroke-width="1" /><polyline fill="none" opacity="100" points="54.0,666.0 90.0,666.0 90.0,658.0" stroke="#000" stroke-width="1" /><polyline fill="none" opacity="100" points="97.0,498.0 97.0,516.0" stroke="#000" stroke-width="1" /><polyline fill="none" opacity="100" points="93.0,498.0 93.0,516.0" stroke="#000" stroke-width="1" /><polyline fill="none" opacity="100" points="89.0,498.0 89.0,516.0" stroke="#000" stroke-width="1" /><polyline fill="none" opacity="100" points="85.0,498.0 85.0,516.0" stroke="#000" stroke-width="1" /><polyline fill="none" opacity="100" points="74.0,498.0 74.0,516.0" stroke="#000" stroke-width="1" /><polyline fill="none" opacity="100" points="70.0,498.0 70.0,516.0" stroke="#000" stroke-width="1" /><polyline fill="none" opacity="100" points="66.0,498.0 66.0,516.0" stroke="#000" stroke-width="1" /><polyline fill="none" opacity="100" points="62.0,498.0 62.0,516.0" stroke="#000" stroke-width="1" /><polyline fill="none" opacity="100" points="97.0,544.0 97.0,554.0" stroke="#000" stroke-width="1" /><polyline fill="none" opacity="100" points="93.0,544.0 93.0,554.0" stroke="#000" stroke-width="1" /><polyline fill="none" opacity="100" points="89.0,544.0 89.0,554.0" stroke="#000" stroke-width="1" /><polyline fill="none" opacity="100" points="85.0,544.0 85.0,554.0" stroke="#000" stroke-width="1" /><polyline fill="none" opacity="100" points="74.0,544.0 74.0,554.0" stroke="#000" stroke-width="1" /><polyline fill="none" opacity="100" points="70.0,544.0 70.0,554.0" stroke="#000" stroke-width="1" /><polyline fill="none" opacity="100" points="66.0,544.0 66.0,554.0" stroke="#000" stroke-width="1" /><polyline fill="none" opacity="100" points="62.0,544.0 62.0,554.0" stroke="#000" stroke-width="1" /><polyline fill="none" opacity="100" points="97.0,568.0 97.0,578.0" stroke="#000" stroke-width="1" /><polyline fill="none" opacity="100" points="93.0,568.0 93.0,578.0" stroke="#000" stroke-width="1" /><polyline fill="none" opacity="100" points="89.0,568.0 89.0,578.0" stroke="#000" stroke-width="1" /><polyline fill="none" opacity="100" points="85.0,568.0 85.0,578.0" stroke="#000" stroke-width="1" /><polyline fill="none" opacity="100" points="74.0,568.0 74.0,578.0" stroke="#000" stroke-width="1" /><polyline fill="none" opacity="100" points="70.0,568.0 70.0,578.0" stroke="#000" stroke-width="1" /><polyline fill="none" opacity="100" points="66.0,568.0 66.0,578.0" stroke="#000" stroke-width="1" /><polyline fill="none" opacity="100" points="62.0,568.0 62.0,578.0" stroke="#000" stroke-width="1" /><polyline fill="none" opacity="100" points="97.0,607.0 97.0,623.0" stroke="#000" stroke-width="1" /><polyline fill="none" opacity="100" points="93.0,607.0 93.0,623.0" stroke="#000" stroke-width="1" /><polyline fill="none" opacity="100" points="89.0,607.0 89.0,623.0" stroke="#000" stroke-width="1" /><polyline fill="none" opacity="100" points="85.0,607.0 85.0,623.0" stroke="#000" stroke-width="1" /><polyline fill="none" opacity="100" points="74.0,607.0 74.0,623.0" stroke="#000" stroke-width="1" /><polyline fill="none" opacity="100" points="70.0,607.0 70.0,623.0" stroke="#000" stroke-width="1" /><polyline fill="none" opacity="100" points="66.0,607.0 66.0,623.0" stroke="#000" stroke-width="1" /><polyline fill="none" opacity="100" points="62.0,607.0 62.0,623.0" stroke="#000" stroke-width="1" /><polyline fill="none" opacity="100" points="29.0,607.0 29.0,623.0" stroke="#000" stroke-width="1" /><polyline fill="none" opacity="100" points="25.0,607.0 25.0,623.0" stroke="#000" stroke-width="1" /><polyline fill="none" opacity="100" points="21.0,607.0 21.0,623.0" stroke="#000" stroke-width="1" /><polyline fill="none" opacity="100" points="17.0,607.0 17.0,623.0" stroke="#000" stroke-width="1" /><polyline fill="none" opacity="100" points="-7.0,607.0 -7.0,623.0" stroke="#000" stroke-width="1" /><polyline fill="none" opacity="100" points="-3.0,607.0 -3.0,623.0" stroke="#000" stroke-width="1" /><polyline fill="none" opacity="100" points="1.0,607.0 1.0,623.0" stroke="#000" stroke-width="1" /><polyline fill="none" opacity="100" points="5.0,607.0 5.0,623.0" stroke="#000" stroke-width="1" /><polyline fill="none" opacity="100" points="34.0,671.0 53.0,671.0" stroke="#000" stroke-width="1" /><polyline fill="none" opacity="100" points="34.0,675.0 53.0,675.0" stroke="#000" stroke-width="1" /><polyline fill="none" opacity="100" points="34.0,679.0 53.0,679.0" stroke="#000" stroke-width="1" /><polyline fill="none" opacity="100" points="34.0,683.0 53.0,683.0" stroke="#000" stroke-width="1" /><polyline fill="none" opacity="100" points="34.0,687.0 53.0,687.0" stroke="#000" stroke-width="1" /><polyline fill="none" opacity="100" points="53.0,711.0 34.0,711.0" stroke="#000" stroke-width="1" /><polyline fill="none" opacity="100" points="53.0,707.0 34.0,707.0" stroke="#000" stroke-width="1" /><polyline fill="none" opacity="100" points="53.0,703.0 34.0,703.0" stroke="#000" stroke-width="1" /><polyline fill="none" opacity="100" points="53.0,699.0 34.0,699.0" stroke="#000" stroke-width="1" /><polyline fill="none" opacity="100" points="-143.0,543.0 -143.0,528.0" stroke="#000" stroke-width="1" /><polyline fill="none" opacity="100" points="-139.0,543.0 -139.0,528.0" stroke="#000" stroke-width="1" /><polyline fill="none" opacity="100" points="-135.0,543.0 -135.0,528.0" stroke="#000" stroke-width="1" /><polyline fill="none" opacity="100" points="-131.0,543.0 -131.0,528.0" stroke="#000" stroke-width="1" /><polyline fill="none" opacity="100" points="-113.0,528.0 -113.0,543.0" stroke="#000" stroke-width="1" /><polyline fill="none" opacity="100" points="-109.0,528.0 -109.0,543.0" stroke="#000" stroke-width="1" /><polyline fill="none" opacity="100" points="-105.0,528.0 -105.0,543.0" stroke="#000" stroke-width="1" /><polyline fill="none" opacity="100" points="-101.0,528.0 -101.0,543.0" stroke="#000" stroke-width="1" /><polyline fill="none" opacity="100" points="4.0,194.0 4.0,141.0" stroke="#000" stroke-width="1" /><polyline fill="none" opacity="100" points="0.0,194.0 0.0,141.0" stroke="#000" stroke-width="1" /><polyline fill="none" opacity="100" points="-4.0,194.0 -4.0,141.0" stroke="#000" stroke-width="1" /><polyline fill="none" opacity="100" points="-8.0,194.0 -8.0,141.0" stroke="#000" stroke-width="1" /><polyline fill="none" opacity="100" points="-19.0,194.0 -19.0,141.0" stroke="#000" stroke-width="1" /><polyline fill="none" opacity="100" points="-23.0,194.0 -23.0,141.0" stroke="#000" stroke-width="1" /><polyline fill="none" opacity="100" points="-27.0,194.0 -27.0,141.0" stroke="#000" stroke-width="1" /><polyline fill="none" opacity="100" points="-31.0,194.0 -31.0,141.0" stroke="#000" stroke-width="1" /><polyline fill="none" opacity="100" points="-95.0,323.0 -95.0,391.0" stroke="#C0C0C0" stroke-width="1" /><polyline fill="none" opacity="100" points="-42.0,368.0 -42.0,391.0" stroke="#C0C0C0" stroke-width="1" /><polyline fill="none" opacity="100" points="-42.0,323.0 -42.0,346.0" stroke="#C0C0C0" stroke-width="1" /><polyline fill="none" opacity="100" points="-42.0,346.0 -42.0,352.0 -1.0,352.0" stroke="#C0C0C0" stroke-width="1" /><polyline fill="none" opacity="100" points="-1.0,362.0 -42.0,362.0 -42.0,368.0" stroke="#C0C0C0" stroke-width="1" /><polyline fill="none" opacity="100" points="-1.0,362.0 -1.0,352.0" stroke="#C0C0C0" stroke-width="1" /><polyline fill="none" opacity="100" points="-5.0,362.0 -5.0,352.0" stroke="#C0C0C0" stroke-width="1" /><polyline fill="none" opacity="100" points="-9.0,362.0 -9.0,352.0" stroke="#C0C0C0" stroke-width="1" /><polyline fill="none" opacity="100" points="-13.0,362.0 -13.0,352.0" stroke="#C0C0C0" stroke-width="1" /><polyline fill="none" opacity="100" points="-24.0,362.0 -24.0,352.0" stroke="#C0C0C0" stroke-width="1" /><polyline fill="none" opacity="100" points="-28.0,362.0 -28.0,352.0" stroke="#C0C0C0" stroke-width="1" /><polyline fill="none" opacity="100" points="-32.0,362.0 -32.0,352.0" stroke="#C0C0C0" stroke-width="1" /><polyline fill="none" opacity="100" points="-36.0,362.0 -36.0,352.0" stroke="#C0C0C0" stroke-width="1" /><polyline fill="none" opacity="100" points="742.0,372.0 -116.0,372.0" stroke="#000" stroke-width="1" /><polyline fill="none" opacity="100" points="742.0,382.0 -116.0,382.0" stroke="#000" stroke-width="1" /><polyline fill="none" opacity="100" points="-109.0,370.0 -109.0,384.0" stroke="#000" stroke-width="1" /><polyline fill="none" opacity="100" points="-102.0,370.0 -102.0,384.0" stroke="#000" stroke-width="1" /><polyline fill="none" opacity="100" points="-95.0,370.0 -95.0,384.0" stroke="#000" stroke-width="1" /><polyline fill="none" opacity="100" points="-88.0,370.0 -88.0,384.0" stroke="#000" stroke-width="1" /><polyline fill="none" opacity="100" points="-81.0,370.0 -81.0,384.0" stroke="#000" stroke-width="1" /><polyline fill="none" opacity="100" points="-74.0,370.0 -74.0,384.0" stroke="#000" stroke-width="1" /><polyline fill="none" opacity="100" points="-67.0,370.0 -67.0,384.0" stroke="#000" stroke-width="1" /><polyline fill="none" opacity="100" points="-60.0,370.0 -60.0,384.0" stroke="#000" stroke-width="1" /><polyline fill="none" opacity="100" points="-53.0,370.0 -53.0,384.0" stroke="#000" stroke-width="1" /><polyline fill="none" opacity="100" points="-46.0,370.0 -46.0,384.0" stroke="#000" stroke-width="1" /><polyline fill="none" opacity="100" points="-39.0,370.0 -39.0,384.0" stroke="#000" stroke-width="1" /><polyline fill="none" opacity="100" points="-32.0,370.0 -32.0,384.0" stroke="#000" stroke-width="1" /><polyline fill="none" opacity="100" points="-25.0,370.0 -25.0,384.0" stroke="#000" stroke-width="1" /><polyline fill="none" opacity="100" points="-18.0,370.0 -18.0,384.0" stroke="#000" stroke-width="1" /><polyline fill="none" opacity="100" points="-11.0,370.0 -11.0,384.0" stroke="#000" stroke-width="1" /><polyline fill="none" opacity="100" points="-4.0,370.0 -4.0,384.0" stroke="#000" stroke-width="1" /><polyline fill="none" opacity="100" points="3.0,370.0 3.0,384.0" stroke="#000" stroke-width="1" /><polyline fill="none" opacity="100" points="10.0,370.0 10.0,384.0" stroke="#000" stroke-width="1" /><polyline fill="none" opacity="100" points="17.0,370.0 17.0,384.0" stroke="#000" stroke-width="1" /><polyline fill="none" opacity="100" points="24.0,370.0 24.0,384.0" stroke="#000" stroke-width="1" /><polyline fill="none" opacity="100" points="31.0,370.0 31.0,384.0" stroke="#000" stroke-width="1" /><polyline fill="none" opacity="100" points="38.0,370.0 38.0,384.0" stroke="#000" stroke-width="1" /><polyline fill="none" opacity="100" points="45.0,370.0 45.0,384.0" stroke="#000" stroke-width="1" /><polyline fill="none" opacity="100" points="52.0,370.0 52.0,384.0" stroke="#000" stroke-width="1" /><polyline fill="none" opacity="100" points="59.0,370.0 59.0,384.0" stroke="#000" stroke-width="1" /><polyline fill="none" opacity="100" points="66.0,370.0 66.0,384.0" stroke="#000" stroke-width="1" /><polyline fill="none" opacity="100" points="73.0,370.0 73.0,384.0" stroke="#000" stroke-width="1" /><polyline fill="none" opacity="100" points="80.0,370.0 80.0,384.0" stroke="#000" stroke-width="1" /><polyline fill="none" opacity="100" points="87.0,370.0 87.0,384.0" stroke="#000" stroke-width="1" /><polyline fill="none" opacity="100" points="94.0,370.0 94.0,384.0" stroke="#000" stroke-width="1" /><polyline fill="none" opacity="100" points="101.0,370.0 101.0,384.0" stroke="#000" stroke-width="1" /><polyline fill="none" opacity="100" points="108.0,370.0 108.0,384.0" stroke="#000" stroke-width="1" /><polyline fill="none" opacity="100" points="115.0,370.0 115.0,384.0" stroke="#000" stroke-width="1" /><polyline fill="none" opacity="100" points="122.0,370.0 122.0,384.0" stroke="#000" stroke-width="1" /><polyline fill="none" opacity="100" points="129.0,370.0 129.0,384.0" stroke="#000" stroke-width="1" /><polyline fill="none" opacity="100" points="136.0,370.0 136.0,384.0" stroke="#000" stroke-width="1" /><polyline fill="none" opacity="100" points="143.0,370.0 143.0,384.0" stroke="#000" stroke-width="1" /><polyline fill="none" opacity="100" points="150.0,370.0 150.0,384.0" stroke="#000" stroke-width="1" /><polyline fill="none" opacity="100" points="157.0,370.0 157.0,384.0" stroke="#000" stroke-width="1" /><polyline fill="none" opacity="100" points="164.0,370.0 164.0,384.0" stroke="#000" stroke-width="1" /><polyline fill="none" opacity="100" points="171.0,370.0 171.0,384.0" stroke="#000" stroke-width="1" /><polyline fill="none" opacity="100" points="178.0,370.0 178.0,384.0" stroke="#000" stroke-width="1" /><polyline fill="none" opacity="100" points="185.0,370.0 185.0,384.0" stroke="#000" stroke-width="1" /><polyline fill="none" opacity="100" points="192.0,370.0 192.0,384.0" stroke="#000" stroke-width="1" /><polyline fill="none" opacity="100" points="199.0,370.0 199.0,384.0" stroke="#000" stroke-width="1" /><polyline fill="none" opacity="100" points="206.0,370.0 206.0,384.0" stroke="#000" stroke-width="1" /><polyline fill="none" opacity="100" points="213.0,370.0 213.0,384.0" stroke="#000" stroke-width="1" /><polyline fill="none" opacity="100" points="220.0,370.0 220.0,384.0" stroke="#000" stroke-width="1" /><polyline fill="none" opacity="100" points="227.0,370.0 227.0,384.0" stroke="#000" stroke-width="1" /><polyline fill="none" opacity="100" points="234.0,370.0 234.0,384.0" stroke="#000" stroke-width="1" /><polyline fill="none" opacity="100" points="241.0,370.0 241.0,384.0" stroke="#000" stroke-width="1" /><polyline fill="none" opacity="100" points="248.0,370.0 248.0,384.0" stroke="#000" stroke-width="1" /><polyline fill="none" opacity="100" points="255.0,370.0 255.0,384.0" stroke="#000" stroke-width="1" /><polyline fill="none" opacity="100" points="262.0,370.0 262.0,384.0" stroke="#000" stroke-width="1" /><polyline fill="none" opacity="100" points="269.0,370.0 269.0,384.0" stroke="#000" stroke-width="1" /><polyline fill="none" opacity="100" points="276.0,370.0 276.0,384.0" stroke="#000" stroke-width="1" /><polyline fill="none" opacity="100" points="283.0,370.0 283.0,384.0" stroke="#000" stroke-width="1" /><polyline fill="none" opacity="100" points="290.0,370.0 290.0,384.0" stroke="#000" stroke-width="1" /><polyline fill="none" opacity="100" points="297.0,370.0 297.0,384.0" stroke="#000" stroke-width="1" /><polyline fill="none" opacity="100" points="304.0,370.0 304.0,384.0" stroke="#000" stroke-width="1" /><polyline fill="none" opacity="100" points="311.0,370.0 311.0,384.0" stroke="#000" stroke-width="1" /><polyline fill="none" opacity="100" points="318.0,370.0 318.0,384.0" stroke="#000" stroke-width="1" /><polyline fill="none" opacity="100" points="325.0,370.0 325.0,384.0" stroke="#000" stroke-width="1" /><polyline fill="none" opacity="100" points="332.0,370.0 332.0,384.0" stroke="#000" stroke-width="1" /><polyline fill="none" opacity="100" points="339.0,370.0 339.0,384.0" stroke="#000" stroke-width="1" /><polyline fill="none" opacity="100" points="346.0,370.0 346.0,384.0" stroke="#000" stroke-width="1" /><polyline fill="none" opacity="100" points="353.0,370.0 353.0,384.0" stroke="#000" stroke-width="1" /><polyline fill="none" opacity="100" points="360.0,370.0 360.0,384.0" stroke="#000" stroke-width="1" /><polyline fill="none" opacity="100" points="367.0,370.0 367.0,384.0" stroke="#000" stroke-width="1" /><polyline fill="none" opacity="100" points="374.0,370.0 374.0,384.0" stroke="#000" stroke-width="1" /><polyline fill="none" opacity="100" points="381.0,370.0 381.0,384.0" stroke="#000" stroke-width="1" /><polyline fill="none" opacity="100" points="388.0,370.0 388.0,384.0" stroke="#000" stroke-width="1" /><polyline fill="none" opacity="100" points="395.0,370.0 395.0,384.0" stroke="#000" stroke-width="1" /><polyline fill="none" opacity="100" points="402.0,370.0 402.0,384.0" stroke="#000" stroke-width="1" /><polyline fill="none" opacity="100" points="409.0,370.0 409.0,384.0" stroke="#000" stroke-width="1" /><polyline fill="none" opacity="100" points="416.0,370.0 416.0,384.0" stroke="#000" stroke-width="1" /><polyline fill="none" opacity="100" points="423.0,370.0 423.0,384.0" stroke="#000" stroke-width="1" /><polyline fill="none" opacity="100" points="430.0,370.0 430.0,384.0" stroke="#000" stroke-width="1" /><polyline fill="none" opacity="100" points="437.0,370.0 437.0,384.0" stroke="#000" stroke-width="1" /><polyline fill="none" opacity="100" points="444.0,370.0 444.0,384.0" stroke="#000" stroke-width="1" /><polyline fill="none" opacity="100" points="451.0,370.0 451.0,384.0" stroke="#000" stroke-width="1" /><polyline fill="none" opacity="100" points="458.0,370.0 458.0,384.0" stroke="#000" stroke-width="1" /><polyline fill="none" opacity="100" points="465.0,370.0 465.0,384.0" stroke="#000" stroke-width="1" /><polyline fill="none" opacity="100" points="472.0,370.0 472.0,384.0" stroke="#000" stroke-width="1" /><polyline fill="none" opacity="100" points="479.0,370.0 479.0,384.0" stroke="#000" stroke-width="1" /><polyline fill="none" opacity="100" points="486.0,370.0 486.0,384.0" stroke="#000" stroke-width="1" /><polyline fill="none" opacity="100" points="493.0,370.0 493.0,384.0" stroke="#000" stroke-width="1" /><polyline fill="none" opacity="100" points="500.0,370.0 500.0,384.0" stroke="#000" stroke-width="1" /><polyline fill="none" opacity="100" points="507.0,370.0 507.0,384.0" stroke="#000" stroke-width="1" /><polyline fill="none" opacity="100" points="514.0,370.0 514.0,384.0" stroke="#000" stroke-width="1" /><polyline fill="none" opacity="100" points="521.0,370.0 521.0,384.0" stroke="#000" stroke-width="1" /><polyline fill="none" opacity="100" points="528.0,370.0 528.0,384.0" stroke="#000" stroke-width="1" /><polyline fill="none" opacity="100" points="535.0,370.0 535.0,384.0" stroke="#000" stroke-width="1" /><polyline fill="none" opacity="100" points="542.0,370.0 542.0,384.0" stroke="#000" stroke-width="1" /><polyline fill="none" opacity="100" points="549.0,370.0 549.0,384.0" stroke="#000" stroke-width="1" /><polyline fill="none" opacity="100" points="556.0,370.0 556.0,384.0" stroke="#000" stroke-width="1" /><polyline fill="none" opacity="100" points="563.0,370.0 563.0,384.0" stroke="#000" stroke-width="1" /><polyline fill="none" opacity="100" points="570.0,370.0 570.0,384.0" stroke="#000" stroke-width="1" /><polyline fill="none" opacity="100" points="577.0,370.0 577.0,384.0" stroke="#000" stroke-width="1" /><polyline fill="none" opacity="100" points="584.0,370.0 584.0,384.0" stroke="#000" stroke-width="1" /><polyline fill="none" opacity="100" points="591.0,370.0 591.0,384.0" stroke="#000" stroke-width="1" /><polyline fill="none" opacity="100" points="598.0,370.0 598.0,384.0" stroke="#000" stroke-width="1" /><polyline fill="none" opacity="100" points="605.0,370.0 605.0,384.0" stroke="#000" stroke-width="1" /><polyline fill="none" opacity="100" points="612.0,370.0 612.0,384.0" stroke="#000" stroke-width="1" /><polyline fill="none" opacity="100" points="619.0,370.0 619.0,384.0" stroke="#000" stroke-width="1" /><polyline fill="none" opacity="100" points="626.0,370.0 626.0,384.0" stroke="#000" stroke-width="1" /><polyline fill="none" opacity="100" points="633.0,370.0 633.0,384.0" stroke="#000" stroke-width="1" /><polyline fill="none" opacity="100" points="640.0,370.0 640.0,384.0" stroke="#000" stroke-width="1" /><polyline fill="none" opacity="100" points="647.0,370.0 647.0,384.0" stroke="#000" stroke-width="1" /><polyline fill="none" opacity="100" points="654.0,370.0 654.0,384.0" stroke="#000" stroke-width="1" /><polyline fill="none" opacity="100" points="661.0,370.0 661.0,384.0" stroke="#000" stroke-width="1" /><polyline fill="none" opacity="100" points="668.0,370.0 668.0,384.0" stroke="#000" stroke-width="1" /><polyline fill="none" opacity="100" points="675.0,370.0 675.0,384.0" stroke="#000" stroke-width="1" /><polyline fill="none" opacity="100" points="682.0,370.0 682.0,384.0" stroke="#000" stroke-width="1" /><polyline fill="none" opacity="100" points="689.0,370.0 689.0,384.0" stroke="#000" stroke-width="1" /><polyline fill="none" opacity="100" points="696.0,370.0 696.0,384.0" stroke="#000" stroke-width="1" /><polyline fill="none" opacity="100" points="703.0,370.0 703.0,384.0" stroke="#000" stroke-width="1" /><polyline fill="none" opacity="100" points="710.0,370.0 710.0,384.0" stroke="#000" stroke-width="1" /><polyline fill="none" opacity="100" points="717.0,370.0 717.0,384.0" stroke="#000" stroke-width="1" /><polyline fill="none" opacity="100" points="724.0,370.0 724.0,384.0" stroke="#000" stroke-width="1" /><polyline fill="none" opacity="100" points="731.0,370.0 731.0,384.0" stroke="#000" stroke-width="1" /><polyline fill="none" opacity="100" points="738.0,370.0 738.0,384.0" stroke="#000" stroke-width="1" /><polyline fill="none" opacity="100" points="742.0,332.0 -116.0,332.0" stroke="#000" stroke-width="1" /><polyline fill="none" opacity="100" points="742.0,342.0 -116.0,342.0" stroke="#000" stroke-width="1" /><polyline fill="none" opacity="100" points="-109.0,330.0 -109.0,344.0" stroke="#000" stroke-width="1" /><polyline fill="none" opacity="100" points="-102.0,330.0 -102.0,344.0" stroke="#000" stroke-width="1" /><polyline fill="none" opacity="100" points="-95.0,330.0 -95.0,344.0" stroke="#000" stroke-width="1" /><polyline fill="none" opacity="100" points="-88.0,330.0 -88.0,344.0" stroke="#000" stroke-width="1" /><polyline fill="none" opacity="100" points="-81.0,330.0 -81.0,344.0" stroke="#000" stroke-width="1" /><polyline fill="none" opacity="100" points="-74.0,330.0 -74.0,344.0" stroke="#000" stroke-width="1" /><polyline fill="none" opacity="100" points="-67.0,330.0 -67.0,344.0" stroke="#000" stroke-width="1" /><polyline fill="none" opacity="100" points="-60.0,330.0 -60.0,344.0" stroke="#000" stroke-width="1" /><polyline fill="none" opacity="100" points="-53.0,330.0 -53.0,344.0" stroke="#000" stroke-width="1" /><polyline fill="none" opacity="100" points="-46.0,330.0 -46.0,344.0" stroke="#000" stroke-width="1" /><polyline fill="none" opacity="100" points="-39.0,330.0 -39.0,344.0" stroke="#000" stroke-width="1" /><polyline fill="none" opacity="100" points="-32.0,330.0 -32.0,344.0" stroke="#000" stroke-width="1" /><polyline fill="none" opacity="100" points="-25.0,330.0 -25.0,344.0" stroke="#000" stroke-width="1" /><polyline fill="none" opacity="100" points="-18.0,330.0 -18.0,344.0" stroke="#000" stroke-width="1" /><polyline fill="none" opacity="100" points="-11.0,330.0 -11.0,344.0" stroke="#000" stroke-width="1" /><polyline fill="none" opacity="100" points="-4.0,330.0 -4.0,344.0" stroke="#000" stroke-width="1" /><polyline fill="none" opacity="100" points="3.0,330.0 3.0,344.0" stroke="#000" stroke-width="1" /><polyline fill="none" opacity="100" points="10.0,330.0 10.0,344.0" stroke="#000" stroke-width="1" /><polyline fill="none" opacity="100" points="17.0,330.0 17.0,344.0" stroke="#000" stroke-width="1" /><polyline fill="none" opacity="100" points="24.0,330.0 24.0,344.0" stroke="#000" stroke-width="1" /><polyline fill="none" opacity="100" points="31.0,330.0 31.0,344.0" stroke="#000" stroke-width="1" /><polyline fill="none" opacity="100" points="38.0,330.0 38.0,344.0" stroke="#000" stroke-width="1" /><polyline fill="none" opacity="100" points="45.0,330.0 45.0,344.0" stroke="#000" stroke-width="1" /><polyline fill="none" opacity="100" points="52.0,330.0 52.0,344.0" stroke="#000" stroke-width="1" /><polyline fill="none" opacity="100" points="59.0,330.0 59.0,344.0" stroke="#000" stroke-width="1" /><polyline fill="none" opacity="100" points="66.0,330.0 66.0,344.0" stroke="#000" stroke-width="1" /><polyline fill="none" opacity="100" points="73.0,330.0 73.0,344.0" stroke="#000" stroke-width="1" /><polyline fill="none" opacity="100" points="80.0,330.0 80.0,344.0" stroke="#000" stroke-width="1" /><polyline fill="none" opacity="100" points="87.0,330.0 87.0,344.0" stroke="#000" stroke-width="1" /><polyline fill="none" opacity="100" points="94.0,330.0 94.0,344.0" stroke="#000" stroke-width="1" /><polyline fill="none" opacity="100" points="101.0,330.0 101.0,344.0" stroke="#000" stroke-width="1" /><polyline fill="none" opacity="100" points="108.0,330.0 108.0,344.0" stroke="#000" stroke-width="1" /><polyline fill="none" opacity="100" points="115.0,330.0 115.0,344.0" stroke="#000" stroke-width="1" /><polyline fill="none" opacity="100" points="122.0,330.0 122.0,344.0" stroke="#000" stroke-width="1" /><polyline fill="none" opacity="100" points="129.0,330.0 129.0,344.0" stroke="#000" stroke-width="1" /><polyline fill="none" opacity="100" points="136.0,330.0 136.0,344.0" stroke="#000" stroke-width="1" /><polyline fill="none" opacity="100" points="143.0,330.0 143.0,344.0" stroke="#000" stroke-width="1" /><polyline fill="none" opacity="100" points="150.0,330.0 150.0,344.0" stroke="#000" stroke-width="1" /><polyline fill="none" opacity="100" points="157.0,330.0 157.0,344.0" stroke="#000" stroke-width="1" /><polyline fill="none" opacity="100" points="164.0,330.0 164.0,344.0" stroke="#000" stroke-width="1" /><polyline fill="none" opacity="100" points="171.0,330.0 171.0,344.0" stroke="#000" stroke-width="1" /><polyline fill="none" opacity="100" points="178.0,330.0 178.0,344.0" stroke="#000" stroke-width="1" /><polyline fill="none" opacity="100" points="185.0,330.0 185.0,344.0" stroke="#000" stroke-width="1" /><polyline fill="none" opacity="100" points="192.0,330.0 192.0,344.0" stroke="#000" stroke-width="1" /><polyline fill="none" opacity="100" points="199.0,330.0 199.0,344.0" stroke="#000" stroke-width="1" /><polyline fill="none" opacity="100" points="206.0,330.0 206.0,344.0" stroke="#000" stroke-width="1" /><polyline fill="none" opacity="100" points="213.0,330.0 213.0,344.0" stroke="#000" stroke-width="1" /><polyline fill="none" opacity="100" points="220.0,330.0 220.0,344.0" stroke="#000" stroke-width="1" /><polyline fill="none" opacity="100" points="227.0,330.0 227.0,344.0" stroke="#000" stroke-width="1" /><polyline fill="none" opacity="100" points="234.0,330.0 234.0,344.0" stroke="#000" stroke-width="1" /><polyline fill="none" opacity="100" points="241.0,330.0 241.0,344.0" stroke="#000" stroke-width="1" /><polyline fill="none" opacity="100" points="248.0,330.0 248.0,344.0" stroke="#000" stroke-width="1" /><polyline fill="none" opacity="100" points="255.0,330.0 255.0,344.0" stroke="#000" stroke-width="1" /><polyline fill="none" opacity="100" points="262.0,330.0 262.0,344.0" stroke="#000" stroke-width="1" /><polyline fill="none" opacity="100" points="269.0,330.0 269.0,344.0" stroke="#000" stroke-width="1" /><polyline fill="none" opacity="100" points="276.0,330.0 276.0,344.0" stroke="#000" stroke-width="1" /><polyline fill="none" opacity="100" points="283.0,330.0 283.0,344.0" stroke="#000" stroke-width="1" /><polyline fill="none" opacity="100" points="290.0,330.0 290.0,344.0" stroke="#000" stroke-width="1" /><polyline fill="none" opacity="100" points="297.0,330.0 297.0,344.0" stroke="#000" stroke-width="1" /><polyline fill="none" opacity="100" points="304.0,330.0 304.0,344.0" stroke="#000" stroke-width="1" /><polyline fill="none" opacity="100" points="311.0,330.0 311.0,344.0" stroke="#000" stroke-width="1" /><polyline fill="none" opacity="100" points="318.0,330.0 318.0,344.0" stroke="#000" stroke-width="1" /><polyline fill="none" opacity="100" points="325.0,330.0 325.0,344.0" stroke="#000" stroke-width="1" /><polyline fill="none" opacity="100" points="332.0,330.0 332.0,344.0" stroke="#000" stroke-width="1" /><polyline fill="none" opacity="100" points="339.0,330.0 339.0,344.0" stroke="#000" stroke-width="1" /><polyline fill="none" opacity="100" points="346.0,330.0 346.0,344.0" stroke="#000" stroke-width="1" /><polyline fill="none" opacity="100" points="353.0,330.0 353.0,344.0" stroke="#000" stroke-width="1" /><polyline fill="none" opacity="100" points="360.0,330.0 360.0,344.0" stroke="#000" stroke-width="1" /><polyline fill="none" opacity="100" points="367.0,330.0 367.0,344.0" stroke="#000" stroke-width="1" /><polyline fill="none" opacity="100" points="374.0,330.0 374.0,344.0" stroke="#000" stroke-width="1" /><polyline fill="none" opacity="100" points="381.0,330.0 381.0,344.0" stroke="#000" stroke-width="1" /><polyline fill="none" opacity="100" points="388.0,330.0 388.0,344.0" stroke="#000" stroke-width="1" /><polyline fill="none" opacity="100" points="395.0,330.0 395.0,344.0" stroke="#000" stroke-width="1" /><polyline fill="none" opacity="100" points="402.0,330.0 402.0,344.0" stroke="#000" stroke-width="1" /><polyline fill="none" opacity="100" points="409.0,330.0 409.0,344.0" stroke="#000" stroke-width="1" /><polyline fill="none" opacity="100" points="416.0,330.0 416.0,344.0" stroke="#000" stroke-width="1" /><polyline fill="none" opacity="100" points="423.0,330.0 423.0,344.0" stroke="#000" stroke-width="1" /><polyline fill="none" opacity="100" points="430.0,330.0 430.0,344.0" stroke="#000" stroke-width="1" /><polyline fill="none" opacity="100" points="437.0,330.0 437.0,344.0" stroke="#000" stroke-width="1" /><polyline fill="none" opacity="100" points="444.0,330.0 444.0,344.0" stroke="#000" stroke-width="1" /><polyline fill="none" opacity="100" points="451.0,330.0 451.0,344.0" stroke="#000" stroke-width="1" /><polyline fill="none" opacity="100" points="458.0,330.0 458.0,344.0" stroke="#000" stroke-width="1" /><polyline fill="none" opacity="100" points="465.0,330.0 465.0,344.0" stroke="#000" stroke-width="1" /><polyline fill="none" opacity="100" points="472.0,330.0 472.0,344.0" stroke="#000" stroke-width="1" /><polyline fill="none" opacity="100" points="479.0,330.0 479.0,344.0" stroke="#000" stroke-width="1" /><polyline fill="none" opacity="100" points="486.0,330.0 486.0,344.0" stroke="#000" stroke-width="1" /><polyline fill="none" opacity="100" points="493.0,330.0 493.0,344.0" stroke="#000" stroke-width="1" /><polyline fill="none" opacity="100" points="500.0,330.0 500.0,344.0" stroke="#000" stroke-width="1" /><polyline fill="none" opacity="100" points="507.0,330.0 507.0,344.0" stroke="#000" stroke-width="1" /><polyline fill="none" opacity="100" points="514.0,330.0 514.0,344.0" stroke="#000" stroke-width="1" /><polyline fill="none" opacity="100" points="521.0,330.0 521.0,344.0" stroke="#000" stroke-width="1" /><polyline fill="none" opacity="100" points="528.0,330.0 528.0,344.0" stroke="#000" stroke-width="1" /><polyline fill="none" opacity="100" points="535.0,330.0 535.0,344.0" stroke="#000" stroke-width="1" /><polyline fill="none" opacity="100" points="542.0,330.0 542.0,344.0" stroke="#000" stroke-width="1" /><polyline fill="none" opacity="100" points="549.0,330.0 549.0,344.0" stroke="#000" stroke-width="1" /><polyline fill="none" opacity="100" points="556.0,330.0 556.0,344.0" stroke="#000" stroke-width="1" /><polyline fill="none" opacity="100" points="563.0,330.0 563.0,344.0" stroke="#000" stroke-width="1" /><polyline fill="none" opacity="100" points="570.0,330.0 570.0,344.0" stroke="#000" stroke-width="1" /><polyline fill="none" opacity="100" points="577.0,330.0 577.0,344.0" stroke="#000" stroke-width="1" /><polyline fill="none" opacity="100" points="584.0,330.0 584.0,344.0" stroke="#000" stroke-width="1" /><polyline fill="none" opacity="100" points="591.0,330.0 591.0,344.0" stroke="#000" stroke-width="1" /><polyline fill="none" opacity="100" points="598.0,330.0 598.0,344.0" stroke="#000" stroke-width="1" /><polyline fill="none" opacity="100" points="605.0,330.0 605.0,344.0" stroke="#000" stroke-width="1" /><polyline fill="none" opacity="100" points="612.0,330.0 612.0,344.0" stroke="#000" stroke-width="1" /><polyline fill="none" opacity="100" points="619.0,330.0 619.0,344.0" stroke="#000" stroke-width="1" /><polyline fill="none" opacity="100" points="626.0,330.0 626.0,344.0" stroke="#000" stroke-width="1" /><polyline fill="none" opacity="100" points="633.0,330.0 633.0,344.0" stroke="#000" stroke-width="1" /><polyline fill="none" opacity="100" points="640.0,330.0 640.0,344.0" stroke="#000" stroke-width="1" /><polyline fill="none" opacity="100" points="647.0,330.0 647.0,344.0" stroke="#000" stroke-width="1" /><polyline fill="none" opacity="100" points="654.0,330.0 654.0,344.0" stroke="#000" stroke-width="1" /><polyline fill="none" opacity="100" points="661.0,330.0 661.0,344.0" stroke="#000" stroke-width="1" /><polyline fill="none" opacity="100" points="668.0,330.0 668.0,344.0" stroke="#000" stroke-width="1" /><polyline fill="none" opacity="100" points="675.0,330.0 675.0,344.0" stroke="#000" stroke-width="1" /><polyline fill="none" opacity="100" points="682.0,330.0 682.0,344.0" stroke="#000" stroke-width="1" /><polyline fill="none" opacity="100" points="689.0,330.0 689.0,344.0" stroke="#000" stroke-width="1" /><polyline fill="none" opacity="100" points="696.0,330.0 696.0,344.0" stroke="#000" stroke-width="1" /><polyline fill="none" opacity="100" points="703.0,330.0 703.0,344.0" stroke="#000" stroke-width="1" /><polyline fill="none" opacity="100" points="710.0,330.0 710.0,344.0" stroke="#000" stroke-width="1" /><polyline fill="none" opacity="100" points="717.0,330.0 717.0,344.0" stroke="#000" stroke-width="1" /><polyline fill="none" opacity="100" points="724.0,330.0 724.0,344.0" stroke="#000" stroke-width="1" /><polyline fill="none" opacity="100" points="731.0,330.0 731.0,344.0" stroke="#000" stroke-width="1" /><polyline fill="none" opacity="100" points="738.0,330.0 738.0,344.0" stroke="#000" stroke-width="1" /><polyline fill="none" opacity="100" points="99.0,668.0 99.0,656.0" stroke="#F00" stroke-width="1" /><polygon fill="#F00" opacity="100" points="99.9317,659.4773 99.0,656.0 98.0683,659.4773" stroke="#F00" stroke-width="1" /><polyline fill="none" opacity="100" points="2.0,352.0 5.0,362.0" stroke="#F00" stroke-width="1" /><polyline fill="none" opacity="100" points="5.0,352.0 2.0,362.0" stroke="#F00" stroke-width="1" /><polyline fill="none" opacity="100" points="-39.0,352.0 -42.0,362.0" stroke="#F00" stroke-width="1" /><polyline fill="none" opacity="100" points="-42.0,352.0 -39.0,362.0" stroke="#F00" stroke-width="1" /><polyline fill="none" opacity="100" points="25.0,765.0 35.0,765.0" stroke="#008000" stroke-width="1" /><polygon fill="#008000" opacity="100" points="32.1022,765.7765 35.0,765.0 32.1022,764.2235" stroke="#008000" stroke-width="1" /><polyline fill="none" opacity="100" points="44.0,655.0 44.0,667.0" stroke="#008000" stroke-width="1" /><polygon fill="#008000" opacity="100" points="43.0683,663.5227 44.0,667.0 44.9317,663.5227" stroke="#008000" stroke-width="1" /><polyline fill="none" opacity="100" points="170.0,766.0 159.0,766.0" stroke="#008000" stroke-width="1" /><polygon fill="#008000" opacity="100" points="162.1876,765.1459 159.0,766.0 162.1876,766.8541" stroke="#008000" stroke-width="1" /><text fill="#DC004B" font-family="Arial" font-size="20" font-weight="normal" opacity="100" transform="rotate(-0.0 276.0,520.0) translate(0 20)" x="276.0" y="520.0">&lt;&lt; Лесная</text><text fill="#DC004B" font-family="Arial" font-size="20" font-weight="normal" opacity="100" transform="rotate(-0.0 569.0,650.0) translate(0 20)" x="569.0" y="650.0">Площадь Ленина &gt;&gt;</text><text fill="#DC004B" font-family="Arial" font-size="25" font-weight="bold" opacity="100" transform="rotate(-0.0 430.0,583.0) translate(0 25)" x="430.0" y="583.0">Выборгская</text><text fill="#00AFAF" font-family="Arial" font-size="15" font-weight="normal" opacity="100" transform="rotate(-0.0 -119.0,565.0) translate(0 15)" x="-119.0" y="565.0">Лесной проспект</text><text fill="#00AFAF" font-family="Arial" font-size="12" font-weight="normal" opacity="100" transform="rotate(-0.0 110.0,553.0) translate(0 12)" x="110.0" y="553.0">трамваи</text><text fill="#00AFAF" font-family="Arial" font-size="15" font-weight="normal" opacity="100" transform="rotate(-90.0 -44.0,754.0) translate(0 15)" x="-44.0" y="754.0">улица Смолячкова</text><text fill="#00AFAF" font-family="Arial" font-size="15" font-weight="normal" opacity="100" transform="rotate(-90.0 804.0,699.0) translate(0 15)" x="804.0" y="699.0">Гренадерская улица</text><text fill="#00AFAF" font-family="Arial" font-size="15" font-weight="normal" opacity="100" transform="rotate(-0.0 -97.0,110.0) translate(0 15)" x="-97.0" y="110.0">Чугунная улица</text></g></g></svg>