<?xml version="1.0" encoding="utf-8" ?>
<svg baseProfile="tiny" height="940px" version="1.2" width="960px" xmlns="http://www.w3.org/2000/svg" xmlns:ev="http://www.w3.org/2001/xml-events" xmlns:xlink="http://www.w3.org/1999/xlink"><defs /><g><g transform="rotate(-45.0,480.0,470.0)"><polyline fill="none" opacity="100" points="375.0,403.0 375.0,530.0" stroke="none" stroke-width="1" /><polyline fill="none" opacity="100" points="-64.0,403.0 -64.0,530.0" stroke="none" stroke-width="1" /><polyline fill="none" opacity="100" points="138.0,403.0 138.0,530.0" stroke="none" stroke-width="1" /><polyline fill="none" opacity="100" points="412.0,403.0 440.0,403.0" stroke="none" stroke-width="1" /><polyline fill="none" opacity="100" points="440.0,518.0 412.0,518.0" stroke="none" stroke-width="1" /><polyline fill="none" opacity="100" points="440.0,403.0 440.0,518.0" stroke="none" stroke-width="1" /><polyline fill="none" opacity="100" points="573.0,403.0 375.0,403.0" stroke="none" stroke-width="1" /><polyline fill="none" opacity="100" points="573.0,530.0 375.0,530.0" stroke="none" stroke-width="1" /><polyline fill="none" opacity="100" points="440.0,484.0 513.0,484.0" stroke="none" stroke-width="1" /><polyline fill="none" opacity="100" points="513.0,403.0 513.0,484.0" stroke="none" stroke-width="1" /><polyline fill="none" opacity="100" points="573.0,530.0 573.0,403.0" stroke="none" stroke-width="1" /><polyline fill="none" opacity="100" points="573.0,624.0 573.0,316.0" stroke="none" stroke-width="1" /><polyline fill="none" opacity="100" points="649.0,316.0 649.0,624.0" stroke="none" stroke-width="1" /><polyline fill="none" opacity="100" points="440.0,518.0 513.0,518.0 521.0,518.0 521.0,529.0" stroke="none" stroke-width="1" /><polyline fill="none" opacity="100" points="557.0,403.0 557.0,530.0" stroke="none" stroke-width="1" /><polyline fill="none" opacity="100" points="898.0,243.0 508.0,243.0" stroke="none" stroke-width="1" /><polyline fill="none" opacity="100" points="509.0,316.0 573.0,316.0" stroke="none" stroke-width="1" /><polyline fill="none" opacity="100" points="649.0,316.0 897.0,316.0" stroke="none" stroke-width="1" /><polyline fill="none" opacity="100" points="897.0,624.0 649.0,624.0" stroke="none" stroke-width="1" /><polyline fill="none" opacity="100" points="897.0,704.0 508.0,704.0" stroke="none" stroke-width="1" /><polyline fill="none" opacity="100" points="573.0,624.0 506.0,624.0" stroke="none" stroke-width="1" /><polygon fill="#FB0505" opacity="100" points="-65.0,378.0 375.0,378.0 375.0,403.0 -65.0,403.0" stroke="#000" stroke-width="1" /><polygon fill="#FB0505" opacity="100" points="-64.0,530.0 375.0,530.0 375.0,554.0 -64.0,554.0" stroke="#000" stroke-width="1" /><polyline fill="none" opacity="100" points="375.0,403.0 375.0,530.0" stroke="#000" stroke-width="1" /><polyline fill="none" opacity="100" points="379.0,403.0 379.0,530.0" stroke="#000" stroke-width="1" /><polyline fill="none" opacity="100" points="383.0,403.0 383.0,530.0" stroke="#000" stroke-width="1" /><polyline fill="none" opacity="100" points="387.0,403.0 387.0,530.0" stroke="#000" stroke-width="1" /><polyline fill="none" opacity="100" points="391.0,403.0 391.0,530.0" stroke="#000" stroke-width="1" /><polyline fill="none" opacity="100" points="395.0,403.0 395.0,530.0" stroke="#000" stroke-width="1" /><polyline fill="none" opacity="100" points="399.0,403.0 399.0,530.0" stroke="#000" stroke-width="1" /><polyline fill="none" opacity="100" points="403.0,403.0 403.0,530.0" stroke="#000" stroke-width="1" /><polyline fill="none" opacity="100" points="407.0,403.0 407.0,530.0" stroke="#000" stroke-width="1" /><polyline fill="none" opacity="100" points="411.0,403.0 411.0,530.0" stroke="#000" stroke-width="1" /><polyline fill="none" opacity="100" points="440.0,518.0 440.0,484.0" stroke="#000" stroke-width="1" /><polyline fill="none" opacity="100" points="443.9996,517.9452 443.9996,483.9452" stroke="#000" stroke-width="1" /><polyline fill="none" opacity="100" points="447.9992,517.8904 447.9992,483.8904" stroke="#000" stroke-width="1" /><polyline fill="none" opacity="100" points="451.9989,517.8356 451.9989,483.8356" stroke="#000" stroke-width="1" /><polyline fill="none" opacity="100" points="455.9985,517.7808 455.9985,483.7808" stroke="#000" stroke-width="1" /><polyline fill="none" opacity="100" points="459.9981,517.7261 459.9981,483.7261" stroke="#000" stroke-width="1" /><polyline fill="none" opacity="100" points="463.9977,517.6713 463.9977,483.6713" stroke="#000" stroke-width="1" /><polyline fill="none" opacity="100" points="467.9974,517.6165 467.9974,483.6165" stroke="#000" stroke-width="1" /><polyline fill="none" opacity="100" points="471.997,517.5617 471.997,483.5617" stroke="#000" stroke-width="1" /><polyline fill="none" opacity="100" points="475.9966,517.5069 475.9966,483.5069" stroke="#000" stroke-width="1" /><polyline fill="none" opacity="100" points="479.9962,517.4521 479.9962,483.4521" stroke="#000" stroke-width="1" /><polyline fill="none" opacity="100" points="483.9959,517.3973 483.9959,483.3973" stroke="#000" stroke-width="1" /><polyline fill="none" opacity="100" points="487.9955,517.3425 487.9955,483.3425" stroke="#000" stroke-width="1" /><polyline fill="none" opacity="100" points="491.9951,517.2877 491.9951,483.2877" stroke="#000" stroke-width="1" /><polyline fill="none" opacity="100" points="495.9947,517.2329 495.9947,483.2329" stroke="#000" stroke-width="1" /><polyline fill="none" opacity="100" points="499.9944,517.1782 499.9944,483.1782" stroke="#000" stroke-width="1" /><polyline fill="none" opacity="100" points="503.994,517.1234 503.994,483.1234" stroke="#000" stroke-width="1" /><polyline fill="none" opacity="100" points="507.9936,517.0686 507.9936,483.0686" stroke="#000" stroke-width="1" /><polyline fill="none" opacity="100" points="511.9932,517.0138 511.9932,483.0138" stroke="#000" stroke-width="1" /><polyline fill="none" opacity="100" points="573.0,316.0 573.0,243.0" stroke="#000" stroke-width="1" /><polyline fill="none" opacity="100" points="569.0,316.0 569.0,243.0" stroke="#000" stroke-width="1" /><polyline fill="none" opacity="100" points="565.0,316.0 565.0,243.0" stroke="#000" stroke-width="1" /><polyline fill="none" opacity="100" points="561.0,316.0 561.0,243.0" stroke="#000" stroke-width="1" /><polyline fill="none" opacity="100" points="557.0,316.0 557.0,243.0" stroke="#000" stroke-width="1" /><polyline fill="none" opacity="100" points="553.0,316.0 553.0,243.0" stroke="#000" stroke-width="1" /><polyline fill="none" opacity="100" points="549.0,316.0 549.0,243.0" stroke="#000" stroke-width="1" /><polyline fill="none" opacity="100" points="545.0,316.0 545.0,243.0" stroke="#000" stroke-width="1" /><polyline fill="none" opacity="100" points="541.0,316.0 541.0,243.0" stroke="#000" stroke-width="1" /><polyline fill="none" opacity="100" points="537.0,316.0 537.0,243.0" stroke="#000" stroke-width="1" /><polyline fill="none" opacity="100" points="533.0,316.0 533.0,243.0" stroke="#000" stroke-width="1" /><polyline fill="none" opacity="100" points="529.0,316.0 529.0,243.0" stroke="#000" stroke-width="1" /><polyline fill="none" opacity="100" points="525.0,316.0 525.0,243.0" stroke="#000" stroke-width="1" /><polyline fill="none" opacity="100" points="521.0,316.0 521.0,243.0" stroke="#000" stroke-width="1" /><polyline fill="none" opacity="100" points="517.0,316.0 517.0,243.0" stroke="#000" stroke-width="1" /><polyline fill="none" opacity="100" points="513.0,316.0 513.0,243.0" stroke="#000" stroke-width="1" /><polyline fill="none" opacity="100" points="509.0,316.0 509.0,243.0" stroke="#000" stroke-width="1" /><polyline fill="none" opacity="100" points="829.0,243.0 829.0,316.0" stroke="#000" stroke-width="1" /><polyline fill="none" opacity="100" points="833.0,243.0 833.0,316.0" stroke="#000" stroke-width="1" /><polyline fill="none" opacity="100" points="837.0,243.0 837.0,316.0" stroke="#000" stroke-width="1" /><polyline fill="none" opacity="100" points="841.0,243.0 841.0,316.0" stroke="#000" stroke-width="1" /><polyline fill="none" opacity="100" points="845.0,243.0 845.0,316.0" stroke="#000" stroke-width="1" /><polyline fill="none" opacity="100" points="849.0,243.0 849.0,316.0" stroke="#000" stroke-width="1" /><polyline fill="none" opacity="100" points="853.0,243.0 853.0,316.0" stroke="#000" stroke-width="1" /><polyline fill="none" opacity="100" points="857.0,243.0 857.0,316.0" stroke="#000" stroke-width="1" /><polyline fill="none" opacity="100" points="861.0,243.0 861.0,316.0" stroke="#000" stroke-width="1" /><polyline fill="none" opacity="100" points="865.0,243.0 865.0,316.0" stroke="#000" stroke-width="1" /><polyline fill="none" opacity="100" points="869.0,243.0 869.0,316.0" stroke="#000" stroke-width="1" /><polyline fill="none" opacity="100" points="873.0,243.0 873.0,316.0" stroke="#000" stroke-width="1" /><polyline fill="none" opacity="100" points="877.0,243.0 877.0,316.0" stroke="#000" stroke-width="1" /><polyline fill="none" opacity="100" points="881.0,243.0 881.0,316.0" stroke="#000" stroke-width="1" /><polyline fill="none" opacity="100" points="885.0,243.0 885.0,316.0" stroke="#000" stroke-width="1" /><polyline fill="none" opacity="100" points="889.0,243.0 889.0,316.0" stroke="#000" stroke-width="1" /><polyline fill="none" opacity="100" points="893.0,243.0 893.0,316.0" stroke="#000" stroke-width="1" /><polyline fill="none" opacity="100" points="897.0,243.0 897.0,316.0" stroke="#000" stroke-width="1" /><polyline fill="none" opacity="100" points="573.0,624.0 573.0,704.0" stroke="#000" stroke-width="1" /><polyline fill="none" opacity="100" points="569.0,624.0 569.0,704.0" stroke="#000" stroke-width="1" /><polyline fill="none" opacity="100" points="565.0,624.0 565.0,704.0" stroke="#000" stroke-width="1" /><polyline fill="none" opacity="100" points="561.0,624.0 561.0,704.0" stroke="#000" stroke-width="1" /><polyline fill="none" opacity="100" points="557.0,624.0 557.0,704.0" stroke="#000" stroke-width="1" /><polyline fill="none" opacity="100" points="553.0,624.0 553.0,704.0" stroke="#000" stroke-width="1" /><polyline fill="none" opacity="100" points="549.0,624.0 549.0,704.0" stroke="#000" stroke-width="1" /><polyline fill="none" opacity="100" points="545.0,624.0 545.0,704.0" stroke="#000" stroke-width="1" /><polyline fill="none" opacity="100" points="541.0,624.0 541.0,704.0" stroke="#000" stroke-width="1" /><polyline fill="none" opacity="100" points="537.0,624.0 537.0,704.0" stroke="#000" stroke-width="1" /><polyline fill="none" opacity="100" points="533.0,624.0 533.0,704.0" stroke="#000" stroke-width="1" /><polyline fill="none" opacity="100" points="529.0,624.0 529.0,704.0" stroke="#000" stroke-width="1" /><polyline fill="none" opacity="100" points="525.0,624.0 525.0,704.0" stroke="#000" stroke-width="1" /><polyline fill="none" opacity="100" points="521.0,624.0 521.0,704.0" stroke="#000" stroke-width="1" /><polyline fill="none" opacity="100" points="517.0,624.0 517.0,704.0" stroke="#000" stroke-width="1" /><polyline fill="none" opacity="100" points="513.0,624.0 513.0,704.0" stroke="#000" stroke-width="1" /><polyline fill="none" opacity="100" points="509.0,624.0 509.0,704.0" stroke="#000" stroke-width="1" /><polyline fill="none" opacity="100" points="897.0,624.0 897.0,704.0" stroke="#000" stroke-width="1" /><polyline fill="none" opacity="100" points="893.0,624.0 893.0,704.0" stroke="#000" stroke-width="1" /><polyline fill="none" opacity="100" points="889.0,624.0 889.0,704.0" stroke="#000" stroke-width="1" /><polyline fill="none" opacity="100" points="885.0,624.0 885.0,704.0" stroke="#000" stroke-width="1" /><polyline fill="none" opacity="100" points="881.0,624.0 881.0,704.0" stroke="#000" stroke-width="1" /><polyline fill="none" opacity="100" points="877.0,624.0 877.0,704.0" stroke="#000" stroke-width="1" /><polyline fill="none" opacity="100" points="873.0,624.0 873.0,704.0" stroke="#000" stroke-width="1" /><polyline fill="none" opacity="100" points="869.0,624.0 869.0,704.0" stroke="#000" stroke-width="1" /><polyline fill="none" opacity="100" points="865.0,624.0 865.0,704.0" stroke="#000" stroke-width="1" /><polyline fill="none" opacity="100" points="861.0,624.0 861.0,704.0" stroke="#000" stroke-width="1" /><polyline fill="none" opacity="100" points="857.0,624.0 857.0,704.0" stroke="#000" stroke-width="1" /><polyline fill="none" opacity="100" points="853.0,624.0 853.0,704.0" stroke="#000" stroke-width="1" /><polyline fill="none" opacity="100" points="849.0,624.0 849.0,704.0" stroke="#000" stroke-width="1" /><polyline fill="none" opacity="100" points="845.0,624.0 845.0,704.0" stroke="#000" stroke-width="1" /><polyline fill="none" opacity="100" points="841.0,624.0 841.0,704.0" stroke="#000" stroke-width="1" /><polyline fill="none" opacity="100" points="837.0,624.0 837.0,704.0" stroke="#000" stroke-width="1" /><polyline fill="none" opacity="100" points="833.0,624.0 833.0,704.0" stroke="#000" stroke-width="1" /><polyline fill="none" opacity="100" points="829.0,624.0 829.0,704.0" stroke="#000" stroke-width="1" /><polyline fill="none" opacity="100" points="569.0,382.0 -83.0,382.0" stroke="#505050" stroke-width="1" /><polyline fill="none" opacity="100" points="569.0,398.0 -83.0,398.0" stroke="#505050" stroke-width="1" /><polyline fill="none" opacity="100" points="-76.0,380.0 -76.0,400.0" stroke="#505050" stroke-width="1" /><polyline fill="none" opacity="100" points="-69.0,380.0 -69.0,400.0" stroke="#505050" stroke-width="1" /><polyline fill="none" opacity="100" points="-62.0,380.0 -62.0,400.0" stroke="#505050" stroke-width="1" /><polyline fill="none" opacity="100" points="-55.0,380.0 -55.0,400.0" stroke="#505050" stroke-width="1" /><polyline fill="none" opacity="100" points="-48.0,380.0 -48.0,400.0" stroke="#505050" stroke-width="1" /><polyline fill="none" opacity="100" points="-41.0,380.0 -41.0,400.0" stroke="#505050" stroke-width="1" /><polyline fill="none" opacity="100" points="-34.0,380.0 -34.0,400.0" stroke="#505050" stroke-width="1" /><polyline fill="none" opacity="100" points="-27.0,380.0 -27.0,400.0" stroke="#505050" stroke-width="1" /><polyline fill="none" opacity="100" points="-20.0,380.0 -20.0,400.0" stroke="#505050" stroke-width="1" /><polyline fill="none" opacity="100" points="-13.0,380.0 -13.0,400.0" stroke="#505050" stroke-width="1" /><polyline fill="none" opacity="100" points="-6.0,380.0 -6.0,400.0" stroke="#505050" stroke-width="1" /><polyline fill="none" opacity="100" points="1.0,380.0 1.0,400.0" stroke="#505050" stroke-width="1" /><polyline fill="none" opacity="100" points="8.0,380.0 8.0,400.0" stroke="#505050" stroke-width="1" /><polyline fill="none" opacity="100" points="15.0,380.0 15.0,400.0" stroke="#505050" stroke-width="1" /><polyline fill="none" opacity="100" points="22.0,380.0 22.0,400.0" stroke="#505050" stroke-width="1" /><polyline fill="none" opacity="100" points="29.0,380.0 29.0,400.0" stroke="#505050" stroke-width="1" /><polyline fill="none" opacity="100" points="36.0,380.0 36.0,400.0" stroke="#505050" stroke-width="1" /><polyline fill="none" opacity="100" points="43.0,380.0 43.0,400.0" stroke="#505050" stroke-width="1" /><polyline fill="none" opacity="100" points="50.0,380.0 50.0,400.0" stroke="#505050" stroke-width="1" /><polyline fill="none" opacity="100" points="57.0,380.0 57.0,400.0" stroke="#505050" stroke-width="1" /><polyline fill="none" opacity="100" points="64.0,380.0 64.0,400.0" stroke="#505050" stroke-width="1" /><polyline fill="none" opacity="100" points="71.0,380.0 71.0,400.0" stroke="#505050" stroke-width="1" /><polyline fill="none" opacity="100" points="78.0,380.0 78.0,400.0" stroke="#505050" stroke-width="1" /><polyline fill="none" opacity="100" points="85.0,380.0 85.0,400.0" stroke="#505050" stroke-width="1" /><polyline fill="none" opacity="100" points="92.0,380.0 92.0,400.0" stroke="#505050" stroke-width="1" /><polyline fill="none" opacity="100" points="99.0,380.0 99.0,400.0" stroke="#505050" stroke-width="1" /><polyline fill="none" opacity="100" points="106.0,380.0 106.0,400.0" stroke="#505050" stroke-width="1" /><polyline fill="none" opacity="100" points="113.0,380.0 113.0,400.0" stroke="#505050" stroke-width="1" /><polyline fill="none" opacity="100" points="120.0,380.0 120.0,400.0" stroke="#505050" stroke-width="1" /><polyline fill="none" opacity="100" points="127.0,380.0 127.0,400.0" stroke="#505050" stroke-width="1" /><polyline fill="none" opacity="100" points="134.0,380.0 134.0,400.0" stroke="#505050" stroke-width="1" /><polyline fill="none" opacity="100" points="141.0,380.0 141.0,400.0" stroke="#505050" stroke-width="1" /><polyline fill="none" opacity="100" points="148.0,380.0 148.0,400.0" stroke="#505050" stroke-width="1" /><polyline fill="none" opacity="100" points="155.0,380.0 155.0,400.0" stroke="#505050" stroke-width="1" /><polyline fill="none" opacity="100" points="162.0,380.0 162.0,400.0" stroke="#505050" stroke-width="1" /><polyline fill="none" opacity="100" points="169.0,380.0 169.0,400.0" stroke="#505050" stroke-width="1" /><polyline fill="none" opacity="100" points="176.0,380.0 176.0,400.0" stroke="#505050" stroke-width="1" /><polyline fill="none" opacity="100" points="183.0,380.0 183.0,400.0" stroke="#505050" stroke-width="1" /><polyline fill="none" opacity="100" points="190.0,380.0 190.0,400.0" stroke="#505050" stroke-width="1" /><polyline fill="none" opacity="100" points="197.0,380.0 197.0,400.0" stroke="#505050" stroke-width="1" /><polyline fill="none" opacity="100" points="204.0,380.0 204.0,400.0" stroke="#505050" stroke-width="1" /><polyline fill="none" opacity="100" points="211.0,380.0 211.0,400.0" stroke="#505050" stroke-width="1" /><polyline fill="none" opacity="100" points="218.0,380.0 218.0,400.0" stroke="#505050" stroke-width="1" /><polyline fill="none" opacity="100" points="225.0,380.0 225.0,400.0" stroke="#505050" stroke-width="1" /><polyline fill="none" opacity="100" points="232.0,380.0 232.0,400.0" stroke="#505050" stroke-width="1" /><polyline fill="none" opacity="100" points="239.0,380.0 239.0,400.0" stroke="#505050" stroke-width="1" /><polyline fill="none" opacity="100" points="246.0,380.0 246.0,400.0" stroke="#505050" stroke-width="1" /><polyline fill="none" opacity="100" points="253.0,380.0 253.0,400.0" stroke="#505050" stroke-width="1" /><polyline fill="none" opacity="100" points="260.0,380.0 260.0,400.0" stroke="#505050" stroke-width="1" /><polyline fill="none" opacity="100" points="267.0,380.0 267.0,400.0" stroke="#505050" stroke-width="1" /><polyline fill="none" opacity="100" points="274.0,380.0 274.0,400.0" stroke="#505050" stroke-width="1" /><polyline fill="none" opacity="100" points="281.0,380.0 281.0,400.0" stroke="#505050" stroke-width="1" /><polyline fill="none" opacity="100" points="288.0,380.0 288.0,400.0" stroke="#505050" stroke-width="1" /><polyline fill="none" opacity="100" points="295.0,380.0 295.0,400.0" stroke="#505050" stroke-width="1" /><polyline fill="none" opacity="100" points="302.0,380.0 302.0,400.0" stroke="#505050" stroke-width="1" /><polyline fill="none" opacity="100" points="309.0,380.0 309.0,400.0" stroke="#505050" stroke-width="1" /><polyline fill="none" opacity="100" points="316.0,380.0 316.0,400.0" stroke="#505050" stroke-width="1" /><polyline fill="none" opacity="100" points="323.0,380.0 323.0,400.0" stroke="#505050" stroke-width="1" /><polyline fill="none" opacity="100" points="330.0,380.0 330.0,400.0" stroke="#505050" stroke-width="1" /><polyline fill="none" opacity="100" points="337.0,380.0 337.0,400.0" stroke="#505050" stroke-width="1" /><polyline fill="none" opacity="100" points="344.0,380.0 344.0,400.0" stroke="#505050" stroke-width="1" /><polyline fill="none" opacity="100" points="351.0,380.0 351.0,400.0" stroke="#505050" stroke-width="1" /><polyline fill="none" opacity="100" points="358.0,380.0 358.0,400.0" stroke="#505050" stroke-width="1" /><polyline fill="none" opacity="100" points="365.0,380.0 365.0,400.0" stroke="#505050" stroke-width="1" /><polyline fill="none" opacity="100" points="372.0,380.0 372.0,400.0" stroke="#505050" stroke-width="1" /><polyline fill="none" opacity="100" points="379.0,380.0 379.0,400.0" stroke="#505050" stroke-width="1" /><polyline fill="none" opacity="100" points="386.0,380.0 386.0,400.0" stroke="#505050" stroke-width="1" /><polyline fill="none" opacity="100" points="393.0,380.0 393.0,400.0" stroke="#505050" stroke-width="1" /><polyline fill="none" opacity="100" points="400.0,380.0 400.0,400.0" stroke="#505050" stroke-width="1" /><polyline fill="none" opacity="100" points="407.0,380.0 407.0,400.0" stroke="#505050" stroke-width="1" /><polyline fill="none" opacity="100" points="414.0,380.0 414.0,400.0" stroke="#505050" stroke-width="1" /><polyline fill="none" opacity="100" points="421.0,380.0 421.0,400.0" stroke="#505050" stroke-width="1" /><polyline fill="none" opacity="100" points="428.0,380.0 428.0,400.0" stroke="#505050" stroke-width="1" /><polyline fill="none" opacity="100" points="435.0,380.0 435.0,400.0" stroke="#505050" stroke-width="1" /><polyline fill="none" opacity="100" points="442.0,380.0 442.0,400.0" stroke="#505050" stroke-width="1" /><polyline fill="none" opacity="100" points="449.0,380.0 449.0,400.0" stroke="#505050" stroke-width="1" /><polyline fill="none" opacity="100" points="456.0,380.0 456.0,400.0" stroke="#505050" stroke-width="1" /><polyline fill="none" opacity="100" points="463.0,380.0 463.0,400.0" stroke="#505050" stroke-width="1" /><polyline fill="none" opacity="100" points="470.0,380.0 470.0,400.0" stroke="#505050" stroke-width="1" /><polyline fill="none" opacity="100" points="477.0,380.0 477.0,400.0" stroke="#505050" stroke-width="1" /><polyline fill="none" opacity="100" points="484.0,380.0 484.0,400.0" stroke="#505050" stroke-width="1" /><polyline fill="none" opacity="100" points="491.0,380.0 491.0,400.0" stroke="#505050" stroke-width="1" /><polyline fill="none" opacity="100" points="498.0,380.0 498.0,400.0" stroke="#505050" stroke-width="1" /><polyline fill="none" opacity="100" points="505.0,380.0 505.0,400.0" stroke="#505050" stroke-width="1" /><polyline fill="none" opacity="100" points="512.0,380.0 512.0,400.0" stroke="#505050" stroke-width="1" /><polyline fill="none" opacity="100" points="519.0,380.0 519.0,400.0" stroke="#505050" stroke-width="1" /><polyline fill="none" opacity="100" points="526.0,380.0 526.0,400.0" stroke="#505050" stroke-width="1" /><polyline fill="none" opacity="100" points="533.0,380.0 533.0,400.0" stroke="#505050" stroke-width="1" /><polyline fill="none" opacity="100" points="540.0,380.0 540.0,400.0" stroke="#505050" stroke-width="1" /><polyline fill="none" opacity="100" points="547.0,380.0 547.0,400.0" stroke="#505050" stroke-width="1" /><polyline fill="none" opacity="100" points="554.0,380.0 554.0,400.0" stroke="#505050" stroke-width="1" /><polyline fill="none" opacity="100" points="561.0,380.0 561.0,400.0" stroke="#505050" stroke-width="1" /><polyline fill="none" opacity="100" points="568.0,380.0 568.0,400.0" stroke="#505050" stroke-width="1" /><polyline fill="none" opacity="100" points="568.0,534.0 -77.0,534.0" stroke="#505050" stroke-width="1" /><polyline fill="none" opacity="100" points="568.0,550.0 -77.0,550.0" stroke="#505050" stroke-width="1" /><polyline fill="none" opacity="100" points="-70.0,532.0 -70.0,552.0" stroke="#505050" stroke-width="1" /><polyline fill="none" opacity="100" points="-63.0,532.0 -63.0,552.0" stroke="#505050" stroke-width="1" /><polyline fill="none" opacity="100" points="-56.0,532.0 -56.0,552.0" stroke="#505050" stroke-width="1" /><polyline fill="none" opacity="100" points="-49.0,532.0 -49.0,552.0" stroke="#505050" stroke-width="1" /><polyline fill="none" opacity="100" points="-42.0,532.0 -42.0,552.0" stroke="#505050" stroke-width="1" /><polyline fill="none" opacity="100" points="-35.0,532.0 -35.0,552.0" stroke="#505050" stroke-width="1" /><polyline fill="none" opacity="100" points="-28.0,532.0 -28.0,552.0" stroke="#505050" stroke-width="1" /><polyline fill="none" opacity="100" points="-21.0,532.0 -21.0,552.0" stroke="#505050" stroke-width="1" /><polyline fill="none" opacity="100" points="-14.0,532.0 -14.0,552.0" stroke="#505050" stroke-width="1" /><polyline fill="none" opacity="100" points="-7.0,532.0 -7.0,552.0" stroke="#505050" stroke-width="1" /><polyline fill="none" opacity="100" points="0.0,532.0 0.0,552.0" stroke="#505050" stroke-width="1" /><polyline fill="none" opacity="100" points="7.0,532.0 7.0,552.0" stroke="#505050" stroke-width="1" /><polyline fill="none" opacity="100" points="14.0,532.0 14.0,552.0" stroke="#505050" stroke-width="1" /><polyline fill="none" opacity="100" points="21.0,532.0 21.0,552.0" stroke="#505050" stroke-width="1" /><polyline fill="none" opacity="100" points="28.0,532.0 28.0,552.0" stroke="#505050" stroke-width="1" /><polyline fill="none" opacity="100" points="35.0,532.0 35.0,552.0" stroke="#505050" stroke-width="1" /><polyline fill="none" opacity="100" points="42.0,532.0 42.0,552.0" stroke="#505050" stroke-width="1" /><polyline fill="none" opacity="100" points="49.0,532.0 49.0,552.0" stroke="#505050" stroke-width="1" /><polyline fill="none" opacity="100" points="56.0,532.0 56.0,552.0" stroke="#505050" stroke-width="1" /><polyline fill="none" opacity="100" points="63.0,532.0 63.0,552.0" stroke="#505050" stroke-width="1" /><polyline fill="none" opacity="100" points="70.0,532.0 70.0,552.0" stroke="#505050" stroke-width="1" /><polyline fill="none" opacity="100" points="77.0,532.0 77.0,552.0" stroke="#505050" stroke-width="1" /><polyline fill="none" opacity="100" points="84.0,532.0 84.0,552.0" stroke="#505050" stroke-width="1" /><polyline fill="none" opacity="100" points="91.0,532.0 91.0,552.0" stroke="#505050" stroke-width="1" /><polyline fill="none" opacity="100" points="98.0,532.0 98.0,552.0" stroke="#505050" stroke-width="1" /><polyline fill="none" opacity="100" points="105.0,532.0 105.0,552.0" stroke="#505050" stroke-width="1" /><polyline fill="none" opacity="100" points="112.0,532.0 112.0,552.0" stroke="#505050" stroke-width="1" /><polyline fill="none" opacity="100" points="119.0,532.0 119.0,552.0" stroke="#505050" stroke-width="1" /><polyline fill="none" opacity="100" points="126.0,532.0 126.0,552.0" stroke="#505050" stroke-width="1" /><polyline fill="none" opacity="100" points="133.0,532.0 133.0,552.0" stroke="#505050" stroke-width="1" /><polyline fill="none" opacity="100" points="140.0,532.0 140.0,552.0" stroke="#505050" stroke-width="1" /><polyline fill="none" opacity="100" points="147.0,532.0 147.0,552.0" stroke="#505050" stroke-width="1" /><polyline fill="none" opacity="100" points="154.0,532.0 154.0,552.0" stroke="#505050" stroke-width="1" /><polyline fill="none" opacity="100" points="161.0,532.0 161.0,552.0" stroke="#505050" stroke-width="1" /><polyline fill="none" opacity="100" points="168.0,532.0 168.0,552.0" stroke="#505050" stroke-width="1" /><polyline fill="none" opacity="100" points="175.0,532.0 175.0,552.0" stroke="#505050" stroke-width="1" /><polyline fill="none" opacity="100" points="182.0,532.0 182.0,552.0" stroke="#505050" stroke-width="1" /><polyline fill="none" opacity="100" points="189.0,532.0 189.0,552.0" stroke="#505050" stroke-width="1" /><polyline fill="none" opacity="100" points="196.0,532.0 196.0,552.0" stroke="#505050" stroke-width="1" /><polyline fill="none" opacity="100" points="203.0,532.0 203.0,552.0" stroke="#505050" stroke-width="1" /><polyline fill="none" opacity="100" points="210.0,532.0 210.0,552.0" stroke="#505050" stroke-width="1" /><polyline fill="none" opacity="100" points="217.0,532.0 217.0,552.0" stroke="#505050" stroke-width="1" /><polyline fill="none" opacity="100" points="224.0,532.0 224.0,552.0" stroke="#505050" stroke-width="1" /><polyline fill="none" opacity="100" points="231.0,532.0 231.0,552.0" stroke="#505050" stroke-width="1" /><polyline fill="none" opacity="100" points="238.0,532.0 238.0,552.0" stroke="#505050" stroke-width="1" /><polyline fill="none" opacity="100" points="245.0,532.0 245.0,552.0" stroke="#505050" stroke-width="1" /><polyline fill="none" opacity="100" points="252.0,532.0 252.0,552.0" stroke="#505050" stroke-width="1" /><polyline fill="none" opacity="100" points="259.0,532.0 259.0,552.0" stroke="#505050" stroke-width="1" /><polyline fill="none" opacity="100" points="266.0,532.0 266.0,552.0" stroke="#505050" stroke-width="1" /><polyline fill="none" opacity="100" points="273.0,532.0 273.0,552.0" stroke="#505050" stroke-width="1" /><polyline fill="none" opacity="100" points="280.0,532.0 280.0,552.0" stroke="#505050" stroke-width="1" /><polyline fill="none" opacity="100" points="287.0,532.0 287.0,552.0" stroke="#505050" stroke-width="1" /><polyline fill="none" opacity="100" points="294.0,532.0 294.0,552.0" stroke="#505050" stroke-width="1" /><polyline fill="none" opacity="100" points="301.0,532.0 301.0,552.0" stroke="#505050" stroke-width="1" /><polyline fill="none" opacity="100" points="308.0,532.0 308.0,552.0" stroke="#505050" stroke-width="1" /><polyline fill="none" opacity="100" points="315.0,532.0 315.0,552.0" stroke="#505050" stroke-width="1" /><polyline fill="none" opacity="100" points="322.0,532.0 322.0,552.0" stroke="#505050" stroke-width="1" /><polyline fill="none" opacity="100" points="329.0,532.0 329.0,552.0" stroke="#505050" stroke-width="1" /><polyline fill="none" opacity="100" points="336.0,532.0 336.0,552.0" stroke="#505050" stroke-width="1" /><polyline fill="none" opacity="100" points="343.0,532.0 343.0,552.0" stroke="#505050" stroke-width="1" /><polyline fill="none" opacity="100" points="350.0,532.0 350.0,552.0" stroke="#505050" stroke-width="1" /><polyline fill="none" opacity="100" points="357.0,532.0 357.0,552.0" stroke="#505050" stroke-width="1" /><polyline fill="none" opacity="100" points="364.0,532.0 364.0,552.0" stroke="#505050" stroke-width="1" /><polyline fill="none" opacity="100" points="371.0,532.0 371.0,552.0" stroke="#505050" stroke-width="1" /><polyline fill="none" opacity="100" points="378.0,532.0 378.0,552.0" stroke="#505050" stroke-width="1" /><polyline fill="none" opacity="100" points="385.0,532.0 385.0,552.0" stroke="#505050" stroke-width="1" /><polyline fill="none" opacity="100" points="392.0,532.0 392.0,552.0" stroke="#505050" stroke-width="1" /><polyline fill="none" opacity="100" points="399.0,532.0 399.0,552.0" stroke="#505050" stroke-width="1" /><polyline fill="none" opacity="100" points="406.0,532.0 406.0,552.0" stroke="#505050" stroke-width="1" /><polyline fill="none" opacity="100" points="413.0,532.0 413.0,552.0" stroke="#505050" stroke-width="1" /><polyline fill="none" opacity="100" points="420.0,532.0 420.0,552.0" stroke="#505050" stroke-width="1" /><polyline fill="none" opacity="100" points="427.0,532.0 427.0,552.0" stroke="#505050" stroke-width="1" /><polyline fill="none" opacity="100" points="434.0,532.0 434.0,552.0" stroke="#505050" stroke-width="1" /><polyline fill="none" opacity="100" points="441.0,532.0 441.0,552.0" stroke="#505050" stroke-width="1" /><polyline fill="none" opacity="100" points="448.0,532.0 448.0,552.0" stroke="#505050" stroke-width="1" /><polyline fill="none" opacity="100" points="455.0,532.0 455.0,552.0" stroke="#505050" stroke-width="1" /><polyline fill="none" opacity="100" points="462.0,532.0 462.0,552.0" stroke="#505050" stroke-width="1" /><polyline fill="none" opacity="100" points="469.0,532.0 469.0,552.0" stroke="#505050" stroke-width="1" /><polyline fill="none" opacity="100" points="476.0,532.0 476.0,552.0" stroke="#505050" stroke-width="1" /><polyline fill="none" opacity="100" points="483.0,532.0 483.0,552.0" stroke="#505050" stroke-width="1" /><polyline fill="none" opacity="100" points="490.0,532.0 490.0,552.0" stroke="#505050" stroke-width="1" /><polyline fill="none" opacity="100" points="497.0,532.0 497.0,552.0" stroke="#505050" stroke-width="1" /><polyline fill="none" opacity="100" points="504.0,532.0 504.0,552.0" stroke="#505050" stroke-width="1" /><polyline fill="none" opacity="100" points="511.0,532.0 511.0,552.0" stroke="#505050" stroke-width="1" /><polyline fill="none" opacity="100" points="518.0,532.0 518.0,552.0" stroke="#505050" stroke-width="1" /><polyline fill="none" opacity="100" points="525.0,532.0 525.0,552.0" stroke="#505050" stroke-width="1" /><polyline fill="none" opacity="100" points="532.0,532.0 532.0,552.0" stroke="#505050" stroke-width="1" /><polyline fill="none" opacity="100" points="539.0,532.0 539.0,552.0" stroke="#505050" stroke-width="1" /><polyline fill="none" opacity="100" points="546.0,532.0 546.0,552.0" stroke="#505050" stroke-width="1" /><polyline fill="none" opacity="100" points="553.0,532.0 553.0,552.0" stroke="#505050" stroke-width="1" /><polyline fill="none" opacity="100" points="560.0,532.0 560.0,552.0" stroke="#505050" stroke-width="1" /><polyline fill="none" opacity="100" points="567.0,532.0 567.0,552.0" stroke="#505050" stroke-width="1" /><polygon fill="#CCC" opacity="100" points="440.0,472.0 513.0,472.0 513.0,484.0 440.0,484.0" stroke="#000" stroke-width="1" /><polygon fill="#CCC" opacity="100" points="440.0,434.0 513.0,434.0 513.0,454.0 440.0,454.0" stroke="#000" stroke-width="1" /><polygon fill="#CCC" opacity="100" points="440.0,403.0 513.0,403.0 513.0,417.0 440.0,417.0" stroke="#000" stroke-width="1" /><polygon fill="#CCC" opacity="100" points="573.0,451.0 557.0,451.0 557.0,482.0 573.0,482.0" stroke="#000" stroke-width="1" /><polyline fill="none" opacity="100" points="513.0,417.0 440.0,417.0" stroke="#000" stroke-width="1" /><polyline fill="none" opacity="100" points="513.0,434.0 440.0,434.0" stroke="#000" stroke-width="1" /><polyline fill="none" opacity="100" points="448.0,417.0 448.0,434.0" stroke="#000" stroke-width="1" /><polyline fill="none" opacity="100" points="456.0,417.0 456.0,434.0" stroke="#000" stroke-width="1" /><polyline fill="none" opacity="100" points="464.0,417.0 464.0,434.0" stroke="#000" stroke-width="1" /><polyline fill="none" opacity="100" points="472.0,417.0 472.0,434.0" stroke="#000" stroke-width="1" /><polyline fill="none" opacity="100" points="480.0,417.0 480.0,434.0" stroke="#000" stroke-width="1" /><polyline fill="none" opacity="100" points="488.0,417.0 488.0,434.0" stroke="#000" stroke-width="1" /><polyline fill="none" opacity="100" points="496.0,417.0 496.0,434.0" stroke="#000" stroke-width="1" /><polyline fill="none" opacity="100" points="504.0,417.0 504.0,434.0" stroke="#000" stroke-width="1" /><polyline fill="none" opacity="100" points="512.0,417.0 512.0,434.0" stroke="#000" stroke-width="1" /><polyline fill="none" opacity="100" points="513.0,454.0 441.0,454.0" stroke="#000" stroke-width="1" /><polyline fill="none" opacity="100" points="513.0,472.0 441.0,472.0" stroke="#000" stroke-width="1" /><polyline fill="none" opacity="100" points="449.0,454.0 449.0,472.0" stroke="#000" stroke-width="1" /><polyline fill="none" opacity="100" points="457.0,454.0 457.0,472.0" stroke="#000" stroke-width="1" /><polyline fill="none" opacity="100" points="465.0,454.0 465.0,472.0" stroke="#000" stroke-width="1" /><polyline fill="none" opacity="100" points="473.0,454.0 473.0,472.0" stroke="#000" stroke-width="1" /><polyline fill="none" opacity="100" points="481.0,454.0 481.0,472.0" stroke="#000" stroke-width="1" /><polyline fill="none" opacity="100" points="489.0,454.0 489.0,472.0" stroke="#000" stroke-width="1" /><polyline fill="none" opacity="100" points="497.0,454.0 497.0,472.0" stroke="#000" stroke-width="1" /><polyline fill="none" opacity="100" points="505.0,454.0 505.0,472.0" stroke="#000" stroke-width="1" /><polyline fill="none" opacity="100" points="513.0,454.0 513.0,472.0" stroke="#000" stroke-width="1" /><text fill="#DC004B" font-family="Arial" font-size="20" font-weight="normal" opacity="100" transform="rotate(-0.0 251.0,353.0) translate(0 20)" x="251.0" y="353.0">Пл. Ленина &gt;&gt;</text><text fill="#DC004B" font-family="Arial" font-size="20" font-weight="normal" opacity="100" transform="rotate(-0.0 142.0,556.0) translate(0 20)" x="142.0" y="556.0">&lt;&lt; Пионерская</text><text fill="#DC004B" font-family="Arial" font-size="25" font-weight="bold" opacity="100" transform="rotate(-0.0 174.0,452.0) translate(0 25)" x="174.0" y="452.0">Комсомольская</text><text fill="#DC004B" font-family="Arial" font-size="15" font-weight="bold" opacity="100" transform="rotate(-0.0 -48.0,459.0) translate(0 15)" x="-48.0" y="459.0">Неиспользуемая часть</text><text fill="#00699C" font-family="Arial" font-size="16" font-weight="bold" opacity="100" transform="rotate(90.0 754.0,414.0) translate(0 16)" x="754.0" y="414.0">ул. Комсомольская</text><text fill="#FFF" font-family="Arial" font-size="16" font-weight="bold" opacity="100" transform="rotate(-0.0 300.0,589.0) translate(0 16)" x="300.0" y="589.0">пр-т им. Ленина</text><text fill="#FFF" font-family="Arial" font-size="16" font-weight="bold" opacity="100" transform="rotate(-0.0 303.0,324.0) translate(0 16)" x="303.0" y="324.0">пр-т им. Ленина</text><text fill="#FFF" font-family="Arial" font-size="16" font-weight="bold" opacity="100" transform="rotate(90.0 -102.0,422.0) translate(0 16)" x="-102.0" y="422.0">Аллея героев</text><polyline fill="none" opacity="100" points="506.0,524.0 518.0,524.0" stroke="#000" stroke-width="1" /><polygon fill="#000" opacity="100" points="514.5227,524.9317 518.0,524.0 514.5227,523.0683" stroke="#000" stroke-width="1" /><text fill="#FFF" font-family="Arial" font-size="8" font-weight="bold" opacity="100" transform="rotate(90.0 558.0,413.0) translate(0 8)" x="558.0" y="413.0">Выход</text><text fill="#FFF" font-family="Arial" font-size="8" font-weight="bold" opacity="100" transform="rotate(90.0 583.0,407.0) translate(0 8)" x="583.0" y="407.0">Нет входа</text><text fill="#FFF" font-family="Arial" font-size="8" font-weight="bold" opacity="100" transform="rotate(90.0 583.0,495.0) translate(0 8)" x="583.0" y="495.0">Вход</text><text fill="#FFF" font-family="Arial" font-size="8" font-weight="bold" opacity="100" transform="rotate(90.0 558.0,485.0) translate(0 8)" x="558.0" y="485.0">Нет выхода</text><text fill="#FFF" font-family="Arial" font-size="10" font-weight="bold" opacity="100" transform="rotate(-0.0 475.0,518.0) translate(0 10)" x="475.0" y="518.0">Кассы</text></g></g></svg>