<?xml version="1.0" encoding="utf-8" ?>
<svg baseProfile="tiny" height="576px" version="1.2" width="1009px" xmlns="http://www.w3.org/2000/svg" xmlns:ev="http://www.w3.org/2001/xml-events" xmlns:xlink="http://www.w3.org/1999/xlink"><defs /><g><text fill="#040464" font-family="Arial" font-size="30" font-weight="bold" opacity="100" x="45.5" y="33.0">Wuppertal Schwebebahn</text><text fill="#040464" font-family="Arial" font-size="10" font-weight="normal" opacity="100" x="48.5" y="47.0">(Attention! All time intervals in this version equal 2 minutes)</text><polygon fill="#B3B4B9" opacity="100" points="0.0,508.0 15.0,524.0 32.0,510.0 28.0,500.0 40.0,491.0 34.0,484.0 20.0,492.0 11.0,484.0 7.0,470.0 12.0,462.0 16.0,468.0 47.0,462.0 69.0,471.0 80.0,471.0 85.0,474.0 84.0,466.0 26.0,411.0 44.0,411.0 51.0,420.0 70.0,424.0 76.0,440.0 80.0,438.0 85.0,426.0 90.0,416.0 108.0,406.0 114.0,394.0 121.0,386.0 146.0,388.0 143.0,376.0 120.0,360.0 128.0,351.0 126.0,349.0 126.0,332.0 152.0,291.0 170.0,298.0 178.0,322.0 164.0,340.0 166.0,360.0 176.0,358.0 202.0,339.0 203.0,320.0 219.0,288.0 223.0,290.0 254.0,263.0 280.0,243.0 301.0,244.0 294.0,256.0 273.0,296.0 288.0,300.0 294.0,289.0 316.0,292.0 321.0,296.0 332.0,296.0 336.0,310.0 342.0,319.0 344.0,326.0 355.0,333.0 364.0,330.0 376.0,318.0 358.0,280.0 348.0,266.0 334.0,236.0 336.0,232.0 332.0,226.0 328.0,226.0 316.0,206.0 350.0,192.0 351.0,175.0 345.0,168.0 312.0,172.0 303.0,156.0 306.0,132.0 333.0,132.0 325.0,114.0 333.0,100.0 330.0,98.0 322.0,102.0 302.0,100.0 279.0,110.0 276.0,112.0 246.0,112.0 260.0,80.0 300.0,59.0 330.0,35.0 336.0,52.0 367.0,84.0 380.0,81.0 400.0,92.0 410.0,112.0 435.0,108.0 442.0,132.0 456.0,132.0 458.0,120.0 474.0,108.0 474.0,94.0 445.0,78.0 451.0,64.0 469.0,43.0 486.0,32.0 500.0,12.0 586.0,0.0 716.0,0.0 705.0,14.0 686.0,30.0 676.0,18.0 660.0,11.0 643.0,32.0 643.0,70.0 668.0,74.0 674.0,70.0 736.0,66.0 770.0,48.0 771.0,39.0 760.0,20.0 866.0,18.0 908.0,7.0 1009.0,4.0 1009.0,189.0 990.0,210.0 982.0,212.0 976.0,208.0 970.0,228.0 941.0,233.0 915.0,262.0 938.0,285.0 936.0,298.0 910.0,284.0 892.0,302.0 878.0,328.0 860.0,330.0 854.0,311.0 866.0,276.0 883.0,249.0 918.0,222.0 922.0,204.0 910.0,187.0 894.0,179.0 894.0,188.0 874.0,202.0 869.0,207.0 873.0,227.0 866.0,231.0 852.0,221.0 840.0,206.0 821.0,210.0 806.0,221.0 796.0,216.0 774.0,215.0 768.0,221.0 768.0,234.0 756.0,232.0 751.0,227.0 742.0,230.0 739.0,234.0 738.0,250.0 732.0,249.0 723.0,239.0 714.0,237.0 703.0,237.0 696.0,245.0 696.0,247.0 674.0,247.0 672.0,263.0 666.0,271.0 651.0,272.0 654.0,284.0 650.0,308.0 638.0,296.0 634.0,274.0 624.0,266.0 616.0,268.0 608.0,301.0 594.0,299.0 568.0,312.0 570.0,349.0 560.0,344.0 548.0,330.0 536.0,338.0 536.0,344.0 542.0,361.0 533.0,368.0 534.0,383.0 526.0,387.0 513.0,357.0 502.0,342.0 487.0,347.0 495.0,360.0 506.0,372.0 506.0,382.0 501.0,384.0 485.0,376.0 469.0,396.0 472.0,400.0 496.0,391.0 518.0,395.0 577.0,394.0 588.0,424.0 554.0,454.0 550.0,454.0 514.0,482.0 500.0,504.0 518.0,530.0 516.0,550.0 524.0,576.0 472.0,576.0 462.0,564.0 462.0,560.0 477.0,557.0 484.0,540.0 485.0,531.0 470.0,518.0 462.0,510.0 462.0,494.0 468.0,482.0 456.0,466.0 439.0,443.0 441.0,422.0 460.0,402.0 458.0,364.0 447.0,356.0 435.0,372.0 430.0,368.0 414.0,392.0 398.0,400.0 394.0,385.0 400.0,376.0 396.0,369.0 388.0,361.0 365.0,360.0 336.0,356.0 316.0,362.0 329.0,369.0 338.0,378.0 333.0,393.0 316.0,409.0 318.0,414.0 316.0,428.0 310.0,426.0 304.0,422.0 298.0,422.0 294.0,426.0 297.0,434.0 294.0,434.0 292.0,432.0 287.0,433.0 278.0,431.0 268.0,436.0 264.0,436.0 259.0,445.0 250.0,448.0 236.0,448.0 239.0,453.0 250.0,452.0 265.0,458.0 269.0,454.0 268.0,449.0 273.0,450.0 276.0,444.0 282.0,444.0 290.0,438.0 300.0,440.0 295.0,449.0 296.0,460.0 292.0,468.0 284.0,472.0 276.0,473.0 267.0,481.0 252.0,478.0 240.0,484.0 220.0,472.0 218.0,475.0 230.0,490.0 219.0,499.0 187.0,476.0 163.0,486.0 152.0,504.0 144.0,504.0 138.0,498.0 130.0,502.0 120.0,504.0 112.0,523.0 127.0,551.0 137.0,556.0 158.0,548.0 170.0,558.0 168.0,572.0 164.0,576.0 40.0,576.0 36.0,564.0 45.0,554.0 40.0,554.0 28.0,567.0 16.0,560.0 6.0,576.0 0.0,576.0" stroke="#B3B4B9" stroke-width="1" /><polygon fill="#B3B4B9" opacity="100" points="18.0,576.0 20.0,570.0 25.0,576.0" stroke="#B3B4B9" stroke-width="1" /><polygon fill="#B3B4B9" opacity="100" points="722.0,576.0 690.0,546.0 687.0,478.0 687.0,458.0 694.0,424.0 695.0,421.0 674.0,396.0 648.0,398.0 634.0,383.0 648.0,356.0 719.0,312.0 744.0,299.0 748.0,310.0 730.0,331.0 732.0,350.0 765.0,383.0 750.0,404.0 790.0,426.0 807.0,419.0 836.0,428.0 839.0,448.0 846.0,456.0 862.0,455.0 863.0,452.0 898.0,452.0 894.0,471.0 861.0,478.0 859.0,500.0 837.0,532.0 858.0,546.0 866.0,546.0 876.0,516.0 906.0,494.0 944.0,520.0 960.0,542.0 966.0,574.0 914.0,575.0 882.0,550.0 854.0,552.0 856.0,574.0" stroke="#B3B4B9" stroke-width="1" /><polygon fill="#FFF" opacity="100" points="372.0,211.0 387.0,206.0 405.0,192.0 402.0,179.0 390.0,170.0 391.0,164.0 423.0,160.0 438.0,151.0 427.0,182.0 434.0,181.0 474.0,190.0 441.0,196.0 420.0,204.0 392.0,218.0 372.0,220.0" stroke="#FFF" stroke-width="1" /><polygon fill="#FFF" opacity="100" points="506.0,172.0 503.0,162.0 551.0,140.0 572.0,118.0 580.0,114.0 612.0,118.0 594.0,140.0 570.0,153.0 533.0,156.0" stroke="#FFF" stroke-width="1" /><polygon fill="#FFF" opacity="100" points="530.0,234.0 564.0,204.0 562.0,201.0 579.0,191.0 580.0,186.0 614.0,188.0 629.0,202.0 598.0,231.0 578.0,244.0 566.0,258.0 560.0,256.0 560.0,254.0 542.0,252.0 532.0,245.0" stroke="#FFF" stroke-width="1" /><polyline fill="none" opacity="100" points="269.0,576.0 268.3828,573.4219 267.9062,570.9375 267.571,568.5483 267.375,566.25 267.3137,564.0337 267.3945,561.9141 267.6196,559.8955 268.0,558.0 268.5562,556.2686 269.2617,554.6484 270.1038,553.105 271.0625,551.625 272.1013,550.188 273.2578,548.7812 274.54,547.3945 276.0,546.0 277.7412,544.5586 279.6172,543.0938 281.5273,541.6138 283.4375,540.125 285.3008,538.6479 287.0547,537.1484 288.6592,535.6123 290.0,534.0 290.9033,532.2393 291.5078,530.4141 291.8882,528.5781 292.0625,526.75 292.0845,524.9609 291.9219,523.2266 291.5605,521.5596 291.0,520.0 290.2285,518.6045 289.2656,517.3359 288.1226,516.1807 286.8125,515.125 285.3579,514.1318 283.7422,513.2578 281.9639,512.5244 280.0,512.0 277.8018,511.8115 275.4453,511.8047 272.9829,511.877 270.4375,512.0 267.8413,512.1309 265.2188,512.2109 262.5898,512.2061 260.0,512.0 257.5117,511.4111 255.0938,510.6016 252.7383,509.6663 250.4375,508.625 248.1602,507.5271 245.9688,506.3789 243.8906,505.1841 242.0,504.0 240.4297,502.9136 239.0312,501.8398 237.7075,500.7251 236.4375,499.5625 235.187,498.3374 233.8984,497.0195 232.542,495.5962 231.0,494.0 229.083,492.1187 226.9766,490.0742 224.7925,487.9431 222.5625,485.75 220.3521,483.5393 218.1719,481.3281 216.0332,479.1309 214.0,477.0 212.1621,475.0098 210.4531,473.1094 208.8376,471.2749 207.3125,469.5 205.8596,467.7603 204.4883,466.0859 203.2056,464.4912 202.0,463.0 200.853,461.6572 199.793,460.4141 198.8403,459.2385 198.0,458.125 197.2769,457.0642 196.6914,456.0352 196.2544,455.0278 196.0,454.0 195.9839,452.8823 196.1523,451.7461 196.4729,450.6362 196.9375,449.5625 197.5291,448.5435 198.2422,447.5977 199.0732,446.7349 200.0,446.0 200.9893,445.4644 202.0703,445.0586 203.2617,444.7415 204.5625,444.5 205.9727,444.3074 207.5078,444.1641 209.1729,444.0674 211.0,444.0 213.0459,443.9404 215.2422,443.8984 217.5471,443.8782 219.9375,443.875 222.3728,443.8855 224.8633,443.9102 227.4048,443.9458 230.0,444.0 232.6694,444.0894 235.3555,444.1836 238.0125,444.2607 240.625,444.3125 243.1809,444.3291 245.625,444.293 247.9258,444.1929 250.0,444.0 251.7148,443.6704 253.1875,443.2383 254.4841,442.7219 255.625,442.125 256.6584,441.4597 257.5664,440.7188 258.3442,439.8984 259.0,439.0 259.5347,438.0234 259.9648,436.9688 260.3044,435.8345 260.5625,434.625 260.7483,433.3491 260.875,431.9922 260.9531,430.5498 261.0,429.0 261.0391,427.3018 261.0625,425.5078 261.0696,423.6523 261.0625,421.75 261.0378,419.8242 261.0117,417.8828 260.9937,415.9346 261.0,414.0 261.0571,412.1045 261.1445,410.2422 261.2495,408.4153 261.375,406.625 261.5239,404.864 261.6836,403.1602 261.8511,401.5278 262.0,400.0 262.0825,398.6323 262.1602,397.3711 262.2773,396.1853 262.4375,395.0625 262.6406,393.9768 262.9414,392.9375 263.3638,391.9453 264.0,391.0 265.0073,390.1094 266.2148,389.25 267.5129,388.4033 268.875,387.5625 270.2546,386.7217 271.6016,385.8594 272.8877,384.9629 274.0,384.0 274.7607,382.9199 275.3359,381.7656 275.8232,380.5601 276.25,379.3125 276.6768,378.0454 277.1016,376.7422 277.5283,375.3975 278.0,374.0 278.5732,372.5244 279.2109,371.0078 279.896,369.4746 280.625,367.9375 281.3813,366.416 282.1875,364.9141 283.0547,363.4385 284.0,362.0 285.0547,360.6084 286.1875,359.2734 287.3799,358.0088 288.625,356.8125 289.9092,355.6709 291.2344,354.6328 292.5996,353.7197 294.0,353.0 295.4316,352.5928 296.8906,352.3672 298.3726,352.2397 299.875,352.1875 301.397,352.1704 302.9297,352.1562 304.4678,352.125 306.0,352.0 307.5088,351.6641 309.0078,351.2188 310.5029,350.7205 312.0,350.1875 313.5127,349.6643 315.0234,349.1289 316.5264,348.5747 318.0,348.0 319.4033,347.3901 320.7891,346.7773 322.1956,346.1868 323.625,345.625 325.0759,345.0964 326.5977,344.6328 328.2114,344.251 330.0,344.0 332.105,343.96 334.3711,344.0547 336.6985,344.2407 339.0625,344.5 341.4207,344.7944 343.7266,345.1406 345.9541,345.541 348.0,346.0 349.7021,346.5371 351.2109,347.1094 352.6143,347.6851 353.9375,348.25 355.2373,348.7876 356.5078,349.2734 357.751,349.6904 359.0,350.0 360.2959,350.1455 361.6172,350.1641 362.958,350.0693 364.3125,349.875 365.6592,349.6182 367.0391,349.2422 368.4697,348.7256 370.0,348.0 371.7178,346.9385 373.5234,345.6953 375.3511,344.373 377.1875,343.0 379.0122,341.6191 380.7812,340.2891 382.4727,339.0439 384.0,338.0 385.2227,337.3389 386.2812,336.8984 387.2637,336.5884 388.1875,336.375 389.0879,336.1812 390.0,336.0469 390.9414,335.9824 392.0,336.0 393.3164,336.1426 394.75,336.3281 396.2119,336.4932 397.6875,336.625 399.1475,336.7178 400.5469,336.6875 401.8652,336.4922 403.0,336.0 403.7832,334.9922 404.3906,333.6875 404.9321,332.2195 405.4375,330.625 405.9624,328.9778 406.5391,327.3008 407.1885,325.6118 408.0,324.0 409.1084,322.5952 410.3984,321.293 411.8059,320.0364 413.3125,318.8125 414.8718,317.5828 416.5039,316.3672 418.2153,315.1748 420.0,314.0 421.8589,312.8408 423.7773,311.6953 425.7434,310.5613 427.75,309.4375 429.7898,308.3235 431.8516,307.2148 433.9268,306.1089 436.0,305.0 438.0498,303.8794 440.0859,302.7539 442.1121,301.6245 444.125,300.5 446.1243,299.3989 448.1055,298.293 450.064,297.1733 452.0,296.0 453.9165,294.6978 455.8008,293.3633 457.6404,292.0645 459.4375,290.8125 461.2014,289.6191 462.8984,288.5508 464.5146,287.6392 466.0,287.0 467.2666,286.8257 468.4141,286.918 469.5068,287.1555 470.5625,287.5 471.6104,287.8777 472.6797,288.2734 473.7881,288.6709 475.0,289.0 476.415,289.165 477.9453,289.2266 479.541,289.2087 481.1875,289.125 482.8496,289.0198 484.5391,288.8242 486.2588,288.5093 488.0,288.0 489.7568,287.1587 491.5234,286.1445 493.293,285.0593 495.0625,283.9375 496.832,282.8372 498.5859,281.7891 500.3154,280.8174 502.0,280.0 503.6064,279.4482 505.1641,279.0859 506.6895,278.8809 508.1875,278.8125 509.6699,278.8223 511.1328,278.9922 512.5752,279.3545 514.0,280.0 515.4092,281.0986 516.8047,282.4453 518.1892,283.9062 519.5625,285.4375 520.9221,286.9688 522.2773,288.4453 523.6323,289.8291 525.0,291.0 526.4028,291.7803 527.8164,292.3047 529.2239,292.6421 530.625,292.8125 532.0203,292.8774 533.3906,292.7812 534.7285,292.5 536.0,292.0 537.1465,291.2109 538.2344,290.2188 539.3074,289.0789 540.375,287.8125 541.4524,286.4543 542.5664,285.0195 543.731,283.522 545.0,282.0 546.4604,280.5054 548.0273,279.0117 549.6492,277.511 551.3125,276.0 552.9895,274.4597 554.6719,272.9297 556.3535,271.4287 558.0,270.0 559.5605,268.7197 561.0781,267.5078 562.5757,266.313 564.0625,265.125 565.561,263.9253 567.0547,262.6875 568.5381,261.3984 570.0,260.0 571.415,258.3984 572.8203,256.6875 574.2422,254.9226 575.6875,253.125 577.1641,251.3372 578.6953,249.5508 580.2939,247.7681 582.0,246.0 583.8779,244.2515 585.8672,242.543 587.9329,240.8984 590.0625,239.3125 592.2292,237.7617 594.4414,236.3242 596.6997,235.0327 599.0,234.0 601.3433,233.4243 603.7148,233.082 606.1045,232.8264 608.5,232.625 610.8838,232.4255 613.2617,232.1406 615.6304,231.7246 618.0,231.0 620.397,229.6816 622.7695,228.0469 625.0769,226.2644 627.3125,224.375 629.4758,222.4641 631.5078,220.5664 633.3799,218.7036 635.0,217.0 636.2139,215.644 637.1797,214.4648 637.9937,213.3608 638.6875,212.3125 639.3228,211.272 639.9062,210.2227 640.4492,209.1567 641.0,208.0 641.6211,206.6362 642.2812,205.1836 642.9697,203.7144 643.6875,202.25 644.4209,200.8325 645.2031,199.4727 646.0527,198.1802 647.0,197.0 648.0957,195.9956 649.2969,195.1211 650.5803,194.3552 651.9375,193.6875 653.3474,193.0881 654.8242,192.5938 656.3726,192.2188 658.0,192.0 659.7251,192.0078 661.5195,192.1562 663.3638,192.3894 665.25,192.6875 667.1675,193.0188 669.1055,193.3633 671.0562,193.7056 673.0,194.0 674.9087,194.1812 676.8008,194.293 678.6846,194.3562 680.5625,194.375 682.4443,194.3684 684.3164,194.3125 686.1724,194.1953 688.0,194.0 689.7769,193.6953 691.5273,193.3125 693.2676,192.8706 695.0,192.375 696.7285,191.8364 698.4648,191.2578 700.2144,190.6416 702.0,190.0 703.8599,189.3506 705.7539,188.6797 707.658,187.979 709.5625,187.25 711.4495,186.4937 713.3203,185.7031 715.1729,184.877 717.0,184.0 718.7959,183.0449 720.5547,182.0469 722.2673,181.0283 723.9375,180.0 725.5784,178.9795 727.1523,177.9688 728.644,176.9727 730.0,176.0 731.1255,175.0586 732.1289,174.1562 733.0818,173.3042 734.0,172.5 734.9084,171.731 735.8516,171.0391 736.8525,170.4424 738.0,170.0 739.4365,169.8154 741.0234,169.7734 742.6772,169.7998 744.375,169.875 746.0688,169.9658 747.75,170.0391 749.4102,170.0752 751.0,170.0 752.4492,169.6982 753.8125,169.2734 755.1179,168.7852 756.375,168.25 757.6106,167.707 758.8008,167.1484 759.936,166.5732 761.0,166.0 761.9585,165.4502 762.8555,164.9141 763.7207,164.3892 764.5625,163.875 765.3926,163.3647 766.2305,162.875 767.0874,162.4141 768.0,162.0 769.0259,161.6641 770.1133,161.375 771.2344,161.1162 772.375,160.875 773.5039,160.626 774.6445,160.3906 775.8032,160.1738 777.0,160.0 778.2788,159.9199 779.5742,159.8594 780.8362,159.7634 782.0625,159.625 783.2595,159.4417 784.3516,159.1445 785.3057,158.7017 786.0,158.0 786.2256,156.8491 786.2109,155.4492 786.1028,153.9253 785.9375,152.3125 785.7781,150.6763 785.6914,149.0508 785.7153,147.4595 786.0,146.0 786.7808,144.8179 787.8398,143.793 789.0486,142.8582 790.375,142.0 791.7463,141.179 793.1562,140.4062 794.5977,139.6875 796.0,139.0 797.2617,138.3125 798.4688,137.6562 799.6704,137.051 800.875,136.5 802.1069,136.0095 803.3672,135.5898 804.6553,135.2456 806.0,135.0 807.4463,134.8911 808.9453,134.8789 810.467,134.9414 812.0,135.0625 813.5232,135.2109 815.0352,135.4102 816.5317,135.6646 818.0,136.0 819.4253,136.4722 820.8086,136.9961 822.1448,137.5088 823.4375,138.0 824.7009,138.4639 825.8984,138.8242 827.0146,139.0444 828.0,139.0 828.7666,138.4829 829.4141,137.707 830.0054,136.8059 830.5625,135.8125 831.1235,134.7898 831.7031,133.7812 832.3145,132.8125 833.0,132.0 833.8184,131.5234 834.7344,131.2188 835.7349,130.9885 836.8125,130.8125 837.9409,130.6423 839.1641,130.4648 840.501,130.2729 842.0,130.0 843.749,129.5435 845.6484,129.0039 847.6348,128.4414 849.6875,127.875 851.7715,127.3438 853.8672,126.8477 855.96,126.3911 858.0,126.0 859.915,125.7065 861.7578,125.4961 863.5547,125.3645 865.3125,125.3125 867.0547,125.3328 868.7578,125.4453 870.4111,125.6611 872.0,126.0 873.4951,126.4951 874.9297,127.1172 876.324,127.8521 877.6875,128.6875 879.0374,129.5972 880.3711,130.6094 881.6909,131.7324 883.0,133.0 884.2974,134.4785 885.5977,136.0781 886.915,137.7373 888.25,139.4375 889.5967,141.1533 890.9883,142.8438 892.4399,144.4844 894.0,146.0 895.7515,147.2734 897.6055,148.4062 899.5054,149.4536 901.4375,150.4375 903.3774,151.4097 905.3008,152.3359 907.1938,153.2061 909.0,154.0 910.6304,154.6689 912.168,155.2891 913.6643,155.9167 915.125,156.5625 916.5642,157.2336 918.0078,157.9961 919.4658,158.8823 921.0,160.0 922.7139,161.5278 924.4922,163.2852 926.2615,165.1604 928.0,167.125 929.6702,169.1228 931.2461,171.125 932.7104,173.1133 934.0,175.0 935.02,176.6523 935.8477,178.1875 936.5234,179.6738 937.0625,181.125 937.5039,182.5762 937.8164,184.0312 937.9888,185.4922 938.0,187.0 937.8042,188.6172 937.4648,190.2812 937.0251,191.9529 936.5,193.625 935.9104,195.2834 935.2812,196.9102 934.6289,198.4966 934.0,200.0 933.4648,201.3511 932.9688,202.6211 932.4824,203.855 932.0,205.0625 931.502,206.2622 931.0,207.4727 930.5,208.7036 930.0,210.0 929.5,211.4331 929.0,212.9336 928.501,214.4587 928.0,216.0 927.4912,217.5393 926.9844,219.0625 926.4824,220.5625 926.0,222.0 925.5645,223.3125 925.1406,224.5625 924.7034,225.7891 924.25,227.0 923.7791,228.2109 923.2617,229.4375 922.6851,230.6875 922.0,232.0 921.1235,233.4375 920.1445,234.9375 919.1189,236.4609 918.0625,238.0 917.0042,239.5391 915.9609,241.0625 914.9443,242.5625 914.0,244.0 913.1963,245.3125 912.4766,246.5625 911.8079,247.7888 911.1875,249.0 910.6042,250.2131 910.0508,251.4414 909.5259,252.6919 909.0,254.0 908.4233,255.4214 907.8555,256.9023 907.3369,258.4111 906.875,259.9375 906.4795,261.46 906.1836,262.9805 906.0034,264.4976 906.0,266.0 906.2739,267.4751 906.7227,268.9258 907.2817,270.3513 907.9375,271.75 908.6636,273.1233 909.4336,274.4609 910.2339,275.7568 911.0,277.0 911.6294,278.1729 912.2227,279.2891 912.8433,280.356 913.5,281.375 914.2114,282.3511 915.0117,283.2812 915.9155,284.1641 917.0,285.0 918.3931,285.7891 919.957,286.5312 921.603,287.2263 923.3125,287.875 925.0532,288.4788 926.7773,289.0352 928.4604,289.5435 930.0,290.0 931.231,290.3979 932.3164,290.7461 933.3577,291.0496 934.375,291.3125 935.4099,291.5422 936.5,291.7344 937.6641,291.8887 939.0,292.0 940.6641,292.0566 942.5,292.0781 944.4114,292.0791 946.375,292.0625 948.3445,292.0303 950.293,292.0 952.2046,291.9805 954.0,292.0 955.5571,292.1055 956.9883,292.25 958.3601,292.4055 959.6875,292.5625 961.0051,292.7019 962.3203,292.8242 963.6377,292.9272 965.0,293.0 966.4717,293.0298 967.9922,293.0195 969.5249,292.967 971.0625,292.875 972.5884,292.7537 974.0938,292.5781 975.5742,292.3379 977.0,292.0 978.3242,291.5059 979.5938,290.9219 980.8374,290.29 982.0625,289.625 983.2837,288.9521 984.5078,288.2812 985.7393,287.6211 987.0,287.0 988.3232,286.457 989.6797,285.9688 991.0525,285.5249 992.4375,285.125 993.8245,284.7603 995.2148,284.4453 996.6089,284.1885 998.0,284.0 999.3794,283.8975 1000.7539,283.8672 1002.1272,283.9019 1003.5,284.0 1004.8748,284.1567 1006.25,284.375 1007.625,284.6562 1009.0,285.0" stroke="#5E8EBE" stroke-width="16" /></g></svg>