<?xml version="1.0" encoding="utf-8" ?>
<svg baseProfile="tiny" height="924px" version="1.2" width="589px" xmlns="http://www.w3.org/2000/svg" xmlns:ev="http://www.w3.org/2001/xml-events" xmlns:xlink="http://www.w3.org/1999/xlink"><defs /><g><polyline fill="none" opacity="100" points="473.0,2.0 468.4141,33.5391 463.5312,63.5312 458.3413,91.9165 452.875,118.875 447.1938,144.7671 441.1953,168.9922 434.8486,191.3701 428.0,211.0 420.3623,226.2002 412.3047,239.1328 404.0627,251.2983 395.75,263.0 387.5525,274.604 379.4883,287.4219 371.6079,302.1113 364.0,321.0 356.7397,347.9043 349.918,379.0156 343.6567,411.9868 337.9375,446.25 332.6401,480.6655 328.1914,514.6016 324.7778,547.6807 323.0,578.0 323.9058,602.6396 326.3398,624.2734 329.5706,644.4673 333.375,663.625 337.3611,682.6772 341.3047,701.6094 345.0459,720.4707 348.0,740.0 349.3057,761.2168 349.6328,783.3281 349.3403,805.9092 348.5,828.875 347.3511,851.9424 345.75,875.2812 343.625,898.9766 341.0,923.0" stroke="#ADD8E6" stroke-width="28" /><text fill="#0404A4" font-family="Arial" font-size="28" font-weight="bold" opacity="100" x="180.8" y="45.2">СХЕМА ЛИНИЙ</text><text fill="#0404A4" font-family="Arial" font-size="24" font-weight="bold" opacity="100" x="76.4" y="76.6">МЕТРОПОЛИТЕНА ВЕЛИКОГО НОВГОРОДА</text><text fill="#B22222" font-family="Arial" font-size="16" font-weight="normal" opacity="100" x="365.6" y="763.4">Кремлевское кольцо</text><text fill="#1E90FF" font-family="Arial" font-size="16" font-weight="normal" opacity="100" x="365.6" y="783.4">Панковко-Кречевицкая линия</text><text fill="#228B22" font-family="Arial" font-size="16" font-weight="normal" opacity="100" x="365.6" y="803.4">Ермолино-Деревяницкая линия</text><text fill="#B8860B" font-family="Arial" font-size="16" font-weight="normal" opacity="100" x="365.6" y="823.4">Ульяново-Московская линия</text><text fill="#1E90FF" font-family="Arial" font-size="16" font-weight="bold" opacity="100" x="42.6" y="604.4">ПАНКОВКО-</text><text fill="#1E90FF" font-family="Arial" font-size="16" font-weight="bold" opacity="100" x="42.6" y="619.4">КРЕЧЕВИЦКАЯ</text><text fill="#1E90FF" font-family="Arial" font-size="16" font-weight="bold" opacity="100" x="42.6" y="634.4">ЛИНИЯ</text><text fill="#228B22" font-family="Arial" font-size="16" font-weight="bold" opacity="100" x="462.6" y="149.4">ЕРМОЛИНО-</text><text fill="#228B22" font-family="Arial" font-size="16" font-weight="bold" opacity="100" x="462.6" y="164.4">ДЕРЕВЯНИЦКАЯ</text><text fill="#228B22" font-family="Arial" font-size="16" font-weight="bold" opacity="100" x="462.6" y="179.4">ЛИНИЯ</text><text fill="#B8860B" font-family="Arial" font-size="16" font-weight="bold" opacity="100" x="142.6" y="244.4">УЛЬЯНОВО-</text><text fill="#B8860B" font-family="Arial" font-size="16" font-weight="bold" opacity="100" x="142.6" y="259.4">МОСКОВСКАЯ</text><text fill="#B8860B" font-family="Arial" font-size="16" font-weight="bold" opacity="100" x="142.6" y="274.4">ЛИНИЯ</text><text fill="#B22222" font-family="Arial" font-size="16" font-weight="bold" opacity="100" x="292.6" y="514.4">КРЕМЛЕВСКОЕ</text><text fill="#B22222" font-family="Arial" font-size="16" font-weight="bold" opacity="100" x="292.6" y="529.4">КОЛЬЦО</text></g></svg>