<?xml version="1.0" encoding="utf-8" ?>
<svg baseProfile="tiny" height="630px" version="1.2" width="1100px" xmlns="http://www.w3.org/2000/svg" xmlns:ev="http://www.w3.org/2001/xml-events" xmlns:xlink="http://www.w3.org/1999/xlink"><defs /><g><g transform="rotate(-10.0,550.0,315.0)"><polygon fill="#5D87C3" opacity="100" points="316.0,398.0 766.0,398.0 766.0,428.0 316.0,428.0" stroke="#000" stroke-width="1" /><polygon fill="#5D87C3" opacity="100" points="316.0,318.0 766.0,318.0 766.0,288.0 316.0,288.0" stroke="#000" stroke-width="1" /><text fill="#5D87C3" font-family="Arial" font-size="20" font-weight="normal" opacity="100" transform="rotate(-0.0 317.0,264.0) translate(0 20)" x="317.0" y="264.0">&lt;&lt; тупик</text><text fill="#5D87C3" font-family="Arial" font-size="20" font-weight="normal" opacity="100" transform="rotate(-0.0 583.0,428.0) translate(0 20)" x="583.0" y="428.0">Проспект Свободы &gt;&gt;</text><text fill="#5D87C3" font-family="Arial" font-size="25" font-weight="bold" opacity="100" transform="rotate(-0.0 446.0,340.0) translate(0 25)" x="446.0" y="340.0">Покровская</text><polyline fill="none" opacity="100" points="846.0,240.0 926.0,254.0 913.0,330.0 899.0,328.0 900.0,320.0 844.0,310.0 818.0,328.0 766.0,328.0 766.0,318.0" stroke="#000" stroke-width="1" /><polyline fill="none" opacity="100" points="1029.0,272.0 949.0,258.0 907.0,496.0 990.0,511.0" stroke="#000" stroke-width="1" /><polyline fill="none" opacity="100" points="801.0,477.0 884.0,492.0 898.0,415.0 884.0,413.0 883.0,421.0 837.0,413.0 818.0,387.0 766.0,387.0 766.0,398.0" stroke="#000" stroke-width="1" /><polyline fill="none" opacity="100" points="798.0,494.0 987.0,528.0" stroke="#000" stroke-width="1" /><polyline fill="none" opacity="100" points="849.0,223.0 1032.0,255.0" stroke="#000" stroke-width="1" /><polyline fill="none" opacity="100" points="770.0,387.0 770.0,328.0" stroke="#000" stroke-width="1" /><polyline fill="none" opacity="100" points="774.0,387.0 774.0,328.0" stroke="#000" stroke-width="1" /><polyline fill="none" opacity="100" points="778.0,387.0 778.0,328.0" stroke="#000" stroke-width="1" /><polyline fill="none" opacity="100" points="782.0,387.0 782.0,328.0" stroke="#000" stroke-width="1" /><polyline fill="none" opacity="100" points="786.0,387.0 786.0,328.0" stroke="#000" stroke-width="1" /><polyline fill="none" opacity="100" points="790.0,387.0 790.0,328.0" stroke="#000" stroke-width="1" /><polyline fill="none" opacity="100" points="794.0,387.0 794.0,328.0" stroke="#000" stroke-width="1" /><polyline fill="none" opacity="100" points="798.0,387.0 798.0,328.0" stroke="#000" stroke-width="1" /><polyline fill="none" opacity="100" points="802.0,387.0 802.0,328.0" stroke="#000" stroke-width="1" /><polyline fill="none" opacity="100" points="806.0,387.0 806.0,328.0" stroke="#000" stroke-width="1" /><polyline fill="none" opacity="100" points="810.0,387.0 810.0,328.0" stroke="#000" stroke-width="1" /><polyline fill="none" opacity="100" points="814.0,387.0 814.0,328.0" stroke="#000" stroke-width="1" /><polyline fill="none" opacity="100" points="1029.0,272.0 1032.0,255.0" stroke="#000" stroke-width="1" /><polyline fill="none" opacity="100" points="1025.0592,271.3146 1028.0592,254.3146" stroke="#000" stroke-width="1" /><polyline fill="none" opacity="100" points="1021.1183,270.6293 1024.1183,253.6293" stroke="#000" stroke-width="1" /><polyline fill="none" opacity="100" points="1017.1775,269.9439 1020.1775,252.9439" stroke="#000" stroke-width="1" /><polyline fill="none" opacity="100" points="1013.2366,269.2585 1016.2366,252.2585" stroke="#000" stroke-width="1" /><polyline fill="none" opacity="100" points="1009.2958,268.5732 1012.2958,251.5732" stroke="#000" stroke-width="1" /><polyline fill="none" opacity="100" points="1005.3549,267.8878 1008.3549,250.8878" stroke="#000" stroke-width="1" /><polyline fill="none" opacity="100" points="1001.4141,267.2024 1004.4141,250.2024" stroke="#000" stroke-width="1" /><polyline fill="none" opacity="100" points="997.4732,266.5171 1000.4732,249.5171" stroke="#000" stroke-width="1" /><polyline fill="none" opacity="100" points="993.5324,265.8317 996.5324,248.8317" stroke="#000" stroke-width="1" /><polyline fill="none" opacity="100" points="989.5915,265.1464 992.5915,248.1464" stroke="#000" stroke-width="1" /><polyline fill="none" opacity="100" points="985.6507,264.461 988.6507,247.461" stroke="#000" stroke-width="1" /><polyline fill="none" opacity="100" points="990.0,511.0 987.0,528.0" stroke="#000" stroke-width="1" /><polyline fill="none" opacity="100" points="986.0658,510.2774 983.0658,527.2774" stroke="#000" stroke-width="1" /><polyline fill="none" opacity="100" points="982.1316,509.5548 979.1316,526.5548" stroke="#000" stroke-width="1" /><polyline fill="none" opacity="100" points="978.1974,508.8322 975.1974,525.8322" stroke="#000" stroke-width="1" /><polyline fill="none" opacity="100" points="974.2632,508.1096 971.2632,525.1096" stroke="#000" stroke-width="1" /><polyline fill="none" opacity="100" points="970.3291,507.387 967.3291,524.387" stroke="#000" stroke-width="1" /><polyline fill="none" opacity="100" points="966.3949,506.6644 963.3949,523.6644" stroke="#000" stroke-width="1" /><polyline fill="none" opacity="100" points="962.4607,505.9418 959.4607,522.9418" stroke="#000" stroke-width="1" /><polyline fill="none" opacity="100" points="958.5265,505.2192 955.5265,522.2192" stroke="#000" stroke-width="1" /><polyline fill="none" opacity="100" points="954.5923,504.4965 951.5923,521.4965" stroke="#000" stroke-width="1" /><polyline fill="none" opacity="100" points="950.6581,503.7739 947.6581,520.7739" stroke="#000" stroke-width="1" /><polyline fill="none" opacity="100" points="946.7239,503.0513 943.7239,520.0513" stroke="#000" stroke-width="1" /><polyline fill="none" opacity="100" points="942.7897,502.3287 939.7897,519.3287" stroke="#000" stroke-width="1" /><polyline fill="none" opacity="100" points="846.0,240.0 849.0,223.0" stroke="#000" stroke-width="1" /><polyline fill="none" opacity="100" points="849.9408,240.6854 852.9408,223.6854" stroke="#000" stroke-width="1" /><polyline fill="none" opacity="100" points="853.8817,241.3707 856.8817,224.3707" stroke="#000" stroke-width="1" /><polyline fill="none" opacity="100" points="857.8225,242.0561 860.8225,225.0561" stroke="#000" stroke-width="1" /><polyline fill="none" opacity="100" points="861.7634,242.7415 864.7634,225.7415" stroke="#000" stroke-width="1" /><polyline fill="none" opacity="100" points="865.7042,243.4268 868.7042,226.4268" stroke="#000" stroke-width="1" /><polyline fill="none" opacity="100" points="869.6451,244.1122 872.6451,227.1122" stroke="#000" stroke-width="1" /><polyline fill="none" opacity="100" points="873.5859,244.7976 876.5859,227.7976" stroke="#000" stroke-width="1" /><polyline fill="none" opacity="100" points="877.5268,245.4829 880.5268,228.4829" stroke="#000" stroke-width="1" /><polyline fill="none" opacity="100" points="881.4676,246.1683 884.4676,229.1683" stroke="#000" stroke-width="1" /><polyline fill="none" opacity="100" points="885.4085,246.8536 888.4085,229.8536" stroke="#000" stroke-width="1" /><polyline fill="none" opacity="100" points="889.3493,247.539 892.3493,230.539" stroke="#000" stroke-width="1" /><polyline fill="none" opacity="100" points="801.0,477.0 798.0,494.0" stroke="#000" stroke-width="1" /><polyline fill="none" opacity="100" points="804.9342,477.7226 801.9342,494.7226" stroke="#000" stroke-width="1" /><polyline fill="none" opacity="100" points="808.8684,478.4452 805.8684,495.4452" stroke="#000" stroke-width="1" /><polyline fill="none" opacity="100" points="812.8026,479.1678 809.8026,496.1678" stroke="#000" stroke-width="1" /><polyline fill="none" opacity="100" points="816.7368,479.8904 813.7368,496.8904" stroke="#000" stroke-width="1" /><polyline fill="none" opacity="100" points="820.6709,480.613 817.6709,497.613" stroke="#000" stroke-width="1" /><polyline fill="none" opacity="100" points="824.6051,481.3356 821.6051,498.3356" stroke="#000" stroke-width="1" /><polyline fill="none" opacity="100" points="828.5393,482.0582 825.5393,499.0582" stroke="#000" stroke-width="1" /><polyline fill="none" opacity="100" points="832.4735,482.7808 829.4735,499.7808" stroke="#000" stroke-width="1" /><polyline fill="none" opacity="100" points="836.4077,483.5035 833.4077,500.5035" stroke="#000" stroke-width="1" /><polyline fill="none" opacity="100" points="840.3419,484.2261 837.3419,501.2261" stroke="#000" stroke-width="1" /><polyline fill="none" opacity="100" points="844.2761,484.9487 841.2761,501.9487" stroke="#000" stroke-width="1" /><polyline fill="none" opacity="100" points="848.2103,485.6713 845.2103,502.6713" stroke="#000" stroke-width="1" /><polygon fill="#D0D0D0" opacity="100" points="909.0,351.0 895.0,349.0 888.0,391.0 902.0,393.0" stroke="#000" stroke-width="1" /><polyline fill="none" opacity="100" points="234.0,237.0 184.0,237.0 184.0,314.0 198.0,314.0 198.0,307.0 243.0,307.0 264.0,328.0 316.0,328.0 316.0,318.0" stroke="#000" stroke-width="1" /><polyline fill="none" opacity="100" points="234.0,220.0 111.0,220.0" stroke="#000" stroke-width="1" /><polyline fill="none" opacity="100" points="111.0,237.0 161.0,237.0 161.0,479.0 111.0,479.0" stroke="#000" stroke-width="1" /><polyline fill="none" opacity="100" points="111.0,499.0 234.0,499.0" stroke="#000" stroke-width="1" /><polyline fill="none" opacity="100" points="234.0,479.0 184.0,479.0 184.0,402.0 198.0,402.0 198.0,409.0 242.0,409.0 264.0,387.0 316.0,387.0 316.0,398.0" stroke="#000" stroke-width="1" /><polyline fill="none" opacity="100" points="312.0,387.0 312.0,328.0" stroke="#000" stroke-width="1" /><polyline fill="none" opacity="100" points="308.0,387.0 308.0,328.0" stroke="#000" stroke-width="1" /><polyline fill="none" opacity="100" points="304.0,387.0 304.0,328.0" stroke="#000" stroke-width="1" /><polyline fill="none" opacity="100" points="300.0,387.0 300.0,328.0" stroke="#000" stroke-width="1" /><polyline fill="none" opacity="100" points="296.0,387.0 296.0,328.0" stroke="#000" stroke-width="1" /><polyline fill="none" opacity="100" points="292.0,387.0 292.0,328.0" stroke="#000" stroke-width="1" /><polyline fill="none" opacity="100" points="288.0,387.0 288.0,328.0" stroke="#000" stroke-width="1" /><polyline fill="none" opacity="100" points="284.0,387.0 284.0,328.0" stroke="#000" stroke-width="1" /><polyline fill="none" opacity="100" points="280.0,387.0 280.0,328.0" stroke="#000" stroke-width="1" /><polyline fill="none" opacity="100" points="276.0,387.0 276.0,328.0" stroke="#000" stroke-width="1" /><polyline fill="none" opacity="100" points="272.0,387.0 272.0,328.0" stroke="#000" stroke-width="1" /><polyline fill="none" opacity="100" points="268.0,387.0 268.0,328.0" stroke="#000" stroke-width="1" /><polyline fill="none" opacity="100" points="113.0,237.0 113.0,220.0" stroke="#000" stroke-width="1" /><polyline fill="none" opacity="100" points="117.0,237.0 117.0,220.0" stroke="#000" stroke-width="1" /><polyline fill="none" opacity="100" points="121.0,237.0 121.0,220.0" stroke="#000" stroke-width="1" /><polyline fill="none" opacity="100" points="125.0,237.0 125.0,220.0" stroke="#000" stroke-width="1" /><polyline fill="none" opacity="100" points="129.0,237.0 129.0,220.0" stroke="#000" stroke-width="1" /><polyline fill="none" opacity="100" points="133.0,237.0 133.0,220.0" stroke="#000" stroke-width="1" /><polyline fill="none" opacity="100" points="137.0,237.0 137.0,220.0" stroke="#000" stroke-width="1" /><polyline fill="none" opacity="100" points="141.0,237.0 141.0,220.0" stroke="#000" stroke-width="1" /><polyline fill="none" opacity="100" points="145.0,237.0 145.0,220.0" stroke="#000" stroke-width="1" /><polyline fill="none" opacity="100" points="149.0,237.0 149.0,220.0" stroke="#000" stroke-width="1" /><polyline fill="none" opacity="100" points="153.0,237.0 153.0,220.0" stroke="#000" stroke-width="1" /><polyline fill="none" opacity="100" points="157.0,237.0 157.0,220.0" stroke="#000" stroke-width="1" /><polyline fill="none" opacity="100" points="232.0,237.0 232.0,220.0" stroke="#000" stroke-width="1" /><polyline fill="none" opacity="100" points="228.0,237.0 228.0,220.0" stroke="#000" stroke-width="1" /><polyline fill="none" opacity="100" points="224.0,237.0 224.0,220.0" stroke="#000" stroke-width="1" /><polyline fill="none" opacity="100" points="220.0,237.0 220.0,220.0" stroke="#000" stroke-width="1" /><polyline fill="none" opacity="100" points="216.0,237.0 216.0,220.0" stroke="#000" stroke-width="1" /><polyline fill="none" opacity="100" points="212.0,237.0 212.0,220.0" stroke="#000" stroke-width="1" /><polyline fill="none" opacity="100" points="208.0,237.0 208.0,220.0" stroke="#000" stroke-width="1" /><polyline fill="none" opacity="100" points="204.0,237.0 204.0,220.0" stroke="#000" stroke-width="1" /><polyline fill="none" opacity="100" points="200.0,237.0 200.0,220.0" stroke="#000" stroke-width="1" /><polyline fill="none" opacity="100" points="196.0,237.0 196.0,220.0" stroke="#000" stroke-width="1" /><polyline fill="none" opacity="100" points="192.0,237.0 192.0,220.0" stroke="#000" stroke-width="1" /><polyline fill="none" opacity="100" points="188.0,237.0 188.0,220.0" stroke="#000" stroke-width="1" /><polyline fill="none" opacity="100" points="232.0,479.0 232.0,499.0" stroke="#000" stroke-width="1" /><polyline fill="none" opacity="100" points="228.0,479.0 228.0,499.0" stroke="#000" stroke-width="1" /><polyline fill="none" opacity="100" points="224.0,479.0 224.0,499.0" stroke="#000" stroke-width="1" /><polyline fill="none" opacity="100" points="220.0,479.0 220.0,499.0" stroke="#000" stroke-width="1" /><polyline fill="none" opacity="100" points="216.0,479.0 216.0,499.0" stroke="#000" stroke-width="1" /><polyline fill="none" opacity="100" points="212.0,479.0 212.0,499.0" stroke="#000" stroke-width="1" /><polyline fill="none" opacity="100" points="208.0,479.0 208.0,499.0" stroke="#000" stroke-width="1" /><polyline fill="none" opacity="100" points="204.0,479.0 204.0,499.0" stroke="#000" stroke-width="1" /><polyline fill="none" opacity="100" points="200.0,479.0 200.0,499.0" stroke="#000" stroke-width="1" /><polyline fill="none" opacity="100" points="196.0,479.0 196.0,499.0" stroke="#000" stroke-width="1" /><polyline fill="none" opacity="100" points="192.0,479.0 192.0,499.0" stroke="#000" stroke-width="1" /><polyline fill="none" opacity="100" points="188.0,479.0 188.0,499.0" stroke="#000" stroke-width="1" /><polyline fill="none" opacity="100" points="113.0,479.0 113.0,499.0" stroke="#000" stroke-width="1" /><polyline fill="none" opacity="100" points="117.0,479.0 117.0,499.0" stroke="#000" stroke-width="1" /><polyline fill="none" opacity="100" points="121.0,479.0 121.0,499.0" stroke="#000" stroke-width="1" /><polyline fill="none" opacity="100" points="125.0,479.0 125.0,499.0" stroke="#000" stroke-width="1" /><polyline fill="none" opacity="100" points="129.0,479.0 129.0,499.0" stroke="#000" stroke-width="1" /><polyline fill="none" opacity="100" points="133.0,479.0 133.0,499.0" stroke="#000" stroke-width="1" /><polyline fill="none" opacity="100" points="137.0,479.0 137.0,499.0" stroke="#000" stroke-width="1" /><polyline fill="none" opacity="100" points="141.0,479.0 141.0,499.0" stroke="#000" stroke-width="1" /><polyline fill="none" opacity="100" points="145.0,479.0 145.0,499.0" stroke="#000" stroke-width="1" /><polyline fill="none" opacity="100" points="149.0,479.0 149.0,499.0" stroke="#000" stroke-width="1" /><polyline fill="none" opacity="100" points="153.0,479.0 153.0,499.0" stroke="#000" stroke-width="1" /><polyline fill="none" opacity="100" points="157.0,479.0 157.0,499.0" stroke="#000" stroke-width="1" /><polygon fill="#D0D0D0" opacity="100" points="184.0,379.0 198.0,379.0 198.0,336.0 184.0,336.0" stroke="#000" stroke-width="1" /><text fill="#00AFAF" font-family="Arial" font-size="15" font-weight="normal" opacity="100" transform="rotate(-0.0 510.0,244.0) translate(0 15)" x="510.0" y="244.0">площадь Единения</text><text fill="#00AFAF" font-family="Arial" font-size="15" font-weight="normal" opacity="100" transform="rotate(-0.0 -6.0,351.0) translate(0 15)" x="-6.0" y="351.0">улица\nБратьев Трофимовых</text><text fill="#00AFAF" font-family="Arial" font-size="15" font-weight="normal" opacity="100" transform="rotate(10.0 944.0,373.0) translate(0 15)" x="944.0" y="373.0">улица\n Братьев Трофимовых</text><text fill="#00AFAF" font-family="Arial" font-size="15" font-weight="normal" opacity="100" transform="rotate(70.0 892.0,62.0) translate(0 15)" x="892.0" y="62.0">Коммунаровская улица</text><text fill="#00AFAF" font-family="Arial" font-size="15" font-weight="normal" opacity="100" transform="rotate(100.0 899.0,536.0) translate(0 15)" x="899.0" y="536.0">Коммунаровская улица</text></g></g></svg>