<?xml version="1.0" encoding="utf-8" ?>
<svg baseProfile="tiny" height="540px" version="1.2" width="1130px" xmlns="http://www.w3.org/2000/svg" xmlns:ev="http://www.w3.org/2001/xml-events" xmlns:xlink="http://www.w3.org/1999/xlink"><defs /><g><g transform="rotate(15.0,565.0,270.0)"><polygon fill="#5D87C3" opacity="100" points="620.0,359.0 1070.0,359.0 1070.0,389.0 620.0,389.0" stroke="#000" stroke-width="1" /><polygon fill="#5D87C3" opacity="100" points="620.0,279.0 1070.0,279.0 1070.0,249.0 620.0,249.0" stroke="#000" stroke-width="1" /><text fill="#5D87C3" font-family="Arial" font-size="20" font-weight="normal" opacity="100" transform="rotate(-0.0 621.0,225.0) translate(0 20)" x="621.0" y="225.0">&lt;&lt; Метростроителей</text><text fill="#5D87C3" font-family="Arial" font-size="20" font-weight="normal" opacity="100" transform="rotate(-0.0 997.0,389.0) translate(0 20)" x="997.0" y="389.0">тупик &gt;&gt;</text><text fill="#5D87C3" font-family="Arial" font-size="25" font-weight="bold" opacity="100" transform="rotate(-0.0 774.0,302.0) translate(0 25)" x="774.0" y="302.0">Вокзальная</text><polyline fill="none" opacity="100" points="1070.0,359.0 1070.0,347.0 967.0,347.0 967.0,336.0 1021.0,336.0 1021.0,302.0 968.0,302.0 968.0,291.0 1070.0,291.0 1070.0,279.0" stroke="#000" stroke-width="1" /><polyline fill="none" opacity="100" points="620.0,279.0 620.0,291.0 697.0,291.0 697.0,302.0 668.0,302.0 668.0,306.0 660.0,306.0 660.0,300.0 632.0,300.0" stroke="#000" stroke-width="1" /><polyline fill="none" opacity="100" points="632.0,338.0 660.0,338.0 660.0,332.0 668.0,332.0 668.0,336.0 697.0,336.0 697.0,347.0 620.0,347.0 620.0,359.0" stroke="#000" stroke-width="1" /><polyline fill="none" opacity="100" points="384.0,300.0 365.0,281.0 325.0,281.0 368.0,206.0 411.0,231.0" stroke="#000" stroke-width="1" /><polyline fill="none" opacity="100" points="420.0,215.0 369.0,185.0 342.0,158.0 312.0,107.0" stroke="#000" stroke-width="1" /><polyline fill="none" opacity="100" points="308.0,109.0 333.0,152.0" stroke="#000" stroke-width="1" /><polyline fill="none" opacity="100" points="296.0,116.0 322.0,160.0 282.0,228.0 163.0,296.0 84.0,296.0 59.0,253.0" stroke="#000" stroke-width="1" /><polyline fill="none" opacity="100" points="43.0,262.0 99.0,360.0 89.0,395.0 45.0,421.0" stroke="#000" stroke-width="1" /><polyline fill="none" opacity="100" points="54.0,437.0 123.0,397.0 191.0,397.0 233.0,469.0 189.0,494.0" stroke="#000" stroke-width="1" /><polyline fill="none" opacity="100" points="198.0,510.0 327.0,435.0" stroke="#000" stroke-width="1" /><polyline fill="none" opacity="100" points="318.0,419.0 275.0,444.0 250.0,400.0 325.0,357.0 365.0,357.0 384.0,338.0" stroke="#000" stroke-width="1" /><polyline fill="none" opacity="100" points="297.0,118.0 309.0,111.0" stroke="#000" stroke-width="1" /><polyline fill="none" opacity="100" points="299.0319,121.4455 311.0319,114.4455" stroke="#000" stroke-width="1" /><polyline fill="none" opacity="100" points="301.0639,124.8909 313.0639,117.8909" stroke="#000" stroke-width="1" /><polyline fill="none" opacity="100" points="303.0958,128.3364 315.0958,121.3364" stroke="#000" stroke-width="1" /><polyline fill="none" opacity="100" points="305.1278,131.7819 317.1278,124.7819" stroke="#000" stroke-width="1" /><polyline fill="none" opacity="100" points="307.1597,135.2273 319.1597,128.2273" stroke="#000" stroke-width="1" /><polyline fill="none" opacity="100" points="309.1916,138.6728 321.1916,131.6728" stroke="#000" stroke-width="1" /><polyline fill="none" opacity="100" points="311.2236,142.1182 323.2236,135.1182" stroke="#000" stroke-width="1" /><polyline fill="none" opacity="100" points="313.2555,145.5637 325.2555,138.5637" stroke="#000" stroke-width="1" /><polyline fill="none" opacity="100" points="315.2875,149.0092 327.2875,142.0092" stroke="#000" stroke-width="1" /><polyline fill="none" opacity="100" points="317.3194,152.4546 329.3194,145.4546" stroke="#000" stroke-width="1" /><polyline fill="none" opacity="100" points="319.3513,155.9001 331.3513,148.9001" stroke="#000" stroke-width="1" /><polyline fill="none" opacity="100" points="409.0,230.0 418.0,214.0" stroke="#000" stroke-width="1" /><polyline fill="none" opacity="100" points="405.5545,227.9681 414.5545,211.9681" stroke="#000" stroke-width="1" /><polyline fill="none" opacity="100" points="402.1091,225.9361 411.1091,209.9361" stroke="#000" stroke-width="1" /><polyline fill="none" opacity="100" points="398.6636,223.9042 407.6636,207.9042" stroke="#000" stroke-width="1" /><polyline fill="none" opacity="100" points="395.2181,221.8722 404.2181,205.8722" stroke="#000" stroke-width="1" /><polyline fill="none" opacity="100" points="391.7727,219.8403 400.7727,203.8403" stroke="#000" stroke-width="1" /><polyline fill="none" opacity="100" points="388.3272,217.8084 397.3272,201.8084" stroke="#000" stroke-width="1" /><polyline fill="none" opacity="100" points="384.8818,215.7764 393.8818,199.7764" stroke="#000" stroke-width="1" /><polyline fill="none" opacity="100" points="381.4363,213.7445 390.4363,197.7445" stroke="#000" stroke-width="1" /><polyline fill="none" opacity="100" points="377.9908,211.7125 386.9908,195.7125" stroke="#000" stroke-width="1" /><polyline fill="none" opacity="100" points="374.5454,209.6806 383.5454,193.6806" stroke="#000" stroke-width="1" /><polyline fill="none" opacity="100" points="371.0999,207.6487 380.0999,191.6487" stroke="#000" stroke-width="1" /><polyline fill="none" opacity="100" points="316.0,420.0 325.0,436.0" stroke="#000" stroke-width="1" /><polyline fill="none" opacity="100" points="312.5545,422.0319 321.5545,438.0319" stroke="#000" stroke-width="1" /><polyline fill="none" opacity="100" points="309.1091,424.0639 318.1091,440.0639" stroke="#000" stroke-width="1" /><polyline fill="none" opacity="100" points="305.6636,426.0958 314.6636,442.0958" stroke="#000" stroke-width="1" /><polyline fill="none" opacity="100" points="302.2181,428.1278 311.2181,444.1278" stroke="#000" stroke-width="1" /><polyline fill="none" opacity="100" points="298.7727,430.1597 307.7727,446.1597" stroke="#000" stroke-width="1" /><polyline fill="none" opacity="100" points="295.3272,432.1916 304.3272,448.1916" stroke="#000" stroke-width="1" /><polyline fill="none" opacity="100" points="291.8818,434.2236 300.8818,450.2236" stroke="#000" stroke-width="1" /><polyline fill="none" opacity="100" points="288.4363,436.2555 297.4363,452.2555" stroke="#000" stroke-width="1" /><polyline fill="none" opacity="100" points="284.9908,438.2875 293.9908,454.2875" stroke="#000" stroke-width="1" /><polyline fill="none" opacity="100" points="281.5454,440.3194 290.5454,456.3194" stroke="#000" stroke-width="1" /><polyline fill="none" opacity="100" points="278.0999,442.3513 287.0999,458.3513" stroke="#000" stroke-width="1" /><polyline fill="none" opacity="100" points="191.0,493.0 200.0,509.0" stroke="#000" stroke-width="1" /><polyline fill="none" opacity="100" points="194.4676,491.0061 203.4676,507.0061" stroke="#000" stroke-width="1" /><polyline fill="none" opacity="100" points="197.9353,489.0122 206.9353,505.0122" stroke="#000" stroke-width="1" /><polyline fill="none" opacity="100" points="201.4029,487.0183 210.4029,503.0183" stroke="#000" stroke-width="1" /><polyline fill="none" opacity="100" points="204.8705,485.0245 213.8705,501.0245" stroke="#000" stroke-width="1" /><polyline fill="none" opacity="100" points="208.3381,483.0306 217.3381,499.0306" stroke="#000" stroke-width="1" /><polyline fill="none" opacity="100" points="211.8058,481.0367 220.8058,497.0367" stroke="#000" stroke-width="1" /><polyline fill="none" opacity="100" points="215.2734,479.0428 224.2734,495.0428" stroke="#000" stroke-width="1" /><polyline fill="none" opacity="100" points="218.741,477.0489 227.741,493.0489" stroke="#000" stroke-width="1" /><polyline fill="none" opacity="100" points="222.2086,475.055 231.2086,491.055" stroke="#000" stroke-width="1" /><polyline fill="none" opacity="100" points="225.6763,473.0612 234.6763,489.0612" stroke="#000" stroke-width="1" /><polyline fill="none" opacity="100" points="229.1439,471.0673 238.1439,487.0673" stroke="#000" stroke-width="1" /><polyline fill="none" opacity="100" points="56.0,436.0 47.0,420.0" stroke="#000" stroke-width="1" /><polyline fill="none" opacity="100" points="59.4455,433.9681 50.4455,417.9681" stroke="#000" stroke-width="1" /><polyline fill="none" opacity="100" points="62.8909,431.9361 53.8909,415.9361" stroke="#000" stroke-width="1" /><polyline fill="none" opacity="100" points="66.3364,429.9042 57.3364,413.9042" stroke="#000" stroke-width="1" /><polyline fill="none" opacity="100" points="69.7819,427.8722 60.7819,411.8722" stroke="#000" stroke-width="1" /><polyline fill="none" opacity="100" points="73.2273,425.8403 64.2273,409.8403" stroke="#000" stroke-width="1" /><polyline fill="none" opacity="100" points="76.6728,423.8084 67.6728,407.8084" stroke="#000" stroke-width="1" /><polyline fill="none" opacity="100" points="80.1182,421.7764 71.1182,405.7764" stroke="#000" stroke-width="1" /><polyline fill="none" opacity="100" points="83.5637,419.7445 74.5637,403.7445" stroke="#000" stroke-width="1" /><polyline fill="none" opacity="100" points="87.0092,417.7125 78.0092,401.7125" stroke="#000" stroke-width="1" /><polyline fill="none" opacity="100" points="90.4546,415.6806 81.4546,399.6806" stroke="#000" stroke-width="1" /><polyline fill="none" opacity="100" points="93.9001,413.6487 84.9001,397.6487" stroke="#000" stroke-width="1" /><polyline fill="none" opacity="100" points="60.0,255.0 44.0,264.0" stroke="#000" stroke-width="1" /><polyline fill="none" opacity="100" points="62.0319,258.4455 46.0319,267.4455" stroke="#000" stroke-width="1" /><polyline fill="none" opacity="100" points="64.0639,261.8909 48.0639,270.8909" stroke="#000" stroke-width="1" /><polyline fill="none" opacity="100" points="66.0958,265.3364 50.0958,274.3364" stroke="#000" stroke-width="1" /><polyline fill="none" opacity="100" points="68.1278,268.7819 52.1278,277.7819" stroke="#000" stroke-width="1" /><polyline fill="none" opacity="100" points="70.1597,272.2273 54.1597,281.2273" stroke="#000" stroke-width="1" /><polyline fill="none" opacity="100" points="72.1916,275.6728 56.1916,284.6728" stroke="#000" stroke-width="1" /><polyline fill="none" opacity="100" points="74.2236,279.1182 58.2236,288.1182" stroke="#000" stroke-width="1" /><polyline fill="none" opacity="100" points="76.2555,282.5637 60.2555,291.5637" stroke="#000" stroke-width="1" /><polyline fill="none" opacity="100" points="78.2875,286.0092 62.2875,295.0092" stroke="#000" stroke-width="1" /><polyline fill="none" opacity="100" points="80.3194,289.4546 64.3194,298.4546" stroke="#000" stroke-width="1" /><polyline fill="none" opacity="100" points="82.3513,292.9001 66.3513,301.9001" stroke="#000" stroke-width="1" /><polygon fill="#D0D0D0" opacity="100" points="325.0,316.0 334.0,316.0 334.0,322.0 325.0,322.0" stroke="#000" stroke-width="1" /><polyline fill="none" opacity="100" points="385.0,303.0 385.0,335.0" stroke="#7F7F7F" stroke-width="1" /><polyline fill="none" opacity="100" points="389.0,303.0 389.0,335.0" stroke="#7F7F7F" stroke-width="1" /><polyline fill="none" opacity="100" points="393.0,303.0 393.0,335.0" stroke="#7F7F7F" stroke-width="1" /><polyline fill="none" opacity="100" points="397.0,303.0 397.0,335.0" stroke="#7F7F7F" stroke-width="1" /><polyline fill="none" opacity="100" points="401.0,303.0 401.0,335.0" stroke="#7F7F7F" stroke-width="1" /><polyline fill="none" opacity="100" points="405.0,303.0 405.0,335.0" stroke="#7F7F7F" stroke-width="1" /><polyline fill="none" opacity="100" points="409.0,303.0 409.0,335.0" stroke="#7F7F7F" stroke-width="1" /><polyline fill="none" opacity="100" points="413.0,303.0 413.0,335.0" stroke="#7F7F7F" stroke-width="1" /><polyline fill="none" opacity="100" points="417.0,303.0 417.0,335.0" stroke="#7F7F7F" stroke-width="1" /><polyline fill="none" opacity="100" points="421.0,303.0 421.0,335.0" stroke="#7F7F7F" stroke-width="1" /><polyline fill="none" opacity="100" points="425.0,303.0 425.0,335.0" stroke="#7F7F7F" stroke-width="1" /><polyline fill="none" opacity="100" points="429.0,303.0 429.0,335.0" stroke="#7F7F7F" stroke-width="1" /><polyline fill="none" opacity="100" points="433.0,303.0 433.0,335.0" stroke="#7F7F7F" stroke-width="1" /><polyline fill="none" opacity="100" points="437.0,303.0 437.0,335.0" stroke="#7F7F7F" stroke-width="1" /><polyline fill="none" opacity="100" points="441.0,303.0 441.0,335.0" stroke="#7F7F7F" stroke-width="1" /><polyline fill="none" opacity="100" points="445.0,303.0 445.0,335.0" stroke="#7F7F7F" stroke-width="1" /><polyline fill="none" opacity="100" points="449.0,303.0 449.0,335.0" stroke="#7F7F7F" stroke-width="1" /><polyline fill="none" opacity="100" points="453.0,303.0 453.0,335.0" stroke="#7F7F7F" stroke-width="1" /><polyline fill="none" opacity="100" points="457.0,303.0 457.0,335.0" stroke="#7F7F7F" stroke-width="1" /><polyline fill="none" opacity="100" points="461.0,303.0 461.0,335.0" stroke="#7F7F7F" stroke-width="1" /><polyline fill="none" opacity="100" points="465.0,303.0 465.0,335.0" stroke="#7F7F7F" stroke-width="1" /><polyline fill="none" opacity="100" points="469.0,303.0 469.0,335.0" stroke="#7F7F7F" stroke-width="1" /><polyline fill="none" opacity="100" points="473.0,303.0 473.0,335.0" stroke="#7F7F7F" stroke-width="1" /><polyline fill="none" opacity="100" points="477.0,303.0 477.0,335.0" stroke="#7F7F7F" stroke-width="1" /><polyline fill="none" opacity="100" points="481.0,303.0 481.0,335.0" stroke="#7F7F7F" stroke-width="1" /><polyline fill="none" opacity="100" points="485.0,303.0 485.0,335.0" stroke="#7F7F7F" stroke-width="1" /><polyline fill="none" opacity="100" points="489.0,303.0 489.0,335.0" stroke="#7F7F7F" stroke-width="1" /><polyline fill="none" opacity="100" points="493.0,303.0 493.0,335.0" stroke="#7F7F7F" stroke-width="1" /><polyline fill="none" opacity="100" points="497.0,303.0 497.0,335.0" stroke="#7F7F7F" stroke-width="1" /><polyline fill="none" opacity="100" points="501.0,303.0 501.0,335.0" stroke="#7F7F7F" stroke-width="1" /><polyline fill="none" opacity="100" points="505.0,303.0 505.0,335.0" stroke="#7F7F7F" stroke-width="1" /><polyline fill="none" opacity="100" points="509.0,303.0 509.0,335.0" stroke="#7F7F7F" stroke-width="1" /><polyline fill="none" opacity="100" points="513.0,303.0 513.0,335.0" stroke="#7F7F7F" stroke-width="1" /><polyline fill="none" opacity="100" points="517.0,303.0 517.0,335.0" stroke="#7F7F7F" stroke-width="1" /><polyline fill="none" opacity="100" points="521.0,303.0 521.0,335.0" stroke="#7F7F7F" stroke-width="1" /><polyline fill="none" opacity="100" points="525.0,303.0 525.0,335.0" stroke="#7F7F7F" stroke-width="1" /><polyline fill="none" opacity="100" points="529.0,303.0 529.0,335.0" stroke="#7F7F7F" stroke-width="1" /><polyline fill="none" opacity="100" points="533.0,303.0 533.0,335.0" stroke="#7F7F7F" stroke-width="1" /><polyline fill="none" opacity="100" points="537.0,303.0 537.0,335.0" stroke="#7F7F7F" stroke-width="1" /><polyline fill="none" opacity="100" points="541.0,303.0 541.0,335.0" stroke="#7F7F7F" stroke-width="1" /><polyline fill="none" opacity="100" points="545.0,303.0 545.0,335.0" stroke="#7F7F7F" stroke-width="1" /><polyline fill="none" opacity="100" points="549.0,303.0 549.0,335.0" stroke="#7F7F7F" stroke-width="1" /><polyline fill="none" opacity="100" points="553.0,303.0 553.0,335.0" stroke="#7F7F7F" stroke-width="1" /><polyline fill="none" opacity="100" points="557.0,303.0 557.0,335.0" stroke="#7F7F7F" stroke-width="1" /><polyline fill="none" opacity="100" points="561.0,303.0 561.0,335.0" stroke="#7F7F7F" stroke-width="1" /><polyline fill="none" opacity="100" points="565.0,303.0 565.0,335.0" stroke="#7F7F7F" stroke-width="1" /><polyline fill="none" opacity="100" points="569.0,303.0 569.0,335.0" stroke="#7F7F7F" stroke-width="1" /><polyline fill="none" opacity="100" points="573.0,303.0 573.0,335.0" stroke="#7F7F7F" stroke-width="1" /><polyline fill="none" opacity="100" points="577.0,303.0 577.0,335.0" stroke="#7F7F7F" stroke-width="1" /><polyline fill="none" opacity="100" points="581.0,303.0 581.0,335.0" stroke="#7F7F7F" stroke-width="1" /><polyline fill="none" opacity="100" points="585.0,303.0 585.0,335.0" stroke="#7F7F7F" stroke-width="1" /><polyline fill="none" opacity="100" points="589.0,303.0 589.0,335.0" stroke="#7F7F7F" stroke-width="1" /><polyline fill="none" opacity="100" points="593.0,303.0 593.0,335.0" stroke="#7F7F7F" stroke-width="1" /><polyline fill="none" opacity="100" points="597.0,303.0 597.0,335.0" stroke="#7F7F7F" stroke-width="1" /><polyline fill="none" opacity="100" points="601.0,303.0 601.0,335.0" stroke="#7F7F7F" stroke-width="1" /><polyline fill="none" opacity="100" points="605.0,303.0 605.0,335.0" stroke="#7F7F7F" stroke-width="1" /><polyline fill="none" opacity="100" points="609.0,303.0 609.0,335.0" stroke="#7F7F7F" stroke-width="1" /><polyline fill="none" opacity="100" points="613.0,303.0 613.0,335.0" stroke="#7F7F7F" stroke-width="1" /><polyline fill="none" opacity="100" points="617.0,303.0 617.0,335.0" stroke="#7F7F7F" stroke-width="1" /><polyline fill="none" opacity="100" points="621.0,303.0 621.0,335.0" stroke="#7F7F7F" stroke-width="1" /><polyline fill="none" opacity="100" points="625.0,303.0 625.0,335.0" stroke="#7F7F7F" stroke-width="1" /><polygon fill="#9B5509" opacity="100" points="379.0,300.0 632.0,300.0 632.0,303.0 379.0,303.0" stroke="#000" stroke-width="1" /><polygon fill="#9B5509" opacity="100" points="379.0,308.0 632.0,308.0 632.0,312.0 379.0,312.0" stroke="#000" stroke-width="1" /><polygon fill="#9B5509" opacity="100" points="379.0,317.0 632.0,317.0 632.0,321.0 379.0,321.0" stroke="#000" stroke-width="1" /><polygon fill="#9B5509" opacity="100" points="379.0,326.0 632.0,326.0 632.0,330.0 379.0,330.0" stroke="#000" stroke-width="1" /><polygon fill="#9B5509" opacity="100" points="379.0,335.0 632.0,335.0 632.0,338.0 379.0,338.0" stroke="#000" stroke-width="1" /><polyline fill="none" opacity="100" points="339.0,357.0 339.0,365.0 365.0,365.0 365.0,357.0" stroke="#000" stroke-width="1" /><text fill="#000" font-family="Arial" font-size="10" font-weight="normal" opacity="100" transform="rotate(-0.0 340.0,354.0) translate(0 10)" x="340.0" y="354.0">кассы</text><polyline fill="none" opacity="100" points="673.0,325.0 692.0,325.0" stroke="#090" stroke-width="1" /><polygon fill="#090" opacity="100" points="686.4942,326.4753 692.0,325.0 686.4942,323.5247" stroke="#090" stroke-width="1" /><polyline fill="none" opacity="100" points="326.0,338.0 342.0,338.0" stroke="#090" stroke-width="1" /><polygon fill="#090" opacity="100" points="337.3636,339.2423 342.0,338.0 337.3636,336.7577" stroke="#090" stroke-width="1" /><polyline fill="none" opacity="100" points="692.0,312.0 673.0,312.0" stroke="#F00" stroke-width="1" /><polygon fill="#F00" opacity="100" points="678.5058,310.5247 673.0,312.0 678.5058,313.4753" stroke="#F00" stroke-width="1" /><polyline fill="none" opacity="100" points="342.0,299.0 326.0,299.0" stroke="#F00" stroke-width="1" /><polygon fill="#F00" opacity="100" points="330.6364,297.7577 326.0,299.0 330.6364,300.2423" stroke="#F00" stroke-width="1" /><text fill="#00AFAF" font-family="Arial" font-size="15" font-weight="normal" opacity="100" transform="rotate(-0.0 1073.0,302.0) translate(0 15)" x="1073.0" y="302.0">проспект\nКарла Маркса</text><text fill="#00AFAF" font-family="Arial" font-size="15" font-weight="normal" opacity="100" transform="rotate(-30.0 53.0,499.0) translate(0 15)" x="53.0" y="499.0">улица Курчатова</text><text fill="#00AFAF" font-family="Arial" font-size="15" font-weight="normal" opacity="100" transform="rotate(60.0 148.0,120.0) translate(0 15)" x="148.0" y="120.0">площадь Петровского</text><text fill="#00AFAF" font-family="Arial" font-size="15" font-weight="normal" opacity="100" transform="rotate(60.0 275.0,82.0) translate(0 15)" x="275.0" y="82.0">&lt;&lt; ж/д вокзал</text><text fill="#00AFAF" font-family="Arial" font-size="15" font-weight="normal" opacity="100" transform="rotate(-30.0 41.0,448.0) translate(0 15)" x="41.0" y="448.0">&lt;&lt; автовокзал</text></g></g></svg>