<?xml version="1.0" encoding="utf-8" ?>
<svg baseProfile="tiny" height="620px" version="1.2" width="600px" xmlns="http://www.w3.org/2000/svg" xmlns:ev="http://www.w3.org/2001/xml-events" xmlns:xlink="http://www.w3.org/1999/xlink"><defs /><g><text fill="#0404A4" font-family="Arial" font-size="30" font-weight="bold" opacity="100" x="375.5" y="32.0">Montreal</text><polygon fill="#B8ACA9" opacity="100" points="600.0,150.0 580.0,154.0 570.0,170.0 561.0,172.0 544.0,201.0 498.0,246.0 484.0,253.0 435.0,319.0 416.0,400.0 421.0,424.0 388.0,481.0 328.0,500.0 302.0,556.0 159.0,600.0 81.0,575.0 36.0,502.0 26.0,501.0 9.0,491.0 9.0,488.0 26.0,497.0 35.0,498.0 37.0,494.0 16.0,481.0 8.0,481.0 0.0,477.0 0.0,541.0 21.0,552.0 20.0,556.0 28.0,568.0 29.0,576.0 42.0,592.0 45.0,605.0 59.0,613.0 60.0,618.0 62.0,620.0 459.0,620.0 466.0,593.0 463.0,584.0 471.0,560.0 470.0,550.0 474.0,520.0 466.0,487.0 481.0,417.0 485.0,411.0 480.0,397.0 487.0,342.0 489.0,339.0 488.0,334.0 492.0,321.0 492.0,285.0 497.0,275.0 542.0,270.0 600.0,224.0" stroke="#000" stroke-width="1" /><polygon fill="#B8ACA9" opacity="100" points="0.0,73.0 7.0,72.0 15.0,77.0 55.0,68.0 56.0,70.0 74.0,66.0 81.0,54.0 95.0,52.0 99.0,54.0 126.0,47.0 143.0,56.0 168.0,49.0 171.0,41.0 180.0,40.0 203.0,1.0 211.0,0.0 235.0,0.0 215.0,32.0 189.0,38.0 180.0,55.0 167.0,58.0 162.0,68.0 154.0,69.0 143.0,63.0 130.0,67.0 116.0,60.0 76.0,69.0 73.0,75.0 62.0,79.0 56.0,76.0 24.0,83.0 21.0,89.0 0.0,92.0" stroke="#000" stroke-width="1" /><polyline fill="none" opacity="100" points="600.0,150.0 580.0,154.0 570.0,170.0 561.0,172.0 544.0,201.0 498.0,246.0 484.0,253.0 435.0,319.0 416.0,400.0 421.0,424.0 388.0,481.0 328.0,500.0 302.0,556.0 159.0,600.0 81.0,575.0 36.0,502.0 26.0,501.0 9.0,491.0 9.0,488.0 26.0,497.0 35.0,498.0 37.0,494.0 16.0,481.0 8.0,481.0 0.0,477.0" stroke="#5E5B5B" stroke-width="1" /><polyline fill="none" opacity="100" points="0.0,541.0 21.0,552.0 20.0,556.0 28.0,568.0 29.0,576.0 42.0,592.0 45.0,605.0 59.0,613.0 60.0,618.0 62.0,620.0" stroke="#5E5B5B" stroke-width="1" /><polyline fill="none" opacity="100" points="459.0,620.0 466.0,593.0 463.0,584.0 471.0,560.0 470.0,550.0 474.0,520.0 466.0,487.0 481.0,417.0 485.0,411.0 480.0,397.0 487.0,342.0 489.0,339.0 488.0,334.0 492.0,321.0 492.0,285.0 497.0,275.0 542.0,270.0 600.0,224.0" stroke="#5E5B5B" stroke-width="1" /><polyline fill="none" opacity="100" points="0.0,73.0 7.0,72.0 15.0,77.0 55.0,68.0 56.0,70.0 74.0,66.0 81.0,54.0 95.0,52.0 99.0,54.0 126.0,47.0 143.0,56.0 168.0,49.0 171.0,41.0 180.0,40.0 203.0,1.0 211.0,0.0" stroke="#000" stroke-width="1" /><polyline fill="none" opacity="100" points="235.0,0.0 215.0,32.0 189.0,38.0 180.0,55.0 167.0,58.0 162.0,68.0 154.0,69.0 143.0,63.0 130.0,67.0 116.0,60.0 76.0,69.0 73.0,75.0 62.0,79.0 56.0,76.0 24.0,83.0 21.0,89.0 0.0,92.0" stroke="#000" stroke-width="1" /><polyline fill="none" opacity="100" points="470.0,418.0 452.0,479.0 454.0,488.0 454.0,539.0 457.0,547.0 447.0,580.0 448.0,585.0 441.0,601.0 441.0,605.0 435.0,620.0" stroke="#000" stroke-width="7" /><polyline fill="none" opacity="100" points="381.0,484.0 375.0,495.0" stroke="#000" stroke-width="7" /><polyline fill="none" opacity="100" points="346.0,494.0 360.0,502.0" stroke="#000" stroke-width="7" /><polyline fill="none" opacity="100" points="395.0,520.0 470.0,560.0" stroke="#000" stroke-width="7" /><polyline fill="none" opacity="100" points="0.0,536.0 25.0,549.0" stroke="#000" stroke-width="7" /><polyline fill="none" opacity="100" points="66.0,549.0 47.0,566.0" stroke="#000" stroke-width="7" /><polyline fill="none" opacity="100" points="36.0,577.0 32.0,581.0" stroke="#000" stroke-width="7" /><polyline fill="none" opacity="100" points="228.0,15.0 223.0,0.0" stroke="#000" stroke-width="7" /><polyline fill="none" opacity="100" points="181.0,53.0 170.0,43.0" stroke="#000" stroke-width="7" /><polyline fill="none" opacity="100" points="71.0,76.0 68.0,67.0" stroke="#000" stroke-width="7" /><polyline fill="none" opacity="100" points="24.0,84.0 21.0,76.0" stroke="#000" stroke-width="7" /><polygon fill="#FFF" opacity="100" points="480.0,276.0 483.0,283.0 479.0,287.0 475.0,287.0 473.0,291.0 474.0,297.0 478.0,300.0 482.0,297.0 482.0,317.0 460.0,346.0 454.0,357.0 451.0,358.0 448.0,348.0 445.0,322.0 461.0,291.0 467.0,290.0 475.0,277.0" stroke="#000" stroke-width="1" /><polygon fill="#FFF" opacity="100" points="486.0,321.0 467.0,343.0 453.0,367.0 454.0,373.0 452.0,377.0 457.0,400.0 461.0,402.0 467.0,426.0 479.0,410.0 477.0,405.0 479.0,401.0 476.0,393.0 482.0,342.0 485.0,337.0 483.0,332.0" stroke="#000" stroke-width="1" /><polygon fill="#FFF" opacity="100" points="305.0,563.0 327.0,527.0 335.0,506.0 344.0,506.0 358.0,503.0 363.0,497.0 372.0,495.0 379.0,494.0 386.0,495.0 395.0,517.0 397.0,526.0 377.0,530.0 348.0,565.0 344.0,566.0 339.0,575.0 327.0,574.0 318.0,580.0 305.0,577.0" stroke="#000" stroke-width="1" /><polygon fill="#FFF" opacity="100" points="24.0,548.0 29.0,546.0 40.0,552.0 42.0,560.0 48.0,566.0 53.0,583.0 51.0,585.0 54.0,597.0 66.0,605.0 66.0,607.0 86.0,617.0 105.0,613.0 148.0,620.0 73.0,620.0 65.0,615.0 65.0,611.0 51.0,603.0 47.0,592.0 32.0,573.0 32.0,567.0 24.0,554.0" stroke="#FFF" stroke-width="1" /><polyline fill="none" opacity="100" points="24.0,554.0 24.0,548.0 29.0,546.0 40.0,552.0 42.0,560.0 48.0,566.0 53.0,583.0 51.0,585.0 54.0,597.0 66.0,605.0 66.0,607.0 86.0,617.0 105.0,613.0 148.0,620.0" stroke="#5E5B5B" stroke-width="1" /><polyline fill="none" opacity="100" points="73.0,620.0 65.0,615.0 65.0,611.0 51.0,603.0 47.0,592.0 32.0,573.0 32.0,567.0 24.0,554.0" stroke="#5E5B5B" stroke-width="1" /><polyline fill="none" opacity="100" points="470.0,418.0 452.0,479.0 454.0,488.0 454.0,539.0 457.0,547.0 447.0,580.0 448.0,585.0 441.0,601.0 441.0,605.0 435.0,620.0" stroke="#FFF" stroke-width="5" /><polyline fill="none" opacity="100" points="381.0,484.0 375.0,495.0" stroke="#FFF" stroke-width="5" /><polyline fill="none" opacity="100" points="346.0,494.0 360.0,502.0" stroke="#FFF" stroke-width="5" /><polyline fill="none" opacity="100" points="395.0,520.0 470.0,560.0" stroke="#FFF" stroke-width="5" /><polyline fill="none" opacity="100" points="0.0,536.0 25.0,549.0" stroke="#FFF" stroke-width="5" /><polyline fill="none" opacity="100" points="66.0,549.0 47.0,566.0" stroke="#FFF" stroke-width="5" /><polyline fill="none" opacity="100" points="36.0,577.0 32.0,581.0" stroke="#FFF" stroke-width="5" /><polyline fill="none" opacity="100" points="228.0,15.0 223.0,0.0" stroke="#FFF" stroke-width="5" /><polyline fill="none" opacity="100" points="181.0,53.0 170.0,43.0" stroke="#FFF" stroke-width="5" /><polyline fill="none" opacity="100" points="71.0,76.0 68.0,67.0" stroke="#FFF" stroke-width="5" /><polyline fill="none" opacity="100" points="24.0,84.0 21.0,76.0" stroke="#FFF" stroke-width="5" /><polyline fill="none" opacity="100" points="66.0,547.0 68.0,550.0" stroke="#000" stroke-width="5" /><polyline fill="none" opacity="100" points="-3.0,541.0 -3.0,532.0" stroke="#000" stroke-width="5" /><polyline fill="none" opacity="100" points="29.0,580.0 32.0,584.0" stroke="#000" stroke-width="5" /><polyline fill="none" opacity="100" points="433.0,622.0 437.0,622.0" stroke="#000" stroke-width="5" /><polyline fill="none" opacity="100" points="472.0,562.0 472.0,559.0" stroke="#000" stroke-width="5" /><polyline fill="none" opacity="100" points="344.0,493.0 348.0,492.0" stroke="#000" stroke-width="5" /><polyline fill="none" opacity="100" points="378.0,482.0 382.0,481.0" stroke="#000" stroke-width="5" /><polyline fill="none" opacity="100" points="231.0,12.0 228.0,17.0" stroke="#000" stroke-width="6" /><polyline fill="none" opacity="100" points="220.0,-3.0 226.0,-3.0" stroke="#000" stroke-width="5" /><polyline fill="none" opacity="100" points="168.0,44.0 170.0,40.0" stroke="#000" stroke-width="5" /><polyline fill="none" opacity="100" points="181.0,56.0 184.0,52.0" stroke="#000" stroke-width="5" /><polyline fill="none" opacity="100" points="70.0,78.0 73.0,76.0" stroke="#000" stroke-width="5" /><polyline fill="none" opacity="100" points="65.0,65.0 70.0,64.0" stroke="#000" stroke-width="5" /><polyline fill="none" opacity="100" points="19.0,74.0 22.0,73.0" stroke="#000" stroke-width="5" /><polyline fill="none" opacity="100" points="25.0,87.0 26.0,85.0" stroke="#000" stroke-width="5" /><polyline fill="none" opacity="100" points="368.0,401.0 11.0,401.0" stroke="#92576C" stroke-width="2" /><polygon fill="#92576C" opacity="100" points="114.4507,373.2805 11.0,401.0 114.4507,428.7195" stroke="#92576C" stroke-width="2" /><polyline fill="none" opacity="100" points="327.0,385.0 408.0,417.0 495.0,408.0 582.0,408.0" stroke="#92576C" stroke-width="2" /><polygon fill="#92576C" opacity="100" points="556.7893,414.7552 582.0,408.0 556.7893,401.2448" stroke="#92576C" stroke-width="2" /><polyline fill="none" opacity="100" points="251.0,193.0 108.0,4.0" stroke="#92576C" stroke-width="2" /><polygon fill="#92576C" opacity="100" points="164.1133,47.6647 108.0,4.0 134.7632,69.8713" stroke="#92576C" stroke-width="2" /><polyline fill="none" opacity="100" points="141.0,155.0 10.0,155.0" stroke="#92576C" stroke-width="2" /><polygon fill="#92576C" opacity="100" points="47.9609,144.8284 10.0,155.0 47.9609,165.1716" stroke="#92576C" stroke-width="2" /><polyline fill="none" opacity="100" points="18.0,605.0 28.0,620.0" stroke="#92576C" stroke-width="2" /><polygon fill="#92576C" opacity="100" points="23.9375,616.4298 28.0,620.0 26.2669,614.8769" stroke="#92576C" stroke-width="2" /><polyline fill="none" opacity="100" points="327.0,385.0 154.0,161.0" stroke="#92576C" stroke-width="2" /><polyline fill="none" opacity="100" points="154.0,161.0 153.5391,160.1562 153.0312,159.375 152.4766,158.6562 151.875,158.0 151.2266,157.4062 150.5312,156.875 149.7891,156.4062 149.0,156.0 148.1641,155.6562 147.2812,155.375 146.3516,155.1562 145.375,155.0 144.3516,154.9062 143.2812,154.875 142.1641,154.9062 141.0,155.0" stroke="#92576C" stroke-width="2" /><polyline fill="none" opacity="100" points="108.0,401.0 102.7266,400.7344 97.7812,400.1875 93.1621,399.3557 88.875,398.25 84.9316,396.8923 81.3125,395.2461 78.0117,393.3003 75.0,391.0 72.2227,388.2427 69.75,385.1602 67.6289,381.8403 65.875,378.3125 64.5117,374.6206 63.5625,370.8086 63.043,366.9058 63.0,363.0 63.5039,359.2231 64.5,355.4727 65.959,351.6936 67.875,347.875 70.2285,343.9802 73.0312,340.0312 76.2891,336.0391 80.0,332.0" stroke="#92576C" stroke-width="2" /><polyline fill="none" opacity="100" points="80.0,332.0 250.0,207.0" stroke="#92576C" stroke-width="2" /><polyline fill="none" opacity="100" points="250.0,207.0 250.8828,206.3594 251.6562,205.6875 252.3203,204.9844 252.875,204.25 253.3203,203.4844 253.6562,202.6875 253.8828,201.8594 254.0,201.0 254.0078,200.1094 253.9062,199.1875 253.6953,198.2344 253.375,197.25 252.9453,196.2344 252.4062,195.1875 251.7578,194.1094 251.0,193.0" stroke="#92576C" stroke-width="2" /><polyline fill="none" opacity="100" points="108.0,401.0 104.9375,401.0078 102.0,401.1562 99.1873,401.4451 96.5,401.875 93.9397,402.4475 91.5039,403.1602 89.1919,404.0122 87.0,405.0 84.9214,406.1167 82.9648,407.3711 81.1362,408.769 79.4375,410.3125 77.8716,412.0044 76.4414,413.8477 75.1489,415.8442 74.0,418.0 73.0034,420.3237 72.1523,422.8086 71.4431,425.4509 70.875,428.25 70.4456,431.2034 70.1562,434.3125 70.0078,437.5781 70.0,441.0" stroke="#92576C" stroke-width="2" /><polyline fill="none" opacity="100" points="70.0,441.0 70.0,524.0" stroke="#92576C" stroke-width="2" /><polyline fill="none" opacity="100" points="70.0,524.0 69.8984,525.7188 69.7188,527.375 69.4609,528.9688 69.125,530.5 68.7109,531.9688 68.2188,533.375 67.6484,534.7188 67.0,536.0 66.2734,537.2188 65.4688,538.375 64.5859,539.4688 63.625,540.5 62.5859,541.4688 61.4688,542.375 60.2734,543.2188 59.0,544.0" stroke="#92576C" stroke-width="2" /><polyline fill="none" opacity="100" points="59.0,544.0 21.0,583.0" stroke="#92576C" stroke-width="2" /><polyline fill="none" opacity="100" points="21.0,583.0 19.7578,584.6094 18.6562,586.1875 17.6953,587.7344 16.875,589.25 16.1953,590.7344 15.6562,592.1875 15.2578,593.6094 15.0,595.0 14.8828,596.3594 14.9062,597.6875 15.0703,598.9844 15.375,600.25 15.8203,601.4844 16.4062,602.6875 17.1328,603.8594 18.0,605.0" stroke="#92576C" stroke-width="2" /><text fill="#000" font-family="Arial" font-size="12" font-weight="normal" opacity="100" transform="rotate(-0.0 31.0,19.0) translate(0 12)" x="31.0" y="19.0">Direction Nlainville</text><text fill="#000" font-family="Arial" font-size="12" font-weight="normal" opacity="100" transform="rotate(-0.0 32.0,139.0) translate(0 12)" x="32.0" y="139.0">Direction Deux-Montagnes</text><text fill="#000" font-family="Arial" font-size="12" font-weight="normal" opacity="100" transform="rotate(-0.0 29.0,420.0) translate(0 12)" x="29.0" y="420.0">Direction Dorion-Rigaud</text><text fill="#000" font-family="Arial" font-size="12" font-weight="normal" opacity="100" transform="rotate(-0.0 29.0,467.0) translate(0 12)" x="29.0" y="467.0">Direction Delson</text><text fill="#000" font-family="Arial" font-size="12" font-weight="normal" opacity="100" transform="rotate(-0.0 463.0,414.0) translate(0 12)" x="463.0" y="414.0">Direction Mont-Saint-Hilaire</text><text fill="#FFF" font-family="Arial" font-size="15" font-weight="bold" opacity="100" transform="rotate(-0.0 128.0,4.0) translate(0 15)" x="128.0" y="4.0">Laval STL</text><text fill="#FFF" font-family="Arial" font-size="15" font-weight="bold" opacity="100" transform="rotate(-0.0 492.0,373.0) translate(0 15)" x="492.0" y="373.0">Longueuil STL</text><polygon fill="#FFF" opacity="0.8" points="289.0,501.0 597.0,501.0 597.0,590.0 289.0,590.0" stroke="#000" stroke-width="1" /><text fill="#02802C" font-family="Arial" font-size="12" font-weight="bold" opacity="0.8" x="349.2" y="518.8">1 GREEN ANGRIGNON - HONORЙ-BEAUGRAND</text><text fill="#E94B0F" font-family="Arial" font-size="12" font-weight="bold" opacity="0.8" x="349.2" y="539.8">2 ORANGE CФTE-VERTU - MONTMORENCY</text><text fill="#0258B1" font-family="Arial" font-size="12" font-weight="bold" opacity="0.8" x="349.2" y="560.8">3 BLUE SNOWDON - SAINT-MICHEL</text><text fill="#FD9E02" font-family="Arial" font-size="12" font-weight="bold" opacity="0.8" x="349.2" y="581.8">4 YELLOW BERRI-UQAM - LONGUEUIL</text></g></svg>