<?xml version="1.0" encoding="utf-8" ?>
<svg baseProfile="tiny" height="700px" version="1.2" width="1050px" xmlns="http://www.w3.org/2000/svg" xmlns:ev="http://www.w3.org/2001/xml-events" xmlns:xlink="http://www.w3.org/1999/xlink"><defs /><g><polygon fill="#CCECAC" opacity="100" points="0.0,26.0 71.0,30.0 83.0,134.0 102.0,170.0 0.0,162.0" stroke="#CCECAC" stroke-width="1" /><polygon fill="#CCECAC" opacity="100" points="1010.0,418.0 1050.0,422.0 1050.0,472.0 1019.0,442.0" stroke="#CCECAC" stroke-width="1" /><polyline fill="none" opacity="100" points="1024.0,448.0 1022.7031,447.0938 1020.5625,445.875 1017.5566,444.3359 1013.75,442.5 1009.2715,440.4141 1003.9062,438.0 997.5898,435.2344 990.0,432.0 980.5352,428.0781 969.9688,423.75 958.8198,419.2065 947.25,414.5 935.4966,409.7036 923.8516,404.9453 912.4971,400.2979 902.0,396.0 893.2295,392.4287 885.4609,389.2422 878.2866,386.2368 871.625,383.375 865.2407,380.564 859.1875,377.7656 853.4922,374.9629 848.0,372.0 842.4922,368.6309 837.1875,365.1094 832.2305,361.5952 827.625,358.125 823.3789,354.7681 819.625,351.5859 816.4141,348.6123 814.0,346.0 812.8203,343.9893 812.375,342.3516 812.3467,340.9551 812.625,339.75 813.0205,338.6309 813.4531,337.6328 813.8535,336.7588 814.0,336.0 813.584,335.374 812.7969,334.8047 811.7178,334.2268 810.375,333.625 808.8838,332.9978 807.0625,332.2383 804.8281,331.2915 802.0,330.0 798.25,328.103 793.9375,325.8555 789.2925,323.4111 784.375,320.8125 779.2896,318.1475 774.1328,315.4336 768.9619,312.687 764.0,310.0 759.5928,307.5044 755.4297,305.0977 751.3281,302.7222 747.25,300.375 743.1016,298.0356 738.8672,295.6992 734.5381,293.3687 730.0,291.0 725.0791,288.5181 719.9453,286.0195 714.7095,283.5745 709.375,281.1875 703.9507,278.8572 698.5312,276.6719 693.1523,274.6699 688.0,273.0 683.3945,271.916 678.9688,271.1406 674.479,270.4998 669.875,269.9375 665.0796,269.3538 659.9297,268.707 654.3428,267.9634 648.0,267.0 640.3838,265.6421 632.0078,264.0117 623.1729,262.1609 614.0,260.125 604.7334,258.0012 595.3047,255.6562 585.7178,253.0391 576.0,250.0 566.1182,246.2578 556.2578,242.1562 546.585,237.9233 537.125,233.625 527.8525,229.3618 519.0859,225.2578 510.9795,221.3877 504.0,218.0 498.9346,215.4795 494.9766,213.4922 491.6216,211.8496 488.75,210.5 486.1323,209.3145 483.5938,208.3359 481.0352,207.5771 478.0,207.0 473.7773,206.5713 469.0312,206.2891 464.1602,206.1433 459.25,206.125 454.4961,206.2336 449.9688,206.4336 445.707,206.7026 442.0,207.0 439.293,207.2622 437.1562,207.5352 435.3325,207.8457 433.75,208.1875 432.2573,208.5566 430.8359,208.9727 429.4639,209.438 428.0,210.0 426.2471,210.7456 424.3516,211.5586 422.3867,212.3579 420.375,213.125 418.3867,213.8374 416.3516,214.4258 414.2393,214.854 412.0,215.0 409.5342,214.6655 406.9609,214.043 404.3628,213.2476 401.75,212.3125 399.1333,211.3071 396.5938,210.2383 394.168,209.1157 392.0,208.0 390.332,206.9741 388.9062,205.9805 387.5649,204.9858 386.25,204.0 384.853,203.0298 383.3672,202.0508 381.7725,201.061 380.0,200.0 377.9697,198.7554 375.6953,197.4805 373.1587,196.2842 370.375,195.1875 367.4077,194.2119 364.0938,193.4648 360.3633,192.9995 356.0,193.0 350.6211,193.77 344.6562,195.0039 338.3767,196.5176 331.875,198.25 325.3127,200.0801 318.7539,202.0039 312.2544,204.0044 306.0,206.0 300.2495,207.8901 294.8398,209.7148 289.7009,211.4844 284.8125,213.1875 280.0862,214.832 275.6562,216.3711 271.5859,217.7729 268.0,219.0 265.125,219.9966 262.7188,220.7852 260.6328,221.3704 258.8125,221.75 257.1562,221.9363 255.6562,221.8906 254.293,221.5918 253.0,221.0 251.6992,220.0488 250.4062,218.7969 249.1147,217.2734 247.8125,215.5 246.5063,213.5234 245.1328,211.2969 243.6533,208.8066 242.0,206.0 240.0654,202.7715 237.9297,199.2656 235.6282,195.5754 233.1875,191.75 230.6746,187.8679 228.0039,183.9336 225.145,179.9683 222.0,176.0 218.3823,172.0435 214.5273,168.1602 210.592,164.4109 206.625,160.8125 202.699,157.3606 198.8984,154.1797 195.2764,151.335 192.0,149.0 189.3252,147.4619 187.0391,146.4453 185.021,145.7844 183.25,145.4375 181.6626,145.3152 180.2656,145.3945 179.0645,145.6587 178.0,146.0 176.9824,146.2593 176.1094,146.5742 175.4492,147.0288 175.0,147.625 174.7539,148.3774 174.7969,149.332 175.1621,150.5024 176.0,152.0 177.5723,154.0171 179.5781,156.3242 181.8228,158.7732 184.25,161.3125 186.7671,163.8577 189.2891,166.3594 191.7627,168.7793 194.0,171.0 195.7139,172.8535 197.1484,174.4531 198.4399,175.844 199.625,177.0625 200.7983,178.2087 201.9219,179.1367 202.9824,179.7905 204.0,180.0 204.9863,179.4478 205.9531,178.5195 206.9131,177.4719 207.875,176.375 208.8447,175.3347 209.8438,174.5 210.8867,173.957 212.0,174.0 213.2227,175.0898 214.5312,176.8125 215.9224,178.9348 217.375,181.375 218.8394,183.946 220.3984,186.7305 222.0811,189.7476 224.0,193.0 226.3643,196.5454 228.9141,200.2383 231.4766,203.9683 234.0,207.6875 236.4062,211.3442 238.6016,214.8398 240.5283,218.1089 242.0,221.0 242.7295,223.2856 242.9609,225.1289 242.8306,226.6094 242.375,227.75 241.689,228.6289 240.7344,229.1602 239.498,229.3052 238.0,229.0 236.252,228.1206 234.2656,226.8086 232.0522,225.1523 229.625,223.1875 226.9985,220.9766 224.1797,218.5273 221.1787,215.855 218.0,213.0 214.6416,210.0083 211.1328,206.8789 207.4976,203.6213 203.75,200.25 199.9048,196.7712 195.9844,193.2188 192.0059,189.6172 188.0,186.0 184.0098,182.4141 180.0156,178.8438 176.0137,175.2844 172.0,171.75 167.9551,168.2527 163.9219,164.793 159.9199,161.3804 156.0,158.0 152.252,154.6157 148.5781,151.3008 144.906,148.1104 141.25,145.0625 137.6428,142.1748 133.957,139.5039 130.147,137.0825 126.0,135.0 121.1382,133.3979 116.0117,132.1523 110.9197,131.1956 105.9375,130.5 101.1799,130.0017 96.8281,129.7422 92.9824,129.7334 90.0,130.0 88.4473,130.6025 87.7969,131.4453 87.7412,132.4551 88.1875,133.625 88.9307,134.959 90.0,136.3516 91.3906,137.7549 93.0,139.0 94.7109,139.7998 96.5625,140.4609 98.5549,141.1887 100.6875,142.0 102.9978,142.9187 105.3711,144.1289 107.7495,145.7075 110.0,148.0 111.895,151.5933 113.6602,155.8398 115.4375,160.3188 117.25,164.9375 119.1445,169.5405 121.1914,173.8945 123.4224,177.8774 126.0,181.0 129.1909,182.478 132.7148,183.0742 136.3982,183.2522 140.1875,183.125 143.9827,182.9294 147.75,182.7578 151.4609,182.6689 155.0,183.0 158.2031,184.2607 161.1875,185.9922 164.0103,187.9294 166.6875,190.0 169.2749,192.0334 171.7109,194.0586 173.9678,196.0776 176.0,198.0 177.7197,199.7153 179.2266,201.2852 180.5813,202.7271 181.8125,204.0625 182.9714,205.3589 184.0508,206.4961 185.0571,207.4253 186.0,208.0 186.8765,207.9536 187.7305,207.5977 188.6052,207.1387 189.5,206.625 190.3928,206.1309 191.3906,205.7852 192.541,205.6567 194.0,206.0 196.0371,207.2222 198.3594,208.9336 200.7852,210.9055 203.25,213.0625 205.6367,215.2449 207.9219,217.4766 210.0762,219.751 212.0,222.0 213.5645,224.1553 214.8281,226.2109 215.8042,228.1379 216.5,229.9375 216.9653,231.6492 217.0859,233.1289 216.8076,234.3091 216.0,235.0 214.4346,234.8745 212.3516,234.2773 209.894,233.4214 207.125,232.375 204.1646,231.2661 200.9844,230.1289 197.5918,228.9966 194.0,228.0 190.1895,227.3198 186.2656,226.8398 182.3188,226.5115 178.375,226.3125 174.4429,226.1663 170.6641,226.1875 167.1143,226.4258 164.0,227.0 161.6592,228.1289 159.7734,229.5625 158.1514,231.1406 156.75,232.8125 155.4736,234.4922 154.2891,236.125 153.1768,237.6719 152.0,239.0 150.5498,239.9141 149.0234,240.5625 147.5415,241.0215 146.125,241.3125 144.8218,241.502 143.6719,241.5312 142.6934,241.375 142.0,241.0 141.7754,240.3359 141.8281,239.4688 142.0449,238.4507 142.375,237.3125 142.7207,236.1079 143.1094,234.8203 143.5371,233.4541 144.0,232.0 144.5254,230.4209 145.0156,228.8047 145.3862,227.2229 145.625,225.6875 145.7427,224.197 145.5859,222.8633 145.0811,221.7407 144.0,221.0 141.958,220.9272 139.3516,221.2305 136.4209,221.7273 133.25,222.375 130.001,223.0911 126.6797,223.8125 123.3115,224.5039 120.0,225.0 116.8682,225.043 113.8828,224.875 111.0532,224.6416 108.375,224.375 105.7944,224.1475 103.4688,223.9844 101.4727,223.9004 100.0,224.0 99.3867,224.4434 99.2812,225.0781 99.4661,225.8167 99.875,226.625 100.3835,227.4314 100.9492,228.2617 101.5366,229.1187 102.0,230.0 102.1313,230.9243 102.082,231.832 101.9275,232.6719 101.6875,233.4375 101.4299,234.1367 101.0859,234.6758 100.624,235.0103 100.0,235.0 99.126,234.4077 98.1016,233.4805 96.991,232.3699 95.8125,231.125 94.5969,229.8391 93.3711,228.5312 92.1519,227.2227 91.0,226.0 90.0083,224.9805 89.0977,224.0938 88.2207,223.3079 87.375,222.625 86.5488,222.0261 85.7227,221.543 84.8911,221.1968 84.0,221.0 82.9565,220.9712 81.8711,221.1133 80.8184,221.4402 79.8125,221.9375 78.873,222.5657 78.0586,223.4141 77.3979,224.5166 77.0,226.0 77.0435,228.0928 77.3477,230.5234 77.804,233.1123 78.375,235.8125 78.9871,238.5518 79.6406,241.2266 80.3262,243.7783 81.0,246.0 81.6113,247.5654 82.1719,248.7734 82.6775,249.8008 83.125,250.6875 83.5276,251.5273 83.832,252.3359 84.0103,253.124 84.0,254.0 83.6968,255.126 83.1992,256.3516 82.5645,257.5884 81.8125,258.8125 80.9863,259.9702 80.0742,261.0625 79.0757,262.0859 78.0,263.0 76.8501,263.75 75.6445,264.375 74.4011,264.8926 73.125,265.3125 71.8157,265.6621 70.5078,265.9062 69.2197,266.0312 68.0,266.0 66.9287,265.7422 65.9297,265.3438 64.9536,264.8618 64.0,264.3125 63.0659,263.7202 62.1094,263.1172 61.1152,262.5225 60.0,262.0 58.6191,261.6494 57.1406,261.3828 55.6736,261.1509 54.25,260.9375 52.9221,260.7046 51.7383,260.4688 50.729,260.2344 50.0,260.0 49.7124,259.7734 49.7305,259.5312 49.9839,259.2544 50.4375,258.9375 51.0083,258.5776 51.7695,258.1484 52.7446,257.6357 54.0,257.0 55.6733,256.1768 57.5742,255.2266 59.5728,254.1833 61.625,253.0625 63.6694,251.8967 65.6289,250.668 67.4536,249.3726 69.0,248.0 70.0503,246.522 70.7773,244.9883 71.272,243.4326 71.5625,241.875 71.728,240.3447 71.707,238.8477 71.4751,237.395 71.0,236.0 70.2085,234.6714 69.1992,233.4336 68.0376,232.3132 66.75,231.3125 65.3765,230.4192 63.9414,229.7031 62.4653,229.1973 61.0,229.0 59.6167,229.2793 58.2773,229.8594 56.9675,230.6323 55.6875,231.5625 54.4211,232.5825 53.2031,233.6797 52.0527,234.8389 51.0,236.0 50.0957,237.083 49.2969,238.1328 48.5815,239.1685 47.9375,240.1875 47.3364,241.2026 46.8047,242.1875 46.3506,243.125 46.0,244.0 45.8057,244.7891 45.6953,245.5 45.6191,246.1304 45.5625,246.6875 45.5059,247.1938 45.4141,247.6016 45.2666,247.8916 45.0,248.0 44.5146,247.8115 43.8984,247.4609 43.2021,247.0425 42.4375,246.5625 41.6338,246.0239 40.7891,245.5312 39.9033,245.1289 39.0,245.0 38.1123,245.457 37.2109,246.1562 36.2773,246.8743 35.3125,247.5625 34.3164,248.1394 33.2734,248.4805 32.1787,248.521 31.0,248.0 29.6807,246.4985 28.2891,244.4258 26.8691,242.0251 25.4375,239.375 24.0215,236.637 22.6328,233.8047 21.2822,230.8936 20.0,228.0 18.8271,225.2393 17.7422,222.5703 16.7358,219.989 15.8125,217.5 14.9712,215.0754 14.2188,212.8086 13.5625,210.7495 13.0,209.0 12.5234,207.731 12.1562,206.7852 11.9204,206.0718 11.8125,205.5625 11.8179,205.1938 11.9922,204.9805 12.3584,204.9233 13.0,205.0 14.0635,205.1899 15.3828,205.4883 16.8538,205.8889 18.4375,206.375 20.0662,206.9255 21.7227,207.5469 23.3872,208.2324 25.0,209.0 26.4839,209.8926 27.8711,210.8281 29.1682,211.7437 30.375,212.625 31.5134,213.4634 32.5234,214.1797 33.374,214.7334 34.0,215.0 34.29,214.7744 34.3516,214.2578 34.2476,213.5713 34.0,212.75 33.6548,211.8662 33.2031,210.9297 32.6465,209.9521 32.0,209.0 31.2754,208.165 30.4844,207.3828 29.6372,206.6204 28.75,205.875 27.8433,205.1277 26.9141,204.3945 25.9697,203.686 25.0,203.0 23.9756,202.3335 22.9609,201.6992 22.011,201.1106 21.125,200.5625 20.2839,200.0398 19.5977,199.5859 19.1138,199.2178 19.0,199.0 19.5464,199.0479 20.4336,199.2266 21.459,199.4453 22.5625,199.6875 23.6387,199.9297 24.6211,200.1016 25.4644,200.1689 26.0,200.0 25.9771,199.3779 25.5977,198.5234 24.9724,197.572 24.125,196.5625 23.1272,195.5706 21.9453,194.6211 20.5635,193.7339 19.0,193.0 17.2725,192.5513 15.3672,192.2852 13.2769,192.1467 11.0,192.125 8.5317,192.1833 5.875,192.3438 3.0312,192.6172 0.0,193.0" stroke="#9CB4FC" stroke-width="5" /><polyline fill="none" opacity="100" points="0.0,121.0 4.1328,120.6719 8.1562,120.4375 12.0706,120.2993 15.875,120.25 19.5681,120.2749 23.1523,120.3984 26.6284,120.6279 30.0,121.0 33.2739,121.583 36.4414,122.2891 39.4956,123.0581 42.4375,123.875 45.27,124.7192 47.9805,125.5469 50.564,126.334 53.0,127.0 55.2524,127.416 57.3633,127.7031 59.3604,127.9324 61.25,128.125 63.042,128.3274 64.7539,128.5352 66.395,128.7505 68.0,129.0 69.6245,129.3159 71.2148,129.6836 72.7395,130.1021 74.1875,130.5625 75.5359,131.0386 76.7891,131.582 77.9463,132.2134 79.0,133.0 79.9443,134.064 80.7734,135.2617 81.4751,136.4958 82.0625,137.75 82.5679,139.0022 82.9219,140.1719 83.0996,141.2207 83.0,142.0 82.4395,142.2637 81.6406,142.2656 80.7502,142.1626 79.8125,142.0 78.8962,141.8647 78.0742,141.7891 77.3921,141.7979 77.0,142.0 77.1274,142.5537 77.582,143.3359 78.2681,144.2891 79.125,145.375 80.0132,146.5 81.0742,147.7734 82.353,149.2334 84.0,151.0 86.3149,153.3057 88.8945,155.8516 91.4512,158.4333 93.9375,161.0 96.3105,163.4827 98.2695,165.7305 99.6704,167.6616 100.0,169.0 98.4038,169.3032 95.7617,168.9883 92.6226,168.3005 89.125,167.3125 85.5337,166.1819 82.0195,164.8984 78.686,163.4717 76.0,162.0 74.6772,160.6064 74.0742,159.2266 73.8171,157.8369 73.8125,156.4375 73.8372,154.999 73.9062,153.5859 74.0156,152.2334 74.0,151.0 73.6328,149.9854 73.0938,149.1016 72.4792,148.2974 71.8125,147.5625 71.1633,146.8706 70.4883,146.2188 69.7681,145.6055 69.0,145.0 68.1655,144.3555 67.293,143.7188 66.4036,143.1213 65.5,142.5625 64.5828,142.0408 63.6797,141.5898 62.8037,141.2222 62.0,141.0 61.3447,141.0317 60.7578,141.1914 60.188,141.3936 59.625,141.625 59.0503,141.8682 58.4375,142.0508 57.7734,142.1392 57.0,142.0 56.0234,141.4116 54.9375,140.6055 53.7976,139.7268 52.625,138.8125 51.4622,137.9314 50.3008,137.1328 49.1431,136.4463 48.0,136.0 46.8765,135.9912 45.793,136.2422 44.7734,136.6543 43.8125,137.1875 42.8867,137.752 42.0742,138.3984 41.4077,139.1396 41.0,140.0 41.0493,141.0479 41.332,142.1641 41.7021,143.2581 42.125,144.3125 42.5439,145.3181 42.8789,146.1602 43.0864,146.7817 43.0,147.0 42.355,146.5112 41.4023,145.6211 40.2896,144.5129 39.0625,143.25 37.8198,141.9578 36.5508,140.6328 35.2603,139.29 34.0,138.0 32.8296,136.8428 31.7305,135.8047 30.7021,134.9004 29.75,134.125 28.8643,133.4355 28.0898,132.9609 27.4526,132.7607 27.0,133.0 26.8091,133.9658 26.8164,135.3516 26.9907,136.9651 27.3125,138.75 27.7358,140.6033 28.3086,142.4727 29.0464,144.3208 30.0,146.0 31.27,147.2925 32.7227,148.3711 34.27,149.3291 35.875,150.1875 37.48,151.0107 39.0586,151.7617 40.5854,152.4233 42.0,153.0 43.2231,153.4868 44.2852,153.8945 45.1907,154.2314 45.9375,154.5 46.5457,154.7021 46.9531,154.8477 47.127,154.9419 47.0,155.0 46.459,155.0464 45.6094,155.0586 44.5088,155.0217 43.1875,154.9375 41.71,154.8083 40.0312,154.6172 38.1406,154.3584 36.0,154.0 33.5234,153.4854 30.8438,152.8828 28.054,152.2371 25.1875,151.5625 22.2878,150.8821 19.418,150.2148 16.6187,149.5737 14.0,149.0 11.729,148.5552 9.6758,148.1914 7.7708,147.8831 6.0,147.625 4.3171,147.4001 2.75,147.2188 1.3125,147.0859 0.0,147.0" stroke="#9CB4FC" stroke-width="5" /><polyline fill="none" opacity="100" points="1024.0,327.0 1013.75,323.5703 1004.0,320.1562 994.7529,316.7529 986.0,313.375 977.7236,310.0518 969.9531,306.7344 962.6973,303.4082 956.0,300.0 949.9434,296.373 944.4219,292.7031 939.3765,289.1179 934.75,285.625 930.4399,282.22 926.5234,279.0664 923.0107,276.2349 920.0,274.0 917.7002,272.8315 915.7891,272.2148 914.043,271.8186 912.375,271.5625 910.668,271.3083 908.7891,270.8984 906.6455,270.2451 904.0,269.0 900.5029,266.6143 896.3984,263.6016 891.79,260.2642 886.75,256.6875 881.4756,253.0601 875.6953,249.375 869.3057,245.6445 862.0,242.0 853.2021,238.6133 843.6172,235.375 833.7056,232.2373 823.625,229.1875 813.6265,226.1689 803.8906,223.2656 794.5488,220.5176 786.0,218.0 778.8262,215.8496 772.6094,213.9219 767.1519,212.1245 762.375,210.4375 758.0396,208.8247 754.4297,207.2422 751.6631,205.667 750.0,204.0 749.9385,202.083 750.8828,200.0703 752.4512,198.0513 754.5,196.0625 756.791,194.1792 759.2266,192.375 761.7158,190.6484 764.0,189.0 765.7295,187.4062 767.0859,185.9375 768.1333,184.6589 768.875,183.5625 769.4019,182.6086 769.5156,181.957 769.1113,181.6743 768.0,182.0 765.8574,183.353 762.9844,185.2617 759.5547,187.4216 755.625,189.75 751.3203,192.1077 746.6094,194.3594 741.4902,196.4238 736.0,198.0 730.166,198.623 724.0156,198.7031 717.5625,198.4707 710.875,198.0 704.0625,197.4668 697.0156,196.7969 689.7207,195.9707 682.0,195.0 673.498,193.8574 664.7344,192.6406 656.0894,191.4377 647.625,190.25 639.3833,189.0447 631.8047,188.0117 625.1006,187.2358 620.0,187.0 617.7197,187.7915 617.0078,189.082 617.0898,190.5327 617.75,192.0625 618.5742,193.5298 619.3828,194.7773 620.0479,195.7183 620.0,196.0 618.3975,195.0669 615.9297,193.4414 612.9683,191.4343 609.625,189.125 606.1997,186.6887 602.5,184.1484 598.4531,181.5264 594.0,179.0 588.9688,176.8252 583.625,174.7891 578.1631,172.7925 572.625,170.75 567.0479,168.4692 561.6406,166.1719 556.5098,163.9277 552.0,162.0 548.6777,160.9004 545.9844,159.9531 543.5762,158.6616 541.375,157.0 539.2207,154.9985 537.0156,151.9922 534.7051,147.6943 532.0,141.0 528.4512,130.0166 524.4844,116.8203 520.3577,102.7476 516.125,88.125 511.906,73.5142 507.7617,59.5469 503.7241,46.5762 500.0,36.0 496.9126,30.0176 494.1445,26.5781 491.5039,24.4702 488.9375,23.375 486.3359,22.5806 483.6758,22.0547 480.936,21.7334 478.0,21.0 474.7007,18.9932 471.168,16.3828 467.4714,13.5278 463.625,10.5 459.675,7.5386 455.5938,4.5 451.3672,1.3125 447.0,-2.0" stroke="#9CB4FC" stroke-width="5" /><polyline fill="none" opacity="100" points="0.0,63.0 0.9766,62.8672 2.0312,62.8438 3.1653,62.9314 4.375,63.125 5.6531,63.4143 7.0117,63.8164 8.4546,64.3364 10.0,65.0 11.6821,65.855 13.457,66.8398 15.2957,67.9155 17.1875,69.0625 19.1165,70.2485 21.0703,71.4727 23.04,72.7271 25.0,74.0 26.9131,75.2847 28.8047,76.5586 30.688,77.7983 32.5625,79.0 34.4331,80.1704 36.2969,81.2539 38.1504,82.2231 40.0,83.0 41.8574,83.4526 43.7031,83.7148 45.5247,83.8704 47.3125,83.9375 49.0515,83.9519 50.7461,83.9453 52.394,83.9346 54.0,84.0 55.5786,84.2686 57.0977,84.6172 58.5334,84.9724 59.875,85.3125 61.1091,85.592 62.2188,85.8086 63.1914,85.9565 64.0,86.0 64.6055,85.8911 65.0312,85.6602 65.2834,85.3176 65.375,84.875 65.3396,84.364 65.1211,83.7344 64.6987,82.9668 64.0,82.0 62.8911,80.7207 61.5352,79.2656 60.0386,77.7253 58.4375,76.125 56.7896,74.5032 55.1367,72.9102 53.5093,71.3755 52.0,70.0 50.7446,68.9409 49.6445,68.0586 48.6538,67.2725 47.75,66.5625 46.8696,65.8799 46.0898,65.2305 45.4409,64.6147 45.0,64.0 44.9146,63.3423 45.0039,62.6758 45.1482,62.0203 45.3125,61.375 45.4436,60.7434 45.4766,60.1328 45.3721,59.5439 45.0,59.0 44.1592,58.542 43.0234,58.1172 41.6855,57.6887 40.1875,57.25 38.627,56.7937 36.9297,56.2852 35.0732,55.7075 33.0,55.0 30.583,54.062 28.0078,52.9961 25.4065,51.8638 22.8125,50.6875 20.2634,49.5112 17.8789,48.332 15.7231,47.1548 14.0,46.0 13.0386,44.8882 12.5273,43.8242 12.2805,42.8176 12.25,41.875 12.3308,40.9968 12.5078,40.2109 12.7666,39.5342 13.0,39.0 13.0537,38.6611 13.0547,38.4766 13.0737,38.4292 13.125,38.5 13.2505,38.645 13.4375,38.9219 13.6797,39.3496 14.0,40.0 14.4297,41.0098 14.9375,42.2031 15.5049,43.46 16.125,44.75 16.7842,46.0322 17.4844,47.2188 18.2246,48.2617 19.0,49.0 19.8066,49.1758 20.6406,49.0312 21.4995,48.71 22.375,48.25 23.2544,47.7354 24.1484,47.1719 25.0576,46.5684 26.0,46.0 27.0127,45.5723 28.0391,45.2031 29.0403,44.8499 30.0,44.5 30.8953,44.1169 31.707,43.7305 32.4204,43.353 33.0,43.0 33.396,42.7056 33.6367,42.4258 33.7332,42.1289 33.6875,41.8125 33.5149,41.4766 33.1875,41.082 32.6914,40.6118 32.0,40.0 31.0664,39.1343 29.9375,38.1367 28.6418,37.0842 27.1875,36.0 25.5906,34.9255 23.8555,33.8828 21.9858,32.8877 20.0,32.0 17.9243,31.3076 15.7383,30.7422 13.4309,30.2671 11.0,29.875 8.4382,29.5415 5.75,29.2812 2.9375,29.1016 0.0,29.0" stroke="#9CB4FC" stroke-width="5" /><polyline fill="none" opacity="100" points="539.0,154.0 537.1016,155.2812 534.7812,156.125 532.0291,156.5281 528.875,156.5 525.3792,156.0598 521.4414,155.1758 517.0317,153.8384 512.0,152.0 506.0659,149.5718 499.5898,146.668 492.8149,143.3555 485.8125,139.6875 478.6851,135.7578 471.582,131.5117 464.5923,126.9468 458.0,122.0 452.2476,116.5259 446.9492,110.7695 441.8777,104.9116 437.0,99.0 432.2219,93.0806 427.5,87.3398 422.8203,81.8784 418.0,77.0 412.7422,73.1958 407.375,70.0039 402.1099,67.1465 397.0,64.5625 392.1362,62.1152 387.6172,59.7539 383.499,57.4497 380.0,55.0 377.4619,52.0933 375.5703,49.0273 374.1484,45.9858 373.125,43.0 372.3438,40.1392 371.8828,37.4727 371.7588,35.0317 372.0,33.0 372.7021,31.6753 373.6797,30.7461 374.7935,30.0156 376.0,29.4375 377.2573,28.9258 378.4219,28.4023 379.4121,27.8237 380.0,27.0 379.8223,25.6333 379.2031,24.0039 378.335,22.2766 377.25,20.5 376.0322,18.78 374.7188,17.1094 373.3242,15.4941 372.0,14.0 370.9883,12.709 370.0312,11.5781 368.958,10.5994 367.75,9.75 366.3779,8.9651 364.7031,8.3633 362.666,7.9907 360.0,8.0 356.2559,8.6694 351.9219,9.668 347.3091,10.771 342.5,11.9375 337.6401,13.1118 332.8516,14.1133 328.208,14.854 324.0,15.0 320.6748,14.0015 317.8359,12.418 315.2476,10.5962 312.875,8.625 310.6235,6.6772 308.4375,4.8477 306.2969,3.1958 304.0,2.0 301.2188,1.6831 298.3125,1.8711 295.5166,2.3484 292.875,3.0625 290.46,3.884 288.4219,4.8281 286.834,5.8965 286.0,7.0 286.416,8.0176 287.5781,9.0469 289.1899,10.1494 291.125,11.3125 293.1343,12.5225 295.2891,13.8438 297.583,15.293 300.0,17.0 302.5967,19.1992 305.1484,21.5938 307.4556,23.9827 309.5,26.3125 311.3296,28.5076 312.5469,30.4336 312.9668,32.0151 312.0,33.0 308.6426,32.9888 303.9531,32.3477 298.5908,31.2913 292.75,29.875 286.792,28.2263 280.875,26.3438 275.1172,24.2344 270.0,22.0 266.2266,19.7812 263.25,17.4688 260.7773,15.0039 258.75,12.375 256.9727,9.543 255.5625,6.5312 254.5781,3.3516 254.0,0.0" stroke="#9CB4FC" stroke-width="5" /><polyline fill="none" opacity="100" points="45.0,248.0 42.5391,249.9062 40.0312,251.625 37.4766,253.1562 34.875,254.5 32.2266,255.6562 29.5312,256.625 26.7891,257.4062 24.0,258.0 21.1641,258.4062 18.2812,258.625 15.3516,258.6562 12.375,258.5 9.3516,258.1562 6.2812,257.625 3.1641,256.9062 0.0,256.0" stroke="#9CB4FC" stroke-width="6" /><polygon fill="#9CB4FC" opacity="100" points="1050.0,343.0 1024.0,327.0 955.0,299.0 919.0,272.0 906.0,270.0 866.0,243.0 751.0,205.0 755.0,192.0 733.0,199.0 674.0,195.0 618.0,189.0 616.0,193.0 592.0,178.0 541.0,158.0 526.0,156.0 491.0,143.0 453.0,119.0 419.0,77.0 377.0,53.0 370.0,34.0 381.0,26.0 365.0,7.0 325.0,16.0 302.0,1.0 287.0,7.0 301.0,17.0 313.0,32.0 302.0,31.0 269.0,22.0 254.0,0.0 0.0,0.0 0.0,29.0 20.0,31.0 33.0,43.0 25.0,46.0 20.0,51.0 45.0,58.0 49.0,67.0 64.0,84.0 59.0,85.0 42.0,85.0 13.0,66.0 0.0,62.0 0.0,121.0 26.0,120.0 77.0,131.0 81.0,136.0 89.0,134.0 93.0,128.0 110.0,130.0 122.0,131.0 179.0,178.0 234.0,228.0 241.0,229.0 244.0,223.0 211.0,175.0 204.0,180.0 175.0,152.0 177.0,145.0 194.0,151.0 219.0,173.0 246.0,215.0 256.0,224.0 277.0,217.0 322.0,201.0 345.0,195.0 367.0,194.0 396.0,211.0 411.0,216.0 435.0,209.0 469.0,207.0 491.0,212.0 558.0,244.0 621.0,263.0 675.0,269.0 722.0,285.0 813.0,335.0 815.0,349.0 861.0,379.0 959.0,418.0 1024.0,448.0 1050.0,485.0 1050.0,464.0 1024.0,439.0 1019.0,439.0 1013.0,424.0 1023.0,420.0 1038.0,428.0 1050.0,439.0" stroke="#9CB4FC" stroke-width="1" /><polygon fill="#9CB4FC" opacity="100" points="100.0,140.0 110.0,148.0 126.0,181.0 159.0,183.0 186.0,208.0 194.0,206.0 212.0,222.0 216.0,235.0 194.0,228.0 164.0,227.0 150.0,242.0 142.0,241.0 146.0,222.0 141.0,221.0 120.0,225.0" stroke="#9CB4FC" stroke-width="1" /><polygon fill="#9CB4FC" opacity="100" points="81.0,137.0 86.0,133.0 102.0,142.0 128.0,226.0 101.0,225.0 101.0,236.0 84.0,221.0 77.0,224.0 84.0,255.0 72.0,266.0 52.0,260.0 70.0,248.0 72.0,237.0 61.0,229.0 50.0,236.0 45.0,246.0 40.0,245.0 31.0,248.0 12.0,205.0 34.0,214.0 27.0,206.0 23.0,200.0 25.0,195.0 10.0,192.0 0.0,193.0 0.0,147.0 39.0,154.0 35.0,149.0 28.0,143.0 28.0,135.0 41.0,144.0 41.0,139.0 48.0,136.0 57.0,142.0 62.0,141.0 75.0,150.0 76.0,162.0 84.0,166.0 100.0,169.0 86.0,154.0 79.0,142.0" stroke="#9CB4FC" stroke-width="1" /><polygon fill="#9CB4FC" opacity="100" points="1050.0,601.0 1035.0,601.0 1001.0,700.0 1050.0,700.0" stroke="#9CB4FC" stroke-width="1" /><polyline fill="none" opacity="100" points="834.0,272.0 832.3984,270.6562 830.7188,269.375 828.959,268.1582 827.125,267.0 825.2285,265.8887 823.25,264.8438 821.1836,263.8711 819.0,263.0 816.6445,262.2852 814.1875,261.6562 811.6731,261.0649 809.125,260.5 806.5828,259.9468 804.043,259.3672 801.5132,258.7412 799.0,258.0 796.4985,257.0322 794.0508,255.9453 791.6936,254.8035 789.4375,253.625 787.2849,252.4485 785.2969,251.2773 783.5059,250.1167 782.0,249.0 780.9238,247.9731 780.1406,247.0039 779.5706,246.0752 779.1875,245.1875 778.9353,244.335 778.8242,243.5195 778.853,242.7446 779.0,242.0 779.2446,241.2671 779.582,240.5742 780.0017,239.9434 780.5,239.375 781.0823,238.8652 781.7109,238.4492 782.3662,238.1421 783.0,238.0 783.5322,238.1196 784.0391,238.3945 784.5676,238.7573 785.125,239.1875 785.7273,239.6489 786.3945,240.1211 787.1353,240.5894 788.0,241.0 789.0718,241.2739 790.2617,241.4727 791.5125,241.6284 792.8125,241.75 794.1418,241.8638 795.4688,241.9492 796.7773,241.9976 798.0,242.0 799.0273,241.936 799.9688,241.832 800.8916,241.7051 801.8125,241.5625 802.7646,241.416 803.7656,241.2695 804.8262,241.1274 806.0,241.0 807.3691,240.8999 808.8594,240.8242 810.4277,240.7732 812.0625,240.75 813.7363,240.7561 815.4531,240.7969 817.2129,240.877 819.0,241.0 820.7949,241.1699 822.6094,241.3906 824.4519,241.6675 826.3125,242.0 828.175,242.3833 830.0664,242.8359 831.9927,243.3662 834.0,244.0 836.1753,244.7822 838.4023,245.6641 840.6011,246.6157 842.75,247.625 844.8208,248.6694 846.7539,249.75 848.5161,250.8633 850.0,252.0 851.0347,253.1523 851.7773,254.3125 852.3206,255.4709 852.6875,256.625 852.9314,257.7771 853.0547,258.9023 853.0615,259.9878 853.0,261.0 852.9385,261.8833 852.8203,262.6914 852.6113,263.4583 852.3125,264.1875 851.9199,264.8875 851.4141,265.5781 850.79,266.2676 850.0,267.0 848.96,267.8496 847.7734,268.7344 846.5085,269.6023 845.1875,270.4375 843.845,271.2122 842.5117,271.9102 841.2085,272.52 840.0,273.0 838.9829,273.2886 838.082,273.4336 837.2571,273.4607 836.5,273.375 835.7839,273.1936 835.125,272.9062 834.5312,272.5078 834.0,272.0" stroke="#CCECAC" stroke-width="5" /><polygon fill="#CCECAC" opacity="100" points="854.0,256.0 846.0,270.0 837.0,272.0 786.0,252.0 778.0,241.0 802.0,242.0 828.0,243.0" stroke="#CCECAC" stroke-width="1" /><polyline fill="none" opacity="100" points="381.0,99.0 381.2109,99.7891 381.4688,100.5312 381.7737,101.2261 382.125,101.875 382.5212,102.481 382.9648,103.0391 383.4565,103.5479 384.0,104.0 384.6021,104.3818 385.2539,104.7109 385.9512,104.999 386.6875,105.25 387.4512,105.4697 388.2539,105.6641 389.0981,105.8369 390.0,106.0 390.9917,106.1709 392.0273,106.3359 393.0762,106.4883 394.125,106.625 395.1543,106.7383 396.1523,106.8359 397.1089,106.9209 398.0,107.0 398.7935,107.0869 399.5039,107.1641 400.135,107.2195 400.6875,107.25 401.1716,107.2512 401.5625,107.2148 401.8477,107.1362 402.0,107.0 401.9727,106.7817 401.8125,106.5039 401.5481,106.178 401.1875,105.8125 400.7468,105.4255 400.2305,105.0 399.6421,104.5312 399.0,104.0 398.3306,103.3672 397.6133,102.6875 396.8372,101.9983 396.0,101.3125 395.0945,100.6482 394.125,100.0273 393.0938,99.4644 392.0,99.0 390.8438,98.6958 389.625,98.5039 388.3438,98.3987 387.0,98.375 385.5938,98.4158 384.125,98.5312 382.5938,98.7266 381.0,99.0" stroke="#CCECAC" stroke-width="5" /><polygon fill="#CCECAC" opacity="100" points="383.0,100.0 393.0,101.0 400.0,106.0 388.0,105.0" stroke="#CCECAC" stroke-width="1" /><polyline fill="none" opacity="100" points="383.0,109.0 384.75,109.3359 386.5,109.7188 388.2542,110.1497 390.0,110.625 391.7126,111.1375 393.4336,111.6992 395.1753,112.314 397.0,113.0 399.0239,113.7915 401.0977,114.6445 403.1201,115.5317 405.0625,116.4375 406.8838,117.3354 408.5195,118.2305 409.9321,119.1187 411.0,120.0 411.5327,120.8853 411.6992,121.7383 411.5935,122.5295 411.25,123.25 410.7483,123.8943 410.0469,124.4219 409.1348,124.8105 408.0,125.0 406.5996,124.8926 405.0156,124.5781 403.3081,124.1094 401.5,123.5 399.6177,122.7812 397.7109,121.9531 395.8115,121.0176 394.0,120.0 392.3994,118.9355 390.9141,117.7969 389.4927,116.5693 388.125,115.25 386.7769,113.8291 385.4688,112.3125 384.2109,110.7031 383.0,109.0" stroke="#CCECAC" stroke-width="5" /><polygon fill="#CCECAC" opacity="100" points="386.0,111.0 411.0,119.0 409.0,124.0 396.0,121.0" stroke="#CCECAC" stroke-width="1" /><polyline fill="none" opacity="100" points="337.0,125.0 333.5469,125.2109 330.1875,125.2188 326.9219,125.019 323.75,124.625 320.6719,124.063 317.6875,123.2891 314.7969,122.29 312.0,121.0 309.2969,119.2959 306.6875,117.3359 304.1689,115.2249 301.75,113.0 299.4482,110.7185 297.2344,108.4258 295.0996,106.1548 293.0,104.0 290.8535,102.0991 288.7656,100.3555 286.812,98.7229 285.0,97.1875 283.3325,95.7009 281.8984,94.3203 280.7373,93.0713 280.0,92.0 279.9424,91.1943 280.2891,90.5547 280.8628,90.0176 281.625,89.5625 282.5083,89.1543 283.4219,88.7734 284.3184,88.4053 285.0,88.0 285.1504,87.4854 285.0781,86.9141 284.9746,86.3105 284.875,85.6875 284.8535,85.0801 284.9844,84.4453 285.3027,83.7666 286.0,83.0 287.3848,82.0615 289.1406,81.0547 291.0713,80.0496 293.125,79.0625 295.2021,78.1165 297.25,77.2617 299.2344,76.5249 301.0,76.0 302.3125,75.8384 303.375,75.8945 304.3025,76.082 305.125,76.375 305.9182,76.7188 306.6602,77.1133 307.3442,77.5532 308.0,78.0 308.6597,78.4038 309.3086,78.793 309.9421,79.1768 310.5625,79.5625 311.1653,79.9756 311.7656,80.3711 312.373,80.73 313.0,81.0 313.666,81.0864 314.3594,81.0977 315.0735,81.1069 315.8125,81.125 316.5808,81.1665 317.3711,81.293 318.1831,81.5327 319.0,82.0 319.7896,82.8853 320.5977,83.9883 321.459,85.1816 322.375,86.4375 323.3418,87.7051 324.4102,88.9258 325.6021,90.0688 327.0,91.0 328.7456,91.5054 330.6836,91.793 332.7134,91.9873 334.8125,92.125 336.9429,92.2822 339.0508,92.4648 341.1079,92.6831 343.0,93.0 344.5444,93.5005 345.918,94.1289 347.2329,94.864 348.5,95.6875 349.7437,96.5481 351.0352,97.5234 352.4028,98.6436 354.0,100.0 356.0854,101.7627 358.3711,103.7266 360.6682,105.7537 362.9375,107.8125 365.115,109.8577 367.0859,111.793 368.792,113.5679 370.0,115.0 370.333,115.7954 370.1641,116.2383 369.7224,116.501 369.0625,116.625 368.2952,116.6982 367.4805,116.7539 366.6538,116.813 366.0,117.0 365.8032,117.5034 365.8008,118.1523 365.833,118.8447 365.875,119.5625 365.8662,120.2607 365.7539,120.918 365.5161,121.5249 365.0,122.0 363.9565,122.2134 362.6523,122.3008 361.2595,122.3494 359.8125,122.375 358.3713,122.4065 357.0312,122.4922 355.8398,122.6553 355.0,123.0 354.8398,123.6963 355.0312,124.5703 355.3721,125.5154 355.8125,126.5 356.2529,127.4631 356.6406,128.3867 356.9434,129.2554 357.0,130.0 356.5645,130.522 355.8594,130.8945 355.0127,131.1536 354.0625,131.3125 353.0967,131.4109 352.0938,131.4062 351.0508,131.2812 350.0,131.0 348.9727,130.4922 347.9688,129.8438 347.0002,129.1133 346.0625,128.3125 345.1306,127.457 344.2773,126.5938 343.5347,125.7461 343.0,125.0 342.8442,124.4961 342.8789,124.0938 342.9824,123.7031 343.125,123.3125 343.2559,122.8984 343.3164,122.4062 343.2739,121.8125 343.0,121.0 342.2925,119.7734 341.3398,118.3438 340.2507,116.8438 339.0625,115.3125 337.8567,113.8203 336.6094,112.4062 335.3184,111.0977 334.0,110.0 332.6582,109.2695 331.3281,108.7812 330.042,108.4692 328.8125,108.3125 327.6455,108.2534 326.5938,108.3359 325.6875,108.5771 325.0,109.0 324.6484,109.6572 324.5312,110.4766 324.5906,111.4089 324.8125,112.4375 325.1614,113.5383 325.6445,114.6836 326.2642,115.855 327.0,117.0 327.8257,118.0396 328.7617,119.0352 329.8191,120.0198 331.0,121.0 332.3118,121.9978 333.75,123.0 335.3125,124.0 337.0,125.0" stroke="#CCECAC" stroke-width="5" /><polygon fill="#CCECAC" opacity="100" points="284.0,84.0 304.0,77.0 321.0,84.0 330.0,92.0 347.0,95.0 369.0,117.0 366.0,117.0 357.0,124.0 356.0,130.0 347.0,129.0 340.0,114.0 333.0,108.0 324.0,110.0 331.0,123.0 317.0,122.0 298.0,110.0 282.0,92.0" stroke="#CCECAC" stroke-width="1" /><polyline fill="none" opacity="100" points="256.0,36.0 253.6484,36.1094 251.4688,36.1875 249.4653,36.2327 247.625,36.25 245.9214,36.2498 244.3984,36.2148 243.0693,36.1401 242.0,36.0 241.3135,35.7466 240.8516,35.4414 240.5054,35.1279 240.25,34.8125 240.0532,34.501 239.8281,34.2383 239.5293,34.0454 239.0,34.0 237.9863,34.2319 236.7344,34.6055 235.3906,35.0356 234.0,35.5 232.6562,35.9565 231.3594,36.3789 230.1191,36.7505 229.0,37.0 228.084,37.019 227.3281,36.9023 226.717,36.7014 226.25,36.4375 225.906,36.1599 225.7305,35.8359 225.7476,35.4561 226.0,35.0 226.561,34.4189 227.3633,33.7891 228.3672,33.1638 229.5625,32.5625 230.9258,32.01 232.457,31.543 234.1548,31.1851 236.0,31.0 237.9663,31.0845 240.0742,31.3633 242.3347,31.7961 244.75,32.375 247.3274,33.073 250.0625,33.9062 252.9531,34.8828 256.0,36.0" stroke="#CCECAC" stroke-width="5" /><polyline fill="none" opacity="100" points="219.0,37.0 214.9609,37.1797 211.2188,37.3438 207.7805,37.4915 204.625,37.625 201.7097,37.7488 199.1055,37.8555 196.8335,37.9429 195.0,38.0 193.8032,38.0063 192.9883,37.9883 192.3853,37.9666 191.9375,37.9375 191.5601,37.8909 191.168,37.8672 190.7046,37.8818 190.0,38.0 188.7993,38.3369 187.3008,38.7578 185.6038,39.1707 183.75,39.5625 181.8513,39.9172 179.7969,40.1523 177.5449,40.23 175.0,40.0 171.9707,39.2114 168.7031,38.1289 165.3638,36.9207 162.0,35.625 158.6792,34.3118 155.5078,33.0547 152.5479,31.8936 150.0,31.0 148.1787,30.6455 146.8047,30.5703 145.7156,30.616 144.875,30.75 144.1926,30.9016 143.668,31.0273 143.2983,31.105 143.0,31.0 142.6509,30.5005 142.3633,29.8164 142.2043,29.0776 142.1875,28.3125 142.3445,27.5786 142.6875,26.918 143.2227,26.353 144.0,26.0 145.0977,26.0415 146.4375,26.3008 147.9775,26.6716 149.6875,27.125 151.5068,27.5999 153.4844,28.0859 155.6309,28.5732 158.0,29.0 160.7051,29.2783 163.5781,29.4766 166.4978,29.6294 169.4375,29.75 172.3713,29.8745 175.1758,29.9688 177.7876,30.0195 180.0,30.0 181.4741,29.8555 182.543,29.6562 183.4082,29.4524 184.125,29.25 184.8066,29.0535 185.4805,28.918 186.1694,28.8687 187.0,29.0 188.1548,29.4712 189.4883,30.1133 190.9253,30.8179 192.4375,31.5625 193.9497,32.3071 195.5273,32.9961 197.1948,33.6011 199.0,34.0 201.0435,33.9966 203.1914,33.7852 205.3518,33.4851 207.5,33.125 209.6033,32.7629 211.5938,32.4297 213.4336,32.1436 215.0,32.0 216.0977,32.1455 216.9062,32.4453 217.5312,32.8203 218.0,33.25 218.375,33.6875 218.6562,34.1328 218.8477,34.583 219.0,35.0 219.1836,35.3311 219.3438,35.6172 219.4512,35.8804 219.5,36.125 219.4707,36.3657 219.375,36.5938 219.2188,36.8047 219.0,37.0" stroke="#CCECAC" stroke-width="5" /><polygon fill="#CCECAC" opacity="100" points="154.0,31.0 187.0,29.0 199.0,34.0 218.0,34.0 217.0,37.0 193.0,36.0 178.0,40.0" stroke="#CCECAC" stroke-width="1" /><polyline fill="none" opacity="100" points="638.0,206.0 642.2734,208.6797 646.2188,211.0938 649.823,213.2363 653.125,215.125 656.2024,216.7949 658.9258,218.1875 661.2563,219.2852 663.0,220.0 663.7944,220.168 664.1055,220.0 664.2512,219.6387 664.3125,219.125 664.3992,218.5176 664.7422,217.9062 665.4678,217.3438 667.0,217.0 670.0166,217.1406 673.8828,217.5312 678.2314,218.0391 682.9375,218.625 687.7295,219.1953 692.6797,219.7812 697.792,220.3906 703.0,221.0 708.2705,221.5938 713.5078,222.1562 718.614,222.6667 723.5625,223.125 728.3645,223.5461 732.8086,223.8633 736.7847,224.0454 740.0,224.0 741.9692,223.5679 743.1602,222.918 743.8618,222.1572 744.125,221.3125 744.0601,220.4326 743.7773,219.5586 743.3276,218.7144 743.0,218.0 743.2622,217.5708 743.6289,217.2852 743.7903,217.0603 743.6875,216.875 743.2117,216.6799 742.2031,216.4766 740.584,216.2627 738.0,216.0 733.877,215.6357 728.7969,215.2109 723.1165,214.7476 716.9375,214.25 710.4597,213.7329 703.7461,213.1875 696.8472,212.6094 690.0,212.0 683.5474,211.3594 677.2227,210.6875 670.8831,209.9844 664.5,209.25 657.9783,208.4844 651.375,207.6875 644.7188,206.8594 638.0,206.0" stroke="#DBDBDB" stroke-width="5" /><polygon fill="#DBDBDB" opacity="100" points="645.0,208.0 744.0,218.0 743.0,222.0 714.0,222.0 667.0,217.0 664.0,219.0" stroke="#DBDBDB" stroke-width="1" /><polyline fill="none" opacity="100" points="-3.0,261.0 -3.0,-3.0 456.0,-3.0" stroke="#000" stroke-width="6" /><polyline fill="none" opacity="100" points="375.0,206.0 399.0,144.0 450.0,92.0" stroke="#FFF" stroke-width="10" /><polyline fill="none" opacity="100" points="727.0,298.0 782.0,205.0" stroke="#FFF" stroke-width="10" /><polyline fill="none" opacity="100" points="949.0,290.0 898.0,404.0" stroke="#FFF" stroke-width="10" /><polyline fill="none" opacity="100" points="1008.0,202.0 1051.0,259.0" stroke="#808080" stroke-width="1" /><polyline fill="none" opacity="100" points="1011.1933,199.591 1054.1933,256.591" stroke="#808080" stroke-width="1" /><polyline fill="none" opacity="100" points="1048.395,257.2073 1053.1849,253.5939" stroke="#808080" stroke-width="1" /><polyline fill="none" opacity="100" points="1046.5883,254.8123 1051.3781,251.1989" stroke="#808080" stroke-width="1" /><polyline fill="none" opacity="100" points="1044.7815,252.4174 1049.5714,248.804" stroke="#808080" stroke-width="1" /><polyline fill="none" opacity="100" points="1042.9748,250.0224 1047.7647,246.409" stroke="#808080" stroke-width="1" /><polyline fill="none" opacity="100" points="1041.1681,247.6275 1045.958,244.0141" stroke="#808080" stroke-width="1" /><polyline fill="none" opacity="100" points="1039.3614,245.2325 1044.1513,241.6191" stroke="#808080" stroke-width="1" /><polyline fill="none" opacity="100" points="1037.5547,242.8376 1042.3446,239.2242" stroke="#808080" stroke-width="1" /><polyline fill="none" opacity="100" points="1035.748,240.4426 1040.5379,236.8292" stroke="#808080" stroke-width="1" /><polyline fill="none" opacity="100" points="1033.9412,238.0477 1038.7311,234.4343" stroke="#808080" stroke-width="1" /><polyline fill="none" opacity="100" points="1032.1345,235.6528 1036.9244,232.0393" stroke="#808080" stroke-width="1" /><polyline fill="none" opacity="100" points="1030.3278,233.2578 1035.1177,229.6444" stroke="#808080" stroke-width="1" /><polyline fill="none" opacity="100" points="1028.5211,230.8629 1033.311,227.2494" stroke="#808080" stroke-width="1" /><polyline fill="none" opacity="100" points="1026.7144,228.4679 1031.5043,224.8545" stroke="#808080" stroke-width="1" /><polyline fill="none" opacity="100" points="1024.9077,226.073 1029.6976,222.4595" stroke="#808080" stroke-width="1" /><polyline fill="none" opacity="100" points="1023.1009,223.678 1027.8908,220.0646" stroke="#808080" stroke-width="1" /><polyline fill="none" opacity="100" points="1021.2942,221.2831 1026.0841,217.6696" stroke="#808080" stroke-width="1" /><polyline fill="none" opacity="100" points="1019.4875,218.8881 1024.2774,215.2747" stroke="#808080" stroke-width="1" /><polyline fill="none" opacity="100" points="1017.6808,216.4932 1022.4707,212.8797" stroke="#808080" stroke-width="1" /><polyline fill="none" opacity="100" points="1015.8741,214.0982 1020.664,210.4848" stroke="#808080" stroke-width="1" /><polyline fill="none" opacity="100" points="1014.0674,211.7033 1018.8573,208.0898" stroke="#808080" stroke-width="1" /><polyline fill="none" opacity="100" points="1012.2607,209.3083 1017.0506,205.6949" stroke="#808080" stroke-width="1" /><polyline fill="none" opacity="100" points="1010.4539,206.9134 1015.2438,203.2999" stroke="#808080" stroke-width="1" /><polyline fill="none" opacity="100" points="1008.6472,204.5184 1013.4371,200.905" stroke="#808080" stroke-width="1" /><polyline fill="none" opacity="100" points="965.0,145.0 1008.0,202.0" stroke="#808080" stroke-width="1" /><polyline fill="none" opacity="100" points="968.1933,142.591 1011.1933,199.591" stroke="#808080" stroke-width="1" /><polyline fill="none" opacity="100" points="1005.395,200.2073 1010.1849,196.5939" stroke="#808080" stroke-width="1" /><polyline fill="none" opacity="100" points="1003.5883,197.8123 1008.3781,194.1989" stroke="#808080" stroke-width="1" /><polyline fill="none" opacity="100" points="1001.7815,195.4174 1006.5714,191.804" stroke="#808080" stroke-width="1" /><polyline fill="none" opacity="100" points="999.9748,193.0224 1004.7647,189.409" stroke="#808080" stroke-width="1" /><polyline fill="none" opacity="100" points="998.1681,190.6275 1002.958,187.0141" stroke="#808080" stroke-width="1" /><polyline fill="none" opacity="100" points="996.3614,188.2325 1001.1513,184.6191" stroke="#808080" stroke-width="1" /><polyline fill="none" opacity="100" points="994.5547,185.8376 999.3446,182.2242" stroke="#808080" stroke-width="1" /><polyline fill="none" opacity="100" points="992.748,183.4426 997.5379,179.8292" stroke="#808080" stroke-width="1" /><polyline fill="none" opacity="100" points="990.9412,181.0477 995.7311,177.4343" stroke="#808080" stroke-width="1" /><polyline fill="none" opacity="100" points="989.1345,178.6528 993.9244,175.0393" stroke="#808080" stroke-width="1" /><polyline fill="none" opacity="100" points="987.3278,176.2578 992.1177,172.6444" stroke="#808080" stroke-width="1" /><polyline fill="none" opacity="100" points="985.5211,173.8629 990.311,170.2494" stroke="#808080" stroke-width="1" /><polyline fill="none" opacity="100" points="983.7144,171.4679 988.5043,167.8545" stroke="#808080" stroke-width="1" /><polyline fill="none" opacity="100" points="981.9077,169.073 986.6976,165.4595" stroke="#808080" stroke-width="1" /><polyline fill="none" opacity="100" points="980.1009,166.678 984.8908,163.0646" stroke="#808080" stroke-width="1" /><polyline fill="none" opacity="100" points="978.2942,164.2831 983.0841,160.6696" stroke="#808080" stroke-width="1" /><polyline fill="none" opacity="100" points="976.4875,161.8881 981.2774,158.2747" stroke="#808080" stroke-width="1" /><polyline fill="none" opacity="100" points="974.6808,159.4932 979.4707,155.8797" stroke="#808080" stroke-width="1" /><polyline fill="none" opacity="100" points="972.8741,157.0982 977.664,153.4848" stroke="#808080" stroke-width="1" /><polyline fill="none" opacity="100" points="971.0674,154.7033 975.8573,151.0898" stroke="#808080" stroke-width="1" /><polyline fill="none" opacity="100" points="969.2607,152.3083 974.0506,148.6949" stroke="#808080" stroke-width="1" /><polyline fill="none" opacity="100" points="967.4539,149.9134 972.2438,146.2999" stroke="#808080" stroke-width="1" /><polyline fill="none" opacity="100" points="965.6472,147.5184 970.4371,143.905" stroke="#808080" stroke-width="1" /><polyline fill="none" opacity="100" points="922.0,104.0 965.0,145.0" stroke="#808080" stroke-width="1" /><polyline fill="none" opacity="100" points="924.7603,101.105 967.7603,142.105" stroke="#808080" stroke-width="1" /><polyline fill="none" opacity="100" points="962.1387,143.6535 966.2792,139.3111" stroke="#808080" stroke-width="1" /><polyline fill="none" opacity="100" points="959.9675,141.5833 964.108,137.2409" stroke="#808080" stroke-width="1" /><polyline fill="none" opacity="100" points="957.7963,139.5131 961.9367,135.1706" stroke="#808080" stroke-width="1" /><polyline fill="none" opacity="100" points="955.6251,137.4428 959.7655,133.1004" stroke="#808080" stroke-width="1" /><polyline fill="none" opacity="100" points="953.4539,135.3726 957.5943,131.0302" stroke="#808080" stroke-width="1" /><polyline fill="none" opacity="100" points="951.2826,133.3024 955.4231,128.96" stroke="#808080" stroke-width="1" /><polyline fill="none" opacity="100" points="949.1114,131.2322 953.2519,126.8897" stroke="#808080" stroke-width="1" /><polyline fill="none" opacity="100" points="946.9402,129.1619 951.0807,124.8195" stroke="#808080" stroke-width="1" /><polyline fill="none" opacity="100" points="944.769,127.0917 948.9095,122.7493" stroke="#808080" stroke-width="1" /><polyline fill="none" opacity="100" points="942.5978,125.0215 946.7383,120.6791" stroke="#808080" stroke-width="1" /><polyline fill="none" opacity="100" points="940.4266,122.9513 944.567,118.6088" stroke="#808080" stroke-width="1" /><polyline fill="none" opacity="100" points="938.2554,120.881 942.3958,116.5386" stroke="#808080" stroke-width="1" /><polyline fill="none" opacity="100" points="936.0842,118.8108 940.2246,114.4684" stroke="#808080" stroke-width="1" /><polyline fill="none" opacity="100" points="933.9129,116.7406 938.0534,112.3981" stroke="#808080" stroke-width="1" /><polyline fill="none" opacity="100" points="931.7417,114.6703 935.8822,110.3279" stroke="#808080" stroke-width="1" /><polyline fill="none" opacity="100" points="929.5705,112.6001 933.711,108.2577" stroke="#808080" stroke-width="1" /><polyline fill="none" opacity="100" points="927.3993,110.5299 931.5398,106.1875" stroke="#808080" stroke-width="1" /><polyline fill="none" opacity="100" points="925.2281,108.4597 929.3685,104.1172" stroke="#808080" stroke-width="1" /><polyline fill="none" opacity="100" points="923.0569,106.3894 927.1973,102.047" stroke="#808080" stroke-width="1" /><polyline fill="none" opacity="100" points="871.0,111.0 922.0,104.0" stroke="#808080" stroke-width="1" /><polyline fill="none" opacity="100" points="870.4561,107.0372 921.4561,100.0372" stroke="#808080" stroke-width="1" /><polyline fill="none" opacity="100" points="919.1638,105.3987 918.348,99.4544" stroke="#808080" stroke-width="1" /><polyline fill="none" opacity="100" points="916.1917,105.8066 915.3758,99.8623" stroke="#808080" stroke-width="1" /><polyline fill="none" opacity="100" points="913.2196,106.2145 912.4037,100.2703" stroke="#808080" stroke-width="1" /><polyline fill="none" opacity="100" points="910.2474,106.6225 909.4316,100.6782" stroke="#808080" stroke-width="1" /><polyline fill="none" opacity="100" points="907.2753,107.0304 906.4594,101.0861" stroke="#808080" stroke-width="1" /><polyline fill="none" opacity="100" points="904.3032,107.4384 903.4873,101.4941" stroke="#808080" stroke-width="1" /><polyline fill="none" opacity="100" points="901.331,107.8463 900.5152,101.902" stroke="#808080" stroke-width="1" /><polyline fill="none" opacity="100" points="898.3589,108.2542 897.543,102.31" stroke="#808080" stroke-width="1" /><polyline fill="none" opacity="100" points="895.3868,108.6622 894.5709,102.7179" stroke="#808080" stroke-width="1" /><polyline fill="none" opacity="100" points="892.4146,109.0701 891.5988,103.1258" stroke="#808080" stroke-width="1" /><polyline fill="none" opacity="100" points="889.4425,109.4781 888.6266,103.5338" stroke="#808080" stroke-width="1" /><polyline fill="none" opacity="100" points="886.4704,109.886 885.6545,103.9417" stroke="#808080" stroke-width="1" /><polyline fill="none" opacity="100" points="883.4982,110.2939 882.6823,104.3497" stroke="#808080" stroke-width="1" /><polyline fill="none" opacity="100" points="880.5261,110.7019 879.7102,104.7576" stroke="#808080" stroke-width="1" /><polyline fill="none" opacity="100" points="877.554,111.1098 876.7381,105.1655" stroke="#808080" stroke-width="1" /><polyline fill="none" opacity="100" points="874.5818,111.5178 873.7659,105.5735" stroke="#808080" stroke-width="1" /><polyline fill="none" opacity="100" points="871.6097,111.9257 870.7938,105.9814" stroke="#808080" stroke-width="1" /><polyline fill="none" opacity="100" points="825.0,144.0 871.0,111.0" stroke="#808080" stroke-width="1" /><polyline fill="none" opacity="100" points="822.6684,140.7498 868.6684,107.7498" stroke="#808080" stroke-width="1" /><polyline fill="none" opacity="100" points="869.1453,113.5613 865.6478,108.686" stroke="#808080" stroke-width="1" /><polyline fill="none" opacity="100" points="866.7077,115.31 863.2102,110.4348" stroke="#808080" stroke-width="1" /><polyline fill="none" opacity="100" points="864.2701,117.0587 860.7726,112.1835" stroke="#808080" stroke-width="1" /><polyline fill="none" opacity="100" points="861.8324,118.8074 858.335,113.9322" stroke="#808080" stroke-width="1" /><polyline fill="none" opacity="100" points="859.3948,120.5562 855.8974,115.6809" stroke="#808080" stroke-width="1" /><polyline fill="none" opacity="100" points="856.9572,122.3049 853.4598,117.4297" stroke="#808080" stroke-width="1" /><polyline fill="none" opacity="100" points="854.5196,124.0536 851.0222,119.1784" stroke="#808080" stroke-width="1" /><polyline fill="none" opacity="100" points="852.082,125.8023 848.5845,120.9271" stroke="#808080" stroke-width="1" /><polyline fill="none" opacity="100" points="849.6444,127.5511 846.1469,122.6758" stroke="#808080" stroke-width="1" /><polyline fill="none" opacity="100" points="847.2068,129.2998 843.7093,124.4245" stroke="#808080" stroke-width="1" /><polyline fill="none" opacity="100" points="844.7691,131.0485 841.2717,126.1733" stroke="#808080" stroke-width="1" /><polyline fill="none" opacity="100" points="842.3315,132.7972 838.8341,127.922" stroke="#808080" stroke-width="1" /><polyline fill="none" opacity="100" points="839.8939,134.5459 836.3965,129.6707" stroke="#808080" stroke-width="1" /><polyline fill="none" opacity="100" points="837.4563,136.2947 833.9589,131.4194" stroke="#808080" stroke-width="1" /><polyline fill="none" opacity="100" points="835.0187,138.0434 831.5212,133.1682" stroke="#808080" stroke-width="1" /><polyline fill="none" opacity="100" points="832.5811,139.7921 829.0836,134.9169" stroke="#808080" stroke-width="1" /><polyline fill="none" opacity="100" points="830.1435,141.5408 826.646,136.6656" stroke="#808080" stroke-width="1" /><polyline fill="none" opacity="100" points="827.7058,143.2896 824.2084,138.4143" stroke="#808080" stroke-width="1" /><polyline fill="none" opacity="100" points="794.0,190.0 825.0,144.0" stroke="#808080" stroke-width="1" /><polyline fill="none" opacity="100" points="790.6829,187.7646 821.6829,141.7646" stroke="#808080" stroke-width="1" /><polyline fill="none" opacity="100" points="824.1527,147.0467 819.1771,143.6935" stroke="#808080" stroke-width="1" /><polyline fill="none" opacity="100" points="822.4761,149.5345 817.5005,146.1813" stroke="#808080" stroke-width="1" /><polyline fill="none" opacity="100" points="820.7996,152.0223 815.824,148.6691" stroke="#808080" stroke-width="1" /><polyline fill="none" opacity="100" points="819.123,154.5101 814.1474,151.1569" stroke="#808080" stroke-width="1" /><polyline fill="none" opacity="100" points="817.4465,156.9978 812.4709,153.6447" stroke="#808080" stroke-width="1" /><polyline fill="none" opacity="100" points="815.7699,159.4856 810.7943,156.1325" stroke="#808080" stroke-width="1" /><polyline fill="none" opacity="100" points="814.0933,161.9734 809.1177,158.6203" stroke="#808080" stroke-width="1" /><polyline fill="none" opacity="100" points="812.4168,164.4612 807.4412,161.1081" stroke="#808080" stroke-width="1" /><polyline fill="none" opacity="100" points="810.7402,166.949 805.7646,163.5959" stroke="#808080" stroke-width="1" /><polyline fill="none" opacity="100" points="809.0637,169.4368 804.0881,166.0837" stroke="#808080" stroke-width="1" /><polyline fill="none" opacity="100" points="807.3871,171.9246 802.4115,168.5715" stroke="#808080" stroke-width="1" /><polyline fill="none" opacity="100" points="805.7105,174.4124 800.7349,171.0593" stroke="#808080" stroke-width="1" /><polyline fill="none" opacity="100" points="804.034,176.9002 799.0584,173.5471" stroke="#808080" stroke-width="1" /><polyline fill="none" opacity="100" points="802.3574,179.388 797.3818,176.0349" stroke="#808080" stroke-width="1" /><polyline fill="none" opacity="100" points="800.6809,181.8758 795.7053,178.5227" stroke="#808080" stroke-width="1" /><polyline fill="none" opacity="100" points="799.0043,184.3636 794.0287,181.0105" stroke="#808080" stroke-width="1" /><polyline fill="none" opacity="100" points="797.3277,186.8514 792.3521,183.4983" stroke="#808080" stroke-width="1" /><polyline fill="none" opacity="100" points="795.6512,189.3392 790.6756,185.9861" stroke="#808080" stroke-width="1" /><polyline fill="none" opacity="100" points="723.0,308.0 794.0,190.0" stroke="#808080" stroke-width="1" /><polyline fill="none" opacity="100" points="719.5726,305.9377 790.5726,187.9377" stroke="#808080" stroke-width="1" /><polyline fill="none" opacity="100" points="793.3102,193.0861 788.1691,189.9927" stroke="#808080" stroke-width="1" /><polyline fill="none" opacity="100" points="791.7635,195.6567 786.6224,192.5633" stroke="#808080" stroke-width="1" /><polyline fill="none" opacity="100" points="790.2168,198.2272 785.0757,195.1338" stroke="#808080" stroke-width="1" /><polyline fill="none" opacity="100" points="788.6701,200.7978 783.529,197.7044" stroke="#808080" stroke-width="1" /><polyline fill="none" opacity="100" points="787.1234,203.3683 781.9823,200.275" stroke="#808080" stroke-width="1" /><polyline fill="none" opacity="100" points="785.5767,205.9389 780.4356,202.8455" stroke="#808080" stroke-width="1" /><polyline fill="none" opacity="100" points="784.03,208.5094 778.8889,205.4161" stroke="#808080" stroke-width="1" /><polyline fill="none" opacity="100" points="782.4833,211.08 777.3422,207.9866" stroke="#808080" stroke-width="1" /><polyline fill="none" opacity="100" points="780.9366,213.6506 775.7955,210.5572" stroke="#808080" stroke-width="1" /><polyline fill="none" opacity="100" points="779.39,216.2211 774.2488,213.1277" stroke="#808080" stroke-width="1" /><polyline fill="none" opacity="100" points="777.8433,218.7917 772.7022,215.6983" stroke="#808080" stroke-width="1" /><polyline fill="none" opacity="100" points="776.2966,221.3622 771.1555,218.2688" stroke="#808080" stroke-width="1" /><polyline fill="none" opacity="100" points="774.7499,223.9328 769.6088,220.8394" stroke="#808080" stroke-width="1" /><polyline fill="none" opacity="100" points="773.2032,226.5033 768.0621,223.4099" stroke="#808080" stroke-width="1" /><polyline fill="none" opacity="100" points="771.6565,229.0739 766.5154,225.9805" stroke="#808080" stroke-width="1" /><polyline fill="none" opacity="100" points="770.1098,231.6444 764.9687,228.5511" stroke="#808080" stroke-width="1" /><polyline fill="none" opacity="100" points="768.5631,234.215 763.422,231.1216" stroke="#808080" stroke-width="1" /><polyline fill="none" opacity="100" points="767.0164,236.7855 761.8753,233.6922" stroke="#808080" stroke-width="1" /><polyline fill="none" opacity="100" points="765.4697,239.3561 760.3286,236.2627" stroke="#808080" stroke-width="1" /><polyline fill="none" opacity="100" points="763.9231,241.9267 758.7819,238.8333" stroke="#808080" stroke-width="1" /><polyline fill="none" opacity="100" points="762.3764,244.4972 757.2353,241.4038" stroke="#808080" stroke-width="1" /><polyline fill="none" opacity="100" points="760.8297,247.0678 755.6886,243.9744" stroke="#808080" stroke-width="1" /><polyline fill="none" opacity="100" points="759.283,249.6383 754.1419,246.5449" stroke="#808080" stroke-width="1" /><polyline fill="none" opacity="100" points="757.7363,252.2089 752.5952,249.1155" stroke="#808080" stroke-width="1" /><polyline fill="none" opacity="100" points="756.1896,254.7794 751.0485,251.686" stroke="#808080" stroke-width="1" /><polyline fill="none" opacity="100" points="754.6429,257.35 749.5018,254.2566" stroke="#808080" stroke-width="1" /><polyline fill="none" opacity="100" points="753.0962,259.9205 747.9551,256.8272" stroke="#808080" stroke-width="1" /><polyline fill="none" opacity="100" points="751.5495,262.4911 746.4084,259.3977" stroke="#808080" stroke-width="1" /><polyline fill="none" opacity="100" points="750.0029,265.0616 744.8617,261.9683" stroke="#808080" stroke-width="1" /><polyline fill="none" opacity="100" points="748.4562,267.6322 743.3151,264.5388" stroke="#808080" stroke-width="1" /><polyline fill="none" opacity="100" points="746.9095,270.2028 741.7684,267.1094" stroke="#808080" stroke-width="1" /><polyline fill="none" opacity="100" points="745.3628,272.7733 740.2217,269.6799" stroke="#808080" stroke-width="1" /><polyline fill="none" opacity="100" points="743.8161,275.3439 738.675,272.2505" stroke="#808080" stroke-width="1" /><polyline fill="none" opacity="100" points="742.2694,277.9144 737.1283,274.821" stroke="#808080" stroke-width="1" /><polyline fill="none" opacity="100" points="740.7227,280.485 735.5816,277.3916" stroke="#808080" stroke-width="1" /><polyline fill="none" opacity="100" points="739.176,283.0555 734.0349,279.9622" stroke="#808080" stroke-width="1" /><polyline fill="none" opacity="100" points="737.6293,285.6261 732.4882,282.5327" stroke="#808080" stroke-width="1" /><polyline fill="none" opacity="100" points="736.0826,288.1966 730.9415,285.1033" stroke="#808080" stroke-width="1" /><polyline fill="none" opacity="100" points="734.536,290.7672 729.3948,287.6738" stroke="#808080" stroke-width="1" /><polyline fill="none" opacity="100" points="732.9893,293.3377 727.8482,290.2444" stroke="#808080" stroke-width="1" /><polyline fill="none" opacity="100" points="731.4426,295.9083 726.3015,292.8149" stroke="#808080" stroke-width="1" /><polyline fill="none" opacity="100" points="729.8959,298.4789 724.7548,295.3855" stroke="#808080" stroke-width="1" /><polyline fill="none" opacity="100" points="728.3492,301.0494 723.2081,297.956" stroke="#808080" stroke-width="1" /><polyline fill="none" opacity="100" points="726.8025,303.62 721.6614,300.5266" stroke="#808080" stroke-width="1" /><polyline fill="none" opacity="100" points="725.2558,306.1905 720.1147,303.0971" stroke="#808080" stroke-width="1" /><polyline fill="none" opacity="100" points="689.0,331.0 723.0,308.0" stroke="#808080" stroke-width="1" /><polyline fill="none" opacity="100" points="686.7588,327.6869 720.7588,304.6869" stroke="#808080" stroke-width="1" /><polyline fill="none" opacity="100" points="721.0755,310.5092 717.7136,305.5395" stroke="#808080" stroke-width="1" /><polyline fill="none" opacity="100" points="718.5906,312.1901 715.2288,307.2204" stroke="#808080" stroke-width="1" /><polyline fill="none" opacity="100" points="716.1058,313.8711 712.7439,308.9014" stroke="#808080" stroke-width="1" /><polyline fill="none" opacity="100" points="713.6209,315.552 710.2591,310.5823" stroke="#808080" stroke-width="1" /><polyline fill="none" opacity="100" points="711.1361,317.2329 707.7742,312.2632" stroke="#808080" stroke-width="1" /><polyline fill="none" opacity="100" points="708.6512,318.9139 705.2894,313.9442" stroke="#808080" stroke-width="1" /><polyline fill="none" opacity="100" points="706.1664,320.5948 702.8045,315.6251" stroke="#808080" stroke-width="1" /><polyline fill="none" opacity="100" points="703.6815,322.2757 700.3197,317.306" stroke="#808080" stroke-width="1" /><polyline fill="none" opacity="100" points="701.1967,323.9566 697.8348,318.9869" stroke="#808080" stroke-width="1" /><polyline fill="none" opacity="100" points="698.7118,325.6376 695.35,320.6679" stroke="#808080" stroke-width="1" /><polyline fill="none" opacity="100" points="696.227,327.3185 692.8651,322.3488" stroke="#808080" stroke-width="1" /><polyline fill="none" opacity="100" points="693.7421,328.9994 690.3803,324.0297" stroke="#808080" stroke-width="1" /><polyline fill="none" opacity="100" points="691.2573,330.6803 687.8954,325.7106" stroke="#808080" stroke-width="1" /><polyline fill="none" opacity="100" points="642.0,343.0 689.0,331.0" stroke="#808080" stroke-width="1" /><polyline fill="none" opacity="100" points="641.0105,339.1243 688.0105,327.1243" stroke="#808080" stroke-width="1" /><polyline fill="none" opacity="100" points="686.3406,332.7111 684.8563,326.8976" stroke="#808080" stroke-width="1" /><polyline fill="none" opacity="100" points="683.4339,333.4532 681.9496,327.6397" stroke="#808080" stroke-width="1" /><polyline fill="none" opacity="100" points="680.5271,334.1954 679.0428,328.3819" stroke="#808080" stroke-width="1" /><polyline fill="none" opacity="100" points="677.6204,334.9375 676.1361,329.124" stroke="#808080" stroke-width="1" /><polyline fill="none" opacity="100" points="674.7136,335.6797 673.2293,329.8662" stroke="#808080" stroke-width="1" /><polyline fill="none" opacity="100" points="671.8069,336.4218 670.3226,330.6083" stroke="#808080" stroke-width="1" /><polyline fill="none" opacity="100" points="668.9001,337.164 667.4158,331.3505" stroke="#808080" stroke-width="1" /><polyline fill="none" opacity="100" points="665.9934,337.9061 664.5091,332.0926" stroke="#808080" stroke-width="1" /><polyline fill="none" opacity="100" points="663.0866,338.6483 661.6023,332.8348" stroke="#808080" stroke-width="1" /><polyline fill="none" opacity="100" points="660.1799,339.3904 658.6956,333.5769" stroke="#808080" stroke-width="1" /><polyline fill="none" opacity="100" points="657.2731,340.1326 655.7888,334.3191" stroke="#808080" stroke-width="1" /><polyline fill="none" opacity="100" points="654.3663,340.8747 652.882,335.0612" stroke="#808080" stroke-width="1" /><polyline fill="none" opacity="100" points="651.4596,341.6169 649.9753,335.8034" stroke="#808080" stroke-width="1" /><polyline fill="none" opacity="100" points="648.5528,342.359 647.0685,336.5455" stroke="#808080" stroke-width="1" /><polyline fill="none" opacity="100" points="645.6461,343.1012 644.1618,337.2877" stroke="#808080" stroke-width="1" /><polyline fill="none" opacity="100" points="642.7393,343.8433 641.255,338.0298" stroke="#808080" stroke-width="1" /><polyline fill="none" opacity="100" points="600.0,351.0 642.0,343.0" stroke="#808080" stroke-width="1" /><polyline fill="none" opacity="100" points="599.2516,347.0706 641.2516,339.0706" stroke="#808080" stroke-width="1" /><polyline fill="none" opacity="100" points="639.2401,344.5437 638.1174,338.6496" stroke="#808080" stroke-width="1" /><polyline fill="none" opacity="100" points="636.2931,345.105 635.1704,339.211" stroke="#808080" stroke-width="1" /><polyline fill="none" opacity="100" points="633.3461,345.6663 632.2234,339.7723" stroke="#808080" stroke-width="1" /><polyline fill="none" opacity="100" points="630.399,346.2277 629.2764,340.3337" stroke="#808080" stroke-width="1" /><polyline fill="none" opacity="100" points="627.452,346.789 626.3294,340.895" stroke="#808080" stroke-width="1" /><polyline fill="none" opacity="100" points="624.505,347.3504 623.3823,341.4563" stroke="#808080" stroke-width="1" /><polyline fill="none" opacity="100" points="621.558,347.9117 620.4353,342.0177" stroke="#808080" stroke-width="1" /><polyline fill="none" opacity="100" points="618.611,348.473 617.4883,342.579" stroke="#808080" stroke-width="1" /><polyline fill="none" opacity="100" points="615.664,349.0344 614.5413,343.1403" stroke="#808080" stroke-width="1" /><polyline fill="none" opacity="100" points="612.717,349.5957 611.5943,343.7017" stroke="#808080" stroke-width="1" /><polyline fill="none" opacity="100" points="609.7699,350.157 608.6473,344.263" stroke="#808080" stroke-width="1" /><polyline fill="none" opacity="100" points="606.8229,350.7184 605.7003,344.8243" stroke="#808080" stroke-width="1" /><polyline fill="none" opacity="100" points="603.8759,351.2797 602.7532,345.3857" stroke="#808080" stroke-width="1" /><polyline fill="none" opacity="100" points="600.9289,351.841 599.8062,345.947" stroke="#808080" stroke-width="1" /><polyline fill="none" opacity="100" points="549.0,334.0 600.0,351.0" stroke="#808080" stroke-width="1" /><polyline fill="none" opacity="100" points="550.2649,330.2053 601.2649,347.2053" stroke="#808080" stroke-width="1" /><polyline fill="none" opacity="100" points="596.8377,351.0 598.7351,345.3079" stroke="#808080" stroke-width="1" /><polyline fill="none" opacity="100" points="593.9917,350.0513 595.889,344.3592" stroke="#808080" stroke-width="1" /><polyline fill="none" opacity="100" points="591.1456,349.1026 593.043,343.4105" stroke="#808080" stroke-width="1" /><polyline fill="none" opacity="100" points="588.2996,348.154 590.1969,342.4619" stroke="#808080" stroke-width="1" /><polyline fill="none" opacity="100" points="585.4535,347.2053 587.3509,341.5132" stroke="#808080" stroke-width="1" /><polyline fill="none" opacity="100" points="582.6075,346.2566 584.5048,340.5645" stroke="#808080" stroke-width="1" /><polyline fill="none" opacity="100" points="579.7614,345.3079 581.6588,339.6158" stroke="#808080" stroke-width="1" /><polyline fill="none" opacity="100" points="576.9154,344.3592 578.8127,338.6671" stroke="#808080" stroke-width="1" /><polyline fill="none" opacity="100" points="574.0693,343.4105 575.9667,337.7184" stroke="#808080" stroke-width="1" /><polyline fill="none" opacity="100" points="571.2233,342.4619 573.1206,336.7698" stroke="#808080" stroke-width="1" /><polyline fill="none" opacity="100" points="568.3772,341.5132 570.2746,335.8211" stroke="#808080" stroke-width="1" /><polyline fill="none" opacity="100" points="565.5312,340.5645 567.4285,334.8724" stroke="#808080" stroke-width="1" /><polyline fill="none" opacity="100" points="562.6851,339.6158 564.5825,333.9237" stroke="#808080" stroke-width="1" /><polyline fill="none" opacity="100" points="559.8391,338.6671 561.7364,332.975" stroke="#808080" stroke-width="1" /><polyline fill="none" opacity="100" points="556.993,337.7184 558.8904,332.0263" stroke="#808080" stroke-width="1" /><polyline fill="none" opacity="100" points="554.147,336.7698 556.0443,331.0777" stroke="#808080" stroke-width="1" /><polyline fill="none" opacity="100" points="551.3009,335.8211 553.1983,330.129" stroke="#808080" stroke-width="1" /><polyline fill="none" opacity="100" points="506.0,330.0 549.0,334.0" stroke="#808080" stroke-width="1" /><polyline fill="none" opacity="100" points="506.3705,326.0172 549.3705,330.0172" stroke="#808080" stroke-width="1" /><polyline fill="none" opacity="100" points="545.9203,334.7178 546.476,328.7436" stroke="#808080" stroke-width="1" /><polyline fill="none" opacity="100" points="542.9332,334.44 543.4889,328.4658" stroke="#808080" stroke-width="1" /><polyline fill="none" opacity="100" points="539.9461,334.1621 540.5018,328.1879" stroke="#808080" stroke-width="1" /><polyline fill="none" opacity="100" points="536.959,333.8842 537.5147,327.91" stroke="#808080" stroke-width="1" /><polyline fill="none" opacity="100" points="533.9719,333.6064 534.5276,327.6321" stroke="#808080" stroke-width="1" /><polyline fill="none" opacity="100" points="530.9848,333.3285 531.5405,327.3543" stroke="#808080" stroke-width="1" /><polyline fill="none" opacity="100" points="527.9977,333.0506 528.5534,327.0764" stroke="#808080" stroke-width="1" /><polyline fill="none" opacity="100" points="525.0105,332.7727 525.5663,326.7985" stroke="#808080" stroke-width="1" /><polyline fill="none" opacity="100" points="522.0234,332.4949 522.5792,326.5207" stroke="#808080" stroke-width="1" /><polyline fill="none" opacity="100" points="519.0363,332.217 519.5921,326.2428" stroke="#808080" stroke-width="1" /><polyline fill="none" opacity="100" points="516.0492,331.9391 516.605,325.9649" stroke="#808080" stroke-width="1" /><polyline fill="none" opacity="100" points="513.0621,331.6613 513.6179,325.6871" stroke="#808080" stroke-width="1" /><polyline fill="none" opacity="100" points="510.075,331.3834 510.6308,325.4092" stroke="#808080" stroke-width="1" /><polyline fill="none" opacity="100" points="507.0879,331.1055 507.6437,325.1313" stroke="#808080" stroke-width="1" /><polyline fill="none" opacity="100" points="460.0,333.0 506.0,330.0" stroke="#808080" stroke-width="1" /><polyline fill="none" opacity="100" points="459.7397,329.0085 505.7397,326.0085" stroke="#808080" stroke-width="1" /><polyline fill="none" opacity="100" points="503.0714,331.1931 502.681,325.2058" stroke="#808080" stroke-width="1" /><polyline fill="none" opacity="100" points="500.0778,331.3884 499.6873,325.4011" stroke="#808080" stroke-width="1" /><polyline fill="none" opacity="100" points="497.0842,331.5836 496.6937,325.5963" stroke="#808080" stroke-width="1" /><polyline fill="none" opacity="100" points="494.0905,331.7788 493.7,325.7915" stroke="#808080" stroke-width="1" /><polyline fill="none" opacity="100" points="491.0969,331.9741 490.7064,325.9868" stroke="#808080" stroke-width="1" /><polyline fill="none" opacity="100" points="488.1032,332.1693 487.7128,326.182" stroke="#808080" stroke-width="1" /><polyline fill="none" opacity="100" points="485.1096,332.3645 484.7191,326.3773" stroke="#808080" stroke-width="1" /><polyline fill="none" opacity="100" points="482.116,332.5598 481.7255,326.5725" stroke="#808080" stroke-width="1" /><polyline fill="none" opacity="100" points="479.1223,332.755 478.7318,326.7677" stroke="#808080" stroke-width="1" /><polyline fill="none" opacity="100" points="476.1287,332.9503 475.7382,326.963" stroke="#808080" stroke-width="1" /><polyline fill="none" opacity="100" points="473.135,333.1455 472.7446,327.1582" stroke="#808080" stroke-width="1" /><polyline fill="none" opacity="100" points="470.1414,333.3407 469.7509,327.3534" stroke="#808080" stroke-width="1" /><polyline fill="none" opacity="100" points="467.1478,333.536 466.7573,327.5487" stroke="#808080" stroke-width="1" /><polyline fill="none" opacity="100" points="464.1541,333.7312 463.7636,327.7439" stroke="#808080" stroke-width="1" /><polyline fill="none" opacity="100" points="461.1605,333.9264 460.77,327.9392" stroke="#808080" stroke-width="1" /><polyline fill="none" opacity="100" points="415.0,345.0 460.0,333.0" stroke="#808080" stroke-width="1" /><polyline fill="none" opacity="100" points="413.9693,341.1351 458.9693,329.1351" stroke="#808080" stroke-width="1" /><polyline fill="none" opacity="100" points="457.359,334.7392 455.813,328.9418" stroke="#808080" stroke-width="1" /><polyline fill="none" opacity="100" points="454.4603,335.5122 452.9143,329.7148" stroke="#808080" stroke-width="1" /><polyline fill="none" opacity="100" points="451.5615,336.2852 450.0156,330.4878" stroke="#808080" stroke-width="1" /><polyline fill="none" opacity="100" points="448.6628,337.0582 447.1169,331.2608" stroke="#808080" stroke-width="1" /><polyline fill="none" opacity="100" points="445.7641,337.8312 444.2182,332.0338" stroke="#808080" stroke-width="1" /><polyline fill="none" opacity="100" points="442.8654,338.6042 441.3195,332.8068" stroke="#808080" stroke-width="1" /><polyline fill="none" opacity="100" points="439.9667,339.3772 438.4208,333.5797" stroke="#808080" stroke-width="1" /><polyline fill="none" opacity="100" points="437.068,340.1501 435.522,334.3527" stroke="#808080" stroke-width="1" /><polyline fill="none" opacity="100" points="434.1693,340.9231 432.6233,335.1257" stroke="#808080" stroke-width="1" /><polyline fill="none" opacity="100" points="431.2706,341.6961 429.7246,335.8987" stroke="#808080" stroke-width="1" /><polyline fill="none" opacity="100" points="428.3719,342.4691 426.8259,336.6717" stroke="#808080" stroke-width="1" /><polyline fill="none" opacity="100" points="425.4732,343.2421 423.9272,337.4447" stroke="#808080" stroke-width="1" /><polyline fill="none" opacity="100" points="422.5745,344.0151 421.0285,338.2177" stroke="#808080" stroke-width="1" /><polyline fill="none" opacity="100" points="419.6758,344.7881 418.1298,338.9907" stroke="#808080" stroke-width="1" /><polyline fill="none" opacity="100" points="416.7771,345.5611 415.2311,339.7636" stroke="#808080" stroke-width="1" /><polyline fill="none" opacity="100" points="369.0,348.0 415.0,345.0" stroke="#808080" stroke-width="1" /><polyline fill="none" opacity="100" points="368.7397,344.0085 414.7397,341.0085" stroke="#808080" stroke-width="1" /><polyline fill="none" opacity="100" points="412.0714,346.1931 411.681,340.2058" stroke="#808080" stroke-width="1" /><polyline fill="none" opacity="100" points="409.0778,346.3884 408.6873,340.4011" stroke="#808080" stroke-width="1" /><polyline fill="none" opacity="100" points="406.0842,346.5836 405.6937,340.5963" stroke="#808080" stroke-width="1" /><polyline fill="none" opacity="100" points="403.0905,346.7788 402.7,340.7915" stroke="#808080" stroke-width="1" /><polyline fill="none" opacity="100" points="400.0969,346.9741 399.7064,340.9868" stroke="#808080" stroke-width="1" /><polyline fill="none" opacity="100" points="397.1032,347.1693 396.7128,341.182" stroke="#808080" stroke-width="1" /><polyline fill="none" opacity="100" points="394.1096,347.3645 393.7191,341.3773" stroke="#808080" stroke-width="1" /><polyline fill="none" opacity="100" points="391.116,347.5598 390.7255,341.5725" stroke="#808080" stroke-width="1" /><polyline fill="none" opacity="100" points="388.1223,347.755 387.7318,341.7677" stroke="#808080" stroke-width="1" /><polyline fill="none" opacity="100" points="385.1287,347.9503 384.7382,341.963" stroke="#808080" stroke-width="1" /><polyline fill="none" opacity="100" points="382.135,348.1455 381.7446,342.1582" stroke="#808080" stroke-width="1" /><polyline fill="none" opacity="100" points="379.1414,348.3407 378.7509,342.3534" stroke="#808080" stroke-width="1" /><polyline fill="none" opacity="100" points="376.1478,348.536 375.7573,342.5487" stroke="#808080" stroke-width="1" /><polyline fill="none" opacity="100" points="373.1541,348.7312 372.7636,342.7439" stroke="#808080" stroke-width="1" /><polyline fill="none" opacity="100" points="370.1605,348.9264 369.77,342.9392" stroke="#808080" stroke-width="1" /><polyline fill="none" opacity="100" points="305.0,366.0 369.0,348.0" stroke="#808080" stroke-width="1" /><polyline fill="none" opacity="100" points="303.917,362.1494 367.917,344.1494" stroke="#808080" stroke-width="1" /><polyline fill="none" opacity="100" points="366.3828,349.7749 364.7583,343.999" stroke="#808080" stroke-width="1" /><polyline fill="none" opacity="100" points="363.4948,350.5871 361.8704,344.8112" stroke="#808080" stroke-width="1" /><polyline fill="none" opacity="100" points="360.6069,351.3994 358.9824,345.6235" stroke="#808080" stroke-width="1" /><polyline fill="none" opacity="100" points="357.7189,352.2116 356.0945,346.4357" stroke="#808080" stroke-width="1" /><polyline fill="none" opacity="100" points="354.831,353.0238 353.2065,347.2479" stroke="#808080" stroke-width="1" /><polyline fill="none" opacity="100" points="351.943,353.8361 350.3186,348.0602" stroke="#808080" stroke-width="1" /><polyline fill="none" opacity="100" points="349.0551,354.6483 347.4306,348.8724" stroke="#808080" stroke-width="1" /><polyline fill="none" opacity="100" points="346.1671,355.4605 344.5426,349.6846" stroke="#808080" stroke-width="1" /><polyline fill="none" opacity="100" points="343.2792,356.2728 341.6547,350.4969" stroke="#808080" stroke-width="1" /><polyline fill="none" opacity="100" points="340.3912,357.085 338.7667,351.3091" stroke="#808080" stroke-width="1" /><polyline fill="none" opacity="100" points="337.5033,357.8973 335.8788,352.1213" stroke="#808080" stroke-width="1" /><polyline fill="none" opacity="100" points="334.6153,358.7095 332.9908,352.9336" stroke="#808080" stroke-width="1" /><polyline fill="none" opacity="100" points="331.7274,359.5217 330.1029,353.7458" stroke="#808080" stroke-width="1" /><polyline fill="none" opacity="100" points="328.8394,360.334 327.2149,354.5581" stroke="#808080" stroke-width="1" /><polyline fill="none" opacity="100" points="325.9515,361.1462 324.327,355.3703" stroke="#808080" stroke-width="1" /><polyline fill="none" opacity="100" points="323.0635,361.9584 321.439,356.1825" stroke="#808080" stroke-width="1" /><polyline fill="none" opacity="100" points="320.1755,362.7707 318.5511,356.9948" stroke="#808080" stroke-width="1" /><polyline fill="none" opacity="100" points="317.2876,363.5829 315.6631,357.807" stroke="#808080" stroke-width="1" /><polyline fill="none" opacity="100" points="314.3996,364.3951 312.7752,358.6192" stroke="#808080" stroke-width="1" /><polyline fill="none" opacity="100" points="311.5117,365.2074 309.8872,359.4315" stroke="#808080" stroke-width="1" /><polyline fill="none" opacity="100" points="308.6237,366.0196 306.9993,360.2437" stroke="#808080" stroke-width="1" /><polyline fill="none" opacity="100" points="305.7358,366.8319 304.1113,361.056" stroke="#808080" stroke-width="1" /><polyline fill="none" opacity="100" points="219.0,400.0 305.0,366.0" stroke="#808080" stroke-width="1" /><polyline fill="none" opacity="100" points="217.5294,396.2802 303.5294,362.2802" stroke="#808080" stroke-width="1" /><polyline fill="none" opacity="100" points="302.5778,368.0329 300.3718,362.4532" stroke="#808080" stroke-width="1" /><polyline fill="none" opacity="100" points="299.7879,369.1359 297.5819,363.5561" stroke="#808080" stroke-width="1" /><polyline fill="none" opacity="100" points="296.998,370.2389 294.7921,364.6591" stroke="#808080" stroke-width="1" /><polyline fill="none" opacity="100" points="294.2081,371.3419 292.0022,365.7621" stroke="#808080" stroke-width="1" /><polyline fill="none" opacity="100" points="291.4182,372.4448 289.2123,366.8651" stroke="#808080" stroke-width="1" /><polyline fill="none" opacity="100" points="288.6284,373.5478 286.4224,367.9681" stroke="#808080" stroke-width="1" /><polyline fill="none" opacity="100" points="285.8385,374.6508 283.6325,369.071" stroke="#808080" stroke-width="1" /><polyline fill="none" opacity="100" points="283.0486,375.7538 280.8426,370.174" stroke="#808080" stroke-width="1" /><polyline fill="none" opacity="100" points="280.2587,376.8568 278.0528,371.277" stroke="#808080" stroke-width="1" /><polyline fill="none" opacity="100" points="277.4688,377.9597 275.2629,372.38" stroke="#808080" stroke-width="1" /><polyline fill="none" opacity="100" points="274.679,379.0627 272.473,373.4829" stroke="#808080" stroke-width="1" /><polyline fill="none" opacity="100" points="271.8891,380.1657 269.6831,374.5859" stroke="#808080" stroke-width="1" /><polyline fill="none" opacity="100" points="269.0992,381.2687 266.8932,375.6889" stroke="#808080" stroke-width="1" /><polyline fill="none" opacity="100" points="266.3093,382.3716 264.1034,376.7919" stroke="#808080" stroke-width="1" /><polyline fill="none" opacity="100" points="263.5194,383.4746 261.3135,377.8948" stroke="#808080" stroke-width="1" /><polyline fill="none" opacity="100" points="260.7295,384.5776 258.5236,378.9978" stroke="#808080" stroke-width="1" /><polyline fill="none" opacity="100" points="257.9397,385.6806 255.7337,380.1008" stroke="#808080" stroke-width="1" /><polyline fill="none" opacity="100" points="255.1498,386.7835 252.9438,381.2038" stroke="#808080" stroke-width="1" /><polyline fill="none" opacity="100" points="252.3599,387.8865 250.1539,382.3068" stroke="#808080" stroke-width="1" /><polyline fill="none" opacity="100" points="249.57,388.9895 247.3641,383.4097" stroke="#808080" stroke-width="1" /><polyline fill="none" opacity="100" points="246.7801,390.0925 244.5742,384.5127" stroke="#808080" stroke-width="1" /><polyline fill="none" opacity="100" points="243.9903,391.1954 241.7843,385.6157" stroke="#808080" stroke-width="1" /><polyline fill="none" opacity="100" points="241.2004,392.2984 238.9944,386.7187" stroke="#808080" stroke-width="1" /><polyline fill="none" opacity="100" points="238.4105,393.4014 236.2045,387.8216" stroke="#808080" stroke-width="1" /><polyline fill="none" opacity="100" points="235.6206,394.5044 233.4147,388.9246" stroke="#808080" stroke-width="1" /><polyline fill="none" opacity="100" points="232.8307,395.6074 230.6248,390.0276" stroke="#808080" stroke-width="1" /><polyline fill="none" opacity="100" points="230.0408,396.7103 227.8349,391.1306" stroke="#808080" stroke-width="1" /><polyline fill="none" opacity="100" points="227.251,397.8133 225.045,392.2335" stroke="#808080" stroke-width="1" /><polyline fill="none" opacity="100" points="224.4611,398.9163 222.2551,393.3365" stroke="#808080" stroke-width="1" /><polyline fill="none" opacity="100" points="221.6712,400.0193 219.4652,394.4395" stroke="#808080" stroke-width="1" /><polyline fill="none" opacity="100" points="179.0,429.0 219.0,400.0" stroke="#808080" stroke-width="1" /><polyline fill="none" opacity="100" points="176.6521,425.7616 216.6521,396.7616" stroke="#808080" stroke-width="1" /><polyline fill="none" opacity="100" points="217.1581,402.5705 213.6363,397.7129" stroke="#808080" stroke-width="1" /><polyline fill="none" opacity="100" points="214.7293,404.3314 211.2075,399.4738" stroke="#808080" stroke-width="1" /><polyline fill="none" opacity="100" points="212.3005,406.0923 208.7787,401.2347" stroke="#808080" stroke-width="1" /><polyline fill="none" opacity="100" points="209.8716,407.8532 206.3498,402.9956" stroke="#808080" stroke-width="1" /><polyline fill="none" opacity="100" points="207.4428,409.6141 203.921,404.7565" stroke="#808080" stroke-width="1" /><polyline fill="none" opacity="100" points="205.014,411.375 201.4922,406.5174" stroke="#808080" stroke-width="1" /><polyline fill="none" opacity="100" points="202.5851,413.1359 199.0633,408.2783" stroke="#808080" stroke-width="1" /><polyline fill="none" opacity="100" points="200.1563,414.8968 196.6345,410.0392" stroke="#808080" stroke-width="1" /><polyline fill="none" opacity="100" points="197.7275,416.6577 194.2057,411.8001" stroke="#808080" stroke-width="1" /><polyline fill="none" opacity="100" points="195.2987,418.4186 191.7768,413.561" stroke="#808080" stroke-width="1" /><polyline fill="none" opacity="100" points="192.8698,420.1795 189.348,415.3219" stroke="#808080" stroke-width="1" /><polyline fill="none" opacity="100" points="190.441,421.9404 186.9192,417.0828" stroke="#808080" stroke-width="1" /><polyline fill="none" opacity="100" points="188.0122,423.7013 184.4904,418.8437" stroke="#808080" stroke-width="1" /><polyline fill="none" opacity="100" points="185.5833,425.4622 182.0615,420.6046" stroke="#808080" stroke-width="1" /><polyline fill="none" opacity="100" points="183.1545,427.2232 179.6327,422.3655" stroke="#808080" stroke-width="1" /><polyline fill="none" opacity="100" points="180.7257,428.9841 177.2039,424.1264" stroke="#808080" stroke-width="1" /><polyline fill="none" opacity="100" points="150.0,460.0 179.0,429.0" stroke="#808080" stroke-width="1" /><polyline fill="none" opacity="100" points="147.0789,457.2674 176.0789,426.2674" stroke="#808080" stroke-width="1" /><polyline fill="none" opacity="100" points="177.6808,431.874 173.2992,427.775" stroke="#808080" stroke-width="1" /><polyline fill="none" opacity="100" points="175.6313,434.0648 171.2497,429.9658" stroke="#808080" stroke-width="1" /><polyline fill="none" opacity="100" points="173.5819,436.2556 169.2002,432.1567" stroke="#808080" stroke-width="1" /><polyline fill="none" opacity="100" points="171.5324,438.4464 167.1508,434.3475" stroke="#808080" stroke-width="1" /><polyline fill="none" opacity="100" points="169.4829,440.6372 165.1013,436.5383" stroke="#808080" stroke-width="1" /><polyline fill="none" opacity="100" points="167.4334,442.828 163.0518,438.7291" stroke="#808080" stroke-width="1" /><polyline fill="none" opacity="100" points="165.384,445.0189 161.0023,440.9199" stroke="#808080" stroke-width="1" /><polyline fill="none" opacity="100" points="163.3345,447.2097 158.9529,443.1107" stroke="#808080" stroke-width="1" /><polyline fill="none" opacity="100" points="161.285,449.4005 156.9034,445.3015" stroke="#808080" stroke-width="1" /><polyline fill="none" opacity="100" points="159.2356,451.5913 154.8539,447.4924" stroke="#808080" stroke-width="1" /><polyline fill="none" opacity="100" points="157.1861,453.7821 152.8045,449.6832" stroke="#808080" stroke-width="1" /><polyline fill="none" opacity="100" points="155.1366,455.9729 150.755,451.874" stroke="#808080" stroke-width="1" /><polyline fill="none" opacity="100" points="153.0871,458.1637 148.7055,454.0648" stroke="#808080" stroke-width="1" /><polyline fill="none" opacity="100" points="151.0377,460.3546 146.656,456.2556" stroke="#808080" stroke-width="1" /><polyline fill="none" opacity="100" points="96.0,464.0 150.0,460.0" stroke="#808080" stroke-width="1" /><polyline fill="none" opacity="100" points="95.7045,460.0109 149.7045,456.0109" stroke="#808080" stroke-width="1" /><polyline fill="none" opacity="100" points="147.0821,461.2189 146.6388,455.2353" stroke="#808080" stroke-width="1" /><polyline fill="none" opacity="100" points="144.0903,461.4405 143.647,455.4569" stroke="#808080" stroke-width="1" /><polyline fill="none" opacity="100" points="141.0985,461.6621 140.6552,455.6785" stroke="#808080" stroke-width="1" /><polyline fill="none" opacity="100" points="138.1067,461.8837 137.6634,455.9001" stroke="#808080" stroke-width="1" /><polyline fill="none" opacity="100" points="135.1149,462.1053 134.6716,456.1217" stroke="#808080" stroke-width="1" /><polyline fill="none" opacity="100" points="132.1231,462.327 131.6798,456.3434" stroke="#808080" stroke-width="1" /><polyline fill="none" opacity="100" points="129.1312,462.5486 128.688,456.565" stroke="#808080" stroke-width="1" /><polyline fill="none" opacity="100" points="126.1394,462.7702 125.6962,456.7866" stroke="#808080" stroke-width="1" /><polyline fill="none" opacity="100" points="123.1476,462.9918 122.7044,457.0082" stroke="#808080" stroke-width="1" /><polyline fill="none" opacity="100" points="120.1558,463.2134 119.7126,457.2298" stroke="#808080" stroke-width="1" /><polyline fill="none" opacity="100" points="117.164,463.435 116.7208,457.4514" stroke="#808080" stroke-width="1" /><polyline fill="none" opacity="100" points="114.1722,463.6566 113.729,457.673" stroke="#808080" stroke-width="1" /><polyline fill="none" opacity="100" points="111.1804,463.8783 110.7372,457.8947" stroke="#808080" stroke-width="1" /><polyline fill="none" opacity="100" points="108.1886,464.0999 107.7454,458.1163" stroke="#808080" stroke-width="1" /><polyline fill="none" opacity="100" points="105.1968,464.3215 104.7536,458.3379" stroke="#808080" stroke-width="1" /><polyline fill="none" opacity="100" points="102.205,464.5431 101.7618,458.5595" stroke="#808080" stroke-width="1" /><polyline fill="none" opacity="100" points="99.2132,464.7647 98.77,458.7811" stroke="#808080" stroke-width="1" /><polyline fill="none" opacity="100" points="96.2214,464.9863 95.7782,459.0027" stroke="#808080" stroke-width="1" /><polyline fill="none" opacity="100" points="53.0,465.0 96.0,464.0" stroke="#808080" stroke-width="1" /><polyline fill="none" opacity="100" points="52.907,461.0011 95.907,460.0011" stroke="#808080" stroke-width="1" /><polyline fill="none" opacity="100" points="93.0241,465.0695 92.8846,459.0711" stroke="#808080" stroke-width="1" /><polyline fill="none" opacity="100" points="90.0249,465.1392 89.8854,459.1408" stroke="#808080" stroke-width="1" /><polyline fill="none" opacity="100" points="87.0257,465.209 86.8862,459.2106" stroke="#808080" stroke-width="1" /><polyline fill="none" opacity="100" points="84.0265,465.2787 83.887,459.2803" stroke="#808080" stroke-width="1" /><polyline fill="none" opacity="100" points="81.0273,465.3485 80.8878,459.3501" stroke="#808080" stroke-width="1" /><polyline fill="none" opacity="100" points="78.0281,465.4182 77.8886,459.4198" stroke="#808080" stroke-width="1" /><polyline fill="none" opacity="100" points="75.0289,465.488 74.8894,459.4896" stroke="#808080" stroke-width="1" /><polyline fill="none" opacity="100" points="72.0297,465.5577 71.8902,459.5593" stroke="#808080" stroke-width="1" /><polyline fill="none" opacity="100" points="69.0305,465.6275 68.8911,459.6291" stroke="#808080" stroke-width="1" /><polyline fill="none" opacity="100" points="66.0314,465.6972 65.8919,459.6988" stroke="#808080" stroke-width="1" /><polyline fill="none" opacity="100" points="63.0322,465.767 62.8927,459.7686" stroke="#808080" stroke-width="1" /><polyline fill="none" opacity="100" points="60.033,465.8367 59.8935,459.8383" stroke="#808080" stroke-width="1" /><polyline fill="none" opacity="100" points="57.0338,465.9065 56.8943,459.9081" stroke="#808080" stroke-width="1" /><polyline fill="none" opacity="100" points="54.0346,465.9762 53.8951,459.9778" stroke="#808080" stroke-width="1" /><polyline fill="none" opacity="100" points="-1.0,477.0 53.0,465.0" stroke="#808080" stroke-width="1" /><polyline fill="none" opacity="100" points="-1.8677,473.0953 52.1323,461.0953" stroke="#808080" stroke-width="1" /><polyline fill="none" opacity="100" points="50.2884,466.627 48.9868,460.7699" stroke="#808080" stroke-width="1" /><polyline fill="none" opacity="100" points="47.3598,467.2778 46.0582,461.4206" stroke="#808080" stroke-width="1" /><polyline fill="none" opacity="100" points="44.4312,467.9286 43.1297,462.0714" stroke="#808080" stroke-width="1" /><polyline fill="none" opacity="100" points="41.5027,468.5794 40.2011,462.7222" stroke="#808080" stroke-width="1" /><polyline fill="none" opacity="100" points="38.5741,469.2301 37.2725,463.373" stroke="#808080" stroke-width="1" /><polyline fill="none" opacity="100" points="35.6456,469.8809 34.344,464.0238" stroke="#808080" stroke-width="1" /><polyline fill="none" opacity="100" points="32.717,470.5317 31.4154,464.6746" stroke="#808080" stroke-width="1" /><polyline fill="none" opacity="100" points="29.7884,471.1825 28.4869,465.3254" stroke="#808080" stroke-width="1" /><polyline fill="none" opacity="100" points="26.8599,471.8333 25.5583,465.9762" stroke="#808080" stroke-width="1" /><polyline fill="none" opacity="100" points="23.9313,472.4841 22.6297,466.627" stroke="#808080" stroke-width="1" /><polyline fill="none" opacity="100" points="21.0028,473.1349 19.7012,467.2778" stroke="#808080" stroke-width="1" /><polyline fill="none" opacity="100" points="18.0742,473.7857 16.7726,467.9286" stroke="#808080" stroke-width="1" /><polyline fill="none" opacity="100" points="15.1456,474.4365 13.8441,468.5794" stroke="#808080" stroke-width="1" /><polyline fill="none" opacity="100" points="12.2171,475.0873 10.9155,469.2301" stroke="#808080" stroke-width="1" /><polyline fill="none" opacity="100" points="9.2885,475.7381 7.9869,469.8809" stroke="#808080" stroke-width="1" /><polyline fill="none" opacity="100" points="6.36,476.3888 5.0584,470.5317" stroke="#808080" stroke-width="1" /><polyline fill="none" opacity="100" points="3.4314,477.0396 2.1298,471.1825" stroke="#808080" stroke-width="1" /><polyline fill="none" opacity="100" points="0.5028,477.6904 -0.7988,471.8333" stroke="#808080" stroke-width="1" /><polyline fill="none" opacity="100" points="988.0,622.0 1054.0,509.0" stroke="#808080" stroke-width="1" /><polyline fill="none" opacity="100" points="984.546,619.9826 1050.546,506.9826" stroke="#808080" stroke-width="1" /><polyline fill="none" opacity="100" points="1053.3505,512.0949 1048.1695,509.0688" stroke="#808080" stroke-width="1" /><polyline fill="none" opacity="100" points="1051.8374,514.6854 1046.6564,511.6593" stroke="#808080" stroke-width="1" /><polyline fill="none" opacity="100" points="1050.3244,517.2759 1045.1434,514.2498" stroke="#808080" stroke-width="1" /><polyline fill="none" opacity="100" points="1048.8113,519.8664 1043.6303,516.8403" stroke="#808080" stroke-width="1" /><polyline fill="none" opacity="100" points="1047.2983,522.4569 1042.1173,519.4308" stroke="#808080" stroke-width="1" /><polyline fill="none" opacity="100" points="1045.7853,525.0474 1040.6043,522.0213" stroke="#808080" stroke-width="1" /><polyline fill="none" opacity="100" points="1044.2722,527.6379 1039.0912,524.6118" stroke="#808080" stroke-width="1" /><polyline fill="none" opacity="100" points="1042.7592,530.2284 1037.5782,527.2023" stroke="#808080" stroke-width="1" /><polyline fill="none" opacity="100" points="1041.2462,532.8189 1036.0651,529.7928" stroke="#808080" stroke-width="1" /><polyline fill="none" opacity="100" points="1039.7331,535.4094 1034.5521,532.3833" stroke="#808080" stroke-width="1" /><polyline fill="none" opacity="100" points="1038.2201,537.9999 1033.0391,534.9738" stroke="#808080" stroke-width="1" /><polyline fill="none" opacity="100" points="1036.707,540.5904 1031.526,537.5643" stroke="#808080" stroke-width="1" /><polyline fill="none" opacity="100" points="1035.194,543.1809 1030.013,540.1548" stroke="#808080" stroke-width="1" /><polyline fill="none" opacity="100" points="1033.681,545.7714 1028.5,542.7453" stroke="#808080" stroke-width="1" /><polyline fill="none" opacity="100" points="1032.1679,548.3619 1026.9869,545.3358" stroke="#808080" stroke-width="1" /><polyline fill="none" opacity="100" points="1030.6549,550.9524 1025.4739,547.9263" stroke="#808080" stroke-width="1" /><polyline fill="none" opacity="100" points="1029.1419,553.5429 1023.9608,550.5169" stroke="#808080" stroke-width="1" /><polyline fill="none" opacity="100" points="1027.6288,556.1334 1022.4478,553.1074" stroke="#808080" stroke-width="1" /><polyline fill="none" opacity="100" points="1026.1158,558.7239 1020.9348,555.6979" stroke="#808080" stroke-width="1" /><polyline fill="none" opacity="100" points="1024.6027,561.3144 1019.4217,558.2884" stroke="#808080" stroke-width="1" /><polyline fill="none" opacity="100" points="1023.0897,563.9049 1017.9087,560.8789" stroke="#808080" stroke-width="1" /><polyline fill="none" opacity="100" points="1021.5767,566.4955 1016.3957,563.4694" stroke="#808080" stroke-width="1" /><polyline fill="none" opacity="100" points="1020.0636,569.086 1014.8826,566.0599" stroke="#808080" stroke-width="1" /><polyline fill="none" opacity="100" points="1018.5506,571.6765 1013.3696,568.6504" stroke="#808080" stroke-width="1" /><polyline fill="none" opacity="100" points="1017.0375,574.267 1011.8565,571.2409" stroke="#808080" stroke-width="1" /><polyline fill="none" opacity="100" points="1015.5245,576.8575 1010.3435,573.8314" stroke="#808080" stroke-width="1" /><polyline fill="none" opacity="100" points="1014.0115,579.448 1008.8305,576.4219" stroke="#808080" stroke-width="1" /><polyline fill="none" opacity="100" points="1012.4984,582.0385 1007.3174,579.0124" stroke="#808080" stroke-width="1" /><polyline fill="none" opacity="100" points="1010.9854,584.629 1005.8044,581.6029" stroke="#808080" stroke-width="1" /><polyline fill="none" opacity="100" points="1009.4724,587.2195 1004.2913,584.1934" stroke="#808080" stroke-width="1" /><polyline fill="none" opacity="100" points="1007.9593,589.81 1002.7783,586.7839" stroke="#808080" stroke-width="1" /><polyline fill="none" opacity="100" points="1006.4463,592.4005 1001.2653,589.3744" stroke="#808080" stroke-width="1" /><polyline fill="none" opacity="100" points="1004.9332,594.991 999.7522,591.9649" stroke="#808080" stroke-width="1" /><polyline fill="none" opacity="100" points="1003.4202,597.5815 998.2392,594.5554" stroke="#808080" stroke-width="1" /><polyline fill="none" opacity="100" points="1001.9072,600.172 996.7262,597.1459" stroke="#808080" stroke-width="1" /><polyline fill="none" opacity="100" points="1000.3941,602.7625 995.2131,599.7364" stroke="#808080" stroke-width="1" /><polyline fill="none" opacity="100" points="998.8811,605.353 993.7001,602.3269" stroke="#808080" stroke-width="1" /><polyline fill="none" opacity="100" points="997.368,607.9435 992.187,604.9175" stroke="#808080" stroke-width="1" /><polyline fill="none" opacity="100" points="995.855,610.534 990.674,607.508" stroke="#808080" stroke-width="1" /><polyline fill="none" opacity="100" points="994.342,613.1245 989.161,610.0985" stroke="#808080" stroke-width="1" /><polyline fill="none" opacity="100" points="992.8289,615.715 987.6479,612.689" stroke="#808080" stroke-width="1" /><polyline fill="none" opacity="100" points="991.3159,618.3055 986.1349,615.2795" stroke="#808080" stroke-width="1" /><polyline fill="none" opacity="100" points="989.8029,620.8961 984.6218,617.87" stroke="#808080" stroke-width="1" /><polyline fill="none" opacity="100" points="962.0,701.0 988.0,622.0" stroke="#808080" stroke-width="1" /><polyline fill="none" opacity="100" points="958.2005,699.7495 984.2005,620.7495" stroke="#808080" stroke-width="1" /><polyline fill="none" opacity="100" points="988.012,625.1623 982.3128,623.2865" stroke="#808080" stroke-width="1" /><polyline fill="none" opacity="100" points="987.0742,628.0119 981.3749,626.1362" stroke="#808080" stroke-width="1" /><polyline fill="none" opacity="100" points="986.1363,630.8615 980.437,628.9858" stroke="#808080" stroke-width="1" /><polyline fill="none" opacity="100" points="985.1985,633.7112 979.4992,631.8355" stroke="#808080" stroke-width="1" /><polyline fill="none" opacity="100" points="984.2606,636.5608 978.5613,634.6851" stroke="#808080" stroke-width="1" /><polyline fill="none" opacity="100" points="983.3227,639.4104 977.6235,637.5347" stroke="#808080" stroke-width="1" /><polyline fill="none" opacity="100" points="982.3849,642.2601 976.6856,640.3844" stroke="#808080" stroke-width="1" /><polyline fill="none" opacity="100" points="981.447,645.1097 975.7478,643.234" stroke="#808080" stroke-width="1" /><polyline fill="none" opacity="100" points="980.5092,647.9593 974.8099,646.0836" stroke="#808080" stroke-width="1" /><polyline fill="none" opacity="100" points="979.5713,650.809 973.8721,648.9333" stroke="#808080" stroke-width="1" /><polyline fill="none" opacity="100" points="978.6335,653.6586 972.9342,651.7829" stroke="#808080" stroke-width="1" /><polyline fill="none" opacity="100" points="977.6956,656.5083 971.9963,654.6325" stroke="#808080" stroke-width="1" /><polyline fill="none" opacity="100" points="976.7578,659.3579 971.0585,657.4822" stroke="#808080" stroke-width="1" /><polyline fill="none" opacity="100" points="975.8199,662.2075 970.1206,660.3318" stroke="#808080" stroke-width="1" /><polyline fill="none" opacity="100" points="974.8821,665.0572 969.1828,663.1815" stroke="#808080" stroke-width="1" /><polyline fill="none" opacity="100" points="973.9442,667.9068 968.2449,666.0311" stroke="#808080" stroke-width="1" /><polyline fill="none" opacity="100" points="973.0063,670.7564 967.3071,668.8807" stroke="#808080" stroke-width="1" /><polyline fill="none" opacity="100" points="972.0685,673.6061 966.3692,671.7304" stroke="#808080" stroke-width="1" /><polyline fill="none" opacity="100" points="971.1306,676.4557 965.4314,674.58" stroke="#808080" stroke-width="1" /><polyline fill="none" opacity="100" points="970.1928,679.3053 964.4935,677.4296" stroke="#808080" stroke-width="1" /><polyline fill="none" opacity="100" points="969.2549,682.155 963.5557,680.2793" stroke="#808080" stroke-width="1" /><polyline fill="none" opacity="100" points="968.3171,685.0046 962.6178,683.1289" stroke="#808080" stroke-width="1" /><polyline fill="none" opacity="100" points="967.3792,687.8543 961.6799,685.9785" stroke="#808080" stroke-width="1" /><polyline fill="none" opacity="100" points="966.4414,690.7039 960.7421,688.8282" stroke="#808080" stroke-width="1" /><polyline fill="none" opacity="100" points="965.5035,693.5535 959.8042,691.6778" stroke="#808080" stroke-width="1" /><polyline fill="none" opacity="100" points="964.5656,696.4032 958.8664,694.5275" stroke="#808080" stroke-width="1" /><polyline fill="none" opacity="100" points="963.6278,699.2528 957.9285,697.3771" stroke="#808080" stroke-width="1" /><text fill="#FFF" font-family="Arial" font-size="30" font-weight="bold" opacity="100" transform="rotate(20.0 460.0,148.0) translate(0 30)" x="460.0" y="148.0">. </text><text fill="#040464" font-family="Arial" font-size="30" font-weight="bold" opacity="100" transform="rotate(-0.0 582.0,16.0) translate(0 30)" x="582.0" y="16.0"> .</text></g></svg>